<svg version="1.1" baseProfile="full" xmlns="http://www.w3.org/2000/svg" width="1757.9666666666667" height="80">
	<g>
		<line x1="10" y1="40.0" x2="1747.9666666666667" y2="40.0" style="stroke:rgb(70,70,70); stroke-width:3 "/>
		<g>
			<title> (ctg3_322)</title>
			<polygon class=" (ctg3_322)" points="21,40 32,10 32,70" fill="rgb(255,255,255)" fill-opacity="1.0" stroke="rgb(0,0,0)" stroke-width="2"  />
			<g>
				<title>DUF5375 (PF17345)
"Family of unknown function (DUF5375)"</title>
				<polygon class="PF17345" points="24,40 28,28 31,28 31,52 28,52" stroke-linejoin="round" width="10" height="24" fill="rgb(91,134,189)" stroke="rgb(72,107,151)" stroke-width="1" opacity="0.75" />
			</g>
		</g>
		<g>
			<title> (ctg3_323)</title>
			<polygon class=" (ctg3_323)" points="32,40 40,10 40,70" fill="rgb(255,255,255)" fill-opacity="1.0" stroke="rgb(0,0,0)" stroke-width="2"  />
		</g>
		<g>
			<title> (ctg3_324)</title>
			<polygon class=" (ctg3_324)" points="40,40 46,10 46,70" fill="rgb(255,255,255)" fill-opacity="1.0" stroke="rgb(0,0,0)" stroke-width="2"  />
		</g>
		<g>
			<title> (ctg3_325)</title>
			<polygon class=" (ctg3_325)" points="59,40 67,10 67,70" fill="rgb(255,255,255)" fill-opacity="1.0" stroke="rgb(0,0,0)" stroke-width="2"  />
		</g>
		<g>
			<title> (ctg3_326)</title>
			<polygon class=" (ctg3_326)" points="67,40 75,10 75,70" fill="rgb(255,255,255)" fill-opacity="1.0" stroke="rgb(0,0,0)" stroke-width="2"  />
			<g>
				<title>Phage_AlpA (PF05930)
"Prophage CP4-57 regulatory protein (AlpA)"</title>
				<polygon class="PF05930" points="70,40 73,30 73,50" stroke-linejoin="round" width="5" height="24" fill="rgb(127,223,77)" stroke="rgb(101,178,61)" stroke-width="1" opacity="0.75" />
			</g>
		</g>
		<g>
			<title> (ctg3_327)</title>
			<polygon class=" (ctg3_327)" points="147,25 137,25 137,10 107,40 137,70 137,55 147,55" fill="rgb(255,255,255)" fill-opacity="1.0" stroke="rgb(0,0,0)" stroke-width="2"  />
			<g>
				<title>Phage_integrase (PF00589)
"Phage integrase family"</title>
				<polygon class="PF00589" points="111,40 123,28 127,28 127,52 123,52" stroke-linejoin="round" width="17" height="24" fill="rgb(91,96,195)" stroke="rgb(72,76,156)" stroke-width="1" opacity="0.75" />
			</g>
			<g>
				<title>Arm-DNA-bind_3 (PF13356)
"Arm DNA-binding domain"</title>
				<rect class="PF13356" x="140" y="28" stroke-linejoin="round" width="7" height="24" fill="rgb(47,183,132)" stroke="rgb(37,146,105)" stroke-width="1" opacity="0.75" />
			</g>
		</g>
		<g>
			<title> (ctg3_328)</title>
			<polygon class=" (ctg3_328)" points="166,10 189,40 166,70" fill="rgb(255,255,255)" fill-opacity="1.0" stroke="rgb(0,0,0)" stroke-width="2"  />
			<g>
				<title>DeoC (PF01791)
"DeoC/LacD family aldolase"</title>
				<polygon class="PF01791" points="166,28 176,28 185,40 176,52 166,52" stroke-linejoin="round" width="20" height="24" fill="rgb(151,59,198)" stroke="rgb(120,47,158)" stroke-width="1" opacity="0.75" />
			</g>
		</g>
		<g>
			<title> (ctg3_329)</title>
			<polygon class=" (ctg3_329)" points="192,25 213,25 213,10 243,40 213,70 213,55 192,55" fill="rgb(255,255,255)" fill-opacity="1.0" stroke="rgb(0,0,0)" stroke-width="2"  />
			<g>
				<title>FGGY_N (PF00370)
"FGGY family of carbohydrate kinases, N-terminal domain"</title>
				<rect class="PF00370" x="192" y="28" stroke-linejoin="round" width="24" height="24" fill="rgb(83,186,105)" stroke="rgb(66,148,83)" stroke-width="1" opacity="0.75" />
			</g>
			<g>
				<title>FGGY_C (PF02782)
"FGGY family of carbohydrate kinases, C-terminal domain"</title>
				<polygon class="PF02782" points="217,28 226,28 235,37 235,43 226,52 217,52" stroke-linejoin="round" width="18" height="24" fill="rgb(204,103,85)" stroke="rgb(163,82,68)" stroke-width="1" opacity="0.75" />
			</g>
		</g>
		<g>
			<title> (ctg3_330)</title>
			<polygon class=" (ctg3_330)" points="243,25 257,25 257,10 287,40 257,70 257,55 243,55" fill="rgb(255,255,255)" fill-opacity="1.0" stroke="rgb(0,0,0)" stroke-width="2"  />
			<g>
				<title>MFS_1 (PF07690)
"Major Facilitator Superfamily"</title>
				<polygon class="PF07690" points="246,28 271,28 283,40 283,40 271,52 246,52" stroke-linejoin="round" width="37" height="24" fill="rgb(193,224,74)" stroke="rgb(154,179,59)" stroke-width="1" opacity="0.75" />
			</g>
		</g>
		<g>
			<title> (ctg3_331)</title>
			<polygon class=" (ctg3_331)" points="288,10 301,40 288,70" fill="rgb(255,255,255)" fill-opacity="1.0" stroke="rgb(0,0,0)" stroke-width="2"  />
			<g>
				<title>Glyoxalase_4 (PF13669)
"Glyoxalase/Bleomycin resistance protein/Dioxygenase superfamily"</title>
				<polygon class="PF13669" points="288,28 292,28 297,40 292,52 288,52" stroke-linejoin="round" width="10" height="24" fill="rgb(66,183,136)" stroke="rgb(52,146,108)" stroke-width="1" opacity="0.75" />
			</g>
		</g>
		<g>
			<title> (ctg3_332)</title>
			<polygon class=" (ctg3_332)" points="343,10 364,40 343,70" fill="rgb(255,255,255)" fill-opacity="1.0" stroke="rgb(0,0,0)" stroke-width="2"  />
			<g>
				<title>Autoind_synth (PF00765)
"Autoinducer synthase"</title>
				<polygon class="PF00765" points="343,28 352,28 360,39 360,41 352,52 343,52" stroke-linejoin="round" width="17" height="24" fill="rgb(197,72,80)" stroke="rgb(157,57,64)" stroke-width="1" opacity="0.75" />
			</g>
		</g>
		<g>
			<title> (ctg3_333)</title>
			<polygon class=" (ctg3_333)" points="364,40 387,10 387,70" fill="rgb(255,255,255)" fill-opacity="1.0" stroke="rgb(0,0,0)" stroke-width="2"  />
			<g>
				<title>GerE (PF00196)
"Bacterial regulatory proteins, luxR family"</title>
				<polygon class="PF00196" points="368,40 370,37 370,43" stroke-linejoin="round" width="5" height="24" fill="rgb(219,94,82)" stroke="rgb(175,75,65)" stroke-width="1" opacity="0.75" />
			</g>
			<g>
				<title>Autoind_bind (PF03472)
"Autoinducer binding domain"</title>
				<polygon class="PF03472" points="372,35 378,28 386,28 386,52 378,52 372,45" stroke-linejoin="round" width="14" height="24" fill="rgb(99,181,52)" stroke="rgb(79,144,41)" stroke-width="1" opacity="0.75" />
			</g>
		</g>
		<g>
			<title> (ctg3_334)</title>
			<polygon class=" (ctg3_334)" points="394,10 419,40 394,70" fill="rgb(255,255,255)" fill-opacity="1.0" stroke="rgb(0,0,0)" stroke-width="2"  />
			<g>
				<title>HTH_DeoR (PF08220)
"DeoR-like helix-turn-helix domain"</title>
				<rect class="PF08220" x="394" y="28" stroke-linejoin="round" width="5" height="24" fill="rgb(194,214,67)" stroke="rgb(155,171,53)" stroke-width="1" opacity="0.75" />
			</g>
			<g>
				<title>DeoRC (PF00455)
"DeoR C terminal sensor domain"</title>
				<polygon class="PF00455" points="401,28 405,28 415,40 405,52 401,52" stroke-linejoin="round" width="15" height="24" fill="rgb(183,143,83)" stroke="rgb(146,114,66)" stroke-width="1" opacity="0.75" />
			</g>
		</g>
		<g>
			<title> (ctg3_335)</title>
			<polygon class=" (ctg3_335)" points="457,25 452,25 452,10 422,40 452,70 452,55 457,55" fill="rgb(255,255,255)" fill-opacity="1.0" stroke="rgb(0,0,0)" stroke-width="2"  />
			<g>
				<title>LptF_LptG (PF03739)
"Lipopolysaccharide export system permease LptF/LptG"</title>
				<polygon class="PF03739" points="426,40 438,28 456,28 456,52 438,52" stroke-linejoin="round" width="34" height="24" fill="rgb(98,66,205)" stroke="rgb(78,52,164)" stroke-width="1" opacity="0.75" />
			</g>
		</g>
		<g>
			<title> (ctg3_336)</title>
			<polygon class=" (ctg3_336)" points="494,25 488,25 488,10 458,40 488,70 488,55 494,55" fill="rgb(255,255,255)" fill-opacity="1.0" stroke="rgb(0,0,0)" stroke-width="2"  />
			<g>
				<title>LptF_LptG (PF03739)
"Lipopolysaccharide export system permease LptF/LptG"</title>
				<polygon class="PF03739" points="462,40 474,28 493,28 493,52 474,52" stroke-linejoin="round" width="34" height="24" fill="rgb(98,66,205)" stroke="rgb(78,52,164)" stroke-width="1" opacity="0.75" />
			</g>
		</g>
		<g>
			<title> (ctg3_337)</title>
			<polygon class=" (ctg3_337)" points="503,25 523,25 523,10 553,40 523,70 523,55 503,55" fill="rgb(255,255,255)" fill-opacity="1.0" stroke="rgb(0,0,0)" stroke-width="2"  />
			<g>
				<title>Peptidase_M17_N (PF02789)
"Cytosol aminopeptidase family, N-terminal domain"</title>
				<rect class="PF02789" x="504" y="28" stroke-linejoin="round" width="12" height="24" fill="rgb(216,155,96)" stroke="rgb(172,124,76)" stroke-width="1" opacity="0.75" />
			</g>
			<g>
				<title>Peptidase_M17 (PF00883)
"Cytosol aminopeptidase family, catalytic domain"</title>
				<polygon class="PF00883" points="521,28 537,28 549,40 537,52 521,52" stroke-linejoin="round" width="30" height="24" fill="rgb(81,178,163)" stroke="rgb(64,142,130)" stroke-width="1" opacity="0.75" />
			</g>
		</g>
		<g>
			<title> (ctg3_338)</title>
			<polygon class=" (ctg3_338)" points="562,10 577,40 562,70" fill="rgb(255,255,255)" fill-opacity="1.0" stroke="rgb(0,0,0)" stroke-width="2"  />
			<g>
				<title>DNA_pol3_chi (PF04364)
"DNA polymerase III chi subunit, HolC"</title>
				<polygon class="PF04364" points="562,28 567,28 573,40 567,52 562,52" stroke-linejoin="round" width="14" height="24" fill="rgb(212,174,104)" stroke="rgb(169,139,83)" stroke-width="1" opacity="0.75" />
			</g>
		</g>
		<g>
			<title> (ctg3_339)</title>
			<polygon class=" (ctg3_339)" points="577,25 642,25 642,10 672,40 642,70 642,55 577,55" fill="rgb(255,255,255)" fill-opacity="1.0" stroke="rgb(0,0,0)" stroke-width="2"  />
			<g>
				<title>tRNA-synt_1 (PF00133)
"tRNA synthetases class I (I, L, M and V)"</title>
				<rect class="PF00133" x="579" y="28" stroke-linejoin="round" width="61" height="24" fill="rgb(209,58,146)" stroke="rgb(167,46,116)" stroke-width="1" opacity="0.75" />
			</g>
			<g>
				<title>Anticodon_1 (PF08264)
"Anticodon-binding domain of tRNA ligase"</title>
				<polygon class="PF08264" points="645,28 656,28 660,32 660,48 656,52 645,52" stroke-linejoin="round" width="15" height="24" fill="rgb(85,52,208)" stroke="rgb(68,41,166)" stroke-width="1" opacity="0.75" />
			</g>
			<g>
				<title>Val_tRNA-synt_C (PF10458)
"Valyl tRNA synthetase tRNA binding arm"</title>
				<polygon class="PF10458" points="666,38 668,40 666,42" stroke-linejoin="round" width="6" height="24" fill="rgb(180,145,58)" stroke="rgb(144,116,46)" stroke-width="1" opacity="0.75" />
			</g>
		</g>
		<g>
			<title> (ctg3_340)</title>
			<polygon class=" (ctg3_340)" points="679,10 695,40 679,70" fill="rgb(255,255,255)" fill-opacity="1.0" stroke="rgb(0,0,0)" stroke-width="2"  />
			<g>
				<title>Acetyltransf_1 (PF00583)
"Acetyltransferase (GNAT) family"</title>
				<polygon class="PF00583" points="681,28 685,28 692,40 692,40 685,52 681,52" stroke-linejoin="round" width="11" height="24" fill="rgb(121,183,50)" stroke="rgb(96,146,39)" stroke-width="1" opacity="0.75" />
			</g>
		</g>
		<g>
			<title> (ctg3_341)</title>
			<polygon class=" (ctg3_341)" points="704,25 727,25 727,10 757,40 727,70 727,55 704,55" fill="rgb(255,255,255)" fill-opacity="1.0" stroke="rgb(0,0,0)" stroke-width="2"  />
			<g>
				<title>GMC_oxred_N (PF00732)
"GMC oxidoreductase"</title>
				<rect class="PF00732" x="704" y="28" stroke-linejoin="round" width="29" height="24" fill="rgb(180,89,214)" stroke="rgb(143,71,171)" stroke-width="1" opacity="0.75" />
			</g>
			<g>
				<title>GMC_oxred_C (PF05199)
"GMC oxidoreductase"</title>
				<polygon class="PF05199" points="742,29 753,40 742,51" stroke-linejoin="round" width="13" height="24" fill="rgb(186,52,106)" stroke="rgb(148,41,84)" stroke-width="1" opacity="0.75" />
			</g>
		</g>
		<g>
			<title> (ctg3_342)</title>
			<polygon class=" (ctg3_342)" points="758,40 783,10 783,70" fill="rgb(255,255,255)" fill-opacity="1.0" stroke="rgb(0,0,0)" stroke-width="2"  />
			<g>
				<title>MiaE (PF06175)
"tRNA-(MS[2]IO[6]A)-hydroxylase (MiaE)"</title>
				<polygon class="PF06175" points="762,40 772,28 782,28 782,52 772,52" stroke-linejoin="round" width="24" height="24" fill="rgb(112,226,180)" stroke="rgb(89,180,144)" stroke-width="1" opacity="0.75" />
			</g>
		</g>
		<g>
			<title> (ctg3_343)</title>
			<polygon class=" (ctg3_343)" points="789,40 803,10 803,70" fill="rgb(255,255,255)" fill-opacity="1.0" stroke="rgb(0,0,0)" stroke-width="2"  />
			<g>
				<title>RraB (PF06877)
"Regulator of ribonuclease activity B"</title>
				<polygon class="PF06877" points="792,40 798,28 801,28 801,52 798,52" stroke-linejoin="round" width="10" height="24" fill="rgb(134,65,184)" stroke="rgb(107,52,147)" stroke-width="1" opacity="0.75" />
			</g>
		</g>
		<g>
			<title> (ctg3_344)</title>
			<polygon class=" (ctg3_344)" points="809,25 813,25 813,10 843,40 813,70 813,55 809,55" fill="rgb(255,255,255)" fill-opacity="1.0" stroke="rgb(0,0,0)" stroke-width="2"  />
			<g>
				<title>OTCace_N (PF02729)
"Aspartate/ornithine carbamoyltransferase, carbamoyl-P binding domain"</title>
				<rect class="PF02729" x="810" y="28" stroke-linejoin="round" width="14" height="24" fill="rgb(223,74,58)" stroke="rgb(178,59,46)" stroke-width="1" opacity="0.75" />
			</g>
			<g>
				<title>OTCace (PF00185)
"Aspartate/ornithine carbamoyltransferase, Asp/Orn binding domain"</title>
				<polygon class="PF00185" points="824,28 826,28 838,40 826,52 824,52" stroke-linejoin="round" width="17" height="24" fill="rgb(215,107,106)" stroke="rgb(172,85,84)" stroke-width="1" opacity="0.75" />
			</g>
		</g>
		<g>
			<title> (ctg3_345)</title>
			<polygon class=" (ctg3_345)" points="850,25 872,25 872,10 902,40 872,70 872,55 850,55" fill="rgb(255,255,255)" fill-opacity="1.0" stroke="rgb(0,0,0)" stroke-width="2"  />
			<g>
				<title>SBP_bac_5 (PF00496)
"Bacterial extracellular solute-binding proteins, family 5 Middle"</title>
				<polygon class="PF00496" points="857,28 886,28 894,36 894,44 886,52 857,52" stroke-linejoin="round" width="37" height="24" fill="rgb(199,94,116)" stroke="rgb(159,75,92)" stroke-width="1" opacity="0.75" />
			</g>
		</g>
		<g>
			<title> (ctg3_346)</title>
			<polygon class=" (ctg3_346)" points="911,25 912,25 912,10 942,40 912,70 912,55 911,55" fill="rgb(255,255,255)" fill-opacity="1.0" stroke="rgb(0,0,0)" stroke-width="2"  />
			<g>
				<title>OTCace_N (PF02729)
"Aspartate/ornithine carbamoyltransferase, carbamoyl-P binding domain"</title>
				<rect class="PF02729" x="911" y="28" stroke-linejoin="round" width="14" height="24" fill="rgb(223,74,58)" stroke="rgb(178,59,46)" stroke-width="1" opacity="0.75" />
			</g>
			<g>
				<title>OTCace (PF00185)
"Aspartate/ornithine carbamoyltransferase, Asp/Orn binding domain"</title>
				<polygon class="PF00185" points="926,29 937,40 926,51" stroke-linejoin="round" width="15" height="24" fill="rgb(215,107,106)" stroke="rgb(172,85,84)" stroke-width="1" opacity="0.75" />
			</g>
		</g>
		<g>
			<title> (ctg3_347)</title>
			<polygon class=" (ctg3_347)" points="943,10 958,40 943,70" fill="rgb(255,255,255)" fill-opacity="1.0" stroke="rgb(0,0,0)" stroke-width="2"  />
			<g>
				<title>PyrI (PF01948)
"Aspartate carbamoyltransferase regulatory chain, allosteric domain"</title>
				<polygon class="PF01948" points="943,28 948,28 952,34 952,46 948,52 943,52" stroke-linejoin="round" width="9" height="24" fill="rgb(189,70,203)" stroke="rgb(151,56,162)" stroke-width="1" opacity="0.75" />
			</g>
			<g>
				<title>PyrI_C (PF02748)
"Aspartate carbamoyltransferase regulatory chain, metal binding domain"</title>
				<polygon class="PF02748" points="953,36 955,40 953,44" stroke-linejoin="round" width="4" height="24" fill="rgb(70,213,227)" stroke="rgb(56,170,181)" stroke-width="1" opacity="0.75" />
			</g>
		</g>
		<g>
			<title> (ctg3_348)</title>
			<polygon class=" (ctg3_348)" points="962,10 974,40 962,70" fill="rgb(255,255,255)" fill-opacity="1.0" stroke="rgb(0,0,0)" stroke-width="2"  />
			<g>
				<title>Ribonuc_L-PSP (PF01042)
"Endoribonuclease L-PSP"</title>
				<polygon class="PF01042" points="962,28 966,28 971,40 966,52 962,52" stroke-linejoin="round" width="12" height="24" fill="rgb(93,120,208)" stroke="rgb(74,96,166)" stroke-width="1" opacity="0.75" />
			</g>
		</g>
		<g>
			<title> (ctg3_349)</title>
			<polygon class=" (ctg3_349)" points="982,25 1051,25 1051,10 1081,40 1051,70 1051,55 982,55" fill="rgb(255,255,255)" fill-opacity="1.0" stroke="rgb(0,0,0)" stroke-width="2"  />
			<g>
				<title>AMP-binding (PF00501)
"AMP-binding enzyme"</title>
				<rect class="PF00501" x="982" y="28" stroke-linejoin="round" width="39" height="24" fill="rgb(60,217,223)" stroke="rgb(48,173,178)" stroke-width="1" opacity="0.75" />
			</g>
			<g>
				<title>AMP-binding_C (PF13193)
"AMP-binding enzyme C-terminal domain"</title>
				<rect class="PF13193" x="1022" y="28" stroke-linejoin="round" width="7" height="24" fill="rgb(182,50,118)" stroke="rgb(145,39,94)" stroke-width="1" opacity="0.75" />
			</g>
			<g>
				<title>PP-binding (PF00550)
"Phosphopantetheine attachment site"</title>
				<rect class="PF00550" x="1032" y="28" stroke-linejoin="round" width="6" height="24" fill="rgb(103,191,88)" stroke="rgb(82,152,70)" stroke-width="1" opacity="0.75" />
			</g>
			<g>
				<title>NAD_binding_4 (PF07993)
"Male sterility protein"</title>
				<polygon class="PF07993" points="1044,28 1065,28 1068,31 1068,49 1065,52 1044,52" stroke-linejoin="round" width="24" height="24" fill="rgb(100,212,204)" stroke="rgb(80,169,163)" stroke-width="1" opacity="0.75" />
			</g>
		</g>
		<g>
			<title> (ctg3_350)</title>
			<polygon class=" (ctg3_350)" points="1161,25 1112,25 1112,10 1082,40 1112,70 1112,55 1161,55" fill="rgb(255,255,255)" fill-opacity="1.0" stroke="rgb(0,0,0)" stroke-width="2"  />
			<g>
				<title>Glyco_hydro_20 (PF00728)
"Glycosyl hydrolase family 20, catalytic domain"</title>
				<rect class="PF00728" x="1103" y="28" stroke-linejoin="round" width="8" height="24" fill="rgb(83,201,133)" stroke="rgb(66,160,106)" stroke-width="1" opacity="0.75" />
			</g>
			<g>
				<title>Glyco_hydro_20 (PF00728)
"Glycosyl hydrolase family 20, catalytic domain"</title>
				<rect class="PF00728" x="1114" y="28" stroke-linejoin="round" width="31" height="24" fill="rgb(83,201,133)" stroke="rgb(66,160,106)" stroke-width="1" opacity="0.75" />
			</g>
			<g>
				<title>Glyco_hydro_20b (PF02838)
"Glycosyl hydrolase family 20, domain 2"</title>
				<rect class="PF02838" x="1145" y="28" stroke-linejoin="round" width="13" height="24" fill="rgb(221,191,77)" stroke="rgb(176,152,61)" stroke-width="1" opacity="0.75" />
			</g>
		</g>
		<g>
			<title> (ctg3_351)</title>
			<polygon class=" (ctg3_351)" points="1261,25 1201,25 1201,10 1171,40 1201,70 1201,55 1261,55" fill="rgb(255,255,255)" fill-opacity="1.0" stroke="rgb(0,0,0)" stroke-width="2"  />
			<g>
				<title>Cation_ATPase_C (PF00689)
"Cation transporting ATPase, C-terminus"</title>
				<polygon class="PF00689" points="1175,40 1187,28 1187,28 1187,52 1187,52" stroke-linejoin="round" width="16" height="24" fill="rgb(76,203,161)" stroke="rgb(60,162,128)" stroke-width="1" opacity="0.75" />
			</g>
			<g>
				<title>Hydrolase (PF00702)
"haloacid dehalogenase-like hydrolase"</title>
				<rect class="PF00702" x="1195" y="28" stroke-linejoin="round" width="28" height="24" fill="rgb(68,220,102)" stroke="rgb(54,176,81)" stroke-width="1" opacity="0.75" />
			</g>
			<g>
				<title>E1-E2_ATPase (PF00122)
"E1-E2 ATPase"</title>
				<rect class="PF00122" x="1225" y="28" stroke-linejoin="round" width="19" height="24" fill="rgb(149,204,70)" stroke="rgb(119,163,56)" stroke-width="1" opacity="0.75" />
			</g>
			<g>
				<title>Cation_ATPase_N (PF00690)
"Cation transporter/ATPase, N-terminus"</title>
				<rect class="PF00690" x="1249" y="28" stroke-linejoin="round" width="6" height="24" fill="rgb(174,102,225)" stroke="rgb(139,81,180)" stroke-width="1" opacity="0.75" />
			</g>
		</g>
		<g>
			<title> (ctg3_352)</title>
			<polygon class=" (ctg3_352)" points="1275,25 1276,25 1276,10 1306,40 1276,70 1276,55 1275,55" fill="rgb(255,255,255)" fill-opacity="1.0" stroke="rgb(0,0,0)" stroke-width="2"  />
			<g>
				<title>LacI (PF00356)
"Bacterial regulatory proteins, lacI family"</title>
				<rect class="PF00356" x="1275" y="28" stroke-linejoin="round" width="4" height="24" fill="rgb(66,188,63)" stroke="rgb(52,150,50)" stroke-width="1" opacity="0.75" />
			</g>
			<g>
				<title>Peripla_BP_3 (PF13377)
"Periplasmic binding protein-like domain"</title>
				<polygon class="PF13377" points="1291,29 1302,40 1291,51" stroke-linejoin="round" width="14" height="24" fill="rgb(101,208,189)" stroke="rgb(80,166,151)" stroke-width="1" opacity="0.75" />
			</g>
		</g>
		<g>
			<title> (ctg3_353)</title>
			<polygon class=" (ctg3_353)" points="1311,25 1328,25 1328,10 1358,40 1328,70 1328,55 1311,55" fill="rgb(255,255,255)" fill-opacity="1.0" stroke="rgb(0,0,0)" stroke-width="2"  />
			<g>
				<title>PTS_EIIB (PF00367)
"phosphotransferase system, EIIB"</title>
				<rect class="PF00367" x="1312" y="28" stroke-linejoin="round" width="3" height="24" fill="rgb(188,77,92)" stroke="rgb(150,61,73)" stroke-width="1" opacity="0.75" />
			</g>
			<g>
				<title>PTS_EIIC (PF02378)
"Phosphotransferase system, EIIC"</title>
				<polygon class="PF02378" points="1322,28 1341,28 1351,38 1351,42 1341,52 1322,52" stroke-linejoin="round" width="29" height="24" fill="rgb(73,199,212)" stroke="rgb(58,159,169)" stroke-width="1" opacity="0.75" />
			</g>
		</g>
		<g>
			<title> (ctg3_354)</title>
			<polygon class=" (ctg3_354)" points="1361,25 1386,25 1386,10 1416,40 1386,70 1386,55 1361,55" fill="rgb(255,255,255)" fill-opacity="1.0" stroke="rgb(0,0,0)" stroke-width="2"  />
			<g>
				<title>Alpha-amylase (PF00128)
"Alpha amylase, catalytic domain"</title>
				<rect class="PF00128" x="1364" y="28" stroke-linejoin="round" width="34" height="24" fill="rgb(72,189,149)" stroke="rgb(57,151,119)" stroke-width="1" opacity="0.75" />
			</g>
			<g>
				<title>DUF3459 (PF11941)
"Domain of unknown function (DUF3459)"</title>
				<polygon class="PF11941" points="1406,34 1412,40 1406,46" stroke-linejoin="round" width="9" height="24" fill="rgb(55,147,193)" stroke="rgb(44,117,154)" stroke-width="1" opacity="0.75" />
			</g>
		</g>
		<g>
			<title> (ctg3_355)</title>
			<polygon class=" (ctg3_355)" points="1417,40 1434,10 1434,70" fill="rgb(255,255,255)" fill-opacity="1.0" stroke="rgb(0,0,0)" stroke-width="2"  />
			<g>
				<title>Flavodoxin_2 (PF02525)
"Flavodoxin-like fold"</title>
				<polygon class="PF02525" points="1420,40 1427,28 1433,28 1433,52 1427,52" stroke-linejoin="round" width="16" height="24" fill="rgb(159,188,70)" stroke="rgb(127,150,56)" stroke-width="1" opacity="0.75" />
			</g>
		</g>
		<g>
			<title> (ctg3_356)</title>
			<polygon class=" (ctg3_356)" points="1438,25 1438,25 1438,10 1468,40 1438,70 1438,55 1438,55" fill="rgb(255,255,255)" fill-opacity="1.0" stroke="rgb(0,0,0)" stroke-width="2"  />
			<g>
				<title>HTH_1 (PF00126)
"Bacterial regulatory helix-turn-helix protein, lysR family"</title>
				<rect class="PF00126" x="1438" y="28" stroke-linejoin="round" width="5" height="24" fill="rgb(125,227,79)" stroke="rgb(99,181,63)" stroke-width="1" opacity="0.75" />
			</g>
			<g>
				<title>LysR_substrate (PF03466)
"LysR substrate binding domain"</title>
				<polygon class="PF03466" points="1447,28 1452,28 1464,40 1452,52 1447,52" stroke-linejoin="round" width="20" height="24" fill="rgb(55,136,195)" stroke="rgb(44,108,156)" stroke-width="1" opacity="0.75" />
			</g>
		</g>
		<g>
			<title> (ctg3_357)</title>
			<polygon class=" (ctg3_357)" points="1477,25 1518,25 1518,10 1548,40 1518,70 1518,55 1477,55" fill="rgb(255,255,255)" fill-opacity="1.0" stroke="rgb(0,0,0)" stroke-width="2"  />
			<g>
				<title>ATP-cone (PF03477)
"ATP cone domain"</title>
				<rect class="PF03477" x="1477" y="28" stroke-linejoin="round" width="8" height="24" fill="rgb(186,70,213)" stroke="rgb(148,56,170)" stroke-width="1" opacity="0.75" />
			</g>
			<g>
				<title>NRDD (PF13597)
"Anaerobic ribonucleoside-triphosphate reductase"</title>
				<polygon class="PF13597" points="1488,28 1532,28 1544,40 1532,52 1488,52" stroke-linejoin="round" width="58" height="24" fill="rgb(212,80,212)" stroke="rgb(169,64,169)" stroke-width="1" opacity="0.75" />
			</g>
		</g>
		<g>
			<title> (ctg3_358)</title>
			<polygon class=" (ctg3_358)" points="1554,10 1569,40 1554,70" fill="rgb(255,255,255)" fill-opacity="1.0" stroke="rgb(0,0,0)" stroke-width="2"  />
			<g>
				<title>Fer4_12 (PF13353)
"4Fe-4S single cluster domain"</title>
				<polygon class="PF13353" points="1555,28 1559,28 1566,40 1559,52 1555,52" stroke-linejoin="round" width="13" height="24" fill="rgb(213,229,100)" stroke="rgb(170,183,80)" stroke-width="1" opacity="0.75" />
			</g>
		</g>
		<g>
			<title> (ctg3_359)</title>
			<polygon class=" (ctg3_359)" points="1577,10 1603,40 1577,70" fill="rgb(255,255,255)" fill-opacity="1.0" stroke="rgb(0,0,0)" stroke-width="2"  />
			<g>
				<title>Abi_alpha (PF14337)
"Abortive infection alpha"</title>
				<polygon class="PF14337" points="1583,28 1589,28 1599,40 1589,52 1583,52" stroke-linejoin="round" width="19" height="24" fill="rgb(218,85,200)" stroke="rgb(174,68,160)" stroke-width="1" opacity="0.75" />
			</g>
		</g>
		<g>
			<title> (ctg3_360)</title>
			<polygon class=" (ctg3_360)" points="1608,40 1614,10 1614,70" fill="rgb(255,255,255)" fill-opacity="1.0" stroke="rgb(0,0,0)" stroke-width="2"  />
		</g>
		<g>
			<title> (ctg3_361)</title>
			<polygon class=" (ctg3_361)" points="1650,25 1645,25 1645,10 1615,40 1645,70 1645,55 1650,55" fill="rgb(255,255,255)" fill-opacity="1.0" stroke="rgb(0,0,0)" stroke-width="2"  />
			<g>
				<title>ArsP_1 (PF03773)
"Predicted permease"</title>
				<polygon class="PF03773" points="1619,40 1631,28 1642,28 1642,52 1631,52" stroke-linejoin="round" width="27" height="24" fill="rgb(103,196,76)" stroke="rgb(82,156,60)" stroke-width="1" opacity="0.75" />
			</g>
		</g>
		<g>
			<title> (ctg3_362)</title>
			<polygon class=" (ctg3_362)" points="1658,10 1682,40 1658,70" fill="rgb(255,255,255)" fill-opacity="1.0" stroke="rgb(0,0,0)" stroke-width="2"  />
			<g>
				<title>GntR (PF00392)
"Bacterial regulatory proteins, gntR family"</title>
				<rect class="PF00392" x="1659" y="28" stroke-linejoin="round" width="6" height="24" fill="rgb(160,85,194)" stroke="rgb(127,68,155)" stroke-width="1" opacity="0.75" />
			</g>
			<g>
				<title>UTRA (PF07702)
"UTRA domain"</title>
				<polygon class="PF07702" points="1667,28 1669,28 1678,40 1669,52 1667,52" stroke-linejoin="round" width="14" height="24" fill="rgb(170,184,91)" stroke="rgb(136,147,72)" stroke-width="1" opacity="0.75" />
			</g>
		</g>
		<g>
			<title> (ctg3_363)</title>
			<polygon class=" (ctg3_363)" points="1682,10 1696,40 1682,70" fill="rgb(255,255,255)" fill-opacity="1.0" stroke="rgb(0,0,0)" stroke-width="2"  />
			<g>
				<title>PhnG (PF06754)
"Phosphonate metabolism protein PhnG"</title>
				<polygon class="PF06754" points="1682,28 1687,28 1693,40 1687,52 1682,52" stroke-linejoin="round" width="14" height="24" fill="rgb(216,175,98)" stroke="rgb(172,140,78)" stroke-width="1" opacity="0.75" />
			</g>
		</g>
		<g>
			<title> (ctg3_364)</title>
			<polygon class=" (ctg3_364)" points="1697,10 1716,40 1697,70" fill="rgb(255,255,255)" fill-opacity="1.0" stroke="rgb(0,0,0)" stroke-width="2"  />
			<g>
				<title>PhnH (PF05845)
"Bacterial phosphonate metabolism protein (PhnH)"</title>
				<polygon class="PF05845" points="1697,28 1705,28 1712,40 1705,52 1697,52" stroke-linejoin="round" width="18" height="24" fill="rgb(69,116,182)" stroke="rgb(55,92,145)" stroke-width="1" opacity="0.75" />
			</g>
		</g>
	</g>
</svg>
