<svg version="1.1" baseProfile="full" xmlns="http://www.w3.org/2000/svg" width="1608.5666666666666" height="80">
	<g>
		<line x1="10" y1="40.0" x2="1598.5666666666666" y2="40.0" style="stroke:rgb(70,70,70); stroke-width:3 "/>
		<g>
			<title> (ctg8_1)</title>
			<polygon class=" (ctg8_1)" points="42,40 60,10 60,70" fill="rgb(255,255,255)" fill-opacity="1.0" stroke="rgb(0,0,0)" stroke-width="2"  />
			<g>
				<title>GerE (PF00196)
"Bacterial regulatory proteins, luxR family"</title>
				<polygon class="PF00196" points="46,40 47,38 47,42" stroke-linejoin="round" width="5" height="24" fill="rgb(219,94,82)" stroke="rgb(175,75,65)" stroke-width="1" opacity="0.75" />
			</g>
		</g>
		<g>
			<title> (ctg8_2)</title>
			<polygon class=" (ctg8_2)" points="67,40 95,10 95,70" fill="rgb(255,255,255)" fill-opacity="1.0" stroke="rgb(0,0,0)" stroke-width="2"  />
		</g>
		<g>
			<title> (ctg8_3)</title>
			<polygon class=" (ctg8_3)" points="99,40 116,10 116,70" fill="rgb(255,255,255)" fill-opacity="1.0" stroke="rgb(0,0,0)" stroke-width="2"  />
			<g>
				<title>Fimbrial (PF00419)
"Fimbrial protein"</title>
				<polygon class="PF00419" points="102,40 109,28 113,28 113,52 109,52" stroke-linejoin="round" width="14" height="24" fill="rgb(167,200,70)" stroke="rgb(133,160,56)" stroke-width="1" opacity="0.75" />
			</g>
		</g>
		<g>
			<title> (ctg8_4)</title>
			<polygon class=" (ctg8_4)" points="118,40 134,10 134,70" fill="rgb(255,255,255)" fill-opacity="1.0" stroke="rgb(0,0,0)" stroke-width="2"  />
			<g>
				<title>Fimbrial (PF00419)
"Fimbrial protein"</title>
				<polygon class="PF00419" points="121,40 127,28 131,28 131,52 127,52" stroke-linejoin="round" width="13" height="24" fill="rgb(167,200,70)" stroke="rgb(133,160,56)" stroke-width="1" opacity="0.75" />
			</g>
		</g>
		<g>
			<title> (ctg8_5)</title>
			<polygon class=" (ctg8_5)" points="135,40 152,10 152,70" fill="rgb(255,255,255)" fill-opacity="1.0" stroke="rgb(0,0,0)" stroke-width="2"  />
			<g>
				<title>Fimbrial (PF00419)
"Fimbrial protein"</title>
				<polygon class="PF00419" points="138,40 145,28 148,28 148,52 145,52" stroke-linejoin="round" width="13" height="24" fill="rgb(167,200,70)" stroke="rgb(133,160,56)" stroke-width="1" opacity="0.75" />
			</g>
		</g>
		<g>
			<title> (ctg8_6)</title>
			<polygon class=" (ctg8_6)" points="152,40 174,10 174,70" fill="rgb(255,255,255)" fill-opacity="1.0" stroke="rgb(0,0,0)" stroke-width="2"  />
			<g>
				<title>Fimbrial (PF00419)
"Fimbrial protein"</title>
				<polygon class="PF00419" points="156,40 165,28 167,28 167,52 165,52" stroke-linejoin="round" width="15" height="24" fill="rgb(167,200,70)" stroke="rgb(133,160,56)" stroke-width="1" opacity="0.75" />
			</g>
		</g>
		<g>
			<title> (ctg8_7)</title>
			<polygon class=" (ctg8_7)" points="175,40 200,10 200,70" fill="rgb(255,255,255)" fill-opacity="1.0" stroke="rgb(0,0,0)" stroke-width="2"  />
			<g>
				<title>PapD_C (PF02753)
"Pili assembly chaperone PapD, C-terminal domain"</title>
				<polygon class="PF02753" points="179,40 183,35 183,45" stroke-linejoin="round" width="6" height="24" fill="rgb(79,204,67)" stroke="rgb(63,163,53)" stroke-width="1" opacity="0.75" />
			</g>
			<g>
				<title>PapD_N (PF00345)
"Pili and flagellar-assembly chaperone, PapD N-terminal domain"</title>
				<polygon class="PF00345" points="185,33 189,28 196,28 196,52 189,52 185,47" stroke-linejoin="round" width="11" height="24" fill="rgb(72,109,195)" stroke="rgb(57,87,156)" stroke-width="1" opacity="0.75" />
			</g>
		</g>
		<g>
			<title> (ctg8_8)</title>
			<polygon class=" (ctg8_8)" points="286,25 232,25 232,10 202,40 232,70 232,55 286,55" fill="rgb(255,255,255)" fill-opacity="1.0" stroke="rgb(0,0,0)" stroke-width="2"  />
			<g>
				<title>PapC_C (PF13953)
"PapC C-terminal domain"</title>
				<polygon class="PF13953" points="206,40 210,36 210,44" stroke-linejoin="round" width="6" height="24" fill="rgb(56,207,188)" stroke="rgb(44,165,150)" stroke-width="1" opacity="0.75" />
			</g>
			<g>
				<title>Usher (PF00577)
"Outer membrane usher protein"</title>
				<polygon class="PF00577" points="211,35 218,28 266,28 266,52 218,52 211,45" stroke-linejoin="round" width="55" height="24" fill="rgb(95,174,210)" stroke="rgb(76,139,168)" stroke-width="1" opacity="0.75" />
			</g>
			<g>
				<title>PapC_N (PF13954)
"PapC N-terminal domain"</title>
				<rect class="PF13954" x="268" y="28" stroke-linejoin="round" width="14" height="24" fill="rgb(119,201,87)" stroke="rgb(95,160,69)" stroke-width="1" opacity="0.75" />
			</g>
		</g>
		<g>
			<title> (ctg8_9)</title>
			<polygon class=" (ctg8_9)" points="288,40 308,10 308,70" fill="rgb(255,255,255)" fill-opacity="1.0" stroke="rgb(0,0,0)" stroke-width="2"  />
		</g>
		<g>
			<title> (ctg8_10)</title>
			<polygon class=" (ctg8_10)" points="309,40 327,10 327,70" fill="rgb(255,255,255)" fill-opacity="1.0" stroke="rgb(0,0,0)" stroke-width="2"  />
		</g>
		<g>
			<title> (ctg8_11)</title>
			<polygon class=" (ctg8_11)" points="337,40 343,10 343,70" fill="rgb(255,255,255)" fill-opacity="1.0" stroke="rgb(0,0,0)" stroke-width="2"  />
		</g>
		<g>
			<title> (ctg8_12)</title>
			<polygon class=" (ctg8_12)" points="354,10 366,40 354,70" fill="rgb(255,255,255)" fill-opacity="1.0" stroke="rgb(0,0,0)" stroke-width="2"  />
		</g>
		<g>
			<title> (ctg8_13)</title>
			<polygon class=" (ctg8_13)" points="369,40 384,10 384,70" fill="rgb(255,255,255)" fill-opacity="1.0" stroke="rgb(0,0,0)" stroke-width="2"  />
		</g>
		<g>
			<title> (ctg8_14)</title>
			<polygon class=" (ctg8_14)" points="385,40 411,10 411,70" fill="rgb(255,255,255)" fill-opacity="1.0" stroke="rgb(0,0,0)" stroke-width="2"  />
			<g>
				<title>Trans_reg_C (PF00486)
"Transcriptional regulatory protein, C terminal"</title>
				<rect class="PF00486" x="401" y="28" stroke-linejoin="round" width="7" height="24" fill="rgb(204,153,57)" stroke="rgb(163,122,45)" stroke-width="1" opacity="0.75" />
			</g>
		</g>
		<g>
			<title> (ctg8_15)</title>
			<polygon class=" (ctg8_15)" points="420,40 440,10 440,70" fill="rgb(255,255,255)" fill-opacity="1.0" stroke="rgb(0,0,0)" stroke-width="2"  />
			<g>
				<title>DUF2238 (PF09997)
"Predicted membrane protein (DUF2238)"</title>
				<polygon class="PF09997" points="424,40 432,28 436,28 436,52 432,52" stroke-linejoin="round" width="14" height="24" fill="rgb(189,72,160)" stroke="rgb(151,57,128)" stroke-width="1" opacity="0.75" />
			</g>
		</g>
		<g>
			<title> (ctg8_16)</title>
			<polygon class=" (ctg8_16)" points="480,25 475,25 475,10 445,40 475,70 475,55 480,55" fill="rgb(255,255,255)" fill-opacity="1.0" stroke="rgb(0,0,0)" stroke-width="2"  />
			<g>
				<title>PQQ_2 (PF13360)
"PQQ-like domain"</title>
				<polygon class="PF13360" points="449,40 461,28 473,28 473,52 461,52" stroke-linejoin="round" width="27" height="24" fill="rgb(98,210,146)" stroke="rgb(78,168,116)" stroke-width="1" opacity="0.75" />
			</g>
		</g>
		<g>
			<title> (ctg8_17)</title>
			<polygon class=" (ctg8_17)" points="487,40 515,10 515,70" fill="rgb(255,255,255)" fill-opacity="1.0" stroke="rgb(0,0,0)" stroke-width="2"  />
			<g>
				<title>PP-binding (PF00550)
"Phosphopantetheine attachment site"</title>
				<polygon class="PF00550" points="491,40 493,38 493,42" stroke-linejoin="round" width="6" height="24" fill="rgb(103,191,88)" stroke="rgb(82,152,70)" stroke-width="1" opacity="0.75" />
			</g>
			<g>
				<title>Isochorismatase (PF00857)
"Isochorismatase family"</title>
				<polygon class="PF00857" points="495,36 502,28 512,28 512,52 502,52 495,44" stroke-linejoin="round" width="17" height="24" fill="rgb(144,224,70)" stroke="rgb(115,179,56)" stroke-width="1" opacity="0.75" />
			</g>
		</g>
		<g>
			<title> (ctg8_18)</title>
			<polygon class=" (ctg8_18)" points="570,25 546,25 546,10 516,40 546,70 546,55 570,55" fill="rgb(255,255,255)" fill-opacity="1.0" stroke="rgb(0,0,0)" stroke-width="2"  />
			<g>
				<title>AMP-binding_C (PF13193)
"AMP-binding enzyme C-terminal domain"</title>
				<polygon class="PF13193" points="520,40 525,35 525,45" stroke-linejoin="round" width="7" height="24" fill="rgb(182,50,118)" stroke="rgb(145,39,94)" stroke-width="1" opacity="0.75" />
			</g>
			<g>
				<title>AMP-binding (PF00501)
"AMP-binding enzyme"</title>
				<polygon class="PF00501" points="526,34 532,28 566,28 566,52 532,52 526,46" stroke-linejoin="round" width="40" height="24" fill="rgb(60,217,223)" stroke="rgb(48,173,178)" stroke-width="1" opacity="0.75" />
			</g>
		</g>
		<g>
			<title> (ctg8_19)</title>
			<polygon class=" (ctg8_19)" points="610,25 600,25 600,10 570,40 600,70 600,55 610,55" fill="rgb(255,255,255)" fill-opacity="1.0" stroke="rgb(0,0,0)" stroke-width="2"  />
			<g>
				<title>Chorismate_bind (PF00425)
"chorismate binding enzyme"</title>
				<polygon class="PF00425" points="574,40 586,28 596,28 596,52 586,52" stroke-linejoin="round" width="25" height="24" fill="rgb(188,116,88)" stroke="rgb(150,92,70)" stroke-width="1" opacity="0.75" />
			</g>
		</g>
		<g>
			<title> (ctg8_20)</title>
			<polygon class=" (ctg8_20)" points="658,25 647,25 647,10 617,40 647,70 647,55 658,55" fill="rgb(255,255,255)" fill-opacity="1.0" stroke="rgb(0,0,0)" stroke-width="2"  />
			<g>
				<title>MFS_3 (PF05977)
"Transmembrane secretion effector"</title>
				<polygon class="PF05977" points="621,40 633,28 657,28 657,52 633,52" stroke-linejoin="round" width="40" height="24" fill="rgb(80,62,217)" stroke="rgb(64,49,173)" stroke-width="1" opacity="0.75" />
			</g>
		</g>
		<g>
			<title> (ctg8_21)</title>
			<polygon class=" (ctg8_21)" points="794,25 695,25 695,10 665,40 695,70 695,55 794,55" fill="rgb(255,255,255)" fill-opacity="1.0" stroke="rgb(0,0,0)" stroke-width="2"  />
			<g>
				<title>Thioesterase (PF00975)
"Thioesterase domain"</title>
				<polygon class="PF00975" points="669,40 681,28 687,28 687,52 681,52" stroke-linejoin="round" width="22" height="24" fill="rgb(207,80,138)" stroke="rgb(165,63,110)" stroke-width="1" opacity="0.75" />
			</g>
			<g>
				<title>PP-binding (PF00550)
"Phosphopantetheine attachment site"</title>
				<rect class="PF00550" x="690" y="28" stroke-linejoin="round" width="6" height="24" fill="rgb(103,191,88)" stroke="rgb(82,152,70)" stroke-width="1" opacity="0.75" />
			</g>
			<g>
				<title>AMP-binding_C (PF13193)
"AMP-binding enzyme C-terminal domain"</title>
				<rect class="PF13193" x="699" y="28" stroke-linejoin="round" width="8" height="24" fill="rgb(182,50,118)" stroke="rgb(145,39,94)" stroke-width="1" opacity="0.75" />
			</g>
			<g>
				<title>AMP-binding (PF00501)
"AMP-binding enzyme"</title>
				<rect class="PF00501" x="708" y="28" stroke-linejoin="round" width="40" height="24" fill="rgb(60,217,223)" stroke="rgb(48,173,178)" stroke-width="1" opacity="0.75" />
			</g>
			<g>
				<title>Condensation (PF00668)
"Condensation domain"</title>
				<rect class="PF00668" x="750" y="28" stroke-linejoin="round" width="43" height="24" fill="rgb(224,184,98)" stroke="rgb(179,147,78)" stroke-width="1" opacity="0.75" />
			</g>
		</g>
		<g>
			<title> (ctg8_22)</title>
			<polygon class=" (ctg8_22)" points="798,40 805,10 805,70" fill="rgb(255,255,255)" fill-opacity="1.0" stroke="rgb(0,0,0)" stroke-width="2"  />
		</g>
		<g>
			<title> (ctg8_23)</title>
			<polygon class=" (ctg8_23)" points="847,25 834,25 834,10 804,40 834,70 834,55 847,55" fill="rgb(255,255,255)" fill-opacity="1.0" stroke="rgb(0,0,0)" stroke-width="2"  />
			<g>
				<title>Esterase (PF00756)
"Putative esterase"</title>
				<polygon class="PF00756" points="808,40 820,28 829,28 829,52 820,52" stroke-linejoin="round" width="22" height="24" fill="rgb(217,132,77)" stroke="rgb(173,105,61)" stroke-width="1" opacity="0.75" />
			</g>
			<g>
				<title>Enterochelin_N (PF11806)
"Enterochelin esterase, N-terminal"</title>
				<rect class="PF11806" x="832" y="28" stroke-linejoin="round" width="13" height="24" fill="rgb(49,154,189)" stroke="rgb(39,123,151)" stroke-width="1" opacity="0.75" />
			</g>
		</g>
		<g>
			<title> (ctg8_24)</title>
			<polygon class=" (ctg8_24)" points="859,25 905,25 905,10 935,40 905,70 905,55 859,55" fill="rgb(255,255,255)" fill-opacity="1.0" stroke="rgb(0,0,0)" stroke-width="2"  />
			<g>
				<title>Plug (PF07715)
"TonB-dependent Receptor Plug Domain"</title>
				<rect class="PF07715" x="864" y="28" stroke-linejoin="round" width="12" height="24" fill="rgb(99,133,214)" stroke="rgb(79,106,171)" stroke-width="1" opacity="0.75" />
			</g>
			<g>
				<title>TonB_dep_Rec (PF00593)
"TonB dependent receptor"</title>
				<polygon class="PF00593" points="886,28 918,28 930,40 918,52 886,52" stroke-linejoin="round" width="48" height="24" fill="rgb(171,200,51)" stroke="rgb(136,160,40)" stroke-width="1" opacity="0.75" />
			</g>
		</g>
		<g>
			<title> (ctg8_25)</title>
			<polygon class=" (ctg8_25)" points="978,25 967,25 967,10 937,40 967,70 967,55 978,55" fill="rgb(255,255,255)" fill-opacity="1.0" stroke="rgb(0,0,0)" stroke-width="2"  />
		</g>
		<g>
			<title> (ctg8_26)</title>
			<polygon class=" (ctg8_26)" points="1076,25 1010,25 1010,10 980,40 1010,70 1010,55 1076,55" fill="rgb(255,255,255)" fill-opacity="1.0" stroke="rgb(0,0,0)" stroke-width="2"  />
			<g>
				<title>Condensation (PF00668)
"Condensation domain"</title>
				<polygon class="PF00668" points="984,40 996,28 1025,28 1025,52 996,52" stroke-linejoin="round" width="45" height="24" fill="rgb(224,184,98)" stroke="rgb(179,147,78)" stroke-width="1" opacity="0.75" />
			</g>
			<g>
				<title>PP-binding (PF00550)
"Phosphopantetheine attachment site"</title>
				<rect class="PF00550" x="1027" y="28" stroke-linejoin="round" width="6" height="24" fill="rgb(103,191,88)" stroke="rgb(82,152,70)" stroke-width="1" opacity="0.75" />
			</g>
		</g>
		<g>
			<title> (ctg8_27)</title>
			<polygon class=" (ctg8_27)" points="1148,25 1109,25 1109,10 1079,40 1109,70 1109,55 1148,55" fill="rgb(255,255,255)" fill-opacity="1.0" stroke="rgb(0,0,0)" stroke-width="2"  />
			<g>
				<title>TonB_dep_Rec (PF00593)
"TonB dependent receptor"</title>
				<polygon class="PF00593" points="1083,40 1095,28 1122,28 1122,52 1095,52" stroke-linejoin="round" width="43" height="24" fill="rgb(171,200,51)" stroke="rgb(136,160,40)" stroke-width="1" opacity="0.75" />
			</g>
			<g>
				<title>Plug (PF07715)
"TonB-dependent Receptor Plug Domain"</title>
				<rect class="PF07715" x="1130" y="28" stroke-linejoin="round" width="11" height="24" fill="rgb(99,133,214)" stroke="rgb(79,106,171)" stroke-width="1" opacity="0.75" />
			</g>
		</g>
		<g>
			<title> (ctg8_28)</title>
			<polygon class=" (ctg8_28)" points="1150,10 1155,40 1150,70" fill="rgb(255,255,255)" fill-opacity="1.0" stroke="rgb(0,0,0)" stroke-width="2"  />
		</g>
		<g>
			<title> (ctg8_29)</title>
			<polygon class=" (ctg8_29)" points="1166,25 1190,25 1190,10 1220,40 1190,70 1190,55 1166,55" fill="rgb(255,255,255)" fill-opacity="1.0" stroke="rgb(0,0,0)" stroke-width="2"  />
			<g>
				<title>Condensation (PF00668)
"Condensation domain"</title>
				<polygon class="PF00668" points="1167,28 1204,28 1210,34 1210,46 1204,52 1167,52" stroke-linejoin="round" width="43" height="24" fill="rgb(224,184,98)" stroke="rgb(179,147,78)" stroke-width="1" opacity="0.75" />
			</g>
		</g>
		<g>
			<title> (ctg8_30)</title>
			<polygon class=" (ctg8_30)" points="1225,25 1295,25 1295,10 1325,40 1295,70 1295,55 1225,55" fill="rgb(255,255,255)" fill-opacity="1.0" stroke="rgb(0,0,0)" stroke-width="2"  />
			<g>
				<title>AMP-binding (PF00501)
"AMP-binding enzyme"</title>
				<rect class="PF00501" x="1267" y="28" stroke-linejoin="round" width="39" height="24" fill="rgb(60,217,223)" stroke="rgb(48,173,178)" stroke-width="1" opacity="0.75" />
			</g>
		</g>
		<g>
			<title> (ctg8_31)</title>
			<polygon class=" (ctg8_31)" points="1363,25 1357,25 1357,10 1327,40 1357,70 1357,55 1363,55" fill="rgb(255,255,255)" fill-opacity="1.0" stroke="rgb(0,0,0)" stroke-width="2"  />
			<g>
				<title>Condensation (PF00668)
"Condensation domain"</title>
				<polygon class="PF00668" points="1331,40 1343,28 1362,28 1362,52 1343,52" stroke-linejoin="round" width="35" height="24" fill="rgb(224,184,98)" stroke="rgb(179,147,78)" stroke-width="1" opacity="0.75" />
			</g>
		</g>
		<g>
			<title> (ctg8_32)</title>
			<polygon class=" (ctg8_32)" points="1424,25 1411,25 1411,10 1381,40 1411,70 1411,55 1424,55" fill="rgb(255,255,255)" fill-opacity="1.0" stroke="rgb(0,0,0)" stroke-width="2"  />
			<g>
				<title>SDF (PF00375)
"Sodium:dicarboxylate symporter family"</title>
				<polygon class="PF00375" points="1385,40 1397,28 1423,28 1423,52 1397,52" stroke-linejoin="round" width="40" height="24" fill="rgb(141,207,101)" stroke="rgb(112,165,80)" stroke-width="1" opacity="0.75" />
			</g>
		</g>
		<g>
			<title> (ctg8_33)</title>
			<polygon class=" (ctg8_33)" points="1455,40 1459,10 1459,70" fill="rgb(255,255,255)" fill-opacity="1.0" stroke="rgb(0,0,0)" stroke-width="2"  />
		</g>
		<g>
			<title> (ctg8_34)</title>
			<polygon class=" (ctg8_34)" points="1463,25 1490,25 1490,10 1520,40 1490,70 1490,55 1463,55" fill="rgb(255,255,255)" fill-opacity="1.0" stroke="rgb(0,0,0)" stroke-width="2"  />
			<g>
				<title>AMP-binding (PF00501)
"AMP-binding enzyme"</title>
				<polygon class="PF00501" points="1463,28 1504,28 1507,31 1507,49 1504,52 1463,52" stroke-linejoin="round" width="44" height="24" fill="rgb(60,217,223)" stroke="rgb(48,173,178)" stroke-width="1" opacity="0.75" />
			</g>
			<g>
				<title>AMP-binding_C (PF13193)
"AMP-binding enzyme C-terminal domain"</title>
				<polygon class="PF13193" points="1508,32 1515,39 1515,41 1508,48" stroke-linejoin="round" width="7" height="24" fill="rgb(182,50,118)" stroke="rgb(145,39,94)" stroke-width="1" opacity="0.75" />
			</g>
		</g>
		<g>
			<title> (ctg8_35)</title>
			<polygon class=" (ctg8_35)" points="1523,10 1533,40 1523,70" fill="rgb(255,255,255)" fill-opacity="1.0" stroke="rgb(0,0,0)" stroke-width="2"  />
			<g>
				<title>DUF485 (PF04341)
"Protein of unknown function, DUF485"</title>
				<polygon class="PF04341" points="1524,28 1525,28 1530,40 1525,52 1524,52" stroke-linejoin="round" width="8" height="24" fill="rgb(74,157,199)" stroke="rgb(59,125,159)" stroke-width="1" opacity="0.75" />
			</g>
		</g>
		<g>
			<title> (ctg8_36)</title>
			<polygon class=" (ctg8_36)" points="1534,25 1559,25 1559,10 1589,40 1559,70 1559,55 1534,55" fill="rgb(255,255,255)" fill-opacity="1.0" stroke="rgb(0,0,0)" stroke-width="2"  />
			<g>
				<title>SSF (PF00474)
"Sodium:solute symporter family"</title>
				<polygon class="PF00474" points="1540,28 1572,28 1580,36 1580,44 1572,52 1540,52" stroke-linejoin="round" width="40" height="24" fill="rgb(49,186,178)" stroke="rgb(39,148,142)" stroke-width="1" opacity="0.75" />
			</g>
		</g>
		<g>
			<title> (ctg8_37)</title>
			<polygon class=" (ctg8_37)" points="1593,40 1598,10 1598,70" fill="rgb(255,255,255)" fill-opacity="1.0" stroke="rgb(0,0,0)" stroke-width="2"  />
		</g>
	</g>
</svg>
