<svg version="1.1" baseProfile="full" xmlns="http://www.w3.org/2000/svg" width="1757.6" height="80">
	<g>
		<line x1="10" y1="40.0" x2="1747.6" y2="40.0" style="stroke:rgb(70,70,70); stroke-width:3 "/>
		<g>
			<title> (ctg3_352)</title>
			<polygon class=" (ctg3_352)" points="69,40 76,10 76,70" fill="rgb(255,255,255)" fill-opacity="1.0" stroke="rgb(0,0,0)" stroke-width="2"  />
		</g>
		<g>
			<title> (ctg3_353)</title>
			<polygon class=" (ctg3_353)" points="88,25 88,25 88,10 118,40 88,70 88,55 88,55" fill="rgb(255,255,255)" fill-opacity="1.0" stroke="rgb(0,0,0)" stroke-width="2"  />
			<g>
				<title>Lip_A_acyltrans (PF03279)
"Bacterial lipid A biosynthesis acyltransferase"</title>
				<polygon class="PF03279" points="88,28 102,28 114,40 102,52 88,52" stroke-linejoin="round" width="29" height="24" fill="rgb(95,219,149)" stroke="rgb(76,175,119)" stroke-width="1" opacity="0.75" />
			</g>
		</g>
		<g>
			<title> (ctg3_354)</title>
			<polygon class=" (ctg3_354)" points="130,40 158,10 158,70" fill="rgb(255,255,255)" fill-opacity="1.0" stroke="rgb(0,0,0)" stroke-width="2"  />
			<g>
				<title>Arm-DNA-bind_3 (PF13356)
"Arm DNA-binding domain"</title>
				<polygon class="PF13356" points="140,34 145,28 148,28 148,52 145,52 140,46" stroke-linejoin="round" width="8" height="24" fill="rgb(47,183,132)" stroke="rgb(37,146,105)" stroke-width="1" opacity="0.75" />
			</g>
		</g>
		<g>
			<title> (ctg3_355)</title>
			<polygon class=" (ctg3_355)" points="166,10 189,40 166,70" fill="rgb(255,255,255)" fill-opacity="1.0" stroke="rgb(0,0,0)" stroke-width="2"  />
			<g>
				<title>DeoC (PF01791)
"DeoC/LacD family aldolase"</title>
				<polygon class="PF01791" points="166,28 176,28 185,40 176,52 166,52" stroke-linejoin="round" width="20" height="24" fill="rgb(151,59,198)" stroke="rgb(120,47,158)" stroke-width="1" opacity="0.75" />
			</g>
		</g>
		<g>
			<title> (ctg3_356)</title>
			<polygon class=" (ctg3_356)" points="192,25 212,25 212,10 242,40 212,70 212,55 192,55" fill="rgb(255,255,255)" fill-opacity="1.0" stroke="rgb(0,0,0)" stroke-width="2"  />
			<g>
				<title>FGGY_N (PF00370)
"FGGY family of carbohydrate kinases, N-terminal domain"</title>
				<rect class="PF00370" x="192" y="28" stroke-linejoin="round" width="24" height="24" fill="rgb(83,186,105)" stroke="rgb(66,148,83)" stroke-width="1" opacity="0.75" />
			</g>
			<g>
				<title>FGGY_C (PF02782)
"FGGY family of carbohydrate kinases, C-terminal domain"</title>
				<polygon class="PF02782" points="217,28 226,28 235,37 235,43 226,52 217,52" stroke-linejoin="round" width="18" height="24" fill="rgb(204,103,85)" stroke="rgb(163,82,68)" stroke-width="1" opacity="0.75" />
			</g>
		</g>
		<g>
			<title> (ctg3_357)</title>
			<polygon class=" (ctg3_357)" points="243,25 257,25 257,10 287,40 257,70 257,55 243,55" fill="rgb(255,255,255)" fill-opacity="1.0" stroke="rgb(0,0,0)" stroke-width="2"  />
			<g>
				<title>MFS_1 (PF07690)
"Major Facilitator Superfamily"</title>
				<polygon class="PF07690" points="246,28 271,28 283,40 283,40 271,52 246,52" stroke-linejoin="round" width="37" height="24" fill="rgb(193,224,74)" stroke="rgb(154,179,59)" stroke-width="1" opacity="0.75" />
			</g>
		</g>
		<g>
			<title> (ctg3_358)</title>
			<polygon class=" (ctg3_358)" points="288,10 301,40 288,70" fill="rgb(255,255,255)" fill-opacity="1.0" stroke="rgb(0,0,0)" stroke-width="2"  />
			<g>
				<title>Glyoxalase_4 (PF13669)
"Glyoxalase/Bleomycin resistance protein/Dioxygenase superfamily"</title>
				<polygon class="PF13669" points="288,28 292,28 297,40 292,52 288,52" stroke-linejoin="round" width="10" height="24" fill="rgb(66,183,136)" stroke="rgb(52,146,108)" stroke-width="1" opacity="0.75" />
			</g>
		</g>
		<g>
			<title> (ctg3_359)</title>
			<polygon class=" (ctg3_359)" points="343,10 364,40 343,70" fill="rgb(255,255,255)" fill-opacity="1.0" stroke="rgb(0,0,0)" stroke-width="2"  />
			<g>
				<title>Autoind_synth (PF00765)
"Autoinducer synthase"</title>
				<polygon class="PF00765" points="343,28 352,28 360,39 360,41 352,52 343,52" stroke-linejoin="round" width="17" height="24" fill="rgb(197,72,80)" stroke="rgb(157,57,64)" stroke-width="1" opacity="0.75" />
			</g>
		</g>
		<g>
			<title> (ctg3_360)</title>
			<polygon class=" (ctg3_360)" points="364,40 387,10 387,70" fill="rgb(255,255,255)" fill-opacity="1.0" stroke="rgb(0,0,0)" stroke-width="2"  />
			<g>
				<title>GerE (PF00196)
"Bacterial regulatory proteins, luxR family"</title>
				<polygon class="PF00196" points="368,40 370,37 370,43" stroke-linejoin="round" width="5" height="24" fill="rgb(219,94,82)" stroke="rgb(175,75,65)" stroke-width="1" opacity="0.75" />
			</g>
			<g>
				<title>Autoind_bind (PF03472)
"Autoinducer binding domain"</title>
				<polygon class="PF03472" points="372,35 378,28 386,28 386,52 378,52 372,45" stroke-linejoin="round" width="14" height="24" fill="rgb(99,181,52)" stroke="rgb(79,144,41)" stroke-width="1" opacity="0.75" />
			</g>
		</g>
		<g>
			<title> (ctg3_361)</title>
			<polygon class=" (ctg3_361)" points="394,10 419,40 394,70" fill="rgb(255,255,255)" fill-opacity="1.0" stroke="rgb(0,0,0)" stroke-width="2"  />
			<g>
				<title>HTH_DeoR (PF08220)
"DeoR-like helix-turn-helix domain"</title>
				<rect class="PF08220" x="394" y="28" stroke-linejoin="round" width="5" height="24" fill="rgb(194,214,67)" stroke="rgb(155,171,53)" stroke-width="1" opacity="0.75" />
			</g>
			<g>
				<title>DeoRC (PF00455)
"DeoR C terminal sensor domain"</title>
				<polygon class="PF00455" points="401,28 405,28 415,40 405,52 401,52" stroke-linejoin="round" width="15" height="24" fill="rgb(183,143,83)" stroke="rgb(146,114,66)" stroke-width="1" opacity="0.75" />
			</g>
		</g>
		<g>
			<title> (ctg3_362)</title>
			<polygon class=" (ctg3_362)" points="457,25 452,25 452,10 422,40 452,70 452,55 457,55" fill="rgb(255,255,255)" fill-opacity="1.0" stroke="rgb(0,0,0)" stroke-width="2"  />
			<g>
				<title>LptF_LptG (PF03739)
"Lipopolysaccharide export system permease LptF/LptG"</title>
				<polygon class="PF03739" points="426,40 438,28 456,28 456,52 438,52" stroke-linejoin="round" width="34" height="24" fill="rgb(98,66,205)" stroke="rgb(78,52,164)" stroke-width="1" opacity="0.75" />
			</g>
		</g>
		<g>
			<title> (ctg3_363)</title>
			<polygon class=" (ctg3_363)" points="493,25 487,25 487,10 457,40 487,70 487,55 493,55" fill="rgb(255,255,255)" fill-opacity="1.0" stroke="rgb(0,0,0)" stroke-width="2"  />
			<g>
				<title>LptF_LptG (PF03739)
"Lipopolysaccharide export system permease LptF/LptG"</title>
				<polygon class="PF03739" points="461,40 473,28 492,28 492,52 473,52" stroke-linejoin="round" width="34" height="24" fill="rgb(98,66,205)" stroke="rgb(78,52,164)" stroke-width="1" opacity="0.75" />
			</g>
		</g>
		<g>
			<title> (ctg3_364)</title>
			<polygon class=" (ctg3_364)" points="503,25 523,25 523,10 553,40 523,70 523,55 503,55" fill="rgb(255,255,255)" fill-opacity="1.0" stroke="rgb(0,0,0)" stroke-width="2"  />
			<g>
				<title>Peptidase_M17_N (PF02789)
"Cytosol aminopeptidase family, N-terminal domain"</title>
				<rect class="PF02789" x="504" y="28" stroke-linejoin="round" width="12" height="24" fill="rgb(216,155,96)" stroke="rgb(172,124,76)" stroke-width="1" opacity="0.75" />
			</g>
			<g>
				<title>Peptidase_M17 (PF00883)
"Cytosol aminopeptidase family, catalytic domain"</title>
				<polygon class="PF00883" points="521,28 537,28 549,40 537,52 521,52" stroke-linejoin="round" width="30" height="24" fill="rgb(81,178,163)" stroke="rgb(64,142,130)" stroke-width="1" opacity="0.75" />
			</g>
		</g>
		<g>
			<title> (ctg3_365)</title>
			<polygon class=" (ctg3_365)" points="561,10 576,40 561,70" fill="rgb(255,255,255)" fill-opacity="1.0" stroke="rgb(0,0,0)" stroke-width="2"  />
			<g>
				<title>DNA_pol3_chi (PF04364)
"DNA polymerase III chi subunit, HolC"</title>
				<polygon class="PF04364" points="561,28 566,28 572,40 566,52 561,52" stroke-linejoin="round" width="14" height="24" fill="rgb(212,174,104)" stroke="rgb(169,139,83)" stroke-width="1" opacity="0.75" />
			</g>
		</g>
		<g>
			<title> (ctg3_366)</title>
			<polygon class=" (ctg3_366)" points="577,25 642,25 642,10 672,40 642,70 642,55 577,55" fill="rgb(255,255,255)" fill-opacity="1.0" stroke="rgb(0,0,0)" stroke-width="2"  />
			<g>
				<title>tRNA-synt_1 (PF00133)
"tRNA synthetases class I (I, L, M and V)"</title>
				<rect class="PF00133" x="579" y="28" stroke-linejoin="round" width="61" height="24" fill="rgb(209,58,146)" stroke="rgb(167,46,116)" stroke-width="1" opacity="0.75" />
			</g>
			<g>
				<title>Anticodon_1 (PF08264)
"Anticodon-binding domain of tRNA ligase"</title>
				<polygon class="PF08264" points="645,28 656,28 660,32 660,48 656,52 645,52" stroke-linejoin="round" width="15" height="24" fill="rgb(85,52,208)" stroke="rgb(68,41,166)" stroke-width="1" opacity="0.75" />
			</g>
			<g>
				<title>Val_tRNA-synt_C (PF10458)
"Valyl tRNA synthetase tRNA binding arm"</title>
				<polygon class="PF10458" points="666,38 668,40 666,42" stroke-linejoin="round" width="6" height="24" fill="rgb(180,145,58)" stroke="rgb(144,116,46)" stroke-width="1" opacity="0.75" />
			</g>
		</g>
		<g>
			<title> (ctg3_367)</title>
			<polygon class=" (ctg3_367)" points="679,10 695,40 679,70" fill="rgb(255,255,255)" fill-opacity="1.0" stroke="rgb(0,0,0)" stroke-width="2"  />
			<g>
				<title>Acetyltransf_1 (PF00583)
"Acetyltransferase (GNAT) family"</title>
				<polygon class="PF00583" points="681,28 685,28 692,40 692,40 685,52 681,52" stroke-linejoin="round" width="11" height="24" fill="rgb(121,183,50)" stroke="rgb(96,146,39)" stroke-width="1" opacity="0.75" />
			</g>
		</g>
		<g>
			<title> (ctg3_368)</title>
			<polygon class=" (ctg3_368)" points="704,25 727,25 727,10 757,40 727,70 727,55 704,55" fill="rgb(255,255,255)" fill-opacity="1.0" stroke="rgb(0,0,0)" stroke-width="2"  />
			<g>
				<title>GMC_oxred_N (PF00732)
"GMC oxidoreductase"</title>
				<rect class="PF00732" x="704" y="28" stroke-linejoin="round" width="29" height="24" fill="rgb(180,89,214)" stroke="rgb(143,71,171)" stroke-width="1" opacity="0.75" />
			</g>
			<g>
				<title>GMC_oxred_C (PF05199)
"GMC oxidoreductase"</title>
				<polygon class="PF05199" points="742,29 753,40 742,51" stroke-linejoin="round" width="13" height="24" fill="rgb(186,52,106)" stroke="rgb(148,41,84)" stroke-width="1" opacity="0.75" />
			</g>
		</g>
		<g>
			<title> (ctg3_369)</title>
			<polygon class=" (ctg3_369)" points="758,40 783,10 783,70" fill="rgb(255,255,255)" fill-opacity="1.0" stroke="rgb(0,0,0)" stroke-width="2"  />
			<g>
				<title>MiaE (PF06175)
"tRNA-(MS[2]IO[6]A)-hydroxylase (MiaE)"</title>
				<polygon class="PF06175" points="762,40 772,28 782,28 782,52 772,52" stroke-linejoin="round" width="24" height="24" fill="rgb(112,226,180)" stroke="rgb(89,180,144)" stroke-width="1" opacity="0.75" />
			</g>
		</g>
		<g>
			<title> (ctg3_370)</title>
			<polygon class=" (ctg3_370)" points="789,40 803,10 803,70" fill="rgb(255,255,255)" fill-opacity="1.0" stroke="rgb(0,0,0)" stroke-width="2"  />
			<g>
				<title>RraB (PF06877)
"Regulator of ribonuclease activity B"</title>
				<polygon class="PF06877" points="792,40 798,28 801,28 801,52 798,52" stroke-linejoin="round" width="10" height="24" fill="rgb(134,65,184)" stroke="rgb(107,52,147)" stroke-width="1" opacity="0.75" />
			</g>
		</g>
		<g>
			<title> (ctg3_371)</title>
			<polygon class=" (ctg3_371)" points="809,25 813,25 813,10 843,40 813,70 813,55 809,55" fill="rgb(255,255,255)" fill-opacity="1.0" stroke="rgb(0,0,0)" stroke-width="2"  />
			<g>
				<title>OTCace_N (PF02729)
"Aspartate/ornithine carbamoyltransferase, carbamoyl-P binding domain"</title>
				<rect class="PF02729" x="810" y="28" stroke-linejoin="round" width="14" height="24" fill="rgb(223,74,58)" stroke="rgb(178,59,46)" stroke-width="1" opacity="0.75" />
			</g>
			<g>
				<title>OTCace (PF00185)
"Aspartate/ornithine carbamoyltransferase, Asp/Orn binding domain"</title>
				<polygon class="PF00185" points="824,28 826,28 838,40 826,52 824,52" stroke-linejoin="round" width="17" height="24" fill="rgb(215,107,106)" stroke="rgb(172,85,84)" stroke-width="1" opacity="0.75" />
			</g>
		</g>
		<g>
			<title> (ctg3_372)</title>
			<polygon class=" (ctg3_372)" points="849,25 871,25 871,10 901,40 871,70 871,55 849,55" fill="rgb(255,255,255)" fill-opacity="1.0" stroke="rgb(0,0,0)" stroke-width="2"  />
			<g>
				<title>SBP_bac_5 (PF00496)
"Bacterial extracellular solute-binding proteins, family 5 Middle"</title>
				<polygon class="PF00496" points="856,28 885,28 893,36 893,44 885,52 856,52" stroke-linejoin="round" width="37" height="24" fill="rgb(199,94,116)" stroke="rgb(159,75,92)" stroke-width="1" opacity="0.75" />
			</g>
		</g>
		<g>
			<title> (ctg3_373)</title>
			<polygon class=" (ctg3_373)" points="911,25 912,25 912,10 942,40 912,70 912,55 911,55" fill="rgb(255,255,255)" fill-opacity="1.0" stroke="rgb(0,0,0)" stroke-width="2"  />
			<g>
				<title>OTCace_N (PF02729)
"Aspartate/ornithine carbamoyltransferase, carbamoyl-P binding domain"</title>
				<rect class="PF02729" x="911" y="28" stroke-linejoin="round" width="14" height="24" fill="rgb(223,74,58)" stroke="rgb(178,59,46)" stroke-width="1" opacity="0.75" />
			</g>
			<g>
				<title>OTCace (PF00185)
"Aspartate/ornithine carbamoyltransferase, Asp/Orn binding domain"</title>
				<polygon class="PF00185" points="926,29 937,40 926,51" stroke-linejoin="round" width="15" height="24" fill="rgb(215,107,106)" stroke="rgb(172,85,84)" stroke-width="1" opacity="0.75" />
			</g>
		</g>
		<g>
			<title> (ctg3_374)</title>
			<polygon class=" (ctg3_374)" points="943,10 958,40 943,70" fill="rgb(255,255,255)" fill-opacity="1.0" stroke="rgb(0,0,0)" stroke-width="2"  />
			<g>
				<title>PyrI (PF01948)
"Aspartate carbamoyltransferase regulatory chain, allosteric domain"</title>
				<polygon class="PF01948" points="943,28 948,28 952,34 952,46 948,52 943,52" stroke-linejoin="round" width="9" height="24" fill="rgb(189,70,203)" stroke="rgb(151,56,162)" stroke-width="1" opacity="0.75" />
			</g>
			<g>
				<title>PyrI_C (PF02748)
"Aspartate carbamoyltransferase regulatory chain, metal binding domain"</title>
				<polygon class="PF02748" points="953,36 955,40 953,44" stroke-linejoin="round" width="4" height="24" fill="rgb(70,213,227)" stroke="rgb(56,170,181)" stroke-width="1" opacity="0.75" />
			</g>
		</g>
		<g>
			<title> (ctg3_375)</title>
			<polygon class=" (ctg3_375)" points="961,10 973,40 961,70" fill="rgb(255,255,255)" fill-opacity="1.0" stroke="rgb(0,0,0)" stroke-width="2"  />
			<g>
				<title>Ribonuc_L-PSP (PF01042)
"Endoribonuclease L-PSP"</title>
				<polygon class="PF01042" points="961,28 965,28 970,40 965,52 961,52" stroke-linejoin="round" width="12" height="24" fill="rgb(93,120,208)" stroke="rgb(74,96,166)" stroke-width="1" opacity="0.75" />
			</g>
		</g>
		<g>
			<title> (ctg3_376)</title>
			<polygon class=" (ctg3_376)" points="981,25 1050,25 1050,10 1080,40 1050,70 1050,55 981,55" fill="rgb(255,255,255)" fill-opacity="1.0" stroke="rgb(0,0,0)" stroke-width="2"  />
			<g>
				<title>AMP-binding (PF00501)
"AMP-binding enzyme"</title>
				<rect class="PF00501" x="981" y="28" stroke-linejoin="round" width="39" height="24" fill="rgb(60,217,223)" stroke="rgb(48,173,178)" stroke-width="1" opacity="0.75" />
			</g>
			<g>
				<title>AMP-binding_C (PF13193)
"AMP-binding enzyme C-terminal domain"</title>
				<rect class="PF13193" x="1021" y="28" stroke-linejoin="round" width="7" height="24" fill="rgb(182,50,118)" stroke="rgb(145,39,94)" stroke-width="1" opacity="0.75" />
			</g>
			<g>
				<title>PP-binding (PF00550)
"Phosphopantetheine attachment site"</title>
				<rect class="PF00550" x="1031" y="28" stroke-linejoin="round" width="6" height="24" fill="rgb(103,191,88)" stroke="rgb(82,152,70)" stroke-width="1" opacity="0.75" />
			</g>
			<g>
				<title>NAD_binding_4 (PF07993)
"Male sterility protein"</title>
				<polygon class="PF07993" points="1043,28 1064,28 1067,31 1067,49 1064,52 1043,52" stroke-linejoin="round" width="24" height="24" fill="rgb(100,212,204)" stroke="rgb(80,169,163)" stroke-width="1" opacity="0.75" />
			</g>
		</g>
		<g>
			<title> (ctg3_377)</title>
			<polygon class=" (ctg3_377)" points="1161,25 1112,25 1112,10 1082,40 1112,70 1112,55 1161,55" fill="rgb(255,255,255)" fill-opacity="1.0" stroke="rgb(0,0,0)" stroke-width="2"  />
			<g>
				<title>Glyco_hydro_20 (PF00728)
"Glycosyl hydrolase family 20, catalytic domain"</title>
				<rect class="PF00728" x="1103" y="28" stroke-linejoin="round" width="8" height="24" fill="rgb(83,201,133)" stroke="rgb(66,160,106)" stroke-width="1" opacity="0.75" />
			</g>
			<g>
				<title>Glyco_hydro_20 (PF00728)
"Glycosyl hydrolase family 20, catalytic domain"</title>
				<rect class="PF00728" x="1114" y="28" stroke-linejoin="round" width="31" height="24" fill="rgb(83,201,133)" stroke="rgb(66,160,106)" stroke-width="1" opacity="0.75" />
			</g>
			<g>
				<title>Glyco_hydro_20b (PF02838)
"Glycosyl hydrolase family 20, domain 2"</title>
				<rect class="PF02838" x="1145" y="28" stroke-linejoin="round" width="13" height="24" fill="rgb(221,191,77)" stroke="rgb(176,152,61)" stroke-width="1" opacity="0.75" />
			</g>
		</g>
		<g>
			<title> (ctg3_378)</title>
			<polygon class=" (ctg3_378)" points="1260,25 1200,25 1200,10 1170,40 1200,70 1200,55 1260,55" fill="rgb(255,255,255)" fill-opacity="1.0" stroke="rgb(0,0,0)" stroke-width="2"  />
			<g>
				<title>Cation_ATPase_C (PF00689)
"Cation transporting ATPase, C-terminus"</title>
				<polygon class="PF00689" points="1174,40 1186,28 1186,28 1186,52 1186,52" stroke-linejoin="round" width="16" height="24" fill="rgb(76,203,161)" stroke="rgb(60,162,128)" stroke-width="1" opacity="0.75" />
			</g>
			<g>
				<title>Hydrolase (PF00702)
"haloacid dehalogenase-like hydrolase"</title>
				<rect class="PF00702" x="1194" y="28" stroke-linejoin="round" width="28" height="24" fill="rgb(68,220,102)" stroke="rgb(54,176,81)" stroke-width="1" opacity="0.75" />
			</g>
			<g>
				<title>E1-E2_ATPase (PF00122)
"E1-E2 ATPase"</title>
				<rect class="PF00122" x="1224" y="28" stroke-linejoin="round" width="19" height="24" fill="rgb(149,204,70)" stroke="rgb(119,163,56)" stroke-width="1" opacity="0.75" />
			</g>
			<g>
				<title>Cation_ATPase_N (PF00690)
"Cation transporter/ATPase, N-terminus"</title>
				<rect class="PF00690" x="1248" y="28" stroke-linejoin="round" width="6" height="24" fill="rgb(174,102,225)" stroke="rgb(139,81,180)" stroke-width="1" opacity="0.75" />
			</g>
		</g>
		<g>
			<title> (ctg3_379)</title>
			<polygon class=" (ctg3_379)" points="1275,25 1276,25 1276,10 1306,40 1276,70 1276,55 1275,55" fill="rgb(255,255,255)" fill-opacity="1.0" stroke="rgb(0,0,0)" stroke-width="2"  />
			<g>
				<title>LacI (PF00356)
"Bacterial regulatory proteins, lacI family"</title>
				<rect class="PF00356" x="1275" y="28" stroke-linejoin="round" width="4" height="24" fill="rgb(66,188,63)" stroke="rgb(52,150,50)" stroke-width="1" opacity="0.75" />
			</g>
			<g>
				<title>Peripla_BP_3 (PF13377)
"Periplasmic binding protein-like domain"</title>
				<polygon class="PF13377" points="1291,29 1302,40 1291,51" stroke-linejoin="round" width="14" height="24" fill="rgb(101,208,189)" stroke="rgb(80,166,151)" stroke-width="1" opacity="0.75" />
			</g>
		</g>
		<g>
			<title> (ctg3_380)</title>
			<polygon class=" (ctg3_380)" points="1311,25 1328,25 1328,10 1358,40 1328,70 1328,55 1311,55" fill="rgb(255,255,255)" fill-opacity="1.0" stroke="rgb(0,0,0)" stroke-width="2"  />
			<g>
				<title>PTS_EIIB (PF00367)
"phosphotransferase system, EIIB"</title>
				<rect class="PF00367" x="1312" y="28" stroke-linejoin="round" width="3" height="24" fill="rgb(188,77,92)" stroke="rgb(150,61,73)" stroke-width="1" opacity="0.75" />
			</g>
			<g>
				<title>PTS_EIIC (PF02378)
"Phosphotransferase system, EIIC"</title>
				<polygon class="PF02378" points="1322,28 1341,28 1351,38 1351,42 1341,52 1322,52" stroke-linejoin="round" width="29" height="24" fill="rgb(73,199,212)" stroke="rgb(58,159,169)" stroke-width="1" opacity="0.75" />
			</g>
		</g>
		<g>
			<title> (ctg3_381)</title>
			<polygon class=" (ctg3_381)" points="1365,25 1390,25 1390,10 1420,40 1390,70 1390,55 1365,55" fill="rgb(255,255,255)" fill-opacity="1.0" stroke="rgb(0,0,0)" stroke-width="2"  />
			<g>
				<title>Alpha-amylase (PF00128)
"Alpha amylase, catalytic domain"</title>
				<rect class="PF00128" x="1368" y="28" stroke-linejoin="round" width="34" height="24" fill="rgb(72,189,149)" stroke="rgb(57,151,119)" stroke-width="1" opacity="0.75" />
			</g>
			<g>
				<title>DUF3459 (PF11941)
"Domain of unknown function (DUF3459)"</title>
				<polygon class="PF11941" points="1410,34 1416,40 1410,46" stroke-linejoin="round" width="9" height="24" fill="rgb(55,147,193)" stroke="rgb(44,117,154)" stroke-width="1" opacity="0.75" />
			</g>
		</g>
		<g>
			<title> (ctg3_382)</title>
			<polygon class=" (ctg3_382)" points="1421,40 1438,10 1438,70" fill="rgb(255,255,255)" fill-opacity="1.0" stroke="rgb(0,0,0)" stroke-width="2"  />
			<g>
				<title>Flavodoxin_2 (PF02525)
"Flavodoxin-like fold"</title>
				<polygon class="PF02525" points="1424,40 1431,28 1437,28 1437,52 1431,52" stroke-linejoin="round" width="16" height="24" fill="rgb(159,188,70)" stroke="rgb(127,150,56)" stroke-width="1" opacity="0.75" />
			</g>
		</g>
		<g>
			<title> (ctg3_383)</title>
			<polygon class=" (ctg3_383)" points="1442,25 1442,25 1442,10 1472,40 1442,70 1442,55 1442,55" fill="rgb(255,255,255)" fill-opacity="1.0" stroke="rgb(0,0,0)" stroke-width="2"  />
			<g>
				<title>HTH_1 (PF00126)
"Bacterial regulatory helix-turn-helix protein, lysR family"</title>
				<rect class="PF00126" x="1442" y="28" stroke-linejoin="round" width="5" height="24" fill="rgb(125,227,79)" stroke="rgb(99,181,63)" stroke-width="1" opacity="0.75" />
			</g>
			<g>
				<title>LysR_substrate (PF03466)
"LysR substrate binding domain"</title>
				<polygon class="PF03466" points="1451,28 1456,28 1468,40 1456,52 1451,52" stroke-linejoin="round" width="20" height="24" fill="rgb(55,136,195)" stroke="rgb(44,108,156)" stroke-width="1" opacity="0.75" />
			</g>
		</g>
		<g>
			<title> (ctg3_384)</title>
			<polygon class=" (ctg3_384)" points="1481,25 1522,25 1522,10 1552,40 1522,70 1522,55 1481,55" fill="rgb(255,255,255)" fill-opacity="1.0" stroke="rgb(0,0,0)" stroke-width="2"  />
			<g>
				<title>ATP-cone (PF03477)
"ATP cone domain"</title>
				<rect class="PF03477" x="1481" y="28" stroke-linejoin="round" width="8" height="24" fill="rgb(186,70,213)" stroke="rgb(148,56,170)" stroke-width="1" opacity="0.75" />
			</g>
			<g>
				<title>NRDD (PF13597)
"Anaerobic ribonucleoside-triphosphate reductase"</title>
				<polygon class="PF13597" points="1492,28 1536,28 1548,40 1536,52 1492,52" stroke-linejoin="round" width="58" height="24" fill="rgb(212,80,212)" stroke="rgb(169,64,169)" stroke-width="1" opacity="0.75" />
			</g>
		</g>
		<g>
			<title> (ctg3_385)</title>
			<polygon class=" (ctg3_385)" points="1558,10 1573,40 1558,70" fill="rgb(255,255,255)" fill-opacity="1.0" stroke="rgb(0,0,0)" stroke-width="2"  />
			<g>
				<title>Fer4_12 (PF13353)
"4Fe-4S single cluster domain"</title>
				<polygon class="PF13353" points="1559,28 1563,28 1570,40 1563,52 1559,52" stroke-linejoin="round" width="13" height="24" fill="rgb(213,229,100)" stroke="rgb(170,183,80)" stroke-width="1" opacity="0.75" />
			</g>
		</g>
		<g>
			<title> (ctg3_386)</title>
			<polygon class=" (ctg3_386)" points="1583,25 1584,25 1584,10 1614,40 1584,70 1584,55 1583,55" fill="rgb(255,255,255)" fill-opacity="1.0" stroke="rgb(0,0,0)" stroke-width="2"  />
			<g>
				<title>Abi_2 (PF07751)
"Abi-like protein"</title>
				<polygon class="PF07751" points="1583,28 1598,28 1604,34 1604,46 1598,52 1583,52" stroke-linejoin="round" width="21" height="24" fill="rgb(198,71,214)" stroke="rgb(158,56,171)" stroke-width="1" opacity="0.75" />
			</g>
		</g>
		<g>
			<title> (ctg3_387)</title>
			<polygon class=" (ctg3_387)" points="1661,25 1656,25 1656,10 1626,40 1656,70 1656,55 1661,55" fill="rgb(255,255,255)" fill-opacity="1.0" stroke="rgb(0,0,0)" stroke-width="2"  />
			<g>
				<title>ArsP_1 (PF03773)
"Predicted permease"</title>
				<polygon class="PF03773" points="1630,40 1642,28 1653,28 1653,52 1642,52" stroke-linejoin="round" width="27" height="24" fill="rgb(103,196,76)" stroke="rgb(82,156,60)" stroke-width="1" opacity="0.75" />
			</g>
		</g>
		<g>
			<title> (ctg3_388)</title>
			<polygon class=" (ctg3_388)" points="1668,10 1692,40 1668,70" fill="rgb(255,255,255)" fill-opacity="1.0" stroke="rgb(0,0,0)" stroke-width="2"  />
			<g>
				<title>GntR (PF00392)
"Bacterial regulatory proteins, gntR family"</title>
				<rect class="PF00392" x="1669" y="28" stroke-linejoin="round" width="6" height="24" fill="rgb(160,85,194)" stroke="rgb(127,68,155)" stroke-width="1" opacity="0.75" />
			</g>
			<g>
				<title>UTRA (PF07702)
"UTRA domain"</title>
				<polygon class="PF07702" points="1677,28 1679,28 1688,40 1679,52 1677,52" stroke-linejoin="round" width="14" height="24" fill="rgb(170,184,91)" stroke="rgb(136,147,72)" stroke-width="1" opacity="0.75" />
			</g>
		</g>
		<g>
			<title> (ctg3_389)</title>
			<polygon class=" (ctg3_389)" points="1693,10 1707,40 1693,70" fill="rgb(255,255,255)" fill-opacity="1.0" stroke="rgb(0,0,0)" stroke-width="2"  />
			<g>
				<title>PhnG (PF06754)
"Phosphonate metabolism protein PhnG"</title>
				<polygon class="PF06754" points="1693,28 1698,28 1704,40 1698,52 1693,52" stroke-linejoin="round" width="14" height="24" fill="rgb(216,175,98)" stroke="rgb(172,140,78)" stroke-width="1" opacity="0.75" />
			</g>
		</g>
		<g>
			<title> (ctg3_390)</title>
			<polygon class=" (ctg3_390)" points="1708,10 1727,40 1708,70" fill="rgb(255,255,255)" fill-opacity="1.0" stroke="rgb(0,0,0)" stroke-width="2"  />
			<g>
				<title>PhnH (PF05845)
"Bacterial phosphonate metabolism protein (PhnH)"</title>
				<polygon class="PF05845" points="1708,28 1716,28 1723,40 1716,52 1708,52" stroke-linejoin="round" width="18" height="24" fill="rgb(69,116,182)" stroke="rgb(55,92,145)" stroke-width="1" opacity="0.75" />
			</g>
		</g>
	</g>
</svg>
