<svg version="1.1" baseProfile="full" xmlns="http://www.w3.org/2000/svg" width="393.73333333333335" height="80">
	<g>
		<line x1="10" y1="40.0" x2="383.73333333333335" y2="40.0" style="stroke:rgb(70,70,70); stroke-width:3 "/>
		<g>
			<title> (ctg2_259)</title>
			<polygon class=" (ctg2_259)" points="32,25 41,25 41,10 71,40 41,70 41,55 32,55" fill="rgb(255,255,255)" fill-opacity="1.0" stroke="rgb(0,0,0)" stroke-width="2"  />
			<g>
				<title>SBP_bac_8 (PF13416)
"Bacterial extracellular solute-binding protein"</title>
				<polygon class="PF13416" points="36,28 55,28 66,39 66,41 55,52 36,52" stroke-linejoin="round" width="30" height="24" fill="rgb(66,211,58)" stroke="rgb(52,168,46)" stroke-width="1" opacity="0.75" />
			</g>
		</g>
		<g>
			<title> (ctg2_260)</title>
			<polygon class=" (ctg2_260)" points="74,25 95,25 95,10 125,40 95,70 95,55 74,55" fill="rgb(255,255,255)" fill-opacity="1.0" stroke="rgb(0,0,0)" stroke-width="2"  />
			<g>
				<title>MalF_P2 (PF14785)
"Maltose transport system permease protein MalF P2 domain"</title>
				<rect class="PF14785" x="83" y="28" stroke-linejoin="round" width="15" height="24" fill="rgb(227,181,96)" stroke="rgb(181,144,76)" stroke-width="1" opacity="0.75" />
			</g>
			<g>
				<title>BPD_transp_1 (PF00528)
"Binding-protein-dependent transport system inner membrane component"</title>
				<polygon class="PF00528" points="103,28 108,28 120,40 108,52 103,52" stroke-linejoin="round" width="21" height="24" fill="rgb(77,208,225)" stroke="rgb(61,166,180)" stroke-width="1" opacity="0.75" />
			</g>
		</g>
		<g>
			<title> (ctg2_261)</title>
			<polygon class=" (ctg2_261)" points="125,10 154,40 125,70" fill="rgb(255,255,255)" fill-opacity="1.0" stroke="rgb(0,0,0)" stroke-width="2"  />
			<g>
				<title>BPD_transp_1 (PF00528)
"Binding-protein-dependent transport system inner membrane component"</title>
				<polygon class="PF00528" points="134,28 138,28 150,40 138,52 134,52" stroke-linejoin="round" width="19" height="24" fill="rgb(77,208,225)" stroke="rgb(61,166,180)" stroke-width="1" opacity="0.75" />
			</g>
		</g>
		<g>
			<title> (ctg2_262)</title>
			<polygon class=" (ctg2_262)" points="170,10 174,40 170,70" fill="rgb(255,255,255)" fill-opacity="1.0" stroke="rgb(0,0,0)" stroke-width="2"  />
		</g>
		<g>
			<title> (ctg2_263)</title>
			<polygon class=" (ctg2_263)" points="176,25 186,25 186,10 216,40 186,70 186,55 176,55" fill="rgb(255,255,255)" fill-opacity="1.0" stroke="rgb(0,0,0)" stroke-width="2"  />
			<g>
				<title>YcaO (PF02624)
"YcaO cyclodehydratase, ATP-ad Mg2+-binding"</title>
				<polygon class="PF02624" points="181,28 200,28 212,40 200,52 181,52" stroke-linejoin="round" width="32" height="24" fill="rgb(76,84,185)" stroke="rgb(60,67,148)" stroke-width="1" opacity="0.75" />
			</g>
		</g>
		<g>
			<title> (ctg2_264)</title>
			<polygon class=" (ctg2_264)" points="216,10 244,40 216,70" fill="rgb(255,255,255)" fill-opacity="1.0" stroke="rgb(0,0,0)" stroke-width="2"  />
			<g>
				<title>Methyltransf_25 (PF13649)
"Methyltransferase domain"</title>
				<polygon class="PF13649" points="230,30 239,39 239,41 230,50" stroke-linejoin="round" width="9" height="24" fill="rgb(227,135,74)" stroke="rgb(181,108,59)" stroke-width="1" opacity="0.75" />
			</g>
		</g>
		<g>
			<title> (ctg2_265)</title>
			<polygon class=" (ctg2_265)" points="256,25 262,25 262,10 292,40 262,70 262,55 256,55" fill="rgb(255,255,255)" fill-opacity="1.0" stroke="rgb(0,0,0)" stroke-width="2"  />
			<g>
				<title>Oxidored_FMN (PF00724)
"NADH:flavin oxidoreductase / NADH oxidase family"</title>
				<polygon class="PF00724" points="256,28 276,28 288,40 276,52 256,52" stroke-linejoin="round" width="33" height="24" fill="rgb(157,188,65)" stroke="rgb(125,150,52)" stroke-width="1" opacity="0.75" />
			</g>
		</g>
		<g>
			<title> (ctg2_266)</title>
			<polygon class=" (ctg2_266)" points="297,10 310,40 297,70" fill="rgb(255,255,255)" fill-opacity="1.0" stroke="rgb(0,0,0)" stroke-width="2"  />
			<g>
				<title>Transthyretin (PF00576)
"HIUase/Transthyretin family"</title>
				<polygon class="PF00576" points="299,28 301,28 307,40 301,52 299,52" stroke-linejoin="round" width="10" height="24" fill="rgb(184,55,136)" stroke="rgb(147,44,108)" stroke-width="1" opacity="0.75" />
			</g>
		</g>
		<g>
			<title> (ctg2_267)</title>
			<polygon class=" (ctg2_267)" points="353,25 342,25 342,10 312,40 342,70 342,55 353,55" fill="rgb(255,255,255)" fill-opacity="1.0" stroke="rgb(0,0,0)" stroke-width="2"  />
			<g>
				<title>Trp_Tyr_perm (PF03222)
"Tryptophan/tyrosine permease family"</title>
				<polygon class="PF03222" points="316,40 328,28 351,28 351,52 328,52" stroke-linejoin="round" width="38" height="24" fill="rgb(201,50,133)" stroke="rgb(160,40,106)" stroke-width="1" opacity="0.75" />
			</g>
		</g>
	</g>
</svg>
