<svg version="1.1" baseProfile="full" xmlns="http://www.w3.org/2000/svg" width="1975.5333333333333" height="80">
	<g>
		<line x1="10" y1="40.0" x2="1965.5333333333333" y2="40.0" style="stroke:rgb(70,70,70); stroke-width:3 "/>
		<g>
			<title> (ctg1_309)</title>
			<polygon class=" (ctg1_309)" points="22,40 33,10 33,70" fill="rgb(255,255,255)" fill-opacity="1.0" stroke="rgb(0,0,0)" stroke-width="2"  />
			<g>
				<title>CMD (PF02627)
"Carboxymuconolactone decarboxylase family"</title>
				<polygon class="PF02627" points="25,40 30,28 30,28 30,52 30,52" stroke-linejoin="round" width="8" height="24" fill="rgb(58,205,164)" stroke="rgb(46,164,131)" stroke-width="1" opacity="0.75" />
			</g>
		</g>
		<g>
			<title> (ctg1_310)</title>
			<polygon class=" (ctg1_310)" points="35,40 44,10 44,70" fill="rgb(255,255,255)" fill-opacity="1.0" stroke="rgb(0,0,0)" stroke-width="2"  />
		</g>
		<g>
			<title> (ctg1_311)</title>
			<polygon class=" (ctg1_311)" points="80,25 80,25 80,10 50,40 80,70 80,55 80,55" fill="rgb(255,255,255)" fill-opacity="1.0" stroke="rgb(0,0,0)" stroke-width="2"  />
			<g>
				<title>LysR_substrate (PF03466)
"LysR substrate binding domain"</title>
				<polygon class="PF03466" points="54,40 66,28 70,28 70,52 66,52" stroke-linejoin="round" width="20" height="24" fill="rgb(55,136,195)" stroke="rgb(44,108,156)" stroke-width="1" opacity="0.75" />
			</g>
			<g>
				<title>HTH_1 (PF00126)
"Bacterial regulatory helix-turn-helix protein, lysR family"</title>
				<rect class="PF00126" x="73" y="28" stroke-linejoin="round" width="6" height="24" fill="rgb(125,227,79)" stroke="rgb(99,181,63)" stroke-width="1" opacity="0.75" />
			</g>
		</g>
		<g>
			<title> (ctg1_312)</title>
			<polygon class=" (ctg1_312)" points="86,10 111,40 86,70" fill="rgb(255,255,255)" fill-opacity="1.0" stroke="rgb(0,0,0)" stroke-width="2"  />
			<g>
				<title>adh_short_C2 (PF13561)
"Enoyl-(Acyl carrier protein) reductase"</title>
				<polygon class="PF13561" points="87,28 98,28 107,40 98,52 87,52" stroke-linejoin="round" width="23" height="24" fill="rgb(73,205,127)" stroke="rgb(58,164,101)" stroke-width="1" opacity="0.75" />
			</g>
		</g>
		<g>
			<title> (ctg1_313)</title>
			<polygon class=" (ctg1_313)" points="114,10 129,40 114,70" fill="rgb(255,255,255)" fill-opacity="1.0" stroke="rgb(0,0,0)" stroke-width="2"  />
			<g>
				<title>OsmC (PF02566)
"OsmC-like protein"</title>
				<polygon class="PF02566" points="118,28 119,28 126,40 119,52 118,52" stroke-linejoin="round" width="10" height="24" fill="rgb(161,56,212)" stroke="rgb(128,44,169)" stroke-width="1" opacity="0.75" />
			</g>
		</g>
		<g>
			<title> (ctg1_314)</title>
			<polygon class=" (ctg1_314)" points="130,25 134,25 134,10 164,40 134,70 134,55 130,55" fill="rgb(255,255,255)" fill-opacity="1.0" stroke="rgb(0,0,0)" stroke-width="2"  />
			<g>
				<title>ADH_N (PF08240)
"Alcohol dehydrogenase GroES-like domain"</title>
				<rect class="PF08240" x="132" y="28" stroke-linejoin="round" width="10" height="24" fill="rgb(211,65,138)" stroke="rgb(168,51,110)" stroke-width="1" opacity="0.75" />
			</g>
			<g>
				<title>ADH_zinc_N (PF00107)
"Zinc-binding dehydrogenase"</title>
				<polygon class="PF00107" points="147,28 148,28 159,39 159,41 148,52 147,52" stroke-linejoin="round" width="12" height="24" fill="rgb(81,108,215)" stroke="rgb(64,86,172)" stroke-width="1" opacity="0.75" />
			</g>
		</g>
		<g>
			<title> (ctg1_315)</title>
			<polygon class=" (ctg1_315)" points="165,25 175,25 175,10 205,40 175,70 175,55 165,55" fill="rgb(255,255,255)" fill-opacity="1.0" stroke="rgb(0,0,0)" stroke-width="2"  />
			<g>
				<title>MFS_1 (PF07690)
"Major Facilitator Superfamily"</title>
				<polygon class="PF07690" points="166,28 188,28 199,39 199,41 188,52 166,52" stroke-linejoin="round" width="33" height="24" fill="rgb(193,224,74)" stroke="rgb(154,179,59)" stroke-width="1" opacity="0.75" />
			</g>
		</g>
		<g>
			<title> (ctg1_316)</title>
			<polygon class=" (ctg1_316)" points="210,10 222,40 210,70" fill="rgb(255,255,255)" fill-opacity="1.0" stroke="rgb(0,0,0)" stroke-width="2"  />
			<g>
				<title>Ribonuc_L-PSP (PF01042)
"Endoribonuclease L-PSP"</title>
				<polygon class="PF01042" points="211,28 214,28 219,40 214,52 211,52" stroke-linejoin="round" width="11" height="24" fill="rgb(93,120,208)" stroke="rgb(74,96,166)" stroke-width="1" opacity="0.75" />
			</g>
		</g>
		<g>
			<title> (ctg1_317)</title>
			<polygon class=" (ctg1_317)" points="231,40 240,10 240,70" fill="rgb(255,255,255)" fill-opacity="1.0" stroke="rgb(0,0,0)" stroke-width="2"  />
		</g>
		<g>
			<title> (ctg1_318)</title>
			<polygon class=" (ctg1_318)" points="253,25 255,25 255,10 285,40 255,70 255,55 253,55" fill="rgb(255,255,255)" fill-opacity="1.0" stroke="rgb(0,0,0)" stroke-width="2"  />
			<g>
				<title>Epimerase (PF01370)
"NAD dependent epimerase/dehydratase family"</title>
				<polygon class="PF01370" points="253,28 268,28 275,35 275,45 268,52 253,52" stroke-linejoin="round" width="22" height="24" fill="rgb(98,102,214)" stroke="rgb(78,81,171)" stroke-width="1" opacity="0.75" />
			</g>
		</g>
		<g>
			<title> (ctg1_319)</title>
			<polygon class=" (ctg1_319)" points="290,25 299,25 299,10 329,40 299,70 299,55 290,55" fill="rgb(255,255,255)" fill-opacity="1.0" stroke="rgb(0,0,0)" stroke-width="2"  />
			<g>
				<title>MFS_1 (PF07690)
"Major Facilitator Superfamily"</title>
				<polygon class="PF07690" points="292,28 313,28 323,38 323,42 313,52 292,52" stroke-linejoin="round" width="31" height="24" fill="rgb(193,224,74)" stroke="rgb(154,179,59)" stroke-width="1" opacity="0.75" />
			</g>
		</g>
		<g>
			<title> (ctg1_320)</title>
			<polygon class=" (ctg1_320)" points="330,40 359,10 359,70" fill="rgb(255,255,255)" fill-opacity="1.0" stroke="rgb(0,0,0)" stroke-width="2"  />
			<g>
				<title>LysR_substrate (PF03466)
"LysR substrate binding domain"</title>
				<polygon class="PF03466" points="334,40 346,28 350,28 350,52 346,52" stroke-linejoin="round" width="20" height="24" fill="rgb(55,136,195)" stroke="rgb(44,108,156)" stroke-width="1" opacity="0.75" />
			</g>
			<g>
				<title>HTH_1 (PF00126)
"Bacterial regulatory helix-turn-helix protein, lysR family"</title>
				<rect class="PF00126" x="353" y="28" stroke-linejoin="round" width="5" height="24" fill="rgb(125,227,79)" stroke="rgb(99,181,63)" stroke-width="1" opacity="0.75" />
			</g>
		</g>
		<g>
			<title> (ctg1_321)</title>
			<polygon class=" (ctg1_321)" points="367,40 380,10 380,70" fill="rgb(255,255,255)" fill-opacity="1.0" stroke="rgb(0,0,0)" stroke-width="2"  />
			<g>
				<title>Glyoxalase (PF00903)
"Glyoxalase/Bleomycin resistance protein/Dioxygenase superfamily"</title>
				<polygon class="PF00903" points="370,40 375,28 379,28 379,52 375,52" stroke-linejoin="round" width="12" height="24" fill="rgb(50,162,189)" stroke="rgb(40,129,151)" stroke-width="1" opacity="0.75" />
			</g>
		</g>
		<g>
			<title> (ctg1_322)</title>
			<polygon class=" (ctg1_322)" points="416,25 416,25 416,10 386,40 416,70 416,55 416,55" fill="rgb(255,255,255)" fill-opacity="1.0" stroke="rgb(0,0,0)" stroke-width="2"  />
			<g>
				<title>Abhydrolase_1 (PF00561)
"alpha/beta hydrolase fold"</title>
				<polygon class="PF00561" points="398,32 402,28 412,28 412,52 402,52 398,48" stroke-linejoin="round" width="14" height="24" fill="rgb(86,180,151)" stroke="rgb(68,144,120)" stroke-width="1" opacity="0.75" />
			</g>
		</g>
		<g>
			<title> (ctg1_323)</title>
			<polygon class=" (ctg1_323)" points="419,10 438,40 419,70" fill="rgb(255,255,255)" fill-opacity="1.0" stroke="rgb(0,0,0)" stroke-width="2"  />
			<g>
				<title>ABATE (PF07336)
"Putative stress-induced transcription regulator"</title>
				<polygon class="PF07336" points="420,28 427,28 432,36 432,44 427,52 420,52" stroke-linejoin="round" width="12" height="24" fill="rgb(138,187,82)" stroke="rgb(110,149,65)" stroke-width="1" opacity="0.75" />
			</g>
			<g>
				<title>zf-CGNR (PF11706)
"CGNR zinc finger"</title>
				<polygon class="PF11706" points="433,38 434,40 433,42" stroke-linejoin="round" width="4" height="24" fill="rgb(115,70,216)" stroke="rgb(92,56,172)" stroke-width="1" opacity="0.75" />
			</g>
		</g>
		<g>
			<title> (ctg1_324)</title>
			<polygon class=" (ctg1_324)" points="456,10 475,40 456,70" fill="rgb(255,255,255)" fill-opacity="1.0" stroke="rgb(0,0,0)" stroke-width="2"  />
			<g>
				<title>TetR_N (PF00440)
"Bacterial regulatory proteins, tetR family"</title>
				<rect class="PF00440" x="457" y="28" stroke-linejoin="round" width="4" height="24" fill="rgb(73,212,190)" stroke="rgb(58,169,152)" stroke-width="1" opacity="0.75" />
			</g>
		</g>
		<g>
			<title> (ctg1_325)</title>
			<polygon class=" (ctg1_325)" points="477,10 492,40 477,70" fill="rgb(255,255,255)" fill-opacity="1.0" stroke="rgb(0,0,0)" stroke-width="2"  />
			<g>
				<title>DUF1348 (PF07080)
"Protein of unknown function (DUF1348)"</title>
				<polygon class="PF07080" points="478,28 483,28 489,40 483,52 478,52" stroke-linejoin="round" width="12" height="24" fill="rgb(127,189,61)" stroke="rgb(101,151,48)" stroke-width="1" opacity="0.75" />
			</g>
		</g>
		<g>
			<title> (ctg1_326)</title>
			<polygon class=" (ctg1_326)" points="503,10 519,40 503,70" fill="rgb(255,255,255)" fill-opacity="1.0" stroke="rgb(0,0,0)" stroke-width="2"  />
			<g>
				<title>GSHPx (PF00255)
"Glutathione peroxidase"</title>
				<polygon class="PF00255" points="503,28 509,28 513,35 513,45 509,52 503,52" stroke-linejoin="round" width="10" height="24" fill="rgb(92,57,196)" stroke="rgb(73,45,156)" stroke-width="1" opacity="0.75" />
			</g>
		</g>
		<g>
			<title> (ctg1_327)</title>
			<polygon class=" (ctg1_327)" points="521,40 544,10 544,70" fill="rgb(255,255,255)" fill-opacity="1.0" stroke="rgb(0,0,0)" stroke-width="2"  />
			<g>
				<title>ACPS (PF01648)
"4'-phosphopantetheinyl transferase superfamily"</title>
				<polygon class="PF01648" points="525,40 532,31 532,49" stroke-linejoin="round" width="10" height="24" fill="rgb(85,184,135)" stroke="rgb(68,147,108)" stroke-width="1" opacity="0.75" />
			</g>
			<g>
				<title>4PPT_N (PF17837)
"4'-phosphopantetheinyl transferase N-terminal domain"</title>
				<polygon class="PF17837" points="532,31 535,28 538,28 538,52 535,52 532,49" stroke-linejoin="round" width="6" height="24" fill="rgb(198,68,92)" stroke="rgb(158,54,73)" stroke-width="1" opacity="0.75" />
			</g>
		</g>
		<g>
			<title> (ctg1_328)</title>
			<polygon class=" (ctg1_328)" points="619,25 575,25 575,10 545,40 575,70 575,55 619,55" fill="rgb(255,255,255)" fill-opacity="1.0" stroke="rgb(0,0,0)" stroke-width="2"  />
			<g>
				<title>TonB_dep_Rec (PF00593)
"TonB dependent receptor"</title>
				<polygon class="PF00593" points="549,40 561,28 595,28 595,52 561,52" stroke-linejoin="round" width="50" height="24" fill="rgb(171,200,51)" stroke="rgb(136,160,40)" stroke-width="1" opacity="0.75" />
			</g>
			<g>
				<title>Plug (PF07715)
"TonB-dependent Receptor Plug Domain"</title>
				<rect class="PF07715" x="603" y="28" stroke-linejoin="round" width="12" height="24" fill="rgb(99,133,214)" stroke="rgb(79,106,171)" stroke-width="1" opacity="0.75" />
			</g>
		</g>
		<g>
			<title> (ctg1_329)</title>
			<polygon class=" (ctg1_329)" points="629,25 639,25 639,10 669,40 639,70 639,55 629,55" fill="rgb(255,255,255)" fill-opacity="1.0" stroke="rgb(0,0,0)" stroke-width="2"  />
			<g>
				<title>Enterochelin_N (PF11806)
"Enterochelin esterase, N-terminal"</title>
				<rect class="PF11806" x="631" y="28" stroke-linejoin="round" width="13" height="24" fill="rgb(49,154,189)" stroke="rgb(39,123,151)" stroke-width="1" opacity="0.75" />
			</g>
			<g>
				<title>Esterase (PF00756)
"Putative esterase"</title>
				<polygon class="PF00756" points="646,28 652,28 664,40 652,52 646,52" stroke-linejoin="round" width="21" height="24" fill="rgb(217,132,77)" stroke="rgb(173,105,61)" stroke-width="1" opacity="0.75" />
			</g>
		</g>
		<g>
			<title> (ctg1_330)</title>
			<polygon class=" (ctg1_330)" points="669,10 676,40 669,70" fill="rgb(255,255,255)" fill-opacity="1.0" stroke="rgb(0,0,0)" stroke-width="2"  />
			<g>
				<title>MbtH (PF03621)
"MbtH-like protein"</title>
				<polygon class="PF03621" points="669,28 669,28 673,40 669,52 669,52" stroke-linejoin="round" width="5" height="24" fill="rgb(212,165,97)" stroke="rgb(169,132,77)" stroke-width="1" opacity="0.75" />
			</g>
		</g>
		<g>
			<title> (ctg1_331)</title>
			<polygon class=" (ctg1_331)" points="676,25 774,25 774,10 804,40 774,70 774,55 676,55" fill="rgb(255,255,255)" fill-opacity="1.0" stroke="rgb(0,0,0)" stroke-width="2"  />
			<g>
				<title>Condensation (PF00668)
"Condensation domain"</title>
				<rect class="PF00668" x="676" y="28" stroke-linejoin="round" width="44" height="24" fill="rgb(224,184,98)" stroke="rgb(179,147,78)" stroke-width="1" opacity="0.75" />
			</g>
			<g>
				<title>AMP-binding (PF00501)
"AMP-binding enzyme"</title>
				<rect class="PF00501" x="722" y="28" stroke-linejoin="round" width="40" height="24" fill="rgb(60,217,223)" stroke="rgb(48,173,178)" stroke-width="1" opacity="0.75" />
			</g>
			<g>
				<title>AMP-binding_C (PF13193)
"AMP-binding enzyme C-terminal domain"</title>
				<rect class="PF13193" x="762" y="28" stroke-linejoin="round" width="8" height="24" fill="rgb(182,50,118)" stroke="rgb(145,39,94)" stroke-width="1" opacity="0.75" />
			</g>
			<g>
				<title>PP-binding (PF00550)
"Phosphopantetheine attachment site"</title>
				<rect class="PF00550" x="773" y="28" stroke-linejoin="round" width="6" height="24" fill="rgb(103,191,88)" stroke="rgb(82,152,70)" stroke-width="1" opacity="0.75" />
			</g>
			<g>
				<title>Thioesterase (PF00975)
"Thioesterase domain"</title>
				<polygon class="PF00975" points="782,28 788,28 800,40 788,52 782,52" stroke-linejoin="round" width="21" height="24" fill="rgb(207,80,138)" stroke="rgb(165,63,110)" stroke-width="1" opacity="0.75" />
			</g>
		</g>
		<g>
			<title> (ctg1_332)</title>
			<polygon class=" (ctg1_332)" points="807,40 825,10 825,70" fill="rgb(255,255,255)" fill-opacity="1.0" stroke="rgb(0,0,0)" stroke-width="2"  />
			<g>
				<title>OMP_b-brl (PF13505)
"Outer membrane protein beta-barrel domain"</title>
				<polygon class="PF13505" points="811,40 818,28 825,28 825,52 818,52" stroke-linejoin="round" width="18" height="24" fill="rgb(200,118,85)" stroke="rgb(160,94,67)" stroke-width="1" opacity="0.75" />
			</g>
		</g>
		<g>
			<title> (ctg1_333)</title>
			<polygon class=" (ctg1_333)" points="840,40 849,10 849,70" fill="rgb(255,255,255)" fill-opacity="1.0" stroke="rgb(0,0,0)" stroke-width="2"  />
		</g>
		<g>
			<title> (ctg1_334)</title>
			<polygon class=" (ctg1_334)" points="852,40 859,10 859,70" fill="rgb(255,255,255)" fill-opacity="1.0" stroke="rgb(0,0,0)" stroke-width="2"  />
			<g>
				<title>Imm31 (PF15591)
"Immunity protein 31"</title>
				<polygon class="PF15591" points="855,40 858,28 859,28 859,52 858,52" stroke-linejoin="round" width="7" height="24" fill="rgb(222,81,90)" stroke="rgb(177,64,72)" stroke-width="1" opacity="0.75" />
			</g>
		</g>
		<g>
			<title> (ctg1_335)</title>
			<polygon class=" (ctg1_335)" points="908,25 889,25 889,10 859,40 889,70 889,55 908,55" fill="rgb(255,255,255)" fill-opacity="1.0" stroke="rgb(0,0,0)" stroke-width="2"  />
			<g>
				<title>Ntox17 (PF15524)
"Novel toxin 17"</title>
				<polygon class="PF15524" points="863,40 868,35 868,45" stroke-linejoin="round" width="9" height="24" fill="rgb(153,80,224)" stroke="rgb(122,64,179)" stroke-width="1" opacity="0.75" />
			</g>
			<g>
				<title>PT-VENN (PF04829)
"Pre-toxin domain with VENN motif"</title>
				<rect class="PF04829" x="885" y="28" stroke-linejoin="round" width="5" height="24" fill="rgb(91,201,54)" stroke="rgb(72,160,43)" stroke-width="1" opacity="0.75" />
			</g>
		</g>
		<g>
			<title> (ctg1_336)</title>
			<polygon class=" (ctg1_336)" points="918,10 926,40 918,70" fill="rgb(255,255,255)" fill-opacity="1.0" stroke="rgb(0,0,0)" stroke-width="2"  />
		</g>
		<g>
			<title> (ctg1_337)</title>
			<polygon class=" (ctg1_337)" points="928,40 941,10 941,70" fill="rgb(255,255,255)" fill-opacity="1.0" stroke="rgb(0,0,0)" stroke-width="2"  />
		</g>
		<g>
			<title> (ctg1_338)</title>
			<polygon class=" (ctg1_338)" points="944,40 970,10 970,70" fill="rgb(255,255,255)" fill-opacity="1.0" stroke="rgb(0,0,0)" stroke-width="2"  />
			<g>
				<title>POTRA_2 (PF08479)
"POTRA domain, ShlB-type"</title>
				<polygon class="PF08479" points="955,32 959,28 962,28 962,52 959,52 955,48" stroke-linejoin="round" width="7" height="24" fill="rgb(99,69,180)" stroke="rgb(79,55,144)" stroke-width="1" opacity="0.75" />
			</g>
		</g>
		<g>
			<title> (ctg1_339)</title>
			<polygon class=" (ctg1_339)" points="975,40 1001,10 1001,70" fill="rgb(255,255,255)" fill-opacity="1.0" stroke="rgb(0,0,0)" stroke-width="2"  />
			<g>
				<title>ABC_tran (PF00005)
"ABC transporter"</title>
				<polygon class="PF00005" points="984,34 990,28 998,28 998,52 990,52 984,46" stroke-linejoin="round" width="14" height="24" fill="rgb(129,201,63)" stroke="rgb(103,160,50)" stroke-width="1" opacity="0.75" />
			</g>
		</g>
		<g>
			<title> (ctg1_340)</title>
			<polygon class=" (ctg1_340)" points="1035,25 1032,25 1032,10 1002,40 1032,70 1032,55 1035,55" fill="rgb(255,255,255)" fill-opacity="1.0" stroke="rgb(0,0,0)" stroke-width="2"  />
			<g>
				<title>FecCD (PF01032)
"FecCD transport family"</title>
				<polygon class="PF01032" points="1006,40 1018,28 1033,28 1033,52 1018,52" stroke-linejoin="round" width="31" height="24" fill="rgb(210,177,70)" stroke="rgb(168,141,56)" stroke-width="1" opacity="0.75" />
			</g>
		</g>
		<g>
			<title> (ctg1_341)</title>
			<polygon class=" (ctg1_341)" points="1067,25 1064,25 1064,10 1034,40 1064,70 1064,55 1067,55" fill="rgb(255,255,255)" fill-opacity="1.0" stroke="rgb(0,0,0)" stroke-width="2"  />
			<g>
				<title>FecCD (PF01032)
"FecCD transport family"</title>
				<polygon class="PF01032" points="1038,40 1050,28 1065,28 1065,52 1050,52" stroke-linejoin="round" width="31" height="24" fill="rgb(210,177,70)" stroke="rgb(168,141,56)" stroke-width="1" opacity="0.75" />
			</g>
		</g>
		<g>
			<title> (ctg1_342)</title>
			<polygon class=" (ctg1_342)" points="1072,25 1083,25 1083,10 1113,40 1083,70 1083,55 1072,55" fill="rgb(255,255,255)" fill-opacity="1.0" stroke="rgb(0,0,0)" stroke-width="2"  />
			<g>
				<title>MFS_3 (PF05977)
"Transmembrane secretion effector"</title>
				<polygon class="PF05977" points="1073,28 1097,28 1109,40 1097,52 1073,52" stroke-linejoin="round" width="40" height="24" fill="rgb(80,62,217)" stroke="rgb(64,49,173)" stroke-width="1" opacity="0.75" />
			</g>
		</g>
		<g>
			<title> (ctg1_343)</title>
			<polygon class=" (ctg1_343)" points="1145,25 1143,25 1143,10 1113,40 1143,70 1143,55 1145,55" fill="rgb(255,255,255)" fill-opacity="1.0" stroke="rgb(0,0,0)" stroke-width="2"  />
			<g>
				<title>Peripla_BP_2 (PF01497)
"Periplasmic binding protein"</title>
				<polygon class="PF01497" points="1117,40 1129,28 1140,28 1140,52 1129,52" stroke-linejoin="round" width="25" height="24" fill="rgb(183,226,104)" stroke="rgb(146,180,83)" stroke-width="1" opacity="0.75" />
			</g>
		</g>
		<g>
			<title> (ctg1_344)</title>
			<polygon class=" (ctg1_344)" points="1151,25 1160,25 1160,10 1190,40 1160,70 1160,55 1151,55" fill="rgb(255,255,255)" fill-opacity="1.0" stroke="rgb(0,0,0)" stroke-width="2"  />
			<g>
				<title>Chorismate_bind (PF00425)
"chorismate binding enzyme"</title>
				<polygon class="PF00425" points="1163,28 1173,28 1185,40 1173,52 1163,52" stroke-linejoin="round" width="25" height="24" fill="rgb(188,116,88)" stroke="rgb(150,92,70)" stroke-width="1" opacity="0.75" />
			</g>
		</g>
		<g>
			<title> (ctg1_345)</title>
			<polygon class=" (ctg1_345)" points="1191,25 1214,25 1214,10 1244,40 1214,70 1214,55 1191,55" fill="rgb(255,255,255)" fill-opacity="1.0" stroke="rgb(0,0,0)" stroke-width="2"  />
			<g>
				<title>AMP-binding (PF00501)
"AMP-binding enzyme"</title>
				<polygon class="PF00501" points="1194,28 1228,28 1234,34 1234,46 1228,52 1194,52" stroke-linejoin="round" width="40" height="24" fill="rgb(60,217,223)" stroke="rgb(48,173,178)" stroke-width="1" opacity="0.75" />
			</g>
			<g>
				<title>AMP-binding_C (PF13193)
"AMP-binding enzyme C-terminal domain"</title>
				<polygon class="PF13193" points="1235,35 1240,40 1235,45" stroke-linejoin="round" width="7" height="24" fill="rgb(182,50,118)" stroke="rgb(145,39,94)" stroke-width="1" opacity="0.75" />
			</g>
		</g>
		<g>
			<title> (ctg1_346)</title>
			<polygon class=" (ctg1_346)" points="1245,10 1273,40 1245,70" fill="rgb(255,255,255)" fill-opacity="1.0" stroke="rgb(0,0,0)" stroke-width="2"  />
			<g>
				<title>Isochorismatase (PF00857)
"Isochorismatase family"</title>
				<polygon class="PF00857" points="1248,28 1257,28 1265,36 1265,44 1257,52 1248,52" stroke-linejoin="round" width="17" height="24" fill="rgb(144,224,70)" stroke="rgb(115,179,56)" stroke-width="1" opacity="0.75" />
			</g>
			<g>
				<title>PP-binding (PF00550)
"Phosphopantetheine attachment site"</title>
				<polygon class="PF00550" points="1266,37 1269,40 1266,43" stroke-linejoin="round" width="6" height="24" fill="rgb(103,191,88)" stroke="rgb(82,152,70)" stroke-width="1" opacity="0.75" />
			</g>
		</g>
		<g>
			<title> (ctg1_347)</title>
			<polygon class=" (ctg1_347)" points="1273,10 1298,40 1273,70" fill="rgb(255,255,255)" fill-opacity="1.0" stroke="rgb(0,0,0)" stroke-width="2"  />
			<g>
				<title>adh_short_C2 (PF13561)
"Enoyl-(Acyl carrier protein) reductase"</title>
				<polygon class="PF13561" points="1274,28 1284,28 1294,40 1284,52 1274,52" stroke-linejoin="round" width="23" height="24" fill="rgb(73,205,127)" stroke="rgb(58,164,101)" stroke-width="1" opacity="0.75" />
			</g>
		</g>
		<g>
			<title> (ctg1_348)</title>
			<polygon class=" (ctg1_348)" points="1298,10 1311,40 1298,70" fill="rgb(255,255,255)" fill-opacity="1.0" stroke="rgb(0,0,0)" stroke-width="2"  />
			<g>
				<title>4HBT (PF03061)
"Thioesterase superfamily"</title>
				<polygon class="PF03061" points="1303,29 1308,40 1303,51" stroke-linejoin="round" width="7" height="24" fill="rgb(143,103,215)" stroke="rgb(114,82,172)" stroke-width="1" opacity="0.75" />
			</g>
		</g>
		<g>
			<title> (ctg1_349)</title>
			<polygon class=" (ctg1_349)" points="1318,25 1358,25 1358,10 1388,40 1358,70 1358,55 1318,55" fill="rgb(255,255,255)" fill-opacity="1.0" stroke="rgb(0,0,0)" stroke-width="2"  />
			<g>
				<title>CstA (PF02554)
"Carbon starvation protein CstA"</title>
				<rect class="PF02554" x="1321" y="28" stroke-linejoin="round" width="38" height="24" fill="rgb(153,59,192)" stroke="rgb(122,47,153)" stroke-width="1" opacity="0.75" />
			</g>
			<g>
				<title>CstA_5TM (PF13722)
"5TM C-terminal transporter carbon starvation CstA"</title>
				<polygon class="PF13722" points="1364,28 1371,28 1376,33 1376,47 1371,52 1364,52" stroke-linejoin="round" width="12" height="24" fill="rgb(224,155,111)" stroke="rgb(179,124,88)" stroke-width="1" opacity="0.75" />
			</g>
		</g>
		<g>
			<title> (ctg1_350)</title>
			<polygon class=" (ctg1_350)" points="1390,10 1396,40 1390,70" fill="rgb(255,255,255)" fill-opacity="1.0" stroke="rgb(0,0,0)" stroke-width="2"  />
			<g>
				<title>Sel_put (PF04328)
"Selenoprotein, putative"</title>
				<polygon class="PF04328" points="1390,28 1390,28 1393,40 1390,52 1390,52" stroke-linejoin="round" width="6" height="24" fill="rgb(114,219,96)" stroke="rgb(91,175,76)" stroke-width="1" opacity="0.75" />
			</g>
		</g>
		<g>
			<title> (ctg1_351)</title>
			<polygon class=" (ctg1_351)" points="1397,40 1410,10 1410,70" fill="rgb(255,255,255)" fill-opacity="1.0" stroke="rgb(0,0,0)" stroke-width="2"  />
			<g>
				<title>HTH_3 (PF01381)
"Helix-turn-helix"</title>
				<polygon class="PF01381" points="1400,40 1402,36 1402,44" stroke-linejoin="round" width="5" height="24" fill="rgb(105,79,202)" stroke="rgb(83,63,161)" stroke-width="1" opacity="0.75" />
			</g>
		</g>
		<g>
			<title> (ctg1_352)</title>
			<polygon class=" (ctg1_352)" points="1409,40 1418,10 1418,70" fill="rgb(255,255,255)" fill-opacity="1.0" stroke="rgb(0,0,0)" stroke-width="2"  />
			<g>
				<title>ParE_toxin (PF05016)
"ParE toxin of type II toxin-antitoxin system, parDE"</title>
				<polygon class="PF05016" points="1412,40 1416,28 1418,28 1418,52 1416,52" stroke-linejoin="round" width="8" height="24" fill="rgb(110,226,73)" stroke="rgb(88,180,58)" stroke-width="1" opacity="0.75" />
			</g>
		</g>
		<g>
			<title> (ctg1_353)</title>
			<polygon class=" (ctg1_353)" points="1425,40 1449,10 1449,70" fill="rgb(255,255,255)" fill-opacity="1.0" stroke="rgb(0,0,0)" stroke-width="2"  />
			<g>
				<title>adh_short_C2 (PF13561)
"Enoyl-(Acyl carrier protein) reductase"</title>
				<polygon class="PF13561" points="1429,40 1439,28 1448,28 1448,52 1439,52" stroke-linejoin="round" width="23" height="24" fill="rgb(73,205,127)" stroke="rgb(58,164,101)" stroke-width="1" opacity="0.75" />
			</g>
		</g>
		<g>
			<title> (ctg1_354)</title>
			<polygon class=" (ctg1_354)" points="1488,25 1482,25 1482,10 1452,40 1482,70 1482,55 1488,55" fill="rgb(255,255,255)" fill-opacity="1.0" stroke="rgb(0,0,0)" stroke-width="2"  />
			<g>
				<title>Fe-ADH (PF00465)
"Iron-containing alcohol dehydrogenase"</title>
				<polygon class="PF00465" points="1456,40 1468,28 1486,28 1486,52 1468,52" stroke-linejoin="round" width="33" height="24" fill="rgb(73,179,216)" stroke="rgb(58,143,172)" stroke-width="1" opacity="0.75" />
			</g>
		</g>
		<g>
			<title> (ctg1_355)</title>
			<polygon class=" (ctg1_355)" points="1494,25 1514,25 1514,10 1544,40 1514,70 1514,55 1494,55" fill="rgb(255,255,255)" fill-opacity="1.0" stroke="rgb(0,0,0)" stroke-width="2"  />
			<g>
				<title>ABC_tran (PF00005)
"ABC transporter"</title>
				<rect class="PF00005" x="1496" y="28" stroke-linejoin="round" width="15" height="24" fill="rgb(129,201,63)" stroke="rgb(103,160,50)" stroke-width="1" opacity="0.75" />
			</g>
			<g>
				<title>ABC_tran (PF00005)
"ABC transporter"</title>
				<polygon class="PF00005" points="1521,28 1527,28 1536,37 1536,43 1527,52 1521,52" stroke-linejoin="round" width="15" height="24" fill="rgb(129,201,63)" stroke="rgb(103,160,50)" stroke-width="1" opacity="0.75" />
			</g>
		</g>
		<g>
			<title> (ctg1_356)</title>
			<polygon class=" (ctg1_356)" points="1544,25 1547,25 1547,10 1577,40 1547,70 1547,55 1544,55" fill="rgb(255,255,255)" fill-opacity="1.0" stroke="rgb(0,0,0)" stroke-width="2"  />
			<g>
				<title>BPD_transp_2 (PF02653)
"Branched-chain amino acid transport system / permease component"</title>
				<polygon class="PF02653" points="1548,28 1560,28 1572,40 1560,52 1548,52" stroke-linejoin="round" width="27" height="24" fill="rgb(69,130,196)" stroke="rgb(55,104,156)" stroke-width="1" opacity="0.75" />
			</g>
		</g>
		<g>
			<title> (ctg1_357)</title>
			<polygon class=" (ctg1_357)" points="1578,25 1583,25 1583,10 1613,40 1583,70 1583,55 1578,55" fill="rgb(255,255,255)" fill-opacity="1.0" stroke="rgb(0,0,0)" stroke-width="2"  />
			<g>
				<title>Peripla_BP_4 (PF13407)
"Periplasmic binding protein domain"</title>
				<polygon class="PF13407" points="1582,28 1597,28 1607,38 1607,42 1597,52 1582,52" stroke-linejoin="round" width="25" height="24" fill="rgb(124,182,50)" stroke="rgb(99,145,39)" stroke-width="1" opacity="0.75" />
			</g>
		</g>
		<g>
			<title> (ctg1_358)</title>
			<polygon class=" (ctg1_358)" points="1613,25 1624,25 1624,10 1654,40 1624,70 1624,55 1613,55" fill="rgb(255,255,255)" fill-opacity="1.0" stroke="rgb(0,0,0)" stroke-width="2"  />
			<g>
				<title>LVIVD (PF08309)
"LVIVD repeat"</title>
				<rect class="PF08309" x="1615" y="28" stroke-linejoin="round" width="3" height="24" fill="rgb(225,128,66)" stroke="rgb(180,102,52)" stroke-width="1" opacity="0.75" />
			</g>
		</g>
		<g>
			<title> (ctg1_359)</title>
			<polygon class=" (ctg1_359)" points="1698,25 1688,25 1688,10 1658,40 1688,70 1688,55 1698,55" fill="rgb(255,255,255)" fill-opacity="1.0" stroke="rgb(0,0,0)" stroke-width="2"  />
			<g>
				<title>APH (PF01636)
"Phosphotransferase enzyme family"</title>
				<polygon class="PF01636" points="1667,35 1674,28 1695,28 1695,52 1674,52 1667,45" stroke-linejoin="round" width="28" height="24" fill="rgb(106,220,228)" stroke="rgb(84,176,182)" stroke-width="1" opacity="0.75" />
			</g>
		</g>
		<g>
			<title> (ctg1_360)</title>
			<polygon class=" (ctg1_360)" points="1701,25 1704,25 1704,10 1734,40 1704,70 1704,55 1701,55" fill="rgb(255,255,255)" fill-opacity="1.0" stroke="rgb(0,0,0)" stroke-width="2"  />
			<g>
				<title>IF-2B (PF01008)
"Initiation factor 2 subunit family"</title>
				<polygon class="PF01008" points="1705,28 1718,28 1730,40 1718,52 1705,52" stroke-linejoin="round" width="28" height="24" fill="rgb(195,91,90)" stroke="rgb(156,72,72)" stroke-width="1" opacity="0.75" />
			</g>
		</g>
		<g>
			<title> (ctg1_361)</title>
			<polygon class=" (ctg1_361)" points="1737,40 1755,10 1755,70" fill="rgb(255,255,255)" fill-opacity="1.0" stroke="rgb(0,0,0)" stroke-width="2"  />
			<g>
				<title>ARD (PF03079)
"ARD/ARD' family"</title>
				<polygon class="PF03079" points="1741,40 1748,28 1754,28 1754,52 1748,52" stroke-linejoin="round" width="16" height="24" fill="rgb(49,194,66)" stroke="rgb(39,155,52)" stroke-width="1" opacity="0.75" />
			</g>
		</g>
		<g>
			<title> (ctg1_362)</title>
			<polygon class=" (ctg1_362)" points="1755,40 1778,10 1778,70" fill="rgb(255,255,255)" fill-opacity="1.0" stroke="rgb(0,0,0)" stroke-width="2"  />
			<g>
				<title>Hydrolase (PF00702)
"haloacid dehalogenase-like hydrolase"</title>
				<polygon class="PF00702" points="1759,40 1768,28 1777,28 1777,52 1768,52" stroke-linejoin="round" width="19" height="24" fill="rgb(68,220,102)" stroke="rgb(54,176,81)" stroke-width="1" opacity="0.75" />
			</g>
		</g>
		<g>
			<title> (ctg1_363)</title>
			<polygon class=" (ctg1_363)" points="1778,40 1798,10 1798,70" fill="rgb(255,255,255)" fill-opacity="1.0" stroke="rgb(0,0,0)" stroke-width="2"  />
			<g>
				<title>Aldolase_II (PF00596)
"Class II Aldolase and Adducin N-terminal domain"</title>
				<polygon class="PF00596" points="1782,40 1790,28 1796,28 1796,52 1790,52" stroke-linejoin="round" width="18" height="24" fill="rgb(208,130,90)" stroke="rgb(166,104,72)" stroke-width="1" opacity="0.75" />
			</g>
		</g>
		<g>
			<title> (ctg1_364)</title>
			<polygon class=" (ctg1_364)" points="1803,25 1811,25 1811,10 1841,40 1811,70 1811,55 1803,55" fill="rgb(255,255,255)" fill-opacity="1.0" stroke="rgb(0,0,0)" stroke-width="2"  />
			<g>
				<title>Aminotran_1_2 (PF00155)
"Aminotransferase class I and II"</title>
				<polygon class="PF00155" points="1806,28 1825,28 1837,40 1825,52 1806,52" stroke-linejoin="round" width="35" height="24" fill="rgb(89,113,198)" stroke="rgb(71,90,158)" stroke-width="1" opacity="0.75" />
			</g>
		</g>
		<g>
			<title> (ctg1_365)</title>
			<polygon class=" (ctg1_365)" points="1843,40 1872,10 1872,70" fill="rgb(255,255,255)" fill-opacity="1.0" stroke="rgb(0,0,0)" stroke-width="2"  />
			<g>
				<title>LysR_substrate (PF03466)
"LysR substrate binding domain"</title>
				<polygon class="PF03466" points="1847,40 1859,28 1862,28 1862,52 1859,52" stroke-linejoin="round" width="19" height="24" fill="rgb(55,136,195)" stroke="rgb(44,108,156)" stroke-width="1" opacity="0.75" />
			</g>
			<g>
				<title>HTH_1 (PF00126)
"Bacterial regulatory helix-turn-helix protein, lysR family"</title>
				<rect class="PF00126" x="1865" y="28" stroke-linejoin="round" width="5" height="24" fill="rgb(125,227,79)" stroke="rgb(99,181,63)" stroke-width="1" opacity="0.75" />
			</g>
		</g>
		<g>
			<title> (ctg1_366)</title>
			<polygon class=" (ctg1_366)" points="1881,40 1905,10 1905,70" fill="rgb(255,255,255)" fill-opacity="1.0" stroke="rgb(0,0,0)" stroke-width="2"  />
			<g>
				<title>Thioredoxin_2 (PF13098)
"Thioredoxin-like domain"</title>
				<polygon class="PF13098" points="1885,40 1894,29 1894,51" stroke-linejoin="round" width="13" height="24" fill="rgb(210,154,89)" stroke="rgb(168,123,71)" stroke-width="1" opacity="0.75" />
			</g>
		</g>
		<g>
			<title> (ctg1_367)</title>
			<polygon class=" (ctg1_367)" points="1918,10 1936,40 1918,70" fill="rgb(255,255,255)" fill-opacity="1.0" stroke="rgb(0,0,0)" stroke-width="2"  />
			<g>
				<title>AhpC-TSA (PF00578)
"AhpC/TSA family"</title>
				<polygon class="PF00578" points="1918,28 1925,28 1931,37 1931,43 1925,52 1918,52" stroke-linejoin="round" width="13" height="24" fill="rgb(166,71,190)" stroke="rgb(132,56,152)" stroke-width="1" opacity="0.75" />
			</g>
			<g>
				<title>1-cysPrx_C (PF10417)
"C-terminal domain of 1-Cys peroxiredoxin"</title>
				<polygon class="PF10417" points="1933,40 1933,40 1933,40" stroke-linejoin="round" width="3" height="24" fill="rgb(80,189,172)" stroke="rgb(64,151,137)" stroke-width="1" opacity="0.75" />
			</g>
		</g>
	</g>
</svg>
