<svg version="1.1" baseProfile="full" xmlns="http://www.w3.org/2000/svg" width="758.6666666666666" height="80">
	<g>
		<line x1="10" y1="40.0" x2="748.6666666666666" y2="40.0" style="stroke:rgb(70,70,70); stroke-width:3 "/>
		<g>
			<title> (ctg2_85)</title>
			<polygon class=" (ctg2_85)" points="62,10 77,40 62,70" fill="rgb(255,255,255)" fill-opacity="1.0" stroke="rgb(0,0,0)" stroke-width="2"  />
		</g>
		<g>
			<title> (ctg2_86)</title>
			<polygon class=" (ctg2_86)" points="82,10 110,40 82,70" fill="rgb(255,255,255)" fill-opacity="1.0" stroke="rgb(0,0,0)" stroke-width="2"  />
			<g>
				<title>RNAse_A_bac (PF18431)
"Bacterial CdiA-CT RNAse A domain"</title>
				<polygon class="PF18431" points="98,32 106,40 98,48" stroke-linejoin="round" width="11" height="24" fill="rgb(225,118,112)" stroke="rgb(180,94,89)" stroke-width="1" opacity="0.75" />
			</g>
		</g>
		<g>
			<title> (ctg2_87)</title>
			<polygon class=" (ctg2_87)" points="111,10 121,40 111,70" fill="rgb(255,255,255)" fill-opacity="1.0" stroke="rgb(0,0,0)" stroke-width="2"  />
			<g>
				<title>CdiI_2 (PF18593)
"CdiI immunity protein"</title>
				<polygon class="PF18593" points="111,28 113,28 117,40 113,52 111,52" stroke-linejoin="round" width="9" height="24" fill="rgb(191,76,191)" stroke="rgb(152,60,152)" stroke-width="1" opacity="0.75" />
			</g>
		</g>
		<g>
			<title> (ctg2_88)</title>
			<polygon class=" (ctg2_88)" points="164,10 181,40 164,70" fill="rgb(255,255,255)" fill-opacity="1.0" stroke="rgb(0,0,0)" stroke-width="2"  />
			<g>
				<title>DUF2778 (PF10908)
"Protein of unknown function (DUF2778)"</title>
				<polygon class="PF10908" points="166,28 170,28 178,40 178,40 170,52 166,52" stroke-linejoin="round" width="12" height="24" fill="rgb(107,102,227)" stroke="rgb(85,81,181)" stroke-width="1" opacity="0.75" />
			</g>
		</g>
		<g>
			<title> (ctg2_89)</title>
			<polygon class=" (ctg2_89)" points="193,10 206,40 193,70" fill="rgb(255,255,255)" fill-opacity="1.0" stroke="rgb(0,0,0)" stroke-width="2"  />
		</g>
		<g>
			<title> (ctg2_90)</title>
			<polygon class=" (ctg2_90)" points="212,10 215,40 212,70" fill="rgb(255,255,255)" fill-opacity="1.0" stroke="rgb(0,0,0)" stroke-width="2"  />
		</g>
		<g>
			<title> (ctg2_91)</title>
			<polygon class=" (ctg2_91)" points="217,10 231,40 217,70" fill="rgb(255,255,255)" fill-opacity="1.0" stroke="rgb(0,0,0)" stroke-width="2"  />
			<g>
				<title>DUF943 (PF06092)
"Enterobacterial putative membrane protein (DUF943)"</title>
				<polygon class="PF06092" points="217,28 222,28 228,40 222,52 217,52" stroke-linejoin="round" width="14" height="24" fill="rgb(60,182,57)" stroke="rgb(48,145,45)" stroke-width="1" opacity="0.75" />
			</g>
		</g>
		<g>
			<title> (ctg2_92)</title>
			<polygon class=" (ctg2_92)" points="244,10 259,40 244,70" fill="rgb(255,255,255)" fill-opacity="1.0" stroke="rgb(0,0,0)" stroke-width="2"  />
		</g>
		<g>
			<title> (ctg2_93)</title>
			<polygon class=" (ctg2_93)" points="263,10 267,40 263,70" fill="rgb(255,255,255)" fill-opacity="1.0" stroke="rgb(0,0,0)" stroke-width="2"  />
		</g>
		<g>
			<title> (ctg2_94)</title>
			<polygon class=" (ctg2_94)" points="268,25 273,25 273,10 303,40 273,70 273,55 268,55" fill="rgb(255,255,255)" fill-opacity="1.0" stroke="rgb(0,0,0)" stroke-width="2"  />
			<g>
				<title>Peptidase_M19 (PF01244)
"Membrane dipeptidase (Peptidase family M19)"</title>
				<polygon class="PF01244" points="269,28 287,28 299,40 287,52 269,52" stroke-linejoin="round" width="33" height="24" fill="rgb(178,227,92)" stroke="rgb(142,181,73)" stroke-width="1" opacity="0.75" />
			</g>
		</g>
		<g>
			<title> (ctg2_95)</title>
			<polygon class=" (ctg2_95)" points="312,25 312,25 312,10 342,40 312,70 312,55 312,55" fill="rgb(255,255,255)" fill-opacity="1.0" stroke="rgb(0,0,0)" stroke-width="2"  />
			<g>
				<title>Lactamase_B_2 (PF12706)
"Beta-lactamase superfamily domain"</title>
				<polygon class="PF12706" points="317,28 326,28 338,40 326,52 317,52" stroke-linejoin="round" width="22" height="24" fill="rgb(62,169,197)" stroke="rgb(49,135,157)" stroke-width="1" opacity="0.75" />
			</g>
		</g>
		<g>
			<title> (ctg2_96)</title>
			<polygon class=" (ctg2_96)" points="343,10 368,40 343,70" fill="rgb(255,255,255)" fill-opacity="1.0" stroke="rgb(0,0,0)" stroke-width="2"  />
			<g>
				<title>TENA_THI-4 (PF03070)
"TENA/THI-4/PQQC family"</title>
				<polygon class="PF03070" points="344,28 354,28 364,40 354,52 344,52" stroke-linejoin="round" width="21" height="24" fill="rgb(95,149,219)" stroke="rgb(76,119,175)" stroke-width="1" opacity="0.75" />
			</g>
		</g>
		<g>
			<title> (ctg2_97)</title>
			<polygon class=" (ctg2_97)" points="368,10 377,40 368,70" fill="rgb(255,255,255)" fill-opacity="1.0" stroke="rgb(0,0,0)" stroke-width="2"  />
			<g>
				<title>PqqD (PF05402)
"Coenzyme PQQ synthesis protein D (PqqD)"</title>
				<polygon class="PF05402" points="370,28 370,28 374,40 370,52 370,52" stroke-linejoin="round" width="6" height="24" fill="rgb(124,62,188)" stroke="rgb(99,49,150)" stroke-width="1" opacity="0.75" />
			</g>
		</g>
		<g>
			<title> (ctg2_98)</title>
			<polygon class=" (ctg2_98)" points="377,25 384,25 384,10 414,40 384,70 384,55 377,55" fill="rgb(255,255,255)" fill-opacity="1.0" stroke="rgb(0,0,0)" stroke-width="2"  />
			<g>
				<title>Radical_SAM (PF04055)
"Radical SAM superfamily"</title>
				<rect class="PF04055" x="378" y="28" stroke-linejoin="round" width="15" height="24" fill="rgb(149,56,222)" stroke="rgb(119,44,177)" stroke-width="1" opacity="0.75" />
			</g>
			<g>
				<title>SPASM (PF13186)
"Iron-sulfur cluster-binding domain"</title>
				<polygon class="PF13186" points="401,31 407,37 407,43 401,49" stroke-linejoin="round" width="6" height="24" fill="rgb(183,66,65)" stroke="rgb(146,52,51)" stroke-width="1" opacity="0.75" />
			</g>
		</g>
		<g>
			<title> (ctg2_99)</title>
			<polygon class=" (ctg2_99)" points="415,25 462,25 462,10 492,40 462,70 462,55 415,55" fill="rgb(255,255,255)" fill-opacity="1.0" stroke="rgb(0,0,0)" stroke-width="2"  />
			<g>
				<title>Peptidase_M16 (PF00675)
"Insulinase (Peptidase family M16)"</title>
				<rect class="PF00675" x="416" y="28" stroke-linejoin="round" width="13" height="24" fill="rgb(70,225,127)" stroke="rgb(56,180,101)" stroke-width="1" opacity="0.75" />
			</g>
			<g>
				<title>Peptidase_M16_C (PF05193)
"Peptidase M16 inactive domain"</title>
				<rect class="PF05193" x="432" y="28" stroke-linejoin="round" width="16" height="24" fill="rgb(199,79,180)" stroke="rgb(159,63,144)" stroke-width="1" opacity="0.75" />
			</g>
		</g>
		<g>
			<title> (ctg2_100)</title>
			<polygon class=" (ctg2_100)" points="496,10 517,40 496,70" fill="rgb(255,255,255)" fill-opacity="1.0" stroke="rgb(0,0,0)" stroke-width="2"  />
			<g>
				<title>HTH_46 (PF15977)
"Winged helix-turn-helix DNA binding"</title>
				<polygon class="PF15977" points="510,35 513,40 510,45" stroke-linejoin="round" width="6" height="24" fill="rgb(58,61,225)" stroke="rgb(46,48,180)" stroke-width="1" opacity="0.75" />
			</g>
		</g>
		<g>
			<title> (ctg2_101)</title>
			<polygon class=" (ctg2_101)" points="523,10 550,40 523,70" fill="rgb(255,255,255)" fill-opacity="1.0" stroke="rgb(0,0,0)" stroke-width="2"  />
			<g>
				<title>GDPD (PF03009)
"Glycerophosphoryl diester phosphodiesterase family"</title>
				<polygon class="PF03009" points="526,28 535,28 542,35 542,45 535,52 526,52" stroke-linejoin="round" width="16" height="24" fill="rgb(196,119,93)" stroke="rgb(156,95,74)" stroke-width="1" opacity="0.75" />
			</g>
		</g>
		<g>
			<title> (ctg2_102)</title>
			<polygon class=" (ctg2_102)" points="553,25 570,25 570,10 600,40 570,70 570,55 553,55" fill="rgb(255,255,255)" fill-opacity="1.0" stroke="rgb(0,0,0)" stroke-width="2"  />
			<g>
				<title>DNA_meth_N (PF18284)
"DNA methylase N-terminal domain"</title>
				<rect class="PF18284" x="555" y="28" stroke-linejoin="round" width="5" height="24" fill="rgb(74,190,138)" stroke="rgb(59,152,110)" stroke-width="1" opacity="0.75" />
			</g>
			<g>
				<title>DNA_methylase (PF00145)
"C-5 cytosine-specific DNA methylase"</title>
				<polygon class="PF00145" points="562,28 583,28 595,40 583,52 562,52" stroke-linejoin="round" width="36" height="24" fill="rgb(154,197,70)" stroke="rgb(123,157,56)" stroke-width="1" opacity="0.75" />
			</g>
		</g>
		<g>
			<title> (ctg2_103)</title>
			<polygon class=" (ctg2_103)" points="601,40 606,10 606,70" fill="rgb(255,255,255)" fill-opacity="1.0" stroke="rgb(0,0,0)" stroke-width="2"  />
			<g>
				<title>Pmp3 (PF01679)
"Proteolipid membrane potential modulator"</title>
				<polygon class="PF01679" points="604,40 605,34 605,46" stroke-linejoin="round" width="4" height="24" fill="rgb(102,214,171)" stroke="rgb(81,171,136)" stroke-width="1" opacity="0.75" />
			</g>
		</g>
		<g>
			<title> (ctg2_104)</title>
			<polygon class=" (ctg2_104)" points="615,10 621,40 615,70" fill="rgb(255,255,255)" fill-opacity="1.0" stroke="rgb(0,0,0)" stroke-width="2"  />
		</g>
		<g>
			<title> (ctg2_105)</title>
			<polygon class=" (ctg2_105)" points="631,10 646,40 631,70" fill="rgb(255,255,255)" fill-opacity="1.0" stroke="rgb(0,0,0)" stroke-width="2"  />
			<g>
				<title>AlaE (PF06610)
"L-alanine exporter"</title>
				<polygon class="PF06610" points="631,28 636,28 642,40 636,52 631,52" stroke-linejoin="round" width="13" height="24" fill="rgb(70,225,148)" stroke="rgb(56,180,118)" stroke-width="1" opacity="0.75" />
			</g>
		</g>
		<g>
			<title> (ctg2_106)</title>
			<polygon class=" (ctg2_106)" points="646,40 657,10 657,70" fill="rgb(255,255,255)" fill-opacity="1.0" stroke="rgb(0,0,0)" stroke-width="2"  />
			<g>
				<title>DUF2002 (PF09400)
"Protein of unknown function (DUF2002)"</title>
				<polygon class="PF09400" points="649,40 654,28 656,28 656,52 654,52" stroke-linejoin="round" width="10" height="24" fill="rgb(94,215,167)" stroke="rgb(75,172,133)" stroke-width="1" opacity="0.75" />
			</g>
		</g>
		<g>
			<title> (ctg2_107)</title>
			<polygon class=" (ctg2_107)" points="663,10 673,40 663,70" fill="rgb(255,255,255)" fill-opacity="1.0" stroke="rgb(0,0,0)" stroke-width="2"  />
			<g>
				<title>DUF883 (PF05957)
"DUF883 N-terminal domain"</title>
				<polygon class="PF05957" points="664,28 666,28 669,36 669,44 666,52 664,52" stroke-linejoin="round" width="5" height="24" fill="rgb(47,178,125)" stroke="rgb(37,142,99)" stroke-width="1" opacity="0.75" />
			</g>
			<g>
				<title>DUF883_C (PF19029)
"DUF883 C-terminal glycine zipper region"</title>
				<polygon class="PF19029" points="670,39 670,40 670,41" stroke-linejoin="round" width="3" height="24" fill="rgb(219,97,170)" stroke="rgb(175,77,135)" stroke-width="1" opacity="0.75" />
			</g>
		</g>
		<g>
			<title> (ctg2_108)</title>
			<polygon class=" (ctg2_108)" points="719,25 704,25 704,10 674,40 704,70 704,55 719,55" fill="rgb(255,255,255)" fill-opacity="1.0" stroke="rgb(0,0,0)" stroke-width="2"  />
			<g>
				<title>Aminotran_1_2 (PF00155)
"Aminotransferase class I and II"</title>
				<polygon class="PF00155" points="678,40 690,28 707,28 707,52 690,52" stroke-linejoin="round" width="32" height="24" fill="rgb(89,113,198)" stroke="rgb(71,90,158)" stroke-width="1" opacity="0.75" />
			</g>
			<g>
				<title>GntR (PF00392)
"Bacterial regulatory proteins, gntR family"</title>
				<rect class="PF00392" x="712" y="28" stroke-linejoin="round" width="6" height="24" fill="rgb(160,85,194)" stroke="rgb(127,68,155)" stroke-width="1" opacity="0.75" />
			</g>
		</g>
		<g>
			<title> (ctg2_109)</title>
			<polygon class=" (ctg2_109)" points="722,10 736,40 722,70" fill="rgb(255,255,255)" fill-opacity="1.0" stroke="rgb(0,0,0)" stroke-width="2"  />
			<g>
				<title>CMD (PF02627)
"Carboxymuconolactone decarboxylase family"</title>
				<polygon class="PF02627" points="723,28 727,28 731,36 731,44 727,52 723,52" stroke-linejoin="round" width="8" height="24" fill="rgb(58,205,164)" stroke="rgb(46,164,131)" stroke-width="1" opacity="0.75" />
			</g>
		</g>
	</g>
</svg>
