<svg version="1.1" baseProfile="full" xmlns="http://www.w3.org/2000/svg" width="1554.6" height="80">
	<g>
		<line x1="10" y1="40.0" x2="1544.6" y2="40.0" style="stroke:rgb(70,70,70); stroke-width:3 "/>
		<g>
			<title> (ctg1_1084)</title>
			<polygon class=" (ctg1_1084)" points="10,40 38,10 38,70" fill="rgb(255,255,255)" fill-opacity="1.0" stroke="rgb(0,0,0)" stroke-width="2"  />
			<g>
				<title>LysR_substrate (PF03466)
"LysR substrate binding domain"</title>
				<polygon class="PF03466" points="14,40 26,28 29,28 29,52 26,52" stroke-linejoin="round" width="19" height="24" fill="rgb(55,136,195)" stroke="rgb(44,108,156)" stroke-width="1" opacity="0.75" />
			</g>
			<g>
				<title>HTH_1 (PF00126)
"Bacterial regulatory helix-turn-helix protein, lysR family"</title>
				<rect class="PF00126" x="32" y="28" stroke-linejoin="round" width="5" height="24" fill="rgb(125,227,79)" stroke="rgb(99,181,63)" stroke-width="1" opacity="0.75" />
			</g>
		</g>
		<g>
			<title> (ctg1_1085)</title>
			<polygon class=" (ctg1_1085)" points="43,25 50,25 50,10 80,40 50,70 50,55 43,55" fill="rgb(255,255,255)" fill-opacity="1.0" stroke="rgb(0,0,0)" stroke-width="2"  />
			<g>
				<title>PAD_porph (PF04371)
"Porphyromonas-type peptidyl-arginine deiminase"</title>
				<polygon class="PF04371" points="47,28 64,28 76,40 64,52 47,52" stroke-linejoin="round" width="33" height="24" fill="rgb(68,195,113)" stroke="rgb(54,156,90)" stroke-width="1" opacity="0.75" />
			</g>
		</g>
		<g>
			<title> (ctg1_1086)</title>
			<polygon class=" (ctg1_1086)" points="84,10 106,40 84,70" fill="rgb(255,255,255)" fill-opacity="1.0" stroke="rgb(0,0,0)" stroke-width="2"  />
			<g>
				<title>Methyltransf_23 (PF13489)
"Methyltransferase domain"</title>
				<polygon class="PF13489" points="85,28 94,28 102,39 102,41 94,52 85,52" stroke-linejoin="round" width="17" height="24" fill="rgb(188,189,66)" stroke="rgb(150,151,52)" stroke-width="1" opacity="0.75" />
			</g>
		</g>
		<g>
			<title> (ctg1_1087)</title>
			<polygon class=" (ctg1_1087)" points="113,25 121,25 121,10 151,40 121,70 121,55 113,55" fill="rgb(255,255,255)" fill-opacity="1.0" stroke="rgb(0,0,0)" stroke-width="2"  />
			<g>
				<title>HlyD_D23 (PF16576)
"Barrel-sandwich domain of CusB or HlyD membrane-fusion"</title>
				<polygon class="PF16576" points="117,28 134,28 141,35 141,45 134,52 117,52" stroke-linejoin="round" width="24" height="24" fill="rgb(70,190,92)" stroke="rgb(56,152,73)" stroke-width="1" opacity="0.75" />
			</g>
		</g>
		<g>
			<title> (ctg1_1088)</title>
			<polygon class=" (ctg1_1088)" points="152,25 226,25 226,10 256,40 226,70 226,55 152,55" fill="rgb(255,255,255)" fill-opacity="1.0" stroke="rgb(0,0,0)" stroke-width="2"  />
			<g>
				<title>ACR_tran (PF00873)
"AcrB/AcrD/AcrF family"</title>
				<polygon class="PF00873" points="152,28 240,28 252,40 240,52 152,52" stroke-linejoin="round" width="102" height="24" fill="rgb(63,191,60)" stroke="rgb(50,152,48)" stroke-width="1" opacity="0.75" />
			</g>
		</g>
		<g>
			<title> (ctg1_1089)</title>
			<polygon class=" (ctg1_1089)" points="256,25 274,25 274,10 304,40 274,70 274,55 256,55" fill="rgb(255,255,255)" fill-opacity="1.0" stroke="rgb(0,0,0)" stroke-width="2"  />
			<g>
				<title>OEP (PF02321)
"Outer membrane efflux protein"</title>
				<rect class="PF02321" x="262" y="28" stroke-linejoin="round" width="18" height="24" fill="rgb(205,57,201)" stroke="rgb(164,45,160)" stroke-width="1" opacity="0.75" />
			</g>
			<g>
				<title>OEP (PF02321)
"Outer membrane efflux protein"</title>
				<polygon class="PF02321" points="283,28 287,28 299,40 287,52 283,52" stroke-linejoin="round" width="18" height="24" fill="rgb(205,57,201)" stroke="rgb(164,45,160)" stroke-width="1" opacity="0.75" />
			</g>
		</g>
		<g>
			<title> (ctg1_1090)</title>
			<polygon class=" (ctg1_1090)" points="310,10 321,40 310,70" fill="rgb(255,255,255)" fill-opacity="1.0" stroke="rgb(0,0,0)" stroke-width="2"  />
			<g>
				<title>DUF1493 (PF07377)
"Protein of unknown function (DUF1493)"</title>
				<polygon class="PF07377" points="310,28 313,28 318,40 313,52 310,52" stroke-linejoin="round" width="10" height="24" fill="rgb(191,125,80)" stroke="rgb(152,100,64)" stroke-width="1" opacity="0.75" />
			</g>
		</g>
		<g>
			<title> (ctg1_1091)</title>
			<polygon class=" (ctg1_1091)" points="322,40 341,10 341,70" fill="rgb(255,255,255)" fill-opacity="1.0" stroke="rgb(0,0,0)" stroke-width="2"  />
			<g>
				<title>DJ-1_PfpI (PF01965)
"DJ-1/PfpI family"</title>
				<polygon class="PF01965" points="326,40 334,28 340,28 340,52 334,52" stroke-linejoin="round" width="18" height="24" fill="rgb(66,224,145)" stroke="rgb(52,179,116)" stroke-width="1" opacity="0.75" />
			</g>
		</g>
		<g>
			<title> (ctg1_1092)</title>
			<polygon class=" (ctg1_1092)" points="345,25 366,25 366,10 396,40 366,70 366,55 345,55" fill="rgb(255,255,255)" fill-opacity="1.0" stroke="rgb(0,0,0)" stroke-width="2"  />
			<g>
				<title>AMP-binding (PF00501)
"AMP-binding enzyme"</title>
				<polygon class="PF00501" points="345,28 380,28 386,34 386,46 380,52 345,52" stroke-linejoin="round" width="41" height="24" fill="rgb(60,217,223)" stroke="rgb(48,173,178)" stroke-width="1" opacity="0.75" />
			</g>
			<g>
				<title>AMP-binding_C (PF13193)
"AMP-binding enzyme C-terminal domain"</title>
				<polygon class="PF13193" points="387,35 392,40 387,45" stroke-linejoin="round" width="7" height="24" fill="rgb(182,50,118)" stroke="rgb(145,39,94)" stroke-width="1" opacity="0.75" />
			</g>
		</g>
		<g>
			<title> (ctg1_1093)</title>
			<polygon class=" (ctg1_1093)" points="440,25 428,25 428,10 398,40 428,70 428,55 440,55" fill="rgb(255,255,255)" fill-opacity="1.0" stroke="rgb(0,0,0)" stroke-width="2"  />
			<g>
				<title>ELFV_dehydrog (PF00208)
"Glutamate/Leucine/Phenylalanine/Valine dehydrogenase"</title>
				<polygon class="PF00208" points="402,40 414,28 421,28 421,52 414,52" stroke-linejoin="round" width="23" height="24" fill="rgb(181,160,45)" stroke="rgb(144,128,36)" stroke-width="1" opacity="0.75" />
			</g>
			<g>
				<title>ELFV_dehydrog_N (PF02812)
"Glu/Leu/Phe/Val dehydrogenase, dimerisation domain"</title>
				<rect class="PF02812" x="423" y="28" stroke-linejoin="round" width="12" height="24" fill="rgb(157,52,200)" stroke="rgb(125,41,160)" stroke-width="1" opacity="0.75" />
			</g>
		</g>
		<g>
			<title> (ctg1_1094)</title>
			<polygon class=" (ctg1_1094)" points="460,10 480,40 460,70" fill="rgb(255,255,255)" fill-opacity="1.0" stroke="rgb(0,0,0)" stroke-width="2"  />
			<g>
				<title>PAS_6 (PF08348)
"YheO-like PAS domain"</title>
				<polygon class="PF08348" points="460,28 468,28 470,30 470,50 468,52 460,52" stroke-linejoin="round" width="10" height="24" fill="rgb(214,82,179)" stroke="rgb(171,65,143)" stroke-width="1" opacity="0.75" />
			</g>
			<g>
				<title>HTH_22 (PF13309)
"HTH domain"</title>
				<polygon class="PF13309" points="473,35 477,40 473,45" stroke-linejoin="round" width="6" height="24" fill="rgb(61,217,91)" stroke="rgb(48,173,72)" stroke-width="1" opacity="0.75" />
			</g>
		</g>
		<g>
			<title> (ctg1_1095)</title>
			<polygon class=" (ctg1_1095)" points="555,25 512,25 512,10 482,40 512,70 512,55 555,55" fill="rgb(255,255,255)" fill-opacity="1.0" stroke="rgb(0,0,0)" stroke-width="2"  />
			<g>
				<title>TonB_dep_Rec (PF00593)
"TonB dependent receptor"</title>
				<polygon class="PF00593" points="486,40 498,28 529,28 529,52 498,52" stroke-linejoin="round" width="47" height="24" fill="rgb(171,200,51)" stroke="rgb(136,160,40)" stroke-width="1" opacity="0.75" />
			</g>
			<g>
				<title>Plug (PF07715)
"TonB-dependent Receptor Plug Domain"</title>
				<rect class="PF07715" x="537" y="28" stroke-linejoin="round" width="10" height="24" fill="rgb(99,133,214)" stroke="rgb(79,106,171)" stroke-width="1" opacity="0.75" />
			</g>
		</g>
		<g>
			<title> (ctg1_1096)</title>
			<polygon class=" (ctg1_1096)" points="562,25 575,25 575,10 605,40 575,70 575,55 562,55" fill="rgb(255,255,255)" fill-opacity="1.0" stroke="rgb(0,0,0)" stroke-width="2"  />
			<g>
				<title>Enterochelin_N (PF11806)
"Enterochelin esterase, N-terminal"</title>
				<rect class="PF11806" x="567" y="28" stroke-linejoin="round" width="13" height="24" fill="rgb(49,154,189)" stroke="rgb(39,123,151)" stroke-width="1" opacity="0.75" />
			</g>
			<g>
				<title>Esterase (PF00756)
"Putative esterase"</title>
				<polygon class="PF00756" points="582,28 589,28 601,40 589,52 582,52" stroke-linejoin="round" width="22" height="24" fill="rgb(217,132,77)" stroke="rgb(173,105,61)" stroke-width="1" opacity="0.75" />
			</g>
		</g>
		<g>
			<title> (ctg1_1097)</title>
			<polygon class=" (ctg1_1097)" points="607,10 614,40 607,70" fill="rgb(255,255,255)" fill-opacity="1.0" stroke="rgb(0,0,0)" stroke-width="2"  />
			<g>
				<title>MbtH (PF03621)
"MbtH-like protein"</title>
				<polygon class="PF03621" points="607,28 607,28 611,40 607,52 607,52" stroke-linejoin="round" width="5" height="24" fill="rgb(212,165,97)" stroke="rgb(169,132,77)" stroke-width="1" opacity="0.75" />
			</g>
		</g>
		<g>
			<title> (ctg1_1098)</title>
			<polygon class=" (ctg1_1098)" points="616,25 869,25 869,10 899,40 869,70 869,55 616,55" fill="rgb(255,255,255)" fill-opacity="1.0" stroke="rgb(0,0,0)" stroke-width="2"  />
			<g>
				<title>Condensation (PF00668)
"Condensation domain"</title>
				<rect class="PF00668" x="617" y="28" stroke-linejoin="round" width="44" height="24" fill="rgb(224,184,98)" stroke="rgb(179,147,78)" stroke-width="1" opacity="0.75" />
			</g>
			<g>
				<title>AMP-binding (PF00501)
"AMP-binding enzyme"</title>
				<rect class="PF00501" x="664" y="28" stroke-linejoin="round" width="41" height="24" fill="rgb(60,217,223)" stroke="rgb(48,173,178)" stroke-width="1" opacity="0.75" />
			</g>
			<g>
				<title>AMP-binding_C (PF13193)
"AMP-binding enzyme C-terminal domain"</title>
				<rect class="PF13193" x="705" y="28" stroke-linejoin="round" width="7" height="24" fill="rgb(182,50,118)" stroke="rgb(145,39,94)" stroke-width="1" opacity="0.75" />
			</g>
			<g>
				<title>PP-binding (PF00550)
"Phosphopantetheine attachment site"</title>
				<rect class="PF00550" x="716" y="28" stroke-linejoin="round" width="6" height="24" fill="rgb(103,191,88)" stroke="rgb(82,152,70)" stroke-width="1" opacity="0.75" />
			</g>
			<g>
				<title>Condensation (PF00668)
"Condensation domain"</title>
				<rect class="PF00668" x="724" y="28" stroke-linejoin="round" width="43" height="24" fill="rgb(224,184,98)" stroke="rgb(179,147,78)" stroke-width="1" opacity="0.75" />
			</g>
			<g>
				<title>Condensation (PF00668)
"Condensation domain"</title>
				<rect class="PF00668" x="771" y="28" stroke-linejoin="round" width="42" height="24" fill="rgb(224,184,98)" stroke="rgb(179,147,78)" stroke-width="1" opacity="0.75" />
			</g>
			<g>
				<title>AMP-binding (PF00501)
"AMP-binding enzyme"</title>
				<rect class="PF00501" x="815" y="28" stroke-linejoin="round" width="40" height="24" fill="rgb(60,217,223)" stroke="rgb(48,173,178)" stroke-width="1" opacity="0.75" />
			</g>
			<g>
				<title>AMP-binding_C (PF13193)
"AMP-binding enzyme C-terminal domain"</title>
				<rect class="PF13193" x="856" y="28" stroke-linejoin="round" width="8" height="24" fill="rgb(182,50,118)" stroke="rgb(145,39,94)" stroke-width="1" opacity="0.75" />
			</g>
			<g>
				<title>PP-binding (PF00550)
"Phosphopantetheine attachment site"</title>
				<rect class="PF00550" x="867" y="28" stroke-linejoin="round" width="6" height="24" fill="rgb(103,191,88)" stroke="rgb(82,152,70)" stroke-width="1" opacity="0.75" />
			</g>
			<g>
				<title>Thioesterase (PF00975)
"Thioesterase domain"</title>
				<polygon class="PF00975" points="876,28 883,28 895,40 883,52 876,52" stroke-linejoin="round" width="22" height="24" fill="rgb(207,80,138)" stroke="rgb(165,63,110)" stroke-width="1" opacity="0.75" />
			</g>
		</g>
		<g>
			<title> (ctg1_1099)</title>
			<polygon class=" (ctg1_1099)" points="902,25 914,25 914,10 944,40 914,70 914,55 902,55" fill="rgb(255,255,255)" fill-opacity="1.0" stroke="rgb(0,0,0)" stroke-width="2"  />
			<g>
				<title>MFS_1 (PF07690)
"Major Facilitator Superfamily"</title>
				<polygon class="PF07690" points="904,28 928,28 937,37 937,43 928,52 904,52" stroke-linejoin="round" width="33" height="24" fill="rgb(193,224,74)" stroke="rgb(154,179,59)" stroke-width="1" opacity="0.75" />
			</g>
		</g>
		<g>
			<title> (ctg1_1100)</title>
			<polygon class=" (ctg1_1100)" points="944,40 956,10 956,70" fill="rgb(255,255,255)" fill-opacity="1.0" stroke="rgb(0,0,0)" stroke-width="2"  />
			<g>
				<title>HxlR (PF01638)
"HxlR-like helix-turn-helix"</title>
				<polygon class="PF01638" points="947,40 952,28 953,28 953,52 952,52" stroke-linejoin="round" width="9" height="24" fill="rgb(91,150,227)" stroke="rgb(72,119,181)" stroke-width="1" opacity="0.75" />
			</g>
		</g>
		<g>
			<title> (ctg1_1101)</title>
			<polygon class=" (ctg1_1101)" points="960,10 978,40 960,70" fill="rgb(255,255,255)" fill-opacity="1.0" stroke="rgb(0,0,0)" stroke-width="2"  />
			<g>
				<title>Flavodoxin_2 (PF02525)
"Flavodoxin-like fold"</title>
				<polygon class="PF02525" points="960,28 967,28 974,40 967,52 960,52" stroke-linejoin="round" width="17" height="24" fill="rgb(159,188,70)" stroke="rgb(127,150,56)" stroke-width="1" opacity="0.75" />
			</g>
		</g>
		<g>
			<title> (ctg1_1102)</title>
			<polygon class=" (ctg1_1102)" points="982,40 987,10 987,70" fill="rgb(255,255,255)" fill-opacity="1.0" stroke="rgb(0,0,0)" stroke-width="2"  />
		</g>
		<g>
			<title> (ctg1_1103)</title>
			<polygon class=" (ctg1_1103)" points="1061,25 1022,25 1022,10 992,40 1022,70 1022,55 1061,55" fill="rgb(255,255,255)" fill-opacity="1.0" stroke="rgb(0,0,0)" stroke-width="2"  />
			<g>
				<title>TonB_dep_Rec (PF00593)
"TonB dependent receptor"</title>
				<polygon class="PF00593" points="996,40 1008,28 1040,28 1040,52 1008,52" stroke-linejoin="round" width="48" height="24" fill="rgb(171,200,51)" stroke="rgb(136,160,40)" stroke-width="1" opacity="0.75" />
			</g>
			<g>
				<title>Plug (PF07715)
"TonB-dependent Receptor Plug Domain"</title>
				<rect class="PF07715" x="1045" y="28" stroke-linejoin="round" width="10" height="24" fill="rgb(99,133,214)" stroke="rgb(79,106,171)" stroke-width="1" opacity="0.75" />
			</g>
		</g>
		<g>
			<title> (ctg1_1104)</title>
			<polygon class=" (ctg1_1104)" points="1069,40 1079,10 1079,70" fill="rgb(255,255,255)" fill-opacity="1.0" stroke="rgb(0,0,0)" stroke-width="2"  />
			<g>
				<title>DUF2946 (PF11162)
"Protein of unknown function (DUF2946)"</title>
				<polygon class="PF11162" points="1072,40 1076,28 1078,28 1078,52 1076,52" stroke-linejoin="round" width="9" height="24" fill="rgb(216,104,195)" stroke="rgb(172,83,156)" stroke-width="1" opacity="0.75" />
			</g>
		</g>
		<g>
			<title> (ctg1_1105)</title>
			<polygon class=" (ctg1_1105)" points="1093,10 1100,40 1093,70" fill="rgb(255,255,255)" fill-opacity="1.0" stroke="rgb(0,0,0)" stroke-width="2"  />
		</g>
		<g>
			<title> (ctg1_1106)</title>
			<polygon class=" (ctg1_1106)" points="1145,25 1132,25 1132,10 1102,40 1132,70 1132,55 1145,55" fill="rgb(255,255,255)" fill-opacity="1.0" stroke="rgb(0,0,0)" stroke-width="2"  />
			<g>
				<title>GSDH (PF07995)
"Glucose / Sorbosone dehydrogenase"</title>
				<polygon class="PF07995" points="1109,37 1118,28 1137,28 1137,52 1118,52 1109,43" stroke-linejoin="round" width="28" height="24" fill="rgb(199,57,124)" stroke="rgb(159,45,99)" stroke-width="1" opacity="0.75" />
			</g>
		</g>
		<g>
			<title> (ctg1_1107)</title>
			<polygon class=" (ctg1_1107)" points="1146,40 1160,10 1160,70" fill="rgb(255,255,255)" fill-opacity="1.0" stroke="rgb(0,0,0)" stroke-width="2"  />
			<g>
				<title>DUF2231 (PF09990)
"Predicted membrane protein (DUF2231)"</title>
				<polygon class="PF09990" points="1149,40 1155,28 1157,28 1157,52 1155,52" stroke-linejoin="round" width="11" height="24" fill="rgb(86,187,169)" stroke="rgb(68,149,135)" stroke-width="1" opacity="0.75" />
			</g>
		</g>
		<g>
			<title> (ctg1_1108)</title>
			<polygon class=" (ctg1_1108)" points="1166,10 1181,40 1166,70" fill="rgb(255,255,255)" fill-opacity="1.0" stroke="rgb(0,0,0)" stroke-width="2"  />
			<g>
				<title>tRNA_edit (PF04073)
"Aminoacyl-tRNA editing domain"</title>
				<polygon class="PF04073" points="1168,28 1171,28 1177,40 1171,52 1168,52" stroke-linejoin="round" width="11" height="24" fill="rgb(87,163,195)" stroke="rgb(69,130,156)" stroke-width="1" opacity="0.75" />
			</g>
		</g>
		<g>
			<title> (ctg1_1109)</title>
			<polygon class=" (ctg1_1109)" points="1184,40 1196,10 1196,70" fill="rgb(255,255,255)" fill-opacity="1.0" stroke="rgb(0,0,0)" stroke-width="2"  />
			<g>
				<title>Glyoxalase (PF00903)
"Glyoxalase/Bleomycin resistance protein/Dioxygenase superfamily"</title>
				<polygon class="PF00903" points="1187,40 1192,28 1195,28 1195,52 1192,52" stroke-linejoin="round" width="11" height="24" fill="rgb(50,162,189)" stroke="rgb(40,129,151)" stroke-width="1" opacity="0.75" />
			</g>
		</g>
		<g>
			<title> (ctg1_1110)</title>
			<polygon class=" (ctg1_1110)" points="1226,40 1238,10 1238,70" fill="rgb(255,255,255)" fill-opacity="1.0" stroke="rgb(0,0,0)" stroke-width="2"  />
			<g>
				<title>DUF4440 (PF14534)
"Domain of unknown function (DUF4440)"</title>
				<polygon class="PF14534" points="1229,40 1234,28 1237,28 1237,52 1234,52" stroke-linejoin="round" width="10" height="24" fill="rgb(63,159,224)" stroke="rgb(50,127,179)" stroke-width="1" opacity="0.75" />
			</g>
		</g>
		<g>
			<title> (ctg1_1111)</title>
			<polygon class=" (ctg1_1111)" points="1277,25 1274,25 1274,10 1244,40 1274,70 1274,55 1277,55" fill="rgb(255,255,255)" fill-opacity="1.0" stroke="rgb(0,0,0)" stroke-width="2"  />
			<g>
				<title>Peripla_BP_1 (PF00532)
"Periplasmic binding proteins and sugar binding domain of LacI family"</title>
				<polygon class="PF00532" points="1248,40 1260,28 1270,28 1270,52 1260,52 1248,40" stroke-linejoin="round" width="22" height="24" fill="rgb(170,185,72)" stroke="rgb(136,148,57)" stroke-width="1" opacity="0.75" />
			</g>
			<g>
				<title>LacI (PF00356)
"Bacterial regulatory proteins, lacI family"</title>
				<rect class="PF00356" x="1272" y="28" stroke-linejoin="round" width="4" height="24" fill="rgb(66,188,63)" stroke="rgb(52,150,50)" stroke-width="1" opacity="0.75" />
			</g>
		</g>
		<g>
			<title> (ctg1_1112)</title>
			<polygon class=" (ctg1_1112)" points="1288,25 1288,25 1288,10 1318,40 1288,70 1288,55 1288,55" fill="rgb(255,255,255)" fill-opacity="1.0" stroke="rgb(0,0,0)" stroke-width="2"  />
			<g>
				<title>Peripla_BP_4 (PF13407)
"Periplasmic binding protein domain"</title>
				<polygon class="PF13407" points="1290,28 1302,28 1314,40 1302,52 1290,52" stroke-linejoin="round" width="25" height="24" fill="rgb(124,182,50)" stroke="rgb(99,145,39)" stroke-width="1" opacity="0.75" />
			</g>
		</g>
		<g>
			<title> (ctg1_1113)</title>
			<polygon class=" (ctg1_1113)" points="1321,25 1330,25 1330,10 1360,40 1330,70 1330,55 1321,55" fill="rgb(255,255,255)" fill-opacity="1.0" stroke="rgb(0,0,0)" stroke-width="2"  />
			<g>
				<title>GFO_IDH_MocA (PF01408)
"Oxidoreductase family, NAD-binding Rossmann fold"</title>
				<rect class="PF01408" x="1322" y="28" stroke-linejoin="round" width="13" height="24" fill="rgb(76,117,190)" stroke="rgb(60,93,152)" stroke-width="1" opacity="0.75" />
			</g>
			<g>
				<title>GFO_IDH_MocA_C (PF02894)
"Oxidoreductase family, C-terminal alpha/beta domain"</title>
				<polygon class="PF02894" points="1336,28 1343,28 1355,40 1343,52 1336,52" stroke-linejoin="round" width="23" height="24" fill="rgb(195,223,82)" stroke="rgb(155,178,65)" stroke-width="1" opacity="0.75" />
			</g>
		</g>
		<g>
			<title> (ctg1_1114)</title>
			<polygon class=" (ctg1_1114)" points="1361,25 1362,25 1362,10 1392,40 1362,70 1362,55 1361,55" fill="rgb(255,255,255)" fill-opacity="1.0" stroke="rgb(0,0,0)" stroke-width="2"  />
			<g>
				<title>AP_endonuc_2 (PF01261)
"Xylose isomerase-like TIM barrel"</title>
				<polygon class="PF01261" points="1362,28 1376,28 1388,40 1376,52 1362,52" stroke-linejoin="round" width="29" height="24" fill="rgb(69,222,207)" stroke="rgb(55,177,165)" stroke-width="1" opacity="0.75" />
			</g>
		</g>
		<g>
			<title> (ctg1_1115)</title>
			<polygon class=" (ctg1_1115)" points="1424,25 1423,25 1423,10 1393,40 1423,70 1423,55 1424,55" fill="rgb(255,255,255)" fill-opacity="1.0" stroke="rgb(0,0,0)" stroke-width="2"  />
			<g>
				<title>HTH_18 (PF12833)
"Helix-turn-helix domain"</title>
				<polygon class="PF12833" points="1397,40 1401,36 1401,44" stroke-linejoin="round" width="7" height="24" fill="rgb(216,58,224)" stroke="rgb(172,46,179)" stroke-width="1" opacity="0.75" />
			</g>
			<g>
				<title>Cupin_6 (PF12852)
"Cupin"</title>
				<polygon class="PF12852" points="1405,32 1409,28 1423,28 1423,52 1409,52 1405,48" stroke-linejoin="round" width="18" height="24" fill="rgb(152,181,77)" stroke="rgb(121,144,61)" stroke-width="1" opacity="0.75" />
			</g>
		</g>
		<g>
			<title> (ctg1_1116)</title>
			<polygon class=" (ctg1_1116)" points="1430,25 1434,25 1434,10 1464,40 1434,70 1434,55 1430,55" fill="rgb(255,255,255)" fill-opacity="1.0" stroke="rgb(0,0,0)" stroke-width="2"  />
			<g>
				<title>Lactamase_B_2 (PF12706)
"Beta-lactamase superfamily domain"</title>
				<polygon class="PF12706" points="1439,28 1447,28 1458,39 1458,41 1447,52 1439,52" stroke-linejoin="round" width="19" height="24" fill="rgb(62,169,197)" stroke="rgb(49,135,157)" stroke-width="1" opacity="0.75" />
			</g>
		</g>
		<g>
			<title> (ctg1_1117)</title>
			<polygon class=" (ctg1_1117)" points="1465,10 1493,40 1465,70" fill="rgb(255,255,255)" fill-opacity="1.0" stroke="rgb(0,0,0)" stroke-width="2"  />
			<g>
				<title>adh_short (PF00106)
"short chain dehydrogenase"</title>
				<polygon class="PF00106" points="1465,28 1477,28 1484,35 1484,45 1477,52 1465,52" stroke-linejoin="round" width="19" height="24" fill="rgb(182,219,73)" stroke="rgb(145,175,58)" stroke-width="1" opacity="0.75" />
			</g>
		</g>
		<g>
			<title> (ctg1_1118)</title>
			<polygon class=" (ctg1_1118)" points="1495,10 1523,40 1495,70" fill="rgb(255,255,255)" fill-opacity="1.0" stroke="rgb(0,0,0)" stroke-width="2"  />
			<g>
				<title>adh_short (PF00106)
"short chain dehydrogenase"</title>
				<polygon class="PF00106" points="1495,28 1507,28 1514,35 1514,45 1507,52 1495,52" stroke-linejoin="round" width="19" height="24" fill="rgb(182,219,73)" stroke="rgb(145,175,58)" stroke-width="1" opacity="0.75" />
			</g>
		</g>
		<g>
			<title> (ctg1_1119)</title>
			<polygon class=" (ctg1_1119)" points="1529,10 1544,40 1529,70" fill="rgb(255,255,255)" fill-opacity="1.0" stroke="rgb(0,0,0)" stroke-width="2"  />
			<g>
				<title>MarR_2 (PF12802)
"MarR family"</title>
				<polygon class="PF12802" points="1532,28 1534,28 1537,33 1537,47 1534,52 1532,52" stroke-linejoin="round" width="5" height="24" fill="rgb(46,89,185)" stroke="rgb(36,71,148)" stroke-width="1" opacity="0.75" />
			</g>
		</g>
	</g>
</svg>
