<svg version="1.1" baseProfile="full" xmlns="http://www.w3.org/2000/svg" width="895.5" height="80">
	<g>
		<line x1="10" y1="40.0" x2="885.5" y2="40.0" style="stroke:rgb(70,70,70); stroke-width:3 "/>
		<g>
			<title> (ctg3_449)</title>
			<polygon class=" (ctg3_449)" points="55,25 68,25 68,10 98,40 68,70 68,55 55,55" fill="rgb(255,255,255)" fill-opacity="1.0" stroke="rgb(0,0,0)" stroke-width="2"  />
			<g>
				<title>Seryl_tRNA_N (PF02403)
"Seryl-tRNA synthetase N-terminal domain"</title>
				<rect class="PF02403" x="55" y="28" stroke-linejoin="round" width="10" height="24" fill="rgb(220,109,118)" stroke="rgb(176,87,94)" stroke-width="1" opacity="0.75" />
			</g>
			<g>
				<title>tRNA-synt_2b (PF00587)
"tRNA synthetase class II core domain (G, H, P, S and T)"</title>
				<polygon class="PF00587" points="77,28 81,28 93,40 81,52 77,52" stroke-linejoin="round" width="18" height="24" fill="rgb(228,96,220)" stroke="rgb(182,76,176)" stroke-width="1" opacity="0.75" />
			</g>
		</g>
		<g>
			<title> (ctg3_450)</title>
			<polygon class=" (ctg3_450)" points="105,25 156,25 156,10 186,40 156,70 156,55 105,55" fill="rgb(255,255,255)" fill-opacity="1.0" stroke="rgb(0,0,0)" stroke-width="2"  />
			<g>
				<title>Molybdop_Fe4S4 (PF04879)
"Molybdopterin oxidoreductase Fe4S4 domain"</title>
				<rect class="PF04879" x="110" y="28" stroke-linejoin="round" width="6" height="24" fill="rgb(186,68,186)" stroke="rgb(148,54,148)" stroke-width="1" opacity="0.75" />
			</g>
			<g>
				<title>Molybdopterin (PF00384)
"Molybdopterin oxidoreductase"</title>
				<rect class="PF00384" x="116" y="28" stroke-linejoin="round" width="45" height="24" fill="rgb(65,194,78)" stroke="rgb(52,155,62)" stroke-width="1" opacity="0.75" />
			</g>
			<g>
				<title>Molydop_binding (PF01568)
"Molydopterin dinucleotide binding domain"</title>
				<polygon class="PF01568" points="174,32 182,40 174,48" stroke-linejoin="round" width="11" height="24" fill="rgb(184,132,64)" stroke="rgb(147,105,51)" stroke-width="1" opacity="0.75" />
			</g>
		</g>
		<g>
			<title> (ctg3_451)</title>
			<polygon class=" (ctg3_451)" points="186,10 206,40 186,70" fill="rgb(255,255,255)" fill-opacity="1.0" stroke="rgb(0,0,0)" stroke-width="2"  />
			<g>
				<title>Fer4_11 (PF13247)
"4Fe-4S dicluster domain"</title>
				<polygon class="PF13247" points="191,28 194,28 200,36 200,44 194,52 191,52" stroke-linejoin="round" width="9" height="24" fill="rgb(61,193,49)" stroke="rgb(48,154,39)" stroke-width="1" opacity="0.75" />
			</g>
		</g>
		<g>
			<title> (ctg3_452)</title>
			<polygon class=" (ctg3_452)" points="207,10 235,40 207,70" fill="rgb(255,255,255)" fill-opacity="1.0" stroke="rgb(0,0,0)" stroke-width="2"  />
			<g>
				<title>DmsC (PF04976)
"DMSO reductase anchor subunit (DmsC)"</title>
				<polygon class="PF04976" points="207,28 219,28 231,40 219,52 207,52" stroke-linejoin="round" width="27" height="24" fill="rgb(206,147,88)" stroke="rgb(164,117,70)" stroke-width="1" opacity="0.75" />
			</g>
		</g>
		<g>
			<title> (ctg3_453)</title>
			<polygon class=" (ctg3_453)" points="245,25 253,25 253,10 283,40 253,70 253,55 245,55" fill="rgb(255,255,255)" fill-opacity="1.0" stroke="rgb(0,0,0)" stroke-width="2"  />
			<g>
				<title>MFS_1 (PF07690)
"Major Facilitator Superfamily"</title>
				<rect class="PF07690" x="246" y="28" stroke-linejoin="round" width="19" height="24" fill="rgb(193,224,74)" stroke="rgb(154,179,59)" stroke-width="1" opacity="0.75" />
			</g>
			<g>
				<title>MFS_1 (PF07690)
"Major Facilitator Superfamily"</title>
				<polygon class="PF07690" points="265,28 267,28 279,40 267,52 265,52" stroke-linejoin="round" width="17" height="24" fill="rgb(193,224,74)" stroke="rgb(154,179,59)" stroke-width="1" opacity="0.75" />
			</g>
		</g>
		<g>
			<title> (ctg3_454)</title>
			<polygon class=" (ctg3_454)" points="285,40 312,10 312,70" fill="rgb(255,255,255)" fill-opacity="1.0" stroke="rgb(0,0,0)" stroke-width="2"  />
		</g>
		<g>
			<title> (ctg3_455)</title>
			<polygon class=" (ctg3_455)" points="314,40 340,10 340,70" fill="rgb(255,255,255)" fill-opacity="1.0" stroke="rgb(0,0,0)" stroke-width="2"  />
		</g>
		<g>
			<title> (ctg3_456)</title>
			<polygon class=" (ctg3_456)" points="343,40 367,10 367,70" fill="rgb(255,255,255)" fill-opacity="1.0" stroke="rgb(0,0,0)" stroke-width="2"  />
			<g>
				<title>Radical_SAM (PF04055)
"Radical SAM superfamily"</title>
				<polygon class="PF04055" points="349,38 357,28 365,28 365,52 357,52 349,42" stroke-linejoin="round" width="16" height="24" fill="rgb(149,56,222)" stroke="rgb(119,44,177)" stroke-width="1" opacity="0.75" />
			</g>
		</g>
		<g>
			<title> (ctg3_457)</title>
			<polygon class=" (ctg3_457)" points="450,25 404,25 404,10 374,40 404,70 404,55 450,55" fill="rgb(255,255,255)" fill-opacity="1.0" stroke="rgb(0,0,0)" stroke-width="2"  />
			<g>
				<title>Gly_radical (PF01228)
"Glycine radical"</title>
				<polygon class="PF01228" points="378,40 387,31 387,49" stroke-linejoin="round" width="11" height="24" fill="rgb(103,207,173)" stroke="rgb(82,165,138)" stroke-width="1" opacity="0.75" />
			</g>
			<g>
				<title>PFL-like (PF02901)
"Pyruvate formate lyase-like"</title>
				<polygon class="PF02901" points="388,30 390,28 448,28 448,52 390,52 388,50" stroke-linejoin="round" width="60" height="24" fill="rgb(90,117,182)" stroke="rgb(72,93,145)" stroke-width="1" opacity="0.75" />
			</g>
		</g>
		<g>
			<title> (ctg3_458)</title>
			<polygon class=" (ctg3_458)" points="452,40 480,10 480,70" fill="rgb(255,255,255)" fill-opacity="1.0" stroke="rgb(0,0,0)" stroke-width="2"  />
			<g>
				<title>Form_Nir_trans (PF01226)
"Formate/nitrite transporter"</title>
				<polygon class="PF01226" points="456,40 467,28 479,28 479,52 467,52" stroke-linejoin="round" width="26" height="24" fill="rgb(206,55,143)" stroke="rgb(164,44,114)" stroke-width="1" opacity="0.75" />
			</g>
		</g>
		<g>
			<title> (ctg3_459)</title>
			<polygon class=" (ctg3_459)" points="551,25 523,25 523,10 493,40 523,70 523,55 551,55" fill="rgb(255,255,255)" fill-opacity="1.0" stroke="rgb(0,0,0)" stroke-width="2"  />
			<g>
				<title>YcaO_C (PF18381)
"YcaO cyclodehydratase C-terminal domain"</title>
				<polygon class="PF18381" points="497,40 509,28 510,28 510,52 509,52" stroke-linejoin="round" width="17" height="24" fill="rgb(125,91,193)" stroke="rgb(99,72,154)" stroke-width="1" opacity="0.75" />
			</g>
			<g>
				<title>YcaO (PF02624)
"YcaO cyclodehydratase, ATP-ad Mg2+-binding"</title>
				<rect class="PF02624" x="512" y="28" stroke-linejoin="round" width="33" height="24" fill="rgb(76,84,185)" stroke="rgb(60,67,148)" stroke-width="1" opacity="0.75" />
			</g>
		</g>
		<g>
			<title> (ctg3_460)</title>
			<polygon class=" (ctg3_460)" points="556,40 563,10 563,70" fill="rgb(255,255,255)" fill-opacity="1.0" stroke="rgb(0,0,0)" stroke-width="2"  />
		</g>
		<g>
			<title> (ctg3_461)</title>
			<polygon class=" (ctg3_461)" points="579,25 585,25 585,10 615,40 585,70 585,55 579,55" fill="rgb(255,255,255)" fill-opacity="1.0" stroke="rgb(0,0,0)" stroke-width="2"  />
			<g>
				<title>Aminotran_5 (PF00266)
"Aminotransferase class-V"</title>
				<polygon class="PF00266" points="579,28 599,28 611,40 599,52 579,52" stroke-linejoin="round" width="34" height="24" fill="rgb(214,54,122)" stroke="rgb(171,43,97)" stroke-width="1" opacity="0.75" />
			</g>
		</g>
		<g>
			<title> (ctg3_462)</title>
			<polygon class=" (ctg3_462)" points="617,25 629,25 629,10 659,40 629,70 629,55 617,55" fill="rgb(255,255,255)" fill-opacity="1.0" stroke="rgb(0,0,0)" stroke-width="2"  />
			<g>
				<title>EPSP_synthase (PF00275)
"EPSP synthase (3-phosphoshikimate 1-carboxyvinyltransferase)"</title>
				<polygon class="PF00275" points="617,28 643,28 655,40 643,52 617,52" stroke-linejoin="round" width="41" height="24" fill="rgb(217,213,85)" stroke="rgb(173,170,68)" stroke-width="1" opacity="0.75" />
			</g>
		</g>
		<g>
			<title> (ctg3_463)</title>
			<polygon class=" (ctg3_463)" points="667,10 689,40 667,70" fill="rgb(255,255,255)" fill-opacity="1.0" stroke="rgb(0,0,0)" stroke-width="2"  />
			<g>
				<title>Cytidylate_kin (PF02224)
"Cytidylate kinase"</title>
				<polygon class="PF02224" points="667,28 677,28 686,40 677,52 667,52" stroke-linejoin="round" width="21" height="24" fill="rgb(85,78,199)" stroke="rgb(68,62,159)" stroke-width="1" opacity="0.75" />
			</g>
		</g>
		<g>
			<title> (ctg3_464)</title>
			<polygon class=" (ctg3_464)" points="694,25 719,25 719,10 749,40 719,70 719,55 694,55" fill="rgb(255,255,255)" fill-opacity="1.0" stroke="rgb(0,0,0)" stroke-width="2"  />
			<g>
				<title>S1 (PF00575)
"S1 RNA binding domain"</title>
				<rect class="PF00575" x="695" y="28" stroke-linejoin="round" width="7" height="24" fill="rgb(102,56,190)" stroke="rgb(81,44,152)" stroke-width="1" opacity="0.75" />
			</g>
			<g>
				<title>S1 (PF00575)
"S1 RNA binding domain"</title>
				<rect class="PF00575" x="704" y="28" stroke-linejoin="round" width="6" height="24" fill="rgb(102,56,190)" stroke="rgb(81,44,152)" stroke-width="1" opacity="0.75" />
			</g>
			<g>
				<title>S1 (PF00575)
"S1 RNA binding domain"</title>
				<rect class="PF00575" x="712" y="28" stroke-linejoin="round" width="7" height="24" fill="rgb(102,56,190)" stroke="rgb(81,44,152)" stroke-width="1" opacity="0.75" />
			</g>
			<g>
				<title>S1 (PF00575)
"S1 RNA binding domain"</title>
				<rect class="PF00575" x="721" y="28" stroke-linejoin="round" width="7" height="24" fill="rgb(102,56,190)" stroke="rgb(81,44,152)" stroke-width="1" opacity="0.75" />
			</g>
			<g>
				<title>S1 (PF00575)
"S1 RNA binding domain"</title>
				<polygon class="PF00575" points="730,28 733,28 737,32 737,48 733,52 730,52" stroke-linejoin="round" width="7" height="24" fill="rgb(102,56,190)" stroke="rgb(81,44,152)" stroke-width="1" opacity="0.75" />
			</g>
			<g>
				<title>S1 (PF00575)
"S1 RNA binding domain"</title>
				<polygon class="PF00575" points="738,33 745,40 745,40 738,47" stroke-linejoin="round" width="7" height="24" fill="rgb(102,56,190)" stroke="rgb(81,44,152)" stroke-width="1" opacity="0.75" />
			</g>
		</g>
		<g>
			<title> (ctg3_465)</title>
			<polygon class=" (ctg3_465)" points="755,10 764,40 755,70" fill="rgb(255,255,255)" fill-opacity="1.0" stroke="rgb(0,0,0)" stroke-width="2"  />
			<g>
				<title>Bac_DNA_binding (PF00216)
"Bacterial DNA-binding protein"</title>
				<polygon class="PF00216" points="755,28 757,28 761,40 757,52 755,52" stroke-linejoin="round" width="9" height="24" fill="rgb(73,205,204)" stroke="rgb(58,164,163)" stroke-width="1" opacity="0.75" />
			</g>
		</g>
		<g>
			<title> (ctg3_466)</title>
			<polygon class=" (ctg3_466)" points="766,10 772,40 766,70" fill="rgb(255,255,255)" fill-opacity="1.0" stroke="rgb(0,0,0)" stroke-width="2"  />
		</g>
		<g>
			<title> (ctg3_467)</title>
			<polygon class=" (ctg3_467)" points="771,25 816,25 816,10 846,40 816,70 816,55 771,55" fill="rgb(255,255,255)" fill-opacity="1.0" stroke="rgb(0,0,0)" stroke-width="2"  />
			<g>
				<title>Competence (PF03772)
"Competence protein"</title>
				<rect class="PF03772" x="791" y="28" stroke-linejoin="round" width="30" height="24" fill="rgb(168,54,200)" stroke="rgb(134,43,160)" stroke-width="1" opacity="0.75" />
			</g>
			<g>
				<title>Lactamase_B (PF00753)
"Metallo-beta-lactamase superfamily"</title>
				<polygon class="PF00753" points="821,28 830,28 839,37 839,43 830,52 821,52" stroke-linejoin="round" width="18" height="24" fill="rgb(206,198,96)" stroke="rgb(164,158,76)" stroke-width="1" opacity="0.75" />
			</g>
		</g>
	</g>
</svg>
