<svg version="1.1" baseProfile="full" xmlns="http://www.w3.org/2000/svg" width="1466.8666666666666" height="80">
	<g>
		<line x1="10" y1="40.0" x2="1456.8666666666666" y2="40.0" style="stroke:rgb(70,70,70); stroke-width:3 "/>
		<g>
			<title> (ctg2_98)</title>
			<polygon class=" (ctg2_98)" points="11,10 32,40 11,70" fill="rgb(255,255,255)" fill-opacity="1.0" stroke="rgb(0,0,0)" stroke-width="2"  />
			<g>
				<title>BPD_transp_1 (PF00528)
"Binding-protein-dependent transport system inner membrane component"</title>
				<polygon class="PF00528" points="15,28 20,28 28,40 20,52 15,52" stroke-linejoin="round" width="17" height="24" fill="rgb(77,208,225)" stroke="rgb(61,166,180)" stroke-width="1" opacity="0.75" />
			</g>
		</g>
		<g>
			<title> (ctg2_99)</title>
			<polygon class=" (ctg2_99)" points="34,10 59,40 34,70" fill="rgb(255,255,255)" fill-opacity="1.0" stroke="rgb(0,0,0)" stroke-width="2"  />
			<g>
				<title>Esterase (PF00756)
"Putative esterase"</title>
				<polygon class="PF00756" points="35,28 45,28 55,40 45,52 35,52" stroke-linejoin="round" width="23" height="24" fill="rgb(217,132,77)" stroke="rgb(173,105,61)" stroke-width="1" opacity="0.75" />
			</g>
		</g>
		<g>
			<title> (ctg2_100)</title>
			<polygon class=" (ctg2_100)" points="120,25 99,25 99,10 69,40 99,70 99,55 120,55" fill="rgb(255,255,255)" fill-opacity="1.0" stroke="rgb(0,0,0)" stroke-width="2"  />
			<g>
				<title>DcuC (PF03606)
"C4-dicarboxylate anaerobic carrier"</title>
				<polygon class="PF03606" points="73,40 85,28 118,28 118,52 85,52" stroke-linejoin="round" width="49" height="24" fill="rgb(204,117,55)" stroke="rgb(163,93,44)" stroke-width="1" opacity="0.75" />
			</g>
		</g>
		<g>
			<title> (ctg2_101)</title>
			<polygon class=" (ctg2_101)" points="157,25 156,25 156,10 126,40 156,70 156,55 157,55" fill="rgb(255,255,255)" fill-opacity="1.0" stroke="rgb(0,0,0)" stroke-width="2"  />
			<g>
				<title>AA_kinase (PF00696)
"Amino acid kinase family"</title>
				<polygon class="PF00696" points="130,40 142,28 156,28 156,52 142,52" stroke-linejoin="round" width="29" height="24" fill="rgb(148,78,224)" stroke="rgb(118,62,179)" stroke-width="1" opacity="0.75" />
			</g>
		</g>
		<g>
			<title> (ctg2_102)</title>
			<polygon class=" (ctg2_102)" points="191,25 188,25 188,10 158,40 188,70 188,55 191,55" fill="rgb(255,255,255)" fill-opacity="1.0" stroke="rgb(0,0,0)" stroke-width="2"  />
			<g>
				<title>OTCace (PF00185)
"Aspartate/ornithine carbamoyltransferase, Asp/Orn binding domain"</title>
				<polygon class="PF00185" points="162,40 174,28 175,28 175,52 174,52" stroke-linejoin="round" width="17" height="24" fill="rgb(215,107,106)" stroke="rgb(172,85,84)" stroke-width="1" opacity="0.75" />
			</g>
			<g>
				<title>OTCace_N (PF02729)
"Aspartate/ornithine carbamoyltransferase, carbamoyl-P binding domain"</title>
				<rect class="PF02729" x="176" y="28" stroke-linejoin="round" width="14" height="24" fill="rgb(223,74,58)" stroke="rgb(178,59,46)" stroke-width="1" opacity="0.75" />
			</g>
		</g>
		<g>
			<title> (ctg2_103)</title>
			<polygon class=" (ctg2_103)" points="208,10 215,40 208,70" fill="rgb(255,255,255)" fill-opacity="1.0" stroke="rgb(0,0,0)" stroke-width="2"  />
		</g>
		<g>
			<title> (ctg2_104)</title>
			<polygon class=" (ctg2_104)" points="219,10 233,40 219,70" fill="rgb(255,255,255)" fill-opacity="1.0" stroke="rgb(0,0,0)" stroke-width="2"  />
			<g>
				<title>Glyoxalase (PF00903)
"Glyoxalase/Bleomycin resistance protein/Dioxygenase superfamily"</title>
				<polygon class="PF00903" points="219,28 224,28 229,40 224,52 219,52" stroke-linejoin="round" width="11" height="24" fill="rgb(50,162,189)" stroke="rgb(40,129,151)" stroke-width="1" opacity="0.75" />
			</g>
		</g>
		<g>
			<title> (ctg2_105)</title>
			<polygon class=" (ctg2_105)" points="237,10 266,40 237,70" fill="rgb(255,255,255)" fill-opacity="1.0" stroke="rgb(0,0,0)" stroke-width="2"  />
			<g>
				<title>Acid_phosphat_B (PF03767)
"HAD superfamily, subfamily IIIB (Acid phosphatase)"</title>
				<polygon class="PF03767" points="238,28 250,28 262,40 262,40 250,52 238,52" stroke-linejoin="round" width="24" height="24" fill="rgb(128,96,194)" stroke="rgb(102,76,155)" stroke-width="1" opacity="0.75" />
			</g>
		</g>
		<g>
			<title> (ctg2_106)</title>
			<polygon class=" (ctg2_106)" points="276,25 278,25 278,10 308,40 278,70 278,55 276,55" fill="rgb(255,255,255)" fill-opacity="1.0" stroke="rgb(0,0,0)" stroke-width="2"  />
			<g>
				<title>Radical_SAM (PF04055)
"Radical SAM superfamily"</title>
				<polygon class="PF04055" points="281,28 291,28 297,34 297,46 291,52 281,52" stroke-linejoin="round" width="16" height="24" fill="rgb(149,56,222)" stroke="rgb(119,44,177)" stroke-width="1" opacity="0.75" />
			</g>
			<g>
				<title>BATS (PF06968)
"Biotin and Thiamin Synthesis associated domain"</title>
				<polygon class="PF06968" points="298,35 303,40 298,45" stroke-linejoin="round" width="8" height="24" fill="rgb(91,179,207)" stroke="rgb(72,143,165)" stroke-width="1" opacity="0.75" />
			</g>
		</g>
		<g>
			<title> (ctg2_107)</title>
			<polygon class=" (ctg2_107)" points="318,25 324,25 324,10 354,40 324,70 324,55 318,55" fill="rgb(255,255,255)" fill-opacity="1.0" stroke="rgb(0,0,0)" stroke-width="2"  />
			<g>
				<title>Fe-ADH (PF00465)
"Iron-containing alcohol dehydrogenase"</title>
				<polygon class="PF00465" points="318,28 338,28 350,40 338,52 318,52" stroke-linejoin="round" width="34" height="24" fill="rgb(73,179,216)" stroke="rgb(58,143,172)" stroke-width="1" opacity="0.75" />
			</g>
		</g>
		<g>
			<title> (ctg2_108)</title>
			<polygon class=" (ctg2_108)" points="356,25 358,25 358,10 388,40 358,70 358,55 356,55" fill="rgb(255,255,255)" fill-opacity="1.0" stroke="rgb(0,0,0)" stroke-width="2"  />
			<g>
				<title>Dak1 (PF02733)
"Dak1 domain"</title>
				<polygon class="PF02733" points="357,28 371,28 383,40 371,52 357,52" stroke-linejoin="round" width="30" height="24" fill="rgb(110,103,210)" stroke="rgb(88,82,168)" stroke-width="1" opacity="0.75" />
			</g>
		</g>
		<g>
			<title> (ctg2_109)</title>
			<polygon class=" (ctg2_109)" points="389,10 408,40 389,70" fill="rgb(255,255,255)" fill-opacity="1.0" stroke="rgb(0,0,0)" stroke-width="2"  />
			<g>
				<title>Dak2 (PF02734)
"DAK2 domain"</title>
				<polygon class="PF02734" points="392,28 397,28 404,40 397,52 392,52" stroke-linejoin="round" width="15" height="24" fill="rgb(107,200,62)" stroke="rgb(85,160,49)" stroke-width="1" opacity="0.75" />
			</g>
		</g>
		<g>
			<title> (ctg2_110)</title>
			<polygon class=" (ctg2_110)" points="409,10 421,40 409,70" fill="rgb(255,255,255)" fill-opacity="1.0" stroke="rgb(0,0,0)" stroke-width="2"  />
			<g>
				<title>EIIA-man (PF03610)
"PTS system fructose IIA component"</title>
				<polygon class="PF03610" points="409,28 413,28 418,40 413,52 409,52" stroke-linejoin="round" width="11" height="24" fill="rgb(179,218,74)" stroke="rgb(143,174,59)" stroke-width="1" opacity="0.75" />
			</g>
		</g>
		<g>
			<title> (ctg2_111)</title>
			<polygon class=" (ctg2_111)" points="431,40 450,10 450,70" fill="rgb(255,255,255)" fill-opacity="1.0" stroke="rgb(0,0,0)" stroke-width="2"  />
		</g>
		<g>
			<title> (ctg2_112)</title>
			<polygon class=" (ctg2_112)" points="500,25 490,25 490,10 460,40 490,70 490,55 500,55" fill="rgb(255,255,255)" fill-opacity="1.0" stroke="rgb(0,0,0)" stroke-width="2"  />
			<g>
				<title>MFS_1 (PF07690)
"Major Facilitator Superfamily"</title>
				<polygon class="PF07690" points="471,33 476,28 498,28 498,52 476,52 471,47" stroke-linejoin="round" width="27" height="24" fill="rgb(193,224,74)" stroke="rgb(154,179,59)" stroke-width="1" opacity="0.75" />
			</g>
		</g>
		<g>
			<title> (ctg2_113)</title>
			<polygon class=" (ctg2_113)" points="504,10 533,40 504,70" fill="rgb(255,255,255)" fill-opacity="1.0" stroke="rgb(0,0,0)" stroke-width="2"  />
			<g>
				<title>HTH_1 (PF00126)
"Bacterial regulatory helix-turn-helix protein, lysR family"</title>
				<rect class="PF00126" x="504" y="28" stroke-linejoin="round" width="5" height="24" fill="rgb(125,227,79)" stroke="rgb(99,181,63)" stroke-width="1" opacity="0.75" />
			</g>
			<g>
				<title>LysR_substrate (PF03466)
"LysR substrate binding domain"</title>
				<polygon class="PF03466" points="512,28 517,28 529,40 517,52 512,52" stroke-linejoin="round" width="21" height="24" fill="rgb(55,136,195)" stroke="rgb(44,108,156)" stroke-width="1" opacity="0.75" />
			</g>
		</g>
		<g>
			<title> (ctg2_114)</title>
			<polygon class=" (ctg2_114)" points="537,10 545,40 537,70" fill="rgb(255,255,255)" fill-opacity="1.0" stroke="rgb(0,0,0)" stroke-width="2"  />
		</g>
		<g>
			<title> (ctg2_115)</title>
			<polygon class=" (ctg2_115)" points="564,25 581,25 581,10 611,40 581,70 581,55 564,55" fill="rgb(255,255,255)" fill-opacity="1.0" stroke="rgb(0,0,0)" stroke-width="2"  />
			<g>
				<title>MFS_1 (PF07690)
"Major Facilitator Superfamily"</title>
				<polygon class="PF07690" points="565,28 595,28 604,37 604,43 595,52 565,52" stroke-linejoin="round" width="39" height="24" fill="rgb(193,224,74)" stroke="rgb(154,179,59)" stroke-width="1" opacity="0.75" />
			</g>
		</g>
		<g>
			<title> (ctg2_116)</title>
			<polygon class=" (ctg2_116)" points="628,25 639,25 639,10 669,40 639,70 639,55 628,55" fill="rgb(255,255,255)" fill-opacity="1.0" stroke="rgb(0,0,0)" stroke-width="2"  />
			<g>
				<title>MFS_1 (PF07690)
"Major Facilitator Superfamily"</title>
				<polygon class="PF07690" points="629,28 653,28 665,40 665,40 653,52 629,52" stroke-linejoin="round" width="36" height="24" fill="rgb(193,224,74)" stroke="rgb(154,179,59)" stroke-width="1" opacity="0.75" />
			</g>
		</g>
		<g>
			<title> (ctg2_117)</title>
			<polygon class=" (ctg2_117)" points="676,25 884,25 884,10 914,40 884,70 884,55 676,55" fill="rgb(255,255,255)" fill-opacity="1.0" stroke="rgb(0,0,0)" stroke-width="2"  />
			<g>
				<title>AMP-binding (PF00501)
"AMP-binding enzyme"</title>
				<rect class="PF00501" x="718" y="28" stroke-linejoin="round" width="38" height="24" fill="rgb(60,217,223)" stroke="rgb(48,173,178)" stroke-width="1" opacity="0.75" />
			</g>
			<g>
				<title>PP-binding (PF00550)
"Phosphopantetheine attachment site"</title>
				<rect class="PF00550" x="768" y="28" stroke-linejoin="round" width="6" height="24" fill="rgb(103,191,88)" stroke="rgb(82,152,70)" stroke-width="1" opacity="0.75" />
			</g>
			<g>
				<title>Condensation (PF00668)
"Condensation domain"</title>
				<rect class="PF00668" x="776" y="28" stroke-linejoin="round" width="42" height="24" fill="rgb(224,184,98)" stroke="rgb(179,147,78)" stroke-width="1" opacity="0.75" />
			</g>
			<g>
				<title>AMP-binding (PF00501)
"AMP-binding enzyme"</title>
				<rect class="PF00501" x="821" y="28" stroke-linejoin="round" width="38" height="24" fill="rgb(60,217,223)" stroke="rgb(48,173,178)" stroke-width="1" opacity="0.75" />
			</g>
			<g>
				<title>AMP-binding_C (PF13193)
"AMP-binding enzyme C-terminal domain"</title>
				<rect class="PF13193" x="860" y="28" stroke-linejoin="round" width="7" height="24" fill="rgb(182,50,118)" stroke="rgb(145,39,94)" stroke-width="1" opacity="0.75" />
			</g>
			<g>
				<title>PP-binding (PF00550)
"Phosphopantetheine attachment site"</title>
				<rect class="PF00550" x="869" y="28" stroke-linejoin="round" width="6" height="24" fill="rgb(103,191,88)" stroke="rgb(82,152,70)" stroke-width="1" opacity="0.75" />
			</g>
			<g>
				<title>NAD_binding_4 (PF07993)
"Male sterility protein"</title>
				<polygon class="PF07993" points="880,28 898,28 903,33 903,47 898,52 880,52" stroke-linejoin="round" width="23" height="24" fill="rgb(100,212,204)" stroke="rgb(80,169,163)" stroke-width="1" opacity="0.75" />
			</g>
		</g>
		<g>
			<title> (ctg2_118)</title>
			<polygon class=" (ctg2_118)" points="915,10 935,40 915,70" fill="rgb(255,255,255)" fill-opacity="1.0" stroke="rgb(0,0,0)" stroke-width="2"  />
			<g>
				<title>ACPS (PF01648)
"4'-phosphopantetheinyl transferase superfamily"</title>
				<polygon class="PF01648" points="925,30 932,40 925,50" stroke-linejoin="round" width="9" height="24" fill="rgb(85,184,135)" stroke="rgb(68,147,108)" stroke-width="1" opacity="0.75" />
			</g>
		</g>
		<g>
			<title> (ctg2_119)</title>
			<polygon class=" (ctg2_119)" points="948,25 990,25 990,10 1020,40 990,70 990,55 948,55" fill="rgb(255,255,255)" fill-opacity="1.0" stroke="rgb(0,0,0)" stroke-width="2"  />
			<g>
				<title>YSIRK_signal (PF04650)
"YSIRK type signal peptide"</title>
				<rect class="PF04650" x="948" y="28" stroke-linejoin="round" width="2" height="24" fill="rgb(74,138,184)" stroke="rgb(59,110,147)" stroke-width="1" opacity="0.75" />
			</g>
		</g>
		<g>
			<title> (ctg2_120)</title>
			<polygon class=" (ctg2_120)" points="1031,25 1045,25 1045,10 1075,40 1045,70 1045,55 1031,55" fill="rgb(255,255,255)" fill-opacity="1.0" stroke="rgb(0,0,0)" stroke-width="2"  />
			<g>
				<title>Sugar_tr (PF00083)
"Sugar (and other) transporter"</title>
				<polygon class="PF00083" points="1031,28 1059,28 1071,40 1059,52 1031,52" stroke-linejoin="round" width="42" height="24" fill="rgb(48,186,105)" stroke="rgb(38,148,84)" stroke-width="1" opacity="0.75" />
			</g>
		</g>
		<g>
			<title> (ctg2_121)</title>
			<polygon class=" (ctg2_121)" points="1080,25 1106,25 1106,10 1136,40 1106,70 1106,55 1080,55" fill="rgb(255,255,255)" fill-opacity="1.0" stroke="rgb(0,0,0)" stroke-width="2"  />
			<g>
				<title>ABC_N (PF20446)
"ATPase of the ABC class N-terminal"</title>
				<rect class="PF20446" x="1080" y="28" stroke-linejoin="round" width="15" height="24" fill="rgb(220,65,205)" stroke="rgb(176,52,164)" stroke-width="1" opacity="0.75" />
			</g>
			<g>
				<title>ABC_ATPase (PF09818)
"ATPase of the ABC class"</title>
				<polygon class="PF09818" points="1096,28 1120,28 1124,32 1124,48 1120,52 1096,52" stroke-linejoin="round" width="28" height="24" fill="rgb(224,114,112)" stroke="rgb(179,91,89)" stroke-width="1" opacity="0.75" />
			</g>
		</g>
		<g>
			<title> (ctg2_122)</title>
			<polygon class=" (ctg2_122)" points="1140,10 1156,40 1140,70" fill="rgb(255,255,255)" fill-opacity="1.0" stroke="rgb(0,0,0)" stroke-width="2"  />
			<g>
				<title>MepB-like (PF08877)
"MepB-like"</title>
				<polygon class="PF08877" points="1142,28 1146,28 1153,40 1146,52 1142,52" stroke-linejoin="round" width="12" height="24" fill="rgb(183,87,168)" stroke="rgb(146,69,134)" stroke-width="1" opacity="0.75" />
			</g>
		</g>
		<g>
			<title> (ctg2_123)</title>
			<polygon class=" (ctg2_123)" points="1161,25 1161,25 1161,10 1191,40 1161,70 1161,55 1161,55" fill="rgb(255,255,255)" fill-opacity="1.0" stroke="rgb(0,0,0)" stroke-width="2"  />
			<g>
				<title>EamA (PF00892)
"EamA-like transporter family"</title>
				<polygon class="PF00892" points="1161,28 1174,28 1175,29 1175,51 1174,52 1161,52" stroke-linejoin="round" width="14" height="24" fill="rgb(105,217,77)" stroke="rgb(84,173,61)" stroke-width="1" opacity="0.75" />
			</g>
			<g>
				<title>EamA (PF00892)
"EamA-like transporter family"</title>
				<polygon class="PF00892" points="1176,30 1186,40 1176,50" stroke-linejoin="round" width="13" height="24" fill="rgb(105,217,77)" stroke="rgb(84,173,61)" stroke-width="1" opacity="0.75" />
			</g>
		</g>
		<g>
			<title> (ctg2_124)</title>
			<polygon class=" (ctg2_124)" points="1225,25 1225,25 1225,10 1195,40 1225,70 1225,55 1225,55" fill="rgb(255,255,255)" fill-opacity="1.0" stroke="rgb(0,0,0)" stroke-width="2"  />
			<g>
				<title>NMT1 (PF09084)
"NMT1/THI5 like"</title>
				<polygon class="PF09084" points="1202,37 1211,28 1223,28 1223,52 1211,52 1202,43" stroke-linejoin="round" width="21" height="24" fill="rgb(196,85,209)" stroke="rgb(156,68,167)" stroke-width="1" opacity="0.75" />
			</g>
		</g>
		<g>
			<title> (ctg2_125)</title>
			<polygon class=" (ctg2_125)" points="1283,25 1266,25 1266,10 1236,40 1266,70 1266,55 1283,55" fill="rgb(255,255,255)" fill-opacity="1.0" stroke="rgb(0,0,0)" stroke-width="2"  />
			<g>
				<title>Na_sulph_symp (PF00939)
"Sodium:sulfate symporter transmembrane region"</title>
				<polygon class="PF00939" points="1240,40 1252,28 1282,28 1282,52 1252,52" stroke-linejoin="round" width="46" height="24" fill="rgb(94,204,141)" stroke="rgb(75,163,112)" stroke-width="1" opacity="0.75" />
			</g>
		</g>
		<g>
			<title> (ctg2_126)</title>
			<polygon class=" (ctg2_126)" points="1294,25 1309,25 1309,10 1339,40 1309,70 1309,55 1294,55" fill="rgb(255,255,255)" fill-opacity="1.0" stroke="rgb(0,0,0)" stroke-width="2"  />
			<g>
				<title>Pyr_redox_2 (PF07992)
"Pyridine nucleotide-disulphide oxidoreductase"</title>
				<polygon class="PF07992" points="1294,28 1322,28 1324,30 1324,50 1322,52 1294,52" stroke-linejoin="round" width="30" height="24" fill="rgb(83,223,167)" stroke="rgb(66,178,133)" stroke-width="1" opacity="0.75" />
			</g>
			<g>
				<title>Pyr_redox_dim (PF02852)
"Pyridine nucleotide-disulphide oxidoreductase, dimerisation domain"</title>
				<polygon class="PF02852" points="1327,33 1334,40 1327,47" stroke-linejoin="round" width="10" height="24" fill="rgb(191,148,67)" stroke="rgb(152,118,53)" stroke-width="1" opacity="0.75" />
			</g>
		</g>
		<g>
			<title> (ctg2_127)</title>
			<polygon class=" (ctg2_127)" points="1341,25 1342,25 1342,10 1372,40 1342,70 1342,55 1341,55" fill="rgb(255,255,255)" fill-opacity="1.0" stroke="rgb(0,0,0)" stroke-width="2"  />
			<g>
				<title>E1_dh (PF00676)
"Dehydrogenase E1 component"</title>
				<polygon class="PF00676" points="1342,28 1356,28 1368,40 1356,52 1342,52" stroke-linejoin="round" width="29" height="24" fill="rgb(180,115,48)" stroke="rgb(144,92,38)" stroke-width="1" opacity="0.75" />
			</g>
		</g>
		<g>
			<title> (ctg2_128)</title>
			<polygon class=" (ctg2_128)" points="1375,25 1379,25 1379,10 1409,40 1379,70 1379,55 1375,55" fill="rgb(255,255,255)" fill-opacity="1.0" stroke="rgb(0,0,0)" stroke-width="2"  />
			<g>
				<title>Transket_pyr (PF02779)
"Transketolase, pyrimidine binding domain"</title>
				<polygon class="PF02779" points="1375,28 1393,28 1394,29 1394,51 1393,52 1375,52" stroke-linejoin="round" width="19" height="24" fill="rgb(189,186,84)" stroke="rgb(151,148,67)" stroke-width="1" opacity="0.75" />
			</g>
			<g>
				<title>Transketolase_C (PF02780)
"Transketolase, C-terminal domain"</title>
				<polygon class="PF02780" points="1395,30 1405,40 1395,50" stroke-linejoin="round" width="12" height="24" fill="rgb(76,206,101)" stroke="rgb(60,164,80)" stroke-width="1" opacity="0.75" />
			</g>
		</g>
		<g>
			<title> (ctg2_129)</title>
			<polygon class=" (ctg2_129)" points="1410,25 1422,25 1422,10 1452,40 1422,70 1422,55 1410,55" fill="rgb(255,255,255)" fill-opacity="1.0" stroke="rgb(0,0,0)" stroke-width="2"  />
			<g>
				<title>Biotin_lipoyl (PF00364)
"Biotin-requiring enzyme"</title>
				<rect class="PF00364" x="1410" y="28" stroke-linejoin="round" width="7" height="24" fill="rgb(67,214,213)" stroke="rgb(53,171,170)" stroke-width="1" opacity="0.75" />
			</g>
			<g>
				<title>E3_binding (PF02817)
"e3 binding domain"</title>
				<rect class="PF02817" x="1423" y="28" stroke-linejoin="round" width="3" height="24" fill="rgb(217,136,99)" stroke="rgb(173,108,79)" stroke-width="1" opacity="0.75" />
			</g>
			<g>
				<title>2-oxoacid_dh (PF00198)
"2-oxoacid dehydrogenases acyltransferase (catalytic domain)"</title>
				<polygon class="PF00198" points="1429,28 1436,28 1448,40 1436,52 1429,52" stroke-linejoin="round" width="22" height="24" fill="rgb(204,74,202)" stroke="rgb(163,59,161)" stroke-width="1" opacity="0.75" />
			</g>
		</g>
	</g>
</svg>
