<svg version="1.1" baseProfile="full" xmlns="http://www.w3.org/2000/svg" width="758.8666666666667" height="80">
	<g>
		<line x1="10" y1="40.0" x2="748.8666666666667" y2="40.0" style="stroke:rgb(70,70,70); stroke-width:3 "/>
		<g>
			<title> (ctg9_244)</title>
			<polygon class=" (ctg9_244)" points="75,25 104,25 104,10 134,40 104,70 104,55 75,55" fill="rgb(255,255,255)" fill-opacity="1.0" stroke="rgb(0,0,0)" stroke-width="2"  />
			<g>
				<title>AcylCoA_DH_N (PF12418)
"Acyl-CoA dehydrogenase N terminal"</title>
				<rect class="PF12418" x="75" y="28" stroke-linejoin="round" width="3" height="24" fill="rgb(209,59,129)" stroke="rgb(167,47,103)" stroke-width="1" opacity="0.75" />
			</g>
			<g>
				<title>Acyl-CoA_dh_N (PF02771)
"Acyl-CoA dehydrogenase, N-terminal domain"</title>
				<rect class="PF02771" x="78" y="28" stroke-linejoin="round" width="12" height="24" fill="rgb(105,135,218)" stroke="rgb(84,108,174)" stroke-width="1" opacity="0.75" />
			</g>
			<g>
				<title>Acyl-CoA_dh_M (PF02770)
"Acyl-CoA dehydrogenase, middle domain"</title>
				<rect class="PF02770" x="91" y="28" stroke-linejoin="round" width="11" height="24" fill="rgb(225,186,97)" stroke="rgb(180,148,77)" stroke-width="1" opacity="0.75" />
			</g>
			<g>
				<title>Acyl-CoA_dh_1 (PF00441)
"Acyl-CoA dehydrogenase, C-terminal domain"</title>
				<polygon class="PF00441" points="103,28 118,28 120,30 120,50 118,52 103,52" stroke-linejoin="round" width="17" height="24" fill="rgb(85,191,117)" stroke="rgb(68,152,93)" stroke-width="1" opacity="0.75" />
			</g>
			<g>
				<title>Acyl-CoA_dh_C (PF12806)
"Acetyl-CoA dehydrogenase C-terminal like"</title>
				<polygon class="PF12806" points="121,31 130,40 121,49" stroke-linejoin="round" width="12" height="24" fill="rgb(208,149,57)" stroke="rgb(166,119,45)" stroke-width="1" opacity="0.75" />
			</g>
		</g>
		<g>
			<title> (ctg9_245)</title>
			<polygon class=" (ctg9_245)" points="173,25 172,25 172,10 142,40 172,70 172,55 173,55" fill="rgb(255,255,255)" fill-opacity="1.0" stroke="rgb(0,0,0)" stroke-width="2"  />
			<g>
				<title>LysR_substrate (PF03466)
"LysR substrate binding domain"</title>
				<polygon class="PF03466" points="146,40 158,28 163,28 163,52 158,52" stroke-linejoin="round" width="20" height="24" fill="rgb(55,136,195)" stroke="rgb(44,108,156)" stroke-width="1" opacity="0.75" />
			</g>
			<g>
				<title>HTH_1 (PF00126)
"Bacterial regulatory helix-turn-helix protein, lysR family"</title>
				<rect class="PF00126" x="166" y="28" stroke-linejoin="round" width="5" height="24" fill="rgb(125,227,79)" stroke="rgb(99,181,63)" stroke-width="1" opacity="0.75" />
			</g>
		</g>
		<g>
			<title> (ctg9_246)</title>
			<polygon class=" (ctg9_246)" points="176,10 199,40 176,70" fill="rgb(255,255,255)" fill-opacity="1.0" stroke="rgb(0,0,0)" stroke-width="2"  />
			<g>
				<title>MOSC (PF03473)
"MOSC domain"</title>
				<polygon class="PF03473" points="180,28 186,28 191,35 191,45 186,52 180,52" stroke-linejoin="round" width="11" height="24" fill="rgb(96,194,162)" stroke="rgb(76,155,129)" stroke-width="1" opacity="0.75" />
			</g>
			<g>
				<title>3-alpha (PF03475)
"3-alpha domain"</title>
				<polygon class="PF03475" points="193,37 195,40 193,43" stroke-linejoin="round" width="4" height="24" fill="rgb(90,182,89)" stroke="rgb(72,145,71)" stroke-width="1" opacity="0.75" />
			</g>
		</g>
		<g>
			<title> (ctg9_247)</title>
			<polygon class=" (ctg9_247)" points="200,25 212,25 212,10 242,40 212,70 212,55 200,55" fill="rgb(255,255,255)" fill-opacity="1.0" stroke="rgb(0,0,0)" stroke-width="2"  />
			<g>
				<title>Aminotran_3 (PF00202)
"Aminotransferase class-III"</title>
				<polygon class="PF00202" points="203,28 226,28 238,40 226,52 203,52" stroke-linejoin="round" width="37" height="24" fill="rgb(49,163,189)" stroke="rgb(39,130,151)" stroke-width="1" opacity="0.75" />
			</g>
		</g>
		<g>
			<title> (ctg9_248)</title>
			<polygon class=" (ctg9_248)" points="242,10 266,40 242,70" fill="rgb(255,255,255)" fill-opacity="1.0" stroke="rgb(0,0,0)" stroke-width="2"  />
			<g>
				<title>GATase (PF00117)
"Glutamine amidotransferase class-I"</title>
				<polygon class="PF00117" points="243,28 253,28 258,35 258,45 253,52 243,52" stroke-linejoin="round" width="15" height="24" fill="rgb(159,201,96)" stroke="rgb(127,160,76)" stroke-width="1" opacity="0.75" />
			</g>
		</g>
		<g>
			<title> (ctg9_249)</title>
			<polygon class=" (ctg9_249)" points="276,10 281,40 276,70" fill="rgb(255,255,255)" fill-opacity="1.0" stroke="rgb(0,0,0)" stroke-width="2"  />
			<g>
				<title>Pmp3 (PF01679)
"Proteolipid membrane potential modulator"</title>
				<polygon class="PF01679" points="276,28 278,40 276,52" stroke-linejoin="round" width="4" height="24" fill="rgb(102,214,171)" stroke="rgb(81,171,136)" stroke-width="1" opacity="0.75" />
			</g>
		</g>
		<g>
			<title> (ctg9_250)</title>
			<polygon class=" (ctg9_250)" points="344,25 313,25 313,10 283,40 313,70 313,55 344,55" fill="rgb(255,255,255)" fill-opacity="1.0" stroke="rgb(0,0,0)" stroke-width="2"  />
			<g>
				<title>Peptidase_S9 (PF00326)
"Prolyl oligopeptidase family"</title>
				<polygon class="PF00326" points="287,40 299,28 304,28 304,52 299,52" stroke-linejoin="round" width="21" height="24" fill="rgb(77,97,209)" stroke="rgb(61,77,167)" stroke-width="1" opacity="0.75" />
			</g>
		</g>
		<g>
			<title> (ctg9_251)</title>
			<polygon class=" (ctg9_251)" points="382,25 373,25 373,10 343,40 373,70 373,55 382,55" fill="rgb(255,255,255)" fill-opacity="1.0" stroke="rgb(0,0,0)" stroke-width="2"  />
			<g>
				<title>SPASM (PF13186)
"Iron-sulfur cluster-binding domain"</title>
				<polygon class="PF13186" points="349,38 355,32 355,48 349,42" stroke-linejoin="round" width="6" height="24" fill="rgb(183,66,65)" stroke="rgb(146,52,51)" stroke-width="1" opacity="0.75" />
			</g>
			<g>
				<title>Radical_SAM (PF04055)
"Radical SAM superfamily"</title>
				<rect class="PF04055" x="363" y="28" stroke-linejoin="round" width="15" height="24" fill="rgb(149,56,222)" stroke="rgb(119,44,177)" stroke-width="1" opacity="0.75" />
			</g>
		</g>
		<g>
			<title> (ctg9_252)</title>
			<polygon class=" (ctg9_252)" points="381,40 390,10 390,70" fill="rgb(255,255,255)" fill-opacity="1.0" stroke="rgb(0,0,0)" stroke-width="2"  />
		</g>
		<g>
			<title> (ctg9_253)</title>
			<polygon class=" (ctg9_253)" points="390,40 415,10 415,70" fill="rgb(255,255,255)" fill-opacity="1.0" stroke="rgb(0,0,0)" stroke-width="2"  />
			<g>
				<title>TENA_THI-4 (PF03070)
"TENA/THI-4/PQQC family"</title>
				<polygon class="PF03070" points="394,40 404,28 413,28 413,52 404,52" stroke-linejoin="round" width="21" height="24" fill="rgb(95,149,219)" stroke="rgb(76,119,175)" stroke-width="1" opacity="0.75" />
			</g>
		</g>
		<g>
			<title> (ctg9_254)</title>
			<polygon class=" (ctg9_254)" points="448,25 448,25 448,10 418,40 448,70 448,55 448,55" fill="rgb(255,255,255)" fill-opacity="1.0" stroke="rgb(0,0,0)" stroke-width="2"  />
			<g>
				<title>Lactamase_B_2 (PF12706)
"Beta-lactamase superfamily domain"</title>
				<polygon class="PF12706" points="422,40 434,28 443,28 443,52 434,52" stroke-linejoin="round" width="22" height="24" fill="rgb(62,169,197)" stroke="rgb(49,135,157)" stroke-width="1" opacity="0.75" />
			</g>
		</g>
		<g>
			<title> (ctg9_255)</title>
			<polygon class=" (ctg9_255)" points="452,40 456,10 456,70" fill="rgb(255,255,255)" fill-opacity="1.0" stroke="rgb(0,0,0)" stroke-width="2"  />
			<g>
				<title>PqqA (PF08042)
"PqqA family"</title>
				<polygon class="PF08042" points="455,40 453,55 453,25" stroke-linejoin="round" width="1" height="24" fill="rgb(90,137,191)" stroke="rgb(72,109,152)" stroke-width="1" opacity="0.75" />
			</g>
		</g>
		<g>
			<title> (ctg9_256)</title>
			<polygon class=" (ctg9_256)" points="542,25 490,25 490,10 460,40 490,70 490,55 542,55" fill="rgb(255,255,255)" fill-opacity="1.0" stroke="rgb(0,0,0)" stroke-width="2"  />
			<g>
				<title>Peptidase_M16_C (PF05193)
"Peptidase M16 inactive domain"</title>
				<rect class="PF05193" x="508" y="28" stroke-linejoin="round" width="15" height="24" fill="rgb(199,79,180)" stroke="rgb(159,63,144)" stroke-width="1" opacity="0.75" />
			</g>
			<g>
				<title>Peptidase_M16 (PF00675)
"Insulinase (Peptidase family M16)"</title>
				<rect class="PF00675" x="525" y="28" stroke-linejoin="round" width="14" height="24" fill="rgb(70,225,127)" stroke="rgb(56,180,101)" stroke-width="1" opacity="0.75" />
			</g>
		</g>
		<g>
			<title> (ctg9_257)</title>
			<polygon class=" (ctg9_257)" points="543,40 569,10 569,70" fill="rgb(255,255,255)" fill-opacity="1.0" stroke="rgb(0,0,0)" stroke-width="2"  />
			<g>
				<title>CN_hydrolase (PF00795)
"Carbon-nitrogen hydrolase"</title>
				<polygon class="PF00795" points="547,40 558,28 569,28 569,52 558,52" stroke-linejoin="round" width="24" height="24" fill="rgb(213,76,196)" stroke="rgb(170,60,156)" stroke-width="1" opacity="0.75" />
			</g>
		</g>
		<g>
			<title> (ctg9_258)</title>
			<polygon class=" (ctg9_258)" points="630,25 604,25 604,10 574,40 604,70 604,55 630,55" fill="rgb(255,255,255)" fill-opacity="1.0" stroke="rgb(0,0,0)" stroke-width="2"  />
			<g>
				<title>Amino_oxidase (PF01593)
"Flavin containing amine oxidoreductase"</title>
				<polygon class="PF01593" points="578,40 590,28 623,28 623,52 590,52" stroke-linejoin="round" width="47" height="24" fill="rgb(184,74,52)" stroke="rgb(147,59,41)" stroke-width="1" opacity="0.75" />
			</g>
		</g>
		<g>
			<title> (ctg9_259)</title>
			<polygon class=" (ctg9_259)" points="635,40 651,10 651,70" fill="rgb(255,255,255)" fill-opacity="1.0" stroke="rgb(0,0,0)" stroke-width="2"  />
			<g>
				<title>AsnC_trans_reg (PF01037)
"Lrp/AsnC ligand binding domain"</title>
				<polygon class="PF01037" points="638,40 642,33 642,47" stroke-linejoin="round" width="7" height="24" fill="rgb(134,72,182)" stroke="rgb(107,57,145)" stroke-width="1" opacity="0.75" />
			</g>
			<g>
				<title>HTH_AsnC-type (PF13404)
"AsnC-type helix-turn-helix domain"</title>
				<polygon class="PF13404" points="645,27 645,28 649,28 649,52 645,52 645,53" stroke-linejoin="round" width="4" height="24" fill="rgb(190,195,86)" stroke="rgb(152,156,68)" stroke-width="1" opacity="0.75" />
			</g>
		</g>
		<g>
			<title> (ctg9_260)</title>
			<polygon class=" (ctg9_260)" points="658,25 707,25 707,10 737,40 707,70 707,55 658,55" fill="rgb(255,255,255)" fill-opacity="1.0" stroke="rgb(0,0,0)" stroke-width="2"  />
			<g>
				<title>PQQ_2 (PF13360)
"PQQ-like domain"</title>
				<rect class="PF13360" x="677" y="28" stroke-linejoin="round" width="19" height="24" fill="rgb(98,210,146)" stroke="rgb(78,168,116)" stroke-width="1" opacity="0.75" />
			</g>
			<g>
				<title>PQQ (PF01011)
"PQQ enzyme repeat"</title>
				<rect class="PF01011" x="701" y="28" stroke-linejoin="round" width="3" height="24" fill="rgb(223,77,129)" stroke="rgb(178,61,103)" stroke-width="1" opacity="0.75" />
			</g>
		</g>
	</g>
</svg>
