<svg version="1.1" baseProfile="full" xmlns="http://www.w3.org/2000/svg" width="1431.3666666666666" height="80">
	<g>
		<line x1="10" y1="40.0" x2="1421.3666666666666" y2="40.0" style="stroke:rgb(70,70,70); stroke-width:3 "/>
		<g>
			<title> (ctg29_458)</title>
			<polygon class=" (ctg29_458)" points="19,25 36,25 36,10 66,40 36,70 36,55 19,55" fill="rgb(255,255,255)" fill-opacity="1.0" stroke="rgb(0,0,0)" stroke-width="2"  />
			<g>
				<title>AA_permease_2 (PF13520)
"Amino acid permease"</title>
				<polygon class="PF13520" points="19,28 50,28 62,40 50,52 19,52" stroke-linejoin="round" width="45" height="24" fill="rgb(180,217,107)" stroke="rgb(144,173,85)" stroke-width="1" opacity="0.75" />
			</g>
		</g>
		<g>
			<title> (ctg29_459)</title>
			<polygon class=" (ctg29_459)" points="69,25 80,25 80,10 110,40 80,70 80,55 69,55" fill="rgb(255,255,255)" fill-opacity="1.0" stroke="rgb(0,0,0)" stroke-width="2"  />
			<g>
				<title>ADI (PF02274)
"Arginine deiminase"</title>
				<polygon class="PF02274" points="72,28 94,28 106,40 94,52 72,52" stroke-linejoin="round" width="37" height="24" fill="rgb(194,129,75)" stroke="rgb(155,103,60)" stroke-width="1" opacity="0.75" />
			</g>
		</g>
		<g>
			<title> (ctg29_460)</title>
			<polygon class=" (ctg29_460)" points="113,25 116,25 116,10 146,40 116,70 116,55 113,55" fill="rgb(255,255,255)" fill-opacity="1.0" stroke="rgb(0,0,0)" stroke-width="2"  />
			<g>
				<title>OTCace_N (PF02729)
"Aspartate/ornithine carbamoyltransferase, carbamoyl-P binding domain"</title>
				<rect class="PF02729" x="113" y="28" stroke-linejoin="round" width="14" height="24" fill="rgb(223,74,58)" stroke="rgb(178,59,46)" stroke-width="1" opacity="0.75" />
			</g>
			<g>
				<title>OTCace (PF00185)
"Aspartate/ornithine carbamoyltransferase, Asp/Orn binding domain"</title>
				<polygon class="PF00185" points="128,28 130,28 142,40 130,52 128,52" stroke-linejoin="round" width="17" height="24" fill="rgb(215,107,106)" stroke="rgb(172,85,84)" stroke-width="1" opacity="0.75" />
			</g>
		</g>
		<g>
			<title> (ctg29_461)</title>
			<polygon class=" (ctg29_461)" points="149,25 150,25 150,10 180,40 150,70 150,55 149,55" fill="rgb(255,255,255)" fill-opacity="1.0" stroke="rgb(0,0,0)" stroke-width="2"  />
			<g>
				<title>AA_kinase (PF00696)
"Amino acid kinase family"</title>
				<polygon class="PF00696" points="149,28 163,28 175,40 163,52 149,52" stroke-linejoin="round" width="28" height="24" fill="rgb(148,78,224)" stroke="rgb(118,62,179)" stroke-width="1" opacity="0.75" />
			</g>
		</g>
		<g>
			<title> (ctg29_462)</title>
			<polygon class=" (ctg29_462)" points="182,10 194,40 182,70" fill="rgb(255,255,255)" fill-opacity="1.0" stroke="rgb(0,0,0)" stroke-width="2"  />
			<g>
				<title>DUF5064 (PF16703)
"Domain of unknown function (DUF5064)"</title>
				<polygon class="PF16703" points="182,28 185,28 190,40 185,52 182,52" stroke-linejoin="round" width="11" height="24" fill="rgb(177,204,86)" stroke="rgb(141,163,68)" stroke-width="1" opacity="0.75" />
			</g>
		</g>
		<g>
			<title> (ctg29_463)</title>
			<polygon class=" (ctg29_463)" points="200,25 220,25 220,10 250,40 220,70 220,55 200,55" fill="rgb(255,255,255)" fill-opacity="1.0" stroke="rgb(0,0,0)" stroke-width="2"  />
			<g>
				<title>Sigma54_activat (PF00158)
"Sigma-54 interaction domain"</title>
				<polygon class="PF00158" points="219,28 234,28 235,29 235,51 234,52 219,52" stroke-linejoin="round" width="16" height="24" fill="rgb(101,145,216)" stroke="rgb(80,115,172)" stroke-width="1" opacity="0.75" />
			</g>
			<g>
				<title>HTH_50 (PF18024)
"Helix-turn-helix domain"</title>
				<polygon class="PF18024" points="245,39 246,40 245,41" stroke-linejoin="round" width="4" height="24" fill="rgb(180,96,66)" stroke="rgb(144,76,52)" stroke-width="1" opacity="0.75" />
			</g>
		</g>
		<g>
			<title> (ctg29_464)</title>
			<polygon class=" (ctg29_464)" points="261,10 273,40 261,70" fill="rgb(255,255,255)" fill-opacity="1.0" stroke="rgb(0,0,0)" stroke-width="2"  />
			<g>
				<title>GCV_H (PF01597)
"Glycine cleavage H-protein"</title>
				<polygon class="PF01597" points="261,28 265,28 270,40 265,52 261,52" stroke-linejoin="round" width="12" height="24" fill="rgb(77,190,144)" stroke="rgb(61,152,115)" stroke-width="1" opacity="0.75" />
			</g>
		</g>
		<g>
			<title> (ctg29_465)</title>
			<polygon class=" (ctg29_465)" points="274,25 339,25 339,10 369,40 339,70 339,55 274,55" fill="rgb(255,255,255)" fill-opacity="1.0" stroke="rgb(0,0,0)" stroke-width="2"  />
			<g>
				<title>GDC-P (PF02347)
"Glycine cleavage system P-protein"</title>
				<rect class="PF02347" x="275" y="28" stroke-linejoin="round" width="42" height="24" fill="rgb(54,115,215)" stroke="rgb(43,92,172)" stroke-width="1" opacity="0.75" />
			</g>
			<g>
				<title>GDC-P (PF02347)
"Glycine cleavage system P-protein"</title>
				<rect class="PF02347" x="318" y="28" stroke-linejoin="round" width="28" height="24" fill="rgb(54,115,215)" stroke="rgb(43,92,172)" stroke-width="1" opacity="0.75" />
			</g>
		</g>
		<g>
			<title> (ctg29_466)</title>
			<polygon class=" (ctg29_466)" points="372,25 387,25 387,10 417,40 387,70 387,55 372,55" fill="rgb(255,255,255)" fill-opacity="1.0" stroke="rgb(0,0,0)" stroke-width="2"  />
			<g>
				<title>SDH_beta (PF03315)
"Serine dehydratase beta chain"</title>
				<rect class="PF03315" x="372" y="28" stroke-linejoin="round" width="15" height="24" fill="rgb(68,217,124)" stroke="rgb(54,173,99)" stroke-width="1" opacity="0.75" />
			</g>
			<g>
				<title>SDH_alpha (PF03313)
"Serine dehydratase alpha chain"</title>
				<polygon class="PF03313" points="390,28 401,28 413,40 401,52 390,52" stroke-linejoin="round" width="26" height="24" fill="rgb(104,203,99)" stroke="rgb(83,162,79)" stroke-width="1" opacity="0.75" />
			</g>
		</g>
		<g>
			<title> (ctg29_467)</title>
			<polygon class=" (ctg29_467)" points="420,25 427,25 427,10 457,40 427,70 427,55 420,55" fill="rgb(255,255,255)" fill-opacity="1.0" stroke="rgb(0,0,0)" stroke-width="2"  />
			<g>
				<title>GCV_T (PF01571)
"Aminomethyltransferase folate-binding domain"</title>
				<polygon class="PF01571" points="421,28 441,28 445,32 445,48 441,52 421,52" stroke-linejoin="round" width="24" height="24" fill="rgb(112,228,161)" stroke="rgb(89,182,128)" stroke-width="1" opacity="0.75" />
			</g>
			<g>
				<title>GCV_T_C (PF08669)
"Glycine cleavage T-protein C-terminal barrel domain"</title>
				<polygon class="PF08669" points="448,35 453,40 448,45" stroke-linejoin="round" width="7" height="24" fill="rgb(184,178,54)" stroke="rgb(147,142,43)" stroke-width="1" opacity="0.75" />
			</g>
		</g>
		<g>
			<title> (ctg29_468)</title>
			<polygon class=" (ctg29_468)" points="470,10 477,40 470,70" fill="rgb(255,255,255)" fill-opacity="1.0" stroke="rgb(0,0,0)" stroke-width="2"  />
			<g>
				<title>CSD (PF00313)
"'Cold-shock' DNA-binding domain"</title>
				<polygon class="PF00313" points="470,28 470,28 474,40 470,52 470,52" stroke-linejoin="round" width="6" height="24" fill="rgb(87,72,181)" stroke="rgb(69,57,144)" stroke-width="1" opacity="0.75" />
			</g>
		</g>
		<g>
			<title> (ctg29_469)</title>
			<polygon class=" (ctg29_469)" points="480,10 496,40 480,70" fill="rgb(255,255,255)" fill-opacity="1.0" stroke="rgb(0,0,0)" stroke-width="2"  />
			<g>
				<title>RDD (PF06271)
"RDD family"</title>
				<polygon class="PF06271" points="481,28 486,28 492,40 486,52 481,52" stroke-linejoin="round" width="13" height="24" fill="rgb(75,173,207)" stroke="rgb(60,138,165)" stroke-width="1" opacity="0.75" />
			</g>
		</g>
		<g>
			<title> (ctg29_470)</title>
			<polygon class=" (ctg29_470)" points="534,25 529,25 529,10 499,40 529,70 529,55 534,55" fill="rgb(255,255,255)" fill-opacity="1.0" stroke="rgb(0,0,0)" stroke-width="2"  />
			<g>
				<title>NadA (PF02445)
"Quinolinate synthetase A protein"</title>
				<polygon class="PF02445" points="503,40 515,28 530,28 530,52 515,52" stroke-linejoin="round" width="30" height="24" fill="rgb(169,224,98)" stroke="rgb(135,179,78)" stroke-width="1" opacity="0.75" />
			</g>
		</g>
		<g>
			<title> (ctg29_471)</title>
			<polygon class=" (ctg29_471)" points="585,25 570,25 570,10 540,40 570,70 570,55 585,55" fill="rgb(255,255,255)" fill-opacity="1.0" stroke="rgb(0,0,0)" stroke-width="2"  />
			<g>
				<title>HATPase_c (PF02518)
"Histidine kinase-, DNA gyrase B-, and HSP90-like ATPase"</title>
				<polygon class="PF02518" points="544,40 551,33 551,47" stroke-linejoin="round" width="11" height="24" fill="rgb(80,94,225)" stroke="rgb(64,75,180)" stroke-width="1" opacity="0.75" />
			</g>
			<g>
				<title>HisKA (PF00512)
"His Kinase A (phospho-acceptor) domain"</title>
				<polygon class="PF00512" points="556,28 556,28 562,28 562,52 556,52 556,52" stroke-linejoin="round" width="6" height="24" fill="rgb(193,125,62)" stroke="rgb(154,100,49)" stroke-width="1" opacity="0.75" />
			</g>
		</g>
		<g>
			<title> (ctg29_472)</title>
			<polygon class=" (ctg29_472)" points="585,40 607,10 607,70" fill="rgb(255,255,255)" fill-opacity="1.0" stroke="rgb(0,0,0)" stroke-width="2"  />
			<g>
				<title>Trans_reg_C (PF00486)
"Transcriptional regulatory protein, C terminal"</title>
				<polygon class="PF00486" points="589,40 592,36 592,44" stroke-linejoin="round" width="7" height="24" fill="rgb(204,153,57)" stroke="rgb(163,122,45)" stroke-width="1" opacity="0.75" />
			</g>
			<g>
				<title>Response_reg (PF00072)
"Response regulator receiver domain"</title>
				<polygon class="PF00072" points="595,32 598,28 606,28 606,52 598,52 595,48" stroke-linejoin="round" width="11" height="24" fill="rgb(100,107,203)" stroke="rgb(80,85,162)" stroke-width="1" opacity="0.75" />
			</g>
		</g>
		<g>
			<title> (ctg29_473)</title>
			<polygon class=" (ctg29_473)" points="611,40 625,10 625,70" fill="rgb(255,255,255)" fill-opacity="1.0" stroke="rgb(0,0,0)" stroke-width="2"  />
		</g>
		<g>
			<title> (ctg29_474)</title>
			<polygon class=" (ctg29_474)" points="626,40 651,10 651,70" fill="rgb(255,255,255)" fill-opacity="1.0" stroke="rgb(0,0,0)" stroke-width="2"  />
			<g>
				<title>DUF347 (PF03988)
"Repeat of Unknown Function (DUF347)"</title>
				<polygon class="PF03988" points="630,40 632,38 632,42" stroke-linejoin="round" width="5" height="24" fill="rgb(83,193,136)" stroke="rgb(66,154,108)" stroke-width="1" opacity="0.75" />
			</g>
			<g>
				<title>DUF347 (PF03988)
"Repeat of Unknown Function (DUF347)"</title>
				<polygon class="PF03988" points="632,38 636,33 636,47 632,42" stroke-linejoin="round" width="4" height="24" fill="rgb(83,193,136)" stroke="rgb(66,154,108)" stroke-width="1" opacity="0.75" />
			</g>
			<g>
				<title>DUF347 (PF03988)
"Repeat of Unknown Function (DUF347)"</title>
				<polygon class="PF03988" points="639,29 640,28 644,28 644,52 640,52 639,51" stroke-linejoin="round" width="5" height="24" fill="rgb(83,193,136)" stroke="rgb(66,154,108)" stroke-width="1" opacity="0.75" />
			</g>
			<g>
				<title>DUF347 (PF03988)
"Repeat of Unknown Function (DUF347)"</title>
				<rect class="PF03988" x="644" y="28" stroke-linejoin="round" width="5" height="24" fill="rgb(83,193,136)" stroke="rgb(66,154,108)" stroke-width="1" opacity="0.75" />
			</g>
		</g>
		<g>
			<title> (ctg29_475)</title>
			<polygon class=" (ctg29_475)" points="655,40 676,10 676,70" fill="rgb(255,255,255)" fill-opacity="1.0" stroke="rgb(0,0,0)" stroke-width="2"  />
			<g>
				<title>Thioesterase (PF00975)
"Thioesterase domain"</title>
				<rect class="PF00975" x="668" y="28" stroke-linejoin="round" width="7" height="24" fill="rgb(207,80,138)" stroke="rgb(165,63,110)" stroke-width="1" opacity="0.75" />
			</g>
		</g>
		<g>
			<title> (ctg29_476)</title>
			<polygon class=" (ctg29_476)" points="778,25 706,25 706,10 676,40 706,70 706,55 778,55" fill="rgb(255,255,255)" fill-opacity="1.0" stroke="rgb(0,0,0)" stroke-width="2"  />
			<g>
				<title>PP-binding (PF00550)
"Phosphopantetheine attachment site"</title>
				<rect class="PF00550" x="721" y="28" stroke-linejoin="round" width="5" height="24" fill="rgb(103,191,88)" stroke="rgb(82,152,70)" stroke-width="1" opacity="0.75" />
			</g>
			<g>
				<title>AMP-binding (PF00501)
"AMP-binding enzyme"</title>
				<rect class="PF00501" x="738" y="28" stroke-linejoin="round" width="38" height="24" fill="rgb(60,217,223)" stroke="rgb(48,173,178)" stroke-width="1" opacity="0.75" />
			</g>
		</g>
		<g>
			<title> (ctg29_477)</title>
			<polygon class=" (ctg29_477)" points="812,25 809,25 809,10 779,40 809,70 809,55 812,55" fill="rgb(255,255,255)" fill-opacity="1.0" stroke="rgb(0,0,0)" stroke-width="2"  />
		</g>
		<g>
			<title> (ctg29_478)</title>
			<polygon class=" (ctg29_478)" points="856,25 842,25 842,10 812,40 842,70 842,55 856,55" fill="rgb(255,255,255)" fill-opacity="1.0" stroke="rgb(0,0,0)" stroke-width="2"  />
			<g>
				<title>EPSP_synthase (PF00275)
"EPSP synthase (3-phosphoshikimate 1-carboxyvinyltransferase)"</title>
				<polygon class="PF00275" points="816,40 828,28 854,28 854,52 828,52" stroke-linejoin="round" width="42" height="24" fill="rgb(217,213,85)" stroke="rgb(173,170,68)" stroke-width="1" opacity="0.75" />
			</g>
		</g>
		<g>
			<title> (ctg29_479)</title>
			<polygon class=" (ctg29_479)" points="897,25 887,25 887,10 857,40 887,70 887,55 897,55" fill="rgb(255,255,255)" fill-opacity="1.0" stroke="rgb(0,0,0)" stroke-width="2"  />
			<g>
				<title>FrhB_FdhB_C (PF04432)
"Coenzyme F420 hydrogenase/dehydrogenase, beta subunit C terminus"</title>
				<polygon class="PF04432" points="862,39 873,28 879,28 879,52 873,52 862,41" stroke-linejoin="round" width="17" height="24" fill="rgb(105,59,185)" stroke="rgb(83,47,148)" stroke-width="1" opacity="0.75" />
			</g>
			<g>
				<title>FrhB_FdhB_N (PF04422)
"Coenzyme F420 hydrogenase/dehydrogenase, beta subunit N-term"</title>
				<rect class="PF04422" x="880" y="28" stroke-linejoin="round" width="7" height="24" fill="rgb(88,220,84)" stroke="rgb(70,176,67)" stroke-width="1" opacity="0.75" />
			</g>
			<g>
				<title>Fer4_7 (PF12838)
"4Fe-4S dicluster domain"</title>
				<rect class="PF12838" x="891" y="28" stroke-linejoin="round" width="4" height="24" fill="rgb(138,229,96)" stroke="rgb(110,183,76)" stroke-width="1" opacity="0.75" />
			</g>
		</g>
		<g>
			<title> (ctg29_480)</title>
			<polygon class=" (ctg29_480)" points="901,40 916,10 916,70" fill="rgb(255,255,255)" fill-opacity="1.0" stroke="rgb(0,0,0)" stroke-width="2"  />
			<g>
				<title>Acetyltransf_10 (PF13673)
"Acetyltransferase (GNAT) domain"</title>
				<polygon class="PF13673" points="904,40 910,28 913,28 913,52 910,52" stroke-linejoin="round" width="12" height="24" fill="rgb(88,180,95)" stroke="rgb(70,144,76)" stroke-width="1" opacity="0.75" />
			</g>
		</g>
		<g>
			<title> (ctg29_481)</title>
			<polygon class=" (ctg29_481)" points="948,25 947,25 947,10 917,40 947,70 947,55 948,55" fill="rgb(255,255,255)" fill-opacity="1.0" stroke="rgb(0,0,0)" stroke-width="2"  />
			<g>
				<title>EamA (PF00892)
"EamA-like transporter family"</title>
				<polygon class="PF00892" points="921,40 931,30 931,50" stroke-linejoin="round" width="13" height="24" fill="rgb(105,217,77)" stroke="rgb(84,173,61)" stroke-width="1" opacity="0.75" />
			</g>
			<g>
				<title>EamA (PF00892)
"EamA-like transporter family"</title>
				<polygon class="PF00892" points="933,28 933,28 946,28 946,52 933,52 933,52" stroke-linejoin="round" width="13" height="24" fill="rgb(105,217,77)" stroke="rgb(84,173,61)" stroke-width="1" opacity="0.75" />
			</g>
		</g>
		<g>
			<title> (ctg29_482)</title>
			<polygon class=" (ctg29_482)" points="1043,25 978,25 978,10 948,40 978,70 978,55 1043,55" fill="rgb(255,255,255)" fill-opacity="1.0" stroke="rgb(0,0,0)" stroke-width="2"  />
			<g>
				<title>Condensation (PF00668)
"Condensation domain"</title>
				<polygon class="PF00668" points="952,40 964,28 981,28 981,52 964,52" stroke-linejoin="round" width="33" height="24" fill="rgb(224,184,98)" stroke="rgb(179,147,78)" stroke-width="1" opacity="0.75" />
			</g>
			<g>
				<title>AMP-binding_C (PF13193)
"AMP-binding enzyme C-terminal domain"</title>
				<rect class="PF13193" x="996" y="28" stroke-linejoin="round" width="7" height="24" fill="rgb(182,50,118)" stroke="rgb(145,39,94)" stroke-width="1" opacity="0.75" />
			</g>
			<g>
				<title>AMP-binding (PF00501)
"AMP-binding enzyme"</title>
				<rect class="PF00501" x="1004" y="28" stroke-linejoin="round" width="38" height="24" fill="rgb(60,217,223)" stroke="rgb(48,173,178)" stroke-width="1" opacity="0.75" />
			</g>
		</g>
		<g>
			<title> (ctg29_483)</title>
			<polygon class=" (ctg29_483)" points="1086,25 1075,25 1075,10 1045,40 1075,70 1075,55 1086,55" fill="rgb(255,255,255)" fill-opacity="1.0" stroke="rgb(0,0,0)" stroke-width="2"  />
			<g>
				<title>Aminotran_3 (PF00202)
"Aminotransferase class-III"</title>
				<polygon class="PF00202" points="1049,40 1061,28 1084,28 1084,52 1061,52" stroke-linejoin="round" width="39" height="24" fill="rgb(49,163,189)" stroke="rgb(39,130,151)" stroke-width="1" opacity="0.75" />
			</g>
		</g>
		<g>
			<title> (ctg29_484)</title>
			<polygon class=" (ctg29_484)" points="1106,40 1133,10 1133,70" fill="rgb(255,255,255)" fill-opacity="1.0" stroke="rgb(0,0,0)" stroke-width="2"  />
		</g>
		<g>
			<title> (ctg29_485)</title>
			<polygon class=" (ctg29_485)" points="1133,40 1150,10 1150,70" fill="rgb(255,255,255)" fill-opacity="1.0" stroke="rgb(0,0,0)" stroke-width="2"  />
		</g>
		<g>
			<title> (ctg29_486)</title>
			<polygon class=" (ctg29_486)" points="1151,40 1167,10 1167,70" fill="rgb(255,255,255)" fill-opacity="1.0" stroke="rgb(0,0,0)" stroke-width="2"  />
			<g>
				<title>Fimbrial (PF00419)
"Fimbrial protein"</title>
				<polygon class="PF00419" points="1154,40 1161,28 1165,28 1165,52 1161,52" stroke-linejoin="round" width="14" height="24" fill="rgb(167,200,70)" stroke="rgb(133,160,56)" stroke-width="1" opacity="0.75" />
			</g>
		</g>
		<g>
			<title> (ctg29_487)</title>
			<polygon class=" (ctg29_487)" points="1168,40 1184,10 1184,70" fill="rgb(255,255,255)" fill-opacity="1.0" stroke="rgb(0,0,0)" stroke-width="2"  />
			<g>
				<title>Fimbrial (PF00419)
"Fimbrial protein"</title>
				<polygon class="PF00419" points="1171,40 1177,28 1181,28 1181,52 1177,52" stroke-linejoin="round" width="13" height="24" fill="rgb(167,200,70)" stroke="rgb(133,160,56)" stroke-width="1" opacity="0.75" />
			</g>
		</g>
		<g>
			<title> (ctg29_488)</title>
			<polygon class=" (ctg29_488)" points="1184,40 1203,10 1203,70" fill="rgb(255,255,255)" fill-opacity="1.0" stroke="rgb(0,0,0)" stroke-width="2"  />
			<g>
				<title>Fimbrial (PF00419)
"Fimbrial protein"</title>
				<polygon class="PF00419" points="1188,40 1196,28 1199,28 1199,52 1196,52" stroke-linejoin="round" width="15" height="24" fill="rgb(167,200,70)" stroke="rgb(133,160,56)" stroke-width="1" opacity="0.75" />
			</g>
		</g>
		<g>
			<title> (ctg29_489)</title>
			<polygon class=" (ctg29_489)" points="1204,40 1229,10 1229,70" fill="rgb(255,255,255)" fill-opacity="1.0" stroke="rgb(0,0,0)" stroke-width="2"  />
			<g>
				<title>PapD_C (PF02753)
"Pili assembly chaperone PapD, C-terminal domain"</title>
				<polygon class="PF02753" points="1208,40 1212,35 1212,45" stroke-linejoin="round" width="6" height="24" fill="rgb(79,204,67)" stroke="rgb(63,163,53)" stroke-width="1" opacity="0.75" />
			</g>
			<g>
				<title>PapD_N (PF00345)
"Pili and flagellar-assembly chaperone, PapD N-terminal domain"</title>
				<polygon class="PF00345" points="1214,33 1218,28 1225,28 1225,52 1218,52 1214,47" stroke-linejoin="round" width="11" height="24" fill="rgb(72,109,195)" stroke="rgb(57,87,156)" stroke-width="1" opacity="0.75" />
			</g>
		</g>
		<g>
			<title> (ctg29_490)</title>
			<polygon class=" (ctg29_490)" points="1312,25 1260,25 1260,10 1230,40 1260,70 1260,55 1312,55" fill="rgb(255,255,255)" fill-opacity="1.0" stroke="rgb(0,0,0)" stroke-width="2"  />
			<g>
				<title>PapC_C (PF13953)
"PapC C-terminal domain"</title>
				<polygon class="PF13953" points="1234,40 1238,36 1238,44" stroke-linejoin="round" width="6" height="24" fill="rgb(56,207,188)" stroke="rgb(44,165,150)" stroke-width="1" opacity="0.75" />
			</g>
			<g>
				<title>Usher (PF00577)
"Outer membrane usher protein"</title>
				<polygon class="PF00577" points="1239,35 1246,28 1293,28 1293,52 1246,52 1239,45" stroke-linejoin="round" width="54" height="24" fill="rgb(95,174,210)" stroke="rgb(76,139,168)" stroke-width="1" opacity="0.75" />
			</g>
			<g>
				<title>PapC_N (PF13954)
"PapC N-terminal domain"</title>
				<rect class="PF13954" x="1295" y="28" stroke-linejoin="round" width="14" height="24" fill="rgb(119,201,87)" stroke="rgb(95,160,69)" stroke-width="1" opacity="0.75" />
			</g>
		</g>
		<g>
			<title> (ctg29_491)</title>
			<polygon class=" (ctg29_491)" points="1315,40 1332,10 1332,70" fill="rgb(255,255,255)" fill-opacity="1.0" stroke="rgb(0,0,0)" stroke-width="2"  />
		</g>
		<g>
			<title> (ctg29_492)</title>
			<polygon class=" (ctg29_492)" points="1335,40 1353,10 1353,70" fill="rgb(255,255,255)" fill-opacity="1.0" stroke="rgb(0,0,0)" stroke-width="2"  />
			<g>
				<title>Fimbrial (PF00419)
"Fimbrial protein"</title>
				<polygon class="PF00419" points="1339,40 1346,28 1350,28 1350,52 1346,52" stroke-linejoin="round" width="15" height="24" fill="rgb(167,200,70)" stroke="rgb(133,160,56)" stroke-width="1" opacity="0.75" />
			</g>
		</g>
	</g>
</svg>
