<svg version="1.1" baseProfile="full" xmlns="http://www.w3.org/2000/svg" width="1049.0666666666666" height="80">
	<g>
		<line x1="10" y1="40.0" x2="1039.0666666666666" y2="40.0" style="stroke:rgb(70,70,70); stroke-width:3 "/>
		<g>
			<title> (ctg27_1)</title>
			<polygon class=" (ctg27_1)" points="372,25 40,25 40,10 10,40 40,70 40,55 372,55" fill="rgb(255,255,255)" fill-opacity="1.0" stroke="rgb(0,0,0)" stroke-width="2"  />
			<g>
				<title>AMP-binding (PF00501)
"AMP-binding enzyme"</title>
				<polygon class="PF00501" points="14,40 20,34 20,46" stroke-linejoin="round" width="10" height="24" fill="rgb(60,217,223)" stroke="rgb(48,173,178)" stroke-width="1" opacity="0.75" />
			</g>
			<g>
				<title>Condensation (PF00668)
"Condensation domain"</title>
				<polygon class="PF00668" points="22,32 26,28 65,28 65,52 26,52 22,48" stroke-linejoin="round" width="43" height="24" fill="rgb(224,184,98)" stroke="rgb(179,147,78)" stroke-width="1" opacity="0.75" />
			</g>
			<g>
				<title>Condensation (PF00668)
"Condensation domain"</title>
				<rect class="PF00668" x="67" y="28" stroke-linejoin="round" width="45" height="24" fill="rgb(224,184,98)" stroke="rgb(179,147,78)" stroke-width="1" opacity="0.75" />
			</g>
			<g>
				<title>PP-binding (PF00550)
"Phosphopantetheine attachment site"</title>
				<rect class="PF00550" x="114" y="28" stroke-linejoin="round" width="6" height="24" fill="rgb(103,191,88)" stroke="rgb(82,152,70)" stroke-width="1" opacity="0.75" />
			</g>
			<g>
				<title>AMP-binding_C (PF13193)
"AMP-binding enzyme C-terminal domain"</title>
				<rect class="PF13193" x="123" y="28" stroke-linejoin="round" width="7" height="24" fill="rgb(182,50,118)" stroke="rgb(145,39,94)" stroke-width="1" opacity="0.75" />
			</g>
			<g>
				<title>AMP-binding (PF00501)
"AMP-binding enzyme"</title>
				<rect class="PF00501" x="131" y="28" stroke-linejoin="round" width="40" height="24" fill="rgb(60,217,223)" stroke="rgb(48,173,178)" stroke-width="1" opacity="0.75" />
			</g>
			<g>
				<title>Condensation (PF00668)
"Condensation domain"</title>
				<rect class="PF00668" x="173" y="28" stroke-linejoin="round" width="43" height="24" fill="rgb(224,184,98)" stroke="rgb(179,147,78)" stroke-width="1" opacity="0.75" />
			</g>
			<g>
				<title>Condensation (PF00668)
"Condensation domain"</title>
				<rect class="PF00668" x="218" y="28" stroke-linejoin="round" width="44" height="24" fill="rgb(224,184,98)" stroke="rgb(179,147,78)" stroke-width="1" opacity="0.75" />
			</g>
			<g>
				<title>PP-binding (PF00550)
"Phosphopantetheine attachment site"</title>
				<rect class="PF00550" x="264" y="28" stroke-linejoin="round" width="6" height="24" fill="rgb(103,191,88)" stroke="rgb(82,152,70)" stroke-width="1" opacity="0.75" />
			</g>
			<g>
				<title>AMP-binding_C (PF13193)
"AMP-binding enzyme C-terminal domain"</title>
				<rect class="PF13193" x="273" y="28" stroke-linejoin="round" width="7" height="24" fill="rgb(182,50,118)" stroke="rgb(145,39,94)" stroke-width="1" opacity="0.75" />
			</g>
			<g>
				<title>AMP-binding (PF00501)
"AMP-binding enzyme"</title>
				<rect class="PF00501" x="281" y="28" stroke-linejoin="round" width="39" height="24" fill="rgb(60,217,223)" stroke="rgb(48,173,178)" stroke-width="1" opacity="0.75" />
			</g>
			<g>
				<title>Condensation (PF00668)
"Condensation domain"</title>
				<rect class="PF00668" x="322" y="28" stroke-linejoin="round" width="45" height="24" fill="rgb(224,184,98)" stroke="rgb(179,147,78)" stroke-width="1" opacity="0.75" />
			</g>
		</g>
		<g>
			<title> (ctg27_2)</title>
			<polygon class=" (ctg27_2)" points="380,40 404,10 404,70" fill="rgb(255,255,255)" fill-opacity="1.0" stroke="rgb(0,0,0)" stroke-width="2"  />
			<g>
				<title>Thioesterase (PF00975)
"Thioesterase domain"</title>
				<polygon class="PF00975" points="384,40 394,28 403,28 403,52 394,52" stroke-linejoin="round" width="22" height="24" fill="rgb(207,80,138)" stroke="rgb(165,63,110)" stroke-width="1" opacity="0.75" />
			</g>
		</g>
		<g>
			<title> (ctg27_3)</title>
			<polygon class=" (ctg27_3)" points="408,25 415,25 415,10 445,40 415,70 415,55 408,55" fill="rgb(255,255,255)" fill-opacity="1.0" stroke="rgb(0,0,0)" stroke-width="2"  />
			<g>
				<title>SCP2 (PF02036)
"SCP-2 sterol transfer family"</title>
				<rect class="PF02036" x="409" y="28" stroke-linejoin="round" width="8" height="24" fill="rgb(56,163,207)" stroke="rgb(44,130,165)" stroke-width="1" opacity="0.75" />
			</g>
			<g>
				<title>Cupin_8 (PF13621)
"Cupin-like domain"</title>
				<polygon class="PF13621" points="422,28 429,28 441,40 429,52 422,52" stroke-linejoin="round" width="22" height="24" fill="rgb(91,167,190)" stroke="rgb(72,133,152)" stroke-width="1" opacity="0.75" />
			</g>
		</g>
		<g>
			<title> (ctg27_4)</title>
			<polygon class=" (ctg27_4)" points="491,25 482,25 482,10 452,40 482,70 482,55 491,55" fill="rgb(255,255,255)" fill-opacity="1.0" stroke="rgb(0,0,0)" stroke-width="2"  />
			<g>
				<title>MFS_1 (PF07690)
"Major Facilitator Superfamily"</title>
				<polygon class="PF07690" points="456,40 468,28 469,28 469,52 468,52" stroke-linejoin="round" width="17" height="24" fill="rgb(193,224,74)" stroke="rgb(154,179,59)" stroke-width="1" opacity="0.75" />
			</g>
		</g>
		<g>
			<title> (ctg27_5)</title>
			<polygon class=" (ctg27_5)" points="527,10 554,40 527,70" fill="rgb(255,255,255)" fill-opacity="1.0" stroke="rgb(0,0,0)" stroke-width="2"  />
			<g>
				<title>Terpene_syn_C_2 (PF19086)
"Terpene synthase family 2, C-terminal metal binding"</title>
				<polygon class="PF19086" points="529,28 538,28 549,39 549,41 538,52 529,52" stroke-linejoin="round" width="20" height="24" fill="rgb(55,207,154)" stroke="rgb(43,165,123)" stroke-width="1" opacity="0.75" />
			</g>
		</g>
		<g>
			<title> (ctg27_6)</title>
			<polygon class=" (ctg27_6)" points="557,10 583,40 557,70" fill="rgb(255,255,255)" fill-opacity="1.0" stroke="rgb(0,0,0)" stroke-width="2"  />
			<g>
				<title>adh_short_C2 (PF13561)
"Enoyl-(Acyl carrier protein) reductase"</title>
				<polygon class="PF13561" points="558,28 568,28 579,40 568,52 558,52" stroke-linejoin="round" width="24" height="24" fill="rgb(73,205,127)" stroke="rgb(58,164,101)" stroke-width="1" opacity="0.75" />
			</g>
		</g>
		<g>
			<title> (ctg27_7)</title>
			<polygon class=" (ctg27_7)" points="583,25 613,25 613,10 643,40 613,70 613,55 583,55" fill="rgb(255,255,255)" fill-opacity="1.0" stroke="rgb(0,0,0)" stroke-width="2"  />
			<g>
				<title>TREH_N (PF19291)
"Trehalase-like, N-terminal"</title>
				<rect class="PF19291" x="583" y="28" stroke-linejoin="round" width="18" height="24" fill="rgb(73,223,127)" stroke="rgb(58,178,101)" stroke-width="1" opacity="0.75" />
			</g>
			<g>
				<title>Glyco_hydro_15 (PF00723)
"Glycosyl hydrolases family 15"</title>
				<polygon class="PF00723" points="605,28 627,28 638,39 638,41 627,52 605,52" stroke-linejoin="round" width="33" height="24" fill="rgb(185,199,89)" stroke="rgb(148,159,71)" stroke-width="1" opacity="0.75" />
			</g>
		</g>
		<g>
			<title> (ctg27_8)</title>
			<polygon class=" (ctg27_8)" points="657,10 670,40 657,70" fill="rgb(255,255,255)" fill-opacity="1.0" stroke="rgb(0,0,0)" stroke-width="2"  />
		</g>
		<g>
			<title> (ctg27_9)</title>
			<polygon class=" (ctg27_9)" points="676,10 705,40 676,70" fill="rgb(255,255,255)" fill-opacity="1.0" stroke="rgb(0,0,0)" stroke-width="2"  />
			<g>
				<title>Abhydrolase_1 (PF00561)
"alpha/beta hydrolase fold"</title>
				<polygon class="PF00561" points="678,28 689,28 701,40 689,52 678,52" stroke-linejoin="round" width="25" height="24" fill="rgb(86,180,151)" stroke="rgb(68,144,120)" stroke-width="1" opacity="0.75" />
			</g>
		</g>
		<g>
			<title> (ctg27_10)</title>
			<polygon class=" (ctg27_10)" points="737,25 735,25 735,10 705,40 735,70 735,55 737,55" fill="rgb(255,255,255)" fill-opacity="1.0" stroke="rgb(0,0,0)" stroke-width="2"  />
			<g>
				<title>HTH_18 (PF12833)
"Helix-turn-helix domain"</title>
				<polygon class="PF12833" points="709,40 713,36 713,44" stroke-linejoin="round" width="7" height="24" fill="rgb(216,58,224)" stroke="rgb(172,46,179)" stroke-width="1" opacity="0.75" />
			</g>
			<g>
				<title>DJ-1_PfpI (PF01965)
"DJ-1/PfpI family"</title>
				<polygon class="PF01965" points="720,29 721,28 737,28 737,52 721,52 720,51" stroke-linejoin="round" width="17" height="24" fill="rgb(66,224,145)" stroke="rgb(52,179,116)" stroke-width="1" opacity="0.75" />
			</g>
		</g>
		<g>
			<title> (ctg27_11)</title>
			<polygon class=" (ctg27_11)" points="740,10 762,40 740,70" fill="rgb(255,255,255)" fill-opacity="1.0" stroke="rgb(0,0,0)" stroke-width="2"  />
			<g>
				<title>DJ-1_PfpI (PF01965)
"DJ-1/PfpI family"</title>
				<polygon class="PF01965" points="740,28 750,28 756,36 756,44 750,52 740,52" stroke-linejoin="round" width="16" height="24" fill="rgb(66,224,145)" stroke="rgb(52,179,116)" stroke-width="1" opacity="0.75" />
			</g>
		</g>
		<g>
			<title> (ctg27_12)</title>
			<polygon class=" (ctg27_12)" points="770,10 796,40 770,70" fill="rgb(255,255,255)" fill-opacity="1.0" stroke="rgb(0,0,0)" stroke-width="2"  />
			<g>
				<title>Rce1-like (PF02517)
"Type II CAAX prenyl endopeptidase Rce1-like"</title>
				<polygon class="PF02517" points="785,32 792,40 785,48" stroke-linejoin="round" width="9" height="24" fill="rgb(150,86,216)" stroke="rgb(120,68,172)" stroke-width="1" opacity="0.75" />
			</g>
		</g>
		<g>
			<title> (ctg27_13)</title>
			<polygon class=" (ctg27_13)" points="800,25 822,25 822,10 852,40 822,70 822,55 800,55" fill="rgb(255,255,255)" fill-opacity="1.0" stroke="rgb(0,0,0)" stroke-width="2"  />
			<g>
				<title>PAS_3 (PF08447)
"PAS fold"</title>
				<rect class="PF08447" x="803" y="28" stroke-linejoin="round" width="8" height="24" fill="rgb(222,97,193)" stroke="rgb(177,77,154)" stroke-width="1" opacity="0.75" />
			</g>
			<g>
				<title>MCPsignal (PF00015)
"Methyl-accepting chemotaxis protein (MCP) signalling domain"</title>
				<polygon class="PF00015" points="831,28 835,28 847,40 835,52 831,52" stroke-linejoin="round" width="17" height="24" fill="rgb(104,174,223)" stroke="rgb(83,139,178)" stroke-width="1" opacity="0.75" />
			</g>
		</g>
		<g>
			<title> (ctg27_14)</title>
			<polygon class=" (ctg27_14)" points="858,10 875,40 858,70" fill="rgb(255,255,255)" fill-opacity="1.0" stroke="rgb(0,0,0)" stroke-width="2"  />
		</g>
		<g>
			<title> (ctg27_15)</title>
			<polygon class=" (ctg27_15)" points="897,40 919,10 919,70" fill="rgb(255,255,255)" fill-opacity="1.0" stroke="rgb(0,0,0)" stroke-width="2"  />
			<g>
				<title>Abhydrolase_11 (PF20408)
"Alpha/beta hydrolase domain"</title>
				<polygon class="PF20408" points="901,40 910,28 916,28 916,52 910,52" stroke-linejoin="round" width="19" height="24" fill="rgb(95,93,223)" stroke="rgb(76,74,178)" stroke-width="1" opacity="0.75" />
			</g>
		</g>
		<g>
			<title> (ctg27_16)</title>
			<polygon class=" (ctg27_16)" points="923,25 940,25 940,10 970,40 940,70 940,55 923,55" fill="rgb(255,255,255)" fill-opacity="1.0" stroke="rgb(0,0,0)" stroke-width="2"  />
			<g>
				<title>COX1 (PF00115)
"Cytochrome C and Quinol oxidase polypeptide I"</title>
				<polygon class="PF00115" points="924,28 954,28 966,40 954,52 924,52" stroke-linejoin="round" width="43" height="24" fill="rgb(64,128,197)" stroke="rgb(51,102,157)" stroke-width="1" opacity="0.75" />
			</g>
		</g>
		<g>
			<title> (ctg27_17)</title>
			<polygon class=" (ctg27_17)" points="971,10 991,40 971,70" fill="rgb(255,255,255)" fill-opacity="1.0" stroke="rgb(0,0,0)" stroke-width="2"  />
			<g>
				<title>FixO (PF02433)
"Cytochrome C oxidase, mono-heme subunit/FixO"</title>
				<polygon class="PF02433" points="971,28 979,28 987,40 979,52 971,52" stroke-linejoin="round" width="17" height="24" fill="rgb(185,78,189)" stroke="rgb(147,62,151)" stroke-width="1" opacity="0.75" />
			</g>
		</g>
		<g>
			<title> (ctg27_18)</title>
			<polygon class=" (ctg27_18)" points="991,10 997,40 991,70" fill="rgb(255,255,255)" fill-opacity="1.0" stroke="rgb(0,0,0)" stroke-width="2"  />
		</g>
		<g>
			<title> (ctg27_19)</title>
			<polygon class=" (ctg27_19)" points="998,25 999,25 999,10 1029,40 999,70 999,55 998,55" fill="rgb(255,255,255)" fill-opacity="1.0" stroke="rgb(0,0,0)" stroke-width="2"  />
			<g>
				<title>FixP_N (PF14715)
"N-terminal domain of cytochrome oxidase-cbb3, FixP"</title>
				<rect class="PF14715" x="1001" y="28" stroke-linejoin="round" width="4" height="24" fill="rgb(115,208,75)" stroke="rgb(92,166,60)" stroke-width="1" opacity="0.75" />
			</g>
			<g>
				<title>Cytochrome_CBB3 (PF13442)
"Cytochrome C oxidase, cbb3-type, subunit III"</title>
				<polygon class="PF13442" points="1011,28 1013,28 1018,33 1018,47 1013,52 1011,52" stroke-linejoin="round" width="7" height="24" fill="rgb(49,184,120)" stroke="rgb(39,147,96)" stroke-width="1" opacity="0.75" />
			</g>
			<g>
				<title>Cytochrome_CBB3 (PF13442)
"Cytochrome C oxidase, cbb3-type, subunit III"</title>
				<polygon class="PF13442" points="1020,35 1025,40 1020,45" stroke-linejoin="round" width="7" height="24" fill="rgb(49,184,120)" stroke="rgb(39,147,96)" stroke-width="1" opacity="0.75" />
			</g>
		</g>
	</g>
</svg>
