<svg version="1.1" baseProfile="full" xmlns="http://www.w3.org/2000/svg" width="711.6666666666666" height="80">
	<g>
		<line x1="10" y1="40.0" x2="701.6666666666666" y2="40.0" style="stroke:rgb(70,70,70); stroke-width:3 "/>
		<g>
			<title> (ctg30_129)</title>
			<polygon class=" (ctg30_129)" points="20,25 22,25 22,10 52,40 22,70 22,55 20,55" fill="rgb(255,255,255)" fill-opacity="1.0" stroke="rgb(0,0,0)" stroke-width="2"  />
			<g>
				<title>NMT1 (PF09084)
"NMT1/THI5 like"</title>
				<polygon class="PF09084" points="23,28 35,28 44,37 44,43 35,52 23,52" stroke-linejoin="round" width="21" height="24" fill="rgb(196,85,209)" stroke="rgb(156,68,167)" stroke-width="1" opacity="0.75" />
			</g>
		</g>
		<g>
			<title> (ctg30_130)</title>
			<polygon class=" (ctg30_130)" points="62,25 72,25 72,10 102,40 72,70 72,55 62,55" fill="rgb(255,255,255)" fill-opacity="1.0" stroke="rgb(0,0,0)" stroke-width="2"  />
			<g>
				<title>Peptidase_M19 (PF01244)
"Membrane dipeptidase (Peptidase family M19)"</title>
				<polygon class="PF01244" points="64,28 86,28 98,40 86,52 64,52" stroke-linejoin="round" width="36" height="24" fill="rgb(178,227,92)" stroke="rgb(142,181,73)" stroke-width="1" opacity="0.75" />
			</g>
		</g>
		<g>
			<title> (ctg30_131)</title>
			<polygon class=" (ctg30_131)" points="111,25 133,25 133,10 163,40 133,70 133,55 111,55" fill="rgb(255,255,255)" fill-opacity="1.0" stroke="rgb(0,0,0)" stroke-width="2"  />
			<g>
				<title>Amino_oxidase (PF01593)
"Flavin containing amine oxidoreductase"</title>
				<polygon class="PF01593" points="117,28 147,28 159,40 147,52 117,52" stroke-linejoin="round" width="45" height="24" fill="rgb(184,74,52)" stroke="rgb(147,59,41)" stroke-width="1" opacity="0.75" />
			</g>
		</g>
		<g>
			<title> (ctg30_132)</title>
			<polygon class=" (ctg30_132)" points="167,10 183,40 167,70" fill="rgb(255,255,255)" fill-opacity="1.0" stroke="rgb(0,0,0)" stroke-width="2"  />
			<g>
				<title>Ribonuc_L-PSP (PF01042)
"Endoribonuclease L-PSP"</title>
				<polygon class="PF01042" points="170,28 173,28 180,40 173,52 170,52" stroke-linejoin="round" width="12" height="24" fill="rgb(93,120,208)" stroke="rgb(74,96,166)" stroke-width="1" opacity="0.75" />
			</g>
		</g>
		<g>
			<title> (ctg30_133)</title>
			<polygon class=" (ctg30_133)" points="184,25 236,25 236,10 266,40 236,70 236,55 184,55" fill="rgb(255,255,255)" fill-opacity="1.0" stroke="rgb(0,0,0)" stroke-width="2"  />
			<g>
				<title>Plug (PF07715)
"TonB-dependent Receptor Plug Domain"</title>
				<rect class="PF07715" x="189" y="28" stroke-linejoin="round" width="12" height="24" fill="rgb(99,133,214)" stroke="rgb(79,106,171)" stroke-width="1" opacity="0.75" />
			</g>
			<g>
				<title>TonB_dep_Rec (PF00593)
"TonB dependent receptor"</title>
				<polygon class="PF00593" points="201,28 250,28 262,40 250,52 201,52" stroke-linejoin="round" width="64" height="24" fill="rgb(171,200,51)" stroke="rgb(136,160,40)" stroke-width="1" opacity="0.75" />
			</g>
		</g>
		<g>
			<title> (ctg30_134)</title>
			<polygon class=" (ctg30_134)" points="275,25 276,25 276,10 306,40 276,70 276,55 275,55" fill="rgb(255,255,255)" fill-opacity="1.0" stroke="rgb(0,0,0)" stroke-width="2"  />
			<g>
				<title>NMT1 (PF09084)
"NMT1/THI5 like"</title>
				<polygon class="PF09084" points="280,28 290,28 299,37 299,43 290,52 280,52" stroke-linejoin="round" width="19" height="24" fill="rgb(196,85,209)" stroke="rgb(156,68,167)" stroke-width="1" opacity="0.75" />
			</g>
		</g>
		<g>
			<title> (ctg30_135)</title>
			<polygon class=" (ctg30_135)" points="317,10 342,40 317,70" fill="rgb(255,255,255)" fill-opacity="1.0" stroke="rgb(0,0,0)" stroke-width="2"  />
			<g>
				<title>2OG-FeII_Oxy_3 (PF13640)
"2OG-Fe(II) oxygenase superfamily"</title>
				<polygon class="PF13640" points="329,28 329,28 338,40 329,52 329,52" stroke-linejoin="round" width="11" height="24" fill="rgb(163,67,223)" stroke="rgb(130,53,178)" stroke-width="1" opacity="0.75" />
			</g>
		</g>
		<g>
			<title> (ctg30_136)</title>
			<polygon class=" (ctg30_136)" points="343,10 368,40 343,70" fill="rgb(255,255,255)" fill-opacity="1.0" stroke="rgb(0,0,0)" stroke-width="2"  />
			<g>
				<title>CDPS (PF16715)
"Cyclodipeptide synthase"</title>
				<polygon class="PF16715" points="344,28 354,28 361,37 361,43 354,52 344,52" stroke-linejoin="round" width="17" height="24" fill="rgb(66,210,97)" stroke="rgb(52,168,77)" stroke-width="1" opacity="0.75" />
			</g>
		</g>
		<g>
			<title> (ctg30_137)</title>
			<polygon class=" (ctg30_137)" points="372,25 389,25 389,10 419,40 389,70 389,55 372,55" fill="rgb(255,255,255)" fill-opacity="1.0" stroke="rgb(0,0,0)" stroke-width="2"  />
			<g>
				<title>MFS_1 (PF07690)
"Major Facilitator Superfamily"</title>
				<polygon class="PF07690" points="373,28 403,28 412,37 412,43 403,52 373,52" stroke-linejoin="round" width="39" height="24" fill="rgb(193,224,74)" stroke="rgb(154,179,59)" stroke-width="1" opacity="0.75" />
			</g>
		</g>
		<g>
			<title> (ctg30_138)</title>
			<polygon class=" (ctg30_138)" points="420,25 435,25 435,10 465,40 435,70 435,55 420,55" fill="rgb(255,255,255)" fill-opacity="1.0" stroke="rgb(0,0,0)" stroke-width="2"  />
			<g>
				<title>Bac_luciferase (PF00296)
"Luciferase-like monooxygenase"</title>
				<polygon class="PF00296" points="421,28 448,28 458,38 458,42 448,52 421,52" stroke-linejoin="round" width="37" height="24" fill="rgb(180,112,78)" stroke="rgb(144,89,62)" stroke-width="1" opacity="0.75" />
			</g>
		</g>
		<g>
			<title> (ctg30_139)</title>
			<polygon class=" (ctg30_139)" points="467,10 478,40 467,70" fill="rgb(255,255,255)" fill-opacity="1.0" stroke="rgb(0,0,0)" stroke-width="2"  />
			<g>
				<title>DUF1508 (PF07411)
"Domain of unknown function (DUF1508)"</title>
				<polygon class="PF07411" points="468,28 470,28 472,32 472,48 470,52 468,52" stroke-linejoin="round" width="4" height="24" fill="rgb(180,105,74)" stroke="rgb(144,84,59)" stroke-width="1" opacity="0.75" />
			</g>
			<g>
				<title>DUF1508 (PF07411)
"Domain of unknown function (DUF1508)"</title>
				<polygon class="PF07411" points="473,35 475,40 473,45" stroke-linejoin="round" width="4" height="24" fill="rgb(180,105,74)" stroke="rgb(144,84,59)" stroke-width="1" opacity="0.75" />
			</g>
		</g>
		<g>
			<title> (ctg30_140)</title>
			<polygon class=" (ctg30_140)" points="487,10 508,40 487,70" fill="rgb(255,255,255)" fill-opacity="1.0" stroke="rgb(0,0,0)" stroke-width="2"  />
		</g>
		<g>
			<title> (ctg30_141)</title>
			<polygon class=" (ctg30_141)" points="509,10 526,40 509,70" fill="rgb(255,255,255)" fill-opacity="1.0" stroke="rgb(0,0,0)" stroke-width="2"  />
		</g>
		<g>
			<title> (ctg30_142)</title>
			<polygon class=" (ctg30_142)" points="529,40 558,10 558,70" fill="rgb(255,255,255)" fill-opacity="1.0" stroke="rgb(0,0,0)" stroke-width="2"  />
			<g>
				<title>DHDPS (PF00701)
"Dihydrodipicolinate synthetase family"</title>
				<polygon class="PF00701" points="533,40 545,28 557,28 557,52 545,52" stroke-linejoin="round" width="28" height="24" fill="rgb(80,204,82)" stroke="rgb(64,163,65)" stroke-width="1" opacity="0.75" />
			</g>
		</g>
		<g>
			<title> (ctg30_143)</title>
			<polygon class=" (ctg30_143)" points="559,40 585,10 585,70" fill="rgb(255,255,255)" fill-opacity="1.0" stroke="rgb(0,0,0)" stroke-width="2"  />
			<g>
				<title>Aldolase_II (PF00596)
"Class II Aldolase and Adducin N-terminal domain"</title>
				<polygon class="PF00596" points="564,39 573,28 581,28 581,52 573,52 564,41" stroke-linejoin="round" width="17" height="24" fill="rgb(208,130,90)" stroke="rgb(166,104,72)" stroke-width="1" opacity="0.75" />
			</g>
		</g>
		<g>
			<title> (ctg30_144)</title>
			<polygon class=" (ctg30_144)" points="591,10 609,40 591,70" fill="rgb(255,255,255)" fill-opacity="1.0" stroke="rgb(0,0,0)" stroke-width="2"  />
			<g>
				<title>HTH_3 (PF01381)
"Helix-turn-helix"</title>
				<rect class="PF01381" x="591" y="28" stroke-linejoin="round" width="5" height="24" fill="rgb(105,79,202)" stroke="rgb(83,63,161)" stroke-width="1" opacity="0.75" />
			</g>
			<g>
				<title>Cupin_2 (PF07883)
"Cupin domain"</title>
				<polygon class="PF07883" points="601,33 605,40 601,47" stroke-linejoin="round" width="7" height="24" fill="rgb(211,192,74)" stroke="rgb(168,153,59)" stroke-width="1" opacity="0.75" />
			</g>
		</g>
		<g>
			<title> (ctg30_145)</title>
			<polygon class=" (ctg30_145)" points="646,25 642,25 642,10 612,40 642,70 642,55 646,55" fill="rgb(255,255,255)" fill-opacity="1.0" stroke="rgb(0,0,0)" stroke-width="2"  />
			<g>
				<title>DUF4917 (PF16263)
"Domain of unknown function (DUF4917)"</title>
				<polygon class="PF16263" points="616,40 628,28 643,28 643,52 628,52" stroke-linejoin="round" width="30" height="24" fill="rgb(99,186,219)" stroke="rgb(79,148,175)" stroke-width="1" opacity="0.75" />
			</g>
		</g>
		<g>
			<title> (ctg30_146)</title>
			<polygon class=" (ctg30_146)" points="652,25 660,25 660,10 690,40 660,70 660,55 652,55" fill="rgb(255,255,255)" fill-opacity="1.0" stroke="rgb(0,0,0)" stroke-width="2"  />
			<g>
				<title>Fe-ADH (PF00465)
"Iron-containing alcohol dehydrogenase"</title>
				<polygon class="PF00465" points="652,28 674,28 686,40 674,52 652,52" stroke-linejoin="round" width="36" height="24" fill="rgb(73,179,216)" stroke="rgb(58,143,172)" stroke-width="1" opacity="0.75" />
			</g>
		</g>
	</g>
</svg>
