<svg version="1.1" baseProfile="full" xmlns="http://www.w3.org/2000/svg" width="455.4" height="80">
	<g>
		<line x1="10" y1="40.0" x2="445.4" y2="40.0" style="stroke:rgb(70,70,70); stroke-width:3 "/>
		<g>
			<title> (ctg209_1)</title>
			<polygon class=" (ctg209_1)" points="69,25 40,25 40,10 10,40 40,70 40,55 69,55" fill="rgb(255,255,255)" fill-opacity="1.0" stroke="rgb(0,0,0)" stroke-width="2"  />
			<g>
				<title>Glyco_hydro_15 (PF00723)
"Glycosyl hydrolases family 15"</title>
				<polygon class="PF00723" points="14,40 26,28 47,28 47,52 26,52 14,40" stroke-linejoin="round" width="33" height="24" fill="rgb(185,199,89)" stroke="rgb(148,159,71)" stroke-width="1" opacity="0.75" />
			</g>
			<g>
				<title>TREH_N (PF19291)
"Trehalase-like, N-terminal"</title>
				<rect class="PF19291" x="50" y="28" stroke-linejoin="round" width="18" height="24" fill="rgb(73,223,127)" stroke="rgb(58,178,101)" stroke-width="1" opacity="0.75" />
			</g>
		</g>
		<g>
			<title> (ctg209_2)</title>
			<polygon class=" (ctg209_2)" points="77,25 82,25 82,10 112,40 82,70 82,55 77,55" fill="rgb(255,255,255)" fill-opacity="1.0" stroke="rgb(0,0,0)" stroke-width="2"  />
			<g>
				<title>ACP_syn_III_C (PF08541)
"3-Oxoacyl-[acyl-carrier-protein (ACP)] synthase III C terminal"</title>
				<polygon class="PF08541" points="103,36 107,40 103,44" stroke-linejoin="round" width="8" height="24" fill="rgb(146,207,81)" stroke="rgb(116,165,64)" stroke-width="1" opacity="0.75" />
			</g>
		</g>
		<g>
			<title> (ctg209_3)</title>
			<polygon class=" (ctg209_3)" points="163,25 144,25 144,10 114,40 144,70 144,55 163,55" fill="rgb(255,255,255)" fill-opacity="1.0" stroke="rgb(0,0,0)" stroke-width="2"  />
			<g>
				<title>G6PD_C (PF02781)
"Glucose-6-phosphate dehydrogenase, C-terminal domain"</title>
				<polygon class="PF02781" points="118,40 130,28 143,28 143,52 130,52" stroke-linejoin="round" width="29" height="24" fill="rgb(161,208,98)" stroke="rgb(128,166,78)" stroke-width="1" opacity="0.75" />
			</g>
			<g>
				<title>G6PD_N (PF00479)
"Glucose-6-phosphate dehydrogenase, NAD binding domain"</title>
				<rect class="PF00479" x="144" y="28" stroke-linejoin="round" width="17" height="24" fill="rgb(176,80,200)" stroke="rgb(140,64,160)" stroke-width="1" opacity="0.75" />
			</g>
		</g>
		<g>
			<title> (ctg209_4)</title>
			<polygon class=" (ctg209_4)" points="195,25 193,25 193,10 163,40 193,70 193,55 195,55" fill="rgb(255,255,255)" fill-opacity="1.0" stroke="rgb(0,0,0)" stroke-width="2"  />
			<g>
				<title>6PGD (PF00393)
"6-phosphogluconate dehydrogenase, C-terminal domain"</title>
				<polygon class="PF00393" points="167,40 176,31 176,49" stroke-linejoin="round" width="12" height="24" fill="rgb(57,119,210)" stroke="rgb(45,95,168)" stroke-width="1" opacity="0.75" />
			</g>
			<g>
				<title>NAD_binding_2 (PF03446)
"NAD binding domain of 6-phosphogluconate dehydrogenase"</title>
				<polygon class="PF03446" points="179,28 179,28 194,28 194,52 179,52 179,52" stroke-linejoin="round" width="15" height="24" fill="rgb(205,164,98)" stroke="rgb(164,131,78)" stroke-width="1" opacity="0.75" />
			</g>
		</g>
		<g>
			<title> (ctg209_5)</title>
			<polygon class=" (ctg209_5)" points="203,10 208,40 203,70" fill="rgb(255,255,255)" fill-opacity="1.0" stroke="rgb(0,0,0)" stroke-width="2"  />
			<g>
				<title>DUF6026 (PF19491)
"Family of unknown function (DUF6026)"</title>
				<polygon class="PF19491" points="203,27 205,40 203,53" stroke-linejoin="round" width="5" height="24" fill="rgb(63,49,181)" stroke="rgb(50,39,144)" stroke-width="1" opacity="0.75" />
			</g>
		</g>
		<g>
			<title> (ctg209_6)</title>
			<polygon class=" (ctg209_6)" points="225,25 247,25 247,10 277,40 247,70 247,55 225,55" fill="rgb(255,255,255)" fill-opacity="1.0" stroke="rgb(0,0,0)" stroke-width="2"  />
			<g>
				<title>Glyco_transf_5 (PF08323)
"Starch synthase catalytic domain"</title>
				<rect class="PF08323" x="229" y="28" stroke-linejoin="round" width="23" height="24" fill="rgb(85,134,200)" stroke="rgb(67,107,160)" stroke-width="1" opacity="0.75" />
			</g>
			<g>
				<title>Glycos_transf_1 (PF00534)
"Glycosyl transferases group 1"</title>
				<polygon class="PF00534" points="257,28 260,28 272,40 272,40 260,52 257,52" stroke-linejoin="round" width="15" height="24" fill="rgb(228,92,150)" stroke="rgb(182,73,119)" stroke-width="1" opacity="0.75" />
			</g>
		</g>
		<g>
			<title> (ctg209_7)</title>
			<polygon class=" (ctg209_7)" points="277,25 305,25 305,10 335,40 305,70 305,55 277,55" fill="rgb(255,255,255)" fill-opacity="1.0" stroke="rgb(0,0,0)" stroke-width="2"  />
			<g>
				<title>Alpha-amylase (PF00128)
"Alpha amylase, catalytic domain"</title>
				<rect class="PF00128" x="288" y="28" stroke-linejoin="round" width="10" height="24" fill="rgb(72,189,149)" stroke="rgb(57,151,119)" stroke-width="1" opacity="0.75" />
			</g>
			<g>
				<title>Alpha-amylase (PF00128)
"Alpha amylase, catalytic domain"</title>
				<rect class="PF00128" x="298" y="28" stroke-linejoin="round" width="20" height="24" fill="rgb(72,189,149)" stroke="rgb(57,151,119)" stroke-width="1" opacity="0.75" />
			</g>
			<g>
				<title>DUF3459 (PF11941)
"Domain of unknown function (DUF3459)"</title>
				<polygon class="PF11941" points="325,35 330,40 325,45" stroke-linejoin="round" width="8" height="24" fill="rgb(55,147,193)" stroke="rgb(44,117,154)" stroke-width="1" opacity="0.75" />
			</g>
		</g>
		<g>
			<title> (ctg209_8)</title>
			<polygon class=" (ctg209_8)" points="335,25 374,25 374,10 404,40 374,70 374,55 335,55" fill="rgb(255,255,255)" fill-opacity="1.0" stroke="rgb(0,0,0)" stroke-width="2"  />
			<g>
				<title>Glyco_hydro_77 (PF02446)
"4-alpha-glucanotransferase"</title>
				<polygon class="PF02446" points="350,28 387,28 399,40 387,52 350,52" stroke-linejoin="round" width="50" height="24" fill="rgb(223,71,228)" stroke="rgb(178,56,182)" stroke-width="1" opacity="0.75" />
			</g>
		</g>
	</g>
</svg>
