<svg version="1.1" baseProfile="full" xmlns="http://www.w3.org/2000/svg" width="2231.4" height="80">
	<g>
		<line x1="10" y1="40.0" x2="2221.4" y2="40.0" style="stroke:rgb(70,70,70); stroke-width:3 "/>
		<g>
			<title> (ctg14_134)</title>
			<polygon class=" (ctg14_134)" points="17,10 24,40 17,70" fill="rgb(255,255,255)" fill-opacity="1.0" stroke="rgb(0,0,0)" stroke-width="2"  />
		</g>
		<g>
			<title> (ctg14_135)</title>
			<polygon class=" (ctg14_135)" points="24,10 43,40 24,70" fill="rgb(255,255,255)" fill-opacity="1.0" stroke="rgb(0,0,0)" stroke-width="2"  />
			<g>
				<title>Sigma70_r2 (PF04542)
"Sigma-70 region 2"</title>
				<polygon class="PF04542" points="26,28 32,28 33,30 33,50 32,52 26,52" stroke-linejoin="round" width="7" height="24" fill="rgb(184,59,197)" stroke="rgb(147,47,157)" stroke-width="1" opacity="0.75" />
			</g>
		</g>
		<g>
			<title> (ctg14_136)</title>
			<polygon class=" (ctg14_136)" points="45,10 49,40 45,70" fill="rgb(255,255,255)" fill-opacity="1.0" stroke="rgb(0,0,0)" stroke-width="2"  />
		</g>
		<g>
			<title> (ctg14_137)</title>
			<polygon class=" (ctg14_137)" points="51,10 74,40 51,70" fill="rgb(255,255,255)" fill-opacity="1.0" stroke="rgb(0,0,0)" stroke-width="2"  />
			<g>
				<title>HAD_2 (PF13419)
"Haloacid dehalogenase-like hydrolase"</title>
				<polygon class="PF13419" points="51,28 61,28 70,40 61,52 51,52" stroke-linejoin="round" width="20" height="24" fill="rgb(60,223,188)" stroke="rgb(48,178,150)" stroke-width="1" opacity="0.75" />
			</g>
		</g>
		<g>
			<title> (ctg14_138)</title>
			<polygon class=" (ctg14_138)" points="81,10 96,40 81,70" fill="rgb(255,255,255)" fill-opacity="1.0" stroke="rgb(0,0,0)" stroke-width="2"  />
			<g>
				<title>PepSY_like (PF11396)
"Putative beta-lactamase-inhibitor-like, PepSY-like"</title>
				<polygon class="PF11396" points="87,29 92,40 87,51" stroke-linejoin="round" width="8" height="24" fill="rgb(53,67,196)" stroke="rgb(42,53,156)" stroke-width="1" opacity="0.75" />
			</g>
		</g>
		<g>
			<title> (ctg14_139)</title>
			<polygon class=" (ctg14_139)" points="97,10 103,40 97,70" fill="rgb(255,255,255)" fill-opacity="1.0" stroke="rgb(0,0,0)" stroke-width="2"  />
		</g>
		<g>
			<title> (ctg14_140)</title>
			<polygon class=" (ctg14_140)" points="111,10 133,40 111,70" fill="rgb(255,255,255)" fill-opacity="1.0" stroke="rgb(0,0,0)" stroke-width="2"  />
			<g>
				<title>Response_reg (PF00072)
"Response regulator receiver domain"</title>
				<polygon class="PF00072" points="111,28 120,28 122,30 122,50 120,52 111,52" stroke-linejoin="round" width="11" height="24" fill="rgb(100,107,203)" stroke="rgb(80,85,162)" stroke-width="1" opacity="0.75" />
			</g>
			<g>
				<title>Trans_reg_C (PF00486)
"Transcriptional regulatory protein, C terminal"</title>
				<polygon class="PF00486" points="125,34 129,40 125,46" stroke-linejoin="round" width="7" height="24" fill="rgb(204,153,57)" stroke="rgb(163,122,45)" stroke-width="1" opacity="0.75" />
			</g>
		</g>
		<g>
			<title> (ctg14_141)</title>
			<polygon class=" (ctg14_141)" points="133,25 145,25 145,10 175,40 145,70 145,55 133,55" fill="rgb(255,255,255)" fill-opacity="1.0" stroke="rgb(0,0,0)" stroke-width="2"  />
			<g>
				<title>HisKA (PF00512)
"His Kinase A (phospho-acceptor) domain"</title>
				<polygon class="PF00512" points="154,28 159,28 160,29 160,51 159,52 154,52" stroke-linejoin="round" width="6" height="24" fill="rgb(193,125,62)" stroke="rgb(154,100,49)" stroke-width="1" opacity="0.75" />
			</g>
			<g>
				<title>HATPase_c (PF02518)
"Histidine kinase-, DNA gyrase B-, and HSP90-like ATPase"</title>
				<polygon class="PF02518" points="165,34 171,40 165,46" stroke-linejoin="round" width="9" height="24" fill="rgb(80,94,225)" stroke="rgb(64,75,180)" stroke-width="1" opacity="0.75" />
			</g>
		</g>
		<g>
			<title> (ctg14_142)</title>
			<polygon class=" (ctg14_142)" points="210,25 208,25 208,10 178,40 208,70 208,55 210,55" fill="rgb(255,255,255)" fill-opacity="1.0" stroke="rgb(0,0,0)" stroke-width="2"  />
			<g>
				<title>tRNA-synt_1b (PF00579)
"tRNA synthetases class I (W and Y)"</title>
				<polygon class="PF00579" points="182,40 194,28 209,28 209,52 194,52 182,40" stroke-linejoin="round" width="27" height="24" fill="rgb(82,63,204)" stroke="rgb(65,50,163)" stroke-width="1" opacity="0.75" />
			</g>
		</g>
		<g>
			<title> (ctg14_143)</title>
			<polygon class=" (ctg14_143)" points="220,40 241,10 241,70" fill="rgb(255,255,255)" fill-opacity="1.0" stroke="rgb(0,0,0)" stroke-width="2"  />
			<g>
				<title>DUF218 (PF02698)
"DUF218 domain"</title>
				<polygon class="PF02698" points="224,40 233,28 236,28 236,52 233,52" stroke-linejoin="round" width="14" height="24" fill="rgb(60,150,205)" stroke="rgb(48,120,164)" stroke-width="1" opacity="0.75" />
			</g>
		</g>
		<g>
			<title> (ctg14_144)</title>
			<polygon class=" (ctg14_144)" points="242,40 263,10 263,70" fill="rgb(255,255,255)" fill-opacity="1.0" stroke="rgb(0,0,0)" stroke-width="2"  />
			<g>
				<title>Peptidase_A8 (PF01252)
"Signal peptidase (SPase) II"</title>
				<polygon class="PF01252" points="246,40 255,28 262,28 262,52 255,52" stroke-linejoin="round" width="19" height="24" fill="rgb(79,62,214)" stroke="rgb(63,49,171)" stroke-width="1" opacity="0.75" />
			</g>
		</g>
		<g>
			<title> (ctg14_145)</title>
			<polygon class=" (ctg14_145)" points="263,40 269,10 269,70" fill="rgb(255,255,255)" fill-opacity="1.0" stroke="rgb(0,0,0)" stroke-width="2"  />
		</g>
		<g>
			<title> (ctg14_146)</title>
			<polygon class=" (ctg14_146)" points="270,40 278,10 278,70" fill="rgb(255,255,255)" fill-opacity="1.0" stroke="rgb(0,0,0)" stroke-width="2"  />
			<g>
				<title>DUF6576 (PF20216)
"Family of unknown function (DUF6576)"</title>
				<polygon class="PF20216" points="273,40 274,36 274,44" stroke-linejoin="round" width="4" height="24" fill="rgb(49,139,186)" stroke="rgb(39,111,148)" stroke-width="1" opacity="0.75" />
			</g>
		</g>
		<g>
			<title> (ctg14_147)</title>
			<polygon class=" (ctg14_147)" points="281,40 293,10 293,70" fill="rgb(255,255,255)" fill-opacity="1.0" stroke="rgb(0,0,0)" stroke-width="2"  />
			<g>
				<title>zf-dskA_traR (PF01258)
"Prokaryotic dksA/traR C4-type zinc finger"</title>
				<polygon class="PF01258" points="284,40 284,40 284,40" stroke-linejoin="round" width="3" height="24" fill="rgb(77,182,70)" stroke="rgb(61,145,56)" stroke-width="1" opacity="0.75" />
			</g>
		</g>
		<g>
			<title> (ctg14_148)</title>
			<polygon class=" (ctg14_148)" points="409,25 326,25 326,10 296,40 326,70 326,55 409,55" fill="rgb(255,255,255)" fill-opacity="1.0" stroke="rgb(0,0,0)" stroke-width="2"  />
			<g>
				<title>DUF5915 (PF19302)
"Domain of unknown function (DUF5915)"</title>
				<polygon class="PF19302" points="300,40 312,28 315,28 315,52 312,52" stroke-linejoin="round" width="19" height="24" fill="rgb(101,226,140)" stroke="rgb(80,180,112)" stroke-width="1" opacity="0.75" />
			</g>
			<g>
				<title>Anticodon_1 (PF08264)
"Anticodon-binding domain of tRNA ligase"</title>
				<rect class="PF08264" x="317" y="28" stroke-linejoin="round" width="15" height="24" fill="rgb(85,52,208)" stroke="rgb(68,41,166)" stroke-width="1" opacity="0.75" />
			</g>
			<g>
				<title>tRNA-synt_1 (PF00133)
"tRNA synthetases class I (I, L, M and V)"</title>
				<rect class="PF00133" x="336" y="28" stroke-linejoin="round" width="70" height="24" fill="rgb(209,58,146)" stroke="rgb(167,46,116)" stroke-width="1" opacity="0.75" />
			</g>
		</g>
		<g>
			<title> (ctg14_149)</title>
			<polygon class=" (ctg14_149)" points="424,25 450,25 450,10 480,40 450,70 450,55 424,55" fill="rgb(255,255,255)" fill-opacity="1.0" stroke="rgb(0,0,0)" stroke-width="2"  />
			<g>
				<title>Peptidase_M23 (PF01551)
"Peptidase family M23"</title>
				<rect class="PF01551" x="429" y="28" stroke-linejoin="round" width="7" height="24" fill="rgb(65,169,193)" stroke="rgb(51,135,154)" stroke-width="1" opacity="0.75" />
			</g>
			<g>
				<title>Peptidase_M23 (PF01551)
"Peptidase family M23"</title>
				<rect class="PF01551" x="436" y="28" stroke-linejoin="round" width="4" height="24" fill="rgb(65,169,193)" stroke="rgb(51,135,154)" stroke-width="1" opacity="0.75" />
			</g>
		</g>
		<g>
			<title> (ctg14_150)</title>
			<polygon class=" (ctg14_150)" points="483,25 496,25 496,10 526,40 496,70 496,55 483,55" fill="rgb(255,255,255)" fill-opacity="1.0" stroke="rgb(0,0,0)" stroke-width="2"  />
			<g>
				<title>AMP-binding (PF00501)
"AMP-binding enzyme"</title>
				<polygon class="PF00501" points="485,28 509,28 511,30 511,50 509,52 485,52" stroke-linejoin="round" width="26" height="24" fill="rgb(60,217,223)" stroke="rgb(48,173,178)" stroke-width="1" opacity="0.75" />
			</g>
		</g>
		<g>
			<title> (ctg14_151)</title>
			<polygon class=" (ctg14_151)" points="529,10 549,40 529,70" fill="rgb(255,255,255)" fill-opacity="1.0" stroke="rgb(0,0,0)" stroke-width="2"  />
		</g>
		<g>
			<title> (ctg14_152)</title>
			<polygon class=" (ctg14_152)" points="591,25 580,25 580,10 550,40 580,70 580,55 591,55" fill="rgb(255,255,255)" fill-opacity="1.0" stroke="rgb(0,0,0)" stroke-width="2"  />
			<g>
				<title>FAD_binding_3 (PF01494)
"FAD binding domain"</title>
				<polygon class="PF01494" points="559,35 566,28 590,28 590,52 566,52 559,45" stroke-linejoin="round" width="31" height="24" fill="rgb(182,175,59)" stroke="rgb(145,140,47)" stroke-width="1" opacity="0.75" />
			</g>
		</g>
		<g>
			<title> (ctg14_153)</title>
			<polygon class=" (ctg14_153)" points="595,25 615,25 615,10 645,40 615,70 615,55 595,55" fill="rgb(255,255,255)" fill-opacity="1.0" stroke="rgb(0,0,0)" stroke-width="2"  />
			<g>
				<title>Lyase_aromatic (PF00221)
"Aromatic amino acid lyase"</title>
				<polygon class="PF00221" points="595,28 629,28 641,40 629,52 595,52" stroke-linejoin="round" width="47" height="24" fill="rgb(182,133,62)" stroke="rgb(145,106,49)" stroke-width="1" opacity="0.75" />
			</g>
		</g>
		<g>
			<title> (ctg14_154)</title>
			<polygon class=" (ctg14_154)" points="648,10 672,40 648,70" fill="rgb(255,255,255)" fill-opacity="1.0" stroke="rgb(0,0,0)" stroke-width="2"  />
			<g>
				<title>adh_short_C2 (PF13561)
"Enoyl-(Acyl carrier protein) reductase"</title>
				<polygon class="PF13561" points="648,28 659,28 668,40 659,52 648,52" stroke-linejoin="round" width="23" height="24" fill="rgb(73,205,127)" stroke="rgb(58,164,101)" stroke-width="1" opacity="0.75" />
			</g>
		</g>
		<g>
			<title> (ctg14_155)</title>
			<polygon class=" (ctg14_155)" points="676,25 686,25 686,10 716,40 686,70 686,55 676,55" fill="rgb(255,255,255)" fill-opacity="1.0" stroke="rgb(0,0,0)" stroke-width="2"  />
			<g>
				<title>ketoacyl-synt (PF00109)
"Beta-ketoacyl synthase, N-terminal domain"</title>
				<rect class="PF00109" x="676" y="28" stroke-linejoin="round" width="24" height="24" fill="rgb(112,116,228)" stroke="rgb(89,92,182)" stroke-width="1" opacity="0.75" />
			</g>
			<g>
				<title>Ketoacyl-synt_C (PF02801)
"Beta-ketoacyl synthase, C-terminal domain"</title>
				<polygon class="PF02801" points="701,29 712,40 712,40 701,51" stroke-linejoin="round" width="11" height="24" fill="rgb(215,78,102)" stroke="rgb(172,62,81)" stroke-width="1" opacity="0.75" />
			</g>
		</g>
		<g>
			<title> (ctg14_156)</title>
			<polygon class=" (ctg14_156)" points="717,10 725,40 717,70" fill="rgb(255,255,255)" fill-opacity="1.0" stroke="rgb(0,0,0)" stroke-width="2"  />
			<g>
				<title>PP-binding (PF00550)
"Phosphopantetheine attachment site"</title>
				<polygon class="PF00550" points="717,28 718,28 722,40 718,52 717,52" stroke-linejoin="round" width="7" height="24" fill="rgb(103,191,88)" stroke="rgb(82,152,70)" stroke-width="1" opacity="0.75" />
			</g>
		</g>
		<g>
			<title> (ctg14_157)</title>
			<polygon class=" (ctg14_157)" points="729,10 758,40 729,70" fill="rgb(255,255,255)" fill-opacity="1.0" stroke="rgb(0,0,0)" stroke-width="2"  />
			<g>
				<title>Lip_A_acyltrans (PF03279)
"Bacterial lipid A biosynthesis acyltransferase"</title>
				<polygon class="PF03279" points="729,28 742,28 754,40 742,52 729,52" stroke-linejoin="round" width="28" height="24" fill="rgb(95,219,149)" stroke="rgb(76,175,119)" stroke-width="1" opacity="0.75" />
			</g>
		</g>
		<g>
			<title> (ctg14_158)</title>
			<polygon class=" (ctg14_158)" points="764,25 784,25 784,10 814,40 784,70 784,55 764,55" fill="rgb(255,255,255)" fill-opacity="1.0" stroke="rgb(0,0,0)" stroke-width="2"  />
			<g>
				<title>NAD_binding_8 (PF13450)
"NAD(P)-binding Rossmann-like domain"</title>
				<rect class="PF13450" x="764" y="28" stroke-linejoin="round" width="6" height="24" fill="rgb(91,180,227)" stroke="rgb(72,144,181)" stroke-width="1" opacity="0.75" />
			</g>
		</g>
		<g>
			<title> (ctg14_159)</title>
			<polygon class=" (ctg14_159)" points="815,25 841,25 841,10 871,40 841,70 841,55 815,55" fill="rgb(255,255,255)" fill-opacity="1.0" stroke="rgb(0,0,0)" stroke-width="2"  />
			<g>
				<title>AAT (PF03417)
"Acyl-coenzyme A:6-aminopenicillanic acid acyl-transferase"</title>
				<polygon class="PF03417" points="834,28 855,28 857,30 857,50 855,52 834,52" stroke-linejoin="round" width="23" height="24" fill="rgb(101,81,194)" stroke="rgb(80,64,155)" stroke-width="1" opacity="0.75" />
			</g>
		</g>
		<g>
			<title> (ctg14_160)</title>
			<polygon class=" (ctg14_160)" points="871,10 883,40 871,70" fill="rgb(255,255,255)" fill-opacity="1.0" stroke="rgb(0,0,0)" stroke-width="2"  />
		</g>
		<g>
			<title> (ctg14_161)</title>
			<polygon class=" (ctg14_161)" points="884,25 895,25 895,10 925,40 895,70 895,55 884,55" fill="rgb(255,255,255)" fill-opacity="1.0" stroke="rgb(0,0,0)" stroke-width="2"  />
			<g>
				<title>DUF3887 (PF13026)
"Protein of unknown function (DUF3887)"</title>
				<rect class="PF13026" x="886" y="28" stroke-linejoin="round" width="8" height="24" fill="rgb(146,81,179)" stroke="rgb(116,64,143)" stroke-width="1" opacity="0.75" />
			</g>
			<g>
				<title>Hydrolase_4 (PF12146)
"Serine aminopeptidase, S33"</title>
				<polygon class="PF12146" points="898,28 909,28 921,40 909,52 898,52" stroke-linejoin="round" width="24" height="24" fill="rgb(140,98,205)" stroke="rgb(112,78,164)" stroke-width="1" opacity="0.75" />
			</g>
		</g>
		<g>
			<title> (ctg14_162)</title>
			<polygon class=" (ctg14_162)" points="967,25 958,25 958,10 928,40 958,70 958,55 967,55" fill="rgb(255,255,255)" fill-opacity="1.0" stroke="rgb(0,0,0)" stroke-width="2"  />
			<g>
				<title>DUF2062 (PF09835)
"Uncharacterized protein conserved in bacteria (DUF2062)"</title>
				<polygon class="PF09835" points="932,40 941,31 941,49" stroke-linejoin="round" width="13" height="24" fill="rgb(205,100,69)" stroke="rgb(164,80,55)" stroke-width="1" opacity="0.75" />
			</g>
			<g>
				<title>Glycos_transf_2 (PF00535)
"Glycosyl transferase family 2"</title>
				<rect class="PF00535" x="949" y="28" stroke-linejoin="round" width="15" height="24" fill="rgb(224,122,96)" stroke="rgb(179,97,76)" stroke-width="1" opacity="0.75" />
			</g>
		</g>
		<g>
			<title> (ctg14_163)</title>
			<polygon class=" (ctg14_163)" points="967,40 982,10 982,70" fill="rgb(255,255,255)" fill-opacity="1.0" stroke="rgb(0,0,0)" stroke-width="2"  />
		</g>
		<g>
			<title> (ctg14_164)</title>
			<polygon class=" (ctg14_164)" points="983,40 995,10 995,70" fill="rgb(255,255,255)" fill-opacity="1.0" stroke="rgb(0,0,0)" stroke-width="2"  />
			<g>
				<title>FabA (PF07977)
"FabA-like domain"</title>
				<polygon class="PF07977" points="986,40 991,28 994,28 994,52 991,52" stroke-linejoin="round" width="10" height="24" fill="rgb(66,205,188)" stroke="rgb(52,164,150)" stroke-width="1" opacity="0.75" />
			</g>
		</g>
		<g>
			<title> (ctg14_165)</title>
			<polygon class=" (ctg14_165)" points="996,40 1016,10 1016,70" fill="rgb(255,255,255)" fill-opacity="1.0" stroke="rgb(0,0,0)" stroke-width="2"  />
			<g>
				<title>OMP_b-brl_2 (PF13568)
"Outer membrane protein beta-barrel domain"</title>
				<polygon class="PF13568" points="1000,40 1008,28 1014,28 1014,52 1008,52" stroke-linejoin="round" width="16" height="24" fill="rgb(75,129,209)" stroke="rgb(60,103,167)" stroke-width="1" opacity="0.75" />
			</g>
		</g>
		<g>
			<title> (ctg14_166)</title>
			<polygon class=" (ctg14_166)" points="1016,40 1037,10 1037,70" fill="rgb(255,255,255)" fill-opacity="1.0" stroke="rgb(0,0,0)" stroke-width="2"  />
		</g>
		<g>
			<title> (ctg14_167)</title>
			<polygon class=" (ctg14_167)" points="1036,40 1056,10 1056,70" fill="rgb(255,255,255)" fill-opacity="1.0" stroke="rgb(0,0,0)" stroke-width="2"  />
			<g>
				<title>LolA (PF03548)
"Outer membrane lipoprotein carrier protein LolA"</title>
				<polygon class="PF03548" points="1040,40 1048,28 1052,28 1052,52 1048,52" stroke-linejoin="round" width="16" height="24" fill="rgb(84,160,208)" stroke="rgb(67,128,166)" stroke-width="1" opacity="0.75" />
			</g>
		</g>
		<g>
			<title> (ctg14_168)</title>
			<polygon class=" (ctg14_168)" points="1057,40 1082,10 1082,70" fill="rgb(255,255,255)" fill-opacity="1.0" stroke="rgb(0,0,0)" stroke-width="2"  />
			<g>
				<title>Polysacc_deac_1 (PF01522)
"Polysaccharide deacetylase"</title>
				<polygon class="PF01522" points="1064,36 1071,28 1076,28 1076,52 1071,52 1064,44" stroke-linejoin="round" width="12" height="24" fill="rgb(56,221,58)" stroke="rgb(44,176,46)" stroke-width="1" opacity="0.75" />
			</g>
		</g>
		<g>
			<title> (ctg14_169)</title>
			<polygon class=" (ctg14_169)" points="1122,25 1117,25 1117,10 1087,40 1117,70 1117,55 1122,55" fill="rgb(255,255,255)" fill-opacity="1.0" stroke="rgb(0,0,0)" stroke-width="2"  />
			<g>
				<title>ketoacyl-synt (PF00109)
"Beta-ketoacyl synthase, N-terminal domain"</title>
				<polygon class="PF00109" points="1100,31 1103,28 1120,28 1120,52 1103,52 1100,49" stroke-linejoin="round" width="20" height="24" fill="rgb(112,116,228)" stroke="rgb(89,92,182)" stroke-width="1" opacity="0.75" />
			</g>
		</g>
		<g>
			<title> (ctg14_170)</title>
			<polygon class=" (ctg14_170)" points="1161,25 1152,25 1152,10 1122,40 1152,70 1152,55 1161,55" fill="rgb(255,255,255)" fill-opacity="1.0" stroke="rgb(0,0,0)" stroke-width="2"  />
			<g>
				<title>Ketoacyl-synt_C (PF02801)
"Beta-ketoacyl synthase, C-terminal domain"</title>
				<polygon class="PF02801" points="1126,40 1137,29 1137,51 1126,40" stroke-linejoin="round" width="11" height="24" fill="rgb(215,78,102)" stroke="rgb(172,62,81)" stroke-width="1" opacity="0.75" />
			</g>
			<g>
				<title>ketoacyl-synt (PF00109)
"Beta-ketoacyl synthase, N-terminal domain"</title>
				<polygon class="PF00109" points="1138,28 1138,28 1160,28 1160,52 1138,52 1138,52" stroke-linejoin="round" width="22" height="24" fill="rgb(112,116,228)" stroke="rgb(89,92,182)" stroke-width="1" opacity="0.75" />
			</g>
		</g>
		<g>
			<title> (ctg14_171)</title>
			<polygon class=" (ctg14_171)" points="1165,40 1173,10 1173,70" fill="rgb(255,255,255)" fill-opacity="1.0" stroke="rgb(0,0,0)" stroke-width="2"  />
			<g>
				<title>PP-binding (PF00550)
"Phosphopantetheine attachment site"</title>
				<polygon class="PF00550" points="1168,40 1171,28 1172,28 1172,52 1171,52" stroke-linejoin="round" width="7" height="24" fill="rgb(103,191,88)" stroke="rgb(82,152,70)" stroke-width="1" opacity="0.75" />
			</g>
		</g>
		<g>
			<title> (ctg14_172)</title>
			<polygon class=" (ctg14_172)" points="1177,40 1195,10 1195,70" fill="rgb(255,255,255)" fill-opacity="1.0" stroke="rgb(0,0,0)" stroke-width="2"  />
		</g>
		<g>
			<title> (ctg14_173)</title>
			<polygon class=" (ctg14_173)" points="1233,25 1225,25 1225,10 1195,40 1225,70 1225,55 1233,55" fill="rgb(255,255,255)" fill-opacity="1.0" stroke="rgb(0,0,0)" stroke-width="2"  />
			<g>
				<title>Ketoacyl-synt_C (PF02801)
"Beta-ketoacyl synthase, C-terminal domain"</title>
				<polygon class="PF02801" points="1199,40 1210,29 1210,51 1199,40" stroke-linejoin="round" width="11" height="24" fill="rgb(215,78,102)" stroke="rgb(172,62,81)" stroke-width="1" opacity="0.75" />
			</g>
			<g>
				<title>ketoacyl-synt (PF00109)
"Beta-ketoacyl synthase, N-terminal domain"</title>
				<polygon class="PF00109" points="1211,28 1211,28 1232,28 1232,52 1211,52 1211,52" stroke-linejoin="round" width="21" height="24" fill="rgb(112,116,228)" stroke="rgb(89,92,182)" stroke-width="1" opacity="0.75" />
			</g>
		</g>
		<g>
			<title> (ctg14_174)</title>
			<polygon class=" (ctg14_174)" points="1233,40 1247,10 1247,70" fill="rgb(255,255,255)" fill-opacity="1.0" stroke="rgb(0,0,0)" stroke-width="2"  />
			<g>
				<title>4HBT (PF03061)
"Thioesterase superfamily"</title>
				<polygon class="PF03061" points="1236,40 1242,28 1244,28 1244,52 1242,52 1236,40" stroke-linejoin="round" width="8" height="24" fill="rgb(143,103,215)" stroke="rgb(114,82,172)" stroke-width="1" opacity="0.75" />
			</g>
		</g>
		<g>
			<title> (ctg14_175)</title>
			<polygon class=" (ctg14_175)" points="1289,25 1277,25 1277,10 1247,40 1277,70 1277,55 1289,55" fill="rgb(255,255,255)" fill-opacity="1.0" stroke="rgb(0,0,0)" stroke-width="2"  />
			<g>
				<title>ABC2_membrane_3 (PF12698)
"ABC-2 family transporter protein"</title>
				<polygon class="PF12698" points="1251,40 1263,28 1286,28 1286,52 1263,52" stroke-linejoin="round" width="39" height="24" fill="rgb(151,189,55)" stroke="rgb(120,151,44)" stroke-width="1" opacity="0.75" />
			</g>
		</g>
		<g>
			<title> (ctg14_176)</title>
			<polygon class=" (ctg14_176)" points="1289,40 1314,10 1314,70" fill="rgb(255,255,255)" fill-opacity="1.0" stroke="rgb(0,0,0)" stroke-width="2"  />
			<g>
				<title>ABC_tran (PF00005)
"ABC transporter"</title>
				<polygon class="PF00005" points="1297,35 1303,28 1311,28 1311,52 1303,52 1297,45" stroke-linejoin="round" width="14" height="24" fill="rgb(129,201,63)" stroke="rgb(103,160,50)" stroke-width="1" opacity="0.75" />
			</g>
		</g>
		<g>
			<title> (ctg14_177)</title>
			<polygon class=" (ctg14_177)" points="1347,25 1344,25 1344,10 1314,40 1344,70 1344,55 1347,55" fill="rgb(255,255,255)" fill-opacity="1.0" stroke="rgb(0,0,0)" stroke-width="2"  />
			<g>
				<title>DUF4872 (PF16169)
"Domain of unknown function (DUF4872)"</title>
				<polygon class="PF16169" points="1318,40 1330,28 1331,28 1331,52 1330,52" stroke-linejoin="round" width="17" height="24" fill="rgb(63,228,88)" stroke="rgb(50,182,70)" stroke-width="1" opacity="0.75" />
			</g>
			<g>
				<title>BtrH_N (PF14399)
"Butirosin biosynthesis protein H, N-terminal"</title>
				<rect class="PF14399" x="1332" y="28" stroke-linejoin="round" width="13" height="24" fill="rgb(159,218,73)" stroke="rgb(127,174,58)" stroke-width="1" opacity="0.75" />
			</g>
		</g>
		<g>
			<title> (ctg14_178)</title>
			<polygon class=" (ctg14_178)" points="1349,40 1362,10 1362,70" fill="rgb(255,255,255)" fill-opacity="1.0" stroke="rgb(0,0,0)" stroke-width="2"  />
		</g>
		<g>
			<title> (ctg14_179)</title>
			<polygon class=" (ctg14_179)" points="1375,25 1442,25 1442,10 1472,40 1442,70 1442,55 1375,55" fill="rgb(255,255,255)" fill-opacity="1.0" stroke="rgb(0,0,0)" stroke-width="2"  />
			<g>
				<title>Peptidase_M16 (PF00675)
"Insulinase (Peptidase family M16)"</title>
				<rect class="PF00675" x="1380" y="28" stroke-linejoin="round" width="5" height="24" fill="rgb(70,225,127)" stroke="rgb(56,180,101)" stroke-width="1" opacity="0.75" />
			</g>
			<g>
				<title>Peptidase_M16 (PF00675)
"Insulinase (Peptidase family M16)"</title>
				<rect class="PF00675" x="1389" y="28" stroke-linejoin="round" width="10" height="24" fill="rgb(70,225,127)" stroke="rgb(56,180,101)" stroke-width="1" opacity="0.75" />
			</g>
			<g>
				<title>Peptidase_M16_C (PF05193)
"Peptidase M16 inactive domain"</title>
				<rect class="PF05193" x="1400" y="28" stroke-linejoin="round" width="17" height="24" fill="rgb(199,79,180)" stroke="rgb(159,63,144)" stroke-width="1" opacity="0.75" />
			</g>
		</g>
		<g>
			<title> (ctg14_180)</title>
			<polygon class=" (ctg14_180)" points="1483,10 1486,40 1483,70" fill="rgb(255,255,255)" fill-opacity="1.0" stroke="rgb(0,0,0)" stroke-width="2"  />
		</g>
		<g>
			<title> (ctg14_181)</title>
			<polygon class=" (ctg14_181)" points="1487,40 1501,10 1501,70" fill="rgb(255,255,255)" fill-opacity="1.0" stroke="rgb(0,0,0)" stroke-width="2"  />
		</g>
		<g>
			<title> (ctg14_182)</title>
			<polygon class=" (ctg14_182)" points="1502,40 1516,10 1516,70" fill="rgb(255,255,255)" fill-opacity="1.0" stroke="rgb(0,0,0)" stroke-width="2"  />
		</g>
		<g>
			<title> (ctg14_183)</title>
			<polygon class=" (ctg14_183)" points="1554,25 1546,25 1546,10 1516,40 1546,70 1546,55 1554,55" fill="rgb(255,255,255)" fill-opacity="1.0" stroke="rgb(0,0,0)" stroke-width="2"  />
			<g>
				<title>ACP_syn_III_C (PF08541)
"3-Oxoacyl-[acyl-carrier-protein (ACP)] synthase III C terminal"</title>
				<polygon class="PF08541" points="1520,40 1525,35 1525,45" stroke-linejoin="round" width="9" height="24" fill="rgb(146,207,81)" stroke="rgb(116,165,64)" stroke-width="1" opacity="0.75" />
			</g>
			<g>
				<title>Thiolase_N (PF00108)
"Thiolase, N-terminal domain"</title>
				<rect class="PF00108" x="1536" y="28" stroke-linejoin="round" width="12" height="24" fill="rgb(82,90,195)" stroke="rgb(65,72,156)" stroke-width="1" opacity="0.75" />
			</g>
		</g>
		<g>
			<title> (ctg14_184)</title>
			<polygon class=" (ctg14_184)" points="1584,25 1584,25 1584,10 1554,40 1584,70 1584,55 1584,55" fill="rgb(255,255,255)" fill-opacity="1.0" stroke="rgb(0,0,0)" stroke-width="2"  />
		</g>
		<g>
			<title> (ctg14_185)</title>
			<polygon class=" (ctg14_185)" points="1707,25 1616,25 1616,10 1586,40 1616,70 1616,55 1707,55" fill="rgb(255,255,255)" fill-opacity="1.0" stroke="rgb(0,0,0)" stroke-width="2"  />
			<g>
				<title>Acyltransferase (PF01553)
"Acyltransferase"</title>
				<rect class="PF01553" x="1608" y="28" stroke-linejoin="round" width="12" height="24" fill="rgb(87,176,216)" stroke="rgb(69,140,172)" stroke-width="1" opacity="0.75" />
			</g>
			<g>
				<title>MMPL (PF03176)
"MMPL family"</title>
				<rect class="PF03176" x="1625" y="28" stroke-linejoin="round" width="17" height="24" fill="rgb(228,109,193)" stroke="rgb(182,87,154)" stroke-width="1" opacity="0.75" />
			</g>
			<g>
				<title>MMPL (PF03176)
"MMPL family"</title>
				<rect class="PF03176" x="1666" y="28" stroke-linejoin="round" width="36" height="24" fill="rgb(228,109,193)" stroke="rgb(182,87,154)" stroke-width="1" opacity="0.75" />
			</g>
		</g>
		<g>
			<title> (ctg14_186)</title>
			<polygon class=" (ctg14_186)" points="1714,25 1717,25 1717,10 1747,40 1717,70 1717,55 1714,55" fill="rgb(255,255,255)" fill-opacity="1.0" stroke="rgb(0,0,0)" stroke-width="2"  />
		</g>
		<g>
			<title> (ctg14_187)</title>
			<polygon class=" (ctg14_187)" points="1748,25 1756,25 1756,10 1786,40 1756,70 1756,55 1748,55" fill="rgb(255,255,255)" fill-opacity="1.0" stroke="rgb(0,0,0)" stroke-width="2"  />
			<g>
				<title>EpsG (PF14897)
"EpsG family"</title>
				<polygon class="PF14897" points="1751,28 1769,28 1781,40 1769,52 1751,52" stroke-linejoin="round" width="34" height="24" fill="rgb(148,193,88)" stroke="rgb(118,154,70)" stroke-width="1" opacity="0.75" />
			</g>
		</g>
		<g>
			<title> (ctg14_188)</title>
			<polygon class=" (ctg14_188)" points="1793,25 1876,25 1876,10 1906,40 1876,70 1876,55 1793,55" fill="rgb(255,255,255)" fill-opacity="1.0" stroke="rgb(0,0,0)" stroke-width="2"  />
			<g>
				<title>Por_Secre_tail (PF18962)
"Secretion system C-terminal sorting domain"</title>
				<polygon class="PF18962" points="1899,38 1901,40 1899,42" stroke-linejoin="round" width="6" height="24" fill="rgb(117,84,214)" stroke="rgb(93,67,171)" stroke-width="1" opacity="0.75" />
			</g>
		</g>
		<g>
			<title> (ctg14_189)</title>
			<polygon class=" (ctg14_189)" points="1915,25 1970,25 1970,10 2000,40 1970,70 1970,55 1915,55" fill="rgb(255,255,255)" fill-opacity="1.0" stroke="rgb(0,0,0)" stroke-width="2"  />
			<g>
				<title>Toprim (PF01751)
"Toprim domain"</title>
				<rect class="PF01751" x="1915" y="28" stroke-linejoin="round" width="10" height="24" fill="rgb(95,212,145)" stroke="rgb(76,169,116)" stroke-width="1" opacity="0.75" />
			</g>
			<g>
				<title>Topoisom_bac (PF01131)
"DNA topoisomerase"</title>
				<rect class="PF01131" x="1927" y="28" stroke-linejoin="round" width="37" height="24" fill="rgb(136,196,98)" stroke="rgb(108,156,78)" stroke-width="1" opacity="0.75" />
			</g>
			<g>
				<title>Toprim_C_rpt (PF13368)
"Topoisomerase C-terminal repeat"</title>
				<rect class="PF13368" x="1974" y="28" stroke-linejoin="round" width="6" height="24" fill="rgb(146,209,96)" stroke="rgb(116,167,76)" stroke-width="1" opacity="0.75" />
			</g>
			<g>
				<title>Toprim_C_rpt (PF13368)
"Topoisomerase C-terminal repeat"</title>
				<polygon class="PF13368" points="1980,28 1984,28 1985,29 1985,51 1984,52 1980,52" stroke-linejoin="round" width="5" height="24" fill="rgb(146,209,96)" stroke="rgb(116,167,76)" stroke-width="1" opacity="0.75" />
			</g>
			<g>
				<title>Toprim_C_rpt (PF13368)
"Topoisomerase C-terminal repeat"</title>
				<polygon class="PF13368" points="1985,29 1990,34 1990,46 1985,51" stroke-linejoin="round" width="5" height="24" fill="rgb(146,209,96)" stroke="rgb(116,167,76)" stroke-width="1" opacity="0.75" />
			</g>
			<g>
				<title>Toprim_C_rpt (PF13368)
"Topoisomerase C-terminal repeat"</title>
				<polygon class="PF13368" points="1991,35 1996,40 1996,40 1991,45" stroke-linejoin="round" width="5" height="24" fill="rgb(146,209,96)" stroke="rgb(116,167,76)" stroke-width="1" opacity="0.75" />
			</g>
		</g>
		<g>
			<title> (ctg14_190)</title>
			<polygon class=" (ctg14_190)" points="2006,25 2011,25 2011,10 2041,40 2011,70 2011,55 2006,55" fill="rgb(255,255,255)" fill-opacity="1.0" stroke="rgb(0,0,0)" stroke-width="2"  />
			<g>
				<title>Arginase (PF00491)
"Arginase family"</title>
				<polygon class="PF00491" points="2009,28 2025,28 2034,37 2034,43 2025,52 2009,52" stroke-linejoin="round" width="25" height="24" fill="rgb(126,224,107)" stroke="rgb(100,179,85)" stroke-width="1" opacity="0.75" />
			</g>
		</g>
		<g>
			<title> (ctg14_191)</title>
			<polygon class=" (ctg14_191)" points="2042,25 2045,25 2045,10 2075,40 2045,70 2045,55 2042,55" fill="rgb(255,255,255)" fill-opacity="1.0" stroke="rgb(0,0,0)" stroke-width="2"  />
			<g>
				<title>Glycos_transf_2 (PF00535)
"Glycosyl transferase family 2"</title>
				<rect class="PF00535" x="2042" y="28" stroke-linejoin="round" width="17" height="24" fill="rgb(224,122,96)" stroke="rgb(179,97,76)" stroke-width="1" opacity="0.75" />
			</g>
		</g>
		<g>
			<title> (ctg14_192)</title>
			<polygon class=" (ctg14_192)" points="2078,25 2085,25 2085,10 2115,40 2085,70 2085,55 2078,55" fill="rgb(255,255,255)" fill-opacity="1.0" stroke="rgb(0,0,0)" stroke-width="2"  />
			<g>
				<title>Glycos_transf_4 (PF00953)
"Glycosyl transferase family 4"</title>
				<polygon class="PF00953" points="2086,28 2099,28 2102,31 2102,49 2099,52 2086,52" stroke-linejoin="round" width="16" height="24" fill="rgb(179,46,82)" stroke="rgb(143,36,65)" stroke-width="1" opacity="0.75" />
			</g>
		</g>
		<g>
			<title> (ctg14_193)</title>
			<polygon class=" (ctg14_193)" points="2117,10 2146,40 2117,70" fill="rgb(255,255,255)" fill-opacity="1.0" stroke="rgb(0,0,0)" stroke-width="2"  />
			<g>
				<title>Poly_export (PF02563)
"Polysaccharide biosynthesis/export protein"</title>
				<polygon class="PF02563" points="2121,28 2130,28 2133,31 2133,49 2130,52 2121,52" stroke-linejoin="round" width="12" height="24" fill="rgb(125,185,59)" stroke="rgb(100,148,47)" stroke-width="1" opacity="0.75" />
			</g>
		</g>
	</g>
</svg>
