<svg version="1.1" baseProfile="full" xmlns="http://www.w3.org/2000/svg" width="1473.2333333333333" height="80">
	<g>
		<line x1="10" y1="40.0" x2="1463.2333333333333" y2="40.0" style="stroke:rgb(70,70,70); stroke-width:3 "/>
		<g>
			<title> (ctg14_282)</title>
			<polygon class=" (ctg14_282)" points="28,25 38,25 38,10 68,40 38,70 38,55 28,55" fill="rgb(255,255,255)" fill-opacity="1.0" stroke="rgb(0,0,0)" stroke-width="2"  />
			<g>
				<title>Glt_symporter (PF03616)
"Sodium/glutamate symporter"</title>
				<polygon class="PF03616" points="28,28 51,28 63,40 51,52 28,52" stroke-linejoin="round" width="36" height="24" fill="rgb(81,67,185)" stroke="rgb(64,53,148)" stroke-width="1" opacity="0.75" />
			</g>
		</g>
		<g>
			<title> (ctg14_283)</title>
			<polygon class=" (ctg14_283)" points="136,25 104,25 104,10 74,40 104,70 104,55 136,55" fill="rgb(255,255,255)" fill-opacity="1.0" stroke="rgb(0,0,0)" stroke-width="2"  />
			<g>
				<title>MCPsignal (PF00015)
"Methyl-accepting chemotaxis protein (MCP) signalling domain"</title>
				<polygon class="PF00015" points="78,40 90,28 93,28 93,52 90,52" stroke-linejoin="round" width="16" height="24" fill="rgb(104,174,223)" stroke="rgb(83,139,178)" stroke-width="1" opacity="0.75" />
			</g>
			<g>
				<title>HAMP (PF00672)
"HAMP domain"</title>
				<rect class="PF00672" x="102" y="28" stroke-linejoin="round" width="5" height="24" fill="rgb(124,89,195)" stroke="rgb(99,71,156)" stroke-width="1" opacity="0.75" />
			</g>
			<g>
				<title>dCache_1 (PF02743)
"Cache domain"</title>
				<rect class="PF02743" x="110" y="28" stroke-linejoin="round" width="22" height="24" fill="rgb(84,194,113)" stroke="rgb(67,155,90)" stroke-width="1" opacity="0.75" />
			</g>
		</g>
		<g>
			<title> (ctg14_284)</title>
			<polygon class=" (ctg14_284)" points="151,25 151,25 151,10 181,40 151,70 151,55 151,55" fill="rgb(255,255,255)" fill-opacity="1.0" stroke="rgb(0,0,0)" stroke-width="2"  />
			<g>
				<title>PCRF (PF03462)
"PCRF domain"</title>
				<polygon class="PF03462" points="151,28 165,28 166,29 166,51 165,52 151,52" stroke-linejoin="round" width="15" height="24" fill="rgb(189,168,84)" stroke="rgb(151,134,67)" stroke-width="1" opacity="0.75" />
			</g>
			<g>
				<title>RF-1 (PF00472)
"RF-1 domain"</title>
				<polygon class="PF00472" points="167,30 177,40 177,40 167,50" stroke-linejoin="round" width="10" height="24" fill="rgb(78,76,196)" stroke="rgb(62,60,156)" stroke-width="1" opacity="0.75" />
			</g>
		</g>
		<g>
			<title> (ctg14_285)</title>
			<polygon class=" (ctg14_285)" points="182,25 203,25 203,10 233,40 203,70 203,55 182,55" fill="rgb(255,255,255)" fill-opacity="1.0" stroke="rgb(0,0,0)" stroke-width="2"  />
			<g>
				<title>tRNA_anti-codon (PF01336)
"OB-fold nucleic acid binding domain"</title>
				<rect class="PF01336" x="188" y="28" stroke-linejoin="round" width="7" height="24" fill="rgb(215,103,173)" stroke="rgb(172,82,138)" stroke-width="1" opacity="0.75" />
			</g>
			<g>
				<title>tRNA-synt_2 (PF00152)
"tRNA synthetases class II (D, K and N)"</title>
				<polygon class="PF00152" points="198,28 216,28 228,40 216,52 198,52" stroke-linejoin="round" width="34" height="24" fill="rgb(90,71,190)" stroke="rgb(72,56,152)" stroke-width="1" opacity="0.75" />
			</g>
		</g>
		<g>
			<title> (ctg14_286)</title>
			<polygon class=" (ctg14_286)" points="237,40 263,10 263,70" fill="rgb(255,255,255)" fill-opacity="1.0" stroke="rgb(0,0,0)" stroke-width="2"  />
			<g>
				<title>PhzC-PhzF (PF02567)
"Phenazine biosynthesis-like protein"</title>
				<polygon class="PF02567" points="241,40 252,28 262,28 262,52 252,52" stroke-linejoin="round" width="25" height="24" fill="rgb(223,91,96)" stroke="rgb(178,72,76)" stroke-width="1" opacity="0.75" />
			</g>
		</g>
		<g>
			<title> (ctg14_287)</title>
			<polygon class=" (ctg14_287)" points="271,25 300,25 300,10 330,40 300,70 300,55 271,55" fill="rgb(255,255,255)" fill-opacity="1.0" stroke="rgb(0,0,0)" stroke-width="2"  />
			<g>
				<title>Flavodoxin_1 (PF00258)
"Flavodoxin"</title>
				<rect class="PF00258" x="277" y="28" stroke-linejoin="round" width="13" height="24" fill="rgb(77,169,183)" stroke="rgb(61,135,146)" stroke-width="1" opacity="0.75" />
			</g>
			<g>
				<title>FAD_binding_1 (PF00667)
"FAD binding domain"</title>
				<rect class="PF00667" x="293" y="28" stroke-linejoin="round" width="19" height="24" fill="rgb(145,74,201)" stroke="rgb(116,59,160)" stroke-width="1" opacity="0.75" />
			</g>
			<g>
				<title>NAD_binding_1 (PF00175)
"Oxidoreductase NAD-binding domain"</title>
				<polygon class="PF00175" points="316,30 326,40 326,40 316,50" stroke-linejoin="round" width="10" height="24" fill="rgb(177,211,96)" stroke="rgb(141,168,76)" stroke-width="1" opacity="0.75" />
			</g>
		</g>
		<g>
			<title> (ctg14_288)</title>
			<polygon class=" (ctg14_288)" points="331,25 358,25 358,10 388,40 358,70 358,55 331,55" fill="rgb(255,255,255)" fill-opacity="1.0" stroke="rgb(0,0,0)" stroke-width="2"  />
			<g>
				<title>NIR_SIR_ferr (PF03460)
"Nitrite/Sulfite reductase ferredoxin-like half domain"</title>
				<rect class="PF03460" x="338" y="28" stroke-linejoin="round" width="6" height="24" fill="rgb(51,200,158)" stroke="rgb(40,160,126)" stroke-width="1" opacity="0.75" />
			</g>
			<g>
				<title>NIR_SIR (PF01077)
"Nitrite and sulphite reductase 4Fe-4S domain"</title>
				<rect class="PF01077" x="348" y="28" stroke-linejoin="round" width="15" height="24" fill="rgb(96,208,89)" stroke="rgb(76,166,71)" stroke-width="1" opacity="0.75" />
			</g>
			<g>
				<title>NIR_SIR_ferr (PF03460)
"Nitrite/Sulfite reductase ferredoxin-like half domain"</title>
				<rect class="PF03460" x="365" y="28" stroke-linejoin="round" width="6" height="24" fill="rgb(51,200,158)" stroke="rgb(40,160,126)" stroke-width="1" opacity="0.75" />
			</g>
		</g>
		<g>
			<title> (ctg14_289)</title>
			<polygon class=" (ctg14_289)" points="387,10 413,40 387,70" fill="rgb(255,255,255)" fill-opacity="1.0" stroke="rgb(0,0,0)" stroke-width="2"  />
			<g>
				<title>PAPS_reduct (PF01507)
"Phosphoadenosine phosphosulfate reductase family"</title>
				<polygon class="PF01507" points="393,28 398,28 409,40 398,52 393,52" stroke-linejoin="round" width="17" height="24" fill="rgb(87,190,105)" stroke="rgb(69,152,83)" stroke-width="1" opacity="0.75" />
			</g>
		</g>
		<g>
			<title> (ctg14_290)</title>
			<polygon class=" (ctg14_290)" points="450,25 447,25 447,10 417,40 447,70 447,55 450,55" fill="rgb(255,255,255)" fill-opacity="1.0" stroke="rgb(0,0,0)" stroke-width="2"  />
			<g>
				<title>OpuAC (PF04069)
"Substrate binding domain of ABC-type glycine betaine transport system"</title>
				<polygon class="PF04069" points="421,40 433,28 446,28 446,52 433,52" stroke-linejoin="round" width="28" height="24" fill="rgb(81,218,80)" stroke="rgb(64,174,64)" stroke-width="1" opacity="0.75" />
			</g>
		</g>
		<g>
			<title> (ctg14_291)</title>
			<polygon class=" (ctg14_291)" points="489,25 481,25 481,10 451,40 481,70 481,55 489,55" fill="rgb(255,255,255)" fill-opacity="1.0" stroke="rgb(0,0,0)" stroke-width="2"  />
			<g>
				<title>BPD_transp_1 (PF00528)
"Binding-protein-dependent transport system inner membrane component"</title>
				<polygon class="PF00528" points="455,40 467,28 470,28 470,52 467,52" stroke-linejoin="round" width="16" height="24" fill="rgb(77,208,225)" stroke="rgb(61,166,180)" stroke-width="1" opacity="0.75" />
			</g>
		</g>
		<g>
			<title> (ctg14_292)</title>
			<polygon class=" (ctg14_292)" points="528,25 519,25 519,10 489,40 519,70 519,55 528,55" fill="rgb(255,255,255)" fill-opacity="1.0" stroke="rgb(0,0,0)" stroke-width="2"  />
			<g>
				<title>CBS (PF00571)
"CBS domain"</title>
				<polygon class="PF00571" points="493,40 494,39 494,41" stroke-linejoin="round" width="5" height="24" fill="rgb(220,56,105)" stroke="rgb(176,44,84)" stroke-width="1" opacity="0.75" />
			</g>
			<g>
				<title>ABC_tran (PF00005)
"ABC transporter"</title>
				<rect class="PF00005" x="509" y="28" stroke-linejoin="round" width="14" height="24" fill="rgb(129,201,63)" stroke="rgb(103,160,50)" stroke-width="1" opacity="0.75" />
			</g>
		</g>
		<g>
			<title> (ctg14_293)</title>
			<polygon class=" (ctg14_293)" points="545,40 561,10 561,70" fill="rgb(255,255,255)" fill-opacity="1.0" stroke="rgb(0,0,0)" stroke-width="2"  />
			<g>
				<title>DHFR_1 (PF00186)
"Dihydrofolate reductase"</title>
				<polygon class="PF00186" points="548,40 555,28 561,28 561,52 555,52" stroke-linejoin="round" width="16" height="24" fill="rgb(150,188,63)" stroke="rgb(119,150,50)" stroke-width="1" opacity="0.75" />
			</g>
		</g>
		<g>
			<title> (ctg14_294)</title>
			<polygon class=" (ctg14_294)" points="563,40 578,10 578,70" fill="rgb(255,255,255)" fill-opacity="1.0" stroke="rgb(0,0,0)" stroke-width="2"  />
			<g>
				<title>ThrE_2 (PF12821)
"Threonine/Serine exporter, ThrE"</title>
				<polygon class="PF12821" points="566,40 572,28 576,28 576,52 572,52" stroke-linejoin="round" width="13" height="24" fill="rgb(222,93,214)" stroke="rgb(177,74,171)" stroke-width="1" opacity="0.75" />
			</g>
		</g>
		<g>
			<title> (ctg14_295)</title>
			<polygon class=" (ctg14_295)" points="582,40 608,10 608,70" fill="rgb(255,255,255)" fill-opacity="1.0" stroke="rgb(0,0,0)" stroke-width="2"  />
			<g>
				<title>ThrE (PF06738)
"Putative threonine/serine exporter"</title>
				<polygon class="PF06738" points="586,40 597,28 605,28 605,52 597,52" stroke-linejoin="round" width="23" height="24" fill="rgb(114,94,211)" stroke="rgb(91,75,168)" stroke-width="1" opacity="0.75" />
			</g>
		</g>
		<g>
			<title> (ctg14_296)</title>
			<polygon class=" (ctg14_296)" points="616,40 627,10 627,70" fill="rgb(255,255,255)" fill-opacity="1.0" stroke="rgb(0,0,0)" stroke-width="2"  />
			<g>
				<title>DUF3135 (PF11333)
"Protein of unknown function (DUF3135)"</title>
				<polygon class="PF11333" points="619,40 624,28 627,28 627,52 624,52 619,40" stroke-linejoin="round" width="8" height="24" fill="rgb(97,128,224)" stroke="rgb(77,102,179)" stroke-width="1" opacity="0.75" />
			</g>
		</g>
		<g>
			<title> (ctg14_297)</title>
			<polygon class=" (ctg14_297)" points="641,10 658,40 641,70" fill="rgb(255,255,255)" fill-opacity="1.0" stroke="rgb(0,0,0)" stroke-width="2"  />
			<g>
				<title>MoCF_biosynth (PF00994)
"Probable molybdopterin binding domain"</title>
				<polygon class="PF00994" points="641,28 648,28 655,40 655,40 648,52 641,52" stroke-linejoin="round" width="14" height="24" fill="rgb(75,187,175)" stroke="rgb(60,149,139)" stroke-width="1" opacity="0.75" />
			</g>
		</g>
		<g>
			<title> (ctg14_298)</title>
			<polygon class=" (ctg14_298)" points="659,40 672,10 672,70" fill="rgb(255,255,255)" fill-opacity="1.0" stroke="rgb(0,0,0)" stroke-width="2"  />
			<g>
				<title>DUF2541 (PF10807)
"Protein of unknown function (DUF2541)"</title>
				<polygon class="PF10807" points="662,40 668,28 671,28 671,52 668,52" stroke-linejoin="round" width="12" height="24" fill="rgb(47,179,174)" stroke="rgb(37,143,139)" stroke-width="1" opacity="0.75" />
			</g>
		</g>
		<g>
			<title> (ctg14_299)</title>
			<polygon class=" (ctg14_299)" points="716,25 706,25 706,10 676,40 706,70 706,55 716,55" fill="rgb(255,255,255)" fill-opacity="1.0" stroke="rgb(0,0,0)" stroke-width="2"  />
			<g>
				<title>Ketoacyl-synt_C (PF02801)
"Beta-ketoacyl synthase, C-terminal domain"</title>
				<polygon class="PF02801" points="680,40 691,29 691,51 680,40" stroke-linejoin="round" width="11" height="24" fill="rgb(215,78,102)" stroke="rgb(172,62,81)" stroke-width="1" opacity="0.75" />
			</g>
			<g>
				<title>ketoacyl-synt (PF00109)
"Beta-ketoacyl synthase, N-terminal domain"</title>
				<polygon class="PF00109" points="692,28 692,28 716,28 716,52 692,52 692,52" stroke-linejoin="round" width="24" height="24" fill="rgb(112,116,228)" stroke="rgb(89,92,182)" stroke-width="1" opacity="0.75" />
			</g>
		</g>
		<g>
			<title> (ctg14_300)</title>
			<polygon class=" (ctg14_300)" points="717,40 741,10 741,70" fill="rgb(255,255,255)" fill-opacity="1.0" stroke="rgb(0,0,0)" stroke-width="2"  />
			<g>
				<title>adh_short_C2 (PF13561)
"Enoyl-(Acyl carrier protein) reductase"</title>
				<polygon class="PF13561" points="721,40 731,28 740,28 740,52 731,52" stroke-linejoin="round" width="23" height="24" fill="rgb(73,205,127)" stroke="rgb(58,164,101)" stroke-width="1" opacity="0.75" />
			</g>
		</g>
		<g>
			<title> (ctg14_301)</title>
			<polygon class=" (ctg14_301)" points="741,40 756,10 756,70" fill="rgb(255,255,255)" fill-opacity="1.0" stroke="rgb(0,0,0)" stroke-width="2"  />
		</g>
		<g>
			<title> (ctg14_302)</title>
			<polygon class=" (ctg14_302)" points="796,25 787,25 787,10 757,40 787,70 787,55 796,55" fill="rgb(255,255,255)" fill-opacity="1.0" stroke="rgb(0,0,0)" stroke-width="2"  />
			<g>
				<title>Ketoacyl-synt_C (PF02801)
"Beta-ketoacyl synthase, C-terminal domain"</title>
				<polygon class="PF02801" points="761,40 771,30 771,50 761,40" stroke-linejoin="round" width="10" height="24" fill="rgb(215,78,102)" stroke="rgb(172,62,81)" stroke-width="1" opacity="0.75" />
			</g>
			<g>
				<title>ketoacyl-synt (PF00109)
"Beta-ketoacyl synthase, N-terminal domain"</title>
				<polygon class="PF00109" points="772,29 773,28 795,28 795,52 773,52 772,51" stroke-linejoin="round" width="23" height="24" fill="rgb(112,116,228)" stroke="rgb(89,92,182)" stroke-width="1" opacity="0.75" />
			</g>
		</g>
		<g>
			<title> (ctg14_303)</title>
			<polygon class=" (ctg14_303)" points="796,40 814,10 814,70" fill="rgb(255,255,255)" fill-opacity="1.0" stroke="rgb(0,0,0)" stroke-width="2"  />
			<g>
				<title>DUF3261 (PF11659)
"Protein of unknown function (DUF3261)"</title>
				<polygon class="PF11659" points="800,40 807,28 810,28 810,52 807,52" stroke-linejoin="round" width="14" height="24" fill="rgb(224,86,172)" stroke="rgb(179,68,137)" stroke-width="1" opacity="0.75" />
			</g>
		</g>
		<g>
			<title> (ctg14_304)</title>
			<polygon class=" (ctg14_304)" points="892,25 844,25 844,10 814,40 844,70 844,55 892,55" fill="rgb(255,255,255)" fill-opacity="1.0" stroke="rgb(0,0,0)" stroke-width="2"  />
		</g>
		<g>
			<title> (ctg14_305)</title>
			<polygon class=" (ctg14_305)" points="895,40 915,10 915,70" fill="rgb(255,255,255)" fill-opacity="1.0" stroke="rgb(0,0,0)" stroke-width="2"  />
			<g>
				<title>LolA (PF03548)
"Outer membrane lipoprotein carrier protein LolA"</title>
				<polygon class="PF03548" points="899,40 907,28 911,28 911,52 907,52" stroke-linejoin="round" width="15" height="24" fill="rgb(84,160,208)" stroke="rgb(67,128,166)" stroke-width="1" opacity="0.75" />
			</g>
		</g>
		<g>
			<title> (ctg14_306)</title>
			<polygon class=" (ctg14_306)" points="915,40 929,10 929,70" fill="rgb(255,255,255)" fill-opacity="1.0" stroke="rgb(0,0,0)" stroke-width="2"  />
			<g>
				<title>4HBT (PF03061)
"Thioesterase superfamily"</title>
				<polygon class="PF03061" points="919,38 924,28 926,28 926,52 924,52 919,42" stroke-linejoin="round" width="7" height="24" fill="rgb(143,103,215)" stroke="rgb(114,82,172)" stroke-width="1" opacity="0.75" />
			</g>
		</g>
		<g>
			<title> (ctg14_307)</title>
			<polygon class=" (ctg14_307)" points="981,25 960,25 960,10 930,40 960,70 960,55 981,55" fill="rgb(255,255,255)" fill-opacity="1.0" stroke="rgb(0,0,0)" stroke-width="2"  />
			<g>
				<title>Lyase_aromatic (PF00221)
"Aromatic amino acid lyase"</title>
				<polygon class="PF00221" points="934,40 946,28 979,28 979,52 946,52" stroke-linejoin="round" width="46" height="24" fill="rgb(182,133,62)" stroke="rgb(145,106,49)" stroke-width="1" opacity="0.75" />
			</g>
		</g>
		<g>
			<title> (ctg14_308)</title>
			<polygon class=" (ctg14_308)" points="1037,25 1011,25 1011,10 981,40 1011,70 1011,55 1037,55" fill="rgb(255,255,255)" fill-opacity="1.0" stroke="rgb(0,0,0)" stroke-width="2"  />
			<g>
				<title>Lip_A_acyltrans (PF03279)
"Bacterial lipid A biosynthesis acyltransferase"</title>
				<polygon class="PF03279" points="985,40 997,28 1003,28 1003,52 997,52" stroke-linejoin="round" width="22" height="24" fill="rgb(95,219,149)" stroke="rgb(76,175,119)" stroke-width="1" opacity="0.75" />
			</g>
			<g>
				<title>Glycos_transf_2 (PF00535)
"Glycosyl transferase family 2"</title>
				<rect class="PF00535" x="1020" y="28" stroke-linejoin="round" width="17" height="24" fill="rgb(224,122,96)" stroke="rgb(179,97,76)" stroke-width="1" opacity="0.75" />
			</g>
		</g>
		<g>
			<title> (ctg14_309)</title>
			<polygon class=" (ctg14_309)" points="1038,40 1050,10 1050,70" fill="rgb(255,255,255)" fill-opacity="1.0" stroke="rgb(0,0,0)" stroke-width="2"  />
			<g>
				<title>FabA (PF07977)
"FabA-like domain"</title>
				<polygon class="PF07977" points="1041,40 1046,28 1047,28 1047,52 1046,52" stroke-linejoin="round" width="8" height="24" fill="rgb(66,205,188)" stroke="rgb(52,164,150)" stroke-width="1" opacity="0.75" />
			</g>
		</g>
		<g>
			<title> (ctg14_310)</title>
			<polygon class=" (ctg14_310)" points="1095,25 1080,25 1080,10 1050,40 1080,70 1080,55 1095,55" fill="rgb(255,255,255)" fill-opacity="1.0" stroke="rgb(0,0,0)" stroke-width="2"  />
			<g>
				<title>AMP-binding (PF00501)
"AMP-binding enzyme"</title>
				<polygon class="PF00501" points="1064,30 1066,28 1094,28 1094,52 1066,52 1064,50" stroke-linejoin="round" width="30" height="24" fill="rgb(60,217,223)" stroke="rgb(48,173,178)" stroke-width="1" opacity="0.75" />
			</g>
		</g>
		<g>
			<title> (ctg14_311)</title>
			<polygon class=" (ctg14_311)" points="1095,40 1114,10 1114,70" fill="rgb(255,255,255)" fill-opacity="1.0" stroke="rgb(0,0,0)" stroke-width="2"  />
		</g>
		<g>
			<title> (ctg14_312)</title>
			<polygon class=" (ctg14_312)" points="1116,40 1124,10 1124,70" fill="rgb(255,255,255)" fill-opacity="1.0" stroke="rgb(0,0,0)" stroke-width="2"  />
			<g>
				<title>PP-binding (PF00550)
"Phosphopantetheine attachment site"</title>
				<polygon class="PF00550" points="1119,40 1122,28 1122,28 1122,52 1122,52" stroke-linejoin="round" width="6" height="24" fill="rgb(103,191,88)" stroke="rgb(82,152,70)" stroke-width="1" opacity="0.75" />
			</g>
		</g>
		<g>
			<title> (ctg14_313)</title>
			<polygon class=" (ctg14_313)" points="1124,40 1132,10 1132,70" fill="rgb(255,255,255)" fill-opacity="1.0" stroke="rgb(0,0,0)" stroke-width="2"  />
			<g>
				<title>PP-binding (PF00550)
"Phosphopantetheine attachment site"</title>
				<polygon class="PF00550" points="1127,40 1131,28 1131,28 1131,52 1131,52" stroke-linejoin="round" width="7" height="24" fill="rgb(103,191,88)" stroke="rgb(82,152,70)" stroke-width="1" opacity="0.75" />
			</g>
		</g>
		<g>
			<title> (ctg14_314)</title>
			<polygon class=" (ctg14_314)" points="1134,40 1159,10 1159,70" fill="rgb(255,255,255)" fill-opacity="1.0" stroke="rgb(0,0,0)" stroke-width="2"  />
			<g>
				<title>Acyltransferase (PF01553)
"Acyltransferase"</title>
				<polygon class="PF01553" points="1140,38 1148,28 1151,28 1151,52 1148,52 1140,42" stroke-linejoin="round" width="11" height="24" fill="rgb(87,176,216)" stroke="rgb(69,140,172)" stroke-width="1" opacity="0.75" />
			</g>
		</g>
		<g>
			<title> (ctg14_315)</title>
			<polygon class=" (ctg14_315)" points="1158,40 1181,10 1181,70" fill="rgb(255,255,255)" fill-opacity="1.0" stroke="rgb(0,0,0)" stroke-width="2"  />
			<g>
				<title>Ketoacyl-synt_2 (PF13723)
"Beta-ketoacyl synthase, N-terminal domain"</title>
				<polygon class="PF13723" points="1162,40 1172,28 1179,28 1179,52 1172,52" stroke-linejoin="round" width="21" height="24" fill="rgb(57,130,212)" stroke="rgb(45,103,169)" stroke-width="1" opacity="0.75" />
			</g>
		</g>
		<g>
			<title> (ctg14_316)</title>
			<polygon class=" (ctg14_316)" points="1190,10 1203,40 1190,70" fill="rgb(255,255,255)" fill-opacity="1.0" stroke="rgb(0,0,0)" stroke-width="2"  />
		</g>
		<g>
			<title> (ctg14_317)</title>
			<polygon class=" (ctg14_317)" points="1204,25 1209,25 1209,10 1239,40 1209,70 1209,55 1204,55" fill="rgb(255,255,255)" fill-opacity="1.0" stroke="rgb(0,0,0)" stroke-width="2"  />
			<g>
				<title>Methyltransf_2 (PF00891)
"O-methyltransferase domain"</title>
				<polygon class="PF00891" points="1221,28 1223,28 1235,40 1223,52 1221,52" stroke-linejoin="round" width="16" height="24" fill="rgb(50,51,190)" stroke="rgb(39,40,152)" stroke-width="1" opacity="0.75" />
			</g>
		</g>
		<g>
			<title> (ctg14_318)</title>
			<polygon class=" (ctg14_318)" points="1242,10 1249,40 1242,70" fill="rgb(255,255,255)" fill-opacity="1.0" stroke="rgb(0,0,0)" stroke-width="2"  />
		</g>
		<g>
			<title> (ctg14_319)</title>
			<polygon class=" (ctg14_319)" points="1250,40 1275,10 1275,70" fill="rgb(255,255,255)" fill-opacity="1.0" stroke="rgb(0,0,0)" stroke-width="2"  />
			<g>
				<title>Endonuclease_NS (PF01223)
"DNA/RNA non-specific endonuclease"</title>
				<polygon class="PF01223" points="1254,40 1264,28 1271,28 1271,52 1264,52" stroke-linejoin="round" width="20" height="24" fill="rgb(143,220,95)" stroke="rgb(114,176,76)" stroke-width="1" opacity="0.75" />
			</g>
		</g>
		<g>
			<title> (ctg14_320)</title>
			<polygon class=" (ctg14_320)" points="1316,25 1313,25 1313,10 1283,40 1313,70 1313,55 1316,55" fill="rgb(255,255,255)" fill-opacity="1.0" stroke="rgb(0,0,0)" stroke-width="2"  />
			<g>
				<title>Cytochrom_C (PF00034)
"Cytochrome c"</title>
				<polygon class="PF00034" points="1287,40 1296,31 1296,49" stroke-linejoin="round" width="11" height="24" fill="rgb(130,184,61)" stroke="rgb(104,147,48)" stroke-width="1" opacity="0.75" />
			</g>
			<g>
				<title>CCP_MauG (PF03150)
"Di-haem cytochrome c peroxidase"</title>
				<polygon class="PF03150" points="1297,30 1299,28 1311,28 1311,52 1299,52 1297,50" stroke-linejoin="round" width="14" height="24" fill="rgb(214,79,187)" stroke="rgb(171,63,149)" stroke-width="1" opacity="0.75" />
			</g>
		</g>
		<g>
			<title> (ctg14_321)</title>
			<polygon class=" (ctg14_321)" points="1331,10 1355,40 1331,70" fill="rgb(255,255,255)" fill-opacity="1.0" stroke="rgb(0,0,0)" stroke-width="2"  />
			<g>
				<title>Carb_anhydrase (PF00194)
"Eukaryotic-type carbonic anhydrase"</title>
				<polygon class="PF00194" points="1333,28 1342,28 1351,40 1342,52 1333,52" stroke-linejoin="round" width="21" height="24" fill="rgb(47,185,72)" stroke="rgb(37,148,57)" stroke-width="1" opacity="0.75" />
			</g>
		</g>
		<g>
			<title> (ctg14_322)</title>
			<polygon class=" (ctg14_322)" points="1388,25 1388,25 1388,10 1358,40 1388,70 1388,55 1388,55" fill="rgb(255,255,255)" fill-opacity="1.0" stroke="rgb(0,0,0)" stroke-width="2"  />
			<g>
				<title>Indigoidine_A (PF04227)
"Indigoidine synthase A like protein"</title>
				<polygon class="PF04227" points="1362,40 1374,28 1387,28 1387,52 1374,52" stroke-linejoin="round" width="29" height="24" fill="rgb(186,184,81)" stroke="rgb(148,147,64)" stroke-width="1" opacity="0.75" />
			</g>
		</g>
		<g>
			<title> (ctg14_323)</title>
			<polygon class=" (ctg14_323)" points="1424,25 1418,25 1418,10 1388,40 1418,70 1418,55 1424,55" fill="rgb(255,255,255)" fill-opacity="1.0" stroke="rgb(0,0,0)" stroke-width="2"  />
			<g>
				<title>PfkB (PF00294)
"pfkB family carbohydrate kinase"</title>
				<polygon class="PF00294" points="1392,40 1404,28 1418,28 1418,52 1404,52" stroke-linejoin="round" width="29" height="24" fill="rgb(153,96,212)" stroke="rgb(122,76,169)" stroke-width="1" opacity="0.75" />
			</g>
			<g>
				<title>HTH_24 (PF13412)
"Winged helix-turn-helix DNA-binding"</title>
				<rect class="PF13412" x="1419" y="28" stroke-linejoin="round" width="4" height="24" fill="rgb(222,79,68)" stroke="rgb(177,63,54)" stroke-width="1" opacity="0.75" />
			</g>
		</g>
		<g>
			<title> (ctg14_324)</title>
			<polygon class=" (ctg14_324)" points="1431,10 1447,40 1431,70" fill="rgb(255,255,255)" fill-opacity="1.0" stroke="rgb(0,0,0)" stroke-width="2"  />
			<g>
				<title>SpoU_methylase (PF00588)
"SpoU rRNA Methylase family"</title>
				<polygon class="PF00588" points="1433,28 1437,28 1444,40 1437,52 1433,52" stroke-linejoin="round" width="13" height="24" fill="rgb(84,205,178)" stroke="rgb(67,164,142)" stroke-width="1" opacity="0.75" />
			</g>
		</g>
	</g>
</svg>
