<svg version="1.1" baseProfile="full" xmlns="http://www.w3.org/2000/svg" width="707.9666666666667" height="80">
	<g>
		<line x1="10" y1="40.0" x2="697.9666666666667" y2="40.0" style="stroke:rgb(70,70,70); stroke-width:3 "/>
		<g>
			<title> (ctg4_226)</title>
			<polygon class=" (ctg4_226)" points="58,25 78,25 78,10 108,40 78,70 78,55 58,55" fill="rgb(255,255,255)" fill-opacity="1.0" stroke="rgb(0,0,0)" stroke-width="2"  />
			<g>
				<title>HTH_11 (PF08279)
"HTH domain"</title>
				<rect class="PF08279" x="58" y="28" stroke-linejoin="round" width="5" height="24" fill="rgb(188,106,60)" stroke="rgb(150,84,48)" stroke-width="1" opacity="0.75" />
			</g>
			<g>
				<title>Mga (PF05043)
"Mga helix-turn-helix domain"</title>
				<rect class="PF05043" x="67" y="28" stroke-linejoin="round" width="7" height="24" fill="rgb(84,206,175)" stroke="rgb(67,164,140)" stroke-width="1" opacity="0.75" />
			</g>
			<g>
				<title>PRD (PF00874)
"PRD domain"</title>
				<rect class="PF00874" x="78" y="28" stroke-linejoin="round" width="8" height="24" fill="rgb(72,210,205)" stroke="rgb(57,168,164)" stroke-width="1" opacity="0.75" />
			</g>
			<g>
				<title>PRD (PF00874)
"PRD domain"</title>
				<polygon class="PF00874" points="89,28 92,28 98,34 98,46 92,52 89,52" stroke-linejoin="round" width="9" height="24" fill="rgb(72,210,205)" stroke="rgb(57,168,164)" stroke-width="1" opacity="0.75" />
			</g>
		</g>
		<g>
			<title> (ctg4_227)</title>
			<polygon class=" (ctg4_227)" points="109,10 124,40 109,70" fill="rgb(255,255,255)" fill-opacity="1.0" stroke="rgb(0,0,0)" stroke-width="2"  />
			<g>
				<title>PTS_EIIA_2 (PF00359)
"Phosphoenolpyruvate-dependent sugar phosphotransferase system, EIIA 2"</title>
				<polygon class="PF00359" points="109,28 114,28 121,40 114,52 109,52" stroke-linejoin="round" width="14" height="24" fill="rgb(115,83,186)" stroke="rgb(91,66,148)" stroke-width="1" opacity="0.75" />
			</g>
		</g>
		<g>
			<title> (ctg4_228)</title>
			<polygon class=" (ctg4_228)" points="128,25 145,25 145,10 175,40 145,70 145,55 128,55" fill="rgb(255,255,255)" fill-opacity="1.0" stroke="rgb(0,0,0)" stroke-width="2"  />
			<g>
				<title>PTS_IIB (PF02302)
"PTS system, Lactose/Cellobiose specific IIB subunit"</title>
				<rect class="PF02302" x="128" y="28" stroke-linejoin="round" width="9" height="24" fill="rgb(106,212,56)" stroke="rgb(84,169,44)" stroke-width="1" opacity="0.75" />
			</g>
			<g>
				<title>PTS_EIIC (PF02378)
"Phosphotransferase system, EIIC"</title>
				<polygon class="PF02378" points="141,28 159,28 167,36 167,44 159,52 141,52" stroke-linejoin="round" width="26" height="24" fill="rgb(73,199,212)" stroke="rgb(58,159,169)" stroke-width="1" opacity="0.75" />
			</g>
		</g>
		<g>
			<title> (ctg4_229)</title>
			<polygon class=" (ctg4_229)" points="176,10 204,40 176,70" fill="rgb(255,255,255)" fill-opacity="1.0" stroke="rgb(0,0,0)" stroke-width="2"  />
			<g>
				<title>F_bP_aldolase (PF01116)
"Fructose-bisphosphate aldolase class-II"</title>
				<polygon class="PF01116" points="176,28 188,28 200,40 188,52 176,52" stroke-linejoin="round" width="27" height="24" fill="rgb(188,67,71)" stroke="rgb(150,53,56)" stroke-width="1" opacity="0.75" />
			</g>
		</g>
		<g>
			<title> (ctg4_230)</title>
			<polygon class=" (ctg4_230)" points="219,40 227,10 227,70" fill="rgb(255,255,255)" fill-opacity="1.0" stroke="rgb(0,0,0)" stroke-width="2"  />
		</g>
		<g>
			<title> (ctg4_231)</title>
			<polygon class=" (ctg4_231)" points="237,40 262,10 262,70" fill="rgb(255,255,255)" fill-opacity="1.0" stroke="rgb(0,0,0)" stroke-width="2"  />
			<g>
				<title>CDH (PF02611)
"CDP-diacylglycerol pyrophosphatase"</title>
				<polygon class="PF02611" points="241,40 251,28 260,28 260,52 251,52" stroke-linejoin="round" width="22" height="24" fill="rgb(186,73,160)" stroke="rgb(148,58,128)" stroke-width="1" opacity="0.75" />
			</g>
		</g>
		<g>
			<title> (ctg4_232)</title>
			<polygon class=" (ctg4_232)" points="264,40 278,10 278,70" fill="rgb(255,255,255)" fill-opacity="1.0" stroke="rgb(0,0,0)" stroke-width="2"  />
		</g>
		<g>
			<title> (ctg4_233)</title>
			<polygon class=" (ctg4_233)" points="283,40 287,10 287,70" fill="rgb(255,255,255)" fill-opacity="1.0" stroke="rgb(0,0,0)" stroke-width="2"  />
		</g>
		<g>
			<title> (ctg4_234)</title>
			<polygon class=" (ctg4_234)" points="319,10 342,40 319,70" fill="rgb(255,255,255)" fill-opacity="1.0" stroke="rgb(0,0,0)" stroke-width="2"  />
			<g>
				<title>Autoind_bind (PF03472)
"Autoinducer binding domain"</title>
				<polygon class="PF03472" points="320,28 329,28 333,34 333,46 329,52 320,52" stroke-linejoin="round" width="13" height="24" fill="rgb(99,181,52)" stroke="rgb(79,144,41)" stroke-width="1" opacity="0.75" />
			</g>
			<g>
				<title>GerE (PF00196)
"Bacterial regulatory proteins, luxR family"</title>
				<polygon class="PF00196" points="335,36 338,40 335,44" stroke-linejoin="round" width="5" height="24" fill="rgb(219,94,82)" stroke="rgb(175,75,65)" stroke-width="1" opacity="0.75" />
			</g>
		</g>
		<g>
			<title> (ctg4_235)</title>
			<polygon class=" (ctg4_235)" points="343,40 364,10 364,70" fill="rgb(255,255,255)" fill-opacity="1.0" stroke="rgb(0,0,0)" stroke-width="2"  />
			<g>
				<title>Autoind_synth (PF00765)
"Autoinducer synthase"</title>
				<polygon class="PF00765" points="347,40 356,28 362,28 362,52 356,52" stroke-linejoin="round" width="17" height="24" fill="rgb(197,72,80)" stroke="rgb(157,57,64)" stroke-width="1" opacity="0.75" />
			</g>
		</g>
		<g>
			<title> (ctg4_236)</title>
			<polygon class=" (ctg4_236)" points="384,40 395,10 395,70" fill="rgb(255,255,255)" fill-opacity="1.0" stroke="rgb(0,0,0)" stroke-width="2"  />
			<g>
				<title>SymE_toxin (PF08845)
"Toxin SymE, type I toxin-antitoxin system"</title>
				<polygon class="PF08845" points="387,40 391,28 392,28 392,52 391,52 387,40" stroke-linejoin="round" width="5" height="24" fill="rgb(182,130,62)" stroke="rgb(145,104,49)" stroke-width="1" opacity="0.75" />
			</g>
		</g>
		<g>
			<title> (ctg4_237)</title>
			<polygon class=" (ctg4_237)" points="413,40 423,10 423,70" fill="rgb(255,255,255)" fill-opacity="1.0" stroke="rgb(0,0,0)" stroke-width="2"  />
			<g>
				<title>HTH_3 (PF01381)
"Helix-turn-helix"</title>
				<polygon class="PF01381" points="416,40 418,34 418,46" stroke-linejoin="round" width="4" height="24" fill="rgb(105,79,202)" stroke="rgb(83,63,161)" stroke-width="1" opacity="0.75" />
			</g>
		</g>
		<g>
			<title> (ctg4_238)</title>
			<polygon class=" (ctg4_238)" points="423,40 432,10 432,70" fill="rgb(255,255,255)" fill-opacity="1.0" stroke="rgb(0,0,0)" stroke-width="2"  />
			<g>
				<title>RelE (PF06296)
"RelE toxin of RelE / RelB toxin-antitoxin system"</title>
				<polygon class="PF06296" points="426,40 430,28 430,28 430,52 430,52" stroke-linejoin="round" width="7" height="24" fill="rgb(184,93,61)" stroke="rgb(147,74,48)" stroke-width="1" opacity="0.75" />
			</g>
		</g>
		<g>
			<title> (ctg4_239)</title>
			<polygon class=" (ctg4_239)" points="438,25 443,25 443,10 473,40 443,70 443,55 438,55" fill="rgb(255,255,255)" fill-opacity="1.0" stroke="rgb(0,0,0)" stroke-width="2"  />
		</g>
		<g>
			<title> (ctg4_240)</title>
			<polygon class=" (ctg4_240)" points="483,40 486,10 486,70" fill="rgb(255,255,255)" fill-opacity="1.0" stroke="rgb(0,0,0)" stroke-width="2"  />
		</g>
		<g>
			<title> (ctg4_241)</title>
			<polygon class=" (ctg4_241)" points="517,40 541,10 541,70" fill="rgb(255,255,255)" fill-opacity="1.0" stroke="rgb(0,0,0)" stroke-width="2"  />
		</g>
		<g>
			<title> (ctg4_242)</title>
			<polygon class=" (ctg4_242)" points="553,40 559,10 559,70" fill="rgb(255,255,255)" fill-opacity="1.0" stroke="rgb(0,0,0)" stroke-width="2"  />
			<g>
				<title>Pox_D5 (PF03288)
"Poxvirus D5 protein-like"</title>
				<polygon class="PF03288" points="556,40 558,31 558,49" stroke-linejoin="round" width="5" height="24" fill="rgb(66,90,179)" stroke="rgb(52,72,143)" stroke-width="1" opacity="0.75" />
			</g>
		</g>
		<g>
			<title> (ctg4_243)</title>
			<polygon class=" (ctg4_243)" points="563,10 581,40 563,70" fill="rgb(255,255,255)" fill-opacity="1.0" stroke="rgb(0,0,0)" stroke-width="2"  />
			<g>
				<title>Psu (PF07455)
"Phage polarity suppression protein (Psu)"</title>
				<polygon class="PF07455" points="563,28 570,28 577,40 570,52 563,52" stroke-linejoin="round" width="17" height="24" fill="rgb(196,97,121)" stroke="rgb(156,77,96)" stroke-width="1" opacity="0.75" />
			</g>
		</g>
		<g>
			<title> (ctg4_244)</title>
			<polygon class=" (ctg4_244)" points="581,10 590,40 581,70" fill="rgb(255,255,255)" fill-opacity="1.0" stroke="rgb(0,0,0)" stroke-width="2"  />
			<g>
				<title>Ogr_Delta (PF04606)
"Ogr/Delta-like zinc finger"</title>
				<polygon class="PF04606" points="581,28 582,28 585,34 585,46 582,52 581,52" stroke-linejoin="round" width="4" height="24" fill="rgb(180,76,51)" stroke="rgb(144,60,40)" stroke-width="1" opacity="0.75" />
			</g>
		</g>
		<g>
			<title> (ctg4_245)</title>
			<polygon class=" (ctg4_245)" points="609,25 617,25 617,10 647,40 617,70 617,55 609,55" fill="rgb(255,255,255)" fill-opacity="1.0" stroke="rgb(0,0,0)" stroke-width="2"  />
			<g>
				<title>MazG (PF03819)
"MazG nucleotide pyrophosphohydrolase domain"</title>
				<rect class="PF03819" x="611" y="28" stroke-linejoin="round" width="7" height="24" fill="rgb(199,54,154)" stroke="rgb(159,43,123)" stroke-width="1" opacity="0.75" />
			</g>
			<g>
				<title>MazG_C (PF18722)
"MazG C-terminal domain"</title>
				<polygon class="PF18722" points="628,28 630,28 642,40 630,52 628,52" stroke-linejoin="round" width="18" height="24" fill="rgb(91,92,186)" stroke="rgb(72,73,148)" stroke-width="1" opacity="0.75" />
			</g>
		</g>
		<g>
			<title> (ctg4_246)</title>
			<polygon class=" (ctg4_246)" points="647,10 669,40 647,70" fill="rgb(255,255,255)" fill-opacity="1.0" stroke="rgb(0,0,0)" stroke-width="2"  />
		</g>
	</g>
</svg>
