<svg version="1.1" baseProfile="full" xmlns="http://www.w3.org/2000/svg" width="1472.9" height="80">
	<g>
		<line x1="10" y1="40.0" x2="1462.9" y2="40.0" style="stroke:rgb(70,70,70); stroke-width:3 "/>
		<g>
			<title> (ctg3_88)</title>
			<polygon class=" (ctg3_88)" points="33,10 39,40 33,70" fill="rgb(255,255,255)" fill-opacity="1.0" stroke="rgb(0,0,0)" stroke-width="2"  />
			<g>
				<title>DUF6404 (PF19942)
"Family of unknown function (DUF6404)"</title>
				<polygon class="PF19942" points="33,28 33,28 36,40 33,52 33,52" stroke-linejoin="round" width="6" height="24" fill="rgb(57,208,61)" stroke="rgb(45,166,48)" stroke-width="1" opacity="0.75" />
			</g>
		</g>
		<g>
			<title> (ctg3_89)</title>
			<polygon class=" (ctg3_89)" points="90,25 70,25 70,10 40,40 70,70 70,55 90,55" fill="rgb(255,255,255)" fill-opacity="1.0" stroke="rgb(0,0,0)" stroke-width="2"  />
			<g>
				<title>STAS (PF01740)
"STAS domain"</title>
				<polygon class="PF01740" points="44,40 48,36 48,44" stroke-linejoin="round" width="8" height="24" fill="rgb(219,58,116)" stroke="rgb(175,46,92)" stroke-width="1" opacity="0.75" />
			</g>
			<g>
				<title>Sulfate_transp (PF00916)
"Sulfate permease family"</title>
				<polygon class="PF00916" points="52,32 56,28 73,28 73,52 56,52 52,48" stroke-linejoin="round" width="21" height="24" fill="rgb(189,61,212)" stroke="rgb(151,48,169)" stroke-width="1" opacity="0.75" />
			</g>
		</g>
		<g>
			<title> (ctg3_90)</title>
			<polygon class=" (ctg3_90)" points="95,40 103,10 103,70" fill="rgb(255,255,255)" fill-opacity="1.0" stroke="rgb(0,0,0)" stroke-width="2"  />
			<g>
				<title>YmgB (PF10798)
"Biofilm development protein YmgB/AriR"</title>
				<polygon class="PF10798" points="98,40 100,33 100,47" stroke-linejoin="round" width="5" height="24" fill="rgb(65,182,55)" stroke="rgb(52,145,44)" stroke-width="1" opacity="0.75" />
			</g>
		</g>
		<g>
			<title> (ctg3_91)</title>
			<polygon class=" (ctg3_91)" points="117,40 130,10 130,70" fill="rgb(255,255,255)" fill-opacity="1.0" stroke="rgb(0,0,0)" stroke-width="2"  />
			<g>
				<title>DUF2000 (PF09391)
"Protein of unknown function (DUF2000)"</title>
				<polygon class="PF09391" points="120,40 125,28 130,28 130,52 125,52" stroke-linejoin="round" width="13" height="24" fill="rgb(96,107,213)" stroke="rgb(76,85,170)" stroke-width="1" opacity="0.75" />
			</g>
		</g>
		<g>
			<title> (ctg3_92)</title>
			<polygon class=" (ctg3_92)" points="132,40 160,10 160,70" fill="rgb(255,255,255)" fill-opacity="1.0" stroke="rgb(0,0,0)" stroke-width="2"  />
			<g>
				<title>HTH_18 (PF12833)
"Helix-turn-helix domain"</title>
				<polygon class="PF12833" points="136,40 139,37 139,43" stroke-linejoin="round" width="7" height="24" fill="rgb(216,58,224)" stroke="rgb(172,46,179)" stroke-width="1" opacity="0.75" />
			</g>
			<g>
				<title>AraC_binding (PF02311)
"AraC-like ligand binding domain"</title>
				<polygon class="PF02311" points="144,32 147,28 158,28 158,52 147,52 144,48" stroke-linejoin="round" width="14" height="24" fill="rgb(81,203,213)" stroke="rgb(64,162,170)" stroke-width="1" opacity="0.75" />
			</g>
		</g>
		<g>
			<title> (ctg3_93)</title>
			<polygon class=" (ctg3_93)" points="165,10 179,40 165,70" fill="rgb(255,255,255)" fill-opacity="1.0" stroke="rgb(0,0,0)" stroke-width="2"  />
			<g>
				<title>MarR_2 (PF12802)
"MarR family"</title>
				<polygon class="PF12802" points="168,28 170,28 174,36 174,44 170,52 168,52" stroke-linejoin="round" width="6" height="24" fill="rgb(46,89,185)" stroke="rgb(36,71,148)" stroke-width="1" opacity="0.75" />
			</g>
		</g>
		<g>
			<title> (ctg3_94)</title>
			<polygon class=" (ctg3_94)" points="181,25 205,25 205,10 235,40 205,70 205,55 181,55" fill="rgb(255,255,255)" fill-opacity="1.0" stroke="rgb(0,0,0)" stroke-width="2"  />
			<g>
				<title>MFS_1 (PF07690)
"Major Facilitator Superfamily"</title>
				<polygon class="PF07690" points="183,28 219,28 222,31 222,49 219,52 183,52" stroke-linejoin="round" width="39" height="24" fill="rgb(193,224,74)" stroke="rgb(154,179,59)" stroke-width="1" opacity="0.75" />
			</g>
		</g>
		<g>
			<title> (ctg3_95)</title>
			<polygon class=" (ctg3_95)" points="236,25 242,25 242,10 272,40 242,70 242,55 236,55" fill="rgb(255,255,255)" fill-opacity="1.0" stroke="rgb(0,0,0)" stroke-width="2"  />
			<g>
				<title>HlyD_D23 (PF16576)
"Barrel-sandwich domain of CusB or HlyD membrane-fusion"</title>
				<polygon class="PF16576" points="241,28 256,28 266,38 266,42 256,52 241,52" stroke-linejoin="round" width="25" height="24" fill="rgb(70,190,92)" stroke="rgb(56,152,73)" stroke-width="1" opacity="0.75" />
			</g>
		</g>
		<g>
			<title> (ctg3_96)</title>
			<polygon class=" (ctg3_96)" points="272,25 288,25 288,10 318,40 288,70 288,55 272,55" fill="rgb(255,255,255)" fill-opacity="1.0" stroke="rgb(0,0,0)" stroke-width="2"  />
			<g>
				<title>OEP (PF02321)
"Outer membrane efflux protein"</title>
				<rect class="PF02321" x="277" y="28" stroke-linejoin="round" width="18" height="24" fill="rgb(205,57,201)" stroke="rgb(164,45,160)" stroke-width="1" opacity="0.75" />
			</g>
			<g>
				<title>OEP (PF02321)
"Outer membrane efflux protein"</title>
				<polygon class="PF02321" points="298,28 301,28 313,40 301,52 298,52" stroke-linejoin="round" width="18" height="24" fill="rgb(205,57,201)" stroke="rgb(164,45,160)" stroke-width="1" opacity="0.75" />
			</g>
		</g>
		<g>
			<title> (ctg3_97)</title>
			<polygon class=" (ctg3_97)" points="327,10 339,40 327,70" fill="rgb(255,255,255)" fill-opacity="1.0" stroke="rgb(0,0,0)" stroke-width="2"  />
		</g>
		<g>
			<title> (ctg3_98)</title>
			<polygon class=" (ctg3_98)" points="348,10 372,40 348,70" fill="rgb(255,255,255)" fill-opacity="1.0" stroke="rgb(0,0,0)" stroke-width="2"  />
			<g>
				<title>Ketoacyl-synt_2 (PF13723)
"Beta-ketoacyl synthase, N-terminal domain"</title>
				<polygon class="PF13723" points="350,28 359,28 368,40 359,52 350,52" stroke-linejoin="round" width="21" height="24" fill="rgb(57,130,212)" stroke="rgb(45,103,169)" stroke-width="1" opacity="0.75" />
			</g>
		</g>
		<g>
			<title> (ctg3_99)</title>
			<polygon class=" (ctg3_99)" points="372,10 398,40 372,70" fill="rgb(255,255,255)" fill-opacity="1.0" stroke="rgb(0,0,0)" stroke-width="2"  />
			<g>
				<title>Acyltransferase (PF01553)
"Acyltransferase"</title>
				<polygon class="PF01553" points="380,28 383,28 392,37 392,43 383,52 380,52" stroke-linejoin="round" width="12" height="24" fill="rgb(87,176,216)" stroke="rgb(69,140,172)" stroke-width="1" opacity="0.75" />
			</g>
		</g>
		<g>
			<title> (ctg3_100)</title>
			<polygon class=" (ctg3_100)" points="399,10 407,40 399,70" fill="rgb(255,255,255)" fill-opacity="1.0" stroke="rgb(0,0,0)" stroke-width="2"  />
			<g>
				<title>PP-binding (PF00550)
"Phosphopantetheine attachment site"</title>
				<polygon class="PF00550" points="399,28 400,28 404,40 400,52 399,52" stroke-linejoin="round" width="7" height="24" fill="rgb(103,191,88)" stroke="rgb(82,152,70)" stroke-width="1" opacity="0.75" />
			</g>
		</g>
		<g>
			<title> (ctg3_101)</title>
			<polygon class=" (ctg3_101)" points="408,10 416,40 408,70" fill="rgb(255,255,255)" fill-opacity="1.0" stroke="rgb(0,0,0)" stroke-width="2"  />
			<g>
				<title>PP-binding (PF00550)
"Phosphopantetheine attachment site"</title>
				<polygon class="PF00550" points="408,28 409,28 413,40 409,52 408,52" stroke-linejoin="round" width="6" height="24" fill="rgb(103,191,88)" stroke="rgb(82,152,70)" stroke-width="1" opacity="0.75" />
			</g>
		</g>
		<g>
			<title> (ctg3_102)</title>
			<polygon class=" (ctg3_102)" points="417,10 435,40 417,70" fill="rgb(255,255,255)" fill-opacity="1.0" stroke="rgb(0,0,0)" stroke-width="2"  />
		</g>
		<g>
			<title> (ctg3_103)</title>
			<polygon class=" (ctg3_103)" points="435,25 449,25 449,10 479,40 449,70 449,55 435,55" fill="rgb(255,255,255)" fill-opacity="1.0" stroke="rgb(0,0,0)" stroke-width="2"  />
			<g>
				<title>AMP-binding (PF00501)
"AMP-binding enzyme"</title>
				<polygon class="PF00501" points="442,28 462,28 464,30 464,50 462,52 442,52" stroke-linejoin="round" width="22" height="24" fill="rgb(60,217,223)" stroke="rgb(48,173,178)" stroke-width="1" opacity="0.75" />
			</g>
		</g>
		<g>
			<title> (ctg3_104)</title>
			<polygon class=" (ctg3_104)" points="479,10 490,40 479,70" fill="rgb(255,255,255)" fill-opacity="1.0" stroke="rgb(0,0,0)" stroke-width="2"  />
			<g>
				<title>FabA (PF07977)
"FabA-like domain"</title>
				<polygon class="PF07977" points="479,28 482,28 487,40 482,52 479,52" stroke-linejoin="round" width="10" height="24" fill="rgb(66,205,188)" stroke="rgb(52,164,150)" stroke-width="1" opacity="0.75" />
			</g>
		</g>
		<g>
			<title> (ctg3_105)</title>
			<polygon class=" (ctg3_105)" points="490,25 517,25 517,10 547,40 517,70 517,55 490,55" fill="rgb(255,255,255)" fill-opacity="1.0" stroke="rgb(0,0,0)" stroke-width="2"  />
			<g>
				<title>Glycos_transf_2 (PF00535)
"Glycosyl transferase family 2"</title>
				<rect class="PF00535" x="490" y="28" stroke-linejoin="round" width="16" height="24" fill="rgb(224,122,96)" stroke="rgb(179,97,76)" stroke-width="1" opacity="0.75" />
			</g>
		</g>
		<g>
			<title> (ctg3_106)</title>
			<polygon class=" (ctg3_106)" points="547,10 560,40 547,70" fill="rgb(255,255,255)" fill-opacity="1.0" stroke="rgb(0,0,0)" stroke-width="2"  />
			<g>
				<title>4HBT (PF03061)
"Thioesterase superfamily"</title>
				<polygon class="PF03061" points="549,28 551,28 557,39 557,41 551,52 549,52" stroke-linejoin="round" width="8" height="24" fill="rgb(143,103,215)" stroke="rgb(114,82,172)" stroke-width="1" opacity="0.75" />
			</g>
		</g>
		<g>
			<title> (ctg3_107)</title>
			<polygon class=" (ctg3_107)" points="561,10 581,40 561,70" fill="rgb(255,255,255)" fill-opacity="1.0" stroke="rgb(0,0,0)" stroke-width="2"  />
			<g>
				<title>LolA_3 (PF19574)
"Outer membrane lipoprotein carrier protein LolA-like"</title>
				<polygon class="PF19574" points="562,28 569,28 577,40 569,52 562,52" stroke-linejoin="round" width="18" height="24" fill="rgb(55,185,49)" stroke="rgb(43,148,39)" stroke-width="1" opacity="0.75" />
			</g>
		</g>
		<g>
			<title> (ctg3_108)</title>
			<polygon class=" (ctg3_108)" points="580,25 626,25 626,10 656,40 626,70 626,55 580,55" fill="rgb(255,255,255)" fill-opacity="1.0" stroke="rgb(0,0,0)" stroke-width="2"  />
			<g>
				<title>MMPL (PF03176)
"MMPL family"</title>
				<rect class="PF03176" x="600" y="28" stroke-linejoin="round" width="22" height="24" fill="rgb(228,109,193)" stroke="rgb(182,87,154)" stroke-width="1" opacity="0.75" />
			</g>
		</g>
		<g>
			<title> (ctg3_109)</title>
			<polygon class=" (ctg3_109)" points="657,10 676,40 657,70" fill="rgb(255,255,255)" fill-opacity="1.0" stroke="rgb(0,0,0)" stroke-width="2"  />
			<g>
				<title>DUF3261 (PF11659)
"Protein of unknown function (DUF3261)"</title>
				<polygon class="PF11659" points="661,28 664,28 672,40 664,52 661,52" stroke-linejoin="round" width="13" height="24" fill="rgb(224,86,172)" stroke="rgb(179,68,137)" stroke-width="1" opacity="0.75" />
			</g>
		</g>
		<g>
			<title> (ctg3_110)</title>
			<polygon class=" (ctg3_110)" points="676,25 684,25 684,10 714,40 684,70 684,55 676,55" fill="rgb(255,255,255)" fill-opacity="1.0" stroke="rgb(0,0,0)" stroke-width="2"  />
			<g>
				<title>ketoacyl-synt (PF00109)
"Beta-ketoacyl synthase, N-terminal domain"</title>
				<rect class="PF00109" x="682" y="28" stroke-linejoin="round" width="16" height="24" fill="rgb(112,116,228)" stroke="rgb(89,92,182)" stroke-width="1" opacity="0.75" />
			</g>
			<g>
				<title>Ketoacyl-synt_C (PF02801)
"Beta-ketoacyl synthase, C-terminal domain"</title>
				<polygon class="PF02801" points="698,28 698,28 708,38 708,42 698,52 698,52" stroke-linejoin="round" width="10" height="24" fill="rgb(215,78,102)" stroke="rgb(172,62,81)" stroke-width="1" opacity="0.75" />
			</g>
		</g>
		<g>
			<title> (ctg3_111)</title>
			<polygon class=" (ctg3_111)" points="715,10 730,40 715,70" fill="rgb(255,255,255)" fill-opacity="1.0" stroke="rgb(0,0,0)" stroke-width="2"  />
		</g>
		<g>
			<title> (ctg3_112)</title>
			<polygon class=" (ctg3_112)" points="730,10 754,40 730,70" fill="rgb(255,255,255)" fill-opacity="1.0" stroke="rgb(0,0,0)" stroke-width="2"  />
			<g>
				<title>adh_short_C2 (PF13561)
"Enoyl-(Acyl carrier protein) reductase"</title>
				<polygon class="PF13561" points="730,28 741,28 750,40 741,52 730,52" stroke-linejoin="round" width="23" height="24" fill="rgb(73,205,127)" stroke="rgb(58,164,101)" stroke-width="1" opacity="0.75" />
			</g>
		</g>
		<g>
			<title> (ctg3_113)</title>
			<polygon class=" (ctg3_113)" points="755,25 766,25 766,10 796,40 766,70 766,55 755,55" fill="rgb(255,255,255)" fill-opacity="1.0" stroke="rgb(0,0,0)" stroke-width="2"  />
			<g>
				<title>ketoacyl-synt (PF00109)
"Beta-ketoacyl synthase, N-terminal domain"</title>
				<rect class="PF00109" x="755" y="28" stroke-linejoin="round" width="24" height="24" fill="rgb(112,116,228)" stroke="rgb(89,92,182)" stroke-width="1" opacity="0.75" />
			</g>
			<g>
				<title>Ketoacyl-synt_C (PF02801)
"Beta-ketoacyl synthase, C-terminal domain"</title>
				<polygon class="PF02801" points="780,29 791,40 791,40 780,51" stroke-linejoin="round" width="11" height="24" fill="rgb(215,78,102)" stroke="rgb(172,62,81)" stroke-width="1" opacity="0.75" />
			</g>
		</g>
		<g>
			<title> (ctg3_114)</title>
			<polygon class=" (ctg3_114)" points="800,10 804,40 800,70" fill="rgb(255,255,255)" fill-opacity="1.0" stroke="rgb(0,0,0)" stroke-width="2"  />
		</g>
		<g>
			<title> (ctg3_115)</title>
			<polygon class=" (ctg3_115)" points="806,10 811,40 806,70" fill="rgb(255,255,255)" fill-opacity="1.0" stroke="rgb(0,0,0)" stroke-width="2"  />
		</g>
		<g>
			<title> (ctg3_116)</title>
			<polygon class=" (ctg3_116)" points="850,25 842,25 842,10 812,40 842,70 842,55 850,55" fill="rgb(255,255,255)" fill-opacity="1.0" stroke="rgb(0,0,0)" stroke-width="2"  />
		</g>
		<g>
			<title> (ctg3_117)</title>
			<polygon class=" (ctg3_117)" points="856,25 874,25 874,10 904,40 874,70 874,55 856,55" fill="rgb(255,255,255)" fill-opacity="1.0" stroke="rgb(0,0,0)" stroke-width="2"  />
			<g>
				<title>PLDc_2 (PF13091)
"PLD-like domain"</title>
				<rect class="PF13091" x="860" y="28" stroke-linejoin="round" width="14" height="24" fill="rgb(197,187,91)" stroke="rgb(157,149,72)" stroke-width="1" opacity="0.75" />
			</g>
			<g>
				<title>PLDc_2 (PF13091)
"PLD-like domain"</title>
				<polygon class="PF13091" points="884,28 888,28 898,38 898,42 888,52 884,52" stroke-linejoin="round" width="14" height="24" fill="rgb(197,187,91)" stroke="rgb(157,149,72)" stroke-width="1" opacity="0.75" />
			</g>
		</g>
		<g>
			<title> (ctg3_118)</title>
			<polygon class=" (ctg3_118)" points="951,25 944,25 944,10 914,40 944,70 944,55 951,55" fill="rgb(255,255,255)" fill-opacity="1.0" stroke="rgb(0,0,0)" stroke-width="2"  />
			<g>
				<title>Acyl_transf_3 (PF01757)
"Acyltransferase family"</title>
				<polygon class="PF01757" points="918,40 930,28 950,28 950,52 930,52" stroke-linejoin="round" width="34" height="24" fill="rgb(50,152,200)" stroke="rgb(40,121,160)" stroke-width="1" opacity="0.75" />
			</g>
		</g>
		<g>
			<title> (ctg3_119)</title>
			<polygon class=" (ctg3_119)" points="960,25 982,25 982,10 1012,40 982,70 982,55 960,55" fill="rgb(255,255,255)" fill-opacity="1.0" stroke="rgb(0,0,0)" stroke-width="2"  />
			<g>
				<title>MdoG (PF04349)
"Periplasmic glucan biosynthesis protein, MdoG"</title>
				<polygon class="PF04349" points="963,28 995,28 1007,40 995,52 963,52" stroke-linejoin="round" width="48" height="24" fill="rgb(53,100,213)" stroke="rgb(42,80,170)" stroke-width="1" opacity="0.75" />
			</g>
		</g>
		<g>
			<title> (ctg3_120)</title>
			<polygon class=" (ctg3_120)" points="1012,25 1067,25 1067,10 1097,40 1067,70 1067,55 1012,55" fill="rgb(255,255,255)" fill-opacity="1.0" stroke="rgb(0,0,0)" stroke-width="2"  />
			<g>
				<title>Glycos_transf_2 (PF00535)
"Glycosyl transferase family 2"</title>
				<rect class="PF00535" x="1037" y="28" stroke-linejoin="round" width="18" height="24" fill="rgb(224,122,96)" stroke="rgb(179,97,76)" stroke-width="1" opacity="0.75" />
			</g>
		</g>
		<g>
			<title> (ctg3_121)</title>
			<polygon class=" (ctg3_121)" points="1101,10 1109,40 1101,70" fill="rgb(255,255,255)" fill-opacity="1.0" stroke="rgb(0,0,0)" stroke-width="2"  />
			<g>
				<title>DUF1375 (PF07119)
"Protein of unknown function (DUF1375)"</title>
				<polygon class="PF07119" points="1106,40 1105,40 1106,40" stroke-linejoin="round" width="2" height="24" fill="rgb(196,78,49)" stroke="rgb(156,62,39)" stroke-width="1" opacity="0.75" />
			</g>
		</g>
		<g>
			<title> (ctg3_122)</title>
			<polygon class=" (ctg3_122)" points="1109,40 1122,10 1122,70" fill="rgb(255,255,255)" fill-opacity="1.0" stroke="rgb(0,0,0)" stroke-width="2"  />
			<g>
				<title>MsyB (PF13984)
"MsyB protein"</title>
				<polygon class="PF13984" points="1112,40 1117,28 1122,28 1122,52 1117,52" stroke-linejoin="round" width="12" height="24" fill="rgb(145,96,211)" stroke="rgb(115,76,168)" stroke-width="1" opacity="0.75" />
			</g>
		</g>
		<g>
			<title> (ctg3_123)</title>
			<polygon class=" (ctg3_123)" points="1127,40 1135,10 1135,70" fill="rgb(255,255,255)" fill-opacity="1.0" stroke="rgb(0,0,0)" stroke-width="2"  />
		</g>
		<g>
			<title> (ctg3_124)</title>
			<polygon class=" (ctg3_124)" points="1153,40 1178,10 1178,70" fill="rgb(255,255,255)" fill-opacity="1.0" stroke="rgb(0,0,0)" stroke-width="2"  />
			<g>
				<title>Lip_A_acyltrans (PF03279)
"Bacterial lipid A biosynthesis acyltransferase"</title>
				<polygon class="PF03279" points="1157,40 1167,28 1178,28 1178,52 1167,52" stroke-linejoin="round" width="24" height="24" fill="rgb(95,219,149)" stroke="rgb(76,175,119)" stroke-width="1" opacity="0.75" />
			</g>
		</g>
		<g>
			<title> (ctg3_125)</title>
			<polygon class=" (ctg3_125)" points="1193,25 1198,25 1198,10 1228,40 1198,70 1198,55 1193,55" fill="rgb(255,255,255)" fill-opacity="1.0" stroke="rgb(0,0,0)" stroke-width="2"  />
			<g>
				<title>UPF0176_N (PF17773)
"UPF0176 acylphosphatase like domain"</title>
				<rect class="PF17773" x="1195" y="28" stroke-linejoin="round" width="9" height="24" fill="rgb(73,125,224)" stroke="rgb(58,99,179)" stroke-width="1" opacity="0.75" />
			</g>
			<g>
				<title>Rhodanese (PF00581)
"Rhodanese-like domain"</title>
				<polygon class="PF00581" points="1206,28 1211,28 1215,32 1215,48 1211,52 1206,52" stroke-linejoin="round" width="9" height="24" fill="rgb(145,191,76)" stroke="rgb(116,152,60)" stroke-width="1" opacity="0.75" />
			</g>
			<g>
				<title>Rhodanese_C (PF12368)
"Rhodanase C-terminal"</title>
				<polygon class="PF12368" points="1217,34 1223,40 1223,40 1217,46" stroke-linejoin="round" width="6" height="24" fill="rgb(224,104,148)" stroke="rgb(179,83,118)" stroke-width="1" opacity="0.75" />
			</g>
		</g>
		<g>
			<title> (ctg3_126)</title>
			<polygon class=" (ctg3_126)" points="1229,40 1248,10 1248,70" fill="rgb(255,255,255)" fill-opacity="1.0" stroke="rgb(0,0,0)" stroke-width="2"  />
			<g>
				<title>YceI (PF04264)
"YceI-like domain"</title>
				<polygon class="PF04264" points="1233,40 1241,28 1245,28 1245,52 1241,52" stroke-linejoin="round" width="16" height="24" fill="rgb(170,111,224)" stroke="rgb(135,88,179)" stroke-width="1" opacity="0.75" />
			</g>
		</g>
		<g>
			<title> (ctg3_127)</title>
			<polygon class=" (ctg3_127)" points="1248,40 1269,10 1269,70" fill="rgb(255,255,255)" fill-opacity="1.0" stroke="rgb(0,0,0)" stroke-width="2"  />
			<g>
				<title>Ni_hydr_CYTB (PF01292)
"Prokaryotic cytochrome b561"</title>
				<polygon class="PF01292" points="1252,40 1261,28 1266,28 1266,52 1261,52" stroke-linejoin="round" width="17" height="24" fill="rgb(210,172,100)" stroke="rgb(168,137,80)" stroke-width="1" opacity="0.75" />
			</g>
		</g>
		<g>
			<title> (ctg3_128)</title>
			<polygon class=" (ctg3_128)" points="1314,25 1307,25 1307,10 1277,40 1307,70 1307,55 1314,55" fill="rgb(255,255,255)" fill-opacity="1.0" stroke="rgb(0,0,0)" stroke-width="2"  />
			<g>
				<title>DAO (PF01266)
"FAD dependent oxidoreductase"</title>
				<polygon class="PF01266" points="1281,40 1293,28 1312,28 1312,52 1293,52" stroke-linejoin="round" width="34" height="24" fill="rgb(123,179,59)" stroke="rgb(98,143,47)" stroke-width="1" opacity="0.75" />
			</g>
		</g>
		<g>
			<title> (ctg3_129)</title>
			<polygon class=" (ctg3_129)" points="1317,40 1325,10 1325,70" fill="rgb(255,255,255)" fill-opacity="1.0" stroke="rgb(0,0,0)" stroke-width="2"  />
			<g>
				<title>BssS (PF13991)
"BssS protein family"</title>
				<polygon class="PF13991" points="1320,40 1323,28 1324,28 1324,52 1323,52" stroke-linejoin="round" width="7" height="24" fill="rgb(184,194,59)" stroke="rgb(147,155,47)" stroke-width="1" opacity="0.75" />
			</g>
		</g>
		<g>
			<title> (ctg3_130)</title>
			<polygon class=" (ctg3_130)" points="1334,40 1343,10 1343,70" fill="rgb(255,255,255)" fill-opacity="1.0" stroke="rgb(0,0,0)" stroke-width="2"  />
		</g>
		<g>
			<title> (ctg3_131)</title>
			<polygon class=" (ctg3_131)" points="1348,40 1356,10 1356,70" fill="rgb(255,255,255)" fill-opacity="1.0" stroke="rgb(0,0,0)" stroke-width="2"  />
			<g>
				<title>DinI (PF06183)
"DinI-like family"</title>
				<polygon class="PF06183" points="1351,40 1354,28 1354,28 1354,52 1354,52" stroke-linejoin="round" width="6" height="24" fill="rgb(77,123,189)" stroke="rgb(61,98,151)" stroke-width="1" opacity="0.75" />
			</g>
		</g>
		<g>
			<title> (ctg3_132)</title>
			<polygon class=" (ctg3_132)" points="1392,25 1388,25 1388,10 1358,40 1388,70 1388,55 1392,55" fill="rgb(255,255,255)" fill-opacity="1.0" stroke="rgb(0,0,0)" stroke-width="2"  />
			<g>
				<title>Amidohydro_1 (PF01979)
"Amidohydrolase family"</title>
				<polygon class="PF01979" points="1362,40 1374,28 1391,28 1391,52 1374,52" stroke-linejoin="round" width="30" height="24" fill="rgb(210,93,184)" stroke="rgb(168,74,147)" stroke-width="1" opacity="0.75" />
			</g>
		</g>
		<g>
			<title> (ctg3_133)</title>
			<polygon class=" (ctg3_133)" points="1409,40 1427,10 1427,70" fill="rgb(255,255,255)" fill-opacity="1.0" stroke="rgb(0,0,0)" stroke-width="2"  />
			<g>
				<title>DUF1439 (PF07273)
"Protein of unknown function (DUF1439)"</title>
				<polygon class="PF07273" points="1413,40 1421,28 1424,28 1424,52 1421,52" stroke-linejoin="round" width="15" height="24" fill="rgb(221,225,104)" stroke="rgb(176,180,83)" stroke-width="1" opacity="0.75" />
			</g>
		</g>
		<g>
			<title> (ctg3_134)</title>
			<polygon class=" (ctg3_134)" points="1431,40 1452,10 1452,70" fill="rgb(255,255,255)" fill-opacity="1.0" stroke="rgb(0,0,0)" stroke-width="2"  />
			<g>
				<title>Glutaredoxin2_C (PF04399)
"Glutaredoxin 2, C terminal domain"</title>
				<polygon class="PF04399" points="1435,40 1443,29 1443,51" stroke-linejoin="round" width="12" height="24" fill="rgb(143,54,208)" stroke="rgb(114,43,166)" stroke-width="1" opacity="0.75" />
			</g>
			<g>
				<title>GST_N_3 (PF13417)
"Glutathione S-transferase, N-terminal domain"</title>
				<polygon class="PF13417" points="1444,28 1444,28 1451,28 1451,52 1444,52 1444,52" stroke-linejoin="round" width="7" height="24" fill="rgb(220,154,91)" stroke="rgb(176,123,72)" stroke-width="1" opacity="0.75" />
			</g>
		</g>
	</g>
</svg>
