<svg version="1.1" baseProfile="full" xmlns="http://www.w3.org/2000/svg" width="805.4" height="80">
	<g>
		<line x1="10" y1="40.0" x2="795.4" y2="40.0" style="stroke:rgb(70,70,70); stroke-width:3 "/>
		<g>
			<title> (ctg3_185)</title>
			<polygon class=" (ctg3_185)" points="21,10 38,40 21,70" fill="rgb(255,255,255)" fill-opacity="1.0" stroke="rgb(0,0,0)" stroke-width="2"  />
			<g>
				<title>Acetyltransf_4 (PF13420)
"Acetyltransferase (GNAT) domain"</title>
				<polygon class="PF13420" points="21,28 27,28 34,40 27,52 21,52" stroke-linejoin="round" width="15" height="24" fill="rgb(162,66,181)" stroke="rgb(129,52,144)" stroke-width="1" opacity="0.75" />
			</g>
		</g>
		<g>
			<title> (ctg3_186)</title>
			<polygon class=" (ctg3_186)" points="42,10 63,40 42,70" fill="rgb(255,255,255)" fill-opacity="1.0" stroke="rgb(0,0,0)" stroke-width="2"  />
			<g>
				<title>LysE (PF01810)
"LysE type translocator"</title>
				<polygon class="PF01810" points="43,28 51,28 59,40 51,52 43,52" stroke-linejoin="round" width="19" height="24" fill="rgb(198,75,167)" stroke="rgb(158,60,133)" stroke-width="1" opacity="0.75" />
			</g>
		</g>
		<g>
			<title> (ctg3_187)</title>
			<polygon class=" (ctg3_187)" points="66,10 80,40 66,70" fill="rgb(255,255,255)" fill-opacity="1.0" stroke="rgb(0,0,0)" stroke-width="2"  />
			<g>
				<title>GFA (PF04828)
"Glutathione-dependent formaldehyde-activating enzyme"</title>
				<polygon class="PF04828" points="68,28 71,28 76,38 76,42 71,52 68,52" stroke-linejoin="round" width="8" height="24" fill="rgb(68,192,55)" stroke="rgb(54,153,44)" stroke-width="1" opacity="0.75" />
			</g>
		</g>
		<g>
			<title> (ctg3_188)</title>
			<polygon class=" (ctg3_188)" points="81,40 91,10 91,70" fill="rgb(255,255,255)" fill-opacity="1.0" stroke="rgb(0,0,0)" stroke-width="2"  />
		</g>
		<g>
			<title> (ctg3_189)</title>
			<polygon class=" (ctg3_189)" points="107,25 114,25 114,10 144,40 114,70 114,55 107,55" fill="rgb(255,255,255)" fill-opacity="1.0" stroke="rgb(0,0,0)" stroke-width="2"  />
			<g>
				<title>Oxidored_FMN (PF00724)
"NADH:flavin oxidoreductase / NADH oxidase family"</title>
				<polygon class="PF00724" points="107,28 128,28 140,40 128,52 107,52" stroke-linejoin="round" width="34" height="24" fill="rgb(157,188,65)" stroke="rgb(125,150,52)" stroke-width="1" opacity="0.75" />
			</g>
		</g>
		<g>
			<title> (ctg3_190)</title>
			<polygon class=" (ctg3_190)" points="145,10 155,40 145,70" fill="rgb(255,255,255)" fill-opacity="1.0" stroke="rgb(0,0,0)" stroke-width="2"  />
		</g>
		<g>
			<title> (ctg3_191)</title>
			<polygon class=" (ctg3_191)" points="168,25 169,25 169,10 199,40 169,70 169,55 168,55" fill="rgb(255,255,255)" fill-opacity="1.0" stroke="rgb(0,0,0)" stroke-width="2"  />
			<g>
				<title>DAO (PF01266)
"FAD dependent oxidoreductase"</title>
				<polygon class="PF01266" points="168,28 183,28 195,40 183,52 168,52" stroke-linejoin="round" width="30" height="24" fill="rgb(123,179,59)" stroke="rgb(98,143,47)" stroke-width="1" opacity="0.75" />
			</g>
		</g>
		<g>
			<title> (ctg3_192)</title>
			<polygon class=" (ctg3_192)" points="199,10 205,40 199,70" fill="rgb(255,255,255)" fill-opacity="1.0" stroke="rgb(0,0,0)" stroke-width="2"  />
			<g>
				<title>ThiS (PF02597)
"ThiS family"</title>
				<polygon class="PF02597" points="199,28 199,28 202,40 199,52 199,52" stroke-linejoin="round" width="6" height="24" fill="rgb(73,117,196)" stroke="rgb(58,93,156)" stroke-width="1" opacity="0.75" />
			</g>
		</g>
		<g>
			<title> (ctg3_193)</title>
			<polygon class=" (ctg3_193)" points="206,10 231,40 206,70" fill="rgb(255,255,255)" fill-opacity="1.0" stroke="rgb(0,0,0)" stroke-width="2"  />
			<g>
				<title>ThiG (PF05690)
"Thiazole biosynthesis protein ThiG"</title>
				<polygon class="PF05690" points="206,28 217,28 227,40 217,52 206,52" stroke-linejoin="round" width="24" height="24" fill="rgb(215,60,203)" stroke="rgb(172,47,162)" stroke-width="1" opacity="0.75" />
			</g>
		</g>
		<g>
			<title> (ctg3_194)</title>
			<polygon class=" (ctg3_194)" points="231,25 233,25 233,10 263,40 233,70 233,55 231,55" fill="rgb(255,255,255)" fill-opacity="1.0" stroke="rgb(0,0,0)" stroke-width="2"  />
			<g>
				<title>ThiF (PF00899)
"ThiF family"</title>
				<polygon class="PF00899" points="231,28 247,28 254,35 254,45 247,52 231,52" stroke-linejoin="round" width="23" height="24" fill="rgb(82,50,180)" stroke="rgb(65,39,144)" stroke-width="1" opacity="0.75" />
			</g>
		</g>
		<g>
			<title> (ctg3_195)</title>
			<polygon class=" (ctg3_195)" points="264,40 277,10 277,70" fill="rgb(255,255,255)" fill-opacity="1.0" stroke="rgb(0,0,0)" stroke-width="2"  />
			<g>
				<title>ASCH (PF04266)
"ASCH domain"</title>
				<polygon class="PF04266" points="267,40 273,28 275,28 275,52 273,52" stroke-linejoin="round" width="11" height="24" fill="rgb(208,181,89)" stroke="rgb(166,144,71)" stroke-width="1" opacity="0.75" />
			</g>
		</g>
		<g>
			<title> (ctg3_196)</title>
			<polygon class=" (ctg3_196)" points="285,40 303,10 303,70" fill="rgb(255,255,255)" fill-opacity="1.0" stroke="rgb(0,0,0)" stroke-width="2"  />
			<g>
				<title>Thioredoxin_4 (PF13462)
"Thioredoxin"</title>
				<polygon class="PF13462" points="289,40 296,28 301,28 301,52 296,52" stroke-linejoin="round" width="16" height="24" fill="rgb(46,180,48)" stroke="rgb(36,144,38)" stroke-width="1" opacity="0.75" />
			</g>
		</g>
		<g>
			<title> (ctg3_197)</title>
			<polygon class=" (ctg3_197)" points="314,10 323,40 314,70" fill="rgb(255,255,255)" fill-opacity="1.0" stroke="rgb(0,0,0)" stroke-width="2"  />
		</g>
		<g>
			<title> (ctg3_198)</title>
			<polygon class=" (ctg3_198)" points="327,10 344,40 327,70" fill="rgb(255,255,255)" fill-opacity="1.0" stroke="rgb(0,0,0)" stroke-width="2"  />
		</g>
		<g>
			<title> (ctg3_199)</title>
			<polygon class=" (ctg3_199)" points="374,25 373,25 373,10 343,40 373,70 373,55 374,55" fill="rgb(255,255,255)" fill-opacity="1.0" stroke="rgb(0,0,0)" stroke-width="2"  />
			<g>
				<title>SQS_PSY (PF00494)
"Squalene/phytoene synthase"</title>
				<polygon class="PF00494" points="347,40 359,28 372,28 372,52 359,52" stroke-linejoin="round" width="26" height="24" fill="rgb(178,91,49)" stroke="rgb(142,72,39)" stroke-width="1" opacity="0.75" />
			</g>
		</g>
		<g>
			<title> (ctg3_200)</title>
			<polygon class=" (ctg3_200)" points="423,25 404,25 404,10 374,40 404,70 404,55 423,55" fill="rgb(255,255,255)" fill-opacity="1.0" stroke="rgb(0,0,0)" stroke-width="2"  />
			<g>
				<title>Amino_oxidase (PF01593)
"Flavin containing amine oxidoreductase"</title>
				<polygon class="PF01593" points="378,40 390,28 421,28 421,52 390,52" stroke-linejoin="round" width="47" height="24" fill="rgb(184,74,52)" stroke="rgb(147,59,41)" stroke-width="1" opacity="0.75" />
			</g>
		</g>
		<g>
			<title> (ctg3_201)</title>
			<polygon class=" (ctg3_201)" points="461,25 453,25 453,10 423,40 453,70 453,55 461,55" fill="rgb(255,255,255)" fill-opacity="1.0" stroke="rgb(0,0,0)" stroke-width="2"  />
			<g>
				<title>Lycopene_cycl (PF05834)
"Lycopene cyclase protein"</title>
				<polygon class="PF05834" points="427,40 439,28 460,28 460,52 439,52" stroke-linejoin="round" width="36" height="24" fill="rgb(212,80,200)" stroke="rgb(169,64,160)" stroke-width="1" opacity="0.75" />
			</g>
		</g>
		<g>
			<title> (ctg3_202)</title>
			<polygon class=" (ctg3_202)" points="504,25 491,25 491,10 461,40 491,70 491,55 504,55" fill="rgb(255,255,255)" fill-opacity="1.0" stroke="rgb(0,0,0)" stroke-width="2"  />
			<g>
				<title>UDPGT (PF00201)
"UDP-glucoronosyl and UDP-glucosyl transferase"</title>
				<polygon class="PF00201" points="465,40 477,28 503,28 503,52 477,52" stroke-linejoin="round" width="39" height="24" fill="rgb(225,150,107)" stroke="rgb(180,120,85)" stroke-width="1" opacity="0.75" />
			</g>
		</g>
		<g>
			<title> (ctg3_203)</title>
			<polygon class=" (ctg3_203)" points="535,25 535,25 535,10 505,40 535,70 535,55 535,55" fill="rgb(255,255,255)" fill-opacity="1.0" stroke="rgb(0,0,0)" stroke-width="2"  />
			<g>
				<title>polyprenyl_synt (PF00348)
"Polyprenyl synthetase"</title>
				<polygon class="PF00348" points="509,40 521,28 531,28 531,52 521,52" stroke-linejoin="round" width="24" height="24" fill="rgb(61,206,65)" stroke="rgb(48,164,52)" stroke-width="1" opacity="0.75" />
			</g>
		</g>
		<g>
			<title> (ctg3_204)</title>
			<polygon class=" (ctg3_204)" points="542,40 560,10 560,70" fill="rgb(255,255,255)" fill-opacity="1.0" stroke="rgb(0,0,0)" stroke-width="2"  />
			<g>
				<title>YtfJ_HI0045 (PF09695)
"Bacterial protein of unknown function (YtfJ_HI0045)"</title>
				<polygon class="PF09695" points="546,40 553,28 557,28 557,52 553,52" stroke-linejoin="round" width="15" height="24" fill="rgb(63,126,196)" stroke="rgb(50,100,156)" stroke-width="1" opacity="0.75" />
			</g>
		</g>
		<g>
			<title> (ctg3_205)</title>
			<polygon class=" (ctg3_205)" points="565,10 572,40 565,70" fill="rgb(255,255,255)" fill-opacity="1.0" stroke="rgb(0,0,0)" stroke-width="2"  />
		</g>
		<g>
			<title> (ctg3_206)</title>
			<polygon class=" (ctg3_206)" points="574,40 596,10 596,70" fill="rgb(255,255,255)" fill-opacity="1.0" stroke="rgb(0,0,0)" stroke-width="2"  />
			<g>
				<title>Pirin_C_2 (PF17954)
"Quercetinase C-terminal cupin domain"</title>
				<polygon class="PF17954" points="578,40 582,35 582,45" stroke-linejoin="round" width="8" height="24" fill="rgb(224,140,102)" stroke="rgb(179,112,81)" stroke-width="1" opacity="0.75" />
			</g>
			<g>
				<title>Pirin (PF02678)
"Pirin"</title>
				<polygon class="PF02678" points="585,31 587,28 594,28 594,52 587,52 585,49" stroke-linejoin="round" width="9" height="24" fill="rgb(139,213,61)" stroke="rgb(111,170,48)" stroke-width="1" opacity="0.75" />
			</g>
		</g>
		<g>
			<title> (ctg3_207)</title>
			<polygon class=" (ctg3_207)" points="658,25 631,25 631,10 601,40 631,70 631,55 658,55" fill="rgb(255,255,255)" fill-opacity="1.0" stroke="rgb(0,0,0)" stroke-width="2"  />
			<g>
				<title>DUF2534 (PF10749)
"Protein of unknown function (DUF2534)"</title>
				<polygon class="PF10749" points="605,40 608,37 608,43" stroke-linejoin="round" width="7" height="24" fill="rgb(97,52,187)" stroke="rgb(77,41,149)" stroke-width="1" opacity="0.75" />
			</g>
			<g>
				<title>PepSY_TM (PF03929)
"PepSY-associated TM region"</title>
				<rect class="PF03929" x="618" y="28" stroke-linejoin="round" width="38" height="24" fill="rgb(68,227,157)" stroke="rgb(54,181,125)" stroke-width="1" opacity="0.75" />
			</g>
		</g>
		<g>
			<title> (ctg3_208)</title>
			<polygon class=" (ctg3_208)" points="660,40 674,10 674,70" fill="rgb(255,255,255)" fill-opacity="1.0" stroke="rgb(0,0,0)" stroke-width="2"  />
			<g>
				<title>DUF2946 (PF11162)
"Protein of unknown function (DUF2946)"</title>
				<polygon class="PF11162" points="663,40 669,28 672,28 672,52 669,52" stroke-linejoin="round" width="11" height="24" fill="rgb(216,104,195)" stroke="rgb(172,83,156)" stroke-width="1" opacity="0.75" />
			</g>
		</g>
		<g>
			<title> (ctg3_209)</title>
			<polygon class=" (ctg3_209)" points="681,25 682,25 682,10 712,40 682,70 682,55 681,55" fill="rgb(255,255,255)" fill-opacity="1.0" stroke="rgb(0,0,0)" stroke-width="2"  />
			<g>
				<title>2-Hacid_dh_C (PF02826)
"D-isomer specific 2-hydroxyacid dehydrogenase, NAD binding domain"</title>
				<polygon class="PF02826" points="691,28 696,28 708,40 708,40 696,52 691,52" stroke-linejoin="round" width="17" height="24" fill="rgb(192,197,93)" stroke="rgb(153,157,74)" stroke-width="1" opacity="0.75" />
			</g>
		</g>
		<g>
			<title> (ctg3_210)</title>
			<polygon class=" (ctg3_210)" points="720,25 721,25 721,10 751,40 721,70 721,55 720,55" fill="rgb(255,255,255)" fill-opacity="1.0" stroke="rgb(0,0,0)" stroke-width="2"  />
			<g>
				<title>Transposase_31 (PF04754)
"Putative transposase, YhgA-like"</title>
				<polygon class="PF04754" points="720,28 735,28 740,33 740,47 735,52 720,52" stroke-linejoin="round" width="20" height="24" fill="rgb(71,122,215)" stroke="rgb(56,97,172)" stroke-width="1" opacity="0.75" />
			</g>
		</g>
		<g>
			<title> (ctg3_211)</title>
			<polygon class=" (ctg3_211)" points="786,25 786,25 786,10 756,40 786,70 786,55 786,55" fill="rgb(255,255,255)" fill-opacity="1.0" stroke="rgb(0,0,0)" stroke-width="2"  />
			<g>
				<title>Glutaminase (PF04960)
"Glutaminase"</title>
				<polygon class="PF04960" points="760,40 772,28 784,28 784,52 772,52" stroke-linejoin="round" width="28" height="24" fill="rgb(96,137,229)" stroke="rgb(76,109,183)" stroke-width="1" opacity="0.75" />
			</g>
		</g>
	</g>
</svg>
