<svg version="1.1" baseProfile="full" xmlns="http://www.w3.org/2000/svg" width="707.9666666666667" height="80">
	<g>
		<line x1="10" y1="40.0" x2="697.9666666666667" y2="40.0" style="stroke:rgb(70,70,70); stroke-width:3 "/>
		<g>
			<title> (ctg2_221)</title>
			<polygon class=" (ctg2_221)" points="58,25 78,25 78,10 108,40 78,70 78,55 58,55" fill="rgb(255,255,255)" fill-opacity="1.0" stroke="rgb(0,0,0)" stroke-width="2"  />
			<g>
				<title>HTH_11 (PF08279)
"HTH domain"</title>
				<rect class="PF08279" x="58" y="28" stroke-linejoin="round" width="5" height="24" fill="rgb(188,106,60)" stroke="rgb(150,84,48)" stroke-width="1" opacity="0.75" />
			</g>
			<g>
				<title>Mga (PF05043)
"Mga helix-turn-helix domain"</title>
				<rect class="PF05043" x="66" y="28" stroke-linejoin="round" width="8" height="24" fill="rgb(84,206,175)" stroke="rgb(67,164,140)" stroke-width="1" opacity="0.75" />
			</g>
			<g>
				<title>PRD (PF00874)
"PRD domain"</title>
				<rect class="PF00874" x="78" y="28" stroke-linejoin="round" width="8" height="24" fill="rgb(72,210,205)" stroke="rgb(57,168,164)" stroke-width="1" opacity="0.75" />
			</g>
			<g>
				<title>PRD (PF00874)
"PRD domain"</title>
				<polygon class="PF00874" points="89,28 92,28 98,34 98,46 92,52 89,52" stroke-linejoin="round" width="9" height="24" fill="rgb(72,210,205)" stroke="rgb(57,168,164)" stroke-width="1" opacity="0.75" />
			</g>
		</g>
		<g>
			<title> (ctg2_222)</title>
			<polygon class=" (ctg2_222)" points="109,10 124,40 109,70" fill="rgb(255,255,255)" fill-opacity="1.0" stroke="rgb(0,0,0)" stroke-width="2"  />
			<g>
				<title>PTS_EIIA_2 (PF00359)
"Phosphoenolpyruvate-dependent sugar phosphotransferase system, EIIA 2"</title>
				<polygon class="PF00359" points="109,28 114,28 121,40 114,52 109,52" stroke-linejoin="round" width="14" height="24" fill="rgb(115,83,186)" stroke="rgb(91,66,148)" stroke-width="1" opacity="0.75" />
			</g>
		</g>
		<g>
			<title> (ctg2_223)</title>
			<polygon class=" (ctg2_223)" points="128,25 145,25 145,10 175,40 145,70 145,55 128,55" fill="rgb(255,255,255)" fill-opacity="1.0" stroke="rgb(0,0,0)" stroke-width="2"  />
			<g>
				<title>PTS_IIB (PF02302)
"PTS system, Lactose/Cellobiose specific IIB subunit"</title>
				<rect class="PF02302" x="128" y="28" stroke-linejoin="round" width="9" height="24" fill="rgb(106,212,56)" stroke="rgb(84,169,44)" stroke-width="1" opacity="0.75" />
			</g>
			<g>
				<title>PTS_EIIC (PF02378)
"Phosphotransferase system, EIIC"</title>
				<polygon class="PF02378" points="141,28 159,28 167,36 167,44 159,52 141,52" stroke-linejoin="round" width="26" height="24" fill="rgb(73,199,212)" stroke="rgb(58,159,169)" stroke-width="1" opacity="0.75" />
			</g>
		</g>
		<g>
			<title> (ctg2_224)</title>
			<polygon class=" (ctg2_224)" points="176,10 204,40 176,70" fill="rgb(255,255,255)" fill-opacity="1.0" stroke="rgb(0,0,0)" stroke-width="2"  />
			<g>
				<title>F_bP_aldolase (PF01116)
"Fructose-bisphosphate aldolase class-II"</title>
				<polygon class="PF01116" points="176,28 188,28 200,40 188,52 176,52" stroke-linejoin="round" width="27" height="24" fill="rgb(188,67,71)" stroke="rgb(150,53,56)" stroke-width="1" opacity="0.75" />
			</g>
		</g>
		<g>
			<title> (ctg2_225)</title>
			<polygon class=" (ctg2_225)" points="219,40 227,10 227,70" fill="rgb(255,255,255)" fill-opacity="1.0" stroke="rgb(0,0,0)" stroke-width="2"  />
			<g>
				<title>RHH_1 (PF01402)
"Ribbon-helix-helix protein, copG family"</title>
				<polygon class="PF01402" points="222,40 225,28 225,28 225,52 225,52 222,40" stroke-linejoin="round" width="3" height="24" fill="rgb(104,197,67)" stroke="rgb(83,157,53)" stroke-width="1" opacity="0.75" />
			</g>
		</g>
		<g>
			<title> (ctg2_226)</title>
			<polygon class=" (ctg2_226)" points="237,40 262,10 262,70" fill="rgb(255,255,255)" fill-opacity="1.0" stroke="rgb(0,0,0)" stroke-width="2"  />
			<g>
				<title>CDH (PF02611)
"CDP-diacylglycerol pyrophosphatase"</title>
				<polygon class="PF02611" points="241,40 251,28 260,28 260,52 251,52" stroke-linejoin="round" width="22" height="24" fill="rgb(186,73,160)" stroke="rgb(148,58,128)" stroke-width="1" opacity="0.75" />
			</g>
		</g>
		<g>
			<title> (ctg2_227)</title>
			<polygon class=" (ctg2_227)" points="264,40 278,10 278,70" fill="rgb(255,255,255)" fill-opacity="1.0" stroke="rgb(0,0,0)" stroke-width="2"  />
		</g>
		<g>
			<title> (ctg2_228)</title>
			<polygon class=" (ctg2_228)" points="319,10 342,40 319,70" fill="rgb(255,255,255)" fill-opacity="1.0" stroke="rgb(0,0,0)" stroke-width="2"  />
			<g>
				<title>Autoind_bind (PF03472)
"Autoinducer binding domain"</title>
				<polygon class="PF03472" points="320,28 329,28 333,34 333,46 329,52 320,52" stroke-linejoin="round" width="13" height="24" fill="rgb(99,181,52)" stroke="rgb(79,144,41)" stroke-width="1" opacity="0.75" />
			</g>
			<g>
				<title>GerE (PF00196)
"Bacterial regulatory proteins, luxR family"</title>
				<polygon class="PF00196" points="335,36 338,40 335,44" stroke-linejoin="round" width="5" height="24" fill="rgb(219,94,82)" stroke="rgb(175,75,65)" stroke-width="1" opacity="0.75" />
			</g>
		</g>
		<g>
			<title> (ctg2_229)</title>
			<polygon class=" (ctg2_229)" points="343,40 364,10 364,70" fill="rgb(255,255,255)" fill-opacity="1.0" stroke="rgb(0,0,0)" stroke-width="2"  />
			<g>
				<title>Autoind_synth (PF00765)
"Autoinducer synthase"</title>
				<polygon class="PF00765" points="347,40 356,28 362,28 362,52 356,52" stroke-linejoin="round" width="17" height="24" fill="rgb(197,72,80)" stroke="rgb(157,57,64)" stroke-width="1" opacity="0.75" />
			</g>
		</g>
		<g>
			<title> (ctg2_230)</title>
			<polygon class=" (ctg2_230)" points="407,40 415,10 415,70" fill="rgb(255,255,255)" fill-opacity="1.0" stroke="rgb(0,0,0)" stroke-width="2"  />
		</g>
		<g>
			<title> (ctg2_231)</title>
			<polygon class=" (ctg2_231)" points="424,40 435,10 435,70" fill="rgb(255,255,255)" fill-opacity="1.0" stroke="rgb(0,0,0)" stroke-width="2"  />
			<g>
				<title>SymE_toxin (PF08845)
"Toxin SymE, type I toxin-antitoxin system"</title>
				<polygon class="PF08845" points="427,40 431,28 432,28 432,52 431,52 427,40" stroke-linejoin="round" width="5" height="24" fill="rgb(182,130,62)" stroke="rgb(145,104,49)" stroke-width="1" opacity="0.75" />
			</g>
		</g>
		<g>
			<title> (ctg2_232)</title>
			<polygon class=" (ctg2_232)" points="556,25 478,25 478,10 448,40 478,70 478,55 556,55" fill="rgb(255,255,255)" fill-opacity="1.0" stroke="rgb(0,0,0)" stroke-width="2"  />
			<g>
				<title>Helicase_C (PF00271)
"Helicase conserved C-terminal domain"</title>
				<polygon class="PF00271" points="453,39 464,28 465,28 465,52 464,52 453,41" stroke-linejoin="round" width="12" height="24" fill="rgb(104,224,158)" stroke="rgb(83,179,126)" stroke-width="1" opacity="0.75" />
			</g>
			<g>
				<title>SNF2-rel_dom (PF00176)
"SNF2-related domain"</title>
				<rect class="PF00176" x="466" y="28" stroke-linejoin="round" width="30" height="24" fill="rgb(180,113,64)" stroke="rgb(144,90,51)" stroke-width="1" opacity="0.75" />
			</g>
		</g>
		<g>
			<title> (ctg2_233)</title>
			<polygon class=" (ctg2_233)" points="604,25 586,25 586,10 556,40 586,70 586,55 604,55" fill="rgb(255,255,255)" fill-opacity="1.0" stroke="rgb(0,0,0)" stroke-width="2"  />
			<g>
				<title>EH_Signature (PF15611)
"EH_Signature domain"</title>
				<polygon class="PF15611" points="568,32 572,28 601,28 601,52 572,52 568,48" stroke-linejoin="round" width="33" height="24" fill="rgb(139,200,99)" stroke="rgb(111,160,79)" stroke-width="1" opacity="0.75" />
			</g>
		</g>
		<g>
			<title> (ctg2_234)</title>
			<polygon class=" (ctg2_234)" points="612,40 636,10 636,70" fill="rgb(255,255,255)" fill-opacity="1.0" stroke="rgb(0,0,0)" stroke-width="2"  />
			<g>
				<title>OmpA (PF00691)
"OmpA family"</title>
				<polygon class="PF00691" points="616,40 626,28 626,28 626,52 626,52" stroke-linejoin="round" width="11" height="24" fill="rgb(121,200,70)" stroke="rgb(96,160,56)" stroke-width="1" opacity="0.75" />
			</g>
			<g>
				<title>MotB_plug (PF13677)
"Membrane MotB of proton-channel complex MotA/MotB"</title>
				<rect class="PF13677" x="631" y="28" stroke-linejoin="round" width="4" height="24" fill="rgb(187,122,70)" stroke="rgb(149,97,56)" stroke-width="1" opacity="0.75" />
			</g>
		</g>
	</g>
</svg>
