<svg version="1.1" baseProfile="full" xmlns="http://www.w3.org/2000/svg" width="1844.0333333333333" height="80">
	<g>
		<line x1="10" y1="40.0" x2="1834.0333333333333" y2="40.0" style="stroke:rgb(70,70,70); stroke-width:3 "/>
		<g>
			<title> (ctg2_289)</title>
			<polygon class=" (ctg2_289)" points="17,10 46,40 17,70" fill="rgb(255,255,255)" fill-opacity="1.0" stroke="rgb(0,0,0)" stroke-width="2"  />
			<g>
				<title>HTH_1 (PF00126)
"Bacterial regulatory helix-turn-helix protein, lysR family"</title>
				<rect class="PF00126" x="18" y="28" stroke-linejoin="round" width="5" height="24" fill="rgb(125,227,79)" stroke="rgb(99,181,63)" stroke-width="1" opacity="0.75" />
			</g>
			<g>
				<title>LysR_substrate (PF03466)
"LysR substrate binding domain"</title>
				<polygon class="PF03466" points="26,28 30,28 42,40 30,52 26,52" stroke-linejoin="round" width="20" height="24" fill="rgb(55,136,195)" stroke="rgb(44,108,156)" stroke-width="1" opacity="0.75" />
			</g>
		</g>
		<g>
			<title> (ctg2_290)</title>
			<polygon class=" (ctg2_290)" points="87,25 79,25 79,10 49,40 79,70 79,55 87,55" fill="rgb(255,255,255)" fill-opacity="1.0" stroke="rgb(0,0,0)" stroke-width="2"  />
			<g>
				<title>Aminotran_1_2 (PF00155)
"Aminotransferase class I and II"</title>
				<polygon class="PF00155" points="53,40 65,28 84,28 84,52 65,52" stroke-linejoin="round" width="35" height="24" fill="rgb(89,113,198)" stroke="rgb(71,90,158)" stroke-width="1" opacity="0.75" />
			</g>
		</g>
		<g>
			<title> (ctg2_291)</title>
			<polygon class=" (ctg2_291)" points="92,10 112,40 92,70" fill="rgb(255,255,255)" fill-opacity="1.0" stroke="rgb(0,0,0)" stroke-width="2"  />
			<g>
				<title>Aldolase_II (PF00596)
"Class II Aldolase and Adducin N-terminal domain"</title>
				<polygon class="PF00596" points="92,28 100,28 108,40 100,52 92,52" stroke-linejoin="round" width="18" height="24" fill="rgb(208,130,90)" stroke="rgb(166,104,72)" stroke-width="1" opacity="0.75" />
			</g>
		</g>
		<g>
			<title> (ctg2_292)</title>
			<polygon class=" (ctg2_292)" points="112,10 135,40 112,70" fill="rgb(255,255,255)" fill-opacity="1.0" stroke="rgb(0,0,0)" stroke-width="2"  />
			<g>
				<title>Hydrolase (PF00702)
"haloacid dehalogenase-like hydrolase"</title>
				<polygon class="PF00702" points="112,28 122,28 131,40 131,40 122,52 112,52" stroke-linejoin="round" width="19" height="24" fill="rgb(68,220,102)" stroke="rgb(54,176,81)" stroke-width="1" opacity="0.75" />
			</g>
		</g>
		<g>
			<title> (ctg2_293)</title>
			<polygon class=" (ctg2_293)" points="135,10 153,40 135,70" fill="rgb(255,255,255)" fill-opacity="1.0" stroke="rgb(0,0,0)" stroke-width="2"  />
			<g>
				<title>ARD (PF03079)
"ARD/ARD' family"</title>
				<polygon class="PF03079" points="135,28 142,28 149,40 142,52 135,52" stroke-linejoin="round" width="16" height="24" fill="rgb(49,194,66)" stroke="rgb(39,155,52)" stroke-width="1" opacity="0.75" />
			</g>
		</g>
		<g>
			<title> (ctg2_294)</title>
			<polygon class=" (ctg2_294)" points="208,25 204,25 204,10 174,40 204,70 204,55 208,55" fill="rgb(255,255,255)" fill-opacity="1.0" stroke="rgb(0,0,0)" stroke-width="2"  />
			<g>
				<title>IF-2B (PF01008)
"Initiation factor 2 subunit family"</title>
				<polygon class="PF01008" points="178,40 190,28 203,28 203,52 190,52" stroke-linejoin="round" width="28" height="24" fill="rgb(195,91,90)" stroke="rgb(156,72,72)" stroke-width="1" opacity="0.75" />
			</g>
		</g>
		<g>
			<title> (ctg2_295)</title>
			<polygon class=" (ctg2_295)" points="210,25 221,25 221,10 251,40 221,70 221,55 210,55" fill="rgb(255,255,255)" fill-opacity="1.0" stroke="rgb(0,0,0)" stroke-width="2"  />
			<g>
				<title>APH (PF01636)
"Phosphotransferase enzyme family"</title>
				<polygon class="PF01636" points="214,28 235,28 241,34 241,46 235,52 214,52" stroke-linejoin="round" width="27" height="24" fill="rgb(106,220,228)" stroke="rgb(84,176,182)" stroke-width="1" opacity="0.75" />
			</g>
		</g>
		<g>
			<title> (ctg2_296)</title>
			<polygon class=" (ctg2_296)" points="295,25 284,25 284,10 254,40 284,70 284,55 295,55" fill="rgb(255,255,255)" fill-opacity="1.0" stroke="rgb(0,0,0)" stroke-width="2"  />
			<g>
				<title>LVIVD (PF08309)
"LVIVD repeat"</title>
				<rect class="PF08309" x="289" y="28" stroke-linejoin="round" width="3" height="24" fill="rgb(225,128,66)" stroke="rgb(180,102,52)" stroke-width="1" opacity="0.75" />
			</g>
		</g>
		<g>
			<title> (ctg2_297)</title>
			<polygon class=" (ctg2_297)" points="334,25 329,25 329,10 299,40 329,70 329,55 334,55" fill="rgb(255,255,255)" fill-opacity="1.0" stroke="rgb(0,0,0)" stroke-width="2"  />
			<g>
				<title>Peripla_BP_4 (PF13407)
"Periplasmic binding protein domain"</title>
				<polygon class="PF13407" points="304,39 315,28 329,28 329,52 315,52 304,41" stroke-linejoin="round" width="25" height="24" fill="rgb(124,182,50)" stroke="rgb(99,145,39)" stroke-width="1" opacity="0.75" />
			</g>
		</g>
		<g>
			<title> (ctg2_298)</title>
			<polygon class=" (ctg2_298)" points="368,25 365,25 365,10 335,40 365,70 365,55 368,55" fill="rgb(255,255,255)" fill-opacity="1.0" stroke="rgb(0,0,0)" stroke-width="2"  />
			<g>
				<title>BPD_transp_2 (PF02653)
"Branched-chain amino acid transport system / permease component"</title>
				<polygon class="PF02653" points="339,40 351,28 362,28 362,52 351,52" stroke-linejoin="round" width="27" height="24" fill="rgb(69,130,196)" stroke="rgb(55,104,156)" stroke-width="1" opacity="0.75" />
			</g>
		</g>
		<g>
			<title> (ctg2_299)</title>
			<polygon class=" (ctg2_299)" points="418,25 398,25 398,10 368,40 398,70 398,55 418,55" fill="rgb(255,255,255)" fill-opacity="1.0" stroke="rgb(0,0,0)" stroke-width="2"  />
			<g>
				<title>ABC_tran (PF00005)
"ABC transporter"</title>
				<polygon class="PF00005" points="375,37 384,28 390,28 390,52 384,52 375,43" stroke-linejoin="round" width="15" height="24" fill="rgb(129,201,63)" stroke="rgb(103,160,50)" stroke-width="1" opacity="0.75" />
			</g>
			<g>
				<title>ABC_tran (PF00005)
"ABC transporter"</title>
				<rect class="PF00005" x="400" y="28" stroke-linejoin="round" width="15" height="24" fill="rgb(129,201,63)" stroke="rgb(103,160,50)" stroke-width="1" opacity="0.75" />
			</g>
		</g>
		<g>
			<title> (ctg2_300)</title>
			<polygon class=" (ctg2_300)" points="423,25 429,25 429,10 459,40 429,70 429,55 423,55" fill="rgb(255,255,255)" fill-opacity="1.0" stroke="rgb(0,0,0)" stroke-width="2"  />
			<g>
				<title>Fe-ADH (PF00465)
"Iron-containing alcohol dehydrogenase"</title>
				<polygon class="PF00465" points="424,28 443,28 455,40 443,52 424,52" stroke-linejoin="round" width="33" height="24" fill="rgb(73,179,216)" stroke="rgb(58,143,172)" stroke-width="1" opacity="0.75" />
			</g>
		</g>
		<g>
			<title> (ctg2_301)</title>
			<polygon class=" (ctg2_301)" points="462,10 486,40 462,70" fill="rgb(255,255,255)" fill-opacity="1.0" stroke="rgb(0,0,0)" stroke-width="2"  />
			<g>
				<title>adh_short_C2 (PF13561)
"Enoyl-(Acyl carrier protein) reductase"</title>
				<polygon class="PF13561" points="463,28 473,28 482,40 473,52 463,52" stroke-linejoin="round" width="23" height="24" fill="rgb(73,205,127)" stroke="rgb(58,164,101)" stroke-width="1" opacity="0.75" />
			</g>
		</g>
		<g>
			<title> (ctg2_302)</title>
			<polygon class=" (ctg2_302)" points="489,40 495,10 495,70" fill="rgb(255,255,255)" fill-opacity="1.0" stroke="rgb(0,0,0)" stroke-width="2"  />
			<g>
				<title>Sel_put (PF04328)
"Selenoprotein, putative"</title>
				<polygon class="PF04328" points="492,40 495,28 495,28 495,52 495,52" stroke-linejoin="round" width="6" height="24" fill="rgb(114,219,96)" stroke="rgb(91,175,76)" stroke-width="1" opacity="0.75" />
			</g>
		</g>
		<g>
			<title> (ctg2_303)</title>
			<polygon class=" (ctg2_303)" points="567,25 527,25 527,10 497,40 527,70 527,55 567,55" fill="rgb(255,255,255)" fill-opacity="1.0" stroke="rgb(0,0,0)" stroke-width="2"  />
			<g>
				<title>CstA_5TM (PF13722)
"5TM C-terminal transporter carbon starvation CstA"</title>
				<polygon class="PF13722" points="507,34 513,28 519,28 519,52 513,52 507,46" stroke-linejoin="round" width="12" height="24" fill="rgb(224,155,111)" stroke="rgb(179,124,88)" stroke-width="1" opacity="0.75" />
			</g>
			<g>
				<title>CstA (PF02554)
"Carbon starvation protein CstA"</title>
				<rect class="PF02554" x="525" y="28" stroke-linejoin="round" width="38" height="24" fill="rgb(153,59,192)" stroke="rgb(122,47,153)" stroke-width="1" opacity="0.75" />
			</g>
		</g>
		<g>
			<title> (ctg2_304)</title>
			<polygon class=" (ctg2_304)" points="577,10 601,40 577,70" fill="rgb(255,255,255)" fill-opacity="1.0" stroke="rgb(0,0,0)" stroke-width="2"  />
			<g>
				<title>Gate (PF07670)
"Nucleoside recognition"</title>
				<polygon class="PF07670" points="585,28 587,28 597,40 587,52 585,52" stroke-linejoin="round" width="13" height="24" fill="rgb(124,94,191)" stroke="rgb(99,75,152)" stroke-width="1" opacity="0.75" />
			</g>
		</g>
		<g>
			<title> (ctg2_305)</title>
			<polygon class=" (ctg2_305)" points="601,10 616,40 601,70" fill="rgb(255,255,255)" fill-opacity="1.0" stroke="rgb(0,0,0)" stroke-width="2"  />
			<g>
				<title>Gate (PF07670)
"Nucleoside recognition"</title>
				<polygon class="PF07670" points="603,28 606,28 613,40 606,52 603,52" stroke-linejoin="round" width="12" height="24" fill="rgb(124,94,191)" stroke="rgb(99,75,152)" stroke-width="1" opacity="0.75" />
			</g>
		</g>
		<g>
			<title> (ctg2_306)</title>
			<polygon class=" (ctg2_306)" points="617,25 624,25 624,10 654,40 624,70 624,55 617,55" fill="rgb(255,255,255)" fill-opacity="1.0" stroke="rgb(0,0,0)" stroke-width="2"  />
			<g>
				<title>M20_dimer (PF07687)
"Peptidase dimerisation domain"</title>
				<polygon class="PF07687" points="634,28 637,28 644,35 644,45 637,52 634,52" stroke-linejoin="round" width="10" height="24" fill="rgb(218,154,97)" stroke="rgb(174,123,77)" stroke-width="1" opacity="0.75" />
			</g>
		</g>
		<g>
			<title> (ctg2_307)</title>
			<polygon class=" (ctg2_307)" points="662,40 675,10 675,70" fill="rgb(255,255,255)" fill-opacity="1.0" stroke="rgb(0,0,0)" stroke-width="2"  />
			<g>
				<title>4HBT (PF03061)
"Thioesterase superfamily"</title>
				<polygon class="PF03061" points="665,40 670,29 670,51" stroke-linejoin="round" width="7" height="24" fill="rgb(143,103,215)" stroke="rgb(114,82,172)" stroke-width="1" opacity="0.75" />
			</g>
		</g>
		<g>
			<title> (ctg2_308)</title>
			<polygon class=" (ctg2_308)" points="676,40 701,10 701,70" fill="rgb(255,255,255)" fill-opacity="1.0" stroke="rgb(0,0,0)" stroke-width="2"  />
			<g>
				<title>adh_short_C2 (PF13561)
"Enoyl-(Acyl carrier protein) reductase"</title>
				<polygon class="PF13561" points="680,40 690,28 699,28 699,52 690,52" stroke-linejoin="round" width="23" height="24" fill="rgb(73,205,127)" stroke="rgb(58,164,101)" stroke-width="1" opacity="0.75" />
			</g>
		</g>
		<g>
			<title> (ctg2_309)</title>
			<polygon class=" (ctg2_309)" points="701,40 729,10 729,70" fill="rgb(255,255,255)" fill-opacity="1.0" stroke="rgb(0,0,0)" stroke-width="2"  />
			<g>
				<title>PP-binding (PF00550)
"Phosphopantetheine attachment site"</title>
				<polygon class="PF00550" points="705,40 707,38 707,42" stroke-linejoin="round" width="6" height="24" fill="rgb(103,191,88)" stroke="rgb(82,152,70)" stroke-width="1" opacity="0.75" />
			</g>
			<g>
				<title>Isochorismatase (PF00857)
"Isochorismatase family"</title>
				<polygon class="PF00857" points="709,36 716,28 726,28 726,52 716,52 709,44" stroke-linejoin="round" width="17" height="24" fill="rgb(144,224,70)" stroke="rgb(115,179,56)" stroke-width="1" opacity="0.75" />
			</g>
		</g>
		<g>
			<title> (ctg2_310)</title>
			<polygon class=" (ctg2_310)" points="783,25 760,25 760,10 730,40 760,70 760,55 783,55" fill="rgb(255,255,255)" fill-opacity="1.0" stroke="rgb(0,0,0)" stroke-width="2"  />
			<g>
				<title>AMP-binding_C (PF13193)
"AMP-binding enzyme C-terminal domain"</title>
				<polygon class="PF13193" points="734,40 738,36 738,44" stroke-linejoin="round" width="7" height="24" fill="rgb(182,50,118)" stroke="rgb(145,39,94)" stroke-width="1" opacity="0.75" />
			</g>
			<g>
				<title>AMP-binding (PF00501)
"AMP-binding enzyme"</title>
				<polygon class="PF00501" points="739,35 746,28 779,28 779,52 746,52 739,45" stroke-linejoin="round" width="40" height="24" fill="rgb(60,217,223)" stroke="rgb(48,173,178)" stroke-width="1" opacity="0.75" />
			</g>
		</g>
		<g>
			<title> (ctg2_311)</title>
			<polygon class=" (ctg2_311)" points="823,25 814,25 814,10 784,40 814,70 814,55 823,55" fill="rgb(255,255,255)" fill-opacity="1.0" stroke="rgb(0,0,0)" stroke-width="2"  />
			<g>
				<title>Chorismate_bind (PF00425)
"chorismate binding enzyme"</title>
				<polygon class="PF00425" points="788,40 800,28 810,28 810,52 800,52" stroke-linejoin="round" width="25" height="24" fill="rgb(188,116,88)" stroke="rgb(150,92,70)" stroke-width="1" opacity="0.75" />
			</g>
		</g>
		<g>
			<title> (ctg2_312)</title>
			<polygon class=" (ctg2_312)" points="829,25 831,25 831,10 861,40 831,70 831,55 829,55" fill="rgb(255,255,255)" fill-opacity="1.0" stroke="rgb(0,0,0)" stroke-width="2"  />
			<g>
				<title>Peripla_BP_2 (PF01497)
"Periplasmic binding protein"</title>
				<polygon class="PF01497" points="833,28 844,28 856,40 844,52 833,52" stroke-linejoin="round" width="25" height="24" fill="rgb(183,226,104)" stroke="rgb(146,180,83)" stroke-width="1" opacity="0.75" />
			</g>
		</g>
		<g>
			<title> (ctg2_313)</title>
			<polygon class=" (ctg2_313)" points="869,10 886,40 869,70" fill="rgb(255,255,255)" fill-opacity="1.0" stroke="rgb(0,0,0)" stroke-width="2"  />
		</g>
		<g>
			<title> (ctg2_314)</title>
			<polygon class=" (ctg2_314)" points="931,25 920,25 920,10 890,40 920,70 920,55 931,55" fill="rgb(255,255,255)" fill-opacity="1.0" stroke="rgb(0,0,0)" stroke-width="2"  />
			<g>
				<title>MFS_1 (PF07690)
"Major Facilitator Superfamily"</title>
				<rect class="PF07690" x="907" y="28" stroke-linejoin="round" width="22" height="24" fill="rgb(193,224,74)" stroke="rgb(154,179,59)" stroke-width="1" opacity="0.75" />
			</g>
		</g>
		<g>
			<title> (ctg2_315)</title>
			<polygon class=" (ctg2_315)" points="935,25 938,25 938,10 968,40 938,70 938,55 935,55" fill="rgb(255,255,255)" fill-opacity="1.0" stroke="rgb(0,0,0)" stroke-width="2"  />
			<g>
				<title>FecCD (PF01032)
"FecCD transport family"</title>
				<polygon class="PF01032" points="936,28 952,28 964,40 952,52 936,52" stroke-linejoin="round" width="31" height="24" fill="rgb(210,177,70)" stroke="rgb(168,141,56)" stroke-width="1" opacity="0.75" />
			</g>
		</g>
		<g>
			<title> (ctg2_316)</title>
			<polygon class=" (ctg2_316)" points="968,25 971,25 971,10 1001,40 971,70 971,55 968,55" fill="rgb(255,255,255)" fill-opacity="1.0" stroke="rgb(0,0,0)" stroke-width="2"  />
			<g>
				<title>FecCD (PF01032)
"FecCD transport family"</title>
				<polygon class="PF01032" points="969,28 984,28 996,40 984,52 969,52" stroke-linejoin="round" width="31" height="24" fill="rgb(210,177,70)" stroke="rgb(168,141,56)" stroke-width="1" opacity="0.75" />
			</g>
		</g>
		<g>
			<title> (ctg2_317)</title>
			<polygon class=" (ctg2_317)" points="1001,10 1027,40 1001,70" fill="rgb(255,255,255)" fill-opacity="1.0" stroke="rgb(0,0,0)" stroke-width="2"  />
			<g>
				<title>ABC_tran (PF00005)
"ABC transporter"</title>
				<polygon class="PF00005" points="1003,28 1012,28 1017,33 1017,47 1012,52 1003,52" stroke-linejoin="round" width="14" height="24" fill="rgb(129,201,63)" stroke="rgb(103,160,50)" stroke-width="1" opacity="0.75" />
			</g>
		</g>
		<g>
			<title> (ctg2_318)</title>
			<polygon class=" (ctg2_318)" points="1166,25 1068,25 1068,10 1038,40 1068,70 1068,55 1166,55" fill="rgb(255,255,255)" fill-opacity="1.0" stroke="rgb(0,0,0)" stroke-width="2"  />
			<g>
				<title>Thioesterase (PF00975)
"Thioesterase domain"</title>
				<polygon class="PF00975" points="1042,40 1054,28 1059,28 1059,52 1054,52" stroke-linejoin="round" width="21" height="24" fill="rgb(207,80,138)" stroke="rgb(165,63,110)" stroke-width="1" opacity="0.75" />
			</g>
			<g>
				<title>PP-binding (PF00550)
"Phosphopantetheine attachment site"</title>
				<rect class="PF00550" x="1063" y="28" stroke-linejoin="round" width="6" height="24" fill="rgb(103,191,88)" stroke="rgb(82,152,70)" stroke-width="1" opacity="0.75" />
			</g>
			<g>
				<title>AMP-binding_C (PF13193)
"AMP-binding enzyme C-terminal domain"</title>
				<rect class="PF13193" x="1072" y="28" stroke-linejoin="round" width="8" height="24" fill="rgb(182,50,118)" stroke="rgb(145,39,94)" stroke-width="1" opacity="0.75" />
			</g>
			<g>
				<title>AMP-binding (PF00501)
"AMP-binding enzyme"</title>
				<rect class="PF00501" x="1080" y="28" stroke-linejoin="round" width="40" height="24" fill="rgb(60,217,223)" stroke="rgb(48,173,178)" stroke-width="1" opacity="0.75" />
			</g>
			<g>
				<title>Condensation (PF00668)
"Condensation domain"</title>
				<rect class="PF00668" x="1122" y="28" stroke-linejoin="round" width="44" height="24" fill="rgb(224,184,98)" stroke="rgb(179,147,78)" stroke-width="1" opacity="0.75" />
			</g>
		</g>
		<g>
			<title> (ctg2_319)</title>
			<polygon class=" (ctg2_319)" points="1167,40 1174,10 1174,70" fill="rgb(255,255,255)" fill-opacity="1.0" stroke="rgb(0,0,0)" stroke-width="2"  />
			<g>
				<title>MbtH (PF03621)
"MbtH-like protein"</title>
				<polygon class="PF03621" points="1170,40 1173,28 1173,28 1173,52 1173,52" stroke-linejoin="round" width="5" height="24" fill="rgb(212,165,97)" stroke="rgb(169,132,77)" stroke-width="1" opacity="0.75" />
			</g>
		</g>
		<g>
			<title> (ctg2_320)</title>
			<polygon class=" (ctg2_320)" points="1214,25 1204,25 1204,10 1174,40 1204,70 1204,55 1214,55" fill="rgb(255,255,255)" fill-opacity="1.0" stroke="rgb(0,0,0)" stroke-width="2"  />
			<g>
				<title>Esterase (PF00756)
"Putative esterase"</title>
				<polygon class="PF00756" points="1178,40 1190,28 1195,28 1195,52 1190,52" stroke-linejoin="round" width="21" height="24" fill="rgb(217,132,77)" stroke="rgb(173,105,61)" stroke-width="1" opacity="0.75" />
			</g>
			<g>
				<title>Enterochelin_N (PF11806)
"Enterochelin esterase, N-terminal"</title>
				<rect class="PF11806" x="1198" y="28" stroke-linejoin="round" width="13" height="24" fill="rgb(49,154,189)" stroke="rgb(39,123,151)" stroke-width="1" opacity="0.75" />
			</g>
		</g>
		<g>
			<title> (ctg2_321)</title>
			<polygon class=" (ctg2_321)" points="1223,25 1267,25 1267,10 1297,40 1267,70 1267,55 1223,55" fill="rgb(255,255,255)" fill-opacity="1.0" stroke="rgb(0,0,0)" stroke-width="2"  />
			<g>
				<title>Plug (PF07715)
"TonB-dependent Receptor Plug Domain"</title>
				<rect class="PF07715" x="1227" y="28" stroke-linejoin="round" width="12" height="24" fill="rgb(99,133,214)" stroke="rgb(79,106,171)" stroke-width="1" opacity="0.75" />
			</g>
			<g>
				<title>TonB_dep_Rec (PF00593)
"TonB dependent receptor"</title>
				<polygon class="PF00593" points="1248,28 1281,28 1293,40 1281,52 1248,52" stroke-linejoin="round" width="48" height="24" fill="rgb(171,200,51)" stroke="rgb(136,160,40)" stroke-width="1" opacity="0.75" />
			</g>
		</g>
		<g>
			<title> (ctg2_322)</title>
			<polygon class=" (ctg2_322)" points="1328,10 1349,40 1328,70" fill="rgb(255,255,255)" fill-opacity="1.0" stroke="rgb(0,0,0)" stroke-width="2"  />
			<g>
				<title>4PPT_N (PF17837)
"4'-phosphopantetheinyl transferase N-terminal domain"</title>
				<rect class="PF17837" x="1331" y="28" stroke-linejoin="round" width="6" height="24" fill="rgb(198,68,92)" stroke="rgb(158,54,73)" stroke-width="1" opacity="0.75" />
			</g>
			<g>
				<title>ACPS (PF01648)
"4'-phosphopantetheinyl transferase superfamily"</title>
				<polygon class="PF01648" points="1338,30 1345,40 1338,50" stroke-linejoin="round" width="10" height="24" fill="rgb(85,184,135)" stroke="rgb(68,147,108)" stroke-width="1" opacity="0.75" />
			</g>
		</g>
		<g>
			<title> (ctg2_323)</title>
			<polygon class=" (ctg2_323)" points="1354,25 1355,25 1355,10 1385,40 1355,70 1355,55 1354,55" fill="rgb(255,255,255)" fill-opacity="1.0" stroke="rgb(0,0,0)" stroke-width="2"  />
			<g>
				<title>Peripla_BP_4 (PF13407)
"Periplasmic binding protein domain"</title>
				<polygon class="PF13407" points="1356,28 1369,28 1381,40 1381,40 1369,52 1356,52" stroke-linejoin="round" width="25" height="24" fill="rgb(124,182,50)" stroke="rgb(99,145,39)" stroke-width="1" opacity="0.75" />
			</g>
		</g>
		<g>
			<title> (ctg2_324)</title>
			<polygon class=" (ctg2_324)" points="1386,10 1406,40 1386,70" fill="rgb(255,255,255)" fill-opacity="1.0" stroke="rgb(0,0,0)" stroke-width="2"  />
			<g>
				<title>DUF2291 (PF10054)
"Predicted periplasmic lipoprotein (DUF2291)"</title>
				<polygon class="PF10054" points="1387,28 1394,28 1402,40 1394,52 1387,52" stroke-linejoin="round" width="18" height="24" fill="rgb(48,178,182)" stroke="rgb(38,142,145)" stroke-width="1" opacity="0.75" />
			</g>
		</g>
		<g>
			<title> (ctg2_325)</title>
			<polygon class=" (ctg2_325)" points="1406,25 1426,25 1426,10 1456,40 1426,70 1426,55 1406,55" fill="rgb(255,255,255)" fill-opacity="1.0" stroke="rgb(0,0,0)" stroke-width="2"  />
			<g>
				<title>ABC_tran (PF00005)
"ABC transporter"</title>
				<rect class="PF00005" x="1408" y="28" stroke-linejoin="round" width="15" height="24" fill="rgb(129,201,63)" stroke="rgb(103,160,50)" stroke-width="1" opacity="0.75" />
			</g>
			<g>
				<title>ABC_tran (PF00005)
"ABC transporter"</title>
				<polygon class="PF00005" points="1434,28 1440,28 1449,37 1449,43 1440,52 1434,52" stroke-linejoin="round" width="15" height="24" fill="rgb(129,201,63)" stroke="rgb(103,160,50)" stroke-width="1" opacity="0.75" />
			</g>
		</g>
		<g>
			<title> (ctg2_326)</title>
			<polygon class=" (ctg2_326)" points="1457,25 1463,25 1463,10 1493,40 1463,70 1463,55 1457,55" fill="rgb(255,255,255)" fill-opacity="1.0" stroke="rgb(0,0,0)" stroke-width="2"  />
			<g>
				<title>BPD_transp_2 (PF02653)
"Branched-chain amino acid transport system / permease component"</title>
				<polygon class="PF02653" points="1462,28 1477,28 1489,40 1477,52 1462,52" stroke-linejoin="round" width="28" height="24" fill="rgb(69,130,196)" stroke="rgb(55,104,156)" stroke-width="1" opacity="0.75" />
			</g>
		</g>
		<g>
			<title> (ctg2_327)</title>
			<polygon class=" (ctg2_327)" points="1551,25 1550,25 1550,10 1520,40 1550,70 1550,55 1551,55" fill="rgb(255,255,255)" fill-opacity="1.0" stroke="rgb(0,0,0)" stroke-width="2"  />
			<g>
				<title>Sugar-bind (PF04198)
"Putative sugar-binding domain"</title>
				<polygon class="PF04198" points="1524,40 1536,28 1545,28 1545,52 1536,52" stroke-linejoin="round" width="25" height="24" fill="rgb(198,52,101)" stroke="rgb(158,41,80)" stroke-width="1" opacity="0.75" />
			</g>
			<g>
				<title>MarR (PF01047)
"MarR family"</title>
				<rect class="PF01047" x="1546" y="28" stroke-linejoin="round" width="4" height="24" fill="rgb(60,185,86)" stroke="rgb(48,148,68)" stroke-width="1" opacity="0.75" />
			</g>
		</g>
		<g>
			<title> (ctg2_328)</title>
			<polygon class=" (ctg2_328)" points="1562,10 1589,40 1562,70" fill="rgb(255,255,255)" fill-opacity="1.0" stroke="rgb(0,0,0)" stroke-width="2"  />
			<g>
				<title>Transketolase_N (PF00456)
"Transketolase, thiamine diphosphate binding domain"</title>
				<polygon class="PF00456" points="1563,28 1574,28 1585,40 1574,52 1563,52" stroke-linejoin="round" width="26" height="24" fill="rgb(74,202,214)" stroke="rgb(59,161,171)" stroke-width="1" opacity="0.75" />
			</g>
		</g>
		<g>
			<title> (ctg2_329)</title>
			<polygon class=" (ctg2_329)" points="1589,25 1590,25 1590,10 1620,40 1590,70 1590,55 1589,55" fill="rgb(255,255,255)" fill-opacity="1.0" stroke="rgb(0,0,0)" stroke-width="2"  />
			<g>
				<title>Transket_pyr (PF02779)
"Transketolase, pyrimidine binding domain"</title>
				<polygon class="PF02779" points="1589,28 1604,28 1605,29 1605,51 1604,52 1589,52" stroke-linejoin="round" width="16" height="24" fill="rgb(189,186,84)" stroke="rgb(151,148,67)" stroke-width="1" opacity="0.75" />
			</g>
			<g>
				<title>Transketolase_C (PF02780)
"Transketolase, C-terminal domain"</title>
				<polygon class="PF02780" points="1607,31 1616,40 1607,49" stroke-linejoin="round" width="12" height="24" fill="rgb(76,206,101)" stroke="rgb(60,164,80)" stroke-width="1" opacity="0.75" />
			</g>
		</g>
		<g>
			<title> (ctg2_330)</title>
			<polygon class=" (ctg2_330)" points="1622,25 1639,25 1639,10 1669,40 1639,70 1639,55 1622,55" fill="rgb(255,255,255)" fill-opacity="1.0" stroke="rgb(0,0,0)" stroke-width="2"  />
			<g>
				<title>Fucose_iso_C (PF02952)
"L-fucose isomerase, C-terminal domain"</title>
				<polygon class="PF02952" points="1656,31 1665,40 1656,49" stroke-linejoin="round" width="12" height="24" fill="rgb(206,96,82)" stroke="rgb(164,76,65)" stroke-width="1" opacity="0.75" />
			</g>
		</g>
		<g>
			<title> (ctg2_331)</title>
			<polygon class=" (ctg2_331)" points="1670,25 1690,25 1690,10 1720,40 1690,70 1690,55 1670,55" fill="rgb(255,255,255)" fill-opacity="1.0" stroke="rgb(0,0,0)" stroke-width="2"  />
			<g>
				<title>FGGY_N (PF00370)
"FGGY family of carbohydrate kinases, N-terminal domain"</title>
				<rect class="PF00370" x="1670" y="28" stroke-linejoin="round" width="24" height="24" fill="rgb(83,186,105)" stroke="rgb(66,148,83)" stroke-width="1" opacity="0.75" />
			</g>
			<g>
				<title>FGGY_C (PF02782)
"FGGY family of carbohydrate kinases, C-terminal domain"</title>
				<polygon class="PF02782" points="1696,28 1703,28 1715,40 1715,40 1703,52 1696,52" stroke-linejoin="round" width="19" height="24" fill="rgb(204,103,85)" stroke="rgb(163,82,68)" stroke-width="1" opacity="0.75" />
			</g>
		</g>
		<g>
			<title> (ctg2_332)</title>
			<polygon class=" (ctg2_332)" points="1723,40 1728,10 1728,70" fill="rgb(255,255,255)" fill-opacity="1.0" stroke="rgb(0,0,0)" stroke-width="2"  />
			<g>
				<title>HOK_GEF (PF01848)
"Hok/gef family"</title>
				<polygon class="PF01848" points="1726,40 1727,34 1727,46" stroke-linejoin="round" width="4" height="24" fill="rgb(58,194,211)" stroke="rgb(46,155,168)" stroke-width="1" opacity="0.75" />
			</g>
		</g>
		<g>
			<title> (ctg2_333)</title>
			<polygon class=" (ctg2_333)" points="1740,40 1745,10 1745,70" fill="rgb(255,255,255)" fill-opacity="1.0" stroke="rgb(0,0,0)" stroke-width="2"  />
			<g>
				<title>HOK_GEF (PF01848)
"Hok/gef family"</title>
				<polygon class="PF01848" points="1743,40 1744,34 1744,46" stroke-linejoin="round" width="4" height="24" fill="rgb(58,194,211)" stroke="rgb(46,155,168)" stroke-width="1" opacity="0.75" />
			</g>
		</g>
		<g>
			<title> (ctg2_334)</title>
			<polygon class=" (ctg2_334)" points="1758,40 1781,10 1781,70" fill="rgb(255,255,255)" fill-opacity="1.0" stroke="rgb(0,0,0)" stroke-width="2"  />
			<g>
				<title>Acetyltransf_3 (PF13302)
"Acetyltransferase (GNAT) domain"</title>
				<polygon class="PF13302" points="1764,37 1772,28 1777,28 1777,52 1772,52 1764,43" stroke-linejoin="round" width="13" height="24" fill="rgb(105,146,215)" stroke="rgb(84,116,172)" stroke-width="1" opacity="0.75" />
			</g>
		</g>
	</g>
</svg>
