<svg version="1.1" baseProfile="full" xmlns="http://www.w3.org/2000/svg" width="896.7666666666667" height="80">
	<g>
		<line x1="10" y1="40.0" x2="886.7666666666667" y2="40.0" style="stroke:rgb(70,70,70); stroke-width:3 "/>
		<g>
			<title> (ctg8_122)</title>
			<polygon class=" (ctg8_122)" points="117,25 72,25 72,10 42,40 72,70 72,55 117,55" fill="rgb(255,255,255)" fill-opacity="1.0" stroke="rgb(0,0,0)" stroke-width="2"  />
			<g>
				<title>Lactamase_B (PF00753)
"Metallo-beta-lactamase superfamily"</title>
				<polygon class="PF00753" points="49,37 58,28 66,28 66,52 58,52 49,43" stroke-linejoin="round" width="17" height="24" fill="rgb(206,198,96)" stroke="rgb(164,158,76)" stroke-width="1" opacity="0.75" />
			</g>
			<g>
				<title>Competence (PF03772)
"Competence protein"</title>
				<rect class="PF03772" x="70" y="28" stroke-linejoin="round" width="27" height="24" fill="rgb(168,54,200)" stroke="rgb(134,43,160)" stroke-width="1" opacity="0.75" />
			</g>
		</g>
		<g>
			<title> (ctg8_123)</title>
			<polygon class=" (ctg8_123)" points="125,40 134,10 134,70" fill="rgb(255,255,255)" fill-opacity="1.0" stroke="rgb(0,0,0)" stroke-width="2"  />
			<g>
				<title>Bac_DNA_binding (PF00216)
"Bacterial DNA-binding protein"</title>
				<polygon class="PF00216" points="128,40 132,28 134,28 134,52 132,52" stroke-linejoin="round" width="9" height="24" fill="rgb(73,205,204)" stroke="rgb(58,164,163)" stroke-width="1" opacity="0.75" />
			</g>
		</g>
		<g>
			<title> (ctg8_124)</title>
			<polygon class=" (ctg8_124)" points="195,25 170,25 170,10 140,40 170,70 170,55 195,55" fill="rgb(255,255,255)" fill-opacity="1.0" stroke="rgb(0,0,0)" stroke-width="2"  />
			<g>
				<title>S1 (PF00575)
"S1 RNA binding domain"</title>
				<polygon class="PF00575" points="144,40 150,34 150,46" stroke-linejoin="round" width="7" height="24" fill="rgb(102,56,190)" stroke="rgb(81,44,152)" stroke-width="1" opacity="0.75" />
			</g>
			<g>
				<title>S1 (PF00575)
"S1 RNA binding domain"</title>
				<polygon class="PF00575" points="152,32 156,28 159,28 159,52 156,52 152,48" stroke-linejoin="round" width="7" height="24" fill="rgb(102,56,190)" stroke="rgb(81,44,152)" stroke-width="1" opacity="0.75" />
			</g>
			<g>
				<title>S1 (PF00575)
"S1 RNA binding domain"</title>
				<rect class="PF00575" x="161" y="28" stroke-linejoin="round" width="7" height="24" fill="rgb(102,56,190)" stroke="rgb(81,44,152)" stroke-width="1" opacity="0.75" />
			</g>
			<g>
				<title>S1 (PF00575)
"S1 RNA binding domain"</title>
				<rect class="PF00575" x="169" y="28" stroke-linejoin="round" width="7" height="24" fill="rgb(102,56,190)" stroke="rgb(81,44,152)" stroke-width="1" opacity="0.75" />
			</g>
			<g>
				<title>S1 (PF00575)
"S1 RNA binding domain"</title>
				<rect class="PF00575" x="178" y="28" stroke-linejoin="round" width="7" height="24" fill="rgb(102,56,190)" stroke="rgb(81,44,152)" stroke-width="1" opacity="0.75" />
			</g>
			<g>
				<title>S1 (PF00575)
"S1 RNA binding domain"</title>
				<rect class="PF00575" x="187" y="28" stroke-linejoin="round" width="7" height="24" fill="rgb(102,56,190)" stroke="rgb(81,44,152)" stroke-width="1" opacity="0.75" />
			</g>
		</g>
		<g>
			<title> (ctg8_125)</title>
			<polygon class=" (ctg8_125)" points="200,40 222,10 222,70" fill="rgb(255,255,255)" fill-opacity="1.0" stroke="rgb(0,0,0)" stroke-width="2"  />
			<g>
				<title>Cytidylate_kin (PF02224)
"Cytidylate kinase"</title>
				<polygon class="PF02224" points="204,40 213,28 221,28 221,52 213,52" stroke-linejoin="round" width="21" height="24" fill="rgb(85,78,199)" stroke="rgb(68,62,159)" stroke-width="1" opacity="0.75" />
			</g>
		</g>
		<g>
			<title> (ctg8_126)</title>
			<polygon class=" (ctg8_126)" points="271,25 259,25 259,10 229,40 259,70 259,55 271,55" fill="rgb(255,255,255)" fill-opacity="1.0" stroke="rgb(0,0,0)" stroke-width="2"  />
			<g>
				<title>EPSP_synthase (PF00275)
"EPSP synthase (3-phosphoshikimate 1-carboxyvinyltransferase)"</title>
				<polygon class="PF00275" points="233,40 245,28 270,28 270,52 245,52" stroke-linejoin="round" width="41" height="24" fill="rgb(217,213,85)" stroke="rgb(173,170,68)" stroke-width="1" opacity="0.75" />
			</g>
		</g>
		<g>
			<title> (ctg8_127)</title>
			<polygon class=" (ctg8_127)" points="309,25 304,25 304,10 274,40 304,70 304,55 309,55" fill="rgb(255,255,255)" fill-opacity="1.0" stroke="rgb(0,0,0)" stroke-width="2"  />
			<g>
				<title>Aminotran_5 (PF00266)
"Aminotransferase class-V"</title>
				<polygon class="PF00266" points="278,40 290,28 308,28 308,52 290,52" stroke-linejoin="round" width="33" height="24" fill="rgb(214,54,122)" stroke="rgb(171,43,97)" stroke-width="1" opacity="0.75" />
			</g>
		</g>
		<g>
			<title> (ctg8_128)</title>
			<polygon class=" (ctg8_128)" points="316,40 339,10 339,70" fill="rgb(255,255,255)" fill-opacity="1.0" stroke="rgb(0,0,0)" stroke-width="2"  />
			<g>
				<title>DUF421 (PF04239)
"Protein of unknown function (DUF421)"</title>
				<polygon class="PF04239" points="320,40 328,30 328,50 320,40" stroke-linejoin="round" width="8" height="24" fill="rgb(165,197,85)" stroke="rgb(132,157,68)" stroke-width="1" opacity="0.75" />
			</g>
		</g>
		<g>
			<title> (ctg8_129)</title>
			<polygon class=" (ctg8_129)" points="343,25 371,25 371,10 401,40 371,70 371,55 343,55" fill="rgb(255,255,255)" fill-opacity="1.0" stroke="rgb(0,0,0)" stroke-width="2"  />
			<g>
				<title>YcaO (PF02624)
"YcaO cyclodehydratase, ATP-ad Mg2+-binding"</title>
				<rect class="PF02624" x="348" y="28" stroke-linejoin="round" width="33" height="24" fill="rgb(76,84,185)" stroke="rgb(60,67,148)" stroke-width="1" opacity="0.75" />
			</g>
			<g>
				<title>YcaO_C (PF18381)
"YcaO cyclodehydratase C-terminal domain"</title>
				<polygon class="PF18381" points="383,28 385,28 397,40 385,52 383,52" stroke-linejoin="round" width="17" height="24" fill="rgb(125,91,193)" stroke="rgb(99,72,154)" stroke-width="1" opacity="0.75" />
			</g>
		</g>
		<g>
			<title> (ctg8_130)</title>
			<polygon class=" (ctg8_130)" points="416,10 443,40 416,70" fill="rgb(255,255,255)" fill-opacity="1.0" stroke="rgb(0,0,0)" stroke-width="2"  />
			<g>
				<title>Form_Nir_trans (PF01226)
"Formate/nitrite transporter"</title>
				<polygon class="PF01226" points="416,28 427,28 439,40 427,52 416,52" stroke-linejoin="round" width="26" height="24" fill="rgb(206,55,143)" stroke="rgb(164,44,114)" stroke-width="1" opacity="0.75" />
			</g>
		</g>
		<g>
			<title> (ctg8_131)</title>
			<polygon class=" (ctg8_131)" points="445,25 491,25 491,10 521,40 491,70 491,55 445,55" fill="rgb(255,255,255)" fill-opacity="1.0" stroke="rgb(0,0,0)" stroke-width="2"  />
			<g>
				<title>PFL-like (PF02901)
"Pyruvate formate lyase-like"</title>
				<polygon class="PF02901" points="446,28 504,28 506,30 506,50 504,52 446,52" stroke-linejoin="round" width="60" height="24" fill="rgb(90,117,182)" stroke="rgb(72,93,145)" stroke-width="1" opacity="0.75" />
			</g>
			<g>
				<title>Gly_radical (PF01228)
"Glycine radical"</title>
				<polygon class="PF01228" points="508,32 516,40 508,48" stroke-linejoin="round" width="11" height="24" fill="rgb(103,207,173)" stroke="rgb(82,165,138)" stroke-width="1" opacity="0.75" />
			</g>
		</g>
		<g>
			<title> (ctg8_132)</title>
			<polygon class=" (ctg8_132)" points="528,10 552,40 528,70" fill="rgb(255,255,255)" fill-opacity="1.0" stroke="rgb(0,0,0)" stroke-width="2"  />
			<g>
				<title>Radical_SAM (PF04055)
"Radical SAM superfamily"</title>
				<polygon class="PF04055" points="530,28 539,28 546,37 546,43 539,52 530,52" stroke-linejoin="round" width="16" height="24" fill="rgb(149,56,222)" stroke="rgb(119,44,177)" stroke-width="1" opacity="0.75" />
			</g>
		</g>
		<g>
			<title> (ctg8_133)</title>
			<polygon class=" (ctg8_133)" points="554,40 571,10 571,70" fill="rgb(255,255,255)" fill-opacity="1.0" stroke="rgb(0,0,0)" stroke-width="2"  />
		</g>
		<g>
			<title> (ctg8_134)</title>
			<polygon class=" (ctg8_134)" points="614,25 606,25 606,10 576,40 606,70 606,55 614,55" fill="rgb(255,255,255)" fill-opacity="1.0" stroke="rgb(0,0,0)" stroke-width="2"  />
			<g>
				<title>MFS_1 (PF07690)
"Major Facilitator Superfamily"</title>
				<polygon class="PF07690" points="589,31 592,28 612,28 612,52 592,52 589,49" stroke-linejoin="round" width="23" height="24" fill="rgb(193,224,74)" stroke="rgb(154,179,59)" stroke-width="1" opacity="0.75" />
			</g>
		</g>
		<g>
			<title> (ctg8_135)</title>
			<polygon class=" (ctg8_135)" points="623,40 651,10 651,70" fill="rgb(255,255,255)" fill-opacity="1.0" stroke="rgb(0,0,0)" stroke-width="2"  />
			<g>
				<title>DmsC (PF04976)
"DMSO reductase anchor subunit (DmsC)"</title>
				<polygon class="PF04976" points="627,40 639,28 651,28 651,52 639,52" stroke-linejoin="round" width="27" height="24" fill="rgb(206,147,88)" stroke="rgb(164,117,70)" stroke-width="1" opacity="0.75" />
			</g>
		</g>
		<g>
			<title> (ctg8_136)</title>
			<polygon class=" (ctg8_136)" points="652,40 672,10 672,70" fill="rgb(255,255,255)" fill-opacity="1.0" stroke="rgb(0,0,0)" stroke-width="2"  />
			<g>
				<title>Fer4_11 (PF13247)
"4Fe-4S dicluster domain"</title>
				<polygon class="PF13247" points="657,39 664,28 666,28 666,52 664,52 657,41" stroke-linejoin="round" width="9" height="24" fill="rgb(61,193,49)" stroke="rgb(48,154,39)" stroke-width="1" opacity="0.75" />
			</g>
		</g>
		<g>
			<title> (ctg8_137)</title>
			<polygon class=" (ctg8_137)" points="754,25 703,25 703,10 673,40 703,70 703,55 754,55" fill="rgb(255,255,255)" fill-opacity="1.0" stroke="rgb(0,0,0)" stroke-width="2"  />
			<g>
				<title>Molydop_binding (PF01568)
"Molydopterin dinucleotide binding domain"</title>
				<polygon class="PF01568" points="677,40 684,33 684,47" stroke-linejoin="round" width="11" height="24" fill="rgb(184,132,64)" stroke="rgb(147,105,51)" stroke-width="1" opacity="0.75" />
			</g>
			<g>
				<title>Molybdopterin (PF00384)
"Molybdopterin oxidoreductase"</title>
				<rect class="PF00384" x="696" y="28" stroke-linejoin="round" width="45" height="24" fill="rgb(65,194,78)" stroke="rgb(52,155,62)" stroke-width="1" opacity="0.75" />
			</g>
			<g>
				<title>Molybdop_Fe4S4 (PF04879)
"Molybdopterin oxidoreductase Fe4S4 domain"</title>
				<rect class="PF04879" x="742" y="28" stroke-linejoin="round" width="6" height="24" fill="rgb(186,68,186)" stroke="rgb(148,54,148)" stroke-width="1" opacity="0.75" />
			</g>
		</g>
		<g>
			<title> (ctg8_138)</title>
			<polygon class=" (ctg8_138)" points="805,25 792,25 792,10 762,40 792,70 792,55 805,55" fill="rgb(255,255,255)" fill-opacity="1.0" stroke="rgb(0,0,0)" stroke-width="2"  />
			<g>
				<title>tRNA-synt_2b (PF00587)
"tRNA synthetase class II core domain (G, H, P, S and T)"</title>
				<polygon class="PF00587" points="766,40 778,28 782,28 782,52 778,52" stroke-linejoin="round" width="18" height="24" fill="rgb(228,96,220)" stroke="rgb(182,76,176)" stroke-width="1" opacity="0.75" />
			</g>
			<g>
				<title>Seryl_tRNA_N (PF02403)
"Seryl-tRNA synthetase N-terminal domain"</title>
				<rect class="PF02403" x="794" y="28" stroke-linejoin="round" width="10" height="24" fill="rgb(220,109,118)" stroke="rgb(176,87,94)" stroke-width="1" opacity="0.75" />
			</g>
		</g>
		<g>
			<title> (ctg8_139)</title>
			<polygon class=" (ctg8_139)" points="852,25 838,25 838,10 808,40 838,70 838,55 852,55" fill="rgb(255,255,255)" fill-opacity="1.0" stroke="rgb(0,0,0)" stroke-width="2"  />
			<g>
				<title>MgsA_C (PF12002)
"MgsA AAA+ ATPase C terminal"</title>
				<polygon class="PF12002" points="812,40 824,28 825,28 825,52 824,52" stroke-linejoin="round" width="16" height="24" fill="rgb(224,154,71)" stroke="rgb(179,123,56)" stroke-width="1" opacity="0.75" />
			</g>
			<g>
				<title>AAA_assoc_2 (PF16193)
"AAA C-terminal domain"</title>
				<rect class="PF16193" x="826" y="28" stroke-linejoin="round" width="8" height="24" fill="rgb(186,178,53)" stroke="rgb(148,142,42)" stroke-width="1" opacity="0.75" />
			</g>
			<g>
				<title>AAA (PF00004)
"ATPase family associated with various cellular activities (AAA)"</title>
				<rect class="PF00004" x="836" y="28" stroke-linejoin="round" width="11" height="24" fill="rgb(57,194,204)" stroke="rgb(45,155,163)" stroke-width="1" opacity="0.75" />
			</g>
		</g>
		<g>
			<title> (ctg8_140)</title>
			<polygon class=" (ctg8_140)" points="853,40 873,10 873,70" fill="rgb(255,255,255)" fill-opacity="1.0" stroke="rgb(0,0,0)" stroke-width="2"  />
			<g>
				<title>LolA (PF03548)
"Outer membrane lipoprotein carrier protein LolA"</title>
				<polygon class="PF03548" points="857,40 865,28 869,28 869,52 865,52" stroke-linejoin="round" width="15" height="24" fill="rgb(84,160,208)" stroke="rgb(67,128,166)" stroke-width="1" opacity="0.75" />
			</g>
		</g>
	</g>
</svg>
