<svg version="1.1" baseProfile="full" xmlns="http://www.w3.org/2000/svg" width="710.1666666666666" height="80">
	<g>
		<line x1="10" y1="40.0" x2="700.1666666666666" y2="40.0" style="stroke:rgb(70,70,70); stroke-width:3 "/>
		<g>
			<title> (ctg19_56)</title>
			<polygon class=" (ctg19_56)" points="70,40 95,10 95,70" fill="rgb(255,255,255)" fill-opacity="1.0" stroke="rgb(0,0,0)" stroke-width="2"  />
		</g>
		<g>
			<title> (ctg19_57)</title>
			<polygon class=" (ctg19_57)" points="95,40 105,10 105,70" fill="rgb(255,255,255)" fill-opacity="1.0" stroke="rgb(0,0,0)" stroke-width="2"  />
		</g>
		<g>
			<title> (ctg19_58)</title>
			<polygon class=" (ctg19_58)" points="108,40 122,10 122,70" fill="rgb(255,255,255)" fill-opacity="1.0" stroke="rgb(0,0,0)" stroke-width="2"  />
			<g>
				<title>DUF6530 (PF20140)
"Family of unknown function (DUF6530)"</title>
				<polygon class="PF20140" points="111,40 117,28 122,28 122,52 117,52" stroke-linejoin="round" width="14" height="24" fill="rgb(97,197,129)" stroke="rgb(77,157,103)" stroke-width="1" opacity="0.75" />
			</g>
		</g>
		<g>
			<title> (ctg19_59)</title>
			<polygon class=" (ctg19_59)" points="130,10 148,40 130,70" fill="rgb(255,255,255)" fill-opacity="1.0" stroke="rgb(0,0,0)" stroke-width="2"  />
			<g>
				<title>Resolvase (PF00239)
"Resolvase, N terminal domain"</title>
				<polygon class="PF00239" points="130,28 137,28 143,37 143,43 137,52 130,52" stroke-linejoin="round" width="13" height="24" fill="rgb(99,177,201)" stroke="rgb(79,141,160)" stroke-width="1" opacity="0.75" />
			</g>
			<g>
				<title>HTH_7 (PF02796)
"Helix-turn-helix domain of resolvase"</title>
				<polygon class="PF02796" points="144,39 145,40 144,41" stroke-linejoin="round" width="4" height="24" fill="rgb(223,208,93)" stroke="rgb(178,166,74)" stroke-width="1" opacity="0.75" />
			</g>
		</g>
		<g>
			<title> (ctg19_60)</title>
			<polygon class=" (ctg19_60)" points="150,25 215,25 215,10 245,40 215,70 215,55 150,55" fill="rgb(255,255,255)" fill-opacity="1.0" stroke="rgb(0,0,0)" stroke-width="2"  />
			<g>
				<title>DUF4158 (PF13700)
"Domain of unknown function (DUF4158)"</title>
				<rect class="PF13700" x="150" y="28" stroke-linejoin="round" width="16" height="24" fill="rgb(93,106,195)" stroke="rgb(74,84,156)" stroke-width="1" opacity="0.75" />
			</g>
			<g>
				<title>DDE_Tnp_Tn3 (PF01526)
"Tn3 transposase DDE domain"</title>
				<polygon class="PF01526" points="208,28 229,28 241,40 229,52 208,52" stroke-linejoin="round" width="36" height="24" fill="rgb(92,211,195)" stroke="rgb(73,168,156)" stroke-width="1" opacity="0.75" />
			</g>
		</g>
		<g>
			<title> (ctg19_61)</title>
			<polygon class=" (ctg19_61)" points="288,25 282,25 282,10 252,40 282,70 282,55 288,55" fill="rgb(255,255,255)" fill-opacity="1.0" stroke="rgb(0,0,0)" stroke-width="2"  />
			<g>
				<title>Phage_GPD (PF05954)
"Phage tail baseplate hub (GPD)"</title>
				<polygon class="PF05954" points="256,40 268,28 283,28 283,52 268,52" stroke-linejoin="round" width="31" height="24" fill="rgb(123,216,82)" stroke="rgb(98,172,65)" stroke-width="1" opacity="0.75" />
			</g>
		</g>
		<g>
			<title> (ctg19_62)</title>
			<polygon class=" (ctg19_62)" points="321,10 345,40 321,70" fill="rgb(255,255,255)" fill-opacity="1.0" stroke="rgb(0,0,0)" stroke-width="2"  />
			<g>
				<title>Autoind_bind (PF03472)
"Autoinducer binding domain"</title>
				<polygon class="PF03472" points="322,28 332,28 336,33 336,47 332,52 322,52" stroke-linejoin="round" width="14" height="24" fill="rgb(99,181,52)" stroke="rgb(79,144,41)" stroke-width="1" opacity="0.75" />
			</g>
			<g>
				<title>GerE (PF00196)
"Bacterial regulatory proteins, luxR family"</title>
				<polygon class="PF00196" points="338,36 341,40 338,44" stroke-linejoin="round" width="5" height="24" fill="rgb(219,94,82)" stroke="rgb(175,75,65)" stroke-width="1" opacity="0.75" />
			</g>
		</g>
		<g>
			<title> (ctg19_63)</title>
			<polygon class=" (ctg19_63)" points="343,40 366,10 366,70" fill="rgb(255,255,255)" fill-opacity="1.0" stroke="rgb(0,0,0)" stroke-width="2"  />
		</g>
		<g>
			<title> (ctg19_64)</title>
			<polygon class=" (ctg19_64)" points="380,25 385,25 385,10 415,40 385,70 385,55 380,55" fill="rgb(255,255,255)" fill-opacity="1.0" stroke="rgb(0,0,0)" stroke-width="2"  />
		</g>
		<g>
			<title> (ctg19_65)</title>
			<polygon class=" (ctg19_65)" points="418,10 437,40 418,70" fill="rgb(255,255,255)" fill-opacity="1.0" stroke="rgb(0,0,0)" stroke-width="2"  />
		</g>
		<g>
			<title> (ctg19_66)</title>
			<polygon class=" (ctg19_66)" points="439,10 451,40 439,70" fill="rgb(255,255,255)" fill-opacity="1.0" stroke="rgb(0,0,0)" stroke-width="2"  />
		</g>
		<g>
			<title> (ctg19_67)</title>
			<polygon class=" (ctg19_67)" points="452,40 460,10 460,70" fill="rgb(255,255,255)" fill-opacity="1.0" stroke="rgb(0,0,0)" stroke-width="2"  />
			<g>
				<title>HTH_3 (PF01381)
"Helix-turn-helix"</title>
				<polygon class="PF01381" points="455,40 458,28 458,28 458,52 458,52" stroke-linejoin="round" width="4" height="24" fill="rgb(105,79,202)" stroke="rgb(83,63,161)" stroke-width="1" opacity="0.75" />
			</g>
		</g>
		<g>
			<title> (ctg19_68)</title>
			<polygon class=" (ctg19_68)" points="474,10 481,40 474,70" fill="rgb(255,255,255)" fill-opacity="1.0" stroke="rgb(0,0,0)" stroke-width="2"  />
		</g>
		<g>
			<title> (ctg19_69)</title>
			<polygon class=" (ctg19_69)" points="480,10 483,40 480,70" fill="rgb(255,255,255)" fill-opacity="1.0" stroke="rgb(0,0,0)" stroke-width="2"  />
		</g>
		<g>
			<title> (ctg19_70)</title>
			<polygon class=" (ctg19_70)" points="543,25 521,25 521,10 491,40 521,70 521,55 543,55" fill="rgb(255,255,255)" fill-opacity="1.0" stroke="rgb(0,0,0)" stroke-width="2"  />
			<g>
				<title>DDE_Tnp_IS66_C (PF13817)
"IS66 C-terminal element"</title>
				<polygon class="PF13817" points="495,40 494,41 494,39" stroke-linejoin="round" width="3" height="24" fill="rgb(179,66,173)" stroke="rgb(143,52,138)" stroke-width="1" opacity="0.75" />
			</g>
			<g>
				<title>DDE_Tnp_IS66 (PF03050)
"Transposase IS66 family"</title>
				<polygon class="PF03050" points="496,39 507,28 524,28 524,52 507,52 496,41" stroke-linejoin="round" width="28" height="24" fill="rgb(189,225,106)" stroke="rgb(151,180,84)" stroke-width="1" opacity="0.75" />
			</g>
			<g>
				<title>zf-IS66 (PF13005)
"zinc-finger binding domain of transposase IS66"</title>
				<rect class="PF13005" x="526" y="28" stroke-linejoin="round" width="4" height="24" fill="rgb(85,193,127)" stroke="rgb(68,154,101)" stroke-width="1" opacity="0.75" />
			</g>
			<g>
				<title>LZ_Tnp_IS66 (PF13007)
"Transposase C of IS166 homeodomain"</title>
				<rect class="PF13007" x="531" y="28" stroke-linejoin="round" width="7" height="24" fill="rgb(68,66,227)" stroke="rgb(54,52,181)" stroke-width="1" opacity="0.75" />
			</g>
		</g>
		<g>
			<title> (ctg19_71)</title>
			<polygon class=" (ctg19_71)" points="544,40 555,10 555,70" fill="rgb(255,255,255)" fill-opacity="1.0" stroke="rgb(0,0,0)" stroke-width="2"  />
			<g>
				<title>TnpB_IS66 (PF05717)
"IS66 Orf2 like protein"</title>
				<polygon class="PF05717" points="547,40 552,28 553,28 553,52 552,52" stroke-linejoin="round" width="9" height="24" fill="rgb(64,191,138)" stroke="rgb(51,152,110)" stroke-width="1" opacity="0.75" />
			</g>
		</g>
		<g>
			<title> (ctg19_72)</title>
			<polygon class=" (ctg19_72)" points="555,40 577,10 577,70" fill="rgb(255,255,255)" fill-opacity="1.0" stroke="rgb(0,0,0)" stroke-width="2"  />
			<g>
				<title>HTH_Tnp_1 (PF01527)
"Transposase"</title>
				<polygon class="PF01527" points="559,40 566,30 566,50 559,40" stroke-linejoin="round" width="7" height="24" fill="rgb(85,212,107)" stroke="rgb(68,169,85)" stroke-width="1" opacity="0.75" />
			</g>
		</g>
		<g>
			<title> (ctg19_73)</title>
			<polygon class=" (ctg19_73)" points="579,40 582,10 582,70" fill="rgb(255,255,255)" fill-opacity="1.0" stroke="rgb(0,0,0)" stroke-width="2"  />
		</g>
		<g>
			<title> (ctg19_74)</title>
			<polygon class=" (ctg19_74)" points="609,10 632,40 609,70" fill="rgb(255,255,255)" fill-opacity="1.0" stroke="rgb(0,0,0)" stroke-width="2"  />
			<g>
				<title>Rep_3 (PF01051)
"Initiator Replication protein"</title>
				<polygon class="PF01051" points="610,28 619,28 628,40 619,52 610,52" stroke-linejoin="round" width="21" height="24" fill="rgb(54,178,163)" stroke="rgb(43,142,130)" stroke-width="1" opacity="0.75" />
			</g>
		</g>
		<g>
			<title> (ctg19_75)</title>
			<polygon class=" (ctg19_75)" points="637,40 647,10 647,70" fill="rgb(255,255,255)" fill-opacity="1.0" stroke="rgb(0,0,0)" stroke-width="2"  />
		</g>
	</g>
</svg>
