<svg version="1.1" baseProfile="full" xmlns="http://www.w3.org/2000/svg" width="382.1333333333333" height="80">
	<g>
		<line x1="10" y1="40.0" x2="372.1333333333333" y2="40.0" style="stroke:rgb(70,70,70); stroke-width:3 "/>
		<g>
			<title> (ctg12_37)</title>
			<polygon class=" (ctg12_37)" points="30,10 40,40 30,70" fill="rgb(255,255,255)" fill-opacity="1.0" stroke="rgb(0,0,0)" stroke-width="2"  />
		</g>
		<g>
			<title> (ctg12_38)</title>
			<polygon class=" (ctg12_38)" points="46,10 52,40 46,70" fill="rgb(255,255,255)" fill-opacity="1.0" stroke="rgb(0,0,0)" stroke-width="2"  />
		</g>
		<g>
			<title> (ctg12_39)</title>
			<polygon class=" (ctg12_39)" points="61,10 76,40 61,70" fill="rgb(255,255,255)" fill-opacity="1.0" stroke="rgb(0,0,0)" stroke-width="2"  />
		</g>
		<g>
			<title> (ctg12_40)</title>
			<polygon class=" (ctg12_40)" points="87,10 98,40 87,70" fill="rgb(255,255,255)" fill-opacity="1.0" stroke="rgb(0,0,0)" stroke-width="2"  />
		</g>
		<g>
			<title> (ctg12_41)</title>
			<polygon class=" (ctg12_41)" points="102,25 103,25 103,10 133,40 103,70 103,55 102,55" fill="rgb(255,255,255)" fill-opacity="1.0" stroke="rgb(0,0,0)" stroke-width="2"  />
			<g>
				<title>DUF4424 (PF14415)
"Domain of unknown function (DUF4424)"</title>
				<polygon class="PF14415" points="104,28 117,28 129,40 117,52 104,52" stroke-linejoin="round" width="28" height="24" fill="rgb(110,182,64)" stroke="rgb(87,145,51)" stroke-width="1" opacity="0.75" />
			</g>
		</g>
		<g>
			<title> (ctg12_42)</title>
			<polygon class=" (ctg12_42)" points="138,40 158,10 158,70" fill="rgb(255,255,255)" fill-opacity="1.0" stroke="rgb(0,0,0)" stroke-width="2"  />
			<g>
				<title>DoxX (PF07681)
"DoxX"</title>
				<polygon class="PF07681" points="146,34 150,28 154,28 154,52 150,52 146,46" stroke-linejoin="round" width="8" height="24" fill="rgb(93,188,216)" stroke="rgb(74,150,172)" stroke-width="1" opacity="0.75" />
			</g>
		</g>
		<g>
			<title> (ctg12_43)</title>
			<polygon class=" (ctg12_43)" points="164,10 174,40 164,70" fill="rgb(255,255,255)" fill-opacity="1.0" stroke="rgb(0,0,0)" stroke-width="2"  />
		</g>
		<g>
			<title> (ctg12_44)</title>
			<polygon class=" (ctg12_44)" points="176,10 204,40 176,70" fill="rgb(255,255,255)" fill-opacity="1.0" stroke="rgb(0,0,0)" stroke-width="2"  />
			<g>
				<title>DUF692 (PF05114)
"Protein of unknown function (DUF692)"</title>
				<polygon class="PF05114" points="176,28 188,28 200,40 188,52 176,52" stroke-linejoin="round" width="26" height="24" fill="rgb(63,196,127)" stroke="rgb(50,156,101)" stroke-width="1" opacity="0.75" />
			</g>
		</g>
		<g>
			<title> (ctg12_45)</title>
			<polygon class=" (ctg12_45)" points="203,10 228,40 203,70" fill="rgb(255,255,255)" fill-opacity="1.0" stroke="rgb(0,0,0)" stroke-width="2"  />
			<g>
				<title>DUF2063 (PF09836)
"Putative DNA-binding domain"</title>
				<rect class="PF09836" x="204" y="28" stroke-linejoin="round" width="8" height="24" fill="rgb(88,194,190)" stroke="rgb(70,155,152)" stroke-width="1" opacity="0.75" />
			</g>
		</g>
		<g>
			<title> (ctg12_46)</title>
			<polygon class=" (ctg12_46)" points="229,10 249,40 229,70" fill="rgb(255,255,255)" fill-opacity="1.0" stroke="rgb(0,0,0)" stroke-width="2"  />
			<g>
				<title>Sigma70_r2 (PF04542)
"Sigma-70 region 2"</title>
				<rect class="PF04542" x="231" y="28" stroke-linejoin="round" width="6" height="24" fill="rgb(184,59,197)" stroke="rgb(147,47,157)" stroke-width="1" opacity="0.75" />
			</g>
			<g>
				<title>Sigma70_r4_2 (PF08281)
"Sigma-70, region 4"</title>
				<polygon class="PF08281" points="242,35 246,40 242,45" stroke-linejoin="round" width="5" height="24" fill="rgb(222,103,144)" stroke="rgb(177,82,115)" stroke-width="1" opacity="0.75" />
			</g>
		</g>
		<g>
			<title> (ctg12_47)</title>
			<polygon class=" (ctg12_47)" points="249,10 255,40 249,70" fill="rgb(255,255,255)" fill-opacity="1.0" stroke="rgb(0,0,0)" stroke-width="2"  />
			<g>
				<title>zf-HC2 (PF13490)
"Putative zinc-finger"</title>
				<polygon class="PF13490" points="249,28 249,28 251,40 249,52 249,52" stroke-linejoin="round" width="3" height="24" fill="rgb(179,173,84)" stroke="rgb(143,138,67)" stroke-width="1" opacity="0.75" />
			</g>
		</g>
		<g>
			<title> (ctg12_48)</title>
			<polygon class=" (ctg12_48)" points="258,25 258,25 258,10 288,40 258,70 258,55 258,55" fill="rgb(255,255,255)" fill-opacity="1.0" stroke="rgb(0,0,0)" stroke-width="2"  />
			<g>
				<title>HTH_1 (PF00126)
"Bacterial regulatory helix-turn-helix protein, lysR family"</title>
				<rect class="PF00126" x="258" y="28" stroke-linejoin="round" width="5" height="24" fill="rgb(125,227,79)" stroke="rgb(99,181,63)" stroke-width="1" opacity="0.75" />
			</g>
			<g>
				<title>LysR_substrate (PF03466)
"LysR substrate binding domain"</title>
				<polygon class="PF03466" points="266,28 272,28 284,40 272,52 266,52" stroke-linejoin="round" width="19" height="24" fill="rgb(55,136,195)" stroke="rgb(44,108,156)" stroke-width="1" opacity="0.75" />
			</g>
		</g>
		<g>
			<title> (ctg12_49)</title>
			<polygon class=" (ctg12_49)" points="299,25 310,25 310,10 340,40 310,70 310,55 299,55" fill="rgb(255,255,255)" fill-opacity="1.0" stroke="rgb(0,0,0)" stroke-width="2"  />
			<g>
				<title>Nramp (PF01566)
"Natural resistance-associated macrophage protein"</title>
				<polygon class="PF01566" points="303,28 323,28 335,40 323,52 303,52" stroke-linejoin="round" width="33" height="24" fill="rgb(155,80,205)" stroke="rgb(123,64,164)" stroke-width="1" opacity="0.75" />
			</g>
		</g>
		<g>
			<title> (ctg12_50)</title>
			<polygon class=" (ctg12_50)" points="341,10 366,40 341,70" fill="rgb(255,255,255)" fill-opacity="1.0" stroke="rgb(0,0,0)" stroke-width="2"  />
			<g>
				<title>LamB_YcsF (PF03746)
"LamB/YcsF family"</title>
				<polygon class="PF03746" points="341,28 352,28 362,40 352,52 341,52" stroke-linejoin="round" width="23" height="24" fill="rgb(225,96,106)" stroke="rgb(180,76,84)" stroke-width="1" opacity="0.75" />
			</g>
		</g>
	</g>
</svg>
