<svg version="1.1" baseProfile="full" xmlns="http://www.w3.org/2000/svg" width="707.9666666666667" height="80">
	<g>
		<line x1="10" y1="40.0" x2="697.9666666666667" y2="40.0" style="stroke:rgb(70,70,70); stroke-width:3 "/>
		<g>
			<title> (ctg7_195)</title>
			<polygon class=" (ctg7_195)" points="30,25 30,25 30,10 60,40 30,70 30,55 30,55" fill="rgb(255,255,255)" fill-opacity="1.0" stroke="rgb(0,0,0)" stroke-width="2"  />
			<g>
				<title>Bestrophin (PF01062)
"Bestrophin, RFP-TM, chloride channel"</title>
				<polygon class="PF01062" points="30,28 44,28 56,40 44,52 30,52" stroke-linejoin="round" width="28" height="24" fill="rgb(195,112,80)" stroke="rgb(156,89,64)" stroke-width="1" opacity="0.75" />
			</g>
		</g>
		<g>
			<title> (ctg7_196)</title>
			<polygon class=" (ctg7_196)" points="60,40 78,10 78,70" fill="rgb(255,255,255)" fill-opacity="1.0" stroke="rgb(0,0,0)" stroke-width="2"  />
			<g>
				<title>Acetyltransf_3 (PF13302)
"Acetyltransferase (GNAT) domain"</title>
				<polygon class="PF13302" points="64,40 71,28 77,28 77,52 71,52" stroke-linejoin="round" width="14" height="24" fill="rgb(105,146,215)" stroke="rgb(84,116,172)" stroke-width="1" opacity="0.75" />
			</g>
		</g>
		<g>
			<title> (ctg7_197)</title>
			<polygon class=" (ctg7_197)" points="102,10 121,40 102,70" fill="rgb(255,255,255)" fill-opacity="1.0" stroke="rgb(0,0,0)" stroke-width="2"  />
		</g>
		<g>
			<title> (ctg7_198)</title>
			<polygon class=" (ctg7_198)" points="122,10 137,40 122,70" fill="rgb(255,255,255)" fill-opacity="1.0" stroke="rgb(0,0,0)" stroke-width="2"  />
			<g>
				<title>Acetyltransf_10 (PF13673)
"Acetyltransferase (GNAT) domain"</title>
				<polygon class="PF13673" points="124,28 127,28 134,40 127,52 124,52" stroke-linejoin="round" width="13" height="24" fill="rgb(88,180,95)" stroke="rgb(70,144,76)" stroke-width="1" opacity="0.75" />
			</g>
		</g>
		<g>
			<title> (ctg7_199)</title>
			<polygon class=" (ctg7_199)" points="138,10 152,40 138,70" fill="rgb(255,255,255)" fill-opacity="1.0" stroke="rgb(0,0,0)" stroke-width="2"  />
			<g>
				<title>Acetyltransf_1 (PF00583)
"Acetyltransferase (GNAT) family"</title>
				<polygon class="PF00583" points="138,28 143,28 149,40 143,52 138,52" stroke-linejoin="round" width="12" height="24" fill="rgb(121,183,50)" stroke="rgb(96,146,39)" stroke-width="1" opacity="0.75" />
			</g>
		</g>
		<g>
			<title> (ctg7_200)</title>
			<polygon class=" (ctg7_200)" points="158,25 161,25 161,10 191,40 161,70 161,55 158,55" fill="rgb(255,255,255)" fill-opacity="1.0" stroke="rgb(0,0,0)" stroke-width="2"  />
			<g>
				<title>Abhydrolase_1 (PF00561)
"alpha/beta hydrolase fold"</title>
				<polygon class="PF00561" points="163,28 174,28 186,40 174,52 163,52" stroke-linejoin="round" width="24" height="24" fill="rgb(86,180,151)" stroke="rgb(68,144,120)" stroke-width="1" opacity="0.75" />
			</g>
		</g>
		<g>
			<title> (ctg7_201)</title>
			<polygon class=" (ctg7_201)" points="193,10 217,40 193,70" fill="rgb(255,255,255)" fill-opacity="1.0" stroke="rgb(0,0,0)" stroke-width="2"  />
			<g>
				<title>Response_reg (PF00072)
"Response regulator receiver domain"</title>
				<rect class="PF00072" x="193" y="28" stroke-linejoin="round" width="11" height="24" fill="rgb(100,107,203)" stroke="rgb(80,85,162)" stroke-width="1" opacity="0.75" />
			</g>
			<g>
				<title>Trans_reg_C (PF00486)
"Transcriptional regulatory protein, C terminal"</title>
				<polygon class="PF00486" points="208,33 213,40 208,47" stroke-linejoin="round" width="7" height="24" fill="rgb(204,153,57)" stroke="rgb(163,122,45)" stroke-width="1" opacity="0.75" />
			</g>
		</g>
		<g>
			<title> (ctg7_202)</title>
			<polygon class=" (ctg7_202)" points="217,25 230,25 230,10 260,40 230,70 230,55 217,55" fill="rgb(255,255,255)" fill-opacity="1.0" stroke="rgb(0,0,0)" stroke-width="2"  />
			<g>
				<title>HATPase_c (PF02518)
"Histidine kinase-, DNA gyrase B-, and HSP90-like ATPase"</title>
				<polygon class="PF02518" points="249,33 256,40 249,47" stroke-linejoin="round" width="10" height="24" fill="rgb(80,94,225)" stroke="rgb(64,75,180)" stroke-width="1" opacity="0.75" />
			</g>
		</g>
		<g>
			<title> (ctg7_203)</title>
			<polygon class=" (ctg7_203)" points="265,25 274,25 274,10 304,40 274,70 274,55 265,55" fill="rgb(255,255,255)" fill-opacity="1.0" stroke="rgb(0,0,0)" stroke-width="2"  />
			<g>
				<title>DsbD (PF02683)
"Cytochrome C biogenesis protein transmembrane region"</title>
				<rect class="PF02683" x="265" y="28" stroke-linejoin="round" width="20" height="24" fill="rgb(89,192,111)" stroke="rgb(71,153,88)" stroke-width="1" opacity="0.75" />
			</g>
			<g>
				<title>AhpC-TSA (PF00578)
"AhpC/TSA family"</title>
				<polygon class="PF00578" points="289,29 300,40 289,51" stroke-linejoin="round" width="12" height="24" fill="rgb(166,71,190)" stroke="rgb(132,56,152)" stroke-width="1" opacity="0.75" />
			</g>
		</g>
		<g>
			<title> (ctg7_204)</title>
			<polygon class=" (ctg7_204)" points="305,40 330,10 330,70" fill="rgb(255,255,255)" fill-opacity="1.0" stroke="rgb(0,0,0)" stroke-width="2"  />
			<g>
				<title>Methyltransf_25 (PF13649)
"Methyltransferase domain"</title>
				<polygon class="PF13649" points="317,31 319,28 325,28 325,52 319,52 317,49" stroke-linejoin="round" width="8" height="24" fill="rgb(227,135,74)" stroke="rgb(181,108,59)" stroke-width="1" opacity="0.75" />
			</g>
		</g>
		<g>
			<title> (ctg7_205)</title>
			<polygon class=" (ctg7_205)" points="343,10 364,40 343,70" fill="rgb(255,255,255)" fill-opacity="1.0" stroke="rgb(0,0,0)" stroke-width="2"  />
			<g>
				<title>Autoind_synth (PF00765)
"Autoinducer synthase"</title>
				<polygon class="PF00765" points="344,28 352,28 360,40 352,52 344,52" stroke-linejoin="round" width="18" height="24" fill="rgb(197,72,80)" stroke="rgb(157,57,64)" stroke-width="1" opacity="0.75" />
			</g>
		</g>
		<g>
			<title> (ctg7_206)</title>
			<polygon class=" (ctg7_206)" points="365,40 388,10 388,70" fill="rgb(255,255,255)" fill-opacity="1.0" stroke="rgb(0,0,0)" stroke-width="2"  />
			<g>
				<title>GerE (PF00196)
"Bacterial regulatory proteins, luxR family"</title>
				<polygon class="PF00196" points="369,40 371,37 371,43" stroke-linejoin="round" width="5" height="24" fill="rgb(219,94,82)" stroke="rgb(175,75,65)" stroke-width="1" opacity="0.75" />
			</g>
			<g>
				<title>Autoind_bind (PF03472)
"Autoinducer binding domain"</title>
				<polygon class="PF03472" points="372,36 378,28 385,28 385,52 378,52 372,44" stroke-linejoin="round" width="13" height="24" fill="rgb(99,181,52)" stroke="rgb(79,144,41)" stroke-width="1" opacity="0.75" />
			</g>
		</g>
		<g>
			<title> (ctg7_207)</title>
			<polygon class=" (ctg7_207)" points="398,40 417,10 417,70" fill="rgb(255,255,255)" fill-opacity="1.0" stroke="rgb(0,0,0)" stroke-width="2"  />
			<g>
				<title>NUDIX (PF00293)
"NUDIX domain"</title>
				<polygon class="PF00293" points="402,40 410,28 412,28 412,52 410,52" stroke-linejoin="round" width="13" height="24" fill="rgb(92,56,187)" stroke="rgb(73,44,149)" stroke-width="1" opacity="0.75" />
			</g>
		</g>
		<g>
			<title> (ctg7_208)</title>
			<polygon class=" (ctg7_208)" points="420,10 445,40 420,70" fill="rgb(255,255,255)" fill-opacity="1.0" stroke="rgb(0,0,0)" stroke-width="2"  />
			<g>
				<title>HTH_DeoR (PF08220)
"DeoR-like helix-turn-helix domain"</title>
				<rect class="PF08220" x="420" y="28" stroke-linejoin="round" width="5" height="24" fill="rgb(194,214,67)" stroke="rgb(155,171,53)" stroke-width="1" opacity="0.75" />
			</g>
			<g>
				<title>DeoRC (PF00455)
"DeoR C terminal sensor domain"</title>
				<polygon class="PF00455" points="427,28 431,28 441,40 431,52 427,52" stroke-linejoin="round" width="15" height="24" fill="rgb(183,143,83)" stroke="rgb(146,114,66)" stroke-width="1" opacity="0.75" />
			</g>
		</g>
		<g>
			<title> (ctg7_209)</title>
			<polygon class=" (ctg7_209)" points="446,40 458,10 458,70" fill="rgb(255,255,255)" fill-opacity="1.0" stroke="rgb(0,0,0)" stroke-width="2"  />
			<g>
				<title>Glyoxalase (PF00903)
"Glyoxalase/Bleomycin resistance protein/Dioxygenase superfamily"</title>
				<polygon class="PF00903" points="449,40 454,28 457,28 457,52 454,52" stroke-linejoin="round" width="11" height="24" fill="rgb(50,162,189)" stroke="rgb(40,129,151)" stroke-width="1" opacity="0.75" />
			</g>
		</g>
		<g>
			<title> (ctg7_210)</title>
			<polygon class=" (ctg7_210)" points="461,40 475,10 475,70" fill="rgb(255,255,255)" fill-opacity="1.0" stroke="rgb(0,0,0)" stroke-width="2"  />
			<g>
				<title>DUF4354 (PF14263)
"Domain of unknown function (DUF4354)"</title>
				<polygon class="PF14263" points="464,40 470,28 474,28 474,52 470,52" stroke-linejoin="round" width="13" height="24" fill="rgb(72,158,205)" stroke="rgb(57,126,164)" stroke-width="1" opacity="0.75" />
			</g>
		</g>
		<g>
			<title> (ctg7_211)</title>
			<polygon class=" (ctg7_211)" points="477,40 491,10 491,70" fill="rgb(255,255,255)" fill-opacity="1.0" stroke="rgb(0,0,0)" stroke-width="2"  />
			<g>
				<title>BTP (PF05232)
"Chlorhexidine efflux transporter"</title>
				<polygon class="PF05232" points="480,40 484,32 484,48" stroke-linejoin="round" width="6" height="24" fill="rgb(60,155,228)" stroke="rgb(47,124,182)" stroke-width="1" opacity="0.75" />
			</g>
			<g>
				<title>BTP (PF05232)
"Chlorhexidine efflux transporter"</title>
				<polygon class="PF05232" points="484,32 486,28 490,28 490,52 486,52 484,48" stroke-linejoin="round" width="6" height="24" fill="rgb(60,155,228)" stroke="rgb(47,124,182)" stroke-width="1" opacity="0.75" />
			</g>
		</g>
		<g>
			<title> (ctg7_212)</title>
			<polygon class=" (ctg7_212)" points="494,40 517,10 517,70" fill="rgb(255,255,255)" fill-opacity="1.0" stroke="rgb(0,0,0)" stroke-width="2"  />
		</g>
		<g>
			<title> (ctg7_213)</title>
			<polygon class=" (ctg7_213)" points="525,40 534,10 534,70" fill="rgb(255,255,255)" fill-opacity="1.0" stroke="rgb(0,0,0)" stroke-width="2"  />
		</g>
		<g>
			<title> (ctg7_214)</title>
			<polygon class=" (ctg7_214)" points="550,25 552,25 552,10 582,40 552,70 552,55 550,55" fill="rgb(255,255,255)" fill-opacity="1.0" stroke="rgb(0,0,0)" stroke-width="2"  />
		</g>
		<g>
			<title> (ctg7_215)</title>
			<polygon class=" (ctg7_215)" points="583,10 602,40 583,70" fill="rgb(255,255,255)" fill-opacity="1.0" stroke="rgb(0,0,0)" stroke-width="2"  />
		</g>
	</g>
</svg>
