<svg version="1.1" baseProfile="full" xmlns="http://www.w3.org/2000/svg" width="706.8" height="80">
	<g>
		<line x1="10" y1="40.0" x2="696.8" y2="40.0" style="stroke:rgb(70,70,70); stroke-width:3 "/>
		<g>
			<title> (ctg7_1)</title>
			<polygon class=" (ctg7_1)" points="10,40 15,10 15,70" fill="rgb(255,255,255)" fill-opacity="1.0" stroke="rgb(0,0,0)" stroke-width="2"  />
			<g>
				<title>Thi4 (PF01946)
"Thi4 family"</title>
				<polygon class="PF01946" points="13,40 14,34 14,46" stroke-linejoin="round" width="4" height="24" fill="rgb(126,98,206)" stroke="rgb(100,78,164)" stroke-width="1" opacity="0.75" />
			</g>
		</g>
		<g>
			<title> (ctg7_2)</title>
			<polygon class=" (ctg7_2)" points="21,10 41,40 21,70" fill="rgb(255,255,255)" fill-opacity="1.0" stroke="rgb(0,0,0)" stroke-width="2"  />
			<g>
				<title>DUF1285 (PF06938)
"Protein of unknown function (DUF1285)"</title>
				<polygon class="PF06938" points="26,28 29,28 37,40 29,52 26,52" stroke-linejoin="round" width="14" height="24" fill="rgb(63,85,221)" stroke="rgb(50,67,176)" stroke-width="1" opacity="0.75" />
			</g>
		</g>
		<g>
			<title> (ctg7_3)</title>
			<polygon class=" (ctg7_3)" points="43,10 72,40 43,70" fill="rgb(255,255,255)" fill-opacity="1.0" stroke="rgb(0,0,0)" stroke-width="2"  />
			<g>
				<title>Asp_Glu_race (PF01177)
"Asp/Glu/Hydantoin racemase"</title>
				<polygon class="PF01177" points="45,28 56,28 66,38 66,42 56,52 45,52" stroke-linejoin="round" width="21" height="24" fill="rgb(137,211,53)" stroke="rgb(109,168,42)" stroke-width="1" opacity="0.75" />
			</g>
		</g>
		<g>
			<title> (ctg7_4)</title>
			<polygon class=" (ctg7_4)" points="76,25 79,25 79,10 109,40 79,70 79,55 76,55" fill="rgb(255,255,255)" fill-opacity="1.0" stroke="rgb(0,0,0)" stroke-width="2"  />
			<g>
				<title>DUF4062 (PF13271)
"Domain of unknown function (DUF4062)"</title>
				<rect class="PF13271" x="76" y="28" stroke-linejoin="round" width="7" height="24" fill="rgb(184,83,180)" stroke="rgb(147,66,144)" stroke-width="1" opacity="0.75" />
			</g>
		</g>
		<g>
			<title> (ctg7_5)</title>
			<polygon class=" (ctg7_5)" points="113,25 116,25 116,10 146,40 116,70 116,55 113,55" fill="rgb(255,255,255)" fill-opacity="1.0" stroke="rgb(0,0,0)" stroke-width="2"  />
			<g>
				<title>Ferrochelatase (PF00762)
"Ferrochelatase"</title>
				<polygon class="PF00762" points="113,28 130,28 142,40 130,52 113,52" stroke-linejoin="round" width="32" height="24" fill="rgb(46,104,183)" stroke="rgb(36,83,146)" stroke-width="1" opacity="0.75" />
			</g>
		</g>
		<g>
			<title> (ctg7_6)</title>
			<polygon class=" (ctg7_6)" points="148,10 169,40 148,70" fill="rgb(255,255,255)" fill-opacity="1.0" stroke="rgb(0,0,0)" stroke-width="2"  />
			<g>
				<title>Lactamase_B (PF00753)
"Metallo-beta-lactamase superfamily"</title>
				<polygon class="PF00753" points="148,28 157,28 165,40 157,52 148,52" stroke-linejoin="round" width="18" height="24" fill="rgb(206,198,96)" stroke="rgb(164,158,76)" stroke-width="1" opacity="0.75" />
			</g>
		</g>
		<g>
			<title> (ctg7_7)</title>
			<polygon class=" (ctg7_7)" points="174,40 180,10 180,70" fill="rgb(255,255,255)" fill-opacity="1.0" stroke="rgb(0,0,0)" stroke-width="2"  />
		</g>
		<g>
			<title> (ctg7_8)</title>
			<polygon class=" (ctg7_8)" points="190,10 202,40 190,70" fill="rgb(255,255,255)" fill-opacity="1.0" stroke="rgb(0,0,0)" stroke-width="2"  />
			<g>
				<title>DDE_Tnp_1_3 (PF13612)
"Transposase DDE domain"</title>
				<polygon class="PF13612" points="198,37 199,40 198,43" stroke-linejoin="round" width="4" height="24" fill="rgb(205,75,164)" stroke="rgb(164,60,131)" stroke-width="1" opacity="0.75" />
			</g>
		</g>
		<g>
			<title> (ctg7_9)</title>
			<polygon class=" (ctg7_9)" points="217,40 223,10 223,70" fill="rgb(255,255,255)" fill-opacity="1.0" stroke="rgb(0,0,0)" stroke-width="2"  />
		</g>
		<g>
			<title> (ctg7_10)</title>
			<polygon class=" (ctg7_10)" points="259,25 259,25 259,10 289,40 259,70 259,55 259,55" fill="rgb(255,255,255)" fill-opacity="1.0" stroke="rgb(0,0,0)" stroke-width="2"  />
			<g>
				<title>Lactamase_B_2 (PF12706)
"Beta-lactamase superfamily domain"</title>
				<polygon class="PF12706" points="264,28 273,28 285,40 273,52 264,52" stroke-linejoin="round" width="22" height="24" fill="rgb(62,169,197)" stroke="rgb(49,135,157)" stroke-width="1" opacity="0.75" />
			</g>
		</g>
		<g>
			<title> (ctg7_11)</title>
			<polygon class=" (ctg7_11)" points="290,10 315,40 290,70" fill="rgb(255,255,255)" fill-opacity="1.0" stroke="rgb(0,0,0)" stroke-width="2"  />
			<g>
				<title>TENA_THI-4 (PF03070)
"TENA/THI-4/PQQC family"</title>
				<polygon class="PF03070" points="291,28 301,28 311,40 301,52 291,52" stroke-linejoin="round" width="21" height="24" fill="rgb(95,149,219)" stroke="rgb(76,119,175)" stroke-width="1" opacity="0.75" />
			</g>
		</g>
		<g>
			<title> (ctg7_12)</title>
			<polygon class=" (ctg7_12)" points="315,10 324,40 315,70" fill="rgb(255,255,255)" fill-opacity="1.0" stroke="rgb(0,0,0)" stroke-width="2"  />
			<g>
				<title>PqqD (PF05402)
"Coenzyme PQQ synthesis protein D (PqqD)"</title>
				<polygon class="PF05402" points="317,28 317,28 321,40 317,52 317,52" stroke-linejoin="round" width="6" height="24" fill="rgb(124,62,188)" stroke="rgb(99,49,150)" stroke-width="1" opacity="0.75" />
			</g>
		</g>
		<g>
			<title> (ctg7_13)</title>
			<polygon class=" (ctg7_13)" points="325,25 333,25 333,10 363,40 333,70 333,55 325,55" fill="rgb(255,255,255)" fill-opacity="1.0" stroke="rgb(0,0,0)" stroke-width="2"  />
			<g>
				<title>Radical_SAM (PF04055)
"Radical SAM superfamily"</title>
				<rect class="PF04055" x="326" y="28" stroke-linejoin="round" width="15" height="24" fill="rgb(149,56,222)" stroke="rgb(119,44,177)" stroke-width="1" opacity="0.75" />
			</g>
			<g>
				<title>SPASM (PF13186)
"Iron-sulfur cluster-binding domain"</title>
				<polygon class="PF13186" points="349,30 355,36 355,44 349,50" stroke-linejoin="round" width="6" height="24" fill="rgb(183,66,65)" stroke="rgb(146,52,51)" stroke-width="1" opacity="0.75" />
			</g>
		</g>
		<g>
			<title> (ctg7_14)</title>
			<polygon class=" (ctg7_14)" points="364,25 369,25 369,10 399,40 369,70 369,55 364,55" fill="rgb(255,255,255)" fill-opacity="1.0" stroke="rgb(0,0,0)" stroke-width="2"  />
			<g>
				<title>Peptidase_M19 (PF01244)
"Membrane dipeptidase (Peptidase family M19)"</title>
				<polygon class="PF01244" points="364,28 382,28 394,40 382,52 364,52" stroke-linejoin="round" width="34" height="24" fill="rgb(178,227,92)" stroke="rgb(142,181,73)" stroke-width="1" opacity="0.75" />
			</g>
		</g>
		<g>
			<title> (ctg7_15)</title>
			<polygon class=" (ctg7_15)" points="399,40 405,10 405,70" fill="rgb(255,255,255)" fill-opacity="1.0" stroke="rgb(0,0,0)" stroke-width="2"  />
			<g>
				<title>YacG (PF03884)
"DNA gyrase inhibitor YacG"</title>
				<polygon class="PF03884" points="402,40 404,31 404,49" stroke-linejoin="round" width="5" height="24" fill="rgb(185,116,83)" stroke="rgb(148,92,66)" stroke-width="1" opacity="0.75" />
			</g>
		</g>
		<g>
			<title> (ctg7_16)</title>
			<polygon class=" (ctg7_16)" points="408,10 429,40 408,70" fill="rgb(255,255,255)" fill-opacity="1.0" stroke="rgb(0,0,0)" stroke-width="2"  />
			<g>
				<title>Methyltransf_4 (PF02390)
"Putative methyltransferase"</title>
				<polygon class="PF02390" points="410,28 417,28 426,40 426,40 417,52 410,52" stroke-linejoin="round" width="16" height="24" fill="rgb(186,183,89)" stroke="rgb(148,146,71)" stroke-width="1" opacity="0.75" />
			</g>
		</g>
		<g>
			<title> (ctg7_17)</title>
			<polygon class=" (ctg7_17)" points="430,25 440,25 440,10 470,40 440,70 440,55 430,55" fill="rgb(255,255,255)" fill-opacity="1.0" stroke="rgb(0,0,0)" stroke-width="2"  />
			<g>
				<title>HI0933_like (PF03486)
"HI0933-like protein"</title>
				<polygon class="PF03486" points="430,28 454,28 466,40 454,52 430,52" stroke-linejoin="round" width="38" height="24" fill="rgb(168,217,93)" stroke="rgb(134,173,74)" stroke-width="1" opacity="0.75" />
			</g>
		</g>
		<g>
			<title> (ctg7_18)</title>
			<polygon class=" (ctg7_18)" points="473,10 486,40 473,70" fill="rgb(255,255,255)" fill-opacity="1.0" stroke="rgb(0,0,0)" stroke-width="2"  />
			<g>
				<title>GFA (PF04828)
"Glutathione-dependent formaldehyde-activating enzyme"</title>
				<polygon class="PF04828" points="475,28 477,28 483,40 477,52 475,52" stroke-linejoin="round" width="9" height="24" fill="rgb(68,192,55)" stroke="rgb(54,153,44)" stroke-width="1" opacity="0.75" />
			</g>
		</g>
		<g>
			<title> (ctg7_19)</title>
			<polygon class=" (ctg7_19)" points="490,40 501,10 501,70" fill="rgb(255,255,255)" fill-opacity="1.0" stroke="rgb(0,0,0)" stroke-width="2"  />
			<g>
				<title>HopJ (PF08888)
"HopJ type III effector protein"</title>
				<polygon class="PF08888" points="493,40 497,28 500,28 500,52 497,52" stroke-linejoin="round" width="10" height="24" fill="rgb(195,227,71)" stroke="rgb(155,181,56)" stroke-width="1" opacity="0.75" />
			</g>
		</g>
		<g>
			<title> (ctg7_20)</title>
			<polygon class=" (ctg7_20)" points="506,10 534,40 506,70" fill="rgb(255,255,255)" fill-opacity="1.0" stroke="rgb(0,0,0)" stroke-width="2"  />
			<g>
				<title>DUF2071 (PF09844)
"Uncharacterized conserved protein (COG2071)"</title>
				<polygon class="PF09844" points="510,28 518,28 529,40 518,52 510,52" stroke-linejoin="round" width="22" height="24" fill="rgb(209,75,163)" stroke="rgb(167,60,130)" stroke-width="1" opacity="0.75" />
			</g>
		</g>
		<g>
			<title> (ctg7_21)</title>
			<polygon class=" (ctg7_21)" points="537,10 549,40 537,70" fill="rgb(255,255,255)" fill-opacity="1.0" stroke="rgb(0,0,0)" stroke-width="2"  />
			<g>
				<title>CRCB (PF02537)
"CrcB-like protein, Camphor Resistance (CrcB)"</title>
				<polygon class="PF02537" points="537,28 541,28 546,40 541,52 537,52" stroke-linejoin="round" width="11" height="24" fill="rgb(225,160,95)" stroke="rgb(180,128,76)" stroke-width="1" opacity="0.75" />
			</g>
		</g>
		<g>
			<title> (ctg7_22)</title>
			<polygon class=" (ctg7_22)" points="553,40 561,10 561,70" fill="rgb(255,255,255)" fill-opacity="1.0" stroke="rgb(0,0,0)" stroke-width="2"  />
			<g>
				<title>Ribosomal_L31 (PF01197)
"Ribosomal protein L31"</title>
				<polygon class="PF01197" points="556,40 559,28 560,28 560,52 559,52" stroke-linejoin="round" width="7" height="24" fill="rgb(63,90,213)" stroke="rgb(50,71,170)" stroke-width="1" opacity="0.75" />
			</g>
		</g>
		<g>
			<title> (ctg7_23)</title>
			<polygon class=" (ctg7_23)" points="615,25 602,25 602,10 572,40 602,70 602,55 615,55" fill="rgb(255,255,255)" fill-opacity="1.0" stroke="rgb(0,0,0)" stroke-width="2"  />
			<g>
				<title>ABC1 (PF03109)
"ABC1 atypical kinase-like domain"</title>
				<polygon class="PF03109" points="581,35 588,28 605,28 605,52 588,52 581,45" stroke-linejoin="round" width="24" height="24" fill="rgb(197,149,67)" stroke="rgb(157,119,53)" stroke-width="1" opacity="0.75" />
			</g>
		</g>
		<g>
			<title> (ctg7_24)</title>
			<polygon class=" (ctg7_24)" points="621,10 628,40 621,70" fill="rgb(255,255,255)" fill-opacity="1.0" stroke="rgb(0,0,0)" stroke-width="2"  />
			<g>
				<title>DUF1737 (PF08410)
"Domain of unknown function (DUF1737)"</title>
				<polygon class="PF08410" points="621,28 621,28 625,40 621,52 621,52" stroke-linejoin="round" width="5" height="24" fill="rgb(186,58,147)" stroke="rgb(148,46,117)" stroke-width="1" opacity="0.75" />
			</g>
		</g>
		<g>
			<title> (ctg7_25)</title>
			<polygon class=" (ctg7_25)" points="679,25 664,25 664,10 634,40 664,70 664,55 679,55" fill="rgb(255,255,255)" fill-opacity="1.0" stroke="rgb(0,0,0)" stroke-width="2"  />
			<g>
				<title>MatE (PF01554)
"MatE"</title>
				<polygon class="PF01554" points="638,40 650,28 654,28 654,52 650,52 638,40" stroke-linejoin="round" width="16" height="24" fill="rgb(187,69,173)" stroke="rgb(149,55,138)" stroke-width="1" opacity="0.75" />
			</g>
			<g>
				<title>MatE (PF01554)
"MatE"</title>
				<rect class="PF01554" x="661" y="28" stroke-linejoin="round" width="15" height="24" fill="rgb(187,69,173)" stroke="rgb(149,55,138)" stroke-width="1" opacity="0.75" />
			</g>
		</g>
		<g>
			<title> (ctg7_26)</title>
			<polygon class=" (ctg7_26)" points="681,40 696,10 696,70" fill="rgb(255,255,255)" fill-opacity="1.0" stroke="rgb(0,0,0)" stroke-width="2"  />
			<g>
				<title>DMT_YdcZ (PF04657)
"Putative inner membrane exporter, YdcZ"</title>
				<polygon class="PF04657" points="684,40 690,28 695,28 695,52 690,52" stroke-linejoin="round" width="14" height="24" fill="rgb(63,139,178)" stroke="rgb(50,111,142)" stroke-width="1" opacity="0.75" />
			</g>
		</g>
	</g>
</svg>
