<svg version="1.1" baseProfile="full" xmlns="http://www.w3.org/2000/svg" width="1394.2333333333333" height="80">
	<g>
		<line x1="10" y1="40.0" x2="1384.2333333333333" y2="40.0" style="stroke:rgb(70,70,70); stroke-width:3 "/>
		<g>
			<title> (ctg4_178)</title>
			<polygon class=" (ctg4_178)" points="60,25 55,25 55,10 25,40 55,70 55,55 60,55" fill="rgb(255,255,255)" fill-opacity="1.0" stroke="rgb(0,0,0)" stroke-width="2"  />
			<g>
				<title>Epimerase (PF01370)
"NAD dependent epimerase/dehydratase family"</title>
				<polygon class="PF01370" points="34,35 41,28 59,28 59,52 41,52 34,45" stroke-linejoin="round" width="25" height="24" fill="rgb(98,102,214)" stroke="rgb(78,81,171)" stroke-width="1" opacity="0.75" />
			</g>
		</g>
		<g>
			<title> (ctg4_179)</title>
			<polygon class=" (ctg4_179)" points="72,10 87,40 72,70" fill="rgb(255,255,255)" fill-opacity="1.0" stroke="rgb(0,0,0)" stroke-width="2"  />
			<g>
				<title>Ferritin (PF00210)
"Ferritin-like domain"</title>
				<polygon class="PF00210" points="72,28 77,28 84,40 77,52 72,52" stroke-linejoin="round" width="13" height="24" fill="rgb(104,82,203)" stroke="rgb(83,65,162)" stroke-width="1" opacity="0.75" />
			</g>
		</g>
		<g>
			<title> (ctg4_180)</title>
			<polygon class=" (ctg4_180)" points="94,10 119,40 94,70" fill="rgb(255,255,255)" fill-opacity="1.0" stroke="rgb(0,0,0)" stroke-width="2"  />
		</g>
		<g>
			<title> (ctg4_181)</title>
			<polygon class=" (ctg4_181)" points="121,40 139,10 139,70" fill="rgb(255,255,255)" fill-opacity="1.0" stroke="rgb(0,0,0)" stroke-width="2"  />
			<g>
				<title>AhpC-TSA (PF00578)
"AhpC/TSA family"</title>
				<polygon class="PF00578" points="125,40 132,28 135,28 135,52 132,52" stroke-linejoin="round" width="12" height="24" fill="rgb(166,71,190)" stroke="rgb(132,56,152)" stroke-width="1" opacity="0.75" />
			</g>
		</g>
		<g>
			<title> (ctg4_182)</title>
			<polygon class=" (ctg4_182)" points="145,10 169,40 145,70" fill="rgb(255,255,255)" fill-opacity="1.0" stroke="rgb(0,0,0)" stroke-width="2"  />
			<g>
				<title>FSH1 (PF03959)
"Serine hydrolase (FSH1)"</title>
				<polygon class="PF03959" points="147,28 155,28 165,40 155,52 147,52" stroke-linejoin="round" width="20" height="24" fill="rgb(54,166,181)" stroke="rgb(43,132,144)" stroke-width="1" opacity="0.75" />
			</g>
		</g>
		<g>
			<title> (ctg4_183)</title>
			<polygon class=" (ctg4_183)" points="172,25 185,25 185,10 215,40 185,70 185,55 172,55" fill="rgb(255,255,255)" fill-opacity="1.0" stroke="rgb(0,0,0)" stroke-width="2"  />
			<g>
				<title>Aminotran_3 (PF00202)
"Aminotransferase class-III"</title>
				<polygon class="PF00202" points="173,28 198,28 210,40 198,52 173,52" stroke-linejoin="round" width="40" height="24" fill="rgb(49,163,189)" stroke="rgb(39,130,151)" stroke-width="1" opacity="0.75" />
			</g>
		</g>
		<g>
			<title> (ctg4_184)</title>
			<polygon class=" (ctg4_184)" points="214,25 222,25 222,10 252,40 222,70 222,55 214,55" fill="rgb(255,255,255)" fill-opacity="1.0" stroke="rgb(0,0,0)" stroke-width="2"  />
			<g>
				<title>Aminotran_1_2 (PF00155)
"Aminotransferase class I and II"</title>
				<polygon class="PF00155" points="217,28 236,28 248,40 236,52 217,52" stroke-linejoin="round" width="34" height="24" fill="rgb(89,113,198)" stroke="rgb(71,90,158)" stroke-width="1" opacity="0.75" />
			</g>
		</g>
		<g>
			<title> (ctg4_185)</title>
			<polygon class=" (ctg4_185)" points="253,10 278,40 253,70" fill="rgb(255,255,255)" fill-opacity="1.0" stroke="rgb(0,0,0)" stroke-width="2"  />
			<g>
				<title>Methyltransf_11 (PF08241)
"Methyltransferase domain"</title>
				<polygon class="PF08241" points="257,28 264,28 266,30 266,50 264,52 257,52" stroke-linejoin="round" width="9" height="24" fill="rgb(106,219,159)" stroke="rgb(84,175,127)" stroke-width="1" opacity="0.75" />
			</g>
		</g>
		<g>
			<title> (ctg4_186)</title>
			<polygon class=" (ctg4_186)" points="278,10 299,40 278,70" fill="rgb(255,255,255)" fill-opacity="1.0" stroke="rgb(0,0,0)" stroke-width="2"  />
			<g>
				<title>AAA_26 (PF13500)
"AAA domain"</title>
				<polygon class="PF13500" points="278,28 287,28 295,40 287,52 278,52" stroke-linejoin="round" width="19" height="24" fill="rgb(93,118,228)" stroke="rgb(74,94,182)" stroke-width="1" opacity="0.75" />
			</g>
		</g>
		<g>
			<title> (ctg4_187)</title>
			<polygon class=" (ctg4_187)" points="336,25 335,25 335,10 305,40 335,70 335,55 336,55" fill="rgb(255,255,255)" fill-opacity="1.0" stroke="rgb(0,0,0)" stroke-width="2"  />
			<g>
				<title>PseudoU_synth_2 (PF00849)
"RNA pseudouridylate synthase"</title>
				<polygon class="PF00849" points="316,33 321,28 329,28 329,52 321,52 316,47" stroke-linejoin="round" width="13" height="24" fill="rgb(226,76,228)" stroke="rgb(180,60,182)" stroke-width="1" opacity="0.75" />
			</g>
			<g>
				<title>S4 (PF01479)
"S4 domain"</title>
				<rect class="PF01479" x="331" y="28" stroke-linejoin="round" width="4" height="24" fill="rgb(93,184,76)" stroke="rgb(74,147,60)" stroke-width="1" opacity="0.75" />
			</g>
		</g>
		<g>
			<title> (ctg4_188)</title>
			<polygon class=" (ctg4_188)" points="338,40 357,10 357,70" fill="rgb(255,255,255)" fill-opacity="1.0" stroke="rgb(0,0,0)" stroke-width="2"  />
			<g>
				<title>SMC_ScpB (PF04079)
"Segregation and condensation complex subunit ScpB"</title>
				<polygon class="PF04079" points="342,40 350,28 354,28 354,52 350,52" stroke-linejoin="round" width="15" height="24" fill="rgb(80,215,127)" stroke="rgb(64,172,101)" stroke-width="1" opacity="0.75" />
			</g>
		</g>
		<g>
			<title> (ctg4_189)</title>
			<polygon class=" (ctg4_189)" points="357,40 383,10 383,70" fill="rgb(255,255,255)" fill-opacity="1.0" stroke="rgb(0,0,0)" stroke-width="2"  />
			<g>
				<title>SMC_ScpA (PF02616)
"Segregation and condensation protein ScpA"</title>
				<polygon class="PF02616" points="368,32 372,28 377,28 377,52 372,52 368,48" stroke-linejoin="round" width="9" height="24" fill="rgb(108,221,89)" stroke="rgb(86,176,71)" stroke-width="1" opacity="0.75" />
			</g>
		</g>
		<g>
			<title> (ctg4_190)</title>
			<polygon class=" (ctg4_190)" points="394,10 417,40 394,70" fill="rgb(255,255,255)" fill-opacity="1.0" stroke="rgb(0,0,0)" stroke-width="2"  />
			<g>
				<title>Acetyltransf_3 (PF13302)
"Acetyltransferase (GNAT) domain"</title>
				<polygon class="PF13302" points="398,28 404,28 411,37 411,43 404,52 398,52" stroke-linejoin="round" width="13" height="24" fill="rgb(105,146,215)" stroke="rgb(84,116,172)" stroke-width="1" opacity="0.75" />
			</g>
		</g>
		<g>
			<title> (ctg4_191)</title>
			<polygon class=" (ctg4_191)" points="418,40 438,10 438,70" fill="rgb(255,255,255)" fill-opacity="1.0" stroke="rgb(0,0,0)" stroke-width="2"  />
			<g>
				<title>Sua5_yciO_yrdC (PF01300)
"Telomere recombination"</title>
				<polygon class="PF01300" points="422,40 430,28 435,28 435,52 430,52" stroke-linejoin="round" width="17" height="24" fill="rgb(183,139,65)" stroke="rgb(146,111,51)" stroke-width="1" opacity="0.75" />
			</g>
		</g>
		<g>
			<title> (ctg4_192)</title>
			<polygon class=" (ctg4_192)" points="442,40 464,10 464,70" fill="rgb(255,255,255)" fill-opacity="1.0" stroke="rgb(0,0,0)" stroke-width="2"  />
			<g>
				<title>EpmC (PF04315)
"Elongation factor P hydroxylase"</title>
				<polygon class="PF04315" points="446,40 455,28 458,28 458,52 455,52" stroke-linejoin="round" width="16" height="24" fill="rgb(151,89,200)" stroke="rgb(120,71,160)" stroke-width="1" opacity="0.75" />
			</g>
		</g>
		<g>
			<title> (ctg4_193)</title>
			<polygon class=" (ctg4_193)" points="468,10 486,40 468,70" fill="rgb(255,255,255)" fill-opacity="1.0" stroke="rgb(0,0,0)" stroke-width="2"  />
			<g>
				<title>YceD (PF02620)
"Large ribosomal RNA subunit accumulation protein YceD"</title>
				<polygon class="PF02620" points="474,28 475,28 483,40 475,52 474,52" stroke-linejoin="round" width="11" height="24" fill="rgb(206,67,167)" stroke="rgb(164,53,133)" stroke-width="1" opacity="0.75" />
			</g>
		</g>
		<g>
			<title> (ctg4_194)</title>
			<polygon class=" (ctg4_194)" points="489,10 495,40 489,70" fill="rgb(255,255,255)" fill-opacity="1.0" stroke="rgb(0,0,0)" stroke-width="2"  />
			<g>
				<title>Ribosomal_L32p (PF01783)
"Ribosomal L32p protein family"</title>
				<polygon class="PF01783" points="489,28 489,28 492,40 489,52 489,52" stroke-linejoin="round" width="5" height="24" fill="rgb(54,205,64)" stroke="rgb(43,164,51)" stroke-width="1" opacity="0.75" />
			</g>
		</g>
		<g>
			<title> (ctg4_195)</title>
			<polygon class=" (ctg4_195)" points="500,25 502,25 502,10 532,40 502,70 502,55 500,55" fill="rgb(255,255,255)" fill-opacity="1.0" stroke="rgb(0,0,0)" stroke-width="2"  />
			<g>
				<title>Acyl_transf_1 (PF00698)
"Acyl transferase domain"</title>
				<polygon class="PF00698" points="501,28 516,28 528,40 516,52 501,52" stroke-linejoin="round" width="29" height="24" fill="rgb(59,176,209)" stroke="rgb(47,140,167)" stroke-width="1" opacity="0.75" />
			</g>
		</g>
		<g>
			<title> (ctg4_196)</title>
			<polygon class=" (ctg4_196)" points="533,10 557,40 533,70" fill="rgb(255,255,255)" fill-opacity="1.0" stroke="rgb(0,0,0)" stroke-width="2"  />
			<g>
				<title>adh_short_C2 (PF13561)
"Enoyl-(Acyl carrier protein) reductase"</title>
				<polygon class="PF13561" points="534,28 544,28 553,40 544,52 534,52" stroke-linejoin="round" width="23" height="24" fill="rgb(73,205,127)" stroke="rgb(58,164,101)" stroke-width="1" opacity="0.75" />
			</g>
		</g>
		<g>
			<title> (ctg4_197)</title>
			<polygon class=" (ctg4_197)" points="560,10 567,40 560,70" fill="rgb(255,255,255)" fill-opacity="1.0" stroke="rgb(0,0,0)" stroke-width="2"  />
			<g>
				<title>PP-binding (PF00550)
"Phosphopantetheine attachment site"</title>
				<polygon class="PF00550" points="560,28 561,28 564,40 561,52 560,52" stroke-linejoin="round" width="6" height="24" fill="rgb(103,191,88)" stroke="rgb(82,152,70)" stroke-width="1" opacity="0.75" />
			</g>
		</g>
		<g>
			<title> (ctg4_198)</title>
			<polygon class=" (ctg4_198)" points="574,10 589,40 574,70" fill="rgb(255,255,255)" fill-opacity="1.0" stroke="rgb(0,0,0)" stroke-width="2"  />
			<g>
				<title>BON (PF04972)
"BON domain"</title>
				<polygon class="PF04972" points="576,28 580,28 583,34 583,46 580,52 576,52" stroke-linejoin="round" width="7" height="24" fill="rgb(62,222,71)" stroke="rgb(49,177,56)" stroke-width="1" opacity="0.75" />
			</g>
			<g>
				<title>LysM (PF01476)
"LysM domain"</title>
				<polygon class="PF01476" points="584,36 586,40 584,44" stroke-linejoin="round" width="4" height="24" fill="rgb(200,86,203)" stroke="rgb(160,68,162)" stroke-width="1" opacity="0.75" />
			</g>
		</g>
		<g>
			<title> (ctg4_199)</title>
			<polygon class=" (ctg4_199)" points="594,40 619,10 619,70" fill="rgb(255,255,255)" fill-opacity="1.0" stroke="rgb(0,0,0)" stroke-width="2"  />
			<g>
				<title>Phos_pyr_kin (PF08543)
"Phosphomethylpyrimidine kinase"</title>
				<polygon class="PF08543" points="598,40 608,28 617,28 617,52 608,52" stroke-linejoin="round" width="23" height="24" fill="rgb(91,84,223)" stroke="rgb(72,67,178)" stroke-width="1" opacity="0.75" />
			</g>
		</g>
		<g>
			<title> (ctg4_200)</title>
			<polygon class=" (ctg4_200)" points="623,10 645,40 623,70" fill="rgb(255,255,255)" fill-opacity="1.0" stroke="rgb(0,0,0)" stroke-width="2"  />
			<g>
				<title>HAD_2 (PF13419)
"Haloacid dehalogenase-like hydrolase"</title>
				<polygon class="PF13419" points="623,28 633,28 641,39 641,41 633,52 623,52" stroke-linejoin="round" width="18" height="24" fill="rgb(60,223,188)" stroke="rgb(48,178,150)" stroke-width="1" opacity="0.75" />
			</g>
		</g>
		<g>
			<title> (ctg4_201)</title>
			<polygon class=" (ctg4_201)" points="651,40 666,10 666,70" fill="rgb(255,255,255)" fill-opacity="1.0" stroke="rgb(0,0,0)" stroke-width="2"  />
			<g>
				<title>UPF0093 (PF03653)
"Uncharacterised protein family (UPF0093)"</title>
				<polygon class="PF03653" points="654,40 660,28 665,28 665,52 660,52" stroke-linejoin="round" width="14" height="24" fill="rgb(144,220,103)" stroke="rgb(115,176,82)" stroke-width="1" opacity="0.75" />
			</g>
		</g>
		<g>
			<title> (ctg4_202)</title>
			<polygon class=" (ctg4_202)" points="716,25 706,25 706,10 676,40 706,70 706,55 716,55" fill="rgb(255,255,255)" fill-opacity="1.0" stroke="rgb(0,0,0)" stroke-width="2"  />
			<g>
				<title>Ketoacyl-synt_C (PF02801)
"Beta-ketoacyl synthase, C-terminal domain"</title>
				<polygon class="PF02801" points="680,40 691,29 691,51 680,40" stroke-linejoin="round" width="11" height="24" fill="rgb(215,78,102)" stroke="rgb(172,62,81)" stroke-width="1" opacity="0.75" />
			</g>
			<g>
				<title>ketoacyl-synt (PF00109)
"Beta-ketoacyl synthase, N-terminal domain"</title>
				<polygon class="PF00109" points="692,28 692,28 716,28 716,52 692,52 692,52" stroke-linejoin="round" width="24" height="24" fill="rgb(112,116,228)" stroke="rgb(89,92,182)" stroke-width="1" opacity="0.75" />
			</g>
		</g>
		<g>
			<title> (ctg4_203)</title>
			<polygon class=" (ctg4_203)" points="727,25 743,25 743,10 773,40 743,70 743,55 727,55" fill="rgb(255,255,255)" fill-opacity="1.0" stroke="rgb(0,0,0)" stroke-width="2"  />
			<g>
				<title>EcsC (PF12787)
"EcsC protein family"</title>
				<polygon class="PF12787" points="732,28 757,28 759,30 759,50 757,52 732,52" stroke-linejoin="round" width="27" height="24" fill="rgb(86,189,229)" stroke="rgb(68,151,183)" stroke-width="1" opacity="0.75" />
			</g>
		</g>
		<g>
			<title> (ctg4_204)</title>
			<polygon class=" (ctg4_204)" points="780,10 792,40 780,70" fill="rgb(255,255,255)" fill-opacity="1.0" stroke="rgb(0,0,0)" stroke-width="2"  />
			<g>
				<title>Ribosom_S12_S23 (PF00164)
"Ribosomal protein S12/S23"</title>
				<polygon class="PF00164" points="781,28 784,28 789,40 784,52 781,52" stroke-linejoin="round" width="11" height="24" fill="rgb(171,52,184)" stroke="rgb(136,41,147)" stroke-width="1" opacity="0.75" />
			</g>
		</g>
		<g>
			<title> (ctg4_205)</title>
			<polygon class=" (ctg4_205)" points="797,10 812,40 797,70" fill="rgb(255,255,255)" fill-opacity="1.0" stroke="rgb(0,0,0)" stroke-width="2"  />
			<g>
				<title>Ribosomal_S7 (PF00177)
"Ribosomal protein S7p/S5e"</title>
				<polygon class="PF00177" points="797,28 802,28 809,40 802,52 797,52" stroke-linejoin="round" width="14" height="24" fill="rgb(205,95,228)" stroke="rgb(164,76,182)" stroke-width="1" opacity="0.75" />
			</g>
		</g>
		<g>
			<title> (ctg4_206)</title>
			<polygon class=" (ctg4_206)" points="819,25 860,25 860,10 890,40 860,70 860,55 819,55" fill="rgb(255,255,255)" fill-opacity="1.0" stroke="rgb(0,0,0)" stroke-width="2"  />
			<g>
				<title>GTP_EFTU (PF00009)
"Elongation factor Tu GTP binding domain"</title>
				<rect class="PF00009" x="819" y="28" stroke-linejoin="round" width="28" height="24" fill="rgb(196,118,83)" stroke="rgb(156,94,66)" stroke-width="1" opacity="0.75" />
			</g>
			<g>
				<title>GTP_EFTU_D2 (PF03144)
"Elongation factor Tu domain 2"</title>
				<rect class="PF03144" x="852" y="28" stroke-linejoin="round" width="6" height="24" fill="rgb(69,184,189)" stroke="rgb(55,147,151)" stroke-width="1" opacity="0.75" />
			</g>
			<g>
				<title>EFG_III (PF14492)
"Elongation Factor G, domain III"</title>
				<rect class="PF14492" x="860" y="28" stroke-linejoin="round" width="7" height="24" fill="rgb(217,213,86)" stroke="rgb(173,170,68)" stroke-width="1" opacity="0.75" />
			</g>
			<g>
				<title>EFG_IV (PF03764)
"Elongation factor G, domain IV"</title>
				<polygon class="PF03764" points="867,28 874,28 879,33 879,47 874,52 867,52" stroke-linejoin="round" width="12" height="24" fill="rgb(175,56,200)" stroke="rgb(140,44,160)" stroke-width="1" opacity="0.75" />
			</g>
			<g>
				<title>EFG_C (PF00679)
"Elongation factor G C-terminus"</title>
				<polygon class="PF00679" points="880,34 886,40 880,46" stroke-linejoin="round" width="8" height="24" fill="rgb(136,208,97)" stroke="rgb(108,166,77)" stroke-width="1" opacity="0.75" />
			</g>
		</g>
		<g>
			<title> (ctg4_207)</title>
			<polygon class=" (ctg4_207)" points="894,25 903,25 903,10 933,40 903,70 903,55 894,55" fill="rgb(255,255,255)" fill-opacity="1.0" stroke="rgb(0,0,0)" stroke-width="2"  />
			<g>
				<title>GTP_EFTU (PF00009)
"Elongation factor Tu GTP binding domain"</title>
				<rect class="PF00009" x="895" y="28" stroke-linejoin="round" width="19" height="24" fill="rgb(196,118,83)" stroke="rgb(156,94,66)" stroke-width="1" opacity="0.75" />
			</g>
			<g>
				<title>GTP_EFTU_D2 (PF03144)
"Elongation factor Tu domain 2"</title>
				<polygon class="PF03144" points="916,28 917,28 922,33 922,47 917,52 916,52" stroke-linejoin="round" width="6" height="24" fill="rgb(69,184,189)" stroke="rgb(55,147,151)" stroke-width="1" opacity="0.75" />
			</g>
			<g>
				<title>GTP_EFTU_D3 (PF03143)
"Elongation factor Tu C-terminal domain"</title>
				<polygon class="PF03143" points="924,35 929,40 924,45" stroke-linejoin="round" width="9" height="24" fill="rgb(213,153,104)" stroke="rgb(170,122,83)" stroke-width="1" opacity="0.75" />
			</g>
		</g>
		<g>
			<title> (ctg4_208)</title>
			<polygon class=" (ctg4_208)" points="944,10 973,40 944,70" fill="rgb(255,255,255)" fill-opacity="1.0" stroke="rgb(0,0,0)" stroke-width="2"  />
			<g>
				<title>Metal_hydrol (PF10118)
"Predicted metal-dependent hydrolase"</title>
				<polygon class="PF10118" points="945,28 957,28 969,40 957,52 945,52" stroke-linejoin="round" width="26" height="24" fill="rgb(72,190,117)" stroke="rgb(57,152,93)" stroke-width="1" opacity="0.75" />
			</g>
		</g>
		<g>
			<title> (ctg4_209)</title>
			<polygon class=" (ctg4_209)" points="976,10 991,40 976,70" fill="rgb(255,255,255)" fill-opacity="1.0" stroke="rgb(0,0,0)" stroke-width="2"  />
			<g>
				<title>Acetyltransf_10 (PF13673)
"Acetyltransferase (GNAT) domain"</title>
				<polygon class="PF13673" points="976,28 981,28 988,40 988,40 981,52 976,52" stroke-linejoin="round" width="12" height="24" fill="rgb(88,180,95)" stroke="rgb(70,144,76)" stroke-width="1" opacity="0.75" />
			</g>
		</g>
		<g>
			<title> (ctg4_210)</title>
			<polygon class=" (ctg4_210)" points="992,40 1019,10 1019,70" fill="rgb(255,255,255)" fill-opacity="1.0" stroke="rgb(0,0,0)" stroke-width="2"  />
			<g>
				<title>ATE_C (PF04377)
"Arginine-tRNA-protein transferase, C terminus"</title>
				<polygon class="PF04377" points="996,40 1007,28 1007,28 1007,52 1007,52" stroke-linejoin="round" width="12" height="24" fill="rgb(150,219,92)" stroke="rgb(120,175,73)" stroke-width="1" opacity="0.75" />
			</g>
			<g>
				<title>ATE_N (PF04376)
"Arginine-tRNA-protein transferase, N terminus"</title>
				<rect class="PF04376" x="1010" y="28" stroke-linejoin="round" width="7" height="24" fill="rgb(150,104,218)" stroke="rgb(120,83,174)" stroke-width="1" opacity="0.75" />
			</g>
		</g>
		<g>
			<title> (ctg4_211)</title>
			<polygon class=" (ctg4_211)" points="1020,40 1044,10 1044,70" fill="rgb(255,255,255)" fill-opacity="1.0" stroke="rgb(0,0,0)" stroke-width="2"  />
			<g>
				<title>Leu_Phe_trans (PF03588)
"Leucyl/phenylalanyl-tRNA protein transferase"</title>
				<polygon class="PF03588" points="1024,40 1034,28 1041,28 1041,52 1034,52 1024,40" stroke-linejoin="round" width="17" height="24" fill="rgb(67,220,156)" stroke="rgb(53,176,124)" stroke-width="1" opacity="0.75" />
			</g>
		</g>
		<g>
			<title> (ctg4_212)</title>
			<polygon class=" (ctg4_212)" points="1078,25 1077,25 1077,10 1047,40 1077,70 1077,55 1078,55" fill="rgb(255,255,255)" fill-opacity="1.0" stroke="rgb(0,0,0)" stroke-width="2"  />
			<g>
				<title>Pyr_redox_2 (PF07992)
"Pyridine nucleotide-disulphide oxidoreductase"</title>
				<polygon class="PF07992" points="1051,40 1063,28 1077,28 1077,52 1063,52" stroke-linejoin="round" width="29" height="24" fill="rgb(83,223,167)" stroke="rgb(66,178,133)" stroke-width="1" opacity="0.75" />
			</g>
		</g>
		<g>
			<title> (ctg4_213)</title>
			<polygon class=" (ctg4_213)" points="1087,25 1157,25 1157,10 1187,40 1157,70 1157,55 1087,55" fill="rgb(255,255,255)" fill-opacity="1.0" stroke="rgb(0,0,0)" stroke-width="2"  />
			<g>
				<title>FtsK_4TM (PF13491)
"4TM region of DNA translocase FtsK/SpoIIIE"</title>
				<rect class="PF13491" x="1087" y="28" stroke-linejoin="round" width="16" height="24" fill="rgb(214,54,213)" stroke="rgb(171,43,170)" stroke-width="1" opacity="0.75" />
			</g>
			<g>
				<title>FtsK_alpha (PF17854)
"FtsK alpha domain"</title>
				<rect class="PF17854" x="1138" y="28" stroke-linejoin="round" width="10" height="24" fill="rgb(127,207,62)" stroke="rgb(101,165,49)" stroke-width="1" opacity="0.75" />
			</g>
			<g>
				<title>FtsK_SpoIIIE (PF01580)
"FtsK/SpoIIIE family"</title>
				<rect class="PF01580" x="1149" y="28" stroke-linejoin="round" width="21" height="24" fill="rgb(89,224,173)" stroke="rgb(71,179,138)" stroke-width="1" opacity="0.75" />
			</g>
			<g>
				<title>FtsK_gamma (PF09397)
"Ftsk gamma domain"</title>
				<polygon class="PF09397" points="1181,38 1183,40 1181,42" stroke-linejoin="round" width="6" height="24" fill="rgb(168,186,64)" stroke="rgb(134,148,51)" stroke-width="1" opacity="0.75" />
			</g>
		</g>
		<g>
			<title> (ctg4_214)</title>
			<polygon class=" (ctg4_214)" points="1189,40 1198,10 1198,70" fill="rgb(255,255,255)" fill-opacity="1.0" stroke="rgb(0,0,0)" stroke-width="2"  />
		</g>
		<g>
			<title> (ctg4_215)</title>
			<polygon class=" (ctg4_215)" points="1207,40 1216,10 1216,70" fill="rgb(255,255,255)" fill-opacity="1.0" stroke="rgb(0,0,0)" stroke-width="2"  />
			<g>
				<title>MinE (PF03776)
"Septum formation topological specificity factor MinE"</title>
				<polygon class="PF03776" points="1210,40 1214,28 1214,28 1214,52 1214,52" stroke-linejoin="round" width="7" height="24" fill="rgb(123,211,87)" stroke="rgb(98,168,69)" stroke-width="1" opacity="0.75" />
			</g>
		</g>
		<g>
			<title> (ctg4_216)</title>
			<polygon class=" (ctg4_216)" points="1216,40 1243,10 1243,70" fill="rgb(255,255,255)" fill-opacity="1.0" stroke="rgb(0,0,0)" stroke-width="2"  />
			<g>
				<title>AAA_31 (PF13614)
"AAA domain"</title>
				<polygon class="PF13614" points="1225,34 1231,28 1242,28 1242,52 1231,52 1225,46" stroke-linejoin="round" width="17" height="24" fill="rgb(144,187,62)" stroke="rgb(115,149,49)" stroke-width="1" opacity="0.75" />
			</g>
		</g>
		<g>
			<title> (ctg4_217)</title>
			<polygon class=" (ctg4_217)" points="1245,40 1269,10 1269,70" fill="rgb(255,255,255)" fill-opacity="1.0" stroke="rgb(0,0,0)" stroke-width="2"  />
			<g>
				<title>MinC_C (PF03775)
"Septum formation inhibitor MinC, C-terminal domain"</title>
				<polygon class="PF03775" points="1249,40 1255,32 1255,48" stroke-linejoin="round" width="10" height="24" fill="rgb(63,191,127)" stroke="rgb(50,152,101)" stroke-width="1" opacity="0.75" />
			</g>
			<g>
				<title>MinC_N (PF05209)
"Septum formation inhibitor MinC, N-terminal domain"</title>
				<rect class="PF05209" x="1262" y="28" stroke-linejoin="round" width="6" height="24" fill="rgb(97,197,174)" stroke="rgb(77,157,139)" stroke-width="1" opacity="0.75" />
			</g>
		</g>
		<g>
			<title> (ctg4_218)</title>
			<polygon class=" (ctg4_218)" points="1308,25 1303,25 1303,10 1273,40 1303,70 1303,55 1308,55" fill="rgb(255,255,255)" fill-opacity="1.0" stroke="rgb(0,0,0)" stroke-width="2"  />
		</g>
		<g>
			<title> (ctg4_219)</title>
			<polygon class=" (ctg4_219)" points="1339,25 1339,25 1339,10 1309,40 1339,70 1339,55 1339,55" fill="rgb(255,255,255)" fill-opacity="1.0" stroke="rgb(0,0,0)" stroke-width="2"  />
			<g>
				<title>Acyltransferase (PF01553)
"Acyltransferase"</title>
				<polygon class="PF01553" points="1316,37 1325,28 1332,28 1332,52 1325,52 1316,43" stroke-linejoin="round" width="16" height="24" fill="rgb(87,176,216)" stroke="rgb(69,140,172)" stroke-width="1" opacity="0.75" />
			</g>
		</g>
		<g>
			<title> (ctg4_220)</title>
			<polygon class=" (ctg4_220)" points="1348,10 1369,40 1348,70" fill="rgb(255,255,255)" fill-opacity="1.0" stroke="rgb(0,0,0)" stroke-width="2"  />
			<g>
				<title>OmpA (PF00691)
"OmpA family"</title>
				<polygon class="PF00691" points="1359,31 1366,40 1359,49" stroke-linejoin="round" width="9" height="24" fill="rgb(121,200,70)" stroke="rgb(96,160,56)" stroke-width="1" opacity="0.75" />
			</g>
		</g>
	</g>
</svg>
