<svg version="1.1" baseProfile="full" xmlns="http://www.w3.org/2000/svg" width="426.8333333333333" height="80">
	<g>
		<line x1="10" y1="40.0" x2="416.8333333333333" y2="40.0" style="stroke:rgb(70,70,70); stroke-width:3 "/>
		<g>
			<title> (ctg1_850)</title>
			<polygon class=" (ctg1_850)" points="25,10 38,40 25,70" fill="rgb(255,255,255)" fill-opacity="1.0" stroke="rgb(0,0,0)" stroke-width="2"  />
			<g>
				<title>MerR_1 (PF13411)
"MerR HTH family regulatory protein"</title>
				<polygon class="PF13411" points="25,28 29,28 31,31 31,49 29,52 25,52" stroke-linejoin="round" width="6" height="24" fill="rgb(100,202,107)" stroke="rgb(80,161,85)" stroke-width="1" opacity="0.75" />
			</g>
		</g>
		<g>
			<title> (ctg1_851)</title>
			<polygon class=" (ctg1_851)" points="43,10 69,40 43,70" fill="rgb(255,255,255)" fill-opacity="1.0" stroke="rgb(0,0,0)" stroke-width="2"  />
			<g>
				<title>DJ-1_PfpI (PF01965)
"DJ-1/PfpI family"</title>
				<polygon class="PF01965" points="49,28 54,28 65,40 54,52 49,52" stroke-linejoin="round" width="20" height="24" fill="rgb(66,224,145)" stroke="rgb(52,179,116)" stroke-width="1" opacity="0.75" />
			</g>
		</g>
		<g>
			<title> (ctg1_852)</title>
			<polygon class=" (ctg1_852)" points="76,10 85,40 76,70" fill="rgb(255,255,255)" fill-opacity="1.0" stroke="rgb(0,0,0)" stroke-width="2"  />
		</g>
		<g>
			<title> (ctg1_853)</title>
			<polygon class=" (ctg1_853)" points="124,25 119,25 119,10 89,40 119,70 119,55 124,55" fill="rgb(255,255,255)" fill-opacity="1.0" stroke="rgb(0,0,0)" stroke-width="2"  />
			<g>
				<title>Sacchrp_dh_NADP (PF03435)
"Saccharopine dehydrogenase NADP binding domain"</title>
				<rect class="PF03435" x="111" y="28" stroke-linejoin="round" width="11" height="24" fill="rgb(90,186,91)" stroke="rgb(72,148,72)" stroke-width="1" opacity="0.75" />
			</g>
		</g>
		<g>
			<title> (ctg1_854)</title>
			<polygon class=" (ctg1_854)" points="166,25 155,25 155,10 125,40 155,70 155,55 166,55" fill="rgb(255,255,255)" fill-opacity="1.0" stroke="rgb(0,0,0)" stroke-width="2"  />
			<g>
				<title>Oxidored_FMN (PF00724)
"NADH:flavin oxidoreductase / NADH oxidase family"</title>
				<polygon class="PF00724" points="132,37 141,28 165,28 165,52 141,52 132,43" stroke-linejoin="round" width="33" height="24" fill="rgb(157,188,65)" stroke="rgb(125,150,52)" stroke-width="1" opacity="0.75" />
			</g>
		</g>
		<g>
			<title> (ctg1_855)</title>
			<polygon class=" (ctg1_855)" points="249,25 206,25 206,10 176,40 206,70 206,55 249,55" fill="rgb(255,255,255)" fill-opacity="1.0" stroke="rgb(0,0,0)" stroke-width="2"  />
			<g>
				<title>YcaO_C (PF18381)
"YcaO cyclodehydratase C-terminal domain"</title>
				<polygon class="PF18381" points="180,40 192,28 193,28 193,52 192,52" stroke-linejoin="round" width="17" height="24" fill="rgb(125,91,193)" stroke="rgb(99,72,154)" stroke-width="1" opacity="0.75" />
			</g>
			<g>
				<title>YcaO (PF02624)
"YcaO cyclodehydratase, ATP-ad Mg2+-binding"</title>
				<rect class="PF02624" x="195" y="28" stroke-linejoin="round" width="33" height="24" fill="rgb(76,84,185)" stroke="rgb(60,67,148)" stroke-width="1" opacity="0.75" />
			</g>
			<g>
				<title>OsmC (PF02566)
"OsmC-like protein"</title>
				<rect class="PF02566" x="236" y="28" stroke-linejoin="round" width="9" height="24" fill="rgb(161,56,212)" stroke="rgb(128,44,169)" stroke-width="1" opacity="0.75" />
			</g>
		</g>
		<g>
			<title> (ctg1_856)</title>
			<polygon class=" (ctg1_856)" points="295,25 287,25 287,10 257,40 287,70 287,55 295,55" fill="rgb(255,255,255)" fill-opacity="1.0" stroke="rgb(0,0,0)" stroke-width="2"  />
		</g>
		<g>
			<title> (ctg1_857)</title>
			<polygon class=" (ctg1_857)" points="340,25 326,25 326,10 296,40 326,70 326,55 340,55" fill="rgb(255,255,255)" fill-opacity="1.0" stroke="rgb(0,0,0)" stroke-width="2"  />
			<g>
				<title>OEP (PF02321)
"Outer membrane efflux protein"</title>
				<polygon class="PF02321" points="300,40 312,28 315,28 315,52 312,52" stroke-linejoin="round" width="18" height="24" fill="rgb(205,57,201)" stroke="rgb(164,45,160)" stroke-width="1" opacity="0.75" />
			</g>
			<g>
				<title>OEP (PF02321)
"Outer membrane efflux protein"</title>
				<rect class="PF02321" x="317" y="28" stroke-linejoin="round" width="19" height="24" fill="rgb(205,57,201)" stroke="rgb(164,45,160)" stroke-width="1" opacity="0.75" />
			</g>
		</g>
		<g>
			<title> (ctg1_858)</title>
			<polygon class=" (ctg1_858)" points="392,25 370,25 370,10 340,40 370,70 370,55 392,55" fill="rgb(255,255,255)" fill-opacity="1.0" stroke="rgb(0,0,0)" stroke-width="2"  />
			<g>
				<title>GH3 (PF03321)
"GH3 auxin-responsive promoter"</title>
				<polygon class="PF03321" points="344,40 356,28 389,28 389,52 356,52" stroke-linejoin="round" width="49" height="24" fill="rgb(220,187,68)" stroke="rgb(176,149,54)" stroke-width="1" opacity="0.75" />
			</g>
		</g>
	</g>
</svg>
