<svg version="1.1" baseProfile="full" xmlns="http://www.w3.org/2000/svg" width="887.4" height="80">
	<g>
		<line x1="10" y1="40.0" x2="877.4" y2="40.0" style="stroke:rgb(70,70,70); stroke-width:3 "/>
		<g>
			<title> (ctg11_164)</title>
			<polygon class=" (ctg11_164)" points="42,40 48,10 48,70" fill="rgb(255,255,255)" fill-opacity="1.0" stroke="rgb(0,0,0)" stroke-width="2"  />
		</g>
		<g>
			<title> (ctg11_165)</title>
			<polygon class=" (ctg11_165)" points="63,40 67,10 67,70" fill="rgb(255,255,255)" fill-opacity="1.0" stroke="rgb(0,0,0)" stroke-width="2"  />
		</g>
		<g>
			<title> (ctg11_166)</title>
			<polygon class=" (ctg11_166)" points="82,40 97,10 97,70" fill="rgb(255,255,255)" fill-opacity="1.0" stroke="rgb(0,0,0)" stroke-width="2"  />
		</g>
		<g>
			<title> (ctg11_167)</title>
			<polygon class=" (ctg11_167)" points="108,40 128,10 128,70" fill="rgb(255,255,255)" fill-opacity="1.0" stroke="rgb(0,0,0)" stroke-width="2"  />
		</g>
		<g>
			<title> (ctg11_168)</title>
			<polygon class=" (ctg11_168)" points="135,10 143,40 135,70" fill="rgb(255,255,255)" fill-opacity="1.0" stroke="rgb(0,0,0)" stroke-width="2"  />
			<g>
				<title>DinI (PF06183)
"DinI-like family"</title>
				<polygon class="PF06183" points="136,28 136,28 139,40 136,52 136,52" stroke-linejoin="round" width="6" height="24" fill="rgb(77,123,189)" stroke="rgb(61,98,151)" stroke-width="1" opacity="0.75" />
			</g>
		</g>
		<g>
			<title> (ctg11_169)</title>
			<polygon class=" (ctg11_169)" points="182,25 182,25 182,10 152,40 182,70 182,55 182,55" fill="rgb(255,255,255)" fill-opacity="1.0" stroke="rgb(0,0,0)" stroke-width="2"  />
			<g>
				<title>LysR_substrate (PF03466)
"LysR substrate binding domain"</title>
				<polygon class="PF03466" points="156,40 168,28 173,28 173,52 168,52" stroke-linejoin="round" width="20" height="24" fill="rgb(55,136,195)" stroke="rgb(44,108,156)" stroke-width="1" opacity="0.75" />
			</g>
			<g>
				<title>HTH_1 (PF00126)
"Bacterial regulatory helix-turn-helix protein, lysR family"</title>
				<rect class="PF00126" x="176" y="28" stroke-linejoin="round" width="5" height="24" fill="rgb(125,227,79)" stroke="rgb(99,181,63)" stroke-width="1" opacity="0.75" />
			</g>
		</g>
		<g>
			<title> (ctg11_170)</title>
			<polygon class=" (ctg11_170)" points="189,25 206,25 206,10 236,40 206,70 206,55 189,55" fill="rgb(255,255,255)" fill-opacity="1.0" stroke="rgb(0,0,0)" stroke-width="2"  />
			<g>
				<title>Peptidase_M20 (PF01546)
"Peptidase family M20/M25/M40"</title>
				<polygon class="PF01546" points="197,28 219,28 231,40 219,52 197,52" stroke-linejoin="round" width="36" height="24" fill="rgb(88,213,108)" stroke="rgb(70,170,86)" stroke-width="1" opacity="0.75" />
			</g>
		</g>
		<g>
			<title> (ctg11_171)</title>
			<polygon class=" (ctg11_171)" points="236,25 248,25 248,10 278,40 248,70 248,55 236,55" fill="rgb(255,255,255)" fill-opacity="1.0" stroke="rgb(0,0,0)" stroke-width="2"  />
			<g>
				<title>MFS_1 (PF07690)
"Major Facilitator Superfamily"</title>
				<polygon class="PF07690" points="238,28 262,28 264,30 264,50 262,52 238,52" stroke-linejoin="round" width="26" height="24" fill="rgb(193,224,74)" stroke="rgb(154,179,59)" stroke-width="1" opacity="0.75" />
			</g>
		</g>
		<g>
			<title> (ctg11_172)</title>
			<polygon class=" (ctg11_172)" points="292,10 305,40 292,70" fill="rgb(255,255,255)" fill-opacity="1.0" stroke="rgb(0,0,0)" stroke-width="2"  />
		</g>
		<g>
			<title> (ctg11_173)</title>
			<polygon class=" (ctg11_173)" points="308,25 313,25 313,10 343,40 313,70 313,55 308,55" fill="rgb(255,255,255)" fill-opacity="1.0" stroke="rgb(0,0,0)" stroke-width="2"  />
			<g>
				<title>Methyltransf_2 (PF00891)
"O-methyltransferase domain"</title>
				<polygon class="PF00891" points="324,28 327,28 339,40 327,52 324,52" stroke-linejoin="round" width="16" height="24" fill="rgb(50,51,190)" stroke="rgb(39,40,152)" stroke-width="1" opacity="0.75" />
			</g>
		</g>
		<g>
			<title> (ctg11_174)</title>
			<polygon class=" (ctg11_174)" points="345,10 369,40 345,70" fill="rgb(255,255,255)" fill-opacity="1.0" stroke="rgb(0,0,0)" stroke-width="2"  />
			<g>
				<title>Ketoacyl-synt_2 (PF13723)
"Beta-ketoacyl synthase, N-terminal domain"</title>
				<polygon class="PF13723" points="347,28 355,28 365,40 355,52 347,52" stroke-linejoin="round" width="21" height="24" fill="rgb(57,130,212)" stroke="rgb(45,103,169)" stroke-width="1" opacity="0.75" />
			</g>
		</g>
		<g>
			<title> (ctg11_175)</title>
			<polygon class=" (ctg11_175)" points="369,10 396,40 369,70" fill="rgb(255,255,255)" fill-opacity="1.0" stroke="rgb(0,0,0)" stroke-width="2"  />
			<g>
				<title>Acyltransferase (PF01553)
"Acyltransferase"</title>
				<polygon class="PF01553" points="376,28 380,28 388,36 388,44 380,52 376,52" stroke-linejoin="round" width="12" height="24" fill="rgb(87,176,216)" stroke="rgb(69,140,172)" stroke-width="1" opacity="0.75" />
			</g>
		</g>
		<g>
			<title> (ctg11_176)</title>
			<polygon class=" (ctg11_176)" points="396,10 404,40 396,70" fill="rgb(255,255,255)" fill-opacity="1.0" stroke="rgb(0,0,0)" stroke-width="2"  />
			<g>
				<title>PP-binding (PF00550)
"Phosphopantetheine attachment site"</title>
				<polygon class="PF00550" points="396,28 397,28 401,40 397,52 396,52" stroke-linejoin="round" width="7" height="24" fill="rgb(103,191,88)" stroke="rgb(82,152,70)" stroke-width="1" opacity="0.75" />
			</g>
		</g>
		<g>
			<title> (ctg11_177)</title>
			<polygon class=" (ctg11_177)" points="405,10 413,40 405,70" fill="rgb(255,255,255)" fill-opacity="1.0" stroke="rgb(0,0,0)" stroke-width="2"  />
			<g>
				<title>PP-binding (PF00550)
"Phosphopantetheine attachment site"</title>
				<polygon class="PF00550" points="405,28 406,28 410,40 406,52 405,52" stroke-linejoin="round" width="6" height="24" fill="rgb(103,191,88)" stroke="rgb(82,152,70)" stroke-width="1" opacity="0.75" />
			</g>
		</g>
		<g>
			<title> (ctg11_178)</title>
			<polygon class=" (ctg11_178)" points="413,10 432,40 413,70" fill="rgb(255,255,255)" fill-opacity="1.0" stroke="rgb(0,0,0)" stroke-width="2"  />
		</g>
		<g>
			<title> (ctg11_179)</title>
			<polygon class=" (ctg11_179)" points="433,25 448,25 448,10 478,40 448,70 448,55 433,55" fill="rgb(255,255,255)" fill-opacity="1.0" stroke="rgb(0,0,0)" stroke-width="2"  />
			<g>
				<title>AMP-binding (PF00501)
"AMP-binding enzyme"</title>
				<polygon class="PF00501" points="441,28 462,28 463,29 463,51 462,52 441,52" stroke-linejoin="round" width="22" height="24" fill="rgb(60,217,223)" stroke="rgb(48,173,178)" stroke-width="1" opacity="0.75" />
			</g>
		</g>
		<g>
			<title> (ctg11_180)</title>
			<polygon class=" (ctg11_180)" points="478,10 489,40 478,70" fill="rgb(255,255,255)" fill-opacity="1.0" stroke="rgb(0,0,0)" stroke-width="2"  />
		</g>
		<g>
			<title> (ctg11_181)</title>
			<polygon class=" (ctg11_181)" points="489,25 516,25 516,10 546,40 516,70 516,55 489,55" fill="rgb(255,255,255)" fill-opacity="1.0" stroke="rgb(0,0,0)" stroke-width="2"  />
			<g>
				<title>Glycos_transf_2 (PF00535)
"Glycosyl transferase family 2"</title>
				<rect class="PF00535" x="490" y="28" stroke-linejoin="round" width="15" height="24" fill="rgb(224,122,96)" stroke="rgb(179,97,76)" stroke-width="1" opacity="0.75" />
			</g>
		</g>
		<g>
			<title> (ctg11_182)</title>
			<polygon class=" (ctg11_182)" points="546,10 560,40 546,70" fill="rgb(255,255,255)" fill-opacity="1.0" stroke="rgb(0,0,0)" stroke-width="2"  />
			<g>
				<title>4HBT_2 (PF13279)
"Thioesterase-like superfamily"</title>
				<polygon class="PF13279" points="547,28 550,28 556,40 550,52 547,52" stroke-linejoin="round" width="11" height="24" fill="rgb(213,114,82)" stroke="rgb(170,91,65)" stroke-width="1" opacity="0.75" />
			</g>
		</g>
		<g>
			<title> (ctg11_183)</title>
			<polygon class=" (ctg11_183)" points="560,10 580,40 560,70" fill="rgb(255,255,255)" fill-opacity="1.0" stroke="rgb(0,0,0)" stroke-width="2"  />
			<g>
				<title>LolA_3 (PF19574)
"Outer membrane lipoprotein carrier protein LolA-like"</title>
				<polygon class="PF19574" points="561,28 568,28 576,40 568,52 561,52" stroke-linejoin="round" width="18" height="24" fill="rgb(55,185,49)" stroke="rgb(43,148,39)" stroke-width="1" opacity="0.75" />
			</g>
		</g>
		<g>
			<title> (ctg11_184)</title>
			<polygon class=" (ctg11_184)" points="579,25 626,25 626,10 656,40 626,70 626,55 579,55" fill="rgb(255,255,255)" fill-opacity="1.0" stroke="rgb(0,0,0)" stroke-width="2"  />
			<g>
				<title>MMPL (PF03176)
"MMPL family"</title>
				<rect class="PF03176" x="599" y="28" stroke-linejoin="round" width="22" height="24" fill="rgb(228,109,193)" stroke="rgb(182,87,154)" stroke-width="1" opacity="0.75" />
			</g>
		</g>
		<g>
			<title> (ctg11_185)</title>
			<polygon class=" (ctg11_185)" points="657,10 676,40 657,70" fill="rgb(255,255,255)" fill-opacity="1.0" stroke="rgb(0,0,0)" stroke-width="2"  />
			<g>
				<title>DUF3261 (PF11659)
"Protein of unknown function (DUF3261)"</title>
				<polygon class="PF11659" points="662,28 665,28 673,40 665,52 662,52" stroke-linejoin="round" width="13" height="24" fill="rgb(224,86,172)" stroke="rgb(179,68,137)" stroke-width="1" opacity="0.75" />
			</g>
		</g>
		<g>
			<title> (ctg11_186)</title>
			<polygon class=" (ctg11_186)" points="676,25 685,25 685,10 715,40 685,70 685,55 676,55" fill="rgb(255,255,255)" fill-opacity="1.0" stroke="rgb(0,0,0)" stroke-width="2"  />
			<g>
				<title>ketoacyl-synt (PF00109)
"Beta-ketoacyl synthase, N-terminal domain"</title>
				<polygon class="PF00109" points="676,28 698,28 699,29 699,51 698,52 676,52" stroke-linejoin="round" width="23" height="24" fill="rgb(112,116,228)" stroke="rgb(89,92,182)" stroke-width="1" opacity="0.75" />
			</g>
			<g>
				<title>Ketoacyl-synt_C (PF02801)
"Beta-ketoacyl synthase, C-terminal domain"</title>
				<polygon class="PF02801" points="699,29 709,39 709,41 699,51" stroke-linejoin="round" width="10" height="24" fill="rgb(215,78,102)" stroke="rgb(172,62,81)" stroke-width="1" opacity="0.75" />
			</g>
		</g>
		<g>
			<title> (ctg11_187)</title>
			<polygon class=" (ctg11_187)" points="715,10 730,40 715,70" fill="rgb(255,255,255)" fill-opacity="1.0" stroke="rgb(0,0,0)" stroke-width="2"  />
		</g>
		<g>
			<title> (ctg11_188)</title>
			<polygon class=" (ctg11_188)" points="731,10 755,40 731,70" fill="rgb(255,255,255)" fill-opacity="1.0" stroke="rgb(0,0,0)" stroke-width="2"  />
			<g>
				<title>adh_short_C2 (PF13561)
"Enoyl-(Acyl carrier protein) reductase"</title>
				<polygon class="PF13561" points="731,28 742,28 751,40 742,52 731,52" stroke-linejoin="round" width="23" height="24" fill="rgb(73,205,127)" stroke="rgb(58,164,101)" stroke-width="1" opacity="0.75" />
			</g>
		</g>
		<g>
			<title> (ctg11_189)</title>
			<polygon class=" (ctg11_189)" points="755,25 766,25 766,10 796,40 766,70 766,55 755,55" fill="rgb(255,255,255)" fill-opacity="1.0" stroke="rgb(0,0,0)" stroke-width="2"  />
			<g>
				<title>ketoacyl-synt (PF00109)
"Beta-ketoacyl synthase, N-terminal domain"</title>
				<rect class="PF00109" x="755" y="28" stroke-linejoin="round" width="24" height="24" fill="rgb(112,116,228)" stroke="rgb(89,92,182)" stroke-width="1" opacity="0.75" />
			</g>
			<g>
				<title>Ketoacyl-synt_C (PF02801)
"Beta-ketoacyl synthase, C-terminal domain"</title>
				<polygon class="PF02801" points="780,29 791,40 791,40 780,51" stroke-linejoin="round" width="11" height="24" fill="rgb(215,78,102)" stroke="rgb(172,62,81)" stroke-width="1" opacity="0.75" />
			</g>
		</g>
		<g>
			<title> (ctg11_190)</title>
			<polygon class=" (ctg11_190)" points="802,40 813,10 813,70" fill="rgb(255,255,255)" fill-opacity="1.0" stroke="rgb(0,0,0)" stroke-width="2"  />
		</g>
		<g>
			<title> (ctg11_191)</title>
			<polygon class=" (ctg11_191)" points="820,40 839,10 839,70" fill="rgb(255,255,255)" fill-opacity="1.0" stroke="rgb(0,0,0)" stroke-width="2"  />
			<g>
				<title>Phage_CI_repr (PF07022)
"Bacteriophage CI repressor helix-turn-helix domain"</title>
				<polygon class="PF07022" points="831,29 832,28 837,28 837,52 832,52 831,51" stroke-linejoin="round" width="6" height="24" fill="rgb(70,192,175)" stroke="rgb(56,153,140)" stroke-width="1" opacity="0.75" />
			</g>
		</g>
		<g>
			<title> (ctg11_192)</title>
			<polygon class=" (ctg11_192)" points="845,10 852,40 845,70" fill="rgb(255,255,255)" fill-opacity="1.0" stroke="rgb(0,0,0)" stroke-width="2"  />
			<g>
				<title>HTH_35 (PF13693)
"Winged helix-turn-helix DNA-binding"</title>
				<polygon class="PF13693" points="846,28 846,28 849,40 846,52 846,52" stroke-linejoin="round" width="6" height="24" fill="rgb(196,88,166)" stroke="rgb(156,70,132)" stroke-width="1" opacity="0.75" />
			</g>
		</g>
		<g>
			<title> (ctg11_193)</title>
			<polygon class=" (ctg11_193)" points="853,10 877,40 853,70" fill="rgb(255,255,255)" fill-opacity="1.0" stroke="rgb(0,0,0)" stroke-width="2"  />
			<g>
				<title>HTH_Tnp_Mu_1 (PF02316)
"Mu DNA-binding domain"</title>
				<polygon class="PF02316" points="853,28 863,28 865,30 865,50 863,52 853,52" stroke-linejoin="round" width="12" height="24" fill="rgb(223,98,66)" stroke="rgb(178,78,52)" stroke-width="1" opacity="0.75" />
			</g>
		</g>
	</g>
</svg>
