<svg version="1.1" baseProfile="full" xmlns="http://www.w3.org/2000/svg" width="902.2" height="80">
	<g>
		<line x1="10" y1="40.0" x2="892.2" y2="40.0" style="stroke:rgb(70,70,70); stroke-width:3 "/>
		<g>
			<title> (ctg4_422)</title>
			<polygon class=" (ctg4_422)" points="83,40 92,10 92,70" fill="rgb(255,255,255)" fill-opacity="1.0" stroke="rgb(0,0,0)" stroke-width="2"  />
			<g>
				<title>Bac_DNA_binding (PF00216)
"Bacterial DNA-binding protein"</title>
				<polygon class="PF00216" points="86,40 90,28 92,28 92,52 90,52" stroke-linejoin="round" width="9" height="24" fill="rgb(73,205,204)" stroke="rgb(58,164,163)" stroke-width="1" opacity="0.75" />
			</g>
		</g>
		<g>
			<title> (ctg4_423)</title>
			<polygon class=" (ctg4_423)" points="149,25 124,25 124,10 94,40 124,70 124,55 149,55" fill="rgb(255,255,255)" fill-opacity="1.0" stroke="rgb(0,0,0)" stroke-width="2"  />
			<g>
				<title>S1 (PF00575)
"S1 RNA binding domain"</title>
				<polygon class="PF00575" points="98,40 104,34 104,46" stroke-linejoin="round" width="7" height="24" fill="rgb(102,56,190)" stroke="rgb(81,44,152)" stroke-width="1" opacity="0.75" />
			</g>
			<g>
				<title>S1 (PF00575)
"S1 RNA binding domain"</title>
				<polygon class="PF00575" points="106,32 110,28 113,28 113,52 110,52 106,48" stroke-linejoin="round" width="7" height="24" fill="rgb(102,56,190)" stroke="rgb(81,44,152)" stroke-width="1" opacity="0.75" />
			</g>
			<g>
				<title>S1 (PF00575)
"S1 RNA binding domain"</title>
				<rect class="PF00575" x="115" y="28" stroke-linejoin="round" width="7" height="24" fill="rgb(102,56,190)" stroke="rgb(81,44,152)" stroke-width="1" opacity="0.75" />
			</g>
			<g>
				<title>S1 (PF00575)
"S1 RNA binding domain"</title>
				<rect class="PF00575" x="123" y="28" stroke-linejoin="round" width="7" height="24" fill="rgb(102,56,190)" stroke="rgb(81,44,152)" stroke-width="1" opacity="0.75" />
			</g>
			<g>
				<title>S1 (PF00575)
"S1 RNA binding domain"</title>
				<rect class="PF00575" x="132" y="28" stroke-linejoin="round" width="7" height="24" fill="rgb(102,56,190)" stroke="rgb(81,44,152)" stroke-width="1" opacity="0.75" />
			</g>
			<g>
				<title>S1 (PF00575)
"S1 RNA binding domain"</title>
				<rect class="PF00575" x="141" y="28" stroke-linejoin="round" width="7" height="24" fill="rgb(102,56,190)" stroke="rgb(81,44,152)" stroke-width="1" opacity="0.75" />
			</g>
		</g>
		<g>
			<title> (ctg4_424)</title>
			<polygon class=" (ctg4_424)" points="156,40 179,10 179,70" fill="rgb(255,255,255)" fill-opacity="1.0" stroke="rgb(0,0,0)" stroke-width="2"  />
			<g>
				<title>Cytidylate_kin (PF02224)
"Cytidylate kinase"</title>
				<polygon class="PF02224" points="160,40 169,28 177,28 177,52 169,52" stroke-linejoin="round" width="21" height="24" fill="rgb(85,78,199)" stroke="rgb(68,62,159)" stroke-width="1" opacity="0.75" />
			</g>
		</g>
		<g>
			<title> (ctg4_425)</title>
			<polygon class=" (ctg4_425)" points="232,25 216,25 216,10 186,40 216,70 216,55 232,55" fill="rgb(255,255,255)" fill-opacity="1.0" stroke="rgb(0,0,0)" stroke-width="2"  />
			<g>
				<title>EPSP_synthase (PF00275)
"EPSP synthase (3-phosphoshikimate 1-carboxyvinyltransferase)"</title>
				<polygon class="PF00275" points="190,40 202,28 227,28 227,52 202,52" stroke-linejoin="round" width="41" height="24" fill="rgb(217,213,85)" stroke="rgb(173,170,68)" stroke-width="1" opacity="0.75" />
			</g>
		</g>
		<g>
			<title> (ctg4_426)</title>
			<polygon class=" (ctg4_426)" points="269,25 263,25 263,10 233,40 263,70 263,55 269,55" fill="rgb(255,255,255)" fill-opacity="1.0" stroke="rgb(0,0,0)" stroke-width="2"  />
			<g>
				<title>Aminotran_5 (PF00266)
"Aminotransferase class-V"</title>
				<polygon class="PF00266" points="237,40 249,28 268,28 268,52 249,52" stroke-linejoin="round" width="34" height="24" fill="rgb(214,54,122)" stroke="rgb(171,43,97)" stroke-width="1" opacity="0.75" />
			</g>
		</g>
		<g>
			<title> (ctg4_427)</title>
			<polygon class=" (ctg4_427)" points="277,40 300,10 300,70" fill="rgb(255,255,255)" fill-opacity="1.0" stroke="rgb(0,0,0)" stroke-width="2"  />
			<g>
				<title>DUF421 (PF04239)
"Protein of unknown function (DUF421)"</title>
				<polygon class="PF04239" points="281,40 289,30 289,50 281,40" stroke-linejoin="round" width="8" height="24" fill="rgb(165,197,85)" stroke="rgb(132,157,68)" stroke-width="1" opacity="0.75" />
			</g>
		</g>
		<g>
			<title> (ctg4_428)</title>
			<polygon class=" (ctg4_428)" points="337,25 333,25 333,10 303,40 333,70 333,55 337,55" fill="rgb(255,255,255)" fill-opacity="1.0" stroke="rgb(0,0,0)" stroke-width="2"  />
			<g>
				<title>Asparaginase_C (PF17763)
"Glutaminase/Asparaginase C-terminal domain"</title>
				<polygon class="PF17763" points="307,40 314,33 314,47" stroke-linejoin="round" width="11" height="24" fill="rgb(163,191,57)" stroke="rgb(130,152,45)" stroke-width="1" opacity="0.75" />
			</g>
			<g>
				<title>Asparaginase (PF00710)
"Asparaginase, N-terminal"</title>
				<polygon class="PF00710" points="316,31 319,28 335,28 335,52 319,52 316,49" stroke-linejoin="round" width="19" height="24" fill="rgb(216,150,106)" stroke="rgb(172,120,84)" stroke-width="1" opacity="0.75" />
			</g>
		</g>
		<g>
			<title> (ctg4_429)</title>
			<polygon class=" (ctg4_429)" points="343,25 371,25 371,10 401,40 371,70 371,55 343,55" fill="rgb(255,255,255)" fill-opacity="1.0" stroke="rgb(0,0,0)" stroke-width="2"  />
			<g>
				<title>YcaO (PF02624)
"YcaO cyclodehydratase, ATP-ad Mg2+-binding"</title>
				<rect class="PF02624" x="348" y="28" stroke-linejoin="round" width="33" height="24" fill="rgb(76,84,185)" stroke="rgb(60,67,148)" stroke-width="1" opacity="0.75" />
			</g>
			<g>
				<title>YcaO_C (PF18381)
"YcaO cyclodehydratase C-terminal domain"</title>
				<polygon class="PF18381" points="383,28 385,28 397,40 385,52 383,52" stroke-linejoin="round" width="17" height="24" fill="rgb(125,91,193)" stroke="rgb(99,72,154)" stroke-width="1" opacity="0.75" />
			</g>
		</g>
		<g>
			<title> (ctg4_430)</title>
			<polygon class=" (ctg4_430)" points="417,10 445,40 417,70" fill="rgb(255,255,255)" fill-opacity="1.0" stroke="rgb(0,0,0)" stroke-width="2"  />
			<g>
				<title>Form_Nir_trans (PF01226)
"Formate/nitrite transporter"</title>
				<polygon class="PF01226" points="418,28 429,28 441,40 429,52 418,52" stroke-linejoin="round" width="26" height="24" fill="rgb(206,55,143)" stroke="rgb(164,44,114)" stroke-width="1" opacity="0.75" />
			</g>
		</g>
		<g>
			<title> (ctg4_431)</title>
			<polygon class=" (ctg4_431)" points="447,25 493,25 493,10 523,40 493,70 493,55 447,55" fill="rgb(255,255,255)" fill-opacity="1.0" stroke="rgb(0,0,0)" stroke-width="2"  />
			<g>
				<title>PFL-like (PF02901)
"Pyruvate formate lyase-like"</title>
				<polygon class="PF02901" points="448,28 506,28 507,29 507,51 506,52 448,52" stroke-linejoin="round" width="59" height="24" fill="rgb(90,117,182)" stroke="rgb(72,93,145)" stroke-width="1" opacity="0.75" />
			</g>
			<g>
				<title>Gly_radical (PF01228)
"Glycine radical"</title>
				<polygon class="PF01228" points="510,32 518,40 510,48" stroke-linejoin="round" width="11" height="24" fill="rgb(103,207,173)" stroke="rgb(82,165,138)" stroke-width="1" opacity="0.75" />
			</g>
		</g>
		<g>
			<title> (ctg4_432)</title>
			<polygon class=" (ctg4_432)" points="534,10 558,40 534,70" fill="rgb(255,255,255)" fill-opacity="1.0" stroke="rgb(0,0,0)" stroke-width="2"  />
			<g>
				<title>Radical_SAM (PF04055)
"Radical SAM superfamily"</title>
				<polygon class="PF04055" points="536,28 545,28 552,37 552,43 545,52 536,52" stroke-linejoin="round" width="16" height="24" fill="rgb(149,56,222)" stroke="rgb(119,44,177)" stroke-width="1" opacity="0.75" />
			</g>
		</g>
		<g>
			<title> (ctg4_433)</title>
			<polygon class=" (ctg4_433)" points="597,25 590,25 590,10 560,40 590,70 590,55 597,55" fill="rgb(255,255,255)" fill-opacity="1.0" stroke="rgb(0,0,0)" stroke-width="2"  />
			<g>
				<title>MFS_1 (PF07690)
"Major Facilitator Superfamily"</title>
				<polygon class="PF07690" points="565,39 576,28 596,28 596,52 576,52 565,41" stroke-linejoin="round" width="31" height="24" fill="rgb(193,224,74)" stroke="rgb(154,179,59)" stroke-width="1" opacity="0.75" />
			</g>
		</g>
		<g>
			<title> (ctg4_434)</title>
			<polygon class=" (ctg4_434)" points="602,40 620,10 620,70" fill="rgb(255,255,255)" fill-opacity="1.0" stroke="rgb(0,0,0)" stroke-width="2"  />
			<g>
				<title>Fer4_9 (PF13187)
"4Fe-4S dicluster domain"</title>
				<polygon class="PF13187" points="610,34 614,28 614,28 614,52 614,52 610,46" stroke-linejoin="round" width="4" height="24" fill="rgb(70,123,186)" stroke="rgb(56,98,148)" stroke-width="1" opacity="0.75" />
			</g>
		</g>
		<g>
			<title> (ctg4_435)</title>
			<polygon class=" (ctg4_435)" points="621,40 641,10 641,70" fill="rgb(255,255,255)" fill-opacity="1.0" stroke="rgb(0,0,0)" stroke-width="2"  />
			<g>
				<title>Nitrate_red_del (PF02613)
"Nitrate reductase delta subunit"</title>
				<polygon class="PF02613" points="625,40 633,28 636,28 636,52 633,52" stroke-linejoin="round" width="12" height="24" fill="rgb(193,50,184)" stroke="rgb(154,39,147)" stroke-width="1" opacity="0.75" />
			</g>
		</g>
		<g>
			<title> (ctg4_436)</title>
			<polygon class=" (ctg4_436)" points="643,40 671,10 671,70" fill="rgb(255,255,255)" fill-opacity="1.0" stroke="rgb(0,0,0)" stroke-width="2"  />
			<g>
				<title>DmsC (PF04976)
"DMSO reductase anchor subunit (DmsC)"</title>
				<polygon class="PF04976" points="647,40 658,28 671,28 671,52 658,52" stroke-linejoin="round" width="27" height="24" fill="rgb(206,147,88)" stroke="rgb(164,117,70)" stroke-width="1" opacity="0.75" />
			</g>
		</g>
		<g>
			<title> (ctg4_437)</title>
			<polygon class=" (ctg4_437)" points="672,40 692,10 692,70" fill="rgb(255,255,255)" fill-opacity="1.0" stroke="rgb(0,0,0)" stroke-width="2"  />
			<g>
				<title>Fer4_11 (PF13247)
"4Fe-4S dicluster domain"</title>
				<polygon class="PF13247" points="677,39 684,28 686,28 686,52 684,52 677,41" stroke-linejoin="round" width="9" height="24" fill="rgb(61,193,49)" stroke="rgb(48,154,39)" stroke-width="1" opacity="0.75" />
			</g>
		</g>
		<g>
			<title> (ctg4_438)</title>
			<polygon class=" (ctg4_438)" points="774,25 723,25 723,10 693,40 723,70 723,55 774,55" fill="rgb(255,255,255)" fill-opacity="1.0" stroke="rgb(0,0,0)" stroke-width="2"  />
			<g>
				<title>Molydop_binding (PF01568)
"Molydopterin dinucleotide binding domain"</title>
				<polygon class="PF01568" points="697,40 704,33 704,47" stroke-linejoin="round" width="11" height="24" fill="rgb(184,132,64)" stroke="rgb(147,105,51)" stroke-width="1" opacity="0.75" />
			</g>
			<g>
				<title>Molybdopterin (PF00384)
"Molybdopterin oxidoreductase"</title>
				<rect class="PF00384" x="716" y="28" stroke-linejoin="round" width="45" height="24" fill="rgb(65,194,78)" stroke="rgb(52,155,62)" stroke-width="1" opacity="0.75" />
			</g>
			<g>
				<title>Molybdop_Fe4S4 (PF04879)
"Molybdopterin oxidoreductase Fe4S4 domain"</title>
				<rect class="PF04879" x="762" y="28" stroke-linejoin="round" width="6" height="24" fill="rgb(186,68,186)" stroke="rgb(148,54,148)" stroke-width="1" opacity="0.75" />
			</g>
		</g>
		<g>
			<title> (ctg4_439)</title>
			<polygon class=" (ctg4_439)" points="863,25 812,25 812,10 782,40 812,70 812,55 863,55" fill="rgb(255,255,255)" fill-opacity="1.0" stroke="rgb(0,0,0)" stroke-width="2"  />
			<g>
				<title>Molydop_binding (PF01568)
"Molydopterin dinucleotide binding domain"</title>
				<polygon class="PF01568" points="786,40 793,33 793,47" stroke-linejoin="round" width="11" height="24" fill="rgb(184,132,64)" stroke="rgb(147,105,51)" stroke-width="1" opacity="0.75" />
			</g>
			<g>
				<title>Molybdopterin (PF00384)
"Molybdopterin oxidoreductase"</title>
				<rect class="PF00384" x="806" y="28" stroke-linejoin="round" width="45" height="24" fill="rgb(65,194,78)" stroke="rgb(52,155,62)" stroke-width="1" opacity="0.75" />
			</g>
			<g>
				<title>Molybdop_Fe4S4 (PF04879)
"Molybdopterin oxidoreductase Fe4S4 domain"</title>
				<rect class="PF04879" x="852" y="28" stroke-linejoin="round" width="5" height="24" fill="rgb(186,68,186)" stroke="rgb(148,54,148)" stroke-width="1" opacity="0.75" />
			</g>
		</g>
	</g>
</svg>
