<svg version="1.1" baseProfile="full" xmlns="http://www.w3.org/2000/svg" width="901.9666666666667" height="80">
	<g>
		<line x1="10" y1="40.0" x2="891.9666666666667" y2="40.0" style="stroke:rgb(70,70,70); stroke-width:3 "/>
		<g>
			<title> (ctg1_899)</title>
			<polygon class=" (ctg1_899)" points="18,10 38,40 18,70" fill="rgb(255,255,255)" fill-opacity="1.0" stroke="rgb(0,0,0)" stroke-width="2"  />
			<g>
				<title>LolA (PF03548)
"Outer membrane lipoprotein carrier protein LolA"</title>
				<polygon class="PF03548" points="21,28 26,28 34,40 26,52 21,52" stroke-linejoin="round" width="15" height="24" fill="rgb(84,160,208)" stroke="rgb(67,128,166)" stroke-width="1" opacity="0.75" />
			</g>
		</g>
		<g>
			<title> (ctg1_900)</title>
			<polygon class=" (ctg1_900)" points="39,25 53,25 53,10 83,40 53,70 53,55 39,55" fill="rgb(255,255,255)" fill-opacity="1.0" stroke="rgb(0,0,0)" stroke-width="2"  />
			<g>
				<title>AAA (PF00004)
"ATPase family associated with various cellular activities (AAA)"</title>
				<rect class="PF00004" x="44" y="28" stroke-linejoin="round" width="11" height="24" fill="rgb(57,194,204)" stroke="rgb(45,155,163)" stroke-width="1" opacity="0.75" />
			</g>
			<g>
				<title>AAA_assoc_2 (PF16193)
"AAA C-terminal domain"</title>
				<rect class="PF16193" x="57" y="28" stroke-linejoin="round" width="8" height="24" fill="rgb(186,178,53)" stroke="rgb(148,142,42)" stroke-width="1" opacity="0.75" />
			</g>
			<g>
				<title>MgsA_C (PF12002)
"MgsA AAA+ ATPase C terminal"</title>
				<polygon class="PF12002" points="65,28 67,28 79,40 67,52 65,52" stroke-linejoin="round" width="16" height="24" fill="rgb(224,154,71)" stroke="rgb(179,123,56)" stroke-width="1" opacity="0.75" />
			</g>
		</g>
		<g>
			<title> (ctg1_901)</title>
			<polygon class=" (ctg1_901)" points="87,25 100,25 100,10 130,40 100,70 100,55 87,55" fill="rgb(255,255,255)" fill-opacity="1.0" stroke="rgb(0,0,0)" stroke-width="2"  />
			<g>
				<title>Seryl_tRNA_N (PF02403)
"Seryl-tRNA synthetase N-terminal domain"</title>
				<rect class="PF02403" x="87" y="28" stroke-linejoin="round" width="10" height="24" fill="rgb(220,109,118)" stroke="rgb(176,87,94)" stroke-width="1" opacity="0.75" />
			</g>
			<g>
				<title>tRNA-synt_2b (PF00587)
"tRNA synthetase class II core domain (G, H, P, S and T)"</title>
				<polygon class="PF00587" points="109,28 113,28 125,40 113,52 109,52" stroke-linejoin="round" width="18" height="24" fill="rgb(228,96,220)" stroke="rgb(182,76,176)" stroke-width="1" opacity="0.75" />
			</g>
		</g>
		<g>
			<title> (ctg1_902)</title>
			<polygon class=" (ctg1_902)" points="139,25 165,25 165,10 195,40 165,70 165,55 139,55" fill="rgb(255,255,255)" fill-opacity="1.0" stroke="rgb(0,0,0)" stroke-width="2"  />
			<g>
				<title>Molybdop_Fe4S4 (PF04879)
"Molybdopterin oxidoreductase Fe4S4 domain"</title>
				<rect class="PF04879" x="144" y="28" stroke-linejoin="round" width="5" height="24" fill="rgb(186,68,186)" stroke="rgb(148,54,148)" stroke-width="1" opacity="0.75" />
			</g>
			<g>
				<title>Molybdopterin (PF00384)
"Molybdopterin oxidoreductase"</title>
				<polygon class="PF00384" points="151,28 179,28 191,40 179,52 151,52" stroke-linejoin="round" width="44" height="24" fill="rgb(65,194,78)" stroke="rgb(52,155,62)" stroke-width="1" opacity="0.75" />
			</g>
		</g>
		<g>
			<title> (ctg1_903)</title>
			<polygon class=" (ctg1_903)" points="196,10 220,40 196,70" fill="rgb(255,255,255)" fill-opacity="1.0" stroke="rgb(0,0,0)" stroke-width="2"  />
			<g>
				<title>Molydop_binding (PF01568)
"Molydopterin dinucleotide binding domain"</title>
				<polygon class="PF01568" points="208,30 216,40 208,50" stroke-linejoin="round" width="11" height="24" fill="rgb(184,132,64)" stroke="rgb(147,105,51)" stroke-width="1" opacity="0.75" />
			</g>
		</g>
		<g>
			<title> (ctg1_904)</title>
			<polygon class=" (ctg1_904)" points="225,10 245,40 225,70" fill="rgb(255,255,255)" fill-opacity="1.0" stroke="rgb(0,0,0)" stroke-width="2"  />
			<g>
				<title>Fer4_11 (PF13247)
"4Fe-4S dicluster domain"</title>
				<polygon class="PF13247" points="230,28 233,28 239,36 239,44 233,52 230,52" stroke-linejoin="round" width="9" height="24" fill="rgb(61,193,49)" stroke="rgb(48,154,39)" stroke-width="1" opacity="0.75" />
			</g>
		</g>
		<g>
			<title> (ctg1_905)</title>
			<polygon class=" (ctg1_905)" points="246,10 274,40 246,70" fill="rgb(255,255,255)" fill-opacity="1.0" stroke="rgb(0,0,0)" stroke-width="2"  />
			<g>
				<title>DmsC (PF04976)
"DMSO reductase anchor subunit (DmsC)"</title>
				<polygon class="PF04976" points="246,28 258,28 270,40 258,52 246,52" stroke-linejoin="round" width="27" height="24" fill="rgb(206,147,88)" stroke="rgb(164,117,70)" stroke-width="1" opacity="0.75" />
			</g>
		</g>
		<g>
			<title> (ctg1_906)</title>
			<polygon class=" (ctg1_906)" points="277,10 297,40 277,70" fill="rgb(255,255,255)" fill-opacity="1.0" stroke="rgb(0,0,0)" stroke-width="2"  />
			<g>
				<title>Nitrate_red_del (PF02613)
"Nitrate reductase delta subunit"</title>
				<polygon class="PF02613" points="281,28 285,28 293,39 293,41 285,52 281,52" stroke-linejoin="round" width="12" height="24" fill="rgb(193,50,184)" stroke="rgb(154,39,147)" stroke-width="1" opacity="0.75" />
			</g>
		</g>
		<g>
			<title> (ctg1_907)</title>
			<polygon class=" (ctg1_907)" points="297,40 302,10 302,70" fill="rgb(255,255,255)" fill-opacity="1.0" stroke="rgb(0,0,0)" stroke-width="2"  />
		</g>
		<g>
			<title> (ctg1_908)</title>
			<polygon class=" (ctg1_908)" points="307,25 310,25 310,10 340,40 310,70 310,55 307,55" fill="rgb(255,255,255)" fill-opacity="1.0" stroke="rgb(0,0,0)" stroke-width="2"  />
			<g>
				<title>MFS_1 (PF07690)
"Major Facilitator Superfamily"</title>
				<polygon class="PF07690" points="307,28 324,28 335,39 335,41 324,52 307,52" stroke-linejoin="round" width="28" height="24" fill="rgb(193,224,74)" stroke="rgb(154,179,59)" stroke-width="1" opacity="0.75" />
			</g>
		</g>
		<g>
			<title> (ctg1_909)</title>
			<polygon class=" (ctg1_909)" points="343,40 367,10 367,70" fill="rgb(255,255,255)" fill-opacity="1.0" stroke="rgb(0,0,0)" stroke-width="2"  />
			<g>
				<title>Radical_SAM (PF04055)
"Radical SAM superfamily"</title>
				<polygon class="PF04055" points="349,38 357,28 364,28 364,52 357,52 349,42" stroke-linejoin="round" width="15" height="24" fill="rgb(149,56,222)" stroke="rgb(119,44,177)" stroke-width="1" opacity="0.75" />
			</g>
		</g>
		<g>
			<title> (ctg1_910)</title>
			<polygon class=" (ctg1_910)" points="454,25 408,25 408,10 378,40 408,70 408,55 454,55" fill="rgb(255,255,255)" fill-opacity="1.0" stroke="rgb(0,0,0)" stroke-width="2"  />
			<g>
				<title>Gly_radical (PF01228)
"Glycine radical"</title>
				<polygon class="PF01228" points="382,40 391,31 391,49" stroke-linejoin="round" width="11" height="24" fill="rgb(103,207,173)" stroke="rgb(82,165,138)" stroke-width="1" opacity="0.75" />
			</g>
			<g>
				<title>PFL-like (PF02901)
"Pyruvate formate lyase-like"</title>
				<polygon class="PF02901" points="392,30 394,28 452,28 452,52 394,52 392,50" stroke-linejoin="round" width="60" height="24" fill="rgb(90,117,182)" stroke="rgb(72,93,145)" stroke-width="1" opacity="0.75" />
			</g>
		</g>
		<g>
			<title> (ctg1_911)</title>
			<polygon class=" (ctg1_911)" points="456,40 484,10 484,70" fill="rgb(255,255,255)" fill-opacity="1.0" stroke="rgb(0,0,0)" stroke-width="2"  />
			<g>
				<title>Form_Nir_trans (PF01226)
"Formate/nitrite transporter"</title>
				<polygon class="PF01226" points="460,40 471,28 483,28 483,52 471,52" stroke-linejoin="round" width="26" height="24" fill="rgb(206,55,143)" stroke="rgb(164,44,114)" stroke-width="1" opacity="0.75" />
			</g>
		</g>
		<g>
			<title> (ctg1_912)</title>
			<polygon class=" (ctg1_912)" points="557,25 529,25 529,10 499,40 529,70 529,55 557,55" fill="rgb(255,255,255)" fill-opacity="1.0" stroke="rgb(0,0,0)" stroke-width="2"  />
			<g>
				<title>YcaO_C (PF18381)
"YcaO cyclodehydratase C-terminal domain"</title>
				<polygon class="PF18381" points="503,40 515,28 516,28 516,52 515,52" stroke-linejoin="round" width="17" height="24" fill="rgb(125,91,193)" stroke="rgb(99,72,154)" stroke-width="1" opacity="0.75" />
			</g>
			<g>
				<title>YcaO (PF02624)
"YcaO cyclodehydratase, ATP-ad Mg2+-binding"</title>
				<rect class="PF02624" x="518" y="28" stroke-linejoin="round" width="33" height="24" fill="rgb(76,84,185)" stroke="rgb(60,67,148)" stroke-width="1" opacity="0.75" />
			</g>
		</g>
		<g>
			<title> (ctg1_913)</title>
			<polygon class=" (ctg1_913)" points="571,25 581,25 581,10 611,40 581,70 581,55 571,55" fill="rgb(255,255,255)" fill-opacity="1.0" stroke="rgb(0,0,0)" stroke-width="2"  />
			<g>
				<title>Arm-DNA-bind_3 (PF13356)
"Arm DNA-binding domain"</title>
				<rect class="PF13356" x="571" y="28" stroke-linejoin="round" width="8" height="24" fill="rgb(47,183,132)" stroke="rgb(37,146,105)" stroke-width="1" opacity="0.75" />
			</g>
			<g>
				<title>Phage_integrase (PF00589)
"Phage integrase family"</title>
				<polygon class="PF00589" points="592,28 595,28 607,40 595,52 592,52" stroke-linejoin="round" width="16" height="24" fill="rgb(91,96,195)" stroke="rgb(72,76,156)" stroke-width="1" opacity="0.75" />
			</g>
		</g>
		<g>
			<title> (ctg1_914)</title>
			<polygon class=" (ctg1_914)" points="612,10 638,40 612,70" fill="rgb(255,255,255)" fill-opacity="1.0" stroke="rgb(0,0,0)" stroke-width="2"  />
			<g>
				<title>DUF6387 (PF19924)
"Family of unknown function (DUF6387)"</title>
				<polygon class="PF19924" points="612,28 623,28 634,40 623,52 612,52" stroke-linejoin="round" width="25" height="24" fill="rgb(76,137,215)" stroke="rgb(60,109,172)" stroke-width="1" opacity="0.75" />
			</g>
		</g>
		<g>
			<title> (ctg1_915)</title>
			<polygon class=" (ctg1_915)" points="642,10 652,40 642,70" fill="rgb(255,255,255)" fill-opacity="1.0" stroke="rgb(0,0,0)" stroke-width="2"  />
			<g>
				<title>Phage_AlpA (PF05930)
"Prophage CP4-57 regulatory protein (AlpA)"</title>
				<polygon class="PF05930" points="644,28 644,28 648,40 644,52 644,52" stroke-linejoin="round" width="5" height="24" fill="rgb(127,223,77)" stroke="rgb(101,178,61)" stroke-width="1" opacity="0.75" />
			</g>
		</g>
		<g>
			<title> (ctg1_916)</title>
			<polygon class=" (ctg1_916)" points="652,10 656,40 652,70" fill="rgb(255,255,255)" fill-opacity="1.0" stroke="rgb(0,0,0)" stroke-width="2"  />
		</g>
		<g>
			<title> (ctg1_917)</title>
			<polygon class=" (ctg1_917)" points="656,10 665,40 656,70" fill="rgb(255,255,255)" fill-opacity="1.0" stroke="rgb(0,0,0)" stroke-width="2"  />
			<g>
				<title>Phage_AlpA (PF05930)
"Prophage CP4-57 regulatory protein (AlpA)"</title>
				<polygon class="PF05930" points="658,28 658,28 662,40 658,52 658,52" stroke-linejoin="round" width="5" height="24" fill="rgb(127,223,77)" stroke="rgb(101,178,61)" stroke-width="1" opacity="0.75" />
			</g>
		</g>
		<g>
			<title> (ctg1_918)</title>
			<polygon class=" (ctg1_918)" points="666,10 687,40 666,70" fill="rgb(255,255,255)" fill-opacity="1.0" stroke="rgb(0,0,0)" stroke-width="2"  />
			<g>
				<title>Bro-N (PF02498)
"BRO family, N-terminal domain"</title>
				<polygon class="PF02498" points="669,28 675,28 679,34 679,46 675,52 669,52" stroke-linejoin="round" width="10" height="24" fill="rgb(181,86,159)" stroke="rgb(144,68,127)" stroke-width="1" opacity="0.75" />
			</g>
		</g>
		<g>
			<title> (ctg1_919)</title>
			<polygon class=" (ctg1_919)" points="692,40 698,10 698,70" fill="rgb(255,255,255)" fill-opacity="1.0" stroke="rgb(0,0,0)" stroke-width="2"  />
		</g>
		<g>
			<title> (ctg1_920)</title>
			<polygon class=" (ctg1_920)" points="704,10 713,40 704,70" fill="rgb(255,255,255)" fill-opacity="1.0" stroke="rgb(0,0,0)" stroke-width="2"  />
		</g>
		<g>
			<title> (ctg1_921)</title>
			<polygon class=" (ctg1_921)" points="713,10 720,40 713,70" fill="rgb(255,255,255)" fill-opacity="1.0" stroke="rgb(0,0,0)" stroke-width="2"  />
		</g>
		<g>
			<title> (ctg1_922)</title>
			<polygon class=" (ctg1_922)" points="720,10 727,40 720,70" fill="rgb(255,255,255)" fill-opacity="1.0" stroke="rgb(0,0,0)" stroke-width="2"  />
		</g>
		<g>
			<title> (ctg1_923)</title>
			<polygon class=" (ctg1_923)" points="727,10 731,40 727,70" fill="rgb(255,255,255)" fill-opacity="1.0" stroke="rgb(0,0,0)" stroke-width="2"  />
		</g>
		<g>
			<title> (ctg1_924)</title>
			<polygon class=" (ctg1_924)" points="731,10 736,40 731,70" fill="rgb(255,255,255)" fill-opacity="1.0" stroke="rgb(0,0,0)" stroke-width="2"  />
		</g>
		<g>
			<title> (ctg1_925)</title>
			<polygon class=" (ctg1_925)" points="737,10 744,40 737,70" fill="rgb(255,255,255)" fill-opacity="1.0" stroke="rgb(0,0,0)" stroke-width="2"  />
		</g>
		<g>
			<title> (ctg1_926)</title>
			<polygon class=" (ctg1_926)" points="744,10 768,40 744,70" fill="rgb(255,255,255)" fill-opacity="1.0" stroke="rgb(0,0,0)" stroke-width="2"  />
		</g>
		<g>
			<title> (ctg1_927)</title>
			<polygon class=" (ctg1_927)" points="769,10 779,40 769,70" fill="rgb(255,255,255)" fill-opacity="1.0" stroke="rgb(0,0,0)" stroke-width="2"  />
		</g>
		<g>
			<title> (ctg1_928)</title>
			<polygon class=" (ctg1_928)" points="782,10 794,40 782,70" fill="rgb(255,255,255)" fill-opacity="1.0" stroke="rgb(0,0,0)" stroke-width="2"  />
		</g>
		<g>
			<title> (ctg1_929)</title>
			<polygon class=" (ctg1_929)" points="794,10 814,40 794,70" fill="rgb(255,255,255)" fill-opacity="1.0" stroke="rgb(0,0,0)" stroke-width="2"  />
		</g>
		<g>
			<title> (ctg1_930)</title>
			<polygon class=" (ctg1_930)" points="814,25 853,25 853,10 883,40 853,70 853,55 814,55" fill="rgb(255,255,255)" fill-opacity="1.0" stroke="rgb(0,0,0)" stroke-width="2"  />
			<g>
				<title>DUF927 (PF06048)
"Domain of unknown function (DUF927)"</title>
				<rect class="PF06048" x="828" y="28" stroke-linejoin="round" width="28" height="24" fill="rgb(200,217,60)" stroke="rgb(159,173,47)" stroke-width="1" opacity="0.75" />
			</g>
		</g>
	</g>
</svg>
