<svg version="1.1" baseProfile="full" xmlns="http://www.w3.org/2000/svg" width="757.7" height="80">
	<g>
		<line x1="10" y1="40.0" x2="747.7" y2="40.0" style="stroke:rgb(70,70,70); stroke-width:3 "/>
		<g>
			<title> (ctg2_109)</title>
			<polygon class=" (ctg2_109)" points="37,40 51,10 51,70" fill="rgb(255,255,255)" fill-opacity="1.0" stroke="rgb(0,0,0)" stroke-width="2"  />
			<g>
				<title>MarR_2 (PF12802)
"MarR family"</title>
				<polygon class="PF12802" points="42,36 46,28 48,28 48,52 46,52 42,44" stroke-linejoin="round" width="6" height="24" fill="rgb(46,89,185)" stroke="rgb(36,71,148)" stroke-width="1" opacity="0.75" />
			</g>
		</g>
		<g>
			<title> (ctg2_110)</title>
			<polygon class=" (ctg2_110)" points="104,25 82,25 82,10 52,40 82,70 82,55 104,55" fill="rgb(255,255,255)" fill-opacity="1.0" stroke="rgb(0,0,0)" stroke-width="2"  />
			<g>
				<title>OEP (PF02321)
"Outer membrane efflux protein"</title>
				<polygon class="PF02321" points="56,40 68,28 72,28 72,52 68,52" stroke-linejoin="round" width="19" height="24" fill="rgb(205,57,201)" stroke="rgb(164,45,160)" stroke-width="1" opacity="0.75" />
			</g>
			<g>
				<title>OEP (PF02321)
"Outer membrane efflux protein"</title>
				<rect class="PF02321" x="75" y="28" stroke-linejoin="round" width="19" height="24" fill="rgb(205,57,201)" stroke="rgb(164,45,160)" stroke-width="1" opacity="0.75" />
			</g>
		</g>
		<g>
			<title> (ctg2_111)</title>
			<polygon class=" (ctg2_111)" points="178,25 135,25 135,10 105,40 135,70 135,55 178,55" fill="rgb(255,255,255)" fill-opacity="1.0" stroke="rgb(0,0,0)" stroke-width="2"  />
			<g>
				<title>FUSC (PF04632)
"Fusaric acid resistance protein family"</title>
				<polygon class="PF04632" points="119,30 121,28 158,28 158,52 121,52 119,50" stroke-linejoin="round" width="39" height="24" fill="rgb(191,67,61)" stroke="rgb(152,53,48)" stroke-width="1" opacity="0.75" />
			</g>
		</g>
		<g>
			<title> (ctg2_112)</title>
			<polygon class=" (ctg2_112)" points="212,25 208,25 208,10 178,40 208,70 208,55 212,55" fill="rgb(255,255,255)" fill-opacity="1.0" stroke="rgb(0,0,0)" stroke-width="2"  />
			<g>
				<title>HlyD_3 (PF13437)
"HlyD family secretion protein"</title>
				<polygon class="PF13437" points="182,40 191,31 191,49" stroke-linejoin="round" width="12" height="24" fill="rgb(82,200,102)" stroke="rgb(65,160,81)" stroke-width="1" opacity="0.75" />
			</g>
			<g>
				<title>Biotin_lipoyl_2 (PF13533)
"Biotin-lipoyl like"</title>
				<rect class="PF13533" x="202" y="28" stroke-linejoin="round" width="5" height="24" fill="rgb(229,122,112)" stroke="rgb(183,97,89)" stroke-width="1" opacity="0.75" />
			</g>
		</g>
		<g>
			<title> (ctg2_113)</title>
			<polygon class=" (ctg2_113)" points="213,40 222,10 222,70" fill="rgb(255,255,255)" fill-opacity="1.0" stroke="rgb(0,0,0)" stroke-width="2"  />
			<g>
				<title>Ytca (PF17090)
"YtcA family"</title>
				<polygon class="PF17090" points="216,40 219,31 219,49" stroke-linejoin="round" width="6" height="24" fill="rgb(58,193,77)" stroke="rgb(46,154,61)" stroke-width="1" opacity="0.75" />
			</g>
		</g>
		<g>
			<title> (ctg2_114)</title>
			<polygon class=" (ctg2_114)" points="234,40 255,10 255,70" fill="rgb(255,255,255)" fill-opacity="1.0" stroke="rgb(0,0,0)" stroke-width="2"  />
			<g>
				<title>Maf (PF02545)
"Maf-like protein"</title>
				<polygon class="PF02545" points="238,40 246,28 253,28 253,52 246,52" stroke-linejoin="round" width="19" height="24" fill="rgb(116,184,91)" stroke="rgb(92,147,72)" stroke-width="1" opacity="0.75" />
			</g>
		</g>
		<g>
			<title> (ctg2_115)</title>
			<polygon class=" (ctg2_115)" points="255,25 270,25 270,10 300,40 270,70 270,55 255,55" fill="rgb(255,255,255)" fill-opacity="1.0" stroke="rgb(0,0,0)" stroke-width="2"  />
			<g>
				<title>URO-D (PF01208)
"Uroporphyrinogen decarboxylase (URO-D)"</title>
				<polygon class="PF01208" points="266,28 284,28 296,40 284,52 266,52" stroke-linejoin="round" width="34" height="24" fill="rgb(186,206,58)" stroke="rgb(148,164,46)" stroke-width="1" opacity="0.75" />
			</g>
		</g>
		<g>
			<title> (ctg2_116)</title>
			<polygon class=" (ctg2_116)" points="301,10 324,40 301,70" fill="rgb(255,255,255)" fill-opacity="1.0" stroke="rgb(0,0,0)" stroke-width="2"  />
			<g>
				<title>HAD_2 (PF13419)
"Haloacid dehalogenase-like hydrolase"</title>
				<polygon class="PF13419" points="302,28 311,28 320,40 320,40 311,52 302,52" stroke-linejoin="round" width="18" height="24" fill="rgb(60,223,188)" stroke="rgb(48,178,150)" stroke-width="1" opacity="0.75" />
			</g>
		</g>
		<g>
			<title> (ctg2_117)</title>
			<polygon class=" (ctg2_117)" points="324,10 339,40 324,70" fill="rgb(255,255,255)" fill-opacity="1.0" stroke="rgb(0,0,0)" stroke-width="2"  />
			<g>
				<title>UPF0093 (PF03653)
"Uncharacterised protein family (UPF0093)"</title>
				<polygon class="PF03653" points="324,28 329,28 335,40 329,52 324,52" stroke-linejoin="round" width="14" height="24" fill="rgb(144,220,103)" stroke="rgb(115,176,82)" stroke-width="1" opacity="0.75" />
			</g>
		</g>
		<g>
			<title> (ctg2_118)</title>
			<polygon class=" (ctg2_118)" points="379,25 373,25 373,10 343,40 373,70 373,55 379,55" fill="rgb(255,255,255)" fill-opacity="1.0" stroke="rgb(0,0,0)" stroke-width="2"  />
			<g>
				<title>SPASM (PF13186)
"Iron-sulfur cluster-binding domain"</title>
				<polygon class="PF13186" points="348,39 354,33 354,47 348,41" stroke-linejoin="round" width="6" height="24" fill="rgb(183,66,65)" stroke="rgb(146,52,51)" stroke-width="1" opacity="0.75" />
			</g>
			<g>
				<title>Radical_SAM (PF04055)
"Radical SAM superfamily"</title>
				<rect class="PF04055" x="362" y="28" stroke-linejoin="round" width="15" height="24" fill="rgb(149,56,222)" stroke="rgb(119,44,177)" stroke-width="1" opacity="0.75" />
			</g>
		</g>
		<g>
			<title> (ctg2_119)</title>
			<polygon class=" (ctg2_119)" points="379,40 389,10 389,70" fill="rgb(255,255,255)" fill-opacity="1.0" stroke="rgb(0,0,0)" stroke-width="2"  />
			<g>
				<title>PqqD (PF05402)
"Coenzyme PQQ synthesis protein D (PqqD)"</title>
				<polygon class="PF05402" points="382,40 386,28 386,28 386,52 386,52" stroke-linejoin="round" width="6" height="24" fill="rgb(124,62,188)" stroke="rgb(99,49,150)" stroke-width="1" opacity="0.75" />
			</g>
		</g>
		<g>
			<title> (ctg2_120)</title>
			<polygon class=" (ctg2_120)" points="389,40 413,10 413,70" fill="rgb(255,255,255)" fill-opacity="1.0" stroke="rgb(0,0,0)" stroke-width="2"  />
			<g>
				<title>TENA_THI-4 (PF03070)
"TENA/THI-4/PQQC family"</title>
				<polygon class="PF03070" points="393,40 403,28 412,28 412,52 403,52" stroke-linejoin="round" width="21" height="24" fill="rgb(95,149,219)" stroke="rgb(76,119,175)" stroke-width="1" opacity="0.75" />
			</g>
		</g>
		<g>
			<title> (ctg2_121)</title>
			<polygon class=" (ctg2_121)" points="444,25 444,25 444,10 414,40 444,70 444,55 444,55" fill="rgb(255,255,255)" fill-opacity="1.0" stroke="rgb(0,0,0)" stroke-width="2"  />
			<g>
				<title>Lactamase_B_2 (PF12706)
"Beta-lactamase superfamily domain"</title>
				<polygon class="PF12706" points="418,40 430,28 438,28 438,52 430,52" stroke-linejoin="round" width="21" height="24" fill="rgb(62,169,197)" stroke="rgb(49,135,157)" stroke-width="1" opacity="0.75" />
			</g>
		</g>
		<g>
			<title> (ctg2_122)</title>
			<polygon class=" (ctg2_122)" points="457,25 471,25 471,10 501,40 471,70 471,55 457,55" fill="rgb(255,255,255)" fill-opacity="1.0" stroke="rgb(0,0,0)" stroke-width="2"  />
			<g>
				<title>AI-2E_transport (PF01594)
"AI-2E family transporter"</title>
				<polygon class="PF01594" points="464,28 484,28 496,40 484,52 464,52" stroke-linejoin="round" width="33" height="24" fill="rgb(226,96,145)" stroke="rgb(180,76,116)" stroke-width="1" opacity="0.75" />
			</g>
		</g>
		<g>
			<title> (ctg2_123)</title>
			<polygon class=" (ctg2_123)" points="510,10 537,40 510,70" fill="rgb(255,255,255)" fill-opacity="1.0" stroke="rgb(0,0,0)" stroke-width="2"  />
			<g>
				<title>adh_short_C2 (PF13561)
"Enoyl-(Acyl carrier protein) reductase"</title>
				<polygon class="PF13561" points="510,28 521,28 523,29 523,51 521,52 510,52" stroke-linejoin="round" width="13" height="24" fill="rgb(73,205,127)" stroke="rgb(58,164,101)" stroke-width="1" opacity="0.75" />
			</g>
			<g>
				<title>adh_short_C2 (PF13561)
"Enoyl-(Acyl carrier protein) reductase"</title>
				<polygon class="PF13561" points="525,32 533,40 525,48" stroke-linejoin="round" width="11" height="24" fill="rgb(73,205,127)" stroke="rgb(58,164,101)" stroke-width="1" opacity="0.75" />
			</g>
		</g>
		<g>
			<title> (ctg2_124)</title>
			<polygon class=" (ctg2_124)" points="546,25 554,25 554,10 584,40 554,70 554,55 546,55" fill="rgb(255,255,255)" fill-opacity="1.0" stroke="rgb(0,0,0)" stroke-width="2"  />
			<g>
				<title>HlyD_D23 (PF16576)
"Barrel-sandwich domain of CusB or HlyD membrane-fusion"</title>
				<polygon class="PF16576" points="553,28 567,28 576,37 576,43 567,52 553,52" stroke-linejoin="round" width="23" height="24" fill="rgb(70,190,92)" stroke="rgb(56,152,73)" stroke-width="1" opacity="0.75" />
			</g>
		</g>
		<g>
			<title> (ctg2_125)</title>
			<polygon class=" (ctg2_125)" points="586,25 659,25 659,10 689,40 659,70 659,55 586,55" fill="rgb(255,255,255)" fill-opacity="1.0" stroke="rgb(0,0,0)" stroke-width="2"  />
			<g>
				<title>ACR_tran (PF00873)
"AcrB/AcrD/AcrF family"</title>
				<polygon class="PF00873" points="586,28 672,28 684,40 672,52 586,52" stroke-linejoin="round" width="101" height="24" fill="rgb(63,191,60)" stroke="rgb(50,152,48)" stroke-width="1" opacity="0.75" />
			</g>
		</g>
		<g>
			<title> (ctg2_126)</title>
			<polygon class=" (ctg2_126)" points="689,25 709,25 709,10 739,40 709,70 709,55 689,55" fill="rgb(255,255,255)" fill-opacity="1.0" stroke="rgb(0,0,0)" stroke-width="2"  />
			<g>
				<title>OEP (PF02321)
"Outer membrane efflux protein"</title>
				<rect class="PF02321" x="696" y="28" stroke-linejoin="round" width="19" height="24" fill="rgb(205,57,201)" stroke="rgb(164,45,160)" stroke-width="1" opacity="0.75" />
			</g>
			<g>
				<title>OEP (PF02321)
"Outer membrane efflux protein"</title>
				<polygon class="PF02321" points="718,28 722,28 734,40 722,52 718,52" stroke-linejoin="round" width="18" height="24" fill="rgb(205,57,201)" stroke="rgb(164,45,160)" stroke-width="1" opacity="0.75" />
			</g>
		</g>
	</g>
</svg>
