<svg version="1.1" baseProfile="full" xmlns="http://www.w3.org/2000/svg" width="420.96666666666664" height="80">
	<g>
		<line x1="10" y1="40.0" x2="410.96666666666664" y2="40.0" style="stroke:rgb(70,70,70); stroke-width:3 "/>
		<g>
			<title> (ctg144_1)</title>
			<polygon class=" (ctg144_1)" points="10,25 75,25 75,10 105,40 75,70 75,55 10,55" fill="rgb(255,255,255)" fill-opacity="1.0" stroke="rgb(0,0,0)" stroke-width="2"  />
			<g>
				<title>Condensation (PF00668)
"Condensation domain"</title>
				<rect class="PF00668" x="10" y="28" stroke-linejoin="round" width="8" height="24" fill="rgb(224,184,98)" stroke="rgb(179,147,78)" stroke-width="1" opacity="0.75" />
			</g>
			<g>
				<title>AMP-binding (PF00501)
"AMP-binding enzyme"</title>
				<rect class="PF00501" x="20" y="28" stroke-linejoin="round" width="39" height="24" fill="rgb(60,217,223)" stroke="rgb(48,173,178)" stroke-width="1" opacity="0.75" />
			</g>
			<g>
				<title>AMP-binding_C (PF13193)
"AMP-binding enzyme C-terminal domain"</title>
				<rect class="PF13193" x="61" y="28" stroke-linejoin="round" width="7" height="24" fill="rgb(182,50,118)" stroke="rgb(145,39,94)" stroke-width="1" opacity="0.75" />
			</g>
			<g>
				<title>PP-binding (PF00550)
"Phosphopantetheine attachment site"</title>
				<rect class="PF00550" x="71" y="28" stroke-linejoin="round" width="6" height="24" fill="rgb(103,191,88)" stroke="rgb(82,152,70)" stroke-width="1" opacity="0.75" />
			</g>
			<g>
				<title>Thioesterase (PF00975)
"Thioesterase domain"</title>
				<polygon class="PF00975" points="80,28 88,28 100,40 88,52 80,52" stroke-linejoin="round" width="23" height="24" fill="rgb(207,80,138)" stroke="rgb(165,63,110)" stroke-width="1" opacity="0.75" />
			</g>
		</g>
		<g>
			<title> (ctg144_2)</title>
			<polygon class=" (ctg144_2)" points="115,10 138,40 115,70" fill="rgb(255,255,255)" fill-opacity="1.0" stroke="rgb(0,0,0)" stroke-width="2"  />
			<g>
				<title>ACPS (PF01648)
"4'-phosphopantetheinyl transferase superfamily"</title>
				<polygon class="PF01648" points="124,28 125,28 134,40 134,40 125,52 124,52" stroke-linejoin="round" width="10" height="24" fill="rgb(85,184,135)" stroke="rgb(68,147,108)" stroke-width="1" opacity="0.75" />
			</g>
		</g>
		<g>
			<title> (ctg144_3)</title>
			<polygon class=" (ctg144_3)" points="138,10 162,40 138,70" fill="rgb(255,255,255)" fill-opacity="1.0" stroke="rgb(0,0,0)" stroke-width="2"  />
			<g>
				<title>Thioesterase (PF00975)
"Thioesterase domain"</title>
				<polygon class="PF00975" points="138,28 148,28 158,40 148,52 138,52" stroke-linejoin="round" width="22" height="24" fill="rgb(207,80,138)" stroke="rgb(165,63,110)" stroke-width="1" opacity="0.75" />
			</g>
		</g>
		<g>
			<title> (ctg144_4)</title>
			<polygon class=" (ctg144_4)" points="212,10 221,40 212,70" fill="rgb(255,255,255)" fill-opacity="1.0" stroke="rgb(0,0,0)" stroke-width="2"  />
		</g>
		<g>
			<title> (ctg144_5)</title>
			<polygon class=" (ctg144_5)" points="219,40 238,10 238,70" fill="rgb(255,255,255)" fill-opacity="1.0" stroke="rgb(0,0,0)" stroke-width="2"  />
			<g>
				<title>Erythro_esteras (PF05139)
"Erythromycin esterase"</title>
				<polygon class="PF05139" points="223,40 231,28 238,28 238,52 231,52" stroke-linejoin="round" width="19" height="24" fill="rgb(64,208,71)" stroke="rgb(51,166,56)" stroke-width="1" opacity="0.75" />
			</g>
		</g>
		<g>
			<title> (ctg144_6)</title>
			<polygon class=" (ctg144_6)" points="256,10 277,40 256,70" fill="rgb(255,255,255)" fill-opacity="1.0" stroke="rgb(0,0,0)" stroke-width="2"  />
			<g>
				<title>Lysozyme_like (PF13702)
"Lysozyme-like"</title>
				<polygon class="PF13702" points="260,28 265,28 273,40 265,52 260,52" stroke-linejoin="round" width="15" height="24" fill="rgb(186,63,104)" stroke="rgb(148,50,83)" stroke-width="1" opacity="0.75" />
			</g>
		</g>
		<g>
			<title> (ctg144_7)</title>
			<polygon class=" (ctg144_7)" points="288,10 304,40 288,70" fill="rgb(255,255,255)" fill-opacity="1.0" stroke="rgb(0,0,0)" stroke-width="2"  />
			<g>
				<title>Acetyltransf_3 (PF13302)
"Acetyltransferase (GNAT) domain"</title>
				<polygon class="PF13302" points="288,28 294,28 301,40 301,40 294,52 288,52" stroke-linejoin="round" width="13" height="24" fill="rgb(105,146,215)" stroke="rgb(84,116,172)" stroke-width="1" opacity="0.75" />
			</g>
		</g>
		<g>
			<title> (ctg144_8)</title>
			<polygon class=" (ctg144_8)" points="317,40 323,10 323,70" fill="rgb(255,255,255)" fill-opacity="1.0" stroke="rgb(0,0,0)" stroke-width="2"  />
		</g>
		<g>
			<title> (ctg144_9)</title>
			<polygon class=" (ctg144_9)" points="353,25 371,25 371,10 401,40 371,70 371,55 353,55" fill="rgb(255,255,255)" fill-opacity="1.0" stroke="rgb(0,0,0)" stroke-width="2"  />
			<g>
				<title>SLH (PF00395)
"S-layer homology domain"</title>
				<rect class="PF00395" x="356" y="28" stroke-linejoin="round" width="4" height="24" fill="rgb(106,215,138)" stroke="rgb(84,172,110)" stroke-width="1" opacity="0.75" />
			</g>
			<g>
				<title>SLH (PF00395)
"S-layer homology domain"</title>
				<rect class="PF00395" x="362" y="28" stroke-linejoin="round" width="4" height="24" fill="rgb(106,215,138)" stroke="rgb(84,172,110)" stroke-width="1" opacity="0.75" />
			</g>
			<g>
				<title>SLH (PF00395)
"S-layer homology domain"</title>
				<rect class="PF00395" x="368" y="28" stroke-linejoin="round" width="4" height="24" fill="rgb(106,215,138)" stroke="rgb(84,172,110)" stroke-width="1" opacity="0.75" />
			</g>
			<g>
				<title>Glucosaminidase (PF01832)
"Mannosyl-glycoprotein endo-beta-N-acetylglucosaminidase"</title>
				<polygon class="PF01832" points="378,28 384,28 389,33 389,47 384,52 378,52" stroke-linejoin="round" width="11" height="24" fill="rgb(170,195,97)" stroke="rgb(136,156,77)" stroke-width="1" opacity="0.75" />
			</g>
		</g>
		<g>
			<title> (ctg144_10)</title>
			<polygon class=" (ctg144_10)" points="405,40 410,10 410,70" fill="rgb(255,255,255)" fill-opacity="1.0" stroke="rgb(0,0,0)" stroke-width="2"  />
		</g>
	</g>
</svg>
