<svg version="1.1" baseProfile="full" xmlns="http://www.w3.org/2000/svg" width="716.0666666666667" height="80">
	<g>
		<line x1="10" y1="40.0" x2="706.0666666666667" y2="40.0" style="stroke:rgb(70,70,70); stroke-width:3 "/>
		<g>
			<title> (ctg2_299)</title>
			<polygon class=" (ctg2_299)" points="13,25 155,25 155,10 185,40 155,70 155,55 13,55" fill="rgb(255,255,255)" fill-opacity="1.0" stroke="rgb(0,0,0)" stroke-width="2"  />
			<g>
				<title>DUF87 (PF01935)
"Helicase HerA, central domain"</title>
				<polygon class="PF01935" points="150,28 169,28 171,30 171,50 169,52 150,52" stroke-linejoin="round" width="21" height="24" fill="rgb(212,130,95)" stroke="rgb(169,104,76)" stroke-width="1" opacity="0.75" />
			</g>
		</g>
		<g>
			<title> (ctg2_300)</title>
			<polygon class=" (ctg2_300)" points="205,40 219,10 219,70" fill="rgb(255,255,255)" fill-opacity="1.0" stroke="rgb(0,0,0)" stroke-width="2"  />
			<g>
				<title>ABM (PF03992)
"Antibiotic biosynthesis monooxygenase"</title>
				<polygon class="PF03992" points="208,40 214,28 214,28 214,52 214,52" stroke-linejoin="round" width="7" height="24" fill="rgb(193,84,127)" stroke="rgb(154,67,101)" stroke-width="1" opacity="0.75" />
			</g>
		</g>
		<g>
			<title> (ctg2_301)</title>
			<polygon class=" (ctg2_301)" points="266,25 251,25 251,10 221,40 251,70 251,55 266,55" fill="rgb(255,255,255)" fill-opacity="1.0" stroke="rgb(0,0,0)" stroke-width="2"  />
			<g>
				<title>FAD_binding_7 (PF03441)
"FAD binding domain of DNA photolyase"</title>
				<polygon class="PF03441" points="225,40 237,28 241,28 241,52 237,52" stroke-linejoin="round" width="20" height="24" fill="rgb(206,143,93)" stroke="rgb(164,114,74)" stroke-width="1" opacity="0.75" />
			</g>
			<g>
				<title>DNA_photolyase (PF00875)
"DNA photolyase"</title>
				<rect class="PF00875" x="250" y="28" stroke-linejoin="round" width="15" height="24" fill="rgb(87,58,223)" stroke="rgb(69,46,178)" stroke-width="1" opacity="0.75" />
			</g>
		</g>
		<g>
			<title> (ctg2_302)</title>
			<polygon class=" (ctg2_302)" points="273,10 287,40 273,70" fill="rgb(255,255,255)" fill-opacity="1.0" stroke="rgb(0,0,0)" stroke-width="2"  />
			<g>
				<title>Putative_PNPOx (PF01243)
"Pyridoxamine 5'-phosphate oxidase"</title>
				<polygon class="PF01243" points="273,28 278,28 281,34 281,46 278,52 273,52" stroke-linejoin="round" width="8" height="24" fill="rgb(177,193,67)" stroke="rgb(141,154,53)" stroke-width="1" opacity="0.75" />
			</g>
		</g>
		<g>
			<title> (ctg2_303)</title>
			<polygon class=" (ctg2_303)" points="343,25 323,25 323,10 293,40 323,70 323,55 343,55" fill="rgb(255,255,255)" fill-opacity="1.0" stroke="rgb(0,0,0)" stroke-width="2"  />
			<g>
				<title>Amino_oxidase (PF01593)
"Flavin containing amine oxidoreductase"</title>
				<polygon class="PF01593" points="297,40 309,28 341,28 341,52 309,52" stroke-linejoin="round" width="48" height="24" fill="rgb(184,74,52)" stroke="rgb(147,59,41)" stroke-width="1" opacity="0.75" />
			</g>
		</g>
		<g>
			<title> (ctg2_304)</title>
			<polygon class=" (ctg2_304)" points="343,40 372,10 372,70" fill="rgb(255,255,255)" fill-opacity="1.0" stroke="rgb(0,0,0)" stroke-width="2"  />
			<g>
				<title>SQS_PSY (PF00494)
"Squalene/phytoene synthase"</title>
				<polygon class="PF00494" points="347,40 359,28 370,28 370,52 359,52" stroke-linejoin="round" width="26" height="24" fill="rgb(178,91,49)" stroke="rgb(142,72,39)" stroke-width="1" opacity="0.75" />
			</g>
		</g>
		<g>
			<title> (ctg2_305)</title>
			<polygon class=" (ctg2_305)" points="410,25 404,25 404,10 374,40 404,70 404,55 410,55" fill="rgb(255,255,255)" fill-opacity="1.0" stroke="rgb(0,0,0)" stroke-width="2"  />
			<g>
				<title>Glycos_transf_2 (PF00535)
"Glycosyl transferase family 2"</title>
				<rect class="PF00535" x="391" y="28" stroke-linejoin="round" width="15" height="24" fill="rgb(224,122,96)" stroke="rgb(179,97,76)" stroke-width="1" opacity="0.75" />
			</g>
		</g>
		<g>
			<title> (ctg2_306)</title>
			<polygon class=" (ctg2_306)" points="460,25 441,25 441,10 411,40 441,70 441,55 460,55" fill="rgb(255,255,255)" fill-opacity="1.0" stroke="rgb(0,0,0)" stroke-width="2"  />
			<g>
				<title>Amino_oxidase (PF01593)
"Flavin containing amine oxidoreductase"</title>
				<rect class="PF01593" x="428" y="28" stroke-linejoin="round" width="30" height="24" fill="rgb(184,74,52)" stroke="rgb(147,59,41)" stroke-width="1" opacity="0.75" />
			</g>
		</g>
		<g>
			<title> (ctg2_307)</title>
			<polygon class=" (ctg2_307)" points="461,40 476,10 476,70" fill="rgb(255,255,255)" fill-opacity="1.0" stroke="rgb(0,0,0)" stroke-width="2"  />
			<g>
				<title>CrtO (PF18927)
"Glycosyl-4,4'-diaponeurosporenoate acyltransferase"</title>
				<polygon class="PF18927" points="464,40 470,28 472,28 472,52 470,52" stroke-linejoin="round" width="11" height="24" fill="rgb(191,73,226)" stroke="rgb(152,58,180)" stroke-width="1" opacity="0.75" />
			</g>
		</g>
		<g>
			<title> (ctg2_308)</title>
			<polygon class=" (ctg2_308)" points="477,40 493,10 493,70" fill="rgb(255,255,255)" fill-opacity="1.0" stroke="rgb(0,0,0)" stroke-width="2"  />
			<g>
				<title>TspO_MBR (PF03073)
"TspO/MBR family"</title>
				<polygon class="PF03073" points="480,40 487,28 492,28 492,52 487,52" stroke-linejoin="round" width="14" height="24" fill="rgb(191,88,103)" stroke="rgb(152,70,82)" stroke-width="1" opacity="0.75" />
			</g>
		</g>
		<g>
			<title> (ctg2_309)</title>
			<polygon class=" (ctg2_309)" points="545,25 525,25 525,10 495,40 525,70 525,55 545,55" fill="rgb(255,255,255)" fill-opacity="1.0" stroke="rgb(0,0,0)" stroke-width="2"  />
			<g>
				<title>Epimerase (PF01370)
"NAD dependent epimerase/dehydratase family"</title>
				<rect class="PF01370" x="531" y="28" stroke-linejoin="round" width="12" height="24" fill="rgb(98,102,214)" stroke="rgb(78,81,171)" stroke-width="1" opacity="0.75" />
			</g>
		</g>
		<g>
			<title> (ctg2_310)</title>
			<polygon class=" (ctg2_310)" points="560,40 573,10 573,70" fill="rgb(255,255,255)" fill-opacity="1.0" stroke="rgb(0,0,0)" stroke-width="2"  />
		</g>
		<g>
			<title> (ctg2_311)</title>
			<polygon class=" (ctg2_311)" points="583,40 595,10 595,70" fill="rgb(255,255,255)" fill-opacity="1.0" stroke="rgb(0,0,0)" stroke-width="2"  />
		</g>
		<g>
			<title> (ctg2_312)</title>
			<polygon class=" (ctg2_312)" points="629,25 626,25 626,10 596,40 626,70 626,55 629,55" fill="rgb(255,255,255)" fill-opacity="1.0" stroke="rgb(0,0,0)" stroke-width="2"  />
			<g>
				<title>ADH_zinc_N (PF00107)
"Zinc-binding dehydrogenase"</title>
				<polygon class="PF00107" points="600,40 612,28 613,28 613,52 612,52 600,40" stroke-linejoin="round" width="13" height="24" fill="rgb(81,108,215)" stroke="rgb(64,86,172)" stroke-width="1" opacity="0.75" />
			</g>
			<g>
				<title>ADH_N_2 (PF16884)
"N-terminal domain of oxidoreductase"</title>
				<rect class="PF16884" x="618" y="28" stroke-linejoin="round" width="10" height="24" fill="rgb(185,119,52)" stroke="rgb(148,95,41)" stroke-width="1" opacity="0.75" />
			</g>
		</g>
		<g>
			<title> (ctg2_313)</title>
			<polygon class=" (ctg2_313)" points="629,40 651,10 651,70" fill="rgb(255,255,255)" fill-opacity="1.0" stroke="rgb(0,0,0)" stroke-width="2"  />
			<g>
				<title>NAD_binding_10 (PF13460)
"NAD(P)H-binding"</title>
				<polygon class="PF13460" points="633,40 642,28 649,28 649,52 642,52" stroke-linejoin="round" width="18" height="24" fill="rgb(188,201,78)" stroke="rgb(150,160,62)" stroke-width="1" opacity="0.75" />
			</g>
		</g>
		<g>
			<title> (ctg2_314)</title>
			<polygon class=" (ctg2_314)" points="652,40 674,10 674,70" fill="rgb(255,255,255)" fill-opacity="1.0" stroke="rgb(0,0,0)" stroke-width="2"  />
			<g>
				<title>DJ-1_PfpI (PF01965)
"DJ-1/PfpI family"</title>
				<polygon class="PF01965" points="656,40 665,28 672,28 672,52 665,52" stroke-linejoin="round" width="20" height="24" fill="rgb(66,224,145)" stroke="rgb(52,179,116)" stroke-width="1" opacity="0.75" />
			</g>
		</g>
		<g>
			<title> (ctg2_315)</title>
			<polygon class=" (ctg2_315)" points="678,10 689,40 678,70" fill="rgb(255,255,255)" fill-opacity="1.0" stroke="rgb(0,0,0)" stroke-width="2"  />
			<g>
				<title>MerR_1 (PF13411)
"MerR HTH family regulatory protein"</title>
				<polygon class="PF13411" points="678,28 681,28 684,34 684,46 681,52 678,52" stroke-linejoin="round" width="6" height="24" fill="rgb(100,202,107)" stroke="rgb(80,161,85)" stroke-width="1" opacity="0.75" />
			</g>
		</g>
	</g>
</svg>
