<svg version="1.1" baseProfile="full" xmlns="http://www.w3.org/2000/svg" width="1152.4" height="80">
	<g>
		<line x1="10" y1="40.0" x2="1142.4" y2="40.0" style="stroke:rgb(70,70,70); stroke-width:3 "/>
		<g>
			<title> (ctg5_112)</title>
			<polygon class=" (ctg5_112)" points="11,40 36,10 36,70" fill="rgb(255,255,255)" fill-opacity="1.0" stroke="rgb(0,0,0)" stroke-width="2"  />
			<g>
				<title>BCA_ABC_TP_C (PF12399)
"Branched-chain amino acid ATP-binding cassette transporter"</title>
				<polygon class="PF12399" points="15,40 13,42 13,38" stroke-linejoin="round" width="2" height="24" fill="rgb(205,68,53)" stroke="rgb(164,54,42)" stroke-width="1" opacity="0.75" />
			</g>
			<g>
				<title>ABC_tran (PF00005)
"ABC transporter"</title>
				<polygon class="PF00005" points="18,36 25,28 33,28 33,52 25,52 18,44" stroke-linejoin="round" width="15" height="24" fill="rgb(129,201,63)" stroke="rgb(103,160,50)" stroke-width="1" opacity="0.75" />
			</g>
		</g>
		<g>
			<title> (ctg5_113)</title>
			<polygon class=" (ctg5_113)" points="37,40 63,10 63,70" fill="rgb(255,255,255)" fill-opacity="1.0" stroke="rgb(0,0,0)" stroke-width="2"  />
			<g>
				<title>adh_short_C2 (PF13561)
"Enoyl-(Acyl carrier protein) reductase"</title>
				<polygon class="PF13561" points="41,40 51,28 60,28 60,52 51,52" stroke-linejoin="round" width="23" height="24" fill="rgb(73,205,127)" stroke="rgb(58,164,101)" stroke-width="1" opacity="0.75" />
			</g>
		</g>
		<g>
			<title> (ctg5_114)</title>
			<polygon class=" (ctg5_114)" points="70,10 83,40 70,70" fill="rgb(255,255,255)" fill-opacity="1.0" stroke="rgb(0,0,0)" stroke-width="2"  />
			<g>
				<title>Cupin_7 (PF12973)
"ChrR Cupin-like domain"</title>
				<polygon class="PF12973" points="72,28 74,28 80,40 80,40 74,52 72,52" stroke-linejoin="round" width="8" height="24" fill="rgb(121,57,179)" stroke="rgb(96,45,143)" stroke-width="1" opacity="0.75" />
			</g>
		</g>
		<g>
			<title> (ctg5_115)</title>
			<polygon class=" (ctg5_115)" points="86,25 96,25 96,10 126,40 96,70 96,55 86,55" fill="rgb(255,255,255)" fill-opacity="1.0" stroke="rgb(0,0,0)" stroke-width="2"  />
			<g>
				<title>Peripla_BP_6 (PF13458)
"Periplasmic binding protein"</title>
				<polygon class="PF13458" points="88,28 110,28 122,40 122,40 110,52 88,52" stroke-linejoin="round" width="34" height="24" fill="rgb(94,183,81)" stroke="rgb(75,146,64)" stroke-width="1" opacity="0.75" />
			</g>
		</g>
		<g>
			<title> (ctg5_116)</title>
			<polygon class=" (ctg5_116)" points="126,10 151,40 126,70" fill="rgb(255,255,255)" fill-opacity="1.0" stroke="rgb(0,0,0)" stroke-width="2"  />
			<g>
				<title>adh_short_C2 (PF13561)
"Enoyl-(Acyl carrier protein) reductase"</title>
				<polygon class="PF13561" points="127,28 137,28 147,40 137,52 127,52" stroke-linejoin="round" width="23" height="24" fill="rgb(73,205,127)" stroke="rgb(58,164,101)" stroke-width="1" opacity="0.75" />
			</g>
		</g>
		<g>
			<title> (ctg5_117)</title>
			<polygon class=" (ctg5_117)" points="152,10 179,40 152,70" fill="rgb(255,255,255)" fill-opacity="1.0" stroke="rgb(0,0,0)" stroke-width="2"  />
			<g>
				<title>HTH_IclR (PF09339)
"IclR helix-turn-helix domain"</title>
				<rect class="PF09339" x="152" y="28" stroke-linejoin="round" width="5" height="24" fill="rgb(135,102,222)" stroke="rgb(108,81,177)" stroke-width="1" opacity="0.75" />
			</g>
			<g>
				<title>IclR (PF01614)
"Bacterial transcriptional regulator"</title>
				<polygon class="PF01614" points="163,28 164,28 175,40 175,40 164,52 163,52" stroke-linejoin="round" width="12" height="24" fill="rgb(58,93,180)" stroke="rgb(46,74,144)" stroke-width="1" opacity="0.75" />
			</g>
		</g>
		<g>
			<title> (ctg5_118)</title>
			<polygon class=" (ctg5_118)" points="180,40 197,10 197,70" fill="rgb(255,255,255)" fill-opacity="1.0" stroke="rgb(0,0,0)" stroke-width="2"  />
			<g>
				<title>Pyrophosphatase (PF00719)
"Inorganic pyrophosphatase"</title>
				<polygon class="PF00719" points="183,40 190,28 195,28 195,52 190,52" stroke-linejoin="round" width="15" height="24" fill="rgb(225,122,111)" stroke="rgb(180,97,88)" stroke-width="1" opacity="0.75" />
			</g>
		</g>
		<g>
			<title> (ctg5_119)</title>
			<polygon class=" (ctg5_119)" points="253,25 229,25 229,10 199,40 229,70 229,55 253,55" fill="rgb(255,255,255)" fill-opacity="1.0" stroke="rgb(0,0,0)" stroke-width="2"  />
			<g>
				<title>HemY_N (PF07219)
"HemY protein N-terminus"</title>
				<rect class="PF07219" x="239" y="28" stroke-linejoin="round" width="10" height="24" fill="rgb(82,162,225)" stroke="rgb(65,129,180)" stroke-width="1" opacity="0.75" />
			</g>
		</g>
		<g>
			<title> (ctg5_120)</title>
			<polygon class=" (ctg5_120)" points="292,25 283,25 283,10 253,40 283,70 283,55 292,55" fill="rgb(255,255,255)" fill-opacity="1.0" stroke="rgb(0,0,0)" stroke-width="2"  />
			<g>
				<title>HemX (PF04375)
"HemX, putative uroporphyrinogen-III C-methyltransferase"</title>
				<polygon class="PF04375" points="257,40 269,28 278,28 278,52 269,52" stroke-linejoin="round" width="25" height="24" fill="rgb(106,74,218)" stroke="rgb(84,59,174)" stroke-width="1" opacity="0.75" />
			</g>
		</g>
		<g>
			<title> (ctg5_121)</title>
			<polygon class=" (ctg5_121)" points="294,40 321,10 321,70" fill="rgb(255,255,255)" fill-opacity="1.0" stroke="rgb(0,0,0)" stroke-width="2"  />
			<g>
				<title>HEM4 (PF02602)
"Uroporphyrinogen-III synthase HemD"</title>
				<polygon class="PF02602" points="298,40 309,28 318,28 318,52 309,52" stroke-linejoin="round" width="22" height="24" fill="rgb(191,152,50)" stroke="rgb(152,121,39)" stroke-width="1" opacity="0.75" />
			</g>
		</g>
		<g>
			<title> (ctg5_122)</title>
			<polygon class=" (ctg5_122)" points="352,25 351,25 351,10 321,40 351,70 351,55 352,55" fill="rgb(255,255,255)" fill-opacity="1.0" stroke="rgb(0,0,0)" stroke-width="2"  />
			<g>
				<title>Porphobil_deamC (PF03900)
"Porphobilinogen deaminase, C-terminal domain"</title>
				<polygon class="PF03900" points="325,40 329,36 329,44" stroke-linejoin="round" width="7" height="24" fill="rgb(171,104,225)" stroke="rgb(136,83,180)" stroke-width="1" opacity="0.75" />
			</g>
			<g>
				<title>Porphobil_deam (PF01379)
"Porphobilinogen deaminase, dipyromethane cofactor binding domain"</title>
				<polygon class="PF01379" points="331,34 337,28 351,28 351,52 337,52 331,46" stroke-linejoin="round" width="20" height="24" fill="rgb(172,226,73)" stroke="rgb(137,180,58)" stroke-width="1" opacity="0.75" />
			</g>
		</g>
		<g>
			<title> (ctg5_123)</title>
			<polygon class=" (ctg5_123)" points="353,40 357,10 357,70" fill="rgb(255,255,255)" fill-opacity="1.0" stroke="rgb(0,0,0)" stroke-width="2"  />
		</g>
		<g>
			<title> (ctg5_124)</title>
			<polygon class=" (ctg5_124)" points="356,40 380,10 380,70" fill="rgb(255,255,255)" fill-opacity="1.0" stroke="rgb(0,0,0)" stroke-width="2"  />
			<g>
				<title>TerC (PF03741)
"Integral membrane protein TerC family"</title>
				<polygon class="PF03741" points="360,40 370,28 377,28 377,52 370,52 360,40" stroke-linejoin="round" width="17" height="24" fill="rgb(221,113,97)" stroke="rgb(176,90,77)" stroke-width="1" opacity="0.75" />
			</g>
		</g>
		<g>
			<title> (ctg5_125)</title>
			<polygon class=" (ctg5_125)" points="384,40 407,10 407,70" fill="rgb(255,255,255)" fill-opacity="1.0" stroke="rgb(0,0,0)" stroke-width="2"  />
			<g>
				<title>TerC (PF03741)
"Integral membrane protein TerC family"</title>
				<polygon class="PF03741" points="388,40 397,28 405,28 405,52 397,52 388,40" stroke-linejoin="round" width="17" height="24" fill="rgb(221,113,97)" stroke="rgb(176,90,77)" stroke-width="1" opacity="0.75" />
			</g>
		</g>
		<g>
			<title> (ctg5_126)</title>
			<polygon class=" (ctg5_126)" points="415,40 444,10 444,70" fill="rgb(255,255,255)" fill-opacity="1.0" stroke="rgb(0,0,0)" stroke-width="2"  />
			<g>
				<title>Ligase_CoA (PF00549)
"CoA-ligase"</title>
				<polygon class="PF00549" points="419,40 428,31 428,49" stroke-linejoin="round" width="12" height="24" fill="rgb(184,103,76)" stroke="rgb(147,82,60)" stroke-width="1" opacity="0.75" />
			</g>
			<g>
				<title>CoA_binding (PF02629)
"CoA binding domain"</title>
				<rect class="PF02629" x="434" y="28" stroke-linejoin="round" width="9" height="24" fill="rgb(57,204,178)" stroke="rgb(45,163,142)" stroke-width="1" opacity="0.75" />
			</g>
		</g>
		<g>
			<title> (ctg5_127)</title>
			<polygon class=" (ctg5_127)" points="484,25 476,25 476,10 446,40 476,70 476,55 484,55" fill="rgb(255,255,255)" fill-opacity="1.0" stroke="rgb(0,0,0)" stroke-width="2"  />
			<g>
				<title>Ligase_CoA (PF00549)
"CoA-ligase"</title>
				<polygon class="PF00549" points="450,40 458,32 458,48" stroke-linejoin="round" width="12" height="24" fill="rgb(184,103,76)" stroke="rgb(147,82,60)" stroke-width="1" opacity="0.75" />
			</g>
			<g>
				<title>ATP-grasp_2 (PF08442)
"ATP-grasp domain"</title>
				<rect class="PF08442" x="464" y="28" stroke-linejoin="round" width="20" height="24" fill="rgb(76,220,127)" stroke="rgb(60,176,101)" stroke-width="1" opacity="0.75" />
			</g>
		</g>
		<g>
			<title> (ctg5_128)</title>
			<polygon class=" (ctg5_128)" points="485,40 505,10 505,70" fill="rgb(255,255,255)" fill-opacity="1.0" stroke="rgb(0,0,0)" stroke-width="2"  />
			<g>
				<title>DUF2889 (PF11136)
"Protein of unknown function (DUF2889)"</title>
				<polygon class="PF11136" points="491,37 497,28 503,28 503,52 497,52 491,43" stroke-linejoin="round" width="12" height="24" fill="rgb(180,48,169)" stroke="rgb(144,38,135)" stroke-width="1" opacity="0.75" />
			</g>
		</g>
		<g>
			<title> (ctg5_129)</title>
			<polygon class=" (ctg5_129)" points="642,25 540,25 540,10 510,40 540,70 540,55 642,55" fill="rgb(255,255,255)" fill-opacity="1.0" stroke="rgb(0,0,0)" stroke-width="2"  />
			<g>
				<title>PP-binding (PF00550)
"Phosphopantetheine attachment site"</title>
				<rect class="PF00550" x="584" y="28" stroke-linejoin="round" width="5" height="24" fill="rgb(103,191,88)" stroke="rgb(82,152,70)" stroke-width="1" opacity="0.75" />
			</g>
			<g>
				<title>AMP-binding_C (PF13193)
"AMP-binding enzyme C-terminal domain"</title>
				<rect class="PF13193" x="593" y="28" stroke-linejoin="round" width="7" height="24" fill="rgb(182,50,118)" stroke="rgb(145,39,94)" stroke-width="1" opacity="0.75" />
			</g>
			<g>
				<title>AMP-binding (PF00501)
"AMP-binding enzyme"</title>
				<rect class="PF00501" x="601" y="28" stroke-linejoin="round" width="38" height="24" fill="rgb(60,217,223)" stroke="rgb(48,173,178)" stroke-width="1" opacity="0.75" />
			</g>
		</g>
		<g>
			<title> (ctg5_130)</title>
			<polygon class=" (ctg5_130)" points="723,25 677,25 677,10 647,40 677,70 677,55 723,55" fill="rgb(255,255,255)" fill-opacity="1.0" stroke="rgb(0,0,0)" stroke-width="2"  />
			<g>
				<title>Meth_synt_2 (PF01717)
"Cobalamin-independent synthase, Catalytic domain"</title>
				<polygon class="PF01717" points="651,40 663,28 679,28 679,52 663,52" stroke-linejoin="round" width="32" height="24" fill="rgb(163,221,87)" stroke="rgb(130,176,69)" stroke-width="1" opacity="0.75" />
			</g>
			<g>
				<title>Meth_synt_1 (PF08267)
"Cobalamin-independent synthase, N-terminal domain"</title>
				<rect class="PF08267" x="691" y="28" stroke-linejoin="round" width="31" height="24" fill="rgb(102,88,199)" stroke="rgb(81,70,159)" stroke-width="1" opacity="0.75" />
			</g>
		</g>
		<g>
			<title> (ctg5_131)</title>
			<polygon class=" (ctg5_131)" points="730,25 730,25 730,10 760,40 730,70 730,55 730,55" fill="rgb(255,255,255)" fill-opacity="1.0" stroke="rgb(0,0,0)" stroke-width="2"  />
			<g>
				<title>HTH_1 (PF00126)
"Bacterial regulatory helix-turn-helix protein, lysR family"</title>
				<rect class="PF00126" x="730" y="28" stroke-linejoin="round" width="5" height="24" fill="rgb(125,227,79)" stroke="rgb(99,181,63)" stroke-width="1" opacity="0.75" />
			</g>
			<g>
				<title>LysR_substrate (PF03466)
"LysR substrate binding domain"</title>
				<polygon class="PF03466" points="738,28 744,28 756,40 744,52 738,52" stroke-linejoin="round" width="20" height="24" fill="rgb(55,136,195)" stroke="rgb(44,108,156)" stroke-width="1" opacity="0.75" />
			</g>
		</g>
		<g>
			<title> (ctg5_132)</title>
			<polygon class=" (ctg5_132)" points="763,40 787,10 787,70" fill="rgb(255,255,255)" fill-opacity="1.0" stroke="rgb(0,0,0)" stroke-width="2"  />
			<g>
				<title>RecX (PF02631)
"RecX family"</title>
				<polygon class="PF02631" points="767,40 775,30 775,50" stroke-linejoin="round" width="12" height="24" fill="rgb(212,115,80)" stroke="rgb(169,92,64)" stroke-width="1" opacity="0.75" />
			</g>
		</g>
		<g>
			<title> (ctg5_133)</title>
			<polygon class=" (ctg5_133)" points="826,25 821,25 821,10 791,40 821,70 821,55 826,55" fill="rgb(255,255,255)" fill-opacity="1.0" stroke="rgb(0,0,0)" stroke-width="2"  />
			<g>
				<title>RecA (PF00154)
"recA bacterial DNA recombination protein"</title>
				<polygon class="PF00154" points="798,37 807,28 824,28 824,52 807,52 798,43" stroke-linejoin="round" width="26" height="24" fill="rgb(191,79,162)" stroke="rgb(152,63,129)" stroke-width="1" opacity="0.75" />
			</g>
		</g>
		<g>
			<title> (ctg5_134)</title>
			<polygon class=" (ctg5_134)" points="839,10 862,40 839,70" fill="rgb(255,255,255)" fill-opacity="1.0" stroke="rgb(0,0,0)" stroke-width="2"  />
			<g>
				<title>Response_reg (PF00072)
"Response regulator receiver domain"</title>
				<polygon class="PF00072" points="839,28 849,28 850,30 850,50 849,52 839,52" stroke-linejoin="round" width="11" height="24" fill="rgb(100,107,203)" stroke="rgb(80,85,162)" stroke-width="1" opacity="0.75" />
			</g>
			<g>
				<title>Trans_reg_C (PF00486)
"Transcriptional regulatory protein, C terminal"</title>
				<polygon class="PF00486" points="853,34 858,40 853,46" stroke-linejoin="round" width="7" height="24" fill="rgb(204,153,57)" stroke="rgb(163,122,45)" stroke-width="1" opacity="0.75" />
			</g>
		</g>
		<g>
			<title> (ctg5_135)</title>
			<polygon class=" (ctg5_135)" points="863,25 881,25 881,10 911,40 881,70 881,55 863,55" fill="rgb(255,255,255)" fill-opacity="1.0" stroke="rgb(0,0,0)" stroke-width="2"  />
			<g>
				<title>2CSK_N (PF08521)
"Two-component sensor kinase N-terminal"</title>
				<rect class="PF08521" x="865" y="28" stroke-linejoin="round" width="14" height="24" fill="rgb(207,229,84)" stroke="rgb(165,183,67)" stroke-width="1" opacity="0.75" />
			</g>
			<g>
				<title>HisKA (PF00512)
"His Kinase A (phospho-acceptor) domain"</title>
				<rect class="PF00512" x="888" y="28" stroke-linejoin="round" width="6" height="24" fill="rgb(193,125,62)" stroke="rgb(154,100,49)" stroke-width="1" opacity="0.75" />
			</g>
			<g>
				<title>HATPase_c (PF02518)
"Histidine kinase-, DNA gyrase B-, and HSP90-like ATPase"</title>
				<polygon class="PF02518" points="899,32 907,40 899,48" stroke-linejoin="round" width="11" height="24" fill="rgb(80,94,225)" stroke="rgb(64,75,180)" stroke-width="1" opacity="0.75" />
			</g>
		</g>
		<g>
			<title> (ctg5_136)</title>
			<polygon class=" (ctg5_136)" points="919,25 944,25 944,10 974,40 944,70 944,55 919,55" fill="rgb(255,255,255)" fill-opacity="1.0" stroke="rgb(0,0,0)" stroke-width="2"  />
			<g>
				<title>Sugar_tr (PF00083)
"Sugar (and other) transporter"</title>
				<rect class="PF00083" x="921" y="28" stroke-linejoin="round" width="22" height="24" fill="rgb(48,186,105)" stroke="rgb(38,148,84)" stroke-width="1" opacity="0.75" />
			</g>
		</g>
		<g>
			<title> (ctg5_137)</title>
			<polygon class=" (ctg5_137)" points="988,40 995,10 995,70" fill="rgb(255,255,255)" fill-opacity="1.0" stroke="rgb(0,0,0)" stroke-width="2"  />
		</g>
		<g>
			<title> (ctg5_138)</title>
			<polygon class=" (ctg5_138)" points="1000,25 1000,25 1000,10 1030,40 1000,70 1000,55 1000,55" fill="rgb(255,255,255)" fill-opacity="1.0" stroke="rgb(0,0,0)" stroke-width="2"  />
			<g>
				<title>RdgC (PF04381)
"Putative exonuclease, RdgC"</title>
				<polygon class="PF04381" points="1000,28 1013,28 1025,40 1013,52 1000,52" stroke-linejoin="round" width="29" height="24" fill="rgb(211,130,94)" stroke="rgb(168,103,75)" stroke-width="1" opacity="0.75" />
			</g>
		</g>
		<g>
			<title> (ctg5_139)</title>
			<polygon class=" (ctg5_139)" points="1082,25 1065,25 1065,10 1035,40 1065,70 1065,55 1082,55" fill="rgb(255,255,255)" fill-opacity="1.0" stroke="rgb(0,0,0)" stroke-width="2"  />
			<g>
				<title>GGDEF (PF00990)
"Diguanylate cyclase, GGDEF domain"</title>
				<polygon class="PF00990" points="1039,40 1050,29 1050,51" stroke-linejoin="round" width="15" height="24" fill="rgb(62,170,199)" stroke="rgb(49,135,159)" stroke-width="1" opacity="0.75" />
			</g>
			<g>
				<title>Protoglobin (PF11563)
"Protoglobin"</title>
				<rect class="PF11563" x="1064" y="28" stroke-linejoin="round" width="14" height="24" fill="rgb(190,95,63)" stroke="rgb(152,76,50)" stroke-width="1" opacity="0.75" />
			</g>
		</g>
		<g>
			<title> (ctg5_140)</title>
			<polygon class=" (ctg5_140)" points="1129,25 1116,25 1116,10 1086,40 1116,70 1116,55 1129,55" fill="rgb(255,255,255)" fill-opacity="1.0" stroke="rgb(0,0,0)" stroke-width="2"  />
			<g>
				<title>OTCace (PF00185)
"Aspartate/ornithine carbamoyltransferase, Asp/Orn binding domain"</title>
				<polygon class="PF00185" points="1090,40 1102,28 1104,28 1104,52 1102,52" stroke-linejoin="round" width="15" height="24" fill="rgb(215,107,106)" stroke="rgb(172,85,84)" stroke-width="1" opacity="0.75" />
			</g>
			<g>
				<title>OTCace_N (PF02729)
"Aspartate/ornithine carbamoyltransferase, carbamoyl-P binding domain"</title>
				<rect class="PF02729" x="1106" y="28" stroke-linejoin="round" width="14" height="24" fill="rgb(223,74,58)" stroke="rgb(178,59,46)" stroke-width="1" opacity="0.75" />
			</g>
		</g>
	</g>
</svg>
