<svg version="1.1" baseProfile="full" xmlns="http://www.w3.org/2000/svg" width="1389.8666666666666" height="80">
	<g>
		<line x1="10" y1="40.0" x2="1379.8666666666666" y2="40.0" style="stroke:rgb(70,70,70); stroke-width:3 "/>
		<g>
			<title> (ctg3_341)</title>
			<polygon class=" (ctg3_341)" points="42,40 55,10 55,70" fill="rgb(255,255,255)" fill-opacity="1.0" stroke="rgb(0,0,0)" stroke-width="2"  />
			<g>
				<title>Glyoxalase_6 (PF18029)
"Glyoxalase-like domain"</title>
				<polygon class="PF18029" points="45,40 51,28 55,28 55,52 51,52" stroke-linejoin="round" width="12" height="24" fill="rgb(90,208,104)" stroke="rgb(72,166,83)" stroke-width="1" opacity="0.75" />
			</g>
		</g>
		<g>
			<title> (ctg3_342)</title>
			<polygon class=" (ctg3_342)" points="95,25 90,25 90,10 60,40 90,70 90,55 95,55" fill="rgb(255,255,255)" fill-opacity="1.0" stroke="rgb(0,0,0)" stroke-width="2"  />
			<g>
				<title>Bac_luciferase (PF00296)
"Luciferase-like monooxygenase"</title>
				<polygon class="PF00296" points="65,39 76,28 94,28 94,52 76,52 65,41" stroke-linejoin="round" width="29" height="24" fill="rgb(180,112,78)" stroke="rgb(144,89,62)" stroke-width="1" opacity="0.75" />
			</g>
		</g>
		<g>
			<title> (ctg3_343)</title>
			<polygon class=" (ctg3_343)" points="99,25 119,25 119,10 149,40 119,70 119,55 99,55" fill="rgb(255,255,255)" fill-opacity="1.0" stroke="rgb(0,0,0)" stroke-width="2"  />
			<g>
				<title>Peptidase_M17_N (PF02789)
"Cytosol aminopeptidase family, N-terminal domain"</title>
				<rect class="PF02789" x="103" y="28" stroke-linejoin="round" width="10" height="24" fill="rgb(216,155,96)" stroke="rgb(172,124,76)" stroke-width="1" opacity="0.75" />
			</g>
			<g>
				<title>Peptidase_M17 (PF00883)
"Cytosol aminopeptidase family, catalytic domain"</title>
				<polygon class="PF00883" points="117,28 133,28 145,40 133,52 117,52" stroke-linejoin="round" width="31" height="24" fill="rgb(81,178,163)" stroke="rgb(64,142,130)" stroke-width="1" opacity="0.75" />
			</g>
		</g>
		<g>
			<title> (ctg3_344)</title>
			<polygon class=" (ctg3_344)" points="151,25 199,25 199,10 229,40 199,70 199,55 151,55" fill="rgb(255,255,255)" fill-opacity="1.0" stroke="rgb(0,0,0)" stroke-width="2"  />
			<g>
				<title>Glyco_transf_20 (PF00982)
"Glycosyltransferase family 20"</title>
				<rect class="PF00982" x="152" y="28" stroke-linejoin="round" width="46" height="24" fill="rgb(89,138,188)" stroke="rgb(71,110,150)" stroke-width="1" opacity="0.75" />
			</g>
			<g>
				<title>Trehalose_PPase (PF02358)
"Trehalose-phosphatase"</title>
				<polygon class="PF02358" points="205,28 213,28 225,40 213,52 205,52" stroke-linejoin="round" width="22" height="24" fill="rgb(83,128,204)" stroke="rgb(66,102,163)" stroke-width="1" opacity="0.75" />
			</g>
		</g>
		<g>
			<title> (ctg3_345)</title>
			<polygon class=" (ctg3_345)" points="232,25 244,25 244,10 274,40 244,70 244,55 232,55" fill="rgb(255,255,255)" fill-opacity="1.0" stroke="rgb(0,0,0)" stroke-width="2"  />
			<g>
				<title>Peptidase_M18 (PF02127)
"Aminopeptidase I zinc metalloprotease (M18)"</title>
				<polygon class="PF02127" points="233,28 258,28 270,40 258,52 233,52" stroke-linejoin="round" width="40" height="24" fill="rgb(53,210,170)" stroke="rgb(42,168,136)" stroke-width="1" opacity="0.75" />
			</g>
		</g>
		<g>
			<title> (ctg3_346)</title>
			<polygon class=" (ctg3_346)" points="277,10 286,40 277,70" fill="rgb(255,255,255)" fill-opacity="1.0" stroke="rgb(0,0,0)" stroke-width="2"  />
		</g>
		<g>
			<title> (ctg3_347)</title>
			<polygon class=" (ctg3_347)" points="320,25 320,25 320,10 290,40 320,70 320,55 320,55" fill="rgb(255,255,255)" fill-opacity="1.0" stroke="rgb(0,0,0)" stroke-width="2"  />
			<g>
				<title>HTH_AsnC-type (PF13404)
"AsnC-type helix-turn-helix domain"</title>
				<polygon class="PF13404" points="301,33 305,29 305,51 301,47" stroke-linejoin="round" width="4" height="24" fill="rgb(190,195,86)" stroke="rgb(152,156,68)" stroke-width="1" opacity="0.75" />
			</g>
			<g>
				<title>HTH_AsnC-type (PF13404)
"AsnC-type helix-turn-helix domain"</title>
				<rect class="PF13404" x="316" y="28" stroke-linejoin="round" width="3" height="24" fill="rgb(190,195,86)" stroke="rgb(152,156,68)" stroke-width="1" opacity="0.75" />
			</g>
		</g>
		<g>
			<title> (ctg3_348)</title>
			<polygon class=" (ctg3_348)" points="330,25 355,25 355,10 385,40 355,70 355,55 330,55" fill="rgb(255,255,255)" fill-opacity="1.0" stroke="rgb(0,0,0)" stroke-width="2"  />
			<g>
				<title>Amidohydro_3 (PF07969)
"Amidohydrolase family"</title>
				<polygon class="PF07969" points="336,28 369,28 381,40 369,52 336,52" stroke-linejoin="round" width="48" height="24" fill="rgb(228,157,101)" stroke="rgb(182,125,80)" stroke-width="1" opacity="0.75" />
			</g>
		</g>
		<g>
			<title> (ctg3_349)</title>
			<polygon class=" (ctg3_349)" points="399,25 448,25 448,10 478,40 448,70 448,55 399,55" fill="rgb(255,255,255)" fill-opacity="1.0" stroke="rgb(0,0,0)" stroke-width="2"  />
			<g>
				<title>DUF11 (PF01345)
"Domain of unknown function DUF11"</title>
				<polygon class="PF01345" points="454,28 461,28 465,32 465,48 461,52 454,52" stroke-linejoin="round" width="11" height="24" fill="rgb(83,216,100)" stroke="rgb(66,172,80)" stroke-width="1" opacity="0.75" />
			</g>
		</g>
		<g>
			<title> (ctg3_350)</title>
			<polygon class=" (ctg3_350)" points="511,25 546,25 546,10 576,40 546,70 546,55 511,55" fill="rgb(255,255,255)" fill-opacity="1.0" stroke="rgb(0,0,0)" stroke-width="2"  />
			<g>
				<title>AMP-binding (PF00501)
"AMP-binding enzyme"</title>
				<polygon class="PF00501" points="514,28 559,28 560,29 560,51 559,52 514,52" stroke-linejoin="round" width="46" height="24" fill="rgb(60,217,223)" stroke="rgb(48,173,178)" stroke-width="1" opacity="0.75" />
			</g>
		</g>
		<g>
			<title> (ctg3_351)</title>
			<polygon class=" (ctg3_351)" points="577,10 606,40 577,70" fill="rgb(255,255,255)" fill-opacity="1.0" stroke="rgb(0,0,0)" stroke-width="2"  />
			<g>
				<title>DUF1295 (PF06966)
"Protein of unknown function (DUF1295)"</title>
				<polygon class="PF06966" points="582,28 590,28 602,40 590,52 582,52" stroke-linejoin="round" width="22" height="24" fill="rgb(84,216,56)" stroke="rgb(67,172,44)" stroke-width="1" opacity="0.75" />
			</g>
		</g>
		<g>
			<title> (ctg3_352)</title>
			<polygon class=" (ctg3_352)" points="604,40 620,10 620,70" fill="rgb(255,255,255)" fill-opacity="1.0" stroke="rgb(0,0,0)" stroke-width="2"  />
		</g>
		<g>
			<title> (ctg3_353)</title>
			<polygon class=" (ctg3_353)" points="626,10 643,40 626,70" fill="rgb(255,255,255)" fill-opacity="1.0" stroke="rgb(0,0,0)" stroke-width="2"  />
		</g>
		<g>
			<title> (ctg3_354)</title>
			<polygon class=" (ctg3_354)" points="646,40 654,10 654,70" fill="rgb(255,255,255)" fill-opacity="1.0" stroke="rgb(0,0,0)" stroke-width="2"  />
		</g>
		<g>
			<title> (ctg3_355)</title>
			<polygon class=" (ctg3_355)" points="657,10 672,40 657,70" fill="rgb(255,255,255)" fill-opacity="1.0" stroke="rgb(0,0,0)" stroke-width="2"  />
			<g>
				<title>MarR (PF01047)
"MarR family"</title>
				<polygon class="PF01047" points="660,28 662,28 665,33 665,47 662,52 660,52" stroke-linejoin="round" width="5" height="24" fill="rgb(60,185,86)" stroke="rgb(48,148,68)" stroke-width="1" opacity="0.75" />
			</g>
		</g>
		<g>
			<title> (ctg3_356)</title>
			<polygon class=" (ctg3_356)" points="714,25 706,25 706,10 676,40 706,70 706,55 714,55" fill="rgb(255,255,255)" fill-opacity="1.0" stroke="rgb(0,0,0)" stroke-width="2"  />
			<g>
				<title>HMG_CoA_synt_C (PF08540)
"Hydroxymethylglutaryl-coenzyme A synthase C terminal"</title>
				<polygon class="PF08540" points="680,40 688,32 688,48" stroke-linejoin="round" width="9" height="24" fill="rgb(49,194,86)" stroke="rgb(39,155,68)" stroke-width="1" opacity="0.75" />
			</g>
			<g>
				<title>HMG_CoA_synt_C (PF08540)
"Hydroxymethylglutaryl-coenzyme A synthase C terminal"</title>
				<polygon class="PF08540" points="689,31 692,28 697,28 697,52 692,52 689,49" stroke-linejoin="round" width="8" height="24" fill="rgb(49,194,86)" stroke="rgb(39,155,68)" stroke-width="1" opacity="0.75" />
			</g>
			<g>
				<title>HMG_CoA_synt_N (PF01154)
"Hydroxymethylglutaryl-coenzyme A synthase N terminal"</title>
				<rect class="PF01154" x="697" y="28" stroke-linejoin="round" width="16" height="24" fill="rgb(88,216,218)" stroke="rgb(70,172,174)" stroke-width="1" opacity="0.75" />
			</g>
		</g>
		<g>
			<title> (ctg3_357)</title>
			<polygon class=" (ctg3_357)" points="749,25 744,25 744,10 714,40 744,70 744,55 749,55" fill="rgb(255,255,255)" fill-opacity="1.0" stroke="rgb(0,0,0)" stroke-width="2"  />
			<g>
				<title>HMG-CoA_red (PF00368)
"Hydroxymethylglutaryl-coenzyme A reductase"</title>
				<polygon class="PF00368" points="718,40 730,28 747,28 747,52 730,52" stroke-linejoin="round" width="33" height="24" fill="rgb(67,203,137)" stroke="rgb(53,162,109)" stroke-width="1" opacity="0.75" />
			</g>
		</g>
		<g>
			<title> (ctg3_358)</title>
			<polygon class=" (ctg3_358)" points="789,25 782,25 782,10 752,40 782,70 782,55 789,55" fill="rgb(255,255,255)" fill-opacity="1.0" stroke="rgb(0,0,0)" stroke-width="2"  />
			<g>
				<title>FMN_dh (PF01070)
"FMN-dependent dehydrogenase"</title>
				<polygon class="PF01070" points="756,40 768,28 774,28 774,52 768,52" stroke-linejoin="round" width="20" height="24" fill="rgb(59,82,204)" stroke="rgb(47,65,163)" stroke-width="1" opacity="0.75" />
			</g>
		</g>
		<g>
			<title> (ctg3_359)</title>
			<polygon class=" (ctg3_359)" points="825,25 819,25 819,10 789,40 819,70 819,55 825,55" fill="rgb(255,255,255)" fill-opacity="1.0" stroke="rgb(0,0,0)" stroke-width="2"  />
			<g>
				<title>GHMP_kinases_C (PF08544)
"GHMP kinases C terminal"</title>
				<polygon class="PF08544" points="793,40 798,35 798,45" stroke-linejoin="round" width="8" height="24" fill="rgb(95,112,219)" stroke="rgb(76,89,175)" stroke-width="1" opacity="0.75" />
			</g>
			<g>
				<title>GHMP_kinases_N (PF00288)
"GHMP kinases N terminal domain"</title>
				<rect class="PF00288" x="808" y="28" stroke-linejoin="round" width="7" height="24" fill="rgb(190,54,91)" stroke="rgb(152,43,72)" stroke-width="1" opacity="0.75" />
			</g>
		</g>
		<g>
			<title> (ctg3_360)</title>
			<polygon class=" (ctg3_360)" points="856,25 855,25 855,10 825,40 855,70 855,55 856,55" fill="rgb(255,255,255)" fill-opacity="1.0" stroke="rgb(0,0,0)" stroke-width="2"  />
			<g>
				<title>MDD_C (PF18376)
"Mevalonate 5-diphosphate decarboxylase C-terminal domain"</title>
				<polygon class="PF18376" points="829,40 839,30 839,50" stroke-linejoin="round" width="13" height="24" fill="rgb(104,190,211)" stroke="rgb(83,152,168)" stroke-width="1" opacity="0.75" />
			</g>
			<g>
				<title>GHMP_kinases_N (PF00288)
"GHMP kinases N terminal domain"</title>
				<rect class="PF00288" x="842" y="28" stroke-linejoin="round" width="5" height="24" fill="rgb(190,54,91)" stroke="rgb(152,43,72)" stroke-width="1" opacity="0.75" />
			</g>
		</g>
		<g>
			<title> (ctg3_361)</title>
			<polygon class=" (ctg3_361)" points="890,25 887,25 887,10 857,40 887,70 887,55 890,55" fill="rgb(255,255,255)" fill-opacity="1.0" stroke="rgb(0,0,0)" stroke-width="2"  />
			<g>
				<title>GHMP_kinases_C (PF08544)
"GHMP kinases C terminal"</title>
				<polygon class="PF08544" points="861,40 866,35 866,45" stroke-linejoin="round" width="8" height="24" fill="rgb(95,112,219)" stroke="rgb(76,89,175)" stroke-width="1" opacity="0.75" />
			</g>
			<g>
				<title>GHMP_kinases_N (PF00288)
"GHMP kinases N terminal domain"</title>
				<polygon class="PF00288" points="872,29 873,28 878,28 878,52 873,52 872,51" stroke-linejoin="round" width="6" height="24" fill="rgb(190,54,91)" stroke="rgb(152,43,72)" stroke-width="1" opacity="0.75" />
			</g>
		</g>
		<g>
			<title> (ctg3_362)</title>
			<polygon class=" (ctg3_362)" points="897,40 925,10 925,70" fill="rgb(255,255,255)" fill-opacity="1.0" stroke="rgb(0,0,0)" stroke-width="2"  />
			<g>
				<title>ComA (PF02679)
"(2R)-phospho-3-sulfolactate synthase (ComA)"</title>
				<polygon class="PF02679" points="901,40 912,28 922,28 922,52 912,52" stroke-linejoin="round" width="24" height="24" fill="rgb(167,194,96)" stroke="rgb(133,155,76)" stroke-width="1" opacity="0.75" />
			</g>
		</g>
		<g>
			<title> (ctg3_363)</title>
			<polygon class=" (ctg3_363)" points="973,25 957,25 957,10 927,40 957,70 957,55 973,55" fill="rgb(255,255,255)" fill-opacity="1.0" stroke="rgb(0,0,0)" stroke-width="2"  />
			<g>
				<title>MmgE_PrpD_C (PF19305)
"MmgE/PrpD C-terminal domain"</title>
				<polygon class="PF19305" points="931,40 943,28 946,28 946,52 943,52" stroke-linejoin="round" width="17" height="24" fill="rgb(194,186,61)" stroke="rgb(155,148,48)" stroke-width="1" opacity="0.75" />
			</g>
			<g>
				<title>MmgE_PrpD (PF03972)
"MmgE/PrpD N-terminal domain"</title>
				<rect class="PF03972" x="949" y="28" stroke-linejoin="round" width="24" height="24" fill="rgb(166,220,102)" stroke="rgb(132,176,81)" stroke-width="1" opacity="0.75" />
			</g>
		</g>
		<g>
			<title> (ctg3_364)</title>
			<polygon class=" (ctg3_364)" points="980,10 986,40 980,70" fill="rgb(255,255,255)" fill-opacity="1.0" stroke="rgb(0,0,0)" stroke-width="2"  />
		</g>
		<g>
			<title> (ctg3_365)</title>
			<polygon class=" (ctg3_365)" points="986,40 994,10 994,70" fill="rgb(255,255,255)" fill-opacity="1.0" stroke="rgb(0,0,0)" stroke-width="2"  />
		</g>
		<g>
			<title> (ctg3_366)</title>
			<polygon class=" (ctg3_366)" points="996,10 1003,40 996,70" fill="rgb(255,255,255)" fill-opacity="1.0" stroke="rgb(0,0,0)" stroke-width="2"  />
		</g>
		<g>
			<title> (ctg3_367)</title>
			<polygon class=" (ctg3_367)" points="1009,10 1025,40 1009,70" fill="rgb(255,255,255)" fill-opacity="1.0" stroke="rgb(0,0,0)" stroke-width="2"  />
			<g>
				<title>MarR_2 (PF12802)
"MarR family"</title>
				<polygon class="PF12802" points="1013,28 1015,28 1018,34 1018,46 1015,52 1013,52" stroke-linejoin="round" width="5" height="24" fill="rgb(46,89,185)" stroke="rgb(36,71,148)" stroke-width="1" opacity="0.75" />
			</g>
		</g>
		<g>
			<title> (ctg3_368)</title>
			<polygon class=" (ctg3_368)" points="1025,10 1050,40 1025,70" fill="rgb(255,255,255)" fill-opacity="1.0" stroke="rgb(0,0,0)" stroke-width="2"  />
			<g>
				<title>HEAT_2 (PF13646)
"HEAT repeats"</title>
				<polygon class="PF13646" points="1032,28 1036,28 1041,34 1041,46 1036,52 1032,52" stroke-linejoin="round" width="9" height="24" fill="rgb(161,180,58)" stroke="rgb(128,144,46)" stroke-width="1" opacity="0.75" />
			</g>
		</g>
		<g>
			<title> (ctg3_369)</title>
			<polygon class=" (ctg3_369)" points="1059,25 1061,25 1061,10 1091,40 1061,70 1061,55 1059,55" fill="rgb(255,255,255)" fill-opacity="1.0" stroke="rgb(0,0,0)" stroke-width="2"  />
			<g>
				<title>AraC_binding_2 (PF14525)
"AraC-binding-like domain"</title>
				<polygon class="PF14525" points="1061,28 1075,28 1078,31 1078,49 1075,52 1061,52" stroke-linejoin="round" width="17" height="24" fill="rgb(226,106,111)" stroke="rgb(180,84,88)" stroke-width="1" opacity="0.75" />
			</g>
			<g>
				<title>HTH_18 (PF12833)
"Helix-turn-helix domain"</title>
				<polygon class="PF12833" points="1082,35 1087,40 1082,45" stroke-linejoin="round" width="8" height="24" fill="rgb(216,58,224)" stroke="rgb(172,46,179)" stroke-width="1" opacity="0.75" />
			</g>
		</g>
		<g>
			<title> (ctg3_370)</title>
			<polygon class=" (ctg3_370)" points="1098,10 1125,40 1098,70" fill="rgb(255,255,255)" fill-opacity="1.0" stroke="rgb(0,0,0)" stroke-width="2"  />
			<g>
				<title>MoaF (PF10703)
"MoaF N-terminal domain"</title>
				<rect class="PF10703" x="1099" y="28" stroke-linejoin="round" width="10" height="24" fill="rgb(54,196,53)" stroke="rgb(43,156,42)" stroke-width="1" opacity="0.75" />
			</g>
			<g>
				<title>MoaF_C (PF17409)
"MoaF C-terminal domain"</title>
				<polygon class="PF17409" points="1113,31 1121,40 1113,49" stroke-linejoin="round" width="11" height="24" fill="rgb(66,187,206)" stroke="rgb(52,149,164)" stroke-width="1" opacity="0.75" />
			</g>
		</g>
		<g>
			<title> (ctg3_371)</title>
			<polygon class=" (ctg3_371)" points="1127,25 1136,25 1136,10 1166,40 1136,70 1136,55 1127,55" fill="rgb(255,255,255)" fill-opacity="1.0" stroke="rgb(0,0,0)" stroke-width="2"  />
			<g>
				<title>Peripla_BP_6 (PF13458)
"Periplasmic binding protein"</title>
				<polygon class="PF13458" points="1130,28 1150,28 1162,40 1150,52 1130,52" stroke-linejoin="round" width="34" height="24" fill="rgb(94,183,81)" stroke="rgb(75,146,64)" stroke-width="1" opacity="0.75" />
			</g>
		</g>
		<g>
			<title> (ctg3_372)</title>
			<polygon class=" (ctg3_372)" points="1170,10 1199,40 1170,70" fill="rgb(255,255,255)" fill-opacity="1.0" stroke="rgb(0,0,0)" stroke-width="2"  />
			<g>
				<title>BPD_transp_2 (PF02653)
"Branched-chain amino acid transport system / permease component"</title>
				<polygon class="PF02653" points="1170,28 1183,28 1195,40 1183,52 1170,52" stroke-linejoin="round" width="26" height="24" fill="rgb(69,130,196)" stroke="rgb(55,104,156)" stroke-width="1" opacity="0.75" />
			</g>
		</g>
		<g>
			<title> (ctg3_373)</title>
			<polygon class=" (ctg3_373)" points="1199,25 1227,25 1227,10 1257,40 1227,70 1227,55 1199,55" fill="rgb(255,255,255)" fill-opacity="1.0" stroke="rgb(0,0,0)" stroke-width="2"  />
			<g>
				<title>BPD_transp_2 (PF02653)
"Branched-chain amino acid transport system / permease component"</title>
				<rect class="PF02653" x="1202" y="28" stroke-linejoin="round" width="26" height="24" fill="rgb(69,130,196)" stroke="rgb(55,104,156)" stroke-width="1" opacity="0.75" />
			</g>
			<g>
				<title>ABC_tran (PF00005)
"ABC transporter"</title>
				<polygon class="PF00005" points="1235,28 1241,28 1249,36 1249,44 1241,52 1235,52" stroke-linejoin="round" width="14" height="24" fill="rgb(129,201,63)" stroke="rgb(103,160,50)" stroke-width="1" opacity="0.75" />
			</g>
		</g>
		<g>
			<title> (ctg3_374)</title>
			<polygon class=" (ctg3_374)" points="1258,10 1281,40 1258,70" fill="rgb(255,255,255)" fill-opacity="1.0" stroke="rgb(0,0,0)" stroke-width="2"  />
			<g>
				<title>ABC_tran (PF00005)
"ABC transporter"</title>
				<polygon class="PF00005" points="1259,28 1268,28 1272,34 1272,46 1268,52 1259,52" stroke-linejoin="round" width="13" height="24" fill="rgb(129,201,63)" stroke="rgb(103,160,50)" stroke-width="1" opacity="0.75" />
			</g>
		</g>
		<g>
			<title> (ctg3_375)</title>
			<polygon class=" (ctg3_375)" points="1285,40 1312,10 1312,70" fill="rgb(255,255,255)" fill-opacity="1.0" stroke="rgb(0,0,0)" stroke-width="2"  />
			<g>
				<title>adh_short_C2 (PF13561)
"Enoyl-(Acyl carrier protein) reductase"</title>
				<polygon class="PF13561" points="1289,40 1300,28 1310,28 1310,52 1300,52" stroke-linejoin="round" width="24" height="24" fill="rgb(73,205,127)" stroke="rgb(58,164,101)" stroke-width="1" opacity="0.75" />
			</g>
		</g>
		<g>
			<title> (ctg3_376)</title>
			<polygon class=" (ctg3_376)" points="1319,25 1343,25 1343,10 1373,40 1343,70 1343,55 1319,55" fill="rgb(255,255,255)" fill-opacity="1.0" stroke="rgb(0,0,0)" stroke-width="2"  />
			<g>
				<title>Amidohydro_3 (PF07969)
"Amidohydrolase family"</title>
				<polygon class="PF07969" points="1324,28 1357,28 1369,40 1357,52 1324,52" stroke-linejoin="round" width="48" height="24" fill="rgb(228,157,101)" stroke="rgb(182,125,80)" stroke-width="1" opacity="0.75" />
			</g>
		</g>
	</g>
</svg>
