<svg version="1.1" baseProfile="full" xmlns="http://www.w3.org/2000/svg" width="720.5666666666667" height="80">
	<g>
		<line x1="10" y1="40.0" x2="710.5666666666667" y2="40.0" style="stroke:rgb(70,70,70); stroke-width:3 "/>
		<g>
			<title> (ctg3_172)</title>
			<polygon class=" (ctg3_172)" points="106,25 63,25 63,10 33,40 63,70 63,55 106,55" fill="rgb(255,255,255)" fill-opacity="1.0" stroke="rgb(0,0,0)" stroke-width="2"  />
			<g>
				<title>HWE_HK (PF07536)
"HWE histidine kinase"</title>
				<polygon class="PF07536" points="45,32 49,28 53,28 53,52 49,52 45,48" stroke-linejoin="round" width="8" height="24" fill="rgb(73,191,195)" stroke="rgb(58,152,156)" stroke-width="1" opacity="0.75" />
			</g>
			<g>
				<title>PAS_3 (PF08447)
"PAS fold"</title>
				<rect class="PF08447" x="56" y="28" stroke-linejoin="round" width="8" height="24" fill="rgb(222,97,193)" stroke="rgb(177,77,154)" stroke-width="1" opacity="0.75" />
			</g>
		</g>
		<g>
			<title> (ctg3_173)</title>
			<polygon class=" (ctg3_173)" points="109,40 119,10 119,70" fill="rgb(255,255,255)" fill-opacity="1.0" stroke="rgb(0,0,0)" stroke-width="2"  />
			<g>
				<title>Rdx (PF10262)
"Rdx family"</title>
				<polygon class="PF10262" points="112,40 116,28 117,28 117,52 116,52" stroke-linejoin="round" width="7" height="24" fill="rgb(221,146,84)" stroke="rgb(176,116,67)" stroke-width="1" opacity="0.75" />
			</g>
		</g>
		<g>
			<title> (ctg3_174)</title>
			<polygon class=" (ctg3_174)" points="136,25 157,25 157,10 187,40 157,70 157,55 136,55" fill="rgb(255,255,255)" fill-opacity="1.0" stroke="rgb(0,0,0)" stroke-width="2"  />
			<g>
				<title>Carboxyl_trans (PF01039)
"Carboxyl transferase domain"</title>
				<polygon class="PF01039" points="138,28 170,28 182,40 170,52 138,52" stroke-linejoin="round" width="48" height="24" fill="rgb(180,136,60)" stroke="rgb(144,108,48)" stroke-width="1" opacity="0.75" />
			</g>
		</g>
		<g>
			<title> (ctg3_175)</title>
			<polygon class=" (ctg3_175)" points="189,40 204,10 204,70" fill="rgb(255,255,255)" fill-opacity="1.0" stroke="rgb(0,0,0)" stroke-width="2"  />
		</g>
		<g>
			<title> (ctg3_176)</title>
			<polygon class=" (ctg3_176)" points="207,40 225,10 225,70" fill="rgb(255,255,255)" fill-opacity="1.0" stroke="rgb(0,0,0)" stroke-width="2"  />
		</g>
		<g>
			<title> (ctg3_177)</title>
			<polygon class=" (ctg3_177)" points="262,25 262,25 262,10 232,40 262,70 262,55 262,55" fill="rgb(255,255,255)" fill-opacity="1.0" stroke="rgb(0,0,0)" stroke-width="2"  />
			<g>
				<title>Metallophos (PF00149)
"Calcineurin-like phosphoesterase"</title>
				<polygon class="PF00149" points="236,40 248,28 257,28 257,52 248,52 236,40" stroke-linejoin="round" width="21" height="24" fill="rgb(181,197,58)" stroke="rgb(144,157,46)" stroke-width="1" opacity="0.75" />
			</g>
		</g>
		<g>
			<title> (ctg3_178)</title>
			<polygon class=" (ctg3_178)" points="268,25 268,25 268,10 298,40 268,70 268,55 268,55" fill="rgb(255,255,255)" fill-opacity="1.0" stroke="rgb(0,0,0)" stroke-width="2"  />
			<g>
				<title>Porphobil_deam (PF01379)
"Porphobilinogen deaminase, dipyromethane cofactor binding domain"</title>
				<polygon class="PF01379" points="268,28 282,28 288,34 288,46 282,52 268,52" stroke-linejoin="round" width="20" height="24" fill="rgb(172,226,73)" stroke="rgb(137,180,58)" stroke-width="1" opacity="0.75" />
			</g>
			<g>
				<title>Porphobil_deamC (PF03900)
"Porphobilinogen deaminase, C-terminal domain"</title>
				<polygon class="PF03900" points="290,36 294,40 290,44" stroke-linejoin="round" width="7" height="24" fill="rgb(171,104,225)" stroke="rgb(136,83,180)" stroke-width="1" opacity="0.75" />
			</g>
		</g>
		<g>
			<title> (ctg3_179)</title>
			<polygon class=" (ctg3_179)" points="299,10 328,40 299,70" fill="rgb(255,255,255)" fill-opacity="1.0" stroke="rgb(0,0,0)" stroke-width="2"  />
			<g>
				<title>PhzC-PhzF (PF02567)
"Phenazine biosynthesis-like protein"</title>
				<polygon class="PF02567" points="299,28 311,28 323,40 311,52 299,52" stroke-linejoin="round" width="27" height="24" fill="rgb(223,91,96)" stroke="rgb(178,72,76)" stroke-width="1" opacity="0.75" />
			</g>
		</g>
		<g>
			<title> (ctg3_180)</title>
			<polygon class=" (ctg3_180)" points="333,40 341,10 341,70" fill="rgb(255,255,255)" fill-opacity="1.0" stroke="rgb(0,0,0)" stroke-width="2"  />
		</g>
		<g>
			<title> (ctg3_181)</title>
			<polygon class=" (ctg3_181)" points="376,25 373,25 373,10 343,40 373,70 373,55 376,55" fill="rgb(255,255,255)" fill-opacity="1.0" stroke="rgb(0,0,0)" stroke-width="2"  />
			<g>
				<title>SQS_PSY (PF00494)
"Squalene/phytoene synthase"</title>
				<polygon class="PF00494" points="351,36 359,28 376,28 376,52 359,52 351,44" stroke-linejoin="round" width="25" height="24" fill="rgb(178,91,49)" stroke="rgb(142,72,39)" stroke-width="1" opacity="0.75" />
			</g>
		</g>
		<g>
			<title> (ctg3_182)</title>
			<polygon class=" (ctg3_182)" points="428,25 408,25 408,10 378,40 408,70 408,55 428,55" fill="rgb(255,255,255)" fill-opacity="1.0" stroke="rgb(0,0,0)" stroke-width="2"  />
			<g>
				<title>Amino_oxidase (PF01593)
"Flavin containing amine oxidoreductase"</title>
				<polygon class="PF01593" points="382,40 394,28 425,28 425,52 394,52" stroke-linejoin="round" width="46" height="24" fill="rgb(184,74,52)" stroke="rgb(147,59,41)" stroke-width="1" opacity="0.75" />
			</g>
		</g>
		<g>
			<title> (ctg3_183)</title>
			<polygon class=" (ctg3_183)" points="480,25 461,25 461,10 431,40 461,70 461,55 480,55" fill="rgb(255,255,255)" fill-opacity="1.0" stroke="rgb(0,0,0)" stroke-width="2"  />
			<g>
				<title>YadA_head (PF05658)
"YadA head domain repeat (2 copies)"</title>
				<rect class="PF05658" x="449" y="28" stroke-linejoin="round" width="2" height="24" fill="rgb(82,190,101)" stroke="rgb(65,152,80)" stroke-width="1" opacity="0.75" />
			</g>
			<g>
				<title>YadA_head (PF05658)
"YadA head domain repeat (2 copies)"</title>
				<rect class="PF05658" x="456" y="28" stroke-linejoin="round" width="2" height="24" fill="rgb(82,190,101)" stroke="rgb(65,152,80)" stroke-width="1" opacity="0.75" />
			</g>
		</g>
		<g>
			<title> (ctg3_184)</title>
			<polygon class=" (ctg3_184)" points="493,25 493,25 493,10 523,40 493,70 493,55 493,55" fill="rgb(255,255,255)" fill-opacity="1.0" stroke="rgb(0,0,0)" stroke-width="2"  />
			<g>
				<title>Epimerase (PF01370)
"NAD dependent epimerase/dehydratase family"</title>
				<polygon class="PF01370" points="493,28 507,28 516,37 516,43 507,52 493,52" stroke-linejoin="round" width="23" height="24" fill="rgb(98,102,214)" stroke="rgb(78,81,171)" stroke-width="1" opacity="0.75" />
			</g>
		</g>
		<g>
			<title> (ctg3_185)</title>
			<polygon class=" (ctg3_185)" points="526,25 530,25 530,10 560,40 530,70 530,55 526,55" fill="rgb(255,255,255)" fill-opacity="1.0" stroke="rgb(0,0,0)" stroke-width="2"  />
		</g>
		<g>
			<title> (ctg3_186)</title>
			<polygon class=" (ctg3_186)" points="561,10 584,40 561,70" fill="rgb(255,255,255)" fill-opacity="1.0" stroke="rgb(0,0,0)" stroke-width="2"  />
			<g>
				<title>Lipase_GDSL_2 (PF13472)
"GDSL-like Lipase/Acylhydrolase family"</title>
				<polygon class="PF13472" points="561,28 571,28 577,36 577,44 571,52 561,52" stroke-linejoin="round" width="16" height="24" fill="rgb(116,68,184)" stroke="rgb(92,54,147)" stroke-width="1" opacity="0.75" />
			</g>
		</g>
		<g>
			<title> (ctg3_187)</title>
			<polygon class=" (ctg3_187)" points="645,25 614,25 614,10 584,40 614,70 614,55 645,55" fill="rgb(255,255,255)" fill-opacity="1.0" stroke="rgb(0,0,0)" stroke-width="2"  />
			<g>
				<title>ILVD_EDD (PF00920)
"Dehydratase family"</title>
				<polygon class="PF00920" points="588,40 600,28 641,28 641,52 600,52" stroke-linejoin="round" width="57" height="24" fill="rgb(58,79,190)" stroke="rgb(46,63,152)" stroke-width="1" opacity="0.75" />
			</g>
		</g>
		<g>
			<title> (ctg3_188)</title>
			<polygon class=" (ctg3_188)" points="649,25 676,25 676,10 706,40 676,70 676,55 649,55" fill="rgb(255,255,255)" fill-opacity="1.0" stroke="rgb(0,0,0)" stroke-width="2"  />
			<g>
				<title>Amidohydro_1 (PF01979)
"Amidohydrolase family"</title>
				<rect class="PF01979" x="655" y="28" stroke-linejoin="round" width="28" height="24" fill="rgb(210,93,184)" stroke="rgb(168,74,147)" stroke-width="1" opacity="0.75" />
			</g>
			<g>
				<title>Adenine_deam_C (PF13382)
"Adenine deaminase C-terminal domain"</title>
				<polygon class="PF13382" points="688,28 690,28 702,40 690,52 688,52" stroke-linejoin="round" width="17" height="24" fill="rgb(60,152,200)" stroke="rgb(47,121,160)" stroke-width="1" opacity="0.75" />
			</g>
		</g>
	</g>
</svg>
