<svg version="1.1" baseProfile="full" xmlns="http://www.w3.org/2000/svg" width="1058.3" height="80">
	<g>
		<line x1="10" y1="40.0" x2="1048.3" y2="40.0" style="stroke:rgb(70,70,70); stroke-width:3 "/>
		<g>
			<title> (ctg16_86)</title>
			<polygon class=" (ctg16_86)" points="58,25 54,25 54,10 24,40 54,70 54,55 58,55" fill="rgb(255,255,255)" fill-opacity="1.0" stroke="rgb(0,0,0)" stroke-width="2"  />
			<g>
				<title>Cons_hypoth698 (PF03601)
"Conserved hypothetical protein 698"</title>
				<polygon class="PF03601" points="28,40 40,28 56,28 56,52 40,52" stroke-linejoin="round" width="30" height="24" fill="rgb(160,73,195)" stroke="rgb(128,58,156)" stroke-width="1" opacity="0.75" />
			</g>
		</g>
		<g>
			<title> (ctg16_87)</title>
			<polygon class=" (ctg16_87)" points="118,25 97,25 97,10 67,40 97,70 97,55 118,55" fill="rgb(255,255,255)" fill-opacity="1.0" stroke="rgb(0,0,0)" stroke-width="2"  />
			<g>
				<title>Thr_dehydrat_C (PF00585)
"C-terminal regulatory domain of Threonine dehydratase"</title>
				<polygon class="PF00585" points="71,40 75,36 75,44" stroke-linejoin="round" width="8" height="24" fill="rgb(94,84,210)" stroke="rgb(75,67,168)" stroke-width="1" opacity="0.75" />
			</g>
			<g>
				<title>Thr_dehydrat_C (PF00585)
"C-terminal regulatory domain of Threonine dehydratase"</title>
				<polygon class="PF00585" points="77,34 83,28 86,28 86,52 83,52 77,46" stroke-linejoin="round" width="9" height="24" fill="rgb(94,84,210)" stroke="rgb(75,67,168)" stroke-width="1" opacity="0.75" />
			</g>
			<g>
				<title>PALP (PF00291)
"Pyridoxal-phosphate dependent enzyme"</title>
				<rect class="PF00291" x="87" y="28" stroke-linejoin="round" width="29" height="24" fill="rgb(180,55,145)" stroke="rgb(144,44,116)" stroke-width="1" opacity="0.75" />
			</g>
		</g>
		<g>
			<title> (ctg16_88)</title>
			<polygon class=" (ctg16_88)" points="125,25 148,25 148,10 178,40 148,70 148,55 125,55" fill="rgb(255,255,255)" fill-opacity="1.0" stroke="rgb(0,0,0)" stroke-width="2"  />
			<g>
				<title>G_glu_transpept (PF01019)
"Gamma-glutamyltranspeptidase"</title>
				<polygon class="PF01019" points="128,28 161,28 173,40 161,52 128,52" stroke-linejoin="round" width="49" height="24" fill="rgb(117,205,100)" stroke="rgb(93,164,80)" stroke-width="1" opacity="0.75" />
			</g>
		</g>
		<g>
			<title> (ctg16_89)</title>
			<polygon class=" (ctg16_89)" points="180,25 184,25 184,10 214,40 184,70 184,55 180,55" fill="rgb(255,255,255)" fill-opacity="1.0" stroke="rgb(0,0,0)" stroke-width="2"  />
			<g>
				<title>GFO_IDH_MocA (PF01408)
"Oxidoreductase family, NAD-binding Rossmann fold"</title>
				<rect class="PF01408" x="180" y="28" stroke-linejoin="round" width="11" height="24" fill="rgb(76,117,190)" stroke="rgb(60,93,152)" stroke-width="1" opacity="0.75" />
			</g>
		</g>
		<g>
			<title> (ctg16_90)</title>
			<polygon class=" (ctg16_90)" points="215,40 224,10 224,70" fill="rgb(255,255,255)" fill-opacity="1.0" stroke="rgb(0,0,0)" stroke-width="2"  />
		</g>
		<g>
			<title> (ctg16_91)</title>
			<polygon class=" (ctg16_91)" points="230,40 244,10 244,70" fill="rgb(255,255,255)" fill-opacity="1.0" stroke="rgb(0,0,0)" stroke-width="2"  />
			<g>
				<title>DUF2385 (PF09539)
"Protein of unknown function (DUF2385)"</title>
				<polygon class="PF09539" points="233,40 239,28 239,28 239,52 239,52" stroke-linejoin="round" width="9" height="24" fill="rgb(93,223,192)" stroke="rgb(74,178,153)" stroke-width="1" opacity="0.75" />
			</g>
		</g>
		<g>
			<title> (ctg16_92)</title>
			<polygon class=" (ctg16_92)" points="245,40 261,10 261,70" fill="rgb(255,255,255)" fill-opacity="1.0" stroke="rgb(0,0,0)" stroke-width="2"  />
			<g>
				<title>NUDIX (PF00293)
"NUDIX domain"</title>
				<polygon class="PF00293" points="248,40 254,28 258,28 258,52 254,52" stroke-linejoin="round" width="12" height="24" fill="rgb(92,56,187)" stroke="rgb(73,44,149)" stroke-width="1" opacity="0.75" />
			</g>
		</g>
		<g>
			<title> (ctg16_93)</title>
			<polygon class=" (ctg16_93)" points="262,40 287,10 287,70" fill="rgb(255,255,255)" fill-opacity="1.0" stroke="rgb(0,0,0)" stroke-width="2"  />
			<g>
				<title>adh_short_C2 (PF13561)
"Enoyl-(Acyl carrier protein) reductase"</title>
				<polygon class="PF13561" points="266,40 276,28 285,28 285,52 276,52" stroke-linejoin="round" width="23" height="24" fill="rgb(73,205,127)" stroke="rgb(58,164,101)" stroke-width="1" opacity="0.75" />
			</g>
		</g>
		<g>
			<title> (ctg16_94)</title>
			<polygon class=" (ctg16_94)" points="288,40 308,10 308,70" fill="rgb(255,255,255)" fill-opacity="1.0" stroke="rgb(0,0,0)" stroke-width="2"  />
			<g>
				<title>PNP_phzG_C (PF10590)
"Pyridoxine 5'-phosphate oxidase C-terminal dimerisation region"</title>
				<polygon class="PF10590" points="292,40 292,40 292,40" stroke-linejoin="round" width="4" height="24" fill="rgb(86,221,142)" stroke="rgb(68,176,113)" stroke-width="1" opacity="0.75" />
			</g>
			<g>
				<title>Putative_PNPOx (PF01243)
"Pyridoxamine 5'-phosphate oxidase"</title>
				<polygon class="PF01243" points="297,33 300,28 305,28 305,52 300,52 297,47" stroke-linejoin="round" width="8" height="24" fill="rgb(177,193,67)" stroke="rgb(141,154,53)" stroke-width="1" opacity="0.75" />
			</g>
		</g>
		<g>
			<title> (ctg16_95)</title>
			<polygon class=" (ctg16_95)" points="313,10 328,40 313,70" fill="rgb(255,255,255)" fill-opacity="1.0" stroke="rgb(0,0,0)" stroke-width="2"  />
			<g>
				<title>17kDa_Anti_2 (PF16998)
"17 kDa outer membrane surface antigen"</title>
				<polygon class="PF16998" points="317,28 318,28 325,40 318,52 317,52" stroke-linejoin="round" width="11" height="24" fill="rgb(141,220,66)" stroke="rgb(112,176,52)" stroke-width="1" opacity="0.75" />
			</g>
		</g>
		<g>
			<title> (ctg16_96)</title>
			<polygon class=" (ctg16_96)" points="333,25 334,25 334,10 364,40 334,70 334,55 333,55" fill="rgb(255,255,255)" fill-opacity="1.0" stroke="rgb(0,0,0)" stroke-width="2"  />
			<g>
				<title>DnaJ (PF00226)
"DnaJ domain"</title>
				<rect class="PF00226" x="333" y="28" stroke-linejoin="round" width="6" height="24" fill="rgb(207,80,207)" stroke="rgb(165,63,165)" stroke-width="1" opacity="0.75" />
			</g>
			<g>
				<title>DnaJ_C (PF01556)
"DnaJ C terminal domain"</title>
				<polygon class="PF01556" points="347,28 347,28 359,40 347,52 347,52" stroke-linejoin="round" width="14" height="24" fill="rgb(97,143,214)" stroke="rgb(77,114,171)" stroke-width="1" opacity="0.75" />
			</g>
		</g>
		<g>
			<title> (ctg16_97)</title>
			<polygon class=" (ctg16_97)" points="370,10 398,40 370,70" fill="rgb(255,255,255)" fill-opacity="1.0" stroke="rgb(0,0,0)" stroke-width="2"  />
			<g>
				<title>adh_short_C2 (PF13561)
"Enoyl-(Acyl carrier protein) reductase"</title>
				<polygon class="PF13561" points="372,28 382,28 393,40 382,52 372,52" stroke-linejoin="round" width="23" height="24" fill="rgb(73,205,127)" stroke="rgb(58,164,101)" stroke-width="1" opacity="0.75" />
			</g>
		</g>
		<g>
			<title> (ctg16_98)</title>
			<polygon class=" (ctg16_98)" points="400,10 408,40 400,70" fill="rgb(255,255,255)" fill-opacity="1.0" stroke="rgb(0,0,0)" stroke-width="2"  />
			<g>
				<title>MazE_antitoxin (PF04014)
"Antidote-toxin recognition MazE, bacterial antitoxin"</title>
				<polygon class="PF04014" points="400,28 401,28 404,36 404,44 401,52 400,52" stroke-linejoin="round" width="4" height="24" fill="rgb(226,108,170)" stroke="rgb(180,86,136)" stroke-width="1" opacity="0.75" />
			</g>
		</g>
		<g>
			<title> (ctg16_99)</title>
			<polygon class=" (ctg16_99)" points="408,10 418,40 408,70" fill="rgb(255,255,255)" fill-opacity="1.0" stroke="rgb(0,0,0)" stroke-width="2"  />
			<g>
				<title>PemK_toxin (PF02452)
"PemK-like, MazF-like toxin of type II toxin-antitoxin system"</title>
				<polygon class="PF02452" points="408,28 410,28 415,40 410,52 408,52" stroke-linejoin="round" width="10" height="24" fill="rgb(81,193,221)" stroke="rgb(64,154,176)" stroke-width="1" opacity="0.75" />
			</g>
		</g>
		<g>
			<title> (ctg16_100)</title>
			<polygon class=" (ctg16_100)" points="419,40 436,10 436,70" fill="rgb(255,255,255)" fill-opacity="1.0" stroke="rgb(0,0,0)" stroke-width="2"  />
			<g>
				<title>HPPK (PF01288)
"7,8-dihydro-6-hydroxymethylpterin-pyrophosphokinase (HPPK)"</title>
				<polygon class="PF01288" points="422,40 429,28 434,28 434,52 429,52 422,40" stroke-linejoin="round" width="12" height="24" fill="rgb(203,129,62)" stroke="rgb(162,103,49)" stroke-width="1" opacity="0.75" />
			</g>
		</g>
		<g>
			<title> (ctg16_101)</title>
			<polygon class=" (ctg16_101)" points="436,40 448,10 448,70" fill="rgb(255,255,255)" fill-opacity="1.0" stroke="rgb(0,0,0)" stroke-width="2"  />
			<g>
				<title>FolB (PF02152)
"Dihydroneopterin aldolase"</title>
				<polygon class="PF02152" points="439,40 444,28 447,28 447,52 444,52" stroke-linejoin="round" width="11" height="24" fill="rgb(113,204,65)" stroke="rgb(90,163,52)" stroke-width="1" opacity="0.75" />
			</g>
		</g>
		<g>
			<title> (ctg16_102)</title>
			<polygon class=" (ctg16_102)" points="449,40 477,10 477,70" fill="rgb(255,255,255)" fill-opacity="1.0" stroke="rgb(0,0,0)" stroke-width="2"  />
			<g>
				<title>Pterin_bind (PF00809)
"Pterin binding enzyme"</title>
				<polygon class="PF00809" points="453,40 464,28 474,28 474,52 464,52" stroke-linejoin="round" width="23" height="24" fill="rgb(192,119,62)" stroke="rgb(153,95,49)" stroke-width="1" opacity="0.75" />
			</g>
		</g>
		<g>
			<title> (ctg16_103)</title>
			<polygon class=" (ctg16_103)" points="481,10 500,40 481,70" fill="rgb(255,255,255)" fill-opacity="1.0" stroke="rgb(0,0,0)" stroke-width="2"  />
			<g>
				<title>His_Phos_1 (PF00300)
"Histidine phosphatase superfamily (branch 1)"</title>
				<polygon class="PF00300" points="482,28 489,28 497,40 489,52 482,52" stroke-linejoin="round" width="18" height="24" fill="rgb(135,184,63)" stroke="rgb(107,147,50)" stroke-width="1" opacity="0.75" />
			</g>
		</g>
		<g>
			<title> (ctg16_104)</title>
			<polygon class=" (ctg16_104)" points="510,25 614,25 614,10 644,40 614,70 614,55 510,55" fill="rgb(255,255,255)" fill-opacity="1.0" stroke="rgb(0,0,0)" stroke-width="2"  />
			<g>
				<title>AMP-binding (PF00501)
"AMP-binding enzyme"</title>
				<rect class="PF00501" x="514" y="28" stroke-linejoin="round" width="39" height="24" fill="rgb(60,217,223)" stroke="rgb(48,173,178)" stroke-width="1" opacity="0.75" />
			</g>
			<g>
				<title>AMP-binding_C (PF13193)
"AMP-binding enzyme C-terminal domain"</title>
				<rect class="PF13193" x="554" y="28" stroke-linejoin="round" width="7" height="24" fill="rgb(182,50,118)" stroke="rgb(145,39,94)" stroke-width="1" opacity="0.75" />
			</g>
			<g>
				<title>PP-binding (PF00550)
"Phosphopantetheine attachment site"</title>
				<rect class="PF00550" x="564" y="28" stroke-linejoin="round" width="6" height="24" fill="rgb(103,191,88)" stroke="rgb(82,152,70)" stroke-width="1" opacity="0.75" />
			</g>
		</g>
		<g>
			<title> (ctg16_105)</title>
			<polygon class=" (ctg16_105)" points="644,40 670,10 670,70" fill="rgb(255,255,255)" fill-opacity="1.0" stroke="rgb(0,0,0)" stroke-width="2"  />
			<g>
				<title>PseudoU_synth_2 (PF00849)
"RNA pseudouridylate synthase"</title>
				<polygon class="PF00849" points="649,39 658,28 662,28 662,52 658,52 649,41" stroke-linejoin="round" width="13" height="24" fill="rgb(226,76,228)" stroke="rgb(180,60,182)" stroke-width="1" opacity="0.75" />
			</g>
			<g>
				<title>S4 (PF01479)
"S4 domain"</title>
				<rect class="PF01479" x="664" y="28" stroke-linejoin="round" width="4" height="24" fill="rgb(93,184,76)" stroke="rgb(74,147,60)" stroke-width="1" opacity="0.75" />
			</g>
		</g>
		<g>
			<title> (ctg16_106)</title>
			<polygon class=" (ctg16_106)" points="683,25 690,25 690,10 720,40 690,70 690,55 683,55" fill="rgb(255,255,255)" fill-opacity="1.0" stroke="rgb(0,0,0)" stroke-width="2"  />
			<g>
				<title>Chorismate_synt (PF01264)
"Chorismate synthase"</title>
				<polygon class="PF01264" points="684,28 704,28 716,40 704,52 684,52" stroke-linejoin="round" width="34" height="24" fill="rgb(118,90,209)" stroke="rgb(94,72,167)" stroke-width="1" opacity="0.75" />
			</g>
		</g>
		<g>
			<title> (ctg16_107)</title>
			<polygon class=" (ctg16_107)" points="724,25 736,25 736,10 766,40 736,70 736,55 724,55" fill="rgb(255,255,255)" fill-opacity="1.0" stroke="rgb(0,0,0)" stroke-width="2"  />
			<g>
				<title>DHBP_synthase (PF00926)
"3,4-dihydroxy-2-butanone 4-phosphate synthase"</title>
				<rect class="PF00926" x="731" y="28" stroke-linejoin="round" width="19" height="24" fill="rgb(84,51,187)" stroke="rgb(67,40,149)" stroke-width="1" opacity="0.75" />
			</g>
			<g>
				<title>GTP_cyclohydro2 (PF00925)
"GTP cyclohydrolase II"</title>
				<polygon class="PF00925" points="751,29 762,40 751,51" stroke-linejoin="round" width="14" height="24" fill="rgb(50,54,188)" stroke="rgb(40,43,150)" stroke-width="1" opacity="0.75" />
			</g>
		</g>
		<g>
			<title> (ctg16_108)</title>
			<polygon class=" (ctg16_108)" points="767,40 796,10 796,70" fill="rgb(255,255,255)" fill-opacity="1.0" stroke="rgb(0,0,0)" stroke-width="2"  />
			<g>
				<title>Hist_deacetyl (PF00850)
"Histone deacetylase domain"</title>
				<polygon class="PF00850" points="771,40 783,28 795,28 795,52 783,52" stroke-linejoin="round" width="28" height="24" fill="rgb(184,51,130)" stroke="rgb(147,40,104)" stroke-width="1" opacity="0.75" />
			</g>
		</g>
		<g>
			<title> (ctg16_109)</title>
			<polygon class=" (ctg16_109)" points="805,10 824,40 805,70" fill="rgb(255,255,255)" fill-opacity="1.0" stroke="rgb(0,0,0)" stroke-width="2"  />
			<g>
				<title>YkuD (PF03734)
"L,D-transpeptidase catalytic domain"</title>
				<polygon class="PF03734" points="811,28 813,28 821,40 813,52 811,52" stroke-linejoin="round" width="13" height="24" fill="rgb(112,183,75)" stroke="rgb(89,146,60)" stroke-width="1" opacity="0.75" />
			</g>
		</g>
		<g>
			<title> (ctg16_110)</title>
			<polygon class=" (ctg16_110)" points="836,40 843,10 843,70" fill="rgb(255,255,255)" fill-opacity="1.0" stroke="rgb(0,0,0)" stroke-width="2"  />
		</g>
		<g>
			<title> (ctg16_111)</title>
			<polygon class=" (ctg16_111)" points="895,25 880,25 880,10 850,40 880,70 880,55 895,55" fill="rgb(255,255,255)" fill-opacity="1.0" stroke="rgb(0,0,0)" stroke-width="2"  />
			<g>
				<title>Aminotran_3 (PF00202)
"Aminotransferase class-III"</title>
				<polygon class="PF00202" points="854,40 866,28 893,28 893,52 866,52" stroke-linejoin="round" width="42" height="24" fill="rgb(49,163,189)" stroke="rgb(39,130,151)" stroke-width="1" opacity="0.75" />
			</g>
		</g>
		<g>
			<title> (ctg16_112)</title>
			<polygon class=" (ctg16_112)" points="954,25 936,25 936,10 906,40 936,70 936,55 954,55" fill="rgb(255,255,255)" fill-opacity="1.0" stroke="rgb(0,0,0)" stroke-width="2"  />
			<g>
				<title>Amidase (PF01425)
"Amidase"</title>
				<polygon class="PF01425" points="910,40 922,28 952,28 952,52 922,52" stroke-linejoin="round" width="44" height="24" fill="rgb(195,142,64)" stroke="rgb(156,113,51)" stroke-width="1" opacity="0.75" />
			</g>
		</g>
		<g>
			<title> (ctg16_113)</title>
			<polygon class=" (ctg16_113)" points="955,40 970,10 970,70" fill="rgb(255,255,255)" fill-opacity="1.0" stroke="rgb(0,0,0)" stroke-width="2"  />
			<g>
				<title>MarR (PF01047)
"MarR family"</title>
				<polygon class="PF01047" points="960,36 964,28 965,28 965,52 964,52 960,44" stroke-linejoin="round" width="5" height="24" fill="rgb(60,185,86)" stroke="rgb(48,148,68)" stroke-width="1" opacity="0.75" />
			</g>
		</g>
		<g>
			<title> (ctg16_114)</title>
			<polygon class=" (ctg16_114)" points="975,25 999,25 999,10 1029,40 999,70 999,55 975,55" fill="rgb(255,255,255)" fill-opacity="1.0" stroke="rgb(0,0,0)" stroke-width="2"  />
			<g>
				<title>AMP-binding (PF00501)
"AMP-binding enzyme"</title>
				<polygon class="PF00501" points="976,28 1012,28 1018,34 1018,46 1012,52 976,52" stroke-linejoin="round" width="42" height="24" fill="rgb(60,217,223)" stroke="rgb(48,173,178)" stroke-width="1" opacity="0.75" />
			</g>
			<g>
				<title>AMP-binding_C (PF13193)
"AMP-binding enzyme C-terminal domain"</title>
				<polygon class="PF13193" points="1019,35 1024,40 1019,45" stroke-linejoin="round" width="7" height="24" fill="rgb(182,50,118)" stroke="rgb(145,39,94)" stroke-width="1" opacity="0.75" />
			</g>
		</g>
		<g>
			<title> (ctg16_115)</title>
			<polygon class=" (ctg16_115)" points="1038,40 1048,10 1048,70" fill="rgb(255,255,255)" fill-opacity="1.0" stroke="rgb(0,0,0)" stroke-width="2"  />
		</g>
	</g>
</svg>
