<svg version="1.1" baseProfile="full" xmlns="http://www.w3.org/2000/svg" width="710.1666666666666" height="80">
	<g>
		<line x1="10" y1="40.0" x2="700.1666666666666" y2="40.0" style="stroke:rgb(70,70,70); stroke-width:3 "/>
		<g>
			<title> (ctg8_30)</title>
			<polygon class=" (ctg8_30)" points="197,25 49,25 49,10 19,40 49,70 49,55 197,55" fill="rgb(255,255,255)" fill-opacity="1.0" stroke="rgb(0,0,0)" stroke-width="2"  />
			<g>
				<title>Fil_haemagg (PF05594)
"Haemagglutinin repeat"</title>
				<polygon class="PF05594" points="34,29 35,28 41,28 41,52 35,52 34,51" stroke-linejoin="round" width="7" height="24" fill="rgb(228,167,73)" stroke="rgb(182,133,58)" stroke-width="1" opacity="0.75" />
			</g>
			<g>
				<title>Fil_haemagg (PF05594)
"Haemagglutinin repeat"</title>
				<rect class="PF05594" x="56" y="28" stroke-linejoin="round" width="7" height="24" fill="rgb(228,167,73)" stroke="rgb(182,133,58)" stroke-width="1" opacity="0.75" />
			</g>
			<g>
				<title>Fil_haemagg (PF05594)
"Haemagglutinin repeat"</title>
				<rect class="PF05594" x="63" y="28" stroke-linejoin="round" width="5" height="24" fill="rgb(228,167,73)" stroke="rgb(182,133,58)" stroke-width="1" opacity="0.75" />
			</g>
			<g>
				<title>Fil_haemagg (PF05594)
"Haemagglutinin repeat"</title>
				<rect class="PF05594" x="84" y="28" stroke-linejoin="round" width="7" height="24" fill="rgb(228,167,73)" stroke="rgb(182,133,58)" stroke-width="1" opacity="0.75" />
			</g>
			<g>
				<title>Fil_haemagg (PF05594)
"Haemagglutinin repeat"</title>
				<rect class="PF05594" x="101" y="28" stroke-linejoin="round" width="10" height="24" fill="rgb(228,167,73)" stroke="rgb(182,133,58)" stroke-width="1" opacity="0.75" />
			</g>
			<g>
				<title>Fil_haemagg (PF05594)
"Haemagglutinin repeat"</title>
				<rect class="PF05594" x="120" y="28" stroke-linejoin="round" width="6" height="24" fill="rgb(228,167,73)" stroke="rgb(182,133,58)" stroke-width="1" opacity="0.75" />
			</g>
			<g>
				<title>Fil_haemagg (PF05594)
"Haemagglutinin repeat"</title>
				<rect class="PF05594" x="139" y="28" stroke-linejoin="round" width="7" height="24" fill="rgb(228,167,73)" stroke="rgb(182,133,58)" stroke-width="1" opacity="0.75" />
			</g>
			<g>
				<title>Fil_haemagg (PF05594)
"Haemagglutinin repeat"</title>
				<rect class="PF05594" x="158" y="28" stroke-linejoin="round" width="10" height="24" fill="rgb(228,167,73)" stroke="rgb(182,133,58)" stroke-width="1" opacity="0.75" />
			</g>
			<g>
				<title>TPS (PF05860)
"TPS secretion domain"</title>
				<rect class="PF05860" x="168" y="28" stroke-linejoin="round" width="25" height="24" fill="rgb(56,197,81)" stroke="rgb(44,157,64)" stroke-width="1" opacity="0.75" />
			</g>
		</g>
		<g>
			<title> (ctg8_31)</title>
			<polygon class=" (ctg8_31)" points="255,25 229,25 229,10 199,40 229,70 229,55 255,55" fill="rgb(255,255,255)" fill-opacity="1.0" stroke="rgb(0,0,0)" stroke-width="2"  />
			<g>
				<title>ShlB (PF03865)
"Haemolysin secretion/activation protein ShlB/FhaC/HecB"</title>
				<polygon class="PF03865" points="203,40 215,28 233,28 233,52 215,52" stroke-linejoin="round" width="31" height="24" fill="rgb(110,71,215)" stroke="rgb(87,56,172)" stroke-width="1" opacity="0.75" />
			</g>
			<g>
				<title>POTRA_3 (PF17287)
"POTRA domain"</title>
				<rect class="PF17287" x="234" y="28" stroke-linejoin="round" width="5" height="24" fill="rgb(66,192,58)" stroke="rgb(52,153,46)" stroke-width="1" opacity="0.75" />
			</g>
			<g>
				<title>POTRA_2 (PF08479)
"POTRA domain, ShlB-type"</title>
				<rect class="PF08479" x="239" y="28" stroke-linejoin="round" width="7" height="24" fill="rgb(99,69,180)" stroke="rgb(79,55,144)" stroke-width="1" opacity="0.75" />
			</g>
		</g>
		<g>
			<title> (ctg8_32)</title>
			<polygon class=" (ctg8_32)" points="266,40 276,10 276,70" fill="rgb(255,255,255)" fill-opacity="1.0" stroke="rgb(0,0,0)" stroke-width="2"  />
		</g>
		<g>
			<title> (ctg8_33)</title>
			<polygon class=" (ctg8_33)" points="279,10 292,40 279,70" fill="rgb(255,255,255)" fill-opacity="1.0" stroke="rgb(0,0,0)" stroke-width="2"  />
			<g>
				<title>DUF4942 (PF13708)
"Domain of unknown function (DUF4942)"</title>
				<polygon class="PF13708" points="279,28 283,28 289,40 283,52 279,52" stroke-linejoin="round" width="12" height="24" fill="rgb(87,90,215)" stroke="rgb(69,72,172)" stroke-width="1" opacity="0.75" />
			</g>
		</g>
		<g>
			<title> (ctg8_34)</title>
			<polygon class=" (ctg8_34)" points="294,10 305,40 294,70" fill="rgb(255,255,255)" fill-opacity="1.0" stroke="rgb(0,0,0)" stroke-width="2"  />
		</g>
		<g>
			<title> (ctg8_35)</title>
			<polygon class=" (ctg8_35)" points="327,10 332,40 327,70" fill="rgb(255,255,255)" fill-opacity="1.0" stroke="rgb(0,0,0)" stroke-width="2"  />
		</g>
		<g>
			<title> (ctg8_36)</title>
			<polygon class=" (ctg8_36)" points="343,10 366,40 343,70" fill="rgb(255,255,255)" fill-opacity="1.0" stroke="rgb(0,0,0)" stroke-width="2"  />
		</g>
		<g>
			<title> (ctg8_37)</title>
			<polygon class=" (ctg8_37)" points="364,40 388,10 388,70" fill="rgb(255,255,255)" fill-opacity="1.0" stroke="rgb(0,0,0)" stroke-width="2"  />
			<g>
				<title>GerE (PF00196)
"Bacterial regulatory proteins, luxR family"</title>
				<polygon class="PF00196" points="368,40 370,38 370,42" stroke-linejoin="round" width="5" height="24" fill="rgb(219,94,82)" stroke="rgb(175,75,65)" stroke-width="1" opacity="0.75" />
			</g>
			<g>
				<title>Autoind_bind (PF03472)
"Autoinducer binding domain"</title>
				<polygon class="PF03472" points="373,34 378,28 387,28 387,52 378,52 373,46" stroke-linejoin="round" width="14" height="24" fill="rgb(99,181,52)" stroke="rgb(79,144,41)" stroke-width="1" opacity="0.75" />
			</g>
		</g>
		<g>
			<title> (ctg8_38)</title>
			<polygon class=" (ctg8_38)" points="423,40 443,10 443,70" fill="rgb(255,255,255)" fill-opacity="1.0" stroke="rgb(0,0,0)" stroke-width="2"  />
		</g>
		<g>
			<title> (ctg8_39)</title>
			<polygon class=" (ctg8_39)" points="455,40 466,10 466,70" fill="rgb(255,255,255)" fill-opacity="1.0" stroke="rgb(0,0,0)" stroke-width="2"  />
			<g>
				<title>Multi_Drug_Res (PF00893)
"Small Multidrug Resistance protein"</title>
				<polygon class="PF00893" points="458,40 462,28 465,28 465,52 462,52" stroke-linejoin="round" width="9" height="24" fill="rgb(199,75,202)" stroke="rgb(159,60,161)" stroke-width="1" opacity="0.75" />
			</g>
		</g>
		<g>
			<title> (ctg8_40)</title>
			<polygon class=" (ctg8_40)" points="466,40 477,10 477,70" fill="rgb(255,255,255)" fill-opacity="1.0" stroke="rgb(0,0,0)" stroke-width="2"  />
			<g>
				<title>Multi_Drug_Res (PF00893)
"Small Multidrug Resistance protein"</title>
				<polygon class="PF00893" points="469,40 474,28 476,28 476,52 474,52" stroke-linejoin="round" width="9" height="24" fill="rgb(199,75,202)" stroke="rgb(159,60,161)" stroke-width="1" opacity="0.75" />
			</g>
		</g>
		<g>
			<title> (ctg8_41)</title>
			<polygon class=" (ctg8_41)" points="480,40 502,10 502,70" fill="rgb(255,255,255)" fill-opacity="1.0" stroke="rgb(0,0,0)" stroke-width="2"  />
		</g>
		<g>
			<title> (ctg8_42)</title>
			<polygon class=" (ctg8_42)" points="503,40 524,10 524,70" fill="rgb(255,255,255)" fill-opacity="1.0" stroke="rgb(0,0,0)" stroke-width="2"  />
			<g>
				<title>PTAC (PF06130)
"Phosphate propanoyltransferase"</title>
				<polygon class="PF06130" points="507,40 510,36 510,44" stroke-linejoin="round" width="6" height="24" fill="rgb(189,51,141)" stroke="rgb(151,40,112)" stroke-width="1" opacity="0.75" />
			</g>
			<g>
				<title>PTAC (PF06130)
"Phosphate propanoyltransferase"</title>
				<polygon class="PF06130" points="513,32 515,28 521,28 521,52 515,52 513,48" stroke-linejoin="round" width="8" height="24" fill="rgb(189,51,141)" stroke="rgb(151,40,112)" stroke-width="1" opacity="0.75" />
			</g>
		</g>
		<g>
			<title> (ctg8_43)</title>
			<polygon class=" (ctg8_43)" points="525,40 538,10 538,70" fill="rgb(255,255,255)" fill-opacity="1.0" stroke="rgb(0,0,0)" stroke-width="2"  />
			<g>
				<title>BMC (PF00936)
"BMC domain"</title>
				<polygon class="PF00936" points="530,36 533,28 537,28 537,52 533,52 530,44" stroke-linejoin="round" width="7" height="24" fill="rgb(184,205,98)" stroke="rgb(147,164,78)" stroke-width="1" opacity="0.75" />
			</g>
		</g>
		<g>
			<title> (ctg8_44)</title>
			<polygon class=" (ctg8_44)" points="570,25 569,25 569,10 539,40 569,70 569,55 570,55" fill="rgb(255,255,255)" fill-opacity="1.0" stroke="rgb(0,0,0)" stroke-width="2"  />
			<g>
				<title>Radical_SAM (PF04055)
"Radical SAM superfamily"</title>
				<polygon class="PF04055" points="546,37 555,28 567,28 567,52 555,52 546,43" stroke-linejoin="round" width="21" height="24" fill="rgb(149,56,222)" stroke="rgb(119,44,177)" stroke-width="1" opacity="0.75" />
			</g>
		</g>
		<g>
			<title> (ctg8_45)</title>
			<polygon class=" (ctg8_45)" points="687,25 603,25 603,10 573,40 603,70 603,55 687,55" fill="rgb(255,255,255)" fill-opacity="1.0" stroke="rgb(0,0,0)" stroke-width="2"  />
			<g>
				<title>Gly_radical (PF01228)
"Glycine radical"</title>
				<polygon class="PF01228" points="577,40 585,32 585,48" stroke-linejoin="round" width="10" height="24" fill="rgb(103,207,173)" stroke="rgb(82,165,138)" stroke-width="1" opacity="0.75" />
			</g>
			<g>
				<title>PFL-like (PF02901)
"Pyruvate formate lyase-like"</title>
				<polygon class="PF02901" points="587,30 589,28 652,28 652,52 589,52 587,50" stroke-linejoin="round" width="65" height="24" fill="rgb(90,117,182)" stroke="rgb(72,93,145)" stroke-width="1" opacity="0.75" />
			</g>
			<g>
				<title>PFL-like (PF02901)
"Pyruvate formate lyase-like"</title>
				<rect class="PF02901" x="653" y="28" stroke-linejoin="round" width="25" height="24" fill="rgb(90,117,182)" stroke="rgb(72,93,145)" stroke-width="1" opacity="0.75" />
			</g>
		</g>
	</g>
</svg>
