<svg version="1.1" baseProfile="full" xmlns="http://www.w3.org/2000/svg" width="915.9333333333333" height="80">
	<g>
		<line x1="10" y1="40.0" x2="905.9333333333333" y2="40.0" style="stroke:rgb(70,70,70); stroke-width:3 "/>
		<g>
			<title> (ctg8_76)</title>
			<polygon class=" (ctg8_76)" points="11,40 23,10 23,70" fill="rgb(255,255,255)" fill-opacity="1.0" stroke="rgb(0,0,0)" stroke-width="2"  />
			<g>
				<title>DUF3040 (PF11239)
"Protein of unknown function (DUF3040)"</title>
				<polygon class="PF11239" points="15,38 19,28 23,28 23,52 19,52 15,42" stroke-linejoin="round" width="8" height="24" fill="rgb(75,191,84)" stroke="rgb(60,152,67)" stroke-width="1" opacity="0.75" />
			</g>
		</g>
		<g>
			<title> (ctg8_77)</title>
			<polygon class=" (ctg8_77)" points="71,25 58,25 58,10 28,40 58,70 58,55 71,55" fill="rgb(255,255,255)" fill-opacity="1.0" stroke="rgb(0,0,0)" stroke-width="2"  />
			<g>
				<title>IMS_C (PF11799)
"impB/mucB/samB family C-terminal domain"</title>
				<polygon class="PF11799" points="34,38 44,28 45,28 45,52 44,52 34,42" stroke-linejoin="round" width="11" height="24" fill="rgb(68,195,187)" stroke="rgb(54,156,149)" stroke-width="1" opacity="0.75" />
			</g>
			<g>
				<title>IMS_HHH (PF11798)
"IMS family HHH motif"</title>
				<rect class="PF11798" x="50" y="28" stroke-linejoin="round" width="3" height="24" fill="rgb(81,199,189)" stroke="rgb(64,159,151)" stroke-width="1" opacity="0.75" />
			</g>
			<g>
				<title>IMS (PF00817)
"impB/mucB/samB family"</title>
				<rect class="PF00817" x="54" y="28" stroke-linejoin="round" width="14" height="24" fill="rgb(187,207,75)" stroke="rgb(149,165,60)" stroke-width="1" opacity="0.75" />
			</g>
		</g>
		<g>
			<title> (ctg8_78)</title>
			<polygon class=" (ctg8_78)" points="73,25 80,25 80,10 110,40 80,70 80,55 73,55" fill="rgb(255,255,255)" fill-opacity="1.0" stroke="rgb(0,0,0)" stroke-width="2"  />
			<g>
				<title>polyprenyl_synt (PF00348)
"Polyprenyl synthetase"</title>
				<polygon class="PF00348" points="77,28 93,28 104,39 104,41 93,52 77,52" stroke-linejoin="round" width="27" height="24" fill="rgb(61,206,65)" stroke="rgb(48,164,52)" stroke-width="1" opacity="0.75" />
			</g>
		</g>
		<g>
			<title> (ctg8_79)</title>
			<polygon class=" (ctg8_79)" points="112,40 125,10 125,70" fill="rgb(255,255,255)" fill-opacity="1.0" stroke="rgb(0,0,0)" stroke-width="2"  />
			<g>
				<title>Rv2175c_C (PF18367)
"Rv2175c C-terminal domain of unknown function"</title>
				<polygon class="PF18367" points="115,40 117,35 117,45" stroke-linejoin="round" width="5" height="24" fill="rgb(83,192,90)" stroke="rgb(66,153,71)" stroke-width="1" opacity="0.75" />
			</g>
		</g>
		<g>
			<title> (ctg8_80)</title>
			<polygon class=" (ctg8_80)" points="134,25 140,25 140,10 170,40 140,70 140,55 134,55" fill="rgb(255,255,255)" fill-opacity="1.0" stroke="rgb(0,0,0)" stroke-width="2"  />
			<g>
				<title>LysM (PF01476)
"LysM domain"</title>
				<rect class="PF01476" x="136" y="28" stroke-linejoin="round" width="4" height="24" fill="rgb(200,86,203)" stroke="rgb(160,68,162)" stroke-width="1" opacity="0.75" />
			</g>
			<g>
				<title>LysM (PF01476)
"LysM domain"</title>
				<rect class="PF01476" x="141" y="28" stroke-linejoin="round" width="4" height="24" fill="rgb(200,86,203)" stroke="rgb(160,68,162)" stroke-width="1" opacity="0.75" />
			</g>
			<g>
				<title>LysM (PF01476)
"LysM domain"</title>
				<rect class="PF01476" x="148" y="28" stroke-linejoin="round" width="4" height="24" fill="rgb(200,86,203)" stroke="rgb(160,68,162)" stroke-width="1" opacity="0.75" />
			</g>
			<g>
				<title>SLT (PF01464)
"Transglycosylase SLT domain"</title>
				<polygon class="PF01464" points="158,32 166,40 158,48" stroke-linejoin="round" width="11" height="24" fill="rgb(181,60,156)" stroke="rgb(144,47,124)" stroke-width="1" opacity="0.75" />
			</g>
		</g>
		<g>
			<title> (ctg8_81)</title>
			<polygon class=" (ctg8_81)" points="174,25 207,25 207,10 237,40 207,70 207,55 174,55" fill="rgb(255,255,255)" fill-opacity="1.0" stroke="rgb(0,0,0)" stroke-width="2"  />
			<g>
				<title>Pkinase (PF00069)
"Protein kinase domain"</title>
				<rect class="PF00069" x="174" y="28" stroke-linejoin="round" width="26" height="24" fill="rgb(104,187,65)" stroke="rgb(83,149,51)" stroke-width="1" opacity="0.75" />
			</g>
			<g>
				<title>PASTA (PF03793)
"PASTA domain"</title>
				<polygon class="PF03793" points="217,28 221,28 223,30 223,50 221,52 217,52" stroke-linejoin="round" width="6" height="24" fill="rgb(84,217,212)" stroke="rgb(67,173,169)" stroke-width="1" opacity="0.75" />
			</g>
			<g>
				<title>PASTA (PF03793)
"PASTA domain"</title>
				<polygon class="PF03793" points="224,31 230,37 230,43 224,49" stroke-linejoin="round" width="6" height="24" fill="rgb(84,217,212)" stroke="rgb(67,173,169)" stroke-width="1" opacity="0.75" />
			</g>
			<g>
				<title>PASTA (PF03793)
"PASTA domain"</title>
				<polygon class="PF03793" points="231,38 233,40 231,42" stroke-linejoin="round" width="6" height="24" fill="rgb(84,217,212)" stroke="rgb(67,173,169)" stroke-width="1" opacity="0.75" />
			</g>
		</g>
		<g>
			<title> (ctg8_82)</title>
			<polygon class=" (ctg8_82)" points="285,25 268,25 268,10 238,40 268,70 268,55 285,55" fill="rgb(255,255,255)" fill-opacity="1.0" stroke="rgb(0,0,0)" stroke-width="2"  />
			<g>
				<title>DAHP_synth_2 (PF01474)
"Class-II DAHP synthetase family"</title>
				<polygon class="PF01474" points="242,40 254,28 282,28 282,52 254,52" stroke-linejoin="round" width="43" height="24" fill="rgb(126,217,84)" stroke="rgb(100,173,67)" stroke-width="1" opacity="0.75" />
			</g>
		</g>
		<g>
			<title> (ctg8_83)</title>
			<polygon class=" (ctg8_83)" points="287,40 310,10 310,70" fill="rgb(255,255,255)" fill-opacity="1.0" stroke="rgb(0,0,0)" stroke-width="2"  />
			<g>
				<title>Acyltransferase (PF01553)
"Acyltransferase"</title>
				<polygon class="PF01553" points="295,35 300,28 308,28 308,52 300,52 295,45" stroke-linejoin="round" width="13" height="24" fill="rgb(87,176,216)" stroke="rgb(69,140,172)" stroke-width="1" opacity="0.75" />
			</g>
		</g>
		<g>
			<title> (ctg8_84)</title>
			<polygon class=" (ctg8_84)" points="312,10 339,40 312,70" fill="rgb(255,255,255)" fill-opacity="1.0" stroke="rgb(0,0,0)" stroke-width="2"  />
			<g>
				<title>Abhydrolase_6 (PF12697)
"Alpha/beta hydrolase family"</title>
				<polygon class="PF12697" points="316,28 323,28 335,40 323,52 316,52" stroke-linejoin="round" width="22" height="24" fill="rgb(113,71,219)" stroke="rgb(90,56,175)" stroke-width="1" opacity="0.75" />
			</g>
		</g>
		<g>
			<title> (ctg8_85)</title>
			<polygon class=" (ctg8_85)" points="343,25 374,25 374,10 404,40 374,70 374,55 343,55" fill="rgb(255,255,255)" fill-opacity="1.0" stroke="rgb(0,0,0)" stroke-width="2"  />
			<g>
				<title>AMP-binding (PF00501)
"AMP-binding enzyme"</title>
				<polygon class="PF00501" points="345,28 387,28 390,31 390,49 387,52 345,52" stroke-linejoin="round" width="45" height="24" fill="rgb(60,217,223)" stroke="rgb(48,173,178)" stroke-width="1" opacity="0.75" />
			</g>
		</g>
		<g>
			<title> (ctg8_86)</title>
			<polygon class=" (ctg8_86)" points="457,25 436,25 436,10 406,40 436,70 436,55 457,55" fill="rgb(255,255,255)" fill-opacity="1.0" stroke="rgb(0,0,0)" stroke-width="2"  />
			<g>
				<title>Pyr_redox_dim (PF02852)
"Pyridine nucleotide-disulphide oxidoreductase, dimerisation domain"</title>
				<polygon class="PF02852" points="410,40 418,32 418,48" stroke-linejoin="round" width="11" height="24" fill="rgb(191,148,67)" stroke="rgb(152,118,53)" stroke-width="1" opacity="0.75" />
			</g>
			<g>
				<title>Pyr_redox_2 (PF07992)
"Pyridine nucleotide-disulphide oxidoreductase"</title>
				<polygon class="PF07992" points="420,30 422,28 453,28 453,52 422,52 420,50" stroke-linejoin="round" width="33" height="24" fill="rgb(83,223,167)" stroke="rgb(66,178,133)" stroke-width="1" opacity="0.75" />
			</g>
		</g>
		<g>
			<title> (ctg8_87)</title>
			<polygon class=" (ctg8_87)" points="572,25 488,25 488,10 458,40 488,70 488,55 572,55" fill="rgb(255,255,255)" fill-opacity="1.0" stroke="rgb(0,0,0)" stroke-width="2"  />
			<g>
				<title>Biotin_lipoyl (PF00364)
"Biotin-requiring enzyme"</title>
				<polygon class="PF00364" points="462,40 464,38 464,42" stroke-linejoin="round" width="6" height="24" fill="rgb(67,214,213)" stroke="rgb(53,171,170)" stroke-width="1" opacity="0.75" />
			</g>
			<g>
				<title>PYC_OADA (PF02436)
"Conserved carboxylase domain"</title>
				<polygon class="PF02436" points="469,33 474,28 488,28 488,52 474,52 469,47" stroke-linejoin="round" width="19" height="24" fill="rgb(181,121,72)" stroke="rgb(144,96,57)" stroke-width="1" opacity="0.75" />
			</g>
			<g>
				<title>HMGL-like (PF00682)
"HMGL-like"</title>
				<rect class="PF00682" x="491" y="28" stroke-linejoin="round" width="27" height="24" fill="rgb(84,228,141)" stroke="rgb(67,182,112)" stroke-width="1" opacity="0.75" />
			</g>
			<g>
				<title>Biotin_carb_C (PF02785)
"Biotin carboxylase C-terminal domain"</title>
				<rect class="PF02785" x="528" y="28" stroke-linejoin="round" width="10" height="24" fill="rgb(82,186,211)" stroke="rgb(65,148,168)" stroke-width="1" opacity="0.75" />
			</g>
			<g>
				<title>CPSase_L_D2 (PF02786)
"Carbamoyl-phosphate synthase L chain, ATP binding domain"</title>
				<rect class="PF02786" x="540" y="28" stroke-linejoin="round" width="21" height="24" fill="rgb(190,97,205)" stroke="rgb(151,77,164)" stroke-width="1" opacity="0.75" />
			</g>
			<g>
				<title>Biotin_carb_N (PF00289)
"Biotin carboxylase, N-terminal domain"</title>
				<rect class="PF00289" x="562" y="28" stroke-linejoin="round" width="10" height="24" fill="rgb(59,114,187)" stroke="rgb(47,91,149)" stroke-width="1" opacity="0.75" />
			</g>
		</g>
		<g>
			<title> (ctg8_88)</title>
			<polygon class=" (ctg8_88)" points="579,40 597,10 597,70" fill="rgb(255,255,255)" fill-opacity="1.0" stroke="rgb(0,0,0)" stroke-width="2"  />
			<g>
				<title>MerR_1 (PF13411)
"MerR HTH family regulatory protein"</title>
				<polygon class="PF13411" points="587,34 591,28 594,28 594,52 591,52 587,46" stroke-linejoin="round" width="7" height="24" fill="rgb(100,202,107)" stroke="rgb(80,161,85)" stroke-width="1" opacity="0.75" />
			</g>
		</g>
		<g>
			<title> (ctg8_89)</title>
			<polygon class=" (ctg8_89)" points="604,40 621,10 621,70" fill="rgb(255,255,255)" fill-opacity="1.0" stroke="rgb(0,0,0)" stroke-width="2"  />
			<g>
				<title>BFN_dom (PF02577)
"Bifunctional nuclease domain"</title>
				<polygon class="PF02577" points="607,40 614,28 617,28 617,52 614,52" stroke-linejoin="round" width="11" height="24" fill="rgb(169,220,60)" stroke="rgb(135,176,48)" stroke-width="1" opacity="0.75" />
			</g>
		</g>
		<g>
			<title> (ctg8_90)</title>
			<polygon class=" (ctg8_90)" points="621,40 645,10 645,70" fill="rgb(255,255,255)" fill-opacity="1.0" stroke="rgb(0,0,0)" stroke-width="2"  />
			<g>
				<title>MerR (PF00376)
"MerR family regulatory protein"</title>
				<rect class="PF00376" x="639" y="28" stroke-linejoin="round" width="4" height="24" fill="rgb(185,57,157)" stroke="rgb(148,45,125)" stroke-width="1" opacity="0.75" />
			</g>
		</g>
		<g>
			<title> (ctg8_91)</title>
			<polygon class=" (ctg8_91)" points="647,40 661,10 661,70" fill="rgb(255,255,255)" fill-opacity="1.0" stroke="rgb(0,0,0)" stroke-width="2"  />
			<g>
				<title>Yop-YscD_cpl (PF16697)
"Inner membrane component of T3SS, cytoplasmic domain"</title>
				<polygon class="PF16697" points="650,40 655,29 655,51" stroke-linejoin="round" width="8" height="24" fill="rgb(179,69,141)" stroke="rgb(143,55,112)" stroke-width="1" opacity="0.75" />
			</g>
		</g>
		<g>
			<title> (ctg8_92)</title>
			<polygon class=" (ctg8_92)" points="664,40 676,10 676,70" fill="rgb(255,255,255)" fill-opacity="1.0" stroke="rgb(0,0,0)" stroke-width="2"  />
			<g>
				<title>GCV_H (PF01597)
"Glycine cleavage H-protein"</title>
				<polygon class="PF01597" points="667,40 672,28 676,28 676,52 672,52" stroke-linejoin="round" width="12" height="24" fill="rgb(77,190,144)" stroke="rgb(61,152,115)" stroke-width="1" opacity="0.75" />
			</g>
		</g>
		<g>
			<title> (ctg8_93)</title>
			<polygon class=" (ctg8_93)" points="731,25 710,25 710,10 680,40 710,70 710,55 731,55" fill="rgb(255,255,255)" fill-opacity="1.0" stroke="rgb(0,0,0)" stroke-width="2"  />
			<g>
				<title>PTR2 (PF00854)
"POT family"</title>
				<polygon class="PF00854" points="684,40 696,28 719,28 719,52 696,52" stroke-linejoin="round" width="37" height="24" fill="rgb(90,189,52)" stroke="rgb(71,151,41)" stroke-width="1" opacity="0.75" />
			</g>
		</g>
		<g>
			<title> (ctg8_94)</title>
			<polygon class=" (ctg8_94)" points="734,40 759,10 759,70" fill="rgb(255,255,255)" fill-opacity="1.0" stroke="rgb(0,0,0)" stroke-width="2"  />
			<g>
				<title>rve_3 (PF13683)
"Integrase core domain"</title>
				<polygon class="PF13683" points="738,40 741,36 741,44" stroke-linejoin="round" width="6" height="24" fill="rgb(75,178,160)" stroke="rgb(60,142,128)" stroke-width="1" opacity="0.75" />
			</g>
		</g>
		<g>
			<title> (ctg8_95)</title>
			<polygon class=" (ctg8_95)" points="771,40 780,10 780,70" fill="rgb(255,255,255)" fill-opacity="1.0" stroke="rgb(0,0,0)" stroke-width="2"  />
			<g>
				<title>AAA_15 (PF13175)
"AAA ATPase domain"</title>
				<polygon class="PF13175" points="774,40 778,28 779,28 779,52 778,52" stroke-linejoin="round" width="7" height="24" fill="rgb(98,206,213)" stroke="rgb(78,164,170)" stroke-width="1" opacity="0.75" />
			</g>
		</g>
		<g>
			<title> (ctg8_96)</title>
			<polygon class=" (ctg8_96)" points="820,25 811,25 811,10 781,40 811,70 811,55 820,55" fill="rgb(255,255,255)" fill-opacity="1.0" stroke="rgb(0,0,0)" stroke-width="2"  />
			<g>
				<title>AAA_2 (PF07724)
"AAA domain (Cdc48 subfamily)"</title>
				<polygon class="PF07724" points="786,39 797,28 803,28 803,52 797,52 786,41" stroke-linejoin="round" width="17" height="24" fill="rgb(132,215,72)" stroke="rgb(105,172,57)" stroke-width="1" opacity="0.75" />
			</g>
		</g>
		<g>
			<title> (ctg8_97)</title>
			<polygon class=" (ctg8_97)" points="819,40 844,10 844,70" fill="rgb(255,255,255)" fill-opacity="1.0" stroke="rgb(0,0,0)" stroke-width="2"  />
			<g>
				<title>DUF6414 (PF19952)
"Family of unknown function (DUF6414)"</title>
				<polygon class="PF19952" points="823,40 833,28 841,28 841,52 833,52" stroke-linejoin="round" width="22" height="24" fill="rgb(192,96,214)" stroke="rgb(153,76,171)" stroke-width="1" opacity="0.75" />
			</g>
		</g>
	</g>
</svg>
