<svg version="1.1" baseProfile="full" xmlns="http://www.w3.org/2000/svg" width="889.0333333333333" height="80">
	<g>
		<line x1="10" y1="40.0" x2="879.0333333333333" y2="40.0" style="stroke:rgb(70,70,70); stroke-width:3 "/>
		<g>
			<title> (ctg1_3)</title>
			<polygon class=" (ctg1_3)" points="11,10 30,40 11,70" fill="rgb(255,255,255)" fill-opacity="1.0" stroke="rgb(0,0,0)" stroke-width="2"  />
			<g>
				<title>Oxidored_q2 (PF00420)
"NADH-ubiquinone/plastoquinone oxidoreductase chain 4L"</title>
				<polygon class="PF00420" points="11,28 18,28 21,32 21,48 18,52 11,52" stroke-linejoin="round" width="10" height="24" fill="rgb(73,55,194)" stroke="rgb(58,44,155)" stroke-width="1" opacity="0.75" />
			</g>
		</g>
		<g>
			<title> (ctg1_4)</title>
			<polygon class=" (ctg1_4)" points="30,25 55,25 55,10 85,40 55,70 55,55 30,55" fill="rgb(255,255,255)" fill-opacity="1.0" stroke="rgb(0,0,0)" stroke-width="2"  />
			<g>
				<title>Proton_antipo_M (PF00361)
"Proton-conducting membrane transporter"</title>
				<polygon class="PF00361" points="43,28 69,28 72,31 72,49 69,52 43,52" stroke-linejoin="round" width="29" height="24" fill="rgb(54,193,132)" stroke="rgb(43,154,105)" stroke-width="1" opacity="0.75" />
			</g>
		</g>
		<g>
			<title> (ctg1_5)</title>
			<polygon class=" (ctg1_5)" points="86,10 104,40 86,70" fill="rgb(255,255,255)" fill-opacity="1.0" stroke="rgb(0,0,0)" stroke-width="2"  />
			<g>
				<title>MNHE (PF01899)
"Na+/H+ ion antiporter subunit"</title>
				<polygon class="PF01899" points="88,28 93,28 101,40 93,52 88,52" stroke-linejoin="round" width="14" height="24" fill="rgb(77,64,195)" stroke="rgb(61,51,156)" stroke-width="1" opacity="0.75" />
			</g>
		</g>
		<g>
			<title> (ctg1_6)</title>
			<polygon class=" (ctg1_6)" points="104,10 114,40 104,70" fill="rgb(255,255,255)" fill-opacity="1.0" stroke="rgb(0,0,0)" stroke-width="2"  />
			<g>
				<title>MrpF_PhaF (PF04066)
"Multiple resistance and pH regulation protein F (MrpF / PhaF)"</title>
				<polygon class="PF04066" points="107,28 111,40 107,52" stroke-linejoin="round" width="5" height="24" fill="rgb(98,190,89)" stroke="rgb(78,152,71)" stroke-width="1" opacity="0.75" />
			</g>
		</g>
		<g>
			<title> (ctg1_7)</title>
			<polygon class=" (ctg1_7)" points="115,10 127,40 115,70" fill="rgb(255,255,255)" fill-opacity="1.0" stroke="rgb(0,0,0)" stroke-width="2"  />
			<g>
				<title>PhaG_MnhG_YufB (PF03334)
"Na+/H+ antiporter subunit"</title>
				<polygon class="PF03334" points="116,28 119,28 123,37 123,43 119,52 116,52" stroke-linejoin="round" width="7" height="24" fill="rgb(111,223,196)" stroke="rgb(88,178,156)" stroke-width="1" opacity="0.75" />
			</g>
		</g>
		<g>
			<title> (ctg1_8)</title>
			<polygon class=" (ctg1_8)" points="185,25 160,25 160,10 130,40 160,70 160,55 185,55" fill="rgb(255,255,255)" fill-opacity="1.0" stroke="rgb(0,0,0)" stroke-width="2"  />
			<g>
				<title>Malate_synthase (PF01274)
"Malate synthase"</title>
				<polygon class="PF01274" points="134,40 146,28 182,28 182,52 146,52" stroke-linejoin="round" width="52" height="24" fill="rgb(84,70,202)" stroke="rgb(67,56,161)" stroke-width="1" opacity="0.75" />
			</g>
		</g>
		<g>
			<title> (ctg1_9)</title>
			<polygon class=" (ctg1_9)" points="190,25 211,25 211,10 241,40 211,70 211,55 190,55" fill="rgb(255,255,255)" fill-opacity="1.0" stroke="rgb(0,0,0)" stroke-width="2"  />
			<g>
				<title>HTH_3 (PF01381)
"Helix-turn-helix"</title>
				<rect class="PF01381" x="194" y="28" stroke-linejoin="round" width="5" height="24" fill="rgb(105,79,202)" stroke="rgb(83,63,161)" stroke-width="1" opacity="0.75" />
			</g>
			<g>
				<title>Peptidase_M78 (PF06114)
"IrrE N-terminal-like domain"</title>
				<rect class="PF06114" x="211" y="28" stroke-linejoin="round" width="12" height="24" fill="rgb(182,213,77)" stroke="rgb(145,170,61)" stroke-width="1" opacity="0.75" />
			</g>
		</g>
		<g>
			<title> (ctg1_10)</title>
			<polygon class=" (ctg1_10)" points="244,10 259,40 244,70" fill="rgb(255,255,255)" fill-opacity="1.0" stroke="rgb(0,0,0)" stroke-width="2"  />
			<g>
				<title>FHA (PF00498)
"FHA domain"</title>
				<polygon class="PF00498" points="251,31 256,40 251,49" stroke-linejoin="round" width="6" height="24" fill="rgb(57,178,90)" stroke="rgb(45,142,72)" stroke-width="1" opacity="0.75" />
			</g>
		</g>
		<g>
			<title> (ctg1_11)</title>
			<polygon class=" (ctg1_11)" points="259,10 281,40 259,70" fill="rgb(255,255,255)" fill-opacity="1.0" stroke="rgb(0,0,0)" stroke-width="2"  />
			<g>
				<title>MerR (PF00376)
"MerR family regulatory protein"</title>
				<rect class="PF00376" x="260" y="28" stroke-linejoin="round" width="4" height="24" fill="rgb(185,57,157)" stroke="rgb(148,45,125)" stroke-width="1" opacity="0.75" />
			</g>
		</g>
		<g>
			<title> (ctg1_12)</title>
			<polygon class=" (ctg1_12)" points="287,10 308,40 287,70" fill="rgb(255,255,255)" fill-opacity="1.0" stroke="rgb(0,0,0)" stroke-width="2"  />
			<g>
				<title>MerR_1 (PF13411)
"MerR HTH family regulatory protein"</title>
				<polygon class="PF13411" points="292,28 296,28 299,33 299,47 296,52 292,52" stroke-linejoin="round" width="7" height="24" fill="rgb(100,202,107)" stroke="rgb(80,161,85)" stroke-width="1" opacity="0.75" />
			</g>
		</g>
		<g>
			<title> (ctg1_13)</title>
			<polygon class=" (ctg1_13)" points="311,40 338,10 338,70" fill="rgb(255,255,255)" fill-opacity="1.0" stroke="rgb(0,0,0)" stroke-width="2"  />
			<g>
				<title>AAA_31 (PF13614)
"AAA domain"</title>
				<polygon class="PF13614" points="320,35 326,28 337,28 337,52 326,52 320,45" stroke-linejoin="round" width="17" height="24" fill="rgb(144,187,62)" stroke="rgb(115,149,49)" stroke-width="1" opacity="0.75" />
			</g>
		</g>
		<g>
			<title> (ctg1_14)</title>
			<polygon class=" (ctg1_14)" points="343,25 429,25 429,10 459,40 429,70 429,55 343,55" fill="rgb(255,255,255)" fill-opacity="1.0" stroke="rgb(0,0,0)" stroke-width="2"  />
			<g>
				<title>Biotin_carb_N (PF00289)
"Biotin carboxylase, N-terminal domain"</title>
				<rect class="PF00289" x="345" y="28" stroke-linejoin="round" width="11" height="24" fill="rgb(59,114,187)" stroke="rgb(47,91,149)" stroke-width="1" opacity="0.75" />
			</g>
			<g>
				<title>CPSase_L_D2 (PF02786)
"Carbamoyl-phosphate synthase L chain, ATP binding domain"</title>
				<rect class="PF02786" x="357" y="28" stroke-linejoin="round" width="21" height="24" fill="rgb(190,97,205)" stroke="rgb(151,77,164)" stroke-width="1" opacity="0.75" />
			</g>
			<g>
				<title>Biotin_carb_C (PF02785)
"Biotin carboxylase C-terminal domain"</title>
				<rect class="PF02785" x="380" y="28" stroke-linejoin="round" width="10" height="24" fill="rgb(82,186,211)" stroke="rgb(65,148,168)" stroke-width="1" opacity="0.75" />
			</g>
			<g>
				<title>HMGL-like (PF00682)
"HMGL-like"</title>
				<rect class="PF00682" x="398" y="28" stroke-linejoin="round" width="27" height="24" fill="rgb(84,228,141)" stroke="rgb(67,182,112)" stroke-width="1" opacity="0.75" />
			</g>
			<g>
				<title>PYC_OADA (PF02436)
"Conserved carboxylase domain"</title>
				<polygon class="PF02436" points="428,28 442,28 447,33 447,47 442,52 428,52" stroke-linejoin="round" width="19" height="24" fill="rgb(181,121,72)" stroke="rgb(144,96,57)" stroke-width="1" opacity="0.75" />
			</g>
			<g>
				<title>Biotin_lipoyl (PF00364)
"Biotin-requiring enzyme"</title>
				<polygon class="PF00364" points="452,38 454,40 452,42" stroke-linejoin="round" width="6" height="24" fill="rgb(67,214,213)" stroke="rgb(53,171,170)" stroke-width="1" opacity="0.75" />
			</g>
		</g>
		<g>
			<title> (ctg1_15)</title>
			<polygon class=" (ctg1_15)" points="463,10 479,40 463,70" fill="rgb(255,255,255)" fill-opacity="1.0" stroke="rgb(0,0,0)" stroke-width="2"  />
			<g>
				<title>Pep_deformylase (PF01327)
"Polypeptide deformylase"</title>
				<polygon class="PF01327" points="463,28 469,28 475,40 469,52 463,52" stroke-linejoin="round" width="14" height="24" fill="rgb(104,210,201)" stroke="rgb(83,168,160)" stroke-width="1" opacity="0.75" />
			</g>
		</g>
		<g>
			<title> (ctg1_16)</title>
			<polygon class=" (ctg1_16)" points="545,25 514,25 514,10 484,40 514,70 514,55 545,55" fill="rgb(255,255,255)" fill-opacity="1.0" stroke="rgb(0,0,0)" stroke-width="2"  />
			<g>
				<title>AMP-binding (PF00501)
"AMP-binding enzyme"</title>
				<polygon class="PF00501" points="498,30 500,28 542,28 542,52 500,52 498,50" stroke-linejoin="round" width="44" height="24" fill="rgb(60,217,223)" stroke="rgb(48,173,178)" stroke-width="1" opacity="0.75" />
			</g>
		</g>
		<g>
			<title> (ctg1_17)</title>
			<polygon class=" (ctg1_17)" points="546,10 571,40 546,70" fill="rgb(255,255,255)" fill-opacity="1.0" stroke="rgb(0,0,0)" stroke-width="2"  />
			<g>
				<title>Acyltransferase (PF01553)
"Acyltransferase"</title>
				<polygon class="PF01553" points="550,28 557,28 563,36 563,44 557,52 550,52" stroke-linejoin="round" width="13" height="24" fill="rgb(87,176,216)" stroke="rgb(69,140,172)" stroke-width="1" opacity="0.75" />
			</g>
		</g>
		<g>
			<title> (ctg1_18)</title>
			<polygon class=" (ctg1_18)" points="575,25 590,25 590,10 620,40 590,70 590,55 575,55" fill="rgb(255,255,255)" fill-opacity="1.0" stroke="rgb(0,0,0)" stroke-width="2"  />
			<g>
				<title>DAHP_synth_2 (PF01474)
"Class-II DAHP synthetase family"</title>
				<polygon class="PF01474" points="576,28 604,28 616,40 604,52 576,52" stroke-linejoin="round" width="43" height="24" fill="rgb(126,217,84)" stroke="rgb(100,173,67)" stroke-width="1" opacity="0.75" />
			</g>
		</g>
		<g>
			<title> (ctg1_19)</title>
			<polygon class=" (ctg1_19)" points="689,25 655,25 655,10 625,40 655,70 655,55 689,55" fill="rgb(255,255,255)" fill-opacity="1.0" stroke="rgb(0,0,0)" stroke-width="2"  />
			<g>
				<title>PASTA (PF03793)
"PASTA domain"</title>
				<polygon class="PF03793" points="629,40 630,39 630,41" stroke-linejoin="round" width="5" height="24" fill="rgb(84,217,212)" stroke="rgb(67,173,169)" stroke-width="1" opacity="0.75" />
			</g>
			<g>
				<title>PASTA (PF03793)
"PASTA domain"</title>
				<polygon class="PF03793" points="631,38 637,32 637,48 631,42" stroke-linejoin="round" width="6" height="24" fill="rgb(84,217,212)" stroke="rgb(67,173,169)" stroke-width="1" opacity="0.75" />
			</g>
			<g>
				<title>PASTA (PF03793)
"PASTA domain"</title>
				<rect class="PF03793" x="645" y="28" stroke-linejoin="round" width="6" height="24" fill="rgb(84,217,212)" stroke="rgb(67,173,169)" stroke-width="1" opacity="0.75" />
			</g>
			<g>
				<title>Pkinase (PF00069)
"Protein kinase domain"</title>
				<rect class="PF00069" x="662" y="28" stroke-linejoin="round" width="25" height="24" fill="rgb(104,187,65)" stroke="rgb(83,149,51)" stroke-width="1" opacity="0.75" />
			</g>
		</g>
		<g>
			<title> (ctg1_20)</title>
			<polygon class=" (ctg1_20)" points="693,10 704,40 693,70" fill="rgb(255,255,255)" fill-opacity="1.0" stroke="rgb(0,0,0)" stroke-width="2"  />
			<g>
				<title>Rv2175c_C (PF18367)
"Rv2175c C-terminal domain of unknown function"</title>
				<polygon class="PF18367" points="698,32 701,40 698,48" stroke-linejoin="round" width="5" height="24" fill="rgb(83,192,90)" stroke="rgb(66,153,71)" stroke-width="1" opacity="0.75" />
			</g>
		</g>
		<g>
			<title> (ctg1_21)</title>
			<polygon class=" (ctg1_21)" points="743,25 737,25 737,10 707,40 737,70 737,55 743,55" fill="rgb(255,255,255)" fill-opacity="1.0" stroke="rgb(0,0,0)" stroke-width="2"  />
			<g>
				<title>polyprenyl_synt (PF00348)
"Polyprenyl synthetase"</title>
				<polygon class="PF00348" points="712,39 723,28 740,28 740,52 723,52 712,41" stroke-linejoin="round" width="28" height="24" fill="rgb(61,206,65)" stroke="rgb(48,164,52)" stroke-width="1" opacity="0.75" />
			</g>
		</g>
		<g>
			<title> (ctg1_22)</title>
			<polygon class=" (ctg1_22)" points="746,10 759,40 746,70" fill="rgb(255,255,255)" fill-opacity="1.0" stroke="rgb(0,0,0)" stroke-width="2"  />
			<g>
				<title>DUF3040 (PF11239)
"Protein of unknown function (DUF3040)"</title>
				<polygon class="PF11239" points="746,28 750,28 753,34 753,46 750,52 746,52" stroke-linejoin="round" width="7" height="24" fill="rgb(75,191,84)" stroke="rgb(60,152,67)" stroke-width="1" opacity="0.75" />
			</g>
		</g>
		<g>
			<title> (ctg1_23)</title>
			<polygon class=" (ctg1_23)" points="771,10 785,40 771,70" fill="rgb(255,255,255)" fill-opacity="1.0" stroke="rgb(0,0,0)" stroke-width="2"  />
			<g>
				<title>MraZ (PF02381)
"MraZ protein, putative antitoxin-like"</title>
				<polygon class="PF02381" points="771,28 776,28 778,32 778,48 776,52 771,52" stroke-linejoin="round" width="7" height="24" fill="rgb(183,161,79)" stroke="rgb(146,128,63)" stroke-width="1" opacity="0.75" />
			</g>
			<g>
				<title>MraZ (PF02381)
"MraZ protein, putative antitoxin-like"</title>
				<polygon class="PF02381" points="778,32 782,40 778,48" stroke-linejoin="round" width="6" height="24" fill="rgb(183,161,79)" stroke="rgb(146,128,63)" stroke-width="1" opacity="0.75" />
			</g>
		</g>
		<g>
			<title> (ctg1_24)</title>
			<polygon class=" (ctg1_24)" points="786,25 789,25 789,10 819,40 789,70 789,55 786,55" fill="rgb(255,255,255)" fill-opacity="1.0" stroke="rgb(0,0,0)" stroke-width="2"  />
			<g>
				<title>Methyltransf_5 (PF01795)
"MraW methylase family"</title>
				<polygon class="PF01795" points="787,28 802,28 814,40 802,52 787,52" stroke-linejoin="round" width="30" height="24" fill="rgb(57,116,220)" stroke="rgb(45,92,176)" stroke-width="1" opacity="0.75" />
			</g>
		</g>
		<g>
			<title> (ctg1_25)</title>
			<polygon class=" (ctg1_25)" points="819,10 839,40 819,70" fill="rgb(255,255,255)" fill-opacity="1.0" stroke="rgb(0,0,0)" stroke-width="2"  />
		</g>
	</g>
</svg>
