<svg version="1.1" baseProfile="full" xmlns="http://www.w3.org/2000/svg" width="1156.5" height="80">
	<g>
		<line x1="10" y1="40.0" x2="1146.5" y2="40.0" style="stroke:rgb(70,70,70); stroke-width:3 "/>
		<g>
			<title> (ctg2_477)</title>
			<polygon class=" (ctg2_477)" points="42,10 63,40 42,70" fill="rgb(255,255,255)" fill-opacity="1.0" stroke="rgb(0,0,0)" stroke-width="2"  />
			<g>
				<title>TetR_N (PF00440)
"Bacterial regulatory proteins, tetR family"</title>
				<rect class="PF00440" x="45" y="28" stroke-linejoin="round" width="4" height="24" fill="rgb(73,212,190)" stroke="rgb(58,169,152)" stroke-width="1" opacity="0.75" />
			</g>
		</g>
		<g>
			<title> (ctg2_478)</title>
			<polygon class=" (ctg2_478)" points="63,10 82,40 63,70" fill="rgb(255,255,255)" fill-opacity="1.0" stroke="rgb(0,0,0)" stroke-width="2"  />
			<g>
				<title>Acetyltransf_3 (PF13302)
"Acetyltransferase (GNAT) domain"</title>
				<polygon class="PF13302" points="64,28 71,28 78,39 78,41 71,52 64,52" stroke-linejoin="round" width="14" height="24" fill="rgb(105,146,215)" stroke="rgb(84,116,172)" stroke-width="1" opacity="0.75" />
			</g>
		</g>
		<g>
			<title> (ctg2_479)</title>
			<polygon class=" (ctg2_479)" points="100,10 106,40 100,70" fill="rgb(255,255,255)" fill-opacity="1.0" stroke="rgb(0,0,0)" stroke-width="2"  />
			<g>
				<title>CSD (PF00313)
"'Cold-shock' DNA-binding domain"</title>
				<polygon class="PF00313" points="100,28 100,28 103,40 100,52 100,52" stroke-linejoin="round" width="6" height="24" fill="rgb(87,72,181)" stroke="rgb(69,57,144)" stroke-width="1" opacity="0.75" />
			</g>
		</g>
		<g>
			<title> (ctg2_480)</title>
			<polygon class=" (ctg2_480)" points="116,40 138,10 138,70" fill="rgb(255,255,255)" fill-opacity="1.0" stroke="rgb(0,0,0)" stroke-width="2"  />
			<g>
				<title>HAD_2 (PF13419)
"Haloacid dehalogenase-like hydrolase"</title>
				<polygon class="PF13419" points="120,40 129,28 137,28 137,52 129,52" stroke-linejoin="round" width="18" height="24" fill="rgb(60,223,188)" stroke="rgb(48,178,150)" stroke-width="1" opacity="0.75" />
			</g>
		</g>
		<g>
			<title> (ctg2_481)</title>
			<polygon class=" (ctg2_481)" points="140,40 163,10 163,70" fill="rgb(255,255,255)" fill-opacity="1.0" stroke="rgb(0,0,0)" stroke-width="2"  />
			<g>
				<title>NucS (PF01939)
"Endonuclease NucS"</title>
				<polygon class="PF01939" points="144,40 153,28 163,28 163,52 153,52" stroke-linejoin="round" width="23" height="24" fill="rgb(188,51,193)" stroke="rgb(150,40,154)" stroke-width="1" opacity="0.75" />
			</g>
		</g>
		<g>
			<title> (ctg2_482)</title>
			<polygon class=" (ctg2_482)" points="208,25 198,25 198,10 168,40 198,70 198,55 208,55" fill="rgb(255,255,255)" fill-opacity="1.0" stroke="rgb(0,0,0)" stroke-width="2"  />
			<g>
				<title>MFS_1 (PF07690)
"Major Facilitator Superfamily"</title>
				<polygon class="PF07690" points="172,40 184,28 185,28 185,52 184,52" stroke-linejoin="round" width="17" height="24" fill="rgb(193,224,74)" stroke="rgb(154,179,59)" stroke-width="1" opacity="0.75" />
			</g>
			<g>
				<title>MFS_1 (PF07690)
"Major Facilitator Superfamily"</title>
				<polygon class="PF07690" points="184,28 184,28 207,28 207,52 184,52 184,52" stroke-linejoin="round" width="23" height="24" fill="rgb(193,224,74)" stroke="rgb(154,179,59)" stroke-width="1" opacity="0.75" />
			</g>
		</g>
		<g>
			<title> (ctg2_483)</title>
			<polygon class=" (ctg2_483)" points="211,25 217,25 217,10 247,40 217,70 217,55 211,55" fill="rgb(255,255,255)" fill-opacity="1.0" stroke="rgb(0,0,0)" stroke-width="2"  />
			<g>
				<title>LacI (PF00356)
"Bacterial regulatory proteins, lacI family"</title>
				<rect class="PF00356" x="212" y="28" stroke-linejoin="round" width="4" height="24" fill="rgb(66,188,63)" stroke="rgb(52,150,50)" stroke-width="1" opacity="0.75" />
			</g>
			<g>
				<title>Peripla_BP_3 (PF13377)
"Periplasmic binding protein-like domain"</title>
				<polygon class="PF13377" points="229,28 231,28 243,40 231,52 229,52" stroke-linejoin="round" width="17" height="24" fill="rgb(101,208,189)" stroke="rgb(80,166,151)" stroke-width="1" opacity="0.75" />
			</g>
		</g>
		<g>
			<title> (ctg2_484)</title>
			<polygon class=" (ctg2_484)" points="252,25 320,25 320,10 350,40 320,70 320,55 252,55" fill="rgb(255,255,255)" fill-opacity="1.0" stroke="rgb(0,0,0)" stroke-width="2"  />
			<g>
				<title>Proton_antipo_N (PF00662)
"NADH-Ubiquinone oxidoreductase (complex I), chain 5 N-terminus"</title>
				<rect class="PF00662" x="258" y="28" stroke-linejoin="round" width="4" height="24" fill="rgb(120,87,218)" stroke="rgb(96,69,174)" stroke-width="1" opacity="0.75" />
			</g>
			<g>
				<title>Proton_antipo_M (PF00361)
"Proton-conducting membrane transporter"</title>
				<rect class="PF00361" x="265" y="28" stroke-linejoin="round" width="29" height="24" fill="rgb(54,193,132)" stroke="rgb(43,154,105)" stroke-width="1" opacity="0.75" />
			</g>
			<g>
				<title>MbhD (PF13244)
"MBH, subunit D"</title>
				<rect class="PF13244" x="313" y="28" stroke-linejoin="round" width="6" height="24" fill="rgb(225,104,219)" stroke="rgb(180,83,175)" stroke-width="1" opacity="0.75" />
			</g>
			<g>
				<title>MbhE (PF20501)
"MBH, subunit E"</title>
				<rect class="PF20501" x="321" y="28" stroke-linejoin="round" width="9" height="24" fill="rgb(127,69,192)" stroke="rgb(101,55,153)" stroke-width="1" opacity="0.75" />
			</g>
			<g>
				<title>MnhB (PF04039)
"Domain related to MnhB subunit of Na+/H+ antiporter"</title>
				<polygon class="PF04039" points="335,30 345,40 335,50" stroke-linejoin="round" width="12" height="24" fill="rgb(153,222,110)" stroke="rgb(122,177,88)" stroke-width="1" opacity="0.75" />
			</g>
		</g>
		<g>
			<title> (ctg2_485)</title>
			<polygon class=" (ctg2_485)" points="350,10 369,40 350,70" fill="rgb(255,255,255)" fill-opacity="1.0" stroke="rgb(0,0,0)" stroke-width="2"  />
			<g>
				<title>Oxidored_q2 (PF00420)
"NADH-ubiquinone/plastoquinone oxidoreductase chain 4L"</title>
				<polygon class="PF00420" points="350,28 358,28 360,32 360,48 358,52 350,52" stroke-linejoin="round" width="10" height="24" fill="rgb(73,55,194)" stroke="rgb(58,44,155)" stroke-width="1" opacity="0.75" />
			</g>
		</g>
		<g>
			<title> (ctg2_486)</title>
			<polygon class=" (ctg2_486)" points="369,25 391,25 391,10 421,40 391,70 391,55 369,55" fill="rgb(255,255,255)" fill-opacity="1.0" stroke="rgb(0,0,0)" stroke-width="2"  />
			<g>
				<title>Proton_antipo_M (PF00361)
"Proton-conducting membrane transporter"</title>
				<polygon class="PF00361" points="382,28 404,28 410,34 410,46 404,52 382,52" stroke-linejoin="round" width="28" height="24" fill="rgb(54,193,132)" stroke="rgb(43,154,105)" stroke-width="1" opacity="0.75" />
			</g>
		</g>
		<g>
			<title> (ctg2_487)</title>
			<polygon class=" (ctg2_487)" points="421,10 440,40 421,70" fill="rgb(255,255,255)" fill-opacity="1.0" stroke="rgb(0,0,0)" stroke-width="2"  />
			<g>
				<title>MNHE (PF01899)
"Na+/H+ ion antiporter subunit"</title>
				<polygon class="PF01899" points="423,28 429,28 436,40 429,52 423,52" stroke-linejoin="round" width="15" height="24" fill="rgb(77,64,195)" stroke="rgb(61,51,156)" stroke-width="1" opacity="0.75" />
			</g>
		</g>
		<g>
			<title> (ctg2_488)</title>
			<polygon class=" (ctg2_488)" points="440,10 449,40 440,70" fill="rgb(255,255,255)" fill-opacity="1.0" stroke="rgb(0,0,0)" stroke-width="2"  />
			<g>
				<title>MrpF_PhaF (PF04066)
"Multiple resistance and pH regulation protein F (MrpF / PhaF)"</title>
				<polygon class="PF04066" points="443,31 445,40 443,49" stroke-linejoin="round" width="5" height="24" fill="rgb(98,190,89)" stroke="rgb(78,152,71)" stroke-width="1" opacity="0.75" />
			</g>
		</g>
		<g>
			<title> (ctg2_489)</title>
			<polygon class=" (ctg2_489)" points="449,10 462,40 449,70" fill="rgb(255,255,255)" fill-opacity="1.0" stroke="rgb(0,0,0)" stroke-width="2"  />
			<g>
				<title>PhaG_MnhG_YufB (PF03334)
"Na+/H+ antiporter subunit"</title>
				<polygon class="PF03334" points="451,28 453,28 458,40 453,52 451,52" stroke-linejoin="round" width="8" height="24" fill="rgb(111,223,196)" stroke="rgb(88,178,156)" stroke-width="1" opacity="0.75" />
			</g>
		</g>
		<g>
			<title> (ctg2_490)</title>
			<polygon class=" (ctg2_490)" points="485,10 510,40 485,70" fill="rgb(255,255,255)" fill-opacity="1.0" stroke="rgb(0,0,0)" stroke-width="2"  />
		</g>
		<g>
			<title> (ctg2_491)</title>
			<polygon class=" (ctg2_491)" points="510,25 616,25 616,10 646,40 616,70 616,55 510,55" fill="rgb(255,255,255)" fill-opacity="1.0" stroke="rgb(0,0,0)" stroke-width="2"  />
			<g>
				<title>AMP-binding (PF00501)
"AMP-binding enzyme"</title>
				<rect class="PF00501" x="516" y="28" stroke-linejoin="round" width="40" height="24" fill="rgb(60,217,223)" stroke="rgb(48,173,178)" stroke-width="1" opacity="0.75" />
			</g>
			<g>
				<title>PP-binding (PF00550)
"Phosphopantetheine attachment site"</title>
				<rect class="PF00550" x="567" y="28" stroke-linejoin="round" width="6" height="24" fill="rgb(103,191,88)" stroke="rgb(82,152,70)" stroke-width="1" opacity="0.75" />
			</g>
		</g>
		<g>
			<title> (ctg2_492)</title>
			<polygon class=" (ctg2_492)" points="648,25 664,25 664,10 694,40 664,70 664,55 648,55" fill="rgb(255,255,255)" fill-opacity="1.0" stroke="rgb(0,0,0)" stroke-width="2"  />
			<g>
				<title>Peptidase_M1_N (PF17900)
"Peptidase M1 N-terminal domain"</title>
				<rect class="PF17900" x="649" y="28" stroke-linejoin="round" width="17" height="24" fill="rgb(63,189,168)" stroke="rgb(50,151,134)" stroke-width="1" opacity="0.75" />
			</g>
			<g>
				<title>Peptidase_M1 (PF01433)
"Peptidase family M1 domain"</title>
				<polygon class="PF01433" points="670,28 678,28 689,39 689,41 678,52 670,52" stroke-linejoin="round" width="19" height="24" fill="rgb(173,57,219)" stroke="rgb(138,45,175)" stroke-width="1" opacity="0.75" />
			</g>
		</g>
		<g>
			<title> (ctg2_493)</title>
			<polygon class=" (ctg2_493)" points="699,10 722,40 699,70" fill="rgb(255,255,255)" fill-opacity="1.0" stroke="rgb(0,0,0)" stroke-width="2"  />
			<g>
				<title>Acetyltransf_10 (PF13673)
"Acetyltransferase (GNAT) domain"</title>
				<polygon class="PF13673" points="713,33 718,40 713,47" stroke-linejoin="round" width="8" height="24" fill="rgb(88,180,95)" stroke="rgb(70,144,76)" stroke-width="1" opacity="0.75" />
			</g>
		</g>
		<g>
			<title> (ctg2_494)</title>
			<polygon class=" (ctg2_494)" points="769,25 752,25 752,10 722,40 752,70 752,55 769,55" fill="rgb(255,255,255)" fill-opacity="1.0" stroke="rgb(0,0,0)" stroke-width="2"  />
			<g>
				<title>MFS_1 (PF07690)
"Major Facilitator Superfamily"</title>
				<polygon class="PF07690" points="727,39 738,28 766,28 766,52 738,52 727,41" stroke-linejoin="round" width="39" height="24" fill="rgb(193,224,74)" stroke="rgb(154,179,59)" stroke-width="1" opacity="0.75" />
			</g>
		</g>
		<g>
			<title> (ctg2_495)</title>
			<polygon class=" (ctg2_495)" points="770,40 785,10 785,70" fill="rgb(255,255,255)" fill-opacity="1.0" stroke="rgb(0,0,0)" stroke-width="2"  />
			<g>
				<title>MarR_2 (PF12802)
"MarR family"</title>
				<polygon class="PF12802" points="775,36 779,28 780,28 780,52 779,52 775,44" stroke-linejoin="round" width="5" height="24" fill="rgb(46,89,185)" stroke="rgb(36,71,148)" stroke-width="1" opacity="0.75" />
			</g>
		</g>
		<g>
			<title> (ctg2_496)</title>
			<polygon class=" (ctg2_496)" points="787,10 806,40 787,70" fill="rgb(255,255,255)" fill-opacity="1.0" stroke="rgb(0,0,0)" stroke-width="2"  />
			<g>
				<title>Isochorismatase (PF00857)
"Isochorismatase family"</title>
				<polygon class="PF00857" points="787,28 795,28 802,40 795,52 787,52" stroke-linejoin="round" width="17" height="24" fill="rgb(144,224,70)" stroke="rgb(115,179,56)" stroke-width="1" opacity="0.75" />
			</g>
		</g>
		<g>
			<title> (ctg2_497)</title>
			<polygon class=" (ctg2_497)" points="804,40 822,10 822,70" fill="rgb(255,255,255)" fill-opacity="1.0" stroke="rgb(0,0,0)" stroke-width="2"  />
		</g>
		<g>
			<title> (ctg2_498)</title>
			<polygon class=" (ctg2_498)" points="825,25 844,25 844,10 874,40 844,70 844,55 825,55" fill="rgb(255,255,255)" fill-opacity="1.0" stroke="rgb(0,0,0)" stroke-width="2"  />
			<g>
				<title>GCS2 (PF04107)
"Glutamate-cysteine ligase family 2(GCS2)"</title>
				<rect class="PF04107" x="843" y="28" stroke-linejoin="round" width="13" height="24" fill="rgb(67,145,225)" stroke="rgb(53,116,180)" stroke-width="1" opacity="0.75" />
			</g>
		</g>
		<g>
			<title> (ctg2_499)</title>
			<polygon class=" (ctg2_499)" points="876,40 901,10 901,70" fill="rgb(255,255,255)" fill-opacity="1.0" stroke="rgb(0,0,0)" stroke-width="2"  />
			<g>
				<title>Abhydrolase_6 (PF12697)
"Alpha/beta hydrolase family"</title>
				<polygon class="PF12697" points="880,40 890,28 896,28 896,52 890,52" stroke-linejoin="round" width="20" height="24" fill="rgb(113,71,219)" stroke="rgb(90,56,175)" stroke-width="1" opacity="0.75" />
			</g>
		</g>
		<g>
			<title> (ctg2_500)</title>
			<polygon class=" (ctg2_500)" points="982,25 949,25 949,10 919,40 949,70 949,55 982,55" fill="rgb(255,255,255)" fill-opacity="1.0" stroke="rgb(0,0,0)" stroke-width="2"  />
			<g>
				<title>ABC2_membrane_3 (PF12698)
"ABC-2 family transporter protein"</title>
				<polygon class="PF12698" points="923,40 935,28 979,28 979,52 935,52" stroke-linejoin="round" width="58" height="24" fill="rgb(151,189,55)" stroke="rgb(120,151,44)" stroke-width="1" opacity="0.75" />
			</g>
		</g>
		<g>
			<title> (ctg2_501)</title>
			<polygon class=" (ctg2_501)" points="1013,25 1012,25 1012,10 982,40 1012,70 1012,55 1013,55" fill="rgb(255,255,255)" fill-opacity="1.0" stroke="rgb(0,0,0)" stroke-width="2"  />
		</g>
		<g>
			<title> (ctg2_502)</title>
			<polygon class=" (ctg2_502)" points="1013,40 1035,10 1035,70" fill="rgb(255,255,255)" fill-opacity="1.0" stroke="rgb(0,0,0)" stroke-width="2"  />
			<g>
				<title>TetR_N (PF00440)
"Bacterial regulatory proteins, tetR family"</title>
				<rect class="PF00440" x="1028" y="28" stroke-linejoin="round" width="4" height="24" fill="rgb(73,212,190)" stroke="rgb(58,169,152)" stroke-width="1" opacity="0.75" />
			</g>
		</g>
		<g>
			<title> (ctg2_503)</title>
			<polygon class=" (ctg2_503)" points="1042,10 1064,40 1042,70" fill="rgb(255,255,255)" fill-opacity="1.0" stroke="rgb(0,0,0)" stroke-width="2"  />
		</g>
		<g>
			<title> (ctg2_504)</title>
			<polygon class=" (ctg2_504)" points="1122,25 1098,25 1098,10 1068,40 1098,70 1098,55 1122,55" fill="rgb(255,255,255)" fill-opacity="1.0" stroke="rgb(0,0,0)" stroke-width="2"  />
			<g>
				<title>Arginosuc_synth (PF00764)
"Arginosuccinate synthase"</title>
				<polygon class="PF00764" points="1074,38 1084,28 1114,28 1114,52 1084,52 1074,42" stroke-linejoin="round" width="40" height="24" fill="rgb(93,212,110)" stroke="rgb(74,169,88)" stroke-width="1" opacity="0.75" />
			</g>
		</g>
		<g>
			<title> (ctg2_505)</title>
			<polygon class=" (ctg2_505)" points="1123,10 1131,40 1123,70" fill="rgb(255,255,255)" fill-opacity="1.0" stroke="rgb(0,0,0)" stroke-width="2"  />
		</g>
	</g>
</svg>
