<svg version="1.1" baseProfile="full" xmlns="http://www.w3.org/2000/svg" width="1390.8333333333333" height="80">
	<g>
		<line x1="10" y1="40.0" x2="1380.8333333333333" y2="40.0" style="stroke:rgb(70,70,70); stroke-width:3 "/>
		<g>
			<title> (ctg2_444)</title>
			<polygon class=" (ctg2_444)" points="31,10 53,40 31,70" fill="rgb(255,255,255)" fill-opacity="1.0" stroke="rgb(0,0,0)" stroke-width="2"  />
			<g>
				<title>Thymidylate_kin (PF02223)
"Thymidylate kinase"</title>
				<polygon class="PF02223" points="32,28 41,28 49,40 41,52 32,52" stroke-linejoin="round" width="19" height="24" fill="rgb(94,201,134)" stroke="rgb(75,160,107)" stroke-width="1" opacity="0.75" />
			</g>
		</g>
		<g>
			<title> (ctg2_445)</title>
			<polygon class=" (ctg2_445)" points="53,25 58,25 58,10 88,40 58,70 58,55 53,55" fill="rgb(255,255,255)" fill-opacity="1.0" stroke="rgb(0,0,0)" stroke-width="2"  />
			<g>
				<title>DNA_pol3_delta2 (PF13177)
"DNA polymerase III, delta subunit"</title>
				<rect class="PF13177" x="55" y="28" stroke-linejoin="round" width="17" height="24" fill="rgb(188,69,141)" stroke="rgb(150,55,112)" stroke-width="1" opacity="0.75" />
			</g>
		</g>
		<g>
			<title> (ctg2_446)</title>
			<polygon class=" (ctg2_446)" points="91,25 113,25 113,10 143,40 113,70 113,55 91,55" fill="rgb(255,255,255)" fill-opacity="1.0" stroke="rgb(0,0,0)" stroke-width="2"  />
			<g>
				<title>tRNA-synt_1g (PF09334)
"tRNA synthetases class I (M)"</title>
				<rect class="PF09334" x="91" y="28" stroke-linejoin="round" width="35" height="24" fill="rgb(105,223,202)" stroke="rgb(84,178,161)" stroke-width="1" opacity="0.75" />
			</g>
			<g>
				<title>Anticodon_3 (PF19303)
"Anticodon binding domain of methionyl tRNA ligase"</title>
				<polygon class="PF19303" points="128,30 138,40 128,50" stroke-linejoin="round" width="14" height="24" fill="rgb(73,192,68)" stroke="rgb(58,153,54)" stroke-width="1" opacity="0.75" />
			</g>
		</g>
		<g>
			<title> (ctg2_447)</title>
			<polygon class=" (ctg2_447)" points="184,25 182,25 182,10 152,40 182,70 182,55 184,55" fill="rgb(255,255,255)" fill-opacity="1.0" stroke="rgb(0,0,0)" stroke-width="2"  />
			<g>
				<title>Glyco_transf_90 (PF05686)
"Glycosyl transferase family 90"</title>
				<polygon class="PF05686" points="156,40 168,28 172,28 172,52 168,52" stroke-linejoin="round" width="19" height="24" fill="rgb(184,182,87)" stroke="rgb(147,145,69)" stroke-width="1" opacity="0.75" />
			</g>
		</g>
		<g>
			<title> (ctg2_448)</title>
			<polygon class=" (ctg2_448)" points="191,10 219,40 191,70" fill="rgb(255,255,255)" fill-opacity="1.0" stroke="rgb(0,0,0)" stroke-width="2"  />
			<g>
				<title>TatD_DNase (PF01026)
"TatD related DNase"</title>
				<polygon class="PF01026" points="192,28 203,28 214,40 203,52 192,52" stroke-linejoin="round" width="25" height="24" fill="rgb(91,81,210)" stroke="rgb(72,64,168)" stroke-width="1" opacity="0.75" />
			</g>
		</g>
		<g>
			<title> (ctg2_449)</title>
			<polygon class=" (ctg2_449)" points="219,10 247,40 219,70" fill="rgb(255,255,255)" fill-opacity="1.0" stroke="rgb(0,0,0)" stroke-width="2"  />
			<g>
				<title>Lactamase_B_2 (PF12706)
"Beta-lactamase superfamily domain"</title>
				<polygon class="PF12706" points="225,28 231,28 242,40 231,52 225,52" stroke-linejoin="round" width="18" height="24" fill="rgb(62,169,197)" stroke="rgb(49,135,157)" stroke-width="1" opacity="0.75" />
			</g>
		</g>
		<g>
			<title> (ctg2_450)</title>
			<polygon class=" (ctg2_450)" points="251,25 252,25 252,10 282,40 252,70 252,55 251,55" fill="rgb(255,255,255)" fill-opacity="1.0" stroke="rgb(0,0,0)" stroke-width="2"  />
			<g>
				<title>LPG_synthase_TM (PF03706)
"Lysylphosphatidylglycerol synthase TM region"</title>
				<polygon class="PF03706" points="252,28 265,28 277,40 265,52 252,52" stroke-linejoin="round" width="28" height="24" fill="rgb(98,201,219)" stroke="rgb(78,160,175)" stroke-width="1" opacity="0.75" />
			</g>
		</g>
		<g>
			<title> (ctg2_451)</title>
			<polygon class=" (ctg2_451)" points="349,25 319,25 319,10 289,40 319,70 319,55 349,55" fill="rgb(255,255,255)" fill-opacity="1.0" stroke="rgb(0,0,0)" stroke-width="2"  />
			<g>
				<title>Glyco_hydro_2_C (PF02836)
"Glycosyl hydrolases family 2, TIM barrel domain"</title>
				<polygon class="PF02836" points="293,40 305,28 320,28 320,52 305,52" stroke-linejoin="round" width="29" height="24" fill="rgb(92,103,201)" stroke="rgb(73,82,160)" stroke-width="1" opacity="0.75" />
			</g>
		</g>
		<g>
			<title> (ctg2_452)</title>
			<polygon class=" (ctg2_452)" points="361,10 385,40 361,70" fill="rgb(255,255,255)" fill-opacity="1.0" stroke="rgb(0,0,0)" stroke-width="2"  />
		</g>
		<g>
			<title> (ctg2_453)</title>
			<polygon class=" (ctg2_453)" points="395,40 413,10 413,70" fill="rgb(255,255,255)" fill-opacity="1.0" stroke="rgb(0,0,0)" stroke-width="2"  />
			<g>
				<title>CPT (PF07931)
"Chloramphenicol phosphotransferase-like protein"</title>
				<polygon class="PF07931" points="399,40 406,28 412,28 412,52 406,52" stroke-linejoin="round" width="16" height="24" fill="rgb(172,201,89)" stroke="rgb(137,160,71)" stroke-width="1" opacity="0.75" />
			</g>
		</g>
		<g>
			<title> (ctg2_454)</title>
			<polygon class=" (ctg2_454)" points="420,40 443,10 443,70" fill="rgb(255,255,255)" fill-opacity="1.0" stroke="rgb(0,0,0)" stroke-width="2"  />
			<g>
				<title>zf-CDGSH (PF09360)
"Iron-binding zinc finger CDGSH type"</title>
				<polygon class="PF09360" points="424,40 424,40 424,40" stroke-linejoin="round" width="4" height="24" fill="rgb(77,110,188)" stroke="rgb(61,88,150)" stroke-width="1" opacity="0.75" />
			</g>
			<g>
				<title>Fer4_19 (PF06902)
"Divergent 4Fe-4S mono-cluster"</title>
				<polygon class="PF06902" points="427,36 432,30 432,50 427,44" stroke-linejoin="round" width="5" height="24" fill="rgb(86,110,201)" stroke="rgb(68,87,160)" stroke-width="1" opacity="0.75" />
			</g>
			<g>
				<title>zf-CDGSH (PF09360)
"Iron-binding zinc finger CDGSH type"</title>
				<rect class="PF09360" x="435" y="28" stroke-linejoin="round" width="5" height="24" fill="rgb(77,110,188)" stroke="rgb(61,88,150)" stroke-width="1" opacity="0.75" />
			</g>
		</g>
		<g>
			<title> (ctg2_455)</title>
			<polygon class=" (ctg2_455)" points="451,10 474,40 451,70" fill="rgb(255,255,255)" fill-opacity="1.0" stroke="rgb(0,0,0)" stroke-width="2"  />
			<g>
				<title>2H-phosphodiest (PF08975)
"Domain of unknown function (DUF1868)"</title>
				<polygon class="PF08975" points="453,28 461,28 464,32 464,48 461,52 453,52" stroke-linejoin="round" width="11" height="24" fill="rgb(131,198,84)" stroke="rgb(104,158,67)" stroke-width="1" opacity="0.75" />
			</g>
		</g>
		<g>
			<title> (ctg2_456)</title>
			<polygon class=" (ctg2_456)" points="513,25 508,25 508,10 478,40 508,70 508,55 513,55" fill="rgb(255,255,255)" fill-opacity="1.0" stroke="rgb(0,0,0)" stroke-width="2"  />
			<g>
				<title>Oxidored_FMN (PF00724)
"NADH:flavin oxidoreductase / NADH oxidase family"</title>
				<polygon class="PF00724" points="482,40 494,28 512,28 512,52 494,52" stroke-linejoin="round" width="32" height="24" fill="rgb(157,188,65)" stroke="rgb(125,150,52)" stroke-width="1" opacity="0.75" />
			</g>
		</g>
		<g>
			<title> (ctg2_457)</title>
			<polygon class=" (ctg2_457)" points="519,40 533,10 533,70" fill="rgb(255,255,255)" fill-opacity="1.0" stroke="rgb(0,0,0)" stroke-width="2"  />
			<g>
				<title>Bac_globin (PF01152)
"Bacterial-like globin"</title>
				<polygon class="PF01152" points="522,40 528,28 531,28 531,52 528,52" stroke-linejoin="round" width="10" height="24" fill="rgb(81,104,192)" stroke="rgb(64,83,153)" stroke-width="1" opacity="0.75" />
			</g>
		</g>
		<g>
			<title> (ctg2_458)</title>
			<polygon class=" (ctg2_458)" points="543,25 556,25 556,10 586,40 556,70 556,55 543,55" fill="rgb(255,255,255)" fill-opacity="1.0" stroke="rgb(0,0,0)" stroke-width="2"  />
			<g>
				<title>UPF0004 (PF00919)
"Uncharacterized protein family UPF0004"</title>
				<rect class="PF00919" x="543" y="28" stroke-linejoin="round" width="9" height="24" fill="rgb(97,207,199)" stroke="rgb(77,165,159)" stroke-width="1" opacity="0.75" />
			</g>
			<g>
				<title>Radical_SAM (PF04055)
"Radical SAM superfamily"</title>
				<polygon class="PF04055" points="557,28 570,28 574,32 574,48 570,52 557,52" stroke-linejoin="round" width="17" height="24" fill="rgb(149,56,222)" stroke="rgb(119,44,177)" stroke-width="1" opacity="0.75" />
			</g>
			<g>
				<title>TRAM_2 (PF18693)
"TRAM domain"</title>
				<polygon class="PF18693" points="580,38 582,40 580,42" stroke-linejoin="round" width="6" height="24" fill="rgb(78,198,192)" stroke="rgb(62,158,153)" stroke-width="1" opacity="0.75" />
			</g>
		</g>
		<g>
			<title> (ctg2_459)</title>
			<polygon class=" (ctg2_459)" points="588,40 615,10 615,70" fill="rgb(255,255,255)" fill-opacity="1.0" stroke="rgb(0,0,0)" stroke-width="2"  />
		</g>
		<g>
			<title> (ctg2_460)</title>
			<polygon class=" (ctg2_460)" points="615,40 632,10 632,70" fill="rgb(255,255,255)" fill-opacity="1.0" stroke="rgb(0,0,0)" stroke-width="2"  />
			<g>
				<title>Sigma70_r4_2 (PF08281)
"Sigma-70, region 4"</title>
				<polygon class="PF08281" points="618,40 622,33 622,47" stroke-linejoin="round" width="5" height="24" fill="rgb(222,103,144)" stroke="rgb(177,82,115)" stroke-width="1" opacity="0.75" />
			</g>
			<g>
				<title>Sigma70_r2 (PF04542)
"Sigma-70 region 2"</title>
				<polygon class="PF04542" points="625,28 625,28 631,28 631,52 625,52 625,52" stroke-linejoin="round" width="6" height="24" fill="rgb(184,59,197)" stroke="rgb(147,47,157)" stroke-width="1" opacity="0.75" />
			</g>
		</g>
		<g>
			<title> (ctg2_461)</title>
			<polygon class=" (ctg2_461)" points="636,10 658,40 636,70" fill="rgb(255,255,255)" fill-opacity="1.0" stroke="rgb(0,0,0)" stroke-width="2"  />
			<g>
				<title>TPR_17 (PF13431)
"Tetratricopeptide repeat"</title>
				<polygon class="PF13431" points="651,36 654,40 654,40 651,44" stroke-linejoin="round" width="3" height="24" fill="rgb(176,191,72)" stroke="rgb(140,152,57)" stroke-width="1" opacity="0.75" />
			</g>
		</g>
		<g>
			<title> (ctg2_462)</title>
			<polygon class=" (ctg2_462)" points="663,10 672,40 663,70" fill="rgb(255,255,255)" fill-opacity="1.0" stroke="rgb(0,0,0)" stroke-width="2"  />
		</g>
		<g>
			<title> (ctg2_463)</title>
			<polygon class=" (ctg2_463)" points="676,25 683,25 683,10 713,40 683,70 683,55 676,55" fill="rgb(255,255,255)" fill-opacity="1.0" stroke="rgb(0,0,0)" stroke-width="2"  />
			<g>
				<title>Chal_sti_synt_N (PF00195)
"Chalcone and stilbene synthases, N-terminal domain"</title>
				<polygon class="PF00195" points="677,28 697,28 698,29 698,51 697,52 677,52" stroke-linejoin="round" width="21" height="24" fill="rgb(60,181,161)" stroke="rgb(47,144,128)" stroke-width="1" opacity="0.75" />
			</g>
			<g>
				<title>Chal_sti_synt_C (PF02797)
"Chalcone and stilbene synthases, C-terminal domain"</title>
				<polygon class="PF02797" points="699,30 709,40 699,50" stroke-linejoin="round" width="12" height="24" fill="rgb(139,212,63)" stroke="rgb(111,169,50)" stroke-width="1" opacity="0.75" />
			</g>
		</g>
		<g>
			<title> (ctg2_464)</title>
			<polygon class=" (ctg2_464)" points="714,10 733,40 714,70" fill="rgb(255,255,255)" fill-opacity="1.0" stroke="rgb(0,0,0)" stroke-width="2"  />
		</g>
		<g>
			<title> (ctg2_465)</title>
			<polygon class=" (ctg2_465)" points="771,25 761,25 761,10 731,40 761,70 761,55 771,55" fill="rgb(255,255,255)" fill-opacity="1.0" stroke="rgb(0,0,0)" stroke-width="2"  />
			<g>
				<title>Peptidase_M20 (PF01546)
"Peptidase family M20/M25/M40"</title>
				<polygon class="PF01546" points="735,40 747,28 762,28 762,52 747,52" stroke-linejoin="round" width="31" height="24" fill="rgb(88,213,108)" stroke="rgb(70,170,86)" stroke-width="1" opacity="0.75" />
			</g>
		</g>
		<g>
			<title> (ctg2_466)</title>
			<polygon class=" (ctg2_466)" points="813,25 801,25 801,10 771,40 801,70 801,55 813,55" fill="rgb(255,255,255)" fill-opacity="1.0" stroke="rgb(0,0,0)" stroke-width="2"  />
			<g>
				<title>Peptidase_M20 (PF01546)
"Peptidase family M20/M25/M40"</title>
				<polygon class="PF01546" points="775,40 787,28 804,28 804,52 787,52" stroke-linejoin="round" width="33" height="24" fill="rgb(88,213,108)" stroke="rgb(70,170,86)" stroke-width="1" opacity="0.75" />
			</g>
		</g>
		<g>
			<title> (ctg2_467)</title>
			<polygon class=" (ctg2_467)" points="814,40 831,10 831,70" fill="rgb(255,255,255)" fill-opacity="1.0" stroke="rgb(0,0,0)" stroke-width="2"  />
			<g>
				<title>OHCU_decarbox (PF09349)
"OHCU decarboxylase"</title>
				<polygon class="PF09349" points="817,40 824,28 829,28 829,52 824,52" stroke-linejoin="round" width="15" height="24" fill="rgb(228,99,73)" stroke="rgb(182,79,58)" stroke-width="1" opacity="0.75" />
			</g>
		</g>
		<g>
			<title> (ctg2_468)</title>
			<polygon class=" (ctg2_468)" points="873,25 864,25 864,10 834,40 864,70 864,55 873,55" fill="rgb(255,255,255)" fill-opacity="1.0" stroke="rgb(0,0,0)" stroke-width="2"  />
			<g>
				<title>Urate_ox_N (PF06181)
"Urate oxidase N-terminal"</title>
				<polygon class="PF06181" points="843,35 850,28 872,28 872,52 850,52 843,45" stroke-linejoin="round" width="29" height="24" fill="rgb(87,201,188)" stroke="rgb(69,160,150)" stroke-width="1" opacity="0.75" />
			</g>
		</g>
		<g>
			<title> (ctg2_469)</title>
			<polygon class=" (ctg2_469)" points="915,25 910,25 910,10 880,40 910,70 910,55 915,55" fill="rgb(255,255,255)" fill-opacity="1.0" stroke="rgb(0,0,0)" stroke-width="2"  />
			<g>
				<title>Bmp (PF02608)
"ABC transporter substrate-binding protein PnrA-like"</title>
				<polygon class="PF02608" points="884,40 896,28 913,28 913,52 896,52 884,40" stroke-linejoin="round" width="29" height="24" fill="rgb(59,187,146)" stroke="rgb(47,149,116)" stroke-width="1" opacity="0.75" />
			</g>
		</g>
		<g>
			<title> (ctg2_470)</title>
			<polygon class=" (ctg2_470)" points="949,25 949,25 949,10 919,40 949,70 949,55 949,55" fill="rgb(255,255,255)" fill-opacity="1.0" stroke="rgb(0,0,0)" stroke-width="2"  />
			<g>
				<title>BPD_transp_2 (PF02653)
"Branched-chain amino acid transport system / permease component"</title>
				<polygon class="PF02653" points="923,40 935,28 948,28 948,52 935,52" stroke-linejoin="round" width="27" height="24" fill="rgb(69,130,196)" stroke="rgb(55,104,156)" stroke-width="1" opacity="0.75" />
			</g>
		</g>
		<g>
			<title> (ctg2_471)</title>
			<polygon class=" (ctg2_471)" points="987,25 979,25 979,10 949,40 979,70 979,55 987,55" fill="rgb(255,255,255)" fill-opacity="1.0" stroke="rgb(0,0,0)" stroke-width="2"  />
			<g>
				<title>BPD_transp_2 (PF02653)
"Branched-chain amino acid transport system / permease component"</title>
				<polygon class="PF02653" points="953,40 965,28 978,28 978,52 965,52" stroke-linejoin="round" width="27" height="24" fill="rgb(69,130,196)" stroke="rgb(55,104,156)" stroke-width="1" opacity="0.75" />
			</g>
		</g>
		<g>
			<title> (ctg2_472)</title>
			<polygon class=" (ctg2_472)" points="1040,25 1017,25 1017,10 987,40 1017,70 1017,55 1040,55" fill="rgb(255,255,255)" fill-opacity="1.0" stroke="rgb(0,0,0)" stroke-width="2"  />
			<g>
				<title>ABC_tran (PF00005)
"ABC transporter"</title>
				<polygon class="PF00005" points="995,36 1003,28 1010,28 1010,52 1003,52 995,44" stroke-linejoin="round" width="15" height="24" fill="rgb(129,201,63)" stroke="rgb(103,160,50)" stroke-width="1" opacity="0.75" />
			</g>
			<g>
				<title>ABC_tran (PF00005)
"ABC transporter"</title>
				<rect class="PF00005" x="1022" y="28" stroke-linejoin="round" width="14" height="24" fill="rgb(129,201,63)" stroke="rgb(103,160,50)" stroke-width="1" opacity="0.75" />
			</g>
		</g>
		<g>
			<title> (ctg2_473)</title>
			<polygon class=" (ctg2_473)" points="1074,25 1071,25 1071,10 1041,40 1071,70 1071,55 1074,55" fill="rgb(255,255,255)" fill-opacity="1.0" stroke="rgb(0,0,0)" stroke-width="2"  />
			<g>
				<title>XdhC_C (PF13478)
"XdhC Rossmann domain"</title>
				<polygon class="PF13478" points="1045,40 1057,28 1058,28 1058,52 1057,52" stroke-linejoin="round" width="14" height="24" fill="rgb(79,186,134)" stroke="rgb(63,148,107)" stroke-width="1" opacity="0.75" />
			</g>
			<g>
				<title>XdhC_CoxI (PF02625)
"XdhC and CoxI family"</title>
				<rect class="PF02625" x="1066" y="28" stroke-linejoin="round" width="6" height="24" fill="rgb(206,94,146)" stroke="rgb(164,75,116)" stroke-width="1" opacity="0.75" />
			</g>
		</g>
		<g>
			<title> (ctg2_474)</title>
			<polygon class=" (ctg2_474)" points="1152,25 1105,25 1105,10 1075,40 1105,70 1105,55 1152,55" fill="rgb(255,255,255)" fill-opacity="1.0" stroke="rgb(0,0,0)" stroke-width="2"  />
			<g>
				<title>MoCoBD_2 (PF20256)
"Molybdopterin cofactor-binding domain"</title>
				<polygon class="PF20256" points="1082,37 1091,28 1110,28 1110,52 1091,52 1082,43" stroke-linejoin="round" width="28" height="24" fill="rgb(50,138,186)" stroke="rgb(39,110,148)" stroke-width="1" opacity="0.75" />
			</g>
			<g>
				<title>MoCoBD_1 (PF02738)
"Molybdopterin cofactor-binding domain"</title>
				<rect class="PF02738" x="1113" y="28" stroke-linejoin="round" width="24" height="24" fill="rgb(194,143,89)" stroke="rgb(155,114,71)" stroke-width="1" opacity="0.75" />
			</g>
			<g>
				<title>Ald_Xan_dh_C (PF01315)
"Aldehyde oxidase and xanthine dehydrogenase, a/b hammerhead domain"</title>
				<rect class="PF01315" x="1138" y="28" stroke-linejoin="round" width="10" height="24" fill="rgb(127,182,88)" stroke="rgb(101,145,70)" stroke-width="1" opacity="0.75" />
			</g>
		</g>
		<g>
			<title> (ctg2_475)</title>
			<polygon class=" (ctg2_475)" points="1201,25 1182,25 1182,10 1152,40 1182,70 1182,55 1201,55" fill="rgb(255,255,255)" fill-opacity="1.0" stroke="rgb(0,0,0)" stroke-width="2"  />
			<g>
				<title>CO_deh_flav_C (PF03450)
"CO dehydrogenase flavoprotein C-terminal domain"</title>
				<polygon class="PF03450" points="1156,40 1164,32 1164,48" stroke-linejoin="round" width="10" height="24" fill="rgb(68,181,100)" stroke="rgb(54,144,80)" stroke-width="1" opacity="0.75" />
			</g>
			<g>
				<title>FAD_binding_5 (PF00941)
"FAD binding domain in molybdopterin dehydrogenase"</title>
				<polygon class="PF00941" points="1165,31 1168,28 1181,28 1181,52 1168,52 1165,49" stroke-linejoin="round" width="16" height="24" fill="rgb(67,160,198)" stroke="rgb(53,128,158)" stroke-width="1" opacity="0.75" />
			</g>
			<g>
				<title>Fer2_2 (PF01799)
"[2Fe-2S] binding domain"</title>
				<rect class="PF01799" x="1185" y="28" stroke-linejoin="round" width="7" height="24" fill="rgb(67,193,124)" stroke="rgb(53,154,99)" stroke-width="1" opacity="0.75" />
			</g>
			<g>
				<title>Fer2 (PF00111)
"2Fe-2S iron-sulfur cluster binding domain"</title>
				<rect class="PF00111" x="1194" y="28" stroke-linejoin="round" width="6" height="24" fill="rgb(60,59,191)" stroke="rgb(48,47,152)" stroke-width="1" opacity="0.75" />
			</g>
		</g>
		<g>
			<title> (ctg2_476)</title>
			<polygon class=" (ctg2_476)" points="1202,40 1213,10 1213,70" fill="rgb(255,255,255)" fill-opacity="1.0" stroke="rgb(0,0,0)" stroke-width="2"  />
			<g>
				<title>Transthyretin (PF00576)
"HIUase/Transthyretin family"</title>
				<polygon class="PF00576" points="1205,40 1210,28 1213,28 1213,52 1210,52" stroke-linejoin="round" width="11" height="24" fill="rgb(184,55,136)" stroke="rgb(147,44,108)" stroke-width="1" opacity="0.75" />
			</g>
		</g>
		<g>
			<title> (ctg2_477)</title>
			<polygon class=" (ctg2_477)" points="1222,25 1223,25 1223,10 1253,40 1223,70 1223,55 1222,55" fill="rgb(255,255,255)" fill-opacity="1.0" stroke="rgb(0,0,0)" stroke-width="2"  />
			<g>
				<title>HTH_1 (PF00126)
"Bacterial regulatory helix-turn-helix protein, lysR family"</title>
				<rect class="PF00126" x="1224" y="28" stroke-linejoin="round" width="5" height="24" fill="rgb(125,227,79)" stroke="rgb(99,181,63)" stroke-width="1" opacity="0.75" />
			</g>
			<g>
				<title>LysR_substrate (PF03466)
"LysR substrate binding domain"</title>
				<polygon class="PF03466" points="1232,28 1237,28 1249,40 1237,52 1232,52" stroke-linejoin="round" width="20" height="24" fill="rgb(55,136,195)" stroke="rgb(44,108,156)" stroke-width="1" opacity="0.75" />
			</g>
		</g>
		<g>
			<title> (ctg2_478)</title>
			<polygon class=" (ctg2_478)" points="1287,25 1284,25 1284,10 1254,40 1284,70 1284,55 1287,55" fill="rgb(255,255,255)" fill-opacity="1.0" stroke="rgb(0,0,0)" stroke-width="2"  />
			<g>
				<title>ADH_zinc_N (PF00107)
"Zinc-binding dehydrogenase"</title>
				<polygon class="PF00107" points="1258,40 1270,28 1271,28 1271,52 1270,52 1258,40" stroke-linejoin="round" width="13" height="24" fill="rgb(81,108,215)" stroke="rgb(64,86,172)" stroke-width="1" opacity="0.75" />
			</g>
			<g>
				<title>ADH_N (PF08240)
"Alcohol dehydrogenase GroES-like domain"</title>
				<rect class="PF08240" x="1277" y="28" stroke-linejoin="round" width="6" height="24" fill="rgb(211,65,138)" stroke="rgb(168,51,110)" stroke-width="1" opacity="0.75" />
			</g>
		</g>
		<g>
			<title> (ctg2_479)</title>
			<polygon class=" (ctg2_479)" points="1330,25 1320,25 1320,10 1290,40 1320,70 1320,55 1330,55" fill="rgb(255,255,255)" fill-opacity="1.0" stroke="rgb(0,0,0)" stroke-width="2"  />
			<g>
				<title>MFS_1 (PF07690)
"Major Facilitator Superfamily"</title>
				<polygon class="PF07690" points="1296,38 1306,28 1328,28 1328,52 1306,52 1296,42" stroke-linejoin="round" width="32" height="24" fill="rgb(193,224,74)" stroke="rgb(154,179,59)" stroke-width="1" opacity="0.75" />
			</g>
		</g>
		<g>
			<title> (ctg2_480)</title>
			<polygon class=" (ctg2_480)" points="1337,40 1361,10 1361,70" fill="rgb(255,255,255)" fill-opacity="1.0" stroke="rgb(0,0,0)" stroke-width="2"  />
			<g>
				<title>TerC (PF03741)
"Integral membrane protein TerC family"</title>
				<polygon class="PF03741" points="1341,40 1351,28 1358,28 1358,52 1351,52" stroke-linejoin="round" width="18" height="24" fill="rgb(221,113,97)" stroke="rgb(176,90,77)" stroke-width="1" opacity="0.75" />
			</g>
		</g>
	</g>
</svg>
