<svg version="1.1" baseProfile="full" xmlns="http://www.w3.org/2000/svg" width="715.4666666666667" height="80">
	<g>
		<line x1="10" y1="40.0" x2="705.4666666666667" y2="40.0" style="stroke:rgb(70,70,70); stroke-width:3 "/>
		<g>
			<title> (ctg18_33)</title>
			<polygon class=" (ctg18_33)" points="90,25 71,25 71,10 41,40 71,70 71,55 90,55" fill="rgb(255,255,255)" fill-opacity="1.0" stroke="rgb(0,0,0)" stroke-width="2"  />
			<g>
				<title>Glyphos_transf (PF04464)
"CDP-Glycerol:Poly(glycerophosphate) glycerophosphotransferase"</title>
				<polygon class="PF04464" points="45,40 57,28 76,28 76,52 57,52" stroke-linejoin="round" width="35" height="24" fill="rgb(55,181,67)" stroke="rgb(44,144,53)" stroke-width="1" opacity="0.75" />
			</g>
		</g>
		<g>
			<title> (ctg18_34)</title>
			<polygon class=" (ctg18_34)" points="133,25 121,25 121,10 91,40 121,70 121,55 133,55" fill="rgb(255,255,255)" fill-opacity="1.0" stroke="rgb(0,0,0)" stroke-width="2"  />
			<g>
				<title>Glyphos_transf (PF04464)
"CDP-Glycerol:Poly(glycerophosphate) glycerophosphotransferase"</title>
				<polygon class="PF04464" points="95,40 107,28 130,28 130,52 107,52" stroke-linejoin="round" width="38" height="24" fill="rgb(55,181,67)" stroke="rgb(44,144,53)" stroke-width="1" opacity="0.75" />
			</g>
		</g>
		<g>
			<title> (ctg18_35)</title>
			<polygon class=" (ctg18_35)" points="188,25 166,25 166,10 136,40 166,70 166,55 188,55" fill="rgb(255,255,255)" fill-opacity="1.0" stroke="rgb(0,0,0)" stroke-width="2"  />
			<g>
				<title>PDZ_2 (PF13180)
"PDZ domain"</title>
				<polygon class="PF13180" points="140,40 147,33 147,47" stroke-linejoin="round" width="11" height="24" fill="rgb(128,192,48)" stroke="rgb(102,153,38)" stroke-width="1" opacity="0.75" />
			</g>
			<g>
				<title>Trypsin_2 (PF13365)
"Trypsin-like peptidase domain"</title>
				<polygon class="PF13365" points="149,31 152,28 166,28 166,52 152,52 149,49" stroke-linejoin="round" width="17" height="24" fill="rgb(126,86,188)" stroke="rgb(100,68,150)" stroke-width="1" opacity="0.75" />
			</g>
		</g>
		<g>
			<title> (ctg18_36)</title>
			<polygon class=" (ctg18_36)" points="195,25 201,25 201,10 231,40 201,70 201,55 195,55" fill="rgb(255,255,255)" fill-opacity="1.0" stroke="rgb(0,0,0)" stroke-width="2"  />
			<g>
				<title>Aminotran_1_2 (PF00155)
"Aminotransferase class I and II"</title>
				<polygon class="PF00155" points="195,28 215,28 227,40 215,52 195,52" stroke-linejoin="round" width="35" height="24" fill="rgb(89,113,198)" stroke="rgb(71,90,158)" stroke-width="1" opacity="0.75" />
			</g>
		</g>
		<g>
			<title> (ctg18_37)</title>
			<polygon class=" (ctg18_37)" points="233,40 261,10 261,70" fill="rgb(255,255,255)" fill-opacity="1.0" stroke="rgb(0,0,0)" stroke-width="2"  />
			<g>
				<title>CN_hydrolase (PF00795)
"Carbon-nitrogen hydrolase"</title>
				<polygon class="PF00795" points="237,40 249,28 258,28 258,52 249,52" stroke-linejoin="round" width="24" height="24" fill="rgb(213,76,196)" stroke="rgb(170,60,156)" stroke-width="1" opacity="0.75" />
			</g>
		</g>
		<g>
			<title> (ctg18_38)</title>
			<polygon class=" (ctg18_38)" points="270,40 285,10 285,70" fill="rgb(255,255,255)" fill-opacity="1.0" stroke="rgb(0,0,0)" stroke-width="2"  />
			<g>
				<title>MarR_2 (PF12802)
"MarR family"</title>
				<polygon class="PF12802" points="275,36 279,28 281,28 281,52 279,52 275,44" stroke-linejoin="round" width="6" height="24" fill="rgb(46,89,185)" stroke="rgb(36,71,148)" stroke-width="1" opacity="0.75" />
			</g>
		</g>
		<g>
			<title> (ctg18_39)</title>
			<polygon class=" (ctg18_39)" points="288,10 306,40 288,70" fill="rgb(255,255,255)" fill-opacity="1.0" stroke="rgb(0,0,0)" stroke-width="2"  />
			<g>
				<title>NUDIX (PF00293)
"NUDIX domain"</title>
				<polygon class="PF00293" points="291,28 295,28 303,40 295,52 291,52" stroke-linejoin="round" width="13" height="24" fill="rgb(92,56,187)" stroke="rgb(73,44,149)" stroke-width="1" opacity="0.75" />
			</g>
		</g>
		<g>
			<title> (ctg18_40)</title>
			<polygon class=" (ctg18_40)" points="306,25 312,25 312,10 342,40 312,70 312,55 306,55" fill="rgb(255,255,255)" fill-opacity="1.0" stroke="rgb(0,0,0)" stroke-width="2"  />
			<g>
				<title>polyprenyl_synt (PF00348)
"Polyprenyl synthetase"</title>
				<polygon class="PF00348" points="309,28 326,28 336,38 336,42 326,52 309,52" stroke-linejoin="round" width="27" height="24" fill="rgb(61,206,65)" stroke="rgb(48,164,52)" stroke-width="1" opacity="0.75" />
			</g>
		</g>
		<g>
			<title> (ctg18_41)</title>
			<polygon class=" (ctg18_41)" points="343,10 371,40 343,70" fill="rgb(255,255,255)" fill-opacity="1.0" stroke="rgb(0,0,0)" stroke-width="2"  />
			<g>
				<title>SQS_PSY (PF00494)
"Squalene/phytoene synthase"</title>
				<polygon class="PF00494" points="345,28 355,28 363,36 363,44 355,52 345,52" stroke-linejoin="round" width="18" height="24" fill="rgb(178,91,49)" stroke="rgb(142,72,39)" stroke-width="1" opacity="0.75" />
			</g>
		</g>
		<g>
			<title> (ctg18_42)</title>
			<polygon class=" (ctg18_42)" points="372,25 393,25 393,10 423,40 393,70 393,55 372,55" fill="rgb(255,255,255)" fill-opacity="1.0" stroke="rgb(0,0,0)" stroke-width="2"  />
			<g>
				<title>Amino_oxidase (PF01593)
"Flavin containing amine oxidoreductase"</title>
				<polygon class="PF01593" points="373,28 407,28 419,40 407,52 373,52" stroke-linejoin="round" width="49" height="24" fill="rgb(184,74,52)" stroke="rgb(147,59,41)" stroke-width="1" opacity="0.75" />
			</g>
		</g>
		<g>
			<title> (ctg18_43)</title>
			<polygon class=" (ctg18_43)" points="423,10 434,40 423,70" fill="rgb(255,255,255)" fill-opacity="1.0" stroke="rgb(0,0,0)" stroke-width="2"  />
		</g>
		<g>
			<title> (ctg18_44)</title>
			<polygon class=" (ctg18_44)" points="435,10 445,40 435,70" fill="rgb(255,255,255)" fill-opacity="1.0" stroke="rgb(0,0,0)" stroke-width="2"  />
		</g>
		<g>
			<title> (ctg18_45)</title>
			<polygon class=" (ctg18_45)" points="446,10 475,40 446,70" fill="rgb(255,255,255)" fill-opacity="1.0" stroke="rgb(0,0,0)" stroke-width="2"  />
			<g>
				<title>UbiA (PF01040)
"UbiA prenyltransferase family"</title>
				<polygon class="PF01040" points="448,28 459,28 471,40 459,52 448,52" stroke-linejoin="round" width="25" height="24" fill="rgb(189,57,100)" stroke="rgb(151,45,80)" stroke-width="1" opacity="0.75" />
			</g>
		</g>
		<g>
			<title> (ctg18_46)</title>
			<polygon class=" (ctg18_46)" points="572,25 506,25 506,10 476,40 506,70 506,55 572,55" fill="rgb(255,255,255)" fill-opacity="1.0" stroke="rgb(0,0,0)" stroke-width="2"  />
			<g>
				<title>UPF0182 (PF03699)
"Uncharacterised protein family (UPF0182)"</title>
				<polygon class="PF03699" points="491,29 492,28 570,28 570,52 492,52 491,51" stroke-linejoin="round" width="79" height="24" fill="rgb(169,89,227)" stroke="rgb(135,71,181)" stroke-width="1" opacity="0.75" />
			</g>
		</g>
		<g>
			<title> (ctg18_47)</title>
			<polygon class=" (ctg18_47)" points="613,25 606,25 606,10 576,40 606,70 606,55 613,55" fill="rgb(255,255,255)" fill-opacity="1.0" stroke="rgb(0,0,0)" stroke-width="2"  />
			<g>
				<title>Lon_C (PF05362)
"Lon protease (S16) C-terminal proteolytic domain"</title>
				<polygon class="PF05362" points="580,40 588,32 588,48" stroke-linejoin="round" width="11" height="24" fill="rgb(172,181,60)" stroke="rgb(137,144,47)" stroke-width="1" opacity="0.75" />
			</g>
		</g>
		<g>
			<title> (ctg18_48)</title>
			<polygon class=" (ctg18_48)" points="618,25 635,25 635,10 665,40 635,70 635,55 618,55" fill="rgb(255,255,255)" fill-opacity="1.0" stroke="rgb(0,0,0)" stroke-width="2"  />
			<g>
				<title>Zincin_2 (PF10103)
"Zincin-like metallopeptidase"</title>
				<polygon class="PF10103" points="624,28 649,28 658,37 658,43 649,52 624,52" stroke-linejoin="round" width="34" height="24" fill="rgb(162,226,85)" stroke="rgb(129,180,67)" stroke-width="1" opacity="0.75" />
			</g>
		</g>
		<g>
			<title> (ctg18_49)</title>
			<polygon class=" (ctg18_49)" points="670,10 697,40 670,70" fill="rgb(255,255,255)" fill-opacity="1.0" stroke="rgb(0,0,0)" stroke-width="2"  />
		</g>
	</g>
</svg>
