<svg version="1.1" baseProfile="full" xmlns="http://www.w3.org/2000/svg" width="1391.5333333333333" height="80">
	<g>
		<line x1="10" y1="40.0" x2="1381.5333333333333" y2="40.0" style="stroke:rgb(70,70,70); stroke-width:3 "/>
		<g>
			<title> (ctg1_597)</title>
			<polygon class=" (ctg1_597)" points="71,25 47,25 47,10 17,40 47,70 47,55 71,55" fill="rgb(255,255,255)" fill-opacity="1.0" stroke="rgb(0,0,0)" stroke-width="2"  />
			<g>
				<title>Amidohydro_3 (PF07969)
"Amidohydrolase family"</title>
				<polygon class="PF07969" points="21,40 33,28 65,28 65,52 33,52" stroke-linejoin="round" width="48" height="24" fill="rgb(228,157,101)" stroke="rgb(182,125,80)" stroke-width="1" opacity="0.75" />
			</g>
		</g>
		<g>
			<title> (ctg1_598)</title>
			<polygon class=" (ctg1_598)" points="78,10 105,40 78,70" fill="rgb(255,255,255)" fill-opacity="1.0" stroke="rgb(0,0,0)" stroke-width="2"  />
			<g>
				<title>adh_short_C2 (PF13561)
"Enoyl-(Acyl carrier protein) reductase"</title>
				<polygon class="PF13561" points="79,28 90,28 101,40 90,52 79,52" stroke-linejoin="round" width="24" height="24" fill="rgb(73,205,127)" stroke="rgb(58,164,101)" stroke-width="1" opacity="0.75" />
			</g>
		</g>
		<g>
			<title> (ctg1_599)</title>
			<polygon class=" (ctg1_599)" points="110,40 133,10 133,70" fill="rgb(255,255,255)" fill-opacity="1.0" stroke="rgb(0,0,0)" stroke-width="2"  />
			<g>
				<title>ABC_tran (PF00005)
"ABC transporter"</title>
				<polygon class="PF00005" points="117,36 123,28 130,28 130,52 123,52 117,44" stroke-linejoin="round" width="13" height="24" fill="rgb(129,201,63)" stroke="rgb(103,160,50)" stroke-width="1" opacity="0.75" />
			</g>
		</g>
		<g>
			<title> (ctg1_600)</title>
			<polygon class=" (ctg1_600)" points="191,25 163,25 163,10 133,40 163,70 163,55 191,55" fill="rgb(255,255,255)" fill-opacity="1.0" stroke="rgb(0,0,0)" stroke-width="2"  />
			<g>
				<title>ABC_tran (PF00005)
"ABC transporter"</title>
				<polygon class="PF00005" points="140,37 149,28 154,28 154,52 149,52 140,43" stroke-linejoin="round" width="14" height="24" fill="rgb(129,201,63)" stroke="rgb(103,160,50)" stroke-width="1" opacity="0.75" />
			</g>
			<g>
				<title>BPD_transp_2 (PF02653)
"Branched-chain amino acid transport system / permease component"</title>
				<rect class="PF02653" x="161" y="28" stroke-linejoin="round" width="26" height="24" fill="rgb(69,130,196)" stroke="rgb(55,104,156)" stroke-width="1" opacity="0.75" />
			</g>
		</g>
		<g>
			<title> (ctg1_601)</title>
			<polygon class=" (ctg1_601)" points="191,40 220,10 220,70" fill="rgb(255,255,255)" fill-opacity="1.0" stroke="rgb(0,0,0)" stroke-width="2"  />
			<g>
				<title>BPD_transp_2 (PF02653)
"Branched-chain amino acid transport system / permease component"</title>
				<polygon class="PF02653" points="195,40 207,28 218,28 218,52 207,52" stroke-linejoin="round" width="26" height="24" fill="rgb(69,130,196)" stroke="rgb(55,104,156)" stroke-width="1" opacity="0.75" />
			</g>
		</g>
		<g>
			<title> (ctg1_602)</title>
			<polygon class=" (ctg1_602)" points="264,25 255,25 255,10 225,40 255,70 255,55 264,55" fill="rgb(255,255,255)" fill-opacity="1.0" stroke="rgb(0,0,0)" stroke-width="2"  />
			<g>
				<title>Peripla_BP_6 (PF13458)
"Periplasmic binding protein"</title>
				<polygon class="PF13458" points="229,40 241,28 260,28 260,52 241,52" stroke-linejoin="round" width="34" height="24" fill="rgb(94,183,81)" stroke="rgb(75,146,64)" stroke-width="1" opacity="0.75" />
			</g>
		</g>
		<g>
			<title> (ctg1_603)</title>
			<polygon class=" (ctg1_603)" points="265,40 292,10 292,70" fill="rgb(255,255,255)" fill-opacity="1.0" stroke="rgb(0,0,0)" stroke-width="2"  />
			<g>
				<title>MoaF_C (PF17409)
"MoaF C-terminal domain"</title>
				<polygon class="PF17409" points="269,40 276,32 276,48" stroke-linejoin="round" width="11" height="24" fill="rgb(66,187,206)" stroke="rgb(52,149,164)" stroke-width="1" opacity="0.75" />
			</g>
			<g>
				<title>MoaF (PF10703)
"MoaF N-terminal domain"</title>
				<polygon class="PF10703" points="279,29 280,28 289,28 289,52 280,52 279,51" stroke-linejoin="round" width="10" height="24" fill="rgb(54,196,53)" stroke="rgb(43,156,42)" stroke-width="1" opacity="0.75" />
			</g>
		</g>
		<g>
			<title> (ctg1_604)</title>
			<polygon class=" (ctg1_604)" points="331,25 329,25 329,10 299,40 329,70 329,55 331,55" fill="rgb(255,255,255)" fill-opacity="1.0" stroke="rgb(0,0,0)" stroke-width="2"  />
			<g>
				<title>HTH_18 (PF12833)
"Helix-turn-helix domain"</title>
				<polygon class="PF12833" points="303,40 307,36 307,44" stroke-linejoin="round" width="8" height="24" fill="rgb(216,58,224)" stroke="rgb(172,46,179)" stroke-width="1" opacity="0.75" />
			</g>
			<g>
				<title>AraC_binding_2 (PF14525)
"AraC-binding-like domain"</title>
				<polygon class="PF14525" points="311,32 315,28 328,28 328,52 315,52 311,48" stroke-linejoin="round" width="17" height="24" fill="rgb(226,106,111)" stroke="rgb(180,84,88)" stroke-width="1" opacity="0.75" />
			</g>
		</g>
		<g>
			<title> (ctg1_605)</title>
			<polygon class=" (ctg1_605)" points="340,40 365,10 365,70" fill="rgb(255,255,255)" fill-opacity="1.0" stroke="rgb(0,0,0)" stroke-width="2"  />
			<g>
				<title>HEAT_2 (PF13646)
"HEAT repeats"</title>
				<polygon class="PF13646" points="348,35 354,28 357,28 357,52 354,52 348,45" stroke-linejoin="round" width="9" height="24" fill="rgb(161,180,58)" stroke="rgb(128,144,46)" stroke-width="1" opacity="0.75" />
			</g>
		</g>
		<g>
			<title> (ctg1_606)</title>
			<polygon class=" (ctg1_606)" points="366,40 381,10 381,70" fill="rgb(255,255,255)" fill-opacity="1.0" stroke="rgb(0,0,0)" stroke-width="2"  />
			<g>
				<title>MarR_2 (PF12802)
"MarR family"</title>
				<polygon class="PF12802" points="371,36 375,28 376,28 376,52 375,52 371,44" stroke-linejoin="round" width="5" height="24" fill="rgb(46,89,185)" stroke="rgb(36,71,148)" stroke-width="1" opacity="0.75" />
			</g>
		</g>
		<g>
			<title> (ctg1_607)</title>
			<polygon class=" (ctg1_607)" points="387,40 394,10 394,70" fill="rgb(255,255,255)" fill-opacity="1.0" stroke="rgb(0,0,0)" stroke-width="2"  />
		</g>
		<g>
			<title> (ctg1_608)</title>
			<polygon class=" (ctg1_608)" points="396,10 404,40 396,70" fill="rgb(255,255,255)" fill-opacity="1.0" stroke="rgb(0,0,0)" stroke-width="2"  />
		</g>
		<g>
			<title> (ctg1_609)</title>
			<polygon class=" (ctg1_609)" points="404,40 410,10 410,70" fill="rgb(255,255,255)" fill-opacity="1.0" stroke="rgb(0,0,0)" stroke-width="2"  />
		</g>
		<g>
			<title> (ctg1_610)</title>
			<polygon class=" (ctg1_610)" points="417,25 433,25 433,10 463,40 433,70 433,55 417,55" fill="rgb(255,255,255)" fill-opacity="1.0" stroke="rgb(0,0,0)" stroke-width="2"  />
			<g>
				<title>MmgE_PrpD (PF03972)
"MmgE/PrpD N-terminal domain"</title>
				<rect class="PF03972" x="417" y="28" stroke-linejoin="round" width="24" height="24" fill="rgb(166,220,102)" stroke="rgb(132,176,81)" stroke-width="1" opacity="0.75" />
			</g>
			<g>
				<title>MmgE_PrpD_C (PF19305)
"MmgE/PrpD C-terminal domain"</title>
				<polygon class="PF19305" points="443,28 447,28 459,40 447,52 443,52" stroke-linejoin="round" width="17" height="24" fill="rgb(194,186,61)" stroke="rgb(155,148,48)" stroke-width="1" opacity="0.75" />
			</g>
		</g>
		<g>
			<title> (ctg1_611)</title>
			<polygon class=" (ctg1_611)" points="465,10 493,40 465,70" fill="rgb(255,255,255)" fill-opacity="1.0" stroke="rgb(0,0,0)" stroke-width="2"  />
			<g>
				<title>ComA (PF02679)
"(2R)-phospho-3-sulfolactate synthase (ComA)"</title>
				<polygon class="PF02679" points="466,28 477,28 489,40 477,52 466,52" stroke-linejoin="round" width="24" height="24" fill="rgb(167,194,96)" stroke="rgb(133,155,76)" stroke-width="1" opacity="0.75" />
			</g>
		</g>
		<g>
			<title> (ctg1_612)</title>
			<polygon class=" (ctg1_612)" points="500,25 503,25 503,10 533,40 503,70 503,55 500,55" fill="rgb(255,255,255)" fill-opacity="1.0" stroke="rgb(0,0,0)" stroke-width="2"  />
			<g>
				<title>GHMP_kinases_N (PF00288)
"GHMP kinases N terminal domain"</title>
				<rect class="PF00288" x="511" y="28" stroke-linejoin="round" width="6" height="24" fill="rgb(190,54,91)" stroke="rgb(152,43,72)" stroke-width="1" opacity="0.75" />
			</g>
			<g>
				<title>GHMP_kinases_C (PF08544)
"GHMP kinases C terminal"</title>
				<polygon class="PF08544" points="524,35 529,40 524,45" stroke-linejoin="round" width="8" height="24" fill="rgb(95,112,219)" stroke="rgb(76,89,175)" stroke-width="1" opacity="0.75" />
			</g>
		</g>
		<g>
			<title> (ctg1_613)</title>
			<polygon class=" (ctg1_613)" points="533,25 534,25 534,10 564,40 534,70 534,55 533,55" fill="rgb(255,255,255)" fill-opacity="1.0" stroke="rgb(0,0,0)" stroke-width="2"  />
			<g>
				<title>GHMP_kinases_N (PF00288)
"GHMP kinases N terminal domain"</title>
				<rect class="PF00288" x="542" y="28" stroke-linejoin="round" width="5" height="24" fill="rgb(190,54,91)" stroke="rgb(152,43,72)" stroke-width="1" opacity="0.75" />
			</g>
			<g>
				<title>MDD_C (PF18376)
"Mevalonate 5-diphosphate decarboxylase C-terminal domain"</title>
				<polygon class="PF18376" points="550,30 560,40 550,50" stroke-linejoin="round" width="13" height="24" fill="rgb(104,190,211)" stroke="rgb(83,152,168)" stroke-width="1" opacity="0.75" />
			</g>
		</g>
		<g>
			<title> (ctg1_614)</title>
			<polygon class=" (ctg1_614)" points="565,25 571,25 571,10 601,40 571,70 571,55 565,55" fill="rgb(255,255,255)" fill-opacity="1.0" stroke="rgb(0,0,0)" stroke-width="2"  />
			<g>
				<title>GHMP_kinases_N (PF00288)
"GHMP kinases N terminal domain"</title>
				<rect class="PF00288" x="575" y="28" stroke-linejoin="round" width="7" height="24" fill="rgb(190,54,91)" stroke="rgb(152,43,72)" stroke-width="1" opacity="0.75" />
			</g>
			<g>
				<title>GHMP_kinases_C (PF08544)
"GHMP kinases C terminal"</title>
				<polygon class="PF08544" points="591,34 597,40 591,46" stroke-linejoin="round" width="8" height="24" fill="rgb(95,112,219)" stroke="rgb(76,89,175)" stroke-width="1" opacity="0.75" />
			</g>
		</g>
		<g>
			<title> (ctg1_615)</title>
			<polygon class=" (ctg1_615)" points="601,25 608,25 608,10 638,40 608,70 608,55 601,55" fill="rgb(255,255,255)" fill-opacity="1.0" stroke="rgb(0,0,0)" stroke-width="2"  />
			<g>
				<title>FMN_dh (PF01070)
"FMN-dependent dehydrogenase"</title>
				<polygon class="PF01070" points="615,28 622,28 634,40 622,52 615,52" stroke-linejoin="round" width="20" height="24" fill="rgb(59,82,204)" stroke="rgb(47,65,163)" stroke-width="1" opacity="0.75" />
			</g>
		</g>
		<g>
			<title> (ctg1_616)</title>
			<polygon class=" (ctg1_616)" points="641,25 646,25 646,10 676,40 646,70 646,55 641,55" fill="rgb(255,255,255)" fill-opacity="1.0" stroke="rgb(0,0,0)" stroke-width="2"  />
			<g>
				<title>HMG-CoA_red (PF00368)
"Hydroxymethylglutaryl-coenzyme A reductase"</title>
				<polygon class="PF00368" points="642,28 660,28 672,40 660,52 642,52" stroke-linejoin="round" width="33" height="24" fill="rgb(67,203,137)" stroke="rgb(53,162,109)" stroke-width="1" opacity="0.75" />
			</g>
		</g>
		<g>
			<title> (ctg1_617)</title>
			<polygon class=" (ctg1_617)" points="676,25 684,25 684,10 714,40 684,70 684,55 676,55" fill="rgb(255,255,255)" fill-opacity="1.0" stroke="rgb(0,0,0)" stroke-width="2"  />
			<g>
				<title>HMG_CoA_synt_N (PF01154)
"Hydroxymethylglutaryl-coenzyme A synthase N terminal"</title>
				<rect class="PF01154" x="676" y="28" stroke-linejoin="round" width="16" height="24" fill="rgb(88,216,218)" stroke="rgb(70,172,174)" stroke-width="1" opacity="0.75" />
			</g>
			<g>
				<title>HMG_CoA_synt_C (PF08540)
"Hydroxymethylglutaryl-coenzyme A synthase C terminal"</title>
				<polygon class="PF08540" points="693,28 697,28 701,32 701,48 697,52 693,52" stroke-linejoin="round" width="8" height="24" fill="rgb(49,194,86)" stroke="rgb(39,155,68)" stroke-width="1" opacity="0.75" />
			</g>
			<g>
				<title>HMG_CoA_synt_C (PF08540)
"Hydroxymethylglutaryl-coenzyme A synthase C terminal"</title>
				<polygon class="PF08540" points="701,32 709,40 701,48" stroke-linejoin="round" width="9" height="24" fill="rgb(49,194,86)" stroke="rgb(39,155,68)" stroke-width="1" opacity="0.75" />
			</g>
		</g>
		<g>
			<title> (ctg1_618)</title>
			<polygon class=" (ctg1_618)" points="718,40 733,10 733,70" fill="rgb(255,255,255)" fill-opacity="1.0" stroke="rgb(0,0,0)" stroke-width="2"  />
			<g>
				<title>MarR (PF01047)
"MarR family"</title>
				<polygon class="PF01047" points="723,36 727,28 728,28 728,52 727,52 723,44" stroke-linejoin="round" width="5" height="24" fill="rgb(60,185,86)" stroke="rgb(48,148,68)" stroke-width="1" opacity="0.75" />
			</g>
		</g>
		<g>
			<title> (ctg1_619)</title>
			<polygon class=" (ctg1_619)" points="735,10 743,40 735,70" fill="rgb(255,255,255)" fill-opacity="1.0" stroke="rgb(0,0,0)" stroke-width="2"  />
		</g>
		<g>
			<title> (ctg1_620)</title>
			<polygon class=" (ctg1_620)" points="747,40 764,10 764,70" fill="rgb(255,255,255)" fill-opacity="1.0" stroke="rgb(0,0,0)" stroke-width="2"  />
		</g>
		<g>
			<title> (ctg1_621)</title>
			<polygon class=" (ctg1_621)" points="770,10 786,40 770,70" fill="rgb(255,255,255)" fill-opacity="1.0" stroke="rgb(0,0,0)" stroke-width="2"  />
		</g>
		<g>
			<title> (ctg1_622)</title>
			<polygon class=" (ctg1_622)" points="785,40 814,10 814,70" fill="rgb(255,255,255)" fill-opacity="1.0" stroke="rgb(0,0,0)" stroke-width="2"  />
			<g>
				<title>DUF1295 (PF06966)
"Protein of unknown function (DUF1295)"</title>
				<polygon class="PF06966" points="789,40 801,28 808,28 808,52 801,52" stroke-linejoin="round" width="22" height="24" fill="rgb(84,216,56)" stroke="rgb(67,172,44)" stroke-width="1" opacity="0.75" />
			</g>
		</g>
		<g>
			<title> (ctg1_623)</title>
			<polygon class=" (ctg1_623)" points="879,25 844,25 844,10 814,40 844,70 844,55 879,55" fill="rgb(255,255,255)" fill-opacity="1.0" stroke="rgb(0,0,0)" stroke-width="2"  />
			<g>
				<title>AMP-binding (PF00501)
"AMP-binding enzyme"</title>
				<polygon class="PF00501" points="828,30 830,28 874,28 874,52 830,52 828,50" stroke-linejoin="round" width="46" height="24" fill="rgb(60,217,223)" stroke="rgb(48,173,178)" stroke-width="1" opacity="0.75" />
			</g>
		</g>
		<g>
			<title> (ctg1_624)</title>
			<polygon class=" (ctg1_624)" points="992,25 943,25 943,10 913,40 943,70 943,55 992,55" fill="rgb(255,255,255)" fill-opacity="1.0" stroke="rgb(0,0,0)" stroke-width="2"  />
			<g>
				<title>DUF11 (PF01345)
"Domain of unknown function DUF11"</title>
				<polygon class="PF01345" points="925,32 929,28 936,28 936,52 929,52 925,48" stroke-linejoin="round" width="11" height="24" fill="rgb(83,216,100)" stroke="rgb(66,172,80)" stroke-width="1" opacity="0.75" />
			</g>
		</g>
		<g>
			<title> (ctg1_625)</title>
			<polygon class=" (ctg1_625)" points="1060,25 1035,25 1035,10 1005,40 1035,70 1035,55 1060,55" fill="rgb(255,255,255)" fill-opacity="1.0" stroke="rgb(0,0,0)" stroke-width="2"  />
			<g>
				<title>Amidohydro_3 (PF07969)
"Amidohydrolase family"</title>
				<polygon class="PF07969" points="1009,40 1021,28 1053,28 1053,52 1021,52" stroke-linejoin="round" width="48" height="24" fill="rgb(228,157,101)" stroke="rgb(182,125,80)" stroke-width="1" opacity="0.75" />
			</g>
		</g>
		<g>
			<title> (ctg1_626)</title>
			<polygon class=" (ctg1_626)" points="1070,25 1070,25 1070,10 1100,40 1070,70 1070,55 1070,55" fill="rgb(255,255,255)" fill-opacity="1.0" stroke="rgb(0,0,0)" stroke-width="2"  />
			<g>
				<title>HTH_AsnC-type (PF13404)
"AsnC-type helix-turn-helix domain"</title>
				<rect class="PF13404" x="1070" y="28" stroke-linejoin="round" width="3" height="24" fill="rgb(190,195,86)" stroke="rgb(152,156,68)" stroke-width="1" opacity="0.75" />
			</g>
			<g>
				<title>HTH_AsnC-type (PF13404)
"AsnC-type helix-turn-helix domain"</title>
				<polygon class="PF13404" points="1085,29 1089,33 1089,47 1085,51" stroke-linejoin="round" width="4" height="24" fill="rgb(190,195,86)" stroke="rgb(152,156,68)" stroke-width="1" opacity="0.75" />
			</g>
		</g>
		<g>
			<title> (ctg1_627)</title>
			<polygon class=" (ctg1_627)" points="1104,40 1113,10 1113,70" fill="rgb(255,255,255)" fill-opacity="1.0" stroke="rgb(0,0,0)" stroke-width="2"  />
		</g>
		<g>
			<title> (ctg1_628)</title>
			<polygon class=" (ctg1_628)" points="1158,25 1146,25 1146,10 1116,40 1146,70 1146,55 1158,55" fill="rgb(255,255,255)" fill-opacity="1.0" stroke="rgb(0,0,0)" stroke-width="2"  />
			<g>
				<title>Peptidase_M18 (PF02127)
"Aminopeptidase I zinc metalloprotease (M18)"</title>
				<polygon class="PF02127" points="1120,40 1132,28 1156,28 1156,52 1132,52" stroke-linejoin="round" width="40" height="24" fill="rgb(53,210,170)" stroke="rgb(42,168,136)" stroke-width="1" opacity="0.75" />
			</g>
		</g>
		<g>
			<title> (ctg1_629)</title>
			<polygon class=" (ctg1_629)" points="1238,25 1190,25 1190,10 1160,40 1190,70 1190,55 1238,55" fill="rgb(255,255,255)" fill-opacity="1.0" stroke="rgb(0,0,0)" stroke-width="2"  />
			<g>
				<title>Trehalose_PPase (PF02358)
"Trehalose-phosphatase"</title>
				<polygon class="PF02358" points="1164,40 1176,28 1184,28 1184,52 1176,52" stroke-linejoin="round" width="22" height="24" fill="rgb(83,128,204)" stroke="rgb(66,102,163)" stroke-width="1" opacity="0.75" />
			</g>
			<g>
				<title>Glyco_transf_20 (PF00982)
"Glycosyltransferase family 20"</title>
				<rect class="PF00982" x="1190" y="28" stroke-linejoin="round" width="46" height="24" fill="rgb(89,138,188)" stroke="rgb(71,110,150)" stroke-width="1" opacity="0.75" />
			</g>
		</g>
		<g>
			<title> (ctg1_630)</title>
			<polygon class=" (ctg1_630)" points="1291,25 1271,25 1271,10 1241,40 1271,70 1271,55 1291,55" fill="rgb(255,255,255)" fill-opacity="1.0" stroke="rgb(0,0,0)" stroke-width="2"  />
			<g>
				<title>Peptidase_M17 (PF00883)
"Cytosol aminopeptidase family, catalytic domain"</title>
				<polygon class="PF00883" points="1245,40 1257,28 1273,28 1273,52 1257,52" stroke-linejoin="round" width="31" height="24" fill="rgb(81,178,163)" stroke="rgb(64,142,130)" stroke-width="1" opacity="0.75" />
			</g>
			<g>
				<title>Peptidase_M17_N (PF02789)
"Cytosol aminopeptidase family, N-terminal domain"</title>
				<rect class="PF02789" x="1276" y="28" stroke-linejoin="round" width="10" height="24" fill="rgb(216,155,96)" stroke="rgb(172,124,76)" stroke-width="1" opacity="0.75" />
			</g>
		</g>
		<g>
			<title> (ctg1_631)</title>
			<polygon class=" (ctg1_631)" points="1296,25 1301,25 1301,10 1331,40 1301,70 1301,55 1296,55" fill="rgb(255,255,255)" fill-opacity="1.0" stroke="rgb(0,0,0)" stroke-width="2"  />
			<g>
				<title>Bac_luciferase (PF00296)
"Luciferase-like monooxygenase"</title>
				<polygon class="PF00296" points="1296,28 1314,28 1325,39 1325,41 1314,52 1296,52" stroke-linejoin="round" width="29" height="24" fill="rgb(180,112,78)" stroke="rgb(144,89,62)" stroke-width="1" opacity="0.75" />
			</g>
		</g>
		<g>
			<title> (ctg1_632)</title>
			<polygon class=" (ctg1_632)" points="1335,10 1348,40 1335,70" fill="rgb(255,255,255)" fill-opacity="1.0" stroke="rgb(0,0,0)" stroke-width="2"  />
			<g>
				<title>Glyoxalase_6 (PF18029)
"Glyoxalase-like domain"</title>
				<polygon class="PF18029" points="1335,28 1339,28 1345,40 1339,52 1335,52" stroke-linejoin="round" width="12" height="24" fill="rgb(90,208,104)" stroke="rgb(72,166,83)" stroke-width="1" opacity="0.75" />
			</g>
		</g>
	</g>
</svg>
