<svg version="1.1" baseProfile="full" xmlns="http://www.w3.org/2000/svg" width="746.6" height="80">
	<g>
		<line x1="10" y1="40.0" x2="736.6" y2="40.0" style="stroke:rgb(70,70,70); stroke-width:3 "/>
		<g>
			<title> (ctg7_268)</title>
			<polygon class=" (ctg7_268)" points="64,10 72,40 64,70" fill="rgb(255,255,255)" fill-opacity="1.0" stroke="rgb(0,0,0)" stroke-width="2"  />
		</g>
		<g>
			<title> (ctg7_269)</title>
			<polygon class=" (ctg7_269)" points="74,10 80,40 74,70" fill="rgb(255,255,255)" fill-opacity="1.0" stroke="rgb(0,0,0)" stroke-width="2"  />
		</g>
		<g>
			<title> (ctg7_270)</title>
			<polygon class=" (ctg7_270)" points="124,25 111,25 111,10 81,40 111,70 111,55 124,55" fill="rgb(255,255,255)" fill-opacity="1.0" stroke="rgb(0,0,0)" stroke-width="2"  />
			<g>
				<title>HipA_C (PF07804)
"HipA-like C-terminal domain"</title>
				<polygon class="PF07804" points="85,40 97,28 109,28 109,52 97,52" stroke-linejoin="round" width="25" height="24" fill="rgb(52,106,179)" stroke="rgb(41,84,143)" stroke-width="1" opacity="0.75" />
			</g>
			<g>
				<title>Couple_hipA (PF13657)
"HipA N-terminal domain"</title>
				<rect class="PF13657" x="114" y="28" stroke-linejoin="round" width="10" height="24" fill="rgb(65,181,177)" stroke="rgb(52,144,141)" stroke-width="1" opacity="0.75" />
			</g>
		</g>
		<g>
			<title> (ctg7_271)</title>
			<polygon class=" (ctg7_271)" points="125,40 138,10 138,70" fill="rgb(255,255,255)" fill-opacity="1.0" stroke="rgb(0,0,0)" stroke-width="2"  />
			<g>
				<title>HTH_3 (PF01381)
"Helix-turn-helix"</title>
				<polygon class="PF01381" points="131,33 133,28 136,28 136,52 133,52 131,47" stroke-linejoin="round" width="5" height="24" fill="rgb(105,79,202)" stroke="rgb(83,63,161)" stroke-width="1" opacity="0.75" />
			</g>
		</g>
		<g>
			<title> (ctg7_272)</title>
			<polygon class=" (ctg7_272)" points="175,25 172,25 172,10 142,40 172,70 172,55 175,55" fill="rgb(255,255,255)" fill-opacity="1.0" stroke="rgb(0,0,0)" stroke-width="2"  />
			<g>
				<title>Phage_integrase (PF00589)
"Phage integrase family"</title>
				<polygon class="PF00589" points="146,40 158,28 158,28 158,52 158,52" stroke-linejoin="round" width="16" height="24" fill="rgb(91,96,195)" stroke="rgb(72,76,156)" stroke-width="1" opacity="0.75" />
			</g>
		</g>
		<g>
			<title> (ctg7_273)</title>
			<polygon class=" (ctg7_273)" points="296,25 219,25 219,10 189,40 219,70 219,55 296,55" fill="rgb(255,255,255)" fill-opacity="1.0" stroke="rgb(0,0,0)" stroke-width="2"  />
			<g>
				<title>ACR_tran (PF00873)
"AcrB/AcrD/AcrF family"</title>
				<polygon class="PF00873" points="193,40 205,28 294,28 294,52 205,52" stroke-linejoin="round" width="104" height="24" fill="rgb(63,191,60)" stroke="rgb(50,152,48)" stroke-width="1" opacity="0.75" />
			</g>
		</g>
		<g>
			<title> (ctg7_274)</title>
			<polygon class=" (ctg7_274)" points="336,25 326,25 326,10 296,40 326,70 326,55 336,55" fill="rgb(255,255,255)" fill-opacity="1.0" stroke="rgb(0,0,0)" stroke-width="2"  />
			<g>
				<title>HlyD_D23 (PF16576)
"Barrel-sandwich domain of CusB or HlyD membrane-fusion"</title>
				<polygon class="PF16576" points="308,32 312,28 330,28 330,52 312,52 308,48" stroke-linejoin="round" width="22" height="24" fill="rgb(70,190,92)" stroke="rgb(56,152,73)" stroke-width="1" opacity="0.75" />
			</g>
		</g>
		<g>
			<title> (ctg7_275)</title>
			<polygon class=" (ctg7_275)" points="343,10 372,40 343,70" fill="rgb(255,255,255)" fill-opacity="1.0" stroke="rgb(0,0,0)" stroke-width="2"  />
			<g>
				<title>SQS_PSY (PF00494)
"Squalene/phytoene synthase"</title>
				<polygon class="PF00494" points="344,28 356,28 368,40 356,52 344,52" stroke-linejoin="round" width="26" height="24" fill="rgb(178,91,49)" stroke="rgb(142,72,39)" stroke-width="1" opacity="0.75" />
			</g>
		</g>
		<g>
			<title> (ctg7_276)</title>
			<polygon class=" (ctg7_276)" points="375,10 403,40 375,70" fill="rgb(255,255,255)" fill-opacity="1.0" stroke="rgb(0,0,0)" stroke-width="2"  />
			<g>
				<title>SQS_PSY (PF00494)
"Squalene/phytoene synthase"</title>
				<polygon class="PF00494" points="376,28 387,28 399,40 387,52 376,52" stroke-linejoin="round" width="25" height="24" fill="rgb(178,91,49)" stroke="rgb(142,72,39)" stroke-width="1" opacity="0.75" />
			</g>
		</g>
		<g>
			<title> (ctg7_277)</title>
			<polygon class=" (ctg7_277)" points="404,25 419,25 419,10 449,40 419,70 419,55 404,55" fill="rgb(255,255,255)" fill-opacity="1.0" stroke="rgb(0,0,0)" stroke-width="2"  />
			<g>
				<title>Amino_oxidase (PF01593)
"Flavin containing amine oxidoreductase"</title>
				<polygon class="PF01593" points="405,28 432,28 444,40 432,52 405,52" stroke-linejoin="round" width="42" height="24" fill="rgb(184,74,52)" stroke="rgb(147,59,41)" stroke-width="1" opacity="0.75" />
			</g>
		</g>
		<g>
			<title> (ctg7_278)</title>
			<polygon class=" (ctg7_278)" points="454,25 458,25 458,10 488,40 458,70 458,55 454,55" fill="rgb(255,255,255)" fill-opacity="1.0" stroke="rgb(0,0,0)" stroke-width="2"  />
			<g>
				<title>TctC (PF03401)
"Tripartite tricarboxylate transporter family receptor"</title>
				<polygon class="PF03401" points="460,28 471,28 483,40 471,52 460,52" stroke-linejoin="round" width="27" height="24" fill="rgb(74,93,188)" stroke="rgb(59,74,150)" stroke-width="1" opacity="0.75" />
			</g>
		</g>
		<g>
			<title> (ctg7_279)</title>
			<polygon class=" (ctg7_279)" points="489,40 511,10 511,70" fill="rgb(255,255,255)" fill-opacity="1.0" stroke="rgb(0,0,0)" stroke-width="2"  />
			<g>
				<title>FCD (PF07729)
"FCD domain"</title>
				<polygon class="PF07729" points="493,40 502,28 502,28 502,52 502,52" stroke-linejoin="round" width="12" height="24" fill="rgb(74,75,215)" stroke="rgb(59,60,172)" stroke-width="1" opacity="0.75" />
			</g>
			<g>
				<title>GntR (PF00392)
"Bacterial regulatory proteins, gntR family"</title>
				<rect class="PF00392" x="504" y="28" stroke-linejoin="round" width="6" height="24" fill="rgb(160,85,194)" stroke="rgb(127,68,155)" stroke-width="1" opacity="0.75" />
			</g>
		</g>
		<g>
			<title> (ctg7_280)</title>
			<polygon class=" (ctg7_280)" points="517,10 530,40 517,70" fill="rgb(255,255,255)" fill-opacity="1.0" stroke="rgb(0,0,0)" stroke-width="2"  />
			<g>
				<title>CMD (PF02627)
"Carboxymuconolactone decarboxylase family"</title>
				<polygon class="PF02627" points="521,28 521,28 527,40 521,52 521,52" stroke-linejoin="round" width="8" height="24" fill="rgb(58,205,164)" stroke="rgb(46,164,131)" stroke-width="1" opacity="0.75" />
			</g>
		</g>
		<g>
			<title> (ctg7_281)</title>
			<polygon class=" (ctg7_281)" points="531,10 559,40 531,70" fill="rgb(255,255,255)" fill-opacity="1.0" stroke="rgb(0,0,0)" stroke-width="2"  />
			<g>
				<title>NAD_binding_2 (PF03446)
"NAD binding domain of 6-phosphogluconate dehydrogenase"</title>
				<polygon class="PF03446" points="531,28 543,28 546,30 546,50 543,52 531,52" stroke-linejoin="round" width="15" height="24" fill="rgb(205,164,98)" stroke="rgb(164,131,78)" stroke-width="1" opacity="0.75" />
			</g>
			<g>
				<title>NAD_binding_11 (PF14833)
"NAD-binding of NADP-dependent 3-hydroxyisobutyrate dehydrogenase"</title>
				<polygon class="PF14833" points="547,31 555,40 547,49" stroke-linejoin="round" width="12" height="24" fill="rgb(141,199,89)" stroke="rgb(112,159,71)" stroke-width="1" opacity="0.75" />
			</g>
		</g>
		<g>
			<title> (ctg7_282)</title>
			<polygon class=" (ctg7_282)" points="564,25 566,25 566,10 596,40 566,70 566,55 564,55" fill="rgb(255,255,255)" fill-opacity="1.0" stroke="rgb(0,0,0)" stroke-width="2"  />
			<g>
				<title>TctC (PF03401)
"Tripartite tricarboxylate transporter family receptor"</title>
				<polygon class="PF03401" points="568,28 580,28 592,40 580,52 568,52" stroke-linejoin="round" width="27" height="24" fill="rgb(74,93,188)" stroke="rgb(59,74,150)" stroke-width="1" opacity="0.75" />
			</g>
		</g>
		<g>
			<title> (ctg7_283)</title>
			<polygon class=" (ctg7_283)" points="602,40 609,10 609,70" fill="rgb(255,255,255)" fill-opacity="1.0" stroke="rgb(0,0,0)" stroke-width="2"  />
			<g>
				<title>DUF2788 (PF10981)
"Protein of unknown function (DUF2788)"</title>
				<polygon class="PF10981" points="605,40 607,32 607,48" stroke-linejoin="round" width="5" height="24" fill="rgb(204,77,147)" stroke="rgb(163,61,117)" stroke-width="1" opacity="0.75" />
			</g>
		</g>
		<g>
			<title> (ctg7_284)</title>
			<polygon class=" (ctg7_284)" points="611,40 638,10 638,70" fill="rgb(255,255,255)" fill-opacity="1.0" stroke="rgb(0,0,0)" stroke-width="2"  />
			<g>
				<title>DUF2189 (PF09955)
"Predicted integral membrane protein (DUF2189)"</title>
				<polygon class="PF09955" points="618,37 626,28 631,28 631,52 626,52 618,43" stroke-linejoin="round" width="13" height="24" fill="rgb(120,190,73)" stroke="rgb(96,152,58)" stroke-width="1" opacity="0.75" />
			</g>
		</g>
		<g>
			<title> (ctg7_285)</title>
			<polygon class=" (ctg7_285)" points="640,40 665,10 665,70" fill="rgb(255,255,255)" fill-opacity="1.0" stroke="rgb(0,0,0)" stroke-width="2"  />
			<g>
				<title>Hydrolase_like (PF13242)
"HAD-hyrolase-like"</title>
				<polygon class="PF13242" points="644,40 647,36 647,44" stroke-linejoin="round" width="7" height="24" fill="rgb(202,89,70)" stroke="rgb(161,71,56)" stroke-width="1" opacity="0.75" />
			</g>
		</g>
		<g>
			<title> (ctg7_286)</title>
			<polygon class=" (ctg7_286)" points="668,25 674,25 674,10 704,40 674,70 674,55 668,55" fill="rgb(255,255,255)" fill-opacity="1.0" stroke="rgb(0,0,0)" stroke-width="2"  />
			<g>
				<title>Ferrochelatase (PF00762)
"Ferrochelatase"</title>
				<polygon class="PF00762" points="669,28 688,28 700,40 688,52 669,52" stroke-linejoin="round" width="32" height="24" fill="rgb(46,104,183)" stroke="rgb(36,83,146)" stroke-width="1" opacity="0.75" />
			</g>
		</g>
	</g>
</svg>
