<svg version="1.1" baseProfile="full" xmlns="http://www.w3.org/2000/svg" width="1156.5" height="80">
	<g>
		<line x1="10" y1="40.0" x2="1146.5" y2="40.0" style="stroke:rgb(70,70,70); stroke-width:3 "/>
		<g>
			<title> (ctg2_6)</title>
			<polygon class=" (ctg2_6)" points="23,40 31,10 31,70" fill="rgb(255,255,255)" fill-opacity="1.0" stroke="rgb(0,0,0)" stroke-width="2"  />
		</g>
		<g>
			<title> (ctg2_7)</title>
			<polygon class=" (ctg2_7)" points="33,25 57,25 57,10 87,40 57,70 57,55 33,55" fill="rgb(255,255,255)" fill-opacity="1.0" stroke="rgb(0,0,0)" stroke-width="2"  />
			<g>
				<title>Arginosuc_synth (PF00764)
"Arginosuccinate synthase"</title>
				<polygon class="PF00764" points="40,28 70,28 80,38 80,42 70,52 40,52" stroke-linejoin="round" width="40" height="24" fill="rgb(93,212,110)" stroke="rgb(74,169,88)" stroke-width="1" opacity="0.75" />
			</g>
		</g>
		<g>
			<title> (ctg2_8)</title>
			<polygon class=" (ctg2_8)" points="91,40 113,10 113,70" fill="rgb(255,255,255)" fill-opacity="1.0" stroke="rgb(0,0,0)" stroke-width="2"  />
		</g>
		<g>
			<title> (ctg2_9)</title>
			<polygon class=" (ctg2_9)" points="120,10 142,40 120,70" fill="rgb(255,255,255)" fill-opacity="1.0" stroke="rgb(0,0,0)" stroke-width="2"  />
			<g>
				<title>TetR_N (PF00440)
"Bacterial regulatory proteins, tetR family"</title>
				<rect class="PF00440" x="122" y="28" stroke-linejoin="round" width="4" height="24" fill="rgb(73,212,190)" stroke="rgb(58,169,152)" stroke-width="1" opacity="0.75" />
			</g>
		</g>
		<g>
			<title> (ctg2_10)</title>
			<polygon class=" (ctg2_10)" points="143,25 144,25 144,10 174,40 144,70 144,55 143,55" fill="rgb(255,255,255)" fill-opacity="1.0" stroke="rgb(0,0,0)" stroke-width="2"  />
		</g>
		<g>
			<title> (ctg2_11)</title>
			<polygon class=" (ctg2_11)" points="174,25 207,25 207,10 237,40 207,70 207,55 174,55" fill="rgb(255,255,255)" fill-opacity="1.0" stroke="rgb(0,0,0)" stroke-width="2"  />
			<g>
				<title>ABC2_membrane_3 (PF12698)
"ABC-2 family transporter protein"</title>
				<polygon class="PF12698" points="176,28 220,28 232,40 220,52 176,52" stroke-linejoin="round" width="58" height="24" fill="rgb(151,189,55)" stroke="rgb(120,151,44)" stroke-width="1" opacity="0.75" />
			</g>
		</g>
		<g>
			<title> (ctg2_12)</title>
			<polygon class=" (ctg2_12)" points="254,10 279,40 254,70" fill="rgb(255,255,255)" fill-opacity="1.0" stroke="rgb(0,0,0)" stroke-width="2"  />
			<g>
				<title>Abhydrolase_6 (PF12697)
"Alpha/beta hydrolase family"</title>
				<polygon class="PF12697" points="257,28 265,28 275,40 265,52 257,52" stroke-linejoin="round" width="20" height="24" fill="rgb(113,71,219)" stroke="rgb(90,56,175)" stroke-width="1" opacity="0.75" />
			</g>
		</g>
		<g>
			<title> (ctg2_13)</title>
			<polygon class=" (ctg2_13)" points="330,25 311,25 311,10 281,40 311,70 311,55 330,55" fill="rgb(255,255,255)" fill-opacity="1.0" stroke="rgb(0,0,0)" stroke-width="2"  />
			<g>
				<title>GCS2 (PF04107)
"Glutamate-cysteine ligase family 2(GCS2)"</title>
				<rect class="PF04107" x="298" y="28" stroke-linejoin="round" width="13" height="24" fill="rgb(67,145,225)" stroke="rgb(53,116,180)" stroke-width="1" opacity="0.75" />
			</g>
		</g>
		<g>
			<title> (ctg2_14)</title>
			<polygon class=" (ctg2_14)" points="333,10 351,40 333,70" fill="rgb(255,255,255)" fill-opacity="1.0" stroke="rgb(0,0,0)" stroke-width="2"  />
		</g>
		<g>
			<title> (ctg2_15)</title>
			<polygon class=" (ctg2_15)" points="349,40 368,10 368,70" fill="rgb(255,255,255)" fill-opacity="1.0" stroke="rgb(0,0,0)" stroke-width="2"  />
			<g>
				<title>Isochorismatase (PF00857)
"Isochorismatase family"</title>
				<polygon class="PF00857" points="353,40 361,28 367,28 367,52 361,52" stroke-linejoin="round" width="17" height="24" fill="rgb(144,224,70)" stroke="rgb(115,179,56)" stroke-width="1" opacity="0.75" />
			</g>
		</g>
		<g>
			<title> (ctg2_16)</title>
			<polygon class=" (ctg2_16)" points="371,10 386,40 371,70" fill="rgb(255,255,255)" fill-opacity="1.0" stroke="rgb(0,0,0)" stroke-width="2"  />
			<g>
				<title>MarR_2 (PF12802)
"MarR family"</title>
				<polygon class="PF12802" points="375,28 376,28 380,35 380,45 376,52 375,52" stroke-linejoin="round" width="5" height="24" fill="rgb(46,89,185)" stroke="rgb(36,71,148)" stroke-width="1" opacity="0.75" />
			</g>
		</g>
		<g>
			<title> (ctg2_17)</title>
			<polygon class=" (ctg2_17)" points="386,25 403,25 403,10 433,40 403,70 403,55 386,55" fill="rgb(255,255,255)" fill-opacity="1.0" stroke="rgb(0,0,0)" stroke-width="2"  />
			<g>
				<title>MFS_1 (PF07690)
"Major Facilitator Superfamily"</title>
				<polygon class="PF07690" points="388,28 416,28 427,39 427,41 416,52 388,52" stroke-linejoin="round" width="39" height="24" fill="rgb(193,224,74)" stroke="rgb(154,179,59)" stroke-width="1" opacity="0.75" />
			</g>
		</g>
		<g>
			<title> (ctg2_18)</title>
			<polygon class=" (ctg2_18)" points="433,40 456,10 456,70" fill="rgb(255,255,255)" fill-opacity="1.0" stroke="rgb(0,0,0)" stroke-width="2"  />
			<g>
				<title>Acetyltransf_10 (PF13673)
"Acetyltransferase (GNAT) domain"</title>
				<polygon class="PF13673" points="437,40 441,35 441,45" stroke-linejoin="round" width="8" height="24" fill="rgb(88,180,95)" stroke="rgb(70,144,76)" stroke-width="1" opacity="0.75" />
			</g>
		</g>
		<g>
			<title> (ctg2_19)</title>
			<polygon class=" (ctg2_19)" points="507,25 491,25 491,10 461,40 491,70 491,55 507,55" fill="rgb(255,255,255)" fill-opacity="1.0" stroke="rgb(0,0,0)" stroke-width="2"  />
			<g>
				<title>Peptidase_M1 (PF01433)
"Peptidase family M1 domain"</title>
				<polygon class="PF01433" points="465,40 477,28 483,28 483,52 477,52" stroke-linejoin="round" width="19" height="24" fill="rgb(173,57,219)" stroke="rgb(138,45,175)" stroke-width="1" opacity="0.75" />
			</g>
			<g>
				<title>Peptidase_M1_N (PF17900)
"Peptidase M1 N-terminal domain"</title>
				<rect class="PF17900" x="488" y="28" stroke-linejoin="round" width="17" height="24" fill="rgb(63,189,168)" stroke="rgb(50,151,134)" stroke-width="1" opacity="0.75" />
			</g>
		</g>
		<g>
			<title> (ctg2_20)</title>
			<polygon class=" (ctg2_20)" points="646,25 540,25 540,10 510,40 540,70 540,55 646,55" fill="rgb(255,255,255)" fill-opacity="1.0" stroke="rgb(0,0,0)" stroke-width="2"  />
			<g>
				<title>PP-binding (PF00550)
"Phosphopantetheine attachment site"</title>
				<rect class="PF00550" x="582" y="28" stroke-linejoin="round" width="6" height="24" fill="rgb(103,191,88)" stroke="rgb(82,152,70)" stroke-width="1" opacity="0.75" />
			</g>
			<g>
				<title>AMP-binding (PF00501)
"AMP-binding enzyme"</title>
				<rect class="PF00501" x="599" y="28" stroke-linejoin="round" width="40" height="24" fill="rgb(60,217,223)" stroke="rgb(48,173,178)" stroke-width="1" opacity="0.75" />
			</g>
		</g>
		<g>
			<title> (ctg2_21)</title>
			<polygon class=" (ctg2_21)" points="646,40 671,10 671,70" fill="rgb(255,255,255)" fill-opacity="1.0" stroke="rgb(0,0,0)" stroke-width="2"  />
		</g>
		<g>
			<title> (ctg2_22)</title>
			<polygon class=" (ctg2_22)" points="694,40 707,10 707,70" fill="rgb(255,255,255)" fill-opacity="1.0" stroke="rgb(0,0,0)" stroke-width="2"  />
			<g>
				<title>PhaG_MnhG_YufB (PF03334)
"Na+/H+ antiporter subunit"</title>
				<polygon class="PF03334" points="697,40 702,28 704,28 704,52 702,52" stroke-linejoin="round" width="8" height="24" fill="rgb(111,223,196)" stroke="rgb(88,178,156)" stroke-width="1" opacity="0.75" />
			</g>
		</g>
		<g>
			<title> (ctg2_23)</title>
			<polygon class=" (ctg2_23)" points="707,40 716,10 716,70" fill="rgb(255,255,255)" fill-opacity="1.0" stroke="rgb(0,0,0)" stroke-width="2"  />
			<g>
				<title>MrpF_PhaF (PF04066)
"Multiple resistance and pH regulation protein F (MrpF / PhaF)"</title>
				<polygon class="PF04066" points="710,40 712,33 712,47" stroke-linejoin="round" width="5" height="24" fill="rgb(98,190,89)" stroke="rgb(78,152,71)" stroke-width="1" opacity="0.75" />
			</g>
		</g>
		<g>
			<title> (ctg2_24)</title>
			<polygon class=" (ctg2_24)" points="715,40 734,10 734,70" fill="rgb(255,255,255)" fill-opacity="1.0" stroke="rgb(0,0,0)" stroke-width="2"  />
			<g>
				<title>MNHE (PF01899)
"Na+/H+ ion antiporter subunit"</title>
				<polygon class="PF01899" points="719,40 727,28 732,28 732,52 727,52" stroke-linejoin="round" width="15" height="24" fill="rgb(77,64,195)" stroke="rgb(61,51,156)" stroke-width="1" opacity="0.75" />
			</g>
		</g>
		<g>
			<title> (ctg2_25)</title>
			<polygon class=" (ctg2_25)" points="787,25 765,25 765,10 735,40 765,70 765,55 787,55" fill="rgb(255,255,255)" fill-opacity="1.0" stroke="rgb(0,0,0)" stroke-width="2"  />
			<g>
				<title>Proton_antipo_M (PF00361)
"Proton-conducting membrane transporter"</title>
				<polygon class="PF00361" points="745,34 751,28 773,28 773,52 751,52 745,46" stroke-linejoin="round" width="28" height="24" fill="rgb(54,193,132)" stroke="rgb(43,154,105)" stroke-width="1" opacity="0.75" />
			</g>
		</g>
		<g>
			<title> (ctg2_26)</title>
			<polygon class=" (ctg2_26)" points="787,40 806,10 806,70" fill="rgb(255,255,255)" fill-opacity="1.0" stroke="rgb(0,0,0)" stroke-width="2"  />
			<g>
				<title>Oxidored_q2 (PF00420)
"NADH-ubiquinone/plastoquinone oxidoreductase chain 4L"</title>
				<polygon class="PF00420" points="795,34 799,28 805,28 805,52 799,52 795,46" stroke-linejoin="round" width="10" height="24" fill="rgb(73,55,194)" stroke="rgb(58,44,155)" stroke-width="1" opacity="0.75" />
			</g>
		</g>
		<g>
			<title> (ctg2_27)</title>
			<polygon class=" (ctg2_27)" points="904,25 836,25 836,10 806,40 836,70 836,55 904,55" fill="rgb(255,255,255)" fill-opacity="1.0" stroke="rgb(0,0,0)" stroke-width="2"  />
			<g>
				<title>MnhB (PF04039)
"Domain related to MnhB subunit of Na+/H+ antiporter"</title>
				<polygon class="PF04039" points="810,40 820,30 820,50" stroke-linejoin="round" width="12" height="24" fill="rgb(153,222,110)" stroke="rgb(122,177,88)" stroke-width="1" opacity="0.75" />
			</g>
			<g>
				<title>MbhE (PF20501)
"MBH, subunit E"</title>
				<rect class="PF20501" x="825" y="28" stroke-linejoin="round" width="9" height="24" fill="rgb(127,69,192)" stroke="rgb(101,55,153)" stroke-width="1" opacity="0.75" />
			</g>
			<g>
				<title>MbhD (PF13244)
"MBH, subunit D"</title>
				<rect class="PF13244" x="835" y="28" stroke-linejoin="round" width="6" height="24" fill="rgb(225,104,219)" stroke="rgb(180,83,175)" stroke-width="1" opacity="0.75" />
			</g>
			<g>
				<title>Proton_antipo_M (PF00361)
"Proton-conducting membrane transporter"</title>
				<rect class="PF00361" x="862" y="28" stroke-linejoin="round" width="29" height="24" fill="rgb(54,193,132)" stroke="rgb(43,154,105)" stroke-width="1" opacity="0.75" />
			</g>
			<g>
				<title>Proton_antipo_N (PF00662)
"NADH-Ubiquinone oxidoreductase (complex I), chain 5 N-terminus"</title>
				<rect class="PF00662" x="892" y="28" stroke-linejoin="round" width="4" height="24" fill="rgb(120,87,218)" stroke="rgb(96,69,174)" stroke-width="1" opacity="0.75" />
			</g>
		</g>
		<g>
			<title> (ctg2_28)</title>
			<polygon class=" (ctg2_28)" points="944,25 938,25 938,10 908,40 938,70 938,55 944,55" fill="rgb(255,255,255)" fill-opacity="1.0" stroke="rgb(0,0,0)" stroke-width="2"  />
			<g>
				<title>Peripla_BP_3 (PF13377)
"Periplasmic binding protein-like domain"</title>
				<polygon class="PF13377" points="912,40 924,28 925,28 925,52 924,52" stroke-linejoin="round" width="17" height="24" fill="rgb(101,208,189)" stroke="rgb(80,166,151)" stroke-width="1" opacity="0.75" />
			</g>
			<g>
				<title>LacI (PF00356)
"Bacterial regulatory proteins, lacI family"</title>
				<rect class="PF00356" x="938" y="28" stroke-linejoin="round" width="4" height="24" fill="rgb(66,188,63)" stroke="rgb(52,150,50)" stroke-width="1" opacity="0.75" />
			</g>
		</g>
		<g>
			<title> (ctg2_29)</title>
			<polygon class=" (ctg2_29)" points="946,25 956,25 956,10 986,40 956,70 956,55 946,55" fill="rgb(255,255,255)" fill-opacity="1.0" stroke="rgb(0,0,0)" stroke-width="2"  />
			<g>
				<title>MFS_1 (PF07690)
"Major Facilitator Superfamily"</title>
				<rect class="PF07690" x="947" y="28" stroke-linejoin="round" width="23" height="24" fill="rgb(193,224,74)" stroke="rgb(154,179,59)" stroke-width="1" opacity="0.75" />
			</g>
			<g>
				<title>MFS_1 (PF07690)
"Major Facilitator Superfamily"</title>
				<polygon class="PF07690" points="969,28 970,28 982,40 970,52 969,52" stroke-linejoin="round" width="17" height="24" fill="rgb(193,224,74)" stroke="rgb(154,179,59)" stroke-width="1" opacity="0.75" />
			</g>
		</g>
		<g>
			<title> (ctg2_30)</title>
			<polygon class=" (ctg2_30)" points="992,10 1015,40 992,70" fill="rgb(255,255,255)" fill-opacity="1.0" stroke="rgb(0,0,0)" stroke-width="2"  />
			<g>
				<title>NucS (PF01939)
"Endonuclease NucS"</title>
				<polygon class="PF01939" points="992,28 1002,28 1011,40 1002,52 992,52" stroke-linejoin="round" width="23" height="24" fill="rgb(188,51,193)" stroke="rgb(150,40,154)" stroke-width="1" opacity="0.75" />
			</g>
		</g>
		<g>
			<title> (ctg2_31)</title>
			<polygon class=" (ctg2_31)" points="1017,10 1039,40 1017,70" fill="rgb(255,255,255)" fill-opacity="1.0" stroke="rgb(0,0,0)" stroke-width="2"  />
			<g>
				<title>HAD_2 (PF13419)
"Haloacid dehalogenase-like hydrolase"</title>
				<polygon class="PF13419" points="1017,28 1027,28 1035,39 1035,41 1027,52 1017,52" stroke-linejoin="round" width="18" height="24" fill="rgb(60,223,188)" stroke="rgb(48,178,150)" stroke-width="1" opacity="0.75" />
			</g>
		</g>
		<g>
			<title> (ctg2_32)</title>
			<polygon class=" (ctg2_32)" points="1048,40 1054,10 1054,70" fill="rgb(255,255,255)" fill-opacity="1.0" stroke="rgb(0,0,0)" stroke-width="2"  />
			<g>
				<title>CSD (PF00313)
"'Cold-shock' DNA-binding domain"</title>
				<polygon class="PF00313" points="1051,40 1054,28 1054,28 1054,52 1054,52" stroke-linejoin="round" width="6" height="24" fill="rgb(87,72,181)" stroke="rgb(69,57,144)" stroke-width="1" opacity="0.75" />
			</g>
		</g>
		<g>
			<title> (ctg2_33)</title>
			<polygon class=" (ctg2_33)" points="1073,40 1092,10 1092,70" fill="rgb(255,255,255)" fill-opacity="1.0" stroke="rgb(0,0,0)" stroke-width="2"  />
			<g>
				<title>Acetyltransf_3 (PF13302)
"Acetyltransferase (GNAT) domain"</title>
				<polygon class="PF13302" points="1077,40 1085,28 1090,28 1090,52 1085,52" stroke-linejoin="round" width="14" height="24" fill="rgb(105,146,215)" stroke="rgb(84,116,172)" stroke-width="1" opacity="0.75" />
			</g>
		</g>
		<g>
			<title> (ctg2_34)</title>
			<polygon class=" (ctg2_34)" points="1092,40 1113,10 1113,70" fill="rgb(255,255,255)" fill-opacity="1.0" stroke="rgb(0,0,0)" stroke-width="2"  />
			<g>
				<title>TetR_N (PF00440)
"Bacterial regulatory proteins, tetR family"</title>
				<rect class="PF00440" x="1105" y="28" stroke-linejoin="round" width="4" height="24" fill="rgb(73,212,190)" stroke="rgb(58,169,152)" stroke-width="1" opacity="0.75" />
			</g>
		</g>
	</g>
</svg>
