<svg version="1.1" baseProfile="full" xmlns="http://www.w3.org/2000/svg" width="414.53333333333336" height="80">
	<g>
		<line x1="10" y1="40.0" x2="404.53333333333336" y2="40.0" style="stroke:rgb(70,70,70); stroke-width:3 "/>
		<g>
			<title> (ctg1_404)</title>
			<polygon class=" (ctg1_404)" points="11,40 40,10 40,70" fill="rgb(255,255,255)" fill-opacity="1.0" stroke="rgb(0,0,0)" stroke-width="2"  />
			<g>
				<title>Rhodanese (PF00581)
"Rhodanese-like domain"</title>
				<polygon class="PF00581" points="15,40 24,31 24,49" stroke-linejoin="round" width="12" height="24" fill="rgb(145,191,76)" stroke="rgb(116,152,60)" stroke-width="1" opacity="0.75" />
			</g>
			<g>
				<title>Rhodanese (PF00581)
"Rhodanese-like domain"</title>
				<polygon class="PF00581" points="27,28 27,28 38,28 38,52 27,52 27,52" stroke-linejoin="round" width="11" height="24" fill="rgb(145,191,76)" stroke="rgb(116,152,60)" stroke-width="1" opacity="0.75" />
			</g>
		</g>
		<g>
			<title> (ctg1_405)</title>
			<polygon class=" (ctg1_405)" points="48,25 53,25 53,10 83,40 53,70 53,55 48,55" fill="rgb(255,255,255)" fill-opacity="1.0" stroke="rgb(0,0,0)" stroke-width="2"  />
			<g>
				<title>AFG1_ATPase (PF03969)
"AFG1-like ATPase"</title>
				<polygon class="PF03969" points="51,28 66,28 71,33 71,47 66,52 51,52" stroke-linejoin="round" width="20" height="24" fill="rgb(61,181,219)" stroke="rgb(48,144,175)" stroke-width="1" opacity="0.75" />
			</g>
			<g>
				<title>AFG1_ATPase (PF03969)
"AFG1-like ATPase"</title>
				<polygon class="PF03969" points="71,33 78,40 71,47" stroke-linejoin="round" width="10" height="24" fill="rgb(61,181,219)" stroke="rgb(48,144,175)" stroke-width="1" opacity="0.75" />
			</g>
		</g>
		<g>
			<title> (ctg1_406)</title>
			<polygon class=" (ctg1_406)" points="176,25 116,25 116,10 86,40 116,70 116,55 176,55" fill="rgb(255,255,255)" fill-opacity="1.0" stroke="rgb(0,0,0)" stroke-width="2"  />
			<g>
				<title>Acetyltransf_8 (PF13523)
"Acetyltransferase (GNAT) domain"</title>
				<polygon class="PF13523" points="90,40 101,29 101,51" stroke-linejoin="round" width="14" height="24" fill="rgb(106,224,203)" stroke="rgb(84,179,162)" stroke-width="1" opacity="0.75" />
			</g>
			<g>
				<title>Penicil_amidase (PF01804)
"Penicillin amidase"</title>
				<rect class="PF01804" x="105" y="28" stroke-linejoin="round" width="68" height="24" fill="rgb(62,133,186)" stroke="rgb(49,106,148)" stroke-width="1" opacity="0.75" />
			</g>
		</g>
		<g>
			<title> (ctg1_407)</title>
			<polygon class=" (ctg1_407)" points="237,25 206,25 206,10 176,40 206,70 206,55 237,55" fill="rgb(255,255,255)" fill-opacity="1.0" stroke="rgb(0,0,0)" stroke-width="2"  />
			<g>
				<title>FhuF (PF06276)
"Ferric iron reductase FhuF-like transporter"</title>
				<polygon class="PF06276" points="180,40 192,28 194,28 194,52 192,52" stroke-linejoin="round" width="15" height="24" fill="rgb(76,151,221)" stroke="rgb(60,120,176)" stroke-width="1" opacity="0.75" />
			</g>
			<g>
				<title>IucA_IucC (PF04183)
"IucA / IucC family"</title>
				<rect class="PF04183" x="197" y="28" stroke-linejoin="round" width="25" height="24" fill="rgb(221,104,121)" stroke="rgb(176,83,96)" stroke-width="1" opacity="0.75" />
			</g>
		</g>
		<g>
			<title> (ctg1_408)</title>
			<polygon class=" (ctg1_408)" points="237,40 258,10 258,70" fill="rgb(255,255,255)" fill-opacity="1.0" stroke="rgb(0,0,0)" stroke-width="2"  />
			<g>
				<title>Acetyltransf_8 (PF13523)
"Acetyltransferase (GNAT) domain"</title>
				<polygon class="PF13523" points="241,40 250,28 255,28 255,52 250,52 241,40" stroke-linejoin="round" width="14" height="24" fill="rgb(106,224,203)" stroke="rgb(84,179,162)" stroke-width="1" opacity="0.75" />
			</g>
		</g>
		<g>
			<title> (ctg1_409)</title>
			<polygon class=" (ctg1_409)" points="303,25 289,25 289,10 259,40 289,70 289,55 303,55" fill="rgb(255,255,255)" fill-opacity="1.0" stroke="rgb(0,0,0)" stroke-width="2"  />
			<g>
				<title>Lys_Orn_oxgnase (PF13434)
"L-lysine 6-monooxygenase/L-ornithine 5-monooxygenase"</title>
				<polygon class="PF13434" points="268,35 275,28 302,28 302,52 275,52 268,45" stroke-linejoin="round" width="34" height="24" fill="rgb(81,213,119)" stroke="rgb(64,170,95)" stroke-width="1" opacity="0.75" />
			</g>
		</g>
		<g>
			<title> (ctg1_410)</title>
			<polygon class=" (ctg1_410)" points="356,25 333,25 333,10 303,40 333,70 333,55 356,55" fill="rgb(255,255,255)" fill-opacity="1.0" stroke="rgb(0,0,0)" stroke-width="2"  />
			<g>
				<title>Pyridoxal_deC (PF00282)
"Pyridoxal-dependent decarboxylase conserved domain"</title>
				<polygon class="PF00282" points="315,32 319,28 351,28 351,52 319,52 315,48" stroke-linejoin="round" width="36" height="24" fill="rgb(100,218,166)" stroke="rgb(80,174,132)" stroke-width="1" opacity="0.75" />
			</g>
		</g>
		<g>
			<title> (ctg1_411)</title>
			<polygon class=" (ctg1_411)" points="364,10 391,40 364,70" fill="rgb(255,255,255)" fill-opacity="1.0" stroke="rgb(0,0,0)" stroke-width="2"  />
			<g>
				<title>FAD_binding_9 (PF08021)
"Siderophore-interacting FAD-binding domain"</title>
				<polygon class="PF08021" points="366,28 376,28 377,29 377,51 376,52 366,52" stroke-linejoin="round" width="11" height="24" fill="rgb(58,190,106)" stroke="rgb(46,152,84)" stroke-width="1" opacity="0.75" />
			</g>
			<g>
				<title>SIP (PF04954)
"Siderophore-interacting protein"</title>
				<polygon class="PF04954" points="379,31 387,40 379,49" stroke-linejoin="round" width="11" height="24" fill="rgb(75,222,95)" stroke="rgb(60,177,76)" stroke-width="1" opacity="0.75" />
			</g>
		</g>
	</g>
</svg>
