<svg version="1.1" baseProfile="full" xmlns="http://www.w3.org/2000/svg" width="859.9" height="80">
	<g>
		<line x1="10" y1="40.0" x2="849.9" y2="40.0" style="stroke:rgb(70,70,70); stroke-width:3 "/>
		<g>
			<title> (ctg1_38)</title>
			<polygon class=" (ctg1_38)" points="43,10 53,40 43,70" fill="rgb(255,255,255)" fill-opacity="1.0" stroke="rgb(0,0,0)" stroke-width="2"  />
			<g>
				<title>ParE_toxin (PF05016)
"ParE toxin of type II toxin-antitoxin system, parDE"</title>
				<polygon class="PF05016" points="45,28 46,28 50,40 46,52 45,52" stroke-linejoin="round" width="7" height="24" fill="rgb(110,226,73)" stroke="rgb(88,180,58)" stroke-width="1" opacity="0.75" />
			</g>
		</g>
		<g>
			<title> (ctg1_39)</title>
			<polygon class=" (ctg1_39)" points="159,25 126,25 126,10 96,40 126,70 126,55 159,55" fill="rgb(255,255,255)" fill-opacity="1.0" stroke="rgb(0,0,0)" stroke-width="2"  />
			<g>
				<title>ThiC_Rad_SAM (PF01964)
"Radical SAM ThiC family"</title>
				<polygon class="PF01964" points="102,38 112,28 146,28 146,52 112,52 102,42" stroke-linejoin="round" width="44" height="24" fill="rgb(195,97,107)" stroke="rgb(156,77,85)" stroke-width="1" opacity="0.75" />
			</g>
			<g>
				<title>ThiC-associated (PF13667)
"ThiC-associated domain"</title>
				<rect class="PF13667" x="151" y="28" stroke-linejoin="round" width="6" height="24" fill="rgb(188,145,47)" stroke="rgb(150,116,37)" stroke-width="1" opacity="0.75" />
			</g>
		</g>
		<g>
			<title> (ctg1_40)</title>
			<polygon class=" (ctg1_40)" points="200,25 198,25 198,10 168,40 198,70 198,55 200,55" fill="rgb(255,255,255)" fill-opacity="1.0" stroke="rgb(0,0,0)" stroke-width="2"  />
			<g>
				<title>Ferritin_2 (PF13668)
"Ferritin-like domain"</title>
				<polygon class="PF13668" points="177,35 184,28 194,28 194,52 184,52 177,45" stroke-linejoin="round" width="17" height="24" fill="rgb(181,64,63)" stroke="rgb(144,51,50)" stroke-width="1" opacity="0.75" />
			</g>
		</g>
		<g>
			<title> (ctg1_41)</title>
			<polygon class=" (ctg1_41)" points="236,25 232,25 232,10 202,40 232,70 232,55 236,55" fill="rgb(255,255,255)" fill-opacity="1.0" stroke="rgb(0,0,0)" stroke-width="2"  />
			<g>
				<title>Ferritin_2 (PF13668)
"Ferritin-like domain"</title>
				<polygon class="PF13668" points="212,34 218,28 230,28 230,52 218,52 212,46" stroke-linejoin="round" width="18" height="24" fill="rgb(181,64,63)" stroke="rgb(144,51,50)" stroke-width="1" opacity="0.75" />
			</g>
		</g>
		<g>
			<title> (ctg1_42)</title>
			<polygon class=" (ctg1_42)" points="271,25 271,25 271,10 241,40 271,70 271,55 271,55" fill="rgb(255,255,255)" fill-opacity="1.0" stroke="rgb(0,0,0)" stroke-width="2"  />
			<g>
				<title>MipA (PF06629)
"MltA-interacting protein MipA"</title>
				<polygon class="PF06629" points="245,40 257,28 265,28 265,52 257,52" stroke-linejoin="round" width="24" height="24" fill="rgb(179,100,47)" stroke="rgb(143,79,37)" stroke-width="1" opacity="0.75" />
			</g>
		</g>
		<g>
			<title> (ctg1_43)</title>
			<polygon class=" (ctg1_43)" points="272,40 285,10 285,70" fill="rgb(255,255,255)" fill-opacity="1.0" stroke="rgb(0,0,0)" stroke-width="2"  />
			<g>
				<title>DUF2141 (PF09912)
"Uncharacterized protein conserved in bacteria (DUF2141)"</title>
				<polygon class="PF09912" points="275,40 280,28 282,28 282,52 280,52" stroke-linejoin="round" width="10" height="24" fill="rgb(217,104,219)" stroke="rgb(173,83,175)" stroke-width="1" opacity="0.75" />
			</g>
		</g>
		<g>
			<title> (ctg1_44)</title>
			<polygon class=" (ctg1_44)" points="284,40 310,10 310,70" fill="rgb(255,255,255)" fill-opacity="1.0" stroke="rgb(0,0,0)" stroke-width="2"  />
			<g>
				<title>FA_hydroxylase (PF04116)
"Fatty acid hydroxylase"</title>
				<polygon class="PF04116" points="288,40 299,28 300,28 300,52 299,52" stroke-linejoin="round" width="13" height="24" fill="rgb(171,60,209)" stroke="rgb(136,48,167)" stroke-width="1" opacity="0.75" />
			</g>
		</g>
		<g>
			<title> (ctg1_45)</title>
			<polygon class=" (ctg1_45)" points="315,40 332,10 332,70" fill="rgb(255,255,255)" fill-opacity="1.0" stroke="rgb(0,0,0)" stroke-width="2"  />
			<g>
				<title>Acetyltransf_3 (PF13302)
"Acetyltransferase (GNAT) domain"</title>
				<polygon class="PF13302" points="318,40 325,28 330,28 330,52 325,52" stroke-linejoin="round" width="14" height="24" fill="rgb(105,146,215)" stroke="rgb(84,116,172)" stroke-width="1" opacity="0.75" />
			</g>
		</g>
		<g>
			<title> (ctg1_46)</title>
			<polygon class=" (ctg1_46)" points="343,25 351,25 351,10 381,40 351,70 351,55 343,55" fill="rgb(255,255,255)" fill-opacity="1.0" stroke="rgb(0,0,0)" stroke-width="2"  />
			<g>
				<title>Lycopene_cycl (PF05834)
"Lycopene cyclase protein"</title>
				<polygon class="PF05834" points="343,28 365,28 377,40 365,52 343,52" stroke-linejoin="round" width="37" height="24" fill="rgb(212,80,200)" stroke="rgb(169,64,160)" stroke-width="1" opacity="0.75" />
			</g>
		</g>
		<g>
			<title> (ctg1_47)</title>
			<polygon class=" (ctg1_47)" points="382,25 401,25 401,10 431,40 401,70 401,55 382,55" fill="rgb(255,255,255)" fill-opacity="1.0" stroke="rgb(0,0,0)" stroke-width="2"  />
			<g>
				<title>Amino_oxidase (PF01593)
"Flavin containing amine oxidoreductase"</title>
				<polygon class="PF01593" points="383,28 415,28 427,40 415,52 383,52" stroke-linejoin="round" width="47" height="24" fill="rgb(184,74,52)" stroke="rgb(147,59,41)" stroke-width="1" opacity="0.75" />
			</g>
		</g>
		<g>
			<title> (ctg1_48)</title>
			<polygon class=" (ctg1_48)" points="433,10 456,40 433,70" fill="rgb(255,255,255)" fill-opacity="1.0" stroke="rgb(0,0,0)" stroke-width="2"  />
			<g>
				<title>MgtC (PF02308)
"MgtC family"</title>
				<polygon class="PF02308" points="434,28 443,28 446,32 446,48 443,52 434,52" stroke-linejoin="round" width="12" height="24" fill="rgb(193,85,162)" stroke="rgb(154,68,129)" stroke-width="1" opacity="0.75" />
			</g>
		</g>
		<g>
			<title> (ctg1_49)</title>
			<polygon class=" (ctg1_49)" points="465,10 484,40 465,70" fill="rgb(255,255,255)" fill-opacity="1.0" stroke="rgb(0,0,0)" stroke-width="2"  />
			<g>
				<title>Lysine_decarbox (PF03641)
"Possible lysine decarboxylase"</title>
				<polygon class="PF03641" points="469,28 473,28 480,40 473,52 469,52" stroke-linejoin="round" width="13" height="24" fill="rgb(87,108,220)" stroke="rgb(69,86,176)" stroke-width="1" opacity="0.75" />
			</g>
		</g>
		<g>
			<title> (ctg1_50)</title>
			<polygon class=" (ctg1_50)" points="484,25 485,25 485,10 515,40 485,70 485,55 484,55" fill="rgb(255,255,255)" fill-opacity="1.0" stroke="rgb(0,0,0)" stroke-width="2"  />
			<g>
				<title>SQS_PSY (PF00494)
"Squalene/phytoene synthase"</title>
				<polygon class="PF00494" points="486,28 499,28 511,40 499,52 486,52" stroke-linejoin="round" width="26" height="24" fill="rgb(178,91,49)" stroke="rgb(142,72,39)" stroke-width="1" opacity="0.75" />
			</g>
		</g>
		<g>
			<title> (ctg1_51)</title>
			<polygon class=" (ctg1_51)" points="522,40 529,10 529,70" fill="rgb(255,255,255)" fill-opacity="1.0" stroke="rgb(0,0,0)" stroke-width="2"  />
		</g>
		<g>
			<title> (ctg1_52)</title>
			<polygon class=" (ctg1_52)" points="533,25 564,25 564,10 594,40 564,70 564,55 533,55" fill="rgb(255,255,255)" fill-opacity="1.0" stroke="rgb(0,0,0)" stroke-width="2"  />
			<g>
				<title>ABC_membrane (PF00664)
"ABC transporter transmembrane region"</title>
				<rect class="PF00664" x="536" y="28" stroke-linejoin="round" width="27" height="24" fill="rgb(149,226,73)" stroke="rgb(119,180,58)" stroke-width="1" opacity="0.75" />
			</g>
			<g>
				<title>ABC_tran (PF00005)
"ABC transporter"</title>
				<polygon class="PF00005" points="570,28 577,28 585,36 585,44 577,52 570,52" stroke-linejoin="round" width="15" height="24" fill="rgb(129,201,63)" stroke="rgb(103,160,50)" stroke-width="1" opacity="0.75" />
			</g>
		</g>
		<g>
			<title> (ctg1_53)</title>
			<polygon class=" (ctg1_53)" points="595,40 604,10 604,70" fill="rgb(255,255,255)" fill-opacity="1.0" stroke="rgb(0,0,0)" stroke-width="2"  />
			<g>
				<title>Acetyltransf_CG (PF14542)
"GCN5-related N-acetyl-transferase"</title>
				<polygon class="PF14542" points="598,40 602,28 602,28 602,52 602,52" stroke-linejoin="round" width="7" height="24" fill="rgb(80,197,99)" stroke="rgb(64,157,79)" stroke-width="1" opacity="0.75" />
			</g>
		</g>
		<g>
			<title> (ctg1_54)</title>
			<polygon class=" (ctg1_54)" points="640,25 639,25 639,10 609,40 639,70 639,55 640,55" fill="rgb(255,255,255)" fill-opacity="1.0" stroke="rgb(0,0,0)" stroke-width="2"  />
			<g>
				<title>Hydrolase_4 (PF12146)
"Serine aminopeptidase, S33"</title>
				<polygon class="PF12146" points="619,34 625,28 633,28 633,52 625,52 619,46" stroke-linejoin="round" width="14" height="24" fill="rgb(140,98,205)" stroke="rgb(112,78,164)" stroke-width="1" opacity="0.75" />
			</g>
		</g>
		<g>
			<title> (ctg1_55)</title>
			<polygon class=" (ctg1_55)" points="641,40 663,10 663,70" fill="rgb(255,255,255)" fill-opacity="1.0" stroke="rgb(0,0,0)" stroke-width="2"  />
			<g>
				<title>SdpI (PF13630)
"SdpI/YfhL protein family"</title>
				<polygon class="PF13630" points="645,40 649,35 649,45" stroke-linejoin="round" width="7" height="24" fill="rgb(74,217,194)" stroke="rgb(59,173,155)" stroke-width="1" opacity="0.75" />
			</g>
			<g>
				<title>DUF1648 (PF07853)
"Domain of unknown function (DUF1648)"</title>
				<rect class="PF07853" x="656" y="28" stroke-linejoin="round" width="5" height="24" fill="rgb(190,101,86)" stroke="rgb(152,80,68)" stroke-width="1" opacity="0.75" />
			</g>
		</g>
		<g>
			<title> (ctg1_56)</title>
			<polygon class=" (ctg1_56)" points="663,40 673,10 673,70" fill="rgb(255,255,255)" fill-opacity="1.0" stroke="rgb(0,0,0)" stroke-width="2"  />
			<g>
				<title>HTH_20 (PF12840)
"Helix-turn-helix domain"</title>
				<polygon class="PF12840" points="667,37 670,28 672,28 672,52 670,52 667,43" stroke-linejoin="round" width="5" height="24" fill="rgb(157,225,93)" stroke="rgb(125,180,74)" stroke-width="1" opacity="0.75" />
			</g>
		</g>
		<g>
			<title> (ctg1_57)</title>
			<polygon class=" (ctg1_57)" points="714,25 713,25 713,10 683,40 713,70 713,55 714,55" fill="rgb(255,255,255)" fill-opacity="1.0" stroke="rgb(0,0,0)" stroke-width="2"  />
			<g>
				<title>ETF_alpha (PF00766)
"Electron transfer flavoprotein FAD-binding domain"</title>
				<polygon class="PF00766" points="687,40 695,32 695,48 687,40" stroke-linejoin="round" width="8" height="24" fill="rgb(59,72,212)" stroke="rgb(47,57,169)" stroke-width="1" opacity="0.75" />
			</g>
			<g>
				<title>ETF (PF01012)
"Electron transfer flavoprotein domain"</title>
				<polygon class="PF01012" points="697,30 699,28 713,28 713,52 699,52 697,50" stroke-linejoin="round" width="16" height="24" fill="rgb(218,56,91)" stroke="rgb(174,44,72)" stroke-width="1" opacity="0.75" />
			</g>
		</g>
		<g>
			<title> (ctg1_58)</title>
			<polygon class=" (ctg1_58)" points="718,40 742,10 742,70" fill="rgb(255,255,255)" fill-opacity="1.0" stroke="rgb(0,0,0)" stroke-width="2"  />
			<g>
				<title>ETF (PF01012)
"Electron transfer flavoprotein domain"</title>
				<polygon class="PF01012" points="722,40 732,28 740,28 740,52 732,52 722,40" stroke-linejoin="round" width="18" height="24" fill="rgb(218,56,91)" stroke="rgb(174,44,72)" stroke-width="1" opacity="0.75" />
			</g>
		</g>
		<g>
			<title> (ctg1_59)</title>
			<polygon class=" (ctg1_59)" points="789,25 779,25 779,10 749,40 779,70 779,55 789,55" fill="rgb(255,255,255)" fill-opacity="1.0" stroke="rgb(0,0,0)" stroke-width="2"  />
			<g>
				<title>Ligase_CoA (PF00549)
"CoA-ligase"</title>
				<polygon class="PF00549" points="753,40 761,32 761,48" stroke-linejoin="round" width="12" height="24" fill="rgb(184,103,76)" stroke="rgb(147,82,60)" stroke-width="1" opacity="0.75" />
			</g>
			<g>
				<title>ATP-grasp_2 (PF08442)
"ATP-grasp domain"</title>
				<rect class="PF08442" x="767" y="28" stroke-linejoin="round" width="21" height="24" fill="rgb(76,220,127)" stroke="rgb(60,176,101)" stroke-width="1" opacity="0.75" />
			</g>
		</g>
		<g>
			<title> (ctg1_60)</title>
			<polygon class=" (ctg1_60)" points="794,10 811,40 794,70" fill="rgb(255,255,255)" fill-opacity="1.0" stroke="rgb(0,0,0)" stroke-width="2"  />
			<g>
				<title>FA_hydroxylase (PF04116)
"Fatty acid hydroxylase"</title>
				<polygon class="PF04116" points="795,28 800,28 807,40 800,52 795,52" stroke-linejoin="round" width="13" height="24" fill="rgb(171,60,209)" stroke="rgb(136,48,167)" stroke-width="1" opacity="0.75" />
			</g>
		</g>
		<g>
			<title> (ctg1_61)</title>
			<polygon class=" (ctg1_61)" points="812,10 823,40 812,70" fill="rgb(255,255,255)" fill-opacity="1.0" stroke="rgb(0,0,0)" stroke-width="2"  />
		</g>
	</g>
</svg>
