<svg version="1.1" baseProfile="full" xmlns="http://www.w3.org/2000/svg" width="2379.3" height="80">
	<g>
		<line x1="10" y1="40.0" x2="2369.3" y2="40.0" style="stroke:rgb(70,70,70); stroke-width:3 "/>
		<g>
			<title> (ctg20_19)</title>
			<polygon class=" (ctg20_19)" points="28,25 67,25 67,10 97,40 67,70 67,55 28,55" fill="rgb(255,255,255)" fill-opacity="1.0" stroke="rgb(0,0,0)" stroke-width="2"  />
			<g>
				<title>SpoIID (PF08486)
"Stage II sporulation protein"</title>
				<rect class="PF08486" x="59" y="28" stroke-linejoin="round" width="8" height="24" fill="rgb(76,188,148)" stroke="rgb(60,150,118)" stroke-width="1" opacity="0.75" />
			</g>
		</g>
		<g>
			<title> (ctg20_20)</title>
			<polygon class=" (ctg20_20)" points="99,25 103,25 103,10 133,40 103,70 103,55 99,55" fill="rgb(255,255,255)" fill-opacity="1.0" stroke="rgb(0,0,0)" stroke-width="2"  />
			<g>
				<title>Queuosine_synth (PF02547)
"Queuosine biosynthesis protein"</title>
				<polygon class="PF02547" points="99,28 117,28 129,40 117,52 99,52" stroke-linejoin="round" width="34" height="24" fill="rgb(54,211,197)" stroke="rgb(43,168,157)" stroke-width="1" opacity="0.75" />
			</g>
		</g>
		<g>
			<title> (ctg20_21)</title>
			<polygon class=" (ctg20_21)" points="136,25 143,25 143,10 173,40 143,70 143,55 136,55" fill="rgb(255,255,255)" fill-opacity="1.0" stroke="rgb(0,0,0)" stroke-width="2"  />
			<g>
				<title>TGT (PF01702)
"Queuine tRNA-ribosyltransferase"</title>
				<polygon class="PF01702" points="137,28 157,28 169,40 157,52 137,52" stroke-linejoin="round" width="35" height="24" fill="rgb(61,158,187)" stroke="rgb(48,126,149)" stroke-width="1" opacity="0.75" />
			</g>
		</g>
		<g>
			<title> (ctg20_22)</title>
			<polygon class=" (ctg20_22)" points="174,10 185,40 174,70" fill="rgb(255,255,255)" fill-opacity="1.0" stroke="rgb(0,0,0)" stroke-width="2"  />
			<g>
				<title>YajC (PF02699)
"Preprotein translocase subunit"</title>
				<polygon class="PF02699" points="175,28 177,28 182,40 182,40 177,52 175,52" stroke-linejoin="round" width="7" height="24" fill="rgb(83,176,198)" stroke="rgb(66,140,158)" stroke-width="1" opacity="0.75" />
			</g>
		</g>
		<g>
			<title> (ctg20_23)</title>
			<polygon class=" (ctg20_23)" points="188,40 216,10 216,70" fill="rgb(255,255,255)" fill-opacity="1.0" stroke="rgb(0,0,0)" stroke-width="2"  />
			<g>
				<title>PAP2_3 (PF14378)
"PAP2 superfamily"</title>
				<polygon class="PF14378" points="192,40 203,28 207,28 207,52 203,52" stroke-linejoin="round" width="17" height="24" fill="rgb(89,191,133)" stroke="rgb(71,152,106)" stroke-width="1" opacity="0.75" />
			</g>
		</g>
		<g>
			<title> (ctg20_24)</title>
			<polygon class=" (ctg20_24)" points="219,40 232,10 232,70" fill="rgb(255,255,255)" fill-opacity="1.0" stroke="rgb(0,0,0)" stroke-width="2"  />
			<g>
				<title>DUF3792 (PF12670)
"Protein of unknown function (DUF3792)"</title>
				<polygon class="PF12670" points="222,40 227,28 230,28 230,52 227,52" stroke-linejoin="round" width="11" height="24" fill="rgb(223,67,146)" stroke="rgb(178,53,116)" stroke-width="1" opacity="0.75" />
			</g>
		</g>
		<g>
			<title> (ctg20_25)</title>
			<polygon class=" (ctg20_25)" points="241,10 265,40 241,70" fill="rgb(255,255,255)" fill-opacity="1.0" stroke="rgb(0,0,0)" stroke-width="2"  />
			<g>
				<title>DUF421 (PF04239)
"Protein of unknown function (DUF421)"</title>
				<polygon class="PF04239" points="250,28 252,28 261,40 252,52 250,52" stroke-linejoin="round" width="14" height="24" fill="rgb(165,197,85)" stroke="rgb(132,157,68)" stroke-width="1" opacity="0.75" />
			</g>
		</g>
		<g>
			<title> (ctg20_26)</title>
			<polygon class=" (ctg20_26)" points="318,25 296,25 296,10 266,40 296,70 296,55 318,55" fill="rgb(255,255,255)" fill-opacity="1.0" stroke="rgb(0,0,0)" stroke-width="2"  />
			<g>
				<title>Polysacc_synt_C (PF14667)
"Polysaccharide biosynthesis C-terminal domain"</title>
				<polygon class="PF14667" points="270,40 281,29 281,51" stroke-linejoin="round" width="14" height="24" fill="rgb(222,92,150)" stroke="rgb(177,73,120)" stroke-width="1" opacity="0.75" />
			</g>
			<g>
				<title>Polysacc_synt (PF01943)
"Polysaccharide biosynthesis protein"</title>
				<rect class="PF01943" x="286" y="28" stroke-linejoin="round" width="31" height="24" fill="rgb(71,213,101)" stroke="rgb(56,170,80)" stroke-width="1" opacity="0.75" />
			</g>
		</g>
		<g>
			<title> (ctg20_27)</title>
			<polygon class=" (ctg20_27)" points="328,10 336,40 328,70" fill="rgb(255,255,255)" fill-opacity="1.0" stroke="rgb(0,0,0)" stroke-width="2"  />
			<g>
				<title>Post_transc_reg (PF13797)
"Post-transcriptional regulator"</title>
				<polygon class="PF13797" points="328,28 329,28 332,40 329,52 328,52" stroke-linejoin="round" width="7" height="24" fill="rgb(49,74,186)" stroke="rgb(39,59,148)" stroke-width="1" opacity="0.75" />
			</g>
		</g>
		<g>
			<title> (ctg20_28)</title>
			<polygon class=" (ctg20_28)" points="338,25 349,25 349,10 379,40 349,70 349,55 338,55" fill="rgb(255,255,255)" fill-opacity="1.0" stroke="rgb(0,0,0)" stroke-width="2"  />
			<g>
				<title>SecD_SecF (PF02355)
"Protein export membrane protein"</title>
				<polygon class="PF02355" points="359,28 362,28 374,40 362,52 359,52" stroke-linejoin="round" width="18" height="24" fill="rgb(183,133,79)" stroke="rgb(146,106,63)" stroke-width="1" opacity="0.75" />
			</g>
		</g>
		<g>
			<title> (ctg20_29)</title>
			<polygon class=" (ctg20_29)" points="379,25 380,25 380,10 410,40 380,70 380,55 379,55" fill="rgb(255,255,255)" fill-opacity="1.0" stroke="rgb(0,0,0)" stroke-width="2"  />
			<g>
				<title>Sec_GG (PF07549)
"SecD/SecF GG Motif"</title>
				<rect class="PF07549" x="382" y="28" stroke-linejoin="round" width="2" height="24" fill="rgb(195,145,79)" stroke="rgb(156,116,63)" stroke-width="1" opacity="0.75" />
			</g>
			<g>
				<title>SecD_SecF (PF02355)
"Protein export membrane protein"</title>
				<polygon class="PF02355" points="389,28 393,28 405,40 393,52 389,52" stroke-linejoin="round" width="19" height="24" fill="rgb(183,133,79)" stroke="rgb(146,106,63)" stroke-width="1" opacity="0.75" />
			</g>
		</g>
		<g>
			<title> (ctg20_30)</title>
			<polygon class=" (ctg20_30)" points="415,10 441,40 415,70" fill="rgb(255,255,255)" fill-opacity="1.0" stroke="rgb(0,0,0)" stroke-width="2"  />
			<g>
				<title>Cation_efflux (PF01545)
"Cation efflux family"</title>
				<polygon class="PF01545" points="418,28 427,28 429,31 429,49 427,52 418,52" stroke-linejoin="round" width="11" height="24" fill="rgb(151,84,211)" stroke="rgb(120,67,168)" stroke-width="1" opacity="0.75" />
			</g>
			<g>
				<title>ZT_dimer (PF16916)
"Dimerisation domain of Zinc Transporter"</title>
				<polygon class="PF16916" points="430,32 437,40 437,40 430,48" stroke-linejoin="round" width="7" height="24" fill="rgb(78,228,68)" stroke="rgb(62,182,54)" stroke-width="1" opacity="0.75" />
			</g>
		</g>
		<g>
			<title> (ctg20_31)</title>
			<polygon class=" (ctg20_31)" points="454,25 503,25 503,10 533,40 503,70 503,55 454,55" fill="rgb(255,255,255)" fill-opacity="1.0" stroke="rgb(0,0,0)" stroke-width="2"  />
			<g>
				<title>DHH (PF01368)
"DHH family"</title>
				<rect class="PF01368" x="462" y="28" stroke-linejoin="round" width="14" height="24" fill="rgb(171,76,182)" stroke="rgb(136,60,145)" stroke-width="1" opacity="0.75" />
			</g>
			<g>
				<title>DHHA1 (PF02272)
"DHHA1 domain"</title>
				<rect class="PF02272" x="485" y="28" stroke-linejoin="round" width="13" height="24" fill="rgb(110,220,187)" stroke="rgb(88,176,149)" stroke-width="1" opacity="0.75" />
			</g>
			<g>
				<title>RecJ_OB (PF17768)
"RecJ OB domain"</title>
				<rect class="PF17768" x="500" y="28" stroke-linejoin="round" width="10" height="24" fill="rgb(89,148,192)" stroke="rgb(71,118,153)" stroke-width="1" opacity="0.75" />
			</g>
			<g>
				<title>ssDNA-exonuc_C (PF10141)
"Single-strand DNA-specific exonuclease, C terminal domain"</title>
				<polygon class="PF10141" points="511,28 517,28 529,40 517,52 511,52" stroke-linejoin="round" width="21" height="24" fill="rgb(113,50,194)" stroke="rgb(90,40,155)" stroke-width="1" opacity="0.75" />
			</g>
		</g>
		<g>
			<title> (ctg20_32)</title>
			<polygon class=" (ctg20_32)" points="534,10 551,40 534,70" fill="rgb(255,255,255)" fill-opacity="1.0" stroke="rgb(0,0,0)" stroke-width="2"  />
			<g>
				<title>Pribosyltran (PF00156)
"Phosphoribosyl transferase domain"</title>
				<polygon class="PF00156" points="536,28 540,28 547,40 540,52 536,52" stroke-linejoin="round" width="13" height="24" fill="rgb(210,210,74)" stroke="rgb(168,168,59)" stroke-width="1" opacity="0.75" />
			</g>
		</g>
		<g>
			<title> (ctg20_33)</title>
			<polygon class=" (ctg20_33)" points="559,25 601,25 601,10 631,40 601,70 601,55 559,55" fill="rgb(255,255,255)" fill-opacity="1.0" stroke="rgb(0,0,0)" stroke-width="2"  />
			<g>
				<title>HD_4 (PF13328)
"HD domain"</title>
				<rect class="PF13328" x="561" y="28" stroke-linejoin="round" width="15" height="24" fill="rgb(215,104,79)" stroke="rgb(172,83,63)" stroke-width="1" opacity="0.75" />
			</g>
			<g>
				<title>RelA_SpoT (PF04607)
"Region found in RelA / SpoT proteins"</title>
				<rect class="PF04607" x="582" y="28" stroke-linejoin="round" width="11" height="24" fill="rgb(227,74,90)" stroke="rgb(181,59,71)" stroke-width="1" opacity="0.75" />
			</g>
			<g>
				<title>TGS (PF02824)
"TGS domain"</title>
				<rect class="PF02824" x="597" y="28" stroke-linejoin="round" width="5" height="24" fill="rgb(201,81,163)" stroke="rgb(160,64,130)" stroke-width="1" opacity="0.75" />
			</g>
			<g>
				<title>RelA_AH_RIS (PF19296)
"RelA/SpoT, AH and RIS domains"</title>
				<polygon class="PF19296" points="605,28 615,28 622,35 622,45 615,52 605,52" stroke-linejoin="round" width="17" height="24" fill="rgb(186,55,136)" stroke="rgb(148,44,108)" stroke-width="1" opacity="0.75" />
			</g>
			<g>
				<title>ACT_4 (PF13291)
"ACT domain"</title>
				<polygon class="PF13291" points="623,36 627,40 623,44" stroke-linejoin="round" width="7" height="24" fill="rgb(190,120,83)" stroke="rgb(152,96,66)" stroke-width="1" opacity="0.75" />
			</g>
		</g>
		<g>
			<title> (ctg20_34)</title>
			<polygon class=" (ctg20_34)" points="634,10 649,40 634,70" fill="rgb(255,255,255)" fill-opacity="1.0" stroke="rgb(0,0,0)" stroke-width="2"  />
			<g>
				<title>Tyr_Deacylase (PF02580)
"D-Tyr-tRNA(Tyr) deacylase"</title>
				<polygon class="PF02580" points="634,28 639,28 645,40 639,52 634,52" stroke-linejoin="round" width="14" height="24" fill="rgb(187,129,75)" stroke="rgb(149,103,60)" stroke-width="1" opacity="0.75" />
			</g>
		</g>
		<g>
			<title> (ctg20_35)</title>
			<polygon class=" (ctg20_35)" points="653,10 658,40 653,70" fill="rgb(255,255,255)" fill-opacity="1.0" stroke="rgb(0,0,0)" stroke-width="2"  />
		</g>
		<g>
			<title> (ctg20_36)</title>
			<polygon class=" (ctg20_36)" points="676,25 777,25 777,10 807,40 777,70 777,55 676,55" fill="rgb(255,255,255)" fill-opacity="1.0" stroke="rgb(0,0,0)" stroke-width="2"  />
			<g>
				<title>AMP-binding (PF00501)
"AMP-binding enzyme"</title>
				<rect class="PF00501" x="703" y="28" stroke-linejoin="round" width="39" height="24" fill="rgb(60,217,223)" stroke="rgb(48,173,178)" stroke-width="1" opacity="0.75" />
			</g>
			<g>
				<title>AMP-binding_C (PF13193)
"AMP-binding enzyme C-terminal domain"</title>
				<rect class="PF13193" x="743" y="28" stroke-linejoin="round" width="7" height="24" fill="rgb(182,50,118)" stroke="rgb(145,39,94)" stroke-width="1" opacity="0.75" />
			</g>
			<g>
				<title>PP-binding (PF00550)
"Phosphopantetheine attachment site"</title>
				<rect class="PF00550" x="754" y="28" stroke-linejoin="round" width="6" height="24" fill="rgb(103,191,88)" stroke="rgb(82,152,70)" stroke-width="1" opacity="0.75" />
			</g>
			<g>
				<title>Condensation (PF00668)
"Condensation domain"</title>
				<polygon class="PF00668" points="762,28 790,28 802,40 790,52 762,52" stroke-linejoin="round" width="43" height="24" fill="rgb(224,184,98)" stroke="rgb(179,147,78)" stroke-width="1" opacity="0.75" />
			</g>
		</g>
		<g>
			<title> (ctg20_37)</title>
			<polygon class=" (ctg20_37)" points="809,25 815,25 815,10 845,40 815,70 815,55 809,55" fill="rgb(255,255,255)" fill-opacity="1.0" stroke="rgb(0,0,0)" stroke-width="2"  />
		</g>
		<g>
			<title> (ctg20_38)</title>
			<polygon class=" (ctg20_38)" points="845,25 927,25 927,10 957,40 927,70 927,55 845,55" fill="rgb(255,255,255)" fill-opacity="1.0" stroke="rgb(0,0,0)" stroke-width="2"  />
			<g>
				<title>Condensation (PF00668)
"Condensation domain"</title>
				<rect class="PF00668" x="845" y="28" stroke-linejoin="round" width="25" height="24" fill="rgb(224,184,98)" stroke="rgb(179,147,78)" stroke-width="1" opacity="0.75" />
			</g>
			<g>
				<title>AMP-binding (PF00501)
"AMP-binding enzyme"</title>
				<rect class="PF00501" x="872" y="28" stroke-linejoin="round" width="15" height="24" fill="rgb(60,217,223)" stroke="rgb(48,173,178)" stroke-width="1" opacity="0.75" />
			</g>
			<g>
				<title>Methyltransf_11 (PF08241)
"Methyltransferase domain"</title>
				<rect class="PF08241" x="892" y="28" stroke-linejoin="round" width="10" height="24" fill="rgb(106,219,159)" stroke="rgb(84,175,127)" stroke-width="1" opacity="0.75" />
			</g>
			<g>
				<title>AMP-binding (PF00501)
"AMP-binding enzyme"</title>
				<rect class="PF00501" x="908" y="28" stroke-linejoin="round" width="31" height="24" fill="rgb(60,217,223)" stroke="rgb(48,173,178)" stroke-width="1" opacity="0.75" />
			</g>
			<g>
				<title>AMP-binding_C (PF13193)
"AMP-binding enzyme C-terminal domain"</title>
				<polygon class="PF13193" points="940,28 940,28 947,35 947,45 940,52 940,52" stroke-linejoin="round" width="7" height="24" fill="rgb(182,50,118)" stroke="rgb(145,39,94)" stroke-width="1" opacity="0.75" />
			</g>
			<g>
				<title>PP-binding (PF00550)
"Phosphopantetheine attachment site"</title>
				<polygon class="PF00550" points="950,38 952,40 950,42" stroke-linejoin="round" width="6" height="24" fill="rgb(103,191,88)" stroke="rgb(82,152,70)" stroke-width="1" opacity="0.75" />
			</g>
		</g>
		<g>
			<title> (ctg20_39)</title>
			<polygon class=" (ctg20_39)" points="958,10 982,40 958,70" fill="rgb(255,255,255)" fill-opacity="1.0" stroke="rgb(0,0,0)" stroke-width="2"  />
			<g>
				<title>Thioesterase (PF00975)
"Thioesterase domain"</title>
				<polygon class="PF00975" points="958,28 969,28 978,40 969,52 958,52" stroke-linejoin="round" width="22" height="24" fill="rgb(207,80,138)" stroke="rgb(165,63,110)" stroke-width="1" opacity="0.75" />
			</g>
		</g>
		<g>
			<title> (ctg20_40)</title>
			<polygon class=" (ctg20_40)" points="982,25 1259,25 1259,10 1289,40 1259,70 1259,55 982,55" fill="rgb(255,255,255)" fill-opacity="1.0" stroke="rgb(0,0,0)" stroke-width="2"  />
			<g>
				<title>AMP-binding (PF00501)
"AMP-binding enzyme"</title>
				<rect class="PF00501" x="983" y="28" stroke-linejoin="round" width="45" height="24" fill="rgb(60,217,223)" stroke="rgb(48,173,178)" stroke-width="1" opacity="0.75" />
			</g>
			<g>
				<title>PP-binding (PF00550)
"Phosphopantetheine attachment site"</title>
				<rect class="PF00550" x="1042" y="28" stroke-linejoin="round" width="6" height="24" fill="rgb(103,191,88)" stroke="rgb(82,152,70)" stroke-width="1" opacity="0.75" />
			</g>
			<g>
				<title>Condensation (PF00668)
"Condensation domain"</title>
				<rect class="PF00668" x="1052" y="28" stroke-linejoin="round" width="44" height="24" fill="rgb(224,184,98)" stroke="rgb(179,147,78)" stroke-width="1" opacity="0.75" />
			</g>
			<g>
				<title>AMP-binding (PF00501)
"AMP-binding enzyme"</title>
				<rect class="PF00501" x="1098" y="28" stroke-linejoin="round" width="42" height="24" fill="rgb(60,217,223)" stroke="rgb(48,173,178)" stroke-width="1" opacity="0.75" />
			</g>
			<g>
				<title>AMP-binding_C (PF13193)
"AMP-binding enzyme C-terminal domain"</title>
				<rect class="PF13193" x="1142" y="28" stroke-linejoin="round" width="7" height="24" fill="rgb(182,50,118)" stroke="rgb(145,39,94)" stroke-width="1" opacity="0.75" />
			</g>
			<g>
				<title>PP-binding (PF00550)
"Phosphopantetheine attachment site"</title>
				<rect class="PF00550" x="1152" y="28" stroke-linejoin="round" width="6" height="24" fill="rgb(103,191,88)" stroke="rgb(82,152,70)" stroke-width="1" opacity="0.75" />
			</g>
			<g>
				<title>Condensation (PF00668)
"Condensation domain"</title>
				<rect class="PF00668" x="1161" y="28" stroke-linejoin="round" width="43" height="24" fill="rgb(224,184,98)" stroke="rgb(179,147,78)" stroke-width="1" opacity="0.75" />
			</g>
			<g>
				<title>AMP-binding (PF00501)
"AMP-binding enzyme"</title>
				<rect class="PF00501" x="1207" y="28" stroke-linejoin="round" width="42" height="24" fill="rgb(60,217,223)" stroke="rgb(48,173,178)" stroke-width="1" opacity="0.75" />
			</g>
			<g>
				<title>AMP-binding_C (PF13193)
"AMP-binding enzyme C-terminal domain"</title>
				<rect class="PF13193" x="1250" y="28" stroke-linejoin="round" width="7" height="24" fill="rgb(182,50,118)" stroke="rgb(145,39,94)" stroke-width="1" opacity="0.75" />
			</g>
			<g>
				<title>PP-binding (PF00550)
"Phosphopantetheine attachment site"</title>
				<rect class="PF00550" x="1261" y="28" stroke-linejoin="round" width="6" height="24" fill="rgb(103,191,88)" stroke="rgb(82,152,70)" stroke-width="1" opacity="0.75" />
			</g>
		</g>
		<g>
			<title> (ctg20_41)</title>
			<polygon class=" (ctg20_41)" points="1291,25 1315,25 1315,10 1345,40 1315,70 1315,55 1291,55" fill="rgb(255,255,255)" fill-opacity="1.0" stroke="rgb(0,0,0)" stroke-width="2"  />
			<g>
				<title>Rce1-like (PF02517)
"Type II CAAX prenyl endopeptidase Rce1-like"</title>
				<rect class="PF02517" x="1304" y="28" stroke-linejoin="round" width="9" height="24" fill="rgb(150,86,216)" stroke="rgb(120,68,172)" stroke-width="1" opacity="0.75" />
			</g>
			<g>
				<title>Rce1-like (PF02517)
"Type II CAAX prenyl endopeptidase Rce1-like"</title>
				<polygon class="PF02517" points="1330,30 1338,38 1338,42 1330,50" stroke-linejoin="round" width="8" height="24" fill="rgb(150,86,216)" stroke="rgb(120,68,172)" stroke-width="1" opacity="0.75" />
			</g>
		</g>
		<g>
			<title> (ctg20_42)</title>
			<polygon class=" (ctg20_42)" points="1347,25 1672,25 1672,10 1702,40 1672,70 1672,55 1347,55" fill="rgb(255,255,255)" fill-opacity="1.0" stroke="rgb(0,0,0)" stroke-width="2"  />
			<g>
				<title>ketoacyl-synt (PF00109)
"Beta-ketoacyl synthase, N-terminal domain"</title>
				<rect class="PF00109" x="1350" y="28" stroke-linejoin="round" width="25" height="24" fill="rgb(112,116,228)" stroke="rgb(89,92,182)" stroke-width="1" opacity="0.75" />
			</g>
			<g>
				<title>Ketoacyl-synt_C (PF02801)
"Beta-ketoacyl synthase, C-terminal domain"</title>
				<rect class="PF02801" x="1376" y="28" stroke-linejoin="round" width="11" height="24" fill="rgb(215,78,102)" stroke="rgb(172,62,81)" stroke-width="1" opacity="0.75" />
			</g>
			<g>
				<title>KAsynt_C_assoc (PF16197)
"Ketoacyl-synthetase C-terminal extension"</title>
				<rect class="PF16197" x="1388" y="28" stroke-linejoin="round" width="11" height="24" fill="rgb(240,150,172)" stroke="rgb(192,120,137)" stroke-width="1" opacity="0.75" />
			</g>
			<g>
				<title>PP-binding (PF00550)
"Phosphopantetheine attachment site"</title>
				<rect class="PF00550" x="1416" y="28" stroke-linejoin="round" width="6" height="24" fill="rgb(103,191,88)" stroke="rgb(82,152,70)" stroke-width="1" opacity="0.75" />
			</g>
			<g>
				<title>Condensation (PF00668)
"Condensation domain"</title>
				<rect class="PF00668" x="1425" y="28" stroke-linejoin="round" width="43" height="24" fill="rgb(224,184,98)" stroke="rgb(179,147,78)" stroke-width="1" opacity="0.75" />
			</g>
			<g>
				<title>PP-binding (PF00550)
"Phosphopantetheine attachment site"</title>
				<rect class="PF00550" x="1537" y="28" stroke-linejoin="round" width="6" height="24" fill="rgb(103,191,88)" stroke="rgb(82,152,70)" stroke-width="1" opacity="0.75" />
			</g>
			<g>
				<title>Condensation (PF00668)
"Condensation domain"</title>
				<rect class="PF00668" x="1546" y="28" stroke-linejoin="round" width="44" height="24" fill="rgb(224,184,98)" stroke="rgb(179,147,78)" stroke-width="1" opacity="0.75" />
			</g>
			<g>
				<title>AMP-binding (PF00501)
"AMP-binding enzyme"</title>
				<rect class="PF00501" x="1592" y="28" stroke-linejoin="round" width="41" height="24" fill="rgb(60,217,223)" stroke="rgb(48,173,178)" stroke-width="1" opacity="0.75" />
			</g>
			<g>
				<title>AMP-binding_C (PF13193)
"AMP-binding enzyme C-terminal domain"</title>
				<rect class="PF13193" x="1635" y="28" stroke-linejoin="round" width="7" height="24" fill="rgb(182,50,118)" stroke="rgb(145,39,94)" stroke-width="1" opacity="0.75" />
			</g>
			<g>
				<title>PP-binding (PF00550)
"Phosphopantetheine attachment site"</title>
				<rect class="PF00550" x="1645" y="28" stroke-linejoin="round" width="6" height="24" fill="rgb(103,191,88)" stroke="rgb(82,152,70)" stroke-width="1" opacity="0.75" />
			</g>
			<g>
				<title>Condensation (PF00668)
"Condensation domain"</title>
				<polygon class="PF00668" points="1654,28 1685,28 1697,40 1685,52 1654,52" stroke-linejoin="round" width="44" height="24" fill="rgb(224,184,98)" stroke="rgb(179,147,78)" stroke-width="1" opacity="0.75" />
			</g>
		</g>
		<g>
			<title> (ctg20_43)</title>
			<polygon class=" (ctg20_43)" points="1726,25 1737,25 1737,10 1767,40 1737,70 1737,55 1726,55" fill="rgb(255,255,255)" fill-opacity="1.0" stroke="rgb(0,0,0)" stroke-width="2"  />
			<g>
				<title>tRNA-synt_His (PF13393)
"Histidyl-tRNA synthetase"</title>
				<polygon class="PF13393" points="1726,28 1751,28 1756,33 1756,47 1751,52 1726,52" stroke-linejoin="round" width="30" height="24" fill="rgb(106,63,202)" stroke="rgb(84,50,161)" stroke-width="1" opacity="0.75" />
			</g>
			<g>
				<title>HGTP_anticodon (PF03129)
"Anticodon binding domain"</title>
				<polygon class="PF03129" points="1758,35 1763,40 1758,45" stroke-linejoin="round" width="9" height="24" fill="rgb(115,202,95)" stroke="rgb(92,161,76)" stroke-width="1" opacity="0.75" />
			</g>
		</g>
		<g>
			<title> (ctg20_44)</title>
			<polygon class=" (ctg20_44)" points="1770,25 1800,25 1800,10 1830,40 1800,70 1800,55 1770,55" fill="rgb(255,255,255)" fill-opacity="1.0" stroke="rgb(0,0,0)" stroke-width="2"  />
			<g>
				<title>tRNA_anti-codon (PF01336)
"OB-fold nucleic acid binding domain"</title>
				<rect class="PF01336" x="1771" y="28" stroke-linejoin="round" width="8" height="24" fill="rgb(215,103,173)" stroke="rgb(172,82,138)" stroke-width="1" opacity="0.75" />
			</g>
			<g>
				<title>tRNA-synt_2 (PF00152)
"tRNA synthetases class II (D, K and N)"</title>
				<polygon class="PF00152" points="1782,28 1813,28 1825,40 1825,40 1813,52 1782,52" stroke-linejoin="round" width="43" height="24" fill="rgb(90,71,190)" stroke="rgb(72,56,152)" stroke-width="1" opacity="0.75" />
			</g>
		</g>
		<g>
			<title> (ctg20_45)</title>
			<polygon class=" (ctg20_45)" points="1835,10 1859,40 1835,70" fill="rgb(255,255,255)" fill-opacity="1.0" stroke="rgb(0,0,0)" stroke-width="2"  />
			<g>
				<title>ThiF (PF00899)
"ThiF family"</title>
				<polygon class="PF00899" points="1835,28 1846,28 1856,40 1846,52 1835,52" stroke-linejoin="round" width="23" height="24" fill="rgb(82,50,180)" stroke="rgb(65,39,144)" stroke-width="1" opacity="0.75" />
			</g>
		</g>
		<g>
			<title> (ctg20_46)</title>
			<polygon class=" (ctg20_46)" points="1865,25 1878,25 1878,10 1908,40 1878,70 1878,55 1865,55" fill="rgb(255,255,255)" fill-opacity="1.0" stroke="rgb(0,0,0)" stroke-width="2"  />
			<g>
				<title>AAA (PF00004)
"ATPase family associated with various cellular activities (AAA)"</title>
				<rect class="PF00004" x="1870" y="28" stroke-linejoin="round" width="11" height="24" fill="rgb(57,194,204)" stroke="rgb(45,155,163)" stroke-width="1" opacity="0.75" />
			</g>
			<g>
				<title>AAA_assoc_2 (PF16193)
"AAA C-terminal domain"</title>
				<rect class="PF16193" x="1883" y="28" stroke-linejoin="round" width="7" height="24" fill="rgb(186,178,53)" stroke="rgb(148,142,42)" stroke-width="1" opacity="0.75" />
			</g>
			<g>
				<title>MgsA_C (PF12002)
"MgsA AAA+ ATPase C terminal"</title>
				<polygon class="PF12002" points="1891,28 1892,28 1904,40 1892,52 1891,52" stroke-linejoin="round" width="16" height="24" fill="rgb(224,154,71)" stroke="rgb(179,123,56)" stroke-width="1" opacity="0.75" />
			</g>
		</g>
		<g>
			<title> (ctg20_47)</title>
			<polygon class=" (ctg20_47)" points="1954,25 1941,25 1941,10 1911,40 1941,70 1941,55 1954,55" fill="rgb(255,255,255)" fill-opacity="1.0" stroke="rgb(0,0,0)" stroke-width="2"  />
			<g>
				<title>HATPase_c_5 (PF14501)
"GHKL domain"</title>
				<polygon class="PF14501" points="1915,40 1921,34 1921,46" stroke-linejoin="round" width="10" height="24" fill="rgb(137,71,210)" stroke="rgb(109,56,168)" stroke-width="1" opacity="0.75" />
			</g>
			<g>
				<title>SPOB_a (PF14689)
"Sensor_kinase_SpoOB-type, alpha-helical domain"</title>
				<polygon class="PF14689" points="1925,30 1927,28 1931,28 1931,52 1927,52 1925,50" stroke-linejoin="round" width="6" height="24" fill="rgb(215,217,87)" stroke="rgb(172,173,69)" stroke-width="1" opacity="0.75" />
			</g>
		</g>
		<g>
			<title> (ctg20_48)</title>
			<polygon class=" (ctg20_48)" points="1968,25 1983,25 1983,10 2013,40 1983,70 1983,55 1968,55" fill="rgb(255,255,255)" fill-opacity="1.0" stroke="rgb(0,0,0)" stroke-width="2"  />
			<g>
				<title>Nramp (PF01566)
"Natural resistance-associated macrophage protein"</title>
				<polygon class="PF01566" points="1974,28 1996,28 2008,40 1996,52 1974,52" stroke-linejoin="round" width="35" height="24" fill="rgb(155,80,205)" stroke="rgb(123,64,164)" stroke-width="1" opacity="0.75" />
			</g>
		</g>
		<g>
			<title> (ctg20_49)</title>
			<polygon class=" (ctg20_49)" points="2035,25 2039,25 2039,10 2069,40 2039,70 2039,55 2035,55" fill="rgb(255,255,255)" fill-opacity="1.0" stroke="rgb(0,0,0)" stroke-width="2"  />
			<g>
				<title>CNNM (PF01595)
"Cyclin M transmembrane N-terminal domain"</title>
				<rect class="PF01595" x="2035" y="28" stroke-linejoin="round" width="10" height="24" fill="rgb(76,67,187)" stroke="rgb(60,53,149)" stroke-width="1" opacity="0.75" />
			</g>
			<g>
				<title>CBS (PF00571)
"CBS domain"</title>
				<rect class="PF00571" x="2047" y="28" stroke-linejoin="round" width="5" height="24" fill="rgb(220,56,105)" stroke="rgb(176,44,84)" stroke-width="1" opacity="0.75" />
			</g>
			<g>
				<title>CBS (PF00571)
"CBS domain"</title>
				<polygon class="PF00571" points="2053,28 2053,28 2058,33 2058,47 2053,52 2053,52" stroke-linejoin="round" width="5" height="24" fill="rgb(220,56,105)" stroke="rgb(176,44,84)" stroke-width="1" opacity="0.75" />
			</g>
			<g>
				<title>CorC_HlyC (PF03471)
"Transporter associated domain"</title>
				<polygon class="PF03471" points="2060,35 2065,40 2060,45" stroke-linejoin="round" width="7" height="24" fill="rgb(60,114,228)" stroke="rgb(47,91,182)" stroke-width="1" opacity="0.75" />
			</g>
		</g>
		<g>
			<title> (ctg20_50)</title>
			<polygon class=" (ctg20_50)" points="2119,25 2112,25 2112,10 2082,40 2112,70 2112,55 2119,55" fill="rgb(255,255,255)" fill-opacity="1.0" stroke="rgb(0,0,0)" stroke-width="2"  />
			<g>
				<title>tRNA_Me_trans_C (PF20258)
"Aminomethyltransferase beta-barrel domain"</title>
				<polygon class="PF20258" points="2086,40 2090,36 2090,44" stroke-linejoin="round" width="7" height="24" fill="rgb(206,63,177)" stroke="rgb(164,50,141)" stroke-width="1" opacity="0.75" />
			</g>
			<g>
				<title>tRNA_Me_trans_M (PF20259)
"tRNA methyl transferase PRC-barrel domain"</title>
				<polygon class="PF20259" points="2092,34 2098,28 2098,28 2098,52 2098,52 2092,46" stroke-linejoin="round" width="6" height="24" fill="rgb(75,219,221)" stroke="rgb(60,175,176)" stroke-width="1" opacity="0.75" />
			</g>
			<g>
				<title>tRNA_Me_trans (PF03054)
"tRNA methyl transferase HUP domain"</title>
				<rect class="PF03054" x="2099" y="28" stroke-linejoin="round" width="19" height="24" fill="rgb(197,86,150)" stroke="rgb(157,68,120)" stroke-width="1" opacity="0.75" />
			</g>
		</g>
		<g>
			<title> (ctg20_51)</title>
			<polygon class=" (ctg20_51)" points="2129,10 2143,40 2129,70" fill="rgb(255,255,255)" fill-opacity="1.0" stroke="rgb(0,0,0)" stroke-width="2"  />
			<g>
				<title>Rrf2 (PF02082)
"Iron-dependent Transcriptional regulator"</title>
				<polygon class="PF02082" points="2129,28 2133,28 2139,40 2133,52 2129,52" stroke-linejoin="round" width="12" height="24" fill="rgb(73,178,133)" stroke="rgb(58,142,106)" stroke-width="1" opacity="0.75" />
			</g>
		</g>
		<g>
			<title> (ctg20_52)</title>
			<polygon class=" (ctg20_52)" points="2145,25 2153,25 2153,10 2183,40 2153,70 2153,55 2145,55" fill="rgb(255,255,255)" fill-opacity="1.0" stroke="rgb(0,0,0)" stroke-width="2"  />
			<g>
				<title>Aminotran_5 (PF00266)
"Aminotransferase class-V"</title>
				<polygon class="PF00266" points="2145,28 2166,28 2178,40 2166,52 2145,52" stroke-linejoin="round" width="36" height="24" fill="rgb(214,54,122)" stroke="rgb(171,43,97)" stroke-width="1" opacity="0.75" />
			</g>
		</g>
		<g>
			<title> (ctg20_53)</title>
			<polygon class=" (ctg20_53)" points="2183,10 2203,40 2183,70" fill="rgb(255,255,255)" fill-opacity="1.0" stroke="rgb(0,0,0)" stroke-width="2"  />
			<g>
				<title>PRC (PF05239)
"PRC-barrel domain"</title>
				<rect class="PF05239" x="2184" y="28" stroke-linejoin="round" width="7" height="24" fill="rgb(89,112,204)" stroke="rgb(71,89,163)" stroke-width="1" opacity="0.75" />
			</g>
		</g>
		<g>
			<title> (ctg20_54)</title>
			<polygon class=" (ctg20_54)" points="2203,10 2210,40 2203,70" fill="rgb(255,255,255)" fill-opacity="1.0" stroke="rgb(0,0,0)" stroke-width="2"  />
		</g>
		<g>
			<title> (ctg20_55)</title>
			<polygon class=" (ctg20_55)" points="2219,25 2224,25 2224,10 2254,40 2224,70 2224,55 2219,55" fill="rgb(255,255,255)" fill-opacity="1.0" stroke="rgb(0,0,0)" stroke-width="2"  />
			<g>
				<title>AI-2E_transport (PF01594)
"AI-2E family transporter"</title>
				<polygon class="PF01594" points="2220,28 2238,28 2250,40 2238,52 2220,52" stroke-linejoin="round" width="33" height="24" fill="rgb(226,96,145)" stroke="rgb(180,76,116)" stroke-width="1" opacity="0.75" />
			</g>
		</g>
		<g>
			<title> (ctg20_56)</title>
			<polygon class=" (ctg20_56)" points="2267,25 2324,25 2324,10 2354,40 2324,70 2324,55 2267,55" fill="rgb(255,255,255)" fill-opacity="1.0" stroke="rgb(0,0,0)" stroke-width="2"  />
			<g>
				<title>tRNA-synt_2c (PF01411)
"tRNA synthetases class II (A)"</title>
				<rect class="PF01411" x="2267" y="28" stroke-linejoin="round" width="54" height="24" fill="rgb(159,80,191)" stroke="rgb(127,64,152)" stroke-width="1" opacity="0.75" />
			</g>
			<g>
				<title>tRNA_SAD (PF07973)
"Threonyl and Alanyl tRNA synthetase second additional domain"</title>
				<rect class="PF07973" x="2332" y="28" stroke-linejoin="round" width="4" height="24" fill="rgb(220,97,228)" stroke="rgb(176,77,182)" stroke-width="1" opacity="0.75" />
			</g>
			<g>
				<title>DHHA1 (PF02272)
"DHHA1 domain"</title>
				<polygon class="PF02272" points="2340,30 2350,40 2340,50" stroke-linejoin="round" width="14" height="24" fill="rgb(110,220,187)" stroke="rgb(88,176,149)" stroke-width="1" opacity="0.75" />
			</g>
		</g>
		<g>
			<title> (ctg20_57)</title>
			<polygon class=" (ctg20_57)" points="2357,10 2365,40 2357,70" fill="rgb(255,255,255)" fill-opacity="1.0" stroke="rgb(0,0,0)" stroke-width="2"  />
			<g>
				<title>IreB (PF06135)
"IreB regulatory phosphoprotein"</title>
				<polygon class="PF06135" points="2357,28 2358,28 2362,40 2358,52 2357,52" stroke-linejoin="round" width="7" height="24" fill="rgb(144,187,91)" stroke="rgb(115,149,72)" stroke-width="1" opacity="0.75" />
			</g>
		</g>
	</g>
</svg>
