<svg version="1.1" baseProfile="full" xmlns="http://www.w3.org/2000/svg" width="1519.9666666666667" height="80">
	<g>
		<line x1="10" y1="40.0" x2="1509.9666666666667" y2="40.0" style="stroke:rgb(70,70,70); stroke-width:3 "/>
		<g>
			<title> (ctg42_1)</title>
			<polygon class=" (ctg42_1)" points="10,25 141,25 141,10 171,40 141,70 141,55 10,55" fill="rgb(255,255,255)" fill-opacity="1.0" stroke="rgb(0,0,0)" stroke-width="2"  />
			<g>
				<title>AC_1 (PF18883)
"Autochaperone Domain Type 1"</title>
				<rect class="PF18883" x="125" y="28" stroke-linejoin="round" width="11" height="24" fill="rgb(53,185,147)" stroke="rgb(42,148,117)" stroke-width="1" opacity="0.75" />
			</g>
			<g>
				<title>Autotransporter (PF03797)
"Autotransporter beta-domain"</title>
				<polygon class="PF03797" points="143,28 154,28 166,40 154,52 143,52" stroke-linejoin="round" width="25" height="24" fill="rgb(213,89,168)" stroke="rgb(170,71,134)" stroke-width="1" opacity="0.75" />
			</g>
		</g>
		<g>
			<title> (ctg42_2)</title>
			<polygon class=" (ctg42_2)" points="175,40 187,10 187,70" fill="rgb(255,255,255)" fill-opacity="1.0" stroke="rgb(0,0,0)" stroke-width="2"  />
			<g>
				<title>DDE_Tnp_IS1 (PF03400)
"IS1 transposase"</title>
				<polygon class="PF03400" points="178,40 183,28 187,28 187,52 183,52" stroke-linejoin="round" width="12" height="24" fill="rgb(61,68,205)" stroke="rgb(48,54,164)" stroke-width="1" opacity="0.75" />
			</g>
		</g>
		<g>
			<title> (ctg42_3)</title>
			<polygon class=" (ctg42_3)" points="193,10 200,40 193,70" fill="rgb(255,255,255)" fill-opacity="1.0" stroke="rgb(0,0,0)" stroke-width="2"  />
		</g>
		<g>
			<title> (ctg42_4)</title>
			<polygon class=" (ctg42_4)" points="202,10 216,40 202,70" fill="rgb(255,255,255)" fill-opacity="1.0" stroke="rgb(0,0,0)" stroke-width="2"  />
		</g>
		<g>
			<title> (ctg42_5)</title>
			<polygon class=" (ctg42_5)" points="235,10 252,40 235,70" fill="rgb(255,255,255)" fill-opacity="1.0" stroke="rgb(0,0,0)" stroke-width="2"  />
			<g>
				<title>DUF1176 (PF06674)
"Protein of unknown function (DUF1176)"</title>
				<polygon class="PF06674" points="235,28 241,28 248,40 241,52 235,52" stroke-linejoin="round" width="16" height="24" fill="rgb(56,82,223)" stroke="rgb(44,65,178)" stroke-width="1" opacity="0.75" />
			</g>
		</g>
		<g>
			<title> (ctg42_6)</title>
			<polygon class=" (ctg42_6)" points="255,10 275,40 255,70" fill="rgb(255,255,255)" fill-opacity="1.0" stroke="rgb(0,0,0)" stroke-width="2"  />
			<g>
				<title>NAD_binding_10 (PF13460)
"NAD(P)H-binding"</title>
				<polygon class="PF13460" points="255,28 264,28 272,40 264,52 255,52" stroke-linejoin="round" width="18" height="24" fill="rgb(188,201,78)" stroke="rgb(150,160,62)" stroke-width="1" opacity="0.75" />
			</g>
		</g>
		<g>
			<title> (ctg42_7)</title>
			<polygon class=" (ctg42_7)" points="306,10 315,40 306,70" fill="rgb(255,255,255)" fill-opacity="1.0" stroke="rgb(0,0,0)" stroke-width="2"  />
			<g>
				<title>ParE_toxin (PF05016)
"ParE toxin of type II toxin-antitoxin system, parDE"</title>
				<polygon class="PF05016" points="306,28 308,28 312,40 308,52 306,52" stroke-linejoin="round" width="8" height="24" fill="rgb(110,226,73)" stroke="rgb(88,180,58)" stroke-width="1" opacity="0.75" />
			</g>
		</g>
		<g>
			<title> (ctg42_8)</title>
			<polygon class=" (ctg42_8)" points="315,40 330,10 330,70" fill="rgb(255,255,255)" fill-opacity="1.0" stroke="rgb(0,0,0)" stroke-width="2"  />
			<g>
				<title>Fer4_12 (PF13353)
"4Fe-4S single cluster domain"</title>
				<polygon class="PF13353" points="318,40 324,28 328,28 328,52 324,52" stroke-linejoin="round" width="13" height="24" fill="rgb(213,229,100)" stroke="rgb(170,183,80)" stroke-width="1" opacity="0.75" />
			</g>
		</g>
		<g>
			<title> (ctg42_9)</title>
			<polygon class=" (ctg42_9)" points="333,10 353,40 333,70" fill="rgb(255,255,255)" fill-opacity="1.0" stroke="rgb(0,0,0)" stroke-width="2"  />
		</g>
		<g>
			<title> (ctg42_10)</title>
			<polygon class=" (ctg42_10)" points="351,10 358,40 351,70" fill="rgb(255,255,255)" fill-opacity="1.0" stroke="rgb(0,0,0)" stroke-width="2"  />
		</g>
		<g>
			<title> (ctg42_11)</title>
			<polygon class=" (ctg42_11)" points="359,10 362,40 359,70" fill="rgb(255,255,255)" fill-opacity="1.0" stroke="rgb(0,0,0)" stroke-width="2"  />
		</g>
		<g>
			<title> (ctg42_12)</title>
			<polygon class=" (ctg42_12)" points="439,25 398,25 398,10 368,40 398,70 398,55 439,55" fill="rgb(255,255,255)" fill-opacity="1.0" stroke="rgb(0,0,0)" stroke-width="2"  />
			<g>
				<title>NRDD (PF13597)
"Anaerobic ribonucleoside-triphosphate reductase"</title>
				<polygon class="PF13597" points="372,40 384,28 426,28 426,52 384,52" stroke-linejoin="round" width="58" height="24" fill="rgb(212,80,212)" stroke="rgb(169,64,169)" stroke-width="1" opacity="0.75" />
			</g>
			<g>
				<title>ATP-cone (PF03477)
"ATP cone domain"</title>
				<rect class="PF03477" x="430" y="28" stroke-linejoin="round" width="8" height="24" fill="rgb(186,70,213)" stroke="rgb(148,56,170)" stroke-width="1" opacity="0.75" />
			</g>
		</g>
		<g>
			<title> (ctg42_13)</title>
			<polygon class=" (ctg42_13)" points="481,25 481,25 481,10 451,40 481,70 481,55 481,55" fill="rgb(255,255,255)" fill-opacity="1.0" stroke="rgb(0,0,0)" stroke-width="2"  />
			<g>
				<title>LysR_substrate (PF03466)
"LysR substrate binding domain"</title>
				<polygon class="PF03466" points="455,40 467,28 471,28 471,52 467,52" stroke-linejoin="round" width="20" height="24" fill="rgb(55,136,195)" stroke="rgb(44,108,156)" stroke-width="1" opacity="0.75" />
			</g>
			<g>
				<title>HTH_1 (PF00126)
"Bacterial regulatory helix-turn-helix protein, lysR family"</title>
				<rect class="PF00126" x="474" y="28" stroke-linejoin="round" width="5" height="24" fill="rgb(125,227,79)" stroke="rgb(99,181,63)" stroke-width="1" opacity="0.75" />
			</g>
		</g>
		<g>
			<title> (ctg42_14)</title>
			<polygon class=" (ctg42_14)" points="494,10 511,40 494,70" fill="rgb(255,255,255)" fill-opacity="1.0" stroke="rgb(0,0,0)" stroke-width="2"  />
			<g>
				<title>Flavodoxin_2 (PF02525)
"Flavodoxin-like fold"</title>
				<polygon class="PF02525" points="494,28 500,28 508,40 500,52 494,52" stroke-linejoin="round" width="16" height="24" fill="rgb(159,188,70)" stroke="rgb(127,150,56)" stroke-width="1" opacity="0.75" />
			</g>
		</g>
		<g>
			<title> (ctg42_15)</title>
			<polygon class=" (ctg42_15)" points="511,40 521,10 521,70" fill="rgb(255,255,255)" fill-opacity="1.0" stroke="rgb(0,0,0)" stroke-width="2"  />
			<g>
				<title>GIY-YIG (PF01541)
"GIY-YIG catalytic domain"</title>
				<polygon class="PF01541" points="514,40 518,28 520,28 520,52 518,52" stroke-linejoin="round" width="7" height="24" fill="rgb(77,220,57)" stroke="rgb(61,176,45)" stroke-width="1" opacity="0.75" />
			</g>
		</g>
		<g>
			<title> (ctg42_16)</title>
			<polygon class=" (ctg42_16)" points="527,40 536,10 536,70" fill="rgb(255,255,255)" fill-opacity="1.0" stroke="rgb(0,0,0)" stroke-width="2"  />
		</g>
		<g>
			<title> (ctg42_17)</title>
			<polygon class=" (ctg42_17)" points="557,10 561,40 557,70" fill="rgb(255,255,255)" fill-opacity="1.0" stroke="rgb(0,0,0)" stroke-width="2"  />
		</g>
		<g>
			<title> (ctg42_18)</title>
			<polygon class=" (ctg42_18)" points="561,10 571,40 561,70" fill="rgb(255,255,255)" fill-opacity="1.0" stroke="rgb(0,0,0)" stroke-width="2"  />
			<g>
				<title>HTH_46 (PF15977)
"Winged helix-turn-helix DNA binding"</title>
				<polygon class="PF15977" points="564,28 568,40 564,52" stroke-linejoin="round" width="6" height="24" fill="rgb(58,61,225)" stroke="rgb(46,48,180)" stroke-width="1" opacity="0.75" />
			</g>
		</g>
		<g>
			<title> (ctg42_19)</title>
			<polygon class=" (ctg42_19)" points="659,25 927,25 927,10 957,40 927,70 927,55 659,55" fill="rgb(255,255,255)" fill-opacity="1.0" stroke="rgb(0,0,0)" stroke-width="2"  />
			<g>
				<title>AMP-binding (PF00501)
"AMP-binding enzyme"</title>
				<rect class="PF00501" x="659" y="28" stroke-linejoin="round" width="5" height="24" fill="rgb(60,217,223)" stroke="rgb(48,173,178)" stroke-width="1" opacity="0.75" />
			</g>
			<g>
				<title>AMP-binding_C (PF13193)
"AMP-binding enzyme C-terminal domain"</title>
				<rect class="PF13193" x="665" y="28" stroke-linejoin="round" width="7" height="24" fill="rgb(182,50,118)" stroke="rgb(145,39,94)" stroke-width="1" opacity="0.75" />
			</g>
			<g>
				<title>PP-binding (PF00550)
"Phosphopantetheine attachment site"</title>
				<rect class="PF00550" x="675" y="28" stroke-linejoin="round" width="6" height="24" fill="rgb(103,191,88)" stroke="rgb(82,152,70)" stroke-width="1" opacity="0.75" />
			</g>
			<g>
				<title>Condensation (PF00668)
"Condensation domain"</title>
				<rect class="PF00668" x="683" y="28" stroke-linejoin="round" width="40" height="24" fill="rgb(224,184,98)" stroke="rgb(179,147,78)" stroke-width="1" opacity="0.75" />
			</g>
			<g>
				<title>Condensation (PF00668)
"Condensation domain"</title>
				<rect class="PF00668" x="726" y="28" stroke-linejoin="round" width="43" height="24" fill="rgb(224,184,98)" stroke="rgb(179,147,78)" stroke-width="1" opacity="0.75" />
			</g>
			<g>
				<title>AMP-binding (PF00501)
"AMP-binding enzyme"</title>
				<rect class="PF00501" x="771" y="28" stroke-linejoin="round" width="39" height="24" fill="rgb(60,217,223)" stroke="rgb(48,173,178)" stroke-width="1" opacity="0.75" />
			</g>
			<g>
				<title>PP-binding (PF00550)
"Phosphopantetheine attachment site"</title>
				<rect class="PF00550" x="822" y="28" stroke-linejoin="round" width="6" height="24" fill="rgb(103,191,88)" stroke="rgb(82,152,70)" stroke-width="1" opacity="0.75" />
			</g>
			<g>
				<title>Condensation (PF00668)
"Condensation domain"</title>
				<rect class="PF00668" x="830" y="28" stroke-linejoin="round" width="44" height="24" fill="rgb(224,184,98)" stroke="rgb(179,147,78)" stroke-width="1" opacity="0.75" />
			</g>
			<g>
				<title>AMP-binding (PF00501)
"AMP-binding enzyme"</title>
				<rect class="PF00501" x="876" y="28" stroke-linejoin="round" width="39" height="24" fill="rgb(60,217,223)" stroke="rgb(48,173,178)" stroke-width="1" opacity="0.75" />
			</g>
			<g>
				<title>AMP-binding_C (PF13193)
"AMP-binding enzyme C-terminal domain"</title>
				<rect class="PF13193" x="917" y="28" stroke-linejoin="round" width="7" height="24" fill="rgb(182,50,118)" stroke="rgb(145,39,94)" stroke-width="1" opacity="0.75" />
			</g>
			<g>
				<title>PP-binding (PF00550)
"Phosphopantetheine attachment site"</title>
				<rect class="PF00550" x="927" y="28" stroke-linejoin="round" width="6" height="24" fill="rgb(103,191,88)" stroke="rgb(82,152,70)" stroke-width="1" opacity="0.75" />
			</g>
			<g>
				<title>Thioesterase (PF00975)
"Thioesterase domain"</title>
				<polygon class="PF00975" points="935,28 940,28 949,37 949,43 940,52 935,52" stroke-linejoin="round" width="14" height="24" fill="rgb(207,80,138)" stroke="rgb(165,63,110)" stroke-width="1" opacity="0.75" />
			</g>
		</g>
		<g>
			<title> (ctg42_20)</title>
			<polygon class=" (ctg42_20)" points="1014,25 989,25 989,10 959,40 989,70 989,55 1014,55" fill="rgb(255,255,255)" fill-opacity="1.0" stroke="rgb(0,0,0)" stroke-width="2"  />
			<g>
				<title>DUF3459 (PF11941)
"Domain of unknown function (DUF3459)"</title>
				<polygon class="PF11941" points="963,40 968,35 968,45" stroke-linejoin="round" width="9" height="24" fill="rgb(55,147,193)" stroke="rgb(44,117,154)" stroke-width="1" opacity="0.75" />
			</g>
			<g>
				<title>Alpha-amylase (PF00128)
"Alpha amylase, catalytic domain"</title>
				<rect class="PF00128" x="976" y="28" stroke-linejoin="round" width="34" height="24" fill="rgb(72,189,149)" stroke="rgb(57,151,119)" stroke-width="1" opacity="0.75" />
			</g>
		</g>
		<g>
			<title> (ctg42_21)</title>
			<polygon class=" (ctg42_21)" points="1064,25 1047,25 1047,10 1017,40 1047,70 1047,55 1064,55" fill="rgb(255,255,255)" fill-opacity="1.0" stroke="rgb(0,0,0)" stroke-width="2"  />
			<g>
				<title>PTS_EIIC (PF02378)
"Phosphotransferase system, EIIC"</title>
				<polygon class="PF02378" points="1023,38 1033,28 1052,28 1052,52 1033,52 1023,42" stroke-linejoin="round" width="29" height="24" fill="rgb(73,199,212)" stroke="rgb(58,159,169)" stroke-width="1" opacity="0.75" />
			</g>
			<g>
				<title>PTS_EIIB (PF00367)
"phosphotransferase system, EIIB"</title>
				<rect class="PF00367" x="1059" y="28" stroke-linejoin="round" width="3" height="24" fill="rgb(188,77,92)" stroke="rgb(150,61,73)" stroke-width="1" opacity="0.75" />
			</g>
		</g>
		<g>
			<title> (ctg42_22)</title>
			<polygon class=" (ctg42_22)" points="1074,40 1103,10 1103,70" fill="rgb(255,255,255)" fill-opacity="1.0" stroke="rgb(0,0,0)" stroke-width="2"  />
			<g>
				<title>Abhydrolase_1 (PF00561)
"alpha/beta hydrolase fold"</title>
				<polygon class="PF00561" points="1078,40 1090,28 1101,28 1101,52 1090,52 1078,40" stroke-linejoin="round" width="23" height="24" fill="rgb(86,180,151)" stroke="rgb(68,144,120)" stroke-width="1" opacity="0.75" />
			</g>
		</g>
		<g>
			<title> (ctg42_23)</title>
			<polygon class=" (ctg42_23)" points="1146,25 1145,25 1145,10 1115,40 1145,70 1145,55 1146,55" fill="rgb(255,255,255)" fill-opacity="1.0" stroke="rgb(0,0,0)" stroke-width="2"  />
			<g>
				<title>Peripla_BP_1 (PF00532)
"Periplasmic binding proteins and sugar binding domain of LacI family"</title>
				<polygon class="PF00532" points="1120,39 1131,28 1140,28 1140,52 1131,52 1120,41" stroke-linejoin="round" width="20" height="24" fill="rgb(170,185,72)" stroke="rgb(136,148,57)" stroke-width="1" opacity="0.75" />
			</g>
			<g>
				<title>LacI (PF00356)
"Bacterial regulatory proteins, lacI family"</title>
				<rect class="PF00356" x="1141" y="28" stroke-linejoin="round" width="4" height="24" fill="rgb(66,188,63)" stroke="rgb(52,150,50)" stroke-width="1" opacity="0.75" />
			</g>
		</g>
		<g>
			<title> (ctg42_24)</title>
			<polygon class=" (ctg42_24)" points="1160,25 1220,25 1220,10 1250,40 1220,70 1220,55 1160,55" fill="rgb(255,255,255)" fill-opacity="1.0" stroke="rgb(0,0,0)" stroke-width="2"  />
			<g>
				<title>Cation_ATPase_N (PF00690)
"Cation transporter/ATPase, N-terminus"</title>
				<rect class="PF00690" x="1165" y="28" stroke-linejoin="round" width="6" height="24" fill="rgb(174,102,225)" stroke="rgb(139,81,180)" stroke-width="1" opacity="0.75" />
			</g>
			<g>
				<title>E1-E2_ATPase (PF00122)
"E1-E2 ATPase"</title>
				<rect class="PF00122" x="1175" y="28" stroke-linejoin="round" width="19" height="24" fill="rgb(149,204,70)" stroke="rgb(119,163,56)" stroke-width="1" opacity="0.75" />
			</g>
			<g>
				<title>Hydrolase (PF00702)
"haloacid dehalogenase-like hydrolase"</title>
				<rect class="PF00702" x="1197" y="28" stroke-linejoin="round" width="28" height="24" fill="rgb(68,220,102)" stroke="rgb(54,176,81)" stroke-width="1" opacity="0.75" />
			</g>
			<g>
				<title>Cation_ATPase_C (PF00689)
"Cation transporting ATPase, C-terminus"</title>
				<polygon class="PF00689" points="1232,28 1234,28 1246,40 1234,52 1232,52" stroke-linejoin="round" width="16" height="24" fill="rgb(76,203,161)" stroke="rgb(60,162,128)" stroke-width="1" opacity="0.75" />
			</g>
		</g>
		<g>
			<title> (ctg42_25)</title>
			<polygon class=" (ctg42_25)" points="1284,25 1281,25 1281,10 1251,40 1281,70 1281,55 1284,55" fill="rgb(255,255,255)" fill-opacity="1.0" stroke="rgb(0,0,0)" stroke-width="2"  />
			<g>
				<title>LysR_substrate (PF03466)
"LysR substrate binding domain"</title>
				<polygon class="PF03466" points="1255,40 1267,28 1272,28 1272,52 1267,52" stroke-linejoin="round" width="20" height="24" fill="rgb(55,136,195)" stroke="rgb(44,108,156)" stroke-width="1" opacity="0.75" />
			</g>
			<g>
				<title>HTH_1 (PF00126)
"Bacterial regulatory helix-turn-helix protein, lysR family"</title>
				<rect class="PF00126" x="1275" y="28" stroke-linejoin="round" width="5" height="24" fill="rgb(125,227,79)" stroke="rgb(99,181,63)" stroke-width="1" opacity="0.75" />
			</g>
		</g>
		<g>
			<title> (ctg42_26)</title>
			<polygon class=" (ctg42_26)" points="1296,10 1316,40 1296,70" fill="rgb(255,255,255)" fill-opacity="1.0" stroke="rgb(0,0,0)" stroke-width="2"  />
			<g>
				<title>Ank_4 (PF13637)
"Ankyrin repeats (many copies)"</title>
				<rect class="PF13637" x="1296" y="28" stroke-linejoin="round" width="5" height="24" fill="rgb(62,205,90)" stroke="rgb(49,164,72)" stroke-width="1" opacity="0.75" />
			</g>
			<g>
				<title>Ank_2 (PF12796)
"Ankyrin repeats (3 copies)"</title>
				<polygon class="PF12796" points="1303,28 1304,28 1312,40 1312,40 1304,52 1303,52" stroke-linejoin="round" width="9" height="24" fill="rgb(151,90,191)" stroke="rgb(120,72,152)" stroke-width="1" opacity="0.75" />
			</g>
		</g>
		<g>
			<title> (ctg42_27)</title>
			<polygon class=" (ctg42_27)" points="1332,10 1346,40 1332,70" fill="rgb(255,255,255)" fill-opacity="1.0" stroke="rgb(0,0,0)" stroke-width="2"  />
			<g>
				<title>DUF2877 (PF11392)
"Protein of unknown function (DUF2877)"</title>
				<polygon class="PF11392" points="1333,28 1336,28 1342,40 1336,52 1333,52" stroke-linejoin="round" width="10" height="24" fill="rgb(212,88,222)" stroke="rgb(169,70,177)" stroke-width="1" opacity="0.75" />
			</g>
		</g>
		<g>
			<title> (ctg42_28)</title>
			<polygon class=" (ctg42_28)" points="1346,25 1367,25 1367,10 1397,40 1367,70 1367,55 1346,55" fill="rgb(255,255,255)" fill-opacity="1.0" stroke="rgb(0,0,0)" stroke-width="2"  />
			<g>
				<title>CoA_binding (PF02629)
"CoA binding domain"</title>
				<rect class="PF02629" x="1364" y="28" stroke-linejoin="round" width="9" height="24" fill="rgb(57,204,178)" stroke="rgb(45,163,142)" stroke-width="1" opacity="0.75" />
			</g>
			<g>
				<title>Ligase_CoA (PF00549)
"CoA-ligase"</title>
				<polygon class="PF00549" points="1380,28 1381,28 1393,40 1381,52 1380,52" stroke-linejoin="round" width="16" height="24" fill="rgb(184,103,76)" stroke="rgb(147,82,60)" stroke-width="1" opacity="0.75" />
			</g>
		</g>
		<g>
			<title> (ctg42_29)</title>
			<polygon class=" (ctg42_29)" points="1397,25 1414,25 1414,10 1444,40 1414,70 1414,55 1397,55" fill="rgb(255,255,255)" fill-opacity="1.0" stroke="rgb(0,0,0)" stroke-width="2"  />
			<g>
				<title>DUF1116 (PF06545)
"Protein of unknown function (DUF1116)"</title>
				<polygon class="PF06545" points="1411,28 1428,28 1432,32 1432,48 1428,52 1411,52" stroke-linejoin="round" width="21" height="24" fill="rgb(196,90,185)" stroke="rgb(156,72,148)" stroke-width="1" opacity="0.75" />
			</g>
		</g>
		<g>
			<title> (ctg42_30)</title>
			<polygon class=" (ctg42_30)" points="1444,40 1448,10 1448,70" fill="rgb(255,255,255)" fill-opacity="1.0" stroke="rgb(0,0,0)" stroke-width="2"  />
		</g>
		<g>
			<title> (ctg42_31)</title>
			<polygon class=" (ctg42_31)" points="1453,25 1474,25 1474,10 1504,40 1474,70 1474,55 1453,55" fill="rgb(255,255,255)" fill-opacity="1.0" stroke="rgb(0,0,0)" stroke-width="2"  />
		</g>
		<g>
			<title> (ctg42_32)</title>
			<polygon class=" (ctg42_32)" points="1505,40 1509,10 1509,70" fill="rgb(255,255,255)" fill-opacity="1.0" stroke="rgb(0,0,0)" stroke-width="2"  />
		</g>
	</g>
</svg>
