<svg version="1.1" baseProfile="full" xmlns="http://www.w3.org/2000/svg" width="874.8" height="80">
	<g>
		<line x1="10" y1="40.0" x2="864.8" y2="40.0" style="stroke:rgb(70,70,70); stroke-width:3 "/>
		<g>
			<title> (ctg9_174)</title>
			<polygon class=" (ctg9_174)" points="59,25 41,25 41,10 11,40 41,70 41,55 59,55" fill="rgb(255,255,255)" fill-opacity="1.0" stroke="rgb(0,0,0)" stroke-width="2"  />
			<g>
				<title>AA_permease (PF00324)
"Amino acid permease"</title>
				<polygon class="PF00324" points="15,40 27,28 56,28 56,52 27,52" stroke-linejoin="round" width="44" height="24" fill="rgb(82,225,201)" stroke="rgb(65,180,160)" stroke-width="1" opacity="0.75" />
			</g>
		</g>
		<g>
			<title> (ctg9_175)</title>
			<polygon class=" (ctg9_175)" points="105,25 95,25 95,10 65,40 95,70 95,55 105,55" fill="rgb(255,255,255)" fill-opacity="1.0" stroke="rgb(0,0,0)" stroke-width="2"  />
			<g>
				<title>Aminotran_3 (PF00202)
"Aminotransferase class-III"</title>
				<polygon class="PF00202" points="69,40 81,28 103,28 103,52 81,52" stroke-linejoin="round" width="38" height="24" fill="rgb(49,163,189)" stroke="rgb(39,130,151)" stroke-width="1" opacity="0.75" />
			</g>
		</g>
		<g>
			<title> (ctg9_176)</title>
			<polygon class=" (ctg9_176)" points="113,25 130,25 130,10 160,40 130,70 130,55 113,55" fill="rgb(255,255,255)" fill-opacity="1.0" stroke="rgb(0,0,0)" stroke-width="2"  />
			<g>
				<title>PAS_9 (PF13426)
"PAS domain"</title>
				<rect class="PF13426" x="115" y="28" stroke-linejoin="round" width="10" height="24" fill="rgb(182,140,74)" stroke="rgb(145,112,59)" stroke-width="1" opacity="0.75" />
			</g>
			<g>
				<title>Sigma54_activat (PF00158)
"Sigma-54 interaction domain"</title>
				<rect class="PF00158" x="127" y="28" stroke-linejoin="round" width="16" height="24" fill="rgb(101,145,216)" stroke="rgb(80,115,172)" stroke-width="1" opacity="0.75" />
			</g>
			<g>
				<title>HTH_8 (PF02954)
"Bacterial regulatory protein, Fis family"</title>
				<polygon class="PF02954" points="155,40 155,40 155,40" stroke-linejoin="round" width="4" height="24" fill="rgb(168,63,200)" stroke="rgb(134,50,160)" stroke-width="1" opacity="0.75" />
			</g>
		</g>
		<g>
			<title> (ctg9_177)</title>
			<polygon class=" (ctg9_177)" points="165,10 191,40 165,70" fill="rgb(255,255,255)" fill-opacity="1.0" stroke="rgb(0,0,0)" stroke-width="2"  />
			<g>
				<title>SBP_bac_3 (PF00497)
"Bacterial extracellular solute-binding proteins, family 3"</title>
				<polygon class="PF00497" points="169,28 176,28 187,40 176,52 169,52" stroke-linejoin="round" width="21" height="24" fill="rgb(186,76,141)" stroke="rgb(148,60,112)" stroke-width="1" opacity="0.75" />
			</g>
		</g>
		<g>
			<title> (ctg9_178)</title>
			<polygon class=" (ctg9_178)" points="191,10 214,40 191,70" fill="rgb(255,255,255)" fill-opacity="1.0" stroke="rgb(0,0,0)" stroke-width="2"  />
			<g>
				<title>BPD_transp_1 (PF00528)
"Binding-protein-dependent transport system inner membrane component"</title>
				<polygon class="PF00528" points="195,28 201,28 210,40 201,52 195,52" stroke-linejoin="round" width="18" height="24" fill="rgb(77,208,225)" stroke="rgb(61,166,180)" stroke-width="1" opacity="0.75" />
			</g>
		</g>
		<g>
			<title> (ctg9_179)</title>
			<polygon class=" (ctg9_179)" points="215,10 239,40 215,70" fill="rgb(255,255,255)" fill-opacity="1.0" stroke="rgb(0,0,0)" stroke-width="2"  />
			<g>
				<title>ABC_tran (PF00005)
"ABC transporter"</title>
				<polygon class="PF00005" points="216,28 226,28 231,35 231,45 226,52 216,52" stroke-linejoin="round" width="15" height="24" fill="rgb(129,201,63)" stroke="rgb(103,160,50)" stroke-width="1" opacity="0.75" />
			</g>
		</g>
		<g>
			<title> (ctg9_180)</title>
			<polygon class=" (ctg9_180)" points="298,25 271,25 271,10 241,40 271,70 271,55 298,55" fill="rgb(255,255,255)" fill-opacity="1.0" stroke="rgb(0,0,0)" stroke-width="2"  />
			<g>
				<title>MCPsignal (PF00015)
"Methyl-accepting chemotaxis protein (MCP) signalling domain"</title>
				<polygon class="PF00015" points="246,39 257,28 264,28 264,52 257,52 246,41" stroke-linejoin="round" width="18" height="24" fill="rgb(104,174,223)" stroke="rgb(83,139,178)" stroke-width="1" opacity="0.75" />
			</g>
			<g>
				<title>HAMP (PF00672)
"HAMP domain"</title>
				<rect class="PF00672" x="272" y="28" stroke-linejoin="round" width="5" height="24" fill="rgb(124,89,195)" stroke="rgb(99,71,156)" stroke-width="1" opacity="0.75" />
			</g>
		</g>
		<g>
			<title> (ctg9_181)</title>
			<polygon class=" (ctg9_181)" points="354,25 329,25 329,10 299,40 329,70 329,55 354,55" fill="rgb(255,255,255)" fill-opacity="1.0" stroke="rgb(0,0,0)" stroke-width="2"  />
			<g>
				<title>Pyridoxal_deC (PF00282)
"Pyridoxal-dependent decarboxylase conserved domain"</title>
				<polygon class="PF00282" points="309,34 315,28 348,28 348,52 315,52 309,46" stroke-linejoin="round" width="39" height="24" fill="rgb(100,218,166)" stroke="rgb(80,174,132)" stroke-width="1" opacity="0.75" />
			</g>
		</g>
		<g>
			<title> (ctg9_182)</title>
			<polygon class=" (ctg9_182)" points="364,10 370,40 364,70" fill="rgb(255,255,255)" fill-opacity="1.0" stroke="rgb(0,0,0)" stroke-width="2"  />
		</g>
		<g>
			<title> (ctg9_183)</title>
			<polygon class=" (ctg9_183)" points="371,40 376,10 376,70" fill="rgb(255,255,255)" fill-opacity="1.0" stroke="rgb(0,0,0)" stroke-width="2"  />
		</g>
		<g>
			<title> (ctg9_184)</title>
			<polygon class=" (ctg9_184)" points="407,25 407,25 407,10 377,40 407,70 407,55 407,55" fill="rgb(255,255,255)" fill-opacity="1.0" stroke="rgb(0,0,0)" stroke-width="2"  />
			<g>
				<title>ABC2_membrane_2 (PF12679)
"ABC-2 family transporter protein"</title>
				<polygon class="PF12679" points="381,40 393,28 406,28 406,52 393,52" stroke-linejoin="round" width="26" height="24" fill="rgb(70,194,214)" stroke="rgb(56,155,171)" stroke-width="1" opacity="0.75" />
			</g>
		</g>
		<g>
			<title> (ctg9_185)</title>
			<polygon class=" (ctg9_185)" points="438,25 437,25 437,10 407,40 437,70 437,55 438,55" fill="rgb(255,255,255)" fill-opacity="1.0" stroke="rgb(0,0,0)" stroke-width="2"  />
			<g>
				<title>ABC_tran (PF00005)
"ABC transporter"</title>
				<polygon class="PF00005" points="422,29 423,28 435,28 435,52 423,52 422,51" stroke-linejoin="round" width="13" height="24" fill="rgb(129,201,63)" stroke="rgb(103,160,50)" stroke-width="1" opacity="0.75" />
			</g>
		</g>
		<g>
			<title> (ctg9_186)</title>
			<polygon class=" (ctg9_186)" points="439,40 456,10 456,70" fill="rgb(255,255,255)" fill-opacity="1.0" stroke="rgb(0,0,0)" stroke-width="2"  />
		</g>
		<g>
			<title> (ctg9_187)</title>
			<polygon class=" (ctg9_187)" points="465,10 487,40 465,70" fill="rgb(255,255,255)" fill-opacity="1.0" stroke="rgb(0,0,0)" stroke-width="2"  />
		</g>
		<g>
			<title> (ctg9_188)</title>
			<polygon class=" (ctg9_188)" points="496,40 503,10 503,70" fill="rgb(255,255,255)" fill-opacity="1.0" stroke="rgb(0,0,0)" stroke-width="2"  />
			<g>
				<title>GyrI-like (PF06445)
"GyrI-like small molecule binding domain"</title>
				<polygon class="PF06445" points="499,40 502,28 503,28 503,52 502,52" stroke-linejoin="round" width="7" height="24" fill="rgb(61,183,118)" stroke="rgb(48,146,94)" stroke-width="1" opacity="0.75" />
			</g>
		</g>
		<g>
			<title> (ctg9_189)</title>
			<polygon class=" (ctg9_189)" points="517,40 544,10 544,70" fill="rgb(255,255,255)" fill-opacity="1.0" stroke="rgb(0,0,0)" stroke-width="2"  />
			<g>
				<title>Esterase (PF00756)
"Putative esterase"</title>
				<polygon class="PF00756" points="521,40 532,28 541,28 541,52 532,52" stroke-linejoin="round" width="23" height="24" fill="rgb(217,132,77)" stroke="rgb(173,105,61)" stroke-width="1" opacity="0.75" />
			</g>
		</g>
		<g>
			<title> (ctg9_190)</title>
			<polygon class=" (ctg9_190)" points="547,10 569,40 547,70" fill="rgb(255,255,255)" fill-opacity="1.0" stroke="rgb(0,0,0)" stroke-width="2"  />
			<g>
				<title>ACPS (PF01648)
"4'-phosphopantetheinyl transferase superfamily"</title>
				<polygon class="PF01648" points="557,28 557,28 565,40 557,52 557,52" stroke-linejoin="round" width="10" height="24" fill="rgb(85,184,135)" stroke="rgb(68,147,108)" stroke-width="1" opacity="0.75" />
			</g>
		</g>
		<g>
			<title> (ctg9_191)</title>
			<polygon class=" (ctg9_191)" points="615,25 600,25 600,10 570,40 600,70 600,55 615,55" fill="rgb(255,255,255)" fill-opacity="1.0" stroke="rgb(0,0,0)" stroke-width="2"  />
			<g>
				<title>Aminotran_1_2 (PF00155)
"Aminotransferase class I and II"</title>
				<polygon class="PF00155" points="574,40 586,28 607,28 607,52 586,52" stroke-linejoin="round" width="36" height="24" fill="rgb(89,113,198)" stroke="rgb(71,90,158)" stroke-width="1" opacity="0.75" />
			</g>
			<g>
				<title>GntR (PF00392)
"Bacterial regulatory proteins, gntR family"</title>
				<rect class="PF00392" x="608" y="28" stroke-linejoin="round" width="6" height="24" fill="rgb(160,85,194)" stroke="rgb(127,68,155)" stroke-width="1" opacity="0.75" />
			</g>
		</g>
		<g>
			<title> (ctg9_192)</title>
			<polygon class=" (ctg9_192)" points="619,25 619,25 619,10 649,40 619,70 619,55 619,55" fill="rgb(255,255,255)" fill-opacity="1.0" stroke="rgb(0,0,0)" stroke-width="2"  />
			<g>
				<title>EamA (PF00892)
"EamA-like transporter family"</title>
				<rect class="PF00892" x="619" y="28" stroke-linejoin="round" width="13" height="24" fill="rgb(105,217,77)" stroke="rgb(84,173,61)" stroke-width="1" opacity="0.75" />
			</g>
			<g>
				<title>EamA (PF00892)
"EamA-like transporter family"</title>
				<polygon class="PF00892" points="633,28 633,28 645,40 633,52 633,52" stroke-linejoin="round" width="14" height="24" fill="rgb(105,217,77)" stroke="rgb(84,173,61)" stroke-width="1" opacity="0.75" />
			</g>
		</g>
		<g>
			<title> (ctg9_193)</title>
			<polygon class=" (ctg9_193)" points="651,40 675,10 675,70" fill="rgb(255,255,255)" fill-opacity="1.0" stroke="rgb(0,0,0)" stroke-width="2"  />
			<g>
				<title>Thioesterase (PF00975)
"Thioesterase domain"</title>
				<polygon class="PF00975" points="655,40 665,28 674,28 674,52 665,52" stroke-linejoin="round" width="22" height="24" fill="rgb(207,80,138)" stroke="rgb(165,63,110)" stroke-width="1" opacity="0.75" />
			</g>
		</g>
		<g>
			<title> (ctg9_194)</title>
			<polygon class=" (ctg9_194)" points="804,25 706,25 706,10 676,40 706,70 706,55 804,55" fill="rgb(255,255,255)" fill-opacity="1.0" stroke="rgb(0,0,0)" stroke-width="2"  />
			<g>
				<title>Thioesterase (PF00975)
"Thioesterase domain"</title>
				<polygon class="PF00975" points="680,40 692,28 697,28 697,52 692,52 680,40" stroke-linejoin="round" width="17" height="24" fill="rgb(207,80,138)" stroke="rgb(165,63,110)" stroke-width="1" opacity="0.75" />
			</g>
			<g>
				<title>PP-binding (PF00550)
"Phosphopantetheine attachment site"</title>
				<rect class="PF00550" x="699" y="28" stroke-linejoin="round" width="6" height="24" fill="rgb(103,191,88)" stroke="rgb(82,152,70)" stroke-width="1" opacity="0.75" />
			</g>
			<g>
				<title>AMP-binding_C (PF13193)
"AMP-binding enzyme C-terminal domain"</title>
				<rect class="PF13193" x="709" y="28" stroke-linejoin="round" width="7" height="24" fill="rgb(182,50,118)" stroke="rgb(145,39,94)" stroke-width="1" opacity="0.75" />
			</g>
			<g>
				<title>AMP-binding (PF00501)
"AMP-binding enzyme"</title>
				<rect class="PF00501" x="717" y="28" stroke-linejoin="round" width="39" height="24" fill="rgb(60,217,223)" stroke="rgb(48,173,178)" stroke-width="1" opacity="0.75" />
			</g>
			<g>
				<title>Condensation (PF00668)
"Condensation domain"</title>
				<rect class="PF00668" x="759" y="28" stroke-linejoin="round" width="44" height="24" fill="rgb(224,184,98)" stroke="rgb(179,147,78)" stroke-width="1" opacity="0.75" />
			</g>
		</g>
		<g>
			<title> (ctg9_195)</title>
			<polygon class=" (ctg9_195)" points="863,25 836,25 836,10 806,40 836,70 836,55 863,55" fill="rgb(255,255,255)" fill-opacity="1.0" stroke="rgb(0,0,0)" stroke-width="2"  />
			<g>
				<title>Condensation (PF00668)
"Condensation domain"</title>
				<polygon class="PF00668" points="810,40 822,28 852,28 852,52 822,52" stroke-linejoin="round" width="45" height="24" fill="rgb(224,184,98)" stroke="rgb(179,147,78)" stroke-width="1" opacity="0.75" />
			</g>
			<g>
				<title>PP-binding (PF00550)
"Phosphopantetheine attachment site"</title>
				<rect class="PF00550" x="854" y="28" stroke-linejoin="round" width="6" height="24" fill="rgb(103,191,88)" stroke="rgb(82,152,70)" stroke-width="1" opacity="0.75" />
			</g>
		</g>
	</g>
</svg>
