<svg version="1.1" baseProfile="full" xmlns="http://www.w3.org/2000/svg" width="1452.8333333333333" height="80">
	<g>
		<line x1="10" y1="40.0" x2="1442.8333333333333" y2="40.0" style="stroke:rgb(70,70,70); stroke-width:3 "/>
		<g>
			<title> (ctg7_143)</title>
			<polygon class=" (ctg7_143)" points="11,40 23,10 23,70" fill="rgb(255,255,255)" fill-opacity="1.0" stroke="rgb(0,0,0)" stroke-width="2"  />
			<g>
				<title>GST_N_3 (PF13417)
"Glutathione S-transferase, N-terminal domain"</title>
				<polygon class="PF13417" points="14,40 19,28 22,28 22,52 19,52 14,40" stroke-linejoin="round" width="8" height="24" fill="rgb(220,154,91)" stroke="rgb(176,123,72)" stroke-width="1" opacity="0.75" />
			</g>
		</g>
		<g>
			<title> (ctg7_144)</title>
			<polygon class=" (ctg7_144)" points="26,40 39,10 39,70" fill="rgb(255,255,255)" fill-opacity="1.0" stroke="rgb(0,0,0)" stroke-width="2"  />
			<g>
				<title>DoxX_2 (PF13564)
"DoxX-like family"</title>
				<polygon class="PF13564" points="29,40 34,28 36,28 36,52 34,52" stroke-linejoin="round" width="9" height="24" fill="rgb(194,67,108)" stroke="rgb(155,53,86)" stroke-width="1" opacity="0.75" />
			</g>
		</g>
		<g>
			<title> (ctg7_145)</title>
			<polygon class=" (ctg7_145)" points="46,10 57,40 46,70" fill="rgb(255,255,255)" fill-opacity="1.0" stroke="rgb(0,0,0)" stroke-width="2"  />
			<g>
				<title>HxlR (PF01638)
"HxlR-like helix-turn-helix"</title>
				<polygon class="PF01638" points="46,28 49,28 54,40 49,52 46,52" stroke-linejoin="round" width="9" height="24" fill="rgb(91,150,227)" stroke="rgb(72,119,181)" stroke-width="1" opacity="0.75" />
			</g>
		</g>
		<g>
			<title> (ctg7_146)</title>
			<polygon class=" (ctg7_146)" points="93,40 116,10 116,70" fill="rgb(255,255,255)" fill-opacity="1.0" stroke="rgb(0,0,0)" stroke-width="2"  />
		</g>
		<g>
			<title> (ctg7_147)</title>
			<polygon class=" (ctg7_147)" points="121,10 139,40 121,70" fill="rgb(255,255,255)" fill-opacity="1.0" stroke="rgb(0,0,0)" stroke-width="2"  />
			<g>
				<title>Metallophos (PF00149)
"Calcineurin-like phosphoesterase"</title>
				<polygon class="PF00149" points="121,28 128,28 136,40 128,52 121,52" stroke-linejoin="round" width="16" height="24" fill="rgb(181,197,58)" stroke="rgb(144,157,46)" stroke-width="1" opacity="0.75" />
			</g>
		</g>
		<g>
			<title> (ctg7_148)</title>
			<polygon class=" (ctg7_148)" points="142,10 152,40 142,70" fill="rgb(255,255,255)" fill-opacity="1.0" stroke="rgb(0,0,0)" stroke-width="2"  />
		</g>
		<g>
			<title> (ctg7_149)</title>
			<polygon class=" (ctg7_149)" points="152,10 165,40 152,70" fill="rgb(255,255,255)" fill-opacity="1.0" stroke="rgb(0,0,0)" stroke-width="2"  />
		</g>
		<g>
			<title> (ctg7_150)</title>
			<polygon class=" (ctg7_150)" points="174,40 199,10 199,70" fill="rgb(255,255,255)" fill-opacity="1.0" stroke="rgb(0,0,0)" stroke-width="2"  />
			<g>
				<title>Sigma70_r4_2 (PF08281)
"Sigma-70, region 4"</title>
				<polygon class="PF08281" points="178,40 181,36 181,44" stroke-linejoin="round" width="5" height="24" fill="rgb(222,103,144)" stroke="rgb(177,82,115)" stroke-width="1" opacity="0.75" />
			</g>
			<g>
				<title>Sigma70_r2 (PF04542)
"Sigma-70 region 2"</title>
				<polygon class="PF04542" points="184,33 188,28 190,28 190,52 188,52 184,47" stroke-linejoin="round" width="6" height="24" fill="rgb(184,59,197)" stroke="rgb(147,47,157)" stroke-width="1" opacity="0.75" />
			</g>
		</g>
		<g>
			<title> (ctg7_151)</title>
			<polygon class=" (ctg7_151)" points="236,25 233,25 233,10 203,40 233,70 233,55 236,55" fill="rgb(255,255,255)" fill-opacity="1.0" stroke="rgb(0,0,0)" stroke-width="2"  />
			<g>
				<title>adh_short (PF00106)
"short chain dehydrogenase"</title>
				<polygon class="PF00106" points="216,31 219,28 235,28 235,52 219,52 216,49" stroke-linejoin="round" width="19" height="24" fill="rgb(182,219,73)" stroke="rgb(145,175,58)" stroke-width="1" opacity="0.75" />
			</g>
		</g>
		<g>
			<title> (ctg7_152)</title>
			<polygon class=" (ctg7_152)" points="243,25 253,25 253,10 283,40 253,70 253,55 243,55" fill="rgb(255,255,255)" fill-opacity="1.0" stroke="rgb(0,0,0)" stroke-width="2"  />
			<g>
				<title>Virul_fac_BrkB (PF03631)
"Virulence factor BrkB"</title>
				<polygon class="PF03631" points="255,28 267,28 279,40 267,52 255,52" stroke-linejoin="round" width="25" height="24" fill="rgb(223,82,207)" stroke="rgb(178,65,165)" stroke-width="1" opacity="0.75" />
			</g>
		</g>
		<g>
			<title> (ctg7_153)</title>
			<polygon class=" (ctg7_153)" points="288,10 295,40 288,70" fill="rgb(255,255,255)" fill-opacity="1.0" stroke="rgb(0,0,0)" stroke-width="2"  />
		</g>
		<g>
			<title> (ctg7_154)</title>
			<polygon class=" (ctg7_154)" points="296,10 319,40 296,70" fill="rgb(255,255,255)" fill-opacity="1.0" stroke="rgb(0,0,0)" stroke-width="2"  />
			<g>
				<title>HTH_Crp_2 (PF13545)
"Crp-like helix-turn-helix domain"</title>
				<polygon class="PF13545" points="311,34 315,40 311,46" stroke-linejoin="round" width="7" height="24" fill="rgb(87,137,202)" stroke="rgb(69,109,161)" stroke-width="1" opacity="0.75" />
			</g>
		</g>
		<g>
			<title> (ctg7_155)</title>
			<polygon class=" (ctg7_155)" points="324,25 339,25 339,10 369,40 339,70 339,55 324,55" fill="rgb(255,255,255)" fill-opacity="1.0" stroke="rgb(0,0,0)" stroke-width="2"  />
			<g>
				<title>Ni_insertion (PF01969)
"Nickel insertion protein"</title>
				<polygon class="PF01969" points="324,28 352,28 364,40 352,52 324,52" stroke-linejoin="round" width="43" height="24" fill="rgb(171,97,208)" stroke="rgb(136,77,166)" stroke-width="1" opacity="0.75" />
			</g>
		</g>
		<g>
			<title> (ctg7_156)</title>
			<polygon class=" (ctg7_156)" points="369,10 396,40 369,70" fill="rgb(255,255,255)" fill-opacity="1.0" stroke="rgb(0,0,0)" stroke-width="2"  />
		</g>
		<g>
			<title> (ctg7_157)</title>
			<polygon class=" (ctg7_157)" points="396,10 418,40 396,70" fill="rgb(255,255,255)" fill-opacity="1.0" stroke="rgb(0,0,0)" stroke-width="2"  />
			<g>
				<title>AIRC (PF00731)
"AIR carboxylase"</title>
				<polygon class="PF00731" points="404,28 406,28 414,40 406,52 404,52" stroke-linejoin="round" width="13" height="24" fill="rgb(73,174,200)" stroke="rgb(58,139,160)" stroke-width="1" opacity="0.75" />
			</g>
		</g>
		<g>
			<title> (ctg7_158)</title>
			<polygon class=" (ctg7_158)" points="420,25 427,25 427,10 457,40 427,70 427,55 420,55" fill="rgb(255,255,255)" fill-opacity="1.0" stroke="rgb(0,0,0)" stroke-width="2"  />
			<g>
				<title>Aldo_ket_red (PF00248)
"Aldo/keto reductase family"</title>
				<polygon class="PF00248" points="426,28 440,28 451,39 451,41 440,52 426,52" stroke-linejoin="round" width="25" height="24" fill="rgb(225,205,58)" stroke="rgb(180,164,46)" stroke-width="1" opacity="0.75" />
			</g>
		</g>
		<g>
			<title> (ctg7_159)</title>
			<polygon class=" (ctg7_159)" points="535,25 490,25 490,10 460,40 490,70 490,55 535,55" fill="rgb(255,255,255)" fill-opacity="1.0" stroke="rgb(0,0,0)" stroke-width="2"  />
			<g>
				<title>MoCoBD_2 (PF20256)
"Molybdopterin cofactor-binding domain"</title>
				<polygon class="PF20256" points="465,39 476,28 493,28 493,52 476,52 465,41" stroke-linejoin="round" width="28" height="24" fill="rgb(50,138,186)" stroke="rgb(39,110,148)" stroke-width="1" opacity="0.75" />
			</g>
			<g>
				<title>MoCoBD_1 (PF02738)
"Molybdopterin cofactor-binding domain"</title>
				<rect class="PF02738" x="496" y="28" stroke-linejoin="round" width="23" height="24" fill="rgb(194,143,89)" stroke="rgb(155,114,71)" stroke-width="1" opacity="0.75" />
			</g>
			<g>
				<title>Ald_Xan_dh_C (PF01315)
"Aldehyde oxidase and xanthine dehydrogenase, a/b hammerhead domain"</title>
				<rect class="PF01315" x="521" y="28" stroke-linejoin="round" width="11" height="24" fill="rgb(127,182,88)" stroke="rgb(101,145,70)" stroke-width="1" opacity="0.75" />
			</g>
		</g>
		<g>
			<title> (ctg7_160)</title>
			<polygon class=" (ctg7_160)" points="544,40 563,10 563,70" fill="rgb(255,255,255)" fill-opacity="1.0" stroke="rgb(0,0,0)" stroke-width="2"  />
			<g>
				<title>PepSY (PF03413)
"Peptidase propeptide and YPEB domain"</title>
				<polygon class="PF03413" points="551,35 556,28 557,28 557,52 556,52 551,45" stroke-linejoin="round" width="6" height="24" fill="rgb(127,66,203)" stroke="rgb(101,52,162)" stroke-width="1" opacity="0.75" />
			</g>
		</g>
		<g>
			<title> (ctg7_161)</title>
			<polygon class=" (ctg7_161)" points="570,10 578,40 570,70" fill="rgb(255,255,255)" fill-opacity="1.0" stroke="rgb(0,0,0)" stroke-width="2"  />
		</g>
		<g>
			<title> (ctg7_162)</title>
			<polygon class=" (ctg7_162)" points="578,40 603,10 603,70" fill="rgb(255,255,255)" fill-opacity="1.0" stroke="rgb(0,0,0)" stroke-width="2"  />
			<g>
				<title>adh_short (PF00106)
"short chain dehydrogenase"</title>
				<polygon class="PF00106" points="582,40 592,28 602,28 602,52 592,52 582,40" stroke-linejoin="round" width="20" height="24" fill="rgb(182,219,73)" stroke="rgb(145,175,58)" stroke-width="1" opacity="0.75" />
			</g>
		</g>
		<g>
			<title> (ctg7_163)</title>
			<polygon class=" (ctg7_163)" points="614,10 639,40 614,70" fill="rgb(255,255,255)" fill-opacity="1.0" stroke="rgb(0,0,0)" stroke-width="2"  />
		</g>
		<g>
			<title> (ctg7_164)</title>
			<polygon class=" (ctg7_164)" points="639,10 649,40 639,70" fill="rgb(255,255,255)" fill-opacity="1.0" stroke="rgb(0,0,0)" stroke-width="2"  />
		</g>
		<g>
			<title> (ctg7_165)</title>
			<polygon class=" (ctg7_165)" points="650,40 675,10 675,70" fill="rgb(255,255,255)" fill-opacity="1.0" stroke="rgb(0,0,0)" stroke-width="2"  />
			<g>
				<title>FR47 (PF08445)
"FR47-like protein"</title>
				<polygon class="PF08445" points="654,40 658,35 658,45" stroke-linejoin="round" width="8" height="24" fill="rgb(215,89,80)" stroke="rgb(172,71,64)" stroke-width="1" opacity="0.75" />
			</g>
		</g>
		<g>
			<title> (ctg7_166)</title>
			<polygon class=" (ctg7_166)" points="775,25 706,25 706,10 676,40 706,70 706,55 775,55" fill="rgb(255,255,255)" fill-opacity="1.0" stroke="rgb(0,0,0)" stroke-width="2"  />
			<g>
				<title>Thioesterase (PF00975)
"Thioesterase domain"</title>
				<polygon class="PF00975" points="687,33 692,28 703,28 703,52 692,52 687,47" stroke-linejoin="round" width="16" height="24" fill="rgb(207,80,138)" stroke="rgb(165,63,110)" stroke-width="1" opacity="0.75" />
			</g>
			<g>
				<title>PP-binding (PF00550)
"Phosphopantetheine attachment site"</title>
				<rect class="PF00550" x="706" y="28" stroke-linejoin="round" width="6" height="24" fill="rgb(103,191,88)" stroke="rgb(82,152,70)" stroke-width="1" opacity="0.75" />
			</g>
			<g>
				<title>AMP-binding_C (PF13193)
"AMP-binding enzyme C-terminal domain"</title>
				<rect class="PF13193" x="715" y="28" stroke-linejoin="round" width="7" height="24" fill="rgb(182,50,118)" stroke="rgb(145,39,94)" stroke-width="1" opacity="0.75" />
			</g>
			<g>
				<title>AMP-binding (PF00501)
"AMP-binding enzyme"</title>
				<rect class="PF00501" x="723" y="28" stroke-linejoin="round" width="39" height="24" fill="rgb(60,217,223)" stroke="rgb(48,173,178)" stroke-width="1" opacity="0.75" />
			</g>
		</g>
		<g>
			<title> (ctg7_167)</title>
			<polygon class=" (ctg7_167)" points="781,25 786,25 786,10 816,40 786,70 786,55 781,55" fill="rgb(255,255,255)" fill-opacity="1.0" stroke="rgb(0,0,0)" stroke-width="2"  />
			<g>
				<title>Acetyltransf_8 (PF13523)
"Acetyltransferase (GNAT) domain"</title>
				<polygon class="PF13523" points="798,28 800,28 812,40 812,40 800,52 798,52" stroke-linejoin="round" width="14" height="24" fill="rgb(106,224,203)" stroke="rgb(84,179,162)" stroke-width="1" opacity="0.75" />
			</g>
		</g>
		<g>
			<title> (ctg7_168)</title>
			<polygon class=" (ctg7_168)" points="818,25 832,25 832,10 862,40 832,70 832,55 818,55" fill="rgb(255,255,255)" fill-opacity="1.0" stroke="rgb(0,0,0)" stroke-width="2"  />
			<g>
				<title>Lys_Orn_oxgnase (PF13434)
"L-lysine 6-monooxygenase/L-ornithine 5-monooxygenase"</title>
				<polygon class="PF13434" points="818,28 846,28 853,35 853,45 846,52 818,52" stroke-linejoin="round" width="35" height="24" fill="rgb(81,213,119)" stroke="rgb(64,170,95)" stroke-width="1" opacity="0.75" />
			</g>
		</g>
		<g>
			<title> (ctg7_169)</title>
			<polygon class=" (ctg7_169)" points="862,25 879,25 879,10 909,40 879,70 879,55 862,55" fill="rgb(255,255,255)" fill-opacity="1.0" stroke="rgb(0,0,0)" stroke-width="2"  />
			<g>
				<title>MatE (PF01554)
"MatE"</title>
				<rect class="PF01554" x="864" y="28" stroke-linejoin="round" width="16" height="24" fill="rgb(187,69,173)" stroke="rgb(149,55,138)" stroke-width="1" opacity="0.75" />
			</g>
			<g>
				<title>MatE (PF01554)
"MatE"</title>
				<polygon class="PF01554" points="886,28 892,28 902,38 902,42 892,52 886,52" stroke-linejoin="round" width="16" height="24" fill="rgb(187,69,173)" stroke="rgb(149,55,138)" stroke-width="1" opacity="0.75" />
			</g>
		</g>
		<g>
			<title> (ctg7_170)</title>
			<polygon class=" (ctg7_170)" points="938,10 951,40 938,70" fill="rgb(255,255,255)" fill-opacity="1.0" stroke="rgb(0,0,0)" stroke-width="2"  />
			<g>
				<title>DUF3307 (PF11750)
"Protein of unknown function (DUF3307)"</title>
				<polygon class="PF11750" points="939,28 942,28 947,40 942,52 939,52" stroke-linejoin="round" width="11" height="24" fill="rgb(209,90,195)" stroke="rgb(167,72,156)" stroke-width="1" opacity="0.75" />
			</g>
		</g>
		<g>
			<title> (ctg7_171)</title>
			<polygon class=" (ctg7_171)" points="1025,25 982,25 982,10 952,40 982,70 982,55 1025,55" fill="rgb(255,255,255)" fill-opacity="1.0" stroke="rgb(0,0,0)" stroke-width="2"  />
			<g>
				<title>cNMP_binding (PF00027)
"Cyclic nucleotide-binding domain"</title>
				<polygon class="PF00027" points="956,40 963,33 963,47" stroke-linejoin="round" width="8" height="24" fill="rgb(138,95,204)" stroke="rgb(110,76,163)" stroke-width="1" opacity="0.75" />
			</g>
			<g>
				<title>STAS (PF01740)
"STAS domain"</title>
				<polygon class="PF01740" points="968,28 968,28 978,28 978,52 968,52 968,52" stroke-linejoin="round" width="10" height="24" fill="rgb(219,58,116)" stroke="rgb(175,46,92)" stroke-width="1" opacity="0.75" />
			</g>
			<g>
				<title>Sulfate_transp (PF00916)
"Sulfate permease family"</title>
				<rect class="PF00916" x="984" y="28" stroke-linejoin="round" width="40" height="24" fill="rgb(189,61,212)" stroke="rgb(151,48,169)" stroke-width="1" opacity="0.75" />
			</g>
		</g>
		<g>
			<title> (ctg7_172)</title>
			<polygon class=" (ctg7_172)" points="1047,40 1056,10 1056,70" fill="rgb(255,255,255)" fill-opacity="1.0" stroke="rgb(0,0,0)" stroke-width="2"  />
		</g>
		<g>
			<title> (ctg7_173)</title>
			<polygon class=" (ctg7_173)" points="1100,25 1091,25 1091,10 1061,40 1091,70 1091,55 1100,55" fill="rgb(255,255,255)" fill-opacity="1.0" stroke="rgb(0,0,0)" stroke-width="2"  />
			<g>
				<title>Bac_luciferase (PF00296)
"Luciferase-like monooxygenase"</title>
				<polygon class="PF00296" points="1067,38 1077,28 1099,28 1099,52 1077,52 1067,42" stroke-linejoin="round" width="32" height="24" fill="rgb(180,112,78)" stroke="rgb(144,89,62)" stroke-width="1" opacity="0.75" />
			</g>
		</g>
		<g>
			<title> (ctg7_174)</title>
			<polygon class=" (ctg7_174)" points="1104,40 1132,10 1132,70" fill="rgb(255,255,255)" fill-opacity="1.0" stroke="rgb(0,0,0)" stroke-width="2"  />
			<g>
				<title>ABC_tran (PF00005)
"ABC transporter"</title>
				<polygon class="PF00005" points="1112,36 1119,28 1126,28 1126,52 1119,52 1112,44" stroke-linejoin="round" width="14" height="24" fill="rgb(129,201,63)" stroke="rgb(103,160,50)" stroke-width="1" opacity="0.75" />
			</g>
		</g>
		<g>
			<title> (ctg7_175)</title>
			<polygon class=" (ctg7_175)" points="1132,40 1158,10 1158,70" fill="rgb(255,255,255)" fill-opacity="1.0" stroke="rgb(0,0,0)" stroke-width="2"  />
			<g>
				<title>BPD_transp_1 (PF00528)
"Binding-protein-dependent transport system inner membrane component"</title>
				<polygon class="PF00528" points="1136,40 1146,28 1150,28 1150,52 1146,52" stroke-linejoin="round" width="17" height="24" fill="rgb(77,208,225)" stroke="rgb(61,166,180)" stroke-width="1" opacity="0.75" />
			</g>
		</g>
		<g>
			<title> (ctg7_176)</title>
			<polygon class=" (ctg7_176)" points="1193,25 1188,25 1188,10 1158,40 1188,70 1188,55 1193,55" fill="rgb(255,255,255)" fill-opacity="1.0" stroke="rgb(0,0,0)" stroke-width="2"  />
			<g>
				<title>NMT1_2 (PF13379)
"NMT1-like family"</title>
				<polygon class="PF13379" points="1165,37 1174,28 1188,28 1188,52 1174,52 1165,43" stroke-linejoin="round" width="23" height="24" fill="rgb(139,182,81)" stroke="rgb(111,145,64)" stroke-width="1" opacity="0.75" />
			</g>
		</g>
		<g>
			<title> (ctg7_177)</title>
			<polygon class=" (ctg7_177)" points="1226,25 1224,25 1224,10 1194,40 1224,70 1224,55 1226,55" fill="rgb(255,255,255)" fill-opacity="1.0" stroke="rgb(0,0,0)" stroke-width="2"  />
			<g>
				<title>NMT1_2 (PF13379)
"NMT1-like family"</title>
				<polygon class="PF13379" points="1200,38 1210,28 1223,28 1223,52 1210,52 1200,42" stroke-linejoin="round" width="23" height="24" fill="rgb(139,182,81)" stroke="rgb(111,145,64)" stroke-width="1" opacity="0.75" />
			</g>
		</g>
		<g>
			<title> (ctg7_178)</title>
			<polygon class=" (ctg7_178)" points="1226,40 1245,10 1245,70" fill="rgb(255,255,255)" fill-opacity="1.0" stroke="rgb(0,0,0)" stroke-width="2"  />
			<g>
				<title>FMN_red (PF03358)
"NADPH-dependent FMN reductase"</title>
				<polygon class="PF03358" points="1230,40 1238,28 1244,28 1244,52 1238,52 1230,40" stroke-linejoin="round" width="14" height="24" fill="rgb(90,228,61)" stroke="rgb(72,182,48)" stroke-width="1" opacity="0.75" />
			</g>
		</g>
		<g>
			<title> (ctg7_179)</title>
			<polygon class=" (ctg7_179)" points="1262,40 1273,10 1273,70" fill="rgb(255,255,255)" fill-opacity="1.0" stroke="rgb(0,0,0)" stroke-width="2"  />
		</g>
		<g>
			<title> (ctg7_180)</title>
			<polygon class=" (ctg7_180)" points="1313,25 1309,25 1309,10 1279,40 1309,70 1309,55 1313,55" fill="rgb(255,255,255)" fill-opacity="1.0" stroke="rgb(0,0,0)" stroke-width="2"  />
			<g>
				<title>HWE_HK (PF07536)
"HWE histidine kinase"</title>
				<polygon class="PF07536" points="1290,33 1295,28 1298,28 1298,52 1295,52 1290,47" stroke-linejoin="round" width="8" height="24" fill="rgb(73,191,195)" stroke="rgb(58,152,156)" stroke-width="1" opacity="0.75" />
			</g>
		</g>
		<g>
			<title> (ctg7_181)</title>
			<polygon class=" (ctg7_181)" points="1363,25 1343,25 1343,10 1313,40 1343,70 1343,55 1363,55" fill="rgb(255,255,255)" fill-opacity="1.0" stroke="rgb(0,0,0)" stroke-width="2"  />
			<g>
				<title>ATPase (PF06745)
"KaiC"</title>
				<polygon class="PF06745" points="1317,40 1329,28 1338,28 1338,52 1329,52" stroke-linejoin="round" width="22" height="24" fill="rgb(105,74,229)" stroke="rgb(84,59,183)" stroke-width="1" opacity="0.75" />
			</g>
			<g>
				<title>ATPase (PF06745)
"KaiC"</title>
				<rect class="PF06745" x="1339" y="28" stroke-linejoin="round" width="22" height="24" fill="rgb(105,74,229)" stroke="rgb(84,59,183)" stroke-width="1" opacity="0.75" />
			</g>
		</g>
		<g>
			<title> (ctg7_182)</title>
			<polygon class=" (ctg7_182)" points="1422,25 1401,25 1401,10 1371,40 1401,70 1401,55 1422,55" fill="rgb(255,255,255)" fill-opacity="1.0" stroke="rgb(0,0,0)" stroke-width="2"  />
			<g>
				<title>OprB (PF04966)
"Carbohydrate-selective porin, OprB family"</title>
				<polygon class="PF04966" points="1375,40 1387,28 1409,28 1409,52 1387,52" stroke-linejoin="round" width="37" height="24" fill="rgb(188,181,83)" stroke="rgb(150,144,66)" stroke-width="1" opacity="0.75" />
			</g>
		</g>
	</g>
</svg>
