<svg version="1.1" baseProfile="full" xmlns="http://www.w3.org/2000/svg" width="774.5333333333333" height="80">
	<g>
		<line x1="10" y1="40.0" x2="764.5333333333333" y2="40.0" style="stroke:rgb(70,70,70); stroke-width:3 "/>
		<g>
			<title> (ctg3_110)</title>
			<polygon class=" (ctg3_110)" points="33,25 33,25 33,10 63,40 33,70 33,55 33,55" fill="rgb(255,255,255)" fill-opacity="1.0" stroke="rgb(0,0,0)" stroke-width="2"  />
			<g>
				<title>Inositol_P (PF00459)
"Inositol monophosphatase family"</title>
				<polygon class="PF00459" points="33,28 47,28 59,40 59,40 47,52 33,52" stroke-linejoin="round" width="26" height="24" fill="rgb(67,210,137)" stroke="rgb(53,168,109)" stroke-width="1" opacity="0.75" />
			</g>
		</g>
		<g>
			<title> (ctg3_111)</title>
			<polygon class=" (ctg3_111)" points="101,25 96,25 96,10 66,40 96,70 96,55 101,55" fill="rgb(255,255,255)" fill-opacity="1.0" stroke="rgb(0,0,0)" stroke-width="2"  />
			<g>
				<title>Porin_4 (PF13609)
"Gram-negative porin"</title>
				<polygon class="PF13609" points="70,40 82,28 100,28 100,52 82,52" stroke-linejoin="round" width="32" height="24" fill="rgb(217,146,63)" stroke="rgb(173,116,50)" stroke-width="1" opacity="0.75" />
			</g>
		</g>
		<g>
			<title> (ctg3_112)</title>
			<polygon class=" (ctg3_112)" points="137,25 134,25 134,10 104,40 134,70 134,55 137,55" fill="rgb(255,255,255)" fill-opacity="1.0" stroke="rgb(0,0,0)" stroke-width="2"  />
			<g>
				<title>TctC (PF03401)
"Tripartite tricarboxylate transporter family receptor"</title>
				<polygon class="PF03401" points="108,40 120,28 131,28 131,52 120,52" stroke-linejoin="round" width="27" height="24" fill="rgb(74,93,188)" stroke="rgb(59,74,150)" stroke-width="1" opacity="0.75" />
			</g>
		</g>
		<g>
			<title> (ctg3_113)</title>
			<polygon class=" (ctg3_113)" points="175,25 169,25 169,10 139,40 169,70 169,55 175,55" fill="rgb(255,255,255)" fill-opacity="1.0" stroke="rgb(0,0,0)" stroke-width="2"  />
			<g>
				<title>MR_MLE_C (PF13378)
"Enolase C-terminal domain-like"</title>
				<polygon class="PF13378" points="143,40 155,28 160,28 160,52 155,52" stroke-linejoin="round" width="21" height="24" fill="rgb(191,184,94)" stroke="rgb(152,147,75)" stroke-width="1" opacity="0.75" />
			</g>
			<g>
				<title>MR_MLE_N (PF02746)
"Mandelate racemase / muconate lactonizing enzyme, N-terminal domain"</title>
				<rect class="PF02746" x="162" y="28" stroke-linejoin="round" width="11" height="24" fill="rgb(63,73,226)" stroke="rgb(50,58,180)" stroke-width="1" opacity="0.75" />
			</g>
		</g>
		<g>
			<title> (ctg3_114)</title>
			<polygon class=" (ctg3_114)" points="183,25 184,25 184,10 214,40 184,70 184,55 183,55" fill="rgb(255,255,255)" fill-opacity="1.0" stroke="rgb(0,0,0)" stroke-width="2"  />
			<g>
				<title>NMO (PF03060)
"Nitronate monooxygenase"</title>
				<polygon class="PF03060" points="190,28 198,28 210,40 198,52 190,52" stroke-linejoin="round" width="22" height="24" fill="rgb(100,193,226)" stroke="rgb(80,154,180)" stroke-width="1" opacity="0.75" />
			</g>
		</g>
		<g>
			<title> (ctg3_115)</title>
			<polygon class=" (ctg3_115)" points="217,10 241,40 217,70" fill="rgb(255,255,255)" fill-opacity="1.0" stroke="rgb(0,0,0)" stroke-width="2"  />
			<g>
				<title>ECH_1 (PF00378)
"Enoyl-CoA hydratase/isomerase"</title>
				<polygon class="PF00378" points="217,28 228,28 237,40 228,52 217,52" stroke-linejoin="round" width="23" height="24" fill="rgb(218,72,181)" stroke="rgb(174,57,144)" stroke-width="1" opacity="0.75" />
			</g>
		</g>
		<g>
			<title> (ctg3_116)</title>
			<polygon class=" (ctg3_116)" points="241,25 250,25 250,10 280,40 250,70 250,55 241,55" fill="rgb(255,255,255)" fill-opacity="1.0" stroke="rgb(0,0,0)" stroke-width="2"  />
			<g>
				<title>CoA_transf_3 (PF02515)
"CoA-transferase family III"</title>
				<polygon class="PF02515" points="241,28 264,28 276,40 264,52 241,52" stroke-linejoin="round" width="37" height="24" fill="rgb(226,102,90)" stroke="rgb(180,81,72)" stroke-width="1" opacity="0.75" />
			</g>
		</g>
		<g>
			<title> (ctg3_117)</title>
			<polygon class=" (ctg3_117)" points="282,25 284,25 284,10 314,40 284,70 284,55 282,55" fill="rgb(255,255,255)" fill-opacity="1.0" stroke="rgb(0,0,0)" stroke-width="2"  />
			<g>
				<title>TctC (PF03401)
"Tripartite tricarboxylate transporter family receptor"</title>
				<polygon class="PF03401" points="287,28 298,28 310,40 298,52 287,52" stroke-linejoin="round" width="27" height="24" fill="rgb(74,93,188)" stroke="rgb(59,74,150)" stroke-width="1" opacity="0.75" />
			</g>
		</g>
		<g>
			<title> (ctg3_118)</title>
			<polygon class=" (ctg3_118)" points="317,10 343,40 317,70" fill="rgb(255,255,255)" fill-opacity="1.0" stroke="rgb(0,0,0)" stroke-width="2"  />
			<g>
				<title>ECH_1 (PF00378)
"Enoyl-CoA hydratase/isomerase"</title>
				<polygon class="PF00378" points="319,28 328,28 339,40 328,52 319,52" stroke-linejoin="round" width="24" height="24" fill="rgb(218,72,181)" stroke="rgb(174,57,144)" stroke-width="1" opacity="0.75" />
			</g>
		</g>
		<g>
			<title> (ctg3_119)</title>
			<polygon class=" (ctg3_119)" points="343,25 368,25 368,10 398,40 368,70 368,55 343,55" fill="rgb(255,255,255)" fill-opacity="1.0" stroke="rgb(0,0,0)" stroke-width="2"  />
			<g>
				<title>AMP-binding (PF00501)
"AMP-binding enzyme"</title>
				<polygon class="PF00501" points="344,28 382,28 386,32 386,48 382,52 344,52" stroke-linejoin="round" width="42" height="24" fill="rgb(60,217,223)" stroke="rgb(48,173,178)" stroke-width="1" opacity="0.75" />
			</g>
			<g>
				<title>AMP-binding_C (PF13193)
"AMP-binding enzyme C-terminal domain"</title>
				<polygon class="PF13193" points="388,34 394,40 388,46" stroke-linejoin="round" width="7" height="24" fill="rgb(182,50,118)" stroke="rgb(145,39,94)" stroke-width="1" opacity="0.75" />
			</g>
		</g>
		<g>
			<title> (ctg3_120)</title>
			<polygon class=" (ctg3_120)" points="398,25 400,25 400,10 430,40 400,70 400,55 398,55" fill="rgb(255,255,255)" fill-opacity="1.0" stroke="rgb(0,0,0)" stroke-width="2"  />
			<g>
				<title>HMGL-like (PF00682)
"HMGL-like"</title>
				<polygon class="PF00682" points="399,28 414,28 426,40 414,52 399,52" stroke-linejoin="round" width="28" height="24" fill="rgb(84,228,141)" stroke="rgb(67,182,112)" stroke-width="1" opacity="0.75" />
			</g>
		</g>
		<g>
			<title> (ctg3_121)</title>
			<polygon class=" (ctg3_121)" points="430,10 443,40 430,70" fill="rgb(255,255,255)" fill-opacity="1.0" stroke="rgb(0,0,0)" stroke-width="2"  />
			<g>
				<title>4HBT (PF03061)
"Thioesterase superfamily"</title>
				<polygon class="PF03061" points="434,28 434,28 439,40 434,52 434,52" stroke-linejoin="round" width="7" height="24" fill="rgb(143,103,215)" stroke="rgb(114,82,172)" stroke-width="1" opacity="0.75" />
			</g>
		</g>
		<g>
			<title> (ctg3_122)</title>
			<polygon class=" (ctg3_122)" points="444,10 462,40 444,70" fill="rgb(255,255,255)" fill-opacity="1.0" stroke="rgb(0,0,0)" stroke-width="2"  />
			<g>
				<title>MarR_2 (PF12802)
"MarR family"</title>
				<polygon class="PF12802" points="448,28 451,28 453,31 453,49 451,52 448,52" stroke-linejoin="round" width="5" height="24" fill="rgb(46,89,185)" stroke="rgb(36,71,148)" stroke-width="1" opacity="0.75" />
			</g>
		</g>
		<g>
			<title> (ctg3_123)</title>
			<polygon class=" (ctg3_123)" points="534,25 494,25 494,10 464,40 494,70 494,55 534,55" fill="rgb(255,255,255)" fill-opacity="1.0" stroke="rgb(0,0,0)" stroke-width="2"  />
			<g>
				<title>EFG_C (PF00679)
"Elongation factor G C-terminus"</title>
				<polygon class="PF00679" points="468,40 472,36 472,44" stroke-linejoin="round" width="8" height="24" fill="rgb(136,208,97)" stroke="rgb(108,166,77)" stroke-width="1" opacity="0.75" />
			</g>
			<g>
				<title>EFG_IV (PF03764)
"Elongation factor G, domain IV"</title>
				<polygon class="PF03764" points="473,35 480,28 485,28 485,52 480,52 473,45" stroke-linejoin="round" width="12" height="24" fill="rgb(175,56,200)" stroke="rgb(140,44,160)" stroke-width="1" opacity="0.75" />
			</g>
			<g>
				<title>EFG_III (PF14492)
"Elongation Factor G, domain III"</title>
				<rect class="PF14492" x="485" y="28" stroke-linejoin="round" width="7" height="24" fill="rgb(217,213,86)" stroke="rgb(173,170,68)" stroke-width="1" opacity="0.75" />
			</g>
			<g>
				<title>GTP_EFTU_D2 (PF03144)
"Elongation factor Tu domain 2"</title>
				<rect class="PF03144" x="494" y="28" stroke-linejoin="round" width="6" height="24" fill="rgb(69,184,189)" stroke="rgb(55,147,151)" stroke-width="1" opacity="0.75" />
			</g>
			<g>
				<title>GTP_EFTU (PF00009)
"Elongation factor Tu GTP binding domain"</title>
				<rect class="PF00009" x="505" y="28" stroke-linejoin="round" width="28" height="24" fill="rgb(196,118,83)" stroke="rgb(156,94,66)" stroke-width="1" opacity="0.75" />
			</g>
		</g>
		<g>
			<title> (ctg3_124)</title>
			<polygon class=" (ctg3_124)" points="543,10 554,40 543,70" fill="rgb(255,255,255)" fill-opacity="1.0" stroke="rgb(0,0,0)" stroke-width="2"  />
			<g>
				<title>HTH_20 (PF12840)
"Helix-turn-helix domain"</title>
				<polygon class="PF12840" points="544,28 546,28 549,34 549,46 546,52 544,52" stroke-linejoin="round" width="5" height="24" fill="rgb(157,225,93)" stroke="rgb(125,180,74)" stroke-width="1" opacity="0.75" />
			</g>
		</g>
		<g>
			<title> (ctg3_125)</title>
			<polygon class=" (ctg3_125)" points="556,40 568,10 568,70" fill="rgb(255,255,255)" fill-opacity="1.0" stroke="rgb(0,0,0)" stroke-width="2"  />
		</g>
		<g>
			<title> (ctg3_126)</title>
			<polygon class=" (ctg3_126)" points="573,10 582,40 573,70" fill="rgb(255,255,255)" fill-opacity="1.0" stroke="rgb(0,0,0)" stroke-width="2"  />
			<g>
				<title>HTH_3 (PF01381)
"Helix-turn-helix"</title>
				<polygon class="PF01381" points="575,28 575,28 579,40 575,52 575,52" stroke-linejoin="round" width="5" height="24" fill="rgb(105,79,202)" stroke="rgb(83,63,161)" stroke-width="1" opacity="0.75" />
			</g>
		</g>
		<g>
			<title> (ctg3_127)</title>
			<polygon class=" (ctg3_127)" points="585,10 598,40 585,70" fill="rgb(255,255,255)" fill-opacity="1.0" stroke="rgb(0,0,0)" stroke-width="2"  />
			<g>
				<title>Ank_2 (PF12796)
"Ankyrin repeats (3 copies)"</title>
				<polygon class="PF12796" points="585,28 589,28 595,40 595,40 589,52 585,52" stroke-linejoin="round" width="10" height="24" fill="rgb(151,90,191)" stroke="rgb(120,72,152)" stroke-width="1" opacity="0.75" />
			</g>
		</g>
		<g>
			<title> (ctg3_128)</title>
			<polygon class=" (ctg3_128)" points="668,25 635,25 635,10 605,40 635,70 635,55 668,55" fill="rgb(255,255,255)" fill-opacity="1.0" stroke="rgb(0,0,0)" stroke-width="2"  />
			<g>
				<title>DUF262 (PF03235)
"Protein of unknown function DUF262"</title>
				<rect class="PF03235" x="642" y="28" stroke-linejoin="round" width="24" height="24" fill="rgb(101,154,211)" stroke="rgb(80,123,168)" stroke-width="1" opacity="0.75" />
			</g>
		</g>
		<g>
			<title> (ctg3_129)</title>
			<polygon class=" (ctg3_129)" points="726,25 699,25 699,10 669,40 699,70 699,55 726,55" fill="rgb(255,255,255)" fill-opacity="1.0" stroke="rgb(0,0,0)" stroke-width="2"  />
			<g>
				<title>Methylase_S (PF01420)
"Type I restriction modification DNA specificity domain"</title>
				<polygon class="PF01420" points="673,40 685,28 688,28 688,52 685,52" stroke-linejoin="round" width="18" height="24" fill="rgb(94,156,220)" stroke="rgb(75,124,176)" stroke-width="1" opacity="0.75" />
			</g>
			<g>
				<title>Methylase_S (PF01420)
"Type I restriction modification DNA specificity domain"</title>
				<rect class="PF01420" x="699" y="28" stroke-linejoin="round" width="18" height="24" fill="rgb(94,156,220)" stroke="rgb(75,124,176)" stroke-width="1" opacity="0.75" />
			</g>
		</g>
	</g>
</svg>
