<svg version="1.1" baseProfile="full" xmlns="http://www.w3.org/2000/svg" width="393.03333333333336" height="80">
	<g>
		<line x1="10" y1="40.0" x2="383.03333333333336" y2="40.0" style="stroke:rgb(70,70,70); stroke-width:3 "/>
		<g>
			<title> (ctg11_26)</title>
			<polygon class=" (ctg11_26)" points="16,10 29,40 16,70" fill="rgb(255,255,255)" fill-opacity="1.0" stroke="rgb(0,0,0)" stroke-width="2"  />
			<g>
				<title>SSB (PF00436)
"Single-strand binding protein family"</title>
				<polygon class="PF00436" points="16,28 20,28 25,40 20,52 16,52" stroke-linejoin="round" width="10" height="24" fill="rgb(64,225,98)" stroke="rgb(51,180,78)" stroke-width="1" opacity="0.75" />
			</g>
		</g>
		<g>
			<title> (ctg11_27)</title>
			<polygon class=" (ctg11_27)" points="37,25 51,25 51,10 81,40 51,70 51,55 37,55" fill="rgb(255,255,255)" fill-opacity="1.0" stroke="rgb(0,0,0)" stroke-width="2"  />
		</g>
		<g>
			<title> (ctg11_28)</title>
			<polygon class=" (ctg11_28)" points="81,40 93,10 93,70" fill="rgb(255,255,255)" fill-opacity="1.0" stroke="rgb(0,0,0)" stroke-width="2"  />
		</g>
		<g>
			<title> (ctg11_29)</title>
			<polygon class=" (ctg11_29)" points="142,25 132,25 132,10 102,40 132,70 132,55 142,55" fill="rgb(255,255,255)" fill-opacity="1.0" stroke="rgb(0,0,0)" stroke-width="2"  />
		</g>
		<g>
			<title> (ctg11_30)</title>
			<polygon class=" (ctg11_30)" points="176,25 174,25 174,10 144,40 174,70 174,55 176,55" fill="rgb(255,255,255)" fill-opacity="1.0" stroke="rgb(0,0,0)" stroke-width="2"  />
		</g>
		<g>
			<title> (ctg11_31)</title>
			<polygon class=" (ctg11_31)" points="215,25 206,25 206,10 176,40 206,70 206,55 215,55" fill="rgb(255,255,255)" fill-opacity="1.0" stroke="rgb(0,0,0)" stroke-width="2"  />
			<g>
				<title>YcaO (PF02624)
"YcaO cyclodehydratase, ATP-ad Mg2+-binding"</title>
				<polygon class="PF02624" points="180,40 192,28 210,28 210,52 192,52" stroke-linejoin="round" width="31" height="24" fill="rgb(76,84,185)" stroke="rgb(60,67,148)" stroke-width="1" opacity="0.75" />
			</g>
		</g>
		<g>
			<title> (ctg11_32)</title>
			<polygon class=" (ctg11_32)" points="217,40 223,10 223,70" fill="rgb(255,255,255)" fill-opacity="1.0" stroke="rgb(0,0,0)" stroke-width="2"  />
		</g>
		<g>
			<title> (ctg11_33)</title>
			<polygon class=" (ctg11_33)" points="318,25 256,25 256,10 226,40 256,70 256,55 318,55" fill="rgb(255,255,255)" fill-opacity="1.0" stroke="rgb(0,0,0)" stroke-width="2"  />
		</g>
		<g>
			<title> (ctg11_34)</title>
			<polygon class=" (ctg11_34)" points="327,40 337,10 337,70" fill="rgb(255,255,255)" fill-opacity="1.0" stroke="rgb(0,0,0)" stroke-width="2"  />
			<g>
				<title>Multi_Drug_Res (PF00893)
"Small Multidrug Resistance protein"</title>
				<polygon class="PF00893" points="330,40 334,28 337,28 337,52 334,52" stroke-linejoin="round" width="9" height="24" fill="rgb(199,75,202)" stroke="rgb(159,60,161)" stroke-width="1" opacity="0.75" />
			</g>
		</g>
		<g>
			<title> (ctg11_35)</title>
			<polygon class=" (ctg11_35)" points="337,40 348,10 348,70" fill="rgb(255,255,255)" fill-opacity="1.0" stroke="rgb(0,0,0)" stroke-width="2"  />
			<g>
				<title>Multi_Drug_Res (PF00893)
"Small Multidrug Resistance protein"</title>
				<polygon class="PF00893" points="340,40 345,28 348,28 348,52 345,52" stroke-linejoin="round" width="9" height="24" fill="rgb(199,75,202)" stroke="rgb(159,60,161)" stroke-width="1" opacity="0.75" />
			</g>
		</g>
		<g>
			<title> (ctg11_36)</title>
			<polygon class=" (ctg11_36)" points="349,40 359,10 359,70" fill="rgb(255,255,255)" fill-opacity="1.0" stroke="rgb(0,0,0)" stroke-width="2"  />
			<g>
				<title>TetR_C_28 (PF17937)
"Tetracyclin repressor-like, C-terminal domain"</title>
				<polygon class="PF17937" points="352,40 356,28 358,28 358,52 356,52" stroke-linejoin="round" width="9" height="24" fill="rgb(163,186,58)" stroke="rgb(130,148,46)" stroke-width="1" opacity="0.75" />
			</g>
		</g>
	</g>
</svg>
