<svg version="1.1" baseProfile="full" xmlns="http://www.w3.org/2000/svg" width="1156.5" height="80">
	<g>
		<line x1="10" y1="40.0" x2="1146.5" y2="40.0" style="stroke:rgb(70,70,70); stroke-width:3 "/>
		<g>
			<title> (ctg1_787)</title>
			<polygon class=" (ctg1_787)" points="41,10 62,40 41,70" fill="rgb(255,255,255)" fill-opacity="1.0" stroke="rgb(0,0,0)" stroke-width="2"  />
			<g>
				<title>TetR_N (PF00440)
"Bacterial regulatory proteins, tetR family"</title>
				<rect class="PF00440" x="44" y="28" stroke-linejoin="round" width="4" height="24" fill="rgb(73,212,190)" stroke="rgb(58,169,152)" stroke-width="1" opacity="0.75" />
			</g>
		</g>
		<g>
			<title> (ctg1_788)</title>
			<polygon class=" (ctg1_788)" points="62,10 81,40 62,70" fill="rgb(255,255,255)" fill-opacity="1.0" stroke="rgb(0,0,0)" stroke-width="2"  />
			<g>
				<title>Acetyltransf_3 (PF13302)
"Acetyltransferase (GNAT) domain"</title>
				<polygon class="PF13302" points="63,28 70,28 77,39 77,41 70,52 63,52" stroke-linejoin="round" width="14" height="24" fill="rgb(105,146,215)" stroke="rgb(84,116,172)" stroke-width="1" opacity="0.75" />
			</g>
		</g>
		<g>
			<title> (ctg1_789)</title>
			<polygon class=" (ctg1_789)" points="98,10 104,40 98,70" fill="rgb(255,255,255)" fill-opacity="1.0" stroke="rgb(0,0,0)" stroke-width="2"  />
			<g>
				<title>CSD (PF00313)
"'Cold-shock' DNA-binding domain"</title>
				<polygon class="PF00313" points="98,28 98,28 101,40 98,52 98,52" stroke-linejoin="round" width="6" height="24" fill="rgb(87,72,181)" stroke="rgb(69,57,144)" stroke-width="1" opacity="0.75" />
			</g>
		</g>
		<g>
			<title> (ctg1_790)</title>
			<polygon class=" (ctg1_790)" points="114,40 136,10 136,70" fill="rgb(255,255,255)" fill-opacity="1.0" stroke="rgb(0,0,0)" stroke-width="2"  />
			<g>
				<title>HAD_2 (PF13419)
"Haloacid dehalogenase-like hydrolase"</title>
				<polygon class="PF13419" points="118,40 127,28 135,28 135,52 127,52" stroke-linejoin="round" width="18" height="24" fill="rgb(60,223,188)" stroke="rgb(48,178,150)" stroke-width="1" opacity="0.75" />
			</g>
		</g>
		<g>
			<title> (ctg1_791)</title>
			<polygon class=" (ctg1_791)" points="139,40 162,10 162,70" fill="rgb(255,255,255)" fill-opacity="1.0" stroke="rgb(0,0,0)" stroke-width="2"  />
			<g>
				<title>NucS (PF01939)
"Endonuclease NucS"</title>
				<polygon class="PF01939" points="143,40 152,28 162,28 162,52 152,52" stroke-linejoin="round" width="23" height="24" fill="rgb(188,51,193)" stroke="rgb(150,40,154)" stroke-width="1" opacity="0.75" />
			</g>
		</g>
		<g>
			<title> (ctg1_792)</title>
			<polygon class=" (ctg1_792)" points="206,25 196,25 196,10 166,40 196,70 196,55 206,55" fill="rgb(255,255,255)" fill-opacity="1.0" stroke="rgb(0,0,0)" stroke-width="2"  />
			<g>
				<title>MFS_1 (PF07690)
"Major Facilitator Superfamily"</title>
				<polygon class="PF07690" points="170,40 182,28 183,28 183,52 182,52" stroke-linejoin="round" width="17" height="24" fill="rgb(193,224,74)" stroke="rgb(154,179,59)" stroke-width="1" opacity="0.75" />
			</g>
			<g>
				<title>MFS_1 (PF07690)
"Major Facilitator Superfamily"</title>
				<polygon class="PF07690" points="182,28 182,28 205,28 205,52 182,52 182,52" stroke-linejoin="round" width="23" height="24" fill="rgb(193,224,74)" stroke="rgb(154,179,59)" stroke-width="1" opacity="0.75" />
			</g>
		</g>
		<g>
			<title> (ctg1_793)</title>
			<polygon class=" (ctg1_793)" points="209,25 215,25 215,10 245,40 215,70 215,55 209,55" fill="rgb(255,255,255)" fill-opacity="1.0" stroke="rgb(0,0,0)" stroke-width="2"  />
			<g>
				<title>LacI (PF00356)
"Bacterial regulatory proteins, lacI family"</title>
				<rect class="PF00356" x="210" y="28" stroke-linejoin="round" width="4" height="24" fill="rgb(66,188,63)" stroke="rgb(52,150,50)" stroke-width="1" opacity="0.75" />
			</g>
			<g>
				<title>Peripla_BP_3 (PF13377)
"Periplasmic binding protein-like domain"</title>
				<polygon class="PF13377" points="227,28 229,28 241,40 229,52 227,52" stroke-linejoin="round" width="17" height="24" fill="rgb(101,208,189)" stroke="rgb(80,166,151)" stroke-width="1" opacity="0.75" />
			</g>
		</g>
		<g>
			<title> (ctg1_794)</title>
			<polygon class=" (ctg1_794)" points="250,25 318,25 318,10 348,40 318,70 318,55 250,55" fill="rgb(255,255,255)" fill-opacity="1.0" stroke="rgb(0,0,0)" stroke-width="2"  />
			<g>
				<title>Proton_antipo_N (PF00662)
"NADH-Ubiquinone oxidoreductase (complex I), chain 5 N-terminus"</title>
				<rect class="PF00662" x="256" y="28" stroke-linejoin="round" width="4" height="24" fill="rgb(120,87,218)" stroke="rgb(96,69,174)" stroke-width="1" opacity="0.75" />
			</g>
			<g>
				<title>Proton_antipo_M (PF00361)
"Proton-conducting membrane transporter"</title>
				<rect class="PF00361" x="263" y="28" stroke-linejoin="round" width="29" height="24" fill="rgb(54,193,132)" stroke="rgb(43,154,105)" stroke-width="1" opacity="0.75" />
			</g>
			<g>
				<title>MbhD (PF13244)
"MBH, subunit D"</title>
				<rect class="PF13244" x="311" y="28" stroke-linejoin="round" width="6" height="24" fill="rgb(225,104,219)" stroke="rgb(180,83,175)" stroke-width="1" opacity="0.75" />
			</g>
			<g>
				<title>MbhE (PF20501)
"MBH, subunit E"</title>
				<rect class="PF20501" x="319" y="28" stroke-linejoin="round" width="9" height="24" fill="rgb(127,69,192)" stroke="rgb(101,55,153)" stroke-width="1" opacity="0.75" />
			</g>
			<g>
				<title>MnhB (PF04039)
"Domain related to MnhB subunit of Na+/H+ antiporter"</title>
				<polygon class="PF04039" points="333,30 343,40 333,50" stroke-linejoin="round" width="12" height="24" fill="rgb(153,222,110)" stroke="rgb(122,177,88)" stroke-width="1" opacity="0.75" />
			</g>
		</g>
		<g>
			<title> (ctg1_795)</title>
			<polygon class=" (ctg1_795)" points="348,10 367,40 348,70" fill="rgb(255,255,255)" fill-opacity="1.0" stroke="rgb(0,0,0)" stroke-width="2"  />
			<g>
				<title>Oxidored_q2 (PF00420)
"NADH-ubiquinone/plastoquinone oxidoreductase chain 4L"</title>
				<polygon class="PF00420" points="348,28 356,28 358,32 358,48 356,52 348,52" stroke-linejoin="round" width="10" height="24" fill="rgb(73,55,194)" stroke="rgb(58,44,155)" stroke-width="1" opacity="0.75" />
			</g>
		</g>
		<g>
			<title> (ctg1_796)</title>
			<polygon class=" (ctg1_796)" points="367,25 389,25 389,10 419,40 389,70 389,55 367,55" fill="rgb(255,255,255)" fill-opacity="1.0" stroke="rgb(0,0,0)" stroke-width="2"  />
			<g>
				<title>Proton_antipo_M (PF00361)
"Proton-conducting membrane transporter"</title>
				<polygon class="PF00361" points="380,28 402,28 408,34 408,46 402,52 380,52" stroke-linejoin="round" width="28" height="24" fill="rgb(54,193,132)" stroke="rgb(43,154,105)" stroke-width="1" opacity="0.75" />
			</g>
		</g>
		<g>
			<title> (ctg1_797)</title>
			<polygon class=" (ctg1_797)" points="419,10 438,40 419,70" fill="rgb(255,255,255)" fill-opacity="1.0" stroke="rgb(0,0,0)" stroke-width="2"  />
			<g>
				<title>MNHE (PF01899)
"Na+/H+ ion antiporter subunit"</title>
				<polygon class="PF01899" points="421,28 427,28 434,40 427,52 421,52" stroke-linejoin="round" width="15" height="24" fill="rgb(77,64,195)" stroke="rgb(61,51,156)" stroke-width="1" opacity="0.75" />
			</g>
		</g>
		<g>
			<title> (ctg1_798)</title>
			<polygon class=" (ctg1_798)" points="438,10 447,40 438,70" fill="rgb(255,255,255)" fill-opacity="1.0" stroke="rgb(0,0,0)" stroke-width="2"  />
			<g>
				<title>MrpF_PhaF (PF04066)
"Multiple resistance and pH regulation protein F (MrpF / PhaF)"</title>
				<polygon class="PF04066" points="441,31 443,40 441,49" stroke-linejoin="round" width="5" height="24" fill="rgb(98,190,89)" stroke="rgb(78,152,71)" stroke-width="1" opacity="0.75" />
			</g>
		</g>
		<g>
			<title> (ctg1_799)</title>
			<polygon class=" (ctg1_799)" points="447,10 460,40 447,70" fill="rgb(255,255,255)" fill-opacity="1.0" stroke="rgb(0,0,0)" stroke-width="2"  />
			<g>
				<title>PhaG_MnhG_YufB (PF03334)
"Na+/H+ antiporter subunit"</title>
				<polygon class="PF03334" points="449,28 451,28 456,40 451,52 449,52" stroke-linejoin="round" width="8" height="24" fill="rgb(111,223,196)" stroke="rgb(88,178,156)" stroke-width="1" opacity="0.75" />
			</g>
		</g>
		<g>
			<title> (ctg1_800)</title>
			<polygon class=" (ctg1_800)" points="485,10 510,40 485,70" fill="rgb(255,255,255)" fill-opacity="1.0" stroke="rgb(0,0,0)" stroke-width="2"  />
		</g>
		<g>
			<title> (ctg1_801)</title>
			<polygon class=" (ctg1_801)" points="510,25 616,25 616,10 646,40 616,70 616,55 510,55" fill="rgb(255,255,255)" fill-opacity="1.0" stroke="rgb(0,0,0)" stroke-width="2"  />
			<g>
				<title>AMP-binding (PF00501)
"AMP-binding enzyme"</title>
				<rect class="PF00501" x="516" y="28" stroke-linejoin="round" width="40" height="24" fill="rgb(60,217,223)" stroke="rgb(48,173,178)" stroke-width="1" opacity="0.75" />
			</g>
			<g>
				<title>PP-binding (PF00550)
"Phosphopantetheine attachment site"</title>
				<rect class="PF00550" x="567" y="28" stroke-linejoin="round" width="6" height="24" fill="rgb(103,191,88)" stroke="rgb(82,152,70)" stroke-width="1" opacity="0.75" />
			</g>
		</g>
		<g>
			<title> (ctg1_802)</title>
			<polygon class=" (ctg1_802)" points="648,25 664,25 664,10 694,40 664,70 664,55 648,55" fill="rgb(255,255,255)" fill-opacity="1.0" stroke="rgb(0,0,0)" stroke-width="2"  />
			<g>
				<title>Peptidase_M1_N (PF17900)
"Peptidase M1 N-terminal domain"</title>
				<rect class="PF17900" x="649" y="28" stroke-linejoin="round" width="17" height="24" fill="rgb(63,189,168)" stroke="rgb(50,151,134)" stroke-width="1" opacity="0.75" />
			</g>
			<g>
				<title>Peptidase_M1 (PF01433)
"Peptidase family M1 domain"</title>
				<polygon class="PF01433" points="671,28 678,28 690,40 690,40 678,52 671,52" stroke-linejoin="round" width="19" height="24" fill="rgb(173,57,219)" stroke="rgb(138,45,175)" stroke-width="1" opacity="0.75" />
			</g>
		</g>
		<g>
			<title> (ctg1_803)</title>
			<polygon class=" (ctg1_803)" points="699,10 722,40 699,70" fill="rgb(255,255,255)" fill-opacity="1.0" stroke="rgb(0,0,0)" stroke-width="2"  />
			<g>
				<title>Acetyltransf_10 (PF13673)
"Acetyltransferase (GNAT) domain"</title>
				<polygon class="PF13673" points="713,33 718,40 713,47" stroke-linejoin="round" width="8" height="24" fill="rgb(88,180,95)" stroke="rgb(70,144,76)" stroke-width="1" opacity="0.75" />
			</g>
		</g>
		<g>
			<title> (ctg1_804)</title>
			<polygon class=" (ctg1_804)" points="769,25 752,25 752,10 722,40 752,70 752,55 769,55" fill="rgb(255,255,255)" fill-opacity="1.0" stroke="rgb(0,0,0)" stroke-width="2"  />
			<g>
				<title>MFS_1 (PF07690)
"Major Facilitator Superfamily"</title>
				<polygon class="PF07690" points="727,39 738,28 766,28 766,52 738,52 727,41" stroke-linejoin="round" width="39" height="24" fill="rgb(193,224,74)" stroke="rgb(154,179,59)" stroke-width="1" opacity="0.75" />
			</g>
		</g>
		<g>
			<title> (ctg1_805)</title>
			<polygon class=" (ctg1_805)" points="770,40 785,10 785,70" fill="rgb(255,255,255)" fill-opacity="1.0" stroke="rgb(0,0,0)" stroke-width="2"  />
			<g>
				<title>MarR_2 (PF12802)
"MarR family"</title>
				<polygon class="PF12802" points="775,36 779,28 780,28 780,52 779,52 775,44" stroke-linejoin="round" width="5" height="24" fill="rgb(46,89,185)" stroke="rgb(36,71,148)" stroke-width="1" opacity="0.75" />
			</g>
		</g>
		<g>
			<title> (ctg1_806)</title>
			<polygon class=" (ctg1_806)" points="787,10 806,40 787,70" fill="rgb(255,255,255)" fill-opacity="1.0" stroke="rgb(0,0,0)" stroke-width="2"  />
			<g>
				<title>Isochorismatase (PF00857)
"Isochorismatase family"</title>
				<polygon class="PF00857" points="787,28 795,28 802,40 795,52 787,52" stroke-linejoin="round" width="17" height="24" fill="rgb(144,224,70)" stroke="rgb(115,179,56)" stroke-width="1" opacity="0.75" />
			</g>
		</g>
		<g>
			<title> (ctg1_807)</title>
			<polygon class=" (ctg1_807)" points="804,40 822,10 822,70" fill="rgb(255,255,255)" fill-opacity="1.0" stroke="rgb(0,0,0)" stroke-width="2"  />
		</g>
		<g>
			<title> (ctg1_808)</title>
			<polygon class=" (ctg1_808)" points="825,25 844,25 844,10 874,40 844,70 844,55 825,55" fill="rgb(255,255,255)" fill-opacity="1.0" stroke="rgb(0,0,0)" stroke-width="2"  />
			<g>
				<title>GCS2 (PF04107)
"Glutamate-cysteine ligase family 2(GCS2)"</title>
				<rect class="PF04107" x="843" y="28" stroke-linejoin="round" width="13" height="24" fill="rgb(67,145,225)" stroke="rgb(53,116,180)" stroke-width="1" opacity="0.75" />
			</g>
		</g>
		<g>
			<title> (ctg1_809)</title>
			<polygon class=" (ctg1_809)" points="876,40 901,10 901,70" fill="rgb(255,255,255)" fill-opacity="1.0" stroke="rgb(0,0,0)" stroke-width="2"  />
			<g>
				<title>Abhydrolase_6 (PF12697)
"Alpha/beta hydrolase family"</title>
				<polygon class="PF12697" points="880,40 890,28 896,28 896,52 890,52" stroke-linejoin="round" width="20" height="24" fill="rgb(113,71,219)" stroke="rgb(90,56,175)" stroke-width="1" opacity="0.75" />
			</g>
		</g>
		<g>
			<title> (ctg1_810)</title>
			<polygon class=" (ctg1_810)" points="980,25 947,25 947,10 917,40 947,70 947,55 980,55" fill="rgb(255,255,255)" fill-opacity="1.0" stroke="rgb(0,0,0)" stroke-width="2"  />
			<g>
				<title>ABC2_membrane_3 (PF12698)
"ABC-2 family transporter protein"</title>
				<polygon class="PF12698" points="921,40 933,28 977,28 977,52 933,52" stroke-linejoin="round" width="58" height="24" fill="rgb(151,189,55)" stroke="rgb(120,151,44)" stroke-width="1" opacity="0.75" />
			</g>
		</g>
		<g>
			<title> (ctg1_811)</title>
			<polygon class=" (ctg1_811)" points="1012,25 1011,25 1011,10 981,40 1011,70 1011,55 1012,55" fill="rgb(255,255,255)" fill-opacity="1.0" stroke="rgb(0,0,0)" stroke-width="2"  />
		</g>
		<g>
			<title> (ctg1_812)</title>
			<polygon class=" (ctg1_812)" points="1011,40 1033,10 1033,70" fill="rgb(255,255,255)" fill-opacity="1.0" stroke="rgb(0,0,0)" stroke-width="2"  />
			<g>
				<title>TetR_N (PF00440)
"Bacterial regulatory proteins, tetR family"</title>
				<rect class="PF00440" x="1026" y="28" stroke-linejoin="round" width="4" height="24" fill="rgb(73,212,190)" stroke="rgb(58,169,152)" stroke-width="1" opacity="0.75" />
			</g>
		</g>
		<g>
			<title> (ctg1_813)</title>
			<polygon class=" (ctg1_813)" points="1041,10 1063,40 1041,70" fill="rgb(255,255,255)" fill-opacity="1.0" stroke="rgb(0,0,0)" stroke-width="2"  />
		</g>
		<g>
			<title> (ctg1_814)</title>
			<polygon class=" (ctg1_814)" points="1121,25 1097,25 1097,10 1067,40 1097,70 1097,55 1121,55" fill="rgb(255,255,255)" fill-opacity="1.0" stroke="rgb(0,0,0)" stroke-width="2"  />
			<g>
				<title>Arginosuc_synth (PF00764)
"Arginosuccinate synthase"</title>
				<polygon class="PF00764" points="1073,38 1083,28 1113,28 1113,52 1083,52 1073,42" stroke-linejoin="round" width="40" height="24" fill="rgb(93,212,110)" stroke="rgb(74,169,88)" stroke-width="1" opacity="0.75" />
			</g>
		</g>
		<g>
			<title> (ctg1_815)</title>
			<polygon class=" (ctg1_815)" points="1122,10 1130,40 1122,70" fill="rgb(255,255,255)" fill-opacity="1.0" stroke="rgb(0,0,0)" stroke-width="2"  />
		</g>
	</g>
</svg>
