<svg version="1.1" baseProfile="full" xmlns="http://www.w3.org/2000/svg" width="1497.0333333333333" height="80">
	<g>
		<line x1="10" y1="40.0" x2="1487.0333333333333" y2="40.0" style="stroke:rgb(70,70,70); stroke-width:3 "/>
		<g>
			<title> (ctg2_577)</title>
			<polygon class=" (ctg2_577)" points="41,25 47,25 47,10 77,40 47,70 47,55 41,55" fill="rgb(255,255,255)" fill-opacity="1.0" stroke="rgb(0,0,0)" stroke-width="2"  />
			<g>
				<title>Aminotran_5 (PF00266)
"Aminotransferase class-V"</title>
				<polygon class="PF00266" points="43,28 61,28 73,40 61,52 43,52" stroke-linejoin="round" width="33" height="24" fill="rgb(214,54,122)" stroke="rgb(171,43,97)" stroke-width="1" opacity="0.75" />
			</g>
		</g>
		<g>
			<title> (ctg2_578)</title>
			<polygon class=" (ctg2_578)" points="80,10 93,40 80,70" fill="rgb(255,255,255)" fill-opacity="1.0" stroke="rgb(0,0,0)" stroke-width="2"  />
		</g>
		<g>
			<title> (ctg2_579)</title>
			<polygon class=" (ctg2_579)" points="138,25 123,25 123,10 93,40 123,70 123,55 138,55" fill="rgb(255,255,255)" fill-opacity="1.0" stroke="rgb(0,0,0)" stroke-width="2"  />
			<g>
				<title>MFS_1 (PF07690)
"Major Facilitator Superfamily"</title>
				<polygon class="PF07690" points="106,31 109,28 134,28 134,52 109,52 106,49" stroke-linejoin="round" width="28" height="24" fill="rgb(193,224,74)" stroke="rgb(154,179,59)" stroke-width="1" opacity="0.75" />
			</g>
		</g>
		<g>
			<title> (ctg2_580)</title>
			<polygon class=" (ctg2_580)" points="141,10 160,40 141,70" fill="rgb(255,255,255)" fill-opacity="1.0" stroke="rgb(0,0,0)" stroke-width="2"  />
			<g>
				<title>DUF179 (PF02622)
"Uncharacterized ACR, COG1678"</title>
				<polygon class="PF02622" points="143,28 149,28 157,40 149,52 143,52" stroke-linejoin="round" width="15" height="24" fill="rgb(170,74,192)" stroke="rgb(135,59,153)" stroke-width="1" opacity="0.75" />
			</g>
		</g>
		<g>
			<title> (ctg2_581)</title>
			<polygon class=" (ctg2_581)" points="162,10 182,40 162,70" fill="rgb(255,255,255)" fill-opacity="1.0" stroke="rgb(0,0,0)" stroke-width="2"  />
			<g>
				<title>SNARE_assoc (PF09335)
"SNARE associated Golgi protein"</title>
				<polygon class="PF09335" points="166,28 170,28 178,39 178,41 170,52 166,52" stroke-linejoin="round" width="12" height="24" fill="rgb(145,188,82)" stroke="rgb(116,150,65)" stroke-width="1" opacity="0.75" />
			</g>
		</g>
		<g>
			<title> (ctg2_582)</title>
			<polygon class=" (ctg2_582)" points="215,25 212,25 212,10 182,40 212,70 212,55 215,55" fill="rgb(255,255,255)" fill-opacity="1.0" stroke="rgb(0,0,0)" stroke-width="2"  />
			<g>
				<title>SBF_like (PF13593)
"SBF-like CPA transporter family (DUF4137)"</title>
				<polygon class="PF13593" points="186,40 198,28 213,28 213,52 198,52" stroke-linejoin="round" width="30" height="24" fill="rgb(154,198,90)" stroke="rgb(123,158,72)" stroke-width="1" opacity="0.75" />
			</g>
		</g>
		<g>
			<title> (ctg2_583)</title>
			<polygon class=" (ctg2_583)" points="215,40 234,10 234,70" fill="rgb(255,255,255)" fill-opacity="1.0" stroke="rgb(0,0,0)" stroke-width="2"  />
			<g>
				<title>SdpI (PF13630)
"SdpI/YfhL protein family"</title>
				<polygon class="PF13630" points="223,34 227,28 230,28 230,52 227,52 223,46" stroke-linejoin="round" width="7" height="24" fill="rgb(74,217,194)" stroke="rgb(59,173,155)" stroke-width="1" opacity="0.75" />
			</g>
		</g>
		<g>
			<title> (ctg2_584)</title>
			<polygon class=" (ctg2_584)" points="238,25 303,25 303,10 333,40 303,70 303,55 238,55" fill="rgb(255,255,255)" fill-opacity="1.0" stroke="rgb(0,0,0)" stroke-width="2"  />
			<g>
				<title>tRNA-synt_1g (PF09334)
"tRNA synthetases class I (M)"</title>
				<rect class="PF09334" x="244" y="28" stroke-linejoin="round" width="11" height="24" fill="rgb(105,223,202)" stroke="rgb(84,178,161)" stroke-width="1" opacity="0.75" />
			</g>
			<g>
				<title>tRNA-synt_1_2 (PF13603)
"Leucyl-tRNA synthetase, Domain 2"</title>
				<rect class="PF13603" x="268" y="28" stroke-linejoin="round" width="19" height="24" fill="rgb(195,72,175)" stroke="rgb(156,57,140)" stroke-width="1" opacity="0.75" />
			</g>
			<g>
				<title>Anticodon_1 (PF08264)
"Anticodon-binding domain of tRNA ligase"</title>
				<polygon class="PF08264" points="318,29 329,40 318,51" stroke-linejoin="round" width="12" height="24" fill="rgb(85,52,208)" stroke="rgb(68,41,166)" stroke-width="1" opacity="0.75" />
			</g>
		</g>
		<g>
			<title> (ctg2_585)</title>
			<polygon class=" (ctg2_585)" points="377,25 367,25 367,10 337,40 367,70 367,55 377,55" fill="rgb(255,255,255)" fill-opacity="1.0" stroke="rgb(0,0,0)" stroke-width="2"  />
			<g>
				<title>RtcB (PF01139)
"tRNA-splicing ligase RtcB"</title>
				<polygon class="PF01139" points="341,40 353,28 374,28 374,52 353,52" stroke-linejoin="round" width="37" height="24" fill="rgb(183,76,169)" stroke="rgb(146,60,135)" stroke-width="1" opacity="0.75" />
			</g>
		</g>
		<g>
			<title> (ctg2_586)</title>
			<polygon class=" (ctg2_586)" points="378,40 393,10 393,70" fill="rgb(255,255,255)" fill-opacity="1.0" stroke="rgb(0,0,0)" stroke-width="2"  />
			<g>
				<title>HNH_5 (PF14279)
"HNH endonuclease"</title>
				<polygon class="PF14279" points="381,40 384,34 384,46" stroke-linejoin="round" width="5" height="24" fill="rgb(81,194,210)" stroke="rgb(64,155,168)" stroke-width="1" opacity="0.75" />
			</g>
		</g>
		<g>
			<title> (ctg2_587)</title>
			<polygon class=" (ctg2_587)" points="401,10 415,40 401,70" fill="rgb(255,255,255)" fill-opacity="1.0" stroke="rgb(0,0,0)" stroke-width="2"  />
		</g>
		<g>
			<title> (ctg2_588)</title>
			<polygon class=" (ctg2_588)" points="451,25 446,25 446,10 416,40 446,70 446,55 451,55" fill="rgb(255,255,255)" fill-opacity="1.0" stroke="rgb(0,0,0)" stroke-width="2"  />
			<g>
				<title>DUF2804 (PF10974)
"Protein of unknown function (DUF2804)"</title>
				<polygon class="PF10974" points="420,40 432,28 449,28 449,52 432,52" stroke-linejoin="round" width="33" height="24" fill="rgb(175,184,88)" stroke="rgb(140,147,70)" stroke-width="1" opacity="0.75" />
			</g>
		</g>
		<g>
			<title> (ctg2_589)</title>
			<polygon class=" (ctg2_589)" points="454,25 463,25 463,10 493,40 463,70 463,55 454,55" fill="rgb(255,255,255)" fill-opacity="1.0" stroke="rgb(0,0,0)" stroke-width="2"  />
			<g>
				<title>Acyl-CoA_dh_M (PF02770)
"Acyl-CoA dehydrogenase, middle domain"</title>
				<rect class="PF02770" x="466" y="28" stroke-linejoin="round" width="9" height="24" fill="rgb(225,186,97)" stroke="rgb(180,148,77)" stroke-width="1" opacity="0.75" />
			</g>
			<g>
				<title>Acyl-CoA_dh_1 (PF00441)
"Acyl-CoA dehydrogenase, C-terminal domain"</title>
				<polygon class="PF00441" points="477,28 477,28 489,40 477,52 477,52" stroke-linejoin="round" width="15" height="24" fill="rgb(85,191,117)" stroke="rgb(68,152,93)" stroke-width="1" opacity="0.75" />
			</g>
		</g>
		<g>
			<title> (ctg2_590)</title>
			<polygon class=" (ctg2_590)" points="494,40 506,10 506,70" fill="rgb(255,255,255)" fill-opacity="1.0" stroke="rgb(0,0,0)" stroke-width="2"  />
			<g>
				<title>UPF0060 (PF02694)
"Uncharacterised BCR, YnfA/UPF0060 family"</title>
				<polygon class="PF02694" points="497,40 502,28 504,28 504,52 502,52" stroke-linejoin="round" width="10" height="24" fill="rgb(200,87,216)" stroke="rgb(160,69,172)" stroke-width="1" opacity="0.75" />
			</g>
		</g>
		<g>
			<title> (ctg2_591)</title>
			<polygon class=" (ctg2_591)" points="508,10 521,40 508,70" fill="rgb(255,255,255)" fill-opacity="1.0" stroke="rgb(0,0,0)" stroke-width="2"  />
			<g>
				<title>SnoaL_2 (PF12680)
"SnoaL-like domain"</title>
				<polygon class="PF12680" points="509,28 512,28 517,40 512,52 509,52" stroke-linejoin="round" width="10" height="24" fill="rgb(184,69,155)" stroke="rgb(147,55,124)" stroke-width="1" opacity="0.75" />
			</g>
		</g>
		<g>
			<title> (ctg2_592)</title>
			<polygon class=" (ctg2_592)" points="521,40 550,10 550,70" fill="rgb(255,255,255)" fill-opacity="1.0" stroke="rgb(0,0,0)" stroke-width="2"  />
			<g>
				<title>Abhydrolase_1 (PF00561)
"alpha/beta hydrolase fold"</title>
				<polygon class="PF00561" points="534,31 537,28 546,28 546,52 537,52 534,49" stroke-linejoin="round" width="12" height="24" fill="rgb(86,180,151)" stroke="rgb(68,144,120)" stroke-width="1" opacity="0.75" />
			</g>
		</g>
		<g>
			<title> (ctg2_593)</title>
			<polygon class=" (ctg2_593)" points="553,10 573,40 553,70" fill="rgb(255,255,255)" fill-opacity="1.0" stroke="rgb(0,0,0)" stroke-width="2"  />
			<g>
				<title>TetR_C_31 (PF17940)
"Tetracyclin repressor-like, C-terminal domain"</title>
				<polygon class="PF17940" points="561,28 561,28 569,40 561,52 561,52" stroke-linejoin="round" width="11" height="24" fill="rgb(59,82,188)" stroke="rgb(47,65,150)" stroke-width="1" opacity="0.75" />
			</g>
		</g>
		<g>
			<title> (ctg2_594)</title>
			<polygon class=" (ctg2_594)" points="609,25 602,25 602,10 572,40 602,70 602,55 609,55" fill="rgb(255,255,255)" fill-opacity="1.0" stroke="rgb(0,0,0)" stroke-width="2"  />
			<g>
				<title>MFS_1 (PF07690)
"Major Facilitator Superfamily"</title>
				<polygon class="PF07690" points="576,40 588,28 608,28 608,52 588,52" stroke-linejoin="round" width="33" height="24" fill="rgb(193,224,74)" stroke="rgb(154,179,59)" stroke-width="1" opacity="0.75" />
			</g>
		</g>
		<g>
			<title> (ctg2_595)</title>
			<polygon class=" (ctg2_595)" points="617,25 622,25 622,10 652,40 622,70 622,55 617,55" fill="rgb(255,255,255)" fill-opacity="1.0" stroke="rgb(0,0,0)" stroke-width="2"  />
			<g>
				<title>Haem_oxygenas_2 (PF14518)
"Iron-containing redox enzyme"</title>
				<polygon class="PF14518" points="632,28 635,28 647,40 635,52 632,52" stroke-linejoin="round" width="17" height="24" fill="rgb(71,185,105)" stroke="rgb(56,148,84)" stroke-width="1" opacity="0.75" />
			</g>
		</g>
		<g>
			<title> (ctg2_596)</title>
			<polygon class=" (ctg2_596)" points="652,10 676,40 652,70" fill="rgb(255,255,255)" fill-opacity="1.0" stroke="rgb(0,0,0)" stroke-width="2"  />
			<g>
				<title>MTS (PF05175)
"Methyltransferase small domain"</title>
				<polygon class="PF05175" points="654,28 662,28 670,38 670,42 662,52 654,52" stroke-linejoin="round" width="16" height="24" fill="rgb(99,227,110)" stroke="rgb(79,181,88)" stroke-width="1" opacity="0.75" />
			</g>
		</g>
		<g>
			<title> (ctg2_597)</title>
			<polygon class=" (ctg2_597)" points="676,25 789,25 789,10 819,40 789,70 789,55 676,55" fill="rgb(255,255,255)" fill-opacity="1.0" stroke="rgb(0,0,0)" stroke-width="2"  />
			<g>
				<title>Condensation (PF00668)
"Condensation domain"</title>
				<rect class="PF00668" x="676" y="28" stroke-linejoin="round" width="40" height="24" fill="rgb(224,184,98)" stroke="rgb(179,147,78)" stroke-width="1" opacity="0.75" />
			</g>
			<g>
				<title>AMP-binding (PF00501)
"AMP-binding enzyme"</title>
				<rect class="PF00501" x="720" y="28" stroke-linejoin="round" width="38" height="24" fill="rgb(60,217,223)" stroke="rgb(48,173,178)" stroke-width="1" opacity="0.75" />
			</g>
			<g>
				<title>PP-binding (PF00550)
"Phosphopantetheine attachment site"</title>
				<rect class="PF00550" x="770" y="28" stroke-linejoin="round" width="6" height="24" fill="rgb(103,191,88)" stroke="rgb(82,152,70)" stroke-width="1" opacity="0.75" />
			</g>
			<g>
				<title>Condensation (PF00668)
"Condensation domain"</title>
				<polygon class="PF00668" points="780,28 803,28 815,40 803,52 780,52" stroke-linejoin="round" width="36" height="24" fill="rgb(224,184,98)" stroke="rgb(179,147,78)" stroke-width="1" opacity="0.75" />
			</g>
		</g>
		<g>
			<title> (ctg2_598)</title>
			<polygon class=" (ctg2_598)" points="817,40 839,10 839,70" fill="rgb(255,255,255)" fill-opacity="1.0" stroke="rgb(0,0,0)" stroke-width="2"  />
		</g>
		<g>
			<title> (ctg2_599)</title>
			<polygon class=" (ctg2_599)" points="895,25 869,25 869,10 839,40 869,70 869,55 895,55" fill="rgb(255,255,255)" fill-opacity="1.0" stroke="rgb(0,0,0)" stroke-width="2"  />
			<g>
				<title>TPM_phosphatase (PF04536)
"TPM domain"</title>
				<rect class="PF04536" x="879" y="28" stroke-linejoin="round" width="11" height="24" fill="rgb(84,126,184)" stroke="rgb(67,100,147)" stroke-width="1" opacity="0.75" />
			</g>
		</g>
		<g>
			<title> (ctg2_600)</title>
			<polygon class=" (ctg2_600)" points="898,25 915,25 915,10 945,40 915,70 915,55 898,55" fill="rgb(255,255,255)" fill-opacity="1.0" stroke="rgb(0,0,0)" stroke-width="2"  />
			<g>
				<title>NAD_binding_8 (PF13450)
"NAD(P)-binding Rossmann-like domain"</title>
				<rect class="PF13450" x="898" y="28" stroke-linejoin="round" width="6" height="24" fill="rgb(91,180,227)" stroke="rgb(72,144,181)" stroke-width="1" opacity="0.75" />
			</g>
		</g>
		<g>
			<title> (ctg2_601)</title>
			<polygon class=" (ctg2_601)" points="945,40 963,10 963,70" fill="rgb(255,255,255)" fill-opacity="1.0" stroke="rgb(0,0,0)" stroke-width="2"  />
		</g>
		<g>
			<title> (ctg2_602)</title>
			<polygon class=" (ctg2_602)" points="964,40 983,10 983,70" fill="rgb(255,255,255)" fill-opacity="1.0" stroke="rgb(0,0,0)" stroke-width="2"  />
			<g>
				<title>DUF6286 (PF19803)
"Family of unknown function (DUF6286)"</title>
				<polygon class="PF19803" points="968,40 973,32 973,48" stroke-linejoin="round" width="9" height="24" fill="rgb(200,93,109)" stroke="rgb(160,74,87)" stroke-width="1" opacity="0.75" />
			</g>
		</g>
		<g>
			<title> (ctg2_603)</title>
			<polygon class=" (ctg2_603)" points="983,40 998,10 998,70" fill="rgb(255,255,255)" fill-opacity="1.0" stroke="rgb(0,0,0)" stroke-width="2"  />
			<g>
				<title>Asp23 (PF03780)
"Asp23 family, cell envelope-related function"</title>
				<polygon class="PF03780" points="986,40 992,28 996,28 996,52 992,52 986,40" stroke-linejoin="round" width="10" height="24" fill="rgb(195,60,141)" stroke="rgb(156,48,112)" stroke-width="1" opacity="0.75" />
			</g>
		</g>
		<g>
			<title> (ctg2_604)</title>
			<polygon class=" (ctg2_604)" points="998,40 1004,10 1004,70" fill="rgb(255,255,255)" fill-opacity="1.0" stroke="rgb(0,0,0)" stroke-width="2"  />
			<g>
				<title>DUF2273 (PF10031)
"Small integral membrane protein (DUF2273)"</title>
				<polygon class="PF10031" points="1001,40 1003,28 1003,28 1003,52 1003,52" stroke-linejoin="round" width="4" height="24" fill="rgb(203,147,56)" stroke="rgb(162,117,44)" stroke-width="1" opacity="0.75" />
			</g>
		</g>
		<g>
			<title> (ctg2_605)</title>
			<polygon class=" (ctg2_605)" points="1004,40 1013,10 1013,70" fill="rgb(255,255,255)" fill-opacity="1.0" stroke="rgb(0,0,0)" stroke-width="2"  />
		</g>
		<g>
			<title> (ctg2_606)</title>
			<polygon class=" (ctg2_606)" points="1014,40 1030,10 1030,70" fill="rgb(255,255,255)" fill-opacity="1.0" stroke="rgb(0,0,0)" stroke-width="2"  />
			<g>
				<title>Asp23 (PF03780)
"Asp23 family, cell envelope-related function"</title>
				<polygon class="PF03780" points="1017,40 1024,28 1026,28 1026,52 1024,52" stroke-linejoin="round" width="11" height="24" fill="rgb(195,60,141)" stroke="rgb(156,48,112)" stroke-width="1" opacity="0.75" />
			</g>
		</g>
		<g>
			<title> (ctg2_607)</title>
			<polygon class=" (ctg2_607)" points="1035,10 1056,40 1035,70" fill="rgb(255,255,255)" fill-opacity="1.0" stroke="rgb(0,0,0)" stroke-width="2"  />
			<g>
				<title>Sigma70_r2 (PF04542)
"Sigma-70 region 2"</title>
				<rect class="PF04542" x="1038" y="28" stroke-linejoin="round" width="6" height="24" fill="rgb(184,59,197)" stroke="rgb(147,47,157)" stroke-width="1" opacity="0.75" />
			</g>
			<g>
				<title>Sigma70_r4_2 (PF08281)
"Sigma-70, region 4"</title>
				<polygon class="PF08281" points="1048,34 1052,40 1048,46" stroke-linejoin="round" width="5" height="24" fill="rgb(222,103,144)" stroke="rgb(177,82,115)" stroke-width="1" opacity="0.75" />
			</g>
		</g>
		<g>
			<title> (ctg2_608)</title>
			<polygon class=" (ctg2_608)" points="1056,10 1071,40 1056,70" fill="rgb(255,255,255)" fill-opacity="1.0" stroke="rgb(0,0,0)" stroke-width="2"  />
		</g>
		<g>
			<title> (ctg2_609)</title>
			<polygon class=" (ctg2_609)" points="1072,40 1098,10 1098,70" fill="rgb(255,255,255)" fill-opacity="1.0" stroke="rgb(0,0,0)" stroke-width="2"  />
			<g>
				<title>Bac_luciferase (PF00296)
"Luciferase-like monooxygenase"</title>
				<polygon class="PF00296" points="1076,40 1087,28 1097,28 1097,52 1087,52 1076,40" stroke-linejoin="round" width="21" height="24" fill="rgb(180,112,78)" stroke="rgb(144,89,62)" stroke-width="1" opacity="0.75" />
			</g>
		</g>
		<g>
			<title> (ctg2_610)</title>
			<polygon class=" (ctg2_610)" points="1101,10 1122,40 1101,70" fill="rgb(255,255,255)" fill-opacity="1.0" stroke="rgb(0,0,0)" stroke-width="2"  />
			<g>
				<title>Methyltransf_25 (PF13649)
"Methyltransferase domain"</title>
				<polygon class="PF13649" points="1106,28 1110,28 1114,34 1114,46 1110,52 1106,52" stroke-linejoin="round" width="8" height="24" fill="rgb(227,135,74)" stroke="rgb(181,108,59)" stroke-width="1" opacity="0.75" />
			</g>
		</g>
		<g>
			<title> (ctg2_611)</title>
			<polygon class=" (ctg2_611)" points="1130,40 1150,10 1150,70" fill="rgb(255,255,255)" fill-opacity="1.0" stroke="rgb(0,0,0)" stroke-width="2"  />
			<g>
				<title>GerE (PF00196)
"Bacterial regulatory proteins, luxR family"</title>
				<polygon class="PF00196" points="1134,40 1135,39 1135,41" stroke-linejoin="round" width="5" height="24" fill="rgb(219,94,82)" stroke="rgb(175,75,65)" stroke-width="1" opacity="0.75" />
			</g>
			<g>
				<title>Response_reg (PF00072)
"Response regulator receiver domain"</title>
				<polygon class="PF00072" points="1138,34 1142,28 1149,28 1149,52 1142,52 1138,46" stroke-linejoin="round" width="11" height="24" fill="rgb(100,107,203)" stroke="rgb(80,85,162)" stroke-width="1" opacity="0.75" />
			</g>
		</g>
		<g>
			<title> (ctg2_612)</title>
			<polygon class=" (ctg2_612)" points="1189,25 1181,25 1181,10 1151,40 1181,70 1181,55 1189,55" fill="rgb(255,255,255)" fill-opacity="1.0" stroke="rgb(0,0,0)" stroke-width="2"  />
			<g>
				<title>HisKA_3 (PF07730)
"Histidine kinase"</title>
				<polygon class="PF07730" points="1162,33 1167,28 1168,28 1168,52 1167,52 1162,47" stroke-linejoin="round" width="6" height="24" fill="rgb(190,53,146)" stroke="rgb(152,42,116)" stroke-width="1" opacity="0.75" />
			</g>
		</g>
		<g>
			<title> (ctg2_613)</title>
			<polygon class=" (ctg2_613)" points="1189,40 1214,10 1214,70" fill="rgb(255,255,255)" fill-opacity="1.0" stroke="rgb(0,0,0)" stroke-width="2"  />
			<g>
				<title>ABC2_membrane (PF01061)
"ABC-2 type transporter"</title>
				<polygon class="PF01061" points="1194,39 1203,28 1213,28 1213,52 1203,52 1194,41" stroke-linejoin="round" width="19" height="24" fill="rgb(139,217,106)" stroke="rgb(111,173,84)" stroke-width="1" opacity="0.75" />
			</g>
		</g>
		<g>
			<title> (ctg2_614)</title>
			<polygon class=" (ctg2_614)" points="1244,25 1244,25 1244,10 1214,40 1244,70 1244,55 1244,55" fill="rgb(255,255,255)" fill-opacity="1.0" stroke="rgb(0,0,0)" stroke-width="2"  />
			<g>
				<title>ABC_tran (PF00005)
"ABC transporter"</title>
				<polygon class="PF00005" points="1228,30 1230,28 1241,28 1241,52 1230,52 1228,50" stroke-linejoin="round" width="13" height="24" fill="rgb(129,201,63)" stroke="rgb(103,160,50)" stroke-width="1" opacity="0.75" />
			</g>
		</g>
		<g>
			<title> (ctg2_615)</title>
			<polygon class=" (ctg2_615)" points="1245,40 1254,10 1254,70" fill="rgb(255,255,255)" fill-opacity="1.0" stroke="rgb(0,0,0)" stroke-width="2"  />
		</g>
		<g>
			<title> (ctg2_616)</title>
			<polygon class=" (ctg2_616)" points="1259,25 1269,25 1269,10 1299,40 1269,70 1269,55 1259,55" fill="rgb(255,255,255)" fill-opacity="1.0" stroke="rgb(0,0,0)" stroke-width="2"  />
			<g>
				<title>IMS (PF00817)
"impB/mucB/samB family"</title>
				<rect class="PF00817" x="1260" y="28" stroke-linejoin="round" width="14" height="24" fill="rgb(187,207,75)" stroke="rgb(149,165,60)" stroke-width="1" opacity="0.75" />
			</g>
			<g>
				<title>IMS_HHH (PF11798)
"IMS family HHH motif"</title>
				<rect class="PF11798" x="1276" y="28" stroke-linejoin="round" width="3" height="24" fill="rgb(81,199,189)" stroke="rgb(64,159,151)" stroke-width="1" opacity="0.75" />
			</g>
			<g>
				<title>IMS_C (PF11799)
"impB/mucB/samB family C-terminal domain"</title>
				<polygon class="PF11799" points="1283,28 1283,28 1294,39 1294,41 1283,52 1283,52" stroke-linejoin="round" width="11" height="24" fill="rgb(68,195,187)" stroke="rgb(54,156,149)" stroke-width="1" opacity="0.75" />
			</g>
		</g>
		<g>
			<title> (ctg2_617)</title>
			<polygon class=" (ctg2_617)" points="1351,25 1330,25 1330,10 1300,40 1330,70 1330,55 1351,55" fill="rgb(255,255,255)" fill-opacity="1.0" stroke="rgb(0,0,0)" stroke-width="2"  />
			<g>
				<title>DAO_C (PF16901)
"C-terminal domain of alpha-glycerophosphate oxidase"</title>
				<polygon class="PF16901" points="1304,40 1310,34 1310,46" stroke-linejoin="round" width="10" height="24" fill="rgb(196,60,59)" stroke="rgb(156,47,47)" stroke-width="1" opacity="0.75" />
			</g>
			<g>
				<title>DAO (PF01266)
"FAD dependent oxidoreductase"</title>
				<polygon class="PF01266" points="1312,32 1316,28 1347,28 1347,52 1316,52 1312,48" stroke-linejoin="round" width="35" height="24" fill="rgb(123,179,59)" stroke="rgb(98,143,47)" stroke-width="1" opacity="0.75" />
			</g>
		</g>
		<g>
			<title> (ctg2_618)</title>
			<polygon class=" (ctg2_618)" points="1351,40 1372,10 1372,70" fill="rgb(255,255,255)" fill-opacity="1.0" stroke="rgb(0,0,0)" stroke-width="2"  />
			<g>
				<title>TetR_N (PF00440)
"Bacterial regulatory proteins, tetR family"</title>
				<polygon class="PF00440" points="1364,28 1364,28 1368,28 1368,52 1364,52 1364,52" stroke-linejoin="round" width="4" height="24" fill="rgb(73,212,190)" stroke="rgb(58,169,152)" stroke-width="1" opacity="0.75" />
			</g>
		</g>
		<g>
			<title> (ctg2_619)</title>
			<polygon class=" (ctg2_619)" points="1374,25 1397,25 1397,10 1427,40 1397,70 1397,55 1374,55" fill="rgb(255,255,255)" fill-opacity="1.0" stroke="rgb(0,0,0)" stroke-width="2"  />
			<g>
				<title>FAD_binding_4 (PF01565)
"FAD binding domain"</title>
				<rect class="PF01565" x="1384" y="28" stroke-linejoin="round" width="14" height="24" fill="rgb(226,88,136)" stroke="rgb(180,70,108)" stroke-width="1" opacity="0.75" />
			</g>
			<g>
				<title>FAD-oxidase_C (PF02913)
"FAD linked oxidases, C-terminal domain"</title>
				<polygon class="PF02913" points="1401,28 1410,28 1422,40 1410,52 1401,52" stroke-linejoin="round" width="25" height="24" fill="rgb(111,69,188)" stroke="rgb(88,55,150)" stroke-width="1" opacity="0.75" />
			</g>
		</g>
		<g>
			<title> (ctg2_620)</title>
			<polygon class=" (ctg2_620)" points="1427,25 1427,25 1427,10 1457,40 1427,70 1427,55 1427,55" fill="rgb(255,255,255)" fill-opacity="1.0" stroke="rgb(0,0,0)" stroke-width="2"  />
			<g>
				<title>DAGK_cat (PF00781)
"Diacylglycerol kinase catalytic domain"</title>
				<rect class="PF00781" x="1427" y="28" stroke-linejoin="round" width="12" height="24" fill="rgb(92,98,205)" stroke="rgb(73,78,164)" stroke-width="1" opacity="0.75" />
			</g>
			<g>
				<title>YegS_C (PF19279)
"YegS C-terminal NAD kinase beta sandwich-like domain"</title>
				<polygon class="PF19279" points="1441,29 1452,40 1441,51" stroke-linejoin="round" width="15" height="24" fill="rgb(181,52,83)" stroke="rgb(144,41,66)" stroke-width="1" opacity="0.75" />
			</g>
		</g>
	</g>
</svg>
