<svg version="1.1" baseProfile="full" xmlns="http://www.w3.org/2000/svg" width="1632.2666666666667" height="80">
	<g>
		<line x1="10" y1="40.0" x2="1622.2666666666667" y2="40.0" style="stroke:rgb(70,70,70); stroke-width:3 "/>
		<g>
			<title> (ctg1_284)</title>
			<polygon class=" (ctg1_284)" points="23,40 34,10 34,70" fill="rgb(255,255,255)" fill-opacity="1.0" stroke="rgb(0,0,0)" stroke-width="2"  />
		</g>
		<g>
			<title> (ctg1_285)</title>
			<polygon class=" (ctg1_285)" points="35,40 48,10 48,70" fill="rgb(255,255,255)" fill-opacity="1.0" stroke="rgb(0,0,0)" stroke-width="2"  />
		</g>
		<g>
			<title> (ctg1_286)</title>
			<polygon class=" (ctg1_286)" points="85,10 112,40 85,70" fill="rgb(255,255,255)" fill-opacity="1.0" stroke="rgb(0,0,0)" stroke-width="2"  />
			<g>
				<title>Hydrolase_4 (PF12146)
"Serine aminopeptidase, S33"</title>
				<polygon class="PF12146" points="89,28 96,28 104,36 104,44 96,52 89,52" stroke-linejoin="round" width="15" height="24" fill="rgb(140,98,205)" stroke="rgb(112,78,164)" stroke-width="1" opacity="0.75" />
			</g>
		</g>
		<g>
			<title> (ctg1_287)</title>
			<polygon class=" (ctg1_287)" points="114,40 142,10 142,70" fill="rgb(255,255,255)" fill-opacity="1.0" stroke="rgb(0,0,0)" stroke-width="2"  />
			<g>
				<title>HTH_18 (PF12833)
"Helix-turn-helix domain"</title>
				<polygon class="PF12833" points="118,40 121,37 121,43" stroke-linejoin="round" width="7" height="24" fill="rgb(216,58,224)" stroke="rgb(172,46,179)" stroke-width="1" opacity="0.75" />
			</g>
			<g>
				<title>AraC_binding (PF02311)
"AraC-like ligand binding domain"</title>
				<polygon class="PF02311" points="123,35 130,28 137,28 137,52 130,52 123,45" stroke-linejoin="round" width="14" height="24" fill="rgb(81,203,213)" stroke="rgb(64,162,170)" stroke-width="1" opacity="0.75" />
			</g>
		</g>
		<g>
			<title> (ctg1_288)</title>
			<polygon class=" (ctg1_288)" points="143,25 178,25 178,10 208,40 178,70 178,55 143,55" fill="rgb(255,255,255)" fill-opacity="1.0" stroke="rgb(0,0,0)" stroke-width="2"  />
			<g>
				<title>FUSC (PF04632)
"Fusaric acid resistance protein family"</title>
				<rect class="PF04632" x="145" y="28" stroke-linejoin="round" width="25" height="24" fill="rgb(191,67,61)" stroke="rgb(152,53,48)" stroke-width="1" opacity="0.75" />
			</g>
			<g>
				<title>FUSC (PF04632)
"Fusaric acid resistance protein family"</title>
				<polygon class="PF04632" points="170,28 192,28 204,40 192,52 170,52" stroke-linejoin="round" width="37" height="24" fill="rgb(191,67,61)" stroke="rgb(152,53,48)" stroke-width="1" opacity="0.75" />
			</g>
		</g>
		<g>
			<title> (ctg1_289)</title>
			<polygon class=" (ctg1_289)" points="209,10 216,40 209,70" fill="rgb(255,255,255)" fill-opacity="1.0" stroke="rgb(0,0,0)" stroke-width="2"  />
			<g>
				<title>DUF1656 (PF07869)
"Protein of unknown function (DUF1656)"</title>
				<polygon class="PF07869" points="209,28 209,28 212,40 209,52 209,52" stroke-linejoin="round" width="5" height="24" fill="rgb(70,182,47)" stroke="rgb(56,145,37)" stroke-width="1" opacity="0.75" />
			</g>
		</g>
		<g>
			<title> (ctg1_290)</title>
			<polygon class=" (ctg1_290)" points="216,10 245,40 216,70" fill="rgb(255,255,255)" fill-opacity="1.0" stroke="rgb(0,0,0)" stroke-width="2"  />
			<g>
				<title>Biotin_lipoyl_2 (PF13533)
"Biotin-lipoyl like"</title>
				<rect class="PF13533" x="220" y="28" stroke-linejoin="round" width="5" height="24" fill="rgb(229,122,112)" stroke="rgb(183,97,89)" stroke-width="1" opacity="0.75" />
			</g>
		</g>
		<g>
			<title> (ctg1_291)</title>
			<polygon class=" (ctg1_291)" points="245,25 262,25 262,10 292,40 262,70 262,55 245,55" fill="rgb(255,255,255)" fill-opacity="1.0" stroke="rgb(0,0,0)" stroke-width="2"  />
			<g>
				<title>OEP (PF02321)
"Outer membrane efflux protein"</title>
				<rect class="PF02321" x="251" y="28" stroke-linejoin="round" width="18" height="24" fill="rgb(205,57,201)" stroke="rgb(164,45,160)" stroke-width="1" opacity="0.75" />
			</g>
			<g>
				<title>OEP (PF02321)
"Outer membrane efflux protein"</title>
				<polygon class="PF02321" points="273,28 276,28 288,40 276,52 273,52" stroke-linejoin="round" width="17" height="24" fill="rgb(205,57,201)" stroke="rgb(164,45,160)" stroke-width="1" opacity="0.75" />
			</g>
		</g>
		<g>
			<title> (ctg1_292)</title>
			<polygon class=" (ctg1_292)" points="297,10 308,40 297,70" fill="rgb(255,255,255)" fill-opacity="1.0" stroke="rgb(0,0,0)" stroke-width="2"  />
			<g>
				<title>RcnB (PF11776)
"Nickel/cobalt transporter regulator"</title>
				<polygon class="PF11776" points="303,34 305,40 303,46" stroke-linejoin="round" width="5" height="24" fill="rgb(83,57,205)" stroke="rgb(66,45,164)" stroke-width="1" opacity="0.75" />
			</g>
		</g>
		<g>
			<title> (ctg1_293)</title>
			<polygon class=" (ctg1_293)" points="311,10 328,40 311,70" fill="rgb(255,255,255)" fill-opacity="1.0" stroke="rgb(0,0,0)" stroke-width="2"  />
		</g>
		<g>
			<title> (ctg1_294)</title>
			<polygon class=" (ctg1_294)" points="333,10 355,40 333,70" fill="rgb(255,255,255)" fill-opacity="1.0" stroke="rgb(0,0,0)" stroke-width="2"  />
			<g>
				<title>Response_reg (PF00072)
"Response regulator receiver domain"</title>
				<polygon class="PF00072" points="333,28 343,28 344,30 344,50 343,52 333,52" stroke-linejoin="round" width="11" height="24" fill="rgb(100,107,203)" stroke="rgb(80,85,162)" stroke-width="1" opacity="0.75" />
			</g>
			<g>
				<title>Trans_reg_C (PF00486)
"Transcriptional regulatory protein, C terminal"</title>
				<polygon class="PF00486" points="347,34 351,40 347,46" stroke-linejoin="round" width="7" height="24" fill="rgb(204,153,57)" stroke="rgb(163,122,45)" stroke-width="1" opacity="0.75" />
			</g>
		</g>
		<g>
			<title> (ctg1_295)</title>
			<polygon class=" (ctg1_295)" points="355,25 366,25 366,10 396,40 366,70 366,55 355,55" fill="rgb(255,255,255)" fill-opacity="1.0" stroke="rgb(0,0,0)" stroke-width="2"  />
			<g>
				<title>HisKA (PF00512)
"His Kinase A (phospho-acceptor) domain"</title>
				<polygon class="PF00512" points="375,28 379,28 381,30 381,50 379,52 375,52" stroke-linejoin="round" width="6" height="24" fill="rgb(193,125,62)" stroke="rgb(154,100,49)" stroke-width="1" opacity="0.75" />
			</g>
			<g>
				<title>HATPase_c (PF02518)
"Histidine kinase-, DNA gyrase B-, and HSP90-like ATPase"</title>
				<polygon class="PF02518" points="386,35 391,40 386,45" stroke-linejoin="round" width="9" height="24" fill="rgb(80,94,225)" stroke="rgb(64,75,180)" stroke-width="1" opacity="0.75" />
			</g>
		</g>
		<g>
			<title> (ctg1_296)</title>
			<polygon class=" (ctg1_296)" points="398,10 410,40 398,70" fill="rgb(255,255,255)" fill-opacity="1.0" stroke="rgb(0,0,0)" stroke-width="2"  />
			<g>
				<title>DAGK_prokar (PF01219)
"Prokaryotic diacylglycerol kinase"</title>
				<polygon class="PF01219" points="400,28 402,28 407,40 402,52 400,52" stroke-linejoin="round" width="10" height="24" fill="rgb(54,189,137)" stroke="rgb(43,151,109)" stroke-width="1" opacity="0.75" />
			</g>
		</g>
		<g>
			<title> (ctg1_297)</title>
			<polygon class=" (ctg1_297)" points="413,25 443,25 443,10 473,40 443,70 443,55 413,55" fill="rgb(255,255,255)" fill-opacity="1.0" stroke="rgb(0,0,0)" stroke-width="2"  />
			<g>
				<title>EptA_B_N (PF08019)
"Phosphoethanolamine transferase EptA/EptB"</title>
				<rect class="PF08019" x="418" y="28" stroke-linejoin="round" width="15" height="24" fill="rgb(89,124,214)" stroke="rgb(71,99,171)" stroke-width="1" opacity="0.75" />
			</g>
			<g>
				<title>Sulfatase (PF00884)
"Sulfatase"</title>
				<polygon class="PF00884" points="436,28 457,28 465,36 465,44 457,52 436,52" stroke-linejoin="round" width="29" height="24" fill="rgb(61,103,198)" stroke="rgb(48,82,158)" stroke-width="1" opacity="0.75" />
			</g>
		</g>
		<g>
			<title> (ctg1_298)</title>
			<polygon class=" (ctg1_298)" points="500,25 500,25 500,10 470,40 500,70 500,55 500,55" fill="rgb(255,255,255)" fill-opacity="1.0" stroke="rgb(0,0,0)" stroke-width="2"  />
		</g>
		<g>
			<title> (ctg1_299)</title>
			<polygon class=" (ctg1_299)" points="506,10 527,40 506,70" fill="rgb(255,255,255)" fill-opacity="1.0" stroke="rgb(0,0,0)" stroke-width="2"  />
			<g>
				<title>DUF3348 (PF11828)
"Protein of unknown function (DUF3348)"</title>
				<polygon class="PF11828" points="506,28 515,28 524,40 524,40 515,52 506,52" stroke-linejoin="round" width="18" height="24" fill="rgb(62,208,182)" stroke="rgb(49,166,145)" stroke-width="1" opacity="0.75" />
			</g>
		</g>
		<g>
			<title> (ctg1_300)</title>
			<polygon class=" (ctg1_300)" points="528,25 573,25 573,10 603,40 573,70 573,55 528,55" fill="rgb(255,255,255)" fill-opacity="1.0" stroke="rgb(0,0,0)" stroke-width="2"  />
			<g>
				<title>DUF802 (PF05650)
"Domain of unknown function (DUF802)"</title>
				<rect class="PF05650" x="560" y="28" stroke-linejoin="round" width="5" height="24" fill="rgb(140,198,89)" stroke="rgb(112,158,71)" stroke-width="1" opacity="0.75" />
			</g>
		</g>
		<g>
			<title> (ctg1_301)</title>
			<polygon class=" (ctg1_301)" points="603,10 624,40 603,70" fill="rgb(255,255,255)" fill-opacity="1.0" stroke="rgb(0,0,0)" stroke-width="2"  />
			<g>
				<title>OmpA (PF00691)
"OmpA family"</title>
				<polygon class="PF00691" points="612,28 612,28 620,40 612,52 612,52" stroke-linejoin="round" width="10" height="24" fill="rgb(121,200,70)" stroke="rgb(96,160,56)" stroke-width="1" opacity="0.75" />
			</g>
		</g>
		<g>
			<title> (ctg1_302)</title>
			<polygon class=" (ctg1_302)" points="624,10 636,40 624,70" fill="rgb(255,255,255)" fill-opacity="1.0" stroke="rgb(0,0,0)" stroke-width="2"  />
			<g>
				<title>DUF2894 (PF11445)
"Protein of unknown function (DUF2894)"</title>
				<polygon class="PF11445" points="624,28 627,28 633,40 627,52 624,52" stroke-linejoin="round" width="10" height="24" fill="rgb(97,83,206)" stroke="rgb(77,66,164)" stroke-width="1" opacity="0.75" />
			</g>
		</g>
		<g>
			<title> (ctg1_303)</title>
			<polygon class=" (ctg1_303)" points="653,40 667,10 667,70" fill="rgb(255,255,255)" fill-opacity="1.0" stroke="rgb(0,0,0)" stroke-width="2"  />
			<g>
				<title>Y1_Tnp (PF01797)
"Transposase IS200 like"</title>
				<polygon class="PF01797" points="656,40 662,28 666,28 666,52 662,52" stroke-linejoin="round" width="11" height="24" fill="rgb(198,164,60)" stroke="rgb(158,131,47)" stroke-width="1" opacity="0.75" />
			</g>
		</g>
		<g>
			<title> (ctg1_304)</title>
			<polygon class=" (ctg1_304)" points="676,40 701,10 701,70" fill="rgb(255,255,255)" fill-opacity="1.0" stroke="rgb(0,0,0)" stroke-width="2"  />
			<g>
				<title>adh_short_C2 (PF13561)
"Enoyl-(Acyl carrier protein) reductase"</title>
				<polygon class="PF13561" points="680,40 690,28 699,28 699,52 690,52" stroke-linejoin="round" width="23" height="24" fill="rgb(73,205,127)" stroke="rgb(58,164,101)" stroke-width="1" opacity="0.75" />
			</g>
		</g>
		<g>
			<title> (ctg1_305)</title>
			<polygon class=" (ctg1_305)" points="830,25 731,25 731,10 701,40 731,70 731,55 830,55" fill="rgb(255,255,255)" fill-opacity="1.0" stroke="rgb(0,0,0)" stroke-width="2"  />
			<g>
				<title>Thioesterase (PF00975)
"Thioesterase domain"</title>
				<polygon class="PF00975" points="705,40 717,28 726,28 726,52 717,52" stroke-linejoin="round" width="23" height="24" fill="rgb(207,80,138)" stroke="rgb(165,63,110)" stroke-width="1" opacity="0.75" />
			</g>
			<g>
				<title>PP-binding (PF00550)
"Phosphopantetheine attachment site"</title>
				<rect class="PF00550" x="729" y="28" stroke-linejoin="round" width="6" height="24" fill="rgb(103,191,88)" stroke="rgb(82,152,70)" stroke-width="1" opacity="0.75" />
			</g>
			<g>
				<title>AMP-binding_C (PF13193)
"AMP-binding enzyme C-terminal domain"</title>
				<rect class="PF13193" x="738" y="28" stroke-linejoin="round" width="7" height="24" fill="rgb(182,50,118)" stroke="rgb(145,39,94)" stroke-width="1" opacity="0.75" />
			</g>
			<g>
				<title>AMP-binding (PF00501)
"AMP-binding enzyme"</title>
				<rect class="PF00501" x="746" y="28" stroke-linejoin="round" width="39" height="24" fill="rgb(60,217,223)" stroke="rgb(48,173,178)" stroke-width="1" opacity="0.75" />
			</g>
			<g>
				<title>Condensation (PF00668)
"Condensation domain"</title>
				<rect class="PF00668" x="787" y="28" stroke-linejoin="round" width="42" height="24" fill="rgb(224,184,98)" stroke="rgb(179,147,78)" stroke-width="1" opacity="0.75" />
			</g>
		</g>
		<g>
			<title> (ctg1_306)</title>
			<polygon class=" (ctg1_306)" points="831,40 839,10 839,70" fill="rgb(255,255,255)" fill-opacity="1.0" stroke="rgb(0,0,0)" stroke-width="2"  />
			<g>
				<title>PP-binding (PF00550)
"Phosphopantetheine attachment site"</title>
				<polygon class="PF00550" points="834,40 837,28 838,28 838,52 837,52" stroke-linejoin="round" width="6" height="24" fill="rgb(103,191,88)" stroke="rgb(82,152,70)" stroke-width="1" opacity="0.75" />
			</g>
		</g>
		<g>
			<title> (ctg1_307)</title>
			<polygon class=" (ctg1_307)" points="839,40 860,10 860,70" fill="rgb(255,255,255)" fill-opacity="1.0" stroke="rgb(0,0,0)" stroke-width="2"  />
			<g>
				<title>Isochorismatase (PF00857)
"Isochorismatase family"</title>
				<polygon class="PF00857" points="843,40 851,28 856,28 856,52 851,52" stroke-linejoin="round" width="17" height="24" fill="rgb(144,224,70)" stroke="rgb(115,179,56)" stroke-width="1" opacity="0.75" />
			</g>
		</g>
		<g>
			<title> (ctg1_308)</title>
			<polygon class=" (ctg1_308)" points="915,25 890,25 890,10 860,40 890,70 890,55 915,55" fill="rgb(255,255,255)" fill-opacity="1.0" stroke="rgb(0,0,0)" stroke-width="2"  />
			<g>
				<title>AMP-binding_C (PF13193)
"AMP-binding enzyme C-terminal domain"</title>
				<polygon class="PF13193" points="864,40 869,35 869,45" stroke-linejoin="round" width="7" height="24" fill="rgb(182,50,118)" stroke="rgb(145,39,94)" stroke-width="1" opacity="0.75" />
			</g>
			<g>
				<title>AMP-binding (PF00501)
"AMP-binding enzyme"</title>
				<polygon class="PF00501" points="870,34 876,28 910,28 910,52 876,52 870,46" stroke-linejoin="round" width="40" height="24" fill="rgb(60,217,223)" stroke="rgb(48,173,178)" stroke-width="1" opacity="0.75" />
			</g>
		</g>
		<g>
			<title> (ctg1_309)</title>
			<polygon class=" (ctg1_309)" points="954,25 945,25 945,10 915,40 945,70 945,55 954,55" fill="rgb(255,255,255)" fill-opacity="1.0" stroke="rgb(0,0,0)" stroke-width="2"  />
			<g>
				<title>Chorismate_bind (PF00425)
"chorismate binding enzyme"</title>
				<polygon class="PF00425" points="919,40 931,28 943,28 943,52 931,52" stroke-linejoin="round" width="26" height="24" fill="rgb(188,116,88)" stroke="rgb(150,92,70)" stroke-width="1" opacity="0.75" />
			</g>
		</g>
		<g>
			<title> (ctg1_310)</title>
			<polygon class=" (ctg1_310)" points="994,25 985,25 985,10 955,40 985,70 985,55 994,55" fill="rgb(255,255,255)" fill-opacity="1.0" stroke="rgb(0,0,0)" stroke-width="2"  />
			<g>
				<title>MFS_1 (PF07690)
"Major Facilitator Superfamily"</title>
				<polygon class="PF07690" points="970,29 971,28 992,28 992,52 971,52 970,51" stroke-linejoin="round" width="22" height="24" fill="rgb(193,224,74)" stroke="rgb(154,179,59)" stroke-width="1" opacity="0.75" />
			</g>
		</g>
		<g>
			<title> (ctg1_311)</title>
			<polygon class=" (ctg1_311)" points="1000,40 1011,10 1011,70" fill="rgb(255,255,255)" fill-opacity="1.0" stroke="rgb(0,0,0)" stroke-width="2"  />
			<g>
				<title>DUF3817 (PF12823)
"Domain of unknown function (DUF3817)"</title>
				<polygon class="PF12823" points="1003,40 1007,28 1009,28 1009,52 1007,52" stroke-linejoin="round" width="8" height="24" fill="rgb(204,120,58)" stroke="rgb(163,96,46)" stroke-width="1" opacity="0.75" />
			</g>
		</g>
		<g>
			<title> (ctg1_312)</title>
			<polygon class=" (ctg1_312)" points="1045,25 1044,25 1044,10 1014,40 1044,70 1044,55 1045,55" fill="rgb(255,255,255)" fill-opacity="1.0" stroke="rgb(0,0,0)" stroke-width="2"  />
			<g>
				<title>Bac_luciferase (PF00296)
"Luciferase-like monooxygenase"</title>
				<polygon class="PF00296" points="1019,39 1030,28 1043,28 1043,52 1030,52 1019,41" stroke-linejoin="round" width="24" height="24" fill="rgb(180,112,78)" stroke="rgb(144,89,62)" stroke-width="1" opacity="0.75" />
			</g>
		</g>
		<g>
			<title> (ctg1_313)</title>
			<polygon class=" (ctg1_313)" points="1048,10 1063,40 1048,70" fill="rgb(255,255,255)" fill-opacity="1.0" stroke="rgb(0,0,0)" stroke-width="2"  />
			<g>
				<title>Acetyltransf_10 (PF13673)
"Acetyltransferase (GNAT) domain"</title>
				<polygon class="PF13673" points="1050,28 1053,28 1059,40 1053,52 1050,52" stroke-linejoin="round" width="12" height="24" fill="rgb(88,180,95)" stroke="rgb(70,144,76)" stroke-width="1" opacity="0.75" />
			</g>
		</g>
		<g>
			<title> (ctg1_314)</title>
			<polygon class=" (ctg1_314)" points="1065,25 1087,25 1087,10 1117,40 1087,70 1087,55 1065,55" fill="rgb(255,255,255)" fill-opacity="1.0" stroke="rgb(0,0,0)" stroke-width="2"  />
			<g>
				<title>Thioredoxin_7 (PF13899)
"Thioredoxin-like"</title>
				<rect class="PF13899" x="1071" y="28" stroke-linejoin="round" width="8" height="24" fill="rgb(143,52,187)" stroke="rgb(114,41,149)" stroke-width="1" opacity="0.75" />
			</g>
		</g>
		<g>
			<title> (ctg1_315)</title>
			<polygon class=" (ctg1_315)" points="1124,10 1145,40 1124,70" fill="rgb(255,255,255)" fill-opacity="1.0" stroke="rgb(0,0,0)" stroke-width="2"  />
			<g>
				<title>Sod_Fe_N (PF00081)
"Iron/manganese superoxide dismutases, alpha-hairpin domain"</title>
				<rect class="PF00081" x="1124" y="28" stroke-linejoin="round" width="8" height="24" fill="rgb(63,202,157)" stroke="rgb(50,161,125)" stroke-width="1" opacity="0.75" />
			</g>
			<g>
				<title>Sod_Fe_C (PF02777)
"Iron/manganese superoxide dismutases, C-terminal domain"</title>
				<polygon class="PF02777" points="1133,28 1133,28 1141,40 1133,52 1133,52" stroke-linejoin="round" width="10" height="24" fill="rgb(193,115,61)" stroke="rgb(154,92,48)" stroke-width="1" opacity="0.75" />
			</g>
		</g>
		<g>
			<title> (ctg1_316)</title>
			<polygon class=" (ctg1_316)" points="1145,10 1164,40 1145,70" fill="rgb(255,255,255)" fill-opacity="1.0" stroke="rgb(0,0,0)" stroke-width="2"  />
			<g>
				<title>Flavin_Reduct (PF01613)
"Flavin reductase like domain"</title>
				<polygon class="PF01613" points="1148,28 1153,28 1160,40 1153,52 1148,52" stroke-linejoin="round" width="14" height="24" fill="rgb(107,197,222)" stroke="rgb(85,157,177)" stroke-width="1" opacity="0.75" />
			</g>
		</g>
		<g>
			<title> (ctg1_317)</title>
			<polygon class=" (ctg1_317)" points="1164,10 1175,40 1164,70" fill="rgb(255,255,255)" fill-opacity="1.0" stroke="rgb(0,0,0)" stroke-width="2"  />
		</g>
		<g>
			<title> (ctg1_318)</title>
			<polygon class=" (ctg1_318)" points="1214,25 1206,25 1206,10 1176,40 1206,70 1206,55 1214,55" fill="rgb(255,255,255)" fill-opacity="1.0" stroke="rgb(0,0,0)" stroke-width="2"  />
			<g>
				<title>FA_desaturase (PF00487)
"Fatty acid desaturase"</title>
				<polygon class="PF00487" points="1180,40 1192,28 1207,28 1207,52 1192,52 1180,40" stroke-linejoin="round" width="27" height="24" fill="rgb(104,51,205)" stroke="rgb(83,40,164)" stroke-width="1" opacity="0.75" />
			</g>
		</g>
		<g>
			<title> (ctg1_319)</title>
			<polygon class=" (ctg1_319)" points="1249,25 1244,25 1244,10 1214,40 1244,70 1244,55 1249,55" fill="rgb(255,255,255)" fill-opacity="1.0" stroke="rgb(0,0,0)" stroke-width="2"  />
			<g>
				<title>Fer2 (PF00111)
"2Fe-2S iron-sulfur cluster binding domain"</title>
				<polygon class="PF00111" points="1218,40 1221,37 1221,43" stroke-linejoin="round" width="7" height="24" fill="rgb(60,59,191)" stroke="rgb(48,47,152)" stroke-width="1" opacity="0.75" />
			</g>
			<g>
				<title>NAD_binding_1 (PF00175)
"Oxidoreductase NAD-binding domain"</title>
				<polygon class="PF00175" points="1225,33 1230,28 1235,28 1235,52 1230,52 1225,47" stroke-linejoin="round" width="10" height="24" fill="rgb(177,211,96)" stroke="rgb(141,168,76)" stroke-width="1" opacity="0.75" />
			</g>
			<g>
				<title>FAD_binding_6 (PF00970)
"Oxidoreductase FAD-binding domain"</title>
				<rect class="PF00970" x="1236" y="28" stroke-linejoin="round" width="9" height="24" fill="rgb(212,194,103)" stroke="rgb(169,155,82)" stroke-width="1" opacity="0.75" />
			</g>
		</g>
		<g>
			<title> (ctg1_320)</title>
			<polygon class=" (ctg1_320)" points="1253,10 1274,40 1253,70" fill="rgb(255,255,255)" fill-opacity="1.0" stroke="rgb(0,0,0)" stroke-width="2"  />
			<g>
				<title>TetR_N (PF00440)
"Bacterial regulatory proteins, tetR family"</title>
				<rect class="PF00440" x="1255" y="28" stroke-linejoin="round" width="4" height="24" fill="rgb(73,212,190)" stroke="rgb(58,169,152)" stroke-width="1" opacity="0.75" />
			</g>
		</g>
		<g>
			<title> (ctg1_321)</title>
			<polygon class=" (ctg1_321)" points="1284,25 1326,25 1326,10 1356,40 1326,70 1326,55 1284,55" fill="rgb(255,255,255)" fill-opacity="1.0" stroke="rgb(0,0,0)" stroke-width="2"  />
			<g>
				<title>Plug (PF07715)
"TonB-dependent Receptor Plug Domain"</title>
				<rect class="PF07715" x="1289" y="28" stroke-linejoin="round" width="10" height="24" fill="rgb(99,133,214)" stroke="rgb(79,106,171)" stroke-width="1" opacity="0.75" />
			</g>
			<g>
				<title>TonB_dep_Rec (PF00593)
"TonB dependent receptor"</title>
				<polygon class="PF00593" points="1305,28 1339,28 1351,40 1339,52 1305,52" stroke-linejoin="round" width="50" height="24" fill="rgb(171,200,51)" stroke="rgb(136,160,40)" stroke-width="1" opacity="0.75" />
			</g>
		</g>
		<g>
			<title> (ctg1_322)</title>
			<polygon class=" (ctg1_322)" points="1356,10 1374,40 1356,70" fill="rgb(255,255,255)" fill-opacity="1.0" stroke="rgb(0,0,0)" stroke-width="2"  />
			<g>
				<title>Thioredoxin_8 (PF13905)
"Thioredoxin-like"</title>
				<polygon class="PF13905" points="1361,28 1363,28 1370,39 1370,41 1363,52 1361,52" stroke-linejoin="round" width="9" height="24" fill="rgb(180,174,87)" stroke="rgb(144,139,69)" stroke-width="1" opacity="0.75" />
			</g>
		</g>
		<g>
			<title> (ctg1_323)</title>
			<polygon class=" (ctg1_323)" points="1375,40 1390,10 1390,70" fill="rgb(255,255,255)" fill-opacity="1.0" stroke="rgb(0,0,0)" stroke-width="2"  />
			<g>
				<title>Fe_dep_repr_C (PF02742)
"Iron dependent repressor, metal binding and dimerisation domain"</title>
				<polygon class="PF02742" points="1378,40 1380,36 1380,44" stroke-linejoin="round" width="5" height="24" fill="rgb(217,122,64)" stroke="rgb(173,97,51)" stroke-width="1" opacity="0.75" />
			</g>
			<g>
				<title>Fe_dep_repress (PF01325)
"Iron dependent repressor, N-terminal DNA binding domain"</title>
				<polygon class="PF01325" points="1381,34 1384,28 1386,28 1386,52 1384,52 1381,46" stroke-linejoin="round" width="5" height="24" fill="rgb(56,220,176)" stroke="rgb(44,176,140)" stroke-width="1" opacity="0.75" />
			</g>
		</g>
		<g>
			<title> (ctg1_324)</title>
			<polygon class=" (ctg1_324)" points="1395,25 1409,25 1409,10 1439,40 1409,70 1409,55 1395,55" fill="rgb(255,255,255)" fill-opacity="1.0" stroke="rgb(0,0,0)" stroke-width="2"  />
			<g>
				<title>Nramp (PF01566)
"Natural resistance-associated macrophage protein"</title>
				<polygon class="PF01566" points="1400,28 1423,28 1435,40 1435,40 1423,52 1400,52" stroke-linejoin="round" width="35" height="24" fill="rgb(155,80,205)" stroke="rgb(123,64,164)" stroke-width="1" opacity="0.75" />
			</g>
		</g>
		<g>
			<title> (ctg1_325)</title>
			<polygon class=" (ctg1_325)" points="1442,40 1452,10 1452,70" fill="rgb(255,255,255)" fill-opacity="1.0" stroke="rgb(0,0,0)" stroke-width="2"  />
			<g>
				<title>Thioredoxin (PF00085)
"Thioredoxin"</title>
				<polygon class="PF00085" points="1445,40 1449,28 1452,28 1452,52 1449,52" stroke-linejoin="round" width="10" height="24" fill="rgb(220,109,180)" stroke="rgb(176,87,144)" stroke-width="1" opacity="0.75" />
			</g>
		</g>
		<g>
			<title> (ctg1_326)</title>
			<polygon class=" (ctg1_326)" points="1452,40 1470,10 1470,70" fill="rgb(255,255,255)" fill-opacity="1.0" stroke="rgb(0,0,0)" stroke-width="2"  />
			<g>
				<title>Flavodoxin_1 (PF00258)
"Flavodoxin"</title>
				<polygon class="PF00258" points="1456,40 1463,28 1467,28 1467,52 1463,52 1456,40" stroke-linejoin="round" width="11" height="24" fill="rgb(77,169,183)" stroke="rgb(61,135,146)" stroke-width="1" opacity="0.75" />
			</g>
		</g>
		<g>
			<title> (ctg1_327)</title>
			<polygon class=" (ctg1_327)" points="1503,25 1499,25 1499,10 1469,40 1499,70 1499,55 1503,55" fill="rgb(255,255,255)" fill-opacity="1.0" stroke="rgb(0,0,0)" stroke-width="2"  />
			<g>
				<title>Ribonuc_red_sm (PF00268)
"Ribonucleotide reductase, small chain"</title>
				<polygon class="PF00268" points="1473,40 1485,28 1500,28 1500,52 1485,52" stroke-linejoin="round" width="28" height="24" fill="rgb(88,210,197)" stroke="rgb(70,168,157)" stroke-width="1" opacity="0.75" />
			</g>
		</g>
		<g>
			<title> (ctg1_328)</title>
			<polygon class=" (ctg1_328)" points="1585,25 1537,25 1537,10 1507,40 1537,70 1537,55 1585,55" fill="rgb(255,255,255)" fill-opacity="1.0" stroke="rgb(0,0,0)" stroke-width="2"  />
			<g>
				<title>Ribonuc_red_lgC (PF02867)
"Ribonucleotide reductase, barrel domain"</title>
				<polygon class="PF02867" points="1511,40 1516,35 1516,45" stroke-linejoin="round" width="8" height="24" fill="rgb(53,200,190)" stroke="rgb(42,160,152)" stroke-width="1" opacity="0.75" />
			</g>
			<g>
				<title>Ribonuc_red_lgC (PF02867)
"Ribonucleotide reductase, barrel domain"</title>
				<polygon class="PF02867" points="1515,36 1523,28 1559,28 1559,52 1523,52 1515,44" stroke-linejoin="round" width="44" height="24" fill="rgb(53,200,190)" stroke="rgb(42,160,152)" stroke-width="1" opacity="0.75" />
			</g>
			<g>
				<title>Ribonuc_red_lgN (PF00317)
"Ribonucleotide reductase, all-alpha domain"</title>
				<rect class="PF00317" x="1560" y="28" stroke-linejoin="round" width="7" height="24" fill="rgb(210,206,91)" stroke="rgb(168,164,72)" stroke-width="1" opacity="0.75" />
			</g>
		</g>
	</g>
</svg>
