<svg version="1.1" baseProfile="full" xmlns="http://www.w3.org/2000/svg" width="714.5666666666667" height="80">
	<g>
		<line x1="10" y1="40.0" x2="704.5666666666667" y2="40.0" style="stroke:rgb(70,70,70); stroke-width:3 "/>
		<g>
			<title> (ctg15_21)</title>
			<polygon class=" (ctg15_21)" points="23,25 36,25 36,10 66,40 36,70 36,55 23,55" fill="rgb(255,255,255)" fill-opacity="1.0" stroke="rgb(0,0,0)" stroke-width="2"  />
			<g>
				<title>AAA (PF00004)
"ATPase family associated with various cellular activities (AAA)"</title>
				<polygon class="PF00004" points="46,28 50,28 58,36 58,44 50,52 46,52" stroke-linejoin="round" width="12" height="24" fill="rgb(57,194,204)" stroke="rgb(45,155,163)" stroke-width="1" opacity="0.75" />
			</g>
		</g>
		<g>
			<title> (ctg15_22)</title>
			<polygon class=" (ctg15_22)" points="67,10 86,40 67,70" fill="rgb(255,255,255)" fill-opacity="1.0" stroke="rgb(0,0,0)" stroke-width="2"  />
		</g>
		<g>
			<title> (ctg15_23)</title>
			<polygon class=" (ctg15_23)" points="86,10 100,40 86,70" fill="rgb(255,255,255)" fill-opacity="1.0" stroke="rgb(0,0,0)" stroke-width="2"  />
			<g>
				<title>Phage_lysozyme (PF00959)
"Phage lysozyme"</title>
				<polygon class="PF00959" points="88,28 91,28 97,40 91,52 88,52" stroke-linejoin="round" width="11" height="24" fill="rgb(144,229,109)" stroke="rgb(115,183,87)" stroke-width="1" opacity="0.75" />
			</g>
		</g>
		<g>
			<title> (ctg15_24)</title>
			<polygon class=" (ctg15_24)" points="102,40 129,10 129,70" fill="rgb(255,255,255)" fill-opacity="1.0" stroke="rgb(0,0,0)" stroke-width="2"  />
			<g>
				<title>TIR_2 (PF13676)
"TIR domain"</title>
				<polygon class="PF13676" points="115,30 117,28 128,28 128,52 117,52 115,50" stroke-linejoin="round" width="13" height="24" fill="rgb(87,220,58)" stroke="rgb(69,176,46)" stroke-width="1" opacity="0.75" />
			</g>
		</g>
		<g>
			<title> (ctg15_25)</title>
			<polygon class=" (ctg15_25)" points="143,10 155,40 143,70" fill="rgb(255,255,255)" fill-opacity="1.0" stroke="rgb(0,0,0)" stroke-width="2"  />
			<g>
				<title>Sigma70_r2 (PF04542)
"Sigma-70 region 2"</title>
				<polygon class="PF04542" points="146,28 147,28 152,39 152,41 147,52 146,52" stroke-linejoin="round" width="6" height="24" fill="rgb(184,59,197)" stroke="rgb(147,47,157)" stroke-width="1" opacity="0.75" />
			</g>
		</g>
		<g>
			<title> (ctg15_26)</title>
			<polygon class=" (ctg15_26)" points="161,10 181,40 161,70" fill="rgb(255,255,255)" fill-opacity="1.0" stroke="rgb(0,0,0)" stroke-width="2"  />
			<g>
				<title>DUF4142 (PF13628)
"Domain of unknown function (DUF4142)"</title>
				<polygon class="PF13628" points="167,28 169,28 178,40 169,52 167,52" stroke-linejoin="round" width="13" height="24" fill="rgb(131,76,193)" stroke="rgb(104,60,154)" stroke-width="1" opacity="0.75" />
			</g>
		</g>
		<g>
			<title> (ctg15_27)</title>
			<polygon class=" (ctg15_27)" points="185,40 191,10 191,70" fill="rgb(255,255,255)" fill-opacity="1.0" stroke="rgb(0,0,0)" stroke-width="2"  />
			<g>
				<title>adh_short (PF00106)
"short chain dehydrogenase"</title>
				<polygon class="PF00106" points="188,40 190,30 190,50" stroke-linejoin="round" width="5" height="24" fill="rgb(182,219,73)" stroke="rgb(145,175,58)" stroke-width="1" opacity="0.75" />
			</g>
		</g>
		<g>
			<title> (ctg15_28)</title>
			<polygon class=" (ctg15_28)" points="192,40 209,10 209,70" fill="rgb(255,255,255)" fill-opacity="1.0" stroke="rgb(0,0,0)" stroke-width="2"  />
			<g>
				<title>CinA (PF02464)
"Competence-damaged protein"</title>
				<polygon class="PF02464" points="195,40 202,28 208,28 208,52 202,52" stroke-linejoin="round" width="15" height="24" fill="rgb(137,71,217)" stroke="rgb(109,56,173)" stroke-width="1" opacity="0.75" />
			</g>
		</g>
		<g>
			<title> (ctg15_29)</title>
			<polygon class=" (ctg15_29)" points="212,40 229,10 229,70" fill="rgb(255,255,255)" fill-opacity="1.0" stroke="rgb(0,0,0)" stroke-width="2"  />
			<g>
				<title>Iron_permease (PF04120)
"Low affinity iron permease"</title>
				<polygon class="PF04120" points="215,40 222,28 224,28 224,52 222,52" stroke-linejoin="round" width="12" height="24" fill="rgb(223,108,176)" stroke="rgb(178,86,140)" stroke-width="1" opacity="0.75" />
			</g>
		</g>
		<g>
			<title> (ctg15_30)</title>
			<polygon class=" (ctg15_30)" points="231,10 251,40 231,70" fill="rgb(255,255,255)" fill-opacity="1.0" stroke="rgb(0,0,0)" stroke-width="2"  />
		</g>
		<g>
			<title> (ctg15_31)</title>
			<polygon class=" (ctg15_31)" points="259,40 268,10 268,70" fill="rgb(255,255,255)" fill-opacity="1.0" stroke="rgb(0,0,0)" stroke-width="2"  />
		</g>
		<g>
			<title> (ctg15_32)</title>
			<polygon class=" (ctg15_32)" points="271,10 293,40 271,70" fill="rgb(255,255,255)" fill-opacity="1.0" stroke="rgb(0,0,0)" stroke-width="2"  />
			<g>
				<title>HTH_27 (PF13463)
"Winged helix DNA-binding domain"</title>
				<polygon class="PF13463" points="280,28 280,28 286,36 286,44 280,52 280,52" stroke-linejoin="round" width="6" height="24" fill="rgb(130,111,228)" stroke="rgb(103,88,182)" stroke-width="1" opacity="0.75" />
			</g>
		</g>
		<g>
			<title> (ctg15_33)</title>
			<polygon class=" (ctg15_33)" points="294,25 313,25 313,10 343,40 313,70 313,55 294,55" fill="rgb(255,255,255)" fill-opacity="1.0" stroke="rgb(0,0,0)" stroke-width="2"  />
			<g>
				<title>Amino_oxidase (PF01593)
"Flavin containing amine oxidoreductase"</title>
				<polygon class="PF01593" points="295,28 326,28 338,40 326,52 295,52" stroke-linejoin="round" width="47" height="24" fill="rgb(184,74,52)" stroke="rgb(147,59,41)" stroke-width="1" opacity="0.75" />
			</g>
		</g>
		<g>
			<title> (ctg15_34)</title>
			<polygon class=" (ctg15_34)" points="343,10 370,40 343,70" fill="rgb(255,255,255)" fill-opacity="1.0" stroke="rgb(0,0,0)" stroke-width="2"  />
			<g>
				<title>SQS_PSY (PF00494)
"Squalene/phytoene synthase"</title>
				<polygon class="PF00494" points="344,28 355,28 366,40 355,52 344,52" stroke-linejoin="round" width="24" height="24" fill="rgb(178,91,49)" stroke="rgb(142,72,39)" stroke-width="1" opacity="0.75" />
			</g>
		</g>
		<g>
			<title> (ctg15_35)</title>
			<polygon class=" (ctg15_35)" points="372,10 387,40 372,70" fill="rgb(255,255,255)" fill-opacity="1.0" stroke="rgb(0,0,0)" stroke-width="2"  />
		</g>
		<g>
			<title> (ctg15_36)</title>
			<polygon class=" (ctg15_36)" points="387,10 402,40 387,70" fill="rgb(255,255,255)" fill-opacity="1.0" stroke="rgb(0,0,0)" stroke-width="2"  />
			<g>
				<title>FA_hydroxylase (PF04116)
"Fatty acid hydroxylase"</title>
				<polygon class="PF04116" points="387,28 392,28 398,40 392,52 387,52" stroke-linejoin="round" width="13" height="24" fill="rgb(171,60,209)" stroke="rgb(136,48,167)" stroke-width="1" opacity="0.75" />
			</g>
		</g>
		<g>
			<title> (ctg15_37)</title>
			<polygon class=" (ctg15_37)" points="403,10 426,40 403,70" fill="rgb(255,255,255)" fill-opacity="1.0" stroke="rgb(0,0,0)" stroke-width="2"  />
			<g>
				<title>Lycopene_cyc (PF18916)
"Lycopene cyclase"</title>
				<rect class="PF18916" x="403" y="28" stroke-linejoin="round" width="9" height="24" fill="rgb(208,69,86)" stroke="rgb(166,55,68)" stroke-width="1" opacity="0.75" />
			</g>
			<g>
				<title>Lycopene_cyc (PF18916)
"Lycopene cyclase"</title>
				<polygon class="PF18916" points="415,31 422,40 415,49" stroke-linejoin="round" width="9" height="24" fill="rgb(208,69,86)" stroke="rgb(166,55,68)" stroke-width="1" opacity="0.75" />
			</g>
		</g>
		<g>
			<title> (ctg15_38)</title>
			<polygon class=" (ctg15_38)" points="432,10 443,40 432,70" fill="rgb(255,255,255)" fill-opacity="1.0" stroke="rgb(0,0,0)" stroke-width="2"  />
			<g>
				<title>Rhodanese (PF00581)
"Rhodanese-like domain"</title>
				<polygon class="PF00581" points="433,28 435,28 439,40 435,52 433,52" stroke-linejoin="round" width="8" height="24" fill="rgb(145,191,76)" stroke="rgb(116,152,60)" stroke-width="1" opacity="0.75" />
			</g>
		</g>
		<g>
			<title> (ctg15_39)</title>
			<polygon class=" (ctg15_39)" points="445,10 452,40 445,70" fill="rgb(255,255,255)" fill-opacity="1.0" stroke="rgb(0,0,0)" stroke-width="2"  />
		</g>
		<g>
			<title> (ctg15_40)</title>
			<polygon class=" (ctg15_40)" points="453,10 462,40 453,70" fill="rgb(255,255,255)" fill-opacity="1.0" stroke="rgb(0,0,0)" stroke-width="2"  />
			<g>
				<title>Thioredoxin (PF00085)
"Thioredoxin"</title>
				<polygon class="PF00085" points="453,28 455,28 459,40 455,52 453,52" stroke-linejoin="round" width="9" height="24" fill="rgb(220,109,180)" stroke="rgb(176,87,144)" stroke-width="1" opacity="0.75" />
			</g>
		</g>
		<g>
			<title> (ctg15_41)</title>
			<polygon class=" (ctg15_41)" points="463,10 486,40 463,70" fill="rgb(255,255,255)" fill-opacity="1.0" stroke="rgb(0,0,0)" stroke-width="2"  />
			<g>
				<title>Rhodanese (PF00581)
"Rhodanese-like domain"</title>
				<polygon class="PF00581" points="465,28 473,28 474,29 474,51 473,52 465,52" stroke-linejoin="round" width="9" height="24" fill="rgb(145,191,76)" stroke="rgb(116,152,60)" stroke-width="1" opacity="0.75" />
			</g>
			<g>
				<title>Thioredoxin (PF00085)
"Thioredoxin"</title>
				<polygon class="PF00085" points="476,32 482,40 476,48" stroke-linejoin="round" width="10" height="24" fill="rgb(220,109,180)" stroke="rgb(176,87,144)" stroke-width="1" opacity="0.75" />
			</g>
		</g>
		<g>
			<title> (ctg15_42)</title>
			<polygon class=" (ctg15_42)" points="487,10 506,40 487,70" fill="rgb(255,255,255)" fill-opacity="1.0" stroke="rgb(0,0,0)" stroke-width="2"  />
			<g>
				<title>AhpC-TSA (PF00578)
"AhpC/TSA family"</title>
				<polygon class="PF00578" points="492,28 495,28 502,40 495,52 492,52" stroke-linejoin="round" width="11" height="24" fill="rgb(166,71,190)" stroke="rgb(132,56,152)" stroke-width="1" opacity="0.75" />
			</g>
		</g>
		<g>
			<title> (ctg15_43)</title>
			<polygon class=" (ctg15_43)" points="511,10 523,40 511,70" fill="rgb(255,255,255)" fill-opacity="1.0" stroke="rgb(0,0,0)" stroke-width="2"  />
		</g>
		<g>
			<title> (ctg15_44)</title>
			<polygon class=" (ctg15_44)" points="531,25 606,25 606,10 636,40 606,70 606,55 531,55" fill="rgb(255,255,255)" fill-opacity="1.0" stroke="rgb(0,0,0)" stroke-width="2"  />
			<g>
				<title>ACR_tran (PF00873)
"AcrB/AcrD/AcrF family"</title>
				<polygon class="PF00873" points="531,28 619,28 631,40 619,52 531,52" stroke-linejoin="round" width="102" height="24" fill="rgb(63,191,60)" stroke="rgb(50,152,48)" stroke-width="1" opacity="0.75" />
			</g>
		</g>
		<g>
			<title> (ctg15_45)</title>
			<polygon class=" (ctg15_45)" points="638,25 648,25 648,10 678,40 648,70 648,55 638,55" fill="rgb(255,255,255)" fill-opacity="1.0" stroke="rgb(0,0,0)" stroke-width="2"  />
			<g>
				<title>OEP (PF02321)
"Outer membrane efflux protein"</title>
				<rect class="PF02321" x="641" y="28" stroke-linejoin="round" width="17" height="24" fill="rgb(205,57,201)" stroke="rgb(164,45,160)" stroke-width="1" opacity="0.75" />
			</g>
			<g>
				<title>OEP (PF02321)
"Outer membrane efflux protein"</title>
				<polygon class="PF02321" points="659,28 662,28 674,40 662,52 659,52" stroke-linejoin="round" width="18" height="24" fill="rgb(205,57,201)" stroke="rgb(164,45,160)" stroke-width="1" opacity="0.75" />
			</g>
		</g>
	</g>
</svg>
