<svg version="1.1" baseProfile="full" xmlns="http://www.w3.org/2000/svg" width="367.1333333333333" height="80">
	<g>
		<line x1="10" y1="40.0" x2="357.1333333333333" y2="40.0" style="stroke:rgb(70,70,70); stroke-width:3 "/>
		<g>
			<title> (ctg9_2)</title>
			<polygon class=" (ctg9_2)" points="11,40 23,10 23,70" fill="rgb(255,255,255)" fill-opacity="1.0" stroke="rgb(0,0,0)" stroke-width="2"  />
			<g>
				<title>DDE_Tnp_1_2 (PF13586)
"Transposase DDE domain"</title>
				<polygon class="PF13586" points="14,40 19,28 20,28 20,52 19,52" stroke-linejoin="round" width="9" height="24" fill="rgb(94,207,193)" stroke="rgb(75,165,154)" stroke-width="1" opacity="0.75" />
			</g>
		</g>
		<g>
			<title> (ctg9_3)</title>
			<polygon class=" (ctg9_3)" points="28,40 40,10 40,70" fill="rgb(255,255,255)" fill-opacity="1.0" stroke="rgb(0,0,0)" stroke-width="2"  />
			<g>
				<title>DUF4096 (PF13340)
"Putative transposase of IS4/5 family (DUF4096)"</title>
				<polygon class="PF13340" points="32,38 36,28 39,28 39,52 36,52 32,42" stroke-linejoin="round" width="7" height="24" fill="rgb(196,73,104)" stroke="rgb(156,58,83)" stroke-width="1" opacity="0.75" />
			</g>
		</g>
		<g>
			<title> (ctg9_4)</title>
			<polygon class=" (ctg9_4)" points="104,25 75,25 75,10 45,40 75,70 75,55 104,55" fill="rgb(255,255,255)" fill-opacity="1.0" stroke="rgb(0,0,0)" stroke-width="2"  />
			<g>
				<title>AMP-binding_C (PF13193)
"AMP-binding enzyme C-terminal domain"</title>
				<polygon class="PF13193" points="49,40 55,34 55,46" stroke-linejoin="round" width="7" height="24" fill="rgb(182,50,118)" stroke="rgb(145,39,94)" stroke-width="1" opacity="0.75" />
			</g>
			<g>
				<title>AMP-binding (PF00501)
"AMP-binding enzyme"</title>
				<polygon class="PF00501" points="57,32 61,28 98,28 98,52 61,52 57,48" stroke-linejoin="round" width="41" height="24" fill="rgb(60,217,223)" stroke="rgb(48,173,178)" stroke-width="1" opacity="0.75" />
			</g>
		</g>
		<g>
			<title> (ctg9_5)</title>
			<polygon class=" (ctg9_5)" points="109,25 119,25 119,10 149,40 119,70 119,55 109,55" fill="rgb(255,255,255)" fill-opacity="1.0" stroke="rgb(0,0,0)" stroke-width="2"  />
			<g>
				<title>Acyl-CoA_dh_N (PF02771)
"Acyl-CoA dehydrogenase, N-terminal domain"</title>
				<rect class="PF02771" x="112" y="28" stroke-linejoin="round" width="10" height="24" fill="rgb(105,135,218)" stroke="rgb(84,108,174)" stroke-width="1" opacity="0.75" />
			</g>
			<g>
				<title>Acyl-CoA_dh_M (PF02770)
"Acyl-CoA dehydrogenase, middle domain"</title>
				<rect class="PF02770" x="123" y="28" stroke-linejoin="round" width="9" height="24" fill="rgb(225,186,97)" stroke="rgb(180,148,77)" stroke-width="1" opacity="0.75" />
			</g>
			<g>
				<title>Acyl-CoA_dh_1 (PF00441)
"Acyl-CoA dehydrogenase, C-terminal domain"</title>
				<polygon class="PF00441" points="134,29 145,40 134,51" stroke-linejoin="round" width="14" height="24" fill="rgb(85,191,117)" stroke="rgb(68,152,93)" stroke-width="1" opacity="0.75" />
			</g>
		</g>
		<g>
			<title> (ctg9_6)</title>
			<polygon class=" (ctg9_6)" points="149,40 173,10 173,70" fill="rgb(255,255,255)" fill-opacity="1.0" stroke="rgb(0,0,0)" stroke-width="2"  />
			<g>
				<title>DUF1275 (PF06912)
"Protein of unknown function (DUF1275)"</title>
				<polygon class="PF06912" points="153,40 163,28 172,28 172,52 163,52" stroke-linejoin="round" width="21" height="24" fill="rgb(87,188,62)" stroke="rgb(69,150,49)" stroke-width="1" opacity="0.75" />
			</g>
		</g>
		<g>
			<title> (ctg9_7)</title>
			<polygon class=" (ctg9_7)" points="176,40 189,10 189,70" fill="rgb(255,255,255)" fill-opacity="1.0" stroke="rgb(0,0,0)" stroke-width="2"  />
			<g>
				<title>Ectoine_synth (PF06339)
"Ectoine synthase"</title>
				<polygon class="PF06339" points="179,40 185,28 188,28 188,52 185,52" stroke-linejoin="round" width="12" height="24" fill="rgb(225,176,81)" stroke="rgb(180,140,64)" stroke-width="1" opacity="0.75" />
			</g>
		</g>
		<g>
			<title> (ctg9_8)</title>
			<polygon class=" (ctg9_8)" points="205,25 272,25 272,10 302,40 272,70 272,55 205,55" fill="rgb(255,255,255)" fill-opacity="1.0" stroke="rgb(0,0,0)" stroke-width="2"  />
			<g>
				<title>GDC-P (PF02347)
"Glycine cleavage system P-protein"</title>
				<rect class="PF02347" x="208" y="28" stroke-linejoin="round" width="43" height="24" fill="rgb(54,115,215)" stroke="rgb(43,92,172)" stroke-width="1" opacity="0.75" />
			</g>
			<g>
				<title>GDC-P (PF02347)
"Glycine cleavage system P-protein"</title>
				<rect class="PF02347" x="252" y="28" stroke-linejoin="round" width="29" height="24" fill="rgb(54,115,215)" stroke="rgb(43,92,172)" stroke-width="1" opacity="0.75" />
			</g>
		</g>
		<g>
			<title> (ctg9_9)</title>
			<polygon class=" (ctg9_9)" points="303,25 311,25 311,10 341,40 311,70 311,55 303,55" fill="rgb(255,255,255)" fill-opacity="1.0" stroke="rgb(0,0,0)" stroke-width="2"  />
			<g>
				<title>GCV_T (PF01571)
"Aminomethyltransferase folate-binding domain"</title>
				<polygon class="PF01571" points="304,28 325,28 331,34 331,46 325,52 304,52" stroke-linejoin="round" width="27" height="24" fill="rgb(112,228,161)" stroke="rgb(89,182,128)" stroke-width="1" opacity="0.75" />
			</g>
			<g>
				<title>GCV_T_C (PF08669)
"Glycine cleavage T-protein C-terminal barrel domain"</title>
				<polygon class="PF08669" points="333,36 337,40 333,44" stroke-linejoin="round" width="7" height="24" fill="rgb(184,178,54)" stroke="rgb(147,142,43)" stroke-width="1" opacity="0.75" />
			</g>
		</g>
	</g>
</svg>
