<svg version="1.1" baseProfile="full" xmlns="http://www.w3.org/2000/svg" width="894.0" height="80">
	<g>
		<line x1="10" y1="40.0" x2="884.0" y2="40.0" style="stroke:rgb(70,70,70); stroke-width:3 "/>
		<g>
			<title> (ctg11_1)</title>
			<polygon class=" (ctg11_1)" points="27,25 28,25 28,10 58,40 28,70 28,55 27,55" fill="rgb(255,255,255)" fill-opacity="1.0" stroke="rgb(0,0,0)" stroke-width="2"  />
			<g>
				<title>Sigma70_r2 (PF04542)
"Sigma-70 region 2"</title>
				<rect class="PF04542" x="33" y="28" stroke-linejoin="round" width="7" height="24" fill="rgb(184,59,197)" stroke="rgb(147,47,157)" stroke-width="1" opacity="0.75" />
			</g>
			<g>
				<title>Sigma70_r4 (PF04545)
"Sigma-70, region 4"</title>
				<polygon class="PF04545" points="52,38 54,40 52,42" stroke-linejoin="round" width="5" height="24" fill="rgb(75,207,224)" stroke="rgb(60,165,179)" stroke-width="1" opacity="0.75" />
			</g>
		</g>
		<g>
			<title> (ctg11_2)</title>
			<polygon class=" (ctg11_2)" points="61,25 64,25 64,10 94,40 64,70 64,55 61,55" fill="rgb(255,255,255)" fill-opacity="1.0" stroke="rgb(0,0,0)" stroke-width="2"  />
			<g>
				<title>TctC (PF03401)
"Tripartite tricarboxylate transporter family receptor"</title>
				<polygon class="PF03401" points="66,28 77,28 89,40 77,52 66,52" stroke-linejoin="round" width="27" height="24" fill="rgb(74,93,188)" stroke="rgb(59,74,150)" stroke-width="1" opacity="0.75" />
			</g>
		</g>
		<g>
			<title> (ctg11_3)</title>
			<polygon class=" (ctg11_3)" points="95,10 119,40 95,70" fill="rgb(255,255,255)" fill-opacity="1.0" stroke="rgb(0,0,0)" stroke-width="2"  />
			<g>
				<title>FA_hydroxylase (PF04116)
"Fatty acid hydroxylase"</title>
				<polygon class="PF04116" points="105,28 106,28 116,40 106,52 105,52" stroke-linejoin="round" width="13" height="24" fill="rgb(171,60,209)" stroke="rgb(136,48,167)" stroke-width="1" opacity="0.75" />
			</g>
		</g>
		<g>
			<title> (ctg11_4)</title>
			<polygon class=" (ctg11_4)" points="120,25 121,25 121,10 151,40 121,70 121,55 120,55" fill="rgb(255,255,255)" fill-opacity="1.0" stroke="rgb(0,0,0)" stroke-width="2"  />
			<g>
				<title>FA_desaturase (PF00487)
"Fatty acid desaturase"</title>
				<polygon class="PF00487" points="124,28 135,28 147,40 147,40 135,52 124,52" stroke-linejoin="round" width="23" height="24" fill="rgb(104,51,205)" stroke="rgb(83,40,164)" stroke-width="1" opacity="0.75" />
			</g>
		</g>
		<g>
			<title> (ctg11_5)</title>
			<polygon class=" (ctg11_5)" points="152,25 187,25 187,10 217,40 187,70 187,55 152,55" fill="rgb(255,255,255)" fill-opacity="1.0" stroke="rgb(0,0,0)" stroke-width="2"  />
			<g>
				<title>ACP_syn_III_C (PF08541)
"3-Oxoacyl-[acyl-carrier-protein (ACP)] synthase III C terminal"</title>
				<rect class="PF08541" x="179" y="28" stroke-linejoin="round" width="9" height="24" fill="rgb(146,207,81)" stroke="rgb(116,165,64)" stroke-width="1" opacity="0.75" />
			</g>
		</g>
		<g>
			<title> (ctg11_6)</title>
			<polygon class=" (ctg11_6)" points="217,25 219,25 219,10 249,40 219,70 219,55 217,55" fill="rgb(255,255,255)" fill-opacity="1.0" stroke="rgb(0,0,0)" stroke-width="2"  />
		</g>
		<g>
			<title> (ctg11_7)</title>
			<polygon class=" (ctg11_7)" points="257,10 279,40 257,70" fill="rgb(255,255,255)" fill-opacity="1.0" stroke="rgb(0,0,0)" stroke-width="2"  />
		</g>
		<g>
			<title> (ctg11_8)</title>
			<polygon class=" (ctg11_8)" points="282,10 291,40 282,70" fill="rgb(255,255,255)" fill-opacity="1.0" stroke="rgb(0,0,0)" stroke-width="2"  />
		</g>
		<g>
			<title> (ctg11_9)</title>
			<polygon class=" (ctg11_9)" points="291,10 301,40 291,70" fill="rgb(255,255,255)" fill-opacity="1.0" stroke="rgb(0,0,0)" stroke-width="2"  />
			<g>
				<title>HTH_3 (PF01381)
"Helix-turn-helix"</title>
				<polygon class="PF01381" points="295,31 298,40 295,49" stroke-linejoin="round" width="4" height="24" fill="rgb(105,79,202)" stroke="rgb(83,63,161)" stroke-width="1" opacity="0.75" />
			</g>
		</g>
		<g>
			<title> (ctg11_10)</title>
			<polygon class=" (ctg11_10)" points="360,25 332,25 332,10 302,40 332,70 332,55 360,55" fill="rgb(255,255,255)" fill-opacity="1.0" stroke="rgb(0,0,0)" stroke-width="2"  />
			<g>
				<title>EAL (PF00563)
"EAL domain"</title>
				<polygon class="PF00563" points="306,40 318,28 327,28 327,52 318,52" stroke-linejoin="round" width="23" height="24" fill="rgb(204,100,120)" stroke="rgb(163,80,96)" stroke-width="1" opacity="0.75" />
			</g>
			<g>
				<title>GGDEF (PF00990)
"Diguanylate cyclase, GGDEF domain"</title>
				<rect class="PF00990" x="329" y="28" stroke-linejoin="round" width="17" height="24" fill="rgb(62,170,199)" stroke="rgb(49,135,159)" stroke-width="1" opacity="0.75" />
			</g>
			<g>
				<title>PAS (PF00989)
"PAS fold"</title>
				<rect class="PF00989" x="347" y="28" stroke-linejoin="round" width="11" height="24" fill="rgb(205,221,64)" stroke="rgb(164,176,51)" stroke-width="1" opacity="0.75" />
			</g>
		</g>
		<g>
			<title> (ctg11_11)</title>
			<polygon class=" (ctg11_11)" points="413,25 391,25 391,10 361,40 391,70 391,55 413,55" fill="rgb(255,255,255)" fill-opacity="1.0" stroke="rgb(0,0,0)" stroke-width="2"  />
			<g>
				<title>MCPsignal (PF00015)
"Methyl-accepting chemotaxis protein (MCP) signalling domain"</title>
				<polygon class="PF00015" points="365,40 377,28 379,28 379,52 377,52" stroke-linejoin="round" width="15" height="24" fill="rgb(104,174,223)" stroke="rgb(83,139,178)" stroke-width="1" opacity="0.75" />
			</g>
			<g>
				<title>PAS_3 (PF08447)
"PAS fold"</title>
				<rect class="PF08447" x="402" y="28" stroke-linejoin="round" width="8" height="24" fill="rgb(222,97,193)" stroke="rgb(177,77,154)" stroke-width="1" opacity="0.75" />
			</g>
		</g>
		<g>
			<title> (ctg11_12)</title>
			<polygon class=" (ctg11_12)" points="419,40 439,10 439,70" fill="rgb(255,255,255)" fill-opacity="1.0" stroke="rgb(0,0,0)" stroke-width="2"  />
			<g>
				<title>SCO1-SenC (PF02630)
"SCO1/SenC"</title>
				<polygon class="PF02630" points="423,40 431,28 434,28 434,52 431,52" stroke-linejoin="round" width="13" height="24" fill="rgb(86,217,172)" stroke="rgb(68,173,137)" stroke-width="1" opacity="0.75" />
			</g>
		</g>
		<g>
			<title> (ctg11_13)</title>
			<polygon class=" (ctg11_13)" points="446,40 469,10 469,70" fill="rgb(255,255,255)" fill-opacity="1.0" stroke="rgb(0,0,0)" stroke-width="2"  />
		</g>
		<g>
			<title> (ctg11_14)</title>
			<polygon class=" (ctg11_14)" points="469,40 494,10 494,70" fill="rgb(255,255,255)" fill-opacity="1.0" stroke="rgb(0,0,0)" stroke-width="2"  />
			<g>
				<title>SURF1 (PF02104)
"SURF1 family"</title>
				<polygon class="PF02104" points="473,40 483,28 492,28 492,52 483,52" stroke-linejoin="round" width="21" height="24" fill="rgb(74,198,177)" stroke="rgb(59,158,141)" stroke-width="1" opacity="0.75" />
			</g>
		</g>
		<g>
			<title> (ctg11_15)</title>
			<polygon class=" (ctg11_15)" points="495,10 503,40 495,70" fill="rgb(255,255,255)" fill-opacity="1.0" stroke="rgb(0,0,0)" stroke-width="2"  />
			<g>
				<title>DUF2909 (PF11137)
"Protein of unknown function (DUF2909)"</title>
				<polygon class="PF11137" points="495,28 496,28 499,40 496,52 495,52" stroke-linejoin="round" width="7" height="24" fill="rgb(163,191,66)" stroke="rgb(130,152,52)" stroke-width="1" opacity="0.75" />
			</g>
		</g>
		<g>
			<title> (ctg11_16)</title>
			<polygon class=" (ctg11_16)" points="506,40 535,10 535,70" fill="rgb(255,255,255)" fill-opacity="1.0" stroke="rgb(0,0,0)" stroke-width="2"  />
			<g>
				<title>COX3 (PF00510)
"Cytochrome c oxidase subunit III"</title>
				<polygon class="PF00510" points="510,40 522,28 534,28 534,52 522,52" stroke-linejoin="round" width="28" height="24" fill="rgb(104,211,69)" stroke="rgb(83,168,55)" stroke-width="1" opacity="0.75" />
			</g>
		</g>
		<g>
			<title> (ctg11_17)</title>
			<polygon class=" (ctg11_17)" points="538,40 545,10 545,70" fill="rgb(255,255,255)" fill-opacity="1.0" stroke="rgb(0,0,0)" stroke-width="2"  />
			<g>
				<title>DUF2970 (PF11174)
"Protein of unknown function (DUF2970)"</title>
				<polygon class="PF11174" points="541,40 543,32 543,48" stroke-linejoin="round" width="5" height="24" fill="rgb(67,193,135)" stroke="rgb(53,154,107)" stroke-width="1" opacity="0.75" />
			</g>
		</g>
		<g>
			<title> (ctg11_18)</title>
			<polygon class=" (ctg11_18)" points="545,40 565,10 565,70" fill="rgb(255,255,255)" fill-opacity="1.0" stroke="rgb(0,0,0)" stroke-width="2"  />
			<g>
				<title>CtaG_Cox11 (PF04442)
"Cytochrome c oxidase assembly protein CtaG/Cox11"</title>
				<polygon class="PF04442" points="549,40 557,28 562,28 562,52 557,52" stroke-linejoin="round" width="15" height="24" fill="rgb(131,73,213)" stroke="rgb(104,58,170)" stroke-width="1" opacity="0.75" />
			</g>
		</g>
		<g>
			<title> (ctg11_19)</title>
			<polygon class=" (ctg11_19)" points="566,40 569,10 569,70" fill="rgb(255,255,255)" fill-opacity="1.0" stroke="rgb(0,0,0)" stroke-width="2"  />
		</g>
		<g>
			<title> (ctg11_20)</title>
			<polygon class=" (ctg11_20)" points="631,25 606,25 606,10 576,40 606,70 606,55 631,55" fill="rgb(255,255,255)" fill-opacity="1.0" stroke="rgb(0,0,0)" stroke-width="2"  />
			<g>
				<title>COX1 (PF00115)
"Cytochrome C and Quinol oxidase polypeptide I"</title>
				<polygon class="PF00115" points="582,38 592,28 626,28 626,52 592,52 582,42" stroke-linejoin="round" width="44" height="24" fill="rgb(64,128,197)" stroke="rgb(51,102,157)" stroke-width="1" opacity="0.75" />
			</g>
		</g>
		<g>
			<title> (ctg11_21)</title>
			<polygon class=" (ctg11_21)" points="672,25 663,25 663,10 633,40 663,70 663,55 672,55" fill="rgb(255,255,255)" fill-opacity="1.0" stroke="rgb(0,0,0)" stroke-width="2"  />
			<g>
				<title>Cytochrome_CBB3 (PF13442)
"Cytochrome C oxidase, cbb3-type, subunit III"</title>
				<polygon class="PF13442" points="637,40 643,34 643,46" stroke-linejoin="round" width="7" height="24" fill="rgb(49,184,120)" stroke="rgb(39,147,96)" stroke-width="1" opacity="0.75" />
			</g>
			<g>
				<title>COX2 (PF00116)
"Cytochrome C oxidase subunit II, periplasmic domain"</title>
				<polygon class="PF00116" points="646,31 649,28 658,28 658,52 649,52 646,49" stroke-linejoin="round" width="12" height="24" fill="rgb(140,56,199)" stroke="rgb(112,44,159)" stroke-width="1" opacity="0.75" />
			</g>
			<g>
				<title>COX2_TM (PF02790)
"Cytochrome C oxidase subunit II, transmembrane domain"</title>
				<rect class="PF02790" x="660" y="28" stroke-linejoin="round" width="8" height="24" fill="rgb(63,179,156)" stroke="rgb(50,143,124)" stroke-width="1" opacity="0.75" />
			</g>
		</g>
		<g>
			<title> (ctg11_22)</title>
			<polygon class=" (ctg11_22)" points="675,40 690,10 690,70" fill="rgb(255,255,255)" fill-opacity="1.0" stroke="rgb(0,0,0)" stroke-width="2"  />
		</g>
		<g>
			<title> (ctg11_23)</title>
			<polygon class=" (ctg11_23)" points="725,25 725,25 725,10 695,40 725,70 725,55 725,55" fill="rgb(255,255,255)" fill-opacity="1.0" stroke="rgb(0,0,0)" stroke-width="2"  />
		</g>
		<g>
			<title> (ctg11_24)</title>
			<polygon class=" (ctg11_24)" points="733,10 752,40 733,70" fill="rgb(255,255,255)" fill-opacity="1.0" stroke="rgb(0,0,0)" stroke-width="2"  />
			<g>
				<title>Pribosyltran (PF00156)
"Phosphoribosyl transferase domain"</title>
				<polygon class="PF00156" points="741,28 741,28 748,40 741,52 741,52" stroke-linejoin="round" width="10" height="24" fill="rgb(210,210,74)" stroke="rgb(168,168,59)" stroke-width="1" opacity="0.75" />
			</g>
		</g>
		<g>
			<title> (ctg11_25)</title>
			<polygon class=" (ctg11_25)" points="754,10 770,40 754,70" fill="rgb(255,255,255)" fill-opacity="1.0" stroke="rgb(0,0,0)" stroke-width="2"  />
			<g>
				<title>SpoU_methylase (PF00588)
"SpoU rRNA Methylase family"</title>
				<polygon class="PF00588" points="754,28 760,28 767,40 760,52 754,52" stroke-linejoin="round" width="14" height="24" fill="rgb(84,205,178)" stroke="rgb(67,164,142)" stroke-width="1" opacity="0.75" />
			</g>
		</g>
		<g>
			<title> (ctg11_26)</title>
			<polygon class=" (ctg11_26)" points="777,10 787,40 777,70" fill="rgb(255,255,255)" fill-opacity="1.0" stroke="rgb(0,0,0)" stroke-width="2"  />
			<g>
				<title>DUF4148 (PF13663)
"Domain of unknown function (DUF4148)"</title>
				<polygon class="PF13663" points="777,28 779,28 783,37 783,43 779,52 777,52" stroke-linejoin="round" width="6" height="24" fill="rgb(215,144,65)" stroke="rgb(172,115,52)" stroke-width="1" opacity="0.75" />
			</g>
		</g>
		<g>
			<title> (ctg11_27)</title>
			<polygon class=" (ctg11_27)" points="792,40 808,10 808,70" fill="rgb(255,255,255)" fill-opacity="1.0" stroke="rgb(0,0,0)" stroke-width="2"  />
			<g>
				<title>MaoC_dehydratas (PF01575)
"MaoC like domain"</title>
				<polygon class="PF01575" points="795,40 802,28 806,28 806,52 802,52" stroke-linejoin="round" width="12" height="24" fill="rgb(218,129,86)" stroke="rgb(174,103,68)" stroke-width="1" opacity="0.75" />
			</g>
		</g>
		<g>
			<title> (ctg11_28)</title>
			<polygon class=" (ctg11_28)" points="809,40 830,10 830,70" fill="rgb(255,255,255)" fill-opacity="1.0" stroke="rgb(0,0,0)" stroke-width="2"  />
			<g>
				<title>LysE (PF01810)
"LysE type translocator"</title>
				<polygon class="PF01810" points="813,40 821,28 828,28 828,52 821,52" stroke-linejoin="round" width="19" height="24" fill="rgb(198,75,167)" stroke="rgb(158,60,133)" stroke-width="1" opacity="0.75" />
			</g>
		</g>
	</g>
</svg>
