<svg version="1.1" baseProfile="full" xmlns="http://www.w3.org/2000/svg" width="785.2666666666667" height="80">
	<g>
		<line x1="10" y1="40.0" x2="775.2666666666667" y2="40.0" style="stroke:rgb(70,70,70); stroke-width:3 "/>
		<g>
			<title> (ctg1_774)</title>
			<polygon class=" (ctg1_774)" points="38,25 40,25 40,10 70,40 40,70 40,55 38,55" fill="rgb(255,255,255)" fill-opacity="1.0" stroke="rgb(0,0,0)" stroke-width="2"  />
			<g>
				<title>PFK (PF00365)
"Phosphofructokinase"</title>
				<polygon class="PF00365" points="38,28 54,28 65,39 65,41 54,52 38,52" stroke-linejoin="round" width="27" height="24" fill="rgb(134,188,70)" stroke="rgb(107,150,56)" stroke-width="1" opacity="0.75" />
			</g>
		</g>
		<g>
			<title> (ctg1_775)</title>
			<polygon class=" (ctg1_775)" points="72,25 75,25 75,10 105,40 75,70 75,55 72,55" fill="rgb(255,255,255)" fill-opacity="1.0" stroke="rgb(0,0,0)" stroke-width="2"  />
			<g>
				<title>Gp_dh_N (PF00044)
"Glyceraldehyde 3-phosphate dehydrogenase, NAD binding domain"</title>
				<rect class="PF00044" x="72" y="28" stroke-linejoin="round" width="10" height="24" fill="rgb(212,98,148)" stroke="rgb(169,78,118)" stroke-width="1" opacity="0.75" />
			</g>
			<g>
				<title>Gp_dh_C (PF02800)
"Glyceraldehyde 3-phosphate dehydrogenase, C-terminal domain"</title>
				<polygon class="PF02800" points="87,28 89,28 101,40 89,52 87,52" stroke-linejoin="round" width="15" height="24" fill="rgb(160,186,82)" stroke="rgb(128,148,65)" stroke-width="1" opacity="0.75" />
			</g>
		</g>
		<g>
			<title> (ctg1_776)</title>
			<polygon class=" (ctg1_776)" points="107,40 120,10 120,70" fill="rgb(255,255,255)" fill-opacity="1.0" stroke="rgb(0,0,0)" stroke-width="2"  />
		</g>
		<g>
			<title> (ctg1_777)</title>
			<polygon class=" (ctg1_777)" points="126,25 135,25 135,10 165,40 135,70 135,55 126,55" fill="rgb(255,255,255)" fill-opacity="1.0" stroke="rgb(0,0,0)" stroke-width="2"  />
			<g>
				<title>MPAB_Lcp_cat (PF09995)
"ER-bound oxygenase mpaB/B'/Rubber oxygenase, catalytic domain"</title>
				<polygon class="PF09995" points="138,28 149,28 161,40 149,52 138,52" stroke-linejoin="round" width="24" height="24" fill="rgb(194,179,92)" stroke="rgb(155,143,73)" stroke-width="1" opacity="0.75" />
			</g>
		</g>
		<g>
			<title> (ctg1_778)</title>
			<polygon class=" (ctg1_778)" points="206,25 196,25 196,10 166,40 196,70 196,55 206,55" fill="rgb(255,255,255)" fill-opacity="1.0" stroke="rgb(0,0,0)" stroke-width="2"  />
		</g>
		<g>
			<title> (ctg1_779)</title>
			<polygon class=" (ctg1_779)" points="219,25 222,25 222,10 252,40 222,70 222,55 219,55" fill="rgb(255,255,255)" fill-opacity="1.0" stroke="rgb(0,0,0)" stroke-width="2"  />
			<g>
				<title>RecA (PF00154)
"recA bacterial DNA recombination protein"</title>
				<polygon class="PF00154" points="219,28 236,28 245,37 245,43 236,52 219,52" stroke-linejoin="round" width="26" height="24" fill="rgb(191,79,162)" stroke="rgb(152,63,129)" stroke-width="1" opacity="0.75" />
			</g>
		</g>
		<g>
			<title> (ctg1_780)</title>
			<polygon class=" (ctg1_780)" points="304,25 285,25 285,10 255,40 285,70 285,55 304,55" fill="rgb(255,255,255)" fill-opacity="1.0" stroke="rgb(0,0,0)" stroke-width="2"  />
		</g>
		<g>
			<title> (ctg1_781)</title>
			<polygon class=" (ctg1_781)" points="343,25 335,25 335,10 305,40 335,70 335,55 343,55" fill="rgb(255,255,255)" fill-opacity="1.0" stroke="rgb(0,0,0)" stroke-width="2"  />
		</g>
		<g>
			<title> (ctg1_782)</title>
			<polygon class=" (ctg1_782)" points="441,25 373,25 373,10 343,40 373,70 373,55 441,55" fill="rgb(255,255,255)" fill-opacity="1.0" stroke="rgb(0,0,0)" stroke-width="2"  />
			<g>
				<title>LANC_like (PF05147)
"Lanthionine synthetase C-like protein"</title>
				<polygon class="PF05147" points="347,40 359,28 380,28 380,52 359,52" stroke-linejoin="round" width="36" height="24" fill="rgb(129,182,79)" stroke="rgb(103,145,63)" stroke-width="1" opacity="0.75" />
			</g>
			<g>
				<title>DUF4135 (PF13575)
"Domain of unknown function (DUF4135)"</title>
				<rect class="PF13575" x="393" y="28" stroke-linejoin="round" width="37" height="24" fill="rgb(228,84,217)" stroke="rgb(182,67,173)" stroke-width="1" opacity="0.75" />
			</g>
		</g>
		<g>
			<title> (ctg1_783)</title>
			<polygon class=" (ctg1_783)" points="444,40 450,10 450,70" fill="rgb(255,255,255)" fill-opacity="1.0" stroke="rgb(0,0,0)" stroke-width="2"  />
		</g>
		<g>
			<title> (ctg1_784)</title>
			<polygon class=" (ctg1_784)" points="452,40 481,10 481,70" fill="rgb(255,255,255)" fill-opacity="1.0" stroke="rgb(0,0,0)" stroke-width="2"  />
		</g>
		<g>
			<title> (ctg1_785)</title>
			<polygon class=" (ctg1_785)" points="535,25 517,25 517,10 487,40 517,70 517,55 535,55" fill="rgb(255,255,255)" fill-opacity="1.0" stroke="rgb(0,0,0)" stroke-width="2"  />
		</g>
		<g>
			<title> (ctg1_786)</title>
			<polygon class=" (ctg1_786)" points="636,25 570,25 570,10 540,40 570,70 570,55 636,55" fill="rgb(255,255,255)" fill-opacity="1.0" stroke="rgb(0,0,0)" stroke-width="2"  />
			<g>
				<title>Peptidase_S9 (PF00326)
"Prolyl oligopeptidase family"</title>
				<polygon class="PF00326" points="544,40 556,28 562,28 562,52 556,52" stroke-linejoin="round" width="20" height="24" fill="rgb(77,97,209)" stroke="rgb(61,77,167)" stroke-width="1" opacity="0.75" />
			</g>
			<g>
				<title>PD40 (PF07676)
"WD40-like Beta Propeller Repeat"</title>
				<rect class="PF07676" x="629" y="28" stroke-linejoin="round" width="2" height="24" fill="rgb(49,78,191)" stroke="rgb(39,62,152)" stroke-width="1" opacity="0.75" />
			</g>
		</g>
		<g>
			<title> (ctg1_787)</title>
			<polygon class=" (ctg1_787)" points="641,25 674,25 674,10 704,40 674,70 674,55 641,55" fill="rgb(255,255,255)" fill-opacity="1.0" stroke="rgb(0,0,0)" stroke-width="2"  />
			<g>
				<title>HATPase_c_3 (PF13589)
"Histidine kinase-, DNA gyrase B-, and HSP90-like ATPase"</title>
				<rect class="PF13589" x="643" y="28" stroke-linejoin="round" width="14" height="24" fill="rgb(220,68,225)" stroke="rgb(176,54,180)" stroke-width="1" opacity="0.75" />
			</g>
			<g>
				<title>HSP90 (PF00183)
"Hsp90 protein"</title>
				<polygon class="PF00183" points="662,28 687,28 699,40 687,52 662,52" stroke-linejoin="round" width="40" height="24" fill="rgb(214,64,55)" stroke="rgb(171,51,44)" stroke-width="1" opacity="0.75" />
			</g>
		</g>
		<g>
			<title> (ctg1_788)</title>
			<polygon class=" (ctg1_788)" points="725,10 738,40 725,70" fill="rgb(255,255,255)" fill-opacity="1.0" stroke="rgb(0,0,0)" stroke-width="2"  />
			<g>
				<title>HTH_3 (PF01381)
"Helix-turn-helix"</title>
				<polygon class="PF01381" points="725,28 729,28 730,29 730,51 729,52 725,52" stroke-linejoin="round" width="5" height="24" fill="rgb(105,79,202)" stroke="rgb(83,63,161)" stroke-width="1" opacity="0.75" />
			</g>
		</g>
		<g>
			<title> (ctg1_789)</title>
			<polygon class=" (ctg1_789)" points="742,40 751,10 751,70" fill="rgb(255,255,255)" fill-opacity="1.0" stroke="rgb(0,0,0)" stroke-width="2"  />
			<g>
				<title>DNA_binding_1 (PF01035)
"6-O-methylguanine DNA methyltransferase, DNA binding domain"</title>
				<polygon class="PF01035" points="745,40 749,28 750,28 750,52 749,52" stroke-linejoin="round" width="7" height="24" fill="rgb(79,155,220)" stroke="rgb(63,123,176)" stroke-width="1" opacity="0.75" />
			</g>
		</g>
		<g>
			<title> (ctg1_790)</title>
			<polygon class=" (ctg1_790)" points="762,10 770,40 762,70" fill="rgb(255,255,255)" fill-opacity="1.0" stroke="rgb(0,0,0)" stroke-width="2"  />
		</g>
	</g>
</svg>
