<svg version="1.1" baseProfile="full" xmlns="http://www.w3.org/2000/svg" width="425.53333333333336" height="80">
	<g>
		<line x1="10" y1="40.0" x2="415.53333333333336" y2="40.0" style="stroke:rgb(70,70,70); stroke-width:3 "/>
		<g>
			<title> (ctg29_4)</title>
			<polygon class=" (ctg29_4)" points="22,25 26,25 26,10 56,40 26,70 26,55 22,55" fill="rgb(255,255,255)" fill-opacity="1.0" stroke="rgb(0,0,0)" stroke-width="2"  />
			<g>
				<title>Abhydrolase_7 (PF12715)
"Abhydrolase family"</title>
				<polygon class="PF12715" points="24,28 40,28 51,39 51,41 40,52 24,52" stroke-linejoin="round" width="27" height="24" fill="rgb(90,219,122)" stroke="rgb(71,175,97)" stroke-width="1" opacity="0.75" />
			</g>
		</g>
		<g>
			<title> (ctg29_5)</title>
			<polygon class=" (ctg29_5)" points="62,10 67,40 62,70" fill="rgb(255,255,255)" fill-opacity="1.0" stroke="rgb(0,0,0)" stroke-width="2"  />
		</g>
		<g>
			<title> (ctg29_6)</title>
			<polygon class=" (ctg29_6)" points="68,40 93,10 93,70" fill="rgb(255,255,255)" fill-opacity="1.0" stroke="rgb(0,0,0)" stroke-width="2"  />
			<g>
				<title>Cu_amine_oxidN1 (PF07833)
"Copper amine oxidase N-terminal domain"</title>
				<rect class="PF07833" x="84" y="28" stroke-linejoin="round" width="7" height="24" fill="rgb(219,151,89)" stroke="rgb(175,120,71)" stroke-width="1" opacity="0.75" />
			</g>
		</g>
		<g>
			<title> (ctg29_7)</title>
			<polygon class=" (ctg29_7)" points="98,40 125,10 125,70" fill="rgb(255,255,255)" fill-opacity="1.0" stroke="rgb(0,0,0)" stroke-width="2"  />
		</g>
		<g>
			<title> (ctg29_8)</title>
			<polygon class=" (ctg29_8)" points="176,25 160,25 160,10 130,40 160,70 160,55 176,55" fill="rgb(255,255,255)" fill-opacity="1.0" stroke="rgb(0,0,0)" stroke-width="2"  />
			<g>
				<title>HlyD_3 (PF13437)
"HlyD family secretion protein"</title>
				<polygon class="PF13437" points="134,40 143,31 143,49" stroke-linejoin="round" width="11" height="24" fill="rgb(82,200,102)" stroke="rgb(65,160,81)" stroke-width="1" opacity="0.75" />
			</g>
			<g>
				<title>Biotin_lipoyl_2 (PF13533)
"Biotin-lipoyl like"</title>
				<rect class="PF13533" x="163" y="28" stroke-linejoin="round" width="5" height="24" fill="rgb(229,122,112)" stroke="rgb(183,97,89)" stroke-width="1" opacity="0.75" />
			</g>
		</g>
		<g>
			<title> (ctg29_9)</title>
			<polygon class=" (ctg29_9)" points="248,25 206,25 206,10 176,40 206,70 206,55 248,55" fill="rgb(255,255,255)" fill-opacity="1.0" stroke="rgb(0,0,0)" stroke-width="2"  />
			<g>
				<title>ABC_tran (PF00005)
"ABC transporter"</title>
				<polygon class="PF00005" points="184,36 192,28 199,28 199,52 192,52 184,44" stroke-linejoin="round" width="15" height="24" fill="rgb(129,201,63)" stroke="rgb(103,160,50)" stroke-width="1" opacity="0.75" />
			</g>
			<g>
				<title>ABC_membrane (PF00664)
"ABC transporter transmembrane region"</title>
				<rect class="PF00664" x="206" y="28" stroke-linejoin="round" width="27" height="24" fill="rgb(149,226,73)" stroke="rgb(119,180,58)" stroke-width="1" opacity="0.75" />
			</g>
			<g>
				<title>Peptidase_C39 (PF03412)
"Peptidase C39 family"</title>
				<rect class="PF03412" x="235" y="28" stroke-linejoin="round" width="12" height="24" fill="rgb(214,226,77)" stroke="rgb(171,180,61)" stroke-width="1" opacity="0.75" />
			</g>
		</g>
		<g>
			<title> (ctg29_10)</title>
			<polygon class=" (ctg29_10)" points="268,10 280,40 268,70" fill="rgb(255,255,255)" fill-opacity="1.0" stroke="rgb(0,0,0)" stroke-width="2"  />
		</g>
		<g>
			<title> (ctg29_11)</title>
			<polygon class=" (ctg29_11)" points="284,10 292,40 284,70" fill="rgb(255,255,255)" fill-opacity="1.0" stroke="rgb(0,0,0)" stroke-width="2"  />
		</g>
		<g>
			<title> (ctg29_12)</title>
			<polygon class=" (ctg29_12)" points="294,10 302,40 294,70" fill="rgb(255,255,255)" fill-opacity="1.0" stroke="rgb(0,0,0)" stroke-width="2"  />
		</g>
		<g>
			<title> (ctg29_13)</title>
			<polygon class=" (ctg29_13)" points="306,10 312,40 306,70" fill="rgb(255,255,255)" fill-opacity="1.0" stroke="rgb(0,0,0)" stroke-width="2"  />
		</g>
		<g>
			<title> (ctg29_14)</title>
			<polygon class=" (ctg29_14)" points="354,25 349,25 349,10 319,40 349,70 349,55 354,55" fill="rgb(255,255,255)" fill-opacity="1.0" stroke="rgb(0,0,0)" stroke-width="2"  />
			<g>
				<title>Bac_luciferase (PF00296)
"Luciferase-like monooxygenase"</title>
				<polygon class="PF00296" points="324,39 335,28 354,28 354,52 335,52 324,41" stroke-linejoin="round" width="30" height="24" fill="rgb(180,112,78)" stroke="rgb(144,89,62)" stroke-width="1" opacity="0.75" />
			</g>
		</g>
		<g>
			<title> (ctg29_15)</title>
			<polygon class=" (ctg29_15)" points="403,25 385,25 385,10 355,40 385,70 385,55 403,55" fill="rgb(255,255,255)" fill-opacity="1.0" stroke="rgb(0,0,0)" stroke-width="2"  />
			<g>
				<title>MFS_1 (PF07690)
"Major Facilitator Superfamily"</title>
				<polygon class="PF07690" points="361,38 371,28 400,28 400,52 371,52 361,42" stroke-linejoin="round" width="39" height="24" fill="rgb(193,224,74)" stroke="rgb(154,179,59)" stroke-width="1" opacity="0.75" />
			</g>
		</g>
	</g>
</svg>
