<svg version="1.1" baseProfile="full" xmlns="http://www.w3.org/2000/svg" width="696.2666666666667" height="80">
	<g>
		<line x1="10" y1="40.0" x2="686.2666666666667" y2="40.0" style="stroke:rgb(70,70,70); stroke-width:3 "/>
		<g>
			<title> (ctg5_457)</title>
			<polygon class=" (ctg5_457)" points="45,40 69,10 69,70" fill="rgb(255,255,255)" fill-opacity="1.0" stroke="rgb(0,0,0)" stroke-width="2"  />
			<g>
				<title>TadE (PF07811)
"TadE-like protein"</title>
				<rect class="PF07811" x="62" y="28" stroke-linejoin="round" width="4" height="24" fill="rgb(180,161,68)" stroke="rgb(144,128,54)" stroke-width="1" opacity="0.75" />
			</g>
		</g>
		<g>
			<title> (ctg5_458)</title>
			<polygon class=" (ctg5_458)" points="68,40 74,10 74,70" fill="rgb(255,255,255)" fill-opacity="1.0" stroke="rgb(0,0,0)" stroke-width="2"  />
		</g>
		<g>
			<title> (ctg5_459)</title>
			<polygon class=" (ctg5_459)" points="75,40 103,10 103,70" fill="rgb(255,255,255)" fill-opacity="1.0" stroke="rgb(0,0,0)" stroke-width="2"  />
			<g>
				<title>T2SSF (PF00482)
"Type II secretion system (T2SS), protein F"</title>
				<polygon class="PF00482" points="79,40 88,30 88,50" stroke-linejoin="round" width="13" height="24" fill="rgb(124,208,56)" stroke="rgb(99,166,44)" stroke-width="1" opacity="0.75" />
			</g>
		</g>
		<g>
			<title> (ctg5_460)</title>
			<polygon class=" (ctg5_460)" points="104,40 132,10 132,70" fill="rgb(255,255,255)" fill-opacity="1.0" stroke="rgb(0,0,0)" stroke-width="2"  />
			<g>
				<title>T2SSF (PF00482)
"Type II secretion system (T2SS), protein F"</title>
				<polygon class="PF00482" points="108,40 119,28 121,28 121,52 119,52 108,40" stroke-linejoin="round" width="13" height="24" fill="rgb(124,208,56)" stroke="rgb(99,166,44)" stroke-width="1" opacity="0.75" />
			</g>
		</g>
		<g>
			<title> (ctg5_461)</title>
			<polygon class=" (ctg5_461)" points="173,25 162,25 162,10 132,40 162,70 162,55 173,55" fill="rgb(255,255,255)" fill-opacity="1.0" stroke="rgb(0,0,0)" stroke-width="2"  />
			<g>
				<title>T2SSE (PF00437)
"Type II/IV secretion system protein"</title>
				<polygon class="PF00437" points="139,37 148,28 166,28 166,52 148,52 139,43" stroke-linejoin="round" width="27" height="24" fill="rgb(201,94,126)" stroke="rgb(160,75,100)" stroke-width="1" opacity="0.75" />
			</g>
		</g>
		<g>
			<title> (ctg5_462)</title>
			<polygon class=" (ctg5_462)" points="210,25 203,25 203,10 173,40 203,70 203,55 210,55" fill="rgb(255,255,255)" fill-opacity="1.0" stroke="rgb(0,0,0)" stroke-width="2"  />
			<g>
				<title>AAA_31 (PF13614)
"AAA domain"</title>
				<polygon class="PF13614" points="181,36 189,28 197,28 197,52 189,52 181,44" stroke-linejoin="round" width="16" height="24" fill="rgb(144,187,62)" stroke="rgb(115,149,49)" stroke-width="1" opacity="0.75" />
			</g>
		</g>
		<g>
			<title> (ctg5_463)</title>
			<polygon class=" (ctg5_463)" points="220,10 223,40 220,70" fill="rgb(255,255,255)" fill-opacity="1.0" stroke="rgb(0,0,0)" stroke-width="2"  />
		</g>
		<g>
			<title> (ctg5_464)</title>
			<polygon class=" (ctg5_464)" points="286,25 257,25 257,10 227,40 257,70 257,55 286,55" fill="rgb(255,255,255)" fill-opacity="1.0" stroke="rgb(0,0,0)" stroke-width="2"  />
			<g>
				<title>ABC_tran (PF00005)
"ABC transporter"</title>
				<polygon class="PF00005" points="234,37 243,28 248,28 248,52 243,52 234,43" stroke-linejoin="round" width="14" height="24" fill="rgb(129,201,63)" stroke="rgb(103,160,50)" stroke-width="1" opacity="0.75" />
			</g>
			<g>
				<title>ABC_membrane (PF00664)
"ABC transporter transmembrane region"</title>
				<rect class="PF00664" x="256" y="28" stroke-linejoin="round" width="28" height="24" fill="rgb(149,226,73)" stroke="rgb(119,180,58)" stroke-width="1" opacity="0.75" />
			</g>
		</g>
		<g>
			<title> (ctg5_465)</title>
			<polygon class=" (ctg5_465)" points="326,25 317,25 317,10 287,40 317,70 317,55 326,55" fill="rgb(255,255,255)" fill-opacity="1.0" stroke="rgb(0,0,0)" stroke-width="2"  />
			<g>
				<title>NTP_transf_5 (PF14907)
"Uncharacterised nucleotidyltransferase"</title>
				<polygon class="PF14907" points="297,34 303,28 322,28 322,52 303,52 297,46" stroke-linejoin="round" width="25" height="24" fill="rgb(191,137,74)" stroke="rgb(152,109,59)" stroke-width="1" opacity="0.75" />
			</g>
		</g>
		<g>
			<title> (ctg5_466)</title>
			<polygon class=" (ctg5_466)" points="328,40 343,10 343,70" fill="rgb(255,255,255)" fill-opacity="1.0" stroke="rgb(0,0,0)" stroke-width="2"  />
			<g>
				<title>Transglut_core3 (PF13471)
"Transglutaminase-like superfamily"</title>
				<polygon class="PF13471" points="331,40 337,28 339,28 339,52 337,52" stroke-linejoin="round" width="11" height="24" fill="rgb(63,111,179)" stroke="rgb(50,88,143)" stroke-width="1" opacity="0.75" />
			</g>
		</g>
		<g>
			<title> (ctg5_467)</title>
			<polygon class=" (ctg5_467)" points="343,40 352,10 352,70" fill="rgb(255,255,255)" fill-opacity="1.0" stroke="rgb(0,0,0)" stroke-width="2"  />
			<g>
				<title>PqqD (PF05402)
"Coenzyme PQQ synthesis protein D (PqqD)"</title>
				<polygon class="PF05402" points="346,40 349,31 349,49" stroke-linejoin="round" width="6" height="24" fill="rgb(124,62,188)" stroke="rgb(99,49,150)" stroke-width="1" opacity="0.75" />
			</g>
		</g>
		<g>
			<title> (ctg5_468)</title>
			<polygon class=" (ctg5_468)" points="383,25 382,25 382,10 352,40 382,70 382,55 383,55" fill="rgb(255,255,255)" fill-opacity="1.0" stroke="rgb(0,0,0)" stroke-width="2"  />
		</g>
		<g>
			<title> (ctg5_469)</title>
			<polygon class=" (ctg5_469)" points="424,25 416,25 416,10 386,40 416,70 416,55 424,55" fill="rgb(255,255,255)" fill-opacity="1.0" stroke="rgb(0,0,0)" stroke-width="2"  />
			<g>
				<title>Glycos_transf_1 (PF00534)
"Glycosyl transferases group 1"</title>
				<polygon class="PF00534" points="390,40 402,28 404,28 404,52 402,52" stroke-linejoin="round" width="15" height="24" fill="rgb(228,92,150)" stroke="rgb(182,73,119)" stroke-width="1" opacity="0.75" />
			</g>
			<g>
				<title>Glyco_transf_4 (PF13439)
"Glycosyltransferase Family 4"</title>
				<rect class="PF13439" x="405" y="28" stroke-linejoin="round" width="17" height="24" fill="rgb(162,57,186)" stroke="rgb(129,45,148)" stroke-width="1" opacity="0.75" />
			</g>
		</g>
		<g>
			<title> (ctg5_470)</title>
			<polygon class=" (ctg5_470)" points="464,25 455,25 455,10 425,40 455,70 455,55 464,55" fill="rgb(255,255,255)" fill-opacity="1.0" stroke="rgb(0,0,0)" stroke-width="2"  />
			<g>
				<title>Glycos_transf_1 (PF00534)
"Glycosyl transferases group 1"</title>
				<polygon class="PF00534" points="429,40 441,28 446,28 446,52 441,52 429,40" stroke-linejoin="round" width="17" height="24" fill="rgb(228,92,150)" stroke="rgb(182,73,119)" stroke-width="1" opacity="0.75" />
			</g>
			<g>
				<title>Glyco_transf_4 (PF13439)
"Glycosyltransferase Family 4"</title>
				<rect class="PF13439" x="447" y="28" stroke-linejoin="round" width="16" height="24" fill="rgb(162,57,186)" stroke="rgb(129,45,148)" stroke-width="1" opacity="0.75" />
			</g>
		</g>
		<g>
			<title> (ctg5_471)</title>
			<polygon class=" (ctg5_471)" points="503,25 494,25 494,10 464,40 494,70 494,55 503,55" fill="rgb(255,255,255)" fill-opacity="1.0" stroke="rgb(0,0,0)" stroke-width="2"  />
			<g>
				<title>Glycos_transf_1 (PF00534)
"Glycosyl transferases group 1"</title>
				<polygon class="PF00534" points="468,40 480,28 483,28 483,52 480,52" stroke-linejoin="round" width="17" height="24" fill="rgb(228,92,150)" stroke="rgb(182,73,119)" stroke-width="1" opacity="0.75" />
			</g>
			<g>
				<title>Glyco_transf_4 (PF13439)
"Glycosyltransferase Family 4"</title>
				<rect class="PF13439" x="484" y="28" stroke-linejoin="round" width="17" height="24" fill="rgb(162,57,186)" stroke="rgb(129,45,148)" stroke-width="1" opacity="0.75" />
			</g>
		</g>
		<g>
			<title> (ctg5_472)</title>
			<polygon class=" (ctg5_472)" points="540,25 535,25 535,10 505,40 535,70 535,55 540,55" fill="rgb(255,255,255)" fill-opacity="1.0" stroke="rgb(0,0,0)" stroke-width="2"  />
			<g>
				<title>Glycos_transf_1 (PF00534)
"Glycosyl transferases group 1"</title>
				<polygon class="PF00534" points="509,40 521,28 523,28 523,52 521,52" stroke-linejoin="round" width="16" height="24" fill="rgb(228,92,150)" stroke="rgb(182,73,119)" stroke-width="1" opacity="0.75" />
			</g>
			<g>
				<title>Glyco_transf_4 (PF13439)
"Glycosyltransferase Family 4"</title>
				<rect class="PF13439" x="524" y="28" stroke-linejoin="round" width="14" height="24" fill="rgb(162,57,186)" stroke="rgb(129,45,148)" stroke-width="1" opacity="0.75" />
			</g>
		</g>
		<g>
			<title> (ctg5_473)</title>
			<polygon class=" (ctg5_473)" points="577,25 570,25 570,10 540,40 570,70 570,55 577,55" fill="rgb(255,255,255)" fill-opacity="1.0" stroke="rgb(0,0,0)" stroke-width="2"  />
			<g>
				<title>Glyco_trans_1_4 (PF13692)
"Glycosyl transferases group 1"</title>
				<polygon class="PF13692" points="544,40 556,28 557,28 557,52 556,52 544,40" stroke-linejoin="round" width="13" height="24" fill="rgb(85,182,142)" stroke="rgb(68,145,113)" stroke-width="1" opacity="0.75" />
			</g>
			<g>
				<title>Glyco_transf_4 (PF13439)
"Glycosyltransferase Family 4"</title>
				<rect class="PF13439" x="559" y="28" stroke-linejoin="round" width="16" height="24" fill="rgb(162,57,186)" stroke="rgb(129,45,148)" stroke-width="1" opacity="0.75" />
			</g>
		</g>
		<g>
			<title> (ctg5_474)</title>
			<polygon class=" (ctg5_474)" points="621,25 607,25 607,10 577,40 607,70 607,55 621,55" fill="rgb(255,255,255)" fill-opacity="1.0" stroke="rgb(0,0,0)" stroke-width="2"  />
			<g>
				<title>Polysacc_synt_C (PF14667)
"Polysaccharide biosynthesis C-terminal domain"</title>
				<polygon class="PF14667" points="581,40 588,33 588,47" stroke-linejoin="round" width="9" height="24" fill="rgb(222,92,150)" stroke="rgb(177,73,120)" stroke-width="1" opacity="0.75" />
			</g>
			<g>
				<title>Polysacc_synt_3 (PF13440)
"Polysaccharide biosynthesis protein"</title>
				<polygon class="PF13440" points="588,33 593,28 617,28 617,52 593,52 588,47" stroke-linejoin="round" width="29" height="24" fill="rgb(90,196,165)" stroke="rgb(72,156,132)" stroke-width="1" opacity="0.75" />
			</g>
		</g>
		<g>
			<title> (ctg5_475)</title>
			<polygon class=" (ctg5_475)" points="661,25 653,25 653,10 623,40 653,70 653,55 661,55" fill="rgb(255,255,255)" fill-opacity="1.0" stroke="rgb(0,0,0)" stroke-width="2"  />
			<g>
				<title>Glycos_transf_1 (PF00534)
"Glycosyl transferases group 1"</title>
				<polygon class="PF00534" points="627,40 639,28 642,28 642,52 639,52" stroke-linejoin="round" width="16" height="24" fill="rgb(228,92,150)" stroke="rgb(182,73,119)" stroke-width="1" opacity="0.75" />
			</g>
			<g>
				<title>Glyco_transf_4 (PF13439)
"Glycosyltransferase Family 4"</title>
				<rect class="PF13439" x="642" y="28" stroke-linejoin="round" width="17" height="24" fill="rgb(162,57,186)" stroke="rgb(129,45,148)" stroke-width="1" opacity="0.75" />
			</g>
		</g>
	</g>
</svg>
