<svg version="1.1" baseProfile="full" xmlns="http://www.w3.org/2000/svg" width="702.6666666666666" height="80">
	<g>
		<line x1="10" y1="40.0" x2="692.6666666666666" y2="40.0" style="stroke:rgb(70,70,70); stroke-width:3 "/>
		<g>
			<title> (ctg26_30)</title>
			<polygon class=" (ctg26_30)" points="10,25 35,25 35,10 65,40 35,70 35,55 10,55" fill="rgb(255,255,255)" fill-opacity="1.0" stroke="rgb(0,0,0)" stroke-width="2"  />
			<g>
				<title>SusD-like_3 (PF14322)
"Starch-binding associating with outer membrane"</title>
				<rect class="PF14322" x="13" y="28" stroke-linejoin="round" width="20" height="24" fill="rgb(196,76,125)" stroke="rgb(156,60,100)" stroke-width="1" opacity="0.75" />
			</g>
			<g>
				<title>SusD_RagB (PF07980)
"SusD family"</title>
				<polygon class="PF07980" points="37,28 49,28 61,40 49,52 37,52" stroke-linejoin="round" width="28" height="24" fill="rgb(196,126,88)" stroke="rgb(156,100,70)" stroke-width="1" opacity="0.75" />
			</g>
		</g>
		<g>
			<title> (ctg26_31)</title>
			<polygon class=" (ctg26_31)" points="66,25 99,25 99,10 129,40 99,70 99,55 66,55" fill="rgb(255,255,255)" fill-opacity="1.0" stroke="rgb(0,0,0)" stroke-width="2"  />
			<g>
				<title>GxGYxYP_N (PF16216)
"GxGYxY sequence motif in domain of unknown function N-terminal"</title>
				<rect class="PF16216" x="75" y="28" stroke-linejoin="round" width="23" height="24" fill="rgb(214,206,102)" stroke="rgb(171,164,81)" stroke-width="1" opacity="0.75" />
			</g>
			<g>
				<title>GxGYxYP_C (PF14323)
"GxGYxYP putative glycoside hydrolase C-terminal domain"</title>
				<polygon class="PF14323" points="101,28 112,28 123,39 123,41 112,52 101,52" stroke-linejoin="round" width="22" height="24" fill="rgb(177,68,199)" stroke="rgb(141,54,159)" stroke-width="1" opacity="0.75" />
			</g>
		</g>
		<g>
			<title> (ctg26_32)</title>
			<polygon class=" (ctg26_32)" points="138,40 145,10 145,70" fill="rgb(255,255,255)" fill-opacity="1.0" stroke="rgb(0,0,0)" stroke-width="2"  />
			<g>
				<title>HTH_18 (PF12833)
"Helix-turn-helix domain"</title>
				<polygon class="PF12833" points="141,40 143,32 143,48" stroke-linejoin="round" width="5" height="24" fill="rgb(216,58,224)" stroke="rgb(172,46,179)" stroke-width="1" opacity="0.75" />
			</g>
		</g>
		<g>
			<title> (ctg26_33)</title>
			<polygon class=" (ctg26_33)" points="148,40 166,10 166,70" fill="rgb(255,255,255)" fill-opacity="1.0" stroke="rgb(0,0,0)" stroke-width="2"  />
		</g>
		<g>
			<title> (ctg26_34)</title>
			<polygon class=" (ctg26_34)" points="255,25 203,25 203,10 173,40 203,70 203,55 255,55" fill="rgb(255,255,255)" fill-opacity="1.0" stroke="rgb(0,0,0)" stroke-width="2"  />
			<g>
				<title>OMP_b-brl_3 (PF14905)
"Outer membrane protein beta-barrel family"</title>
				<polygon class="PF14905" points="177,40 189,28 215,28 215,52 189,52" stroke-linejoin="round" width="40" height="24" fill="rgb(228,176,68)" stroke="rgb(182,140,54)" stroke-width="1" opacity="0.75" />
			</g>
			<g>
				<title>CarbopepD_reg_2 (PF13715)
"CarboxypepD_reg-like domain"</title>
				<rect class="PF13715" x="242" y="28" stroke-linejoin="round" width="9" height="24" fill="rgb(198,51,128)" stroke="rgb(158,40,102)" stroke-width="1" opacity="0.75" />
			</g>
		</g>
		<g>
			<title> (ctg26_35)</title>
			<polygon class=" (ctg26_35)" points="264,10 285,40 264,70" fill="rgb(255,255,255)" fill-opacity="1.0" stroke="rgb(0,0,0)" stroke-width="2"  />
			<g>
				<title>MarR_2 (PF12802)
"MarR family"</title>
				<polygon class="PF12802" points="272,28 273,28 278,35 278,45 273,52 272,52" stroke-linejoin="round" width="6" height="24" fill="rgb(46,89,185)" stroke="rgb(36,71,148)" stroke-width="1" opacity="0.75" />
			</g>
		</g>
		<g>
			<title> (ctg26_36)</title>
			<polygon class=" (ctg26_36)" points="290,25 309,25 309,10 339,40 309,70 309,55 290,55" fill="rgb(255,255,255)" fill-opacity="1.0" stroke="rgb(0,0,0)" stroke-width="2"  />
			<g>
				<title>Amino_oxidase (PF01593)
"Flavin containing amine oxidoreductase"</title>
				<polygon class="PF01593" points="291,28 323,28 335,40 323,52 291,52" stroke-linejoin="round" width="47" height="24" fill="rgb(184,74,52)" stroke="rgb(147,59,41)" stroke-width="1" opacity="0.75" />
			</g>
		</g>
		<g>
			<title> (ctg26_37)</title>
			<polygon class=" (ctg26_37)" points="339,10 366,40 339,70" fill="rgb(255,255,255)" fill-opacity="1.0" stroke="rgb(0,0,0)" stroke-width="2"  />
			<g>
				<title>SQS_PSY (PF00494)
"Squalene/phytoene synthase"</title>
				<polygon class="PF00494" points="340,28 351,28 362,40 351,52 340,52" stroke-linejoin="round" width="24" height="24" fill="rgb(178,91,49)" stroke="rgb(142,72,39)" stroke-width="1" opacity="0.75" />
			</g>
		</g>
		<g>
			<title> (ctg26_38)</title>
			<polygon class=" (ctg26_38)" points="367,10 382,40 367,70" fill="rgb(255,255,255)" fill-opacity="1.0" stroke="rgb(0,0,0)" stroke-width="2"  />
			<g>
				<title>FA_hydroxylase (PF04116)
"Fatty acid hydroxylase"</title>
				<polygon class="PF04116" points="367,28 372,28 378,40 372,52 367,52" stroke-linejoin="round" width="13" height="24" fill="rgb(171,60,209)" stroke="rgb(136,48,167)" stroke-width="1" opacity="0.75" />
			</g>
		</g>
		<g>
			<title> (ctg26_39)</title>
			<polygon class=" (ctg26_39)" points="382,10 405,40 382,70" fill="rgb(255,255,255)" fill-opacity="1.0" stroke="rgb(0,0,0)" stroke-width="2"  />
			<g>
				<title>Lycopene_cyc (PF18916)
"Lycopene cyclase"</title>
				<rect class="PF18916" x="382" y="28" stroke-linejoin="round" width="9" height="24" fill="rgb(208,69,86)" stroke="rgb(166,55,68)" stroke-width="1" opacity="0.75" />
			</g>
			<g>
				<title>Lycopene_cyc (PF18916)
"Lycopene cyclase"</title>
				<polygon class="PF18916" points="394,31 401,40 394,49" stroke-linejoin="round" width="9" height="24" fill="rgb(208,69,86)" stroke="rgb(166,55,68)" stroke-width="1" opacity="0.75" />
			</g>
		</g>
		<g>
			<title> (ctg26_40)</title>
			<polygon class=" (ctg26_40)" points="417,10 433,40 417,70" fill="rgb(255,255,255)" fill-opacity="1.0" stroke="rgb(0,0,0)" stroke-width="2"  />
			<g>
				<title>cNMP_binding (PF00027)
"Cyclic nucleotide-binding domain"</title>
				<polygon class="PF00027" points="417,28 423,28 426,34 426,46 423,52 417,52" stroke-linejoin="round" width="9" height="24" fill="rgb(138,95,204)" stroke="rgb(110,76,163)" stroke-width="1" opacity="0.75" />
			</g>
		</g>
		<g>
			<title> (ctg26_41)</title>
			<polygon class=" (ctg26_41)" points="435,25 443,25 443,10 473,40 443,70 443,55 435,55" fill="rgb(255,255,255)" fill-opacity="1.0" stroke="rgb(0,0,0)" stroke-width="2"  />
			<g>
				<title>Acyl_transf_3 (PF01757)
"Acyltransferase family"</title>
				<polygon class="PF01757" points="436,28 457,28 469,40 457,52 436,52" stroke-linejoin="round" width="36" height="24" fill="rgb(50,152,200)" stroke="rgb(40,121,160)" stroke-width="1" opacity="0.75" />
			</g>
		</g>
		<g>
			<title> (ctg26_42)</title>
			<polygon class=" (ctg26_42)" points="481,40 492,10 492,70" fill="rgb(255,255,255)" fill-opacity="1.0" stroke="rgb(0,0,0)" stroke-width="2"  />
		</g>
		<g>
			<title> (ctg26_43)</title>
			<polygon class=" (ctg26_43)" points="495,40 512,10 512,70" fill="rgb(255,255,255)" fill-opacity="1.0" stroke="rgb(0,0,0)" stroke-width="2"  />
			<g>
				<title>cNMP_binding (PF00027)
"Cyclic nucleotide-binding domain"</title>
				<polygon class="PF00027" points="502,33 505,28 510,28 510,52 505,52 502,47" stroke-linejoin="round" width="8" height="24" fill="rgb(138,95,204)" stroke="rgb(110,76,163)" stroke-width="1" opacity="0.75" />
			</g>
		</g>
		<g>
			<title> (ctg26_44)</title>
			<polygon class=" (ctg26_44)" points="518,40 531,10 531,70" fill="rgb(255,255,255)" fill-opacity="1.0" stroke="rgb(0,0,0)" stroke-width="2"  />
			<g>
				<title>DUF5367 (PF17329)
"Family of unknown function (DUF5367)"</title>
				<polygon class="PF17329" points="521,40 526,28 527,28 527,52 526,52" stroke-linejoin="round" width="9" height="24" fill="rgb(188,73,218)" stroke="rgb(150,58,174)" stroke-width="1" opacity="0.75" />
			</g>
		</g>
		<g>
			<title> (ctg26_45)</title>
			<polygon class=" (ctg26_45)" points="545,40 560,10 560,70" fill="rgb(255,255,255)" fill-opacity="1.0" stroke="rgb(0,0,0)" stroke-width="2"  />
		</g>
		<g>
			<title> (ctg26_46)</title>
			<polygon class=" (ctg26_46)" points="564,40 577,10 577,70" fill="rgb(255,255,255)" fill-opacity="1.0" stroke="rgb(0,0,0)" stroke-width="2"  />
		</g>
		<g>
			<title> (ctg26_47)</title>
			<polygon class=" (ctg26_47)" points="580,40 605,10 605,70" fill="rgb(255,255,255)" fill-opacity="1.0" stroke="rgb(0,0,0)" stroke-width="2"  />
		</g>
		<g>
			<title> (ctg26_48)</title>
			<polygon class=" (ctg26_48)" points="624,25 628,25 628,10 658,40 628,70 628,55 624,55" fill="rgb(255,255,255)" fill-opacity="1.0" stroke="rgb(0,0,0)" stroke-width="2"  />
		</g>
		<g>
			<title> (ctg26_49)</title>
			<polygon class=" (ctg26_49)" points="658,40 677,10 677,70" fill="rgb(255,255,255)" fill-opacity="1.0" stroke="rgb(0,0,0)" stroke-width="2"  />
		</g>
		<g>
			<title> (ctg26_50)</title>
			<polygon class=" (ctg26_50)" points="682,10 692,40 682,70" fill="rgb(255,255,255)" fill-opacity="1.0" stroke="rgb(0,0,0)" stroke-width="2"  />
		</g>
	</g>
</svg>
