<svg version="1.1" baseProfile="full" xmlns="http://www.w3.org/2000/svg" width="876.8333333333334" height="80">
	<g>
		<line x1="10" y1="40.0" x2="866.8333333333334" y2="40.0" style="stroke:rgb(70,70,70); stroke-width:3 "/>
		<g>
			<title> (ctg1_39)</title>
			<polygon class=" (ctg1_39)" points="63,25 61,25 61,10 31,40 61,70 61,55 63,55" fill="rgb(255,255,255)" fill-opacity="1.0" stroke="rgb(0,0,0)" stroke-width="2"  />
			<g>
				<title>SBP_bac_6 (PF13343)
"Bacterial extracellular solute-binding protein"</title>
				<polygon class="PF13343" points="35,40 47,28 56,28 56,52 47,52" stroke-linejoin="round" width="24" height="24" fill="rgb(176,192,49)" stroke="rgb(140,153,39)" stroke-width="1" opacity="0.75" />
			</g>
		</g>
		<g>
			<title> (ctg1_40)</title>
			<polygon class=" (ctg1_40)" points="131,25 106,25 106,10 76,40 106,70 106,55 131,55" fill="rgb(255,255,255)" fill-opacity="1.0" stroke="rgb(0,0,0)" stroke-width="2"  />
			<g>
				<title>SBP_bac_5 (PF00496)
"Bacterial extracellular solute-binding proteins, family 5 Middle"</title>
				<polygon class="PF00496" points="84,36 92,28 115,28 115,52 92,52 84,44" stroke-linejoin="round" width="31" height="24" fill="rgb(199,94,116)" stroke="rgb(159,75,92)" stroke-width="1" opacity="0.75" />
			</g>
			<g>
				<title>SgrR_N (PF12793)
"Sugar transport-related sRNA regulator N-term"</title>
				<rect class="PF12793" x="119" y="28" stroke-linejoin="round" width="11" height="24" fill="rgb(63,196,102)" stroke="rgb(50,156,81)" stroke-width="1" opacity="0.75" />
			</g>
		</g>
		<g>
			<title> (ctg1_41)</title>
			<polygon class=" (ctg1_41)" points="139,25 148,25 148,10 178,40 148,70 148,55 139,55" fill="rgb(255,255,255)" fill-opacity="1.0" stroke="rgb(0,0,0)" stroke-width="2"  />
			<g>
				<title>MFS_1 (PF07690)
"Major Facilitator Superfamily"</title>
				<polygon class="PF07690" points="140,28 162,28 172,38 172,42 162,52 140,52" stroke-linejoin="round" width="32" height="24" fill="rgb(193,224,74)" stroke="rgb(154,179,59)" stroke-width="1" opacity="0.75" />
			</g>
		</g>
		<g>
			<title> (ctg1_42)</title>
			<polygon class=" (ctg1_42)" points="183,25 202,25 202,10 232,40 202,70 202,55 183,55" fill="rgb(255,255,255)" fill-opacity="1.0" stroke="rgb(0,0,0)" stroke-width="2"  />
			<g>
				<title>Na_sulph_symp (PF00939)
"Sodium:sulfate symporter transmembrane region"</title>
				<polygon class="PF00939" points="183,28 215,28 227,40 215,52 183,52" stroke-linejoin="round" width="48" height="24" fill="rgb(94,204,141)" stroke="rgb(75,163,112)" stroke-width="1" opacity="0.75" />
			</g>
		</g>
		<g>
			<title> (ctg1_43)</title>
			<polygon class=" (ctg1_43)" points="239,40 259,10 259,70" fill="rgb(255,255,255)" fill-opacity="1.0" stroke="rgb(0,0,0)" stroke-width="2"  />
			<g>
				<title>Aconitase_C (PF00694)
"Aconitase C-terminal domain"</title>
				<polygon class="PF00694" points="246,36 251,28 258,28 258,52 251,52 246,44" stroke-linejoin="round" width="12" height="24" fill="rgb(63,185,92)" stroke="rgb(50,148,73)" stroke-width="1" opacity="0.75" />
			</g>
		</g>
		<g>
			<title> (ctg1_44)</title>
			<polygon class=" (ctg1_44)" points="306,25 290,25 290,10 260,40 290,70 290,55 306,55" fill="rgb(255,255,255)" fill-opacity="1.0" stroke="rgb(0,0,0)" stroke-width="2"  />
			<g>
				<title>Aconitase (PF00330)
"Aconitase family (aconitate hydratase)"</title>
				<polygon class="PF00330" points="264,40 276,28 306,28 306,52 276,52" stroke-linejoin="round" width="45" height="24" fill="rgb(180,189,85)" stroke="rgb(144,151,68)" stroke-width="1" opacity="0.75" />
			</g>
		</g>
		<g>
			<title> (ctg1_45)</title>
			<polygon class=" (ctg1_45)" points="342,25 336,25 336,10 306,40 336,70 336,55 342,55" fill="rgb(255,255,255)" fill-opacity="1.0" stroke="rgb(0,0,0)" stroke-width="2"  />
			<g>
				<title>Iso_dh (PF00180)
"Isocitrate/isopropylmalate dehydrogenase"</title>
				<polygon class="PF00180" points="310,40 322,28 340,28 340,52 322,52" stroke-linejoin="round" width="34" height="24" fill="rgb(109,54,206)" stroke="rgb(87,43,164)" stroke-width="1" opacity="0.75" />
			</g>
		</g>
		<g>
			<title> (ctg1_46)</title>
			<polygon class=" (ctg1_46)" points="395,25 373,25 373,10 343,40 373,70 373,55 395,55" fill="rgb(255,255,255)" fill-opacity="1.0" stroke="rgb(0,0,0)" stroke-width="2"  />
			<g>
				<title>LeuA_dimer (PF08502)
"LeuA allosteric (dimerisation) domain"</title>
				<polygon class="PF08502" points="347,40 358,29 358,51" stroke-linejoin="round" width="13" height="24" fill="rgb(182,95,71)" stroke="rgb(145,76,56)" stroke-width="1" opacity="0.75" />
			</g>
			<g>
				<title>HMGL-like (PF00682)
"HMGL-like"</title>
				<rect class="PF00682" x="368" y="28" stroke-linejoin="round" width="26" height="24" fill="rgb(84,228,141)" stroke="rgb(67,182,112)" stroke-width="1" opacity="0.75" />
			</g>
		</g>
		<g>
			<title> (ctg1_47)</title>
			<polygon class=" (ctg1_47)" points="426,25 427,25 427,10 457,40 427,70 427,55 426,55" fill="rgb(255,255,255)" fill-opacity="1.0" stroke="rgb(0,0,0)" stroke-width="2"  />
			<g>
				<title>HTH_1 (PF00126)
"Bacterial regulatory helix-turn-helix protein, lysR family"</title>
				<rect class="PF00126" x="428" y="28" stroke-linejoin="round" width="5" height="24" fill="rgb(125,227,79)" stroke="rgb(99,181,63)" stroke-width="1" opacity="0.75" />
			</g>
			<g>
				<title>LysR_substrate (PF03466)
"LysR substrate binding domain"</title>
				<polygon class="PF03466" points="436,28 441,28 453,40 441,52 436,52" stroke-linejoin="round" width="20" height="24" fill="rgb(55,136,195)" stroke="rgb(44,108,156)" stroke-width="1" opacity="0.75" />
			</g>
		</g>
		<g>
			<title> (ctg1_48)</title>
			<polygon class=" (ctg1_48)" points="475,25 503,25 503,10 533,40 503,70 503,55 475,55" fill="rgb(255,255,255)" fill-opacity="1.0" stroke="rgb(0,0,0)" stroke-width="2"  />
			<g>
				<title>AMP-binding (PF00501)
"AMP-binding enzyme"</title>
				<polygon class="PF00501" points="475,28 517,28 519,30 519,50 517,52 475,52" stroke-linejoin="round" width="44" height="24" fill="rgb(60,217,223)" stroke="rgb(48,173,178)" stroke-width="1" opacity="0.75" />
			</g>
		</g>
		<g>
			<title> (ctg1_49)</title>
			<polygon class=" (ctg1_49)" points="545,25 572,25 572,10 602,40 572,70 572,55 545,55" fill="rgb(255,255,255)" fill-opacity="1.0" stroke="rgb(0,0,0)" stroke-width="2"  />
			<g>
				<title>TPP_enzyme_N (PF02776)
"Thiamine pyrophosphate enzyme, N-terminal TPP binding domain"</title>
				<rect class="PF02776" x="545" y="28" stroke-linejoin="round" width="16" height="24" fill="rgb(55,81,185)" stroke="rgb(44,64,148)" stroke-width="1" opacity="0.75" />
			</g>
			<g>
				<title>TPP_enzyme_M (PF00205)
"Thiamine pyrophosphate enzyme, central domain"</title>
				<rect class="PF00205" x="564" y="28" stroke-linejoin="round" width="13" height="24" fill="rgb(149,194,69)" stroke="rgb(119,155,55)" stroke-width="1" opacity="0.75" />
			</g>
			<g>
				<title>TPP_enzyme_C (PF02775)
"Thiamine pyrophosphate enzyme, C-terminal TPP binding domain"</title>
				<polygon class="PF02775" points="584,28 586,28 598,40 598,40 586,52 584,52" stroke-linejoin="round" width="14" height="24" fill="rgb(156,179,45)" stroke="rgb(124,143,36)" stroke-width="1" opacity="0.75" />
			</g>
		</g>
		<g>
			<title> (ctg1_50)</title>
			<polygon class=" (ctg1_50)" points="603,10 619,40 603,70" fill="rgb(255,255,255)" fill-opacity="1.0" stroke="rgb(0,0,0)" stroke-width="2"  />
			<g>
				<title>ACT (PF01842)
"ACT domain"</title>
				<rect class="PF01842" x="603" y="28" stroke-linejoin="round" width="6" height="24" fill="rgb(67,209,69)" stroke="rgb(53,167,55)" stroke-width="1" opacity="0.75" />
			</g>
			<g>
				<title>ALS_ss_C (PF10369)
"Small subunit of acetolactate synthase"</title>
				<polygon class="PF10369" points="611,31 616,40 611,49" stroke-linejoin="round" width="7" height="24" fill="rgb(93,227,61)" stroke="rgb(74,181,48)" stroke-width="1" opacity="0.75" />
			</g>
		</g>
		<g>
			<title> (ctg1_51)</title>
			<polygon class=" (ctg1_51)" points="629,25 632,25 632,10 662,40 632,70 632,55 629,55" fill="rgb(255,255,255)" fill-opacity="1.0" stroke="rgb(0,0,0)" stroke-width="2"  />
			<g>
				<title>LacI (PF00356)
"Bacterial regulatory proteins, lacI family"</title>
				<rect class="PF00356" x="629" y="28" stroke-linejoin="round" width="4" height="24" fill="rgb(66,188,63)" stroke="rgb(52,150,50)" stroke-width="1" opacity="0.75" />
			</g>
			<g>
				<title>Peripla_BP_1 (PF00532)
"Periplasmic binding proteins and sugar binding domain of LacI family"</title>
				<polygon class="PF00532" points="635,28 646,28 658,40 646,52 635,52" stroke-linejoin="round" width="26" height="24" fill="rgb(170,185,72)" stroke="rgb(136,148,57)" stroke-width="1" opacity="0.75" />
			</g>
		</g>
		<g>
			<title> (ctg1_52)</title>
			<polygon class=" (ctg1_52)" points="663,40 677,10 677,70" fill="rgb(255,255,255)" fill-opacity="1.0" stroke="rgb(0,0,0)" stroke-width="2"  />
			<g>
				<title>AlaE (PF06610)
"L-alanine exporter"</title>
				<polygon class="PF06610" points="666,40 672,28 677,28 677,52 672,52" stroke-linejoin="round" width="14" height="24" fill="rgb(70,225,148)" stroke="rgb(56,180,118)" stroke-width="1" opacity="0.75" />
			</g>
		</g>
		<g>
			<title> (ctg1_53)</title>
			<polygon class=" (ctg1_53)" points="708,10 722,40 708,70" fill="rgb(255,255,255)" fill-opacity="1.0" stroke="rgb(0,0,0)" stroke-width="2"  />
			<g>
				<title>MraZ (PF02381)
"MraZ protein, putative antitoxin-like"</title>
				<polygon class="PF02381" points="708,28 713,28 714,30 714,50 713,52 708,52" stroke-linejoin="round" width="6" height="24" fill="rgb(183,161,79)" stroke="rgb(146,128,63)" stroke-width="1" opacity="0.75" />
			</g>
			<g>
				<title>MraZ (PF02381)
"MraZ protein, putative antitoxin-like"</title>
				<polygon class="PF02381" points="715,32 719,40 715,48" stroke-linejoin="round" width="7" height="24" fill="rgb(183,161,79)" stroke="rgb(146,128,63)" stroke-width="1" opacity="0.75" />
			</g>
		</g>
		<g>
			<title> (ctg1_54)</title>
			<polygon class=" (ctg1_54)" points="722,25 723,25 723,10 753,40 723,70 723,55 722,55" fill="rgb(255,255,255)" fill-opacity="1.0" stroke="rgb(0,0,0)" stroke-width="2"  />
			<g>
				<title>Methyltransf_5 (PF01795)
"MraW methylase family"</title>
				<polygon class="PF01795" points="722,28 737,28 749,40 737,52 722,52" stroke-linejoin="round" width="30" height="24" fill="rgb(57,116,220)" stroke="rgb(45,92,176)" stroke-width="1" opacity="0.75" />
			</g>
		</g>
		<g>
			<title> (ctg1_55)</title>
			<polygon class=" (ctg1_55)" points="754,10 764,40 754,70" fill="rgb(255,255,255)" fill-opacity="1.0" stroke="rgb(0,0,0)" stroke-width="2"  />
			<g>
				<title>FtsL (PF04999)
"Cell division protein FtsL"</title>
				<polygon class="PF04999" points="754,28 756,28 761,40 756,52 754,52" stroke-linejoin="round" width="9" height="24" fill="rgb(216,148,67)" stroke="rgb(172,118,53)" stroke-width="1" opacity="0.75" />
			</g>
		</g>
		<g>
			<title> (ctg1_56)</title>
			<polygon class=" (ctg1_56)" points="766,25 794,25 794,10 824,40 794,70 794,55 766,55" fill="rgb(255,255,255)" fill-opacity="1.0" stroke="rgb(0,0,0)" stroke-width="2"  />
			<g>
				<title>PBP_dimer (PF03717)
"Penicillin-binding Protein dimerisation domain"</title>
				<rect class="PF03717" x="772" y="28" stroke-linejoin="round" width="15" height="24" fill="rgb(90,211,197)" stroke="rgb(72,168,157)" stroke-width="1" opacity="0.75" />
			</g>
			<g>
				<title>Transpeptidase (PF00905)
"Penicillin binding protein transpeptidase domain"</title>
				<polygon class="PF00905" points="791,28 808,28 820,40 820,40 808,52 791,52" stroke-linejoin="round" width="29" height="24" fill="rgb(161,226,87)" stroke="rgb(128,180,69)" stroke-width="1" opacity="0.75" />
			</g>
		</g>
	</g>
</svg>
