<svg version="1.1" baseProfile="full" xmlns="http://www.w3.org/2000/svg" width="1012.0" height="80">
	<g>
		<line x1="10" y1="40.0" x2="1002.0" y2="40.0" style="stroke:rgb(70,70,70); stroke-width:3 "/>
		<g>
			<title> (ctg1_117)</title>
			<polygon class=" (ctg1_117)" points="16,10 29,40 16,70" fill="rgb(255,255,255)" fill-opacity="1.0" stroke="rgb(0,0,0)" stroke-width="2"  />
			<g>
				<title>SSB (PF00436)
"Single-strand binding protein family"</title>
				<polygon class="PF00436" points="16,28 20,28 25,40 20,52 16,52" stroke-linejoin="round" width="10" height="24" fill="rgb(64,225,98)" stroke="rgb(51,180,78)" stroke-width="1" opacity="0.75" />
			</g>
		</g>
		<g>
			<title> (ctg1_118)</title>
			<polygon class=" (ctg1_118)" points="38,25 50,25 50,10 80,40 50,70 50,55 38,55" fill="rgb(255,255,255)" fill-opacity="1.0" stroke="rgb(0,0,0)" stroke-width="2"  />
		</g>
		<g>
			<title> (ctg1_119)</title>
			<polygon class=" (ctg1_119)" points="81,40 93,10 93,70" fill="rgb(255,255,255)" fill-opacity="1.0" stroke="rgb(0,0,0)" stroke-width="2"  />
		</g>
		<g>
			<title> (ctg1_120)</title>
			<polygon class=" (ctg1_120)" points="142,25 132,25 132,10 102,40 132,70 132,55 142,55" fill="rgb(255,255,255)" fill-opacity="1.0" stroke="rgb(0,0,0)" stroke-width="2"  />
		</g>
		<g>
			<title> (ctg1_121)</title>
			<polygon class=" (ctg1_121)" points="144,40 160,10 160,70" fill="rgb(255,255,255)" fill-opacity="1.0" stroke="rgb(0,0,0)" stroke-width="2"  />
		</g>
		<g>
			<title> (ctg1_122)</title>
			<polygon class=" (ctg1_122)" points="214,25 206,25 206,10 176,40 206,70 206,55 214,55" fill="rgb(255,255,255)" fill-opacity="1.0" stroke="rgb(0,0,0)" stroke-width="2"  />
			<g>
				<title>YcaO (PF02624)
"YcaO cyclodehydratase, ATP-ad Mg2+-binding"</title>
				<polygon class="PF02624" points="180,40 192,28 210,28 210,52 192,52" stroke-linejoin="round" width="31" height="24" fill="rgb(76,84,185)" stroke="rgb(60,67,148)" stroke-width="1" opacity="0.75" />
			</g>
		</g>
		<g>
			<title> (ctg1_123)</title>
			<polygon class=" (ctg1_123)" points="318,25 256,25 256,10 226,40 256,70 256,55 318,55" fill="rgb(255,255,255)" fill-opacity="1.0" stroke="rgb(0,0,0)" stroke-width="2"  />
		</g>
		<g>
			<title> (ctg1_124)</title>
			<polygon class=" (ctg1_124)" points="327,40 337,10 337,70" fill="rgb(255,255,255)" fill-opacity="1.0" stroke="rgb(0,0,0)" stroke-width="2"  />
			<g>
				<title>Multi_Drug_Res (PF00893)
"Small Multidrug Resistance protein"</title>
				<polygon class="PF00893" points="330,40 334,28 337,28 337,52 334,52" stroke-linejoin="round" width="9" height="24" fill="rgb(199,75,202)" stroke="rgb(159,60,161)" stroke-width="1" opacity="0.75" />
			</g>
		</g>
		<g>
			<title> (ctg1_125)</title>
			<polygon class=" (ctg1_125)" points="337,40 348,10 348,70" fill="rgb(255,255,255)" fill-opacity="1.0" stroke="rgb(0,0,0)" stroke-width="2"  />
			<g>
				<title>Multi_Drug_Res (PF00893)
"Small Multidrug Resistance protein"</title>
				<polygon class="PF00893" points="340,40 345,28 348,28 348,52 345,52" stroke-linejoin="round" width="9" height="24" fill="rgb(199,75,202)" stroke="rgb(159,60,161)" stroke-width="1" opacity="0.75" />
			</g>
		</g>
		<g>
			<title> (ctg1_126)</title>
			<polygon class=" (ctg1_126)" points="349,40 360,10 360,70" fill="rgb(255,255,255)" fill-opacity="1.0" stroke="rgb(0,0,0)" stroke-width="2"  />
			<g>
				<title>TetR_C_28 (PF17937)
"Tetracyclin repressor-like, C-terminal domain"</title>
				<polygon class="PF17937" points="352,40 357,28 358,28 358,52 357,52" stroke-linejoin="round" width="9" height="24" fill="rgb(163,186,58)" stroke="rgb(130,148,46)" stroke-width="1" opacity="0.75" />
			</g>
		</g>
		<g>
			<title> (ctg1_127)</title>
			<polygon class=" (ctg1_127)" points="363,25 370,25 370,10 400,40 370,70 370,55 363,55" fill="rgb(255,255,255)" fill-opacity="1.0" stroke="rgb(0,0,0)" stroke-width="2"  />
			<g>
				<title>Phage_int_SAM_1 (PF02899)
"Phage integrase, N-terminal SAM-like domain"</title>
				<rect class="PF02899" x="367" y="28" stroke-linejoin="round" width="9" height="24" fill="rgb(112,78,223)" stroke="rgb(89,62,178)" stroke-width="1" opacity="0.75" />
			</g>
			<g>
				<title>Phage_integrase (PF00589)
"Phage integrase family"</title>
				<polygon class="PF00589" points="381,28 384,28 396,40 384,52 381,52" stroke-linejoin="round" width="16" height="24" fill="rgb(91,96,195)" stroke="rgb(72,76,156)" stroke-width="1" opacity="0.75" />
			</g>
		</g>
		<g>
			<title> (ctg1_128)</title>
			<polygon class=" (ctg1_128)" points="399,25 434,25 434,10 464,40 434,70 434,55 399,55" fill="rgb(255,255,255)" fill-opacity="1.0" stroke="rgb(0,0,0)" stroke-width="2"  />
			<g>
				<title>Phage_integrase (PF00589)
"Phage integrase family"</title>
				<polygon class="PF00589" points="433,28 447,28 450,31 450,49 447,52 433,52" stroke-linejoin="round" width="17" height="24" fill="rgb(91,96,195)" stroke="rgb(72,76,156)" stroke-width="1" opacity="0.75" />
			</g>
		</g>
		<g>
			<title> (ctg1_129)</title>
			<polygon class=" (ctg1_129)" points="464,10 473,40 464,70" fill="rgb(255,255,255)" fill-opacity="1.0" stroke="rgb(0,0,0)" stroke-width="2"  />
			<g>
				<title>DUF6262 (PF19776)
"Family of unknown function (DUF6262)"</title>
				<polygon class="PF19776" points="464,28 466,28 470,40 466,52 464,52" stroke-linejoin="round" width="9" height="24" fill="rgb(201,158,68)" stroke="rgb(160,126,54)" stroke-width="1" opacity="0.75" />
			</g>
		</g>
		<g>
			<title> (ctg1_130)</title>
			<polygon class=" (ctg1_130)" points="475,40 482,10 482,70" fill="rgb(255,255,255)" fill-opacity="1.0" stroke="rgb(0,0,0)" stroke-width="2"  />
			<g>
				<title>rve (PF00665)
"Integrase core domain"</title>
				<polygon class="PF00665" points="478,40 481,28 482,28 482,52 481,52" stroke-linejoin="round" width="7" height="24" fill="rgb(93,64,200)" stroke="rgb(74,51,160)" stroke-width="1" opacity="0.75" />
			</g>
		</g>
		<g>
			<title> (ctg1_131)</title>
			<polygon class=" (ctg1_131)" points="486,25 508,25 508,10 538,40 508,70 508,55 486,55" fill="rgb(255,255,255)" fill-opacity="1.0" stroke="rgb(0,0,0)" stroke-width="2"  />
			<g>
				<title>HTH_38 (PF13936)
"Helix-turn-helix domain"</title>
				<rect class="PF13936" x="505" y="28" stroke-linejoin="round" width="4" height="24" fill="rgb(76,213,183)" stroke="rgb(60,170,146)" stroke-width="1" opacity="0.75" />
			</g>
		</g>
		<g>
			<title> (ctg1_132)</title>
			<polygon class=" (ctg1_132)" points="538,40 552,10 552,70" fill="rgb(255,255,255)" fill-opacity="1.0" stroke="rgb(0,0,0)" stroke-width="2"  />
		</g>
		<g>
			<title> (ctg1_133)</title>
			<polygon class=" (ctg1_133)" points="552,40 562,10 562,70" fill="rgb(255,255,255)" fill-opacity="1.0" stroke="rgb(0,0,0)" stroke-width="2"  />
			<g>
				<title>HTH_Tnp_1 (PF01527)
"Transposase"</title>
				<polygon class="PF01527" points="555,40 559,28 561,28 561,52 559,52" stroke-linejoin="round" width="8" height="24" fill="rgb(85,212,107)" stroke="rgb(68,169,85)" stroke-width="1" opacity="0.75" />
			</g>
		</g>
		<g>
			<title> (ctg1_134)</title>
			<polygon class=" (ctg1_134)" points="567,40 582,10 582,70" fill="rgb(255,255,255)" fill-opacity="1.0" stroke="rgb(0,0,0)" stroke-width="2"  />
			<g>
				<title>MarR_2 (PF12802)
"MarR family"</title>
				<polygon class="PF12802" points="572,36 576,28 578,28 578,52 576,52 572,44" stroke-linejoin="round" width="6" height="24" fill="rgb(46,89,185)" stroke="rgb(36,71,148)" stroke-width="1" opacity="0.75" />
			</g>
		</g>
		<g>
			<title> (ctg1_135)</title>
			<polygon class=" (ctg1_135)" points="585,10 604,40 585,70" fill="rgb(255,255,255)" fill-opacity="1.0" stroke="rgb(0,0,0)" stroke-width="2"  />
			<g>
				<title>NUDIX (PF00293)
"NUDIX domain"</title>
				<polygon class="PF00293" points="588,28 593,28 600,40 593,52 588,52" stroke-linejoin="round" width="13" height="24" fill="rgb(92,56,187)" stroke="rgb(73,44,149)" stroke-width="1" opacity="0.75" />
			</g>
		</g>
		<g>
			<title> (ctg1_136)</title>
			<polygon class=" (ctg1_136)" points="604,25 609,25 609,10 639,40 609,70 609,55 604,55" fill="rgb(255,255,255)" fill-opacity="1.0" stroke="rgb(0,0,0)" stroke-width="2"  />
			<g>
				<title>polyprenyl_synt (PF00348)
"Polyprenyl synthetase"</title>
				<polygon class="PF00348" points="607,28 622,28 632,38 632,42 622,52 607,52" stroke-linejoin="round" width="25" height="24" fill="rgb(61,206,65)" stroke="rgb(48,164,52)" stroke-width="1" opacity="0.75" />
			</g>
		</g>
		<g>
			<title> (ctg1_137)</title>
			<polygon class=" (ctg1_137)" points="639,10 667,40 639,70" fill="rgb(255,255,255)" fill-opacity="1.0" stroke="rgb(0,0,0)" stroke-width="2"  />
			<g>
				<title>SQS_PSY (PF00494)
"Squalene/phytoene synthase"</title>
				<polygon class="PF00494" points="640,28 651,28 663,40 651,52 640,52" stroke-linejoin="round" width="25" height="24" fill="rgb(178,91,49)" stroke="rgb(142,72,39)" stroke-width="1" opacity="0.75" />
			</g>
		</g>
		<g>
			<title> (ctg1_138)</title>
			<polygon class=" (ctg1_138)" points="668,25 691,25 691,10 721,40 691,70 691,55 668,55" fill="rgb(255,255,255)" fill-opacity="1.0" stroke="rgb(0,0,0)" stroke-width="2"  />
			<g>
				<title>Amino_oxidase (PF01593)
"Flavin containing amine oxidoreductase"</title>
				<polygon class="PF01593" points="670,28 705,28 717,40 705,52 670,52" stroke-linejoin="round" width="49" height="24" fill="rgb(184,74,52)" stroke="rgb(147,59,41)" stroke-width="1" opacity="0.75" />
			</g>
		</g>
		<g>
			<title> (ctg1_139)</title>
			<polygon class=" (ctg1_139)" points="722,10 733,40 722,70" fill="rgb(255,255,255)" fill-opacity="1.0" stroke="rgb(0,0,0)" stroke-width="2"  />
		</g>
		<g>
			<title> (ctg1_140)</title>
			<polygon class=" (ctg1_140)" points="733,10 744,40 733,70" fill="rgb(255,255,255)" fill-opacity="1.0" stroke="rgb(0,0,0)" stroke-width="2"  />
			<g>
				<title>Lycopene_cyc (PF18916)
"Lycopene cyclase"</title>
				<polygon class="PF18916" points="733,28 736,28 741,40 736,52 733,52" stroke-linejoin="round" width="9" height="24" fill="rgb(208,69,86)" stroke="rgb(166,55,68)" stroke-width="1" opacity="0.75" />
			</g>
		</g>
		<g>
			<title> (ctg1_141)</title>
			<polygon class=" (ctg1_141)" points="744,10 772,40 744,70" fill="rgb(255,255,255)" fill-opacity="1.0" stroke="rgb(0,0,0)" stroke-width="2"  />
			<g>
				<title>UbiA (PF01040)
"UbiA prenyltransferase family"</title>
				<polygon class="PF01040" points="745,28 756,28 768,40 756,52 745,52" stroke-linejoin="round" width="25" height="24" fill="rgb(189,57,100)" stroke="rgb(151,45,80)" stroke-width="1" opacity="0.75" />
			</g>
		</g>
		<g>
			<title> (ctg1_142)</title>
			<polygon class=" (ctg1_142)" points="870,25 804,25 804,10 774,40 804,70 804,55 870,55" fill="rgb(255,255,255)" fill-opacity="1.0" stroke="rgb(0,0,0)" stroke-width="2"  />
			<g>
				<title>UPF0182 (PF03699)
"Uncharacterised protein family (UPF0182)"</title>
				<polygon class="PF03699" points="789,29 790,28 868,28 868,52 790,52 789,51" stroke-linejoin="round" width="79" height="24" fill="rgb(169,89,227)" stroke="rgb(135,71,181)" stroke-width="1" opacity="0.75" />
			</g>
		</g>
		<g>
			<title> (ctg1_143)</title>
			<polygon class=" (ctg1_143)" points="908,25 901,25 901,10 871,40 901,70 901,55 908,55" fill="rgb(255,255,255)" fill-opacity="1.0" stroke="rgb(0,0,0)" stroke-width="2"  />
			<g>
				<title>Peptidase_M50 (PF02163)
"Peptidase family M50"</title>
				<polygon class="PF02163" points="880,35 887,28 906,28 906,52 887,52 880,45" stroke-linejoin="round" width="26" height="24" fill="rgb(105,96,203)" stroke="rgb(83,76,162)" stroke-width="1" opacity="0.75" />
			</g>
		</g>
		<g>
			<title> (ctg1_144)</title>
			<polygon class=" (ctg1_144)" points="913,25 930,25 930,10 960,40 930,70 930,55 913,55" fill="rgb(255,255,255)" fill-opacity="1.0" stroke="rgb(0,0,0)" stroke-width="2"  />
			<g>
				<title>Zincin_2 (PF10103)
"Zincin-like metallopeptidase"</title>
				<polygon class="PF10103" points="920,28 943,28 954,39 954,41 943,52 920,52" stroke-linejoin="round" width="34" height="24" fill="rgb(162,226,85)" stroke="rgb(129,180,67)" stroke-width="1" opacity="0.75" />
			</g>
		</g>
		<g>
			<title> (ctg1_145)</title>
			<polygon class=" (ctg1_145)" points="961,25 961,25 961,10 991,40 961,70 961,55 961,55" fill="rgb(255,255,255)" fill-opacity="1.0" stroke="rgb(0,0,0)" stroke-width="2"  />
		</g>
	</g>
</svg>
