<svg version="1.1" baseProfile="full" xmlns="http://www.w3.org/2000/svg" width="707.9666666666667" height="80">
	<g>
		<line x1="10" y1="40.0" x2="697.9666666666667" y2="40.0" style="stroke:rgb(70,70,70); stroke-width:3 "/>
		<g>
			<title> (ctg9_10)</title>
			<polygon class=" (ctg9_10)" points="105,40 124,10 124,70" fill="rgb(255,255,255)" fill-opacity="1.0" stroke="rgb(0,0,0)" stroke-width="2"  />
		</g>
		<g>
			<title> (ctg9_11)</title>
			<polygon class=" (ctg9_11)" points="157,25 155,25 155,10 125,40 155,70 155,55 157,55" fill="rgb(255,255,255)" fill-opacity="1.0" stroke="rgb(0,0,0)" stroke-width="2"  />
		</g>
		<g>
			<title> (ctg9_12)</title>
			<polygon class=" (ctg9_12)" points="172,10 181,40 172,70" fill="rgb(255,255,255)" fill-opacity="1.0" stroke="rgb(0,0,0)" stroke-width="2"  />
		</g>
		<g>
			<title> (ctg9_13)</title>
			<polygon class=" (ctg9_13)" points="190,10 213,40 190,70" fill="rgb(255,255,255)" fill-opacity="1.0" stroke="rgb(0,0,0)" stroke-width="2"  />
		</g>
		<g>
			<title> (ctg9_14)</title>
			<polygon class=" (ctg9_14)" points="215,10 229,40 215,70" fill="rgb(255,255,255)" fill-opacity="1.0" stroke="rgb(0,0,0)" stroke-width="2"  />
			<g>
				<title>BTP (PF05232)
"Chlorhexidine efflux transporter"</title>
				<polygon class="PF05232" points="215,28 220,28 221,29 221,51 220,52 215,52" stroke-linejoin="round" width="6" height="24" fill="rgb(60,155,228)" stroke="rgb(47,124,182)" stroke-width="1" opacity="0.75" />
			</g>
			<g>
				<title>BTP (PF05232)
"Chlorhexidine efflux transporter"</title>
				<polygon class="PF05232" points="222,31 226,40 222,49" stroke-linejoin="round" width="6" height="24" fill="rgb(60,155,228)" stroke="rgb(47,124,182)" stroke-width="1" opacity="0.75" />
			</g>
		</g>
		<g>
			<title> (ctg9_15)</title>
			<polygon class=" (ctg9_15)" points="231,10 245,40 231,70" fill="rgb(255,255,255)" fill-opacity="1.0" stroke="rgb(0,0,0)" stroke-width="2"  />
			<g>
				<title>DUF4354 (PF14263)
"Domain of unknown function (DUF4354)"</title>
				<polygon class="PF14263" points="231,28 236,28 241,40 236,52 231,52" stroke-linejoin="round" width="13" height="24" fill="rgb(72,158,205)" stroke="rgb(57,126,164)" stroke-width="1" opacity="0.75" />
			</g>
		</g>
		<g>
			<title> (ctg9_16)</title>
			<polygon class=" (ctg9_16)" points="248,10 260,40 248,70" fill="rgb(255,255,255)" fill-opacity="1.0" stroke="rgb(0,0,0)" stroke-width="2"  />
			<g>
				<title>Glyoxalase (PF00903)
"Glyoxalase/Bleomycin resistance protein/Dioxygenase superfamily"</title>
				<polygon class="PF00903" points="248,28 251,28 257,40 251,52 248,52" stroke-linejoin="round" width="11" height="24" fill="rgb(50,162,189)" stroke="rgb(40,129,151)" stroke-width="1" opacity="0.75" />
			</g>
		</g>
		<g>
			<title> (ctg9_17)</title>
			<polygon class=" (ctg9_17)" points="261,40 286,10 286,70" fill="rgb(255,255,255)" fill-opacity="1.0" stroke="rgb(0,0,0)" stroke-width="2"  />
			<g>
				<title>DeoRC (PF00455)
"DeoR C terminal sensor domain"</title>
				<polygon class="PF00455" points="265,40 275,28 278,28 278,52 275,52" stroke-linejoin="round" width="15" height="24" fill="rgb(183,143,83)" stroke="rgb(146,114,66)" stroke-width="1" opacity="0.75" />
			</g>
			<g>
				<title>HTH_DeoR (PF08220)
"DeoR-like helix-turn-helix domain"</title>
				<rect class="PF08220" x="280" y="28" stroke-linejoin="round" width="5" height="24" fill="rgb(194,214,67)" stroke="rgb(155,171,53)" stroke-width="1" opacity="0.75" />
			</g>
		</g>
		<g>
			<title> (ctg9_18)</title>
			<polygon class=" (ctg9_18)" points="290,10 309,40 290,70" fill="rgb(255,255,255)" fill-opacity="1.0" stroke="rgb(0,0,0)" stroke-width="2"  />
			<g>
				<title>NUDIX (PF00293)
"NUDIX domain"</title>
				<polygon class="PF00293" points="294,28 298,28 305,40 298,52 294,52" stroke-linejoin="round" width="13" height="24" fill="rgb(92,56,187)" stroke="rgb(73,44,149)" stroke-width="1" opacity="0.75" />
			</g>
		</g>
		<g>
			<title> (ctg9_19)</title>
			<polygon class=" (ctg9_19)" points="319,10 342,40 319,70" fill="rgb(255,255,255)" fill-opacity="1.0" stroke="rgb(0,0,0)" stroke-width="2"  />
			<g>
				<title>Autoind_bind (PF03472)
"Autoinducer binding domain"</title>
				<polygon class="PF03472" points="320,28 329,28 333,34 333,46 329,52 320,52" stroke-linejoin="round" width="13" height="24" fill="rgb(99,181,52)" stroke="rgb(79,144,41)" stroke-width="1" opacity="0.75" />
			</g>
			<g>
				<title>GerE (PF00196)
"Bacterial regulatory proteins, luxR family"</title>
				<polygon class="PF00196" points="335,36 338,40 335,44" stroke-linejoin="round" width="5" height="24" fill="rgb(219,94,82)" stroke="rgb(175,75,65)" stroke-width="1" opacity="0.75" />
			</g>
		</g>
		<g>
			<title> (ctg9_20)</title>
			<polygon class=" (ctg9_20)" points="343,40 364,10 364,70" fill="rgb(255,255,255)" fill-opacity="1.0" stroke="rgb(0,0,0)" stroke-width="2"  />
			<g>
				<title>Autoind_synth (PF00765)
"Autoinducer synthase"</title>
				<polygon class="PF00765" points="347,40 356,28 363,28 363,52 356,52" stroke-linejoin="round" width="18" height="24" fill="rgb(197,72,80)" stroke="rgb(157,57,64)" stroke-width="1" opacity="0.75" />
			</g>
		</g>
		<g>
			<title> (ctg9_21)</title>
			<polygon class=" (ctg9_21)" points="377,10 402,40 377,70" fill="rgb(255,255,255)" fill-opacity="1.0" stroke="rgb(0,0,0)" stroke-width="2"  />
			<g>
				<title>Methyltransf_25 (PF13649)
"Methyltransferase domain"</title>
				<rect class="PF13649" x="380" y="28" stroke-linejoin="round" width="8" height="24" fill="rgb(227,135,74)" stroke="rgb(181,108,59)" stroke-width="1" opacity="0.75" />
			</g>
		</g>
		<g>
			<title> (ctg9_22)</title>
			<polygon class=" (ctg9_22)" points="441,25 432,25 432,10 402,40 432,70 432,55 441,55" fill="rgb(255,255,255)" fill-opacity="1.0" stroke="rgb(0,0,0)" stroke-width="2"  />
			<g>
				<title>AhpC-TSA (PF00578)
"AhpC/TSA family"</title>
				<polygon class="PF00578" points="406,40 416,30 416,50" stroke-linejoin="round" width="12" height="24" fill="rgb(166,71,190)" stroke="rgb(132,56,152)" stroke-width="1" opacity="0.75" />
			</g>
			<g>
				<title>DsbD (PF02683)
"Cytochrome C biogenesis protein transmembrane region"</title>
				<rect class="PF02683" x="420" y="28" stroke-linejoin="round" width="20" height="24" fill="rgb(89,192,111)" stroke="rgb(71,153,88)" stroke-width="1" opacity="0.75" />
			</g>
		</g>
		<g>
			<title> (ctg9_23)</title>
			<polygon class=" (ctg9_23)" points="490,25 477,25 477,10 447,40 477,70 477,55 490,55" fill="rgb(255,255,255)" fill-opacity="1.0" stroke="rgb(0,0,0)" stroke-width="2"  />
			<g>
				<title>HATPase_c (PF02518)
"Histidine kinase-, DNA gyrase B-, and HSP90-like ATPase"</title>
				<polygon class="PF02518" points="451,40 457,34 457,46" stroke-linejoin="round" width="10" height="24" fill="rgb(80,94,225)" stroke="rgb(64,75,180)" stroke-width="1" opacity="0.75" />
			</g>
		</g>
		<g>
			<title> (ctg9_24)</title>
			<polygon class=" (ctg9_24)" points="490,40 514,10 514,70" fill="rgb(255,255,255)" fill-opacity="1.0" stroke="rgb(0,0,0)" stroke-width="2"  />
			<g>
				<title>Trans_reg_C (PF00486)
"Transcriptional regulatory protein, C terminal"</title>
				<polygon class="PF00486" points="494,40 498,35 498,45" stroke-linejoin="round" width="7" height="24" fill="rgb(204,153,57)" stroke="rgb(163,122,45)" stroke-width="1" opacity="0.75" />
			</g>
			<g>
				<title>Response_reg (PF00072)
"Response regulator receiver domain"</title>
				<polygon class="PF00072" points="502,30 504,28 513,28 513,52 504,52 502,50" stroke-linejoin="round" width="11" height="24" fill="rgb(100,107,203)" stroke="rgb(80,85,162)" stroke-width="1" opacity="0.75" />
			</g>
		</g>
		<g>
			<title> (ctg9_25)</title>
			<polygon class=" (ctg9_25)" points="549,25 546,25 546,10 516,40 546,70 546,55 549,55" fill="rgb(255,255,255)" fill-opacity="1.0" stroke="rgb(0,0,0)" stroke-width="2"  />
			<g>
				<title>Abhydrolase_1 (PF00561)
"alpha/beta hydrolase fold"</title>
				<polygon class="PF00561" points="520,40 532,28 542,28 542,52 532,52" stroke-linejoin="round" width="24" height="24" fill="rgb(86,180,151)" stroke="rgb(68,144,120)" stroke-width="1" opacity="0.75" />
			</g>
		</g>
		<g>
			<title> (ctg9_26)</title>
			<polygon class=" (ctg9_26)" points="554,40 568,10 568,70" fill="rgb(255,255,255)" fill-opacity="1.0" stroke="rgb(0,0,0)" stroke-width="2"  />
			<g>
				<title>Acetyltransf_1 (PF00583)
"Acetyltransferase (GNAT) family"</title>
				<polygon class="PF00583" points="557,40 563,28 567,28 567,52 563,52" stroke-linejoin="round" width="12" height="24" fill="rgb(121,183,50)" stroke="rgb(96,146,39)" stroke-width="1" opacity="0.75" />
			</g>
		</g>
		<g>
			<title> (ctg9_27)</title>
			<polygon class=" (ctg9_27)" points="569,40 584,10 584,70" fill="rgb(255,255,255)" fill-opacity="1.0" stroke="rgb(0,0,0)" stroke-width="2"  />
			<g>
				<title>Acetyltransf_10 (PF13673)
"Acetyltransferase (GNAT) domain"</title>
				<polygon class="PF13673" points="572,40 578,28 582,28 582,52 578,52" stroke-linejoin="round" width="13" height="24" fill="rgb(88,180,95)" stroke="rgb(70,144,76)" stroke-width="1" opacity="0.75" />
			</g>
		</g>
		<g>
			<title> (ctg9_28)</title>
			<polygon class=" (ctg9_28)" points="585,40 604,10 604,70" fill="rgb(255,255,255)" fill-opacity="1.0" stroke="rgb(0,0,0)" stroke-width="2"  />
		</g>
		<g>
			<title> (ctg9_29)</title>
			<polygon class=" (ctg9_29)" points="629,10 647,40 629,70" fill="rgb(255,255,255)" fill-opacity="1.0" stroke="rgb(0,0,0)" stroke-width="2"  />
			<g>
				<title>Acetyltransf_3 (PF13302)
"Acetyltransferase (GNAT) domain"</title>
				<polygon class="PF13302" points="630,28 636,28 643,40 636,52 630,52" stroke-linejoin="round" width="14" height="24" fill="rgb(105,146,215)" stroke="rgb(84,116,172)" stroke-width="1" opacity="0.75" />
			</g>
		</g>
		<g>
			<title> (ctg9_30)</title>
			<polygon class=" (ctg9_30)" points="677,25 677,25 677,10 647,40 677,70 677,55 677,55" fill="rgb(255,255,255)" fill-opacity="1.0" stroke="rgb(0,0,0)" stroke-width="2"  />
			<g>
				<title>Bestrophin (PF01062)
"Bestrophin, RFP-TM, chloride channel"</title>
				<polygon class="PF01062" points="651,40 663,28 677,28 677,52 663,52" stroke-linejoin="round" width="28" height="24" fill="rgb(195,112,80)" stroke="rgb(156,89,64)" stroke-width="1" opacity="0.75" />
			</g>
		</g>
	</g>
</svg>
