<svg version="1.1" baseProfile="full" xmlns="http://www.w3.org/2000/svg" width="1392.2333333333333" height="80">
	<g>
		<line x1="10" y1="40.0" x2="1382.2333333333333" y2="40.0" style="stroke:rgb(70,70,70); stroke-width:3 "/>
		<g>
			<title> (ctg5_79)</title>
			<polygon class=" (ctg5_79)" points="85,25 62,25 62,10 32,40 62,70 62,55 85,55" fill="rgb(255,255,255)" fill-opacity="1.0" stroke="rgb(0,0,0)" stroke-width="2"  />
			<g>
				<title>G_glu_transpept (PF01019)
"Gamma-glutamyltranspeptidase"</title>
				<polygon class="PF01019" points="36,40 48,28 78,28 78,52 48,52" stroke-linejoin="round" width="46" height="24" fill="rgb(117,205,100)" stroke="rgb(93,164,80)" stroke-width="1" opacity="0.75" />
			</g>
		</g>
		<g>
			<title> (ctg5_80)</title>
			<polygon class=" (ctg5_80)" points="86,40 91,10 91,70" fill="rgb(255,255,255)" fill-opacity="1.0" stroke="rgb(0,0,0)" stroke-width="2"  />
		</g>
		<g>
			<title> (ctg5_81)</title>
			<polygon class=" (ctg5_81)" points="126,25 121,25 121,10 91,40 121,70 121,55 126,55" fill="rgb(255,255,255)" fill-opacity="1.0" stroke="rgb(0,0,0)" stroke-width="2"  />
			<g>
				<title>PGA_cap (PF09587)
"Bacterial capsule synthesis protein PGA_cap"</title>
				<polygon class="PF09587" points="98,37 107,28 120,28 120,52 107,52 98,43" stroke-linejoin="round" width="22" height="24" fill="rgb(179,65,131)" stroke="rgb(143,52,104)" stroke-width="1" opacity="0.75" />
			</g>
		</g>
		<g>
			<title> (ctg5_82)</title>
			<polygon class=" (ctg5_82)" points="127,40 142,10 142,70" fill="rgb(255,255,255)" fill-opacity="1.0" stroke="rgb(0,0,0)" stroke-width="2"  />
			<g>
				<title>Caps_synth_CapC (PF14102)
"Capsule biosynthesis CapC"</title>
				<polygon class="PF14102" points="130,40 136,28 140,28 140,52 136,52" stroke-linejoin="round" width="11" height="24" fill="rgb(56,185,111)" stroke="rgb(44,148,88)" stroke-width="1" opacity="0.75" />
			</g>
		</g>
		<g>
			<title> (ctg5_83)</title>
			<polygon class=" (ctg5_83)" points="180,25 172,25 172,10 142,40 172,70 172,55 180,55" fill="rgb(255,255,255)" fill-opacity="1.0" stroke="rgb(0,0,0)" stroke-width="2"  />
			<g>
				<title>Mur_ligase_M (PF08245)
"Mur ligase middle domain"</title>
				<polygon class="PF08245" points="156,30 158,28 176,28 176,52 158,52 156,50" stroke-linejoin="round" width="20" height="24" fill="rgb(57,133,195)" stroke="rgb(45,106,156)" stroke-width="1" opacity="0.75" />
			</g>
		</g>
		<g>
			<title> (ctg5_84)</title>
			<polygon class=" (ctg5_84)" points="192,10 202,40 192,70" fill="rgb(255,255,255)" fill-opacity="1.0" stroke="rgb(0,0,0)" stroke-width="2"  />
		</g>
		<g>
			<title> (ctg5_85)</title>
			<polygon class=" (ctg5_85)" points="244,25 242,25 242,10 212,40 242,70 242,55 244,55" fill="rgb(255,255,255)" fill-opacity="1.0" stroke="rgb(0,0,0)" stroke-width="2"  />
			<g>
				<title>Abhydrolase_3 (PF07859)
"alpha/beta hydrolase fold"</title>
				<polygon class="PF07859" points="216,40 228,28 234,28 234,52 228,52" stroke-linejoin="round" width="20" height="24" fill="rgb(183,51,179)" stroke="rgb(146,40,143)" stroke-width="1" opacity="0.75" />
			</g>
		</g>
		<g>
			<title> (ctg5_86)</title>
			<polygon class=" (ctg5_86)" points="250,25 252,25 252,10 282,40 252,70 252,55 250,55" fill="rgb(255,255,255)" fill-opacity="1.0" stroke="rgb(0,0,0)" stroke-width="2"  />
			<g>
				<title>Ldh_1_N (PF00056)
"lactate/malate dehydrogenase, NAD binding domain"</title>
				<rect class="PF00056" x="250" y="28" stroke-linejoin="round" width="13" height="24" fill="rgb(205,51,142)" stroke="rgb(164,40,113)" stroke-width="1" opacity="0.75" />
			</g>
			<g>
				<title>Ldh_1_C (PF02866)
"lactate/malate dehydrogenase, alpha/beta C-terminal domain"</title>
				<polygon class="PF02866" points="264,28 265,28 277,40 265,52 264,52" stroke-linejoin="round" width="16" height="24" fill="rgb(94,219,97)" stroke="rgb(75,175,77)" stroke-width="1" opacity="0.75" />
			</g>
		</g>
		<g>
			<title> (ctg5_87)</title>
			<polygon class=" (ctg5_87)" points="284,40 294,10 294,70" fill="rgb(255,255,255)" fill-opacity="1.0" stroke="rgb(0,0,0)" stroke-width="2"  />
			<g>
				<title>Thioredoxin (PF00085)
"Thioredoxin"</title>
				<polygon class="PF00085" points="287,40 291,28 293,28 293,52 291,52" stroke-linejoin="round" width="9" height="24" fill="rgb(220,109,180)" stroke="rgb(176,87,144)" stroke-width="1" opacity="0.75" />
			</g>
		</g>
		<g>
			<title> (ctg5_88)</title>
			<polygon class=" (ctg5_88)" points="302,25 307,25 307,10 337,40 307,70 307,55 302,55" fill="rgb(255,255,255)" fill-opacity="1.0" stroke="rgb(0,0,0)" stroke-width="2"  />
			<g>
				<title>ADH_N (PF08240)
"Alcohol dehydrogenase GroES-like domain"</title>
				<rect class="PF08240" x="304" y="28" stroke-linejoin="round" width="11" height="24" fill="rgb(211,65,138)" stroke="rgb(168,51,110)" stroke-width="1" opacity="0.75" />
			</g>
			<g>
				<title>ADH_zinc_N (PF00107)
"Zinc-binding dehydrogenase"</title>
				<polygon class="PF00107" points="319,28 320,28 331,39 331,41 320,52 319,52" stroke-linejoin="round" width="12" height="24" fill="rgb(81,108,215)" stroke="rgb(64,86,172)" stroke-width="1" opacity="0.75" />
			</g>
		</g>
		<g>
			<title> (ctg5_89)</title>
			<polygon class=" (ctg5_89)" points="410,25 373,25 373,10 343,40 373,70 373,55 410,55" fill="rgb(255,255,255)" fill-opacity="1.0" stroke="rgb(0,0,0)" stroke-width="2"  />
			<g>
				<title>PTS_EIIA_1 (PF00358)
"phosphoenolpyruvate-dependent sugar phosphotransferase system, EIIA 1"</title>
				<polygon class="PF00358" points="347,40 357,30 357,50" stroke-linejoin="round" width="12" height="24" fill="rgb(125,49,194)" stroke="rgb(100,39,155)" stroke-width="1" opacity="0.75" />
			</g>
			<g>
				<title>PTS_EIIB (PF00367)
"phosphotransferase system, EIIB"</title>
				<rect class="PF00367" x="364" y="28" stroke-linejoin="round" width="3" height="24" fill="rgb(188,77,92)" stroke="rgb(150,61,73)" stroke-width="1" opacity="0.75" />
			</g>
			<g>
				<title>PTS_EIIC (PF02378)
"Phosphotransferase system, EIIC"</title>
				<rect class="PF02378" x="376" y="28" stroke-linejoin="round" width="33" height="24" fill="rgb(73,199,212)" stroke="rgb(58,159,169)" stroke-width="1" opacity="0.75" />
			</g>
		</g>
		<g>
			<title> (ctg5_90)</title>
			<polygon class=" (ctg5_90)" points="479,25 451,25 451,10 421,40 451,70 451,55 479,55" fill="rgb(255,255,255)" fill-opacity="1.0" stroke="rgb(0,0,0)" stroke-width="2"  />
			<g>
				<title>TPP_enzyme_C (PF02775)
"Thiamine pyrophosphate enzyme, C-terminal TPP binding domain"</title>
				<polygon class="PF02775" points="426,39 437,28 440,28 440,52 437,52 426,41" stroke-linejoin="round" width="14" height="24" fill="rgb(156,179,45)" stroke="rgb(124,143,36)" stroke-width="1" opacity="0.75" />
			</g>
			<g>
				<title>TPP_enzyme_M (PF00205)
"Thiamine pyrophosphate enzyme, central domain"</title>
				<rect class="PF00205" x="446" y="28" stroke-linejoin="round" width="12" height="24" fill="rgb(149,194,69)" stroke="rgb(119,155,55)" stroke-width="1" opacity="0.75" />
			</g>
			<g>
				<title>TPP_enzyme_N (PF02776)
"Thiamine pyrophosphate enzyme, N-terminal TPP binding domain"</title>
				<rect class="PF02776" x="461" y="28" stroke-linejoin="round" width="17" height="24" fill="rgb(55,81,185)" stroke="rgb(44,64,148)" stroke-width="1" opacity="0.75" />
			</g>
		</g>
		<g>
			<title> (ctg5_91)</title>
			<polygon class=" (ctg5_91)" points="480,40 502,10 502,70" fill="rgb(255,255,255)" fill-opacity="1.0" stroke="rgb(0,0,0)" stroke-width="2"  />
			<g>
				<title>LrgB (PF04172)
"LrgB-like family"</title>
				<polygon class="PF04172" points="484,40 493,28 501,28 501,52 493,52" stroke-linejoin="round" width="21" height="24" fill="rgb(57,227,179)" stroke="rgb(45,181,143)" stroke-width="1" opacity="0.75" />
			</g>
		</g>
		<g>
			<title> (ctg5_92)</title>
			<polygon class=" (ctg5_92)" points="503,40 516,10 516,70" fill="rgb(255,255,255)" fill-opacity="1.0" stroke="rgb(0,0,0)" stroke-width="2"  />
			<g>
				<title>LrgA (PF03788)
"LrgA family"</title>
				<polygon class="PF03788" points="506,40 511,28 513,28 513,52 511,52" stroke-linejoin="round" width="9" height="24" fill="rgb(51,191,185)" stroke="rgb(40,152,148)" stroke-width="1" opacity="0.75" />
			</g>
		</g>
		<g>
			<title> (ctg5_93)</title>
			<polygon class=" (ctg5_93)" points="523,40 552,10 552,70" fill="rgb(255,255,255)" fill-opacity="1.0" stroke="rgb(0,0,0)" stroke-width="2"  />
			<g>
				<title>LysR_substrate (PF03466)
"LysR substrate binding domain"</title>
				<polygon class="PF03466" points="527,40 539,28 543,28 543,52 539,52" stroke-linejoin="round" width="20" height="24" fill="rgb(55,136,195)" stroke="rgb(44,108,156)" stroke-width="1" opacity="0.75" />
			</g>
			<g>
				<title>HTH_1 (PF00126)
"Bacterial regulatory helix-turn-helix protein, lysR family"</title>
				<rect class="PF00126" x="546" y="28" stroke-linejoin="round" width="5" height="24" fill="rgb(125,227,79)" stroke="rgb(99,181,63)" stroke-width="1" opacity="0.75" />
			</g>
		</g>
		<g>
			<title> (ctg5_94)</title>
			<polygon class=" (ctg5_94)" points="560,10 567,40 560,70" fill="rgb(255,255,255)" fill-opacity="1.0" stroke="rgb(0,0,0)" stroke-width="2"  />
			<g>
				<title>YozE_SAM_like (PF06855)
"YozE SAM-like fold"</title>
				<polygon class="PF06855" points="560,28 560,28 564,40 560,52 560,52" stroke-linejoin="round" width="6" height="24" fill="rgb(83,201,171)" stroke="rgb(66,160,136)" stroke-width="1" opacity="0.75" />
			</g>
		</g>
		<g>
			<title> (ctg5_95)</title>
			<polygon class=" (ctg5_95)" points="574,10 588,40 574,70" fill="rgb(255,255,255)" fill-opacity="1.0" stroke="rgb(0,0,0)" stroke-width="2"  />
			<g>
				<title>CHAP (PF05257)
"CHAP domain"</title>
				<polygon class="PF05257" points="577,28 579,28 585,40 585,40 579,52 577,52" stroke-linejoin="round" width="8" height="24" fill="rgb(54,187,84)" stroke="rgb(43,149,67)" stroke-width="1" opacity="0.75" />
			</g>
		</g>
		<g>
			<title> (ctg5_96)</title>
			<polygon class=" (ctg5_96)" points="633,25 621,25 621,10 591,40 621,70 621,55 633,55" fill="rgb(255,255,255)" fill-opacity="1.0" stroke="rgb(0,0,0)" stroke-width="2"  />
			<g>
				<title>HMG-CoA_red (PF00368)
"Hydroxymethylglutaryl-coenzyme A reductase"</title>
				<polygon class="PF00368" points="595,40 607,28 632,28 632,52 607,52 595,40" stroke-linejoin="round" width="37" height="24" fill="rgb(67,203,137)" stroke="rgb(53,162,109)" stroke-width="1" opacity="0.75" />
			</g>
		</g>
		<g>
			<title> (ctg5_97)</title>
			<polygon class=" (ctg5_97)" points="672,25 664,25 664,10 634,40 664,70 664,55 672,55" fill="rgb(255,255,255)" fill-opacity="1.0" stroke="rgb(0,0,0)" stroke-width="2"  />
			<g>
				<title>Thiolase_C (PF02803)
"Thiolase, C-terminal domain"</title>
				<polygon class="PF02803" points="638,40 646,32 646,48" stroke-linejoin="round" width="12" height="24" fill="rgb(218,187,56)" stroke="rgb(174,149,44)" stroke-width="1" opacity="0.75" />
			</g>
			<g>
				<title>Thiolase_N (PF00108)
"Thiolase, N-terminal domain"</title>
				<polygon class="PF00108" points="647,31 650,28 671,28 671,52 650,52 647,49" stroke-linejoin="round" width="24" height="24" fill="rgb(82,90,195)" stroke="rgb(65,72,156)" stroke-width="1" opacity="0.75" />
			</g>
		</g>
		<g>
			<title> (ctg5_98)</title>
			<polygon class=" (ctg5_98)" points="676,25 684,25 684,10 714,40 684,70 684,55 676,55" fill="rgb(255,255,255)" fill-opacity="1.0" stroke="rgb(0,0,0)" stroke-width="2"  />
			<g>
				<title>HMG_CoA_synt_N (PF01154)
"Hydroxymethylglutaryl-coenzyme A synthase N terminal"</title>
				<rect class="PF01154" x="676" y="28" stroke-linejoin="round" width="16" height="24" fill="rgb(88,216,218)" stroke="rgb(70,172,174)" stroke-width="1" opacity="0.75" />
			</g>
			<g>
				<title>HMG_CoA_synt_C (PF08540)
"Hydroxymethylglutaryl-coenzyme A synthase C terminal"</title>
				<polygon class="PF08540" points="701,31 710,40 701,49" stroke-linejoin="round" width="13" height="24" fill="rgb(49,194,86)" stroke="rgb(39,155,68)" stroke-width="1" opacity="0.75" />
			</g>
		</g>
		<g>
			<title> (ctg5_99)</title>
			<polygon class=" (ctg5_99)" points="719,40 736,10 736,70" fill="rgb(255,255,255)" fill-opacity="1.0" stroke="rgb(0,0,0)" stroke-width="2"  />
			<g>
				<title>DNA_binding_1 (PF01035)
"6-O-methylguanine DNA methyltransferase, DNA binding domain"</title>
				<polygon class="PF01035" points="722,40 728,30 728,50" stroke-linejoin="round" width="8" height="24" fill="rgb(79,155,220)" stroke="rgb(63,123,176)" stroke-width="1" opacity="0.75" />
			</g>
		</g>
		<g>
			<title> (ctg5_100)</title>
			<polygon class=" (ctg5_100)" points="742,40 757,10 757,70" fill="rgb(255,255,255)" fill-opacity="1.0" stroke="rgb(0,0,0)" stroke-width="2"  />
		</g>
		<g>
			<title> (ctg5_101)</title>
			<polygon class=" (ctg5_101)" points="768,10 786,40 768,70" fill="rgb(255,255,255)" fill-opacity="1.0" stroke="rgb(0,0,0)" stroke-width="2"  />
			<g>
				<title>TetR_N (PF00440)
"Bacterial regulatory proteins, tetR family"</title>
				<rect class="PF00440" x="769" y="28" stroke-linejoin="round" width="4" height="24" fill="rgb(73,212,190)" stroke="rgb(58,169,152)" stroke-width="1" opacity="0.75" />
			</g>
		</g>
		<g>
			<title> (ctg5_102)</title>
			<polygon class=" (ctg5_102)" points="789,40 795,10 795,70" fill="rgb(255,255,255)" fill-opacity="1.0" stroke="rgb(0,0,0)" stroke-width="2"  />
			<g>
				<title>FeoB_associated (PF12669)
"FeoB-associated Cys-rich membrane protein"</title>
				<polygon class="PF12669" points="792,40 794,30 794,50" stroke-linejoin="round" width="4" height="24" fill="rgb(111,78,186)" stroke="rgb(88,62,148)" stroke-width="1" opacity="0.75" />
			</g>
		</g>
		<g>
			<title> (ctg5_103)</title>
			<polygon class=" (ctg5_103)" points="861,25 825,25 825,10 795,40 825,70 825,55 861,55" fill="rgb(255,255,255)" fill-opacity="1.0" stroke="rgb(0,0,0)" stroke-width="2"  />
			<g>
				<title>Gate (PF07670)
"Nucleoside recognition"</title>
				<polygon class="PF07670" points="799,40 810,29 810,51" stroke-linejoin="round" width="12" height="24" fill="rgb(124,94,191)" stroke="rgb(99,75,152)" stroke-width="1" opacity="0.75" />
			</g>
			<g>
				<title>FeoB_C (PF07664)
"Ferrous iron transport protein B C terminus"</title>
				<polygon class="PF07664" points="810,29 811,28 815,28 815,52 811,52 810,51" stroke-linejoin="round" width="5" height="24" fill="rgb(186,56,114)" stroke="rgb(148,44,91)" stroke-width="1" opacity="0.75" />
			</g>
			<g>
				<title>Gate (PF07670)
"Nucleoside recognition"</title>
				<rect class="PF07670" x="817" y="28" stroke-linejoin="round" width="9" height="24" fill="rgb(124,94,191)" stroke="rgb(99,75,152)" stroke-width="1" opacity="0.75" />
			</g>
			<g>
				<title>FeoB_Cyto (PF17910)
"FeoB cytosolic helical domain"</title>
				<rect class="PF17910" x="835" y="28" stroke-linejoin="round" width="8" height="24" fill="rgb(85,92,198)" stroke="rgb(68,73,158)" stroke-width="1" opacity="0.75" />
			</g>
			<g>
				<title>FeoB_N (PF02421)
"Ferrous iron transport protein B"</title>
				<rect class="PF02421" x="845" y="28" stroke-linejoin="round" width="15" height="24" fill="rgb(82,207,209)" stroke="rgb(65,165,167)" stroke-width="1" opacity="0.75" />
			</g>
		</g>
		<g>
			<title> (ctg5_104)</title>
			<polygon class=" (ctg5_104)" points="862,40 869,10 869,70" fill="rgb(255,255,255)" fill-opacity="1.0" stroke="rgb(0,0,0)" stroke-width="2"  />
			<g>
				<title>FeoA (PF04023)
"FeoA domain"</title>
				<polygon class="PF04023" points="865,40 868,28 869,28 869,52 868,52" stroke-linejoin="round" width="7" height="24" fill="rgb(180,183,81)" stroke="rgb(144,146,64)" stroke-width="1" opacity="0.75" />
			</g>
		</g>
		<g>
			<title> (ctg5_105)</title>
			<polygon class=" (ctg5_105)" points="928,25 907,25 907,10 877,40 907,70 907,55 928,55" fill="rgb(255,255,255)" fill-opacity="1.0" stroke="rgb(0,0,0)" stroke-width="2"  />
			<g>
				<title>Aldedh (PF00171)
"Aldehyde dehydrogenase family"</title>
				<polygon class="PF00171" points="881,40 893,28 923,28 923,52 893,52" stroke-linejoin="round" width="46" height="24" fill="rgb(105,213,139)" stroke="rgb(84,170,111)" stroke-width="1" opacity="0.75" />
			</g>
		</g>
		<g>
			<title> (ctg5_106)</title>
			<polygon class=" (ctg5_106)" points="937,25 938,25 938,10 968,40 938,70 938,55 937,55" fill="rgb(255,255,255)" fill-opacity="1.0" stroke="rgb(0,0,0)" stroke-width="2"  />
			<g>
				<title>Epimerase (PF01370)
"NAD dependent epimerase/dehydratase family"</title>
				<polygon class="PF01370" points="937,28 952,28 961,37 961,43 952,52 937,52" stroke-linejoin="round" width="24" height="24" fill="rgb(98,102,214)" stroke="rgb(78,81,171)" stroke-width="1" opacity="0.75" />
			</g>
		</g>
		<g>
			<title> (ctg5_107)</title>
			<polygon class=" (ctg5_107)" points="1053,25 1000,25 1000,10 970,40 1000,70 1000,55 1053,55" fill="rgb(255,255,255)" fill-opacity="1.0" stroke="rgb(0,0,0)" stroke-width="2"  />
			<g>
				<title>Glycos_transf_1 (PF00534)
"Glycosyl transferases group 1"</title>
				<polygon class="PF00534" points="974,40 986,28 987,28 987,52 986,52" stroke-linejoin="round" width="16" height="24" fill="rgb(228,92,150)" stroke="rgb(182,73,119)" stroke-width="1" opacity="0.75" />
			</g>
			<g>
				<title>Glyphos_transf (PF04464)
"CDP-Glycerol:Poly(glycerophosphate) glycerophosphotransferase"</title>
				<rect class="PF04464" x="1012" y="28" stroke-linejoin="round" width="37" height="24" fill="rgb(55,181,67)" stroke="rgb(44,144,53)" stroke-width="1" opacity="0.75" />
			</g>
		</g>
		<g>
			<title> (ctg5_108)</title>
			<polygon class=" (ctg5_108)" points="1061,40 1080,10 1080,70" fill="rgb(255,255,255)" fill-opacity="1.0" stroke="rgb(0,0,0)" stroke-width="2"  />
			<g>
				<title>Hexapep_2 (PF14602)
"Hexapeptide repeat of succinyl-transferase"</title>
				<polygon class="PF14602" points="1065,40 1067,37 1067,43" stroke-linejoin="round" width="3" height="24" fill="rgb(79,205,115)" stroke="rgb(63,164,92)" stroke-width="1" opacity="0.75" />
			</g>
			<g>
				<title>Hexapep_2 (PF14602)
"Hexapeptide repeat of succinyl-transferase"</title>
				<polygon class="PF14602" points="1070,32 1073,28 1073,28 1073,52 1073,52 1070,48" stroke-linejoin="round" width="3" height="24" fill="rgb(79,205,115)" stroke="rgb(63,164,92)" stroke-width="1" opacity="0.75" />
			</g>
			<g>
				<title>Mac (PF12464)
"Maltose acetyltransferase"</title>
				<rect class="PF12464" x="1075" y="28" stroke-linejoin="round" width="5" height="24" fill="rgb(188,228,87)" stroke="rgb(150,182,69)" stroke-width="1" opacity="0.75" />
			</g>
		</g>
		<g>
			<title> (ctg5_109)</title>
			<polygon class=" (ctg5_109)" points="1084,40 1113,10 1113,70" fill="rgb(255,255,255)" fill-opacity="1.0" stroke="rgb(0,0,0)" stroke-width="2"  />
			<g>
				<title>adh_short_C2 (PF13561)
"Enoyl-(Acyl carrier protein) reductase"</title>
				<polygon class="PF13561" points="1088,40 1100,28 1107,28 1107,52 1100,52" stroke-linejoin="round" width="23" height="24" fill="rgb(73,205,127)" stroke="rgb(58,164,101)" stroke-width="1" opacity="0.75" />
			</g>
		</g>
		<g>
			<title> (ctg5_110)</title>
			<polygon class=" (ctg5_110)" points="1120,10 1126,40 1120,70" fill="rgb(255,255,255)" fill-opacity="1.0" stroke="rgb(0,0,0)" stroke-width="2"  />
		</g>
		<g>
			<title> (ctg5_111)</title>
			<polygon class=" (ctg5_111)" points="1131,25 1180,25 1180,10 1210,40 1180,70 1180,55 1131,55" fill="rgb(255,255,255)" fill-opacity="1.0" stroke="rgb(0,0,0)" stroke-width="2"  />
			<g>
				<title>HMA (PF00403)
"Heavy-metal-associated domain"</title>
				<rect class="PF00403" x="1131" y="28" stroke-linejoin="round" width="6" height="24" fill="rgb(91,198,182)" stroke="rgb(72,158,145)" stroke-width="1" opacity="0.75" />
			</g>
			<g>
				<title>HMA (PF00403)
"Heavy-metal-associated domain"</title>
				<rect class="PF00403" x="1138" y="28" stroke-linejoin="round" width="6" height="24" fill="rgb(91,198,182)" stroke="rgb(72,158,145)" stroke-width="1" opacity="0.75" />
			</g>
			<g>
				<title>E1-E2_ATPase (PF00122)
"E1-E2 ATPase"</title>
				<rect class="PF00122" x="1160" y="28" stroke-linejoin="round" width="18" height="24" fill="rgb(149,204,70)" stroke="rgb(119,163,56)" stroke-width="1" opacity="0.75" />
			</g>
			<g>
				<title>Hydrolase (PF00702)
"haloacid dehalogenase-like hydrolase"</title>
				<polygon class="PF00702" points="1180,28 1194,28 1201,35 1201,45 1194,52 1180,52" stroke-linejoin="round" width="21" height="24" fill="rgb(68,220,102)" stroke="rgb(54,176,81)" stroke-width="1" opacity="0.75" />
			</g>
		</g>
		<g>
			<title> (ctg5_112)</title>
			<polygon class=" (ctg5_112)" points="1214,10 1221,40 1214,70" fill="rgb(255,255,255)" fill-opacity="1.0" stroke="rgb(0,0,0)" stroke-width="2"  />
			<g>
				<title>HMA (PF00403)
"Heavy-metal-associated domain"</title>
				<polygon class="PF00403" points="1214,28 1214,28 1217,40 1214,52 1214,52" stroke-linejoin="round" width="6" height="24" fill="rgb(91,198,182)" stroke="rgb(72,158,145)" stroke-width="1" opacity="0.75" />
			</g>
		</g>
		<g>
			<title> (ctg5_113)</title>
			<polygon class=" (ctg5_113)" points="1255,25 1252,25 1252,10 1222,40 1252,70 1252,55 1255,55" fill="rgb(255,255,255)" fill-opacity="1.0" stroke="rgb(0,0,0)" stroke-width="2"  />
			<g>
				<title>2-Hacid_dh_C (PF02826)
"D-isomer specific 2-hydroxyacid dehydrogenase, NAD binding domain"</title>
				<polygon class="PF02826" points="1226,40 1238,28 1243,28 1243,52 1238,52" stroke-linejoin="round" width="18" height="24" fill="rgb(192,197,93)" stroke="rgb(153,157,74)" stroke-width="1" opacity="0.75" />
			</g>
		</g>
		<g>
			<title> (ctg5_114)</title>
			<polygon class=" (ctg5_114)" points="1295,25 1286,25 1286,10 1256,40 1286,70 1286,55 1295,55" fill="rgb(255,255,255)" fill-opacity="1.0" stroke="rgb(0,0,0)" stroke-width="2"  />
			<g>
				<title>Aminotran_1_2 (PF00155)
"Aminotransferase class I and II"</title>
				<polygon class="PF00155" points="1260,40 1272,28 1291,28 1291,52 1272,52" stroke-linejoin="round" width="34" height="24" fill="rgb(89,113,198)" stroke="rgb(71,90,158)" stroke-width="1" opacity="0.75" />
			</g>
		</g>
		<g>
			<title> (ctg5_115)</title>
			<polygon class=" (ctg5_115)" points="1322,40 1346,10 1346,70" fill="rgb(255,255,255)" fill-opacity="1.0" stroke="rgb(0,0,0)" stroke-width="2"  />
		</g>
	</g>
</svg>
