<svg version="1.1" baseProfile="full" xmlns="http://www.w3.org/2000/svg" width="1150.7" height="80">
	<g>
		<line x1="10" y1="40.0" x2="1140.7" y2="40.0" style="stroke:rgb(70,70,70); stroke-width:3 "/>
		<g>
			<title> (ctg6_33)</title>
			<polygon class=" (ctg6_33)" points="19,10 43,40 19,70" fill="rgb(255,255,255)" fill-opacity="1.0" stroke="rgb(0,0,0)" stroke-width="2"  />
			<g>
				<title>DeoC (PF01791)
"DeoC/LacD family aldolase"</title>
				<polygon class="PF01791" points="19,28 30,28 39,40 30,52 19,52" stroke-linejoin="round" width="23" height="24" fill="rgb(151,59,198)" stroke="rgb(120,47,158)" stroke-width="1" opacity="0.75" />
			</g>
		</g>
		<g>
			<title> (ctg6_34)</title>
			<polygon class=" (ctg6_34)" points="45,40 57,10 57,70" fill="rgb(255,255,255)" fill-opacity="1.0" stroke="rgb(0,0,0)" stroke-width="2"  />
		</g>
		<g>
			<title> (ctg6_35)</title>
			<polygon class=" (ctg6_35)" points="60,25 63,25 63,10 93,40 63,70 63,55 60,55" fill="rgb(255,255,255)" fill-opacity="1.0" stroke="rgb(0,0,0)" stroke-width="2"  />
			<g>
				<title>ALAD (PF00490)
"Delta-aminolevulinic acid dehydratase"</title>
				<polygon class="PF00490" points="60,28 76,28 88,40 76,52 60,52" stroke-linejoin="round" width="32" height="24" fill="rgb(119,78,220)" stroke="rgb(95,62,176)" stroke-width="1" opacity="0.75" />
			</g>
		</g>
		<g>
			<title> (ctg6_36)</title>
			<polygon class=" (ctg6_36)" points="129,25 125,25 125,10 95,40 125,70 125,55 129,55" fill="rgb(255,255,255)" fill-opacity="1.0" stroke="rgb(0,0,0)" stroke-width="2"  />
			<g>
				<title>MurB_C (PF02873)
"UDP-N-acetylenolpyruvoylglucosamine reductase, C-terminal domain"</title>
				<polygon class="PF02873" points="99,40 107,32 107,48" stroke-linejoin="round" width="12" height="24" fill="rgb(88,193,151)" stroke="rgb(70,154,120)" stroke-width="1" opacity="0.75" />
			</g>
			<g>
				<title>FAD_binding_4 (PF01565)
"FAD binding domain"</title>
				<rect class="PF01565" x="113" y="28" stroke-linejoin="round" width="13" height="24" fill="rgb(226,88,136)" stroke="rgb(180,70,108)" stroke-width="1" opacity="0.75" />
			</g>
		</g>
		<g>
			<title> (ctg6_37)</title>
			<polygon class=" (ctg6_37)" points="129,40 145,10 145,70" fill="rgb(255,255,255)" fill-opacity="1.0" stroke="rgb(0,0,0)" stroke-width="2"  />
		</g>
		<g>
			<title> (ctg6_38)</title>
			<polygon class=" (ctg6_38)" points="185,25 176,25 176,10 146,40 176,70 176,55 185,55" fill="rgb(255,255,255)" fill-opacity="1.0" stroke="rgb(0,0,0)" stroke-width="2"  />
			<g>
				<title>Aminotran_1_2 (PF00155)
"Aminotransferase class I and II"</title>
				<polygon class="PF00155" points="150,40 162,28 182,28 182,52 162,52" stroke-linejoin="round" width="35" height="24" fill="rgb(89,113,198)" stroke="rgb(71,90,158)" stroke-width="1" opacity="0.75" />
			</g>
		</g>
		<g>
			<title> (ctg6_39)</title>
			<polygon class=" (ctg6_39)" points="189,10 204,40 189,70" fill="rgb(255,255,255)" fill-opacity="1.0" stroke="rgb(0,0,0)" stroke-width="2"  />
			<g>
				<title>DUF1801 (PF08818)
"Domain of unknown function (DU1801)"</title>
				<polygon class="PF08818" points="190,28 194,28 200,40 194,52 190,52" stroke-linejoin="round" width="11" height="24" fill="rgb(120,214,95)" stroke="rgb(96,171,76)" stroke-width="1" opacity="0.75" />
			</g>
		</g>
		<g>
			<title> (ctg6_40)</title>
			<polygon class=" (ctg6_40)" points="204,10 222,40 204,70" fill="rgb(255,255,255)" fill-opacity="1.0" stroke="rgb(0,0,0)" stroke-width="2"  />
			<g>
				<title>LemA (PF04011)
"LemA family"</title>
				<polygon class="PF04011" points="207,28 211,28 218,40 211,52 207,52" stroke-linejoin="round" width="14" height="24" fill="rgb(51,110,195)" stroke="rgb(40,88,156)" stroke-width="1" opacity="0.75" />
			</g>
		</g>
		<g>
			<title> (ctg6_41)</title>
			<polygon class=" (ctg6_41)" points="223,25 259,25 259,10 289,40 259,70 259,55 223,55" fill="rgb(255,255,255)" fill-opacity="1.0" stroke="rgb(0,0,0)" stroke-width="2"  />
			<g>
				<title>DUF2207 (PF09972)
"Predicted membrane protein (DUF2207)"</title>
				<rect class="PF09972" x="227" y="28" stroke-linejoin="round" width="42" height="24" fill="rgb(77,111,184)" stroke="rgb(61,88,147)" stroke-width="1" opacity="0.75" />
			</g>
			<g>
				<title>DUF2207 (PF09972)
"Predicted membrane protein (DUF2207)"</title>
				<polygon class="PF09972" points="269,28 273,28 281,36 281,44 273,52 269,52" stroke-linejoin="round" width="12" height="24" fill="rgb(77,111,184)" stroke="rgb(61,88,147)" stroke-width="1" opacity="0.75" />
			</g>
		</g>
		<g>
			<title> (ctg6_42)</title>
			<polygon class=" (ctg6_42)" points="334,25 321,25 321,10 291,40 321,70 321,55 334,55" fill="rgb(255,255,255)" fill-opacity="1.0" stroke="rgb(0,0,0)" stroke-width="2"  />
			<g>
				<title>EPSP_synthase (PF00275)
"EPSP synthase (3-phosphoshikimate 1-carboxyvinyltransferase)"</title>
				<polygon class="PF00275" points="295,40 307,28 333,28 333,52 307,52" stroke-linejoin="round" width="41" height="24" fill="rgb(217,213,85)" stroke="rgb(173,170,68)" stroke-width="1" opacity="0.75" />
			</g>
		</g>
		<g>
			<title> (ctg6_43)</title>
			<polygon class=" (ctg6_43)" points="335,40 355,10 355,70" fill="rgb(255,255,255)" fill-opacity="1.0" stroke="rgb(0,0,0)" stroke-width="2"  />
			<g>
				<title>DUF4290 (PF14123)
"Domain of unknown function (DUF4290)"</title>
				<polygon class="PF14123" points="339,40 347,28 355,28 355,52 347,52" stroke-linejoin="round" width="17" height="24" fill="rgb(116,194,77)" stroke="rgb(92,155,61)" stroke-width="1" opacity="0.75" />
			</g>
		</g>
		<g>
			<title> (ctg6_44)</title>
			<polygon class=" (ctg6_44)" points="358,40 374,10 374,70" fill="rgb(255,255,255)" fill-opacity="1.0" stroke="rgb(0,0,0)" stroke-width="2"  />
			<g>
				<title>DCC1-like (PF04134)
"DCC1-like thiol-disulfide oxidoreductase"</title>
				<polygon class="PF04134" points="361,40 367,28 370,28 370,52 367,52" stroke-linejoin="round" width="10" height="24" fill="rgb(151,216,64)" stroke="rgb(120,172,51)" stroke-width="1" opacity="0.75" />
			</g>
		</g>
		<g>
			<title> (ctg6_45)</title>
			<polygon class=" (ctg6_45)" points="372,40 388,10 388,70" fill="rgb(255,255,255)" fill-opacity="1.0" stroke="rgb(0,0,0)" stroke-width="2"  />
		</g>
		<g>
			<title> (ctg6_46)</title>
			<polygon class=" (ctg6_46)" points="396,25 409,25 409,10 439,40 409,70 409,55 396,55" fill="rgb(255,255,255)" fill-opacity="1.0" stroke="rgb(0,0,0)" stroke-width="2"  />
			<g>
				<title>MMR_HSR1 (PF01926)
"50S ribosome-binding GTPase"</title>
				<rect class="PF01926" x="396" y="28" stroke-linejoin="round" width="11" height="24" fill="rgb(105,180,226)" stroke="rgb(83,143,180)" stroke-width="1" opacity="0.75" />
			</g>
			<g>
				<title>MMR_HSR1 (PF01926)
"50S ribosome-binding GTPase"</title>
				<polygon class="PF01926" points="413,28 423,28 424,29 424,51 423,52 413,52" stroke-linejoin="round" width="11" height="24" fill="rgb(105,180,226)" stroke="rgb(83,143,180)" stroke-width="1" opacity="0.75" />
			</g>
			<g>
				<title>KH_dom-like (PF14714)
"KH-domain-like of EngA bacterial GTPase enzymes, C-terminal"</title>
				<polygon class="PF14714" points="431,36 435,40 431,44" stroke-linejoin="round" width="8" height="24" fill="rgb(178,119,50)" stroke="rgb(142,95,40)" stroke-width="1" opacity="0.75" />
			</g>
		</g>
		<g>
			<title> (ctg6_47)</title>
			<polygon class=" (ctg6_47)" points="441,10 462,40 441,70" fill="rgb(255,255,255)" fill-opacity="1.0" stroke="rgb(0,0,0)" stroke-width="2"  />
			<g>
				<title>ACPS (PF01648)
"4'-phosphopantetheinyl transferase superfamily"</title>
				<polygon class="PF01648" points="451,30 458,40 451,50" stroke-linejoin="round" width="10" height="24" fill="rgb(85,184,135)" stroke="rgb(68,147,108)" stroke-width="1" opacity="0.75" />
			</g>
		</g>
		<g>
			<title> (ctg6_48)</title>
			<polygon class=" (ctg6_48)" points="463,40 491,10 491,70" fill="rgb(255,255,255)" fill-opacity="1.0" stroke="rgb(0,0,0)" stroke-width="2"  />
			<g>
				<title>Abhydrolase_2 (PF02230)
"Phospholipase/Carboxylesterase"</title>
				<polygon class="PF02230" points="467,40 475,31 475,49" stroke-linejoin="round" width="11" height="24" fill="rgb(165,184,75)" stroke="rgb(132,147,60)" stroke-width="1" opacity="0.75" />
			</g>
		</g>
		<g>
			<title> (ctg6_49)</title>
			<polygon class=" (ctg6_49)" points="492,40 508,10 508,70" fill="rgb(255,255,255)" fill-opacity="1.0" stroke="rgb(0,0,0)" stroke-width="2"  />
			<g>
				<title>Acetyltransf_1 (PF00583)
"Acetyltransferase (GNAT) family"</title>
				<polygon class="PF00583" points="495,40 501,28 506,28 506,52 501,52" stroke-linejoin="round" width="13" height="24" fill="rgb(121,183,50)" stroke="rgb(96,146,39)" stroke-width="1" opacity="0.75" />
			</g>
		</g>
		<g>
			<title> (ctg6_50)</title>
			<polygon class=" (ctg6_50)" points="640,25 540,25 540,10 510,40 540,70 540,55 640,55" fill="rgb(255,255,255)" fill-opacity="1.0" stroke="rgb(0,0,0)" stroke-width="2"  />
			<g>
				<title>PP-binding (PF00550)
"Phosphopantetheine attachment site"</title>
				<rect class="PF00550" x="582" y="28" stroke-linejoin="round" width="7" height="24" fill="rgb(103,191,88)" stroke="rgb(82,152,70)" stroke-width="1" opacity="0.75" />
			</g>
			<g>
				<title>AMP-binding_C (PF13193)
"AMP-binding enzyme C-terminal domain"</title>
				<rect class="PF13193" x="592" y="28" stroke-linejoin="round" width="7" height="24" fill="rgb(182,50,118)" stroke="rgb(145,39,94)" stroke-width="1" opacity="0.75" />
			</g>
			<g>
				<title>AMP-binding (PF00501)
"AMP-binding enzyme"</title>
				<rect class="PF00501" x="600" y="28" stroke-linejoin="round" width="37" height="24" fill="rgb(60,217,223)" stroke="rgb(48,173,178)" stroke-width="1" opacity="0.75" />
			</g>
		</g>
		<g>
			<title> (ctg6_51)</title>
			<polygon class=" (ctg6_51)" points="644,10 665,40 644,70" fill="rgb(255,255,255)" fill-opacity="1.0" stroke="rgb(0,0,0)" stroke-width="2"  />
			<g>
				<title>UPRTase (PF14681)
"Uracil phosphoribosyltransferase"</title>
				<polygon class="PF14681" points="644,28 653,28 661,40 653,52 644,52" stroke-linejoin="round" width="20" height="24" fill="rgb(62,144,207)" stroke="rgb(49,115,165)" stroke-width="1" opacity="0.75" />
			</g>
		</g>
		<g>
			<title> (ctg6_52)</title>
			<polygon class=" (ctg6_52)" points="666,40 687,10 687,70" fill="rgb(255,255,255)" fill-opacity="1.0" stroke="rgb(0,0,0)" stroke-width="2"  />
			<g>
				<title>DZR_2 (PF18912)
"Double zinc ribbon domain"</title>
				<rect class="PF18912" x="683" y="28" stroke-linejoin="round" width="3" height="24" fill="rgb(214,62,177)" stroke="rgb(171,49,141)" stroke-width="1" opacity="0.75" />
			</g>
		</g>
		<g>
			<title> (ctg6_53)</title>
			<polygon class=" (ctg6_53)" points="738,25 718,25 718,10 688,40 718,70 718,55 738,55" fill="rgb(255,255,255)" fill-opacity="1.0" stroke="rgb(0,0,0)" stroke-width="2"  />
			<g>
				<title>Peptidase_M78 (PF06114)
"IrrE N-terminal-like domain"</title>
				<rect class="PF06114" x="705" y="28" stroke-linejoin="round" width="13" height="24" fill="rgb(182,213,77)" stroke="rgb(145,170,61)" stroke-width="1" opacity="0.75" />
			</g>
			<g>
				<title>HTH_3 (PF01381)
"Helix-turn-helix"</title>
				<rect class="PF01381" x="730" y="28" stroke-linejoin="round" width="5" height="24" fill="rgb(105,79,202)" stroke="rgb(83,63,161)" stroke-width="1" opacity="0.75" />
			</g>
		</g>
		<g>
			<title> (ctg6_54)</title>
			<polygon class=" (ctg6_54)" points="741,25 763,25 763,10 793,40 763,70 763,55 741,55" fill="rgb(255,255,255)" fill-opacity="1.0" stroke="rgb(0,0,0)" stroke-width="2"  />
			<g>
				<title>Malate_synthase (PF01274)
"Malate synthase"</title>
				<polygon class="PF01274" points="741,28 776,28 788,40 776,52 741,52" stroke-linejoin="round" width="51" height="24" fill="rgb(84,70,202)" stroke="rgb(67,56,161)" stroke-width="1" opacity="0.75" />
			</g>
		</g>
		<g>
			<title> (ctg6_55)</title>
			<polygon class=" (ctg6_55)" points="794,25 806,25 806,10 836,40 806,70 806,55 794,55" fill="rgb(255,255,255)" fill-opacity="1.0" stroke="rgb(0,0,0)" stroke-width="2"  />
			<g>
				<title>ICL (PF00463)
"Isocitrate lyase family"</title>
				<rect class="PF00463" x="794" y="28" stroke-linejoin="round" width="24" height="24" fill="rgb(209,76,110)" stroke="rgb(167,60,87)" stroke-width="1" opacity="0.75" />
			</g>
			<g>
				<title>ICL (PF00463)
"Isocitrate lyase family"</title>
				<polygon class="PF00463" points="818,28 820,28 832,40 820,52 818,52" stroke-linejoin="round" width="17" height="24" fill="rgb(209,76,110)" stroke="rgb(167,60,87)" stroke-width="1" opacity="0.75" />
			</g>
		</g>
		<g>
			<title> (ctg6_56)</title>
			<polygon class=" (ctg6_56)" points="842,10 866,40 842,70" fill="rgb(255,255,255)" fill-opacity="1.0" stroke="rgb(0,0,0)" stroke-width="2"  />
			<g>
				<title>MIP (PF00230)
"Major intrinsic protein"</title>
				<polygon class="PF00230" points="842,28 852,28 862,40 852,52 842,52" stroke-linejoin="round" width="22" height="24" fill="rgb(105,207,228)" stroke="rgb(84,165,182)" stroke-width="1" opacity="0.75" />
			</g>
		</g>
		<g>
			<title> (ctg6_57)</title>
			<polygon class=" (ctg6_57)" points="902,25 899,25 899,10 869,40 899,70 899,55 902,55" fill="rgb(255,255,255)" fill-opacity="1.0" stroke="rgb(0,0,0)" stroke-width="2"  />
			<g>
				<title>LuxE (PF04443)
"Acyl-protein synthetase, LuxE"</title>
				<polygon class="PF04443" points="873,40 885,28 890,28 890,52 885,52" stroke-linejoin="round" width="21" height="24" fill="rgb(87,119,225)" stroke="rgb(69,95,180)" stroke-width="1" opacity="0.75" />
			</g>
			<g>
				<title>LuxE (PF04443)
"Acyl-protein synthetase, LuxE"</title>
				<rect class="PF04443" x="893" y="28" stroke-linejoin="round" width="9" height="24" fill="rgb(87,119,225)" stroke="rgb(69,95,180)" stroke-width="1" opacity="0.75" />
			</g>
		</g>
		<g>
			<title> (ctg6_58)</title>
			<polygon class=" (ctg6_58)" points="934,25 934,25 934,10 904,40 934,70 934,55 934,55" fill="rgb(255,255,255)" fill-opacity="1.0" stroke="rgb(0,0,0)" stroke-width="2"  />
			<g>
				<title>Epimerase (PF01370)
"NAD dependent epimerase/dehydratase family"</title>
				<polygon class="PF01370" points="913,35 920,28 934,28 934,52 920,52 913,45" stroke-linejoin="round" width="21" height="24" fill="rgb(98,102,214)" stroke="rgb(78,81,171)" stroke-width="1" opacity="0.75" />
			</g>
		</g>
		<g>
			<title> (ctg6_59)</title>
			<polygon class=" (ctg6_59)" points="937,40 956,10 956,70" fill="rgb(255,255,255)" fill-opacity="1.0" stroke="rgb(0,0,0)" stroke-width="2"  />
			<g>
				<title>cNMP_binding (PF00027)
"Cyclic nucleotide-binding domain"</title>
				<polygon class="PF00027" points="944,35 949,28 952,28 952,52 949,52 944,45" stroke-linejoin="round" width="8" height="24" fill="rgb(138,95,204)" stroke="rgb(110,76,163)" stroke-width="1" opacity="0.75" />
			</g>
		</g>
		<g>
			<title> (ctg6_60)</title>
			<polygon class=" (ctg6_60)" points="956,40 981,10 981,70" fill="rgb(255,255,255)" fill-opacity="1.0" stroke="rgb(0,0,0)" stroke-width="2"  />
			<g>
				<title>Metallophos (PF00149)
"Calcineurin-like phosphoesterase"</title>
				<polygon class="PF00149" points="960,40 970,28 980,28 980,52 970,52 960,40" stroke-linejoin="round" width="20" height="24" fill="rgb(181,197,58)" stroke="rgb(144,157,46)" stroke-width="1" opacity="0.75" />
			</g>
		</g>
		<g>
			<title> (ctg6_61)</title>
			<polygon class=" (ctg6_61)" points="982,40 997,10 997,70" fill="rgb(255,255,255)" fill-opacity="1.0" stroke="rgb(0,0,0)" stroke-width="2"  />
			<g>
				<title>PTPS (PF01242)
"6-pyruvoyl tetrahydropterin synthase"</title>
				<polygon class="PF01242" points="985,40 991,28 996,28 996,52 991,52" stroke-linejoin="round" width="14" height="24" fill="rgb(179,224,60)" stroke="rgb(143,179,48)" stroke-width="1" opacity="0.75" />
			</g>
		</g>
		<g>
			<title> (ctg6_62)</title>
			<polygon class=" (ctg6_62)" points="1076,25 1032,25 1032,10 1002,40 1032,70 1032,55 1076,55" fill="rgb(255,255,255)" fill-opacity="1.0" stroke="rgb(0,0,0)" stroke-width="2"  />
			<g>
				<title>TonB_dep_Rec (PF00593)
"TonB dependent receptor"</title>
				<polygon class="PF00593" points="1006,40 1018,28 1062,28 1062,52 1018,52" stroke-linejoin="round" width="60" height="24" fill="rgb(171,200,51)" stroke="rgb(136,160,40)" stroke-width="1" opacity="0.75" />
			</g>
		</g>
		<g>
			<title> (ctg6_63)</title>
			<polygon class=" (ctg6_63)" points="1116,25 1113,25 1113,10 1083,40 1113,70 1113,55 1116,55" fill="rgb(255,255,255)" fill-opacity="1.0" stroke="rgb(0,0,0)" stroke-width="2"  />
			<g>
				<title>Gp_dh_C (PF02800)
"Glyceraldehyde 3-phosphate dehydrogenase, C-terminal domain"</title>
				<polygon class="PF02800" points="1087,40 1099,28 1100,28 1100,52 1099,52" stroke-linejoin="round" width="15" height="24" fill="rgb(160,186,82)" stroke="rgb(128,148,65)" stroke-width="1" opacity="0.75" />
			</g>
			<g>
				<title>Gp_dh_N (PF00044)
"Glyceraldehyde 3-phosphate dehydrogenase, NAD binding domain"</title>
				<rect class="PF00044" x="1106" y="28" stroke-linejoin="round" width="10" height="24" fill="rgb(212,98,148)" stroke="rgb(169,78,118)" stroke-width="1" opacity="0.75" />
			</g>
		</g>
	</g>
</svg>
