<svg version="1.1" baseProfile="full" xmlns="http://www.w3.org/2000/svg" width="846.1" height="80">
	<g>
		<line x1="10" y1="40.0" x2="836.1" y2="40.0" style="stroke:rgb(70,70,70); stroke-width:3 "/>
		<g>
			<title> (ctg3_7)</title>
			<polygon class=" (ctg3_7)" points="53,25 71,25 71,10 101,40 71,70 71,55 53,55" fill="rgb(255,255,255)" fill-opacity="1.0" stroke="rgb(0,0,0)" stroke-width="2"  />
			<g>
				<title>SusD-like_3 (PF14322)
"Starch-binding associating with outer membrane"</title>
				<rect class="PF14322" x="56" y="28" stroke-linejoin="round" width="19" height="24" fill="rgb(196,76,125)" stroke="rgb(156,60,100)" stroke-width="1" opacity="0.75" />
			</g>
		</g>
		<g>
			<title> (ctg3_8)</title>
			<polygon class=" (ctg3_8)" points="116,40 120,10 120,70" fill="rgb(255,255,255)" fill-opacity="1.0" stroke="rgb(0,0,0)" stroke-width="2"  />
		</g>
		<g>
			<title> (ctg3_9)</title>
			<polygon class=" (ctg3_9)" points="120,25 131,25 131,10 161,40 131,70 131,55 120,55" fill="rgb(255,255,255)" fill-opacity="1.0" stroke="rgb(0,0,0)" stroke-width="2"  />
			<g>
				<title>Exo_endo_phos (PF03372)
"Endonuclease/Exonuclease/phosphatase family"</title>
				<polygon class="PF03372" points="122,28 145,28 151,34 151,46 145,52 122,52" stroke-linejoin="round" width="29" height="24" fill="rgb(76,66,180)" stroke="rgb(60,52,144)" stroke-width="1" opacity="0.75" />
			</g>
		</g>
		<g>
			<title> (ctg3_10)</title>
			<polygon class=" (ctg3_10)" points="166,40 195,10 195,70" fill="rgb(255,255,255)" fill-opacity="1.0" stroke="rgb(0,0,0)" stroke-width="2"  />
		</g>
		<g>
			<title> (ctg3_11)</title>
			<polygon class=" (ctg3_11)" points="198,40 227,10 227,70" fill="rgb(255,255,255)" fill-opacity="1.0" stroke="rgb(0,0,0)" stroke-width="2"  />
			<g>
				<title>HTH_18 (PF12833)
"Helix-turn-helix domain"</title>
				<polygon class="PF12833" points="202,40 205,37 205,43" stroke-linejoin="round" width="7" height="24" fill="rgb(216,58,224)" stroke="rgb(172,46,179)" stroke-width="1" opacity="0.75" />
			</g>
			<g>
				<title>AraC_binding (PF02311)
"AraC-like ligand binding domain"</title>
				<polygon class="PF02311" points="212,30 214,28 225,28 225,52 214,52 212,50" stroke-linejoin="round" width="13" height="24" fill="rgb(81,203,213)" stroke="rgb(64,162,170)" stroke-width="1" opacity="0.75" />
			</g>
		</g>
		<g>
			<title> (ctg3_12)</title>
			<polygon class=" (ctg3_12)" points="233,40 262,10 262,70" fill="rgb(255,255,255)" fill-opacity="1.0" stroke="rgb(0,0,0)" stroke-width="2"  />
			<g>
				<title>DUF5829 (PF19147)
"Family of unknown function (DUF5829)"</title>
				<polygon class="PF19147" points="237,40 249,28 258,28 258,52 249,52" stroke-linejoin="round" width="25" height="24" fill="rgb(210,91,122)" stroke="rgb(168,72,97)" stroke-width="1" opacity="0.75" />
			</g>
		</g>
		<g>
			<title> (ctg3_13)</title>
			<polygon class=" (ctg3_13)" points="266,25 312,25 312,10 342,40 312,70 312,55 266,55" fill="rgb(255,255,255)" fill-opacity="1.0" stroke="rgb(0,0,0)" stroke-width="2"  />
			<g>
				<title>Peptidase_C39 (PF03412)
"Peptidase C39 family"</title>
				<rect class="PF03412" x="270" y="28" stroke-linejoin="round" width="12" height="24" fill="rgb(214,226,77)" stroke="rgb(171,180,61)" stroke-width="1" opacity="0.75" />
			</g>
			<g>
				<title>ABC_membrane (PF00664)
"ABC transporter transmembrane region"</title>
				<rect class="PF00664" x="287" y="28" stroke-linejoin="round" width="27" height="24" fill="rgb(149,226,73)" stroke="rgb(119,180,58)" stroke-width="1" opacity="0.75" />
			</g>
			<g>
				<title>ABC_tran (PF00005)
"ABC transporter"</title>
				<polygon class="PF00005" points="320,28 326,28 334,36 334,44 326,52 320,52" stroke-linejoin="round" width="14" height="24" fill="rgb(129,201,63)" stroke="rgb(103,160,50)" stroke-width="1" opacity="0.75" />
			</g>
		</g>
		<g>
			<title> (ctg3_14)</title>
			<polygon class=" (ctg3_14)" points="343,25 401,25 401,10 431,40 401,70 401,55 343,55" fill="rgb(255,255,255)" fill-opacity="1.0" stroke="rgb(0,0,0)" stroke-width="2"  />
			<g>
				<title>Lant_dehydr_N (PF04738)
"Lantibiotic dehydratase, N terminus"</title>
				<polygon class="PF04738" points="357,28 415,28 423,36 423,44 415,52 357,52" stroke-linejoin="round" width="66" height="24" fill="rgb(219,60,229)" stroke="rgb(175,47,183)" stroke-width="1" opacity="0.75" />
			</g>
		</g>
		<g>
			<title> (ctg3_15)</title>
			<polygon class=" (ctg3_15)" points="431,10 459,40 431,70" fill="rgb(255,255,255)" fill-opacity="1.0" stroke="rgb(0,0,0)" stroke-width="2"  />
			<g>
				<title>Lant_dehydr_C (PF14028)
"Lantibiotic biosynthesis dehydratase C-term"</title>
				<polygon class="PF14028" points="431,28 443,28 455,40 443,52 431,52" stroke-linejoin="round" width="27" height="24" fill="rgb(107,223,113)" stroke="rgb(85,178,90)" stroke-width="1" opacity="0.75" />
			</g>
		</g>
		<g>
			<title> (ctg3_16)</title>
			<polygon class=" (ctg3_16)" points="459,25 492,25 492,10 522,40 492,70 492,55 459,55" fill="rgb(255,255,255)" fill-opacity="1.0" stroke="rgb(0,0,0)" stroke-width="2"  />
			<g>
				<title>LANC_like (PF05147)
"Lanthionine synthetase C-like protein"</title>
				<rect class="PF05147" x="463" y="28" stroke-linejoin="round" width="37" height="24" fill="rgb(129,182,79)" stroke="rgb(103,145,63)" stroke-width="1" opacity="0.75" />
			</g>
		</g>
		<g>
			<title> (ctg3_17)</title>
			<polygon class=" (ctg3_17)" points="527,40 532,10 532,70" fill="rgb(255,255,255)" fill-opacity="1.0" stroke="rgb(0,0,0)" stroke-width="2"  />
		</g>
		<g>
			<title> (ctg3_18)</title>
			<polygon class=" (ctg3_18)" points="533,40 537,10 537,70" fill="rgb(255,255,255)" fill-opacity="1.0" stroke="rgb(0,0,0)" stroke-width="2"  />
		</g>
		<g>
			<title> (ctg3_19)</title>
			<polygon class=" (ctg3_19)" points="609,25 567,25 567,10 537,40 567,70 567,55 609,55" fill="rgb(255,255,255)" fill-opacity="1.0" stroke="rgb(0,0,0)" stroke-width="2"  />
			<g>
				<title>TonB_dep_Rec (PF00593)
"TonB dependent receptor"</title>
				<polygon class="PF00593" points="541,40 553,28 589,28 589,52 553,52" stroke-linejoin="round" width="52" height="24" fill="rgb(171,200,51)" stroke="rgb(136,160,40)" stroke-width="1" opacity="0.75" />
			</g>
			<g>
				<title>Plug (PF07715)
"TonB-dependent Receptor Plug Domain"</title>
				<rect class="PF07715" x="593" y="28" stroke-linejoin="round" width="10" height="24" fill="rgb(99,133,214)" stroke="rgb(79,106,171)" stroke-width="1" opacity="0.75" />
			</g>
		</g>
		<g>
			<title> (ctg3_20)</title>
			<polygon class=" (ctg3_20)" points="658,25 640,25 640,10 610,40 640,70 640,55 658,55" fill="rgb(255,255,255)" fill-opacity="1.0" stroke="rgb(0,0,0)" stroke-width="2"  />
			<g>
				<title>ABC2_membrane_2 (PF12679)
"ABC-2 family transporter protein"</title>
				<polygon class="PF12679" points="619,35 626,28 657,28 657,52 626,52 619,45" stroke-linejoin="round" width="38" height="24" fill="rgb(70,194,214)" stroke="rgb(56,155,171)" stroke-width="1" opacity="0.75" />
			</g>
		</g>
		<g>
			<title> (ctg3_21)</title>
			<polygon class=" (ctg3_21)" points="705,25 688,25 688,10 658,40 688,70 688,55 705,55" fill="rgb(255,255,255)" fill-opacity="1.0" stroke="rgb(0,0,0)" stroke-width="2"  />
			<g>
				<title>DUF3526 (PF12040)
"Domain of unknown function (DUF3526)"</title>
				<polygon class="PF12040" points="662,40 674,28 675,28 675,52 674,52" stroke-linejoin="round" width="14" height="24" fill="rgb(179,178,52)" stroke="rgb(143,142,41)" stroke-width="1" opacity="0.75" />
			</g>
		</g>
		<g>
			<title> (ctg3_22)</title>
			<polygon class=" (ctg3_22)" points="710,40 733,10 733,70" fill="rgb(255,255,255)" fill-opacity="1.0" stroke="rgb(0,0,0)" stroke-width="2"  />
			<g>
				<title>ABC_tran (PF00005)
"ABC transporter"</title>
				<polygon class="PF00005" points="717,36 723,28 731,28 731,52 723,52 717,44" stroke-linejoin="round" width="14" height="24" fill="rgb(129,201,63)" stroke="rgb(103,160,50)" stroke-width="1" opacity="0.75" />
			</g>
		</g>
		<g>
			<title> (ctg3_23)</title>
			<polygon class=" (ctg3_23)" points="735,10 739,40 735,70" fill="rgb(255,255,255)" fill-opacity="1.0" stroke="rgb(0,0,0)" stroke-width="2"  />
		</g>
		<g>
			<title> (ctg3_24)</title>
			<polygon class=" (ctg3_24)" points="744,10 755,40 744,70" fill="rgb(255,255,255)" fill-opacity="1.0" stroke="rgb(0,0,0)" stroke-width="2"  />
		</g>
		<g>
			<title> (ctg3_25)</title>
			<polygon class=" (ctg3_25)" points="756,10 771,40 756,70" fill="rgb(255,255,255)" fill-opacity="1.0" stroke="rgb(0,0,0)" stroke-width="2"  />
			<g>
				<title>SnoaL_2 (PF12680)
"SnoaL-like domain"</title>
				<polygon class="PF12680" points="758,28 761,28 767,40 761,52 758,52" stroke-linejoin="round" width="11" height="24" fill="rgb(184,69,155)" stroke="rgb(147,55,124)" stroke-width="1" opacity="0.75" />
			</g>
		</g>
		<g>
			<title> (ctg3_26)</title>
			<polygon class=" (ctg3_26)" points="777,25 794,25 794,10 824,40 794,70 794,55 777,55" fill="rgb(255,255,255)" fill-opacity="1.0" stroke="rgb(0,0,0)" stroke-width="2"  />
			<g>
				<title>NAD_binding_2 (PF03446)
"NAD binding domain of 6-phosphogluconate dehydrogenase"</title>
				<rect class="PF03446" x="777" y="28" stroke-linejoin="round" width="16" height="24" fill="rgb(205,164,98)" stroke="rgb(164,131,78)" stroke-width="1" opacity="0.75" />
			</g>
			<g>
				<title>6PGD (PF00393)
"6-phosphogluconate dehydrogenase, C-terminal domain"</title>
				<polygon class="PF00393" points="794,28 808,28 820,40 808,52 794,52" stroke-linejoin="round" width="28" height="24" fill="rgb(57,119,210)" stroke="rgb(45,95,168)" stroke-width="1" opacity="0.75" />
			</g>
		</g>
		<g>
			<title> (ctg3_27)</title>
			<polygon class=" (ctg3_27)" points="825,10 836,40 825,70" fill="rgb(255,255,255)" fill-opacity="1.0" stroke="rgb(0,0,0)" stroke-width="2"  />
			<g>
				<title>G6PD_N (PF00479)
"Glucose-6-phosphate dehydrogenase, NAD binding domain"</title>
				<polygon class="PF00479" points="826,28 828,28 832,40 828,52 826,52" stroke-linejoin="round" width="9" height="24" fill="rgb(176,80,200)" stroke="rgb(140,64,160)" stroke-width="1" opacity="0.75" />
			</g>
		</g>
	</g>
</svg>
