<svg version="1.1" baseProfile="full" xmlns="http://www.w3.org/2000/svg" width="723.4666666666667" height="80">
	<g>
		<line x1="10" y1="40.0" x2="713.4666666666667" y2="40.0" style="stroke:rgb(70,70,70); stroke-width:3 "/>
		<g>
			<title> (ctg6_480)</title>
			<polygon class=" (ctg6_480)" points="51,25 218,25 218,10 248,40 218,70 218,55 51,55" fill="rgb(255,255,255)" fill-opacity="1.0" stroke="rgb(0,0,0)" stroke-width="2"  />
			<g>
				<title>bMG3 (PF11974)
"Bacterial alpha-2-macroglobulin MG3 domain"</title>
				<rect class="PF11974" x="111" y="28" stroke-linejoin="round" width="10" height="24" fill="rgb(194,77,184)" stroke="rgb(155,61,147)" stroke-width="1" opacity="0.75" />
			</g>
			<g>
				<title>MG2 (PF01835)
"MG2 domain"</title>
				<rect class="PF01835" x="122" y="28" stroke-linejoin="round" width="10" height="24" fill="rgb(195,92,188)" stroke="rgb(156,73,150)" stroke-width="1" opacity="0.75" />
			</g>
			<g>
				<title>bMG5 (PF17972)
"Bacterial Alpha-2-macroglobulin MG5 domain"</title>
				<rect class="PF17972" x="133" y="28" stroke-linejoin="round" width="12" height="24" fill="rgb(139,56,185)" stroke="rgb(111,44,148)" stroke-width="1" opacity="0.75" />
			</g>
			<g>
				<title>A2M_BRD (PF07703)
"Alpha-2-macroglobulin bait region domain"</title>
				<rect class="PF07703" x="158" y="28" stroke-linejoin="round" width="13" height="24" fill="rgb(108,78,179)" stroke="rgb(86,62,143)" stroke-width="1" opacity="0.75" />
			</g>
			<g>
				<title>A2M (PF00207)
"Alpha-2-macroglobulin family"</title>
				<rect class="PF00207" x="179" y="28" stroke-linejoin="round" width="8" height="24" fill="rgb(192,73,91)" stroke="rgb(153,58,72)" stroke-width="1" opacity="0.75" />
			</g>
			<g>
				<title>bMG10 (PF17973)
"Bacterial Alpha-2-macroglobulin MG10 domain"</title>
				<polygon class="PF17973" points="233,30 243,40 233,50" stroke-linejoin="round" width="12" height="24" fill="rgb(211,68,81)" stroke="rgb(168,54,64)" stroke-width="1" opacity="0.75" />
			</g>
		</g>
		<g>
			<title> (ctg6_481)</title>
			<polygon class=" (ctg6_481)" points="249,25 297,25 297,10 327,40 297,70 297,55 249,55" fill="rgb(255,255,255)" fill-opacity="1.0" stroke="rgb(0,0,0)" stroke-width="2"  />
			<g>
				<title>Transgly (PF00912)
"Transglycosylase"</title>
				<rect class="PF00912" x="253" y="28" stroke-linejoin="round" width="17" height="24" fill="rgb(172,107,216)" stroke="rgb(137,85,172)" stroke-width="1" opacity="0.75" />
			</g>
			<g>
				<title>Transpeptidase (PF00905)
"Penicillin binding protein transpeptidase domain"</title>
				<rect class="PF00905" x="280" y="28" stroke-linejoin="round" width="23" height="24" fill="rgb(161,226,87)" stroke="rgb(128,180,69)" stroke-width="1" opacity="0.75" />
			</g>
			<g>
				<title>BiPBP_C (PF06832)
"Penicillin-Binding Protein C-terminus Family"</title>
				<polygon class="PF06832" points="318,35 323,40 318,45" stroke-linejoin="round" width="8" height="24" fill="rgb(82,74,179)" stroke="rgb(65,59,143)" stroke-width="1" opacity="0.75" />
			</g>
		</g>
		<g>
			<title> (ctg6_482)</title>
			<polygon class=" (ctg6_482)" points="338,10 341,40 338,70" fill="rgb(255,255,255)" fill-opacity="1.0" stroke="rgb(0,0,0)" stroke-width="2"  />
		</g>
		<g>
			<title> (ctg6_483)</title>
			<polygon class=" (ctg6_483)" points="343,25 349,25 349,10 379,40 349,70 349,55 343,55" fill="rgb(255,255,255)" fill-opacity="1.0" stroke="rgb(0,0,0)" stroke-width="2"  />
			<g>
				<title>ThiF (PF00899)
"ThiF family"</title>
				<polygon class="PF00899" points="353,28 363,28 375,40 363,52 353,52" stroke-linejoin="round" width="26" height="24" fill="rgb(82,50,180)" stroke="rgb(65,39,144)" stroke-width="1" opacity="0.75" />
			</g>
		</g>
		<g>
			<title> (ctg6_484)</title>
			<polygon class=" (ctg6_484)" points="380,10 402,40 380,70" fill="rgb(255,255,255)" fill-opacity="1.0" stroke="rgb(0,0,0)" stroke-width="2"  />
		</g>
		<g>
			<title> (ctg6_485)</title>
			<polygon class=" (ctg6_485)" points="408,10 431,40 408,70" fill="rgb(255,255,255)" fill-opacity="1.0" stroke="rgb(0,0,0)" stroke-width="2"  />
			<g>
				<title>EamA (PF00892)
"EamA-like transporter family"</title>
				<rect class="PF00892" x="408" y="28" stroke-linejoin="round" width="7" height="24" fill="rgb(105,217,77)" stroke="rgb(84,173,61)" stroke-width="1" opacity="0.75" />
			</g>
			<g>
				<title>EamA (PF00892)
"EamA-like transporter family"</title>
				<polygon class="PF00892" points="416,28 418,28 427,40 418,52 416,52" stroke-linejoin="round" width="14" height="24" fill="rgb(105,217,77)" stroke="rgb(84,173,61)" stroke-width="1" opacity="0.75" />
			</g>
		</g>
		<g>
			<title> (ctg6_486)</title>
			<polygon class=" (ctg6_486)" points="565,25 463,25 463,10 433,40 463,70 463,55 565,55" fill="rgb(255,255,255)" fill-opacity="1.0" stroke="rgb(0,0,0)" stroke-width="2"  />
			<g>
				<title>Sel1 (PF08238)
"Sel1 repeat"</title>
				<polygon class="PF08238" points="439,38 441,36 441,44 439,42" stroke-linejoin="round" width="2" height="24" fill="rgb(190,55,164)" stroke="rgb(152,44,131)" stroke-width="1" opacity="0.75" />
			</g>
			<g>
				<title>Sel1 (PF08238)
"Sel1 repeat"</title>
				<polygon class="PF08238" points="446,31 449,28 449,28 449,52 449,52 446,49" stroke-linejoin="round" width="3" height="24" fill="rgb(190,55,164)" stroke="rgb(152,44,131)" stroke-width="1" opacity="0.75" />
			</g>
			<g>
				<title>Sel1 (PF08238)
"Sel1 repeat"</title>
				<rect class="PF08238" x="491" y="28" stroke-linejoin="round" width="3" height="24" fill="rgb(190,55,164)" stroke="rgb(152,44,131)" stroke-width="1" opacity="0.75" />
			</g>
			<g>
				<title>Sel1 (PF08238)
"Sel1 repeat"</title>
				<rect class="PF08238" x="497" y="28" stroke-linejoin="round" width="3" height="24" fill="rgb(190,55,164)" stroke="rgb(152,44,131)" stroke-width="1" opacity="0.75" />
			</g>
			<g>
				<title>Sel1 (PF08238)
"Sel1 repeat"</title>
				<rect class="PF08238" x="504" y="28" stroke-linejoin="round" width="3" height="24" fill="rgb(190,55,164)" stroke="rgb(152,44,131)" stroke-width="1" opacity="0.75" />
			</g>
			<g>
				<title>Sel1 (PF08238)
"Sel1 repeat"</title>
				<rect class="PF08238" x="511" y="28" stroke-linejoin="round" width="3" height="24" fill="rgb(190,55,164)" stroke="rgb(152,44,131)" stroke-width="1" opacity="0.75" />
			</g>
			<g>
				<title>Sel1 (PF08238)
"Sel1 repeat"</title>
				<rect class="PF08238" x="557" y="28" stroke-linejoin="round" width="3" height="24" fill="rgb(190,55,164)" stroke="rgb(152,44,131)" stroke-width="1" opacity="0.75" />
			</g>
		</g>
		<g>
			<title> (ctg6_487)</title>
			<polygon class=" (ctg6_487)" points="565,40 588,10 588,70" fill="rgb(255,255,255)" fill-opacity="1.0" stroke="rgb(0,0,0)" stroke-width="2"  />
			<g>
				<title>Sel1 (PF08238)
"Sel1 repeat"</title>
				<polygon class="PF08238" points="571,37 574,34 574,46 571,43" stroke-linejoin="round" width="3" height="24" fill="rgb(190,55,164)" stroke="rgb(152,44,131)" stroke-width="1" opacity="0.75" />
			</g>
			<g>
				<title>Sel1 (PF08238)
"Sel1 repeat"</title>
				<polygon class="PF08238" points="576,31 578,28 578,28 578,52 578,52 576,49" stroke-linejoin="round" width="2" height="24" fill="rgb(190,55,164)" stroke="rgb(152,44,131)" stroke-width="1" opacity="0.75" />
			</g>
			<g>
				<title>Sel1 (PF08238)
"Sel1 repeat"</title>
				<polygon class="PF08238" points="578,29 578,28 581,28 581,52 578,52 578,51" stroke-linejoin="round" width="3" height="24" fill="rgb(190,55,164)" stroke="rgb(152,44,131)" stroke-width="1" opacity="0.75" />
			</g>
		</g>
		<g>
			<title> (ctg6_488)</title>
			<polygon class=" (ctg6_488)" points="674,25 643,25 643,10 613,40 643,70 643,55 674,55" fill="rgb(255,255,255)" fill-opacity="1.0" stroke="rgb(0,0,0)" stroke-width="2"  />
			<g>
				<title>Sigma70_r4 (PF04545)
"Sigma-70, region 4"</title>
				<polygon class="PF04545" points="617,40 619,38 619,42" stroke-linejoin="round" width="5" height="24" fill="rgb(75,207,224)" stroke="rgb(60,165,179)" stroke-width="1" opacity="0.75" />
			</g>
			<g>
				<title>Sigma70_r3 (PF04539)
"Sigma-70 region 3"</title>
				<polygon class="PF04539" points="620,37 627,30 627,50 620,43" stroke-linejoin="round" width="7" height="24" fill="rgb(66,187,131)" stroke="rgb(52,149,104)" stroke-width="1" opacity="0.75" />
			</g>
			<g>
				<title>Sigma70_r2 (PF04542)
"Sigma-70 region 2"</title>
				<polygon class="PF04542" points="629,28 629,28 636,28 636,52 629,52 629,52" stroke-linejoin="round" width="7" height="24" fill="rgb(184,59,197)" stroke="rgb(147,47,157)" stroke-width="1" opacity="0.75" />
			</g>
			<g>
				<title>Sigma70_ner (PF04546)
"Sigma-70, non-essential region"</title>
				<rect class="PF04546" x="639" y="28" stroke-linejoin="round" width="21" height="24" fill="rgb(197,144,52)" stroke="rgb(157,115,41)" stroke-width="1" opacity="0.75" />
			</g>
			<g>
				<title>Sigma70_r1_2 (PF00140)
"Sigma-70 factor, region 1.2"</title>
				<rect class="PF00140" x="661" y="28" stroke-linejoin="round" width="3" height="24" fill="rgb(210,210,74)" stroke="rgb(168,168,59)" stroke-width="1" opacity="0.75" />
			</g>
			<g>
				<title>Sigma70_r1_1 (PF03979)
"Sigma-70 factor, region 1.1"</title>
				<rect class="PF03979" x="666" y="28" stroke-linejoin="round" width="8" height="24" fill="rgb(181,49,100)" stroke="rgb(144,39,80)" stroke-width="1" opacity="0.75" />
			</g>
		</g>
	</g>
</svg>
