<svg version="1.1" baseProfile="full" xmlns="http://www.w3.org/2000/svg" width="437.3666666666667" height="80">
	<g>
		<line x1="10" y1="40.0" x2="427.3666666666667" y2="40.0" style="stroke:rgb(70,70,70); stroke-width:3 "/>
		<g>
			<title> (ctg39_13)</title>
			<polygon class=" (ctg39_13)" points="15,40 41,10 41,70" fill="rgb(255,255,255)" fill-opacity="1.0" stroke="rgb(0,0,0)" stroke-width="2"  />
			<g>
				<title>adh_short_C2 (PF13561)
"Enoyl-(Acyl carrier protein) reductase"</title>
				<polygon class="PF13561" points="19,40 30,28 39,28 39,52 30,52" stroke-linejoin="round" width="23" height="24" fill="rgb(73,205,127)" stroke="rgb(58,164,101)" stroke-width="1" opacity="0.75" />
			</g>
		</g>
		<g>
			<title> (ctg39_14)</title>
			<polygon class=" (ctg39_14)" points="41,40 46,10 46,70" fill="rgb(255,255,255)" fill-opacity="1.0" stroke="rgb(0,0,0)" stroke-width="2"  />
		</g>
		<g>
			<title> (ctg39_15)</title>
			<polygon class=" (ctg39_15)" points="46,40 72,10 72,70" fill="rgb(255,255,255)" fill-opacity="1.0" stroke="rgb(0,0,0)" stroke-width="2"  />
			<g>
				<title>ABC_tran (PF00005)
"ABC transporter"</title>
				<polygon class="PF00005" points="55,34 61,28 69,28 69,52 61,52 55,46" stroke-linejoin="round" width="14" height="24" fill="rgb(129,201,63)" stroke="rgb(103,160,50)" stroke-width="1" opacity="0.75" />
			</g>
		</g>
		<g>
			<title> (ctg39_16)</title>
			<polygon class=" (ctg39_16)" points="106,25 103,25 103,10 73,40 103,70 103,55 106,55" fill="rgb(255,255,255)" fill-opacity="1.0" stroke="rgb(0,0,0)" stroke-width="2"  />
			<g>
				<title>oligo_HPY (PF08352)
"Oligopeptide/dipeptide transporter, C-terminal region"</title>
				<polygon class="PF08352" points="77,40 81,36 81,44" stroke-linejoin="round" width="6" height="24" fill="rgb(90,183,173)" stroke="rgb(72,146,138)" stroke-width="1" opacity="0.75" />
			</g>
			<g>
				<title>ABC_tran (PF00005)
"ABC transporter"</title>
				<polygon class="PF00005" points="87,30 89,28 103,28 103,52 89,52 87,50" stroke-linejoin="round" width="16" height="24" fill="rgb(129,201,63)" stroke="rgb(103,160,50)" stroke-width="1" opacity="0.75" />
			</g>
		</g>
		<g>
			<title> (ctg39_17)</title>
			<polygon class=" (ctg39_17)" points="106,40 135,10 135,70" fill="rgb(255,255,255)" fill-opacity="1.0" stroke="rgb(0,0,0)" stroke-width="2"  />
			<g>
				<title>BPD_transp_1 (PF00528)
"Binding-protein-dependent transport system inner membrane component"</title>
				<polygon class="PF00528" points="110,40 122,28 124,28 124,52 122,52" stroke-linejoin="round" width="18" height="24" fill="rgb(77,208,225)" stroke="rgb(61,166,180)" stroke-width="1" opacity="0.75" />
			</g>
			<g>
				<title>OppC_N (PF12911)
"N-terminal TM domain of oligopeptide transport permease C"</title>
				<rect class="PF12911" x="129" y="28" stroke-linejoin="round" width="5" height="24" fill="rgb(167,178,88)" stroke="rgb(133,142,70)" stroke-width="1" opacity="0.75" />
			</g>
		</g>
		<g>
			<title> (ctg39_18)</title>
			<polygon class=" (ctg39_18)" points="167,25 165,25 165,10 135,40 165,70 165,55 167,55" fill="rgb(255,255,255)" fill-opacity="1.0" stroke="rgb(0,0,0)" stroke-width="2"  />
			<g>
				<title>BPD_transp_1 (PF00528)
"Binding-protein-dependent transport system inner membrane component"</title>
				<polygon class="PF00528" points="139,40 151,28 157,28 157,52 151,52" stroke-linejoin="round" width="22" height="24" fill="rgb(77,208,225)" stroke="rgb(61,166,180)" stroke-width="1" opacity="0.75" />
			</g>
		</g>
		<g>
			<title> (ctg39_19)</title>
			<polygon class=" (ctg39_19)" points="222,25 198,25 198,10 168,40 198,70 198,55 222,55" fill="rgb(255,255,255)" fill-opacity="1.0" stroke="rgb(0,0,0)" stroke-width="2"  />
			<g>
				<title>SBP_bac_5 (PF00496)
"Bacterial extracellular solute-binding proteins, family 5 Middle"</title>
				<polygon class="PF00496" points="176,36 184,28 214,28 214,52 184,52 176,44" stroke-linejoin="round" width="38" height="24" fill="rgb(199,94,116)" stroke="rgb(159,75,92)" stroke-width="1" opacity="0.75" />
			</g>
		</g>
		<g>
			<title> (ctg39_20)</title>
			<polygon class=" (ctg39_20)" points="238,10 265,40 238,70" fill="rgb(255,255,255)" fill-opacity="1.0" stroke="rgb(0,0,0)" stroke-width="2"  />
			<g>
				<title>NMT1 (PF09084)
"NMT1/THI5 like"</title>
				<polygon class="PF09084" points="240,28 250,28 256,34 256,46 250,52 240,52" stroke-linejoin="round" width="16" height="24" fill="rgb(196,85,209)" stroke="rgb(156,68,167)" stroke-width="1" opacity="0.75" />
			</g>
		</g>
		<g>
			<title> (ctg39_21)</title>
			<polygon class=" (ctg39_21)" points="269,25 273,25 273,10 303,40 273,70 273,55 269,55" fill="rgb(255,255,255)" fill-opacity="1.0" stroke="rgb(0,0,0)" stroke-width="2"  />
			<g>
				<title>Peptidase_M19 (PF01244)
"Membrane dipeptidase (Peptidase family M19)"</title>
				<polygon class="PF01244" points="269,28 286,28 298,40 286,52 269,52" stroke-linejoin="round" width="33" height="24" fill="rgb(178,227,92)" stroke="rgb(142,181,73)" stroke-width="1" opacity="0.75" />
			</g>
		</g>
		<g>
			<title> (ctg39_22)</title>
			<polygon class=" (ctg39_22)" points="312,25 312,25 312,10 342,40 312,70 312,55 312,55" fill="rgb(255,255,255)" fill-opacity="1.0" stroke="rgb(0,0,0)" stroke-width="2"  />
			<g>
				<title>Lactamase_B_2 (PF12706)
"Beta-lactamase superfamily domain"</title>
				<polygon class="PF12706" points="317,28 326,28 338,40 326,52 317,52" stroke-linejoin="round" width="22" height="24" fill="rgb(62,169,197)" stroke="rgb(49,135,157)" stroke-width="1" opacity="0.75" />
			</g>
		</g>
		<g>
			<title> (ctg39_23)</title>
			<polygon class=" (ctg39_23)" points="343,10 368,40 343,70" fill="rgb(255,255,255)" fill-opacity="1.0" stroke="rgb(0,0,0)" stroke-width="2"  />
			<g>
				<title>TENA_THI-4 (PF03070)
"TENA/THI-4/PQQC family"</title>
				<polygon class="PF03070" points="344,28 354,28 364,40 354,52 344,52" stroke-linejoin="round" width="21" height="24" fill="rgb(95,149,219)" stroke="rgb(76,119,175)" stroke-width="1" opacity="0.75" />
			</g>
		</g>
		<g>
			<title> (ctg39_24)</title>
			<polygon class=" (ctg39_24)" points="368,10 377,40 368,70" fill="rgb(255,255,255)" fill-opacity="1.0" stroke="rgb(0,0,0)" stroke-width="2"  />
			<g>
				<title>PqqD (PF05402)
"Coenzyme PQQ synthesis protein D (PqqD)"</title>
				<polygon class="PF05402" points="370,28 370,28 374,40 370,52 370,52" stroke-linejoin="round" width="6" height="24" fill="rgb(124,62,188)" stroke="rgb(99,49,150)" stroke-width="1" opacity="0.75" />
			</g>
		</g>
		<g>
			<title> (ctg39_25)</title>
			<polygon class=" (ctg39_25)" points="377,25 385,25 385,10 415,40 385,70 385,55 377,55" fill="rgb(255,255,255)" fill-opacity="1.0" stroke="rgb(0,0,0)" stroke-width="2"  />
			<g>
				<title>Radical_SAM (PF04055)
"Radical SAM superfamily"</title>
				<rect class="PF04055" x="378" y="28" stroke-linejoin="round" width="15" height="24" fill="rgb(149,56,222)" stroke="rgb(119,44,177)" stroke-width="1" opacity="0.75" />
			</g>
			<g>
				<title>SPASM (PF13186)
"Iron-sulfur cluster-binding domain"</title>
				<polygon class="PF13186" points="401,31 407,37 407,43 401,49" stroke-linejoin="round" width="6" height="24" fill="rgb(183,66,65)" stroke="rgb(146,52,51)" stroke-width="1" opacity="0.75" />
			</g>
		</g>
		<g>
			<title> (ctg39_26)</title>
			<polygon class=" (ctg39_26)" points="415,10 426,40 415,70" fill="rgb(255,255,255)" fill-opacity="1.0" stroke="rgb(0,0,0)" stroke-width="2"  />
			<g>
				<title>Peptidase_M16 (PF00675)
"Insulinase (Peptidase family M16)"</title>
				<polygon class="PF00675" points="416,28 418,28 423,40 418,52 416,52" stroke-linejoin="round" width="10" height="24" fill="rgb(70,225,127)" stroke="rgb(56,180,101)" stroke-width="1" opacity="0.75" />
			</g>
		</g>
	</g>
</svg>
