<svg version="1.1" baseProfile="full" xmlns="http://www.w3.org/2000/svg" width="380.53333333333336" height="80">
	<g>
		<line x1="10" y1="40.0" x2="370.53333333333336" y2="40.0" style="stroke:rgb(70,70,70); stroke-width:3 "/>
		<g>
			<title> (ctg2_64)</title>
			<polygon class=" (ctg2_64)" points="25,25 36,25 36,10 66,40 36,70 36,55 25,55" fill="rgb(255,255,255)" fill-opacity="1.0" stroke="rgb(0,0,0)" stroke-width="2"  />
			<g>
				<title>PRiA4_ORF3 (PF07929)
"Plasmid pRiA4b ORF-3-like protein"</title>
				<rect class="PF07929" x="25" y="28" stroke-linejoin="round" width="17" height="24" fill="rgb(199,73,132)" stroke="rgb(159,58,105)" stroke-width="1" opacity="0.75" />
			</g>
		</g>
		<g>
			<title> (ctg2_65)</title>
			<polygon class=" (ctg2_65)" points="67,10 83,40 67,70" fill="rgb(255,255,255)" fill-opacity="1.0" stroke="rgb(0,0,0)" stroke-width="2"  />
			<g>
				<title>4HBT_2 (PF13279)
"Thioesterase-like superfamily"</title>
				<polygon class="PF13279" points="69,28 73,28 80,40 73,52 69,52" stroke-linejoin="round" width="13" height="24" fill="rgb(213,114,82)" stroke="rgb(170,91,65)" stroke-width="1" opacity="0.75" />
			</g>
		</g>
		<g>
			<title> (ctg2_66)</title>
			<polygon class=" (ctg2_66)" points="84,10 104,40 84,70" fill="rgb(255,255,255)" fill-opacity="1.0" stroke="rgb(0,0,0)" stroke-width="2"  />
			<g>
				<title>DUF488 (PF04343)
"Protein of unknown function, DUF488"</title>
				<polygon class="PF04343" points="88,28 92,28 100,39 100,41 92,52 88,52" stroke-linejoin="round" width="12" height="24" fill="rgb(200,173,51)" stroke="rgb(160,138,40)" stroke-width="1" opacity="0.75" />
			</g>
		</g>
		<g>
			<title> (ctg2_67)</title>
			<polygon class=" (ctg2_67)" points="110,40 125,10 125,70" fill="rgb(255,255,255)" fill-opacity="1.0" stroke="rgb(0,0,0)" stroke-width="2"  />
			<g>
				<title>DoxX (PF07681)
"DoxX"</title>
				<polygon class="PF07681" points="115,36 119,28 123,28 123,52 119,52 115,44" stroke-linejoin="round" width="8" height="24" fill="rgb(93,188,216)" stroke="rgb(74,150,172)" stroke-width="1" opacity="0.75" />
			</g>
		</g>
		<g>
			<title> (ctg2_68)</title>
			<polygon class=" (ctg2_68)" points="132,10 157,40 132,70" fill="rgb(255,255,255)" fill-opacity="1.0" stroke="rgb(0,0,0)" stroke-width="2"  />
			<g>
				<title>Peptidase_M50B (PF13398)
"Peptidase M50B-like"</title>
				<polygon class="PF13398" points="135,28 143,28 153,40 143,52 135,52" stroke-linejoin="round" width="20" height="24" fill="rgb(182,98,63)" stroke="rgb(145,78,50)" stroke-width="1" opacity="0.75" />
			</g>
		</g>
		<g>
			<title> (ctg2_69)</title>
			<polygon class=" (ctg2_69)" points="164,10 174,40 164,70" fill="rgb(255,255,255)" fill-opacity="1.0" stroke="rgb(0,0,0)" stroke-width="2"  />
			<g>
				<title>DUF4193 (PF13834)
"Domain of unknown function (DUF4193)"</title>
				<polygon class="PF13834" points="164,28 166,28 170,40 166,52 164,52" stroke-linejoin="round" width="9" height="24" fill="rgb(75,226,128)" stroke="rgb(60,180,102)" stroke-width="1" opacity="0.75" />
			</g>
		</g>
		<g>
			<title> (ctg2_70)</title>
			<polygon class=" (ctg2_70)" points="176,40 203,10 203,70" fill="rgb(255,255,255)" fill-opacity="1.0" stroke="rgb(0,0,0)" stroke-width="2"  />
			<g>
				<title>Linocin_M18 (PF04454)
"Encapsulating protein for peroxidase"</title>
				<polygon class="PF04454" points="180,40 191,28 202,28 202,52 191,52" stroke-linejoin="round" width="25" height="24" fill="rgb(89,100,181)" stroke="rgb(71,80,144)" stroke-width="1" opacity="0.75" />
			</g>
		</g>
		<g>
			<title> (ctg2_71)</title>
			<polygon class=" (ctg2_71)" points="203,40 216,10 216,70" fill="rgb(255,255,255)" fill-opacity="1.0" stroke="rgb(0,0,0)" stroke-width="2"  />
		</g>
		<g>
			<title> (ctg2_72)</title>
			<polygon class=" (ctg2_72)" points="219,40 233,10 233,70" fill="rgb(255,255,255)" fill-opacity="1.0" stroke="rgb(0,0,0)" stroke-width="2"  />
		</g>
		<g>
			<title> (ctg2_73)</title>
			<polygon class=" (ctg2_73)" points="239,25 239,25 239,10 269,40 239,70 239,55 239,55" fill="rgb(255,255,255)" fill-opacity="1.0" stroke="rgb(0,0,0)" stroke-width="2"  />
			<g>
				<title>adh_short_C2 (PF13561)
"Enoyl-(Acyl carrier protein) reductase"</title>
				<polygon class="PF13561" points="245,28 252,28 264,40 252,52 245,52" stroke-linejoin="round" width="23" height="24" fill="rgb(73,205,127)" stroke="rgb(58,164,101)" stroke-width="1" opacity="0.75" />
			</g>
		</g>
		<g>
			<title> (ctg2_74)</title>
			<polygon class=" (ctg2_74)" points="272,25 336,25 336,10 366,40 336,70 336,55 272,55" fill="rgb(255,255,255)" fill-opacity="1.0" stroke="rgb(0,0,0)" stroke-width="2"  />
			<g>
				<title>Aconitase (PF00330)
"Aconitase family (aconitate hydratase)"</title>
				<rect class="PF00330" x="277" y="28" stroke-linejoin="round" width="55" height="24" fill="rgb(180,189,85)" stroke="rgb(144,151,68)" stroke-width="1" opacity="0.75" />
			</g>
			<g>
				<title>Aconitase_C (PF00694)
"Aconitase C-terminal domain"</title>
				<polygon class="PF00694" points="345,28 349,28 358,37 358,43 349,52 345,52" stroke-linejoin="round" width="13" height="24" fill="rgb(63,185,92)" stroke="rgb(50,148,73)" stroke-width="1" opacity="0.75" />
			</g>
		</g>
	</g>
</svg>
