<svg version="1.1" baseProfile="full" xmlns="http://www.w3.org/2000/svg" width="694.6666666666666" height="80">
	<g>
		<line x1="10" y1="40.0" x2="684.6666666666666" y2="40.0" style="stroke:rgb(70,70,70); stroke-width:3 "/>
		<g>
			<title> (ctg2_292)</title>
			<polygon class=" (ctg2_292)" points="57,25 55,25 55,10 25,40 55,70 55,55 57,55" fill="rgb(255,255,255)" fill-opacity="1.0" stroke="rgb(0,0,0)" stroke-width="2"  />
			<g>
				<title>Glyoxalase (PF00903)
"Glyoxalase/Bleomycin resistance protein/Dioxygenase superfamily"</title>
				<polygon class="PF00903" points="29,40 41,28 56,28 56,52 41,52 29,40" stroke-linejoin="round" width="27" height="24" fill="rgb(50,162,189)" stroke="rgb(40,129,151)" stroke-width="1" opacity="0.75" />
			</g>
		</g>
		<g>
			<title> (ctg2_293)</title>
			<polygon class=" (ctg2_293)" points="66,10 91,40 66,70" fill="rgb(255,255,255)" fill-opacity="1.0" stroke="rgb(0,0,0)" stroke-width="2"  />
			<g>
				<title>Intg_mem_TP0381 (PF09529)
"Integral membrane protein (intg_mem_TP0381)"</title>
				<polygon class="PF09529" points="67,28 77,28 87,40 77,52 67,52" stroke-linejoin="round" width="21" height="24" fill="rgb(205,205,98)" stroke="rgb(164,164,78)" stroke-width="1" opacity="0.75" />
			</g>
		</g>
		<g>
			<title> (ctg2_294)</title>
			<polygon class=" (ctg2_294)" points="96,40 122,10 122,70" fill="rgb(255,255,255)" fill-opacity="1.0" stroke="rgb(0,0,0)" stroke-width="2"  />
			<g>
				<title>adh_short_C2 (PF13561)
"Enoyl-(Acyl carrier protein) reductase"</title>
				<polygon class="PF13561" points="100,40 111,28 120,28 120,52 111,52" stroke-linejoin="round" width="24" height="24" fill="rgb(73,205,127)" stroke="rgb(58,164,101)" stroke-width="1" opacity="0.75" />
			</g>
		</g>
		<g>
			<title> (ctg2_295)</title>
			<polygon class=" (ctg2_295)" points="130,40 138,10 138,70" fill="rgb(255,255,255)" fill-opacity="1.0" stroke="rgb(0,0,0)" stroke-width="2"  />
			<g>
				<title>DUF3886 (PF13025)
"Protein of unknown function (DUF3886)"</title>
				<polygon class="PF13025" points="133,40 136,30 136,50" stroke-linejoin="round" width="6" height="24" fill="rgb(223,180,81)" stroke="rgb(178,144,64)" stroke-width="1" opacity="0.75" />
			</g>
		</g>
		<g>
			<title> (ctg2_296)</title>
			<polygon class=" (ctg2_296)" points="155,40 176,10 176,70" fill="rgb(255,255,255)" fill-opacity="1.0" stroke="rgb(0,0,0)" stroke-width="2"  />
			<g>
				<title>Pro_isomerase (PF00160)
"Cyclophilin type peptidyl-prolyl cis-trans isomerase/CLD"</title>
				<polygon class="PF00160" points="159,40 168,28 171,28 171,52 168,52" stroke-linejoin="round" width="15" height="24" fill="rgb(130,221,72)" stroke="rgb(103,176,57)" stroke-width="1" opacity="0.75" />
			</g>
		</g>
		<g>
			<title> (ctg2_297)</title>
			<polygon class=" (ctg2_297)" points="185,25 195,25 195,10 225,40 195,70 195,55 185,55" fill="rgb(255,255,255)" fill-opacity="1.0" stroke="rgb(0,0,0)" stroke-width="2"  />
			<g>
				<title>MFS_1 (PF07690)
"Major Facilitator Superfamily"</title>
				<polygon class="PF07690" points="186,28 209,28 212,31 212,49 209,52 186,52" stroke-linejoin="round" width="26" height="24" fill="rgb(193,224,74)" stroke="rgb(154,179,59)" stroke-width="1" opacity="0.75" />
			</g>
		</g>
		<g>
			<title> (ctg2_298)</title>
			<polygon class=" (ctg2_298)" points="228,40 234,10 234,70" fill="rgb(255,255,255)" fill-opacity="1.0" stroke="rgb(0,0,0)" stroke-width="2"  />
		</g>
		<g>
			<title> (ctg2_299)</title>
			<polygon class=" (ctg2_299)" points="236,40 248,10 248,70" fill="rgb(255,255,255)" fill-opacity="1.0" stroke="rgb(0,0,0)" stroke-width="2"  />
		</g>
		<g>
			<title> (ctg2_300)</title>
			<polygon class=" (ctg2_300)" points="252,40 257,10 257,70" fill="rgb(255,255,255)" fill-opacity="1.0" stroke="rgb(0,0,0)" stroke-width="2"  />
		</g>
		<g>
			<title> (ctg2_301)</title>
			<polygon class=" (ctg2_301)" points="262,10 271,40 262,70" fill="rgb(255,255,255)" fill-opacity="1.0" stroke="rgb(0,0,0)" stroke-width="2"  />
		</g>
		<g>
			<title> (ctg2_302)</title>
			<polygon class=" (ctg2_302)" points="277,25 310,25 310,10 340,40 310,70 310,55 277,55" fill="rgb(255,255,255)" fill-opacity="1.0" stroke="rgb(0,0,0)" stroke-width="2"  />
			<g>
				<title>HisKA (PF00512)
"His Kinase A (phospho-acceptor) domain"</title>
				<polygon class="PF00512" points="319,28 324,28 325,29 325,51 324,52 319,52" stroke-linejoin="round" width="6" height="24" fill="rgb(193,125,62)" stroke="rgb(154,100,49)" stroke-width="1" opacity="0.75" />
			</g>
			<g>
				<title>HATPase_c (PF02518)
"Histidine kinase-, DNA gyrase B-, and HSP90-like ATPase"</title>
				<polygon class="PF02518" points="329,33 336,40 329,47" stroke-linejoin="round" width="10" height="24" fill="rgb(80,94,225)" stroke="rgb(64,75,180)" stroke-width="1" opacity="0.75" />
			</g>
		</g>
		<g>
			<title> (ctg2_303)</title>
			<polygon class=" (ctg2_303)" points="343,40 351,10 351,70" fill="rgb(255,255,255)" fill-opacity="1.0" stroke="rgb(0,0,0)" stroke-width="2"  />
		</g>
		<g>
			<title> (ctg2_304)</title>
			<polygon class=" (ctg2_304)" points="384,25 383,25 383,10 353,40 383,70 383,55 384,55" fill="rgb(255,255,255)" fill-opacity="1.0" stroke="rgb(0,0,0)" stroke-width="2"  />
		</g>
		<g>
			<title> (ctg2_305)</title>
			<polygon class=" (ctg2_305)" points="398,10 422,40 398,70" fill="rgb(255,255,255)" fill-opacity="1.0" stroke="rgb(0,0,0)" stroke-width="2"  />
		</g>
		<g>
			<title> (ctg2_306)</title>
			<polygon class=" (ctg2_306)" points="465,25 454,25 454,10 424,40 454,70 454,55 465,55" fill="rgb(255,255,255)" fill-opacity="1.0" stroke="rgb(0,0,0)" stroke-width="2"  />
			<g>
				<title>Acyl_transf_3 (PF01757)
"Acyltransferase family"</title>
				<polygon class="PF01757" points="428,40 440,28 464,28 464,52 440,52 428,40" stroke-linejoin="round" width="36" height="24" fill="rgb(50,152,200)" stroke="rgb(40,121,160)" stroke-width="1" opacity="0.75" />
			</g>
		</g>
		<g>
			<title> (ctg2_307)</title>
			<polygon class=" (ctg2_307)" points="504,25 501,25 501,10 471,40 501,70 501,55 504,55" fill="rgb(255,255,255)" fill-opacity="1.0" stroke="rgb(0,0,0)" stroke-width="2"  />
			<g>
				<title>LytR_cpsA_psr (PF03816)
"LytR_cpsA_psr family"</title>
				<polygon class="PF03816" points="480,35 487,28 495,28 495,52 487,52 480,45" stroke-linejoin="round" width="15" height="24" fill="rgb(212,80,62)" stroke="rgb(169,64,49)" stroke-width="1" opacity="0.75" />
			</g>
		</g>
		<g>
			<title> (ctg2_308)</title>
			<polygon class=" (ctg2_308)" points="511,10 529,40 511,70" fill="rgb(255,255,255)" fill-opacity="1.0" stroke="rgb(0,0,0)" stroke-width="2"  />
			<g>
				<title>PAP2 (PF01569)
"PAP2 superfamily"</title>
				<polygon class="PF01569" points="516,28 518,28 525,40 518,52 516,52" stroke-linejoin="round" width="11" height="24" fill="rgb(133,203,94)" stroke="rgb(106,162,75)" stroke-width="1" opacity="0.75" />
			</g>
		</g>
		<g>
			<title> (ctg2_309)</title>
			<polygon class=" (ctg2_309)" points="536,25 563,25 563,10 593,40 563,70 563,55 536,55" fill="rgb(255,255,255)" fill-opacity="1.0" stroke="rgb(0,0,0)" stroke-width="2"  />
			<g>
				<title>4HB_MCP_1 (PF12729)
"Four helix bundle sensory module for signal transduction"</title>
				<rect class="PF12729" x="537" y="28" stroke-linejoin="round" width="18" height="24" fill="rgb(100,214,134)" stroke="rgb(79,171,107)" stroke-width="1" opacity="0.75" />
			</g>
			<g>
				<title>HAMP (PF00672)
"HAMP domain"</title>
				<rect class="PF00672" x="557" y="28" stroke-linejoin="round" width="5" height="24" fill="rgb(124,89,195)" stroke="rgb(99,71,156)" stroke-width="1" opacity="0.75" />
			</g>
			<g>
				<title>MCPsignal (PF00015)
"Methyl-accepting chemotaxis protein (MCP) signalling domain"</title>
				<polygon class="PF00015" points="570,28 577,28 588,39 588,41 577,52 570,52" stroke-linejoin="round" width="18" height="24" fill="rgb(104,174,223)" stroke="rgb(83,139,178)" stroke-width="1" opacity="0.75" />
			</g>
		</g>
	</g>
</svg>
