<svg version="1.1" baseProfile="full" xmlns="http://www.w3.org/2000/svg" width="758.8666666666667" height="80">
	<g>
		<line x1="10" y1="40.0" x2="748.8666666666667" y2="40.0" style="stroke:rgb(70,70,70); stroke-width:3 "/>
		<g>
			<title> (ctg15_93)</title>
			<polygon class=" (ctg15_93)" points="45,10 63,40 45,70" fill="rgb(255,255,255)" fill-opacity="1.0" stroke="rgb(0,0,0)" stroke-width="2"  />
			<g>
				<title>Smr (PF01713)
"Smr domain"</title>
				<polygon class="PF01713" points="53,29 60,40 53,51" stroke-linejoin="round" width="8" height="24" fill="rgb(183,72,146)" stroke="rgb(146,57,116)" stroke-width="1" opacity="0.75" />
			</g>
		</g>
		<g>
			<title> (ctg15_94)</title>
			<polygon class=" (ctg15_94)" points="120,25 95,25 95,10 65,40 95,70 95,55 120,55" fill="rgb(255,255,255)" fill-opacity="1.0" stroke="rgb(0,0,0)" stroke-width="2"  />
			<g>
				<title>MCPsignal (PF00015)
"Methyl-accepting chemotaxis protein (MCP) signalling domain"</title>
				<polygon class="PF00015" points="71,38 81,28 86,28 86,52 81,52 71,42" stroke-linejoin="round" width="15" height="24" fill="rgb(104,174,223)" stroke="rgb(83,139,178)" stroke-width="1" opacity="0.75" />
			</g>
			<g>
				<title>HAMP (PF00672)
"HAMP domain"</title>
				<rect class="PF00672" x="93" y="28" stroke-linejoin="round" width="5" height="24" fill="rgb(124,89,195)" stroke="rgb(99,71,156)" stroke-width="1" opacity="0.75" />
			</g>
			<g>
				<title>TarH (PF02203)
"Tar ligand binding domain homologue"</title>
				<rect class="PF02203" x="102" y="28" stroke-linejoin="round" width="17" height="24" fill="rgb(190,78,86)" stroke="rgb(152,62,68)" stroke-width="1" opacity="0.75" />
			</g>
		</g>
		<g>
			<title> (ctg15_95)</title>
			<polygon class=" (ctg15_95)" points="125,10 153,40 125,70" fill="rgb(255,255,255)" fill-opacity="1.0" stroke="rgb(0,0,0)" stroke-width="2"  />
			<g>
				<title>Aldo_ket_red (PF00248)
"Aldo/keto reductase family"</title>
				<polygon class="PF00248" points="126,28 137,28 149,40 137,52 126,52" stroke-linejoin="round" width="26" height="24" fill="rgb(225,205,58)" stroke="rgb(180,164,46)" stroke-width="1" opacity="0.75" />
			</g>
		</g>
		<g>
			<title> (ctg15_96)</title>
			<polygon class=" (ctg15_96)" points="155,40 161,10 161,70" fill="rgb(255,255,255)" fill-opacity="1.0" stroke="rgb(0,0,0)" stroke-width="2"  />
		</g>
		<g>
			<title> (ctg15_97)</title>
			<polygon class=" (ctg15_97)" points="183,25 234,25 234,10 264,40 234,70 234,55 183,55" fill="rgb(255,255,255)" fill-opacity="1.0" stroke="rgb(0,0,0)" stroke-width="2"  />
			<g>
				<title>PQQ (PF01011)
"PQQ enzyme repeat"</title>
				<rect class="PF01011" x="206" y="28" stroke-linejoin="round" width="3" height="24" fill="rgb(223,77,129)" stroke="rgb(178,61,103)" stroke-width="1" opacity="0.75" />
			</g>
			<g>
				<title>PQQ (PF01011)
"PQQ enzyme repeat"</title>
				<rect class="PF01011" x="228" y="28" stroke-linejoin="round" width="3" height="24" fill="rgb(223,77,129)" stroke="rgb(178,61,103)" stroke-width="1" opacity="0.75" />
			</g>
			<g>
				<title>PQQ (PF01011)
"PQQ enzyme repeat"</title>
				<polygon class="PF01011" points="256,37 259,40 259,40 256,43" stroke-linejoin="round" width="3" height="24" fill="rgb(223,77,129)" stroke="rgb(178,61,103)" stroke-width="1" opacity="0.75" />
			</g>
		</g>
		<g>
			<title> (ctg15_98)</title>
			<polygon class=" (ctg15_98)" points="261,40 269,10 269,70" fill="rgb(255,255,255)" fill-opacity="1.0" stroke="rgb(0,0,0)" stroke-width="2"  />
		</g>
		<g>
			<title> (ctg15_99)</title>
			<polygon class=" (ctg15_99)" points="342,25 297,25 297,10 267,40 297,70 297,55 342,55" fill="rgb(255,255,255)" fill-opacity="1.0" stroke="rgb(0,0,0)" stroke-width="2"  />
			<g>
				<title>Peptidase_M16 (PF00675)
"Insulinase (Peptidase family M16)"</title>
				<rect class="PF00675" x="327" y="28" stroke-linejoin="round" width="13" height="24" fill="rgb(70,225,127)" stroke="rgb(56,180,101)" stroke-width="1" opacity="0.75" />
			</g>
		</g>
		<g>
			<title> (ctg15_100)</title>
			<polygon class=" (ctg15_100)" points="381,25 373,25 373,10 343,40 373,70 373,55 381,55" fill="rgb(255,255,255)" fill-opacity="1.0" stroke="rgb(0,0,0)" stroke-width="2"  />
			<g>
				<title>SPASM (PF13186)
"Iron-sulfur cluster-binding domain"</title>
				<polygon class="PF13186" points="350,37 356,31 356,49 350,43" stroke-linejoin="round" width="6" height="24" fill="rgb(183,66,65)" stroke="rgb(146,52,51)" stroke-width="1" opacity="0.75" />
			</g>
			<g>
				<title>Radical_SAM (PF04055)
"Radical SAM superfamily"</title>
				<rect class="PF04055" x="363" y="28" stroke-linejoin="round" width="15" height="24" fill="rgb(149,56,222)" stroke="rgb(119,44,177)" stroke-width="1" opacity="0.75" />
			</g>
		</g>
		<g>
			<title> (ctg15_101)</title>
			<polygon class=" (ctg15_101)" points="380,40 389,10 389,70" fill="rgb(255,255,255)" fill-opacity="1.0" stroke="rgb(0,0,0)" stroke-width="2"  />
			<g>
				<title>PqqD (PF05402)
"Coenzyme PQQ synthesis protein D (PqqD)"</title>
				<polygon class="PF05402" points="383,40 386,30 386,50" stroke-linejoin="round" width="6" height="24" fill="rgb(124,62,188)" stroke="rgb(99,49,150)" stroke-width="1" opacity="0.75" />
			</g>
		</g>
		<g>
			<title> (ctg15_102)</title>
			<polygon class=" (ctg15_102)" points="390,40 415,10 415,70" fill="rgb(255,255,255)" fill-opacity="1.0" stroke="rgb(0,0,0)" stroke-width="2"  />
			<g>
				<title>TENA_THI-4 (PF03070)
"TENA/THI-4/PQQC family"</title>
				<polygon class="PF03070" points="394,40 404,28 413,28 413,52 404,52" stroke-linejoin="round" width="21" height="24" fill="rgb(95,149,219)" stroke="rgb(76,119,175)" stroke-width="1" opacity="0.75" />
			</g>
		</g>
		<g>
			<title> (ctg15_103)</title>
			<polygon class=" (ctg15_103)" points="445,25 445,25 445,10 415,40 445,70 445,55 445,55" fill="rgb(255,255,255)" fill-opacity="1.0" stroke="rgb(0,0,0)" stroke-width="2"  />
			<g>
				<title>Lactamase_B_2 (PF12706)
"Beta-lactamase superfamily domain"</title>
				<polygon class="PF12706" points="419,40 431,28 440,28 440,52 431,52" stroke-linejoin="round" width="22" height="24" fill="rgb(62,169,197)" stroke="rgb(49,135,157)" stroke-width="1" opacity="0.75" />
			</g>
		</g>
		<g>
			<title> (ctg15_104)</title>
			<polygon class=" (ctg15_104)" points="489,25 485,25 485,10 455,40 485,70 485,55 489,55" fill="rgb(255,255,255)" fill-opacity="1.0" stroke="rgb(0,0,0)" stroke-width="2"  />
			<g>
				<title>Peptidase_M19 (PF01244)
"Membrane dipeptidase (Peptidase family M19)"</title>
				<polygon class="PF01244" points="459,40 471,28 488,28 488,52 471,52" stroke-linejoin="round" width="33" height="24" fill="rgb(178,227,92)" stroke="rgb(142,181,73)" stroke-width="1" opacity="0.75" />
			</g>
		</g>
		<g>
			<title> (ctg15_105)</title>
			<polygon class=" (ctg15_105)" points="497,10 511,40 497,70" fill="rgb(255,255,255)" fill-opacity="1.0" stroke="rgb(0,0,0)" stroke-width="2"  />
		</g>
		<g>
			<title> (ctg15_106)</title>
			<polygon class=" (ctg15_106)" points="514,40 525,10 525,70" fill="rgb(255,255,255)" fill-opacity="1.0" stroke="rgb(0,0,0)" stroke-width="2"  />
			<g>
				<title>HNH (PF01844)
"HNH endonuclease"</title>
				<polygon class="PF01844" points="518,37 522,28 522,28 522,52 522,52 518,43" stroke-linejoin="round" width="4" height="24" fill="rgb(118,184,79)" stroke="rgb(94,147,63)" stroke-width="1" opacity="0.75" />
			</g>
		</g>
		<g>
			<title> (ctg15_107)</title>
			<polygon class=" (ctg15_107)" points="533,25 537,25 537,10 567,40 537,70 537,55 533,55" fill="rgb(255,255,255)" fill-opacity="1.0" stroke="rgb(0,0,0)" stroke-width="2"  />
			<g>
				<title>Bac_luciferase (PF00296)
"Luciferase-like monooxygenase"</title>
				<polygon class="PF00296" points="533,28 551,28 563,40 563,40 551,52 533,52" stroke-linejoin="round" width="30" height="24" fill="rgb(180,112,78)" stroke="rgb(144,89,62)" stroke-width="1" opacity="0.75" />
			</g>
		</g>
		<g>
			<title> (ctg15_108)</title>
			<polygon class=" (ctg15_108)" points="570,10 598,40 570,70" fill="rgb(255,255,255)" fill-opacity="1.0" stroke="rgb(0,0,0)" stroke-width="2"  />
			<g>
				<title>ADH_zinc_N (PF00107)
"Zinc-binding dehydrogenase"</title>
				<polygon class="PF00107" points="581,28 582,28 592,38 592,42 582,52 581,52" stroke-linejoin="round" width="11" height="24" fill="rgb(81,108,215)" stroke="rgb(64,86,172)" stroke-width="1" opacity="0.75" />
			</g>
		</g>
		<g>
			<title> (ctg15_109)</title>
			<polygon class=" (ctg15_109)" points="632,25 628,25 628,10 598,40 628,70 628,55 632,55" fill="rgb(255,255,255)" fill-opacity="1.0" stroke="rgb(0,0,0)" stroke-width="2"  />
			<g>
				<title>AI-2E_transport (PF01594)
"AI-2E family transporter"</title>
				<polygon class="PF01594" points="602,40 614,28 630,28 630,52 614,52" stroke-linejoin="round" width="31" height="24" fill="rgb(226,96,145)" stroke="rgb(180,76,116)" stroke-width="1" opacity="0.75" />
			</g>
		</g>
		<g>
			<title> (ctg15_110)</title>
			<polygon class=" (ctg15_110)" points="647,10 659,40 647,70" fill="rgb(255,255,255)" fill-opacity="1.0" stroke="rgb(0,0,0)" stroke-width="2"  />
			<g>
				<title>Multi_Drug_Res (PF00893)
"Small Multidrug Resistance protein"</title>
				<polygon class="PF00893" points="647,28 650,28 655,40 650,52 647,52" stroke-linejoin="round" width="9" height="24" fill="rgb(199,75,202)" stroke="rgb(159,60,161)" stroke-width="1" opacity="0.75" />
			</g>
		</g>
		<g>
			<title> (ctg15_111)</title>
			<polygon class=" (ctg15_111)" points="659,10 670,40 659,70" fill="rgb(255,255,255)" fill-opacity="1.0" stroke="rgb(0,0,0)" stroke-width="2"  />
			<g>
				<title>Multi_Drug_Res (PF00893)
"Small Multidrug Resistance protein"</title>
				<polygon class="PF00893" points="659,28 662,28 666,40 662,52 659,52" stroke-linejoin="round" width="9" height="24" fill="rgb(199,75,202)" stroke="rgb(159,60,161)" stroke-width="1" opacity="0.75" />
			</g>
		</g>
		<g>
			<title> (ctg15_112)</title>
			<polygon class=" (ctg15_112)" points="670,40 697,10 697,70" fill="rgb(255,255,255)" fill-opacity="1.0" stroke="rgb(0,0,0)" stroke-width="2"  />
		</g>
	</g>
</svg>
