<svg version="1.1" baseProfile="full" xmlns="http://www.w3.org/2000/svg" width="1846.3333333333333" height="80">
	<g>
		<line x1="10" y1="40.0" x2="1836.3333333333333" y2="40.0" style="stroke:rgb(70,70,70); stroke-width:3 "/>
		<g>
			<title> (ctg1_506)</title>
			<polygon class=" (ctg1_506)" points="14,10 43,40 14,70" fill="rgb(255,255,255)" fill-opacity="1.0" stroke="rgb(0,0,0)" stroke-width="2"  />
			<g>
				<title>HTH_1 (PF00126)
"Bacterial regulatory helix-turn-helix protein, lysR family"</title>
				<rect class="PF00126" x="15" y="28" stroke-linejoin="round" width="5" height="24" fill="rgb(125,227,79)" stroke="rgb(99,181,63)" stroke-width="1" opacity="0.75" />
			</g>
			<g>
				<title>LysR_substrate (PF03466)
"LysR substrate binding domain"</title>
				<polygon class="PF03466" points="23,28 27,28 39,40 27,52 23,52" stroke-linejoin="round" width="20" height="24" fill="rgb(55,136,195)" stroke="rgb(44,108,156)" stroke-width="1" opacity="0.75" />
			</g>
		</g>
		<g>
			<title> (ctg1_507)</title>
			<polygon class=" (ctg1_507)" points="84,25 76,25 76,10 46,40 76,70 76,55 84,55" fill="rgb(255,255,255)" fill-opacity="1.0" stroke="rgb(0,0,0)" stroke-width="2"  />
			<g>
				<title>Aminotran_1_2 (PF00155)
"Aminotransferase class I and II"</title>
				<polygon class="PF00155" points="50,40 62,28 81,28 81,52 62,52" stroke-linejoin="round" width="35" height="24" fill="rgb(89,113,198)" stroke="rgb(71,90,158)" stroke-width="1" opacity="0.75" />
			</g>
		</g>
		<g>
			<title> (ctg1_508)</title>
			<polygon class=" (ctg1_508)" points="89,10 109,40 89,70" fill="rgb(255,255,255)" fill-opacity="1.0" stroke="rgb(0,0,0)" stroke-width="2"  />
			<g>
				<title>Aldolase_II (PF00596)
"Class II Aldolase and Adducin N-terminal domain"</title>
				<polygon class="PF00596" points="89,28 97,28 105,40 97,52 89,52" stroke-linejoin="round" width="18" height="24" fill="rgb(208,130,90)" stroke="rgb(166,104,72)" stroke-width="1" opacity="0.75" />
			</g>
		</g>
		<g>
			<title> (ctg1_509)</title>
			<polygon class=" (ctg1_509)" points="109,10 132,40 109,70" fill="rgb(255,255,255)" fill-opacity="1.0" stroke="rgb(0,0,0)" stroke-width="2"  />
			<g>
				<title>Hydrolase (PF00702)
"haloacid dehalogenase-like hydrolase"</title>
				<polygon class="PF00702" points="109,28 119,28 128,40 128,40 119,52 109,52" stroke-linejoin="round" width="19" height="24" fill="rgb(68,220,102)" stroke="rgb(54,176,81)" stroke-width="1" opacity="0.75" />
			</g>
		</g>
		<g>
			<title> (ctg1_510)</title>
			<polygon class=" (ctg1_510)" points="132,10 150,40 132,70" fill="rgb(255,255,255)" fill-opacity="1.0" stroke="rgb(0,0,0)" stroke-width="2"  />
			<g>
				<title>ARD (PF03079)
"ARD/ARD' family"</title>
				<polygon class="PF03079" points="132,28 139,28 146,40 139,52 132,52" stroke-linejoin="round" width="16" height="24" fill="rgb(49,194,66)" stroke="rgb(39,155,52)" stroke-width="1" opacity="0.75" />
			</g>
		</g>
		<g>
			<title> (ctg1_511)</title>
			<polygon class=" (ctg1_511)" points="208,25 204,25 204,10 174,40 204,70 204,55 208,55" fill="rgb(255,255,255)" fill-opacity="1.0" stroke="rgb(0,0,0)" stroke-width="2"  />
			<g>
				<title>IF-2B (PF01008)
"Initiation factor 2 subunit family"</title>
				<polygon class="PF01008" points="178,40 190,28 203,28 203,52 190,52" stroke-linejoin="round" width="28" height="24" fill="rgb(195,91,90)" stroke="rgb(156,72,72)" stroke-width="1" opacity="0.75" />
			</g>
		</g>
		<g>
			<title> (ctg1_512)</title>
			<polygon class=" (ctg1_512)" points="210,25 221,25 221,10 251,40 221,70 221,55 210,55" fill="rgb(255,255,255)" fill-opacity="1.0" stroke="rgb(0,0,0)" stroke-width="2"  />
			<g>
				<title>APH (PF01636)
"Phosphotransferase enzyme family"</title>
				<polygon class="PF01636" points="214,28 235,28 239,32 239,48 235,52 214,52" stroke-linejoin="round" width="25" height="24" fill="rgb(106,220,228)" stroke="rgb(84,176,182)" stroke-width="1" opacity="0.75" />
			</g>
		</g>
		<g>
			<title> (ctg1_513)</title>
			<polygon class=" (ctg1_513)" points="295,25 284,25 284,10 254,40 284,70 284,55 295,55" fill="rgb(255,255,255)" fill-opacity="1.0" stroke="rgb(0,0,0)" stroke-width="2"  />
		</g>
		<g>
			<title> (ctg1_514)</title>
			<polygon class=" (ctg1_514)" points="333,25 328,25 328,10 298,40 328,70 328,55 333,55" fill="rgb(255,255,255)" fill-opacity="1.0" stroke="rgb(0,0,0)" stroke-width="2"  />
			<g>
				<title>Peripla_BP_4 (PF13407)
"Periplasmic binding protein domain"</title>
				<polygon class="PF13407" points="303,39 314,28 328,28 328,52 314,52 303,41" stroke-linejoin="round" width="25" height="24" fill="rgb(124,182,50)" stroke="rgb(99,145,39)" stroke-width="1" opacity="0.75" />
			</g>
		</g>
		<g>
			<title> (ctg1_515)</title>
			<polygon class=" (ctg1_515)" points="368,25 365,25 365,10 335,40 365,70 365,55 368,55" fill="rgb(255,255,255)" fill-opacity="1.0" stroke="rgb(0,0,0)" stroke-width="2"  />
			<g>
				<title>BPD_transp_2 (PF02653)
"Branched-chain amino acid transport system / permease component"</title>
				<polygon class="PF02653" points="339,40 351,28 362,28 362,52 351,52" stroke-linejoin="round" width="27" height="24" fill="rgb(69,130,196)" stroke="rgb(55,104,156)" stroke-width="1" opacity="0.75" />
			</g>
		</g>
		<g>
			<title> (ctg1_516)</title>
			<polygon class=" (ctg1_516)" points="418,25 398,25 398,10 368,40 398,70 398,55 418,55" fill="rgb(255,255,255)" fill-opacity="1.0" stroke="rgb(0,0,0)" stroke-width="2"  />
			<g>
				<title>ABC_tran (PF00005)
"ABC transporter"</title>
				<polygon class="PF00005" points="375,37 384,28 390,28 390,52 384,52 375,43" stroke-linejoin="round" width="15" height="24" fill="rgb(129,201,63)" stroke="rgb(103,160,50)" stroke-width="1" opacity="0.75" />
			</g>
			<g>
				<title>ABC_tran (PF00005)
"ABC transporter"</title>
				<rect class="PF00005" x="400" y="28" stroke-linejoin="round" width="15" height="24" fill="rgb(129,201,63)" stroke="rgb(103,160,50)" stroke-width="1" opacity="0.75" />
			</g>
		</g>
		<g>
			<title> (ctg1_517)</title>
			<polygon class=" (ctg1_517)" points="423,25 429,25 429,10 459,40 429,70 429,55 423,55" fill="rgb(255,255,255)" fill-opacity="1.0" stroke="rgb(0,0,0)" stroke-width="2"  />
			<g>
				<title>Fe-ADH (PF00465)
"Iron-containing alcohol dehydrogenase"</title>
				<polygon class="PF00465" points="424,28 443,28 455,40 443,52 424,52" stroke-linejoin="round" width="33" height="24" fill="rgb(73,179,216)" stroke="rgb(58,143,172)" stroke-width="1" opacity="0.75" />
			</g>
		</g>
		<g>
			<title> (ctg1_518)</title>
			<polygon class=" (ctg1_518)" points="462,10 486,40 462,70" fill="rgb(255,255,255)" fill-opacity="1.0" stroke="rgb(0,0,0)" stroke-width="2"  />
			<g>
				<title>adh_short_C2 (PF13561)
"Enoyl-(Acyl carrier protein) reductase"</title>
				<polygon class="PF13561" points="463,28 473,28 482,40 473,52 463,52" stroke-linejoin="round" width="23" height="24" fill="rgb(73,205,127)" stroke="rgb(58,164,101)" stroke-width="1" opacity="0.75" />
			</g>
		</g>
		<g>
			<title> (ctg1_519)</title>
			<polygon class=" (ctg1_519)" points="489,40 495,10 495,70" fill="rgb(255,255,255)" fill-opacity="1.0" stroke="rgb(0,0,0)" stroke-width="2"  />
			<g>
				<title>Sel_put (PF04328)
"Selenoprotein, putative"</title>
				<polygon class="PF04328" points="492,40 495,28 495,28 495,52 495,52" stroke-linejoin="round" width="6" height="24" fill="rgb(114,219,96)" stroke="rgb(91,175,76)" stroke-width="1" opacity="0.75" />
			</g>
		</g>
		<g>
			<title> (ctg1_520)</title>
			<polygon class=" (ctg1_520)" points="567,25 527,25 527,10 497,40 527,70 527,55 567,55" fill="rgb(255,255,255)" fill-opacity="1.0" stroke="rgb(0,0,0)" stroke-width="2"  />
			<g>
				<title>CstA_5TM (PF13722)
"5TM C-terminal transporter carbon starvation CstA"</title>
				<polygon class="PF13722" points="507,34 513,28 519,28 519,52 513,52 507,46" stroke-linejoin="round" width="12" height="24" fill="rgb(224,155,111)" stroke="rgb(179,124,88)" stroke-width="1" opacity="0.75" />
			</g>
			<g>
				<title>CstA (PF02554)
"Carbon starvation protein CstA"</title>
				<rect class="PF02554" x="525" y="28" stroke-linejoin="round" width="38" height="24" fill="rgb(153,59,192)" stroke="rgb(122,47,153)" stroke-width="1" opacity="0.75" />
			</g>
		</g>
		<g>
			<title> (ctg1_521)</title>
			<polygon class=" (ctg1_521)" points="577,10 601,40 577,70" fill="rgb(255,255,255)" fill-opacity="1.0" stroke="rgb(0,0,0)" stroke-width="2"  />
			<g>
				<title>Gate (PF07670)
"Nucleoside recognition"</title>
				<polygon class="PF07670" points="585,28 587,28 597,40 587,52 585,52" stroke-linejoin="round" width="13" height="24" fill="rgb(124,94,191)" stroke="rgb(99,75,152)" stroke-width="1" opacity="0.75" />
			</g>
		</g>
		<g>
			<title> (ctg1_522)</title>
			<polygon class=" (ctg1_522)" points="601,10 616,40 601,70" fill="rgb(255,255,255)" fill-opacity="1.0" stroke="rgb(0,0,0)" stroke-width="2"  />
			<g>
				<title>Gate (PF07670)
"Nucleoside recognition"</title>
				<polygon class="PF07670" points="603,28 606,28 613,40 606,52 603,52" stroke-linejoin="round" width="12" height="24" fill="rgb(124,94,191)" stroke="rgb(99,75,152)" stroke-width="1" opacity="0.75" />
			</g>
		</g>
		<g>
			<title> (ctg1_523)</title>
			<polygon class=" (ctg1_523)" points="617,25 624,25 624,10 654,40 624,70 624,55 617,55" fill="rgb(255,255,255)" fill-opacity="1.0" stroke="rgb(0,0,0)" stroke-width="2"  />
			<g>
				<title>M20_dimer (PF07687)
"Peptidase dimerisation domain"</title>
				<polygon class="PF07687" points="634,28 637,28 644,35 644,45 637,52 634,52" stroke-linejoin="round" width="10" height="24" fill="rgb(218,154,97)" stroke="rgb(174,123,77)" stroke-width="1" opacity="0.75" />
			</g>
		</g>
		<g>
			<title> (ctg1_524)</title>
			<polygon class=" (ctg1_524)" points="662,40 675,10 675,70" fill="rgb(255,255,255)" fill-opacity="1.0" stroke="rgb(0,0,0)" stroke-width="2"  />
			<g>
				<title>4HBT (PF03061)
"Thioesterase superfamily"</title>
				<polygon class="PF03061" points="665,40 670,29 670,51" stroke-linejoin="round" width="7" height="24" fill="rgb(143,103,215)" stroke="rgb(114,82,172)" stroke-width="1" opacity="0.75" />
			</g>
		</g>
		<g>
			<title> (ctg1_525)</title>
			<polygon class=" (ctg1_525)" points="676,40 701,10 701,70" fill="rgb(255,255,255)" fill-opacity="1.0" stroke="rgb(0,0,0)" stroke-width="2"  />
			<g>
				<title>adh_short_C2 (PF13561)
"Enoyl-(Acyl carrier protein) reductase"</title>
				<polygon class="PF13561" points="680,40 690,28 699,28 699,52 690,52" stroke-linejoin="round" width="23" height="24" fill="rgb(73,205,127)" stroke="rgb(58,164,101)" stroke-width="1" opacity="0.75" />
			</g>
		</g>
		<g>
			<title> (ctg1_526)</title>
			<polygon class=" (ctg1_526)" points="701,40 729,10 729,70" fill="rgb(255,255,255)" fill-opacity="1.0" stroke="rgb(0,0,0)" stroke-width="2"  />
			<g>
				<title>PP-binding (PF00550)
"Phosphopantetheine attachment site"</title>
				<polygon class="PF00550" points="705,40 707,38 707,42" stroke-linejoin="round" width="6" height="24" fill="rgb(103,191,88)" stroke="rgb(82,152,70)" stroke-width="1" opacity="0.75" />
			</g>
			<g>
				<title>Isochorismatase (PF00857)
"Isochorismatase family"</title>
				<polygon class="PF00857" points="709,36 716,28 726,28 726,52 716,52 709,44" stroke-linejoin="round" width="17" height="24" fill="rgb(144,224,70)" stroke="rgb(115,179,56)" stroke-width="1" opacity="0.75" />
			</g>
		</g>
		<g>
			<title> (ctg1_527)</title>
			<polygon class=" (ctg1_527)" points="783,25 760,25 760,10 730,40 760,70 760,55 783,55" fill="rgb(255,255,255)" fill-opacity="1.0" stroke="rgb(0,0,0)" stroke-width="2"  />
			<g>
				<title>AMP-binding_C (PF13193)
"AMP-binding enzyme C-terminal domain"</title>
				<polygon class="PF13193" points="734,40 738,36 738,44" stroke-linejoin="round" width="7" height="24" fill="rgb(182,50,118)" stroke="rgb(145,39,94)" stroke-width="1" opacity="0.75" />
			</g>
			<g>
				<title>AMP-binding (PF00501)
"AMP-binding enzyme"</title>
				<polygon class="PF00501" points="739,35 746,28 779,28 779,52 746,52 739,45" stroke-linejoin="round" width="40" height="24" fill="rgb(60,217,223)" stroke="rgb(48,173,178)" stroke-width="1" opacity="0.75" />
			</g>
		</g>
		<g>
			<title> (ctg1_528)</title>
			<polygon class=" (ctg1_528)" points="823,25 814,25 814,10 784,40 814,70 814,55 823,55" fill="rgb(255,255,255)" fill-opacity="1.0" stroke="rgb(0,0,0)" stroke-width="2"  />
			<g>
				<title>Chorismate_bind (PF00425)
"chorismate binding enzyme"</title>
				<polygon class="PF00425" points="788,40 800,28 810,28 810,52 800,52" stroke-linejoin="round" width="25" height="24" fill="rgb(188,116,88)" stroke="rgb(150,92,70)" stroke-width="1" opacity="0.75" />
			</g>
		</g>
		<g>
			<title> (ctg1_529)</title>
			<polygon class=" (ctg1_529)" points="829,25 831,25 831,10 861,40 831,70 831,55 829,55" fill="rgb(255,255,255)" fill-opacity="1.0" stroke="rgb(0,0,0)" stroke-width="2"  />
			<g>
				<title>Peripla_BP_2 (PF01497)
"Periplasmic binding protein"</title>
				<polygon class="PF01497" points="833,28 844,28 856,40 844,52 833,52" stroke-linejoin="round" width="25" height="24" fill="rgb(183,226,104)" stroke="rgb(146,180,83)" stroke-width="1" opacity="0.75" />
			</g>
		</g>
		<g>
			<title> (ctg1_530)</title>
			<polygon class=" (ctg1_530)" points="876,10 893,40 876,70" fill="rgb(255,255,255)" fill-opacity="1.0" stroke="rgb(0,0,0)" stroke-width="2"  />
		</g>
		<g>
			<title> (ctg1_531)</title>
			<polygon class=" (ctg1_531)" points="933,25 922,25 922,10 892,40 922,70 922,55 933,55" fill="rgb(255,255,255)" fill-opacity="1.0" stroke="rgb(0,0,0)" stroke-width="2"  />
			<g>
				<title>MFS_1 (PF07690)
"Major Facilitator Superfamily"</title>
				<polygon class="PF07690" points="908,28 908,28 930,28 930,52 908,52 908,52" stroke-linejoin="round" width="22" height="24" fill="rgb(193,224,74)" stroke="rgb(154,179,59)" stroke-width="1" opacity="0.75" />
			</g>
		</g>
		<g>
			<title> (ctg1_532)</title>
			<polygon class=" (ctg1_532)" points="937,25 940,25 940,10 970,40 940,70 940,55 937,55" fill="rgb(255,255,255)" fill-opacity="1.0" stroke="rgb(0,0,0)" stroke-width="2"  />
			<g>
				<title>FecCD (PF01032)
"FecCD transport family"</title>
				<polygon class="PF01032" points="938,28 954,28 966,40 954,52 938,52" stroke-linejoin="round" width="31" height="24" fill="rgb(210,177,70)" stroke="rgb(168,141,56)" stroke-width="1" opacity="0.75" />
			</g>
		</g>
		<g>
			<title> (ctg1_533)</title>
			<polygon class=" (ctg1_533)" points="971,25 974,25 974,10 1004,40 974,70 974,55 971,55" fill="rgb(255,255,255)" fill-opacity="1.0" stroke="rgb(0,0,0)" stroke-width="2"  />
			<g>
				<title>FecCD (PF01032)
"FecCD transport family"</title>
				<polygon class="PF01032" points="972,28 987,28 999,40 987,52 972,52" stroke-linejoin="round" width="31" height="24" fill="rgb(210,177,70)" stroke="rgb(168,141,56)" stroke-width="1" opacity="0.75" />
			</g>
		</g>
		<g>
			<title> (ctg1_534)</title>
			<polygon class=" (ctg1_534)" points="1003,10 1029,40 1003,70" fill="rgb(255,255,255)" fill-opacity="1.0" stroke="rgb(0,0,0)" stroke-width="2"  />
			<g>
				<title>ABC_tran (PF00005)
"ABC transporter"</title>
				<polygon class="PF00005" points="1005,28 1014,28 1019,33 1019,47 1014,52 1005,52" stroke-linejoin="round" width="14" height="24" fill="rgb(129,201,63)" stroke="rgb(103,160,50)" stroke-width="1" opacity="0.75" />
			</g>
		</g>
		<g>
			<title> (ctg1_535)</title>
			<polygon class=" (ctg1_535)" points="1168,25 1070,25 1070,10 1040,40 1070,70 1070,55 1168,55" fill="rgb(255,255,255)" fill-opacity="1.0" stroke="rgb(0,0,0)" stroke-width="2"  />
			<g>
				<title>Thioesterase (PF00975)
"Thioesterase domain"</title>
				<polygon class="PF00975" points="1044,40 1056,28 1061,28 1061,52 1056,52" stroke-linejoin="round" width="21" height="24" fill="rgb(207,80,138)" stroke="rgb(165,63,110)" stroke-width="1" opacity="0.75" />
			</g>
			<g>
				<title>PP-binding (PF00550)
"Phosphopantetheine attachment site"</title>
				<rect class="PF00550" x="1065" y="28" stroke-linejoin="round" width="6" height="24" fill="rgb(103,191,88)" stroke="rgb(82,152,70)" stroke-width="1" opacity="0.75" />
			</g>
			<g>
				<title>AMP-binding_C (PF13193)
"AMP-binding enzyme C-terminal domain"</title>
				<rect class="PF13193" x="1074" y="28" stroke-linejoin="round" width="8" height="24" fill="rgb(182,50,118)" stroke="rgb(145,39,94)" stroke-width="1" opacity="0.75" />
			</g>
			<g>
				<title>AMP-binding (PF00501)
"AMP-binding enzyme"</title>
				<rect class="PF00501" x="1082" y="28" stroke-linejoin="round" width="40" height="24" fill="rgb(60,217,223)" stroke="rgb(48,173,178)" stroke-width="1" opacity="0.75" />
			</g>
			<g>
				<title>Condensation (PF00668)
"Condensation domain"</title>
				<rect class="PF00668" x="1124" y="28" stroke-linejoin="round" width="44" height="24" fill="rgb(224,184,98)" stroke="rgb(179,147,78)" stroke-width="1" opacity="0.75" />
			</g>
		</g>
		<g>
			<title> (ctg1_536)</title>
			<polygon class=" (ctg1_536)" points="1169,40 1176,10 1176,70" fill="rgb(255,255,255)" fill-opacity="1.0" stroke="rgb(0,0,0)" stroke-width="2"  />
			<g>
				<title>MbtH (PF03621)
"MbtH-like protein"</title>
				<polygon class="PF03621" points="1172,40 1175,28 1175,28 1175,52 1175,52" stroke-linejoin="round" width="5" height="24" fill="rgb(212,165,97)" stroke="rgb(169,132,77)" stroke-width="1" opacity="0.75" />
			</g>
		</g>
		<g>
			<title> (ctg1_537)</title>
			<polygon class=" (ctg1_537)" points="1217,25 1207,25 1207,10 1177,40 1207,70 1207,55 1217,55" fill="rgb(255,255,255)" fill-opacity="1.0" stroke="rgb(0,0,0)" stroke-width="2"  />
			<g>
				<title>Esterase (PF00756)
"Putative esterase"</title>
				<polygon class="PF00756" points="1181,40 1193,28 1198,28 1198,52 1193,52" stroke-linejoin="round" width="21" height="24" fill="rgb(217,132,77)" stroke="rgb(173,105,61)" stroke-width="1" opacity="0.75" />
			</g>
			<g>
				<title>Enterochelin_N (PF11806)
"Enterochelin esterase, N-terminal"</title>
				<rect class="PF11806" x="1201" y="28" stroke-linejoin="round" width="13" height="24" fill="rgb(49,154,189)" stroke="rgb(39,123,151)" stroke-width="1" opacity="0.75" />
			</g>
		</g>
		<g>
			<title> (ctg1_538)</title>
			<polygon class=" (ctg1_538)" points="1225,25 1269,25 1269,10 1299,40 1269,70 1269,55 1225,55" fill="rgb(255,255,255)" fill-opacity="1.0" stroke="rgb(0,0,0)" stroke-width="2"  />
			<g>
				<title>Plug (PF07715)
"TonB-dependent Receptor Plug Domain"</title>
				<rect class="PF07715" x="1229" y="28" stroke-linejoin="round" width="12" height="24" fill="rgb(99,133,214)" stroke="rgb(79,106,171)" stroke-width="1" opacity="0.75" />
			</g>
			<g>
				<title>TonB_dep_Rec (PF00593)
"TonB dependent receptor"</title>
				<polygon class="PF00593" points="1250,28 1283,28 1295,40 1283,52 1250,52" stroke-linejoin="round" width="48" height="24" fill="rgb(171,200,51)" stroke="rgb(136,160,40)" stroke-width="1" opacity="0.75" />
			</g>
		</g>
		<g>
			<title> (ctg1_539)</title>
			<polygon class=" (ctg1_539)" points="1300,40 1316,10 1316,70" fill="rgb(255,255,255)" fill-opacity="1.0" stroke="rgb(0,0,0)" stroke-width="2"  />
		</g>
		<g>
			<title> (ctg1_540)</title>
			<polygon class=" (ctg1_540)" points="1331,10 1352,40 1331,70" fill="rgb(255,255,255)" fill-opacity="1.0" stroke="rgb(0,0,0)" stroke-width="2"  />
			<g>
				<title>4PPT_N (PF17837)
"4'-phosphopantetheinyl transferase N-terminal domain"</title>
				<rect class="PF17837" x="1334" y="28" stroke-linejoin="round" width="6" height="24" fill="rgb(198,68,92)" stroke="rgb(158,54,73)" stroke-width="1" opacity="0.75" />
			</g>
			<g>
				<title>ACPS (PF01648)
"4'-phosphopantetheinyl transferase superfamily"</title>
				<polygon class="PF01648" points="1341,30 1348,40 1341,50" stroke-linejoin="round" width="10" height="24" fill="rgb(85,184,135)" stroke="rgb(68,147,108)" stroke-width="1" opacity="0.75" />
			</g>
		</g>
		<g>
			<title> (ctg1_541)</title>
			<polygon class=" (ctg1_541)" points="1357,25 1358,25 1358,10 1388,40 1358,70 1358,55 1357,55" fill="rgb(255,255,255)" fill-opacity="1.0" stroke="rgb(0,0,0)" stroke-width="2"  />
			<g>
				<title>Peripla_BP_4 (PF13407)
"Periplasmic binding protein domain"</title>
				<polygon class="PF13407" points="1359,28 1372,28 1384,40 1384,40 1372,52 1359,52" stroke-linejoin="round" width="25" height="24" fill="rgb(124,182,50)" stroke="rgb(99,145,39)" stroke-width="1" opacity="0.75" />
			</g>
		</g>
		<g>
			<title> (ctg1_542)</title>
			<polygon class=" (ctg1_542)" points="1389,10 1409,40 1389,70" fill="rgb(255,255,255)" fill-opacity="1.0" stroke="rgb(0,0,0)" stroke-width="2"  />
			<g>
				<title>DUF2291 (PF10054)
"Predicted periplasmic lipoprotein (DUF2291)"</title>
				<polygon class="PF10054" points="1390,28 1397,28 1405,40 1397,52 1390,52" stroke-linejoin="round" width="18" height="24" fill="rgb(48,178,182)" stroke="rgb(38,142,145)" stroke-width="1" opacity="0.75" />
			</g>
		</g>
		<g>
			<title> (ctg1_543)</title>
			<polygon class=" (ctg1_543)" points="1409,25 1429,25 1429,10 1459,40 1429,70 1429,55 1409,55" fill="rgb(255,255,255)" fill-opacity="1.0" stroke="rgb(0,0,0)" stroke-width="2"  />
			<g>
				<title>ABC_tran (PF00005)
"ABC transporter"</title>
				<rect class="PF00005" x="1411" y="28" stroke-linejoin="round" width="15" height="24" fill="rgb(129,201,63)" stroke="rgb(103,160,50)" stroke-width="1" opacity="0.75" />
			</g>
			<g>
				<title>ABC_tran (PF00005)
"ABC transporter"</title>
				<polygon class="PF00005" points="1437,28 1443,28 1452,37 1452,43 1443,52 1437,52" stroke-linejoin="round" width="15" height="24" fill="rgb(129,201,63)" stroke="rgb(103,160,50)" stroke-width="1" opacity="0.75" />
			</g>
		</g>
		<g>
			<title> (ctg1_544)</title>
			<polygon class=" (ctg1_544)" points="1460,25 1466,25 1466,10 1496,40 1466,70 1466,55 1460,55" fill="rgb(255,255,255)" fill-opacity="1.0" stroke="rgb(0,0,0)" stroke-width="2"  />
			<g>
				<title>BPD_transp_2 (PF02653)
"Branched-chain amino acid transport system / permease component"</title>
				<polygon class="PF02653" points="1465,28 1480,28 1492,40 1480,52 1465,52" stroke-linejoin="round" width="28" height="24" fill="rgb(69,130,196)" stroke="rgb(55,104,156)" stroke-width="1" opacity="0.75" />
			</g>
		</g>
		<g>
			<title> (ctg1_545)</title>
			<polygon class=" (ctg1_545)" points="1560,25 1559,25 1559,10 1529,40 1559,70 1559,55 1560,55" fill="rgb(255,255,255)" fill-opacity="1.0" stroke="rgb(0,0,0)" stroke-width="2"  />
			<g>
				<title>Sugar-bind (PF04198)
"Putative sugar-binding domain"</title>
				<polygon class="PF04198" points="1533,40 1545,28 1554,28 1554,52 1545,52" stroke-linejoin="round" width="25" height="24" fill="rgb(198,52,101)" stroke="rgb(158,41,80)" stroke-width="1" opacity="0.75" />
			</g>
			<g>
				<title>MarR (PF01047)
"MarR family"</title>
				<rect class="PF01047" x="1555" y="28" stroke-linejoin="round" width="4" height="24" fill="rgb(60,185,86)" stroke="rgb(48,148,68)" stroke-width="1" opacity="0.75" />
			</g>
		</g>
		<g>
			<title> (ctg1_546)</title>
			<polygon class=" (ctg1_546)" points="1570,10 1597,40 1570,70" fill="rgb(255,255,255)" fill-opacity="1.0" stroke="rgb(0,0,0)" stroke-width="2"  />
			<g>
				<title>Transketolase_N (PF00456)
"Transketolase, thiamine diphosphate binding domain"</title>
				<polygon class="PF00456" points="1571,28 1582,28 1593,40 1582,52 1571,52" stroke-linejoin="round" width="26" height="24" fill="rgb(74,202,214)" stroke="rgb(59,161,171)" stroke-width="1" opacity="0.75" />
			</g>
		</g>
		<g>
			<title> (ctg1_547)</title>
			<polygon class=" (ctg1_547)" points="1598,25 1599,25 1599,10 1629,40 1599,70 1599,55 1598,55" fill="rgb(255,255,255)" fill-opacity="1.0" stroke="rgb(0,0,0)" stroke-width="2"  />
			<g>
				<title>Transket_pyr (PF02779)
"Transketolase, pyrimidine binding domain"</title>
				<polygon class="PF02779" points="1598,28 1613,28 1614,29 1614,51 1613,52 1598,52" stroke-linejoin="round" width="16" height="24" fill="rgb(189,186,84)" stroke="rgb(151,148,67)" stroke-width="1" opacity="0.75" />
			</g>
			<g>
				<title>Transketolase_C (PF02780)
"Transketolase, C-terminal domain"</title>
				<polygon class="PF02780" points="1616,31 1625,40 1616,49" stroke-linejoin="round" width="12" height="24" fill="rgb(76,206,101)" stroke="rgb(60,164,80)" stroke-width="1" opacity="0.75" />
			</g>
		</g>
		<g>
			<title> (ctg1_548)</title>
			<polygon class=" (ctg1_548)" points="1631,25 1648,25 1648,10 1678,40 1648,70 1648,55 1631,55" fill="rgb(255,255,255)" fill-opacity="1.0" stroke="rgb(0,0,0)" stroke-width="2"  />
			<g>
				<title>Fucose_iso_C (PF02952)
"L-fucose isomerase, C-terminal domain"</title>
				<polygon class="PF02952" points="1665,31 1674,40 1665,49" stroke-linejoin="round" width="12" height="24" fill="rgb(206,96,82)" stroke="rgb(164,76,65)" stroke-width="1" opacity="0.75" />
			</g>
		</g>
		<g>
			<title> (ctg1_549)</title>
			<polygon class=" (ctg1_549)" points="1678,25 1698,25 1698,10 1728,40 1698,70 1698,55 1678,55" fill="rgb(255,255,255)" fill-opacity="1.0" stroke="rgb(0,0,0)" stroke-width="2"  />
			<g>
				<title>FGGY_N (PF00370)
"FGGY family of carbohydrate kinases, N-terminal domain"</title>
				<rect class="PF00370" x="1678" y="28" stroke-linejoin="round" width="24" height="24" fill="rgb(83,186,105)" stroke="rgb(66,148,83)" stroke-width="1" opacity="0.75" />
			</g>
			<g>
				<title>FGGY_C (PF02782)
"FGGY family of carbohydrate kinases, C-terminal domain"</title>
				<polygon class="PF02782" points="1704,28 1711,28 1723,40 1723,40 1711,52 1704,52" stroke-linejoin="round" width="19" height="24" fill="rgb(204,103,85)" stroke="rgb(163,82,68)" stroke-width="1" opacity="0.75" />
			</g>
		</g>
		<g>
			<title> (ctg1_550)</title>
			<polygon class=" (ctg1_550)" points="1731,40 1736,10 1736,70" fill="rgb(255,255,255)" fill-opacity="1.0" stroke="rgb(0,0,0)" stroke-width="2"  />
			<g>
				<title>HOK_GEF (PF01848)
"Hok/gef family"</title>
				<polygon class="PF01848" points="1734,40 1735,34 1735,46" stroke-linejoin="round" width="4" height="24" fill="rgb(58,194,211)" stroke="rgb(46,155,168)" stroke-width="1" opacity="0.75" />
			</g>
		</g>
		<g>
			<title> (ctg1_551)</title>
			<polygon class=" (ctg1_551)" points="1749,40 1772,10 1772,70" fill="rgb(255,255,255)" fill-opacity="1.0" stroke="rgb(0,0,0)" stroke-width="2"  />
			<g>
				<title>Acetyltransf_3 (PF13302)
"Acetyltransferase (GNAT) domain"</title>
				<polygon class="PF13302" points="1755,37 1763,28 1768,28 1768,52 1763,52 1755,43" stroke-linejoin="round" width="13" height="24" fill="rgb(105,146,215)" stroke="rgb(84,116,172)" stroke-width="1" opacity="0.75" />
			</g>
		</g>
		<g>
			<title> (ctg1_552)</title>
			<polygon class=" (ctg1_552)" points="1779,25 1801,25 1801,10 1831,40 1801,70 1801,55 1779,55" fill="rgb(255,255,255)" fill-opacity="1.0" stroke="rgb(0,0,0)" stroke-width="2"  />
			<g>
				<title>SBP_bac_5 (PF00496)
"Bacterial extracellular solute-binding proteins, family 5 Middle"</title>
				<polygon class="PF00496" points="1786,28 1815,28 1823,36 1823,44 1815,52 1786,52" stroke-linejoin="round" width="37" height="24" fill="rgb(199,94,116)" stroke="rgb(159,75,92)" stroke-width="1" opacity="0.75" />
			</g>
		</g>
	</g>
</svg>
