<svg version="1.1" baseProfile="full" xmlns="http://www.w3.org/2000/svg" width="871.1" height="80">
	<g>
		<line x1="10" y1="40.0" x2="861.1" y2="40.0" style="stroke:rgb(70,70,70); stroke-width:3 "/>
		<g>
			<title> (ctg2_534)</title>
			<polygon class=" (ctg2_534)" points="25,40 43,10 43,70" fill="rgb(255,255,255)" fill-opacity="1.0" stroke="rgb(0,0,0)" stroke-width="2"  />
			<g>
				<title>Acetyltransf_1 (PF00583)
"Acetyltransferase (GNAT) family"</title>
				<polygon class="PF00583" points="29,40 36,28 39,28 39,52 36,52" stroke-linejoin="round" width="11" height="24" fill="rgb(121,183,50)" stroke="rgb(96,146,39)" stroke-width="1" opacity="0.75" />
			</g>
		</g>
		<g>
			<title> (ctg2_535)</title>
			<polygon class=" (ctg2_535)" points="55,10 58,40 55,70" fill="rgb(255,255,255)" fill-opacity="1.0" stroke="rgb(0,0,0)" stroke-width="2"  />
		</g>
		<g>
			<title> (ctg2_536)</title>
			<polygon class=" (ctg2_536)" points="70,25 74,25 74,10 104,40 74,70 74,55 70,55" fill="rgb(255,255,255)" fill-opacity="1.0" stroke="rgb(0,0,0)" stroke-width="2"  />
			<g>
				<title>CBS (PF00571)
"CBS domain"</title>
				<rect class="PF00571" x="78" y="28" stroke-linejoin="round" width="6" height="24" fill="rgb(220,56,105)" stroke="rgb(176,44,84)" stroke-width="1" opacity="0.75" />
			</g>
			<g>
				<title>MgtE (PF01769)
"Divalent cation transporter"</title>
				<polygon class="PF01769" points="90,31 99,40 90,49" stroke-linejoin="round" width="12" height="24" fill="rgb(55,87,223)" stroke="rgb(44,69,178)" stroke-width="1" opacity="0.75" />
			</g>
		</g>
		<g>
			<title> (ctg2_537)</title>
			<polygon class=" (ctg2_537)" points="108,10 121,40 108,70" fill="rgb(255,255,255)" fill-opacity="1.0" stroke="rgb(0,0,0)" stroke-width="2"  />
		</g>
		<g>
			<title> (ctg2_538)</title>
			<polygon class=" (ctg2_538)" points="126,10 131,40 126,70" fill="rgb(255,255,255)" fill-opacity="1.0" stroke="rgb(0,0,0)" stroke-width="2"  />
		</g>
		<g>
			<title> (ctg2_539)</title>
			<polygon class=" (ctg2_539)" points="151,10 167,40 151,70" fill="rgb(255,255,255)" fill-opacity="1.0" stroke="rgb(0,0,0)" stroke-width="2"  />
		</g>
		<g>
			<title> (ctg2_540)</title>
			<polygon class=" (ctg2_540)" points="176,40 201,10 201,70" fill="rgb(255,255,255)" fill-opacity="1.0" stroke="rgb(0,0,0)" stroke-width="2"  />
			<g>
				<title>Metallophos (PF00149)
"Calcineurin-like phosphoesterase"</title>
				<polygon class="PF00149" points="180,40 190,28 199,28 199,52 190,52 180,40" stroke-linejoin="round" width="19" height="24" fill="rgb(181,197,58)" stroke="rgb(144,157,46)" stroke-width="1" opacity="0.75" />
			</g>
		</g>
		<g>
			<title> (ctg2_541)</title>
			<polygon class=" (ctg2_541)" points="230,25 239,25 239,10 269,40 239,70 239,55 230,55" fill="rgb(255,255,255)" fill-opacity="1.0" stroke="rgb(0,0,0)" stroke-width="2"  />
			<g>
				<title>Aminotran_1_2 (PF00155)
"Aminotransferase class I and II"</title>
				<polygon class="PF00155" points="232,28 252,28 264,40 252,52 232,52" stroke-linejoin="round" width="35" height="24" fill="rgb(89,113,198)" stroke="rgb(71,90,158)" stroke-width="1" opacity="0.75" />
			</g>
		</g>
		<g>
			<title> (ctg2_542)</title>
			<polygon class=" (ctg2_542)" points="270,10 294,40 270,70" fill="rgb(255,255,255)" fill-opacity="1.0" stroke="rgb(0,0,0)" stroke-width="2"  />
			<g>
				<title>NTP_transferase (PF00483)
"Nucleotidyl transferase"</title>
				<polygon class="PF00483" points="270,28 280,28 290,40 280,52 270,52" stroke-linejoin="round" width="23" height="24" fill="rgb(198,101,87)" stroke="rgb(158,80,69)" stroke-width="1" opacity="0.75" />
			</g>
		</g>
		<g>
			<title> (ctg2_543)</title>
			<polygon class=" (ctg2_543)" points="294,10 314,40 294,70" fill="rgb(255,255,255)" fill-opacity="1.0" stroke="rgb(0,0,0)" stroke-width="2"  />
			<g>
				<title>CDP-OH_P_transf (PF01066)
"CDP-alcohol phosphatidyltransferase"</title>
				<polygon class="PF01066" points="294,28 302,28 310,40 310,40 302,52 294,52" stroke-linejoin="round" width="16" height="24" fill="rgb(100,201,161)" stroke="rgb(80,160,128)" stroke-width="1" opacity="0.75" />
			</g>
		</g>
		<g>
			<title> (ctg2_544)</title>
			<polygon class=" (ctg2_544)" points="315,25 330,25 330,10 360,40 330,70 330,55 315,55" fill="rgb(255,255,255)" fill-opacity="1.0" stroke="rgb(0,0,0)" stroke-width="2"  />
			<g>
				<title>SHMT (PF00464)
"Serine hydroxymethyltransferase"</title>
				<polygon class="PF00464" points="322,28 344,28 356,40 356,40 344,52 322,52" stroke-linejoin="round" width="34" height="24" fill="rgb(215,97,215)" stroke="rgb(172,77,172)" stroke-width="1" opacity="0.75" />
			</g>
		</g>
		<g>
			<title> (ctg2_545)</title>
			<polygon class=" (ctg2_545)" points="362,25 372,25 372,10 402,40 372,70 372,55 362,55" fill="rgb(255,255,255)" fill-opacity="1.0" stroke="rgb(0,0,0)" stroke-width="2"  />
			<g>
				<title>MFS_1 (PF07690)
"Major Facilitator Superfamily"</title>
				<polygon class="PF07690" points="364,28 386,28 398,40 398,40 386,52 364,52" stroke-linejoin="round" width="34" height="24" fill="rgb(193,224,74)" stroke="rgb(154,179,59)" stroke-width="1" opacity="0.75" />
			</g>
		</g>
		<g>
			<title> (ctg2_546)</title>
			<polygon class=" (ctg2_546)" points="403,25 408,25 408,10 438,40 408,70 408,55 403,55" fill="rgb(255,255,255)" fill-opacity="1.0" stroke="rgb(0,0,0)" stroke-width="2"  />
			<g>
				<title>Semialdhyde_dh (PF01118)
"Semialdehyde dehydrogenase, NAD binding domain"</title>
				<rect class="PF01118" x="404" y="28" stroke-linejoin="round" width="11" height="24" fill="rgb(191,106,221)" stroke="rgb(152,84,176)" stroke-width="1" opacity="0.75" />
			</g>
			<g>
				<title>Semialdhyde_dhC (PF02774)
"Semialdehyde dehydrogenase, dimerisation domain"</title>
				<polygon class="PF02774" points="417,28 421,28 433,40 421,52 417,52" stroke-linejoin="round" width="18" height="24" fill="rgb(57,188,185)" stroke="rgb(45,150,147)" stroke-width="1" opacity="0.75" />
			</g>
		</g>
		<g>
			<title> (ctg2_547)</title>
			<polygon class=" (ctg2_547)" points="443,10 464,40 443,70" fill="rgb(255,255,255)" fill-opacity="1.0" stroke="rgb(0,0,0)" stroke-width="2"  />
		</g>
		<g>
			<title> (ctg2_548)</title>
			<polygon class=" (ctg2_548)" points="524,25 496,25 496,10 466,40 496,70 496,55 524,55" fill="rgb(255,255,255)" fill-opacity="1.0" stroke="rgb(0,0,0)" stroke-width="2"  />
			<g>
				<title>Asn_synthase (PF00733)
"Asparagine synthase"</title>
				<polygon class="PF00733" points="470,40 482,28 501,28 501,52 482,52" stroke-linejoin="round" width="35" height="24" fill="rgb(97,201,176)" stroke="rgb(77,160,140)" stroke-width="1" opacity="0.75" />
			</g>
			<g>
				<title>GATase_7 (PF13537)
"Glutamine amidotransferase domain"</title>
				<rect class="PF13537" x="509" y="28" stroke-linejoin="round" width="10" height="24" fill="rgb(200,63,57)" stroke="rgb(160,50,45)" stroke-width="1" opacity="0.75" />
			</g>
		</g>
		<g>
			<title> (ctg2_549)</title>
			<polygon class=" (ctg2_549)" points="530,25 536,25 536,10 566,40 536,70 536,55 530,55" fill="rgb(255,255,255)" fill-opacity="1.0" stroke="rgb(0,0,0)" stroke-width="2"  />
			<g>
				<title>Aminotran_5 (PF00266)
"Aminotransferase class-V"</title>
				<polygon class="PF00266" points="531,28 550,28 562,40 550,52 531,52" stroke-linejoin="round" width="32" height="24" fill="rgb(214,54,122)" stroke="rgb(171,43,97)" stroke-width="1" opacity="0.75" />
			</g>
		</g>
		<g>
			<title> (ctg2_550)</title>
			<polygon class=" (ctg2_550)" points="605,25 596,25 596,10 566,40 596,70 596,55 605,55" fill="rgb(255,255,255)" fill-opacity="1.0" stroke="rgb(0,0,0)" stroke-width="2"  />
			<g>
				<title>TPP_enzyme_C (PF02775)
"Thiamine pyrophosphate enzyme, C-terminal TPP binding domain"</title>
				<polygon class="PF02775" points="570,40 581,29 581,51" stroke-linejoin="round" width="12" height="24" fill="rgb(156,179,45)" stroke="rgb(124,143,36)" stroke-width="1" opacity="0.75" />
			</g>
		</g>
		<g>
			<title> (ctg2_551)</title>
			<polygon class=" (ctg2_551)" points="606,40 631,10 631,70" fill="rgb(255,255,255)" fill-opacity="1.0" stroke="rgb(0,0,0)" stroke-width="2"  />
			<g>
				<title>adh_short_C2 (PF13561)
"Enoyl-(Acyl carrier protein) reductase"</title>
				<polygon class="PF13561" points="610,40 620,28 629,28 629,52 620,52" stroke-linejoin="round" width="23" height="24" fill="rgb(73,205,127)" stroke="rgb(58,164,101)" stroke-width="1" opacity="0.75" />
			</g>
		</g>
		<g>
			<title> (ctg2_552)</title>
			<polygon class=" (ctg2_552)" points="632,40 657,10 657,70" fill="rgb(255,255,255)" fill-opacity="1.0" stroke="rgb(0,0,0)" stroke-width="2"  />
			<g>
				<title>Metallophos (PF00149)
"Calcineurin-like phosphoesterase"</title>
				<polygon class="PF00149" points="638,38 646,28 657,28 657,52 646,52 638,42" stroke-linejoin="round" width="19" height="24" fill="rgb(181,197,58)" stroke="rgb(144,157,46)" stroke-width="1" opacity="0.75" />
			</g>
		</g>
		<g>
			<title> (ctg2_553)</title>
			<polygon class=" (ctg2_553)" points="664,25 664,25 664,10 694,40 664,70 664,55 664,55" fill="rgb(255,255,255)" fill-opacity="1.0" stroke="rgb(0,0,0)" stroke-width="2"  />
			<g>
				<title>PEP_mutase (PF13714)
"Phosphoenolpyruvate phosphomutase"</title>
				<polygon class="PF13714" points="665,28 677,28 689,40 689,40 677,52 665,52" stroke-linejoin="round" width="24" height="24" fill="rgb(215,91,155)" stroke="rgb(172,72,123)" stroke-width="1" opacity="0.75" />
			</g>
		</g>
		<g>
			<title> (ctg2_554)</title>
			<polygon class=" (ctg2_554)" points="696,10 710,40 696,70" fill="rgb(255,255,255)" fill-opacity="1.0" stroke="rgb(0,0,0)" stroke-width="2"  />
			<g>
				<title>rve_3 (PF13683)
"Integrase core domain"</title>
				<polygon class="PF13683" points="701,28 701,28 707,40 707,40 701,52 701,52" stroke-linejoin="round" width="6" height="24" fill="rgb(75,178,160)" stroke="rgb(60,142,128)" stroke-width="1" opacity="0.75" />
			</g>
		</g>
		<g>
			<title> (ctg2_555)</title>
			<polygon class=" (ctg2_555)" points="713,40 742,10 742,70" fill="rgb(255,255,255)" fill-opacity="1.0" stroke="rgb(0,0,0)" stroke-width="2"  />
			<g>
				<title>Phage_integrase (PF00589)
"Phage integrase family"</title>
				<polygon class="PF00589" points="717,40 721,36 721,44" stroke-linejoin="round" width="8" height="24" fill="rgb(91,96,195)" stroke="rgb(72,76,156)" stroke-width="1" opacity="0.75" />
			</g>
			<g>
				<title>Arm-DNA-bind_3 (PF13356)
"Arm DNA-binding domain"</title>
				<rect class="PF13356" x="734" y="28" stroke-linejoin="round" width="7" height="24" fill="rgb(47,183,132)" stroke="rgb(37,146,105)" stroke-width="1" opacity="0.75" />
			</g>
		</g>
		<g>
			<title> (ctg2_556)</title>
			<polygon class=" (ctg2_556)" points="786,25 780,25 780,10 750,40 780,70 780,55 786,55" fill="rgb(255,255,255)" fill-opacity="1.0" stroke="rgb(0,0,0)" stroke-width="2"  />
			<g>
				<title>YchF-GTPase_C (PF06071)
"Protein of unknown function (DUF933)"</title>
				<polygon class="PF06071" points="754,40 758,36 758,44" stroke-linejoin="round" width="8" height="24" fill="rgb(74,145,213)" stroke="rgb(59,115,170)" stroke-width="1" opacity="0.75" />
			</g>
			<g>
				<title>MMR_HSR1 (PF01926)
"50S ribosome-binding GTPase"</title>
				<rect class="PF01926" x="771" y="28" stroke-linejoin="round" width="14" height="24" fill="rgb(105,180,226)" stroke="rgb(83,143,180)" stroke-width="1" opacity="0.75" />
			</g>
		</g>
		<g>
			<title> (ctg2_557)</title>
			<polygon class=" (ctg2_557)" points="790,40 809,10 809,70" fill="rgb(255,255,255)" fill-opacity="1.0" stroke="rgb(0,0,0)" stroke-width="2"  />
			<g>
				<title>Pept_tRNA_hydro (PF01195)
"Peptidyl-tRNA hydrolase"</title>
				<polygon class="PF01195" points="794,40 802,28 808,28 808,52 802,52" stroke-linejoin="round" width="18" height="24" fill="rgb(51,192,198)" stroke="rgb(40,153,158)" stroke-width="1" opacity="0.75" />
			</g>
		</g>
		<g>
			<title> (ctg2_558)</title>
			<polygon class=" (ctg2_558)" points="819,10 828,40 819,70" fill="rgb(255,255,255)" fill-opacity="1.0" stroke="rgb(0,0,0)" stroke-width="2"  />
			<g>
				<title>DUF2583 (PF10762)
"Protein of unknown function (DUF2583)"</title>
				<polygon class="PF10762" points="819,28 821,28 825,40 821,52 819,52" stroke-linejoin="round" width="8" height="24" fill="rgb(210,156,91)" stroke="rgb(168,124,72)" stroke-width="1" opacity="0.75" />
			</g>
		</g>
	</g>
</svg>
