<svg version="1.1" baseProfile="full" xmlns="http://www.w3.org/2000/svg" width="716.8666666666667" height="80">
	<g>
		<line x1="10" y1="40.0" x2="706.8666666666667" y2="40.0" style="stroke:rgb(70,70,70); stroke-width:3 "/>
		<g>
			<title> (ctg5_22)</title>
			<polygon class=" (ctg5_22)" points="14,25 45,25 45,10 75,40 45,70 45,55 14,55" fill="rgb(255,255,255)" fill-opacity="1.0" stroke="rgb(0,0,0)" stroke-width="2"  />
			<g>
				<title>Pur_ac_phosph_N (PF16656)
"Purple acid Phosphatase, N-terminal domain"</title>
				<rect class="PF16656" x="22" y="28" stroke-linejoin="round" width="15" height="24" fill="rgb(179,54,170)" stroke="rgb(143,43,136)" stroke-width="1" opacity="0.75" />
			</g>
			<g>
				<title>Metallophos (PF00149)
"Calcineurin-like phosphoesterase"</title>
				<rect class="PF00149" x="38" y="28" stroke-linejoin="round" width="21" height="24" fill="rgb(181,197,58)" stroke="rgb(144,157,46)" stroke-width="1" opacity="0.75" />
			</g>
		</g>
		<g>
			<title> (ctg5_23)</title>
			<polygon class=" (ctg5_23)" points="78,10 100,40 78,70" fill="rgb(255,255,255)" fill-opacity="1.0" stroke="rgb(0,0,0)" stroke-width="2"  />
		</g>
		<g>
			<title> (ctg5_24)</title>
			<polygon class=" (ctg5_24)" points="109,10 118,40 109,70" fill="rgb(255,255,255)" fill-opacity="1.0" stroke="rgb(0,0,0)" stroke-width="2"  />
			<g>
				<title>DUF1722 (PF08349)
"Protein of unknown function (DUF1722)"</title>
				<polygon class="PF08349" points="109,28 111,28 115,40 111,52 109,52" stroke-linejoin="round" width="9" height="24" fill="rgb(196,73,104)" stroke="rgb(156,58,83)" stroke-width="1" opacity="0.75" />
			</g>
		</g>
		<g>
			<title> (ctg5_25)</title>
			<polygon class=" (ctg5_25)" points="134,25 134,25 134,10 164,40 134,70 134,55 134,55" fill="rgb(255,255,255)" fill-opacity="1.0" stroke="rgb(0,0,0)" stroke-width="2"  />
			<g>
				<title>TspO_MBR (PF03073)
"TspO/MBR family"</title>
				<polygon class="PF03073" points="141,28 148,28 155,35 155,45 148,52 141,52" stroke-linejoin="round" width="14" height="24" fill="rgb(191,88,103)" stroke="rgb(152,70,82)" stroke-width="1" opacity="0.75" />
			</g>
		</g>
		<g>
			<title> (ctg5_26)</title>
			<polygon class=" (ctg5_26)" points="171,25 191,25 191,10 221,40 191,70 191,55 171,55" fill="rgb(255,255,255)" fill-opacity="1.0" stroke="rgb(0,0,0)" stroke-width="2"  />
			<g>
				<title>NAD_binding_10 (PF13460)
"NAD(P)H-binding"</title>
				<rect class="PF13460" x="171" y="28" stroke-linejoin="round" width="14" height="24" fill="rgb(188,201,78)" stroke="rgb(150,160,62)" stroke-width="1" opacity="0.75" />
			</g>
		</g>
		<g>
			<title> (ctg5_27)</title>
			<polygon class=" (ctg5_27)" points="223,10 239,40 223,70" fill="rgb(255,255,255)" fill-opacity="1.0" stroke="rgb(0,0,0)" stroke-width="2"  />
			<g>
				<title>TspO_MBR (PF03073)
"TspO/MBR family"</title>
				<polygon class="PF03073" points="224,28 229,28 236,40 229,52 224,52" stroke-linejoin="round" width="14" height="24" fill="rgb(191,88,103)" stroke="rgb(152,70,82)" stroke-width="1" opacity="0.75" />
			</g>
		</g>
		<g>
			<title> (ctg5_28)</title>
			<polygon class=" (ctg5_28)" points="240,10 255,40 240,70" fill="rgb(255,255,255)" fill-opacity="1.0" stroke="rgb(0,0,0)" stroke-width="2"  />
			<g>
				<title>CrtO (PF18927)
"Glycosyl-4,4'-diaponeurosporenoate acyltransferase"</title>
				<polygon class="PF18927" points="243,28 245,28 252,40 245,52 243,52" stroke-linejoin="round" width="11" height="24" fill="rgb(191,73,226)" stroke="rgb(152,58,180)" stroke-width="1" opacity="0.75" />
			</g>
		</g>
		<g>
			<title> (ctg5_29)</title>
			<polygon class=" (ctg5_29)" points="255,25 274,25 274,10 304,40 274,70 274,55 255,55" fill="rgb(255,255,255)" fill-opacity="1.0" stroke="rgb(0,0,0)" stroke-width="2"  />
			<g>
				<title>Amino_oxidase (PF01593)
"Flavin containing amine oxidoreductase"</title>
				<rect class="PF01593" x="256" y="28" stroke-linejoin="round" width="30" height="24" fill="rgb(184,74,52)" stroke="rgb(147,59,41)" stroke-width="1" opacity="0.75" />
			</g>
		</g>
		<g>
			<title> (ctg5_30)</title>
			<polygon class=" (ctg5_30)" points="307,25 311,25 311,10 341,40 311,70 311,55 307,55" fill="rgb(255,255,255)" fill-opacity="1.0" stroke="rgb(0,0,0)" stroke-width="2"  />
			<g>
				<title>Glycos_transf_2 (PF00535)
"Glycosyl transferase family 2"</title>
				<rect class="PF00535" x="309" y="28" stroke-linejoin="round" width="14" height="24" fill="rgb(224,122,96)" stroke="rgb(179,97,76)" stroke-width="1" opacity="0.75" />
			</g>
		</g>
		<g>
			<title> (ctg5_31)</title>
			<polygon class=" (ctg5_31)" points="343,25 343,25 343,10 373,40 343,70 343,55 343,55" fill="rgb(255,255,255)" fill-opacity="1.0" stroke="rgb(0,0,0)" stroke-width="2"  />
			<g>
				<title>SQS_PSY (PF00494)
"Squalene/phytoene synthase"</title>
				<polygon class="PF00494" points="345,28 356,28 368,40 356,52 345,52" stroke-linejoin="round" width="25" height="24" fill="rgb(178,91,49)" stroke="rgb(142,72,39)" stroke-width="1" opacity="0.75" />
			</g>
		</g>
		<g>
			<title> (ctg5_32)</title>
			<polygon class=" (ctg5_32)" points="373,25 393,25 393,10 423,40 393,70 393,55 373,55" fill="rgb(255,255,255)" fill-opacity="1.0" stroke="rgb(0,0,0)" stroke-width="2"  />
			<g>
				<title>Amino_oxidase (PF01593)
"Flavin containing amine oxidoreductase"</title>
				<polygon class="PF01593" points="374,28 406,28 418,40 406,52 374,52" stroke-linejoin="round" width="48" height="24" fill="rgb(184,74,52)" stroke="rgb(147,59,41)" stroke-width="1" opacity="0.75" />
			</g>
		</g>
		<g>
			<title> (ctg5_33)</title>
			<polygon class=" (ctg5_33)" points="425,40 439,10 439,70" fill="rgb(255,255,255)" fill-opacity="1.0" stroke="rgb(0,0,0)" stroke-width="2"  />
			<g>
				<title>Pyrid_ox_like (PF16242)
"Pyridoxamine 5'-phosphate oxidase like"</title>
				<polygon class="PF16242" points="428,40 434,28 438,28 438,52 434,52" stroke-linejoin="round" width="12" height="24" fill="rgb(192,75,209)" stroke="rgb(153,60,167)" stroke-width="1" opacity="0.75" />
			</g>
		</g>
		<g>
			<title> (ctg5_34)</title>
			<polygon class=" (ctg5_34)" points="446,25 461,25 461,10 491,40 461,70 461,55 446,55" fill="rgb(255,255,255)" fill-opacity="1.0" stroke="rgb(0,0,0)" stroke-width="2"  />
			<g>
				<title>DNA_photolyase (PF00875)
"DNA photolyase"</title>
				<rect class="PF00875" x="446" y="28" stroke-linejoin="round" width="15" height="24" fill="rgb(87,58,223)" stroke="rgb(69,46,178)" stroke-width="1" opacity="0.75" />
			</g>
			<g>
				<title>FAD_binding_7 (PF03441)
"FAD binding domain of DNA photolyase"</title>
				<polygon class="PF03441" points="471,28 475,28 487,40 475,52 471,52" stroke-linejoin="round" width="20" height="24" fill="rgb(206,143,93)" stroke="rgb(164,114,74)" stroke-width="1" opacity="0.75" />
			</g>
		</g>
		<g>
			<title> (ctg5_35)</title>
			<polygon class=" (ctg5_35)" points="504,40 522,10 522,70" fill="rgb(255,255,255)" fill-opacity="1.0" stroke="rgb(0,0,0)" stroke-width="2"  />
			<g>
				<title>Isochorismatase (PF00857)
"Isochorismatase family"</title>
				<polygon class="PF00857" points="508,40 515,28 521,28 521,52 515,52" stroke-linejoin="round" width="17" height="24" fill="rgb(144,224,70)" stroke="rgb(115,179,56)" stroke-width="1" opacity="0.75" />
			</g>
		</g>
		<g>
			<title> (ctg5_36)</title>
			<polygon class=" (ctg5_36)" points="526,10 541,40 526,70" fill="rgb(255,255,255)" fill-opacity="1.0" stroke="rgb(0,0,0)" stroke-width="2"  />
			<g>
				<title>HTH_24 (PF13412)
"Winged helix-turn-helix DNA-binding"</title>
				<rect class="PF13412" x="526" y="28" stroke-linejoin="round" width="4" height="24" fill="rgb(222,79,68)" stroke="rgb(177,63,54)" stroke-width="1" opacity="0.75" />
			</g>
			<g>
				<title>AsnC_trans_reg (PF01037)
"Lrp/AsnC ligand binding domain"</title>
				<polygon class="PF01037" points="533,31 538,40 533,49" stroke-linejoin="round" width="6" height="24" fill="rgb(134,72,182)" stroke="rgb(107,57,145)" stroke-width="1" opacity="0.75" />
			</g>
		</g>
		<g>
			<title> (ctg5_37)</title>
			<polygon class=" (ctg5_37)" points="544,40 555,10 555,70" fill="rgb(255,255,255)" fill-opacity="1.0" stroke="rgb(0,0,0)" stroke-width="2"  />
			<g>
				<title>HxlR (PF01638)
"HxlR-like helix-turn-helix"</title>
				<polygon class="PF01638" points="547,40 551,28 552,28 552,52 551,52" stroke-linejoin="round" width="8" height="24" fill="rgb(91,150,227)" stroke="rgb(72,119,181)" stroke-width="1" opacity="0.75" />
			</g>
		</g>
		<g>
			<title> (ctg5_38)</title>
			<polygon class=" (ctg5_38)" points="572,40 596,10 596,70" fill="rgb(255,255,255)" fill-opacity="1.0" stroke="rgb(0,0,0)" stroke-width="2"  />
			<g>
				<title>SIR2 (PF02146)
"Sir2 family"</title>
				<polygon class="PF02146" points="576,40 586,28 593,28 593,52 586,52 576,40" stroke-linejoin="round" width="17" height="24" fill="rgb(83,217,165)" stroke="rgb(66,173,132)" stroke-width="1" opacity="0.75" />
			</g>
		</g>
		<g>
			<title> (ctg5_39)</title>
			<polygon class=" (ctg5_39)" points="649,25 629,25 629,10 599,40 629,70 629,55 649,55" fill="rgb(255,255,255)" fill-opacity="1.0" stroke="rgb(0,0,0)" stroke-width="2"  />
			<g>
				<title>ABG_transport (PF03806)
"AbgT putative transporter family"</title>
				<polygon class="PF03806" points="603,40 615,28 648,28 648,52 615,52" stroke-linejoin="round" width="49" height="24" fill="rgb(88,217,101)" stroke="rgb(70,173,80)" stroke-width="1" opacity="0.75" />
			</g>
		</g>
		<g>
			<title> (ctg5_40)</title>
			<polygon class=" (ctg5_40)" points="703,25 683,25 683,10 653,40 683,70 683,55 703,55" fill="rgb(255,255,255)" fill-opacity="1.0" stroke="rgb(0,0,0)" stroke-width="2"  />
			<g>
				<title>ABG_transport (PF03806)
"AbgT putative transporter family"</title>
				<polygon class="PF03806" points="657,40 669,28 702,28 702,52 669,52" stroke-linejoin="round" width="49" height="24" fill="rgb(88,217,101)" stroke="rgb(70,173,80)" stroke-width="1" opacity="0.75" />
			</g>
		</g>
	</g>
</svg>
