<svg version="1.1" baseProfile="full" xmlns="http://www.w3.org/2000/svg" width="707.0666666666667" height="80">
	<g>
		<line x1="10" y1="40.0" x2="697.0666666666667" y2="40.0" style="stroke:rgb(70,70,70); stroke-width:3 "/>
		<g>
			<title> (ctg1_582)</title>
			<polygon class=" (ctg1_582)" points="34,40 47,10 47,70" fill="rgb(255,255,255)" fill-opacity="1.0" stroke="rgb(0,0,0)" stroke-width="2"  />
			<g>
				<title>Ribonuc_L-PSP (PF01042)
"Endoribonuclease L-PSP"</title>
				<polygon class="PF01042" points="37,40 42,28 45,28 45,52 42,52" stroke-linejoin="round" width="11" height="24" fill="rgb(93,120,208)" stroke="rgb(74,96,166)" stroke-width="1" opacity="0.75" />
			</g>
		</g>
		<g>
			<title> (ctg1_583)</title>
			<polygon class=" (ctg1_583)" points="48,40 72,10 72,70" fill="rgb(255,255,255)" fill-opacity="1.0" stroke="rgb(0,0,0)" stroke-width="2"  />
			<g>
				<title>Isochorismatase (PF00857)
"Isochorismatase family"</title>
				<polygon class="PF00857" points="52,40 62,28 68,28 68,52 62,52" stroke-linejoin="round" width="19" height="24" fill="rgb(144,224,70)" stroke="rgb(115,179,56)" stroke-width="1" opacity="0.75" />
			</g>
		</g>
		<g>
			<title> (ctg1_584)</title>
			<polygon class=" (ctg1_584)" points="109,25 103,25 103,10 73,40 103,70 103,55 109,55" fill="rgb(255,255,255)" fill-opacity="1.0" stroke="rgb(0,0,0)" stroke-width="2"  />
			<g>
				<title>Bac_luciferase (PF00296)
"Luciferase-like monooxygenase"</title>
				<polygon class="PF00296" points="77,40 89,28 108,28 108,52 89,52" stroke-linejoin="round" width="32" height="24" fill="rgb(180,112,78)" stroke="rgb(144,89,62)" stroke-width="1" opacity="0.75" />
			</g>
		</g>
		<g>
			<title> (ctg1_585)</title>
			<polygon class=" (ctg1_585)" points="119,10 140,40 119,70" fill="rgb(255,255,255)" fill-opacity="1.0" stroke="rgb(0,0,0)" stroke-width="2"  />
			<g>
				<title>TetR_N (PF00440)
"Bacterial regulatory proteins, tetR family"</title>
				<rect class="PF00440" x="121" y="28" stroke-linejoin="round" width="4" height="24" fill="rgb(73,212,190)" stroke="rgb(58,169,152)" stroke-width="1" opacity="0.75" />
			</g>
			<g>
				<title>TetR_C_3 (PF08362)
"YcdC-like protein, C-terminal region"</title>
				<polygon class="PF08362" points="125,28 128,28 136,40 128,52 125,52" stroke-linejoin="round" width="14" height="24" fill="rgb(208,186,82)" stroke="rgb(166,148,65)" stroke-width="1" opacity="0.75" />
			</g>
		</g>
		<g>
			<title> (ctg1_586)</title>
			<polygon class=" (ctg1_586)" points="142,25 144,25 144,10 174,40 144,70 144,55 142,55" fill="rgb(255,255,255)" fill-opacity="1.0" stroke="rgb(0,0,0)" stroke-width="2"  />
			<g>
				<title>YdjM (PF04307)
"LexA-binding, inner membrane-associated putative hydrolase"</title>
				<polygon class="PF04307" points="142,28 158,28 159,29 159,51 158,52 142,52" stroke-linejoin="round" width="17" height="24" fill="rgb(140,223,68)" stroke="rgb(112,178,54)" stroke-width="1" opacity="0.75" />
			</g>
		</g>
		<g>
			<title> (ctg1_587)</title>
			<polygon class=" (ctg1_587)" points="241,25 225,25 225,10 195,40 225,70 225,55 241,55" fill="rgb(255,255,255)" fill-opacity="1.0" stroke="rgb(0,0,0)" stroke-width="2"  />
			<g>
				<title>AA_permease (PF00324)
"Amino acid permease"</title>
				<polygon class="PF00324" points="199,40 211,28 238,28 238,52 211,52" stroke-linejoin="round" width="43" height="24" fill="rgb(82,225,201)" stroke="rgb(65,180,160)" stroke-width="1" opacity="0.75" />
			</g>
		</g>
		<g>
			<title> (ctg1_588)</title>
			<polygon class=" (ctg1_588)" points="251,10 274,40 251,70" fill="rgb(255,255,255)" fill-opacity="1.0" stroke="rgb(0,0,0)" stroke-width="2"  />
			<g>
				<title>Extensin-like_C (PF06904)
"Extensin-like protein C-terminus"</title>
				<polygon class="PF06904" points="256,28 261,28 270,40 261,52 256,52" stroke-linejoin="round" width="17" height="24" fill="rgb(158,179,61)" stroke="rgb(126,143,48)" stroke-width="1" opacity="0.75" />
			</g>
		</g>
		<g>
			<title> (ctg1_589)</title>
			<polygon class=" (ctg1_589)" points="274,40 296,10 296,70" fill="rgb(255,255,255)" fill-opacity="1.0" stroke="rgb(0,0,0)" stroke-width="2"  />
			<g>
				<title>DUF4396 (PF14342)
"Domain of unknown function (DUF4396)"</title>
				<polygon class="PF14342" points="278,40 287,28 288,28 288,52 287,52" stroke-linejoin="round" width="14" height="24" fill="rgb(155,209,76)" stroke="rgb(124,167,60)" stroke-width="1" opacity="0.75" />
			</g>
		</g>
		<g>
			<title> (ctg1_590)</title>
			<polygon class=" (ctg1_590)" points="315,10 339,40 315,70" fill="rgb(255,255,255)" fill-opacity="1.0" stroke="rgb(0,0,0)" stroke-width="2"  />
			<g>
				<title>Autoind_bind (PF03472)
"Autoinducer binding domain"</title>
				<polygon class="PF03472" points="317,28 325,28 331,35 331,45 325,52 317,52" stroke-linejoin="round" width="14" height="24" fill="rgb(99,181,52)" stroke="rgb(79,144,41)" stroke-width="1" opacity="0.75" />
			</g>
			<g>
				<title>GerE (PF00196)
"Bacterial regulatory proteins, luxR family"</title>
				<polygon class="PF00196" points="332,36 335,40 332,44" stroke-linejoin="round" width="5" height="24" fill="rgb(219,94,82)" stroke="rgb(175,75,65)" stroke-width="1" opacity="0.75" />
			</g>
		</g>
		<g>
			<title> (ctg1_591)</title>
			<polygon class=" (ctg1_591)" points="343,10 363,40 343,70" fill="rgb(255,255,255)" fill-opacity="1.0" stroke="rgb(0,0,0)" stroke-width="2"  />
		</g>
		<g>
			<title> (ctg1_592)</title>
			<polygon class=" (ctg1_592)" points="364,40 371,10 371,70" fill="rgb(255,255,255)" fill-opacity="1.0" stroke="rgb(0,0,0)" stroke-width="2"  />
			<g>
				<title>DUF2594 (PF10769)
"Protein of unknown function (DUF2594)"</title>
				<polygon class="PF10769" points="367,40 370,28 371,28 371,52 370,52" stroke-linejoin="round" width="7" height="24" fill="rgb(61,191,181)" stroke="rgb(48,152,144)" stroke-width="1" opacity="0.75" />
			</g>
		</g>
		<g>
			<title> (ctg1_593)</title>
			<polygon class=" (ctg1_593)" points="386,10 408,40 386,70" fill="rgb(255,255,255)" fill-opacity="1.0" stroke="rgb(0,0,0)" stroke-width="2"  />
			<g>
				<title>Response_reg (PF00072)
"Response regulator receiver domain"</title>
				<polygon class="PF00072" points="386,28 395,28 397,31 397,49 395,52 386,52" stroke-linejoin="round" width="11" height="24" fill="rgb(100,107,203)" stroke="rgb(80,85,162)" stroke-width="1" opacity="0.75" />
			</g>
			<g>
				<title>GerE (PF00196)
"Bacterial regulatory proteins, luxR family"</title>
				<polygon class="PF00196" points="400,35 404,40 400,45" stroke-linejoin="round" width="5" height="24" fill="rgb(219,94,82)" stroke="rgb(175,75,65)" stroke-width="1" opacity="0.75" />
			</g>
		</g>
		<g>
			<title> (ctg1_594)</title>
			<polygon class=" (ctg1_594)" points="408,25 439,25 439,10 469,40 439,70 439,55 408,55" fill="rgb(255,255,255)" fill-opacity="1.0" stroke="rgb(0,0,0)" stroke-width="2"  />
			<g>
				<title>GIY-YIG (PF01541)
"GIY-YIG catalytic domain"</title>
				<rect class="PF01541" x="409" y="28" stroke-linejoin="round" width="7" height="24" fill="rgb(77,220,57)" stroke="rgb(61,176,45)" stroke-width="1" opacity="0.75" />
			</g>
			<g>
				<title>UVR (PF02151)
"UvrB/uvrC motif"</title>
				<rect class="PF02151" x="428" y="28" stroke-linejoin="round" width="3" height="24" fill="rgb(179,74,81)" stroke="rgb(143,59,64)" stroke-width="1" opacity="0.75" />
			</g>
			<g>
				<title>UvrC_RNaseH_dom (PF08459)
"UvrC RNAse H endonuclease domain"</title>
				<polygon class="PF08459" points="446,28 452,28 461,37 461,43 452,52 446,52" stroke-linejoin="round" width="15" height="24" fill="rgb(207,95,75)" stroke="rgb(165,75,60)" stroke-width="1" opacity="0.75" />
			</g>
			<g>
				<title>HHH_5 (PF14520)
"Helix-hairpin-helix domain"</title>
				<polygon class="PF14520" points="463,39 464,40 463,41" stroke-linejoin="round" width="5" height="24" fill="rgb(118,220,87)" stroke="rgb(94,176,69)" stroke-width="1" opacity="0.75" />
			</g>
		</g>
		<g>
			<title> (ctg1_595)</title>
			<polygon class=" (ctg1_595)" points="471,10 489,40 471,70" fill="rgb(255,255,255)" fill-opacity="1.0" stroke="rgb(0,0,0)" stroke-width="2"  />
			<g>
				<title>CDP-OH_P_transf (PF01066)
"CDP-alcohol phosphatidyltransferase"</title>
				<polygon class="PF01066" points="471,28 478,28 485,40 478,52 471,52" stroke-linejoin="round" width="16" height="24" fill="rgb(100,201,161)" stroke="rgb(80,160,128)" stroke-width="1" opacity="0.75" />
			</g>
		</g>
		<g>
			<title> (ctg1_596)</title>
			<polygon class=" (ctg1_596)" points="509,40 517,10 517,70" fill="rgb(255,255,255)" fill-opacity="1.0" stroke="rgb(0,0,0)" stroke-width="2"  />
		</g>
		<g>
			<title> (ctg1_597)</title>
			<polygon class=" (ctg1_597)" points="558,10 587,40 558,70" fill="rgb(255,255,255)" fill-opacity="1.0" stroke="rgb(0,0,0)" stroke-width="2"  />
			<g>
				<title>Peripla_BP_1 (PF00532)
"Periplasmic binding proteins and sugar binding domain of LacI family"</title>
				<polygon class="PF00532" points="559,28 570,28 582,40 570,52 559,52" stroke-linejoin="round" width="25" height="24" fill="rgb(170,185,72)" stroke="rgb(136,148,57)" stroke-width="1" opacity="0.75" />
			</g>
		</g>
		<g>
			<title> (ctg1_598)</title>
			<polygon class=" (ctg1_598)" points="601,10 607,40 601,70" fill="rgb(255,255,255)" fill-opacity="1.0" stroke="rgb(0,0,0)" stroke-width="2"  />
			<g>
				<title>DUF6404 (PF19942)
"Family of unknown function (DUF6404)"</title>
				<polygon class="PF19942" points="601,28 601,28 604,40 601,52 601,52" stroke-linejoin="round" width="6" height="24" fill="rgb(57,208,61)" stroke="rgb(45,166,48)" stroke-width="1" opacity="0.75" />
			</g>
		</g>
		<g>
			<title> (ctg1_599)</title>
			<polygon class=" (ctg1_599)" points="659,25 639,25 639,10 609,40 639,70 639,55 659,55" fill="rgb(255,255,255)" fill-opacity="1.0" stroke="rgb(0,0,0)" stroke-width="2"  />
			<g>
				<title>STAS (PF01740)
"STAS domain"</title>
				<polygon class="PF01740" points="613,40 617,36 617,44" stroke-linejoin="round" width="8" height="24" fill="rgb(219,58,116)" stroke="rgb(175,46,92)" stroke-width="1" opacity="0.75" />
			</g>
			<g>
				<title>Sulfate_transp (PF00916)
"Sulfate permease family"</title>
				<polygon class="PF00916" points="621,32 625,28 642,28 642,52 625,52 621,48" stroke-linejoin="round" width="21" height="24" fill="rgb(189,61,212)" stroke="rgb(151,48,169)" stroke-width="1" opacity="0.75" />
			</g>
			<g>
				<title>Sulfate_transp (PF00916)
"Sulfate permease family"</title>
				<rect class="PF00916" x="642" y="28" stroke-linejoin="round" width="13" height="24" fill="rgb(189,61,212)" stroke="rgb(151,48,169)" stroke-width="1" opacity="0.75" />
			</g>
		</g>
		<g>
			<title> (ctg1_600)</title>
			<polygon class=" (ctg1_600)" points="664,40 672,10 672,70" fill="rgb(255,255,255)" fill-opacity="1.0" stroke="rgb(0,0,0)" stroke-width="2"  />
			<g>
				<title>YmgB (PF10798)
"Biofilm development protein YmgB/AriR"</title>
				<polygon class="PF10798" points="667,40 669,33 669,47" stroke-linejoin="round" width="5" height="24" fill="rgb(65,182,55)" stroke="rgb(52,145,44)" stroke-width="1" opacity="0.75" />
			</g>
		</g>
	</g>
</svg>
