<svg version="1.1" baseProfile="full" xmlns="http://www.w3.org/2000/svg" width="881.9333333333333" height="80">
	<g>
		<line x1="10" y1="40.0" x2="871.9333333333333" y2="40.0" style="stroke:rgb(70,70,70); stroke-width:3 "/>
		<g>
			<title> (ctg2_3)</title>
			<polygon class=" (ctg2_3)" points="20,25 46,25 46,10 76,40 46,70 46,55 20,55" fill="rgb(255,255,255)" fill-opacity="1.0" stroke="rgb(0,0,0)" stroke-width="2"  />
			<g>
				<title>Proton_antipo_M (PF00361)
"Proton-conducting membrane transporter"</title>
				<polygon class="PF00361" points="33,28 59,28 62,31 62,49 59,52 33,52" stroke-linejoin="round" width="29" height="24" fill="rgb(54,193,132)" stroke="rgb(43,154,105)" stroke-width="1" opacity="0.75" />
			</g>
		</g>
		<g>
			<title> (ctg2_4)</title>
			<polygon class=" (ctg2_4)" points="76,10 94,40 76,70" fill="rgb(255,255,255)" fill-opacity="1.0" stroke="rgb(0,0,0)" stroke-width="2"  />
			<g>
				<title>MNHE (PF01899)
"Na+/H+ ion antiporter subunit"</title>
				<polygon class="PF01899" points="78,28 83,28 90,40 83,52 78,52" stroke-linejoin="round" width="15" height="24" fill="rgb(77,64,195)" stroke="rgb(61,51,156)" stroke-width="1" opacity="0.75" />
			</g>
		</g>
		<g>
			<title> (ctg2_5)</title>
			<polygon class=" (ctg2_5)" points="95,10 105,40 95,70" fill="rgb(255,255,255)" fill-opacity="1.0" stroke="rgb(0,0,0)" stroke-width="2"  />
			<g>
				<title>MrpF_PhaF (PF04066)
"Multiple resistance and pH regulation protein F (MrpF / PhaF)"</title>
				<polygon class="PF04066" points="98,28 102,40 98,52" stroke-linejoin="round" width="5" height="24" fill="rgb(98,190,89)" stroke="rgb(78,152,71)" stroke-width="1" opacity="0.75" />
			</g>
		</g>
		<g>
			<title> (ctg2_6)</title>
			<polygon class=" (ctg2_6)" points="105,10 120,40 105,70" fill="rgb(255,255,255)" fill-opacity="1.0" stroke="rgb(0,0,0)" stroke-width="2"  />
			<g>
				<title>PhaG_MnhG_YufB (PF03334)
"Na+/H+ antiporter subunit"</title>
				<polygon class="PF03334" points="106,28 110,28 113,33 113,47 110,52 106,52" stroke-linejoin="round" width="7" height="24" fill="rgb(111,223,196)" stroke="rgb(88,178,156)" stroke-width="1" opacity="0.75" />
			</g>
		</g>
		<g>
			<title> (ctg2_7)</title>
			<polygon class=" (ctg2_7)" points="179,25 151,25 151,10 121,40 151,70 151,55 179,55" fill="rgb(255,255,255)" fill-opacity="1.0" stroke="rgb(0,0,0)" stroke-width="2"  />
			<g>
				<title>Malate_synthase (PF01274)
"Malate synthase"</title>
				<polygon class="PF01274" points="125,40 137,28 174,28 174,52 137,52" stroke-linejoin="round" width="53" height="24" fill="rgb(84,70,202)" stroke="rgb(67,56,161)" stroke-width="1" opacity="0.75" />
			</g>
		</g>
		<g>
			<title> (ctg2_8)</title>
			<polygon class=" (ctg2_8)" points="184,25 204,25 204,10 234,40 204,70 204,55 184,55" fill="rgb(255,255,255)" fill-opacity="1.0" stroke="rgb(0,0,0)" stroke-width="2"  />
			<g>
				<title>HTH_31 (PF13560)
"Helix-turn-helix domain"</title>
				<rect class="PF13560" x="187" y="28" stroke-linejoin="round" width="6" height="24" fill="rgb(207,145,90)" stroke="rgb(165,116,72)" stroke-width="1" opacity="0.75" />
			</g>
			<g>
				<title>Peptidase_M78 (PF06114)
"IrrE N-terminal-like domain"</title>
				<rect class="PF06114" x="204" y="28" stroke-linejoin="round" width="11" height="24" fill="rgb(182,213,77)" stroke="rgb(145,170,61)" stroke-width="1" opacity="0.75" />
			</g>
		</g>
		<g>
			<title> (ctg2_9)</title>
			<polygon class=" (ctg2_9)" points="239,10 254,40 239,70" fill="rgb(255,255,255)" fill-opacity="1.0" stroke="rgb(0,0,0)" stroke-width="2"  />
			<g>
				<title>FHA (PF00498)
"FHA domain"</title>
				<polygon class="PF00498" points="246,31 251,40 246,49" stroke-linejoin="round" width="6" height="24" fill="rgb(57,178,90)" stroke="rgb(45,142,72)" stroke-width="1" opacity="0.75" />
			</g>
		</g>
		<g>
			<title> (ctg2_10)</title>
			<polygon class=" (ctg2_10)" points="254,10 276,40 254,70" fill="rgb(255,255,255)" fill-opacity="1.0" stroke="rgb(0,0,0)" stroke-width="2"  />
			<g>
				<title>MerR_1 (PF13411)
"MerR HTH family regulatory protein"</title>
				<rect class="PF13411" x="255" y="28" stroke-linejoin="round" width="7" height="24" fill="rgb(100,202,107)" stroke="rgb(80,161,85)" stroke-width="1" opacity="0.75" />
			</g>
		</g>
		<g>
			<title> (ctg2_11)</title>
			<polygon class=" (ctg2_11)" points="282,10 305,40 282,70" fill="rgb(255,255,255)" fill-opacity="1.0" stroke="rgb(0,0,0)" stroke-width="2"  />
			<g>
				<title>MerR_1 (PF13411)
"MerR HTH family regulatory protein"</title>
				<polygon class="PF13411" points="289,28 292,28 296,33 296,47 292,52 289,52" stroke-linejoin="round" width="7" height="24" fill="rgb(100,202,107)" stroke="rgb(80,161,85)" stroke-width="1" opacity="0.75" />
			</g>
		</g>
		<g>
			<title> (ctg2_12)</title>
			<polygon class=" (ctg2_12)" points="308,40 336,10 336,70" fill="rgb(255,255,255)" fill-opacity="1.0" stroke="rgb(0,0,0)" stroke-width="2"  />
			<g>
				<title>AAA_31 (PF13614)
"AAA domain"</title>
				<polygon class="PF13614" points="317,35 323,28 335,28 335,52 323,52 317,45" stroke-linejoin="round" width="18" height="24" fill="rgb(144,187,62)" stroke="rgb(115,149,49)" stroke-width="1" opacity="0.75" />
			</g>
		</g>
		<g>
			<title> (ctg2_13)</title>
			<polygon class=" (ctg2_13)" points="343,25 426,25 426,10 456,40 426,70 426,55 343,55" fill="rgb(255,255,255)" fill-opacity="1.0" stroke="rgb(0,0,0)" stroke-width="2"  />
			<g>
				<title>Biotin_carb_N (PF00289)
"Biotin carboxylase, N-terminal domain"</title>
				<rect class="PF00289" x="343" y="28" stroke-linejoin="round" width="11" height="24" fill="rgb(59,114,187)" stroke="rgb(47,91,149)" stroke-width="1" opacity="0.75" />
			</g>
			<g>
				<title>CPSase_L_D2 (PF02786)
"Carbamoyl-phosphate synthase L chain, ATP binding domain"</title>
				<rect class="PF02786" x="354" y="28" stroke-linejoin="round" width="21" height="24" fill="rgb(190,97,205)" stroke="rgb(151,77,164)" stroke-width="1" opacity="0.75" />
			</g>
			<g>
				<title>Biotin_carb_C (PF02785)
"Biotin carboxylase C-terminal domain"</title>
				<rect class="PF02785" x="377" y="28" stroke-linejoin="round" width="10" height="24" fill="rgb(82,186,211)" stroke="rgb(65,148,168)" stroke-width="1" opacity="0.75" />
			</g>
			<g>
				<title>HMGL-like (PF00682)
"HMGL-like"</title>
				<rect class="PF00682" x="395" y="28" stroke-linejoin="round" width="27" height="24" fill="rgb(84,228,141)" stroke="rgb(67,182,112)" stroke-width="1" opacity="0.75" />
			</g>
			<g>
				<title>PYC_OADA (PF02436)
"Conserved carboxylase domain"</title>
				<polygon class="PF02436" points="425,28 440,28 444,32 444,48 440,52 425,52" stroke-linejoin="round" width="19" height="24" fill="rgb(181,121,72)" stroke="rgb(144,96,57)" stroke-width="1" opacity="0.75" />
			</g>
			<g>
				<title>Biotin_lipoyl (PF00364)
"Biotin-requiring enzyme"</title>
				<polygon class="PF00364" points="449,37 452,40 449,43" stroke-linejoin="round" width="6" height="24" fill="rgb(67,214,213)" stroke="rgb(53,171,170)" stroke-width="1" opacity="0.75" />
			</g>
		</g>
		<g>
			<title> (ctg2_14)</title>
			<polygon class=" (ctg2_14)" points="459,10 475,40 459,70" fill="rgb(255,255,255)" fill-opacity="1.0" stroke="rgb(0,0,0)" stroke-width="2"  />
			<g>
				<title>Pep_deformylase (PF01327)
"Polypeptide deformylase"</title>
				<polygon class="PF01327" points="459,28 465,28 471,40 465,52 459,52" stroke-linejoin="round" width="14" height="24" fill="rgb(104,210,201)" stroke="rgb(83,168,160)" stroke-width="1" opacity="0.75" />
			</g>
		</g>
		<g>
			<title> (ctg2_15)</title>
			<polygon class=" (ctg2_15)" points="538,25 507,25 507,10 477,40 507,70 507,55 538,55" fill="rgb(255,255,255)" fill-opacity="1.0" stroke="rgb(0,0,0)" stroke-width="2"  />
			<g>
				<title>AMP-binding (PF00501)
"AMP-binding enzyme"</title>
				<polygon class="PF00501" points="491,30 493,28 535,28 535,52 493,52 491,50" stroke-linejoin="round" width="44" height="24" fill="rgb(60,217,223)" stroke="rgb(48,173,178)" stroke-width="1" opacity="0.75" />
			</g>
		</g>
		<g>
			<title> (ctg2_16)</title>
			<polygon class=" (ctg2_16)" points="545,10 567,40 545,70" fill="rgb(255,255,255)" fill-opacity="1.0" stroke="rgb(0,0,0)" stroke-width="2"  />
			<g>
				<title>Acyltransferase (PF01553)
"Acyltransferase"</title>
				<polygon class="PF01553" points="547,28 554,28 560,36 560,44 554,52 547,52" stroke-linejoin="round" width="13" height="24" fill="rgb(87,176,216)" stroke="rgb(69,140,172)" stroke-width="1" opacity="0.75" />
			</g>
		</g>
		<g>
			<title> (ctg2_17)</title>
			<polygon class=" (ctg2_17)" points="572,25 587,25 587,10 617,40 587,70 587,55 572,55" fill="rgb(255,255,255)" fill-opacity="1.0" stroke="rgb(0,0,0)" stroke-width="2"  />
			<g>
				<title>DAHP_synth_2 (PF01474)
"Class-II DAHP synthetase family"</title>
				<polygon class="PF01474" points="573,28 601,28 613,40 601,52 573,52" stroke-linejoin="round" width="43" height="24" fill="rgb(126,217,84)" stroke="rgb(100,173,67)" stroke-width="1" opacity="0.75" />
			</g>
		</g>
		<g>
			<title> (ctg2_18)</title>
			<polygon class=" (ctg2_18)" points="690,25 648,25 648,10 618,40 648,70 648,55 690,55" fill="rgb(255,255,255)" fill-opacity="1.0" stroke="rgb(0,0,0)" stroke-width="2"  />
			<g>
				<title>PASTA (PF03793)
"PASTA domain"</title>
				<polygon class="PF03793" points="622,40 623,39 623,41" stroke-linejoin="round" width="5" height="24" fill="rgb(84,217,212)" stroke="rgb(67,173,169)" stroke-width="1" opacity="0.75" />
			</g>
			<g>
				<title>PASTA (PF03793)
"PASTA domain"</title>
				<polygon class="PF03793" points="631,31 634,28 637,28 637,52 634,52 631,49" stroke-linejoin="round" width="6" height="24" fill="rgb(84,217,212)" stroke="rgb(67,173,169)" stroke-width="1" opacity="0.75" />
			</g>
			<g>
				<title>PASTA (PF03793)
"PASTA domain"</title>
				<rect class="PF03793" x="645" y="28" stroke-linejoin="round" width="6" height="24" fill="rgb(84,217,212)" stroke="rgb(67,173,169)" stroke-width="1" opacity="0.75" />
			</g>
			<g>
				<title>Pkinase (PF00069)
"Protein kinase domain"</title>
				<rect class="PF00069" x="662" y="28" stroke-linejoin="round" width="25" height="24" fill="rgb(104,187,65)" stroke="rgb(83,149,51)" stroke-width="1" opacity="0.75" />
			</g>
		</g>
		<g>
			<title> (ctg2_19)</title>
			<polygon class=" (ctg2_19)" points="693,10 706,40 693,70" fill="rgb(255,255,255)" fill-opacity="1.0" stroke="rgb(0,0,0)" stroke-width="2"  />
			<g>
				<title>Rv2175c_C (PF18367)
"Rv2175c C-terminal domain of unknown function"</title>
				<polygon class="PF18367" points="700,33 703,40 700,47" stroke-linejoin="round" width="5" height="24" fill="rgb(83,192,90)" stroke="rgb(66,153,71)" stroke-width="1" opacity="0.75" />
			</g>
		</g>
		<g>
			<title> (ctg2_20)</title>
			<polygon class=" (ctg2_20)" points="747,25 740,25 740,10 710,40 740,70 740,55 747,55" fill="rgb(255,255,255)" fill-opacity="1.0" stroke="rgb(0,0,0)" stroke-width="2"  />
			<g>
				<title>polyprenyl_synt (PF00348)
"Polyprenyl synthetase"</title>
				<polygon class="PF00348" points="714,40 726,28 742,28 742,52 726,52 714,40" stroke-linejoin="round" width="28" height="24" fill="rgb(61,206,65)" stroke="rgb(48,164,52)" stroke-width="1" opacity="0.75" />
			</g>
		</g>
		<g>
			<title> (ctg2_21)</title>
			<polygon class=" (ctg2_21)" points="750,10 762,40 750,70" fill="rgb(255,255,255)" fill-opacity="1.0" stroke="rgb(0,0,0)" stroke-width="2"  />
			<g>
				<title>DUF3040 (PF11239)
"Protein of unknown function (DUF3040)"</title>
				<polygon class="PF11239" points="750,28 754,28 757,34 757,46 754,52 750,52" stroke-linejoin="round" width="7" height="24" fill="rgb(75,191,84)" stroke="rgb(60,152,67)" stroke-width="1" opacity="0.75" />
			</g>
		</g>
		<g>
			<title> (ctg2_22)</title>
			<polygon class=" (ctg2_22)" points="774,10 788,40 774,70" fill="rgb(255,255,255)" fill-opacity="1.0" stroke="rgb(0,0,0)" stroke-width="2"  />
			<g>
				<title>MraZ (PF02381)
"MraZ protein, putative antitoxin-like"</title>
				<polygon class="PF02381" points="774,28 779,28 781,32 781,48 779,52 774,52" stroke-linejoin="round" width="7" height="24" fill="rgb(183,161,79)" stroke="rgb(146,128,63)" stroke-width="1" opacity="0.75" />
			</g>
			<g>
				<title>MraZ (PF02381)
"MraZ protein, putative antitoxin-like"</title>
				<polygon class="PF02381" points="781,32 785,40 781,48" stroke-linejoin="round" width="6" height="24" fill="rgb(183,161,79)" stroke="rgb(146,128,63)" stroke-width="1" opacity="0.75" />
			</g>
		</g>
		<g>
			<title> (ctg2_23)</title>
			<polygon class=" (ctg2_23)" points="791,25 792,25 792,10 822,40 792,70 792,55 791,55" fill="rgb(255,255,255)" fill-opacity="1.0" stroke="rgb(0,0,0)" stroke-width="2"  />
			<g>
				<title>Methyltransf_5 (PF01795)
"MraW methylase family"</title>
				<polygon class="PF01795" points="791,28 806,28 818,40 806,52 791,52" stroke-linejoin="round" width="30" height="24" fill="rgb(57,116,220)" stroke="rgb(45,92,176)" stroke-width="1" opacity="0.75" />
			</g>
		</g>
		<g>
			<title> (ctg2_24)</title>
			<polygon class=" (ctg2_24)" points="822,10 842,40 822,70" fill="rgb(255,255,255)" fill-opacity="1.0" stroke="rgb(0,0,0)" stroke-width="2"  />
		</g>
	</g>
</svg>
