<svg version="1.1" baseProfile="full" xmlns="http://www.w3.org/2000/svg" width="1536.9333333333334" height="80">
	<g>
		<line x1="10" y1="40.0" x2="1526.9333333333334" y2="40.0" style="stroke:rgb(70,70,70); stroke-width:3 "/>
		<g>
			<title> (ctg4_1)</title>
			<polygon class=" (ctg4_1)" points="74,25 49,25 49,10 19,40 49,70 49,55 74,55" fill="rgb(255,255,255)" fill-opacity="1.0" stroke="rgb(0,0,0)" stroke-width="2"  />
			<g>
				<title>SSF (PF00474)
"Sodium:solute symporter family"</title>
				<polygon class="PF00474" points="27,36 35,28 67,28 67,52 35,52 27,44" stroke-linejoin="round" width="40" height="24" fill="rgb(49,186,178)" stroke="rgb(39,148,142)" stroke-width="1" opacity="0.75" />
			</g>
		</g>
		<g>
			<title> (ctg4_2)</title>
			<polygon class=" (ctg4_2)" points="74,40 84,10 84,70" fill="rgb(255,255,255)" fill-opacity="1.0" stroke="rgb(0,0,0)" stroke-width="2"  />
			<g>
				<title>DUF485 (PF04341)
"Protein of unknown function, DUF485"</title>
				<polygon class="PF04341" points="77,40 81,28 82,28 82,52 81,52" stroke-linejoin="round" width="8" height="24" fill="rgb(74,157,199)" stroke="rgb(59,125,159)" stroke-width="1" opacity="0.75" />
			</g>
		</g>
		<g>
			<title> (ctg4_3)</title>
			<polygon class=" (ctg4_3)" points="151,25 116,25 116,10 86,40 116,70 116,55 151,55" fill="rgb(255,255,255)" fill-opacity="1.0" stroke="rgb(0,0,0)" stroke-width="2"  />
			<g>
				<title>AMP-binding_C (PF13193)
"AMP-binding enzyme C-terminal domain"</title>
				<polygon class="PF13193" points="90,40 97,33 97,47 90,40" stroke-linejoin="round" width="7" height="24" fill="rgb(182,50,118)" stroke="rgb(145,39,94)" stroke-width="1" opacity="0.75" />
			</g>
			<g>
				<title>AMP-binding (PF00501)
"AMP-binding enzyme"</title>
				<polygon class="PF00501" points="99,31 102,28 143,28 143,52 102,52 99,49" stroke-linejoin="round" width="44" height="24" fill="rgb(60,217,223)" stroke="rgb(48,173,178)" stroke-width="1" opacity="0.75" />
			</g>
			<g>
				<title>ACAS_N (PF16177)
"Acetyl-coenzyme A synthetase N-terminus"</title>
				<rect class="PF16177" x="143" y="28" stroke-linejoin="round" width="5" height="24" fill="rgb(54,78,195)" stroke="rgb(43,62,156)" stroke-width="1" opacity="0.75" />
			</g>
		</g>
		<g>
			<title> (ctg4_4)</title>
			<polygon class=" (ctg4_4)" points="189,25 185,25 185,10 155,40 185,70 185,55 189,55" fill="rgb(255,255,255)" fill-opacity="1.0" stroke="rgb(0,0,0)" stroke-width="2"  />
			<g>
				<title>Peptidase_S66C (PF17676)
"LD-carboxypeptidase C-terminal domain"</title>
				<polygon class="PF17676" points="159,40 167,32 167,48" stroke-linejoin="round" width="11" height="24" fill="rgb(72,81,192)" stroke="rgb(57,64,153)" stroke-width="1" opacity="0.75" />
			</g>
			<g>
				<title>Peptidase_S66 (PF02016)
"LD-carboxypeptidase N-terminal domain"</title>
				<rect class="PF02016" x="175" y="28" stroke-linejoin="round" width="11" height="24" fill="rgb(187,63,139)" stroke="rgb(149,50,111)" stroke-width="1" opacity="0.75" />
			</g>
		</g>
		<g>
			<title> (ctg4_5)</title>
			<polygon class=" (ctg4_5)" points="242,25 223,25 223,10 193,40 223,70 223,55 242,55" fill="rgb(255,255,255)" fill-opacity="1.0" stroke="rgb(0,0,0)" stroke-width="2"  />
			<g>
				<title>HATPase_c (PF02518)
"Histidine kinase-, DNA gyrase B-, and HSP90-like ATPase"</title>
				<polygon class="PF02518" points="197,40 203,34 203,46" stroke-linejoin="round" width="10" height="24" fill="rgb(80,94,225)" stroke="rgb(64,75,180)" stroke-width="1" opacity="0.75" />
			</g>
			<g>
				<title>HisKA (PF00512)
"His Kinase A (phospho-acceptor) domain"</title>
				<polygon class="PF00512" points="208,29 209,28 214,28 214,52 209,52 208,51" stroke-linejoin="round" width="6" height="24" fill="rgb(193,125,62)" stroke="rgb(154,100,49)" stroke-width="1" opacity="0.75" />
			</g>
		</g>
		<g>
			<title> (ctg4_6)</title>
			<polygon class=" (ctg4_6)" points="243,40 267,10 267,70" fill="rgb(255,255,255)" fill-opacity="1.0" stroke="rgb(0,0,0)" stroke-width="2"  />
			<g>
				<title>Trans_reg_C (PF00486)
"Transcriptional regulatory protein, C terminal"</title>
				<polygon class="PF00486" points="247,40 251,35 251,45" stroke-linejoin="round" width="7" height="24" fill="rgb(204,153,57)" stroke="rgb(163,122,45)" stroke-width="1" opacity="0.75" />
			</g>
			<g>
				<title>Response_reg (PF00072)
"Response regulator receiver domain"</title>
				<polygon class="PF00072" points="255,30 257,28 266,28 266,52 257,52 255,50" stroke-linejoin="round" width="11" height="24" fill="rgb(100,107,203)" stroke="rgb(80,85,162)" stroke-width="1" opacity="0.75" />
			</g>
		</g>
		<g>
			<title> (ctg4_7)</title>
			<polygon class=" (ctg4_7)" points="272,10 292,40 272,70" fill="rgb(255,255,255)" fill-opacity="1.0" stroke="rgb(0,0,0)" stroke-width="2"  />
			<g>
				<title>Ni_hydr_CYTB (PF01292)
"Prokaryotic cytochrome b561"</title>
				<polygon class="PF01292" points="273,28 280,28 289,40 280,52 273,52" stroke-linejoin="round" width="18" height="24" fill="rgb(210,172,100)" stroke="rgb(168,137,80)" stroke-width="1" opacity="0.75" />
			</g>
		</g>
		<g>
			<title> (ctg4_8)</title>
			<polygon class=" (ctg4_8)" points="293,10 319,40 293,70" fill="rgb(255,255,255)" fill-opacity="1.0" stroke="rgb(0,0,0)" stroke-width="2"  />
			<g>
				<title>Oxidored_molyb (PF00174)
"Oxidoreductase molybdopterin binding domain"</title>
				<polygon class="PF00174" points="303,28 304,28 315,40 304,52 303,52" stroke-linejoin="round" width="14" height="24" fill="rgb(152,193,93)" stroke="rgb(121,154,74)" stroke-width="1" opacity="0.75" />
			</g>
		</g>
		<g>
			<title> (ctg4_9)</title>
			<polygon class=" (ctg4_9)" points="321,10 328,40 321,70" fill="rgb(255,255,255)" fill-opacity="1.0" stroke="rgb(0,0,0)" stroke-width="2"  />
		</g>
		<g>
			<title> (ctg4_10)</title>
			<polygon class=" (ctg4_10)" points="337,25 353,25 353,10 383,40 353,70 353,55 337,55" fill="rgb(255,255,255)" fill-opacity="1.0" stroke="rgb(0,0,0)" stroke-width="2"  />
			<g>
				<title>Enterochelin_N (PF11806)
"Enterochelin esterase, N-terminal"</title>
				<rect class="PF11806" x="341" y="28" stroke-linejoin="round" width="13" height="24" fill="rgb(49,154,189)" stroke="rgb(39,123,151)" stroke-width="1" opacity="0.75" />
			</g>
			<g>
				<title>Esterase (PF00756)
"Putative esterase"</title>
				<polygon class="PF00756" points="357,28 367,28 379,40 379,40 367,52 357,52" stroke-linejoin="round" width="22" height="24" fill="rgb(217,132,77)" stroke="rgb(173,105,61)" stroke-width="1" opacity="0.75" />
			</g>
		</g>
		<g>
			<title> (ctg4_11)</title>
			<polygon class=" (ctg4_11)" points="383,10 390,40 383,70" fill="rgb(255,255,255)" fill-opacity="1.0" stroke="rgb(0,0,0)" stroke-width="2"  />
			<g>
				<title>MbtH (PF03621)
"MbtH-like protein"</title>
				<polygon class="PF03621" points="383,28 383,28 386,40 383,52 383,52" stroke-linejoin="round" width="5" height="24" fill="rgb(212,165,97)" stroke="rgb(169,132,77)" stroke-width="1" opacity="0.75" />
			</g>
		</g>
		<g>
			<title> (ctg4_12)</title>
			<polygon class=" (ctg4_12)" points="390,25 494,25 494,10 524,40 494,70 494,55 390,55" fill="rgb(255,255,255)" fill-opacity="1.0" stroke="rgb(0,0,0)" stroke-width="2"  />
			<g>
				<title>Condensation (PF00668)
"Condensation domain"</title>
				<rect class="PF00668" x="392" y="28" stroke-linejoin="round" width="45" height="24" fill="rgb(224,184,98)" stroke="rgb(179,147,78)" stroke-width="1" opacity="0.75" />
			</g>
			<g>
				<title>AMP-binding (PF00501)
"AMP-binding enzyme"</title>
				<rect class="PF00501" x="440" y="28" stroke-linejoin="round" width="40" height="24" fill="rgb(60,217,223)" stroke="rgb(48,173,178)" stroke-width="1" opacity="0.75" />
			</g>
			<g>
				<title>PP-binding (PF00550)
"Phosphopantetheine attachment site"</title>
				<rect class="PF00550" x="492" y="28" stroke-linejoin="round" width="6" height="24" fill="rgb(103,191,88)" stroke="rgb(82,152,70)" stroke-width="1" opacity="0.75" />
			</g>
			<g>
				<title>Thioesterase (PF00975)
"Thioesterase domain"</title>
				<polygon class="PF00975" points="501,28 507,28 519,40 507,52 501,52" stroke-linejoin="round" width="22" height="24" fill="rgb(207,80,138)" stroke="rgb(165,63,110)" stroke-width="1" opacity="0.75" />
			</g>
		</g>
		<g>
			<title> (ctg4_13)</title>
			<polygon class=" (ctg4_13)" points="526,40 552,10 552,70" fill="rgb(255,255,255)" fill-opacity="1.0" stroke="rgb(0,0,0)" stroke-width="2"  />
			<g>
				<title>ABC_tran (PF00005)
"ABC transporter"</title>
				<polygon class="PF00005" points="535,34 541,28 549,28 549,52 541,52 535,46" stroke-linejoin="round" width="14" height="24" fill="rgb(129,201,63)" stroke="rgb(103,160,50)" stroke-width="1" opacity="0.75" />
			</g>
		</g>
		<g>
			<title> (ctg4_14)</title>
			<polygon class=" (ctg4_14)" points="586,25 582,25 582,10 552,40 582,70 582,55 586,55" fill="rgb(255,255,255)" fill-opacity="1.0" stroke="rgb(0,0,0)" stroke-width="2"  />
			<g>
				<title>FecCD (PF01032)
"FecCD transport family"</title>
				<polygon class="PF01032" points="556,40 568,28 583,28 583,52 568,52" stroke-linejoin="round" width="31" height="24" fill="rgb(210,177,70)" stroke="rgb(168,141,56)" stroke-width="1" opacity="0.75" />
			</g>
		</g>
		<g>
			<title> (ctg4_15)</title>
			<polygon class=" (ctg4_15)" points="621,25 617,25 617,10 587,40 617,70 617,55 621,55" fill="rgb(255,255,255)" fill-opacity="1.0" stroke="rgb(0,0,0)" stroke-width="2"  />
			<g>
				<title>FecCD (PF01032)
"FecCD transport family"</title>
				<polygon class="PF01032" points="591,40 603,28 617,28 617,52 603,52" stroke-linejoin="round" width="30" height="24" fill="rgb(210,177,70)" stroke="rgb(168,141,56)" stroke-width="1" opacity="0.75" />
			</g>
		</g>
		<g>
			<title> (ctg4_16)</title>
			<polygon class=" (ctg4_16)" points="628,25 640,25 640,10 670,40 640,70 640,55 628,55" fill="rgb(255,255,255)" fill-opacity="1.0" stroke="rgb(0,0,0)" stroke-width="2"  />
			<g>
				<title>MFS_3 (PF05977)
"Transmembrane secretion effector"</title>
				<polygon class="PF05977" points="629,28 653,28 665,40 653,52 629,52" stroke-linejoin="round" width="40" height="24" fill="rgb(80,62,217)" stroke="rgb(64,49,173)" stroke-width="1" opacity="0.75" />
			</g>
		</g>
		<g>
			<title> (ctg4_17)</title>
			<polygon class=" (ctg4_17)" points="704,25 702,25 702,10 672,40 702,70 702,55 704,55" fill="rgb(255,255,255)" fill-opacity="1.0" stroke="rgb(0,0,0)" stroke-width="2"  />
			<g>
				<title>Peripla_BP_2 (PF01497)
"Periplasmic binding protein"</title>
				<polygon class="PF01497" points="676,40 688,28 699,28 699,52 688,52" stroke-linejoin="round" width="25" height="24" fill="rgb(183,226,104)" stroke="rgb(146,180,83)" stroke-width="1" opacity="0.75" />
			</g>
		</g>
		<g>
			<title> (ctg4_18)</title>
			<polygon class=" (ctg4_18)" points="710,25 720,25 720,10 750,40 720,70 720,55 710,55" fill="rgb(255,255,255)" fill-opacity="1.0" stroke="rgb(0,0,0)" stroke-width="2"  />
			<g>
				<title>Chorismate_bind (PF00425)
"chorismate binding enzyme"</title>
				<polygon class="PF00425" points="723,28 733,28 745,40 733,52 723,52" stroke-linejoin="round" width="25" height="24" fill="rgb(188,116,88)" stroke="rgb(150,92,70)" stroke-width="1" opacity="0.75" />
			</g>
		</g>
		<g>
			<title> (ctg4_19)</title>
			<polygon class=" (ctg4_19)" points="751,25 775,25 775,10 805,40 775,70 775,55 751,55" fill="rgb(255,255,255)" fill-opacity="1.0" stroke="rgb(0,0,0)" stroke-width="2"  />
			<g>
				<title>AMP-binding (PF00501)
"AMP-binding enzyme"</title>
				<polygon class="PF00501" points="754,28 789,28 794,33 794,47 789,52 754,52" stroke-linejoin="round" width="40" height="24" fill="rgb(60,217,223)" stroke="rgb(48,173,178)" stroke-width="1" opacity="0.75" />
			</g>
			<g>
				<title>AMP-binding_C (PF13193)
"AMP-binding enzyme C-terminal domain"</title>
				<polygon class="PF13193" points="795,34 801,40 795,46" stroke-linejoin="round" width="7" height="24" fill="rgb(182,50,118)" stroke="rgb(145,39,94)" stroke-width="1" opacity="0.75" />
			</g>
		</g>
		<g>
			<title> (ctg4_20)</title>
			<polygon class=" (ctg4_20)" points="806,10 834,40 806,70" fill="rgb(255,255,255)" fill-opacity="1.0" stroke="rgb(0,0,0)" stroke-width="2"  />
			<g>
				<title>Isochorismatase (PF00857)
"Isochorismatase family"</title>
				<polygon class="PF00857" points="809,28 818,28 826,36 826,44 818,52 809,52" stroke-linejoin="round" width="17" height="24" fill="rgb(144,224,70)" stroke="rgb(115,179,56)" stroke-width="1" opacity="0.75" />
			</g>
			<g>
				<title>PP-binding (PF00550)
"Phosphopantetheine attachment site"</title>
				<polygon class="PF00550" points="827,37 830,40 827,43" stroke-linejoin="round" width="6" height="24" fill="rgb(103,191,88)" stroke="rgb(82,152,70)" stroke-width="1" opacity="0.75" />
			</g>
		</g>
		<g>
			<title> (ctg4_21)</title>
			<polygon class=" (ctg4_21)" points="834,10 859,40 834,70" fill="rgb(255,255,255)" fill-opacity="1.0" stroke="rgb(0,0,0)" stroke-width="2"  />
			<g>
				<title>adh_short_C2 (PF13561)
"Enoyl-(Acyl carrier protein) reductase"</title>
				<polygon class="PF13561" points="835,28 845,28 855,40 845,52 835,52" stroke-linejoin="round" width="23" height="24" fill="rgb(73,205,127)" stroke="rgb(58,164,101)" stroke-width="1" opacity="0.75" />
			</g>
		</g>
		<g>
			<title> (ctg4_22)</title>
			<polygon class=" (ctg4_22)" points="874,40 901,10 901,70" fill="rgb(255,255,255)" fill-opacity="1.0" stroke="rgb(0,0,0)" stroke-width="2"  />
			<g>
				<title>Glycos_transf_2 (PF00535)
"Glycosyl transferase family 2"</title>
				<polygon class="PF00535" points="887,30 889,28 901,28 901,52 889,52 887,50" stroke-linejoin="round" width="14" height="24" fill="rgb(224,122,96)" stroke="rgb(179,97,76)" stroke-width="1" opacity="0.75" />
			</g>
		</g>
		<g>
			<title> (ctg4_23)</title>
			<polygon class=" (ctg4_23)" points="928,40 945,10 945,70" fill="rgb(255,255,255)" fill-opacity="1.0" stroke="rgb(0,0,0)" stroke-width="2"  />
		</g>
		<g>
			<title> (ctg4_24)</title>
			<polygon class=" (ctg4_24)" points="1008,25 980,25 980,10 950,40 980,70 980,55 1008,55" fill="rgb(255,255,255)" fill-opacity="1.0" stroke="rgb(0,0,0)" stroke-width="2"  />
			<g>
				<title>Thioredoxin_7 (PF13899)
"Thioredoxin-like"</title>
				<polygon class="PF13899" points="954,40 960,34 960,46" stroke-linejoin="round" width="8" height="24" fill="rgb(143,52,187)" stroke="rgb(114,41,149)" stroke-width="1" opacity="0.75" />
			</g>
			<g>
				<title>DsbD (PF02683)
"Cytochrome C biogenesis protein transmembrane region"</title>
				<rect class="PF02683" x="968" y="28" stroke-linejoin="round" width="20" height="24" fill="rgb(89,192,111)" stroke="rgb(71,153,88)" stroke-width="1" opacity="0.75" />
			</g>
			<g>
				<title>DsbC (PF11412)
"Disulphide bond corrector protein DsbC"</title>
				<rect class="PF11412" x="993" y="28" stroke-linejoin="round" width="11" height="24" fill="rgb(68,196,119)" stroke="rgb(54,156,95)" stroke-width="1" opacity="0.75" />
			</g>
		</g>
		<g>
			<title> (ctg4_25)</title>
			<polygon class=" (ctg4_25)" points="1057,25 1044,25 1044,10 1014,40 1044,70 1044,55 1057,55" fill="rgb(255,255,255)" fill-opacity="1.0" stroke="rgb(0,0,0)" stroke-width="2"  />
			<g>
				<title>DcuA_DcuB (PF03605)
"Anaerobic c4-dicarboxylate membrane transporter"</title>
				<polygon class="PF03605" points="1020,38 1030,28 1056,28 1056,52 1030,52 1020,42" stroke-linejoin="round" width="36" height="24" fill="rgb(183,176,55)" stroke="rgb(146,140,44)" stroke-width="1" opacity="0.75" />
			</g>
		</g>
		<g>
			<title> (ctg4_26)</title>
			<polygon class=" (ctg4_26)" points="1111,25 1094,25 1094,10 1064,40 1094,70 1094,55 1111,55" fill="rgb(255,255,255)" fill-opacity="1.0" stroke="rgb(0,0,0)" stroke-width="2"  />
			<g>
				<title>FumaraseC_C (PF10415)
"Fumarase C C-terminus"</title>
				<polygon class="PF10415" points="1068,40 1070,38 1070,42" stroke-linejoin="round" width="5" height="24" fill="rgb(150,80,199)" stroke="rgb(119,64,159)" stroke-width="1" opacity="0.75" />
			</g>
			<g>
				<title>Lyase_1 (PF00206)
"Lyase"</title>
				<polygon class="PF00206" points="1077,31 1080,28 1110,28 1110,52 1080,52 1077,49" stroke-linejoin="round" width="33" height="24" fill="rgb(217,92,141)" stroke="rgb(173,73,112)" stroke-width="1" opacity="0.75" />
			</g>
		</g>
		<g>
			<title> (ctg4_27)</title>
			<polygon class=" (ctg4_27)" points="1113,40 1120,10 1120,70" fill="rgb(255,255,255)" fill-opacity="1.0" stroke="rgb(0,0,0)" stroke-width="2"  />
		</g>
		<g>
			<title> (ctg4_28)</title>
			<polygon class=" (ctg4_28)" points="1124,10 1140,40 1124,70" fill="rgb(255,255,255)" fill-opacity="1.0" stroke="rgb(0,0,0)" stroke-width="2"  />
			<g>
				<title>FxsA (PF04186)
"FxsA cytoplasmic membrane protein"</title>
				<polygon class="PF04186" points="1124,28 1130,28 1134,35 1134,45 1130,52 1124,52" stroke-linejoin="round" width="10" height="24" fill="rgb(225,150,75)" stroke="rgb(180,120,60)" stroke-width="1" opacity="0.75" />
			</g>
		</g>
		<g>
			<title> (ctg4_29)</title>
			<polygon class=" (ctg4_29)" points="1145,10 1154,40 1145,70" fill="rgb(255,255,255)" fill-opacity="1.0" stroke="rgb(0,0,0)" stroke-width="2"  />
			<g>
				<title>Cpn10 (PF00166)
"Chaperonin 10 Kd subunit"</title>
				<polygon class="PF00166" points="1145,28 1147,28 1151,40 1147,52 1145,52" stroke-linejoin="round" width="9" height="24" fill="rgb(88,59,221)" stroke="rgb(70,47,176)" stroke-width="1" opacity="0.75" />
			</g>
		</g>
		<g>
			<title> (ctg4_30)</title>
			<polygon class=" (ctg4_30)" points="1156,25 1180,25 1180,10 1210,40 1180,70 1180,55 1156,55" fill="rgb(255,255,255)" fill-opacity="1.0" stroke="rgb(0,0,0)" stroke-width="2"  />
			<g>
				<title>Cpn60_TCP1 (PF00118)
"TCP-1/cpn60 chaperonin family"</title>
				<polygon class="PF00118" points="1158,28 1194,28 1206,40 1194,52 1158,52" stroke-linejoin="round" width="50" height="24" fill="rgb(73,204,119)" stroke="rgb(58,163,95)" stroke-width="1" opacity="0.75" />
			</g>
		</g>
		<g>
			<title> (ctg4_31)</title>
			<polygon class=" (ctg4_31)" points="1224,10 1235,40 1224,70" fill="rgb(255,255,255)" fill-opacity="1.0" stroke="rgb(0,0,0)" stroke-width="2"  />
			<g>
				<title>DUF4156 (PF13698)
"Domain of unknown function (DUF4156)"</title>
				<polygon class="PF13698" points="1225,28 1227,28 1231,40 1227,52 1225,52" stroke-linejoin="round" width="9" height="24" fill="rgb(97,192,214)" stroke="rgb(77,153,171)" stroke-width="1" opacity="0.75" />
			</g>
		</g>
		<g>
			<title> (ctg4_32)</title>
			<polygon class=" (ctg4_32)" points="1272,25 1268,25 1268,10 1238,40 1268,70 1268,55 1272,55" fill="rgb(255,255,255)" fill-opacity="1.0" stroke="rgb(0,0,0)" stroke-width="2"  />
			<g>
				<title>Radical_SAM (PF04055)
"Radical SAM superfamily"</title>
				<polygon class="PF04055" points="1245,37 1254,28 1260,28 1260,52 1254,52 1245,43" stroke-linejoin="round" width="15" height="24" fill="rgb(149,56,222)" stroke="rgb(119,44,177)" stroke-width="1" opacity="0.75" />
			</g>
		</g>
		<g>
			<title> (ctg4_33)</title>
			<polygon class=" (ctg4_33)" points="1274,10 1292,40 1274,70" fill="rgb(255,255,255)" fill-opacity="1.0" stroke="rgb(0,0,0)" stroke-width="2"  />
			<g>
				<title>EFP_N (PF08207)
"Elongation factor P (EF-P) KOW-like domain"</title>
				<rect class="PF08207" x="1274" y="28" stroke-linejoin="round" width="5" height="24" fill="rgb(206,113,79)" stroke="rgb(164,90,63)" stroke-width="1" opacity="0.75" />
			</g>
			<g>
				<title>EFP (PF01132)
"Elongation factor P (EF-P) OB domain"</title>
				<polygon class="PF01132" points="1281,28 1281,28 1286,35 1286,45 1281,52 1281,52" stroke-linejoin="round" width="5" height="24" fill="rgb(214,86,57)" stroke="rgb(171,68,45)" stroke-width="1" opacity="0.75" />
			</g>
			<g>
				<title>Elong-fact-P_C (PF09285)
"Elongation factor P, C-terminal"</title>
				<polygon class="PF09285" points="1286,35 1289,40 1286,45" stroke-linejoin="round" width="6" height="24" fill="rgb(64,72,222)" stroke="rgb(51,57,177)" stroke-width="1" opacity="0.75" />
			</g>
		</g>
		<g>
			<title> (ctg4_34)</title>
			<polygon class=" (ctg4_34)" points="1305,10 1309,40 1305,70" fill="rgb(255,255,255)" fill-opacity="1.0" stroke="rgb(0,0,0)" stroke-width="2"  />
			<g>
				<title>Entericidin (PF08085)
"Entericidin EcnA/B family"</title>
				<polygon class="PF08085" points="1307,43 1306,40 1307,37" stroke-linejoin="round" width="1" height="24" fill="rgb(188,61,158)" stroke="rgb(150,48,126)" stroke-width="1" opacity="0.75" />
			</g>
		</g>
		<g>
			<title> (ctg4_35)</title>
			<polygon class=" (ctg4_35)" points="1311,40 1328,10 1328,70" fill="rgb(255,255,255)" fill-opacity="1.0" stroke="rgb(0,0,0)" stroke-width="2"  />
			<g>
				<title>Lipocalin_2 (PF08212)
"Lipocalin-like domain"</title>
				<polygon class="PF08212" points="1314,40 1321,28 1325,28 1325,52 1321,52" stroke-linejoin="round" width="14" height="24" fill="rgb(196,221,96)" stroke="rgb(156,176,76)" stroke-width="1" opacity="0.75" />
			</g>
		</g>
		<g>
			<title> (ctg4_36)</title>
			<polygon class=" (ctg4_36)" points="1332,25 1334,25 1334,10 1364,40 1334,70 1334,55 1332,55" fill="rgb(255,255,255)" fill-opacity="1.0" stroke="rgb(0,0,0)" stroke-width="2"  />
			<g>
				<title>tRNA-synt_2 (PF00152)
"tRNA synthetases class II (D, K and N)"</title>
				<polygon class="PF00152" points="1332,28 1348,28 1360,40 1348,52 1332,52" stroke-linejoin="round" width="31" height="24" fill="rgb(90,71,190)" stroke="rgb(72,56,152)" stroke-width="1" opacity="0.75" />
			</g>
		</g>
		<g>
			<title> (ctg4_37)</title>
			<polygon class=" (ctg4_37)" points="1375,25 1390,25 1390,10 1420,40 1390,70 1390,55 1375,55" fill="rgb(255,255,255)" fill-opacity="1.0" stroke="rgb(0,0,0)" stroke-width="2"  />
			<g>
				<title>Xan_ur_permease (PF00860)
"Permease family"</title>
				<polygon class="PF00860" points="1377,28 1404,28 1415,39 1415,41 1404,52 1377,52" stroke-linejoin="round" width="38" height="24" fill="rgb(216,88,217)" stroke="rgb(172,70,173)" stroke-width="1" opacity="0.75" />
			</g>
		</g>
		<g>
			<title> (ctg4_38)</title>
			<polygon class=" (ctg4_38)" points="1423,25 1438,25 1438,10 1468,40 1438,70 1438,55 1423,55" fill="rgb(255,255,255)" fill-opacity="1.0" stroke="rgb(0,0,0)" stroke-width="2"  />
			<g>
				<title>Amidohydro_1 (PF01979)
"Amidohydrolase family"</title>
				<polygon class="PF01979" points="1428,28 1452,28 1464,40 1464,40 1452,52 1428,52" stroke-linejoin="round" width="36" height="24" fill="rgb(210,93,184)" stroke="rgb(168,74,147)" stroke-width="1" opacity="0.75" />
			</g>
		</g>
	</g>
</svg>
