<svg version="1.1" baseProfile="full" xmlns="http://www.w3.org/2000/svg" width="2148.4333333333334" height="80">
	<g>
		<line x1="10" y1="40.0" x2="2138.4333333333334" y2="40.0" style="stroke:rgb(70,70,70); stroke-width:3 "/>
		<g>
			<title> (ctg6_139)</title>
			<polygon class=" (ctg6_139)" points="51,25 40,25 40,10 10,40 40,70 40,55 51,55" fill="rgb(255,255,255)" fill-opacity="1.0" stroke="rgb(0,0,0)" stroke-width="2"  />
			<g>
				<title>MFS_1 (PF07690)
"Major Facilitator Superfamily"</title>
				<polygon class="PF07690" points="16,38 26,28 48,28 48,52 26,52 16,42" stroke-linejoin="round" width="32" height="24" fill="rgb(193,224,74)" stroke="rgb(154,179,59)" stroke-width="1" opacity="0.75" />
			</g>
		</g>
		<g>
			<title> (ctg6_140)</title>
			<polygon class=" (ctg6_140)" points="53,25 80,25 80,10 110,40 80,70 80,55 53,55" fill="rgb(255,255,255)" fill-opacity="1.0" stroke="rgb(0,0,0)" stroke-width="2"  />
			<g>
				<title>DUF885 (PF05960)
"Bacterial protein of unknown function (DUF885)"</title>
				<polygon class="PF05960" points="57,28 94,28 106,40 94,52 57,52" stroke-linejoin="round" width="53" height="24" fill="rgb(208,54,141)" stroke="rgb(166,43,112)" stroke-width="1" opacity="0.75" />
			</g>
		</g>
		<g>
			<title> (ctg6_141)</title>
			<polygon class=" (ctg6_141)" points="114,25 128,25 128,10 158,40 128,70 128,55 114,55" fill="rgb(255,255,255)" fill-opacity="1.0" stroke="rgb(0,0,0)" stroke-width="2"  />
			<g>
				<title>SDF (PF00375)
"Sodium:dicarboxylate symporter family"</title>
				<polygon class="PF00375" points="114,28 142,28 154,40 154,40 142,52 114,52" stroke-linejoin="round" width="40" height="24" fill="rgb(141,207,101)" stroke="rgb(112,165,80)" stroke-width="1" opacity="0.75" />
			</g>
		</g>
		<g>
			<title> (ctg6_142)</title>
			<polygon class=" (ctg6_142)" points="164,25 174,25 174,10 204,40 174,70 174,55 164,55" fill="rgb(255,255,255)" fill-opacity="1.0" stroke="rgb(0,0,0)" stroke-width="2"  />
			<g>
				<title>GAF (PF01590)
"GAF domain"</title>
				<rect class="PF01590" x="169" y="28" stroke-linejoin="round" width="14" height="24" fill="rgb(86,203,59)" stroke="rgb(68,162,47)" stroke-width="1" opacity="0.75" />
			</g>
		</g>
		<g>
			<title> (ctg6_143)</title>
			<polygon class=" (ctg6_143)" points="209,25 230,25 230,10 260,40 230,70 230,55 209,55" fill="rgb(255,255,255)" fill-opacity="1.0" stroke="rgb(0,0,0)" stroke-width="2"  />
			<g>
				<title>Aldedh (PF00171)
"Aldehyde dehydrogenase family"</title>
				<polygon class="PF00171" points="212,28 244,28 256,40 244,52 212,52" stroke-linejoin="round" width="46" height="24" fill="rgb(105,213,139)" stroke="rgb(84,170,111)" stroke-width="1" opacity="0.75" />
			</g>
		</g>
		<g>
			<title> (ctg6_144)</title>
			<polygon class=" (ctg6_144)" points="264,25 269,25 269,10 299,40 269,70 269,55 264,55" fill="rgb(255,255,255)" fill-opacity="1.0" stroke="rgb(0,0,0)" stroke-width="2"  />
			<g>
				<title>ADH_N (PF08240)
"Alcohol dehydrogenase GroES-like domain"</title>
				<rect class="PF08240" x="268" y="28" stroke-linejoin="round" width="10" height="24" fill="rgb(211,65,138)" stroke="rgb(168,51,110)" stroke-width="1" opacity="0.75" />
			</g>
			<g>
				<title>ADH_zinc_N (PF00107)
"Zinc-binding dehydrogenase"</title>
				<polygon class="PF00107" points="283,28 283,28 295,40 295,40 283,52 283,52" stroke-linejoin="round" width="12" height="24" fill="rgb(81,108,215)" stroke="rgb(64,86,172)" stroke-width="1" opacity="0.75" />
			</g>
		</g>
		<g>
			<title> (ctg6_145)</title>
			<polygon class=" (ctg6_145)" points="305,10 326,40 305,70" fill="rgb(255,255,255)" fill-opacity="1.0" stroke="rgb(0,0,0)" stroke-width="2"  />
			<g>
				<title>Maf (PF02545)
"Maf-like protein"</title>
				<polygon class="PF02545" points="305,28 314,28 322,40 314,52 305,52" stroke-linejoin="round" width="19" height="24" fill="rgb(116,184,91)" stroke="rgb(92,147,72)" stroke-width="1" opacity="0.75" />
			</g>
		</g>
		<g>
			<title> (ctg6_146)</title>
			<polygon class=" (ctg6_146)" points="331,25 360,25 360,10 390,40 360,70 360,55 331,55" fill="rgb(255,255,255)" fill-opacity="1.0" stroke="rgb(0,0,0)" stroke-width="2"  />
			<g>
				<title>Biotin_carb_N (PF00289)
"Biotin carboxylase, N-terminal domain"</title>
				<rect class="PF00289" x="332" y="28" stroke-linejoin="round" width="10" height="24" fill="rgb(59,114,187)" stroke="rgb(47,91,149)" stroke-width="1" opacity="0.75" />
			</g>
			<g>
				<title>CPSase_L_D2 (PF02786)
"Carbamoyl-phosphate synthase L chain, ATP binding domain"</title>
				<rect class="PF02786" x="343" y="28" stroke-linejoin="round" width="20" height="24" fill="rgb(190,97,205)" stroke="rgb(151,77,164)" stroke-width="1" opacity="0.75" />
			</g>
			<g>
				<title>Biotin_carb_C (PF02785)
"Biotin carboxylase C-terminal domain"</title>
				<polygon class="PF02785" points="365,28 374,28 376,30 376,50 374,52 365,52" stroke-linejoin="round" width="11" height="24" fill="rgb(82,186,211)" stroke="rgb(65,148,168)" stroke-width="1" opacity="0.75" />
			</g>
			<g>
				<title>Biotin_lipoyl (PF00364)
"Biotin-requiring enzyme"</title>
				<polygon class="PF00364" points="383,37 386,40 383,43" stroke-linejoin="round" width="6" height="24" fill="rgb(67,214,213)" stroke="rgb(53,171,170)" stroke-width="1" opacity="0.75" />
			</g>
		</g>
		<g>
			<title> (ctg6_147)</title>
			<polygon class=" (ctg6_147)" points="391,10 418,40 391,70" fill="rgb(255,255,255)" fill-opacity="1.0" stroke="rgb(0,0,0)" stroke-width="2"  />
			<g>
				<title>Thioesterase (PF00975)
"Thioesterase domain"</title>
				<polygon class="PF00975" points="394,28 403,28 414,40 403,52 394,52" stroke-linejoin="round" width="23" height="24" fill="rgb(207,80,138)" stroke="rgb(165,63,110)" stroke-width="1" opacity="0.75" />
			</g>
		</g>
		<g>
			<title> (ctg6_148)</title>
			<polygon class=" (ctg6_148)" points="419,10 442,40 419,70" fill="rgb(255,255,255)" fill-opacity="1.0" stroke="rgb(0,0,0)" stroke-width="2"  />
			<g>
				<title>ACPS (PF01648)
"4'-phosphopantetheinyl transferase superfamily"</title>
				<polygon class="PF01648" points="431,31 438,40 438,40 431,49" stroke-linejoin="round" width="7" height="24" fill="rgb(85,184,135)" stroke="rgb(68,147,108)" stroke-width="1" opacity="0.75" />
			</g>
		</g>
		<g>
			<title> (ctg6_149)</title>
			<polygon class=" (ctg6_149)" points="468,25 473,25 473,10 503,40 473,70 473,55 468,55" fill="rgb(255,255,255)" fill-opacity="1.0" stroke="rgb(0,0,0)" stroke-width="2"  />
			<g>
				<title>PALP (PF00291)
"Pyridoxal-phosphate dependent enzyme"</title>
				<polygon class="PF00291" points="469,28 487,28 496,37 496,43 487,52 469,52" stroke-linejoin="round" width="27" height="24" fill="rgb(180,55,145)" stroke="rgb(144,44,116)" stroke-width="1" opacity="0.75" />
			</g>
		</g>
		<g>
			<title> (ctg6_150)</title>
			<polygon class=" (ctg6_150)" points="504,25 569,25 569,10 599,40 569,70 569,55 504,55" fill="rgb(255,255,255)" fill-opacity="1.0" stroke="rgb(0,0,0)" stroke-width="2"  />
			<g>
				<title>PP-binding (PF00550)
"Phosphopantetheine attachment site"</title>
				<rect class="PF00550" x="508" y="28" stroke-linejoin="round" width="6" height="24" fill="rgb(103,191,88)" stroke="rgb(82,152,70)" stroke-width="1" opacity="0.75" />
			</g>
			<g>
				<title>PP-binding (PF00550)
"Phosphopantetheine attachment site"</title>
				<rect class="PF00550" x="515" y="28" stroke-linejoin="round" width="6" height="24" fill="rgb(103,191,88)" stroke="rgb(82,152,70)" stroke-width="1" opacity="0.75" />
			</g>
		</g>
		<g>
			<title> (ctg6_151)</title>
			<polygon class=" (ctg6_151)" points="599,25 653,25 653,10 683,40 653,70 653,55 599,55" fill="rgb(255,255,255)" fill-opacity="1.0" stroke="rgb(0,0,0)" stroke-width="2"  />
			<g>
				<title>AMP-binding (PF00501)
"AMP-binding enzyme"</title>
				<rect class="PF00501" x="624" y="28" stroke-linejoin="round" width="40" height="24" fill="rgb(60,217,223)" stroke="rgb(48,173,178)" stroke-width="1" opacity="0.75" />
			</g>
			<g>
				<title>AMP-binding_C (PF13193)
"AMP-binding enzyme C-terminal domain"</title>
				<polygon class="PF13193" points="665,28 666,28 672,34 672,46 666,52 665,52" stroke-linejoin="round" width="7" height="24" fill="rgb(182,50,118)" stroke="rgb(145,39,94)" stroke-width="1" opacity="0.75" />
			</g>
			<g>
				<title>PP-binding (PF00550)
"Phosphopantetheine attachment site"</title>
				<polygon class="PF00550" points="675,37 678,40 675,43" stroke-linejoin="round" width="6" height="24" fill="rgb(103,191,88)" stroke="rgb(82,152,70)" stroke-width="1" opacity="0.75" />
			</g>
		</g>
		<g>
			<title> (ctg6_152)</title>
			<polygon class=" (ctg6_152)" points="684,25 687,25 687,10 717,40 687,70 687,55 684,55" fill="rgb(255,255,255)" fill-opacity="1.0" stroke="rgb(0,0,0)" stroke-width="2"  />
			<g>
				<title>TauD (PF02668)
"Taurine catabolism dioxygenase TauD, TfdA family"</title>
				<polygon class="PF02668" points="685,28 701,28 713,40 701,52 685,52" stroke-linejoin="round" width="30" height="24" fill="rgb(180,79,217)" stroke="rgb(144,63,173)" stroke-width="1" opacity="0.75" />
			</g>
		</g>
		<g>
			<title> (ctg6_153)</title>
			<polygon class=" (ctg6_153)" points="717,25 723,25 723,10 753,40 723,70 723,55 717,55" fill="rgb(255,255,255)" fill-opacity="1.0" stroke="rgb(0,0,0)" stroke-width="2"  />
			<g>
				<title>OCD_Mu_crystall (PF02423)
"Ornithine cyclodeaminase/mu-crystallin family"</title>
				<polygon class="PF02423" points="719,28 736,28 748,40 736,52 719,52" stroke-linejoin="round" width="31" height="24" fill="rgb(221,120,93)" stroke="rgb(176,96,74)" stroke-width="1" opacity="0.75" />
			</g>
		</g>
		<g>
			<title> (ctg6_154)</title>
			<polygon class=" (ctg6_154)" points="760,25 777,25 777,10 807,40 777,70 777,55 760,55" fill="rgb(255,255,255)" fill-opacity="1.0" stroke="rgb(0,0,0)" stroke-width="2"  />
			<g>
				<title>Sugar_tr (PF00083)
"Sugar (and other) transporter"</title>
				<rect class="PF00083" x="762" y="28" stroke-linejoin="round" width="22" height="24" fill="rgb(48,186,105)" stroke="rgb(38,148,84)" stroke-width="1" opacity="0.75" />
			</g>
		</g>
		<g>
			<title> (ctg6_155)</title>
			<polygon class=" (ctg6_155)" points="858,25 839,25 839,10 809,40 839,70 839,55 858,55" fill="rgb(255,255,255)" fill-opacity="1.0" stroke="rgb(0,0,0)" stroke-width="2"  />
			<g>
				<title>Pyr_redox_dim (PF02852)
"Pyridine nucleotide-disulphide oxidoreductase, dimerisation domain"</title>
				<polygon class="PF02852" points="813,40 819,34 819,46" stroke-linejoin="round" width="10" height="24" fill="rgb(191,148,67)" stroke="rgb(152,118,53)" stroke-width="1" opacity="0.75" />
			</g>
			<g>
				<title>Pyr_redox_2 (PF07992)
"Pyridine nucleotide-disulphide oxidoreductase"</title>
				<polygon class="PF07992" points="822,31 825,28 854,28 854,52 825,52 822,49" stroke-linejoin="round" width="32" height="24" fill="rgb(83,223,167)" stroke="rgb(66,178,133)" stroke-width="1" opacity="0.75" />
			</g>
		</g>
		<g>
			<title> (ctg6_156)</title>
			<polygon class=" (ctg6_156)" points="860,10 887,40 860,70" fill="rgb(255,255,255)" fill-opacity="1.0" stroke="rgb(0,0,0)" stroke-width="2"  />
			<g>
				<title>PNP_UDP_1 (PF01048)
"Phosphorylase superfamily"</title>
				<polygon class="PF01048" points="863,28 871,28 883,40 871,52 863,52" stroke-linejoin="round" width="23" height="24" fill="rgb(75,186,148)" stroke="rgb(60,148,118)" stroke-width="1" opacity="0.75" />
			</g>
		</g>
		<g>
			<title> (ctg6_157)</title>
			<polygon class=" (ctg6_157)" points="889,25 917,25 917,10 947,40 917,70 917,55 889,55" fill="rgb(255,255,255)" fill-opacity="1.0" stroke="rgb(0,0,0)" stroke-width="2"  />
			<g>
				<title>PGM_PMM_I (PF02878)
"Phosphoglucomutase/phosphomannomutase, alpha/beta/alpha domain I"</title>
				<rect class="PF02878" x="894" y="28" stroke-linejoin="round" width="15" height="24" fill="rgb(217,133,102)" stroke="rgb(173,106,81)" stroke-width="1" opacity="0.75" />
			</g>
			<g>
				<title>PGM_PMM_II (PF02879)
"Phosphoglucomutase/phosphomannomutase, alpha/beta/alpha domain II"</title>
				<rect class="PF02879" x="912" y="28" stroke-linejoin="round" width="10" height="24" fill="rgb(192,221,60)" stroke="rgb(153,176,48)" stroke-width="1" opacity="0.75" />
			</g>
			<g>
				<title>PGM_PMM_III (PF02880)
"Phosphoglucomutase/phosphomannomutase, alpha/beta/alpha domain III"</title>
				<polygon class="PF02880" points="924,28 931,28 935,32 935,48 931,52 924,52" stroke-linejoin="round" width="11" height="24" fill="rgb(67,204,90)" stroke="rgb(53,163,72)" stroke-width="1" opacity="0.75" />
			</g>
			<g>
				<title>PGM_PMM_IV (PF00408)
"Phosphoglucomutase/phosphomannomutase, C-terminal domain"</title>
				<polygon class="PF00408" points="936,33 943,40 936,47" stroke-linejoin="round" width="9" height="24" fill="rgb(74,205,143)" stroke="rgb(59,164,114)" stroke-width="1" opacity="0.75" />
			</g>
		</g>
		<g>
			<title> (ctg6_158)</title>
			<polygon class=" (ctg6_158)" points="991,25 979,25 979,10 949,40 979,70 979,55 991,55" fill="rgb(255,255,255)" fill-opacity="1.0" stroke="rgb(0,0,0)" stroke-width="2"  />
			<g>
				<title>HGSNAT_cat (PF07786)
"Heparan-alpha-glucosaminide N-acetyltransferase, catalytic"</title>
				<polygon class="PF07786" points="965,28 965,28 987,28 987,52 965,52 965,52" stroke-linejoin="round" width="22" height="24" fill="rgb(166,59,205)" stroke="rgb(132,47,164)" stroke-width="1" opacity="0.75" />
			</g>
		</g>
		<g>
			<title> (ctg6_159)</title>
			<polygon class=" (ctg6_159)" points="1027,25 1027,25 1027,10 997,40 1027,70 1027,55 1027,55" fill="rgb(255,255,255)" fill-opacity="1.0" stroke="rgb(0,0,0)" stroke-width="2"  />
		</g>
		<g>
			<title> (ctg6_160)</title>
			<polygon class=" (ctg6_160)" points="1034,40 1047,10 1047,70" fill="rgb(255,255,255)" fill-opacity="1.0" stroke="rgb(0,0,0)" stroke-width="2"  />
			<g>
				<title>Rieske_2 (PF13806)
"Rieske-like [2Fe-2S] domain"</title>
				<polygon class="PF13806" points="1037,40 1042,28 1044,28 1044,52 1042,52" stroke-linejoin="round" width="10" height="24" fill="rgb(199,54,100)" stroke="rgb(159,43,79)" stroke-width="1" opacity="0.75" />
			</g>
		</g>
		<g>
			<title> (ctg6_161)</title>
			<polygon class=" (ctg6_161)" points="1055,25 1112,25 1112,10 1142,40 1112,70 1112,55 1055,55" fill="rgb(255,255,255)" fill-opacity="1.0" stroke="rgb(0,0,0)" stroke-width="2"  />
			<g>
				<title>Pyr_redox_2 (PF07992)
"Pyridine nucleotide-disulphide oxidoreductase"</title>
				<rect class="PF07992" x="1056" y="28" stroke-linejoin="round" width="30" height="24" fill="rgb(83,223,167)" stroke="rgb(66,178,133)" stroke-width="1" opacity="0.75" />
			</g>
			<g>
				<title>Rubredoxin_C (PF18267)
"Rubredoxin NAD+ reductase C-terminal domain"</title>
				<rect class="PF18267" x="1088" y="28" stroke-linejoin="round" width="7" height="24" fill="rgb(130,82,207)" stroke="rgb(104,65,165)" stroke-width="1" opacity="0.75" />
			</g>
			<g>
				<title>Fer2_BFD (PF04324)
"BFD-like [2Fe-2S] binding domain"</title>
				<rect class="PF04324" x="1098" y="28" stroke-linejoin="round" width="4" height="24" fill="rgb(216,103,169)" stroke="rgb(172,82,135)" stroke-width="1" opacity="0.75" />
			</g>
			<g>
				<title>NIR_SIR_ferr (PF03460)
"Nitrite/Sulfite reductase ferredoxin-like half domain"</title>
				<rect class="PF03460" x="1111" y="28" stroke-linejoin="round" width="6" height="24" fill="rgb(51,200,158)" stroke="rgb(40,160,126)" stroke-width="1" opacity="0.75" />
			</g>
			<g>
				<title>NIR_SIR (PF01077)
"Nitrite and sulphite reductase 4Fe-4S domain"</title>
				<polygon class="PF01077" points="1118,28 1126,28 1132,34 1132,46 1126,52 1118,52" stroke-linejoin="round" width="14" height="24" fill="rgb(96,208,89)" stroke="rgb(76,166,71)" stroke-width="1" opacity="0.75" />
			</g>
		</g>
		<g>
			<title> (ctg6_162)</title>
			<polygon class=" (ctg6_162)" points="1184,25 1175,25 1175,10 1145,40 1175,70 1175,55 1184,55" fill="rgb(255,255,255)" fill-opacity="1.0" stroke="rgb(0,0,0)" stroke-width="2"  />
			<g>
				<title>HGSNAT_cat (PF07786)
"Heparan-alpha-glucosaminide N-acetyltransferase, catalytic"</title>
				<polygon class="PF07786" points="1160,29 1161,28 1182,28 1182,52 1161,52 1160,51" stroke-linejoin="round" width="22" height="24" fill="rgb(166,59,205)" stroke="rgb(132,47,164)" stroke-width="1" opacity="0.75" />
			</g>
		</g>
		<g>
			<title> (ctg6_163)</title>
			<polygon class=" (ctg6_163)" points="1194,25 1202,25 1202,10 1232,40 1202,70 1202,55 1194,55" fill="rgb(255,255,255)" fill-opacity="1.0" stroke="rgb(0,0,0)" stroke-width="2"  />
			<g>
				<title>HEM4 (PF02602)
"Uroporphyrinogen-III synthase HemD"</title>
				<polygon class="PF02602" points="1197,28 1216,28 1221,33 1221,47 1216,52 1197,52" stroke-linejoin="round" width="24" height="24" fill="rgb(191,152,50)" stroke="rgb(152,121,39)" stroke-width="1" opacity="0.75" />
			</g>
			<g>
				<title>Trans_reg_C (PF00486)
"Transcriptional regulatory protein, C terminal"</title>
				<polygon class="PF00486" points="1225,37 1228,40 1225,43" stroke-linejoin="round" width="6" height="24" fill="rgb(204,153,57)" stroke="rgb(163,122,45)" stroke-width="1" opacity="0.75" />
			</g>
		</g>
		<g>
			<title> (ctg6_164)</title>
			<polygon class=" (ctg6_164)" points="1272,25 1262,25 1262,10 1232,40 1262,70 1262,55 1272,55" fill="rgb(255,255,255)" fill-opacity="1.0" stroke="rgb(0,0,0)" stroke-width="2"  />
			<g>
				<title>HGSNAT_cat (PF07786)
"Heparan-alpha-glucosaminide N-acetyltransferase, catalytic"</title>
				<polygon class="PF07786" points="1247,29 1248,28 1269,28 1269,52 1248,52 1247,51" stroke-linejoin="round" width="22" height="24" fill="rgb(166,59,205)" stroke="rgb(132,47,164)" stroke-width="1" opacity="0.75" />
			</g>
		</g>
		<g>
			<title> (ctg6_165)</title>
			<polygon class=" (ctg6_165)" points="1331,25 1308,25 1308,10 1278,40 1308,70 1308,55 1331,55" fill="rgb(255,255,255)" fill-opacity="1.0" stroke="rgb(0,0,0)" stroke-width="2"  />
			<g>
				<title>Fer2_BFD (PF04324)
"BFD-like [2Fe-2S] binding domain"</title>
				<polygon class="PF04324" points="1282,40 1282,40 1282,40" stroke-linejoin="round" width="4" height="24" fill="rgb(216,103,169)" stroke="rgb(172,82,135)" stroke-width="1" opacity="0.75" />
			</g>
			<g>
				<title>Pyr_redox_2 (PF07992)
"Pyridine nucleotide-disulphide oxidoreductase"</title>
				<rect class="PF07992" x="1298" y="28" stroke-linejoin="round" width="31" height="24" fill="rgb(83,223,167)" stroke="rgb(66,178,133)" stroke-width="1" opacity="0.75" />
			</g>
		</g>
		<g>
			<title> (ctg6_166)</title>
			<polygon class=" (ctg6_166)" points="1402,25 1361,25 1361,10 1331,40 1361,70 1361,55 1402,55" fill="rgb(255,255,255)" fill-opacity="1.0" stroke="rgb(0,0,0)" stroke-width="2"  />
			<g>
				<title>Molydop_binding (PF01568)
"Molydopterin dinucleotide binding domain"</title>
				<polygon class="PF01568" points="1335,40 1342,33 1342,47" stroke-linejoin="round" width="10" height="24" fill="rgb(184,132,64)" stroke="rgb(147,105,51)" stroke-width="1" opacity="0.75" />
			</g>
			<g>
				<title>Molybdopterin (PF00384)
"Molybdopterin oxidoreductase"</title>
				<rect class="PF00384" x="1353" y="28" stroke-linejoin="round" width="43" height="24" fill="rgb(65,194,78)" stroke="rgb(52,155,62)" stroke-width="1" opacity="0.75" />
			</g>
			<g>
				<title>Molybdop_Fe4S4 (PF04879)
"Molybdopterin oxidoreductase Fe4S4 domain"</title>
				<rect class="PF04879" x="1396" y="28" stroke-linejoin="round" width="5" height="24" fill="rgb(186,68,186)" stroke="rgb(148,54,148)" stroke-width="1" opacity="0.75" />
			</g>
		</g>
		<g>
			<title> (ctg6_167)</title>
			<polygon class=" (ctg6_167)" points="1452,25 1435,25 1435,10 1405,40 1435,70 1435,55 1452,55" fill="rgb(255,255,255)" fill-opacity="1.0" stroke="rgb(0,0,0)" stroke-width="2"  />
			<g>
				<title>MFS_1 (PF07690)
"Major Facilitator Superfamily"</title>
				<polygon class="PF07690" points="1409,40 1421,28 1445,28 1445,52 1421,52 1409,40" stroke-linejoin="round" width="36" height="24" fill="rgb(193,224,74)" stroke="rgb(154,179,59)" stroke-width="1" opacity="0.75" />
			</g>
		</g>
		<g>
			<title> (ctg6_168)</title>
			<polygon class=" (ctg6_168)" points="1502,25 1492,25 1492,10 1462,40 1492,70 1492,55 1502,55" fill="rgb(255,255,255)" fill-opacity="1.0" stroke="rgb(0,0,0)" stroke-width="2"  />
			<g>
				<title>HGSNAT_cat (PF07786)
"Heparan-alpha-glucosaminide N-acetyltransferase, catalytic"</title>
				<polygon class="PF07786" points="1476,30 1478,28 1498,28 1498,52 1478,52 1476,50" stroke-linejoin="round" width="22" height="24" fill="rgb(166,59,205)" stroke="rgb(132,47,164)" stroke-width="1" opacity="0.75" />
			</g>
		</g>
		<g>
			<title> (ctg6_169)</title>
			<polygon class=" (ctg6_169)" points="1637,25 1532,25 1532,10 1502,40 1532,70 1532,55 1637,55" fill="rgb(255,255,255)" fill-opacity="1.0" stroke="rgb(0,0,0)" stroke-width="2"  />
			<g>
				<title>PP-binding (PF00550)
"Phosphopantetheine attachment site"</title>
				<rect class="PF00550" x="1575" y="28" stroke-linejoin="round" width="6" height="24" fill="rgb(103,191,88)" stroke="rgb(82,152,70)" stroke-width="1" opacity="0.75" />
			</g>
			<g>
				<title>AMP-binding (PF00501)
"AMP-binding enzyme"</title>
				<rect class="PF00501" x="1593" y="28" stroke-linejoin="round" width="37" height="24" fill="rgb(60,217,223)" stroke="rgb(48,173,178)" stroke-width="1" opacity="0.75" />
			</g>
		</g>
		<g>
			<title> (ctg6_170)</title>
			<polygon class=" (ctg6_170)" points="1683,25 1679,25 1679,10 1649,40 1679,70 1679,55 1683,55" fill="rgb(255,255,255)" fill-opacity="1.0" stroke="rgb(0,0,0)" stroke-width="2"  />
		</g>
		<g>
			<title> (ctg6_171)</title>
			<polygon class=" (ctg6_171)" points="1689,25 1709,25 1709,10 1739,40 1709,70 1709,55 1689,55" fill="rgb(255,255,255)" fill-opacity="1.0" stroke="rgb(0,0,0)" stroke-width="2"  />
			<g>
				<title>AA_permease (PF00324)
"Amino acid permease"</title>
				<polygon class="PF00324" points="1692,28 1722,28 1734,40 1722,52 1692,52" stroke-linejoin="round" width="45" height="24" fill="rgb(82,225,201)" stroke="rgb(65,180,160)" stroke-width="1" opacity="0.75" />
			</g>
		</g>
		<g>
			<title> (ctg6_172)</title>
			<polygon class=" (ctg6_172)" points="1743,40 1767,10 1767,70" fill="rgb(255,255,255)" fill-opacity="1.0" stroke="rgb(0,0,0)" stroke-width="2"  />
			<g>
				<title>CbiX (PF01903)
"CbiX"</title>
				<polygon class="PF01903" points="1747,40 1753,33 1753,47" stroke-linejoin="round" width="9" height="24" fill="rgb(93,58,208)" stroke="rgb(74,46,166)" stroke-width="1" opacity="0.75" />
			</g>
			<g>
				<title>CbiX (PF01903)
"CbiX"</title>
				<polygon class="PF01903" points="1756,29 1757,28 1765,28 1765,52 1757,52 1756,51" stroke-linejoin="round" width="9" height="24" fill="rgb(93,58,208)" stroke="rgb(74,46,166)" stroke-width="1" opacity="0.75" />
			</g>
		</g>
		<g>
			<title> (ctg6_173)</title>
			<polygon class=" (ctg6_173)" points="1772,25 1776,25 1776,10 1806,40 1776,70 1776,55 1772,55" fill="rgb(255,255,255)" fill-opacity="1.0" stroke="rgb(0,0,0)" stroke-width="2"  />
			<g>
				<title>TP_methylase (PF00590)
"Tetrapyrrole (Corrin/Porphyrin) Methylases"</title>
				<polygon class="PF00590" points="1780,28 1789,28 1801,40 1801,40 1789,52 1780,52" stroke-linejoin="round" width="21" height="24" fill="rgb(124,218,92)" stroke="rgb(99,174,73)" stroke-width="1" opacity="0.75" />
			</g>
		</g>
		<g>
			<title> (ctg6_174)</title>
			<polygon class=" (ctg6_174)" points="1806,10 1834,40 1806,70" fill="rgb(255,255,255)" fill-opacity="1.0" stroke="rgb(0,0,0)" stroke-width="2"  />
			<g>
				<title>HEM4 (PF02602)
"Uroporphyrinogen-III synthase HemD"</title>
				<polygon class="PF02602" points="1808,28 1818,28 1830,40 1818,52 1808,52" stroke-linejoin="round" width="24" height="24" fill="rgb(191,152,50)" stroke="rgb(152,121,39)" stroke-width="1" opacity="0.75" />
			</g>
		</g>
		<g>
			<title> (ctg6_175)</title>
			<polygon class=" (ctg6_175)" points="1849,10 1870,40 1849,70" fill="rgb(255,255,255)" fill-opacity="1.0" stroke="rgb(0,0,0)" stroke-width="2"  />
			<g>
				<title>DeoC (PF01791)
"DeoC/LacD family aldolase"</title>
				<polygon class="PF01791" points="1849,28 1858,28 1867,40 1858,52 1849,52" stroke-linejoin="round" width="21" height="24" fill="rgb(151,59,198)" stroke="rgb(120,47,158)" stroke-width="1" opacity="0.75" />
			</g>
		</g>
		<g>
			<title> (ctg6_176)</title>
			<polygon class=" (ctg6_176)" points="1887,25 1897,25 1897,10 1927,40 1897,70 1897,55 1887,55" fill="rgb(255,255,255)" fill-opacity="1.0" stroke="rgb(0,0,0)" stroke-width="2"  />
			<g>
				<title>DEDD_Tnp_IS110 (PF01548)
"Transposase"</title>
				<rect class="PF01548" x="1888" y="28" stroke-linejoin="round" width="15" height="24" fill="rgb(59,200,207)" stroke="rgb(47,160,165)" stroke-width="1" opacity="0.75" />
			</g>
			<g>
				<title>Transposase_20 (PF02371)
"Transposase IS116/IS110/IS902 family"</title>
				<polygon class="PF02371" points="1914,31 1922,39 1922,41 1914,49" stroke-linejoin="round" width="8" height="24" fill="rgb(104,204,65)" stroke="rgb(83,163,52)" stroke-width="1" opacity="0.75" />
			</g>
		</g>
		<g>
			<title> (ctg6_177)</title>
			<polygon class=" (ctg6_177)" points="1963,10 1989,40 1963,70" fill="rgb(255,255,255)" fill-opacity="1.0" stroke="rgb(0,0,0)" stroke-width="2"  />
			<g>
				<title>Glycos_transf_2 (PF00535)
"Glycosyl transferase family 2"</title>
				<polygon class="PF00535" points="1966,28 1975,28 1982,37 1982,43 1975,52 1966,52" stroke-linejoin="round" width="16" height="24" fill="rgb(224,122,96)" stroke="rgb(179,97,76)" stroke-width="1" opacity="0.75" />
			</g>
		</g>
		<g>
			<title> (ctg6_178)</title>
			<polygon class=" (ctg6_178)" points="1989,25 2007,25 2007,10 2037,40 2007,70 2007,55 1989,55" fill="rgb(255,255,255)" fill-opacity="1.0" stroke="rgb(0,0,0)" stroke-width="2"  />
			<g>
				<title>Glyco_transf_4 (PF13439)
"Glycosyltransferase Family 4"</title>
				<rect class="PF13439" x="1991" y="28" stroke-linejoin="round" width="16" height="24" fill="rgb(162,57,186)" stroke="rgb(129,45,148)" stroke-width="1" opacity="0.75" />
			</g>
			<g>
				<title>Glycos_transf_1 (PF00534)
"Glycosyl transferases group 1"</title>
				<polygon class="PF00534" points="2007,28 2020,28 2023,31 2023,49 2020,52 2007,52" stroke-linejoin="round" width="16" height="24" fill="rgb(228,92,150)" stroke="rgb(182,73,119)" stroke-width="1" opacity="0.75" />
			</g>
		</g>
	</g>
</svg>
