<svg version="1.1" baseProfile="full" xmlns="http://www.w3.org/2000/svg" width="1389.4333333333334" height="80">
	<g>
		<line x1="10" y1="40.0" x2="1379.4333333333334" y2="40.0" style="stroke:rgb(70,70,70); stroke-width:3 "/>
		<g>
			<title> (ctg3_106)</title>
			<polygon class=" (ctg3_106)" points="44,10 69,40 44,70" fill="rgb(255,255,255)" fill-opacity="1.0" stroke="rgb(0,0,0)" stroke-width="2"  />
		</g>
		<g>
			<title> (ctg3_107)</title>
			<polygon class=" (ctg3_107)" points="72,40 88,10 88,70" fill="rgb(255,255,255)" fill-opacity="1.0" stroke="rgb(0,0,0)" stroke-width="2"  />
			<g>
				<title>AHSA1 (PF08327)
"Activator of Hsp90 ATPase homolog 1-like protein"</title>
				<polygon class="PF08327" points="75,40 81,28 85,28 85,52 81,52" stroke-linejoin="round" width="11" height="24" fill="rgb(81,199,171)" stroke="rgb(64,159,136)" stroke-width="1" opacity="0.75" />
			</g>
		</g>
		<g>
			<title> (ctg3_108)</title>
			<polygon class=" (ctg3_108)" points="93,10 105,40 93,70" fill="rgb(255,255,255)" fill-opacity="1.0" stroke="rgb(0,0,0)" stroke-width="2"  />
			<g>
				<title>DUF4440 (PF14534)
"Domain of unknown function (DUF4440)"</title>
				<polygon class="PF14534" points="93,28 96,28 102,40 96,52 93,52" stroke-linejoin="round" width="10" height="24" fill="rgb(63,159,224)" stroke="rgb(50,127,179)" stroke-width="1" opacity="0.75" />
			</g>
		</g>
		<g>
			<title> (ctg3_109)</title>
			<polygon class=" (ctg3_109)" points="105,40 131,10 131,70" fill="rgb(255,255,255)" fill-opacity="1.0" stroke="rgb(0,0,0)" stroke-width="2"  />
			<g>
				<title>TauE (PF01925)
"Sulfite exporter TauE/SafE"</title>
				<polygon class="PF01925" points="109,40 120,28 128,28 128,52 120,52" stroke-linejoin="round" width="23" height="24" fill="rgb(105,203,95)" stroke="rgb(84,162,76)" stroke-width="1" opacity="0.75" />
			</g>
		</g>
		<g>
			<title> (ctg3_110)</title>
			<polygon class=" (ctg3_110)" points="135,10 154,40 135,70" fill="rgb(255,255,255)" fill-opacity="1.0" stroke="rgb(0,0,0)" stroke-width="2"  />
			<g>
				<title>NTP_transf_6 (PF06042)
"Nucleotidyltransferase"</title>
				<polygon class="PF06042" points="137,28 142,28 150,40 142,52 137,52" stroke-linejoin="round" width="16" height="24" fill="rgb(101,227,61)" stroke="rgb(80,181,48)" stroke-width="1" opacity="0.75" />
			</g>
		</g>
		<g>
			<title> (ctg3_111)</title>
			<polygon class=" (ctg3_111)" points="155,10 170,40 155,70" fill="rgb(255,255,255)" fill-opacity="1.0" stroke="rgb(0,0,0)" stroke-width="2"  />
			<g>
				<title>DinB_2 (PF12867)
"DinB superfamily"</title>
				<polygon class="PF12867" points="156,28 160,28 167,40 160,52 156,52" stroke-linejoin="round" width="13" height="24" fill="rgb(184,90,185)" stroke="rgb(147,72,148)" stroke-width="1" opacity="0.75" />
			</g>
		</g>
		<g>
			<title> (ctg3_112)</title>
			<polygon class=" (ctg3_112)" points="171,10 198,40 171,70" fill="rgb(255,255,255)" fill-opacity="1.0" stroke="rgb(0,0,0)" stroke-width="2"  />
			<g>
				<title>HTH_18 (PF12833)
"Helix-turn-helix domain"</title>
				<polygon class="PF12833" points="189,34 194,40 189,46" stroke-linejoin="round" width="7" height="24" fill="rgb(216,58,224)" stroke="rgb(172,46,179)" stroke-width="1" opacity="0.75" />
			</g>
		</g>
		<g>
			<title> (ctg3_113)</title>
			<polygon class=" (ctg3_113)" points="205,25 207,25 207,10 237,40 207,70 207,55 205,55" fill="rgb(255,255,255)" fill-opacity="1.0" stroke="rgb(0,0,0)" stroke-width="2"  />
			<g>
				<title>Peripla_BP_2 (PF01497)
"Periplasmic binding protein"</title>
				<polygon class="PF01497" points="211,28 221,28 233,40 221,52 211,52" stroke-linejoin="round" width="23" height="24" fill="rgb(183,226,104)" stroke="rgb(146,180,83)" stroke-width="1" opacity="0.75" />
			</g>
		</g>
		<g>
			<title> (ctg3_114)</title>
			<polygon class=" (ctg3_114)" points="241,25 244,25 244,10 274,40 244,70 244,55 241,55" fill="rgb(255,255,255)" fill-opacity="1.0" stroke="rgb(0,0,0)" stroke-width="2"  />
			<g>
				<title>FecCD (PF01032)
"FecCD transport family"</title>
				<polygon class="PF01032" points="242,28 258,28 270,40 258,52 242,52" stroke-linejoin="round" width="31" height="24" fill="rgb(210,177,70)" stroke="rgb(168,141,56)" stroke-width="1" opacity="0.75" />
			</g>
		</g>
		<g>
			<title> (ctg3_115)</title>
			<polygon class=" (ctg3_115)" points="275,25 279,25 279,10 309,40 279,70 279,55 275,55" fill="rgb(255,255,255)" fill-opacity="1.0" stroke="rgb(0,0,0)" stroke-width="2"  />
			<g>
				<title>FecCD (PF01032)
"FecCD transport family"</title>
				<polygon class="PF01032" points="276,28 293,28 305,40 293,52 276,52" stroke-linejoin="round" width="32" height="24" fill="rgb(210,177,70)" stroke="rgb(168,141,56)" stroke-width="1" opacity="0.75" />
			</g>
		</g>
		<g>
			<title> (ctg3_116)</title>
			<polygon class=" (ctg3_116)" points="309,10 335,40 309,70" fill="rgb(255,255,255)" fill-opacity="1.0" stroke="rgb(0,0,0)" stroke-width="2"  />
			<g>
				<title>ABC_tran (PF00005)
"ABC transporter"</title>
				<polygon class="PF00005" points="311,28 320,28 325,33 325,47 320,52 311,52" stroke-linejoin="round" width="14" height="24" fill="rgb(129,201,63)" stroke="rgb(103,160,50)" stroke-width="1" opacity="0.75" />
			</g>
		</g>
		<g>
			<title> (ctg3_117)</title>
			<polygon class=" (ctg3_117)" points="336,10 361,40 336,70" fill="rgb(255,255,255)" fill-opacity="1.0" stroke="rgb(0,0,0)" stroke-width="2"  />
			<g>
				<title>Esterase (PF00756)
"Putative esterase"</title>
				<polygon class="PF00756" points="337,28 347,28 357,40 347,52 337,52" stroke-linejoin="round" width="22" height="24" fill="rgb(217,132,77)" stroke="rgb(173,105,61)" stroke-width="1" opacity="0.75" />
			</g>
		</g>
		<g>
			<title> (ctg3_118)</title>
			<polygon class=" (ctg3_118)" points="366,25 388,25 388,10 418,40 388,70 388,55 366,55" fill="rgb(255,255,255)" fill-opacity="1.0" stroke="rgb(0,0,0)" stroke-width="2"  />
			<g>
				<title>BCCT (PF02028)
"BCCT, betaine/carnitine/choline family transporter"</title>
				<polygon class="PF02028" points="367,28 402,28 414,40 402,52 367,52" stroke-linejoin="round" width="48" height="24" fill="rgb(206,109,74)" stroke="rgb(164,87,59)" stroke-width="1" opacity="0.75" />
			</g>
		</g>
		<g>
			<title> (ctg3_119)</title>
			<polygon class=" (ctg3_119)" points="431,10 448,40 431,70" fill="rgb(255,255,255)" fill-opacity="1.0" stroke="rgb(0,0,0)" stroke-width="2"  />
			<g>
				<title>DinB_2 (PF12867)
"DinB superfamily"</title>
				<polygon class="PF12867" points="434,28 438,28 445,40 438,52 434,52" stroke-linejoin="round" width="13" height="24" fill="rgb(184,90,185)" stroke="rgb(147,72,148)" stroke-width="1" opacity="0.75" />
			</g>
		</g>
		<g>
			<title> (ctg3_120)</title>
			<polygon class=" (ctg3_120)" points="452,40 472,10 472,70" fill="rgb(255,255,255)" fill-opacity="1.0" stroke="rgb(0,0,0)" stroke-width="2"  />
		</g>
		<g>
			<title> (ctg3_121)</title>
			<polygon class=" (ctg3_121)" points="518,25 509,25 509,10 479,40 509,70 509,55 518,55" fill="rgb(255,255,255)" fill-opacity="1.0" stroke="rgb(0,0,0)" stroke-width="2"  />
		</g>
		<g>
			<title> (ctg3_122)</title>
			<polygon class=" (ctg3_122)" points="526,10 547,40 526,70" fill="rgb(255,255,255)" fill-opacity="1.0" stroke="rgb(0,0,0)" stroke-width="2"  />
		</g>
		<g>
			<title> (ctg3_123)</title>
			<polygon class=" (ctg3_123)" points="550,10 569,40 550,70" fill="rgb(255,255,255)" fill-opacity="1.0" stroke="rgb(0,0,0)" stroke-width="2"  />
		</g>
		<g>
			<title> (ctg3_124)</title>
			<polygon class=" (ctg3_124)" points="569,10 578,40 569,70" fill="rgb(255,255,255)" fill-opacity="1.0" stroke="rgb(0,0,0)" stroke-width="2"  />
		</g>
		<g>
			<title> (ctg3_125)</title>
			<polygon class=" (ctg3_125)" points="579,10 603,40 579,70" fill="rgb(255,255,255)" fill-opacity="1.0" stroke="rgb(0,0,0)" stroke-width="2"  />
		</g>
		<g>
			<title> (ctg3_126)</title>
			<polygon class=" (ctg3_126)" points="607,40 612,10 612,70" fill="rgb(255,255,255)" fill-opacity="1.0" stroke="rgb(0,0,0)" stroke-width="2"  />
			<g>
				<title>Ribosomal_L33 (PF00471)
"Ribosomal protein L33"</title>
				<polygon class="PF00471" points="610,40 611,34 611,46" stroke-linejoin="round" width="4" height="24" fill="rgb(82,52,197)" stroke="rgb(65,41,157)" stroke-width="1" opacity="0.75" />
			</g>
		</g>
		<g>
			<title> (ctg3_127)</title>
			<polygon class=" (ctg3_127)" points="618,25 627,25 627,10 657,40 627,70 627,55 618,55" fill="rgb(255,255,255)" fill-opacity="1.0" stroke="rgb(0,0,0)" stroke-width="2"  />
			<g>
				<title>cobW (PF02492)
"CobW/HypB/UreG, nucleotide-binding domain"</title>
				<rect class="PF02492" x="618" y="28" stroke-linejoin="round" width="20" height="24" fill="rgb(79,112,178)" stroke="rgb(63,89,142)" stroke-width="1" opacity="0.75" />
			</g>
			<g>
				<title>CobW_C (PF07683)
"Cobalamin synthesis protein cobW C-terminal domain"</title>
				<polygon class="PF07683" points="643,30 653,40 643,50" stroke-linejoin="round" width="11" height="24" fill="rgb(172,98,218)" stroke="rgb(137,78,174)" stroke-width="1" opacity="0.75" />
			</g>
		</g>
		<g>
			<title> (ctg3_128)</title>
			<polygon class=" (ctg3_128)" points="658,40 676,10 676,70" fill="rgb(255,255,255)" fill-opacity="1.0" stroke="rgb(0,0,0)" stroke-width="2"  />
			<g>
				<title>ICMT (PF04140)
"Isoprenylcysteine carboxyl methyltransferase (ICMT) family"</title>
				<polygon class="PF04140" points="662,40 668,30 668,50" stroke-linejoin="round" width="9" height="24" fill="rgb(100,223,104)" stroke="rgb(80,178,83)" stroke-width="1" opacity="0.75" />
			</g>
		</g>
		<g>
			<title> (ctg3_129)</title>
			<polygon class=" (ctg3_129)" points="712,25 706,25 706,10 676,40 706,70 706,55 712,55" fill="rgb(255,255,255)" fill-opacity="1.0" stroke="rgb(0,0,0)" stroke-width="2"  />
			<g>
				<title>Chal_sti_synt_C (PF02797)
"Chalcone and stilbene synthases, C-terminal domain"</title>
				<polygon class="PF02797" points="680,40 690,30 690,50" stroke-linejoin="round" width="14" height="24" fill="rgb(139,212,63)" stroke="rgb(111,169,50)" stroke-width="1" opacity="0.75" />
			</g>
			<g>
				<title>Chal_sti_synt_N (PF00195)
"Chalcone and stilbene synthases, N-terminal domain"</title>
				<polygon class="PF00195" points="691,29 692,28 711,28 711,52 692,52 691,51" stroke-linejoin="round" width="20" height="24" fill="rgb(60,181,161)" stroke="rgb(47,144,128)" stroke-width="1" opacity="0.75" />
			</g>
		</g>
		<g>
			<title> (ctg3_130)</title>
			<polygon class=" (ctg3_130)" points="726,25 731,25 731,10 761,40 731,70 731,55 726,55" fill="rgb(255,255,255)" fill-opacity="1.0" stroke="rgb(0,0,0)" stroke-width="2"  />
			<g>
				<title>RsgA_GTPase (PF03193)
"RsgA GTPase"</title>
				<polygon class="PF03193" points="735,28 745,28 752,35 752,45 745,52 735,52" stroke-linejoin="round" width="17" height="24" fill="rgb(89,182,98)" stroke="rgb(71,145,78)" stroke-width="1" opacity="0.75" />
			</g>
		</g>
		<g>
			<title> (ctg3_131)</title>
			<polygon class=" (ctg3_131)" points="762,10 776,40 762,70" fill="rgb(255,255,255)" fill-opacity="1.0" stroke="rgb(0,0,0)" stroke-width="2"  />
			<g>
				<title>Glyoxalase (PF00903)
"Glyoxalase/Bleomycin resistance protein/Dioxygenase superfamily"</title>
				<polygon class="PF00903" points="762,28 767,28 772,40 767,52 762,52" stroke-linejoin="round" width="11" height="24" fill="rgb(50,162,189)" stroke="rgb(40,129,151)" stroke-width="1" opacity="0.75" />
			</g>
		</g>
		<g>
			<title> (ctg3_132)</title>
			<polygon class=" (ctg3_132)" points="777,10 798,40 777,70" fill="rgb(255,255,255)" fill-opacity="1.0" stroke="rgb(0,0,0)" stroke-width="2"  />
			<g>
				<title>HAD_2 (PF13419)
"Haloacid dehalogenase-like hydrolase"</title>
				<polygon class="PF13419" points="777,28 786,28 795,40 795,40 786,52 777,52" stroke-linejoin="round" width="18" height="24" fill="rgb(60,223,188)" stroke="rgb(48,178,150)" stroke-width="1" opacity="0.75" />
			</g>
		</g>
		<g>
			<title> (ctg3_133)</title>
			<polygon class=" (ctg3_133)" points="812,25 836,25 836,10 866,40 836,70 836,55 812,55" fill="rgb(255,255,255)" fill-opacity="1.0" stroke="rgb(0,0,0)" stroke-width="2"  />
			<g>
				<title>tRNA-synt_1g (PF09334)
"tRNA synthetases class I (M)"</title>
				<polygon class="PF09334" points="812,28 850,28 851,29 851,51 850,52 812,52" stroke-linejoin="round" width="39" height="24" fill="rgb(105,223,202)" stroke="rgb(84,178,161)" stroke-width="1" opacity="0.75" />
			</g>
			<g>
				<title>Anticodon_3 (PF19303)
"Anticodon binding domain of methionyl tRNA ligase"</title>
				<polygon class="PF19303" points="853,31 862,40 853,49" stroke-linejoin="round" width="11" height="24" fill="rgb(73,192,68)" stroke="rgb(58,153,54)" stroke-width="1" opacity="0.75" />
			</g>
		</g>
		<g>
			<title> (ctg3_134)</title>
			<polygon class=" (ctg3_134)" points="920,25 898,25 898,10 868,40 898,70 898,55 920,55" fill="rgb(255,255,255)" fill-opacity="1.0" stroke="rgb(0,0,0)" stroke-width="2"  />
			<g>
				<title>LeuA_dimer (PF08502)
"LeuA allosteric (dimerisation) domain"</title>
				<polygon class="PF08502" points="872,40 883,29 883,51" stroke-linejoin="round" width="14" height="24" fill="rgb(182,95,71)" stroke="rgb(145,76,56)" stroke-width="1" opacity="0.75" />
			</g>
			<g>
				<title>HMGL-like (PF00682)
"HMGL-like"</title>
				<rect class="PF00682" x="892" y="28" stroke-linejoin="round" width="27" height="24" fill="rgb(84,228,141)" stroke="rgb(67,182,112)" stroke-width="1" opacity="0.75" />
			</g>
		</g>
		<g>
			<title> (ctg3_135)</title>
			<polygon class=" (ctg3_135)" points="938,10 963,40 938,70" fill="rgb(255,255,255)" fill-opacity="1.0" stroke="rgb(0,0,0)" stroke-width="2"  />
			<g>
				<title>Hydrolase_3 (PF08282)
"haloacid dehalogenase-like hydrolase"</title>
				<polygon class="PF08282" points="938,28 949,28 959,40 949,52 938,52" stroke-linejoin="round" width="23" height="24" fill="rgb(195,74,128)" stroke="rgb(156,59,102)" stroke-width="1" opacity="0.75" />
			</g>
		</g>
		<g>
			<title> (ctg3_136)</title>
			<polygon class=" (ctg3_136)" points="1021,25 995,25 995,10 965,40 995,70 995,55 1021,55" fill="rgb(255,255,255)" fill-opacity="1.0" stroke="rgb(0,0,0)" stroke-width="2"  />
			<g>
				<title>MCPsignal (PF00015)
"Methyl-accepting chemotaxis protein (MCP) signalling domain"</title>
				<polygon class="PF00015" points="969,40 981,28 987,28 987,52 981,52 969,40" stroke-linejoin="round" width="18" height="24" fill="rgb(104,174,223)" stroke="rgb(83,139,178)" stroke-width="1" opacity="0.75" />
			</g>
			<g>
				<title>HAMP (PF00672)
"HAMP domain"</title>
				<rect class="PF00672" x="996" y="28" stroke-linejoin="round" width="5" height="24" fill="rgb(124,89,195)" stroke="rgb(99,71,156)" stroke-width="1" opacity="0.75" />
			</g>
			<g>
				<title>4HB_MCP_1 (PF12729)
"Four helix bundle sensory module for signal transduction"</title>
				<rect class="PF12729" x="1004" y="28" stroke-linejoin="round" width="17" height="24" fill="rgb(100,214,134)" stroke="rgb(79,171,107)" stroke-width="1" opacity="0.75" />
			</g>
		</g>
		<g>
			<title> (ctg3_137)</title>
			<polygon class=" (ctg3_137)" points="1032,10 1048,40 1032,70" fill="rgb(255,255,255)" fill-opacity="1.0" stroke="rgb(0,0,0)" stroke-width="2"  />
			<g>
				<title>DUF1648 (PF07853)
"Domain of unknown function (DUF1648)"</title>
				<rect class="PF07853" x="1034" y="28" stroke-linejoin="round" width="4" height="24" fill="rgb(190,101,86)" stroke="rgb(152,80,68)" stroke-width="1" opacity="0.75" />
			</g>
		</g>
		<g>
			<title> (ctg3_138)</title>
			<polygon class=" (ctg3_138)" points="1054,10 1075,40 1054,70" fill="rgb(255,255,255)" fill-opacity="1.0" stroke="rgb(0,0,0)" stroke-width="2"  />
			<g>
				<title>OmdA (PF13376)
"Bacteriocin-protection, YdeI or OmpD-Associated"</title>
				<polygon class="PF13376" points="1068,35 1072,40 1068,45" stroke-linejoin="round" width="5" height="24" fill="rgb(212,104,109)" stroke="rgb(169,83,87)" stroke-width="1" opacity="0.75" />
			</g>
		</g>
		<g>
			<title> (ctg3_139)</title>
			<polygon class=" (ctg3_139)" points="1076,10 1090,40 1076,70" fill="rgb(255,255,255)" fill-opacity="1.0" stroke="rgb(0,0,0)" stroke-width="2"  />
			<g>
				<title>DUF1801 (PF08818)
"Domain of unknown function (DU1801)"</title>
				<polygon class="PF08818" points="1077,28 1081,28 1087,40 1081,52 1077,52" stroke-linejoin="round" width="11" height="24" fill="rgb(120,214,95)" stroke="rgb(96,171,76)" stroke-width="1" opacity="0.75" />
			</g>
		</g>
		<g>
			<title> (ctg3_140)</title>
			<polygon class=" (ctg3_140)" points="1091,10 1103,40 1091,70" fill="rgb(255,255,255)" fill-opacity="1.0" stroke="rgb(0,0,0)" stroke-width="2"  />
			<g>
				<title>3-dmu-9_3-mt (PF06983)
"3-demethylubiquinone-9 3-methyltransferase"</title>
				<polygon class="PF06983" points="1091,28 1095,28 1100,40 1095,52 1091,52" stroke-linejoin="round" width="12" height="24" fill="rgb(64,57,201)" stroke="rgb(51,45,160)" stroke-width="1" opacity="0.75" />
			</g>
		</g>
		<g>
			<title> (ctg3_141)</title>
			<polygon class=" (ctg3_141)" points="1105,25 1107,25 1107,10 1137,40 1107,70 1107,55 1105,55" fill="rgb(255,255,255)" fill-opacity="1.0" stroke="rgb(0,0,0)" stroke-width="2"  />
			<g>
				<title>Acetyltransf_3 (PF13302)
"Acetyltransferase (GNAT) domain"</title>
				<rect class="PF13302" x="1105" y="28" stroke-linejoin="round" width="13" height="24" fill="rgb(105,146,215)" stroke="rgb(84,116,172)" stroke-width="1" opacity="0.75" />
			</g>
			<g>
				<title>Acetyltransf_1 (PF00583)
"Acetyltransferase (GNAT) family"</title>
				<polygon class="PF00583" points="1123,30 1133,40 1133,40 1123,50" stroke-linejoin="round" width="10" height="24" fill="rgb(121,183,50)" stroke="rgb(96,146,39)" stroke-width="1" opacity="0.75" />
			</g>
		</g>
		<g>
			<title> (ctg3_142)</title>
			<polygon class=" (ctg3_142)" points="1139,40 1153,10 1153,70" fill="rgb(255,255,255)" fill-opacity="1.0" stroke="rgb(0,0,0)" stroke-width="2"  />
			<g>
				<title>Rrf2 (PF02082)
"Iron-dependent Transcriptional regulator"</title>
				<polygon class="PF02082" points="1142,40 1148,28 1153,28 1153,52 1148,52" stroke-linejoin="round" width="13" height="24" fill="rgb(73,178,133)" stroke="rgb(58,142,106)" stroke-width="1" opacity="0.75" />
			</g>
		</g>
		<g>
			<title> (ctg3_143)</title>
			<polygon class=" (ctg3_143)" points="1160,25 1168,25 1168,10 1198,40 1168,70 1168,55 1160,55" fill="rgb(255,255,255)" fill-opacity="1.0" stroke="rgb(0,0,0)" stroke-width="2"  />
			<g>
				<title>Globin (PF00042)
"Globin"</title>
				<rect class="PF00042" x="1162" y="28" stroke-linejoin="round" width="10" height="24" fill="rgb(214,76,178)" stroke="rgb(171,60,142)" stroke-width="1" opacity="0.75" />
			</g>
			<g>
				<title>FAD_binding_6 (PF00970)
"Oxidoreductase FAD-binding domain"</title>
				<polygon class="PF00970" points="1175,28 1182,28 1185,31 1185,49 1182,52 1175,52" stroke-linejoin="round" width="10" height="24" fill="rgb(212,194,103)" stroke="rgb(169,155,82)" stroke-width="1" opacity="0.75" />
			</g>
			<g>
				<title>NAD_binding_1 (PF00175)
"Oxidoreductase NAD-binding domain"</title>
				<polygon class="PF00175" points="1186,32 1194,40 1186,48" stroke-linejoin="round" width="9" height="24" fill="rgb(177,211,96)" stroke="rgb(141,168,76)" stroke-width="1" opacity="0.75" />
			</g>
		</g>
		<g>
			<title> (ctg3_144)</title>
			<polygon class=" (ctg3_144)" points="1205,10 1213,40 1205,70" fill="rgb(255,255,255)" fill-opacity="1.0" stroke="rgb(0,0,0)" stroke-width="2"  />
			<g>
				<title>Trns_repr_metal (PF02583)
"Metal-sensitive transcriptional repressor"</title>
				<polygon class="PF02583" points="1205,28 1206,28 1210,40 1206,52 1205,52" stroke-linejoin="round" width="8" height="24" fill="rgb(127,204,98)" stroke="rgb(101,163,78)" stroke-width="1" opacity="0.75" />
			</g>
		</g>
		<g>
			<title> (ctg3_145)</title>
			<polygon class=" (ctg3_145)" points="1215,10 1226,40 1215,70" fill="rgb(255,255,255)" fill-opacity="1.0" stroke="rgb(0,0,0)" stroke-width="2"  />
			<g>
				<title>Rhodanese (PF00581)
"Rhodanese-like domain"</title>
				<polygon class="PF00581" points="1217,28 1218,28 1223,40 1218,52 1217,52" stroke-linejoin="round" width="8" height="24" fill="rgb(145,191,76)" stroke="rgb(116,152,60)" stroke-width="1" opacity="0.75" />
			</g>
		</g>
		<g>
			<title> (ctg3_146)</title>
			<polygon class=" (ctg3_146)" points="1227,10 1236,40 1227,70" fill="rgb(255,255,255)" fill-opacity="1.0" stroke="rgb(0,0,0)" stroke-width="2"  />
			<g>
				<title>Rhodanese (PF00581)
"Rhodanese-like domain"</title>
				<polygon class="PF00581" points="1227,28 1229,28 1233,40 1229,52 1227,52" stroke-linejoin="round" width="9" height="24" fill="rgb(145,191,76)" stroke="rgb(116,152,60)" stroke-width="1" opacity="0.75" />
			</g>
		</g>
		<g>
			<title> (ctg3_147)</title>
			<polygon class=" (ctg3_147)" points="1239,10 1257,40 1239,70" fill="rgb(255,255,255)" fill-opacity="1.0" stroke="rgb(0,0,0)" stroke-width="2"  />
			<g>
				<title>TusA (PF01206)
"Sulfurtransferase TusA"</title>
				<rect class="PF01206" x="1239" y="28" stroke-linejoin="round" width="6" height="24" fill="rgb(144,82,184)" stroke="rgb(115,65,147)" stroke-width="1" opacity="0.75" />
			</g>
			<g>
				<title>Rhodanese (PF00581)
"Rhodanese-like domain"</title>
				<polygon class="PF00581" points="1247,29 1253,40 1247,51" stroke-linejoin="round" width="8" height="24" fill="rgb(145,191,76)" stroke="rgb(116,152,60)" stroke-width="1" opacity="0.75" />
			</g>
		</g>
		<g>
			<title> (ctg3_148)</title>
			<polygon class=" (ctg3_148)" points="1258,10 1271,40 1258,70" fill="rgb(255,255,255)" fill-opacity="1.0" stroke="rgb(0,0,0)" stroke-width="2"  />
			<g>
				<title>DrsE_2 (PF13686)
"DsrE/DsrF/DrsH-like family"</title>
				<polygon class="PF13686" points="1263,29 1267,40 1263,51" stroke-linejoin="round" width="8" height="24" fill="rgb(218,70,162)" stroke="rgb(174,56,129)" stroke-width="1" opacity="0.75" />
			</g>
		</g>
		<g>
			<title> (ctg3_149)</title>
			<polygon class=" (ctg3_149)" points="1274,25 1281,25 1281,10 1311,40 1281,70 1281,55 1274,55" fill="rgb(255,255,255)" fill-opacity="1.0" stroke="rgb(0,0,0)" stroke-width="2"  />
			<g>
				<title>Rhodanese (PF00581)
"Rhodanese-like domain"</title>
				<rect class="PF00581" x="1274" y="28" stroke-linejoin="round" width="9" height="24" fill="rgb(145,191,76)" stroke="rgb(116,152,60)" stroke-width="1" opacity="0.75" />
			</g>
			<g>
				<title>Lactamase_B (PF00753)
"Metallo-beta-lactamase superfamily"</title>
				<polygon class="PF00753" points="1286,28 1295,28 1302,35 1302,45 1295,52 1286,52" stroke-linejoin="round" width="16" height="24" fill="rgb(206,198,96)" stroke="rgb(164,158,76)" stroke-width="1" opacity="0.75" />
			</g>
		</g>
		<g>
			<title> (ctg3_150)</title>
			<polygon class=" (ctg3_150)" points="1316,10 1323,40 1316,70" fill="rgb(255,255,255)" fill-opacity="1.0" stroke="rgb(0,0,0)" stroke-width="2"  />
			<g>
				<title>TusA (PF01206)
"Sulfurtransferase TusA"</title>
				<polygon class="PF01206" points="1316,28 1317,28 1320,40 1317,52 1316,52" stroke-linejoin="round" width="6" height="24" fill="rgb(144,82,184)" stroke="rgb(115,65,147)" stroke-width="1" opacity="0.75" />
			</g>
		</g>
		<g>
			<title> (ctg3_151)</title>
			<polygon class=" (ctg3_151)" points="1326,10 1352,40 1326,70" fill="rgb(255,255,255)" fill-opacity="1.0" stroke="rgb(0,0,0)" stroke-width="2"  />
			<g>
				<title>TauE (PF01925)
"Sulfite exporter TauE/SafE"</title>
				<polygon class="PF01925" points="1326,28 1338,28 1348,40 1338,52 1326,52" stroke-linejoin="round" width="24" height="24" fill="rgb(105,203,95)" stroke="rgb(84,162,76)" stroke-width="1" opacity="0.75" />
			</g>
		</g>
		<g>
			<title> (ctg3_152)</title>
			<polygon class=" (ctg3_152)" points="1353,10 1376,40 1353,70" fill="rgb(255,255,255)" fill-opacity="1.0" stroke="rgb(0,0,0)" stroke-width="2"  />
			<g>
				<title>DSBA (PF01323)
"DSBA-like thioredoxin domain"</title>
				<polygon class="PF01323" points="1353,28 1363,28 1372,40 1363,52 1353,52" stroke-linejoin="round" width="20" height="24" fill="rgb(221,114,99)" stroke="rgb(176,91,79)" stroke-width="1" opacity="0.75" />
			</g>
		</g>
	</g>
</svg>
