<svg version="1.1" baseProfile="full" xmlns="http://www.w3.org/2000/svg" width="721.7666666666667" height="80">
	<g>
		<line x1="10" y1="40.0" x2="711.7666666666667" y2="40.0" style="stroke:rgb(70,70,70); stroke-width:3 "/>
		<g>
			<title> (ctg5_162)</title>
			<polygon class=" (ctg5_162)" points="64,10 84,40 64,70" fill="rgb(255,255,255)" fill-opacity="1.0" stroke="rgb(0,0,0)" stroke-width="2"  />
			<g>
				<title>Pur_DNA_glyco (PF02245)
"Methylpurine-DNA glycosylase (MPG)"</title>
				<polygon class="PF02245" points="64,28 72,28 80,40 72,52 64,52" stroke-linejoin="round" width="18" height="24" fill="rgb(224,94,125)" stroke="rgb(179,75,100)" stroke-width="1" opacity="0.75" />
			</g>
		</g>
		<g>
			<title> (ctg5_163)</title>
			<polygon class=" (ctg5_163)" points="88,40 102,10 102,70" fill="rgb(255,255,255)" fill-opacity="1.0" stroke="rgb(0,0,0)" stroke-width="2"  />
		</g>
		<g>
			<title> (ctg5_164)</title>
			<polygon class=" (ctg5_164)" points="156,25 139,25 139,10 109,40 139,70 139,55 156,55" fill="rgb(255,255,255)" fill-opacity="1.0" stroke="rgb(0,0,0)" stroke-width="2"  />
			<g>
				<title>SusD-like_2 (PF12771)
"Starch-binding associating with outer membrane"</title>
				<polygon class="PF12771" points="113,40 125,28 154,28 154,52 125,52" stroke-linejoin="round" width="42" height="24" fill="rgb(102,115,218)" stroke="rgb(81,92,174)" stroke-width="1" opacity="0.75" />
			</g>
		</g>
		<g>
			<title> (ctg5_165)</title>
			<polygon class=" (ctg5_165)" points="258,25 188,25 188,10 158,40 188,70 188,55 258,55" fill="rgb(255,255,255)" fill-opacity="1.0" stroke="rgb(0,0,0)" stroke-width="2"  />
			<g>
				<title>TonB_dep_Rec (PF00593)
"TonB dependent receptor"</title>
				<polygon class="PF00593" points="162,40 174,28 221,28 221,52 174,52" stroke-linejoin="round" width="63" height="24" fill="rgb(171,200,51)" stroke="rgb(136,160,40)" stroke-width="1" opacity="0.75" />
			</g>
			<g>
				<title>Plug (PF07715)
"TonB-dependent Receptor Plug Domain"</title>
				<rect class="PF07715" x="241" y="28" stroke-linejoin="round" width="12" height="24" fill="rgb(99,133,214)" stroke="rgb(79,106,171)" stroke-width="1" opacity="0.75" />
			</g>
		</g>
		<g>
			<title> (ctg5_166)</title>
			<polygon class=" (ctg5_166)" points="265,40 288,10 288,70" fill="rgb(255,255,255)" fill-opacity="1.0" stroke="rgb(0,0,0)" stroke-width="2"  />
			<g>
				<title>LytTR (PF04397)
"LytTr DNA-binding domain"</title>
				<polygon class="PF04397" points="269,40 273,35 273,45" stroke-linejoin="round" width="8" height="24" fill="rgb(207,76,174)" stroke="rgb(165,60,139)" stroke-width="1" opacity="0.75" />
			</g>
			<g>
				<title>Response_reg (PF00072)
"Response regulator receiver domain"</title>
				<polygon class="PF00072" points="276,31 278,28 286,28 286,52 278,52 276,49" stroke-linejoin="round" width="10" height="24" fill="rgb(100,107,203)" stroke="rgb(80,85,162)" stroke-width="1" opacity="0.75" />
			</g>
		</g>
		<g>
			<title> (ctg5_167)</title>
			<polygon class=" (ctg5_167)" points="322,25 317,25 317,10 287,40 317,70 317,55 322,55" fill="rgb(255,255,255)" fill-opacity="1.0" stroke="rgb(0,0,0)" stroke-width="2"  />
			<g>
				<title>His_kinase (PF06580)
"Histidine kinase"</title>
				<polygon class="PF06580" points="298,33 303,28 305,28 305,52 303,52 298,47" stroke-linejoin="round" width="7" height="24" fill="rgb(87,219,195)" stroke="rgb(69,175,156)" stroke-width="1" opacity="0.75" />
			</g>
		</g>
		<g>
			<title> (ctg5_168)</title>
			<polygon class=" (ctg5_168)" points="326,40 339,10 339,70" fill="rgb(255,255,255)" fill-opacity="1.0" stroke="rgb(0,0,0)" stroke-width="2"  />
		</g>
		<g>
			<title> (ctg5_169)</title>
			<polygon class=" (ctg5_169)" points="378,25 373,25 373,10 343,40 373,70 373,55 378,55" fill="rgb(255,255,255)" fill-opacity="1.0" stroke="rgb(0,0,0)" stroke-width="2"  />
			<g>
				<title>Terpene_syn_C_2 (PF19086)
"Terpene synthase family 2, C-terminal metal binding"</title>
				<polygon class="PF19086" points="351,36 359,28 371,28 371,52 359,52 351,44" stroke-linejoin="round" width="20" height="24" fill="rgb(55,207,154)" stroke="rgb(43,165,123)" stroke-width="1" opacity="0.75" />
			</g>
		</g>
		<g>
			<title> (ctg5_170)</title>
			<polygon class=" (ctg5_170)" points="398,40 414,10 414,70" fill="rgb(255,255,255)" fill-opacity="1.0" stroke="rgb(0,0,0)" stroke-width="2"  />
			<g>
				<title>Thioredoxin_8 (PF13905)
"Thioredoxin-like"</title>
				<polygon class="PF13905" points="401,40 408,28 409,28 409,52 408,52" stroke-linejoin="round" width="9" height="24" fill="rgb(180,174,87)" stroke="rgb(144,139,69)" stroke-width="1" opacity="0.75" />
			</g>
		</g>
		<g>
			<title> (ctg5_171)</title>
			<polygon class=" (ctg5_171)" points="415,40 429,10 429,70" fill="rgb(255,255,255)" fill-opacity="1.0" stroke="rgb(0,0,0)" stroke-width="2"  />
		</g>
		<g>
			<title> (ctg5_172)</title>
			<polygon class=" (ctg5_172)" points="432,40 441,10 441,70" fill="rgb(255,255,255)" fill-opacity="1.0" stroke="rgb(0,0,0)" stroke-width="2"  />
		</g>
		<g>
			<title> (ctg5_173)</title>
			<polygon class=" (ctg5_173)" points="450,25 456,25 456,10 486,40 456,70 456,55 450,55" fill="rgb(255,255,255)" fill-opacity="1.0" stroke="rgb(0,0,0)" stroke-width="2"  />
		</g>
		<g>
			<title> (ctg5_174)</title>
			<polygon class=" (ctg5_174)" points="491,25 516,25 516,10 546,40 516,70 516,55 491,55" fill="rgb(255,255,255)" fill-opacity="1.0" stroke="rgb(0,0,0)" stroke-width="2"  />
			<g>
				<title>FAD_binding_2 (PF00890)
"FAD binding domain"</title>
				<polygon class="PF00890" points="491,28 530,28 542,40 530,52 491,52" stroke-linejoin="round" width="52" height="24" fill="rgb(63,199,116)" stroke="rgb(50,159,92)" stroke-width="1" opacity="0.75" />
			</g>
		</g>
		<g>
			<title> (ctg5_175)</title>
			<polygon class=" (ctg5_175)" points="547,10 573,40 547,70" fill="rgb(255,255,255)" fill-opacity="1.0" stroke="rgb(0,0,0)" stroke-width="2"  />
			<g>
				<title>adh_short (PF00106)
"short chain dehydrogenase"</title>
				<polygon class="PF00106" points="547,28 558,28 566,36 566,44 558,52 547,52" stroke-linejoin="round" width="19" height="24" fill="rgb(182,219,73)" stroke="rgb(145,175,58)" stroke-width="1" opacity="0.75" />
			</g>
		</g>
		<g>
			<title> (ctg5_176)</title>
			<polygon class=" (ctg5_176)" points="579,40 582,10 582,70" fill="rgb(255,255,255)" fill-opacity="1.0" stroke="rgb(0,0,0)" stroke-width="2"  />
		</g>
		<g>
			<title> (ctg5_177)</title>
			<polygon class=" (ctg5_177)" points="584,40 606,10 606,70" fill="rgb(255,255,255)" fill-opacity="1.0" stroke="rgb(0,0,0)" stroke-width="2"  />
			<g>
				<title>PAP2 (PF01569)
"PAP2 superfamily"</title>
				<polygon class="PF01569" points="588,40 594,32 594,48" stroke-linejoin="round" width="10" height="24" fill="rgb(133,203,94)" stroke="rgb(106,162,75)" stroke-width="1" opacity="0.75" />
			</g>
		</g>
		<g>
			<title> (ctg5_178)</title>
			<polygon class=" (ctg5_178)" points="687,25 637,25 637,10 607,40 637,70 637,55 687,55" fill="rgb(255,255,255)" fill-opacity="1.0" stroke="rgb(0,0,0)" stroke-width="2"  />
			<g>
				<title>OMP_b-brl_3 (PF14905)
"Outer membrane protein beta-barrel family"</title>
				<polygon class="PF14905" points="611,40 623,28 647,28 647,52 623,52" stroke-linejoin="round" width="40" height="24" fill="rgb(228,176,68)" stroke="rgb(182,140,54)" stroke-width="1" opacity="0.75" />
			</g>
			<g>
				<title>Plug (PF07715)
"TonB-dependent Receptor Plug Domain"</title>
				<rect class="PF07715" x="664" y="28" stroke-linejoin="round" width="9" height="24" fill="rgb(99,133,214)" stroke="rgb(79,106,171)" stroke-width="1" opacity="0.75" />
			</g>
			<g>
				<title>CarboxypepD_reg (PF13620)
"Carboxypeptidase regulatory-like domain"</title>
				<rect class="PF13620" x="676" y="28" stroke-linejoin="round" width="8" height="24" fill="rgb(201,63,96)" stroke="rgb(160,50,76)" stroke-width="1" opacity="0.75" />
			</g>
		</g>
	</g>
</svg>
