<svg version="1.1" baseProfile="full" xmlns="http://www.w3.org/2000/svg" width="1392.0333333333333" height="80">
	<g>
		<line x1="10" y1="40.0" x2="1382.0333333333333" y2="40.0" style="stroke:rgb(70,70,70); stroke-width:3 "/>
		<g>
			<title> (ctg1_524)</title>
			<polygon class=" (ctg1_524)" points="26,40 42,10 42,70" fill="rgb(255,255,255)" fill-opacity="1.0" stroke="rgb(0,0,0)" stroke-width="2"  />
			<g>
				<title>MaoC_dehydratas (PF01575)
"MaoC like domain"</title>
				<polygon class="PF01575" points="29,40 35,28 40,28 40,52 35,52" stroke-linejoin="round" width="12" height="24" fill="rgb(218,129,86)" stroke="rgb(174,103,68)" stroke-width="1" opacity="0.75" />
			</g>
		</g>
		<g>
			<title> (ctg1_525)</title>
			<polygon class=" (ctg1_525)" points="80,25 72,25 72,10 42,40 72,70 72,55 80,55" fill="rgb(255,255,255)" fill-opacity="1.0" stroke="rgb(0,0,0)" stroke-width="2"  />
			<g>
				<title>Acyl-CoA_dh_1 (PF00441)
"Acyl-CoA dehydrogenase, C-terminal domain"</title>
				<polygon class="PF00441" points="46,40 56,30 56,50" stroke-linejoin="round" width="14" height="24" fill="rgb(85,191,117)" stroke="rgb(68,152,93)" stroke-width="1" opacity="0.75" />
			</g>
			<g>
				<title>Acyl-CoA_dh_M (PF02770)
"Acyl-CoA dehydrogenase, middle domain"</title>
				<polygon class="PF02770" points="58,28 58,28 67,28 67,52 58,52 58,52" stroke-linejoin="round" width="9" height="24" fill="rgb(225,186,97)" stroke="rgb(180,148,77)" stroke-width="1" opacity="0.75" />
			</g>
			<g>
				<title>Acyl-CoA_dh_N (PF02771)
"Acyl-CoA dehydrogenase, N-terminal domain"</title>
				<rect class="PF02771" x="68" y="28" stroke-linejoin="round" width="11" height="24" fill="rgb(105,135,218)" stroke="rgb(84,108,174)" stroke-width="1" opacity="0.75" />
			</g>
		</g>
		<g>
			<title> (ctg1_526)</title>
			<polygon class=" (ctg1_526)" points="144,25 110,25 110,10 80,40 110,70 110,55 144,55" fill="rgb(255,255,255)" fill-opacity="1.0" stroke="rgb(0,0,0)" stroke-width="2"  />
			<g>
				<title>Biotin_lipoyl (PF00364)
"Biotin-requiring enzyme"</title>
				<polygon class="PF00364" points="84,40 87,37 87,43" stroke-linejoin="round" width="6" height="24" fill="rgb(67,214,213)" stroke="rgb(53,171,170)" stroke-width="1" opacity="0.75" />
			</g>
			<g>
				<title>Biotin_carb_C (PF02785)
"Biotin carboxylase C-terminal domain"</title>
				<rect class="PF02785" x="100" y="28" stroke-linejoin="round" width="10" height="24" fill="rgb(82,186,211)" stroke="rgb(65,148,168)" stroke-width="1" opacity="0.75" />
			</g>
			<g>
				<title>CPSase_L_D2 (PF02786)
"Carbamoyl-phosphate synthase L chain, ATP binding domain"</title>
				<rect class="PF02786" x="111" y="28" stroke-linejoin="round" width="21" height="24" fill="rgb(190,97,205)" stroke="rgb(151,77,164)" stroke-width="1" opacity="0.75" />
			</g>
			<g>
				<title>Biotin_carb_N (PF00289)
"Biotin carboxylase, N-terminal domain"</title>
				<rect class="PF00289" x="133" y="28" stroke-linejoin="round" width="10" height="24" fill="rgb(59,114,187)" stroke="rgb(47,91,149)" stroke-width="1" opacity="0.75" />
			</g>
		</g>
		<g>
			<title> (ctg1_527)</title>
			<polygon class=" (ctg1_527)" points="196,25 175,25 175,10 145,40 175,70 175,55 196,55" fill="rgb(255,255,255)" fill-opacity="1.0" stroke="rgb(0,0,0)" stroke-width="2"  />
			<g>
				<title>Carboxyl_trans (PF01039)
"Carboxyl transferase domain"</title>
				<polygon class="PF01039" points="149,40 161,28 193,28 193,52 161,52" stroke-linejoin="round" width="48" height="24" fill="rgb(180,136,60)" stroke="rgb(144,108,48)" stroke-width="1" opacity="0.75" />
			</g>
		</g>
		<g>
			<title> (ctg1_528)</title>
			<polygon class=" (ctg1_528)" points="201,10 220,40 201,70" fill="rgb(255,255,255)" fill-opacity="1.0" stroke="rgb(0,0,0)" stroke-width="2"  />
			<g>
				<title>TetR_N (PF00440)
"Bacterial regulatory proteins, tetR family"</title>
				<rect class="PF00440" x="202" y="28" stroke-linejoin="round" width="4" height="24" fill="rgb(73,212,190)" stroke="rgb(58,169,152)" stroke-width="1" opacity="0.75" />
			</g>
			<g>
				<title>TetR_C_24 (PF17932)
"Tetracyclin repressor-like, C-terminal domain"</title>
				<polygon class="PF17932" points="209,28 209,28 217,40 217,40 209,52 209,52" stroke-linejoin="round" width="8" height="24" fill="rgb(165,217,107)" stroke="rgb(132,173,85)" stroke-width="1" opacity="0.75" />
			</g>
		</g>
		<g>
			<title> (ctg1_529)</title>
			<polygon class=" (ctg1_529)" points="265,25 250,25 250,10 220,40 250,70 250,55 265,55" fill="rgb(255,255,255)" fill-opacity="1.0" stroke="rgb(0,0,0)" stroke-width="2"  />
			<g>
				<title>2-oxoacid_dh (PF00198)
"2-oxoacid dehydrogenases acyltransferase (catalytic domain)"</title>
				<polygon class="PF00198" points="224,40 236,28 243,28 243,52 236,52" stroke-linejoin="round" width="23" height="24" fill="rgb(204,74,202)" stroke="rgb(163,59,161)" stroke-width="1" opacity="0.75" />
			</g>
			<g>
				<title>Biotin_lipoyl (PF00364)
"Biotin-requiring enzyme"</title>
				<rect class="PF00364" x="257" y="28" stroke-linejoin="round" width="7" height="24" fill="rgb(67,214,213)" stroke="rgb(53,171,170)" stroke-width="1" opacity="0.75" />
			</g>
		</g>
		<g>
			<title> (ctg1_530)</title>
			<polygon class=" (ctg1_530)" points="298,25 295,25 295,10 265,40 295,70 295,55 298,55" fill="rgb(255,255,255)" fill-opacity="1.0" stroke="rgb(0,0,0)" stroke-width="2"  />
			<g>
				<title>Transketolase_C (PF02780)
"Transketolase, C-terminal domain"</title>
				<polygon class="PF02780" points="269,40 278,31 278,49" stroke-linejoin="round" width="12" height="24" fill="rgb(76,206,101)" stroke="rgb(60,164,80)" stroke-width="1" opacity="0.75" />
			</g>
			<g>
				<title>Transket_pyr (PF02779)
"Transketolase, pyrimidine binding domain"</title>
				<polygon class="PF02779" points="280,29 281,28 297,28 297,52 281,52 280,51" stroke-linejoin="round" width="17" height="24" fill="rgb(189,186,84)" stroke="rgb(151,148,67)" stroke-width="1" opacity="0.75" />
			</g>
		</g>
		<g>
			<title> (ctg1_531)</title>
			<polygon class=" (ctg1_531)" points="336,25 329,25 329,10 299,40 329,70 329,55 336,55" fill="rgb(255,255,255)" fill-opacity="1.0" stroke="rgb(0,0,0)" stroke-width="2"  />
			<g>
				<title>E1_dh (PF00676)
"Dehydrogenase E1 component"</title>
				<polygon class="PF00676" points="303,40 315,28 330,28 330,52 315,52 303,40" stroke-linejoin="round" width="27" height="24" fill="rgb(180,115,48)" stroke="rgb(144,92,38)" stroke-width="1" opacity="0.75" />
			</g>
		</g>
		<g>
			<title> (ctg1_532)</title>
			<polygon class=" (ctg1_532)" points="341,10 357,40 341,70" fill="rgb(255,255,255)" fill-opacity="1.0" stroke="rgb(0,0,0)" stroke-width="2"  />
			<g>
				<title>HTH_24 (PF13412)
"Winged helix-turn-helix DNA-binding"</title>
				<rect class="PF13412" x="341" y="28" stroke-linejoin="round" width="4" height="24" fill="rgb(222,79,68)" stroke="rgb(177,63,54)" stroke-width="1" opacity="0.75" />
			</g>
			<g>
				<title>AsnC_trans_reg (PF01037)
"Lrp/AsnC ligand binding domain"</title>
				<polygon class="PF01037" points="348,30 353,40 348,50" stroke-linejoin="round" width="7" height="24" fill="rgb(134,72,182)" stroke="rgb(107,57,145)" stroke-width="1" opacity="0.75" />
			</g>
		</g>
		<g>
			<title> (ctg1_533)</title>
			<polygon class=" (ctg1_533)" points="386,25 386,25 386,10 356,40 386,70 386,55 386,55" fill="rgb(255,255,255)" fill-opacity="1.0" stroke="rgb(0,0,0)" stroke-width="2"  />
			<g>
				<title>Abhydrolase_6 (PF12697)
"Alpha/beta hydrolase family"</title>
				<polygon class="PF12697" points="360,40 372,28 381,28 381,52 372,52" stroke-linejoin="round" width="24" height="24" fill="rgb(113,71,219)" stroke="rgb(90,56,175)" stroke-width="1" opacity="0.75" />
			</g>
		</g>
		<g>
			<title> (ctg1_534)</title>
			<polygon class=" (ctg1_534)" points="389,10 413,40 389,70" fill="rgb(255,255,255)" fill-opacity="1.0" stroke="rgb(0,0,0)" stroke-width="2"  />
			<g>
				<title>RNase_T (PF00929)
"Exonuclease"</title>
				<polygon class="PF00929" points="390,28 400,28 406,36 406,44 400,52 390,52" stroke-linejoin="round" width="16" height="24" fill="rgb(201,87,120)" stroke="rgb(160,69,96)" stroke-width="1" opacity="0.75" />
			</g>
		</g>
		<g>
			<title> (ctg1_535)</title>
			<polygon class=" (ctg1_535)" points="446,25 443,25 443,10 413,40 443,70 443,55 446,55" fill="rgb(255,255,255)" fill-opacity="1.0" stroke="rgb(0,0,0)" stroke-width="2"  />
			<g>
				<title>Virul_fac_BrkB (PF03631)
"Virulence factor BrkB"</title>
				<polygon class="PF03631" points="417,40 429,28 442,28 442,52 429,52 417,40" stroke-linejoin="round" width="25" height="24" fill="rgb(223,82,207)" stroke="rgb(178,65,165)" stroke-width="1" opacity="0.75" />
			</g>
		</g>
		<g>
			<title> (ctg1_536)</title>
			<polygon class=" (ctg1_536)" points="452,25 452,25 452,10 482,40 452,70 452,55 452,55" fill="rgb(255,255,255)" fill-opacity="1.0" stroke="rgb(0,0,0)" stroke-width="2"  />
			<g>
				<title>HTH_18 (PF12833)
"Helix-turn-helix domain"</title>
				<polygon class="PF12833" points="474,36 478,40 474,44" stroke-linejoin="round" width="8" height="24" fill="rgb(216,58,224)" stroke="rgb(172,46,179)" stroke-width="1" opacity="0.75" />
			</g>
		</g>
		<g>
			<title> (ctg1_537)</title>
			<polygon class=" (ctg1_537)" points="486,10 497,40 486,70" fill="rgb(255,255,255)" fill-opacity="1.0" stroke="rgb(0,0,0)" stroke-width="2"  />
		</g>
		<g>
			<title> (ctg1_538)</title>
			<polygon class=" (ctg1_538)" points="499,10 519,40 499,70" fill="rgb(255,255,255)" fill-opacity="1.0" stroke="rgb(0,0,0)" stroke-width="2"  />
			<g>
				<title>TetR_N (PF00440)
"Bacterial regulatory proteins, tetR family"</title>
				<rect class="PF00440" x="501" y="28" stroke-linejoin="round" width="4" height="24" fill="rgb(73,212,190)" stroke="rgb(58,169,152)" stroke-width="1" opacity="0.75" />
			</g>
		</g>
		<g>
			<title> (ctg1_539)</title>
			<polygon class=" (ctg1_539)" points="519,25 544,25 544,10 574,40 544,70 544,55 519,55" fill="rgb(255,255,255)" fill-opacity="1.0" stroke="rgb(0,0,0)" stroke-width="2"  />
			<g>
				<title>MFS_1 (PF07690)
"Major Facilitator Superfamily"</title>
				<polygon class="PF07690" points="521,28 558,28 560,30 560,50 558,52 521,52" stroke-linejoin="round" width="39" height="24" fill="rgb(193,224,74)" stroke="rgb(154,179,59)" stroke-width="1" opacity="0.75" />
			</g>
		</g>
		<g>
			<title> (ctg1_540)</title>
			<polygon class=" (ctg1_540)" points="577,40 604,10 604,70" fill="rgb(255,255,255)" fill-opacity="1.0" stroke="rgb(0,0,0)" stroke-width="2"  />
			<g>
				<title>YkuD (PF03734)
"L,D-transpeptidase catalytic domain"</title>
				<polygon class="PF03734" points="581,40 588,32 588,48" stroke-linejoin="round" width="11" height="24" fill="rgb(112,183,75)" stroke="rgb(89,146,60)" stroke-width="1" opacity="0.75" />
			</g>
		</g>
		<g>
			<title> (ctg1_541)</title>
			<polygon class=" (ctg1_541)" points="643,25 635,25 635,10 605,40 635,70 635,55 643,55" fill="rgb(255,255,255)" fill-opacity="1.0" stroke="rgb(0,0,0)" stroke-width="2"  />
		</g>
		<g>
			<title> (ctg1_542)</title>
			<polygon class=" (ctg1_542)" points="647,40 675,10 675,70" fill="rgb(255,255,255)" fill-opacity="1.0" stroke="rgb(0,0,0)" stroke-width="2"  />
		</g>
		<g>
			<title> (ctg1_543)</title>
			<polygon class=" (ctg1_543)" points="714,25 706,25 706,10 676,40 706,70 706,55 714,55" fill="rgb(255,255,255)" fill-opacity="1.0" stroke="rgb(0,0,0)" stroke-width="2"  />
			<g>
				<title>HMG_CoA_synt_C (PF08540)
"Hydroxymethylglutaryl-coenzyme A synthase C terminal"</title>
				<polygon class="PF08540" points="680,40 689,31 689,49" stroke-linejoin="round" width="10" height="24" fill="rgb(49,194,86)" stroke="rgb(39,155,68)" stroke-width="1" opacity="0.75" />
			</g>
			<g>
				<title>HMG_CoA_synt_C (PF08540)
"Hydroxymethylglutaryl-coenzyme A synthase C terminal"</title>
				<polygon class="PF08540" points="689,31 692,28 697,28 697,52 692,52 689,49" stroke-linejoin="round" width="8" height="24" fill="rgb(49,194,86)" stroke="rgb(39,155,68)" stroke-width="1" opacity="0.75" />
			</g>
			<g>
				<title>HMG_CoA_synt_N (PF01154)
"Hydroxymethylglutaryl-coenzyme A synthase N terminal"</title>
				<rect class="PF01154" x="697" y="28" stroke-linejoin="round" width="16" height="24" fill="rgb(88,216,218)" stroke="rgb(70,172,174)" stroke-width="1" opacity="0.75" />
			</g>
		</g>
		<g>
			<title> (ctg1_544)</title>
			<polygon class=" (ctg1_544)" points="750,25 745,25 745,10 715,40 745,70 745,55 750,55" fill="rgb(255,255,255)" fill-opacity="1.0" stroke="rgb(0,0,0)" stroke-width="2"  />
			<g>
				<title>HMG-CoA_red (PF00368)
"Hydroxymethylglutaryl-coenzyme A reductase"</title>
				<polygon class="PF00368" points="719,40 731,28 748,28 748,52 731,52" stroke-linejoin="round" width="33" height="24" fill="rgb(67,203,137)" stroke="rgb(53,162,109)" stroke-width="1" opacity="0.75" />
			</g>
		</g>
		<g>
			<title> (ctg1_545)</title>
			<polygon class=" (ctg1_545)" points="785,25 780,25 780,10 750,40 780,70 780,55 785,55" fill="rgb(255,255,255)" fill-opacity="1.0" stroke="rgb(0,0,0)" stroke-width="2"  />
			<g>
				<title>FMN_dh (PF01070)
"FMN-dependent dehydrogenase"</title>
				<polygon class="PF01070" points="754,40 766,28 773,28 773,52 766,52" stroke-linejoin="round" width="21" height="24" fill="rgb(59,82,204)" stroke="rgb(47,65,163)" stroke-width="1" opacity="0.75" />
			</g>
		</g>
		<g>
			<title> (ctg1_546)</title>
			<polygon class=" (ctg1_546)" points="821,25 815,25 815,10 785,40 815,70 815,55 821,55" fill="rgb(255,255,255)" fill-opacity="1.0" stroke="rgb(0,0,0)" stroke-width="2"  />
			<g>
				<title>GHMP_kinases_C (PF08544)
"GHMP kinases C terminal"</title>
				<polygon class="PF08544" points="789,40 794,35 794,45" stroke-linejoin="round" width="8" height="24" fill="rgb(95,112,219)" stroke="rgb(76,89,175)" stroke-width="1" opacity="0.75" />
			</g>
			<g>
				<title>GHMP_kinases_N (PF00288)
"GHMP kinases N terminal domain"</title>
				<rect class="PF00288" x="804" y="28" stroke-linejoin="round" width="7" height="24" fill="rgb(190,54,91)" stroke="rgb(152,43,72)" stroke-width="1" opacity="0.75" />
			</g>
		</g>
		<g>
			<title> (ctg1_547)</title>
			<polygon class=" (ctg1_547)" points="853,25 852,25 852,10 822,40 852,70 852,55 853,55" fill="rgb(255,255,255)" fill-opacity="1.0" stroke="rgb(0,0,0)" stroke-width="2"  />
			<g>
				<title>MDD_C (PF18376)
"Mevalonate 5-diphosphate decarboxylase C-terminal domain"</title>
				<polygon class="PF18376" points="826,40 836,30 836,50" stroke-linejoin="round" width="13" height="24" fill="rgb(104,190,211)" stroke="rgb(83,152,168)" stroke-width="1" opacity="0.75" />
			</g>
			<g>
				<title>GHMP_kinases_N (PF00288)
"GHMP kinases N terminal domain"</title>
				<rect class="PF00288" x="839" y="28" stroke-linejoin="round" width="5" height="24" fill="rgb(190,54,91)" stroke="rgb(152,43,72)" stroke-width="1" opacity="0.75" />
			</g>
		</g>
		<g>
			<title> (ctg1_548)</title>
			<polygon class=" (ctg1_548)" points="887,25 884,25 884,10 854,40 884,70 884,55 887,55" fill="rgb(255,255,255)" fill-opacity="1.0" stroke="rgb(0,0,0)" stroke-width="2"  />
			<g>
				<title>GHMP_kinases_C (PF08544)
"GHMP kinases C terminal"</title>
				<polygon class="PF08544" points="858,40 864,34 864,46" stroke-linejoin="round" width="9" height="24" fill="rgb(95,112,219)" stroke="rgb(76,89,175)" stroke-width="1" opacity="0.75" />
			</g>
			<g>
				<title>GHMP_kinases_N (PF00288)
"GHMP kinases N terminal domain"</title>
				<polygon class="PF00288" points="869,29 870,28 875,28 875,52 870,52 869,51" stroke-linejoin="round" width="6" height="24" fill="rgb(190,54,91)" stroke="rgb(152,43,72)" stroke-width="1" opacity="0.75" />
			</g>
		</g>
		<g>
			<title> (ctg1_549)</title>
			<polygon class=" (ctg1_549)" points="892,40 909,10 909,70" fill="rgb(255,255,255)" fill-opacity="1.0" stroke="rgb(0,0,0)" stroke-width="2"  />
			<g>
				<title>Hexapep (PF00132)
"Bacterial transferase hexapeptide (six repeats)"</title>
				<polygon class="PF00132" points="897,37 900,32 900,48 897,43" stroke-linejoin="round" width="3" height="24" fill="rgb(89,131,202)" stroke="rgb(71,104,161)" stroke-width="1" opacity="0.75" />
			</g>
		</g>
		<g>
			<title> (ctg1_550)</title>
			<polygon class=" (ctg1_550)" points="915,10 931,40 915,70" fill="rgb(255,255,255)" fill-opacity="1.0" stroke="rgb(0,0,0)" stroke-width="2"  />
			<g>
				<title>Ferritin (PF00210)
"Ferritin-like domain"</title>
				<polygon class="PF00210" points="918,28 921,28 927,40 921,52 918,52" stroke-linejoin="round" width="13" height="24" fill="rgb(104,82,203)" stroke="rgb(83,65,162)" stroke-width="1" opacity="0.75" />
			</g>
		</g>
		<g>
			<title> (ctg1_551)</title>
			<polygon class=" (ctg1_551)" points="982,25 963,25 963,10 933,40 963,70 963,55 982,55" fill="rgb(255,255,255)" fill-opacity="1.0" stroke="rgb(0,0,0)" stroke-width="2"  />
			<g>
				<title>Amidohydro_3 (PF07969)
"Amidohydrolase family"</title>
				<polygon class="PF07969" points="937,40 949,28 977,28 977,52 949,52" stroke-linejoin="round" width="44" height="24" fill="rgb(228,157,101)" stroke="rgb(182,125,80)" stroke-width="1" opacity="0.75" />
			</g>
		</g>
		<g>
			<title> (ctg1_552)</title>
			<polygon class=" (ctg1_552)" points="983,40 1004,10 1004,70" fill="rgb(255,255,255)" fill-opacity="1.0" stroke="rgb(0,0,0)" stroke-width="2"  />
			<g>
				<title>FMN_bind_2 (PF04299)
"Putative FMN-binding domain"</title>
				<polygon class="PF04299" points="988,39 996,28 1004,28 1004,52 996,52 988,41" stroke-linejoin="round" width="16" height="24" fill="rgb(182,45,159)" stroke="rgb(145,36,127)" stroke-width="1" opacity="0.75" />
			</g>
		</g>
		<g>
			<title> (ctg1_553)</title>
			<polygon class=" (ctg1_553)" points="1038,25 1035,25 1035,10 1005,40 1035,70 1035,55 1038,55" fill="rgb(255,255,255)" fill-opacity="1.0" stroke="rgb(0,0,0)" stroke-width="2"  />
			<g>
				<title>zf-FPG_IleRS (PF06827)
"Zinc finger found in FPG and IleRS"</title>
				<polygon class="PF06827" points="1009,40 1007,42 1007,38" stroke-linejoin="round" width="2" height="24" fill="rgb(167,86,192)" stroke="rgb(133,68,153)" stroke-width="1" opacity="0.75" />
			</g>
			<g>
				<title>H2TH (PF06831)
"Formamidopyrimidine-DNA glycosylase H2TH domain"</title>
				<polygon class="PF06831" points="1010,39 1019,30 1019,50 1010,41" stroke-linejoin="round" width="9" height="24" fill="rgb(57,227,194)" stroke="rgb(45,181,155)" stroke-width="1" opacity="0.75" />
			</g>
			<g>
				<title>Fapy_DNA_glyco (PF01149)
"Formamidopyrimidine-DNA glycosylase N-terminal domain"</title>
				<polygon class="PF01149" points="1021,28 1021,28 1038,28 1038,52 1021,52 1021,52" stroke-linejoin="round" width="17" height="24" fill="rgb(124,229,81)" stroke="rgb(99,183,64)" stroke-width="1" opacity="0.75" />
			</g>
		</g>
		<g>
			<title> (ctg1_554)</title>
			<polygon class=" (ctg1_554)" points="1039,40 1055,10 1055,70" fill="rgb(255,255,255)" fill-opacity="1.0" stroke="rgb(0,0,0)" stroke-width="2"  />
			<g>
				<title>LacAB_rpiB (PF02502)
"Ribose/Galactose Isomerase"</title>
				<polygon class="PF02502" points="1042,40 1049,28 1054,28 1054,52 1049,52" stroke-linejoin="round" width="14" height="24" fill="rgb(93,178,74)" stroke="rgb(74,142,59)" stroke-width="1" opacity="0.75" />
			</g>
		</g>
		<g>
			<title> (ctg1_555)</title>
			<polygon class=" (ctg1_555)" points="1095,25 1086,25 1086,10 1056,40 1086,70 1086,55 1095,55" fill="rgb(255,255,255)" fill-opacity="1.0" stroke="rgb(0,0,0)" stroke-width="2"  />
			<g>
				<title>Ferrochelatase (PF00762)
"Ferrochelatase"</title>
				<polygon class="PF00762" points="1060,40 1072,28 1092,28 1092,52 1072,52 1060,40" stroke-linejoin="round" width="32" height="24" fill="rgb(46,104,183)" stroke="rgb(36,83,146)" stroke-width="1" opacity="0.75" />
			</g>
		</g>
		<g>
			<title> (ctg1_556)</title>
			<polygon class=" (ctg1_556)" points="1100,25 1155,25 1155,10 1185,40 1155,70 1155,55 1100,55" fill="rgb(255,255,255)" fill-opacity="1.0" stroke="rgb(0,0,0)" stroke-width="2"  />
			<g>
				<title>Peptidase_M1_N (PF17900)
"Peptidase M1 N-terminal domain"</title>
				<rect class="PF17900" x="1106" y="28" stroke-linejoin="round" width="12" height="24" fill="rgb(63,189,168)" stroke="rgb(50,151,134)" stroke-width="1" opacity="0.75" />
			</g>
			<g>
				<title>Peptidase_M1 (PF01433)
"Peptidase family M1 domain"</title>
				<rect class="PF01433" x="1123" y="28" stroke-linejoin="round" width="21" height="24" fill="rgb(173,57,219)" stroke="rgb(138,45,175)" stroke-width="1" opacity="0.75" />
			</g>
			<g>
				<title>ERAP1_C (PF11838)
"ERAP1-like C-terminal domain"</title>
				<polygon class="PF11838" points="1152,28 1168,28 1180,40 1168,52 1152,52" stroke-linejoin="round" width="31" height="24" fill="rgb(131,95,202)" stroke="rgb(104,76,161)" stroke-width="1" opacity="0.75" />
			</g>
		</g>
		<g>
			<title> (ctg1_557)</title>
			<polygon class=" (ctg1_557)" points="1188,25 1193,25 1193,10 1223,40 1193,70 1193,55 1188,55" fill="rgb(255,255,255)" fill-opacity="1.0" stroke="rgb(0,0,0)" stroke-width="2"  />
			<g>
				<title>MS_channel (PF00924)
"Mechanosensitive ion channel"</title>
				<polygon class="PF00924" points="1198,28 1207,28 1218,39 1218,41 1207,52 1198,52" stroke-linejoin="round" width="20" height="24" fill="rgb(177,58,210)" stroke="rgb(141,46,168)" stroke-width="1" opacity="0.75" />
			</g>
		</g>
		<g>
			<title> (ctg1_558)</title>
			<polygon class=" (ctg1_558)" points="1224,10 1239,40 1224,70" fill="rgb(255,255,255)" fill-opacity="1.0" stroke="rgb(0,0,0)" stroke-width="2"  />
			<g>
				<title>Bac_globin (PF01152)
"Bacterial-like globin"</title>
				<polygon class="PF01152" points="1224,28 1229,28 1235,39 1235,41 1229,52 1224,52" stroke-linejoin="round" width="11" height="24" fill="rgb(81,104,192)" stroke="rgb(64,83,153)" stroke-width="1" opacity="0.75" />
			</g>
		</g>
		<g>
			<title> (ctg1_559)</title>
			<polygon class=" (ctg1_559)" points="1239,25 1264,25 1264,10 1294,40 1264,70 1264,55 1239,55" fill="rgb(255,255,255)" fill-opacity="1.0" stroke="rgb(0,0,0)" stroke-width="2"  />
			<g>
				<title>FAD_binding_2 (PF00890)
"FAD binding domain"</title>
				<polygon class="PF00890" points="1239,28 1278,28 1290,40 1278,52 1239,52" stroke-linejoin="round" width="52" height="24" fill="rgb(63,199,116)" stroke="rgb(50,159,92)" stroke-width="1" opacity="0.75" />
			</g>
		</g>
		<g>
			<title> (ctg1_560)</title>
			<polygon class=" (ctg1_560)" points="1295,40 1317,10 1317,70" fill="rgb(255,255,255)" fill-opacity="1.0" stroke="rgb(0,0,0)" stroke-width="2"  />
		</g>
		<g>
			<title> (ctg1_561)</title>
			<polygon class=" (ctg1_561)" points="1319,10 1348,40 1319,70" fill="rgb(255,255,255)" fill-opacity="1.0" stroke="rgb(0,0,0)" stroke-width="2"  />
			<g>
				<title>4HBT_3 (PF13622)
"Thioesterase-like superfamily"</title>
				<polygon class="PF13622" points="1322,28 1332,28 1344,40 1332,52 1322,52" stroke-linejoin="round" width="25" height="24" fill="rgb(136,87,203)" stroke="rgb(108,69,162)" stroke-width="1" opacity="0.75" />
			</g>
		</g>
		<g>
			<title> (ctg1_562)</title>
			<polygon class=" (ctg1_562)" points="1349,40 1365,10 1365,70" fill="rgb(255,255,255)" fill-opacity="1.0" stroke="rgb(0,0,0)" stroke-width="2"  />
			<g>
				<title>4HBT (PF03061)
"Thioesterase superfamily"</title>
				<polygon class="PF03061" points="1353,38 1359,28 1362,28 1362,52 1359,52 1353,42" stroke-linejoin="round" width="9" height="24" fill="rgb(143,103,215)" stroke="rgb(114,82,172)" stroke-width="1" opacity="0.75" />
			</g>
		</g>
	</g>
</svg>
