<svg version="1.1" baseProfile="full" xmlns="http://www.w3.org/2000/svg" width="361.6333333333333" height="80">
	<g>
		<line x1="10" y1="40.0" x2="351.6333333333333" y2="40.0" style="stroke:rgb(70,70,70); stroke-width:3 "/>
		<g>
			<title> (ctg1_785)</title>
			<polygon class=" (ctg1_785)" points="42,25 57,25 57,10 87,40 57,70 57,55 42,55" fill="rgb(255,255,255)" fill-opacity="1.0" stroke="rgb(0,0,0)" stroke-width="2"  />
			<g>
				<title>Glyco_hydro_8 (PF01270)
"Glycosyl hydrolases family 8"</title>
				<polygon class="PF01270" points="48,28 71,28 83,40 71,52 48,52" stroke-linejoin="round" width="36" height="24" fill="rgb(81,153,196)" stroke="rgb(64,122,156)" stroke-width="1" opacity="0.75" />
			</g>
		</g>
		<g>
			<title> (ctg1_786)</title>
			<polygon class=" (ctg1_786)" points="93,25 93,25 93,10 123,40 93,70 93,55 93,55" fill="rgb(255,255,255)" fill-opacity="1.0" stroke="rgb(0,0,0)" stroke-width="2"  />
			<g>
				<title>IU_nuc_hydro (PF01156)
"Inosine-uridine preferring nucleoside hydrolase"</title>
				<polygon class="PF01156" points="93,28 107,28 119,40 107,52 93,52" stroke-linejoin="round" width="29" height="24" fill="rgb(156,80,217)" stroke="rgb(124,64,173)" stroke-width="1" opacity="0.75" />
			</g>
		</g>
		<g>
			<title> (ctg1_787)</title>
			<polygon class=" (ctg1_787)" points="126,10 141,40 126,70" fill="rgb(255,255,255)" fill-opacity="1.0" stroke="rgb(0,0,0)" stroke-width="2"  />
			<g>
				<title>Acetyltransf_1 (PF00583)
"Acetyltransferase (GNAT) family"</title>
				<polygon class="PF00583" points="127,28 131,28 137,40 131,52 127,52" stroke-linejoin="round" width="12" height="24" fill="rgb(121,183,50)" stroke="rgb(96,146,39)" stroke-width="1" opacity="0.75" />
			</g>
		</g>
		<g>
			<title> (ctg1_788)</title>
			<polygon class=" (ctg1_788)" points="143,10 154,40 143,70" fill="rgb(255,255,255)" fill-opacity="1.0" stroke="rgb(0,0,0)" stroke-width="2"  />
			<g>
				<title>CutA1 (PF03091)
"CutA1 divalent ion tolerance protein"</title>
				<polygon class="PF03091" points="149,34 151,40 149,46" stroke-linejoin="round" width="5" height="24" fill="rgb(220,167,58)" stroke="rgb(176,133,46)" stroke-width="1" opacity="0.75" />
			</g>
		</g>
		<g>
			<title> (ctg1_789)</title>
			<polygon class=" (ctg1_789)" points="155,10 169,40 155,70" fill="rgb(255,255,255)" fill-opacity="1.0" stroke="rgb(0,0,0)" stroke-width="2"  />
			<g>
				<title>NUDIX (PF00293)
"NUDIX domain"</title>
				<polygon class="PF00293" points="155,28 160,28 166,40 160,52 155,52" stroke-linejoin="round" width="12" height="24" fill="rgb(92,56,187)" stroke="rgb(73,44,149)" stroke-width="1" opacity="0.75" />
			</g>
		</g>
		<g>
			<title> (ctg1_790)</title>
			<polygon class=" (ctg1_790)" points="176,10 184,40 176,70" fill="rgb(255,255,255)" fill-opacity="1.0" stroke="rgb(0,0,0)" stroke-width="2"  />
		</g>
		<g>
			<title> (ctg1_791)</title>
			<polygon class=" (ctg1_791)" points="188,25 191,25 191,10 221,40 191,70 191,55 188,55" fill="rgb(255,255,255)" fill-opacity="1.0" stroke="rgb(0,0,0)" stroke-width="2"  />
			<g>
				<title>Beta-lactamase (PF00144)
"Beta-lactamase"</title>
				<polygon class="PF00144" points="188,28 205,28 217,40 205,52 188,52" stroke-linejoin="round" width="31" height="24" fill="rgb(92,159,200)" stroke="rgb(73,127,160)" stroke-width="1" opacity="0.75" />
			</g>
		</g>
		<g>
			<title> (ctg1_792)</title>
			<polygon class=" (ctg1_792)" points="223,10 227,40 223,70" fill="rgb(255,255,255)" fill-opacity="1.0" stroke="rgb(0,0,0)" stroke-width="2"  />
		</g>
		<g>
			<title> (ctg1_793)</title>
			<polygon class=" (ctg1_793)" points="237,25 247,25 247,10 277,40 247,70 247,55 237,55" fill="rgb(255,255,255)" fill-opacity="1.0" stroke="rgb(0,0,0)" stroke-width="2"  />
			<g>
				<title>MFS_1 (PF07690)
"Major Facilitator Superfamily"</title>
				<polygon class="PF07690" points="238,28 261,28 270,37 270,43 261,52 238,52" stroke-linejoin="round" width="32" height="24" fill="rgb(193,224,74)" stroke="rgb(154,179,59)" stroke-width="1" opacity="0.75" />
			</g>
		</g>
		<g>
			<title> (ctg1_794)</title>
			<polygon class=" (ctg1_794)" points="281,10 295,40 281,70" fill="rgb(255,255,255)" fill-opacity="1.0" stroke="rgb(0,0,0)" stroke-width="2"  />
			<g>
				<title>Acetyltransf_1 (PF00583)
"Acetyltransferase (GNAT) family"</title>
				<polygon class="PF00583" points="281,28 286,28 291,40 286,52 281,52" stroke-linejoin="round" width="11" height="24" fill="rgb(121,183,50)" stroke="rgb(96,146,39)" stroke-width="1" opacity="0.75" />
			</g>
		</g>
		<g>
			<title> (ctg1_795)</title>
			<polygon class=" (ctg1_795)" points="305,10 319,40 305,70" fill="rgb(255,255,255)" fill-opacity="1.0" stroke="rgb(0,0,0)" stroke-width="2"  />
			<g>
				<title>NUDIX (PF00293)
"NUDIX domain"</title>
				<polygon class="PF00293" points="305,28 310,28 316,40 310,52 305,52" stroke-linejoin="round" width="12" height="24" fill="rgb(92,56,187)" stroke="rgb(73,44,149)" stroke-width="1" opacity="0.75" />
			</g>
		</g>
	</g>
</svg>
