<svg version="1.1" baseProfile="full" xmlns="http://www.w3.org/2000/svg" width="758.9666666666667" height="80">
	<g>
		<line x1="10" y1="40.0" x2="748.9666666666667" y2="40.0" style="stroke:rgb(70,70,70); stroke-width:3 "/>
		<g>
			<title> (ctg2_264)</title>
			<polygon class=" (ctg2_264)" points="20,25 30,25 30,10 60,40 30,70 30,55 20,55" fill="rgb(255,255,255)" fill-opacity="1.0" stroke="rgb(0,0,0)" stroke-width="2"  />
			<g>
				<title>DUF3751 (PF12571)
"Phage tail-collar fibre protein"</title>
				<rect class="PF12571" x="20" y="28" stroke-linejoin="round" width="14" height="24" fill="rgb(67,190,98)" stroke="rgb(53,152,78)" stroke-width="1" opacity="0.75" />
			</g>
		</g>
		<g>
			<title> (ctg2_265)</title>
			<polygon class=" (ctg2_265)" points="60,10 65,40 60,70" fill="rgb(255,255,255)" fill-opacity="1.0" stroke="rgb(0,0,0)" stroke-width="2"  />
		</g>
		<g>
			<title> (ctg2_266)</title>
			<polygon class=" (ctg2_266)" points="70,25 79,25 79,10 109,40 79,70 79,55 70,55" fill="rgb(255,255,255)" fill-opacity="1.0" stroke="rgb(0,0,0)" stroke-width="2"  />
			<g>
				<title>Phage_sheath_1 (PF04984)
"Phage tail sheath protein subtilisin-like domain"</title>
				<polygon class="PF04984" points="80,28 92,28 96,32 96,48 92,52 80,52" stroke-linejoin="round" width="16" height="24" fill="rgb(173,209,71)" stroke="rgb(138,167,56)" stroke-width="1" opacity="0.75" />
			</g>
			<g>
				<title>Phage_sheath_1C (PF17482)
"Phage tail sheath C-terminal domain"</title>
				<polygon class="PF17482" points="97,33 104,40 97,47" stroke-linejoin="round" width="10" height="24" fill="rgb(64,208,189)" stroke="rgb(51,166,151)" stroke-width="1" opacity="0.75" />
			</g>
		</g>
		<g>
			<title> (ctg2_267)</title>
			<polygon class=" (ctg2_267)" points="109,10 126,40 109,70" fill="rgb(255,255,255)" fill-opacity="1.0" stroke="rgb(0,0,0)" stroke-width="2"  />
			<g>
				<title>Phage_tube (PF04985)
"Phage tail tube protein FII"</title>
				<polygon class="PF04985" points="109,28 115,28 122,40 115,52 109,52" stroke-linejoin="round" width="16" height="24" fill="rgb(186,72,96)" stroke="rgb(148,57,76)" stroke-width="1" opacity="0.75" />
			</g>
		</g>
		<g>
			<title> (ctg2_268)</title>
			<polygon class=" (ctg2_268)" points="131,10 140,40 131,70" fill="rgb(255,255,255)" fill-opacity="1.0" stroke="rgb(0,0,0)" stroke-width="2"  />
			<g>
				<title>Phage_TAC_7 (PF10109)
"Phage tail assembly chaperone proteins, E, or 41 or 14"</title>
				<polygon class="PF10109" points="131,28 133,28 137,40 133,52 131,52" stroke-linejoin="round" width="8" height="24" fill="rgb(142,59,179)" stroke="rgb(113,47,143)" stroke-width="1" opacity="0.75" />
			</g>
		</g>
		<g>
			<title> (ctg2_269)</title>
			<polygon class=" (ctg2_269)" points="145,25 165,25 165,10 195,40 165,70 165,55 145,55" fill="rgb(255,255,255)" fill-opacity="1.0" stroke="rgb(0,0,0)" stroke-width="2"  />
		</g>
		<g>
			<title> (ctg2_270)</title>
			<polygon class=" (ctg2_270)" points="196,10 211,40 196,70" fill="rgb(255,255,255)" fill-opacity="1.0" stroke="rgb(0,0,0)" stroke-width="2"  />
			<g>
				<title>Phage_P2_GpU (PF06995)
"Phage P2 GpU"</title>
				<polygon class="PF06995" points="196,28 201,28 207,38 207,42 201,52 196,52" stroke-linejoin="round" width="11" height="24" fill="rgb(87,154,184)" stroke="rgb(69,123,147)" stroke-width="1" opacity="0.75" />
			</g>
		</g>
		<g>
			<title> (ctg2_271)</title>
			<polygon class=" (ctg2_271)" points="212,25 219,25 219,10 249,40 219,70 219,55 212,55" fill="rgb(255,255,255)" fill-opacity="1.0" stroke="rgb(0,0,0)" stroke-width="2"  />
			<g>
				<title>Phage_GPD (PF05954)
"Phage tail baseplate hub (GPD)"</title>
				<polygon class="PF05954" points="217,28 232,28 244,40 232,52 217,52" stroke-linejoin="round" width="29" height="24" fill="rgb(123,216,82)" stroke="rgb(98,172,65)" stroke-width="1" opacity="0.75" />
			</g>
		</g>
		<g>
			<title> (ctg2_272)</title>
			<polygon class=" (ctg2_272)" points="252,10 259,40 252,70" fill="rgb(255,255,255)" fill-opacity="1.0" stroke="rgb(0,0,0)" stroke-width="2"  />
			<g>
				<title>Ogr_Delta (PF04606)
"Ogr/Delta-like zinc finger"</title>
				<polygon class="PF04606" points="252,28 252,28 256,39 256,41 252,52 252,52" stroke-linejoin="round" width="4" height="24" fill="rgb(180,76,51)" stroke="rgb(144,60,40)" stroke-width="1" opacity="0.75" />
			</g>
		</g>
		<g>
			<title> (ctg2_273)</title>
			<polygon class=" (ctg2_273)" points="264,25 268,25 268,10 298,40 268,70 268,55 264,55" fill="rgb(255,255,255)" fill-opacity="1.0" stroke="rgb(0,0,0)" stroke-width="2"  />
			<g>
				<title>Peptidase_M19 (PF01244)
"Membrane dipeptidase (Peptidase family M19)"</title>
				<polygon class="PF01244" points="264,28 282,28 294,40 282,52 264,52" stroke-linejoin="round" width="33" height="24" fill="rgb(178,227,92)" stroke="rgb(142,181,73)" stroke-width="1" opacity="0.75" />
			</g>
		</g>
		<g>
			<title> (ctg2_274)</title>
			<polygon class=" (ctg2_274)" points="311,25 313,25 313,10 343,40 313,70 313,55 311,55" fill="rgb(255,255,255)" fill-opacity="1.0" stroke="rgb(0,0,0)" stroke-width="2"  />
			<g>
				<title>Lactamase_B_2 (PF12706)
"Beta-lactamase superfamily domain"</title>
				<polygon class="PF12706" points="317,28 326,28 338,40 326,52 317,52" stroke-linejoin="round" width="22" height="24" fill="rgb(62,169,197)" stroke="rgb(49,135,157)" stroke-width="1" opacity="0.75" />
			</g>
		</g>
		<g>
			<title> (ctg2_275)</title>
			<polygon class=" (ctg2_275)" points="343,10 368,40 343,70" fill="rgb(255,255,255)" fill-opacity="1.0" stroke="rgb(0,0,0)" stroke-width="2"  />
			<g>
				<title>TENA_THI-4 (PF03070)
"TENA/THI-4/PQQC family"</title>
				<polygon class="PF03070" points="344,28 354,28 364,40 354,52 344,52" stroke-linejoin="round" width="21" height="24" fill="rgb(95,149,219)" stroke="rgb(76,119,175)" stroke-width="1" opacity="0.75" />
			</g>
		</g>
		<g>
			<title> (ctg2_276)</title>
			<polygon class=" (ctg2_276)" points="368,10 377,40 368,70" fill="rgb(255,255,255)" fill-opacity="1.0" stroke="rgb(0,0,0)" stroke-width="2"  />
			<g>
				<title>PqqD (PF05402)
"Coenzyme PQQ synthesis protein D (PqqD)"</title>
				<polygon class="PF05402" points="370,28 370,28 374,40 370,52 370,52" stroke-linejoin="round" width="6" height="24" fill="rgb(124,62,188)" stroke="rgb(99,49,150)" stroke-width="1" opacity="0.75" />
			</g>
		</g>
		<g>
			<title> (ctg2_277)</title>
			<polygon class=" (ctg2_277)" points="377,25 385,25 385,10 415,40 385,70 385,55 377,55" fill="rgb(255,255,255)" fill-opacity="1.0" stroke="rgb(0,0,0)" stroke-width="2"  />
			<g>
				<title>Radical_SAM (PF04055)
"Radical SAM superfamily"</title>
				<rect class="PF04055" x="378" y="28" stroke-linejoin="round" width="15" height="24" fill="rgb(149,56,222)" stroke="rgb(119,44,177)" stroke-width="1" opacity="0.75" />
			</g>
			<g>
				<title>SPASM (PF13186)
"Iron-sulfur cluster-binding domain"</title>
				<polygon class="PF13186" points="401,30 407,36 407,44 401,50" stroke-linejoin="round" width="6" height="24" fill="rgb(183,66,65)" stroke="rgb(146,52,51)" stroke-width="1" opacity="0.75" />
			</g>
		</g>
		<g>
			<title> (ctg2_278)</title>
			<polygon class=" (ctg2_278)" points="415,25 463,25 463,10 493,40 463,70 463,55 415,55" fill="rgb(255,255,255)" fill-opacity="1.0" stroke="rgb(0,0,0)" stroke-width="2"  />
			<g>
				<title>Peptidase_M16 (PF00675)
"Insulinase (Peptidase family M16)"</title>
				<rect class="PF00675" x="415" y="28" stroke-linejoin="round" width="14" height="24" fill="rgb(70,225,127)" stroke="rgb(56,180,101)" stroke-width="1" opacity="0.75" />
			</g>
		</g>
		<g>
			<title> (ctg2_279)</title>
			<polygon class=" (ctg2_279)" points="498,10 516,40 498,70" fill="rgb(255,255,255)" fill-opacity="1.0" stroke="rgb(0,0,0)" stroke-width="2"  />
			<g>
				<title>AhpC-TSA (PF00578)
"AhpC/TSA family"</title>
				<polygon class="PF00578" points="501,28 505,28 513,40 505,52 501,52" stroke-linejoin="round" width="13" height="24" fill="rgb(166,71,190)" stroke="rgb(132,56,152)" stroke-width="1" opacity="0.75" />
			</g>
		</g>
		<g>
			<title> (ctg2_280)</title>
			<polygon class=" (ctg2_280)" points="517,25 528,25 528,10 558,40 528,70 528,55 517,55" fill="rgb(255,255,255)" fill-opacity="1.0" stroke="rgb(0,0,0)" stroke-width="2"  />
			<g>
				<title>DsbD (PF02683)
"Cytochrome C biogenesis protein transmembrane region"</title>
				<rect class="PF02683" x="517" y="28" stroke-linejoin="round" width="19" height="24" fill="rgb(89,192,111)" stroke="rgb(71,153,88)" stroke-width="1" opacity="0.75" />
			</g>
			<g>
				<title>Thioredoxin_7 (PF13899)
"Thioredoxin-like"</title>
				<polygon class="PF13899" points="546,32 554,40 554,40 546,48" stroke-linejoin="round" width="8" height="24" fill="rgb(143,52,187)" stroke="rgb(114,41,149)" stroke-width="1" opacity="0.75" />
			</g>
		</g>
		<g>
			<title> (ctg2_281)</title>
			<polygon class=" (ctg2_281)" points="560,10 578,40 560,70" fill="rgb(255,255,255)" fill-opacity="1.0" stroke="rgb(0,0,0)" stroke-width="2"  />
			<g>
				<title>Sigma70_r2 (PF04542)
"Sigma-70 region 2"</title>
				<polygon class="PF04542" points="562,28 567,28 568,29 568,51 567,52 562,52" stroke-linejoin="round" width="6" height="24" fill="rgb(184,59,197)" stroke="rgb(147,47,157)" stroke-width="1" opacity="0.75" />
			</g>
			<g>
				<title>Sigma70_r4 (PF04545)
"Sigma-70, region 4"</title>
				<polygon class="PF04545" points="572,36 575,40 572,44" stroke-linejoin="round" width="4" height="24" fill="rgb(75,207,224)" stroke="rgb(60,165,179)" stroke-width="1" opacity="0.75" />
			</g>
		</g>
		<g>
			<title> (ctg2_282)</title>
			<polygon class=" (ctg2_282)" points="579,10 601,40 579,70" fill="rgb(255,255,255)" fill-opacity="1.0" stroke="rgb(0,0,0)" stroke-width="2"  />
		</g>
		<g>
			<title> (ctg2_283)</title>
			<polygon class=" (ctg2_283)" points="605,10 611,40 605,70" fill="rgb(255,255,255)" fill-opacity="1.0" stroke="rgb(0,0,0)" stroke-width="2"  />
		</g>
		<g>
			<title> (ctg2_284)</title>
			<polygon class=" (ctg2_284)" points="612,10 623,40 612,70" fill="rgb(255,255,255)" fill-opacity="1.0" stroke="rgb(0,0,0)" stroke-width="2"  />
			<g>
				<title>HTH_3 (PF01381)
"Helix-turn-helix"</title>
				<polygon class="PF01381" points="613,28 615,28 618,35 618,45 615,52 613,52" stroke-linejoin="round" width="5" height="24" fill="rgb(105,79,202)" stroke="rgb(83,63,161)" stroke-width="1" opacity="0.75" />
			</g>
		</g>
		<g>
			<title> (ctg2_285)</title>
			<polygon class=" (ctg2_285)" points="651,40 677,10 677,70" fill="rgb(255,255,255)" fill-opacity="1.0" stroke="rgb(0,0,0)" stroke-width="2"  />
			<g>
				<title>adh_short (PF00106)
"short chain dehydrogenase"</title>
				<polygon class="PF00106" points="657,38 666,28 676,28 676,52 666,52 657,42" stroke-linejoin="round" width="19" height="24" fill="rgb(182,219,73)" stroke="rgb(145,175,58)" stroke-width="1" opacity="0.75" />
			</g>
		</g>
		<g>
			<title> (ctg2_286)</title>
			<polygon class=" (ctg2_286)" points="683,10 702,40 683,70" fill="rgb(255,255,255)" fill-opacity="1.0" stroke="rgb(0,0,0)" stroke-width="2"  />
			<g>
				<title>TetR_N (PF00440)
"Bacterial regulatory proteins, tetR family"</title>
				<rect class="PF00440" x="684" y="28" stroke-linejoin="round" width="4" height="24" fill="rgb(73,212,190)" stroke="rgb(58,169,152)" stroke-width="1" opacity="0.75" />
			</g>
		</g>
		<g>
			<title> (ctg2_287)</title>
			<polygon class=" (ctg2_287)" points="702,40 720,10 720,70" fill="rgb(255,255,255)" fill-opacity="1.0" stroke="rgb(0,0,0)" stroke-width="2"  />
			<g>
				<title>His_Phos_1 (PF00300)
"Histidine phosphatase superfamily (branch 1)"</title>
				<polygon class="PF00300" points="706,40 713,28 720,28 720,52 713,52" stroke-linejoin="round" width="17" height="24" fill="rgb(135,184,63)" stroke="rgb(107,147,50)" stroke-width="1" opacity="0.75" />
			</g>
		</g>
	</g>
</svg>
