<svg version="1.1" baseProfile="full" xmlns="http://www.w3.org/2000/svg" width="1438.8333333333333" height="80">
	<g>
		<line x1="10" y1="40.0" x2="1428.8333333333333" y2="40.0" style="stroke:rgb(70,70,70); stroke-width:3 "/>
		<g>
			<title> (ctg13_10)</title>
			<polygon class=" (ctg13_10)" points="124,25 116,25 116,10 86,40 116,70 116,55 124,55" fill="rgb(255,255,255)" fill-opacity="1.0" stroke="rgb(0,0,0)" stroke-width="2"  />
		</g>
		<g>
			<title> (ctg13_11)</title>
			<polygon class=" (ctg13_11)" points="174,25 154,25 154,10 124,40 154,70 154,55 174,55" fill="rgb(255,255,255)" fill-opacity="1.0" stroke="rgb(0,0,0)" stroke-width="2"  />
			<g>
				<title>N6_Mtase (PF02384)
"N-6 DNA Methylase"</title>
				<polygon class="PF02384" points="128,40 140,28 161,28 161,52 140,52" stroke-linejoin="round" width="34" height="24" fill="rgb(46,179,90)" stroke="rgb(36,143,72)" stroke-width="1" opacity="0.75" />
			</g>
			<g>
				<title>HsdM_N (PF12161)
"HsdM N-terminal domain"</title>
				<rect class="PF12161" x="161" y="28" stroke-linejoin="round" width="12" height="24" fill="rgb(68,127,210)" stroke="rgb(54,101,168)" stroke-width="1" opacity="0.75" />
			</g>
		</g>
		<g>
			<title> (ctg13_12)</title>
			<polygon class=" (ctg13_12)" points="273,25 217,25 217,10 187,40 217,70 217,55 273,55" fill="rgb(255,255,255)" fill-opacity="1.0" stroke="rgb(0,0,0)" stroke-width="2"  />
			<g>
				<title>DnaB_C (PF03796)
"DnaB-like helicase C terminal domain"</title>
				<polygon class="PF03796" points="191,40 203,28 210,28 210,52 203,52" stroke-linejoin="round" width="23" height="24" fill="rgb(79,89,193)" stroke="rgb(63,71,154)" stroke-width="1" opacity="0.75" />
			</g>
			<g>
				<title>LAGLIDADG_3 (PF14528)
"LAGLIDADG-like domain"</title>
				<rect class="PF14528" x="215" y="28" stroke-linejoin="round" width="7" height="24" fill="rgb(97,101,195)" stroke="rgb(77,80,156)" stroke-width="1" opacity="0.75" />
			</g>
			<g>
				<title>DnaB_C (PF03796)
"DnaB-like helicase C terminal domain"</title>
				<rect class="PF03796" x="249" y="28" stroke-linejoin="round" width="5" height="24" fill="rgb(79,89,193)" stroke="rgb(63,71,154)" stroke-width="1" opacity="0.75" />
			</g>
			<g>
				<title>DnaB (PF00772)
"DnaB-like helicase N terminal domain"</title>
				<rect class="PF00772" x="261" y="28" stroke-linejoin="round" width="10" height="24" fill="rgb(199,202,74)" stroke="rgb(159,161,59)" stroke-width="1" opacity="0.75" />
			</g>
		</g>
		<g>
			<title> (ctg13_13)</title>
			<polygon class=" (ctg13_13)" points="279,25 296,25 296,10 326,40 296,70 296,55 279,55" fill="rgb(255,255,255)" fill-opacity="1.0" stroke="rgb(0,0,0)" stroke-width="2"  />
			<g>
				<title>Amidase (PF01425)
"Amidase"</title>
				<polygon class="PF01425" points="282,28 310,28 322,40 310,52 282,52" stroke-linejoin="round" width="43" height="24" fill="rgb(195,142,64)" stroke="rgb(156,113,51)" stroke-width="1" opacity="0.75" />
			</g>
		</g>
		<g>
			<title> (ctg13_14)</title>
			<polygon class=" (ctg13_14)" points="332,25 334,25 334,10 364,40 334,70 334,55 332,55" fill="rgb(255,255,255)" fill-opacity="1.0" stroke="rgb(0,0,0)" stroke-width="2"  />
			<g>
				<title>NMT1 (PF09084)
"NMT1/THI5 like"</title>
				<polygon class="PF09084" points="336,28 348,28 357,37 357,43 348,52 336,52" stroke-linejoin="round" width="21" height="24" fill="rgb(196,85,209)" stroke="rgb(156,68,167)" stroke-width="1" opacity="0.75" />
			</g>
		</g>
		<g>
			<title> (ctg13_15)</title>
			<polygon class=" (ctg13_15)" points="402,25 395,25 395,10 365,40 395,70 395,55 402,55" fill="rgb(255,255,255)" fill-opacity="1.0" stroke="rgb(0,0,0)" stroke-width="2"  />
			<g>
				<title>Patatin (PF01734)
"Patatin-like phospholipase"</title>
				<rect class="PF01734" x="385" y="28" stroke-linejoin="round" width="16" height="24" fill="rgb(200,132,98)" stroke="rgb(160,105,78)" stroke-width="1" opacity="0.75" />
			</g>
		</g>
		<g>
			<title> (ctg13_16)</title>
			<polygon class=" (ctg13_16)" points="418,40 428,10 428,70" fill="rgb(255,255,255)" fill-opacity="1.0" stroke="rgb(0,0,0)" stroke-width="2"  />
		</g>
		<g>
			<title> (ctg13_17)</title>
			<polygon class=" (ctg13_17)" points="431,10 451,40 431,70" fill="rgb(255,255,255)" fill-opacity="1.0" stroke="rgb(0,0,0)" stroke-width="2"  />
			<g>
				<title>Methyltransf_25 (PF13649)
"Methyltransferase domain"</title>
				<polygon class="PF13649" points="435,28 439,28 444,35 444,45 439,52 435,52" stroke-linejoin="round" width="9" height="24" fill="rgb(227,135,74)" stroke="rgb(181,108,59)" stroke-width="1" opacity="0.75" />
			</g>
		</g>
		<g>
			<title> (ctg13_18)</title>
			<polygon class=" (ctg13_18)" points="455,40 470,10 470,70" fill="rgb(255,255,255)" fill-opacity="1.0" stroke="rgb(0,0,0)" stroke-width="2"  />
			<g>
				<title>Ribosomal_L9_C (PF03948)
"Ribosomal protein L9, C-terminal domain"</title>
				<polygon class="PF03948" points="458,40 463,30 463,50" stroke-linejoin="round" width="8" height="24" fill="rgb(182,149,64)" stroke="rgb(145,119,51)" stroke-width="1" opacity="0.75" />
			</g>
			<g>
				<title>Ribosomal_L9_N (PF01281)
"Ribosomal protein L9, N-terminal domain"</title>
				<rect class="PF01281" x="465" y="28" stroke-linejoin="round" width="4" height="24" fill="rgb(66,147,191)" stroke="rgb(52,117,152)" stroke-width="1" opacity="0.75" />
			</g>
		</g>
		<g>
			<title> (ctg13_19)</title>
			<polygon class=" (ctg13_19)" points="471,40 478,10 478,70" fill="rgb(255,255,255)" fill-opacity="1.0" stroke="rgb(0,0,0)" stroke-width="2"  />
			<g>
				<title>Ribosomal_S18 (PF01084)
"Ribosomal protein S18"</title>
				<polygon class="PF01084" points="474,40 476,32 476,48" stroke-linejoin="round" width="5" height="24" fill="rgb(195,114,97)" stroke="rgb(156,91,77)" stroke-width="1" opacity="0.75" />
			</g>
		</g>
		<g>
			<title> (ctg13_20)</title>
			<polygon class=" (ctg13_20)" points="482,40 503,10 503,70" fill="rgb(255,255,255)" fill-opacity="1.0" stroke="rgb(0,0,0)" stroke-width="2"  />
			<g>
				<title>SSB (PF00436)
"Single-strand binding protein family"</title>
				<polygon class="PF00436" points="492,32 495,28 502,28 502,52 495,52 492,48" stroke-linejoin="round" width="10" height="24" fill="rgb(64,225,98)" stroke="rgb(51,180,78)" stroke-width="1" opacity="0.75" />
			</g>
		</g>
		<g>
			<title> (ctg13_21)</title>
			<polygon class=" (ctg13_21)" points="507,40 517,10 517,70" fill="rgb(255,255,255)" fill-opacity="1.0" stroke="rgb(0,0,0)" stroke-width="2"  />
			<g>
				<title>Ribosomal_S6 (PF01250)
"Ribosomal protein S6"</title>
				<polygon class="PF01250" points="510,40 514,28 516,28 516,52 514,52" stroke-linejoin="round" width="8" height="24" fill="rgb(99,124,206)" stroke="rgb(79,99,164)" stroke-width="1" opacity="0.75" />
			</g>
		</g>
		<g>
			<title> (ctg13_22)</title>
			<polygon class=" (ctg13_22)" points="523,40 537,10 537,70" fill="rgb(255,255,255)" fill-opacity="1.0" stroke="rgb(0,0,0)" stroke-width="2"  />
			<g>
				<title>TM2 (PF05154)
"TM2 domain"</title>
				<polygon class="PF05154" points="526,40 531,29 531,51" stroke-linejoin="round" width="6" height="24" fill="rgb(117,58,203)" stroke="rgb(93,46,162)" stroke-width="1" opacity="0.75" />
			</g>
		</g>
		<g>
			<title> (ctg13_23)</title>
			<polygon class=" (ctg13_23)" points="546,25 550,25 550,10 580,40 550,70 550,55 546,55" fill="rgb(255,255,255)" fill-opacity="1.0" stroke="rgb(0,0,0)" stroke-width="2"  />
			<g>
				<title>SBP_bac_6 (PF13343)
"Bacterial extracellular solute-binding protein"</title>
				<polygon class="PF13343" points="554,28 564,28 576,40 564,52 554,52" stroke-linejoin="round" width="23" height="24" fill="rgb(176,192,49)" stroke="rgb(140,153,39)" stroke-width="1" opacity="0.75" />
			</g>
		</g>
		<g>
			<title> (ctg13_24)</title>
			<polygon class=" (ctg13_24)" points="583,25 606,25 606,10 636,40 606,70 606,55 583,55" fill="rgb(255,255,255)" fill-opacity="1.0" stroke="rgb(0,0,0)" stroke-width="2"  />
			<g>
				<title>BPD_transp_1 (PF00528)
"Binding-protein-dependent transport system inner membrane component"</title>
				<rect class="PF00528" x="587" y="28" stroke-linejoin="round" width="20" height="24" fill="rgb(77,208,225)" stroke="rgb(61,166,180)" stroke-width="1" opacity="0.75" />
			</g>
		</g>
		<g>
			<title> (ctg13_25)</title>
			<polygon class=" (ctg13_25)" points="636,25 645,25 645,10 675,40 645,70 645,55 636,55" fill="rgb(255,255,255)" fill-opacity="1.0" stroke="rgb(0,0,0)" stroke-width="2"  />
			<g>
				<title>ABC_tran (PF00005)
"ABC transporter"</title>
				<rect class="PF00005" x="639" y="28" stroke-linejoin="round" width="14" height="24" fill="rgb(129,201,63)" stroke="rgb(103,160,50)" stroke-width="1" opacity="0.75" />
			</g>
			<g>
				<title>TOBE_2 (PF08402)
"TOBE domain"</title>
				<polygon class="PF08402" points="665,34 671,40 671,40 665,46" stroke-linejoin="round" width="6" height="24" fill="rgb(70,123,193)" stroke="rgb(56,98,154)" stroke-width="1" opacity="0.75" />
			</g>
		</g>
		<g>
			<title> (ctg13_26)</title>
			<polygon class=" (ctg13_26)" points="676,25 731,25 731,10 761,40 731,70 731,55 676,55" fill="rgb(255,255,255)" fill-opacity="1.0" stroke="rgb(0,0,0)" stroke-width="2"  />
			<g>
				<title>AMP-binding (PF00501)
"AMP-binding enzyme"</title>
				<rect class="PF00501" x="677" y="28" stroke-linejoin="round" width="36" height="24" fill="rgb(60,217,223)" stroke="rgb(48,173,178)" stroke-width="1" opacity="0.75" />
			</g>
			<g>
				<title>PP-binding (PF00550)
"Phosphopantetheine attachment site"</title>
				<rect class="PF00550" x="723" y="28" stroke-linejoin="round" width="6" height="24" fill="rgb(103,191,88)" stroke="rgb(82,152,70)" stroke-width="1" opacity="0.75" />
			</g>
		</g>
		<g>
			<title> (ctg13_27)</title>
			<polygon class=" (ctg13_27)" points="800,25 791,25 791,10 761,40 791,70 791,55 800,55" fill="rgb(255,255,255)" fill-opacity="1.0" stroke="rgb(0,0,0)" stroke-width="2"  />
		</g>
		<g>
			<title> (ctg13_28)</title>
			<polygon class=" (ctg13_28)" points="835,25 832,25 832,10 802,40 832,70 832,55 835,55" fill="rgb(255,255,255)" fill-opacity="1.0" stroke="rgb(0,0,0)" stroke-width="2"  />
			<g>
				<title>ABC2_membrane_2 (PF12679)
"ABC-2 family transporter protein"</title>
				<polygon class="PF12679" points="806,40 818,28 832,28 832,52 818,52" stroke-linejoin="round" width="30" height="24" fill="rgb(70,194,214)" stroke="rgb(56,155,171)" stroke-width="1" opacity="0.75" />
			</g>
		</g>
		<g>
			<title> (ctg13_29)</title>
			<polygon class=" (ctg13_29)" points="868,25 866,25 866,10 836,40 866,70 866,55 868,55" fill="rgb(255,255,255)" fill-opacity="1.0" stroke="rgb(0,0,0)" stroke-width="2"  />
			<g>
				<title>ABC_tran (PF00005)
"ABC transporter"</title>
				<polygon class="PF00005" points="852,28 852,28 865,28 865,52 852,52 852,52" stroke-linejoin="round" width="13" height="24" fill="rgb(129,201,63)" stroke="rgb(103,160,50)" stroke-width="1" opacity="0.75" />
			</g>
		</g>
		<g>
			<title> (ctg13_30)</title>
			<polygon class=" (ctg13_30)" points="914,25 903,25 903,10 873,40 903,70 903,55 914,55" fill="rgb(255,255,255)" fill-opacity="1.0" stroke="rgb(0,0,0)" stroke-width="2"  />
			<g>
				<title>GT87 (PF09594)
"Glycosyltransferase family 87"</title>
				<polygon class="PF09594" points="882,35 889,28 905,28 905,52 889,52 882,45" stroke-linejoin="round" width="23" height="24" fill="rgb(110,68,183)" stroke="rgb(87,54,146)" stroke-width="1" opacity="0.75" />
			</g>
		</g>
		<g>
			<title> (ctg13_31)</title>
			<polygon class=" (ctg13_31)" points="914,40 919,10 919,70" fill="rgb(255,255,255)" fill-opacity="1.0" stroke="rgb(0,0,0)" stroke-width="2"  />
		</g>
		<g>
			<title> (ctg13_32)</title>
			<polygon class=" (ctg13_32)" points="966,25 949,25 949,10 919,40 949,70 949,55 966,55" fill="rgb(255,255,255)" fill-opacity="1.0" stroke="rgb(0,0,0)" stroke-width="2"  />
			<g>
				<title>HD (PF01966)
"HD domain"</title>
				<polygon class="PF01966" points="925,38 935,28 939,28 939,52 935,52 925,42" stroke-linejoin="round" width="14" height="24" fill="rgb(92,193,119)" stroke="rgb(73,154,95)" stroke-width="1" opacity="0.75" />
			</g>
			<g>
				<title>PolyA_pol_RNAbd (PF12627)
"Probable RNA and SrmB- binding site of polymerase A"</title>
				<rect class="PF12627" x="942" y="28" stroke-linejoin="round" width="6" height="24" fill="rgb(106,197,60)" stroke="rgb(84,157,47)" stroke-width="1" opacity="0.75" />
			</g>
			<g>
				<title>PolyA_pol (PF01743)
"Poly A polymerase head domain"</title>
				<rect class="PF01743" x="950" y="28" stroke-linejoin="round" width="12" height="24" fill="rgb(216,132,105)" stroke="rgb(172,105,84)" stroke-width="1" opacity="0.75" />
			</g>
		</g>
		<g>
			<title> (ctg13_33)</title>
			<polygon class=" (ctg13_33)" points="970,10 986,40 970,70" fill="rgb(255,255,255)" fill-opacity="1.0" stroke="rgb(0,0,0)" stroke-width="2"  />
			<g>
				<title>NUDIX (PF00293)
"NUDIX domain"</title>
				<polygon class="PF00293" points="972,28 976,28 983,40 976,52 972,52" stroke-linejoin="round" width="13" height="24" fill="rgb(92,56,187)" stroke="rgb(73,44,149)" stroke-width="1" opacity="0.75" />
			</g>
		</g>
		<g>
			<title> (ctg13_34)</title>
			<polygon class=" (ctg13_34)" points="986,25 1013,25 1013,10 1043,40 1013,70 1013,55 986,55" fill="rgb(255,255,255)" fill-opacity="1.0" stroke="rgb(0,0,0)" stroke-width="2"  />
			<g>
				<title>MurJ (PF03023)
"Lipid II flippase MurJ"</title>
				<polygon class="PF03023" points="991,28 1027,28 1038,39 1038,41 1027,52 991,52" stroke-linejoin="round" width="47" height="24" fill="rgb(58,92,194)" stroke="rgb(46,73,155)" stroke-width="1" opacity="0.75" />
			</g>
		</g>
		<g>
			<title> (ctg13_35)</title>
			<polygon class=" (ctg13_35)" points="1051,25 1069,25 1069,10 1099,40 1069,70 1069,55 1051,55" fill="rgb(255,255,255)" fill-opacity="1.0" stroke="rgb(0,0,0)" stroke-width="2"  />
		</g>
		<g>
			<title> (ctg13_36)</title>
			<polygon class=" (ctg13_36)" points="1104,25 1108,25 1108,10 1138,40 1108,70 1108,55 1104,55" fill="rgb(255,255,255)" fill-opacity="1.0" stroke="rgb(0,0,0)" stroke-width="2"  />
			<g>
				<title>Pyr_redox_2 (PF07992)
"Pyridine nucleotide-disulphide oxidoreductase"</title>
				<polygon class="PF07992" points="1107,28 1122,28 1134,40 1122,52 1107,52" stroke-linejoin="round" width="29" height="24" fill="rgb(83,223,167)" stroke="rgb(66,178,133)" stroke-width="1" opacity="0.75" />
			</g>
		</g>
		<g>
			<title> (ctg13_37)</title>
			<polygon class=" (ctg13_37)" points="1143,10 1154,40 1143,70" fill="rgb(255,255,255)" fill-opacity="1.0" stroke="rgb(0,0,0)" stroke-width="2"  />
			<g>
				<title>Thioredoxin (PF00085)
"Thioredoxin"</title>
				<polygon class="PF00085" points="1143,28 1146,28 1150,40 1146,52 1143,52" stroke-linejoin="round" width="10" height="24" fill="rgb(220,109,180)" stroke="rgb(176,87,144)" stroke-width="1" opacity="0.75" />
			</g>
		</g>
		<g>
			<title> (ctg13_38)</title>
			<polygon class=" (ctg13_38)" points="1158,25 1168,25 1168,10 1198,40 1168,70 1168,55 1158,55" fill="rgb(255,255,255)" fill-opacity="1.0" stroke="rgb(0,0,0)" stroke-width="2"  />
			<g>
				<title>PG_binding_1 (PF01471)
"Putative peptidoglycan binding domain"</title>
				<rect class="PF01471" x="1159" y="28" stroke-linejoin="round" width="6" height="24" fill="rgb(186,74,131)" stroke="rgb(148,59,104)" stroke-width="1" opacity="0.75" />
			</g>
			<g>
				<title>PG_binding_1 (PF01471)
"Putative peptidoglycan binding domain"</title>
				<rect class="PF01471" x="1167" y="28" stroke-linejoin="round" width="5" height="24" fill="rgb(186,74,131)" stroke="rgb(148,59,104)" stroke-width="1" opacity="0.75" />
			</g>
			<g>
				<title>Amidase_3 (PF01520)
"N-acetylmuramoyl-L-alanine amidase"</title>
				<polygon class="PF01520" points="1179,28 1182,28 1194,40 1182,52 1179,52" stroke-linejoin="round" width="16" height="24" fill="rgb(174,223,57)" stroke="rgb(139,178,45)" stroke-width="1" opacity="0.75" />
			</g>
		</g>
		<g>
			<title> (ctg13_39)</title>
			<polygon class=" (ctg13_39)" points="1255,25 1231,25 1231,10 1201,40 1231,70 1231,55 1255,55" fill="rgb(255,255,255)" fill-opacity="1.0" stroke="rgb(0,0,0)" stroke-width="2"  />
			<g>
				<title>HTH_ParB (PF17762)
"HTH domain found in ParB protein"</title>
				<polygon class="PF17762" points="1208,37 1213,32 1213,48 1208,43" stroke-linejoin="round" width="5" height="24" fill="rgb(190,83,224)" stroke="rgb(151,66,179)" stroke-width="1" opacity="0.75" />
			</g>
			<g>
				<title>ParBc (PF02195)
"ParB/Sulfiredoxin domain"</title>
				<rect class="PF02195" x="1218" y="28" stroke-linejoin="round" width="9" height="24" fill="rgb(55,214,209)" stroke="rgb(44,171,167)" stroke-width="1" opacity="0.75" />
			</g>
		</g>
		<g>
			<title> (ctg13_40)</title>
			<polygon class=" (ctg13_40)" points="1299,25 1295,25 1295,10 1265,40 1295,70 1295,55 1299,55" fill="rgb(255,255,255)" fill-opacity="1.0" stroke="rgb(0,0,0)" stroke-width="2"  />
			<g>
				<title>AAA_31 (PF13614)
"AAA domain"</title>
				<polygon class="PF13614" points="1272,37 1281,28 1290,28 1290,52 1281,52 1272,43" stroke-linejoin="round" width="18" height="24" fill="rgb(144,187,62)" stroke="rgb(115,149,49)" stroke-width="1" opacity="0.75" />
			</g>
		</g>
		<g>
			<title> (ctg13_41)</title>
			<polygon class=" (ctg13_41)" points="1306,40 1328,10 1328,70" fill="rgb(255,255,255)" fill-opacity="1.0" stroke="rgb(0,0,0)" stroke-width="2"  />
			<g>
				<title>GidB (PF02527)
"rRNA small subunit methyltransferase G"</title>
				<polygon class="PF02527" points="1310,40 1319,28 1325,28 1325,52 1319,52" stroke-linejoin="round" width="18" height="24" fill="rgb(63,147,188)" stroke="rgb(50,117,150)" stroke-width="1" opacity="0.75" />
			</g>
		</g>
		<g>
			<title> (ctg13_42)</title>
			<polygon class=" (ctg13_42)" points="1328,40 1348,10 1348,70" fill="rgb(255,255,255)" fill-opacity="1.0" stroke="rgb(0,0,0)" stroke-width="2"  />
			<g>
				<title>R3H (PF01424)
"R3H domain"</title>
				<polygon class="PF01424" points="1332,40 1333,39 1333,41" stroke-linejoin="round" width="5" height="24" fill="rgb(228,106,106)" stroke="rgb(182,84,84)" stroke-width="1" opacity="0.75" />
			</g>
		</g>
		<g>
			<title> (ctg13_43)</title>
			<polygon class=" (ctg13_43)" points="1383,25 1381,25 1381,10 1351,40 1381,70 1381,55 1383,55" fill="rgb(255,255,255)" fill-opacity="1.0" stroke="rgb(0,0,0)" stroke-width="2"  />
			<g>
				<title>60KD_IMP (PF02096)
"60Kd inner membrane protein"</title>
				<polygon class="PF02096" points="1357,38 1367,28 1379,28 1379,52 1367,52 1357,42" stroke-linejoin="round" width="22" height="24" fill="rgb(68,199,166)" stroke="rgb(54,159,132)" stroke-width="1" opacity="0.75" />
			</g>
		</g>
		<g>
			<title> (ctg13_44)</title>
			<polygon class=" (ctg13_44)" points="1384,40 1398,10 1398,70" fill="rgb(255,255,255)" fill-opacity="1.0" stroke="rgb(0,0,0)" stroke-width="2"  />
			<g>
				<title>YidD (PF01809)
"Putative membrane protein insertion efficiency factor"</title>
				<polygon class="PF01809" points="1388,38 1393,28 1394,28 1394,52 1393,52 1388,42" stroke-linejoin="round" width="6" height="24" fill="rgb(189,106,53)" stroke="rgb(151,84,42)" stroke-width="1" opacity="0.75" />
			</g>
		</g>
		<g>
			<title> (ctg13_45)</title>
			<polygon class=" (ctg13_45)" points="1399,40 1412,10 1412,70" fill="rgb(255,255,255)" fill-opacity="1.0" stroke="rgb(0,0,0)" stroke-width="2"  />
			<g>
				<title>Ribonuclease_P (PF00825)
"Ribonuclease P"</title>
				<polygon class="PF00825" points="1402,40 1408,28 1411,28 1411,52 1408,52" stroke-linejoin="round" width="10" height="24" fill="rgb(204,88,61)" stroke="rgb(163,70,48)" stroke-width="1" opacity="0.75" />
			</g>
		</g>
		<g>
			<title> (ctg13_46)</title>
			<polygon class=" (ctg13_46)" points="1416,40 1420,10 1420,70" fill="rgb(255,255,255)" fill-opacity="1.0" stroke="rgb(0,0,0)" stroke-width="2"  />
			<g>
				<title>Ribosomal_L34 (PF00468)
"Ribosomal protein L34"</title>
				<polygon class="PF00468" points="1419,40 1420,33 1420,47" stroke-linejoin="round" width="4" height="24" fill="rgb(87,179,53)" stroke="rgb(69,143,42)" stroke-width="1" opacity="0.75" />
			</g>
		</g>
	</g>
</svg>
