<svg version="1.1" baseProfile="full" xmlns="http://www.w3.org/2000/svg" width="1155.0" height="80">
	<g>
		<line x1="10" y1="40.0" x2="1145.0" y2="40.0" style="stroke:rgb(70,70,70); stroke-width:3 "/>
		<g>
			<title> (ctg1_374)</title>
			<polygon class=" (ctg1_374)" points="10,40 17,10 17,70" fill="rgb(255,255,255)" fill-opacity="1.0" stroke="rgb(0,0,0)" stroke-width="2"  />
			<g>
				<title>Glutaredoxin (PF00462)
"Glutaredoxin"</title>
				<polygon class="PF00462" points="13,40 16,28 16,28 16,52 16,52" stroke-linejoin="round" width="5" height="24" fill="rgb(77,192,167)" stroke="rgb(61,153,133)" stroke-width="1" opacity="0.75" />
			</g>
		</g>
		<g>
			<title> (ctg1_375)</title>
			<polygon class=" (ctg1_375)" points="27,40 43,10 43,70" fill="rgb(255,255,255)" fill-opacity="1.0" stroke="rgb(0,0,0)" stroke-width="2"  />
			<g>
				<title>NAD_binding_10 (PF13460)
"NAD(P)H-binding"</title>
				<polygon class="PF13460" points="30,40 37,28 42,28 42,52 37,52" stroke-linejoin="round" width="14" height="24" fill="rgb(188,201,78)" stroke="rgb(150,160,62)" stroke-width="1" opacity="0.75" />
			</g>
		</g>
		<g>
			<title> (ctg1_376)</title>
			<polygon class=" (ctg1_376)" points="82,25 77,25 77,10 47,40 77,70 77,55 82,55" fill="rgb(255,255,255)" fill-opacity="1.0" stroke="rgb(0,0,0)" stroke-width="2"  />
			<g>
				<title>APP1_cat (PF09949)
"Phosphatidate phosphatase APP1, catalytic domain"</title>
				<polygon class="PF09949" points="51,40 63,28 66,28 66,52 63,52 51,40" stroke-linejoin="round" width="15" height="24" fill="rgb(228,200,91)" stroke="rgb(182,159,72)" stroke-width="1" opacity="0.75" />
			</g>
		</g>
		<g>
			<title> (ctg1_377)</title>
			<polygon class=" (ctg1_377)" points="128,25 118,25 118,10 88,40 118,70 118,55 128,55" fill="rgb(255,255,255)" fill-opacity="1.0" stroke="rgb(0,0,0)" stroke-width="2"  />
			<g>
				<title>Metallophos (PF00149)
"Calcineurin-like phosphoesterase"</title>
				<polygon class="PF00149" points="96,36 104,28 122,28 122,52 104,52 96,44" stroke-linejoin="round" width="26" height="24" fill="rgb(181,197,58)" stroke="rgb(144,157,46)" stroke-width="1" opacity="0.75" />
			</g>
		</g>
		<g>
			<title> (ctg1_378)</title>
			<polygon class=" (ctg1_378)" points="257,25 164,25 164,10 134,40 164,70 164,55 257,55" fill="rgb(255,255,255)" fill-opacity="1.0" stroke="rgb(0,0,0)" stroke-width="2"  />
			<g>
				<title>HHH_6 (PF14579)
"Helix-hairpin-helix motif"</title>
				<rect class="PF14579" x="159" y="28" stroke-linejoin="round" width="10" height="24" fill="rgb(166,180,62)" stroke="rgb(132,144,49)" stroke-width="1" opacity="0.75" />
			</g>
			<g>
				<title>DNA_pol3_finger (PF17657)
"Bacterial DNA polymerase III alpha subunit finger domain"</title>
				<rect class="PF17657" x="177" y="28" stroke-linejoin="round" width="16" height="24" fill="rgb(220,76,163)" stroke="rgb(176,60,130)" stroke-width="1" opacity="0.75" />
			</g>
			<g>
				<title>DNA_pol3_alpha (PF07733)
"Bacterial DNA polymerase III alpha NTPase domain"</title>
				<rect class="PF07733" x="193" y="28" stroke-linejoin="round" width="26" height="24" fill="rgb(190,187,47)" stroke="rgb(152,149,37)" stroke-width="1" opacity="0.75" />
			</g>
			<g>
				<title>PHP (PF02811)
"PHP domain"</title>
				<rect class="PF02811" x="235" y="28" stroke-linejoin="round" width="20" height="24" fill="rgb(167,87,219)" stroke="rgb(133,69,175)" stroke-width="1" opacity="0.75" />
			</g>
		</g>
		<g>
			<title> (ctg1_379)</title>
			<polygon class=" (ctg1_379)" points="259,40 272,10 272,70" fill="rgb(255,255,255)" fill-opacity="1.0" stroke="rgb(0,0,0)" stroke-width="2"  />
		</g>
		<g>
			<title> (ctg1_380)</title>
			<polygon class=" (ctg1_380)" points="279,10 286,40 279,70" fill="rgb(255,255,255)" fill-opacity="1.0" stroke="rgb(0,0,0)" stroke-width="2"  />
		</g>
		<g>
			<title> (ctg1_381)</title>
			<polygon class=" (ctg1_381)" points="287,10 300,40 287,70" fill="rgb(255,255,255)" fill-opacity="1.0" stroke="rgb(0,0,0)" stroke-width="2"  />
		</g>
		<g>
			<title> (ctg1_382)</title>
			<polygon class=" (ctg1_382)" points="315,10 326,40 315,70" fill="rgb(255,255,255)" fill-opacity="1.0" stroke="rgb(0,0,0)" stroke-width="2"  />
			<g>
				<title>ABM (PF03992)
"Antibiotic biosynthesis monooxygenase"</title>
				<polygon class="PF03992" points="316,28 318,28 322,40 318,52 316,52" stroke-linejoin="round" width="7" height="24" fill="rgb(193,84,127)" stroke="rgb(154,67,101)" stroke-width="1" opacity="0.75" />
			</g>
		</g>
		<g>
			<title> (ctg1_383)</title>
			<polygon class=" (ctg1_383)" points="327,40 340,10 340,70" fill="rgb(255,255,255)" fill-opacity="1.0" stroke="rgb(0,0,0)" stroke-width="2"  />
			<g>
				<title>adh_short_C2 (PF13561)
"Enoyl-(Acyl carrier protein) reductase"</title>
				<polygon class="PF13561" points="330,40 335,28 340,28 340,52 335,52" stroke-linejoin="round" width="13" height="24" fill="rgb(73,205,127)" stroke="rgb(58,164,101)" stroke-width="1" opacity="0.75" />
			</g>
		</g>
		<g>
			<title> (ctg1_384)</title>
			<polygon class=" (ctg1_384)" points="347,40 355,10 355,70" fill="rgb(255,255,255)" fill-opacity="1.0" stroke="rgb(0,0,0)" stroke-width="2"  />
		</g>
		<g>
			<title> (ctg1_385)</title>
			<polygon class=" (ctg1_385)" points="355,40 377,10 377,70" fill="rgb(255,255,255)" fill-opacity="1.0" stroke="rgb(0,0,0)" stroke-width="2"  />
			<g>
				<title>ECH_1 (PF00378)
"Enoyl-CoA hydratase/isomerase"</title>
				<polygon class="PF00378" points="359,40 360,39 360,41" stroke-linejoin="round" width="5" height="24" fill="rgb(218,72,181)" stroke="rgb(174,57,144)" stroke-width="1" opacity="0.75" />
			</g>
			<g>
				<title>TetR_C_24 (PF17932)
"Tetracyclin repressor-like, C-terminal domain"</title>
				<polygon class="PF17932" points="363,35 368,28 371,28 371,52 368,52 363,45" stroke-linejoin="round" width="8" height="24" fill="rgb(165,217,107)" stroke="rgb(132,173,85)" stroke-width="1" opacity="0.75" />
			</g>
		</g>
		<g>
			<title> (ctg1_386)</title>
			<polygon class=" (ctg1_386)" points="380,40 397,10 397,70" fill="rgb(255,255,255)" fill-opacity="1.0" stroke="rgb(0,0,0)" stroke-width="2"  />
			<g>
				<title>tRNA_edit (PF04073)
"Aminoacyl-tRNA editing domain"</title>
				<polygon class="PF04073" points="383,40 390,28 393,28 393,52 390,52" stroke-linejoin="round" width="12" height="24" fill="rgb(87,163,195)" stroke="rgb(69,130,156)" stroke-width="1" opacity="0.75" />
			</g>
		</g>
		<g>
			<title> (ctg1_387)</title>
			<polygon class=" (ctg1_387)" points="409,10 434,40 409,70" fill="rgb(255,255,255)" fill-opacity="1.0" stroke="rgb(0,0,0)" stroke-width="2"  />
			<g>
				<title>Thioesterase (PF00975)
"Thioesterase domain"</title>
				<polygon class="PF00975" points="411,28 420,28 430,40 420,52 411,52" stroke-linejoin="round" width="22" height="24" fill="rgb(207,80,138)" stroke="rgb(165,63,110)" stroke-width="1" opacity="0.75" />
			</g>
		</g>
		<g>
			<title> (ctg1_388)</title>
			<polygon class=" (ctg1_388)" points="434,10 460,40 434,70" fill="rgb(255,255,255)" fill-opacity="1.0" stroke="rgb(0,0,0)" stroke-width="2"  />
			<g>
				<title>ACPS (PF01648)
"4'-phosphopantetheinyl transferase superfamily"</title>
				<polygon class="PF01648" points="449,32 456,40 449,48" stroke-linejoin="round" width="8" height="24" fill="rgb(85,184,135)" stroke="rgb(68,147,108)" stroke-width="1" opacity="0.75" />
			</g>
		</g>
		<g>
			<title> (ctg1_389)</title>
			<polygon class=" (ctg1_389)" points="509,25 492,25 492,10 462,40 492,70 492,55 509,55" fill="rgb(255,255,255)" fill-opacity="1.0" stroke="rgb(0,0,0)" stroke-width="2"  />
			<g>
				<title>HGSNAT_cat (PF07786)
"Heparan-alpha-glucosaminide N-acetyltransferase, catalytic"</title>
				<polygon class="PF07786" points="478,28 478,28 500,28 500,52 478,52 478,52" stroke-linejoin="round" width="22" height="24" fill="rgb(166,59,205)" stroke="rgb(132,47,164)" stroke-width="1" opacity="0.75" />
			</g>
		</g>
		<g>
			<title> (ctg1_390)</title>
			<polygon class=" (ctg1_390)" points="645,25 540,25 540,10 510,40 540,70 540,55 645,55" fill="rgb(255,255,255)" fill-opacity="1.0" stroke="rgb(0,0,0)" stroke-width="2"  />
			<g>
				<title>PP-binding (PF00550)
"Phosphopantetheine attachment site"</title>
				<rect class="PF00550" x="588" y="28" stroke-linejoin="round" width="6" height="24" fill="rgb(103,191,88)" stroke="rgb(82,152,70)" stroke-width="1" opacity="0.75" />
			</g>
			<g>
				<title>AMP-binding (PF00501)
"AMP-binding enzyme"</title>
				<rect class="PF00501" x="605" y="28" stroke-linejoin="round" width="37" height="24" fill="rgb(60,217,223)" stroke="rgb(48,173,178)" stroke-width="1" opacity="0.75" />
			</g>
		</g>
		<g>
			<title> (ctg1_391)</title>
			<polygon class=" (ctg1_391)" points="688,25 687,25 687,10 657,40 687,70 687,55 688,55" fill="rgb(255,255,255)" fill-opacity="1.0" stroke="rgb(0,0,0)" stroke-width="2"  />
		</g>
		<g>
			<title> (ctg1_392)</title>
			<polygon class=" (ctg1_392)" points="724,25 723,25 723,10 693,40 723,70 723,55 724,55" fill="rgb(255,255,255)" fill-opacity="1.0" stroke="rgb(0,0,0)" stroke-width="2"  />
			<g>
				<title>SBF (PF01758)
"Sodium Bile acid symporter family"</title>
				<polygon class="PF01758" points="702,35 709,28 720,28 720,52 709,52 702,45" stroke-linejoin="round" width="18" height="24" fill="rgb(139,96,196)" stroke="rgb(111,76,156)" stroke-width="1" opacity="0.75" />
			</g>
		</g>
		<g>
			<title> (ctg1_393)</title>
			<polygon class=" (ctg1_393)" points="725,40 747,10 747,70" fill="rgb(255,255,255)" fill-opacity="1.0" stroke="rgb(0,0,0)" stroke-width="2"  />
			<g>
				<title>TetR_C_1 (PF02909)
"Tetracyclin repressor-like, C-terminal domain"</title>
				<polygon class="PF02909" points="729,40 738,28 738,28 738,52 738,52" stroke-linejoin="round" width="11" height="24" fill="rgb(151,203,75)" stroke="rgb(120,162,60)" stroke-width="1" opacity="0.75" />
			</g>
			<g>
				<title>TetR_N (PF00440)
"Bacterial regulatory proteins, tetR family"</title>
				<rect class="PF00440" x="740" y="28" stroke-linejoin="round" width="4" height="24" fill="rgb(73,212,190)" stroke="rgb(58,169,152)" stroke-width="1" opacity="0.75" />
			</g>
		</g>
		<g>
			<title> (ctg1_394)</title>
			<polygon class=" (ctg1_394)" points="759,25 773,25 773,10 803,40 773,70 773,55 759,55" fill="rgb(255,255,255)" fill-opacity="1.0" stroke="rgb(0,0,0)" stroke-width="2"  />
			<g>
				<title>Phytase-like (PF13449)
"Esterase-like activity of phytase"</title>
				<polygon class="PF13449" points="770,28 786,28 798,40 786,52 770,52" stroke-linejoin="round" width="30" height="24" fill="rgb(76,126,200)" stroke="rgb(60,100,160)" stroke-width="1" opacity="0.75" />
			</g>
		</g>
		<g>
			<title> (ctg1_395)</title>
			<polygon class=" (ctg1_395)" points="807,40 819,10 819,70" fill="rgb(255,255,255)" fill-opacity="1.0" stroke="rgb(0,0,0)" stroke-width="2"  />
			<g>
				<title>Isochorismatase (PF00857)
"Isochorismatase family"</title>
				<polygon class="PF00857" points="810,40 815,28 819,28 819,52 815,52" stroke-linejoin="round" width="10" height="24" fill="rgb(144,224,70)" stroke="rgb(115,179,56)" stroke-width="1" opacity="0.75" />
			</g>
		</g>
		<g>
			<title> (ctg1_396)</title>
			<polygon class=" (ctg1_396)" points="819,40 823,10 823,70" fill="rgb(255,255,255)" fill-opacity="1.0" stroke="rgb(0,0,0)" stroke-width="2"  />
		</g>
		<g>
			<title> (ctg1_397)</title>
			<polygon class=" (ctg1_397)" points="843,40 856,10 856,70" fill="rgb(255,255,255)" fill-opacity="1.0" stroke="rgb(0,0,0)" stroke-width="2"  />
			<g>
				<title>RsfS (PF02410)
"Ribosomal silencing factor during starvation"</title>
				<polygon class="PF02410" points="846,40 851,28 854,28 854,52 851,52" stroke-linejoin="round" width="9" height="24" fill="rgb(221,171,70)" stroke="rgb(176,136,56)" stroke-width="1" opacity="0.75" />
			</g>
		</g>
		<g>
			<title> (ctg1_398)</title>
			<polygon class=" (ctg1_398)" points="889,25 888,25 888,10 858,40 888,70 888,55 889,55" fill="rgb(255,255,255)" fill-opacity="1.0" stroke="rgb(0,0,0)" stroke-width="2"  />
		</g>
		<g>
			<title> (ctg1_399)</title>
			<polygon class=" (ctg1_399)" points="889,40 914,10 914,70" fill="rgb(255,255,255)" fill-opacity="1.0" stroke="rgb(0,0,0)" stroke-width="2"  />
			<g>
				<title>CTP_transf_like (PF01467)
"Cytidylyltransferase-like"</title>
				<polygon class="PF01467" points="896,37 903,28 911,28 911,52 903,52 896,43" stroke-linejoin="round" width="15" height="24" fill="rgb(110,215,57)" stroke="rgb(88,172,45)" stroke-width="1" opacity="0.75" />
			</g>
		</g>
		<g>
			<title> (ctg1_400)</title>
			<polygon class=" (ctg1_400)" points="915,40 923,10 923,70" fill="rgb(255,255,255)" fill-opacity="1.0" stroke="rgb(0,0,0)" stroke-width="2"  />
		</g>
		<g>
			<title> (ctg1_401)</title>
			<polygon class=" (ctg1_401)" points="969,25 956,25 956,10 926,40 956,70 956,55 969,55" fill="rgb(255,255,255)" fill-opacity="1.0" stroke="rgb(0,0,0)" stroke-width="2"  />
			<g>
				<title>Aldedh (PF00171)
"Aldehyde dehydrogenase family"</title>
				<polygon class="PF00171" points="938,32 942,28 967,28 967,52 942,52 938,48" stroke-linejoin="round" width="29" height="24" fill="rgb(105,213,139)" stroke="rgb(84,170,111)" stroke-width="1" opacity="0.75" />
			</g>
		</g>
		<g>
			<title> (ctg1_402)</title>
			<polygon class=" (ctg1_402)" points="1014,25 1002,25 1002,10 972,40 1002,70 1002,55 1014,55" fill="rgb(255,255,255)" fill-opacity="1.0" stroke="rgb(0,0,0)" stroke-width="2"  />
			<g>
				<title>PUA (PF01472)
"PUA domain"</title>
				<polygon class="PF01472" points="976,40 982,34 982,46" stroke-linejoin="round" width="7" height="24" fill="rgb(203,171,67)" stroke="rgb(162,136,53)" stroke-width="1" opacity="0.75" />
			</g>
			<g>
				<title>AA_kinase (PF00696)
"Amino acid kinase family"</title>
				<polygon class="PF00696" points="986,30 988,28 1009,28 1009,52 988,52 986,50" stroke-linejoin="round" width="23" height="24" fill="rgb(148,78,224)" stroke="rgb(118,62,179)" stroke-width="1" opacity="0.75" />
			</g>
		</g>
		<g>
			<title> (ctg1_403)</title>
			<polygon class=" (ctg1_403)" points="1068,25 1045,25 1045,10 1015,40 1045,70 1045,55 1068,55" fill="rgb(255,255,255)" fill-opacity="1.0" stroke="rgb(0,0,0)" stroke-width="2"  />
			<g>
				<title>DUF1967 (PF09269)
"Domain of unknown function (DUF1967)"</title>
				<polygon class="PF09269" points="1023,36 1030,29 1030,51 1023,44" stroke-linejoin="round" width="7" height="24" fill="rgb(50,182,62)" stroke="rgb(39,145,49)" stroke-width="1" opacity="0.75" />
			</g>
			<g>
				<title>MMR_HSR1 (PF01926)
"50S ribosome-binding GTPase"</title>
				<rect class="PF01926" x="1039" y="28" stroke-linejoin="round" width="13" height="24" fill="rgb(105,180,226)" stroke="rgb(83,143,180)" stroke-width="1" opacity="0.75" />
			</g>
			<g>
				<title>GTP1_OBG (PF01018)
"GTP1/OBG"</title>
				<rect class="PF01018" x="1052" y="28" stroke-linejoin="round" width="15" height="24" fill="rgb(159,183,68)" stroke="rgb(127,146,54)" stroke-width="1" opacity="0.75" />
			</g>
		</g>
		<g>
			<title> (ctg1_404)</title>
			<polygon class=" (ctg1_404)" points="1073,40 1081,10 1081,70" fill="rgb(255,255,255)" fill-opacity="1.0" stroke="rgb(0,0,0)" stroke-width="2"  />
			<g>
				<title>Ribosomal_L27 (PF01016)
"Ribosomal L27 protein"</title>
				<polygon class="PF01016" points="1076,40 1079,28 1080,28 1080,52 1079,52" stroke-linejoin="round" width="7" height="24" fill="rgb(108,228,174)" stroke="rgb(86,182,139)" stroke-width="1" opacity="0.75" />
			</g>
		</g>
		<g>
			<title> (ctg1_405)</title>
			<polygon class=" (ctg1_405)" points="1083,40 1094,10 1094,70" fill="rgb(255,255,255)" fill-opacity="1.0" stroke="rgb(0,0,0)" stroke-width="2"  />
			<g>
				<title>Ribosomal_L21p (PF00829)
"Ribosomal prokaryotic L21 protein"</title>
				<polygon class="PF00829" points="1086,40 1090,28 1092,28 1092,52 1090,52" stroke-linejoin="round" width="9" height="24" fill="rgb(211,146,57)" stroke="rgb(168,116,45)" stroke-width="1" opacity="0.75" />
			</g>
		</g>
	</g>
</svg>
