<svg version="1.1" baseProfile="full" xmlns="http://www.w3.org/2000/svg" width="301.3" height="80">
	<g>
		<line x1="10" y1="40.0" x2="291.3" y2="40.0" style="stroke:rgb(70,70,70); stroke-width:3 "/>
		<g>
			<title> (ctg5_149)</title>
			<polygon class=" (ctg5_149)" points="10,25 28,25 28,10 58,40 28,70 28,55 10,55" fill="rgb(255,255,255)" fill-opacity="1.0" stroke="rgb(0,0,0)" stroke-width="2"  />
			<g>
				<title>GntR (PF00392)
"Bacterial regulatory proteins, gntR family"</title>
				<rect class="PF00392" x="11" y="28" stroke-linejoin="round" width="6" height="24" fill="rgb(160,85,194)" stroke="rgb(127,68,155)" stroke-width="1" opacity="0.75" />
			</g>
			<g>
				<title>Aminotran_1_2 (PF00155)
"Aminotransferase class I and II"</title>
				<polygon class="PF00155" points="22,28 42,28 54,40 42,52 22,52" stroke-linejoin="round" width="35" height="24" fill="rgb(89,113,198)" stroke="rgb(71,90,158)" stroke-width="1" opacity="0.75" />
			</g>
		</g>
		<g>
			<title> (ctg5_150)</title>
			<polygon class=" (ctg5_150)" points="58,25 58,25 58,10 88,40 58,70 58,55 58,55" fill="rgb(255,255,255)" fill-opacity="1.0" stroke="rgb(0,0,0)" stroke-width="2"  />
			<g>
				<title>Dala_Dala_lig_N (PF01820)
"D-ala D-ala ligase N-terminus"</title>
				<rect class="PF01820" x="58" y="28" stroke-linejoin="round" width="8" height="24" fill="rgb(55,160,179)" stroke="rgb(44,127,143)" stroke-width="1" opacity="0.75" />
			</g>
			<g>
				<title>Dala_Dala_lig_C (PF07478)
"D-ala D-ala ligase C-terminus"</title>
				<polygon class="PF07478" points="67,28 72,28 84,40 72,52 67,52" stroke-linejoin="round" width="19" height="24" fill="rgb(202,54,160)" stroke="rgb(161,43,127)" stroke-width="1" opacity="0.75" />
			</g>
		</g>
		<g>
			<title> (ctg5_151)</title>
			<polygon class=" (ctg5_151)" points="99,10 122,40 99,70" fill="rgb(255,255,255)" fill-opacity="1.0" stroke="rgb(0,0,0)" stroke-width="2"  />
			<g>
				<title>TENA_THI-4 (PF03070)
"TENA/THI-4/PQQC family"</title>
				<polygon class="PF03070" points="99,28 109,28 118,40 109,52 99,52" stroke-linejoin="round" width="20" height="24" fill="rgb(95,149,219)" stroke="rgb(76,119,175)" stroke-width="1" opacity="0.75" />
			</g>
		</g>
		<g>
			<title> (ctg5_152)</title>
			<polygon class=" (ctg5_152)" points="135,10 143,40 135,70" fill="rgb(255,255,255)" fill-opacity="1.0" stroke="rgb(0,0,0)" stroke-width="2"  />
			<g>
				<title>DUF3937 (PF13073)
"Protein of unknown function (DUF3937)"</title>
				<polygon class="PF13073" points="135,28 136,28 140,40 136,52 135,52" stroke-linejoin="round" width="7" height="24" fill="rgb(221,84,154)" stroke="rgb(176,67,123)" stroke-width="1" opacity="0.75" />
			</g>
		</g>
		<g>
			<title> (ctg5_153)</title>
			<polygon class=" (ctg5_153)" points="162,10 173,40 162,70" fill="rgb(255,255,255)" fill-opacity="1.0" stroke="rgb(0,0,0)" stroke-width="2"  />
		</g>
		<g>
			<title> (ctg5_154)</title>
			<polygon class=" (ctg5_154)" points="190,10 206,40 190,70" fill="rgb(255,255,255)" fill-opacity="1.0" stroke="rgb(0,0,0)" stroke-width="2"  />
		</g>
		<g>
			<title> (ctg5_155)</title>
			<polygon class=" (ctg5_155)" points="216,10 239,40 216,70" fill="rgb(255,255,255)" fill-opacity="1.0" stroke="rgb(0,0,0)" stroke-width="2"  />
			<g>
				<title>pPIWI_RE_X (PF13111)
"pPIWI_RE module N-terminal domain"</title>
				<polygon class="PF13111" points="217,28 226,28 235,40 226,52 217,52" stroke-linejoin="round" width="21" height="24" fill="rgb(146,74,184)" stroke="rgb(116,59,147)" stroke-width="1" opacity="0.75" />
			</g>
		</g>
		<g>
			<title> (ctg5_156)</title>
			<polygon class=" (ctg5_156)" points="278,25 271,25 271,10 241,40 271,70 271,55 278,55" fill="rgb(255,255,255)" fill-opacity="1.0" stroke="rgb(0,0,0)" stroke-width="2"  />
			<g>
				<title>Phage_integrase (PF00589)
"Phage integrase family"</title>
				<polygon class="PF00589" points="245,40 257,28 260,28 260,52 257,52" stroke-linejoin="round" width="18" height="24" fill="rgb(91,96,195)" stroke="rgb(72,76,156)" stroke-width="1" opacity="0.75" />
			</g>
			<g>
				<title>Phage_int_SAM_3 (PF14659)
"Phage integrase, N-terminal SAM-like domain"</title>
				<rect class="PF14659" x="266" y="28" stroke-linejoin="round" width="5" height="24" fill="rgb(202,93,203)" stroke="rgb(161,74,162)" stroke-width="1" opacity="0.75" />
			</g>
			<g>
				<title>Arm-DNA-bind_4 (PF14657)
"Arm DNA-binding domain"</title>
				<rect class="PF14657" x="272" y="28" stroke-linejoin="round" width="4" height="24" fill="rgb(214,105,129)" stroke="rgb(171,84,103)" stroke-width="1" opacity="0.75" />
			</g>
		</g>
		<g>
			<title> (ctg5_157)</title>
			<polygon class=" (ctg5_157)" points="283,10 290,40 283,70" fill="rgb(255,255,255)" fill-opacity="1.0" stroke="rgb(0,0,0)" stroke-width="2"  />
		</g>
	</g>
</svg>
