<svg version="1.1" baseProfile="full" xmlns="http://www.w3.org/2000/svg" width="1587.2333333333333" height="80">
	<g>
		<line x1="10" y1="40.0" x2="1577.2333333333333" y2="40.0" style="stroke:rgb(70,70,70); stroke-width:3 "/>
		<g>
			<title> (ctg5_103)</title>
			<polygon class=" (ctg5_103)" points="74,25 57,25 57,10 27,40 57,70 57,55 74,55" fill="rgb(255,255,255)" fill-opacity="1.0" stroke="rgb(0,0,0)" stroke-width="2"  />
			<g>
				<title>GSDH (PF07995)
"Glucose / Sorbosone dehydrogenase"</title>
				<rect class="PF07995" x="46" y="28" stroke-linejoin="round" width="25" height="24" fill="rgb(199,57,124)" stroke="rgb(159,45,99)" stroke-width="1" opacity="0.75" />
			</g>
		</g>
		<g>
			<title> (ctg5_104)</title>
			<polygon class=" (ctg5_104)" points="80,10 88,40 80,70" fill="rgb(255,255,255)" fill-opacity="1.0" stroke="rgb(0,0,0)" stroke-width="2"  />
		</g>
		<g>
			<title> (ctg5_105)</title>
			<polygon class=" (ctg5_105)" points="91,10 97,40 91,70" fill="rgb(255,255,255)" fill-opacity="1.0" stroke="rgb(0,0,0)" stroke-width="2"  />
		</g>
		<g>
			<title> (ctg5_106)</title>
			<polygon class=" (ctg5_106)" points="104,40 126,10 126,70" fill="rgb(255,255,255)" fill-opacity="1.0" stroke="rgb(0,0,0)" stroke-width="2"  />
		</g>
		<g>
			<title> (ctg5_107)</title>
			<polygon class=" (ctg5_107)" points="138,40 152,10 152,70" fill="rgb(255,255,255)" fill-opacity="1.0" stroke="rgb(0,0,0)" stroke-width="2"  />
			<g>
				<title>NUDIX (PF00293)
"NUDIX domain"</title>
				<polygon class="PF00293" points="141,40 147,28 150,28 150,52 147,52" stroke-linejoin="round" width="12" height="24" fill="rgb(92,56,187)" stroke="rgb(73,44,149)" stroke-width="1" opacity="0.75" />
			</g>
		</g>
		<g>
			<title> (ctg5_108)</title>
			<polygon class=" (ctg5_108)" points="197,25 190,25 190,10 160,40 190,70 190,55 197,55" fill="rgb(255,255,255)" fill-opacity="1.0" stroke="rgb(0,0,0)" stroke-width="2"  />
			<g>
				<title>DAO (PF01266)
"FAD dependent oxidoreductase"</title>
				<polygon class="PF01266" points="164,40 176,28 196,28 196,52 176,52" stroke-linejoin="round" width="34" height="24" fill="rgb(123,179,59)" stroke="rgb(98,143,47)" stroke-width="1" opacity="0.75" />
			</g>
		</g>
		<g>
			<title> (ctg5_109)</title>
			<polygon class=" (ctg5_109)" points="201,40 222,10 222,70" fill="rgb(255,255,255)" fill-opacity="1.0" stroke="rgb(0,0,0)" stroke-width="2"  />
			<g>
				<title>OmdA (PF13376)
"Bacteriocin-protection, YdeI or OmpD-Associated"</title>
				<polygon class="PF13376" points="205,40 207,37 207,43" stroke-linejoin="round" width="5" height="24" fill="rgb(212,104,109)" stroke="rgb(169,83,87)" stroke-width="1" opacity="0.75" />
			</g>
		</g>
		<g>
			<title> (ctg5_110)</title>
			<polygon class=" (ctg5_110)" points="228,10 234,40 228,70" fill="rgb(255,255,255)" fill-opacity="1.0" stroke="rgb(0,0,0)" stroke-width="2"  />
		</g>
		<g>
			<title> (ctg5_111)</title>
			<polygon class=" (ctg5_111)" points="235,40 260,10 260,70" fill="rgb(255,255,255)" fill-opacity="1.0" stroke="rgb(0,0,0)" stroke-width="2"  />
			<g>
				<title>Acetyltransf_2 (PF00797)
"N-acetyltransferase"</title>
				<polygon class="PF00797" points="239,40 249,28 258,28 258,52 249,52" stroke-linejoin="round" width="23" height="24" fill="rgb(68,124,226)" stroke="rgb(54,99,180)" stroke-width="1" opacity="0.75" />
			</g>
		</g>
		<g>
			<title> (ctg5_112)</title>
			<polygon class=" (ctg5_112)" points="265,40 281,10 281,70" fill="rgb(255,255,255)" fill-opacity="1.0" stroke="rgb(0,0,0)" stroke-width="2"  />
			<g>
				<title>MepB-like (PF08877)
"MepB-like"</title>
				<polygon class="PF08877" points="268,40 275,28 278,28 278,52 275,52" stroke-linejoin="round" width="12" height="24" fill="rgb(183,87,168)" stroke="rgb(146,69,134)" stroke-width="1" opacity="0.75" />
			</g>
		</g>
		<g>
			<title> (ctg5_113)</title>
			<polygon class=" (ctg5_113)" points="285,40 297,10 297,70" fill="rgb(255,255,255)" fill-opacity="1.0" stroke="rgb(0,0,0)" stroke-width="2"  />
			<g>
				<title>DUF4180 (PF13788)
"Domain of unknown function (DUF4180)"</title>
				<polygon class="PF13788" points="288,40 293,28 296,28 296,52 293,52" stroke-linejoin="round" width="11" height="24" fill="rgb(188,58,73)" stroke="rgb(150,46,58)" stroke-width="1" opacity="0.75" />
			</g>
		</g>
		<g>
			<title> (ctg5_114)</title>
			<polygon class=" (ctg5_114)" points="303,40 326,10 326,70" fill="rgb(255,255,255)" fill-opacity="1.0" stroke="rgb(0,0,0)" stroke-width="2"  />
			<g>
				<title>HAD_2 (PF13419)
"Haloacid dehalogenase-like hydrolase"</title>
				<polygon class="PF13419" points="307,40 316,28 324,28 324,52 316,52" stroke-linejoin="round" width="18" height="24" fill="rgb(60,223,188)" stroke="rgb(48,178,150)" stroke-width="1" opacity="0.75" />
			</g>
		</g>
		<g>
			<title> (ctg5_115)</title>
			<polygon class=" (ctg5_115)" points="341,10 363,40 341,70" fill="rgb(255,255,255)" fill-opacity="1.0" stroke="rgb(0,0,0)" stroke-width="2"  />
			<g>
				<title>Response_reg (PF00072)
"Response regulator receiver domain"</title>
				<polygon class="PF00072" points="341,28 350,28 351,29 351,51 350,52 341,52" stroke-linejoin="round" width="10" height="24" fill="rgb(100,107,203)" stroke="rgb(80,85,162)" stroke-width="1" opacity="0.75" />
			</g>
			<g>
				<title>Trans_reg_C (PF00486)
"Transcriptional regulatory protein, C terminal"</title>
				<polygon class="PF00486" points="355,34 359,40 355,46" stroke-linejoin="round" width="7" height="24" fill="rgb(204,153,57)" stroke="rgb(163,122,45)" stroke-width="1" opacity="0.75" />
			</g>
		</g>
		<g>
			<title> (ctg5_116)</title>
			<polygon class=" (ctg5_116)" points="362,25 381,25 381,10 411,40 381,70 381,55 362,55" fill="rgb(255,255,255)" fill-opacity="1.0" stroke="rgb(0,0,0)" stroke-width="2"  />
			<g>
				<title>HAMP (PF00672)
"HAMP domain"</title>
				<rect class="PF00672" x="380" y="28" stroke-linejoin="round" width="5" height="24" fill="rgb(124,89,195)" stroke="rgb(99,71,156)" stroke-width="1" opacity="0.75" />
			</g>
			<g>
				<title>HisKA (PF00512)
"His Kinase A (phospho-acceptor) domain"</title>
				<rect class="PF00512" x="387" y="28" stroke-linejoin="round" width="6" height="24" fill="rgb(193,125,62)" stroke="rgb(154,100,49)" stroke-width="1" opacity="0.75" />
			</g>
			<g>
				<title>HATPase_c (PF02518)
"Histidine kinase-, DNA gyrase B-, and HSP90-like ATPase"</title>
				<polygon class="PF02518" points="398,32 406,40 398,48" stroke-linejoin="round" width="11" height="24" fill="rgb(80,94,225)" stroke="rgb(64,75,180)" stroke-width="1" opacity="0.75" />
			</g>
		</g>
		<g>
			<title> (ctg5_117)</title>
			<polygon class=" (ctg5_117)" points="412,10 422,40 412,70" fill="rgb(255,255,255)" fill-opacity="1.0" stroke="rgb(0,0,0)" stroke-width="2"  />
			<g>
				<title>DinB_2 (PF12867)
"DinB superfamily"</title>
				<polygon class="PF12867" points="412,28 414,28 419,40 419,40 414,52 412,52" stroke-linejoin="round" width="7" height="24" fill="rgb(184,90,185)" stroke="rgb(147,72,148)" stroke-width="1" opacity="0.75" />
			</g>
		</g>
		<g>
			<title> (ctg5_118)</title>
			<polygon class=" (ctg5_118)" points="429,10 435,40 429,70" fill="rgb(255,255,255)" fill-opacity="1.0" stroke="rgb(0,0,0)" stroke-width="2"  />
		</g>
		<g>
			<title> (ctg5_119)</title>
			<polygon class=" (ctg5_119)" points="445,40 467,10 467,70" fill="rgb(255,255,255)" fill-opacity="1.0" stroke="rgb(0,0,0)" stroke-width="2"  />
			<g>
				<title>ABC_tran (PF00005)
"ABC transporter"</title>
				<polygon class="PF00005" points="450,39 458,28 464,28 464,52 458,52 450,41" stroke-linejoin="round" width="14" height="24" fill="rgb(129,201,63)" stroke="rgb(103,160,50)" stroke-width="1" opacity="0.75" />
			</g>
		</g>
		<g>
			<title> (ctg5_120)</title>
			<polygon class=" (ctg5_120)" points="515,25 498,25 498,10 468,40 498,70 498,55 515,55" fill="rgb(255,255,255)" fill-opacity="1.0" stroke="rgb(0,0,0)" stroke-width="2"  />
			<g>
				<title>FtsX (PF02687)
"FtsX-like permease family"</title>
				<polygon class="PF02687" points="472,40 483,29 483,51" stroke-linejoin="round" width="15" height="24" fill="rgb(126,55,214)" stroke="rgb(100,44,171)" stroke-width="1" opacity="0.75" />
			</g>
		</g>
		<g>
			<title> (ctg5_121)</title>
			<polygon class=" (ctg5_121)" points="535,25 538,25 538,10 568,40 538,70 538,55 535,55" fill="rgb(255,255,255)" fill-opacity="1.0" stroke="rgb(0,0,0)" stroke-width="2"  />
		</g>
		<g>
			<title> (ctg5_122)</title>
			<polygon class=" (ctg5_122)" points="590,25 591,25 591,10 621,40 591,70 591,55 590,55" fill="rgb(255,255,255)" fill-opacity="1.0" stroke="rgb(0,0,0)" stroke-width="2"  />
			<g>
				<title>Abhydrolase_3 (PF07859)
"alpha/beta hydrolase fold"</title>
				<polygon class="PF07859" points="597,28 605,28 617,40 617,40 605,52 597,52" stroke-linejoin="round" width="20" height="24" fill="rgb(183,51,179)" stroke="rgb(146,40,143)" stroke-width="1" opacity="0.75" />
			</g>
		</g>
		<g>
			<title> (ctg5_123)</title>
			<polygon class=" (ctg5_123)" points="674,25 656,25 656,10 626,40 656,70 656,55 674,55" fill="rgb(255,255,255)" fill-opacity="1.0" stroke="rgb(0,0,0)" stroke-width="2"  />
			<g>
				<title>Pyridoxal_deC (PF00282)
"Pyridoxal-dependent decarboxylase conserved domain"</title>
				<polygon class="PF00282" points="634,36 642,28 669,28 669,52 642,52 634,44" stroke-linejoin="round" width="35" height="24" fill="rgb(100,218,166)" stroke="rgb(80,174,132)" stroke-width="1" opacity="0.75" />
			</g>
		</g>
		<g>
			<title> (ctg5_124)</title>
			<polygon class=" (ctg5_124)" points="909,25 706,25 706,10 676,40 706,70 706,55 909,55" fill="rgb(255,255,255)" fill-opacity="1.0" stroke="rgb(0,0,0)" stroke-width="2"  />
			<g>
				<title>Condensation (PF00668)
"Condensation domain"</title>
				<polygon class="PF00668" points="680,40 692,28 719,28 719,52 692,52" stroke-linejoin="round" width="43" height="24" fill="rgb(224,184,98)" stroke="rgb(179,147,78)" stroke-width="1" opacity="0.75" />
			</g>
			<g>
				<title>PP-binding (PF00550)
"Phosphopantetheine attachment site"</title>
				<rect class="PF00550" x="724" y="28" stroke-linejoin="round" width="6" height="24" fill="rgb(103,191,88)" stroke="rgb(82,152,70)" stroke-width="1" opacity="0.75" />
			</g>
			<g>
				<title>AMP-binding_C (PF13193)
"AMP-binding enzyme C-terminal domain"</title>
				<rect class="PF13193" x="733" y="28" stroke-linejoin="round" width="7" height="24" fill="rgb(182,50,118)" stroke="rgb(145,39,94)" stroke-width="1" opacity="0.75" />
			</g>
			<g>
				<title>AMP-binding (PF00501)
"AMP-binding enzyme"</title>
				<rect class="PF00501" x="741" y="28" stroke-linejoin="round" width="38" height="24" fill="rgb(60,217,223)" stroke="rgb(48,173,178)" stroke-width="1" opacity="0.75" />
			</g>
			<g>
				<title>Condensation (PF00668)
"Condensation domain"</title>
				<rect class="PF00668" x="781" y="28" stroke-linejoin="round" width="43" height="24" fill="rgb(224,184,98)" stroke="rgb(179,147,78)" stroke-width="1" opacity="0.75" />
			</g>
			<g>
				<title>PP-binding (PF00550)
"Phosphopantetheine attachment site"</title>
				<rect class="PF00550" x="827" y="28" stroke-linejoin="round" width="6" height="24" fill="rgb(103,191,88)" stroke="rgb(82,152,70)" stroke-width="1" opacity="0.75" />
			</g>
			<g>
				<title>AMP-binding_C (PF13193)
"AMP-binding enzyme C-terminal domain"</title>
				<rect class="PF13193" x="836" y="28" stroke-linejoin="round" width="7" height="24" fill="rgb(182,50,118)" stroke="rgb(145,39,94)" stroke-width="1" opacity="0.75" />
			</g>
			<g>
				<title>AMP-binding (PF00501)
"AMP-binding enzyme"</title>
				<rect class="PF00501" x="844" y="28" stroke-linejoin="round" width="38" height="24" fill="rgb(60,217,223)" stroke="rgb(48,173,178)" stroke-width="1" opacity="0.75" />
			</g>
			<g>
				<title>Condensation (PF00668)
"Condensation domain"</title>
				<rect class="PF00668" x="884" y="28" stroke-linejoin="round" width="24" height="24" fill="rgb(224,184,98)" stroke="rgb(179,147,78)" stroke-width="1" opacity="0.75" />
			</g>
		</g>
		<g>
			<title> (ctg5_125)</title>
			<polygon class=" (ctg5_125)" points="943,25 941,25 941,10 911,40 941,70 941,55 943,55" fill="rgb(255,255,255)" fill-opacity="1.0" stroke="rgb(0,0,0)" stroke-width="2"  />
			<g>
				<title>Nitroreductase (PF00881)
"Nitroreductase family"</title>
				<polygon class="PF00881" points="915,40 927,28 928,28 928,52 927,52" stroke-linejoin="round" width="17" height="24" fill="rgb(79,118,187)" stroke="rgb(63,94,149)" stroke-width="1" opacity="0.75" />
			</g>
		</g>
		<g>
			<title> (ctg5_126)</title>
			<polygon class=" (ctg5_126)" points="1058,25 1003,25 1003,10 973,40 1003,70 1003,55 1058,55" fill="rgb(255,255,255)" fill-opacity="1.0" stroke="rgb(0,0,0)" stroke-width="2"  />
			<g>
				<title>Alpha-amylase (PF00128)
"Alpha amylase, catalytic domain"</title>
				<polygon class="PF00128" points="986,31 989,28 1006,28 1006,52 989,52 986,49" stroke-linejoin="round" width="20" height="24" fill="rgb(72,189,149)" stroke="rgb(57,151,119)" stroke-width="1" opacity="0.75" />
			</g>
			<g>
				<title>Alpha-amylase (PF00128)
"Alpha amylase, catalytic domain"</title>
				<rect class="PF00128" x="1008" y="28" stroke-linejoin="round" width="11" height="24" fill="rgb(72,189,149)" stroke="rgb(57,151,119)" stroke-width="1" opacity="0.75" />
			</g>
			<g>
				<title>CBM_48 (PF02922)
"Carbohydrate-binding module 48 (Isoamylase N-terminal domain)"</title>
				<rect class="PF02922" x="1026" y="28" stroke-linejoin="round" width="7" height="24" fill="rgb(166,223,94)" stroke="rgb(132,178,75)" stroke-width="1" opacity="0.75" />
			</g>
			<g>
				<title>PUD (PF03714)
"Bacterial pullanase-associated domain"</title>
				<rect class="PF03714" x="1045" y="28" stroke-linejoin="round" width="9" height="24" fill="rgb(229,95,205)" stroke="rgb(183,76,164)" stroke-width="1" opacity="0.75" />
			</g>
		</g>
		<g>
			<title> (ctg5_127)</title>
			<polygon class=" (ctg5_127)" points="1130,25 1104,25 1104,10 1074,40 1104,70 1104,55 1130,55" fill="rgb(255,255,255)" fill-opacity="1.0" stroke="rgb(0,0,0)" stroke-width="2"  />
			<g>
				<title>Peptidase_M4_C (PF02868)
"Thermolysin metallopeptidase, alpha-helical domain"</title>
				<polygon class="PF02868" points="1078,40 1090,28 1090,28 1090,52 1090,52" stroke-linejoin="round" width="16" height="24" fill="rgb(184,92,211)" stroke="rgb(147,73,168)" stroke-width="1" opacity="0.75" />
			</g>
			<g>
				<title>Peptidase_M4 (PF01447)
"Thermolysin metallopeptidase, catalytic domain"</title>
				<polygon class="PF01447" points="1090,28 1090,28 1105,28 1105,52 1090,52 1090,52" stroke-linejoin="round" width="15" height="24" fill="rgb(71,102,203)" stroke="rgb(56,81,162)" stroke-width="1" opacity="0.75" />
			</g>
			<g>
				<title>FTP (PF07504)
"Fungalysin/Thermolysin Propeptide Motif"</title>
				<rect class="PF07504" x="1117" y="28" stroke-linejoin="round" width="5" height="24" fill="rgb(225,91,194)" stroke="rgb(180,72,155)" stroke-width="1" opacity="0.75" />
			</g>
		</g>
		<g>
			<title> (ctg5_128)</title>
			<polygon class=" (ctg5_128)" points="1207,25 1172,25 1172,10 1142,40 1172,70 1172,55 1207,55" fill="rgb(255,255,255)" fill-opacity="1.0" stroke="rgb(0,0,0)" stroke-width="2"  />
			<g>
				<title>5_nucleotid_C (PF02872)
"5'-nucleotidase, C-terminal domain"</title>
				<polygon class="PF02872" points="1155,31 1158,28 1172,28 1172,52 1158,52 1155,49" stroke-linejoin="round" width="17" height="24" fill="rgb(215,156,101)" stroke="rgb(172,124,80)" stroke-width="1" opacity="0.75" />
			</g>
			<g>
				<title>Metallophos (PF00149)
"Calcineurin-like phosphoesterase"</title>
				<rect class="PF00149" x="1181" y="28" stroke-linejoin="round" width="22" height="24" fill="rgb(181,197,58)" stroke="rgb(144,157,46)" stroke-width="1" opacity="0.75" />
			</g>
		</g>
		<g>
			<title> (ctg5_129)</title>
			<polygon class=" (ctg5_129)" points="1225,40 1242,10 1242,70" fill="rgb(255,255,255)" fill-opacity="1.0" stroke="rgb(0,0,0)" stroke-width="2"  />
			<g>
				<title>DinB_2 (PF12867)
"DinB superfamily"</title>
				<polygon class="PF12867" points="1228,40 1235,28 1241,28 1241,52 1235,52" stroke-linejoin="round" width="15" height="24" fill="rgb(184,90,185)" stroke="rgb(147,72,148)" stroke-width="1" opacity="0.75" />
			</g>
		</g>
		<g>
			<title> (ctg5_130)</title>
			<polygon class=" (ctg5_130)" points="1246,40 1262,10 1262,70" fill="rgb(255,255,255)" fill-opacity="1.0" stroke="rgb(0,0,0)" stroke-width="2"  />
			<g>
				<title>GyrI-like (PF06445)
"GyrI-like small molecule binding domain"</title>
				<polygon class="PF06445" points="1249,40 1256,28 1261,28 1261,52 1256,52" stroke-linejoin="round" width="15" height="24" fill="rgb(61,183,118)" stroke="rgb(48,146,94)" stroke-width="1" opacity="0.75" />
			</g>
		</g>
		<g>
			<title> (ctg5_131)</title>
			<polygon class=" (ctg5_131)" points="1281,25 1294,25 1294,10 1324,40 1294,70 1294,55 1281,55" fill="rgb(255,255,255)" fill-opacity="1.0" stroke="rgb(0,0,0)" stroke-width="2"  />
			<g>
				<title>SecY (PF00344)
"SecY"</title>
				<polygon class="PF00344" points="1287,28 1308,28 1320,40 1308,52 1287,52" stroke-linejoin="round" width="34" height="24" fill="rgb(92,194,212)" stroke="rgb(73,155,169)" stroke-width="1" opacity="0.75" />
			</g>
		</g>
		<g>
			<title> (ctg5_132)</title>
			<polygon class=" (ctg5_132)" points="1358,25 1358,25 1358,10 1328,40 1358,70 1358,55 1358,55" fill="rgb(255,255,255)" fill-opacity="1.0" stroke="rgb(0,0,0)" stroke-width="2"  />
			<g>
				<title>EamA (PF00892)
"EamA-like transporter family"</title>
				<polygon class="PF00892" points="1332,40 1343,29 1343,51" stroke-linejoin="round" width="14" height="24" fill="rgb(105,217,77)" stroke="rgb(84,173,61)" stroke-width="1" opacity="0.75" />
			</g>
			<g>
				<title>EamA (PF00892)
"EamA-like transporter family"</title>
				<rect class="PF00892" x="1345" y="28" stroke-linejoin="round" width="13" height="24" fill="rgb(105,217,77)" stroke="rgb(84,173,61)" stroke-width="1" opacity="0.75" />
			</g>
		</g>
		<g>
			<title> (ctg5_133)</title>
			<polygon class=" (ctg5_133)" points="1363,25 1380,25 1380,10 1410,40 1380,70 1380,55 1363,55" fill="rgb(255,255,255)" fill-opacity="1.0" stroke="rgb(0,0,0)" stroke-width="2"  />
			<g>
				<title>GntR (PF00392)
"Bacterial regulatory proteins, gntR family"</title>
				<rect class="PF00392" x="1364" y="28" stroke-linejoin="round" width="6" height="24" fill="rgb(160,85,194)" stroke="rgb(127,68,155)" stroke-width="1" opacity="0.75" />
			</g>
			<g>
				<title>Aminotran_1_2 (PF00155)
"Aminotransferase class I and II"</title>
				<polygon class="PF00155" points="1375,28 1394,28 1406,40 1394,52 1375,52" stroke-linejoin="round" width="34" height="24" fill="rgb(89,113,198)" stroke="rgb(71,90,158)" stroke-width="1" opacity="0.75" />
			</g>
		</g>
		<g>
			<title> (ctg5_134)</title>
			<polygon class=" (ctg5_134)" points="1445,25 1445,25 1445,10 1415,40 1445,70 1445,55 1445,55" fill="rgb(255,255,255)" fill-opacity="1.0" stroke="rgb(0,0,0)" stroke-width="2"  />
			<g>
				<title>ADH_zinc_N_2 (PF13602)
"Zinc-binding dehydrogenase"</title>
				<polygon class="PF13602" points="1419,40 1426,33 1426,47" stroke-linejoin="round" width="11" height="24" fill="rgb(101,131,226)" stroke="rgb(80,104,180)" stroke-width="1" opacity="0.75" />
			</g>
			<g>
				<title>ADH_N (PF08240)
"Alcohol dehydrogenase GroES-like domain"</title>
				<rect class="PF08240" x="1435" y="28" stroke-linejoin="round" width="8" height="24" fill="rgb(211,65,138)" stroke="rgb(168,51,110)" stroke-width="1" opacity="0.75" />
			</g>
		</g>
		<g>
			<title> (ctg5_135)</title>
			<polygon class=" (ctg5_135)" points="1455,10 1483,40 1455,70" fill="rgb(255,255,255)" fill-opacity="1.0" stroke="rgb(0,0,0)" stroke-width="2"  />
			<g>
				<title>Abhydrolase_1 (PF00561)
"alpha/beta hydrolase fold"</title>
				<polygon class="PF00561" points="1457,28 1467,28 1479,40 1467,52 1457,52" stroke-linejoin="round" width="24" height="24" fill="rgb(86,180,151)" stroke="rgb(68,144,120)" stroke-width="1" opacity="0.75" />
			</g>
		</g>
		<g>
			<title> (ctg5_136)</title>
			<polygon class=" (ctg5_136)" points="1487,40 1498,10 1498,70" fill="rgb(255,255,255)" fill-opacity="1.0" stroke="rgb(0,0,0)" stroke-width="2"  />
		</g>
		<g>
			<title> (ctg5_137)</title>
			<polygon class=" (ctg5_137)" points="1538,25 1529,25 1529,10 1499,40 1529,70 1529,55 1538,55" fill="rgb(255,255,255)" fill-opacity="1.0" stroke="rgb(0,0,0)" stroke-width="2"  />
			<g>
				<title>ALP_N (PF17989)
"Actin like proteins N terminal domain"</title>
				<rect class="PF17989" x="1519" y="28" stroke-linejoin="round" width="17" height="24" fill="rgb(69,194,146)" stroke="rgb(55,155,116)" stroke-width="1" opacity="0.75" />
			</g>
		</g>
		<g>
			<title> (ctg5_138)</title>
			<polygon class=" (ctg5_138)" points="1545,10 1558,40 1545,70" fill="rgb(255,255,255)" fill-opacity="1.0" stroke="rgb(0,0,0)" stroke-width="2"  />
		</g>
	</g>
</svg>
