<svg version="1.1" baseProfile="full" xmlns="http://www.w3.org/2000/svg" width="1400.6333333333334" height="80">
	<g>
		<line x1="10" y1="40.0" x2="1390.6333333333334" y2="40.0" style="stroke:rgb(70,70,70); stroke-width:3 "/>
		<g>
			<title> (ctg2_319)</title>
			<polygon class=" (ctg2_319)" points="49,25 58,25 58,10 88,40 58,70 58,55 49,55" fill="rgb(255,255,255)" fill-opacity="1.0" stroke="rgb(0,0,0)" stroke-width="2"  />
			<g>
				<title>DegT_DnrJ_EryC1 (PF01041)
"DegT/DnrJ/EryC1/StrS aminotransferase family"</title>
				<polygon class="PF01041" points="50,28 71,28 83,40 71,52 50,52" stroke-linejoin="round" width="36" height="24" fill="rgb(59,139,191)" stroke="rgb(47,111,152)" stroke-width="1" opacity="0.75" />
			</g>
		</g>
		<g>
			<title> (ctg2_320)</title>
			<polygon class=" (ctg2_320)" points="88,10 117,40 88,70" fill="rgb(255,255,255)" fill-opacity="1.0" stroke="rgb(0,0,0)" stroke-width="2"  />
			<g>
				<title>Acetyltransf_1 (PF00583)
"Acetyltransferase (GNAT) family"</title>
				<polygon class="PF00583" points="102,29 112,40 102,51" stroke-linejoin="round" width="12" height="24" fill="rgb(121,183,50)" stroke="rgb(96,146,39)" stroke-width="1" opacity="0.75" />
			</g>
		</g>
		<g>
			<title> (ctg2_321)</title>
			<polygon class=" (ctg2_321)" points="117,25 124,25 124,10 154,40 124,70 124,55 117,55" fill="rgb(255,255,255)" fill-opacity="1.0" stroke="rgb(0,0,0)" stroke-width="2"  />
			<g>
				<title>NeuB (PF03102)
"NeuB family"</title>
				<polygon class="PF03102" points="120,28 138,28 143,33 143,47 138,52 120,52" stroke-linejoin="round" width="23" height="24" fill="rgb(225,145,80)" stroke="rgb(180,116,64)" stroke-width="1" opacity="0.75" />
			</g>
			<g>
				<title>SAF (PF08666)
"SAF domain"</title>
				<polygon class="PF08666" points="147,37 150,40 147,43" stroke-linejoin="round" width="6" height="24" fill="rgb(203,50,144)" stroke="rgb(162,40,115)" stroke-width="1" opacity="0.75" />
			</g>
		</g>
		<g>
			<title> (ctg2_322)</title>
			<polygon class=" (ctg2_322)" points="154,10 178,40 154,70" fill="rgb(255,255,255)" fill-opacity="1.0" stroke="rgb(0,0,0)" stroke-width="2"  />
			<g>
				<title>CTP_transf_3 (PF02348)
"Cytidylyltransferase"</title>
				<polygon class="PF02348" points="154,28 164,28 174,40 164,52 154,52" stroke-linejoin="round" width="21" height="24" fill="rgb(198,69,151)" stroke="rgb(158,55,120)" stroke-width="1" opacity="0.75" />
			</g>
		</g>
		<g>
			<title> (ctg2_323)</title>
			<polygon class=" (ctg2_323)" points="178,25 182,25 182,10 212,40 182,70 182,55 178,55" fill="rgb(255,255,255)" fill-opacity="1.0" stroke="rgb(0,0,0)" stroke-width="2"  />
			<g>
				<title>Glyco_tran_28_C (PF04101)
"Glycosyltransferase family 28 C-terminal domain"</title>
				<polygon class="PF04101" points="194,28 195,28 207,40 195,52 194,52" stroke-linejoin="round" width="14" height="24" fill="rgb(211,90,140)" stroke="rgb(168,72,112)" stroke-width="1" opacity="0.75" />
			</g>
		</g>
		<g>
			<title> (ctg2_324)</title>
			<polygon class=" (ctg2_324)" points="213,10 237,40 213,70" fill="rgb(255,255,255)" fill-opacity="1.0" stroke="rgb(0,0,0)" stroke-width="2"  />
			<g>
				<title>NTP_transferase (PF00483)
"Nucleotidyl transferase"</title>
				<polygon class="PF00483" points="213,28 224,28 233,40 224,52 213,52" stroke-linejoin="round" width="23" height="24" fill="rgb(198,101,87)" stroke="rgb(158,80,69)" stroke-width="1" opacity="0.75" />
			</g>
		</g>
		<g>
			<title> (ctg2_325)</title>
			<polygon class=" (ctg2_325)" points="238,25 239,25 239,10 269,40 239,70 239,55 238,55" fill="rgb(255,255,255)" fill-opacity="1.0" stroke="rgb(0,0,0)" stroke-width="2"  />
			<g>
				<title>GDP_Man_Dehyd (PF16363)
"GDP-mannose 4,6 dehydratase"</title>
				<polygon class="PF16363" points="238,28 253,28 265,40 253,52 238,52" stroke-linejoin="round" width="30" height="24" fill="rgb(162,221,65)" stroke="rgb(129,176,51)" stroke-width="1" opacity="0.75" />
			</g>
		</g>
		<g>
			<title> (ctg2_326)</title>
			<polygon class=" (ctg2_326)" points="270,10 298,40 270,70" fill="rgb(255,255,255)" fill-opacity="1.0" stroke="rgb(0,0,0)" stroke-width="2"  />
			<g>
				<title>RmlD_sub_bind (PF04321)
"RmlD substrate binding domain"</title>
				<polygon class="PF04321" points="270,28 282,28 294,40 282,52 270,52" stroke-linejoin="round" width="27" height="24" fill="rgb(196,203,60)" stroke="rgb(156,162,47)" stroke-width="1" opacity="0.75" />
			</g>
		</g>
		<g>
			<title> (ctg2_327)</title>
			<polygon class=" (ctg2_327)" points="298,10 313,40 298,70" fill="rgb(255,255,255)" fill-opacity="1.0" stroke="rgb(0,0,0)" stroke-width="2"  />
			<g>
				<title>dTDP_sugar_isom (PF00908)
"dTDP-4-dehydrorhamnose 3,5-epimerase"</title>
				<polygon class="PF00908" points="298,28 303,28 309,40 303,52 298,52" stroke-linejoin="round" width="15" height="24" fill="rgb(184,89,121)" stroke="rgb(147,71,96)" stroke-width="1" opacity="0.75" />
			</g>
		</g>
		<g>
			<title> (ctg2_328)</title>
			<polygon class=" (ctg2_328)" points="324,10 339,40 324,70" fill="rgb(255,255,255)" fill-opacity="1.0" stroke="rgb(0,0,0)" stroke-width="2"  />
			<g>
				<title>BslA (PF17735)
"Biofilm surface layer A"</title>
				<polygon class="PF17735" points="327,28 329,28 336,40 329,52 327,52" stroke-linejoin="round" width="11" height="24" fill="rgb(215,66,96)" stroke="rgb(172,52,76)" stroke-width="1" opacity="0.75" />
			</g>
		</g>
		<g>
			<title> (ctg2_329)</title>
			<polygon class=" (ctg2_329)" points="345,25 357,25 357,10 387,40 357,70 357,55 345,55" fill="rgb(255,255,255)" fill-opacity="1.0" stroke="rgb(0,0,0)" stroke-width="2"  />
			<g>
				<title>ELFV_dehydrog_N (PF02812)
"Glu/Leu/Phe/Val dehydrogenase, dimerisation domain"</title>
				<rect class="PF02812" x="349" y="28" stroke-linejoin="round" width="12" height="24" fill="rgb(157,52,200)" stroke="rgb(125,41,160)" stroke-width="1" opacity="0.75" />
			</g>
			<g>
				<title>ELFV_dehydrog (PF00208)
"Glutamate/Leucine/Phenylalanine/Valine dehydrogenase"</title>
				<polygon class="PF00208" points="364,28 371,28 383,40 371,52 364,52" stroke-linejoin="round" width="23" height="24" fill="rgb(181,160,45)" stroke="rgb(144,128,36)" stroke-width="1" opacity="0.75" />
			</g>
		</g>
		<g>
			<title> (ctg2_330)</title>
			<polygon class=" (ctg2_330)" points="395,25 416,25 416,10 446,40 416,70 416,55 395,55" fill="rgb(255,255,255)" fill-opacity="1.0" stroke="rgb(0,0,0)" stroke-width="2"  />
			<g>
				<title>Aldedh (PF00171)
"Aldehyde dehydrogenase family"</title>
				<polygon class="PF00171" points="399,28 430,28 442,40 430,52 399,52" stroke-linejoin="round" width="46" height="24" fill="rgb(105,213,139)" stroke="rgb(84,170,111)" stroke-width="1" opacity="0.75" />
			</g>
		</g>
		<g>
			<title> (ctg2_331)</title>
			<polygon class=" (ctg2_331)" points="449,25 475,25 475,10 505,40 475,70 475,55 449,55" fill="rgb(255,255,255)" fill-opacity="1.0" stroke="rgb(0,0,0)" stroke-width="2"  />
			<g>
				<title>Peptidase_M20 (PF01546)
"Peptidase family M20/M25/M40"</title>
				<rect class="PF01546" x="461" y="28" stroke-linejoin="round" width="21" height="24" fill="rgb(88,213,108)" stroke="rgb(70,170,86)" stroke-width="1" opacity="0.75" />
			</g>
		</g>
		<g>
			<title> (ctg2_332)</title>
			<polygon class=" (ctg2_332)" points="508,25 523,25 523,10 553,40 523,70 523,55 508,55" fill="rgb(255,255,255)" fill-opacity="1.0" stroke="rgb(0,0,0)" stroke-width="2"  />
			<g>
				<title>AA_permease (PF00324)
"Amino acid permease"</title>
				<polygon class="PF00324" points="508,28 537,28 549,40 537,52 508,52" stroke-linejoin="round" width="44" height="24" fill="rgb(82,225,201)" stroke="rgb(65,180,160)" stroke-width="1" opacity="0.75" />
			</g>
		</g>
		<g>
			<title> (ctg2_333)</title>
			<polygon class=" (ctg2_333)" points="560,25 571,25 571,10 601,40 571,70 571,55 560,55" fill="rgb(255,255,255)" fill-opacity="1.0" stroke="rgb(0,0,0)" stroke-width="2"  />
			<g>
				<title>MFS_1 (PF07690)
"Major Facilitator Superfamily"</title>
				<polygon class="PF07690" points="561,28 585,28 593,36 593,44 585,52 561,52" stroke-linejoin="round" width="32" height="24" fill="rgb(193,224,74)" stroke="rgb(154,179,59)" stroke-width="1" opacity="0.75" />
			</g>
		</g>
		<g>
			<title> (ctg2_334)</title>
			<polygon class=" (ctg2_334)" points="606,10 626,40 606,70" fill="rgb(255,255,255)" fill-opacity="1.0" stroke="rgb(0,0,0)" stroke-width="2"  />
		</g>
		<g>
			<title> (ctg2_335)</title>
			<polygon class=" (ctg2_335)" points="627,10 650,40 627,70" fill="rgb(255,255,255)" fill-opacity="1.0" stroke="rgb(0,0,0)" stroke-width="2"  />
			<g>
				<title>Cupin_2 (PF07883)
"Cupin domain"</title>
				<rect class="PF07883" x="630" y="28" stroke-linejoin="round" width="7" height="24" fill="rgb(211,192,74)" stroke="rgb(168,153,59)" stroke-width="1" opacity="0.75" />
			</g>
			<g>
				<title>Cupin_2 (PF07883)
"Cupin domain"</title>
				<polygon class="PF07883" points="641,33 646,40 641,47" stroke-linejoin="round" width="7" height="24" fill="rgb(211,192,74)" stroke="rgb(168,153,59)" stroke-width="1" opacity="0.75" />
			</g>
		</g>
		<g>
			<title> (ctg2_336)</title>
			<polygon class=" (ctg2_336)" points="650,10 675,40 650,70" fill="rgb(255,255,255)" fill-opacity="1.0" stroke="rgb(0,0,0)" stroke-width="2"  />
			<g>
				<title>adh_short_C2 (PF13561)
"Enoyl-(Acyl carrier protein) reductase"</title>
				<polygon class="PF13561" points="651,28 661,28 671,40 661,52 651,52" stroke-linejoin="round" width="23" height="24" fill="rgb(73,205,127)" stroke="rgb(58,164,101)" stroke-width="1" opacity="0.75" />
			</g>
		</g>
		<g>
			<title> (ctg2_337)</title>
			<polygon class=" (ctg2_337)" points="676,25 693,25 693,10 723,40 693,70 693,55 676,55" fill="rgb(255,255,255)" fill-opacity="1.0" stroke="rgb(0,0,0)" stroke-width="2"  />
			<g>
				<title>ATP-grasp_4 (PF13535)
"ATP-grasp domain"</title>
				<polygon class="PF13535" points="693,28 707,28 709,30 709,50 707,52 693,52" stroke-linejoin="round" width="16" height="24" fill="rgb(197,156,74)" stroke="rgb(157,124,59)" stroke-width="1" opacity="0.75" />
			</g>
		</g>
		<g>
			<title> (ctg2_338)</title>
			<polygon class=" (ctg2_338)" points="723,25 732,25 732,10 762,40 732,70 732,55 723,55" fill="rgb(255,255,255)" fill-opacity="1.0" stroke="rgb(0,0,0)" stroke-width="2"  />
			<g>
				<title>MFS_1 (PF07690)
"Major Facilitator Superfamily"</title>
				<polygon class="PF07690" points="724,28 746,28 757,39 757,41 746,52 724,52" stroke-linejoin="round" width="33" height="24" fill="rgb(193,224,74)" stroke="rgb(154,179,59)" stroke-width="1" opacity="0.75" />
			</g>
		</g>
		<g>
			<title> (ctg2_339)</title>
			<polygon class=" (ctg2_339)" points="763,25 773,25 773,10 803,40 773,70 773,55 763,55" fill="rgb(255,255,255)" fill-opacity="1.0" stroke="rgb(0,0,0)" stroke-width="2"  />
			<g>
				<title>Aminotran_1_2 (PF00155)
"Aminotransferase class I and II"</title>
				<polygon class="PF00155" points="766,28 786,28 798,40 786,52 766,52" stroke-linejoin="round" width="35" height="24" fill="rgb(89,113,198)" stroke="rgb(71,90,158)" stroke-width="1" opacity="0.75" />
			</g>
		</g>
		<g>
			<title> (ctg2_340)</title>
			<polygon class=" (ctg2_340)" points="803,40 829,10 829,70" fill="rgb(255,255,255)" fill-opacity="1.0" stroke="rgb(0,0,0)" stroke-width="2"  />
			<g>
				<title>adh_short_C2 (PF13561)
"Enoyl-(Acyl carrier protein) reductase"</title>
				<polygon class="PF13561" points="807,40 817,28 827,28 827,52 817,52" stroke-linejoin="round" width="24" height="24" fill="rgb(73,205,127)" stroke="rgb(58,164,101)" stroke-width="1" opacity="0.75" />
			</g>
		</g>
		<g>
			<title> (ctg2_341)</title>
			<polygon class=" (ctg2_341)" points="834,40 859,10 859,70" fill="rgb(255,255,255)" fill-opacity="1.0" stroke="rgb(0,0,0)" stroke-width="2"  />
			<g>
				<title>Chlor_dismutase (PF06778)
"Chlorite dismutase"</title>
				<polygon class="PF06778" points="838,40 848,28 855,28 855,52 848,52" stroke-linejoin="round" width="20" height="24" fill="rgb(179,57,142)" stroke="rgb(143,45,113)" stroke-width="1" opacity="0.75" />
			</g>
		</g>
		<g>
			<title> (ctg2_342)</title>
			<polygon class=" (ctg2_342)" points="868,25 870,25 870,10 900,40 870,70 870,55 868,55" fill="rgb(255,255,255)" fill-opacity="1.0" stroke="rgb(0,0,0)" stroke-width="2"  />
			<g>
				<title>PTA_PTB (PF01515)
"Phosphate acetyl/butaryl transferase"</title>
				<polygon class="PF01515" points="868,28 884,28 896,40 884,52 868,52" stroke-linejoin="round" width="31" height="24" fill="rgb(53,147,183)" stroke="rgb(42,117,146)" stroke-width="1" opacity="0.75" />
			</g>
		</g>
		<g>
			<title> (ctg2_343)</title>
			<polygon class=" (ctg2_343)" points="905,25 905,25 905,10 935,40 905,70 905,55 905,55" fill="rgb(255,255,255)" fill-opacity="1.0" stroke="rgb(0,0,0)" stroke-width="2"  />
			<g>
				<title>HTH_1 (PF00126)
"Bacterial regulatory helix-turn-helix protein, lysR family"</title>
				<rect class="PF00126" x="905" y="28" stroke-linejoin="round" width="5" height="24" fill="rgb(125,227,79)" stroke="rgb(99,181,63)" stroke-width="1" opacity="0.75" />
			</g>
			<g>
				<title>LysR_substrate (PF03466)
"LysR substrate binding domain"</title>
				<polygon class="PF03466" points="913,28 918,28 930,40 918,52 913,52" stroke-linejoin="round" width="20" height="24" fill="rgb(55,136,195)" stroke="rgb(44,108,156)" stroke-width="1" opacity="0.75" />
			</g>
		</g>
		<g>
			<title> (ctg2_344)</title>
			<polygon class=" (ctg2_344)" points="937,10 965,40 937,70" fill="rgb(255,255,255)" fill-opacity="1.0" stroke="rgb(0,0,0)" stroke-width="2"  />
			<g>
				<title>BPL_LplA_LipB (PF03099)
"Biotin/lipoate A/B protein ligase family"</title>
				<polygon class="PF03099" points="943,28 949,28 955,34 955,46 949,52 943,52" stroke-linejoin="round" width="12" height="24" fill="rgb(228,147,105)" stroke="rgb(182,117,84)" stroke-width="1" opacity="0.75" />
			</g>
		</g>
		<g>
			<title> (ctg2_345)</title>
			<polygon class=" (ctg2_345)" points="971,10 1000,40 971,70" fill="rgb(255,255,255)" fill-opacity="1.0" stroke="rgb(0,0,0)" stroke-width="2"  />
			<g>
				<title>EamA (PF00892)
"EamA-like transporter family"</title>
				<rect class="PF00892" x="971" y="28" stroke-linejoin="round" width="13" height="24" fill="rgb(105,217,77)" stroke="rgb(84,173,61)" stroke-width="1" opacity="0.75" />
			</g>
			<g>
				<title>EamA (PF00892)
"EamA-like transporter family"</title>
				<polygon class="PF00892" points="985,29 996,40 985,51" stroke-linejoin="round" width="13" height="24" fill="rgb(105,217,77)" stroke="rgb(84,173,61)" stroke-width="1" opacity="0.75" />
			</g>
		</g>
		<g>
			<title> (ctg2_346)</title>
			<polygon class=" (ctg2_346)" points="1005,40 1030,10 1030,70" fill="rgb(255,255,255)" fill-opacity="1.0" stroke="rgb(0,0,0)" stroke-width="2"  />
		</g>
		<g>
			<title> (ctg2_347)</title>
			<polygon class=" (ctg2_347)" points="1038,10 1045,40 1038,70" fill="rgb(255,255,255)" fill-opacity="1.0" stroke="rgb(0,0,0)" stroke-width="2"  />
			<g>
				<title>DUF1450 (PF07293)
"Protein of unknown function (DUF1450)"</title>
				<polygon class="PF07293" points="1038,28 1038,28 1042,40 1038,52 1038,52" stroke-linejoin="round" width="7" height="24" fill="rgb(82,160,191)" stroke="rgb(65,127,152)" stroke-width="1" opacity="0.75" />
			</g>
		</g>
		<g>
			<title> (ctg2_348)</title>
			<polygon class=" (ctg2_348)" points="1051,25 1064,25 1064,10 1094,40 1064,70 1064,55 1051,55" fill="rgb(255,255,255)" fill-opacity="1.0" stroke="rgb(0,0,0)" stroke-width="2"  />
			<g>
				<title>HD (PF01966)
"HD domain"</title>
				<rect class="PF01966" x="1057" y="28" stroke-linejoin="round" width="12" height="24" fill="rgb(92,193,119)" stroke="rgb(73,154,95)" stroke-width="1" opacity="0.75" />
			</g>
			<g>
				<title>HD_assoc_2 (PF19276)
"HD associated region"</title>
				<polygon class="PF19276" points="1070,28 1078,28 1090,40 1078,52 1070,52" stroke-linejoin="round" width="22" height="24" fill="rgb(61,158,200)" stroke="rgb(48,126,160)" stroke-width="1" opacity="0.75" />
			</g>
		</g>
		<g>
			<title> (ctg2_349)</title>
			<polygon class=" (ctg2_349)" points="1096,10 1112,40 1096,70" fill="rgb(255,255,255)" fill-opacity="1.0" stroke="rgb(0,0,0)" stroke-width="2"  />
		</g>
		<g>
			<title> (ctg2_350)</title>
			<polygon class=" (ctg2_350)" points="1116,10 1131,40 1116,70" fill="rgb(255,255,255)" fill-opacity="1.0" stroke="rgb(0,0,0)" stroke-width="2"  />
			<g>
				<title>Rrf2 (PF02082)
"Iron-dependent Transcriptional regulator"</title>
				<polygon class="PF02082" points="1116,28 1121,28 1128,40 1121,52 1116,52" stroke-linejoin="round" width="13" height="24" fill="rgb(73,178,133)" stroke="rgb(58,142,106)" stroke-width="1" opacity="0.75" />
			</g>
		</g>
		<g>
			<title> (ctg2_351)</title>
			<polygon class=" (ctg2_351)" points="1132,25 1149,25 1149,10 1179,40 1149,70 1149,55 1132,55" fill="rgb(255,255,255)" fill-opacity="1.0" stroke="rgb(0,0,0)" stroke-width="2"  />
			<g>
				<title>MFS_1 (PF07690)
"Major Facilitator Superfamily"</title>
				<rect class="PF07690" x="1134" y="28" stroke-linejoin="round" width="18" height="24" fill="rgb(193,224,74)" stroke="rgb(154,179,59)" stroke-width="1" opacity="0.75" />
			</g>
			<g>
				<title>MFS_1 (PF07690)
"Major Facilitator Superfamily"</title>
				<polygon class="PF07690" points="1152,28 1162,28 1173,39 1173,41 1162,52 1152,52" stroke-linejoin="round" width="21" height="24" fill="rgb(193,224,74)" stroke="rgb(154,179,59)" stroke-width="1" opacity="0.75" />
			</g>
		</g>
		<g>
			<title> (ctg2_352)</title>
			<polygon class=" (ctg2_352)" points="1181,10 1186,40 1181,70" fill="rgb(255,255,255)" fill-opacity="1.0" stroke="rgb(0,0,0)" stroke-width="2"  />
		</g>
		<g>
			<title> (ctg2_353)</title>
			<polygon class=" (ctg2_353)" points="1207,25 1240,25 1240,10 1270,40 1240,70 1240,55 1207,55" fill="rgb(255,255,255)" fill-opacity="1.0" stroke="rgb(0,0,0)" stroke-width="2"  />
			<g>
				<title>TGS (PF02824)
"TGS domain"</title>
				<rect class="PF02824" x="1207" y="28" stroke-linejoin="round" width="5" height="24" fill="rgb(201,81,163)" stroke="rgb(160,64,130)" stroke-width="1" opacity="0.75" />
			</g>
			<g>
				<title>tRNA_SAD (PF07973)
"Threonyl and Alanyl tRNA synthetase second additional domain"</title>
				<rect class="PF07973" x="1224" y="28" stroke-linejoin="round" width="4" height="24" fill="rgb(220,97,228)" stroke="rgb(176,77,182)" stroke-width="1" opacity="0.75" />
			</g>
			<g>
				<title>tRNA-synt_2b (PF00587)
"tRNA synthetase class II core domain (G, H, P, S and T)"</title>
				<polygon class="PF00587" points="1239,28 1254,28 1260,34 1260,46 1254,52 1239,52" stroke-linejoin="round" width="21" height="24" fill="rgb(228,96,220)" stroke="rgb(182,76,176)" stroke-width="1" opacity="0.75" />
			</g>
			<g>
				<title>HGTP_anticodon (PF03129)
"Anticodon binding domain"</title>
				<polygon class="PF03129" points="1261,35 1266,40 1261,45" stroke-linejoin="round" width="9" height="24" fill="rgb(115,202,95)" stroke="rgb(92,161,76)" stroke-width="1" opacity="0.75" />
			</g>
		</g>
		<g>
			<title> (ctg2_354)</title>
			<polygon class=" (ctg2_354)" points="1275,10 1289,40 1275,70" fill="rgb(255,255,255)" fill-opacity="1.0" stroke="rgb(0,0,0)" stroke-width="2"  />
			<g>
				<title>MarR (PF01047)
"MarR family"</title>
				<polygon class="PF01047" points="1278,28 1279,28 1283,35 1283,45 1279,52 1278,52" stroke-linejoin="round" width="5" height="24" fill="rgb(60,185,86)" stroke="rgb(48,148,68)" stroke-width="1" opacity="0.75" />
			</g>
		</g>
		<g>
			<title> (ctg2_355)</title>
			<polygon class=" (ctg2_355)" points="1290,40 1296,10 1296,70" fill="rgb(255,255,255)" fill-opacity="1.0" stroke="rgb(0,0,0)" stroke-width="2"  />
			<g>
				<title>Tautomerase (PF01361)
"Tautomerase enzyme"</title>
				<polygon class="PF01361" points="1293,40 1295,30 1295,50" stroke-linejoin="round" width="5" height="24" fill="rgb(223,210,102)" stroke="rgb(178,168,81)" stroke-width="1" opacity="0.75" />
			</g>
		</g>
		<g>
			<title> (ctg2_356)</title>
			<polygon class=" (ctg2_356)" points="1300,10 1322,40 1300,70" fill="rgb(255,255,255)" fill-opacity="1.0" stroke="rgb(0,0,0)" stroke-width="2"  />
			<g>
				<title>Peptidase_M50 (PF02163)
"Peptidase family M50"</title>
				<polygon class="PF02163" points="1301,28 1309,28 1311,31 1311,49 1309,52 1301,52" stroke-linejoin="round" width="10" height="24" fill="rgb(105,96,203)" stroke="rgb(83,76,162)" stroke-width="1" opacity="0.75" />
			</g>
			<g>
				<title>Peptidase_M50 (PF02163)
"Peptidase family M50"</title>
				<polygon class="PF02163" points="1311,31 1318,40 1318,40 1311,49" stroke-linejoin="round" width="7" height="24" fill="rgb(105,96,203)" stroke="rgb(83,76,162)" stroke-width="1" opacity="0.75" />
			</g>
		</g>
		<g>
			<title> (ctg2_357)</title>
			<polygon class=" (ctg2_357)" points="1322,10 1339,40 1322,70" fill="rgb(255,255,255)" fill-opacity="1.0" stroke="rgb(0,0,0)" stroke-width="2"  />
			<g>
				<title>YwhD (PF08741)
"YwhD family"</title>
				<polygon class="PF08741" points="1322,28 1328,28 1335,40 1328,52 1322,52" stroke-linejoin="round" width="16" height="24" fill="rgb(198,193,90)" stroke="rgb(158,154,72)" stroke-width="1" opacity="0.75" />
			</g>
		</g>
	</g>
</svg>
