<svg version="1.1" baseProfile="full" xmlns="http://www.w3.org/2000/svg" width="1766.3333333333333" height="80">
	<g>
		<line x1="10" y1="40.0" x2="1756.3333333333333" y2="40.0" style="stroke:rgb(70,70,70); stroke-width:3 "/>
		<g>
			<title> (ctg5_2)</title>
			<polygon class=" (ctg5_2)" points="31,25 44,25 44,10 74,40 44,70 44,55 31,55" fill="rgb(255,255,255)" fill-opacity="1.0" stroke="rgb(0,0,0)" stroke-width="2"  />
		</g>
		<g>
			<title> (ctg5_3)</title>
			<polygon class=" (ctg5_3)" points="81,25 95,25 95,10 125,40 95,70 95,55 81,55" fill="rgb(255,255,255)" fill-opacity="1.0" stroke="rgb(0,0,0)" stroke-width="2"  />
			<g>
				<title>Reprolysin_4 (PF13583)
"Metallo-peptidase family M12B Reprolysin-like"</title>
				<polygon class="PF13583" points="115,35 120,40 115,45" stroke-linejoin="round" width="9" height="24" fill="rgb(56,208,194)" stroke="rgb(44,166,155)" stroke-width="1" opacity="0.75" />
			</g>
		</g>
		<g>
			<title> (ctg5_4)</title>
			<polygon class=" (ctg5_4)" points="133,40 139,10 139,70" fill="rgb(255,255,255)" fill-opacity="1.0" stroke="rgb(0,0,0)" stroke-width="2"  />
		</g>
		<g>
			<title> (ctg5_5)</title>
			<polygon class=" (ctg5_5)" points="148,25 232,25 232,10 262,40 232,70 232,55 148,55" fill="rgb(255,255,255)" fill-opacity="1.0" stroke="rgb(0,0,0)" stroke-width="2"  />
			<g>
				<title>GSDH (PF07995)
"Glucose / Sorbosone dehydrogenase"</title>
				<rect class="PF07995" x="150" y="28" stroke-linejoin="round" width="30" height="24" fill="rgb(199,57,124)" stroke="rgb(159,45,99)" stroke-width="1" opacity="0.75" />
			</g>
			<g>
				<title>PKD_4 (PF18911)
"PKD domain"</title>
				<rect class="PF18911" x="194" y="28" stroke-linejoin="round" width="9" height="24" fill="rgb(91,189,112)" stroke="rgb(72,151,89)" stroke-width="1" opacity="0.75" />
			</g>
			<g>
				<title>Por_Secre_tail (PF18962)
"Secretion system C-terminal sorting domain"</title>
				<polygon class="PF18962" points="254,37 257,40 254,43" stroke-linejoin="round" width="7" height="24" fill="rgb(117,84,214)" stroke="rgb(93,67,171)" stroke-width="1" opacity="0.75" />
			</g>
		</g>
		<g>
			<title> (ctg5_6)</title>
			<polygon class=" (ctg5_6)" points="281,25 357,25 357,10 387,40 357,70 357,55 281,55" fill="rgb(255,255,255)" fill-opacity="1.0" stroke="rgb(0,0,0)" stroke-width="2"  />
			<g>
				<title>GSDH (PF07995)
"Glucose / Sorbosone dehydrogenase"</title>
				<rect class="PF07995" x="284" y="28" stroke-linejoin="round" width="31" height="24" fill="rgb(199,57,124)" stroke="rgb(159,45,99)" stroke-width="1" opacity="0.75" />
			</g>
			<g>
				<title>PKD_4 (PF18911)
"PKD domain"</title>
				<rect class="PF18911" x="327" y="28" stroke-linejoin="round" width="9" height="24" fill="rgb(91,189,112)" stroke="rgb(72,151,89)" stroke-width="1" opacity="0.75" />
			</g>
			<g>
				<title>Por_Secre_tail (PF18962)
"Secretion system C-terminal sorting domain"</title>
				<polygon class="PF18962" points="380,37 383,40 380,43" stroke-linejoin="round" width="7" height="24" fill="rgb(117,84,214)" stroke="rgb(93,67,171)" stroke-width="1" opacity="0.75" />
			</g>
		</g>
		<g>
			<title> (ctg5_7)</title>
			<polygon class=" (ctg5_7)" points="391,10 412,40 391,70" fill="rgb(255,255,255)" fill-opacity="1.0" stroke="rgb(0,0,0)" stroke-width="2"  />
			<g>
				<title>MbnP (PF20243)
"MbnP"</title>
				<polygon class="PF20243" points="392,28 400,28 408,40 400,52 392,52" stroke-linejoin="round" width="18" height="24" fill="rgb(202,55,133)" stroke="rgb(161,44,106)" stroke-width="1" opacity="0.75" />
			</g>
		</g>
		<g>
			<title> (ctg5_8)</title>
			<polygon class=" (ctg5_8)" points="412,25 415,25 415,10 445,40 415,70 415,55 412,55" fill="rgb(255,255,255)" fill-opacity="1.0" stroke="rgb(0,0,0)" stroke-width="2"  />
			<g>
				<title>CCP_MauG (PF03150)
"Di-haem cytochrome c peroxidase"</title>
				<polygon class="PF03150" points="416,28 429,28 431,30 431,50 429,52 416,52" stroke-linejoin="round" width="15" height="24" fill="rgb(214,79,187)" stroke="rgb(171,63,149)" stroke-width="1" opacity="0.75" />
			</g>
			<g>
				<title>Cytochrom_C (PF00034)
"Cytochrome c"</title>
				<polygon class="PF00034" points="432,31 441,40 432,49" stroke-linejoin="round" width="12" height="24" fill="rgb(130,184,61)" stroke="rgb(104,147,48)" stroke-width="1" opacity="0.75" />
			</g>
		</g>
		<g>
			<title> (ctg5_9)</title>
			<polygon class=" (ctg5_9)" points="447,10 475,40 447,70" fill="rgb(255,255,255)" fill-opacity="1.0" stroke="rgb(0,0,0)" stroke-width="2"  />
		</g>
		<g>
			<title> (ctg5_10)</title>
			<polygon class=" (ctg5_10)" points="476,25 476,25 476,10 506,40 476,70 476,55 476,55" fill="rgb(255,255,255)" fill-opacity="1.0" stroke="rgb(0,0,0)" stroke-width="2"  />
			<g>
				<title>TatD_DNase (PF01026)
"TatD related DNase"</title>
				<polygon class="PF01026" points="476,28 489,28 501,40 501,40 489,52 476,52" stroke-linejoin="round" width="25" height="24" fill="rgb(91,81,210)" stroke="rgb(72,64,168)" stroke-width="1" opacity="0.75" />
			</g>
		</g>
		<g>
			<title> (ctg5_11)</title>
			<polygon class=" (ctg5_11)" points="506,10 535,40 506,70" fill="rgb(255,255,255)" fill-opacity="1.0" stroke="rgb(0,0,0)" stroke-width="2"  />
			<g>
				<title>UbiA (PF01040)
"UbiA prenyltransferase family"</title>
				<polygon class="PF01040" points="508,28 519,28 531,40 531,40 519,52 508,52" stroke-linejoin="round" width="23" height="24" fill="rgb(189,57,100)" stroke="rgb(151,45,80)" stroke-width="1" opacity="0.75" />
			</g>
		</g>
		<g>
			<title> (ctg5_12)</title>
			<polygon class=" (ctg5_12)" points="537,25 546,25 546,10 576,40 546,70 546,55 537,55" fill="rgb(255,255,255)" fill-opacity="1.0" stroke="rgb(0,0,0)" stroke-width="2"  />
			<g>
				<title>DHQ_synthase (PF01761)
"3-dehydroquinate synthase"</title>
				<polygon class="PF01761" points="545,28 559,28 570,39 570,41 559,52 545,52" stroke-linejoin="round" width="25" height="24" fill="rgb(150,62,180)" stroke="rgb(120,49,144)" stroke-width="1" opacity="0.75" />
			</g>
		</g>
		<g>
			<title> (ctg5_13)</title>
			<polygon class=" (ctg5_13)" points="575,25 586,25 586,10 616,40 586,70 586,55 575,55" fill="rgb(255,255,255)" fill-opacity="1.0" stroke="rgb(0,0,0)" stroke-width="2"  />
		</g>
		<g>
			<title> (ctg5_14)</title>
			<polygon class=" (ctg5_14)" points="617,25 632,25 632,10 662,40 632,70 632,55 617,55" fill="rgb(255,255,255)" fill-opacity="1.0" stroke="rgb(0,0,0)" stroke-width="2"  />
			<g>
				<title>Phosphodiest (PF01663)
"Type I phosphodiesterase / nucleotide pyrophosphatase"</title>
				<polygon class="PF01663" points="617,28 646,28 653,35 653,45 646,52 617,52" stroke-linejoin="round" width="36" height="24" fill="rgb(178,65,158)" stroke="rgb(142,52,126)" stroke-width="1" opacity="0.75" />
			</g>
		</g>
		<g>
			<title> (ctg5_15)</title>
			<polygon class=" (ctg5_15)" points="676,25 775,25 775,10 805,40 775,70 775,55 676,55" fill="rgb(255,255,255)" fill-opacity="1.0" stroke="rgb(0,0,0)" stroke-width="2"  />
			<g>
				<title>AMP-binding (PF00501)
"AMP-binding enzyme"</title>
				<rect class="PF00501" x="679" y="28" stroke-linejoin="round" width="40" height="24" fill="rgb(60,217,223)" stroke="rgb(48,173,178)" stroke-width="1" opacity="0.75" />
			</g>
			<g>
				<title>PP-binding (PF00550)
"Phosphopantetheine attachment site"</title>
				<rect class="PF00550" x="771" y="28" stroke-linejoin="round" width="6" height="24" fill="rgb(103,191,88)" stroke="rgb(82,152,70)" stroke-width="1" opacity="0.75" />
			</g>
			<g>
				<title>Thioesterase (PF00975)
"Thioesterase domain"</title>
				<polygon class="PF00975" points="780,28 789,28 801,40 789,52 780,52" stroke-linejoin="round" width="24" height="24" fill="rgb(207,80,138)" stroke="rgb(165,63,110)" stroke-width="1" opacity="0.75" />
			</g>
		</g>
		<g>
			<title> (ctg5_16)</title>
			<polygon class=" (ctg5_16)" points="808,40 835,10 835,70" fill="rgb(255,255,255)" fill-opacity="1.0" stroke="rgb(0,0,0)" stroke-width="2"  />
		</g>
		<g>
			<title> (ctg5_17)</title>
			<polygon class=" (ctg5_17)" points="899,25 874,25 874,10 844,40 874,70 874,55 899,55" fill="rgb(255,255,255)" fill-opacity="1.0" stroke="rgb(0,0,0)" stroke-width="2"  />
			<g>
				<title>Lipase_GDSL (PF00657)
"GDSL-like Lipase/Acylhydrolase"</title>
				<rect class="PF00657" x="870" y="28" stroke-linejoin="round" width="29" height="24" fill="rgb(151,210,92)" stroke="rgb(120,168,73)" stroke-width="1" opacity="0.75" />
			</g>
		</g>
		<g>
			<title> (ctg5_18)</title>
			<polygon class=" (ctg5_18)" points="912,40 940,10 940,70" fill="rgb(255,255,255)" fill-opacity="1.0" stroke="rgb(0,0,0)" stroke-width="2"  />
		</g>
		<g>
			<title> (ctg5_19)</title>
			<polygon class=" (ctg5_19)" points="944,40 972,10 972,70" fill="rgb(255,255,255)" fill-opacity="1.0" stroke="rgb(0,0,0)" stroke-width="2"  />
		</g>
		<g>
			<title> (ctg5_20)</title>
			<polygon class=" (ctg5_20)" points="974,40 993,10 993,70" fill="rgb(255,255,255)" fill-opacity="1.0" stroke="rgb(0,0,0)" stroke-width="2"  />
		</g>
		<g>
			<title> (ctg5_21)</title>
			<polygon class=" (ctg5_21)" points="993,40 1011,10 1011,70" fill="rgb(255,255,255)" fill-opacity="1.0" stroke="rgb(0,0,0)" stroke-width="2"  />
		</g>
		<g>
			<title> (ctg5_22)</title>
			<polygon class=" (ctg5_22)" points="1012,40 1030,10 1030,70" fill="rgb(255,255,255)" fill-opacity="1.0" stroke="rgb(0,0,0)" stroke-width="2"  />
		</g>
		<g>
			<title> (ctg5_23)</title>
			<polygon class=" (ctg5_23)" points="1031,40 1050,10 1050,70" fill="rgb(255,255,255)" fill-opacity="1.0" stroke="rgb(0,0,0)" stroke-width="2"  />
		</g>
		<g>
			<title> (ctg5_24)</title>
			<polygon class=" (ctg5_24)" points="1052,40 1068,10 1068,70" fill="rgb(255,255,255)" fill-opacity="1.0" stroke="rgb(0,0,0)" stroke-width="2"  />
		</g>
		<g>
			<title> (ctg5_25)</title>
			<polygon class=" (ctg5_25)" points="1069,40 1097,10 1097,70" fill="rgb(255,255,255)" fill-opacity="1.0" stroke="rgb(0,0,0)" stroke-width="2"  />
			<g>
				<title>DUF4138 (PF13595)
"Domain of unknown function (DUF4138)"</title>
				<polygon class="PF13595" points="1073,40 1084,28 1094,28 1094,52 1084,52" stroke-linejoin="round" width="25" height="24" fill="rgb(204,76,136)" stroke="rgb(163,60,108)" stroke-width="1" opacity="0.75" />
			</g>
		</g>
		<g>
			<title> (ctg5_26)</title>
			<polygon class=" (ctg5_26)" points="1176,25 1128,25 1128,10 1098,40 1128,70 1128,55 1176,55" fill="rgb(255,255,255)" fill-opacity="1.0" stroke="rgb(0,0,0)" stroke-width="2"  />
			<g>
				<title>P-loop_TraG (PF19044)
"TraG P-loop domain"</title>
				<polygon class="PF19044" points="1102,40 1114,28 1137,28 1137,52 1114,52" stroke-linejoin="round" width="39" height="24" fill="rgb(62,200,225)" stroke="rgb(49,160,180)" stroke-width="1" opacity="0.75" />
			</g>
			<g>
				<title>DUF3875 (PF12991)
"Domain of unknown function, B. Theta Gene description (DUF3875)"</title>
				<rect class="PF12991" x="1171" y="28" stroke-linejoin="round" width="4" height="24" fill="rgb(64,224,115)" stroke="rgb(51,179,92)" stroke-width="1" opacity="0.75" />
			</g>
		</g>
		<g>
			<title> (ctg5_27)</title>
			<polygon class=" (ctg5_27)" points="1216,25 1208,25 1208,10 1178,40 1208,70 1208,55 1216,55" fill="rgb(255,255,255)" fill-opacity="1.0" stroke="rgb(0,0,0)" stroke-width="2"  />
			<g>
				<title>Transposon_TraM (PF12508)
"Conjugative transposon, TraM"</title>
				<polygon class="PF12508" points="1182,40 1194,28 1199,28 1199,52 1194,52" stroke-linejoin="round" width="19" height="24" fill="rgb(149,205,75)" stroke="rgb(119,164,60)" stroke-width="1" opacity="0.75" />
			</g>
		</g>
		<g>
			<title> (ctg5_28)</title>
			<polygon class=" (ctg5_28)" points="1217,40 1233,10 1233,70" fill="rgb(255,255,255)" fill-opacity="1.0" stroke="rgb(0,0,0)" stroke-width="2"  />
			<g>
				<title>Peptidase_M23 (PF01551)
"Peptidase family M23"</title>
				<polygon class="PF01551" points="1220,40 1227,28 1227,28 1227,52 1227,52" stroke-linejoin="round" width="9" height="24" fill="rgb(65,169,193)" stroke="rgb(51,135,154)" stroke-width="1" opacity="0.75" />
			</g>
		</g>
		<g>
			<title> (ctg5_29)</title>
			<polygon class=" (ctg5_29)" points="1300,25 1265,25 1265,10 1235,40 1265,70 1265,55 1300,55" fill="rgb(255,255,255)" fill-opacity="1.0" stroke="rgb(0,0,0)" stroke-width="2"  />
			<g>
				<title>TraG-D_C (PF12696)
"TraM recognition site of TraD and TraG"</title>
				<polygon class="PF12696" points="1244,35 1251,28 1255,28 1255,52 1251,52 1244,45" stroke-linejoin="round" width="11" height="24" fill="rgb(191,70,55)" stroke="rgb(152,56,44)" stroke-width="1" opacity="0.75" />
			</g>
			<g>
				<title>YWFCY (PF14293)
"YWFCY protein"</title>
				<rect class="PF14293" x="1286" y="28" stroke-linejoin="round" width="13" height="24" fill="rgb(133,222,60)" stroke="rgb(106,177,48)" stroke-width="1" opacity="0.75" />
			</g>
		</g>
		<g>
			<title> (ctg5_30)</title>
			<polygon class=" (ctg5_30)" points="1303,40 1325,10 1325,70" fill="rgb(255,255,255)" fill-opacity="1.0" stroke="rgb(0,0,0)" stroke-width="2"  />
		</g>
		<g>
			<title> (ctg5_31)</title>
			<polygon class=" (ctg5_31)" points="1328,40 1337,10 1337,70" fill="rgb(255,255,255)" fill-opacity="1.0" stroke="rgb(0,0,0)" stroke-width="2"  />
		</g>
		<g>
			<title> (ctg5_32)</title>
			<polygon class=" (ctg5_32)" points="1342,40 1352,10 1352,70" fill="rgb(255,255,255)" fill-opacity="1.0" stroke="rgb(0,0,0)" stroke-width="2"  />
		</g>
		<g>
			<title> (ctg5_33)</title>
			<polygon class=" (ctg5_33)" points="1359,40 1369,10 1369,70" fill="rgb(255,255,255)" fill-opacity="1.0" stroke="rgb(0,0,0)" stroke-width="2"  />
		</g>
		<g>
			<title> (ctg5_34)</title>
			<polygon class=" (ctg5_34)" points="1408,25 1406,25 1406,10 1376,40 1406,70 1406,55 1408,55" fill="rgb(255,255,255)" fill-opacity="1.0" stroke="rgb(0,0,0)" stroke-width="2"  />
		</g>
		<g>
			<title> (ctg5_35)</title>
			<polygon class=" (ctg5_35)" points="1408,40 1411,10 1411,70" fill="rgb(255,255,255)" fill-opacity="1.0" stroke="rgb(0,0,0)" stroke-width="2"  />
		</g>
		<g>
			<title> (ctg5_36)</title>
			<polygon class=" (ctg5_36)" points="1479,25 1457,25 1457,10 1427,40 1457,70 1457,55 1479,55" fill="rgb(255,255,255)" fill-opacity="1.0" stroke="rgb(0,0,0)" stroke-width="2"  />
			<g>
				<title>Por_Secre_tail (PF18962)
"Secretion system C-terminal sorting domain"</title>
				<polygon class="PF18962" points="1431,40 1434,37 1434,43" stroke-linejoin="round" width="7" height="24" fill="rgb(117,84,214)" stroke="rgb(93,67,171)" stroke-width="1" opacity="0.75" />
			</g>
			<g>
				<title>RicinB_lectin_2 (PF14200)
"Ricin-type beta-trefoil lectin domain-like"</title>
				<polygon class="PF14200" points="1438,33 1443,28 1447,28 1447,52 1443,52 1438,47" stroke-linejoin="round" width="9" height="24" fill="rgb(112,220,73)" stroke="rgb(89,176,58)" stroke-width="1" opacity="0.75" />
			</g>
		</g>
		<g>
			<title> (ctg5_37)</title>
			<polygon class=" (ctg5_37)" points="1489,40 1498,10 1498,70" fill="rgb(255,255,255)" fill-opacity="1.0" stroke="rgb(0,0,0)" stroke-width="2"  />
			<g>
				<title>Por_Secre_tail (PF18962)
"Secretion system C-terminal sorting domain"</title>
				<polygon class="PF18962" points="1492,40 1496,28 1496,28 1496,52 1496,52" stroke-linejoin="round" width="7" height="24" fill="rgb(117,84,214)" stroke="rgb(93,67,171)" stroke-width="1" opacity="0.75" />
			</g>
		</g>
		<g>
			<title> (ctg5_38)</title>
			<polygon class=" (ctg5_38)" points="1520,40 1534,10 1534,70" fill="rgb(255,255,255)" fill-opacity="1.0" stroke="rgb(0,0,0)" stroke-width="2"  />
			<g>
				<title>DoxX (PF07681)
"DoxX"</title>
				<polygon class="PF07681" points="1524,38 1529,28 1532,28 1532,52 1529,52 1524,42" stroke-linejoin="round" width="8" height="24" fill="rgb(93,188,216)" stroke="rgb(74,150,172)" stroke-width="1" opacity="0.75" />
			</g>
		</g>
		<g>
			<title> (ctg5_39)</title>
			<polygon class=" (ctg5_39)" points="1537,40 1561,10 1561,70" fill="rgb(255,255,255)" fill-opacity="1.0" stroke="rgb(0,0,0)" stroke-width="2"  />
			<g>
				<title>DUF2063 (PF09836)
"Putative DNA-binding domain"</title>
				<rect class="PF09836" x="1552" y="28" stroke-linejoin="round" width="8" height="24" fill="rgb(88,194,190)" stroke="rgb(70,155,152)" stroke-width="1" opacity="0.75" />
			</g>
		</g>
		<g>
			<title> (ctg5_40)</title>
			<polygon class=" (ctg5_40)" points="1561,40 1588,10 1588,70" fill="rgb(255,255,255)" fill-opacity="1.0" stroke="rgb(0,0,0)" stroke-width="2"  />
			<g>
				<title>DUF692 (PF05114)
"Protein of unknown function (DUF692)"</title>
				<polygon class="PF05114" points="1565,40 1576,28 1588,28 1588,52 1576,52" stroke-linejoin="round" width="26" height="24" fill="rgb(63,196,127)" stroke="rgb(50,156,101)" stroke-width="1" opacity="0.75" />
			</g>
		</g>
		<g>
			<title> (ctg5_41)</title>
			<polygon class=" (ctg5_41)" points="1592,40 1602,10 1602,70" fill="rgb(255,255,255)" fill-opacity="1.0" stroke="rgb(0,0,0)" stroke-width="2"  />
		</g>
		<g>
			<title> (ctg5_42)</title>
			<polygon class=" (ctg5_42)" points="1635,40 1659,10 1659,70" fill="rgb(255,255,255)" fill-opacity="1.0" stroke="rgb(0,0,0)" stroke-width="2"  />
			<g>
				<title>Pro_CA (PF00484)
"Carbonic anhydrase"</title>
				<polygon class="PF00484" points="1639,40 1649,28 1650,28 1650,52 1649,52" stroke-linejoin="round" width="15" height="24" fill="rgb(215,92,126)" stroke="rgb(172,73,100)" stroke-width="1" opacity="0.75" />
			</g>
		</g>
		<g>
			<title> (ctg5_43)</title>
			<polygon class=" (ctg5_43)" points="1661,40 1682,10 1682,70" fill="rgb(255,255,255)" fill-opacity="1.0" stroke="rgb(0,0,0)" stroke-width="2"  />
			<g>
				<title>1-cysPrx_C (PF10417)
"C-terminal domain of 1-Cys peroxiredoxin"</title>
				<polygon class="PF10417" points="1665,40 1665,40 1665,40" stroke-linejoin="round" width="3" height="24" fill="rgb(80,189,172)" stroke="rgb(64,151,137)" stroke-width="1" opacity="0.75" />
			</g>
			<g>
				<title>AhpC-TSA (PF00578)
"AhpC/TSA family"</title>
				<polygon class="PF00578" points="1668,36 1673,28 1681,28 1681,52 1673,52 1668,44" stroke-linejoin="round" width="13" height="24" fill="rgb(166,71,190)" stroke="rgb(132,56,152)" stroke-width="1" opacity="0.75" />
			</g>
		</g>
		<g>
			<title> (ctg5_44)</title>
			<polygon class=" (ctg5_44)" points="1717,25 1714,25 1714,10 1684,40 1714,70 1714,55 1717,55" fill="rgb(255,255,255)" fill-opacity="1.0" stroke="rgb(0,0,0)" stroke-width="2"  />
			<g>
				<title>Por_Secre_tail (PF18962)
"Secretion system C-terminal sorting domain"</title>
				<polygon class="PF18962" points="1688,40 1690,38 1690,42" stroke-linejoin="round" width="6" height="24" fill="rgb(117,84,214)" stroke="rgb(93,67,171)" stroke-width="1" opacity="0.75" />
			</g>
		</g>
		<g>
			<title> (ctg5_45)</title>
			<polygon class=" (ctg5_45)" points="1724,40 1732,10 1732,70" fill="rgb(255,255,255)" fill-opacity="1.0" stroke="rgb(0,0,0)" stroke-width="2"  />
		</g>
		<g>
			<title> (ctg5_46)</title>
			<polygon class=" (ctg5_46)" points="1733,40 1754,10 1754,70" fill="rgb(255,255,255)" fill-opacity="1.0" stroke="rgb(0,0,0)" stroke-width="2"  />
		</g>
	</g>
</svg>
