<svg version="1.1" baseProfile="full" xmlns="http://www.w3.org/2000/svg" width="751.4333333333333" height="80">
	<g>
		<line x1="10" y1="40.0" x2="741.4333333333333" y2="40.0" style="stroke:rgb(70,70,70); stroke-width:3 "/>
		<g>
			<title> (ctg1_742)</title>
			<polygon class=" (ctg1_742)" points="10,25 21,25 21,10 51,40 21,70 21,55 10,55" fill="rgb(255,255,255)" fill-opacity="1.0" stroke="rgb(0,0,0)" stroke-width="2"  />
		</g>
		<g>
			<title> (ctg1_743)</title>
			<polygon class=" (ctg1_743)" points="51,25 70,25 70,10 100,40 70,70 70,55 51,55" fill="rgb(255,255,255)" fill-opacity="1.0" stroke="rgb(0,0,0)" stroke-width="2"  />
			<g>
				<title>DUF4130 (PF13566)
"Domain of unknown function (DUF4130"</title>
				<rect class="PF13566" x="58" y="28" stroke-linejoin="round" width="15" height="24" fill="rgb(170,91,218)" stroke="rgb(136,72,174)" stroke-width="1" opacity="0.75" />
			</g>
			<g>
				<title>UDG (PF03167)
"Uracil DNA glycosylase superfamily"</title>
				<polygon class="PF03167" points="82,28 83,28 95,40 83,52 82,52" stroke-linejoin="round" width="16" height="24" fill="rgb(64,224,60)" stroke="rgb(51,179,48)" stroke-width="1" opacity="0.75" />
			</g>
		</g>
		<g>
			<title> (ctg1_744)</title>
			<polygon class=" (ctg1_744)" points="138,25 135,25 135,10 105,40 135,70 135,55 138,55" fill="rgb(255,255,255)" fill-opacity="1.0" stroke="rgb(0,0,0)" stroke-width="2"  />
			<g>
				<title>Cyt_bd_oxida_II (PF02322)
"Cytochrome bd terminal oxidase subunit II"</title>
				<polygon class="PF02322" points="109,40 121,28 137,28 137,52 121,52" stroke-linejoin="round" width="31" height="24" fill="rgb(228,79,211)" stroke="rgb(182,63,168)" stroke-width="1" opacity="0.75" />
			</g>
		</g>
		<g>
			<title> (ctg1_745)</title>
			<polygon class=" (ctg1_745)" points="186,25 169,25 169,10 139,40 169,70 169,55 186,55" fill="rgb(255,255,255)" fill-opacity="1.0" stroke="rgb(0,0,0)" stroke-width="2"  />
			<g>
				<title>Cyt_bd_oxida_I (PF01654)
"Cytochrome bd terminal oxidase subunit I"</title>
				<polygon class="PF01654" points="143,40 155,28 184,28 184,52 155,52" stroke-linejoin="round" width="42" height="24" fill="rgb(64,127,201)" stroke="rgb(51,101,160)" stroke-width="1" opacity="0.75" />
			</g>
		</g>
		<g>
			<title> (ctg1_746)</title>
			<polygon class=" (ctg1_746)" points="195,25 215,25 215,10 245,40 215,70 215,55 195,55" fill="rgb(255,255,255)" fill-opacity="1.0" stroke="rgb(0,0,0)" stroke-width="2"  />
			<g>
				<title>DUF87 (PF01935)
"Helicase HerA, central domain"</title>
				<rect class="PF01935" x="195" y="28" stroke-linejoin="round" width="8" height="24" fill="rgb(212,130,95)" stroke="rgb(169,104,76)" stroke-width="1" opacity="0.75" />
			</g>
		</g>
		<g>
			<title> (ctg1_747)</title>
			<polygon class=" (ctg1_747)" points="247,25 259,25 259,10 289,40 259,70 259,55 247,55" fill="rgb(255,255,255)" fill-opacity="1.0" stroke="rgb(0,0,0)" stroke-width="2"  />
			<g>
				<title>UDPGT (PF00201)
"UDP-glucoronosyl and UDP-glucosyl transferase"</title>
				<polygon class="PF00201" points="270,28 272,28 284,40 272,52 270,52" stroke-linejoin="round" width="15" height="24" fill="rgb(225,150,107)" stroke="rgb(180,120,85)" stroke-width="1" opacity="0.75" />
			</g>
		</g>
		<g>
			<title> (ctg1_748)</title>
			<polygon class=" (ctg1_748)" points="289,25 297,25 297,10 327,40 297,70 297,55 289,55" fill="rgb(255,255,255)" fill-opacity="1.0" stroke="rgb(0,0,0)" stroke-width="2"  />
			<g>
				<title>Lycopene_cycl (PF05834)
"Lycopene cyclase protein"</title>
				<polygon class="PF05834" points="289,28 311,28 323,40 311,52 289,52" stroke-linejoin="round" width="36" height="24" fill="rgb(212,80,200)" stroke="rgb(169,64,160)" stroke-width="1" opacity="0.75" />
			</g>
		</g>
		<g>
			<title> (ctg1_749)</title>
			<polygon class=" (ctg1_749)" points="328,25 347,25 347,10 377,40 347,70 347,55 328,55" fill="rgb(255,255,255)" fill-opacity="1.0" stroke="rgb(0,0,0)" stroke-width="2"  />
			<g>
				<title>Amino_oxidase (PF01593)
"Flavin containing amine oxidoreductase"</title>
				<polygon class="PF01593" points="329,28 361,28 373,40 361,52 329,52" stroke-linejoin="round" width="47" height="24" fill="rgb(184,74,52)" stroke="rgb(147,59,41)" stroke-width="1" opacity="0.75" />
			</g>
		</g>
		<g>
			<title> (ctg1_750)</title>
			<polygon class=" (ctg1_750)" points="378,25 379,25 379,10 409,40 379,70 379,55 378,55" fill="rgb(255,255,255)" fill-opacity="1.0" stroke="rgb(0,0,0)" stroke-width="2"  />
			<g>
				<title>SQS_PSY (PF00494)
"Squalene/phytoene synthase"</title>
				<polygon class="PF00494" points="379,28 392,28 404,40 392,52 379,52" stroke-linejoin="round" width="26" height="24" fill="rgb(178,91,49)" stroke="rgb(142,72,39)" stroke-width="1" opacity="0.75" />
			</g>
		</g>
		<g>
			<title> (ctg1_751)</title>
			<polygon class=" (ctg1_751)" points="406,40 423,10 423,70" fill="rgb(255,255,255)" fill-opacity="1.0" stroke="rgb(0,0,0)" stroke-width="2"  />
		</g>
		<g>
			<title> (ctg1_752)</title>
			<polygon class=" (ctg1_752)" points="453,25 453,25 453,10 423,40 453,70 453,55 453,55" fill="rgb(255,255,255)" fill-opacity="1.0" stroke="rgb(0,0,0)" stroke-width="2"  />
			<g>
				<title>polyprenyl_synt (PF00348)
"Polyprenyl synthetase"</title>
				<polygon class="PF00348" points="429,38 439,28 450,28 450,52 439,52 429,42" stroke-linejoin="round" width="21" height="24" fill="rgb(61,206,65)" stroke="rgb(48,164,52)" stroke-width="1" opacity="0.75" />
			</g>
		</g>
		<g>
			<title> (ctg1_753)</title>
			<polygon class=" (ctg1_753)" points="459,25 463,25 463,10 493,40 463,70 463,55 459,55" fill="rgb(255,255,255)" fill-opacity="1.0" stroke="rgb(0,0,0)" stroke-width="2"  />
			<g>
				<title>FMN_dh (PF01070)
"FMN-dependent dehydrogenase"</title>
				<polygon class="PF01070" points="475,28 477,28 489,40 477,52 475,52" stroke-linejoin="round" width="17" height="24" fill="rgb(59,82,204)" stroke="rgb(47,65,163)" stroke-width="1" opacity="0.75" />
			</g>
		</g>
		<g>
			<title> (ctg1_754)</title>
			<polygon class=" (ctg1_754)" points="496,25 500,25 500,10 530,40 500,70 500,55 496,55" fill="rgb(255,255,255)" fill-opacity="1.0" stroke="rgb(0,0,0)" stroke-width="2"  />
			<g>
				<title>FBPase (PF00316)
"Fructose-1-6-bisphosphatase, N-terminal domain"</title>
				<rect class="PF00316" x="496" y="28" stroke-linejoin="round" width="17" height="24" fill="rgb(138,62,210)" stroke="rgb(110,49,168)" stroke-width="1" opacity="0.75" />
			</g>
			<g>
				<title>FBPase_C (PF18913)
"Fructose-1-6-bisphosphatase, C-terminal domain"</title>
				<polygon class="PF18913" points="514,29 525,40 514,51" stroke-linejoin="round" width="13" height="24" fill="rgb(60,54,197)" stroke="rgb(47,43,157)" stroke-width="1" opacity="0.75" />
			</g>
		</g>
		<g>
			<title> (ctg1_755)</title>
			<polygon class=" (ctg1_755)" points="531,25 568,25 568,10 598,40 568,70 568,55 531,55" fill="rgb(255,255,255)" fill-opacity="1.0" stroke="rgb(0,0,0)" stroke-width="2"  />
			<g>
				<title>Transketolase_N (PF00456)
"Transketolase, thiamine diphosphate binding domain"</title>
				<rect class="PF00456" x="532" y="28" stroke-linejoin="round" width="32" height="24" fill="rgb(74,202,214)" stroke="rgb(59,161,171)" stroke-width="1" opacity="0.75" />
			</g>
			<g>
				<title>Transket_pyr (PF02779)
"Transketolase, pyrimidine binding domain"</title>
				<polygon class="PF02779" points="566,28 581,28 583,30 583,50 581,52 566,52" stroke-linejoin="round" width="17" height="24" fill="rgb(189,186,84)" stroke="rgb(151,148,67)" stroke-width="1" opacity="0.75" />
			</g>
			<g>
				<title>Transketolase_C (PF02780)
"Transketolase, C-terminal domain"</title>
				<polygon class="PF02780" points="585,32 593,40 585,48" stroke-linejoin="round" width="11" height="24" fill="rgb(76,206,101)" stroke="rgb(60,164,80)" stroke-width="1" opacity="0.75" />
			</g>
		</g>
		<g>
			<title> (ctg1_756)</title>
			<polygon class=" (ctg1_756)" points="603,25 607,25 607,10 637,40 607,70 607,55 603,55" fill="rgb(255,255,255)" fill-opacity="1.0" stroke="rgb(0,0,0)" stroke-width="2"  />
			<g>
				<title>TerC (PF03741)
"Integral membrane protein TerC family"</title>
				<polygon class="PF03741" points="611,28 621,28 632,39 632,41 621,52 611,52" stroke-linejoin="round" width="21" height="24" fill="rgb(221,113,97)" stroke="rgb(176,90,77)" stroke-width="1" opacity="0.75" />
			</g>
		</g>
		<g>
			<title> (ctg1_757)</title>
			<polygon class=" (ctg1_757)" points="644,25 650,25 650,10 680,40 650,70 650,55 644,55" fill="rgb(255,255,255)" fill-opacity="1.0" stroke="rgb(0,0,0)" stroke-width="2"  />
			<g>
				<title>SBP_bac_6 (PF13343)
"Bacterial extracellular solute-binding protein"</title>
				<polygon class="PF13343" points="653,28 664,28 676,40 664,52 653,52" stroke-linejoin="round" width="25" height="24" fill="rgb(176,192,49)" stroke="rgb(140,153,39)" stroke-width="1" opacity="0.75" />
			</g>
		</g>
		<g>
			<title> (ctg1_758)</title>
			<polygon class=" (ctg1_758)" points="684,10 713,40 684,70" fill="rgb(255,255,255)" fill-opacity="1.0" stroke="rgb(0,0,0)" stroke-width="2"  />
			<g>
				<title>BPD_transp_1 (PF00528)
"Binding-protein-dependent transport system inner membrane component"</title>
				<polygon class="PF00528" points="692,28 697,28 709,40 697,52 692,52" stroke-linejoin="round" width="21" height="24" fill="rgb(77,208,225)" stroke="rgb(61,166,180)" stroke-width="1" opacity="0.75" />
			</g>
		</g>
		<g>
			<title> (ctg1_759)</title>
			<polygon class=" (ctg1_759)" points="714,10 741,40 714,70" fill="rgb(255,255,255)" fill-opacity="1.0" stroke="rgb(0,0,0)" stroke-width="2"  />
			<g>
				<title>BPD_transp_1 (PF00528)
"Binding-protein-dependent transport system inner membrane component"</title>
				<polygon class="PF00528" points="721,28 725,28 737,40 725,52 721,52" stroke-linejoin="round" width="18" height="24" fill="rgb(77,208,225)" stroke="rgb(61,166,180)" stroke-width="1" opacity="0.75" />
			</g>
		</g>
	</g>
</svg>
