<svg version="1.1" baseProfile="full" xmlns="http://www.w3.org/2000/svg" width="1391.5333333333333" height="80">
	<g>
		<line x1="10" y1="40.0" x2="1381.5333333333333" y2="40.0" style="stroke:rgb(70,70,70); stroke-width:3 "/>
		<g>
			<title> (ctg6_30)</title>
			<polygon class=" (ctg6_30)" points="27,25 40,25 40,10 70,40 40,70 40,55 27,55" fill="rgb(255,255,255)" fill-opacity="1.0" stroke="rgb(0,0,0)" stroke-width="2"  />
		</g>
		<g>
			<title> (ctg6_31)</title>
			<polygon class=" (ctg6_31)" points="105,10 111,40 105,70" fill="rgb(255,255,255)" fill-opacity="1.0" stroke="rgb(0,0,0)" stroke-width="2"  />
			<g>
				<title>Thiamine_BP (PF01910)
"Thiamine-binding protein"</title>
				<polygon class="PF01910" points="105,28 105,28 108,40 105,52 105,52" stroke-linejoin="round" width="5" height="24" fill="rgb(201,146,71)" stroke="rgb(160,116,56)" stroke-width="1" opacity="0.75" />
			</g>
		</g>
		<g>
			<title> (ctg6_32)</title>
			<polygon class=" (ctg6_32)" points="146,25 144,25 144,10 114,40 144,70 144,55 146,55" fill="rgb(255,255,255)" fill-opacity="1.0" stroke="rgb(0,0,0)" stroke-width="2"  />
			<g>
				<title>Epimerase (PF01370)
"NAD dependent epimerase/dehydratase family"</title>
				<polygon class="PF01370" points="123,35 130,28 145,28 145,52 130,52 123,45" stroke-linejoin="round" width="22" height="24" fill="rgb(98,102,214)" stroke="rgb(78,81,171)" stroke-width="1" opacity="0.75" />
			</g>
		</g>
		<g>
			<title> (ctg6_33)</title>
			<polygon class=" (ctg6_33)" points="238,25 177,25 177,10 147,40 177,70 177,55 238,55" fill="rgb(255,255,255)" fill-opacity="1.0" stroke="rgb(0,0,0)" stroke-width="2"  />
			<g>
				<title>AMP-binding (PF00501)
"AMP-binding enzyme"</title>
				<polygon class="PF00501" points="158,33 163,28 201,28 201,52 163,52 158,47" stroke-linejoin="round" width="43" height="24" fill="rgb(60,217,223)" stroke="rgb(48,173,178)" stroke-width="1" opacity="0.75" />
			</g>
			<g>
				<title>Abhydrolase_1 (PF00561)
"alpha/beta hydrolase fold"</title>
				<rect class="PF00561" x="218" y="28" stroke-linejoin="round" width="14" height="24" fill="rgb(86,180,151)" stroke="rgb(68,144,120)" stroke-width="1" opacity="0.75" />
			</g>
		</g>
		<g>
			<title> (ctg6_34)</title>
			<polygon class=" (ctg6_34)" points="273,25 268,25 268,10 238,40 268,70 268,55 273,55" fill="rgb(255,255,255)" fill-opacity="1.0" stroke="rgb(0,0,0)" stroke-width="2"  />
			<g>
				<title>ACP_syn_III_C (PF08541)
"3-Oxoacyl-[acyl-carrier-protein (ACP)] synthase III C terminal"</title>
				<polygon class="PF08541" points="242,40 246,36 246,44" stroke-linejoin="round" width="8" height="24" fill="rgb(146,207,81)" stroke="rgb(116,165,64)" stroke-width="1" opacity="0.75" />
			</g>
			<g>
				<title>ACP_syn_III (PF08545)
"3-Oxoacyl-[acyl-carrier-protein (ACP)] synthase III"</title>
				<polygon class="PF08545" points="250,32 254,28 259,28 259,52 254,52 250,48" stroke-linejoin="round" width="9" height="24" fill="rgb(189,102,84)" stroke="rgb(151,81,67)" stroke-width="1" opacity="0.75" />
			</g>
		</g>
		<g>
			<title> (ctg6_35)</title>
			<polygon class=" (ctg6_35)" points="316,25 307,25 307,10 277,40 307,70 307,55 316,55" fill="rgb(255,255,255)" fill-opacity="1.0" stroke="rgb(0,0,0)" stroke-width="2"  />
			<g>
				<title>FAD_binding_3 (PF01494)
"FAD binding domain"</title>
				<polygon class="PF01494" points="282,39 293,28 315,28 315,52 293,52 282,41" stroke-linejoin="round" width="33" height="24" fill="rgb(182,175,59)" stroke="rgb(145,140,47)" stroke-width="1" opacity="0.75" />
			</g>
		</g>
		<g>
			<title> (ctg6_36)</title>
			<polygon class=" (ctg6_36)" points="323,10 348,40 323,70" fill="rgb(255,255,255)" fill-opacity="1.0" stroke="rgb(0,0,0)" stroke-width="2"  />
			<g>
				<title>HTH_IclR (PF09339)
"IclR helix-turn-helix domain"</title>
				<rect class="PF09339" x="323" y="28" stroke-linejoin="round" width="5" height="24" fill="rgb(135,102,222)" stroke="rgb(108,81,177)" stroke-width="1" opacity="0.75" />
			</g>
			<g>
				<title>IclR (PF01614)
"Bacterial transcriptional regulator"</title>
				<polygon class="PF01614" points="335,29 344,40 335,51" stroke-linejoin="round" width="12" height="24" fill="rgb(58,93,180)" stroke="rgb(46,74,144)" stroke-width="1" opacity="0.75" />
			</g>
		</g>
		<g>
			<title> (ctg6_37)</title>
			<polygon class=" (ctg6_37)" points="352,10 379,40 352,70" fill="rgb(255,255,255)" fill-opacity="1.0" stroke="rgb(0,0,0)" stroke-width="2"  />
			<g>
				<title>PCDO_beta_N (PF12391)
"Protocatechuate 3,4-dioxygenase beta subunit N terminal"</title>
				<rect class="PF12391" x="357" y="28" stroke-linejoin="round" width="2" height="24" fill="rgb(58,217,189)" stroke="rgb(46,173,151)" stroke-width="1" opacity="0.75" />
			</g>
			<g>
				<title>Dioxygenase_C (PF00775)
"Dioxygenase"</title>
				<polygon class="PF00775" points="359,28 363,28 375,40 363,52 359,52" stroke-linejoin="round" width="18" height="24" fill="rgb(96,217,213)" stroke="rgb(76,173,170)" stroke-width="1" opacity="0.75" />
			</g>
		</g>
		<g>
			<title> (ctg6_38)</title>
			<polygon class=" (ctg6_38)" points="379,10 398,40 379,70" fill="rgb(255,255,255)" fill-opacity="1.0" stroke="rgb(0,0,0)" stroke-width="2"  />
			<g>
				<title>Dioxygenase_C (PF00775)
"Dioxygenase"</title>
				<polygon class="PF00775" points="381,28 387,28 390,33 390,47 387,52 381,52" stroke-linejoin="round" width="9" height="24" fill="rgb(96,217,213)" stroke="rgb(76,173,170)" stroke-width="1" opacity="0.75" />
			</g>
		</g>
		<g>
			<title> (ctg6_39)</title>
			<polygon class=" (ctg6_39)" points="398,25 417,25 417,10 447,40 417,70 417,55 398,55" fill="rgb(255,255,255)" fill-opacity="1.0" stroke="rgb(0,0,0)" stroke-width="2"  />
			<g>
				<title>Lyase_1 (PF00206)
"Lyase"</title>
				<rect class="PF00206" x="407" y="28" stroke-linejoin="round" width="23" height="24" fill="rgb(217,92,141)" stroke="rgb(173,73,112)" stroke-width="1" opacity="0.75" />
			</g>
		</g>
		<g>
			<title> (ctg6_40)</title>
			<polygon class=" (ctg6_40)" points="448,10 474,40 448,70" fill="rgb(255,255,255)" fill-opacity="1.0" stroke="rgb(0,0,0)" stroke-width="2"  />
			<g>
				<title>Abhydrolase_1 (PF00561)
"alpha/beta hydrolase fold"</title>
				<polygon class="PF00561" points="449,28 459,28 470,40 459,52 449,52" stroke-linejoin="round" width="22" height="24" fill="rgb(86,180,151)" stroke="rgb(68,144,120)" stroke-width="1" opacity="0.75" />
			</g>
		</g>
		<g>
			<title> (ctg6_41)</title>
			<polygon class=" (ctg6_41)" points="474,10 488,40 474,70" fill="rgb(255,255,255)" fill-opacity="1.0" stroke="rgb(0,0,0)" stroke-width="2"  />
			<g>
				<title>CMD (PF02627)
"Carboxymuconolactone decarboxylase family"</title>
				<polygon class="PF02627" points="479,28 479,28 485,40 479,52 479,52" stroke-linejoin="round" width="8" height="24" fill="rgb(58,205,164)" stroke="rgb(46,164,131)" stroke-width="1" opacity="0.75" />
			</g>
		</g>
		<g>
			<title> (ctg6_42)</title>
			<polygon class=" (ctg6_42)" points="502,40 509,10 509,70" fill="rgb(255,255,255)" fill-opacity="1.0" stroke="rgb(0,0,0)" stroke-width="2"  />
		</g>
		<g>
			<title> (ctg6_43)</title>
			<polygon class=" (ctg6_43)" points="514,25 515,25 515,10 545,40 515,70 515,55 514,55" fill="rgb(255,255,255)" fill-opacity="1.0" stroke="rgb(0,0,0)" stroke-width="2"  />
			<g>
				<title>HTH_AsnC-type (PF13404)
"AsnC-type helix-turn-helix domain"</title>
				<rect class="PF13404" x="514" y="28" stroke-linejoin="round" width="4" height="24" fill="rgb(190,195,86)" stroke="rgb(152,156,68)" stroke-width="1" opacity="0.75" />
			</g>
			<g>
				<title>HTH_AsnC-type (PF13404)
"AsnC-type helix-turn-helix domain"</title>
				<polygon class="PF13404" points="531,30 535,34 535,46 531,50" stroke-linejoin="round" width="4" height="24" fill="rgb(190,195,86)" stroke="rgb(152,156,68)" stroke-width="1" opacity="0.75" />
			</g>
		</g>
		<g>
			<title> (ctg6_44)</title>
			<polygon class=" (ctg6_44)" points="549,25 566,25 566,10 596,40 566,70 566,55 549,55" fill="rgb(255,255,255)" fill-opacity="1.0" stroke="rgb(0,0,0)" stroke-width="2"  />
			<g>
				<title>Amidase (PF01425)
"Amidase"</title>
				<polygon class="PF01425" points="551,28 580,28 592,40 592,40 580,52 551,52" stroke-linejoin="round" width="41" height="24" fill="rgb(195,142,64)" stroke="rgb(156,113,51)" stroke-width="1" opacity="0.75" />
			</g>
		</g>
		<g>
			<title> (ctg6_45)</title>
			<polygon class=" (ctg6_45)" points="599,10 606,40 599,70" fill="rgb(255,255,255)" fill-opacity="1.0" stroke="rgb(0,0,0)" stroke-width="2"  />
		</g>
		<g>
			<title> (ctg6_46)</title>
			<polygon class=" (ctg6_46)" points="607,25 625,25 625,10 655,40 625,70 625,55 607,55" fill="rgb(255,255,255)" fill-opacity="1.0" stroke="rgb(0,0,0)" stroke-width="2"  />
			<g>
				<title>SSF (PF00474)
"Sodium:solute symporter family"</title>
				<polygon class="PF00474" points="610,28 639,28 647,36 647,44 639,52 610,52" stroke-linejoin="round" width="37" height="24" fill="rgb(49,186,178)" stroke="rgb(39,148,142)" stroke-width="1" opacity="0.75" />
			</g>
		</g>
		<g>
			<title> (ctg6_47)</title>
			<polygon class=" (ctg6_47)" points="659,10 673,40 659,70" fill="rgb(255,255,255)" fill-opacity="1.0" stroke="rgb(0,0,0)" stroke-width="2"  />
			<g>
				<title>OsmC (PF02566)
"OsmC-like protein"</title>
				<polygon class="PF02566" points="662,28 663,28 669,40 663,52 662,52" stroke-linejoin="round" width="9" height="24" fill="rgb(161,56,212)" stroke="rgb(128,44,169)" stroke-width="1" opacity="0.75" />
			</g>
		</g>
		<g>
			<title> (ctg6_48)</title>
			<polygon class=" (ctg6_48)" points="714,25 706,25 706,10 676,40 706,70 706,55 714,55" fill="rgb(255,255,255)" fill-opacity="1.0" stroke="rgb(0,0,0)" stroke-width="2"  />
			<g>
				<title>HMG_CoA_synt_C (PF08540)
"Hydroxymethylglutaryl-coenzyme A synthase C terminal"</title>
				<polygon class="PF08540" points="680,40 688,32 688,48" stroke-linejoin="round" width="9" height="24" fill="rgb(49,194,86)" stroke="rgb(39,155,68)" stroke-width="1" opacity="0.75" />
			</g>
			<g>
				<title>HMG_CoA_synt_C (PF08540)
"Hydroxymethylglutaryl-coenzyme A synthase C terminal"</title>
				<polygon class="PF08540" points="689,31 692,28 697,28 697,52 692,52 689,49" stroke-linejoin="round" width="8" height="24" fill="rgb(49,194,86)" stroke="rgb(39,155,68)" stroke-width="1" opacity="0.75" />
			</g>
			<g>
				<title>HMG_CoA_synt_N (PF01154)
"Hydroxymethylglutaryl-coenzyme A synthase N terminal"</title>
				<rect class="PF01154" x="697" y="28" stroke-linejoin="round" width="16" height="24" fill="rgb(88,216,218)" stroke="rgb(70,172,174)" stroke-width="1" opacity="0.75" />
			</g>
		</g>
		<g>
			<title> (ctg6_49)</title>
			<polygon class=" (ctg6_49)" points="749,25 744,25 744,10 714,40 744,70 744,55 749,55" fill="rgb(255,255,255)" fill-opacity="1.0" stroke="rgb(0,0,0)" stroke-width="2"  />
			<g>
				<title>HMG-CoA_red (PF00368)
"Hydroxymethylglutaryl-coenzyme A reductase"</title>
				<polygon class="PF00368" points="718,40 730,28 747,28 747,52 730,52" stroke-linejoin="round" width="33" height="24" fill="rgb(67,203,137)" stroke="rgb(53,162,109)" stroke-width="1" opacity="0.75" />
			</g>
		</g>
		<g>
			<title> (ctg6_50)</title>
			<polygon class=" (ctg6_50)" points="790,25 781,25 781,10 751,40 781,70 781,55 790,55" fill="rgb(255,255,255)" fill-opacity="1.0" stroke="rgb(0,0,0)" stroke-width="2"  />
			<g>
				<title>FMN_dh (PF01070)
"FMN-dependent dehydrogenase"</title>
				<polygon class="PF01070" points="755,40 767,28 774,28 774,52 767,52" stroke-linejoin="round" width="20" height="24" fill="rgb(59,82,204)" stroke="rgb(47,65,163)" stroke-width="1" opacity="0.75" />
			</g>
		</g>
		<g>
			<title> (ctg6_51)</title>
			<polygon class=" (ctg6_51)" points="826,25 820,25 820,10 790,40 820,70 820,55 826,55" fill="rgb(255,255,255)" fill-opacity="1.0" stroke="rgb(0,0,0)" stroke-width="2"  />
			<g>
				<title>GHMP_kinases_C (PF08544)
"GHMP kinases C terminal"</title>
				<polygon class="PF08544" points="794,40 799,35 799,45" stroke-linejoin="round" width="8" height="24" fill="rgb(95,112,219)" stroke="rgb(76,89,175)" stroke-width="1" opacity="0.75" />
			</g>
			<g>
				<title>GHMP_kinases_N (PF00288)
"GHMP kinases N terminal domain"</title>
				<rect class="PF00288" x="809" y="28" stroke-linejoin="round" width="7" height="24" fill="rgb(190,54,91)" stroke="rgb(152,43,72)" stroke-width="1" opacity="0.75" />
			</g>
		</g>
		<g>
			<title> (ctg6_52)</title>
			<polygon class=" (ctg6_52)" points="859,25 856,25 856,10 826,40 856,70 856,55 859,55" fill="rgb(255,255,255)" fill-opacity="1.0" stroke="rgb(0,0,0)" stroke-width="2"  />
			<g>
				<title>MDD_C (PF18376)
"Mevalonate 5-diphosphate decarboxylase C-terminal domain"</title>
				<polygon class="PF18376" points="830,40 841,29 841,51" stroke-linejoin="round" width="13" height="24" fill="rgb(104,190,211)" stroke="rgb(83,152,168)" stroke-width="1" opacity="0.75" />
			</g>
			<g>
				<title>GHMP_kinases_N (PF00288)
"GHMP kinases N terminal domain"</title>
				<rect class="PF00288" x="843" y="28" stroke-linejoin="round" width="6" height="24" fill="rgb(190,54,91)" stroke="rgb(152,43,72)" stroke-width="1" opacity="0.75" />
			</g>
		</g>
		<g>
			<title> (ctg6_53)</title>
			<polygon class=" (ctg6_53)" points="895,25 890,25 890,10 860,40 890,70 890,55 895,55" fill="rgb(255,255,255)" fill-opacity="1.0" stroke="rgb(0,0,0)" stroke-width="2"  />
			<g>
				<title>GHMP_kinases_C (PF08544)
"GHMP kinases C terminal"</title>
				<polygon class="PF08544" points="864,40 869,35 869,45" stroke-linejoin="round" width="8" height="24" fill="rgb(95,112,219)" stroke="rgb(76,89,175)" stroke-width="1" opacity="0.75" />
			</g>
			<g>
				<title>GHMP_kinases_N (PF00288)
"GHMP kinases N terminal domain"</title>
				<polygon class="PF00288" points="875,29 876,28 881,28 881,52 876,52 875,51" stroke-linejoin="round" width="6" height="24" fill="rgb(190,54,91)" stroke="rgb(152,43,72)" stroke-width="1" opacity="0.75" />
			</g>
		</g>
		<g>
			<title> (ctg6_54)</title>
			<polygon class=" (ctg6_54)" points="906,25 938,25 938,10 968,40 938,70 938,55 906,55" fill="rgb(255,255,255)" fill-opacity="1.0" stroke="rgb(0,0,0)" stroke-width="2"  />
			<g>
				<title>ABC_membrane (PF00664)
"ABC transporter transmembrane region"</title>
				<rect class="PF00664" x="911" y="28" stroke-linejoin="round" width="28" height="24" fill="rgb(149,226,73)" stroke="rgb(119,180,58)" stroke-width="1" opacity="0.75" />
			</g>
			<g>
				<title>ABC_tran (PF00005)
"ABC transporter"</title>
				<polygon class="PF00005" points="946,28 952,28 960,36 960,44 952,52 946,52" stroke-linejoin="round" width="14" height="24" fill="rgb(129,201,63)" stroke="rgb(103,160,50)" stroke-width="1" opacity="0.75" />
			</g>
		</g>
		<g>
			<title> (ctg6_55)</title>
			<polygon class=" (ctg6_55)" points="974,40 994,10 994,70" fill="rgb(255,255,255)" fill-opacity="1.0" stroke="rgb(0,0,0)" stroke-width="2"  />
		</g>
		<g>
			<title> (ctg6_56)</title>
			<polygon class=" (ctg6_56)" points="997,10 1025,40 997,70" fill="rgb(255,255,255)" fill-opacity="1.0" stroke="rgb(0,0,0)" stroke-width="2"  />
			<g>
				<title>CN_hydrolase (PF00795)
"Carbon-nitrogen hydrolase"</title>
				<polygon class="PF00795" points="997,28 1009,28 1020,39 1020,41 1009,52 997,52" stroke-linejoin="round" width="23" height="24" fill="rgb(213,76,196)" stroke="rgb(170,60,156)" stroke-width="1" opacity="0.75" />
			</g>
		</g>
		<g>
			<title> (ctg6_57)</title>
			<polygon class=" (ctg6_57)" points="1026,25 1040,25 1040,10 1070,40 1040,70 1040,55 1026,55" fill="rgb(255,255,255)" fill-opacity="1.0" stroke="rgb(0,0,0)" stroke-width="2"  />
			<g>
				<title>AA_permease (PF00324)
"Amino acid permease"</title>
				<polygon class="PF00324" points="1028,28 1054,28 1065,39 1065,41 1054,52 1028,52" stroke-linejoin="round" width="37" height="24" fill="rgb(82,225,201)" stroke="rgb(65,180,160)" stroke-width="1" opacity="0.75" />
			</g>
		</g>
		<g>
			<title> (ctg6_58)</title>
			<polygon class=" (ctg6_58)" points="1077,25 1087,25 1087,10 1117,40 1087,70 1087,55 1077,55" fill="rgb(255,255,255)" fill-opacity="1.0" stroke="rgb(0,0,0)" stroke-width="2"  />
			<g>
				<title>Aminotran_1_2 (PF00155)
"Aminotransferase class I and II"</title>
				<polygon class="PF00155" points="1080,28 1101,28 1113,40 1101,52 1080,52" stroke-linejoin="round" width="36" height="24" fill="rgb(89,113,198)" stroke="rgb(71,90,158)" stroke-width="1" opacity="0.75" />
			</g>
		</g>
		<g>
			<title> (ctg6_59)</title>
			<polygon class=" (ctg6_59)" points="1118,10 1133,40 1118,70" fill="rgb(255,255,255)" fill-opacity="1.0" stroke="rgb(0,0,0)" stroke-width="2"  />
			<g>
				<title>SPOUT_MTase (PF02590)
"Predicted SPOUT methyltransferase"</title>
				<polygon class="PF02590" points="1118,28 1123,28 1129,40 1123,52 1118,52" stroke-linejoin="round" width="14" height="24" fill="rgb(187,85,81)" stroke="rgb(149,67,64)" stroke-width="1" opacity="0.75" />
			</g>
		</g>
		<g>
			<title> (ctg6_60)</title>
			<polygon class=" (ctg6_60)" points="1135,10 1164,40 1135,70" fill="rgb(255,255,255)" fill-opacity="1.0" stroke="rgb(0,0,0)" stroke-width="2"  />
			<g>
				<title>PfkB (PF00294)
"pfkB family carbohydrate kinase"</title>
				<polygon class="PF00294" points="1135,28 1148,28 1160,40 1148,52 1135,52" stroke-linejoin="round" width="28" height="24" fill="rgb(153,96,212)" stroke="rgb(122,76,169)" stroke-width="1" opacity="0.75" />
			</g>
		</g>
		<g>
			<title> (ctg6_61)</title>
			<polygon class=" (ctg6_61)" points="1168,10 1182,40 1168,70" fill="rgb(255,255,255)" fill-opacity="1.0" stroke="rgb(0,0,0)" stroke-width="2"  />
		</g>
		<g>
			<title> (ctg6_62)</title>
			<polygon class=" (ctg6_62)" points="1189,10 1199,40 1189,70" fill="rgb(255,255,255)" fill-opacity="1.0" stroke="rgb(0,0,0)" stroke-width="2"  />
			<g>
				<title>Glutaredoxin (PF00462)
"Glutaredoxin"</title>
				<polygon class="PF00462" points="1192,28 1196,40 1192,52" stroke-linejoin="round" width="5" height="24" fill="rgb(77,192,167)" stroke="rgb(61,153,133)" stroke-width="1" opacity="0.75" />
			</g>
		</g>
		<g>
			<title> (ctg6_63)</title>
			<polygon class=" (ctg6_63)" points="1202,10 1215,40 1202,70" fill="rgb(255,255,255)" fill-opacity="1.0" stroke="rgb(0,0,0)" stroke-width="2"  />
			<g>
				<title>Flavodoxin_NdrI (PF07972)
"NrdI Flavodoxin like"</title>
				<polygon class="PF07972" points="1202,28 1206,28 1212,40 1206,52 1202,52" stroke-linejoin="round" width="11" height="24" fill="rgb(59,189,166)" stroke="rgb(47,151,132)" stroke-width="1" opacity="0.75" />
			</g>
		</g>
		<g>
			<title> (ctg6_64)</title>
			<polygon class=" (ctg6_64)" points="1216,25 1257,25 1257,10 1287,40 1257,70 1257,55 1216,55" fill="rgb(255,255,255)" fill-opacity="1.0" stroke="rgb(0,0,0)" stroke-width="2"  />
			<g>
				<title>RNR_N (PF08343)
"Ribonucleotide reductase N-terminal"</title>
				<rect class="PF08343" x="1217" y="28" stroke-linejoin="round" width="8" height="24" fill="rgb(143,198,73)" stroke="rgb(114,158,58)" stroke-width="1" opacity="0.75" />
			</g>
			<g>
				<title>Ribonuc_red_lgN (PF00317)
"Ribonucleotide reductase, all-alpha domain"</title>
				<rect class="PF00317" x="1225" y="28" stroke-linejoin="round" width="7" height="24" fill="rgb(210,206,91)" stroke="rgb(168,164,72)" stroke-width="1" opacity="0.75" />
			</g>
			<g>
				<title>Ribonuc_red_lgC (PF02867)
"Ribonucleotide reductase, barrel domain"</title>
				<polygon class="PF02867" points="1233,28 1271,28 1283,40 1271,52 1233,52" stroke-linejoin="round" width="51" height="24" fill="rgb(53,200,190)" stroke="rgb(42,160,152)" stroke-width="1" opacity="0.75" />
			</g>
		</g>
		<g>
			<title> (ctg6_65)</title>
			<polygon class=" (ctg6_65)" points="1289,25 1291,25 1291,10 1321,40 1291,70 1291,55 1289,55" fill="rgb(255,255,255)" fill-opacity="1.0" stroke="rgb(0,0,0)" stroke-width="2"  />
			<g>
				<title>Ribonuc_red_sm (PF00268)
"Ribonucleotide reductase, small chain"</title>
				<polygon class="PF00268" points="1290,28 1305,28 1317,40 1317,40 1305,52 1290,52" stroke-linejoin="round" width="27" height="24" fill="rgb(88,210,197)" stroke="rgb(70,168,157)" stroke-width="1" opacity="0.75" />
			</g>
		</g>
		<g>
			<title> (ctg6_66)</title>
			<polygon class=" (ctg6_66)" points="1331,10 1360,40 1331,70" fill="rgb(255,255,255)" fill-opacity="1.0" stroke="rgb(0,0,0)" stroke-width="2"  />
			<g>
				<title>HTH_18 (PF12833)
"Helix-turn-helix domain"</title>
				<rect class="PF12833" x="1333" y="28" stroke-linejoin="round" width="7" height="24" fill="rgb(216,58,224)" stroke="rgb(172,46,179)" stroke-width="1" opacity="0.75" />
			</g>
			<g>
				<title>GyrI-like (PF06445)
"GyrI-like small molecule binding domain"</title>
				<polygon class="PF06445" points="1343,28 1344,28 1356,40 1344,52 1343,52" stroke-linejoin="round" width="16" height="24" fill="rgb(61,183,118)" stroke="rgb(48,146,94)" stroke-width="1" opacity="0.75" />
			</g>
		</g>
	</g>
</svg>
