<svg version="1.1" baseProfile="full" xmlns="http://www.w3.org/2000/svg" width="1393.0333333333333" height="80">
	<g>
		<line x1="10" y1="40.0" x2="1383.0333333333333" y2="40.0" style="stroke:rgb(70,70,70); stroke-width:3 "/>
		<g>
			<title> (ctg5_96)</title>
			<polygon class=" (ctg5_96)" points="25,40 53,10 53,70" fill="rgb(255,255,255)" fill-opacity="1.0" stroke="rgb(0,0,0)" stroke-width="2"  />
			<g>
				<title>ABC2_membrane (PF01061)
"ABC-2 type transporter"</title>
				<polygon class="PF01061" points="29,40 40,28 50,28 50,52 40,52 29,40" stroke-linejoin="round" width="21" height="24" fill="rgb(139,217,106)" stroke="rgb(111,173,84)" stroke-width="1" opacity="0.75" />
			</g>
		</g>
		<g>
			<title> (ctg5_97)</title>
			<polygon class=" (ctg5_97)" points="87,25 84,25 84,10 54,40 84,70 84,55 87,55" fill="rgb(255,255,255)" fill-opacity="1.0" stroke="rgb(0,0,0)" stroke-width="2"  />
			<g>
				<title>DUF4162 (PF13732)
"Domain of unknown function (DUF4162)"</title>
				<polygon class="PF13732" points="58,40 65,33 65,47" stroke-linejoin="round" width="9" height="24" fill="rgb(100,223,143)" stroke="rgb(80,178,114)" stroke-width="1" opacity="0.75" />
			</g>
			<g>
				<title>ABC_tran (PF00005)
"ABC transporter"</title>
				<polygon class="PF00005" points="70,28 70,28 84,28 84,52 70,52 70,52" stroke-linejoin="round" width="14" height="24" fill="rgb(129,201,63)" stroke="rgb(103,160,50)" stroke-width="1" opacity="0.75" />
			</g>
		</g>
		<g>
			<title> (ctg5_98)</title>
			<polygon class=" (ctg5_98)" points="89,40 116,10 116,70" fill="rgb(255,255,255)" fill-opacity="1.0" stroke="rgb(0,0,0)" stroke-width="2"  />
		</g>
		<g>
			<title> (ctg5_99)</title>
			<polygon class=" (ctg5_99)" points="176,25 153,25 153,10 123,40 153,70 153,55 176,55" fill="rgb(255,255,255)" fill-opacity="1.0" stroke="rgb(0,0,0)" stroke-width="2"  />
			<g>
				<title>Inositol_P (PF00459)
"Inositol monophosphatase family"</title>
				<polygon class="PF00459" points="127,40 139,28 149,28 149,52 139,52" stroke-linejoin="round" width="26" height="24" fill="rgb(67,210,137)" stroke="rgb(53,168,109)" stroke-width="1" opacity="0.75" />
			</g>
			<g>
				<title>GDPD (PF03009)
"Glycerophosphoryl diester phosphodiesterase family"</title>
				<rect class="PF03009" x="151" y="28" stroke-linejoin="round" width="12" height="24" fill="rgb(196,119,93)" stroke="rgb(156,95,74)" stroke-width="1" opacity="0.75" />
			</g>
			<g>
				<title>GDPD (PF03009)
"Glycerophosphoryl diester phosphodiesterase family"</title>
				<rect class="PF03009" x="163" y="28" stroke-linejoin="round" width="9" height="24" fill="rgb(196,119,93)" stroke="rgb(156,95,74)" stroke-width="1" opacity="0.75" />
			</g>
		</g>
		<g>
			<title> (ctg5_100)</title>
			<polygon class=" (ctg5_100)" points="213,25 212,25 212,10 182,40 212,70 212,55 213,55" fill="rgb(255,255,255)" fill-opacity="1.0" stroke="rgb(0,0,0)" stroke-width="2"  />
		</g>
		<g>
			<title> (ctg5_101)</title>
			<polygon class=" (ctg5_101)" points="218,10 232,40 218,70" fill="rgb(255,255,255)" fill-opacity="1.0" stroke="rgb(0,0,0)" stroke-width="2"  />
			<g>
				<title>DUF3054 (PF11255)
"Protein of unknown function (DUF3054)"</title>
				<polygon class="PF11255" points="219,28 222,28 228,40 222,52 219,52" stroke-linejoin="round" width="10" height="24" fill="rgb(222,194,58)" stroke="rgb(177,155,46)" stroke-width="1" opacity="0.75" />
			</g>
		</g>
		<g>
			<title> (ctg5_102)</title>
			<polygon class=" (ctg5_102)" points="233,40 254,10 254,70" fill="rgb(255,255,255)" fill-opacity="1.0" stroke="rgb(0,0,0)" stroke-width="2"  />
		</g>
		<g>
			<title> (ctg5_103)</title>
			<polygon class=" (ctg5_103)" points="294,25 292,25 292,10 262,40 292,70 292,55 294,55" fill="rgb(255,255,255)" fill-opacity="1.0" stroke="rgb(0,0,0)" stroke-width="2"  />
			<g>
				<title>DUF3097 (PF11296)
"Protein of unknown function (DUF3097)"</title>
				<polygon class="PF11296" points="266,40 278,28 291,28 291,52 278,52" stroke-linejoin="round" width="29" height="24" fill="rgb(204,91,104)" stroke="rgb(163,72,83)" stroke-width="1" opacity="0.75" />
			</g>
		</g>
		<g>
			<title> (ctg5_104)</title>
			<polygon class=" (ctg5_104)" points="295,25 300,25 300,10 330,40 300,70 300,55 295,55" fill="rgb(255,255,255)" fill-opacity="1.0" stroke="rgb(0,0,0)" stroke-width="2"  />
			<g>
				<title>ADH_N (PF08240)
"Alcohol dehydrogenase GroES-like domain"</title>
				<rect class="PF08240" x="297" y="28" stroke-linejoin="round" width="11" height="24" fill="rgb(211,65,138)" stroke="rgb(168,51,110)" stroke-width="1" opacity="0.75" />
			</g>
			<g>
				<title>ADH_zinc_N (PF00107)
"Zinc-binding dehydrogenase"</title>
				<polygon class="PF00107" points="313,28 313,28 325,40 325,40 313,52 313,52" stroke-linejoin="round" width="12" height="24" fill="rgb(81,108,215)" stroke="rgb(64,86,172)" stroke-width="1" opacity="0.75" />
			</g>
		</g>
		<g>
			<title> (ctg5_105)</title>
			<polygon class=" (ctg5_105)" points="334,25 345,25 345,10 375,40 345,70 345,55 334,55" fill="rgb(255,255,255)" fill-opacity="1.0" stroke="rgb(0,0,0)" stroke-width="2"  />
			<g>
				<title>HTH_24 (PF13412)
"Winged helix-turn-helix DNA-binding"</title>
				<rect class="PF13412" x="335" y="28" stroke-linejoin="round" width="4" height="24" fill="rgb(222,79,68)" stroke="rgb(177,63,54)" stroke-width="1" opacity="0.75" />
			</g>
			<g>
				<title>ROK (PF00480)
"ROK family"</title>
				<polygon class="PF00480" points="343,28 359,28 371,40 359,52 343,52" stroke-linejoin="round" width="29" height="24" fill="rgb(205,99,210)" stroke="rgb(163,79,168)" stroke-width="1" opacity="0.75" />
			</g>
		</g>
		<g>
			<title> (ctg5_106)</title>
			<polygon class=" (ctg5_106)" points="381,25 396,25 396,10 426,40 396,70 396,55 381,55" fill="rgb(255,255,255)" fill-opacity="1.0" stroke="rgb(0,0,0)" stroke-width="2"  />
			<g>
				<title>SBP_bac_8 (PF13416)
"Bacterial extracellular solute-binding protein"</title>
				<polygon class="PF13416" points="388,28 410,28 420,38 420,42 410,52 388,52" stroke-linejoin="round" width="32" height="24" fill="rgb(66,211,58)" stroke="rgb(52,168,46)" stroke-width="1" opacity="0.75" />
			</g>
		</g>
		<g>
			<title> (ctg5_107)</title>
			<polygon class=" (ctg5_107)" points="426,25 430,25 430,10 460,40 430,70 430,55 426,55" fill="rgb(255,255,255)" fill-opacity="1.0" stroke="rgb(0,0,0)" stroke-width="2"  />
			<g>
				<title>BPD_transp_1 (PF00528)
"Binding-protein-dependent transport system inner membrane component"</title>
				<polygon class="PF00528" points="438,28 444,28 456,40 444,52 438,52" stroke-linejoin="round" width="22" height="24" fill="rgb(77,208,225)" stroke="rgb(61,166,180)" stroke-width="1" opacity="0.75" />
			</g>
		</g>
		<g>
			<title> (ctg5_108)</title>
			<polygon class=" (ctg5_108)" points="461,10 490,40 461,70" fill="rgb(255,255,255)" fill-opacity="1.0" stroke="rgb(0,0,0)" stroke-width="2"  />
			<g>
				<title>BPD_transp_1 (PF00528)
"Binding-protein-dependent transport system inner membrane component"</title>
				<polygon class="PF00528" points="471,28 474,28 486,40 474,52 471,52" stroke-linejoin="round" width="18" height="24" fill="rgb(77,208,225)" stroke="rgb(61,166,180)" stroke-width="1" opacity="0.75" />
			</g>
		</g>
		<g>
			<title> (ctg5_109)</title>
			<polygon class=" (ctg5_109)" points="491,25 504,25 504,10 534,40 504,70 504,55 491,55" fill="rgb(255,255,255)" fill-opacity="1.0" stroke="rgb(0,0,0)" stroke-width="2"  />
			<g>
				<title>Glyco_hydro_4 (PF02056)
"Family 4 glycosyl hydrolase"</title>
				<rect class="PF02056" x="491" y="28" stroke-linejoin="round" width="17" height="24" fill="rgb(179,76,90)" stroke="rgb(143,60,72)" stroke-width="1" opacity="0.75" />
			</g>
			<g>
				<title>Glyco_hydro_4C (PF11975)
"Family 4 glycosyl hydrolase C-terminal domain"</title>
				<polygon class="PF11975" points="510,28 518,28 530,40 518,52 510,52" stroke-linejoin="round" width="21" height="24" fill="rgb(57,182,124)" stroke="rgb(45,145,99)" stroke-width="1" opacity="0.75" />
			</g>
		</g>
		<g>
			<title> (ctg5_110)</title>
			<polygon class=" (ctg5_110)" points="534,25 540,25 540,10 570,40 540,70 540,55 534,55" fill="rgb(255,255,255)" fill-opacity="1.0" stroke="rgb(0,0,0)" stroke-width="2"  />
			<g>
				<title>BcrAD_BadFG (PF01869)
"BadF/BadG/BcrA/BcrD ATPase family"</title>
				<polygon class="PF01869" points="537,28 554,28 566,40 554,52 537,52" stroke-linejoin="round" width="30" height="24" fill="rgb(204,121,66)" stroke="rgb(163,96,52)" stroke-width="1" opacity="0.75" />
			</g>
		</g>
		<g>
			<title> (ctg5_111)</title>
			<polygon class=" (ctg5_111)" points="615,25 612,25 612,10 582,40 612,70 612,55 615,55" fill="rgb(255,255,255)" fill-opacity="1.0" stroke="rgb(0,0,0)" stroke-width="2"  />
			<g>
				<title>Gp_dh_C (PF02800)
"Glyceraldehyde 3-phosphate dehydrogenase, C-terminal domain"</title>
				<polygon class="PF02800" points="586,40 598,28 599,28 599,52 598,52" stroke-linejoin="round" width="15" height="24" fill="rgb(160,186,82)" stroke="rgb(128,148,65)" stroke-width="1" opacity="0.75" />
			</g>
			<g>
				<title>Gp_dh_N (PF00044)
"Glyceraldehyde 3-phosphate dehydrogenase, NAD binding domain"</title>
				<rect class="PF00044" x="605" y="28" stroke-linejoin="round" width="10" height="24" fill="rgb(212,98,148)" stroke="rgb(169,78,118)" stroke-width="1" opacity="0.75" />
			</g>
		</g>
		<g>
			<title> (ctg5_112)</title>
			<polygon class=" (ctg5_112)" points="651,25 650,25 650,10 620,40 650,70 650,55 651,55" fill="rgb(255,255,255)" fill-opacity="1.0" stroke="rgb(0,0,0)" stroke-width="2"  />
			<g>
				<title>HTH_18 (PF12833)
"Helix-turn-helix domain"</title>
				<polygon class="PF12833" points="624,40 627,37 627,43" stroke-linejoin="round" width="7" height="24" fill="rgb(216,58,224)" stroke="rgb(172,46,179)" stroke-width="1" opacity="0.75" />
			</g>
			<g>
				<title>DJ-1_PfpI (PF01965)
"DJ-1/PfpI family"</title>
				<polygon class="PF01965" points="634,30 636,28 650,28 650,52 636,52 634,50" stroke-linejoin="round" width="16" height="24" fill="rgb(66,224,145)" stroke="rgb(52,179,116)" stroke-width="1" opacity="0.75" />
			</g>
		</g>
		<g>
			<title> (ctg5_113)</title>
			<polygon class=" (ctg5_113)" points="652,40 676,10 676,70" fill="rgb(255,255,255)" fill-opacity="1.0" stroke="rgb(0,0,0)" stroke-width="2"  />
			<g>
				<title>Methyltransf_25 (PF13649)
"Methyltransferase domain"</title>
				<polygon class="PF13649" points="659,36 666,28 668,28 668,52 666,52 659,44" stroke-linejoin="round" width="9" height="24" fill="rgb(227,135,74)" stroke="rgb(181,108,59)" stroke-width="1" opacity="0.75" />
			</g>
		</g>
		<g>
			<title> (ctg5_114)</title>
			<polygon class=" (ctg5_114)" points="715,25 706,25 706,10 676,40 706,70 706,55 715,55" fill="rgb(255,255,255)" fill-opacity="1.0" stroke="rgb(0,0,0)" stroke-width="2"  />
			<g>
				<title>Chal_sti_synt_C (PF02797)
"Chalcone and stilbene synthases, C-terminal domain"</title>
				<polygon class="PF02797" points="680,40 692,28 693,28 693,52 692,52" stroke-linejoin="round" width="14" height="24" fill="rgb(139,212,63)" stroke="rgb(111,169,50)" stroke-width="1" opacity="0.75" />
			</g>
			<g>
				<title>Chal_sti_synt_N (PF00195)
"Chalcone and stilbene synthases, N-terminal domain"</title>
				<rect class="PF00195" x="694" y="28" stroke-linejoin="round" width="21" height="24" fill="rgb(60,181,161)" stroke="rgb(47,144,128)" stroke-width="1" opacity="0.75" />
			</g>
		</g>
		<g>
			<title> (ctg5_115)</title>
			<polygon class=" (ctg5_115)" points="769,25 749,25 749,10 719,40 749,70 749,55 769,55" fill="rgb(255,255,255)" fill-opacity="1.0" stroke="rgb(0,0,0)" stroke-width="2"  />
			<g>
				<title>GatB_Yqey (PF02637)
"GatB domain"</title>
				<polygon class="PF02637" points="723,40 733,30 733,50" stroke-linejoin="round" width="14" height="24" fill="rgb(84,191,125)" stroke="rgb(67,152,99)" stroke-width="1" opacity="0.75" />
			</g>
			<g>
				<title>GatB_N (PF02934)
"GatB/GatE catalytic domain"</title>
				<rect class="PF02934" x="737" y="28" stroke-linejoin="round" width="29" height="24" fill="rgb(66,215,132)" stroke="rgb(52,172,105)" stroke-width="1" opacity="0.75" />
			</g>
		</g>
		<g>
			<title> (ctg5_116)</title>
			<polygon class=" (ctg5_116)" points="820,25 799,25 799,10 769,40 799,70 799,55 820,55" fill="rgb(255,255,255)" fill-opacity="1.0" stroke="rgb(0,0,0)" stroke-width="2"  />
			<g>
				<title>Amidase (PF01425)
"Amidase"</title>
				<polygon class="PF01425" points="773,40 785,28 817,28 817,52 785,52" stroke-linejoin="round" width="45" height="24" fill="rgb(195,142,64)" stroke="rgb(156,113,51)" stroke-width="1" opacity="0.75" />
			</g>
		</g>
		<g>
			<title> (ctg5_117)</title>
			<polygon class=" (ctg5_117)" points="821,40 831,10 831,70" fill="rgb(255,255,255)" fill-opacity="1.0" stroke="rgb(0,0,0)" stroke-width="2"  />
			<g>
				<title>Glu-tRNAGln (PF02686)
"Glu-tRNAGln amidotransferase C subunit"</title>
				<polygon class="PF02686" points="824,40 828,28 828,28 828,52 828,52" stroke-linejoin="round" width="7" height="24" fill="rgb(80,186,201)" stroke="rgb(64,148,160)" stroke-width="1" opacity="0.75" />
			</g>
		</g>
		<g>
			<title> (ctg5_118)</title>
			<polygon class=" (ctg5_118)" points="908,25 862,25 862,10 832,40 862,70 862,55 908,55" fill="rgb(255,255,255)" fill-opacity="1.0" stroke="rgb(0,0,0)" stroke-width="2"  />
			<g>
				<title>Transpeptidase (PF00905)
"Penicillin binding protein transpeptidase domain"</title>
				<polygon class="PF00905" points="842,34 848,28 869,28 869,52 848,52 842,46" stroke-linejoin="round" width="27" height="24" fill="rgb(161,226,87)" stroke="rgb(128,180,69)" stroke-width="1" opacity="0.75" />
			</g>
			<g>
				<title>Transgly (PF00912)
"Transglycosylase"</title>
				<rect class="PF00912" x="880" y="28" stroke-linejoin="round" width="20" height="24" fill="rgb(172,107,216)" stroke="rgb(137,85,172)" stroke-width="1" opacity="0.75" />
			</g>
		</g>
		<g>
			<title> (ctg5_119)</title>
			<polygon class=" (ctg5_119)" points="957,25 941,25 941,10 911,40 941,70 941,55 957,55" fill="rgb(255,255,255)" fill-opacity="1.0" stroke="rgb(0,0,0)" stroke-width="2"  />
			<g>
				<title>Abhydrolase_8 (PF06259)
"Alpha/beta hydrolase"</title>
				<polygon class="PF06259" points="920,35 927,28 937,28 937,52 927,52 920,45" stroke-linejoin="round" width="17" height="24" fill="rgb(194,151,87)" stroke="rgb(155,120,69)" stroke-width="1" opacity="0.75" />
			</g>
		</g>
		<g>
			<title> (ctg5_120)</title>
			<polygon class=" (ctg5_120)" points="1042,25 994,25 994,10 964,40 994,70 994,55 1042,55" fill="rgb(255,255,255)" fill-opacity="1.0" stroke="rgb(0,0,0)" stroke-width="2"  />
			<g>
				<title>BRCT (PF00533)
"BRCA1 C Terminus (BRCT) domain"</title>
				<polygon class="PF00533" points="968,40 972,36 972,44" stroke-linejoin="round" width="7" height="24" fill="rgb(69,217,144)" stroke="rgb(55,173,115)" stroke-width="1" opacity="0.75" />
			</g>
			<g>
				<title>HHH_2 (PF12826)
"Helix-hairpin-helix motif"</title>
				<polygon class="PF12826" points="975,33 980,28 981,28 981,52 980,52 975,47" stroke-linejoin="round" width="6" height="24" fill="rgb(223,81,103)" stroke="rgb(178,64,82)" stroke-width="1" opacity="0.75" />
			</g>
			<g>
				<title>DNA_ligase_ZBD (PF03119)
"NAD-dependent DNA ligase C4 zinc finger domain"</title>
				<rect class="PF03119" x="995" y="28" stroke-linejoin="round" width="2" height="24" fill="rgb(72,96,228)" stroke="rgb(57,76,182)" stroke-width="1" opacity="0.75" />
			</g>
			<g>
				<title>DNA_ligase_OB (PF03120)
"NAD-dependent DNA ligase OB-fold domain"</title>
				<rect class="PF03120" x="998" y="28" stroke-linejoin="round" width="7" height="24" fill="rgb(67,220,154)" stroke="rgb(53,176,123)" stroke-width="1" opacity="0.75" />
			</g>
			<g>
				<title>DNA_ligase_aden (PF01653)
"NAD-dependent DNA ligase adenylation domain"</title>
				<rect class="PF01653" x="1006" y="28" stroke-linejoin="round" width="33" height="24" fill="rgb(49,184,68)" stroke="rgb(39,147,54)" stroke-width="1" opacity="0.75" />
			</g>
		</g>
		<g>
			<title> (ctg5_121)</title>
			<polygon class=" (ctg5_121)" points="1080,25 1074,25 1074,10 1044,40 1074,70 1074,55 1080,55" fill="rgb(255,255,255)" fill-opacity="1.0" stroke="rgb(0,0,0)" stroke-width="2"  />
			<g>
				<title>tRNA_Me_trans_C (PF20258)
"Aminomethyltransferase beta-barrel domain"</title>
				<polygon class="PF20258" points="1048,40 1052,36 1052,44" stroke-linejoin="round" width="7" height="24" fill="rgb(206,63,177)" stroke="rgb(164,50,141)" stroke-width="1" opacity="0.75" />
			</g>
			<g>
				<title>tRNA_Me_trans_M (PF20259)
"tRNA methyl transferase PRC-barrel domain"</title>
				<polygon class="PF20259" points="1053,35 1059,29 1059,51 1053,45" stroke-linejoin="round" width="6" height="24" fill="rgb(75,219,221)" stroke="rgb(60,175,176)" stroke-width="1" opacity="0.75" />
			</g>
			<g>
				<title>tRNA_Me_trans (PF03054)
"tRNA methyl transferase HUP domain"</title>
				<polygon class="PF03054" points="1060,28 1060,28 1080,28 1080,52 1060,52 1060,52" stroke-linejoin="round" width="20" height="24" fill="rgb(197,86,150)" stroke="rgb(157,68,120)" stroke-width="1" opacity="0.75" />
			</g>
		</g>
		<g>
			<title> (ctg5_122)</title>
			<polygon class=" (ctg5_122)" points="1083,25 1096,25 1096,10 1126,40 1096,70 1096,55 1083,55" fill="rgb(255,255,255)" fill-opacity="1.0" stroke="rgb(0,0,0)" stroke-width="2"  />
			<g>
				<title>MFS_1 (PF07690)
"Major Facilitator Superfamily"</title>
				<polygon class="PF07690" points="1084,28 1110,28 1121,39 1121,41 1110,52 1084,52" stroke-linejoin="round" width="37" height="24" fill="rgb(193,224,74)" stroke="rgb(154,179,59)" stroke-width="1" opacity="0.75" />
			</g>
		</g>
		<g>
			<title> (ctg5_123)</title>
			<polygon class=" (ctg5_123)" points="1136,10 1159,40 1136,70" fill="rgb(255,255,255)" fill-opacity="1.0" stroke="rgb(0,0,0)" stroke-width="2"  />
			<g>
				<title>SNARE_assoc (PF09335)
"SNARE associated Golgi protein"</title>
				<polygon class="PF09335" points="1140,28 1146,28 1153,37 1153,43 1146,52 1140,52" stroke-linejoin="round" width="13" height="24" fill="rgb(145,188,82)" stroke="rgb(116,150,65)" stroke-width="1" opacity="0.75" />
			</g>
		</g>
		<g>
			<title> (ctg5_124)</title>
			<polygon class=" (ctg5_124)" points="1174,40 1193,10 1193,70" fill="rgb(255,255,255)" fill-opacity="1.0" stroke="rgb(0,0,0)" stroke-width="2"  />
			<g>
				<title>Ham1p_like (PF01725)
"Ham1 family"</title>
				<polygon class="PF01725" points="1178,40 1186,28 1192,28 1192,52 1186,52" stroke-linejoin="round" width="18" height="24" fill="rgb(76,199,61)" stroke="rgb(60,159,48)" stroke-width="1" opacity="0.75" />
			</g>
		</g>
		<g>
			<title> (ctg5_125)</title>
			<polygon class=" (ctg5_125)" points="1193,40 1217,10 1217,70" fill="rgb(255,255,255)" fill-opacity="1.0" stroke="rgb(0,0,0)" stroke-width="2"  />
			<g>
				<title>RNase_PH_C (PF03725)
"3' exoribonuclease family, domain 2"</title>
				<polygon class="PF03725" points="1197,40 1200,36 1200,44" stroke-linejoin="round" width="6" height="24" fill="rgb(81,207,213)" stroke="rgb(64,165,170)" stroke-width="1" opacity="0.75" />
			</g>
			<g>
				<title>RNase_PH (PF01138)
"3' exoribonuclease family, domain 1"</title>
				<polygon class="PF01138" points="1203,33 1207,28 1216,28 1216,52 1207,52 1203,47" stroke-linejoin="round" width="13" height="24" fill="rgb(201,109,229)" stroke="rgb(160,87,183)" stroke-width="1" opacity="0.75" />
			</g>
		</g>
		<g>
			<title> (ctg5_126)</title>
			<polygon class=" (ctg5_126)" points="1248,25 1248,25 1248,10 1218,40 1248,70 1248,55 1248,55" fill="rgb(255,255,255)" fill-opacity="1.0" stroke="rgb(0,0,0)" stroke-width="2"  />
			<g>
				<title>Asp_Glu_race (PF01177)
"Asp/Glu/Hydantoin racemase"</title>
				<polygon class="PF01177" points="1224,38 1234,28 1245,28 1245,52 1234,52 1224,42" stroke-linejoin="round" width="21" height="24" fill="rgb(137,211,53)" stroke="rgb(109,168,42)" stroke-width="1" opacity="0.75" />
			</g>
		</g>
		<g>
			<title> (ctg5_127)</title>
			<polygon class=" (ctg5_127)" points="1260,25 1274,25 1274,10 1304,40 1274,70 1274,55 1260,55" fill="rgb(255,255,255)" fill-opacity="1.0" stroke="rgb(0,0,0)" stroke-width="2"  />
			<g>
				<title>NAPRTase_N (PF17767)
"Nicotinate phosphoribosyltransferase (NAPRTase) N-terminal domain"</title>
				<rect class="PF17767" x="1260" y="28" stroke-linejoin="round" width="12" height="24" fill="rgb(82,185,201)" stroke="rgb(65,147,160)" stroke-width="1" opacity="0.75" />
			</g>
		</g>
		<g>
			<title> (ctg5_128)</title>
			<polygon class=" (ctg5_128)" points="1305,40 1313,10 1313,70" fill="rgb(255,255,255)" fill-opacity="1.0" stroke="rgb(0,0,0)" stroke-width="2"  />
			<g>
				<title>DUF3039 (PF11238)
"Protein of unknown function (DUF3039)"</title>
				<polygon class="PF11238" points="1308,40 1310,33 1310,47" stroke-linejoin="round" width="5" height="24" fill="rgb(69,187,211)" stroke="rgb(55,149,168)" stroke-width="1" opacity="0.75" />
			</g>
		</g>
		<g>
			<title> (ctg5_129)</title>
			<polygon class=" (ctg5_129)" points="1370,25 1348,25 1348,10 1318,40 1348,70 1348,55 1370,55" fill="rgb(255,255,255)" fill-opacity="1.0" stroke="rgb(0,0,0)" stroke-width="2"  />
		</g>
	</g>
</svg>
