<svg version="1.1" baseProfile="full" xmlns="http://www.w3.org/2000/svg" width="1809.8333333333333" height="80">
	<g>
		<line x1="10" y1="40.0" x2="1799.8333333333333" y2="40.0" style="stroke:rgb(70,70,70); stroke-width:3 "/>
		<g>
			<title> (ctg4_245)</title>
			<polygon class=" (ctg4_245)" points="29,40 42,10 42,70" fill="rgb(255,255,255)" fill-opacity="1.0" stroke="rgb(0,0,0)" stroke-width="2"  />
			<g>
				<title>RBFA (PF02033)
"Ribosome-binding factor A"</title>
				<polygon class="PF02033" points="32,40 37,28 41,28 41,52 37,52" stroke-linejoin="round" width="10" height="24" fill="rgb(221,90,110)" stroke="rgb(176,72,88)" stroke-width="1" opacity="0.75" />
			</g>
		</g>
		<g>
			<title> (ctg4_246)</title>
			<polygon class=" (ctg4_246)" points="134,25 75,25 75,10 45,40 75,70 75,55 134,55" fill="rgb(255,255,255)" fill-opacity="1.0" stroke="rgb(0,0,0)" stroke-width="2"  />
			<g>
				<title>IF-2 (PF11987)
"Translation-initiation factor 2"</title>
				<polygon class="PF11987" points="56,33 61,28 67,28 67,52 61,52 56,47" stroke-linejoin="round" width="11" height="24" fill="rgb(180,73,72)" stroke="rgb(144,58,57)" stroke-width="1" opacity="0.75" />
			</g>
			<g>
				<title>GTP_EFTU (PF00009)
"Elongation factor Tu GTP binding domain"</title>
				<rect class="PF00009" x="78" y="28" stroke-linejoin="round" width="16" height="24" fill="rgb(196,118,83)" stroke="rgb(156,94,66)" stroke-width="1" opacity="0.75" />
			</g>
			<g>
				<title>IF2_N (PF04760)
"Translation initiation factor IF-2, N-terminal region"</title>
				<rect class="PF04760" x="97" y="28" stroke-linejoin="round" width="5" height="24" fill="rgb(76,229,91)" stroke="rgb(60,183,72)" stroke-width="1" opacity="0.75" />
			</g>
			<g>
				<title>IF2_assoc (PF08364)
"Bacterial translation initiation factor IF-2 associated region"</title>
				<rect class="PF08364" x="125" y="28" stroke-linejoin="round" width="3" height="24" fill="rgb(168,88,199)" stroke="rgb(134,70,159)" stroke-width="1" opacity="0.75" />
			</g>
			<g>
				<title>IF2_N (PF04760)
"Translation initiation factor IF-2, N-terminal region"</title>
				<rect class="PF04760" x="129" y="28" stroke-linejoin="round" width="5" height="24" fill="rgb(76,229,91)" stroke="rgb(60,183,72)" stroke-width="1" opacity="0.75" />
			</g>
		</g>
		<g>
			<title> (ctg4_247)</title>
			<polygon class=" (ctg4_247)" points="184,25 165,25 165,10 135,40 165,70 165,55 184,55" fill="rgb(255,255,255)" fill-opacity="1.0" stroke="rgb(0,0,0)" stroke-width="2"  />
			<g>
				<title>HHH_5 (PF14520)
"Helix-hairpin-helix domain"</title>
				<polygon class="PF14520" points="139,40 140,39 140,41" stroke-linejoin="round" width="5" height="24" fill="rgb(118,220,87)" stroke="rgb(94,176,69)" stroke-width="1" opacity="0.75" />
			</g>
			<g>
				<title>HHH_5 (PF14520)
"Helix-hairpin-helix domain"</title>
				<polygon class="PF14520" points="143,36 147,32 147,48 143,44" stroke-linejoin="round" width="4" height="24" fill="rgb(118,220,87)" stroke="rgb(94,176,69)" stroke-width="1" opacity="0.75" />
			</g>
			<g>
				<title>KH_5 (PF13184)
"NusA-like KH domain"</title>
				<rect class="PF13184" x="154" y="28" stroke-linejoin="round" width="6" height="24" fill="rgb(70,213,202)" stroke="rgb(56,170,161)" stroke-width="1" opacity="0.75" />
			</g>
			<g>
				<title>NusA_N (PF08529)
"NusA N-terminal domain"</title>
				<rect class="PF08529" x="172" y="28" stroke-linejoin="round" width="12" height="24" fill="rgb(185,191,82)" stroke="rgb(148,152,65)" stroke-width="1" opacity="0.75" />
			</g>
		</g>
		<g>
			<title> (ctg4_248)</title>
			<polygon class=" (ctg4_248)" points="186,40 200,10 200,70" fill="rgb(255,255,255)" fill-opacity="1.0" stroke="rgb(0,0,0)" stroke-width="2"  />
			<g>
				<title>DUF150_C (PF17384)
"RimP C-terminal SH3 domain"</title>
				<polygon class="PF17384" points="189,40 192,34 192,46" stroke-linejoin="round" width="6" height="24" fill="rgb(216,131,73)" stroke="rgb(172,104,58)" stroke-width="1" opacity="0.75" />
			</g>
			<g>
				<title>RimP_N (PF02576)
"RimP N-terminal domain"</title>
				<polygon class="PF02576" points="192,34 195,28 199,28 199,52 195,52 192,46" stroke-linejoin="round" width="7" height="24" fill="rgb(108,100,206)" stroke="rgb(86,80,164)" stroke-width="1" opacity="0.75" />
			</g>
		</g>
		<g>
			<title> (ctg4_249)</title>
			<polygon class=" (ctg4_249)" points="217,40 228,10 228,70" fill="rgb(255,255,255)" fill-opacity="1.0" stroke="rgb(0,0,0)" stroke-width="2"  />
			<g>
				<title>SecG (PF03840)
"Preprotein translocase SecG subunit"</title>
				<polygon class="PF03840" points="220,40 224,28 226,28 226,52 224,52 220,40" stroke-linejoin="round" width="6" height="24" fill="rgb(226,130,104)" stroke="rgb(180,104,83)" stroke-width="1" opacity="0.75" />
			</g>
		</g>
		<g>
			<title> (ctg4_250)</title>
			<polygon class=" (ctg4_250)" points="279,25 265,25 265,10 235,40 265,70 265,55 279,55" fill="rgb(255,255,255)" fill-opacity="1.0" stroke="rgb(0,0,0)" stroke-width="2"  />
			<g>
				<title>PGM_PMM_IV (PF00408)
"Phosphoglucomutase/phosphomannomutase, C-terminal domain"</title>
				<polygon class="PF00408" points="239,40 241,38 241,42" stroke-linejoin="round" width="6" height="24" fill="rgb(74,205,143)" stroke="rgb(59,164,114)" stroke-width="1" opacity="0.75" />
			</g>
			<g>
				<title>PGM_PMM_III (PF02880)
"Phosphoglucomutase/phosphomannomutase, alpha/beta/alpha domain III"</title>
				<polygon class="PF02880" points="242,37 251,28 253,28 253,52 251,52 242,43" stroke-linejoin="round" width="11" height="24" fill="rgb(67,204,90)" stroke="rgb(53,163,72)" stroke-width="1" opacity="0.75" />
			</g>
			<g>
				<title>PGM_PMM_II (PF02879)
"Phosphoglucomutase/phosphomannomutase, alpha/beta/alpha domain II"</title>
				<rect class="PF02879" x="254" y="28" stroke-linejoin="round" width="9" height="24" fill="rgb(192,221,60)" stroke="rgb(153,176,48)" stroke-width="1" opacity="0.75" />
			</g>
			<g>
				<title>PGM_PMM_I (PF02878)
"Phosphoglucomutase/phosphomannomutase, alpha/beta/alpha domain I"</title>
				<rect class="PF02878" x="265" y="28" stroke-linejoin="round" width="13" height="24" fill="rgb(217,133,102)" stroke="rgb(173,106,81)" stroke-width="1" opacity="0.75" />
			</g>
		</g>
		<g>
			<title> (ctg4_251)</title>
			<polygon class=" (ctg4_251)" points="280,40 307,10 307,70" fill="rgb(255,255,255)" fill-opacity="1.0" stroke="rgb(0,0,0)" stroke-width="2"  />
			<g>
				<title>Pterin_bind (PF00809)
"Pterin binding enzyme"</title>
				<polygon class="PF00809" points="284,40 295,28 305,28 305,52 295,52" stroke-linejoin="round" width="23" height="24" fill="rgb(192,119,62)" stroke="rgb(153,95,49)" stroke-width="1" opacity="0.75" />
			</g>
		</g>
		<g>
			<title> (ctg4_252)</title>
			<polygon class=" (ctg4_252)" points="374,25 340,25 340,10 310,40 340,70 340,55 374,55" fill="rgb(255,255,255)" fill-opacity="1.0" stroke="rgb(0,0,0)" stroke-width="2"  />
			<g>
				<title>Peptidase_M41 (PF01434)
"Peptidase family M41"</title>
				<polygon class="PF01434" points="315,39 326,28 334,28 334,52 326,52 315,41" stroke-linejoin="round" width="19" height="24" fill="rgb(108,182,48)" stroke="rgb(86,145,38)" stroke-width="1" opacity="0.75" />
			</g>
			<g>
				<title>AAA_lid_3 (PF17862)
"AAA+ lid domain"</title>
				<rect class="PF17862" x="335" y="28" stroke-linejoin="round" width="4" height="24" fill="rgb(219,69,225)" stroke="rgb(175,55,180)" stroke-width="1" opacity="0.75" />
			</g>
			<g>
				<title>AAA (PF00004)
"ATPase family associated with various cellular activities (AAA)"</title>
				<rect class="PF00004" x="342" y="28" stroke-linejoin="round" width="13" height="24" fill="rgb(57,194,204)" stroke="rgb(45,155,163)" stroke-width="1" opacity="0.75" />
			</g>
			<g>
				<title>FtsH_ext (PF06480)
"FtsH Extracellular"</title>
				<rect class="PF06480" x="365" y="28" stroke-linejoin="round" width="8" height="24" fill="rgb(86,101,178)" stroke="rgb(68,80,142)" stroke-width="1" opacity="0.75" />
			</g>
		</g>
		<g>
			<title> (ctg4_253)</title>
			<polygon class=" (ctg4_253)" points="381,40 402,10 402,70" fill="rgb(255,255,255)" fill-opacity="1.0" stroke="rgb(0,0,0)" stroke-width="2"  />
			<g>
				<title>FtsJ (PF01728)
"FtsJ-like methyltransferase"</title>
				<polygon class="PF01728" points="385,40 393,28 398,28 398,52 393,52" stroke-linejoin="round" width="17" height="24" fill="rgb(66,140,192)" stroke="rgb(52,111,153)" stroke-width="1" opacity="0.75" />
			</g>
		</g>
		<g>
			<title> (ctg4_254)</title>
			<polygon class=" (ctg4_254)" points="406,10 415,40 406,70" fill="rgb(255,255,255)" fill-opacity="1.0" stroke="rgb(0,0,0)" stroke-width="2"  />
			<g>
				<title>CRS1_YhbY (PF01985)
"CRS1 / YhbY (CRM) domain"</title>
				<polygon class="PF01985" points="406,28 408,28 412,40 408,52 406,52" stroke-linejoin="round" width="8" height="24" fill="rgb(45,125,179)" stroke="rgb(36,99,143)" stroke-width="1" opacity="0.75" />
			</g>
		</g>
		<g>
			<title> (ctg4_255)</title>
			<polygon class=" (ctg4_255)" points="420,40 435,10 435,70" fill="rgb(255,255,255)" fill-opacity="1.0" stroke="rgb(0,0,0)" stroke-width="2"  />
			<g>
				<title>GreA_GreB (PF01272)
"Transcription elongation factor, GreA/GreB, C-term"</title>
				<polygon class="PF01272" points="423,40 427,32 427,48" stroke-linejoin="round" width="7" height="24" fill="rgb(196,189,58)" stroke="rgb(156,151,46)" stroke-width="1" opacity="0.75" />
			</g>
			<g>
				<title>GreA_GreB_N (PF03449)
"Transcription elongation factor, N-terminal"</title>
				<polygon class="PF03449" points="428,31 429,28 435,28 435,52 429,52 428,49" stroke-linejoin="round" width="7" height="24" fill="rgb(109,94,217)" stroke="rgb(87,75,173)" stroke-width="1" opacity="0.75" />
			</g>
		</g>
		<g>
			<title> (ctg4_256)</title>
			<polygon class=" (ctg4_256)" points="445,25 461,25 461,10 491,40 461,70 461,55 445,55" fill="rgb(255,255,255)" fill-opacity="1.0" stroke="rgb(0,0,0)" stroke-width="2"  />
			<g>
				<title>Peptidase_S13 (PF02113)
"D-Ala-D-Ala carboxypeptidase 3 (S13) family"</title>
				<polygon class="PF02113" points="445,28 475,28 487,40 475,52 445,52" stroke-linejoin="round" width="45" height="24" fill="rgb(222,106,76)" stroke="rgb(177,84,60)" stroke-width="1" opacity="0.75" />
			</g>
		</g>
		<g>
			<title> (ctg4_257)</title>
			<polygon class=" (ctg4_257)" points="492,10 514,40 492,70" fill="rgb(255,255,255)" fill-opacity="1.0" stroke="rgb(0,0,0)" stroke-width="2"  />
			<g>
				<title>Response_reg (PF00072)
"Response regulator receiver domain"</title>
				<polygon class="PF00072" points="492,28 501,28 503,30 503,50 501,52 492,52" stroke-linejoin="round" width="11" height="24" fill="rgb(100,107,203)" stroke="rgb(80,85,162)" stroke-width="1" opacity="0.75" />
			</g>
			<g>
				<title>Trans_reg_C (PF00486)
"Transcriptional regulatory protein, C terminal"</title>
				<polygon class="PF00486" points="506,35 510,40 506,45" stroke-linejoin="round" width="7" height="24" fill="rgb(204,153,57)" stroke="rgb(163,122,45)" stroke-width="1" opacity="0.75" />
			</g>
		</g>
		<g>
			<title> (ctg4_258)</title>
			<polygon class=" (ctg4_258)" points="514,25 519,25 519,10 549,40 519,70 519,55 514,55" fill="rgb(255,255,255)" fill-opacity="1.0" stroke="rgb(0,0,0)" stroke-width="2"  />
			<g>
				<title>HisKA (PF00512)
"His Kinase A (phospho-acceptor) domain"</title>
				<rect class="PF00512" x="527" y="28" stroke-linejoin="round" width="6" height="24" fill="rgb(193,125,62)" stroke="rgb(154,100,49)" stroke-width="1" opacity="0.75" />
			</g>
			<g>
				<title>HATPase_c (PF02518)
"Histidine kinase-, DNA gyrase B-, and HSP90-like ATPase"</title>
				<polygon class="PF02518" points="538,33 545,40 538,47" stroke-linejoin="round" width="10" height="24" fill="rgb(80,94,225)" stroke="rgb(64,75,180)" stroke-width="1" opacity="0.75" />
			</g>
		</g>
		<g>
			<title> (ctg4_259)</title>
			<polygon class=" (ctg4_259)" points="624,25 579,25 579,10 549,40 579,70 579,55 624,55" fill="rgb(255,255,255)" fill-opacity="1.0" stroke="rgb(0,0,0)" stroke-width="2"  />
			<g>
				<title>TonB_dep_Rec (PF00593)
"TonB dependent receptor"</title>
				<polygon class="PF00593" points="553,40 565,28 596,28 596,52 565,52" stroke-linejoin="round" width="47" height="24" fill="rgb(171,200,51)" stroke="rgb(136,160,40)" stroke-width="1" opacity="0.75" />
			</g>
			<g>
				<title>Plug (PF07715)
"TonB-dependent Receptor Plug Domain"</title>
				<rect class="PF07715" x="606" y="28" stroke-linejoin="round" width="12" height="24" fill="rgb(99,133,214)" stroke="rgb(79,106,171)" stroke-width="1" opacity="0.75" />
			</g>
		</g>
		<g>
			<title> (ctg4_260)</title>
			<polygon class=" (ctg4_260)" points="634,25 646,25 646,10 676,40 646,70 646,55 634,55" fill="rgb(255,255,255)" fill-opacity="1.0" stroke="rgb(0,0,0)" stroke-width="2"  />
			<g>
				<title>Enterochelin_N (PF11806)
"Enterochelin esterase, N-terminal"</title>
				<rect class="PF11806" x="637" y="28" stroke-linejoin="round" width="12" height="24" fill="rgb(49,154,189)" stroke="rgb(39,123,151)" stroke-width="1" opacity="0.75" />
			</g>
			<g>
				<title>Esterase (PF00756)
"Putative esterase"</title>
				<polygon class="PF00756" points="652,28 660,28 672,40 660,52 652,52" stroke-linejoin="round" width="21" height="24" fill="rgb(217,132,77)" stroke="rgb(173,105,61)" stroke-width="1" opacity="0.75" />
			</g>
		</g>
		<g>
			<title> (ctg4_261)</title>
			<polygon class=" (ctg4_261)" points="676,25 775,25 775,10 805,40 775,70 775,55 676,55" fill="rgb(255,255,255)" fill-opacity="1.0" stroke="rgb(0,0,0)" stroke-width="2"  />
			<g>
				<title>Condensation (PF00668)
"Condensation domain"</title>
				<rect class="PF00668" x="676" y="28" stroke-linejoin="round" width="44" height="24" fill="rgb(224,184,98)" stroke="rgb(179,147,78)" stroke-width="1" opacity="0.75" />
			</g>
			<g>
				<title>AMP-binding (PF00501)
"AMP-binding enzyme"</title>
				<rect class="PF00501" x="722" y="28" stroke-linejoin="round" width="40" height="24" fill="rgb(60,217,223)" stroke="rgb(48,173,178)" stroke-width="1" opacity="0.75" />
			</g>
			<g>
				<title>AMP-binding_C (PF13193)
"AMP-binding enzyme C-terminal domain"</title>
				<rect class="PF13193" x="763" y="28" stroke-linejoin="round" width="7" height="24" fill="rgb(182,50,118)" stroke="rgb(145,39,94)" stroke-width="1" opacity="0.75" />
			</g>
			<g>
				<title>PP-binding (PF00550)
"Phosphopantetheine attachment site"</title>
				<rect class="PF00550" x="773" y="28" stroke-linejoin="round" width="6" height="24" fill="rgb(103,191,88)" stroke="rgb(82,152,70)" stroke-width="1" opacity="0.75" />
			</g>
			<g>
				<title>Thioesterase (PF00975)
"Thioesterase domain"</title>
				<polygon class="PF00975" points="782,28 789,28 801,40 789,52 782,52" stroke-linejoin="round" width="22" height="24" fill="rgb(207,80,138)" stroke="rgb(165,63,110)" stroke-width="1" opacity="0.75" />
			</g>
		</g>
		<g>
			<title> (ctg4_262)</title>
			<polygon class=" (ctg4_262)" points="808,40 834,10 834,70" fill="rgb(255,255,255)" fill-opacity="1.0" stroke="rgb(0,0,0)" stroke-width="2"  />
			<g>
				<title>ABC_tran (PF00005)
"ABC transporter"</title>
				<polygon class="PF00005" points="817,34 823,28 831,28 831,52 823,52 817,46" stroke-linejoin="round" width="14" height="24" fill="rgb(129,201,63)" stroke="rgb(103,160,50)" stroke-width="1" opacity="0.75" />
			</g>
		</g>
		<g>
			<title> (ctg4_263)</title>
			<polygon class=" (ctg4_263)" points="867,25 865,25 865,10 835,40 865,70 865,55 867,55" fill="rgb(255,255,255)" fill-opacity="1.0" stroke="rgb(0,0,0)" stroke-width="2"  />
			<g>
				<title>FecCD (PF01032)
"FecCD transport family"</title>
				<polygon class="PF01032" points="839,40 851,28 865,28 865,52 851,52" stroke-linejoin="round" width="30" height="24" fill="rgb(210,177,70)" stroke="rgb(168,141,56)" stroke-width="1" opacity="0.75" />
			</g>
		</g>
		<g>
			<title> (ctg4_264)</title>
			<polygon class=" (ctg4_264)" points="900,25 897,25 897,10 867,40 897,70 897,55 900,55" fill="rgb(255,255,255)" fill-opacity="1.0" stroke="rgb(0,0,0)" stroke-width="2"  />
			<g>
				<title>FecCD (PF01032)
"FecCD transport family"</title>
				<polygon class="PF01032" points="871,40 883,28 897,28 897,52 883,52" stroke-linejoin="round" width="30" height="24" fill="rgb(210,177,70)" stroke="rgb(168,141,56)" stroke-width="1" opacity="0.75" />
			</g>
		</g>
		<g>
			<title> (ctg4_265)</title>
			<polygon class=" (ctg4_265)" points="905,25 916,25 916,10 946,40 916,70 916,55 905,55" fill="rgb(255,255,255)" fill-opacity="1.0" stroke="rgb(0,0,0)" stroke-width="2"  />
			<g>
				<title>MFS_3 (PF05977)
"Transmembrane secretion effector"</title>
				<polygon class="PF05977" points="906,28 930,28 942,40 930,52 906,52" stroke-linejoin="round" width="40" height="24" fill="rgb(80,62,217)" stroke="rgb(64,49,173)" stroke-width="1" opacity="0.75" />
			</g>
		</g>
		<g>
			<title> (ctg4_266)</title>
			<polygon class=" (ctg4_266)" points="979,25 977,25 977,10 947,40 977,70 977,55 979,55" fill="rgb(255,255,255)" fill-opacity="1.0" stroke="rgb(0,0,0)" stroke-width="2"  />
			<g>
				<title>Peripla_BP_2 (PF01497)
"Periplasmic binding protein"</title>
				<polygon class="PF01497" points="951,40 963,28 974,28 974,52 963,52" stroke-linejoin="round" width="25" height="24" fill="rgb(183,226,104)" stroke="rgb(146,180,83)" stroke-width="1" opacity="0.75" />
			</g>
		</g>
		<g>
			<title> (ctg4_267)</title>
			<polygon class=" (ctg4_267)" points="985,25 994,25 994,10 1024,40 994,70 994,55 985,55" fill="rgb(255,255,255)" fill-opacity="1.0" stroke="rgb(0,0,0)" stroke-width="2"  />
			<g>
				<title>Chorismate_bind (PF00425)
"chorismate binding enzyme"</title>
				<polygon class="PF00425" points="997,28 1008,28 1020,40 1008,52 997,52" stroke-linejoin="round" width="25" height="24" fill="rgb(188,116,88)" stroke="rgb(150,92,70)" stroke-width="1" opacity="0.75" />
			</g>
		</g>
		<g>
			<title> (ctg4_268)</title>
			<polygon class=" (ctg4_268)" points="1025,25 1048,25 1048,10 1078,40 1048,70 1048,55 1025,55" fill="rgb(255,255,255)" fill-opacity="1.0" stroke="rgb(0,0,0)" stroke-width="2"  />
			<g>
				<title>AMP-binding (PF00501)
"AMP-binding enzyme"</title>
				<polygon class="PF00501" points="1028,28 1062,28 1068,34 1068,46 1062,52 1028,52" stroke-linejoin="round" width="40" height="24" fill="rgb(60,217,223)" stroke="rgb(48,173,178)" stroke-width="1" opacity="0.75" />
			</g>
			<g>
				<title>AMP-binding_C (PF13193)
"AMP-binding enzyme C-terminal domain"</title>
				<polygon class="PF13193" points="1069,35 1074,40 1069,45" stroke-linejoin="round" width="7" height="24" fill="rgb(182,50,118)" stroke="rgb(145,39,94)" stroke-width="1" opacity="0.75" />
			</g>
		</g>
		<g>
			<title> (ctg4_269)</title>
			<polygon class=" (ctg4_269)" points="1079,10 1107,40 1079,70" fill="rgb(255,255,255)" fill-opacity="1.0" stroke="rgb(0,0,0)" stroke-width="2"  />
			<g>
				<title>Isochorismatase (PF00857)
"Isochorismatase family"</title>
				<polygon class="PF00857" points="1082,28 1091,28 1099,36 1099,44 1091,52 1082,52" stroke-linejoin="round" width="17" height="24" fill="rgb(144,224,70)" stroke="rgb(115,179,56)" stroke-width="1" opacity="0.75" />
			</g>
			<g>
				<title>PP-binding (PF00550)
"Phosphopantetheine attachment site"</title>
				<polygon class="PF00550" points="1100,37 1103,40 1100,43" stroke-linejoin="round" width="6" height="24" fill="rgb(103,191,88)" stroke="rgb(82,152,70)" stroke-width="1" opacity="0.75" />
			</g>
		</g>
		<g>
			<title> (ctg4_270)</title>
			<polygon class=" (ctg4_270)" points="1107,10 1132,40 1107,70" fill="rgb(255,255,255)" fill-opacity="1.0" stroke="rgb(0,0,0)" stroke-width="2"  />
			<g>
				<title>adh_short_C2 (PF13561)
"Enoyl-(Acyl carrier protein) reductase"</title>
				<polygon class="PF13561" points="1108,28 1118,28 1128,40 1118,52 1108,52" stroke-linejoin="round" width="23" height="24" fill="rgb(73,205,127)" stroke="rgb(58,164,101)" stroke-width="1" opacity="0.75" />
			</g>
		</g>
		<g>
			<title> (ctg4_271)</title>
			<polygon class=" (ctg4_271)" points="1133,10 1146,40 1133,70" fill="rgb(255,255,255)" fill-opacity="1.0" stroke="rgb(0,0,0)" stroke-width="2"  />
			<g>
				<title>4HBT (PF03061)
"Thioesterase superfamily"</title>
				<polygon class="PF03061" points="1138,28 1143,40 1138,52" stroke-linejoin="round" width="7" height="24" fill="rgb(143,103,215)" stroke="rgb(114,82,172)" stroke-width="1" opacity="0.75" />
			</g>
		</g>
		<g>
			<title> (ctg4_272)</title>
			<polygon class=" (ctg4_272)" points="1191,25 1182,25 1182,10 1152,40 1182,70 1182,55 1191,55" fill="rgb(255,255,255)" fill-opacity="1.0" stroke="rgb(0,0,0)" stroke-width="2"  />
			<g>
				<title>MMR_HSR1 (PF01926)
"50S ribosome-binding GTPase"</title>
				<polygon class="PF01926" points="1162,34 1168,28 1174,28 1174,52 1168,52 1162,46" stroke-linejoin="round" width="12" height="24" fill="rgb(105,180,226)" stroke="rgb(83,143,180)" stroke-width="1" opacity="0.75" />
			</g>
			<g>
				<title>GTP1_OBG (PF01018)
"GTP1/OBG"</title>
				<rect class="PF01018" x="1175" y="28" stroke-linejoin="round" width="15" height="24" fill="rgb(159,183,68)" stroke="rgb(127,146,54)" stroke-width="1" opacity="0.75" />
			</g>
		</g>
		<g>
			<title> (ctg4_273)</title>
			<polygon class=" (ctg4_273)" points="1200,40 1208,10 1208,70" fill="rgb(255,255,255)" fill-opacity="1.0" stroke="rgb(0,0,0)" stroke-width="2"  />
			<g>
				<title>Ribosomal_L27 (PF01016)
"Ribosomal L27 protein"</title>
				<polygon class="PF01016" points="1203,40 1206,28 1208,28 1208,52 1206,52" stroke-linejoin="round" width="8" height="24" fill="rgb(108,228,174)" stroke="rgb(86,182,139)" stroke-width="1" opacity="0.75" />
			</g>
		</g>
		<g>
			<title> (ctg4_274)</title>
			<polygon class=" (ctg4_274)" points="1209,40 1219,10 1219,70" fill="rgb(255,255,255)" fill-opacity="1.0" stroke="rgb(0,0,0)" stroke-width="2"  />
			<g>
				<title>Ribosomal_L21p (PF00829)
"Ribosomal prokaryotic L21 protein"</title>
				<polygon class="PF00829" points="1212,40 1216,28 1219,28 1219,52 1216,52" stroke-linejoin="round" width="10" height="24" fill="rgb(211,146,57)" stroke="rgb(168,116,45)" stroke-width="1" opacity="0.75" />
			</g>
		</g>
		<g>
			<title> (ctg4_275)</title>
			<polygon class=" (ctg4_275)" points="1228,25 1230,25 1230,10 1260,40 1230,70 1230,55 1228,55" fill="rgb(255,255,255)" fill-opacity="1.0" stroke="rgb(0,0,0)" stroke-width="2"  />
			<g>
				<title>polyprenyl_synt (PF00348)
"Polyprenyl synthetase"</title>
				<polygon class="PF00348" points="1230,28 1244,28 1254,38 1254,42 1244,52 1230,52" stroke-linejoin="round" width="24" height="24" fill="rgb(61,206,65)" stroke="rgb(48,164,52)" stroke-width="1" opacity="0.75" />
			</g>
		</g>
		<g>
			<title> (ctg4_276)</title>
			<polygon class=" (ctg4_276)" points="1268,10 1277,40 1268,70" fill="rgb(255,255,255)" fill-opacity="1.0" stroke="rgb(0,0,0)" stroke-width="2"  />
			<g>
				<title>HTH_35 (PF13693)
"Winged helix-turn-helix DNA-binding"</title>
				<polygon class="PF13693" points="1268,28 1270,28 1274,40 1270,52 1268,52" stroke-linejoin="round" width="7" height="24" fill="rgb(196,88,166)" stroke="rgb(156,70,132)" stroke-width="1" opacity="0.75" />
			</g>
		</g>
		<g>
			<title> (ctg4_277)</title>
			<polygon class=" (ctg4_277)" points="1322,25 1310,25 1310,10 1280,40 1310,70 1310,55 1322,55" fill="rgb(255,255,255)" fill-opacity="1.0" stroke="rgb(0,0,0)" stroke-width="2"  />
			<g>
				<title>EPSP_synthase (PF00275)
"EPSP synthase (3-phosphoshikimate 1-carboxyvinyltransferase)"</title>
				<polygon class="PF00275" points="1284,40 1296,28 1321,28 1321,52 1296,52" stroke-linejoin="round" width="40" height="24" fill="rgb(217,213,85)" stroke="rgb(173,170,68)" stroke-width="1" opacity="0.75" />
			</g>
		</g>
		<g>
			<title> (ctg4_278)</title>
			<polygon class=" (ctg4_278)" points="1324,40 1331,10 1331,70" fill="rgb(255,255,255)" fill-opacity="1.0" stroke="rgb(0,0,0)" stroke-width="2"  />
			<g>
				<title>BolA (PF01722)
"BolA-like protein"</title>
				<polygon class="PF01722" points="1327,40 1330,28 1331,28 1331,52 1330,52" stroke-linejoin="round" width="6" height="24" fill="rgb(60,203,119)" stroke="rgb(47,162,95)" stroke-width="1" opacity="0.75" />
			</g>
		</g>
		<g>
			<title> (ctg4_279)</title>
			<polygon class=" (ctg4_279)" points="1336,40 1346,10 1346,70" fill="rgb(255,255,255)" fill-opacity="1.0" stroke="rgb(0,0,0)" stroke-width="2"  />
			<g>
				<title>STAS_2 (PF13466)
"STAS domain"</title>
				<polygon class="PF13466" points="1339,40 1343,28 1344,28 1344,52 1343,52" stroke-linejoin="round" width="7" height="24" fill="rgb(206,83,63)" stroke="rgb(164,66,50)" stroke-width="1" opacity="0.75" />
			</g>
		</g>
		<g>
			<title> (ctg4_280)</title>
			<polygon class=" (ctg4_280)" points="1346,40 1367,10 1367,70" fill="rgb(255,255,255)" fill-opacity="1.0" stroke="rgb(0,0,0)" stroke-width="2"  />
			<g>
				<title>MlaC (PF05494)
"MlaC protein"</title>
				<polygon class="PF05494" points="1350,40 1359,28 1363,28 1363,52 1359,52" stroke-linejoin="round" width="16" height="24" fill="rgb(147,194,90)" stroke="rgb(117,155,72)" stroke-width="1" opacity="0.75" />
			</g>
		</g>
		<g>
			<title> (ctg4_281)</title>
			<polygon class=" (ctg4_281)" points="1368,40 1386,10 1386,70" fill="rgb(255,255,255)" fill-opacity="1.0" stroke="rgb(0,0,0)" stroke-width="2"  />
			<g>
				<title>MlaD (PF02470)
"MlaD protein"</title>
				<polygon class="PF02470" points="1374,37 1379,28 1382,28 1382,52 1379,52 1374,43" stroke-linejoin="round" width="8" height="24" fill="rgb(219,201,73)" stroke="rgb(175,160,58)" stroke-width="1" opacity="0.75" />
			</g>
		</g>
		<g>
			<title> (ctg4_282)</title>
			<polygon class=" (ctg4_282)" points="1386,40 1412,10 1412,70" fill="rgb(255,255,255)" fill-opacity="1.0" stroke="rgb(0,0,0)" stroke-width="2"  />
			<g>
				<title>MlaE (PF02405)
"Permease MlaE"</title>
				<polygon class="PF02405" points="1390,40 1400,28 1407,28 1407,52 1400,52" stroke-linejoin="round" width="21" height="24" fill="rgb(56,97,187)" stroke="rgb(44,77,149)" stroke-width="1" opacity="0.75" />
			</g>
		</g>
		<g>
			<title> (ctg4_283)</title>
			<polygon class=" (ctg4_283)" points="1413,40 1440,10 1440,70" fill="rgb(255,255,255)" fill-opacity="1.0" stroke="rgb(0,0,0)" stroke-width="2"  />
			<g>
				<title>ABC_tran (PF00005)
"ABC transporter"</title>
				<polygon class="PF00005" points="1422,34 1428,28 1436,28 1436,52 1428,52 1422,46" stroke-linejoin="round" width="14" height="24" fill="rgb(129,201,63)" stroke="rgb(103,160,50)" stroke-width="1" opacity="0.75" />
			</g>
		</g>
		<g>
			<title> (ctg4_284)</title>
			<polygon class=" (ctg4_284)" points="1447,25 1449,25 1449,10 1479,40 1449,70 1449,55 1447,55" fill="rgb(255,255,255)" fill-opacity="1.0" stroke="rgb(0,0,0)" stroke-width="2"  />
			<g>
				<title>Na_Ca_ex (PF01699)
"Sodium/calcium exchanger protein"</title>
				<rect class="PF01699" x="1447" y="28" stroke-linejoin="round" width="14" height="24" fill="rgb(64,189,136)" stroke="rgb(51,151,108)" stroke-width="1" opacity="0.75" />
			</g>
			<g>
				<title>Na_Ca_ex (PF01699)
"Sodium/calcium exchanger protein"</title>
				<polygon class="PF01699" points="1464,29 1475,40 1464,51" stroke-linejoin="round" width="14" height="24" fill="rgb(64,189,136)" stroke="rgb(51,151,108)" stroke-width="1" opacity="0.75" />
			</g>
		</g>
		<g>
			<title> (ctg4_285)</title>
			<polygon class=" (ctg4_285)" points="1481,25 1483,25 1483,10 1513,40 1483,70 1483,55 1481,55" fill="rgb(255,255,255)" fill-opacity="1.0" stroke="rgb(0,0,0)" stroke-width="2"  />
			<g>
				<title>SIS (PF01380)
"SIS domain"</title>
				<polygon class="PF01380" points="1485,28 1497,28 1498,29 1498,51 1497,52 1485,52" stroke-linejoin="round" width="13" height="24" fill="rgb(212,106,227)" stroke="rgb(169,84,181)" stroke-width="1" opacity="0.75" />
			</g>
			<g>
				<title>CBS (PF00571)
"CBS domain"</title>
				<polygon class="PF00571" points="1501,32 1506,37 1506,43 1501,48" stroke-linejoin="round" width="5" height="24" fill="rgb(220,56,105)" stroke="rgb(176,44,84)" stroke-width="1" opacity="0.75" />
			</g>
			<g>
				<title>CBS (PF00571)
"CBS domain"</title>
				<polygon class="PF00571" points="1508,39 1509,40 1508,41" stroke-linejoin="round" width="5" height="24" fill="rgb(220,56,105)" stroke="rgb(176,44,84)" stroke-width="1" opacity="0.75" />
			</g>
		</g>
		<g>
			<title> (ctg4_286)</title>
			<polygon class=" (ctg4_286)" points="1514,10 1532,40 1514,70" fill="rgb(255,255,255)" fill-opacity="1.0" stroke="rgb(0,0,0)" stroke-width="2"  />
			<g>
				<title>Hydrolase_3 (PF08282)
"haloacid dehalogenase-like hydrolase"</title>
				<polygon class="PF08282" points="1522,29 1529,40 1522,51" stroke-linejoin="round" width="8" height="24" fill="rgb(195,74,128)" stroke="rgb(156,59,102)" stroke-width="1" opacity="0.75" />
			</g>
		</g>
		<g>
			<title> (ctg4_287)</title>
			<polygon class=" (ctg4_287)" points="1532,10 1551,40 1532,70" fill="rgb(255,255,255)" fill-opacity="1.0" stroke="rgb(0,0,0)" stroke-width="2"  />
			<g>
				<title>LptC (PF06835)
"Lipopolysaccharide-assembly, LptC-related"</title>
				<polygon class="PF06835" points="1533,28 1539,28 1547,40 1539,52 1533,52" stroke-linejoin="round" width="17" height="24" fill="rgb(66,154,188)" stroke="rgb(52,123,150)" stroke-width="1" opacity="0.75" />
			</g>
		</g>
		<g>
			<title> (ctg4_288)</title>
			<polygon class=" (ctg4_288)" points="1551,10 1569,40 1551,70" fill="rgb(255,255,255)" fill-opacity="1.0" stroke="rgb(0,0,0)" stroke-width="2"  />
			<g>
				<title>LptD_N (PF03968)
"LptA/(LptD N-terminal domain) LPS transport protein"</title>
				<polygon class="PF03968" points="1554,28 1558,28 1565,39 1565,41 1558,52 1554,52" stroke-linejoin="round" width="11" height="24" fill="rgb(211,76,126)" stroke="rgb(168,60,100)" stroke-width="1" opacity="0.75" />
			</g>
		</g>
		<g>
			<title> (ctg4_289)</title>
			<polygon class=" (ctg4_289)" points="1569,10 1593,40 1569,70" fill="rgb(255,255,255)" fill-opacity="1.0" stroke="rgb(0,0,0)" stroke-width="2"  />
			<g>
				<title>ABC_tran (PF00005)
"ABC transporter"</title>
				<polygon class="PF00005" points="1570,28 1580,28 1584,34 1584,46 1580,52 1570,52" stroke-linejoin="round" width="14" height="24" fill="rgb(129,201,63)" stroke="rgb(103,160,50)" stroke-width="1" opacity="0.75" />
			</g>
			<g>
				<title>BCA_ABC_TP_C (PF12399)
"Branched-chain amino acid ATP-binding cassette transporter"</title>
				<polygon class="PF12399" points="1590,40 1589,40 1590,40" stroke-linejoin="round" width="2" height="24" fill="rgb(205,68,53)" stroke="rgb(164,54,42)" stroke-width="1" opacity="0.75" />
			</g>
		</g>
		<g>
			<title> (ctg4_290)</title>
			<polygon class=" (ctg4_290)" points="1595,25 1612,25 1612,10 1642,40 1612,70 1612,55 1595,55" fill="rgb(255,255,255)" fill-opacity="1.0" stroke="rgb(0,0,0)" stroke-width="2"  />
			<g>
				<title>Sigma54_AID (PF00309)
"Sigma-54 factor, Activator interacting domain (AID)"</title>
				<rect class="PF00309" x="1595" y="28" stroke-linejoin="round" width="4" height="24" fill="rgb(182,65,158)" stroke="rgb(145,52,126)" stroke-width="1" opacity="0.75" />
			</g>
			<g>
				<title>Sigma54_CBD (PF04963)
"Sigma-54 factor, core binding domain"</title>
				<rect class="PF04963" x="1606" y="28" stroke-linejoin="round" width="19" height="24" fill="rgb(157,66,219)" stroke="rgb(125,52,175)" stroke-width="1" opacity="0.75" />
			</g>
			<g>
				<title>Sigma54_DBD (PF04552)
"Sigma-54, DNA binding domain"</title>
				<polygon class="PF04552" points="1626,28 1626,28 1638,40 1626,52 1626,52" stroke-linejoin="round" width="15" height="24" fill="rgb(196,204,61)" stroke="rgb(156,163,48)" stroke-width="1" opacity="0.75" />
			</g>
		</g>
		<g>
			<title> (ctg4_291)</title>
			<polygon class=" (ctg4_291)" points="1644,10 1653,40 1644,70" fill="rgb(255,255,255)" fill-opacity="1.0" stroke="rgb(0,0,0)" stroke-width="2"  />
			<g>
				<title>Ribosomal_S30AE (PF02482)
"Sigma 54 modulation protein / S30EA ribosomal protein"</title>
				<polygon class="PF02482" points="1644,28 1646,28 1650,40 1646,52 1644,52" stroke-linejoin="round" width="9" height="24" fill="rgb(104,228,126)" stroke="rgb(83,182,100)" stroke-width="1" opacity="0.75" />
			</g>
		</g>
		<g>
			<title> (ctg4_292)</title>
			<polygon class=" (ctg4_292)" points="1655,10 1675,40 1655,70" fill="rgb(255,255,255)" fill-opacity="1.0" stroke="rgb(0,0,0)" stroke-width="2"  />
			<g>
				<title>PTS_EIIA_2 (PF00359)
"Phosphoenolpyruvate-dependent sugar phosphotransferase system, EIIA 2"</title>
				<polygon class="PF00359" points="1660,28 1663,28 1671,40 1663,52 1660,52" stroke-linejoin="round" width="14" height="24" fill="rgb(115,83,186)" stroke="rgb(91,66,148)" stroke-width="1" opacity="0.75" />
			</g>
		</g>
		<g>
			<title> (ctg4_293)</title>
			<polygon class=" (ctg4_293)" points="1677,10 1705,40 1677,70" fill="rgb(255,255,255)" fill-opacity="1.0" stroke="rgb(0,0,0)" stroke-width="2"  />
			<g>
				<title>ATP_bind_2 (PF03668)
"P-loop ATPase protein family"</title>
				<polygon class="PF03668" points="1677,28 1689,28 1701,40 1689,52 1677,52" stroke-linejoin="round" width="28" height="24" fill="rgb(183,184,73)" stroke="rgb(146,147,58)" stroke-width="1" opacity="0.75" />
			</g>
		</g>
		<g>
			<title> (ctg4_294)</title>
			<polygon class=" (ctg4_294)" points="1705,10 1714,40 1705,70" fill="rgb(255,255,255)" fill-opacity="1.0" stroke="rgb(0,0,0)" stroke-width="2"  />
			<g>
				<title>PTS-HPr (PF00381)
"PTS HPr component phosphorylation site"</title>
				<polygon class="PF00381" points="1705,28 1706,28 1710,40 1706,52 1705,52" stroke-linejoin="round" width="8" height="24" fill="rgb(207,89,139)" stroke="rgb(165,71,111)" stroke-width="1" opacity="0.75" />
			</g>
		</g>
		<g>
			<title> (ctg4_295)</title>
			<polygon class=" (ctg4_295)" points="1714,40 1738,10 1738,70" fill="rgb(255,255,255)" fill-opacity="1.0" stroke="rgb(0,0,0)" stroke-width="2"  />
			<g>
				<title>Transgly (PF00912)
"Transglycosylase"</title>
				<polygon class="PF00912" points="1718,40 1728,28 1732,28 1732,52 1728,52" stroke-linejoin="round" width="17" height="24" fill="rgb(172,107,216)" stroke="rgb(137,85,172)" stroke-width="1" opacity="0.75" />
			</g>
		</g>
	</g>
</svg>
