<svg version="1.1" baseProfile="full" xmlns="http://www.w3.org/2000/svg" width="1472.7333333333333" height="80">
	<g>
		<line x1="10" y1="40.0" x2="1462.7333333333333" y2="40.0" style="stroke:rgb(70,70,70); stroke-width:3 "/>
		<g>
			<title> (ctg6_87)</title>
			<polygon class=" (ctg6_87)" points="17,25 19,25 19,10 49,40 19,70 19,55 17,55" fill="rgb(255,255,255)" fill-opacity="1.0" stroke="rgb(0,0,0)" stroke-width="2"  />
			<g>
				<title>AA_kinase (PF00696)
"Amino acid kinase family"</title>
				<polygon class="PF00696" points="17,28 32,28 44,40 32,52 17,52" stroke-linejoin="round" width="29" height="24" fill="rgb(148,78,224)" stroke="rgb(118,62,179)" stroke-width="1" opacity="0.75" />
			</g>
		</g>
		<g>
			<title> (ctg6_88)</title>
			<polygon class=" (ctg6_88)" points="55,10 78,40 55,70" fill="rgb(255,255,255)" fill-opacity="1.0" stroke="rgb(0,0,0)" stroke-width="2"  />
			<g>
				<title>cNMP_binding (PF00027)
"Cyclic nucleotide-binding domain"</title>
				<polygon class="PF00027" points="58,28 65,28 66,30 66,50 65,52 58,52" stroke-linejoin="round" width="8" height="24" fill="rgb(138,95,204)" stroke="rgb(110,76,163)" stroke-width="1" opacity="0.75" />
			</g>
			<g>
				<title>HTH_Crp_2 (PF13545)
"Crp-like helix-turn-helix domain"</title>
				<polygon class="PF13545" points="70,35 74,40 70,45" stroke-linejoin="round" width="7" height="24" fill="rgb(87,137,202)" stroke="rgb(69,109,161)" stroke-width="1" opacity="0.75" />
			</g>
		</g>
		<g>
			<title> (ctg6_89)</title>
			<polygon class=" (ctg6_89)" points="84,10 106,40 84,70" fill="rgb(255,255,255)" fill-opacity="1.0" stroke="rgb(0,0,0)" stroke-width="2"  />
		</g>
		<g>
			<title> (ctg6_90)</title>
			<polygon class=" (ctg6_90)" points="155,25 141,25 141,10 111,40 141,70 141,55 155,55" fill="rgb(255,255,255)" fill-opacity="1.0" stroke="rgb(0,0,0)" stroke-width="2"  />
			<g>
				<title>BBE (PF08031)
"Berberine and berberine like"</title>
				<polygon class="PF08031" points="115,40 115,40 115,40" stroke-linejoin="round" width="4" height="24" fill="rgb(210,73,83)" stroke="rgb(168,58,66)" stroke-width="1" opacity="0.75" />
			</g>
			<g>
				<title>FAD_binding_4 (PF01565)
"FAD binding domain"</title>
				<rect class="PF01565" x="139" y="28" stroke-linejoin="round" width="13" height="24" fill="rgb(226,88,136)" stroke="rgb(180,70,108)" stroke-width="1" opacity="0.75" />
			</g>
		</g>
		<g>
			<title> (ctg6_91)</title>
			<polygon class=" (ctg6_91)" points="163,25 188,25 188,10 218,40 188,70 188,55 163,55" fill="rgb(255,255,255)" fill-opacity="1.0" stroke="rgb(0,0,0)" stroke-width="2"  />
			<g>
				<title>Alpha-amylase (PF00128)
"Alpha amylase, catalytic domain"</title>
				<rect class="PF00128" x="165" y="28" stroke-linejoin="round" width="35" height="24" fill="rgb(72,189,149)" stroke="rgb(57,151,119)" stroke-width="1" opacity="0.75" />
			</g>
			<g>
				<title>Malt_amylase_C (PF16657)
"Maltogenic Amylase, C-terminal domain"</title>
				<polygon class="PF16657" points="210,36 214,40 210,44" stroke-linejoin="round" width="7" height="24" fill="rgb(112,65,207)" stroke="rgb(89,51,165)" stroke-width="1" opacity="0.75" />
			</g>
		</g>
		<g>
			<title> (ctg6_92)</title>
			<polygon class=" (ctg6_92)" points="226,25 250,25 250,10 280,40 250,70 250,55 226,55" fill="rgb(255,255,255)" fill-opacity="1.0" stroke="rgb(0,0,0)" stroke-width="2"  />
			<g>
				<title>PTS_EIIC (PF02378)
"Phosphotransferase system, EIIC"</title>
				<rect class="PF02378" x="227" y="28" stroke-linejoin="round" width="36" height="24" fill="rgb(73,199,212)" stroke="rgb(58,159,169)" stroke-width="1" opacity="0.75" />
			</g>
			<g>
				<title>PTS_EIIB (PF00367)
"phosphotransferase system, EIIB"</title>
				<polygon class="PF00367" points="273,37 276,40 276,40 273,43" stroke-linejoin="round" width="3" height="24" fill="rgb(188,77,92)" stroke="rgb(150,61,73)" stroke-width="1" opacity="0.75" />
			</g>
		</g>
		<g>
			<title> (ctg6_93)</title>
			<polygon class=" (ctg6_93)" points="280,10 306,40 280,70" fill="rgb(255,255,255)" fill-opacity="1.0" stroke="rgb(0,0,0)" stroke-width="2"  />
			<g>
				<title>Exo_endo_phos (PF03372)
"Endonuclease/Exonuclease/phosphatase family"</title>
				<polygon class="PF03372" points="280,28 292,28 302,40 292,52 280,52" stroke-linejoin="round" width="24" height="24" fill="rgb(76,66,180)" stroke="rgb(60,52,144)" stroke-width="1" opacity="0.75" />
			</g>
		</g>
		<g>
			<title> (ctg6_94)</title>
			<polygon class=" (ctg6_94)" points="317,25 382,25 382,10 412,40 382,70 382,55 317,55" fill="rgb(255,255,255)" fill-opacity="1.0" stroke="rgb(0,0,0)" stroke-width="2"  />
			<g>
				<title>ABC2_membrane_3 (PF12698)
"ABC-2 family transporter protein"</title>
				<rect class="PF12698" x="318" y="28" stroke-linejoin="round" width="19" height="24" fill="rgb(151,189,55)" stroke="rgb(120,151,44)" stroke-width="1" opacity="0.75" />
			</g>
			<g>
				<title>ABC2_membrane_3 (PF12698)
"ABC-2 family transporter protein"</title>
				<polygon class="PF12698" points="360,28 396,28 408,40 396,52 360,52" stroke-linejoin="round" width="50" height="24" fill="rgb(151,189,55)" stroke="rgb(120,151,44)" stroke-width="1" opacity="0.75" />
			</g>
		</g>
		<g>
			<title> (ctg6_95)</title>
			<polygon class=" (ctg6_95)" points="487,25 444,25 444,10 414,40 444,70 444,55 487,55" fill="rgb(255,255,255)" fill-opacity="1.0" stroke="rgb(0,0,0)" stroke-width="2"  />
			<g>
				<title>Topoisom_bac (PF01131)
"DNA topoisomerase"</title>
				<polygon class="PF01131" points="428,30 430,28 471,28 471,52 430,52 428,50" stroke-linejoin="round" width="43" height="24" fill="rgb(136,196,98)" stroke="rgb(108,156,78)" stroke-width="1" opacity="0.75" />
			</g>
			<g>
				<title>Toprim (PF01751)
"Toprim domain"</title>
				<rect class="PF01751" x="473" y="28" stroke-linejoin="round" width="13" height="24" fill="rgb(95,212,145)" stroke="rgb(76,169,116)" stroke-width="1" opacity="0.75" />
			</g>
		</g>
		<g>
			<title> (ctg6_96)</title>
			<polygon class=" (ctg6_96)" points="500,10 527,40 500,70" fill="rgb(255,255,255)" fill-opacity="1.0" stroke="rgb(0,0,0)" stroke-width="2"  />
			<g>
				<title>HK (PF02110)
"Hydroxyethylthiazole kinase family"</title>
				<polygon class="PF02110" points="501,28 511,28 522,40 511,52 501,52" stroke-linejoin="round" width="24" height="24" fill="rgb(167,92,213)" stroke="rgb(133,73,170)" stroke-width="1" opacity="0.75" />
			</g>
		</g>
		<g>
			<title> (ctg6_97)</title>
			<polygon class=" (ctg6_97)" points="527,10 549,40 527,70" fill="rgb(255,255,255)" fill-opacity="1.0" stroke="rgb(0,0,0)" stroke-width="2"  />
			<g>
				<title>TMP-TENI (PF02581)
"Thiamine monophosphate synthase"</title>
				<polygon class="PF02581" points="528,28 536,28 545,40 536,52 528,52" stroke-linejoin="round" width="18" height="24" fill="rgb(198,51,163)" stroke="rgb(158,40,130)" stroke-width="1" opacity="0.75" />
			</g>
		</g>
		<g>
			<title> (ctg6_98)</title>
			<polygon class=" (ctg6_98)" points="596,25 583,25 583,10 553,40 583,70 583,55 596,55" fill="rgb(255,255,255)" fill-opacity="1.0" stroke="rgb(0,0,0)" stroke-width="2"  />
			<g>
				<title>DcuA_DcuB (PF03605)
"Anaerobic c4-dicarboxylate membrane transporter"</title>
				<polygon class="PF03605" points="559,38 569,28 595,28 595,52 569,52 559,42" stroke-linejoin="round" width="36" height="24" fill="rgb(183,176,55)" stroke="rgb(146,140,44)" stroke-width="1" opacity="0.75" />
			</g>
		</g>
		<g>
			<title> (ctg6_99)</title>
			<polygon class=" (ctg6_99)" points="614,25 642,25 642,10 672,40 642,70 642,55 614,55" fill="rgb(255,255,255)" fill-opacity="1.0" stroke="rgb(0,0,0)" stroke-width="2"  />
			<g>
				<title>MCPsignal (PF00015)
"Methyl-accepting chemotaxis protein (MCP) signalling domain"</title>
				<polygon class="PF00015" points="648,28 655,28 666,39 666,41 655,52 648,52" stroke-linejoin="round" width="18" height="24" fill="rgb(104,174,223)" stroke="rgb(83,139,178)" stroke-width="1" opacity="0.75" />
			</g>
		</g>
		<g>
			<title> (ctg6_100)</title>
			<polygon class=" (ctg6_100)" points="676,25 765,25 765,10 795,40 765,70 765,55 676,55" fill="rgb(255,255,255)" fill-opacity="1.0" stroke="rgb(0,0,0)" stroke-width="2"  />
			<g>
				<title>AMP-binding (PF00501)
"AMP-binding enzyme"</title>
				<rect class="PF00501" x="698" y="28" stroke-linejoin="round" width="39" height="24" fill="rgb(60,217,223)" stroke="rgb(48,173,178)" stroke-width="1" opacity="0.75" />
			</g>
			<g>
				<title>AMP-binding_C (PF13193)
"AMP-binding enzyme C-terminal domain"</title>
				<rect class="PF13193" x="738" y="28" stroke-linejoin="round" width="7" height="24" fill="rgb(182,50,118)" stroke="rgb(145,39,94)" stroke-width="1" opacity="0.75" />
			</g>
			<g>
				<title>PP-binding (PF00550)
"Phosphopantetheine attachment site"</title>
				<rect class="PF00550" x="749" y="28" stroke-linejoin="round" width="6" height="24" fill="rgb(103,191,88)" stroke="rgb(82,152,70)" stroke-width="1" opacity="0.75" />
			</g>
			<g>
				<title>NAD_binding_4 (PF07993)
"Male sterility protein"</title>
				<polygon class="PF07993" points="759,28 779,28 782,31 782,49 779,52 759,52" stroke-linejoin="round" width="23" height="24" fill="rgb(100,212,204)" stroke="rgb(80,169,163)" stroke-width="1" opacity="0.75" />
			</g>
		</g>
		<g>
			<title> (ctg6_101)</title>
			<polygon class=" (ctg6_101)" points="804,10 814,40 804,70" fill="rgb(255,255,255)" fill-opacity="1.0" stroke="rgb(0,0,0)" stroke-width="2"  />
			<g>
				<title>Thiamine_BP (PF01910)
"Thiamine-binding protein"</title>
				<polygon class="PF01910" points="804,28 806,28 811,40 806,52 804,52" stroke-linejoin="round" width="9" height="24" fill="rgb(201,146,71)" stroke="rgb(160,116,56)" stroke-width="1" opacity="0.75" />
			</g>
		</g>
		<g>
			<title> (ctg6_102)</title>
			<polygon class=" (ctg6_102)" points="814,10 839,40 814,70" fill="rgb(255,255,255)" fill-opacity="1.0" stroke="rgb(0,0,0)" stroke-width="2"  />
			<g>
				<title>BPD_transp_1 (PF00528)
"Binding-protein-dependent transport system inner membrane component"</title>
				<polygon class="PF00528" points="820,28 825,28 835,40 825,52 820,52" stroke-linejoin="round" width="18" height="24" fill="rgb(77,208,225)" stroke="rgb(61,166,180)" stroke-width="1" opacity="0.75" />
			</g>
		</g>
		<g>
			<title> (ctg6_103)</title>
			<polygon class=" (ctg6_103)" points="839,25 842,25 842,10 872,40 842,70 842,55 839,55" fill="rgb(255,255,255)" fill-opacity="1.0" stroke="rgb(0,0,0)" stroke-width="2"  />
			<g>
				<title>NMT1 (PF09084)
"NMT1/THI5 like"</title>
				<polygon class="PF09084" points="843,28 856,28 864,36 864,44 856,52 843,52" stroke-linejoin="round" width="21" height="24" fill="rgb(196,85,209)" stroke="rgb(156,68,167)" stroke-width="1" opacity="0.75" />
			</g>
		</g>
		<g>
			<title> (ctg6_104)</title>
			<polygon class=" (ctg6_104)" points="873,10 898,40 873,70" fill="rgb(255,255,255)" fill-opacity="1.0" stroke="rgb(0,0,0)" stroke-width="2"  />
			<g>
				<title>ABC_tran (PF00005)
"ABC transporter"</title>
				<polygon class="PF00005" points="874,28 884,28 887,32 887,48 884,52 874,52" stroke-linejoin="round" width="13" height="24" fill="rgb(129,201,63)" stroke="rgb(103,160,50)" stroke-width="1" opacity="0.75" />
			</g>
		</g>
		<g>
			<title> (ctg6_105)</title>
			<polygon class=" (ctg6_105)" points="986,25 949,25 949,10 919,40 949,70 949,55 986,55" fill="rgb(255,255,255)" fill-opacity="1.0" stroke="rgb(0,0,0)" stroke-width="2"  />
			<g>
				<title>CBM_2 (PF00553)
"Cellulose binding domain"</title>
				<polygon class="PF00553" points="923,40 928,35 928,45" stroke-linejoin="round" width="9" height="24" fill="rgb(224,89,220)" stroke="rgb(179,71,176)" stroke-width="1" opacity="0.75" />
			</g>
			<g>
				<title>fn3 (PF00041)
"Fibronectin type III domain"</title>
				<polygon class="PF00041" points="930,33 935,28 937,28 937,52 935,52 930,47" stroke-linejoin="round" width="7" height="24" fill="rgb(203,70,135)" stroke="rgb(162,56,107)" stroke-width="1" opacity="0.75" />
			</g>
			<g>
				<title>Glyco_hydro_18 (PF00704)
"Glycosyl hydrolases family 18"</title>
				<rect class="PF00704" x="941" y="28" stroke-linejoin="round" width="41" height="24" fill="rgb(226,95,151)" stroke="rgb(180,76,120)" stroke-width="1" opacity="0.75" />
			</g>
		</g>
		<g>
			<title> (ctg6_106)</title>
			<polygon class=" (ctg6_106)" points="999,10 1011,40 999,70" fill="rgb(255,255,255)" fill-opacity="1.0" stroke="rgb(0,0,0)" stroke-width="2"  />
			<g>
				<title>DJC28_CD (PF09350)
"DnaJ homologue, subfamily C, member 28, conserved domain"</title>
				<polygon class="PF09350" points="999,28 1002,28 1005,33 1005,47 1002,52 999,52" stroke-linejoin="round" width="6" height="24" fill="rgb(178,56,185)" stroke="rgb(142,44,148)" stroke-width="1" opacity="0.75" />
			</g>
		</g>
		<g>
			<title> (ctg6_107)</title>
			<polygon class=" (ctg6_107)" points="1011,10 1021,40 1011,70" fill="rgb(255,255,255)" fill-opacity="1.0" stroke="rgb(0,0,0)" stroke-width="2"  />
			<g>
				<title>Thioredoxin (PF00085)
"Thioredoxin"</title>
				<polygon class="PF00085" points="1011,28 1013,28 1018,40 1013,52 1011,52" stroke-linejoin="round" width="10" height="24" fill="rgb(220,109,180)" stroke="rgb(176,87,144)" stroke-width="1" opacity="0.75" />
			</g>
		</g>
		<g>
			<title> (ctg6_108)</title>
			<polygon class=" (ctg6_108)" points="1022,10 1030,40 1022,70" fill="rgb(255,255,255)" fill-opacity="1.0" stroke="rgb(0,0,0)" stroke-width="2"  />
		</g>
		<g>
			<title> (ctg6_109)</title>
			<polygon class=" (ctg6_109)" points="1028,10 1031,40 1028,70" fill="rgb(255,255,255)" fill-opacity="1.0" stroke="rgb(0,0,0)" stroke-width="2"  />
		</g>
		<g>
			<title> (ctg6_110)</title>
			<polygon class=" (ctg6_110)" points="1035,10 1039,40 1035,70" fill="rgb(255,255,255)" fill-opacity="1.0" stroke="rgb(0,0,0)" stroke-width="2"  />
		</g>
		<g>
			<title> (ctg6_111)</title>
			<polygon class=" (ctg6_111)" points="1042,10 1061,40 1042,70" fill="rgb(255,255,255)" fill-opacity="1.0" stroke="rgb(0,0,0)" stroke-width="2"  />
			<g>
				<title>TetR_N (PF00440)
"Bacterial regulatory proteins, tetR family"</title>
				<rect class="PF00440" x="1043" y="28" stroke-linejoin="round" width="4" height="24" fill="rgb(73,212,190)" stroke="rgb(58,169,152)" stroke-width="1" opacity="0.75" />
			</g>
			<g>
				<title>TetR_C_5 (PF08360)
"QacR-like protein, C-terminal region"</title>
				<polygon class="PF08360" points="1048,28 1050,28 1057,40 1050,52 1048,52" stroke-linejoin="round" width="13" height="24" fill="rgb(57,214,177)" stroke="rgb(45,171,141)" stroke-width="1" opacity="0.75" />
			</g>
		</g>
		<g>
			<title> (ctg6_112)</title>
			<polygon class=" (ctg6_112)" points="1064,25 1075,25 1075,10 1105,40 1075,70 1075,55 1064,55" fill="rgb(255,255,255)" fill-opacity="1.0" stroke="rgb(0,0,0)" stroke-width="2"  />
			<g>
				<title>MFS_3 (PF05977)
"Transmembrane secretion effector"</title>
				<polygon class="PF05977" points="1064,28 1088,28 1100,40 1088,52 1064,52" stroke-linejoin="round" width="40" height="24" fill="rgb(80,62,217)" stroke="rgb(64,49,173)" stroke-width="1" opacity="0.75" />
			</g>
		</g>
		<g>
			<title> (ctg6_113)</title>
			<polygon class=" (ctg6_113)" points="1107,10 1115,40 1107,70" fill="rgb(255,255,255)" fill-opacity="1.0" stroke="rgb(0,0,0)" stroke-width="2"  />
			<g>
				<title>HTH_3 (PF01381)
"Helix-turn-helix"</title>
				<polygon class="PF01381" points="1109,29 1112,40 1109,51" stroke-linejoin="round" width="5" height="24" fill="rgb(105,79,202)" stroke="rgb(83,63,161)" stroke-width="1" opacity="0.75" />
			</g>
		</g>
		<g>
			<title> (ctg6_114)</title>
			<polygon class=" (ctg6_114)" points="1159,25 1147,25 1147,10 1117,40 1147,70 1147,55 1159,55" fill="rgb(255,255,255)" fill-opacity="1.0" stroke="rgb(0,0,0)" stroke-width="2"  />
			<g>
				<title>ATG22 (PF11700)
"Vacuole effluxer Atg22 like"</title>
				<polygon class="PF11700" points="1121,40 1133,28 1159,28 1159,52 1133,52" stroke-linejoin="round" width="41" height="24" fill="rgb(187,76,115)" stroke="rgb(149,60,92)" stroke-width="1" opacity="0.75" />
			</g>
		</g>
		<g>
			<title> (ctg6_115)</title>
			<polygon class=" (ctg6_115)" points="1207,25 1194,25 1194,10 1164,40 1194,70 1194,55 1207,55" fill="rgb(255,255,255)" fill-opacity="1.0" stroke="rgb(0,0,0)" stroke-width="2"  />
			<g>
				<title>Phosphodiest (PF01663)
"Type I phosphodiesterase / nucleotide pyrophosphatase"</title>
				<polygon class="PF01663" points="1169,39 1180,28 1206,28 1206,52 1180,52 1169,41" stroke-linejoin="round" width="37" height="24" fill="rgb(178,65,158)" stroke="rgb(142,52,126)" stroke-width="1" opacity="0.75" />
			</g>
		</g>
		<g>
			<title> (ctg6_116)</title>
			<polygon class=" (ctg6_116)" points="1213,10 1222,40 1213,70" fill="rgb(255,255,255)" fill-opacity="1.0" stroke="rgb(0,0,0)" stroke-width="2"  />
			<g>
				<title>YesK (PF14150)
"YesK-like protein"</title>
				<polygon class="PF14150" points="1214,28 1215,28 1219,40 1215,52 1214,52" stroke-linejoin="round" width="8" height="24" fill="rgb(218,90,177)" stroke="rgb(174,72,141)" stroke-width="1" opacity="0.75" />
			</g>
		</g>
		<g>
			<title> (ctg6_117)</title>
			<polygon class=" (ctg6_117)" points="1234,25 1251,25 1251,10 1281,40 1251,70 1251,55 1234,55" fill="rgb(255,255,255)" fill-opacity="1.0" stroke="rgb(0,0,0)" stroke-width="2"  />
			<g>
				<title>tRNA-synt_2b (PF00587)
"tRNA synthetase class II core domain (G, H, P, S and T)"</title>
				<rect class="PF00587" x="1243" y="28" stroke-linejoin="round" width="17" height="24" fill="rgb(228,96,220)" stroke="rgb(182,76,176)" stroke-width="1" opacity="0.75" />
			</g>
			<g>
				<title>HGTP_anticodon (PF03129)
"Anticodon binding domain"</title>
				<polygon class="PF03129" points="1263,28 1265,28 1272,35 1272,45 1265,52 1263,52" stroke-linejoin="round" width="9" height="24" fill="rgb(115,202,95)" stroke="rgb(92,161,76)" stroke-width="1" opacity="0.75" />
			</g>
			<g>
				<title>ProRS-C_1 (PF09180)
"Prolyl-tRNA synthetase, C-terminal"</title>
				<polygon class="PF09180" points="1274,37 1277,40 1274,43" stroke-linejoin="round" width="6" height="24" fill="rgb(200,70,78)" stroke="rgb(160,56,62)" stroke-width="1" opacity="0.75" />
			</g>
		</g>
		<g>
			<title> (ctg6_118)</title>
			<polygon class=" (ctg6_118)" points="1319,25 1316,25 1316,10 1286,40 1316,70 1316,55 1319,55" fill="rgb(255,255,255)" fill-opacity="1.0" stroke="rgb(0,0,0)" stroke-width="2"  />
			<g>
				<title>Gram_pos_anchor (PF00746)
"LPXTG cell wall anchor motif"</title>
				<polygon class="PF00746" points="1290,40 1290,40 1290,40" stroke-linejoin="round" width="4" height="24" fill="rgb(45,94,179)" stroke="rgb(36,75,143)" stroke-width="1" opacity="0.75" />
			</g>
		</g>
		<g>
			<title> (ctg6_119)</title>
			<polygon class=" (ctg6_119)" points="1326,10 1355,40 1326,70" fill="rgb(255,255,255)" fill-opacity="1.0" stroke="rgb(0,0,0)" stroke-width="2"  />
			<g>
				<title>ROK (PF00480)
"ROK family"</title>
				<polygon class="PF00480" points="1326,28 1339,28 1351,40 1339,52 1326,52" stroke-linejoin="round" width="28" height="24" fill="rgb(205,99,210)" stroke="rgb(163,79,168)" stroke-width="1" opacity="0.75" />
			</g>
		</g>
		<g>
			<title> (ctg6_120)</title>
			<polygon class=" (ctg6_120)" points="1360,10 1379,40 1360,70" fill="rgb(255,255,255)" fill-opacity="1.0" stroke="rgb(0,0,0)" stroke-width="2"  />
			<g>
				<title>TerD (PF02342)
"TerD domain"</title>
				<polygon class="PF02342" points="1360,28 1368,28 1376,40 1368,52 1360,52" stroke-linejoin="round" width="19" height="24" fill="rgb(84,103,187)" stroke="rgb(67,82,149)" stroke-width="1" opacity="0.75" />
			</g>
		</g>
		<g>
			<title> (ctg6_121)</title>
			<polygon class=" (ctg6_121)" points="1380,10 1399,40 1380,70" fill="rgb(255,255,255)" fill-opacity="1.0" stroke="rgb(0,0,0)" stroke-width="2"  />
			<g>
				<title>TerD (PF02342)
"TerD domain"</title>
				<polygon class="PF02342" points="1380,28 1388,28 1395,40 1388,52 1380,52" stroke-linejoin="round" width="18" height="24" fill="rgb(84,103,187)" stroke="rgb(67,82,149)" stroke-width="1" opacity="0.75" />
			</g>
		</g>
		<g>
			<title> (ctg6_122)</title>
			<polygon class=" (ctg6_122)" points="1402,10 1421,40 1402,70" fill="rgb(255,255,255)" fill-opacity="1.0" stroke="rgb(0,0,0)" stroke-width="2"  />
			<g>
				<title>TerD (PF02342)
"TerD domain"</title>
				<polygon class="PF02342" points="1402,28 1410,28 1417,40 1410,52 1402,52" stroke-linejoin="round" width="18" height="24" fill="rgb(84,103,187)" stroke="rgb(67,82,149)" stroke-width="1" opacity="0.75" />
			</g>
		</g>
		<g>
			<title> (ctg6_123)</title>
			<polygon class=" (ctg6_123)" points="1424,10 1450,40 1424,70" fill="rgb(255,255,255)" fill-opacity="1.0" stroke="rgb(0,0,0)" stroke-width="2"  />
			<g>
				<title>TerC (PF03741)
"Integral membrane protein TerC family"</title>
				<polygon class="PF03741" points="1427,28 1436,28 1445,39 1445,41 1436,52 1427,52" stroke-linejoin="round" width="18" height="24" fill="rgb(221,113,97)" stroke="rgb(176,90,77)" stroke-width="1" opacity="0.75" />
			</g>
		</g>
	</g>
</svg>
