<svg version="1.1" baseProfile="full" xmlns="http://www.w3.org/2000/svg" width="1488.5333333333333" height="80">
	<g>
		<line x1="10" y1="40.0" x2="1478.5333333333333" y2="40.0" style="stroke:rgb(70,70,70); stroke-width:3 "/>
		<g>
			<title> (ctg10_37)</title>
			<polygon class=" (ctg10_37)" points="10,40 29,10 29,70" fill="rgb(255,255,255)" fill-opacity="1.0" stroke="rgb(0,0,0)" stroke-width="2"  />
			<g>
				<title>DUF4142 (PF13628)
"Domain of unknown function (DUF4142)"</title>
				<polygon class="PF13628" points="14,40 22,28 23,28 23,52 22,52" stroke-linejoin="round" width="13" height="24" fill="rgb(131,76,193)" stroke="rgb(104,60,154)" stroke-width="1" opacity="0.75" />
			</g>
		</g>
		<g>
			<title> (ctg10_38)</title>
			<polygon class=" (ctg10_38)" points="34,40 42,10 42,70" fill="rgb(255,255,255)" fill-opacity="1.0" stroke="rgb(0,0,0)" stroke-width="2"  />
		</g>
		<g>
			<title> (ctg10_39)</title>
			<polygon class=" (ctg10_39)" points="44,40 53,10 53,70" fill="rgb(255,255,255)" fill-opacity="1.0" stroke="rgb(0,0,0)" stroke-width="2"  />
		</g>
		<g>
			<title> (ctg10_40)</title>
			<polygon class=" (ctg10_40)" points="66,10 71,40 66,70" fill="rgb(255,255,255)" fill-opacity="1.0" stroke="rgb(0,0,0)" stroke-width="2"  />
		</g>
		<g>
			<title> (ctg10_41)</title>
			<polygon class=" (ctg10_41)" points="73,25 79,25 79,10 109,40 79,70 79,55 73,55" fill="rgb(255,255,255)" fill-opacity="1.0" stroke="rgb(0,0,0)" stroke-width="2"  />
			<g>
				<title>DUF3182 (PF11379)
"Protein of unknown function (DUF3182)"</title>
				<polygon class="PF11379" points="74,28 93,28 105,40 93,52 74,52" stroke-linejoin="round" width="35" height="24" fill="rgb(82,65,209)" stroke="rgb(65,52,167)" stroke-width="1" opacity="0.75" />
			</g>
		</g>
		<g>
			<title> (ctg10_42)</title>
			<polygon class=" (ctg10_42)" points="110,10 139,40 110,70" fill="rgb(255,255,255)" fill-opacity="1.0" stroke="rgb(0,0,0)" stroke-width="2"  />
			<g>
				<title>Peptidase_S9 (PF00326)
"Prolyl oligopeptidase family"</title>
				<polygon class="PF00326" points="114,28 122,28 134,40 134,40 122,52 114,52" stroke-linejoin="round" width="20" height="24" fill="rgb(77,97,209)" stroke="rgb(61,77,167)" stroke-width="1" opacity="0.75" />
			</g>
		</g>
		<g>
			<title> (ctg10_43)</title>
			<polygon class=" (ctg10_43)" points="143,10 153,40 143,70" fill="rgb(255,255,255)" fill-opacity="1.0" stroke="rgb(0,0,0)" stroke-width="2"  />
		</g>
		<g>
			<title> (ctg10_44)</title>
			<polygon class=" (ctg10_44)" points="158,40 185,10 185,70" fill="rgb(255,255,255)" fill-opacity="1.0" stroke="rgb(0,0,0)" stroke-width="2"  />
		</g>
		<g>
			<title> (ctg10_45)</title>
			<polygon class=" (ctg10_45)" points="192,40 213,10 213,70" fill="rgb(255,255,255)" fill-opacity="1.0" stroke="rgb(0,0,0)" stroke-width="2"  />
			<g>
				<title>TetR_N (PF00440)
"Bacterial regulatory proteins, tetR family"</title>
				<rect class="PF00440" x="206" y="28" stroke-linejoin="round" width="4" height="24" fill="rgb(73,212,190)" stroke="rgb(58,169,152)" stroke-width="1" opacity="0.75" />
			</g>
		</g>
		<g>
			<title> (ctg10_46)</title>
			<polygon class=" (ctg10_46)" points="217,25 222,25 222,10 252,40 222,70 222,55 217,55" fill="rgb(255,255,255)" fill-opacity="1.0" stroke="rgb(0,0,0)" stroke-width="2"  />
			<g>
				<title>FAD_binding_6 (PF00970)
"Oxidoreductase FAD-binding domain"</title>
				<rect class="PF00970" x="221" y="28" stroke-linejoin="round" width="9" height="24" fill="rgb(212,194,103)" stroke="rgb(169,155,82)" stroke-width="1" opacity="0.75" />
			</g>
			<g>
				<title>NAD_binding_1 (PF00175)
"Oxidoreductase NAD-binding domain"</title>
				<polygon class="PF00175" points="231,28 236,28 241,33 241,47 236,52 231,52" stroke-linejoin="round" width="10" height="24" fill="rgb(177,211,96)" stroke="rgb(141,168,76)" stroke-width="1" opacity="0.75" />
			</g>
			<g>
				<title>Fer2 (PF00111)
"2Fe-2S iron-sulfur cluster binding domain"</title>
				<polygon class="PF00111" points="244,36 248,40 244,44" stroke-linejoin="round" width="7" height="24" fill="rgb(60,59,191)" stroke="rgb(48,47,152)" stroke-width="1" opacity="0.75" />
			</g>
		</g>
		<g>
			<title> (ctg10_47)</title>
			<polygon class=" (ctg10_47)" points="253,25 260,25 260,10 290,40 260,70 260,55 253,55" fill="rgb(255,255,255)" fill-opacity="1.0" stroke="rgb(0,0,0)" stroke-width="2"  />
			<g>
				<title>FA_desaturase (PF00487)
"Fatty acid desaturase"</title>
				<polygon class="PF00487" points="259,28 274,28 286,40 286,40 274,52 259,52" stroke-linejoin="round" width="27" height="24" fill="rgb(104,51,205)" stroke="rgb(83,40,164)" stroke-width="1" opacity="0.75" />
			</g>
		</g>
		<g>
			<title> (ctg10_48)</title>
			<polygon class=" (ctg10_48)" points="343,25 321,25 321,10 291,40 321,70 321,55 343,55" fill="rgb(255,255,255)" fill-opacity="1.0" stroke="rgb(0,0,0)" stroke-width="2"  />
			<g>
				<title>EAL (PF00563)
"EAL domain"</title>
				<polygon class="PF00563" points="295,40 307,28 316,28 316,52 307,52" stroke-linejoin="round" width="23" height="24" fill="rgb(204,100,120)" stroke="rgb(163,80,96)" stroke-width="1" opacity="0.75" />
			</g>
			<g>
				<title>CSS-motif (PF12792)
"CSS motif domain associated with EAL"</title>
				<rect class="PF12792" x="321" y="28" stroke-linejoin="round" width="18" height="24" fill="rgb(126,95,216)" stroke="rgb(100,76,172)" stroke-width="1" opacity="0.75" />
			</g>
		</g>
		<g>
			<title> (ctg10_49)</title>
			<polygon class=" (ctg10_49)" points="356,10 371,40 356,70" fill="rgb(255,255,255)" fill-opacity="1.0" stroke="rgb(0,0,0)" stroke-width="2"  />
		</g>
		<g>
			<title> (ctg10_50)</title>
			<polygon class=" (ctg10_50)" points="378,10 383,40 378,70" fill="rgb(255,255,255)" fill-opacity="1.0" stroke="rgb(0,0,0)" stroke-width="2"  />
		</g>
		<g>
			<title> (ctg10_51)</title>
			<polygon class=" (ctg10_51)" points="394,40 410,10 410,70" fill="rgb(255,255,255)" fill-opacity="1.0" stroke="rgb(0,0,0)" stroke-width="2"  />
			<g>
				<title>Lipocalin_2 (PF08212)
"Lipocalin-like domain"</title>
				<polygon class="PF08212" points="397,40 404,28 409,28 409,52 404,52" stroke-linejoin="round" width="14" height="24" fill="rgb(196,221,96)" stroke="rgb(156,176,76)" stroke-width="1" opacity="0.75" />
			</g>
		</g>
		<g>
			<title> (ctg10_52)</title>
			<polygon class=" (ctg10_52)" points="472,25 452,25 452,10 422,40 452,70 452,55 472,55" fill="rgb(255,255,255)" fill-opacity="1.0" stroke="rgb(0,0,0)" stroke-width="2"  />
			<g>
				<title>Mg_chelatase_C (PF13335)
"Magnesium chelatase, subunit ChlI C-terminal"</title>
				<polygon class="PF13335" points="426,40 432,34 432,46" stroke-linejoin="round" width="9" height="24" fill="rgb(224,211,78)" stroke="rgb(179,168,62)" stroke-width="1" opacity="0.75" />
			</g>
			<g>
				<title>Mg_chelatase (PF01078)
"Magnesium chelatase, subunit ChlI"</title>
				<polygon class="PF01078" points="433,33 438,28 453,28 453,52 438,52 433,47" stroke-linejoin="round" width="20" height="24" fill="rgb(199,220,103)" stroke="rgb(159,176,82)" stroke-width="1" opacity="0.75" />
			</g>
			<g>
				<title>ChlI (PF13541)
"Subunit ChlI of Mg-chelatase"</title>
				<rect class="PF13541" x="458" y="28" stroke-linejoin="round" width="12" height="24" fill="rgb(192,77,61)" stroke="rgb(153,61,48)" stroke-width="1" opacity="0.75" />
			</g>
		</g>
		<g>
			<title> (ctg10_53)</title>
			<polygon class=" (ctg10_53)" points="472,40 480,10 480,70" fill="rgb(255,255,255)" fill-opacity="1.0" stroke="rgb(0,0,0)" stroke-width="2"  />
			<g>
				<title>BMFP (PF04380)
"Membrane fusogenic activity"</title>
				<polygon class="PF04380" points="475,40 479,28 480,28 480,52 479,52" stroke-linejoin="round" width="7" height="24" fill="rgb(126,210,99)" stroke="rgb(100,168,79)" stroke-width="1" opacity="0.75" />
			</g>
		</g>
		<g>
			<title> (ctg10_54)</title>
			<polygon class=" (ctg10_54)" points="487,10 498,40 487,70" fill="rgb(255,255,255)" fill-opacity="1.0" stroke="rgb(0,0,0)" stroke-width="2"  />
			<g>
				<title>P-II (PF00543)
"Nitrogen regulatory protein P-II"</title>
				<polygon class="PF00543" points="487,28 490,28 495,40 490,52 487,52" stroke-linejoin="round" width="10" height="24" fill="rgb(128,203,86)" stroke="rgb(102,162,68)" stroke-width="1" opacity="0.75" />
			</g>
		</g>
		<g>
			<title> (ctg10_55)</title>
			<polygon class=" (ctg10_55)" points="503,40 524,10 524,70" fill="rgb(255,255,255)" fill-opacity="1.0" stroke="rgb(0,0,0)" stroke-width="2"  />
			<g>
				<title>RIO1 (PF01163)
"RIO1 family"</title>
				<polygon class="PF01163" points="507,40 516,28 519,28 519,52 516,52" stroke-linejoin="round" width="14" height="24" fill="rgb(101,199,84)" stroke="rgb(80,159,67)" stroke-width="1" opacity="0.75" />
			</g>
		</g>
		<g>
			<title> (ctg10_56)</title>
			<polygon class=" (ctg10_56)" points="540,40 568,10 568,70" fill="rgb(255,255,255)" fill-opacity="1.0" stroke="rgb(0,0,0)" stroke-width="2"  />
			<g>
				<title>Spermine_synth (PF01564)
"Spermine/spermidine synthase domain"</title>
				<polygon class="PF01564" points="544,40 555,28 561,28 561,52 555,52" stroke-linejoin="round" width="18" height="24" fill="rgb(221,99,146)" stroke="rgb(176,79,116)" stroke-width="1" opacity="0.75" />
			</g>
			<g>
				<title>Spermine_synt_N (PF17284)
"Spermidine synthase tetramerisation domain"</title>
				<rect class="PF17284" x="562" y="28" stroke-linejoin="round" width="5" height="24" fill="rgb(179,183,87)" stroke="rgb(143,146,69)" stroke-width="1" opacity="0.75" />
			</g>
		</g>
		<g>
			<title> (ctg10_57)</title>
			<polygon class=" (ctg10_57)" points="577,25 610,25 610,10 640,40 610,70 610,55 577,55" fill="rgb(255,255,255)" fill-opacity="1.0" stroke="rgb(0,0,0)" stroke-width="2"  />
			<g>
				<title>Orn_Arg_deC_N (PF02784)
"Pyridoxal-dependent decarboxylase, pyridoxal binding domain"</title>
				<rect class="PF02784" x="584" y="28" stroke-linejoin="round" width="26" height="24" fill="rgb(106,204,212)" stroke="rgb(84,163,169)" stroke-width="1" opacity="0.75" />
			</g>
			<g>
				<title>Arg_decarb_HB (PF17810)
"Arginine decarboxylase helical bundle domain"</title>
				<rect class="PF17810" x="613" y="28" stroke-linejoin="round" width="8" height="24" fill="rgb(207,58,210)" stroke="rgb(165,46,168)" stroke-width="1" opacity="0.75" />
			</g>
			<g>
				<title>Arg_decarbox_C (PF17944)
"Arginine decarboxylase C-terminal helical extension"</title>
				<polygon class="PF17944" points="634,38 636,40 634,42" stroke-linejoin="round" width="4" height="24" fill="rgb(98,183,210)" stroke="rgb(78,146,168)" stroke-width="1" opacity="0.75" />
			</g>
		</g>
		<g>
			<title> (ctg10_58)</title>
			<polygon class=" (ctg10_58)" points="642,10 661,40 642,70" fill="rgb(255,255,255)" fill-opacity="1.0" stroke="rgb(0,0,0)" stroke-width="2"  />
		</g>
		<g>
			<title> (ctg10_59)</title>
			<polygon class=" (ctg10_59)" points="676,25 781,25 781,10 811,40 781,70 781,55 676,55" fill="rgb(255,255,255)" fill-opacity="1.0" stroke="rgb(0,0,0)" stroke-width="2"  />
			<g>
				<title>Condensation (PF00668)
"Condensation domain"</title>
				<rect class="PF00668" x="679" y="28" stroke-linejoin="round" width="43" height="24" fill="rgb(224,184,98)" stroke="rgb(179,147,78)" stroke-width="1" opacity="0.75" />
			</g>
			<g>
				<title>AMP-binding (PF00501)
"AMP-binding enzyme"</title>
				<rect class="PF00501" x="725" y="28" stroke-linejoin="round" width="38" height="24" fill="rgb(60,217,223)" stroke="rgb(48,173,178)" stroke-width="1" opacity="0.75" />
			</g>
			<g>
				<title>AMP-binding_C (PF13193)
"AMP-binding enzyme C-terminal domain"</title>
				<rect class="PF13193" x="765" y="28" stroke-linejoin="round" width="7" height="24" fill="rgb(182,50,118)" stroke="rgb(145,39,94)" stroke-width="1" opacity="0.75" />
			</g>
			<g>
				<title>PP-binding (PF00550)
"Phosphopantetheine attachment site"</title>
				<rect class="PF00550" x="775" y="28" stroke-linejoin="round" width="6" height="24" fill="rgb(103,191,88)" stroke="rgb(82,152,70)" stroke-width="1" opacity="0.75" />
			</g>
			<g>
				<title>Thioesterase (PF00975)
"Thioesterase domain"</title>
				<polygon class="PF00975" points="784,28 794,28 806,40 794,52 784,52" stroke-linejoin="round" width="25" height="24" fill="rgb(207,80,138)" stroke="rgb(165,63,110)" stroke-width="1" opacity="0.75" />
			</g>
		</g>
		<g>
			<title> (ctg10_60)</title>
			<polygon class=" (ctg10_60)" points="811,25 825,25 825,10 855,40 825,70 825,55 811,55" fill="rgb(255,255,255)" fill-opacity="1.0" stroke="rgb(0,0,0)" stroke-width="2"  />
			<g>
				<title>Glyco_transf_28 (PF03033)
"Glycosyltransferase family 28 N-terminal domain"</title>
				<rect class="PF03033" x="812" y="28" stroke-linejoin="round" width="13" height="24" fill="rgb(157,218,79)" stroke="rgb(125,174,63)" stroke-width="1" opacity="0.75" />
			</g>
			<g>
				<title>UDPGT (PF00201)
"UDP-glucoronosyl and UDP-glucosyl transferase"</title>
				<polygon class="PF00201" points="843,32 851,40 851,40 843,48" stroke-linejoin="round" width="8" height="24" fill="rgb(225,150,107)" stroke="rgb(180,120,85)" stroke-width="1" opacity="0.75" />
			</g>
		</g>
		<g>
			<title> (ctg10_61)</title>
			<polygon class=" (ctg10_61)" points="860,25 875,25 875,10 905,40 875,70 875,55 860,55" fill="rgb(255,255,255)" fill-opacity="1.0" stroke="rgb(0,0,0)" stroke-width="2"  />
			<g>
				<title>Acyl_transf_3 (PF01757)
"Acyltransferase family"</title>
				<polygon class="PF01757" points="867,28 888,28 900,40 888,52 867,52" stroke-linejoin="round" width="34" height="24" fill="rgb(50,152,200)" stroke="rgb(40,121,160)" stroke-width="1" opacity="0.75" />
			</g>
		</g>
		<g>
			<title> (ctg10_62)</title>
			<polygon class=" (ctg10_62)" points="942,25 941,25 941,10 911,40 941,70 941,55 942,55" fill="rgb(255,255,255)" fill-opacity="1.0" stroke="rgb(0,0,0)" stroke-width="2"  />
			<g>
				<title>adh_short (PF00106)
"short chain dehydrogenase"</title>
				<polygon class="PF00106" points="917,38 927,28 935,28 935,52 927,52 917,42" stroke-linejoin="round" width="18" height="24" fill="rgb(182,219,73)" stroke="rgb(145,175,58)" stroke-width="1" opacity="0.75" />
			</g>
		</g>
		<g>
			<title> (ctg10_63)</title>
			<polygon class=" (ctg10_63)" points="989,25 973,25 973,10 943,40 973,70 973,55 989,55" fill="rgb(255,255,255)" fill-opacity="1.0" stroke="rgb(0,0,0)" stroke-width="2"  />
			<g>
				<title>Aldedh (PF00171)
"Aldehyde dehydrogenase family"</title>
				<polygon class="PF00171" points="947,40 959,28 989,28 989,52 959,52" stroke-linejoin="round" width="45" height="24" fill="rgb(105,213,139)" stroke="rgb(84,170,111)" stroke-width="1" opacity="0.75" />
			</g>
		</g>
		<g>
			<title> (ctg10_64)</title>
			<polygon class=" (ctg10_64)" points="1005,40 1033,10 1033,70" fill="rgb(255,255,255)" fill-opacity="1.0" stroke="rgb(0,0,0)" stroke-width="2"  />
			<g>
				<title>SPOR (PF05036)
"SPOR domain"</title>
				<polygon class="PF05036" points="1009,40 1012,37 1012,43" stroke-linejoin="round" width="7" height="24" fill="rgb(173,203,80)" stroke="rgb(138,162,64)" stroke-width="1" opacity="0.75" />
			</g>
		</g>
		<g>
			<title> (ctg10_65)</title>
			<polygon class=" (ctg10_65)" points="1089,25 1065,25 1065,10 1035,40 1065,70 1065,55 1089,55" fill="rgb(255,255,255)" fill-opacity="1.0" stroke="rgb(0,0,0)" stroke-width="2"  />
			<g>
				<title>DALR_1 (PF05746)
"DALR anticodon binding domain"</title>
				<polygon class="PF05746" points="1039,40 1047,32 1047,48" stroke-linejoin="round" width="12" height="24" fill="rgb(90,223,221)" stroke="rgb(72,178,176)" stroke-width="1" opacity="0.75" />
			</g>
			<g>
				<title>tRNA-synt_1d (PF00750)
"tRNA synthetases class I (R)"</title>
				<polygon class="PF00750" points="1048,31 1051,28 1081,28 1081,52 1051,52 1048,49" stroke-linejoin="round" width="33" height="24" fill="rgb(60,180,158)" stroke="rgb(48,144,126)" stroke-width="1" opacity="0.75" />
			</g>
			<g>
				<title>Arg_tRNA_synt_N (PF03485)
"Arginyl tRNA synthetase N terminal domain"</title>
				<rect class="PF03485" x="1082" y="28" stroke-linejoin="round" width="7" height="24" fill="rgb(123,182,87)" stroke="rgb(98,145,69)" stroke-width="1" opacity="0.75" />
			</g>
		</g>
		<g>
			<title> (ctg10_66)</title>
			<polygon class=" (ctg10_66)" points="1094,40 1117,10 1117,70" fill="rgb(255,255,255)" fill-opacity="1.0" stroke="rgb(0,0,0)" stroke-width="2"  />
			<g>
				<title>RadC (PF04002)
"RadC-like JAB domain"</title>
				<polygon class="PF04002" points="1098,40 1106,30 1106,50" stroke-linejoin="round" width="12" height="24" fill="rgb(114,211,73)" stroke="rgb(91,168,58)" stroke-width="1" opacity="0.75" />
			</g>
			<g>
				<title>UPF0758_N (PF20582)
"UPF0758 N-terminal"</title>
				<rect class="PF20582" x="1108" y="28" stroke-linejoin="round" width="7" height="24" fill="rgb(52,182,113)" stroke="rgb(41,145,90)" stroke-width="1" opacity="0.75" />
			</g>
		</g>
		<g>
			<title> (ctg10_67)</title>
			<polygon class=" (ctg10_67)" points="1120,25 1132,25 1132,10 1162,40 1132,70 1132,55 1120,55" fill="rgb(255,255,255)" fill-opacity="1.0" stroke="rgb(0,0,0)" stroke-width="2"  />
			<g>
				<title>Flavoprotein (PF02441)
"Flavoprotein"</title>
				<rect class="PF02441" x="1121" y="28" stroke-linejoin="round" width="17" height="24" fill="rgb(199,95,88)" stroke="rgb(159,76,70)" stroke-width="1" opacity="0.75" />
			</g>
			<g>
				<title>DFP (PF04127)
"DNA / pantothenate metabolism flavoprotein"</title>
				<polygon class="PF04127" points="1140,28 1145,28 1157,40 1145,52 1140,52" stroke-linejoin="round" width="18" height="24" fill="rgb(185,72,205)" stroke="rgb(147,57,164)" stroke-width="1" opacity="0.75" />
			</g>
		</g>
		<g>
			<title> (ctg10_68)</title>
			<polygon class=" (ctg10_68)" points="1162,10 1177,40 1162,70" fill="rgb(255,255,255)" fill-opacity="1.0" stroke="rgb(0,0,0)" stroke-width="2"  />
			<g>
				<title>dUTPase (PF00692)
"dUTPase"</title>
				<polygon class="PF00692" points="1163,28 1167,28 1174,40 1167,52 1163,52" stroke-linejoin="round" width="13" height="24" fill="rgb(119,187,76)" stroke="rgb(95,149,60)" stroke-width="1" opacity="0.75" />
			</g>
		</g>
		<g>
			<title> (ctg10_69)</title>
			<polygon class=" (ctg10_69)" points="1178,25 1226,25 1226,10 1256,40 1226,70 1226,55 1178,55" fill="rgb(255,255,255)" fill-opacity="1.0" stroke="rgb(0,0,0)" stroke-width="2"  />
			<g>
				<title>PGM_PMM_I (PF02878)
"Phosphoglucomutase/phosphomannomutase, alpha/beta/alpha domain I"</title>
				<rect class="PF02878" x="1210" y="28" stroke-linejoin="round" width="13" height="24" fill="rgb(217,133,102)" stroke="rgb(173,106,81)" stroke-width="1" opacity="0.75" />
			</g>
			<g>
				<title>PGM_PMM_II (PF02879)
"Phosphoglucomutase/phosphomannomutase, alpha/beta/alpha domain II"</title>
				<rect class="PF02879" x="1225" y="28" stroke-linejoin="round" width="9" height="24" fill="rgb(192,221,60)" stroke="rgb(153,176,48)" stroke-width="1" opacity="0.75" />
			</g>
			<g>
				<title>PGM_PMM_III (PF02880)
"Phosphoglucomutase/phosphomannomutase, alpha/beta/alpha domain III"</title>
				<polygon class="PF02880" points="1235,28 1240,28 1246,34 1246,46 1240,52 1235,52" stroke-linejoin="round" width="11" height="24" fill="rgb(67,204,90)" stroke="rgb(53,163,72)" stroke-width="1" opacity="0.75" />
			</g>
			<g>
				<title>PGM_PMM_IV (PF00408)
"Phosphoglucomutase/phosphomannomutase, C-terminal domain"</title>
				<polygon class="PF00408" points="1246,34 1252,40 1246,46" stroke-linejoin="round" width="8" height="24" fill="rgb(74,205,143)" stroke="rgb(59,164,114)" stroke-width="1" opacity="0.75" />
			</g>
		</g>
		<g>
			<title> (ctg10_70)</title>
			<polygon class=" (ctg10_70)" points="1257,40 1279,10 1279,70" fill="rgb(255,255,255)" fill-opacity="1.0" stroke="rgb(0,0,0)" stroke-width="2"  />
		</g>
		<g>
			<title> (ctg10_71)</title>
			<polygon class=" (ctg10_71)" points="1280,40 1302,10 1302,70" fill="rgb(255,255,255)" fill-opacity="1.0" stroke="rgb(0,0,0)" stroke-width="2"  />
			<g>
				<title>Pribosyltran (PF00156)
"Phosphoribosyl transferase domain"</title>
				<polygon class="PF00156" points="1284,40 1293,28 1297,28 1297,52 1293,52 1284,40" stroke-linejoin="round" width="13" height="24" fill="rgb(210,210,74)" stroke="rgb(168,168,59)" stroke-width="1" opacity="0.75" />
			</g>
		</g>
		<g>
			<title> (ctg10_72)</title>
			<polygon class=" (ctg10_72)" points="1306,10 1332,40 1306,70" fill="rgb(255,255,255)" fill-opacity="1.0" stroke="rgb(0,0,0)" stroke-width="2"  />
			<g>
				<title>Exo_endo_phos (PF03372)
"Endonuclease/Exonuclease/phosphatase family"</title>
				<polygon class="PF03372" points="1306,28 1317,28 1328,40 1317,52 1306,52" stroke-linejoin="round" width="25" height="24" fill="rgb(76,66,180)" stroke="rgb(60,52,144)" stroke-width="1" opacity="0.75" />
			</g>
		</g>
		<g>
			<title> (ctg10_73)</title>
			<polygon class=" (ctg10_73)" points="1335,25 1348,25 1348,10 1378,40 1348,70 1348,55 1335,55" fill="rgb(255,255,255)" fill-opacity="1.0" stroke="rgb(0,0,0)" stroke-width="2"  />
			<g>
				<title>MFS_1 (PF07690)
"Major Facilitator Superfamily"</title>
				<polygon class="PF07690" points="1337,28 1361,28 1373,40 1373,40 1361,52 1337,52" stroke-linejoin="round" width="36" height="24" fill="rgb(193,224,74)" stroke="rgb(154,179,59)" stroke-width="1" opacity="0.75" />
			</g>
		</g>
		<g>
			<title> (ctg10_74)</title>
			<polygon class=" (ctg10_74)" points="1380,10 1387,40 1380,70" fill="rgb(255,255,255)" fill-opacity="1.0" stroke="rgb(0,0,0)" stroke-width="2"  />
		</g>
		<g>
			<title> (ctg10_75)</title>
			<polygon class=" (ctg10_75)" points="1429,25 1419,25 1419,10 1389,40 1419,70 1419,55 1429,55" fill="rgb(255,255,255)" fill-opacity="1.0" stroke="rgb(0,0,0)" stroke-width="2"  />
			<g>
				<title>AnmK (PF03702)
"Anhydro-N-acetylmuramic acid kinase"</title>
				<polygon class="PF03702" points="1393,40 1405,28 1425,28 1425,52 1405,52" stroke-linejoin="round" width="36" height="24" fill="rgb(182,60,66)" stroke="rgb(145,48,52)" stroke-width="1" opacity="0.75" />
			</g>
		</g>
	</g>
</svg>
