<svg version="1.1" baseProfile="full" xmlns="http://www.w3.org/2000/svg" width="1473.2333333333333" height="80">
	<g>
		<line x1="10" y1="40.0" x2="1463.2333333333333" y2="40.0" style="stroke:rgb(70,70,70); stroke-width:3 "/>
		<g>
			<title> (ctg18_10)</title>
			<polygon class=" (ctg18_10)" points="17,10 26,40 17,70" fill="rgb(255,255,255)" fill-opacity="1.0" stroke="rgb(0,0,0)" stroke-width="2"  />
			<g>
				<title>DUF1145 (PF06611)
"Protein of unknown function (DUF1145)"</title>
				<polygon class="PF06611" points="17,28 19,28 22,37 22,43 19,52 17,52" stroke-linejoin="round" width="5" height="24" fill="rgb(186,56,160)" stroke="rgb(148,44,127)" stroke-width="1" opacity="0.75" />
			</g>
		</g>
		<g>
			<title> (ctg18_11)</title>
			<polygon class=" (ctg18_11)" points="26,40 38,10 38,70" fill="rgb(255,255,255)" fill-opacity="1.0" stroke="rgb(0,0,0)" stroke-width="2"  />
			<g>
				<title>DUF2500 (PF10694)
"Protein of unknown function (DUF2500)"</title>
				<polygon class="PF10694" points="29,40 34,28 37,28 37,52 34,52" stroke-linejoin="round" width="11" height="24" fill="rgb(136,199,98)" stroke="rgb(108,159,78)" stroke-width="1" opacity="0.75" />
			</g>
		</g>
		<g>
			<title> (ctg18_12)</title>
			<polygon class=" (ctg18_12)" points="43,10 63,40 43,70" fill="rgb(255,255,255)" fill-opacity="1.0" stroke="rgb(0,0,0)" stroke-width="2"  />
			<g>
				<title>YhhN (PF07947)
"YhhN family"</title>
				<polygon class="PF07947" points="45,28 52,28 60,40 52,52 45,52" stroke-linejoin="round" width="18" height="24" fill="rgb(212,80,62)" stroke="rgb(169,64,49)" stroke-width="1" opacity="0.75" />
			</g>
		</g>
		<g>
			<title> (ctg18_13)</title>
			<polygon class=" (ctg18_13)" points="67,25 110,25 110,10 140,40 110,70 110,55 67,55" fill="rgb(255,255,255)" fill-opacity="1.0" stroke="rgb(0,0,0)" stroke-width="2"  />
			<g>
				<title>HMA (PF00403)
"Heavy-metal-associated domain"</title>
				<rect class="PF00403" x="72" y="28" stroke-linejoin="round" width="5" height="24" fill="rgb(91,198,182)" stroke="rgb(72,158,145)" stroke-width="1" opacity="0.75" />
			</g>
			<g>
				<title>E1-E2_ATPase (PF00122)
"E1-E2 ATPase"</title>
				<rect class="PF00122" x="90" y="28" stroke-linejoin="round" width="18" height="24" fill="rgb(149,204,70)" stroke="rgb(119,163,56)" stroke-width="1" opacity="0.75" />
			</g>
			<g>
				<title>Hydrolase (PF00702)
"haloacid dehalogenase-like hydrolase"</title>
				<polygon class="PF00702" points="110,28 124,28 131,35 131,45 124,52 110,52" stroke-linejoin="round" width="21" height="24" fill="rgb(68,220,102)" stroke="rgb(54,176,81)" stroke-width="1" opacity="0.75" />
			</g>
		</g>
		<g>
			<title> (ctg18_14)</title>
			<polygon class=" (ctg18_14)" points="143,40 151,10 151,70" fill="rgb(255,255,255)" fill-opacity="1.0" stroke="rgb(0,0,0)" stroke-width="2"  />
			<g>
				<title>TusA (PF01206)
"Sulfurtransferase TusA"</title>
				<polygon class="PF01206" points="146,40 149,28 149,28 149,52 149,52" stroke-linejoin="round" width="6" height="24" fill="rgb(144,82,184)" stroke="rgb(115,65,147)" stroke-width="1" opacity="0.75" />
			</g>
		</g>
		<g>
			<title> (ctg18_15)</title>
			<polygon class=" (ctg18_15)" points="156,10 178,40 156,70" fill="rgb(255,255,255)" fill-opacity="1.0" stroke="rgb(0,0,0)" stroke-width="2"  />
			<g>
				<title>Vut_1 (PF02592)
"Putative vitamin uptake transporter"</title>
				<polygon class="PF02592" points="160,28 165,28 174,40 165,52 160,52" stroke-linejoin="round" width="15" height="24" fill="rgb(93,184,75)" stroke="rgb(74,147,60)" stroke-width="1" opacity="0.75" />
			</g>
		</g>
		<g>
			<title> (ctg18_16)</title>
			<polygon class=" (ctg18_16)" points="181,10 199,40 181,70" fill="rgb(255,255,255)" fill-opacity="1.0" stroke="rgb(0,0,0)" stroke-width="2"  />
			<g>
				<title>DcrB (PF08786)
"DcrB"</title>
				<polygon class="PF08786" points="186,28 188,28 196,40 188,52 186,52" stroke-linejoin="round" width="13" height="24" fill="rgb(86,179,119)" stroke="rgb(68,143,95)" stroke-width="1" opacity="0.75" />
			</g>
		</g>
		<g>
			<title> (ctg18_17)</title>
			<polygon class=" (ctg18_17)" points="240,25 230,25 230,10 200,40 230,70 230,55 240,55" fill="rgb(255,255,255)" fill-opacity="1.0" stroke="rgb(0,0,0)" stroke-width="2"  />
			<g>
				<title>MFS_1 (PF07690)
"Major Facilitator Superfamily"</title>
				<polygon class="PF07690" points="204,40 215,29 215,51" stroke-linejoin="round" width="15" height="24" fill="rgb(193,224,74)" stroke="rgb(154,179,59)" stroke-width="1" opacity="0.75" />
			</g>
		</g>
		<g>
			<title> (ctg18_18)</title>
			<polygon class=" (ctg18_18)" points="245,25 250,25 250,10 280,40 250,70 250,55 245,55" fill="rgb(255,255,255)" fill-opacity="1.0" stroke="rgb(0,0,0)" stroke-width="2"  />
			<g>
				<title>AI-2E_transport (PF01594)
"AI-2E family transporter"</title>
				<polygon class="PF01594" points="246,28 263,28 275,40 263,52 246,52" stroke-linejoin="round" width="31" height="24" fill="rgb(226,96,145)" stroke="rgb(180,76,116)" stroke-width="1" opacity="0.75" />
			</g>
		</g>
		<g>
			<title> (ctg18_19)</title>
			<polygon class=" (ctg18_19)" points="294,10 307,40 294,70" fill="rgb(255,255,255)" fill-opacity="1.0" stroke="rgb(0,0,0)" stroke-width="2"  />
		</g>
		<g>
			<title> (ctg18_20)</title>
			<polygon class=" (ctg18_20)" points="334,10 344,40 334,70" fill="rgb(255,255,255)" fill-opacity="1.0" stroke="rgb(0,0,0)" stroke-width="2"  />
		</g>
		<g>
			<title> (ctg18_21)</title>
			<polygon class=" (ctg18_21)" points="347,10 371,40 347,70" fill="rgb(255,255,255)" fill-opacity="1.0" stroke="rgb(0,0,0)" stroke-width="2"  />
			<g>
				<title>Ketoacyl-synt_2 (PF13723)
"Beta-ketoacyl synthase, N-terminal domain"</title>
				<polygon class="PF13723" points="349,28 357,28 367,40 357,52 349,52" stroke-linejoin="round" width="21" height="24" fill="rgb(57,130,212)" stroke="rgb(45,103,169)" stroke-width="1" opacity="0.75" />
			</g>
		</g>
		<g>
			<title> (ctg18_22)</title>
			<polygon class=" (ctg18_22)" points="372,10 397,40 372,70" fill="rgb(255,255,255)" fill-opacity="1.0" stroke="rgb(0,0,0)" stroke-width="2"  />
			<g>
				<title>Acyltransferase (PF01553)
"Acyltransferase"</title>
				<polygon class="PF01553" points="378,28 383,28 390,36 390,44 383,52 378,52" stroke-linejoin="round" width="12" height="24" fill="rgb(87,176,216)" stroke="rgb(69,140,172)" stroke-width="1" opacity="0.75" />
			</g>
		</g>
		<g>
			<title> (ctg18_23)</title>
			<polygon class=" (ctg18_23)" points="397,10 405,40 397,70" fill="rgb(255,255,255)" fill-opacity="1.0" stroke="rgb(0,0,0)" stroke-width="2"  />
			<g>
				<title>PP-binding (PF00550)
"Phosphopantetheine attachment site"</title>
				<polygon class="PF00550" points="397,28 398,28 402,40 398,52 397,52" stroke-linejoin="round" width="7" height="24" fill="rgb(103,191,88)" stroke="rgb(82,152,70)" stroke-width="1" opacity="0.75" />
			</g>
		</g>
		<g>
			<title> (ctg18_24)</title>
			<polygon class=" (ctg18_24)" points="406,10 414,40 406,70" fill="rgb(255,255,255)" fill-opacity="1.0" stroke="rgb(0,0,0)" stroke-width="2"  />
			<g>
				<title>PP-binding (PF00550)
"Phosphopantetheine attachment site"</title>
				<polygon class="PF00550" points="406,28 407,28 411,40 407,52 406,52" stroke-linejoin="round" width="6" height="24" fill="rgb(103,191,88)" stroke="rgb(82,152,70)" stroke-width="1" opacity="0.75" />
			</g>
		</g>
		<g>
			<title> (ctg18_25)</title>
			<polygon class=" (ctg18_25)" points="434,25 449,25 449,10 479,40 449,70 449,55 434,55" fill="rgb(255,255,255)" fill-opacity="1.0" stroke="rgb(0,0,0)" stroke-width="2"  />
			<g>
				<title>AMP-binding (PF00501)
"AMP-binding enzyme"</title>
				<polygon class="PF00501" points="442,28 462,28 464,30 464,50 462,52 442,52" stroke-linejoin="round" width="22" height="24" fill="rgb(60,217,223)" stroke="rgb(48,173,178)" stroke-width="1" opacity="0.75" />
			</g>
		</g>
		<g>
			<title> (ctg18_26)</title>
			<polygon class=" (ctg18_26)" points="478,10 489,40 478,70" fill="rgb(255,255,255)" fill-opacity="1.0" stroke="rgb(0,0,0)" stroke-width="2"  />
			<g>
				<title>FabA (PF07977)
"FabA-like domain"</title>
				<polygon class="PF07977" points="478,28 481,28 486,40 481,52 478,52" stroke-linejoin="round" width="10" height="24" fill="rgb(66,205,188)" stroke="rgb(52,164,150)" stroke-width="1" opacity="0.75" />
			</g>
		</g>
		<g>
			<title> (ctg18_27)</title>
			<polygon class=" (ctg18_27)" points="490,25 516,25 516,10 546,40 516,70 516,55 490,55" fill="rgb(255,255,255)" fill-opacity="1.0" stroke="rgb(0,0,0)" stroke-width="2"  />
			<g>
				<title>Glycos_transf_2 (PF00535)
"Glycosyl transferase family 2"</title>
				<rect class="PF00535" x="490" y="28" stroke-linejoin="round" width="15" height="24" fill="rgb(224,122,96)" stroke="rgb(179,97,76)" stroke-width="1" opacity="0.75" />
			</g>
		</g>
		<g>
			<title> (ctg18_28)</title>
			<polygon class=" (ctg18_28)" points="546,10 560,40 546,70" fill="rgb(255,255,255)" fill-opacity="1.0" stroke="rgb(0,0,0)" stroke-width="2"  />
			<g>
				<title>4HBT_2 (PF13279)
"Thioesterase-like superfamily"</title>
				<polygon class="PF13279" points="547,28 550,28 556,40 550,52 547,52" stroke-linejoin="round" width="11" height="24" fill="rgb(213,114,82)" stroke="rgb(170,91,65)" stroke-width="1" opacity="0.75" />
			</g>
		</g>
		<g>
			<title> (ctg18_29)</title>
			<polygon class=" (ctg18_29)" points="560,10 580,40 560,70" fill="rgb(255,255,255)" fill-opacity="1.0" stroke="rgb(0,0,0)" stroke-width="2"  />
			<g>
				<title>LolA (PF03548)
"Outer membrane lipoprotein carrier protein LolA"</title>
				<polygon class="PF03548" points="562,28 568,28 576,40 568,52 562,52" stroke-linejoin="round" width="16" height="24" fill="rgb(84,160,208)" stroke="rgb(67,128,166)" stroke-width="1" opacity="0.75" />
			</g>
		</g>
		<g>
			<title> (ctg18_30)</title>
			<polygon class=" (ctg18_30)" points="580,25 627,25 627,10 657,40 627,70 627,55 580,55" fill="rgb(255,255,255)" fill-opacity="1.0" stroke="rgb(0,0,0)" stroke-width="2"  />
			<g>
				<title>MMPL (PF03176)
"MMPL family"</title>
				<rect class="PF03176" x="596" y="28" stroke-linejoin="round" width="26" height="24" fill="rgb(228,109,193)" stroke="rgb(182,87,154)" stroke-width="1" opacity="0.75" />
			</g>
		</g>
		<g>
			<title> (ctg18_31)</title>
			<polygon class=" (ctg18_31)" points="657,10 676,40 657,70" fill="rgb(255,255,255)" fill-opacity="1.0" stroke="rgb(0,0,0)" stroke-width="2"  />
			<g>
				<title>DUF3261 (PF11659)
"Protein of unknown function (DUF3261)"</title>
				<polygon class="PF11659" points="662,28 665,28 672,40 665,52 662,52" stroke-linejoin="round" width="13" height="24" fill="rgb(224,86,172)" stroke="rgb(179,68,137)" stroke-width="1" opacity="0.75" />
			</g>
		</g>
		<g>
			<title> (ctg18_32)</title>
			<polygon class=" (ctg18_32)" points="676,25 685,25 685,10 715,40 685,70 685,55 676,55" fill="rgb(255,255,255)" fill-opacity="1.0" stroke="rgb(0,0,0)" stroke-width="2"  />
			<g>
				<title>ketoacyl-synt (PF00109)
"Beta-ketoacyl synthase, N-terminal domain"</title>
				<rect class="PF00109" x="681" y="28" stroke-linejoin="round" width="17" height="24" fill="rgb(112,116,228)" stroke="rgb(89,92,182)" stroke-width="1" opacity="0.75" />
			</g>
			<g>
				<title>Ketoacyl-synt_C (PF02801)
"Beta-ketoacyl synthase, C-terminal domain"</title>
				<polygon class="PF02801" points="699,29 710,40 710,40 699,51" stroke-linejoin="round" width="11" height="24" fill="rgb(215,78,102)" stroke="rgb(172,62,81)" stroke-width="1" opacity="0.75" />
			</g>
		</g>
		<g>
			<title> (ctg18_33)</title>
			<polygon class=" (ctg18_33)" points="715,10 730,40 715,70" fill="rgb(255,255,255)" fill-opacity="1.0" stroke="rgb(0,0,0)" stroke-width="2"  />
			<g>
				<title>FabA (PF07977)
"FabA-like domain"</title>
				<polygon class="PF07977" points="716,28 721,28 727,40 721,52 716,52" stroke-linejoin="round" width="12" height="24" fill="rgb(66,205,188)" stroke="rgb(52,164,150)" stroke-width="1" opacity="0.75" />
			</g>
		</g>
		<g>
			<title> (ctg18_34)</title>
			<polygon class=" (ctg18_34)" points="731,10 755,40 731,70" fill="rgb(255,255,255)" fill-opacity="1.0" stroke="rgb(0,0,0)" stroke-width="2"  />
			<g>
				<title>adh_short_C2 (PF13561)
"Enoyl-(Acyl carrier protein) reductase"</title>
				<polygon class="PF13561" points="731,28 742,28 751,40 742,52 731,52" stroke-linejoin="round" width="23" height="24" fill="rgb(73,205,127)" stroke="rgb(58,164,101)" stroke-width="1" opacity="0.75" />
			</g>
		</g>
		<g>
			<title> (ctg18_35)</title>
			<polygon class=" (ctg18_35)" points="755,25 766,25 766,10 796,40 766,70 766,55 755,55" fill="rgb(255,255,255)" fill-opacity="1.0" stroke="rgb(0,0,0)" stroke-width="2"  />
			<g>
				<title>ketoacyl-synt (PF00109)
"Beta-ketoacyl synthase, N-terminal domain"</title>
				<rect class="PF00109" x="755" y="28" stroke-linejoin="round" width="24" height="24" fill="rgb(112,116,228)" stroke="rgb(89,92,182)" stroke-width="1" opacity="0.75" />
			</g>
			<g>
				<title>Ketoacyl-synt_C (PF02801)
"Beta-ketoacyl synthase, C-terminal domain"</title>
				<polygon class="PF02801" points="780,29 791,40 791,40 780,51" stroke-linejoin="round" width="11" height="24" fill="rgb(215,78,102)" stroke="rgb(172,62,81)" stroke-width="1" opacity="0.75" />
			</g>
		</g>
		<g>
			<title> (ctg18_36)</title>
			<polygon class=" (ctg18_36)" points="796,10 815,40 796,70" fill="rgb(255,255,255)" fill-opacity="1.0" stroke="rgb(0,0,0)" stroke-width="2"  />
			<g>
				<title>ACPS (PF01648)
"4'-phosphopantetheinyl transferase superfamily"</title>
				<polygon class="PF01648" points="804,28 804,28 811,40 804,52 804,52" stroke-linejoin="round" width="10" height="24" fill="rgb(85,184,135)" stroke="rgb(68,147,108)" stroke-width="1" opacity="0.75" />
			</g>
		</g>
		<g>
			<title> (ctg18_37)</title>
			<polygon class=" (ctg18_37)" points="823,40 835,10 835,70" fill="rgb(255,255,255)" fill-opacity="1.0" stroke="rgb(0,0,0)" stroke-width="2"  />
		</g>
		<g>
			<title> (ctg18_38)</title>
			<polygon class=" (ctg18_38)" points="835,40 846,10 846,70" fill="rgb(255,255,255)" fill-opacity="1.0" stroke="rgb(0,0,0)" stroke-width="2"  />
			<g>
				<title>EamA (PF00892)
"EamA-like transporter family"</title>
				<polygon class="PF00892" points="838,40 843,28 845,28 845,52 843,52" stroke-linejoin="round" width="10" height="24" fill="rgb(105,217,77)" stroke="rgb(84,173,61)" stroke-width="1" opacity="0.75" />
			</g>
		</g>
		<g>
			<title> (ctg18_39)</title>
			<polygon class=" (ctg18_39)" points="902,25 877,25 877,10 847,40 877,70 877,55 902,55" fill="rgb(255,255,255)" fill-opacity="1.0" stroke="rgb(0,0,0)" stroke-width="2"  />
			<g>
				<title>PMT (PF02366)
"Dolichyl-phosphate-mannose-protein mannosyltransferase"</title>
				<rect class="PF02366" x="878" y="28" stroke-linejoin="round" width="23" height="24" fill="rgb(192,92,197)" stroke="rgb(153,73,157)" stroke-width="1" opacity="0.75" />
			</g>
		</g>
		<g>
			<title> (ctg18_40)</title>
			<polygon class=" (ctg18_40)" points="932,25 932,25 932,10 902,40 932,70 932,55 932,55" fill="rgb(255,255,255)" fill-opacity="1.0" stroke="rgb(0,0,0)" stroke-width="2"  />
			<g>
				<title>Polysacc_deac_1 (PF01522)
"Polysaccharide deacetylase"</title>
				<polygon class="PF01522" points="915,31 918,28 931,28 931,52 918,52 915,49" stroke-linejoin="round" width="16" height="24" fill="rgb(56,221,58)" stroke="rgb(44,176,46)" stroke-width="1" opacity="0.75" />
			</g>
		</g>
		<g>
			<title> (ctg18_41)</title>
			<polygon class=" (ctg18_41)" points="998,25 962,25 962,10 932,40 962,70 962,55 998,55" fill="rgb(255,255,255)" fill-opacity="1.0" stroke="rgb(0,0,0)" stroke-width="2"  />
			<g>
				<title>Epimerase (PF01370)
"NAD dependent epimerase/dehydratase family"</title>
				<polygon class="PF01370" points="941,35 948,28 965,28 965,52 948,52 941,45" stroke-linejoin="round" width="24" height="24" fill="rgb(98,102,214)" stroke="rgb(78,81,171)" stroke-width="1" opacity="0.75" />
			</g>
			<g>
				<title>Formyl_trans_C (PF02911)
"Formyl transferase, C-terminal domain"</title>
				<rect class="PF02911" x="968" y="28" stroke-linejoin="round" width="9" height="24" fill="rgb(74,115,225)" stroke="rgb(59,92,180)" stroke-width="1" opacity="0.75" />
			</g>
			<g>
				<title>Formyl_trans_N (PF00551)
"Formyl transferase"</title>
				<rect class="PF00551" x="980" y="28" stroke-linejoin="round" width="17" height="24" fill="rgb(111,183,66)" stroke="rgb(88,146,52)" stroke-width="1" opacity="0.75" />
			</g>
		</g>
		<g>
			<title> (ctg18_42)</title>
			<polygon class=" (ctg18_42)" points="1030,25 1028,25 1028,10 998,40 1028,70 1028,55 1030,55" fill="rgb(255,255,255)" fill-opacity="1.0" stroke="rgb(0,0,0)" stroke-width="2"  />
			<g>
				<title>Glycos_transf_2 (PF00535)
"Glycosyl transferase family 2"</title>
				<polygon class="PF00535" points="1013,29 1014,28 1029,28 1029,52 1014,52 1013,51" stroke-linejoin="round" width="16" height="24" fill="rgb(224,122,96)" stroke="rgb(179,97,76)" stroke-width="1" opacity="0.75" />
			</g>
		</g>
		<g>
			<title> (ctg18_43)</title>
			<polygon class=" (ctg18_43)" points="1069,25 1061,25 1061,10 1031,40 1061,70 1061,55 1069,55" fill="rgb(255,255,255)" fill-opacity="1.0" stroke="rgb(0,0,0)" stroke-width="2"  />
			<g>
				<title>DegT_DnrJ_EryC1 (PF01041)
"DegT/DnrJ/EryC1/StrS aminotransferase family"</title>
				<polygon class="PF01041" points="1035,40 1047,28 1067,28 1067,52 1047,52" stroke-linejoin="round" width="36" height="24" fill="rgb(59,139,191)" stroke="rgb(47,111,152)" stroke-width="1" opacity="0.75" />
			</g>
		</g>
		<g>
			<title> (ctg18_44)</title>
			<polygon class=" (ctg18_44)" points="1082,40 1098,10 1098,70" fill="rgb(255,255,255)" fill-opacity="1.0" stroke="rgb(0,0,0)" stroke-width="2"  />
			<g>
				<title>PA_decarbox (PF05870)
"Phenolic acid decarboxylase (PAD)"</title>
				<polygon class="PF05870" points="1085,40 1092,28 1097,28 1097,52 1092,52" stroke-linejoin="round" width="15" height="24" fill="rgb(215,65,125)" stroke="rgb(172,52,100)" stroke-width="1" opacity="0.75" />
			</g>
		</g>
		<g>
			<title> (ctg18_45)</title>
			<polygon class=" (ctg18_45)" points="1102,10 1130,40 1102,70" fill="rgb(255,255,255)" fill-opacity="1.0" stroke="rgb(0,0,0)" stroke-width="2"  />
			<g>
				<title>HTH_1 (PF00126)
"Bacterial regulatory helix-turn-helix protein, lysR family"</title>
				<rect class="PF00126" x="1102" y="28" stroke-linejoin="round" width="5" height="24" fill="rgb(125,227,79)" stroke="rgb(99,181,63)" stroke-width="1" opacity="0.75" />
			</g>
			<g>
				<title>LysR_substrate (PF03466)
"LysR substrate binding domain"</title>
				<polygon class="PF03466" points="1110,28 1114,28 1126,40 1114,52 1110,52" stroke-linejoin="round" width="19" height="24" fill="rgb(55,136,195)" stroke="rgb(44,108,156)" stroke-width="1" opacity="0.75" />
			</g>
		</g>
		<g>
			<title> (ctg18_46)</title>
			<polygon class=" (ctg18_46)" points="1132,40 1143,10 1143,70" fill="rgb(255,255,255)" fill-opacity="1.0" stroke="rgb(0,0,0)" stroke-width="2"  />
		</g>
		<g>
			<title> (ctg18_47)</title>
			<polygon class=" (ctg18_47)" points="1150,25 1172,25 1172,10 1202,40 1172,70 1172,55 1150,55" fill="rgb(255,255,255)" fill-opacity="1.0" stroke="rgb(0,0,0)" stroke-width="2"  />
			<g>
				<title>SBP_bac_5 (PF00496)
"Bacterial extracellular solute-binding proteins, family 5 Middle"</title>
				<polygon class="PF00496" points="1156,28 1186,28 1193,35 1193,45 1186,52 1156,52" stroke-linejoin="round" width="37" height="24" fill="rgb(199,94,116)" stroke="rgb(159,75,92)" stroke-width="1" opacity="0.75" />
			</g>
		</g>
		<g>
			<title> (ctg18_48)</title>
			<polygon class=" (ctg18_48)" points="1203,25 1204,25 1204,10 1234,40 1204,70 1204,55 1203,55" fill="rgb(255,255,255)" fill-opacity="1.0" stroke="rgb(0,0,0)" stroke-width="2"  />
			<g>
				<title>BPD_transp_1_N (PF19300)
"Binding-prot-dependent transport system membrane comp, N-term"</title>
				<rect class="PF19300" x="1203" y="28" stroke-linejoin="round" width="10" height="24" fill="rgb(201,94,75)" stroke="rgb(160,75,60)" stroke-width="1" opacity="0.75" />
			</g>
			<g>
				<title>BPD_transp_1 (PF00528)
"Binding-protein-dependent transport system inner membrane component"</title>
				<polygon class="PF00528" points="1214,28 1218,28 1230,40 1218,52 1214,52" stroke-linejoin="round" width="19" height="24" fill="rgb(77,208,225)" stroke="rgb(61,166,180)" stroke-width="1" opacity="0.75" />
			</g>
		</g>
		<g>
			<title> (ctg18_49)</title>
			<polygon class=" (ctg18_49)" points="1234,10 1261,40 1234,70" fill="rgb(255,255,255)" fill-opacity="1.0" stroke="rgb(0,0,0)" stroke-width="2"  />
			<g>
				<title>BPD_transp_1 (PF00528)
"Binding-protein-dependent transport system inner membrane component"</title>
				<polygon class="PF00528" points="1242,28 1246,28 1257,40 1246,52 1242,52" stroke-linejoin="round" width="18" height="24" fill="rgb(77,208,225)" stroke="rgb(61,166,180)" stroke-width="1" opacity="0.75" />
			</g>
		</g>
		<g>
			<title> (ctg18_50)</title>
			<polygon class=" (ctg18_50)" points="1262,10 1287,40 1262,70" fill="rgb(255,255,255)" fill-opacity="1.0" stroke="rgb(0,0,0)" stroke-width="2"  />
			<g>
				<title>ABC_tran (PF00005)
"ABC transporter"</title>
				<polygon class="PF00005" points="1263,28 1273,28 1278,34 1278,46 1273,52 1263,52" stroke-linejoin="round" width="15" height="24" fill="rgb(129,201,63)" stroke="rgb(103,160,50)" stroke-width="1" opacity="0.75" />
			</g>
		</g>
		<g>
			<title> (ctg18_51)</title>
			<polygon class=" (ctg18_51)" points="1287,10 1312,40 1287,70" fill="rgb(255,255,255)" fill-opacity="1.0" stroke="rgb(0,0,0)" stroke-width="2"  />
			<g>
				<title>ABC_tran (PF00005)
"ABC transporter"</title>
				<polygon class="PF00005" points="1288,28 1298,28 1303,34 1303,46 1298,52 1288,52" stroke-linejoin="round" width="15" height="24" fill="rgb(129,201,63)" stroke="rgb(103,160,50)" stroke-width="1" opacity="0.75" />
			</g>
		</g>
		<g>
			<title> (ctg18_52)</title>
			<polygon class=" (ctg18_52)" points="1313,10 1326,40 1313,70" fill="rgb(255,255,255)" fill-opacity="1.0" stroke="rgb(0,0,0)" stroke-width="2"  />
			<g>
				<title>RHH_1 (PF01402)
"Ribbon-helix-helix protein, copG family"</title>
				<rect class="PF01402" x="1313" y="28" stroke-linejoin="round" width="3" height="24" fill="rgb(104,197,67)" stroke="rgb(83,157,53)" stroke-width="1" opacity="0.75" />
			</g>
			<g>
				<title>NikR_C (PF08753)
"NikR C terminal nickel binding domain"</title>
				<polygon class="PF08753" points="1318,28 1323,40 1318,52" stroke-linejoin="round" width="7" height="24" fill="rgb(185,81,131)" stroke="rgb(148,64,104)" stroke-width="1" opacity="0.75" />
			</g>
		</g>
		<g>
			<title> (ctg18_53)</title>
			<polygon class=" (ctg18_53)" points="1328,40 1346,10 1346,70" fill="rgb(255,255,255)" fill-opacity="1.0" stroke="rgb(0,0,0)" stroke-width="2"  />
			<g>
				<title>DUF1440 (PF07274)
"Protein of unknown function (DUF1440)"</title>
				<polygon class="PF07274" points="1332,40 1339,28 1344,28 1344,52 1339,52" stroke-linejoin="round" width="14" height="24" fill="rgb(67,129,184)" stroke="rgb(53,103,147)" stroke-width="1" opacity="0.75" />
			</g>
		</g>
		<g>
			<title> (ctg18_54)</title>
			<polygon class=" (ctg18_54)" points="1363,25 1366,25 1366,10 1396,40 1366,70 1366,55 1363,55" fill="rgb(255,255,255)" fill-opacity="1.0" stroke="rgb(0,0,0)" stroke-width="2"  />
			<g>
				<title>CBS (PF00571)
"CBS domain"</title>
				<rect class="PF00571" x="1365" y="28" stroke-linejoin="round" width="6" height="24" fill="rgb(220,56,105)" stroke="rgb(176,44,84)" stroke-width="1" opacity="0.75" />
			</g>
			<g>
				<title>MgtE (PF01769)
"Divalent cation transporter"</title>
				<polygon class="PF01769" points="1383,31 1392,40 1383,49" stroke-linejoin="round" width="12" height="24" fill="rgb(55,87,223)" stroke="rgb(44,69,178)" stroke-width="1" opacity="0.75" />
			</g>
		</g>
		<g>
			<title> (ctg18_55)</title>
			<polygon class=" (ctg18_55)" points="1396,40 1407,10 1407,70" fill="rgb(255,255,255)" fill-opacity="1.0" stroke="rgb(0,0,0)" stroke-width="2"  />
		</g>
		<g>
			<title> (ctg18_56)</title>
			<polygon class=" (ctg18_56)" points="1418,25 1419,25 1419,10 1449,40 1419,70 1419,55 1418,55" fill="rgb(255,255,255)" fill-opacity="1.0" stroke="rgb(0,0,0)" stroke-width="2"  />
			<g>
				<title>2-Hacid_dh_C (PF02826)
"D-isomer specific 2-hydroxyacid dehydrogenase, NAD binding domain"</title>
				<polygon class="PF02826" points="1428,28 1433,28 1445,40 1445,40 1433,52 1428,52" stroke-linejoin="round" width="17" height="24" fill="rgb(192,197,93)" stroke="rgb(153,157,74)" stroke-width="1" opacity="0.75" />
			</g>
		</g>
	</g>
</svg>
