<svg version="1.1" baseProfile="full" xmlns="http://www.w3.org/2000/svg" width="1637.0333333333333" height="80">
	<g>
		<line x1="10" y1="40.0" x2="1627.0333333333333" y2="40.0" style="stroke:rgb(70,70,70); stroke-width:3 "/>
		<g>
			<title> (ctg3_223)</title>
			<polygon class=" (ctg3_223)" points="28,25 35,25 35,10 65,40 35,70 35,55 28,55" fill="rgb(255,255,255)" fill-opacity="1.0" stroke="rgb(0,0,0)" stroke-width="2"  />
			<g>
				<title>PAD_porph (PF04371)
"Porphyromonas-type peptidyl-arginine deiminase"</title>
				<polygon class="PF04371" points="32,28 49,28 61,40 49,52 32,52" stroke-linejoin="round" width="33" height="24" fill="rgb(68,195,113)" stroke="rgb(54,156,90)" stroke-width="1" opacity="0.75" />
			</g>
		</g>
		<g>
			<title> (ctg3_224)</title>
			<polygon class=" (ctg3_224)" points="67,40 89,10 89,70" fill="rgb(255,255,255)" fill-opacity="1.0" stroke="rgb(0,0,0)" stroke-width="2"  />
			<g>
				<title>TetR_C_3 (PF08362)
"YcdC-like protein, C-terminal region"</title>
				<polygon class="PF08362" points="71,40 80,28 80,28 80,52 80,52" stroke-linejoin="round" width="10" height="24" fill="rgb(208,186,82)" stroke="rgb(166,148,65)" stroke-width="1" opacity="0.75" />
			</g>
			<g>
				<title>TetR_N (PF00440)
"Bacterial regulatory proteins, tetR family"</title>
				<rect class="PF00440" x="81" y="28" stroke-linejoin="round" width="4" height="24" fill="rgb(73,212,190)" stroke="rgb(58,169,152)" stroke-width="1" opacity="0.75" />
			</g>
		</g>
		<g>
			<title> (ctg3_225)</title>
			<polygon class=" (ctg3_225)" points="92,25 112,25 112,10 142,40 112,70 112,55 92,55" fill="rgb(255,255,255)" fill-opacity="1.0" stroke="rgb(0,0,0)" stroke-width="2"  />
			<g>
				<title>MFS_1 (PF07690)
"Major Facilitator Superfamily"</title>
				<polygon class="PF07690" points="94,28 126,28 133,35 133,45 126,52 94,52" stroke-linejoin="round" width="39" height="24" fill="rgb(193,224,74)" stroke="rgb(154,179,59)" stroke-width="1" opacity="0.75" />
			</g>
		</g>
		<g>
			<title> (ctg3_226)</title>
			<polygon class=" (ctg3_226)" points="147,25 155,25 155,10 185,40 155,70 155,55 147,55" fill="rgb(255,255,255)" fill-opacity="1.0" stroke="rgb(0,0,0)" stroke-width="2"  />
			<g>
				<title>HlyD_D23 (PF16576)
"Barrel-sandwich domain of CusB or HlyD membrane-fusion"</title>
				<polygon class="PF16576" points="151,28 168,28 175,35 175,45 168,52 151,52" stroke-linejoin="round" width="24" height="24" fill="rgb(70,190,92)" stroke="rgb(56,152,73)" stroke-width="1" opacity="0.75" />
			</g>
		</g>
		<g>
			<title> (ctg3_227)</title>
			<polygon class=" (ctg3_227)" points="185,25 259,25 259,10 289,40 259,70 259,55 185,55" fill="rgb(255,255,255)" fill-opacity="1.0" stroke="rgb(0,0,0)" stroke-width="2"  />
			<g>
				<title>ACR_tran (PF00873)
"AcrB/AcrD/AcrF family"</title>
				<polygon class="PF00873" points="185,28 273,28 285,40 273,52 185,52" stroke-linejoin="round" width="102" height="24" fill="rgb(63,191,60)" stroke="rgb(50,152,48)" stroke-width="1" opacity="0.75" />
			</g>
		</g>
		<g>
			<title> (ctg3_228)</title>
			<polygon class=" (ctg3_228)" points="289,25 307,25 307,10 337,40 307,70 307,55 289,55" fill="rgb(255,255,255)" fill-opacity="1.0" stroke="rgb(0,0,0)" stroke-width="2"  />
			<g>
				<title>OEP (PF02321)
"Outer membrane efflux protein"</title>
				<rect class="PF02321" x="295" y="28" stroke-linejoin="round" width="18" height="24" fill="rgb(205,57,201)" stroke="rgb(164,45,160)" stroke-width="1" opacity="0.75" />
			</g>
			<g>
				<title>OEP (PF02321)
"Outer membrane efflux protein"</title>
				<polygon class="PF02321" points="316,28 320,28 332,40 320,52 316,52" stroke-linejoin="round" width="18" height="24" fill="rgb(205,57,201)" stroke="rgb(164,45,160)" stroke-width="1" opacity="0.75" />
			</g>
		</g>
		<g>
			<title> (ctg3_229)</title>
			<polygon class=" (ctg3_229)" points="343,10 354,40 343,70" fill="rgb(255,255,255)" fill-opacity="1.0" stroke="rgb(0,0,0)" stroke-width="2"  />
			<g>
				<title>DUF1493 (PF07377)
"Protein of unknown function (DUF1493)"</title>
				<polygon class="PF07377" points="343,28 346,28 351,40 346,52 343,52" stroke-linejoin="round" width="10" height="24" fill="rgb(191,125,80)" stroke="rgb(152,100,64)" stroke-width="1" opacity="0.75" />
			</g>
		</g>
		<g>
			<title> (ctg3_230)</title>
			<polygon class=" (ctg3_230)" points="355,40 374,10 374,70" fill="rgb(255,255,255)" fill-opacity="1.0" stroke="rgb(0,0,0)" stroke-width="2"  />
			<g>
				<title>DJ-1_PfpI (PF01965)
"DJ-1/PfpI family"</title>
				<polygon class="PF01965" points="359,40 367,28 373,28 373,52 367,52" stroke-linejoin="round" width="18" height="24" fill="rgb(66,224,145)" stroke="rgb(52,179,116)" stroke-width="1" opacity="0.75" />
			</g>
		</g>
		<g>
			<title> (ctg3_231)</title>
			<polygon class=" (ctg3_231)" points="378,25 399,25 399,10 429,40 399,70 399,55 378,55" fill="rgb(255,255,255)" fill-opacity="1.0" stroke="rgb(0,0,0)" stroke-width="2"  />
			<g>
				<title>AMP-binding (PF00501)
"AMP-binding enzyme"</title>
				<polygon class="PF00501" points="378,28 413,28 419,34 419,46 413,52 378,52" stroke-linejoin="round" width="41" height="24" fill="rgb(60,217,223)" stroke="rgb(48,173,178)" stroke-width="1" opacity="0.75" />
			</g>
			<g>
				<title>AMP-binding_C (PF13193)
"AMP-binding enzyme C-terminal domain"</title>
				<polygon class="PF13193" points="420,35 425,40 420,45" stroke-linejoin="round" width="7" height="24" fill="rgb(182,50,118)" stroke="rgb(145,39,94)" stroke-width="1" opacity="0.75" />
			</g>
		</g>
		<g>
			<title> (ctg3_232)</title>
			<polygon class=" (ctg3_232)" points="473,25 461,25 461,10 431,40 461,70 461,55 473,55" fill="rgb(255,255,255)" fill-opacity="1.0" stroke="rgb(0,0,0)" stroke-width="2"  />
			<g>
				<title>ELFV_dehydrog (PF00208)
"Glutamate/Leucine/Phenylalanine/Valine dehydrogenase"</title>
				<polygon class="PF00208" points="435,40 447,28 454,28 454,52 447,52" stroke-linejoin="round" width="23" height="24" fill="rgb(181,160,45)" stroke="rgb(144,128,36)" stroke-width="1" opacity="0.75" />
			</g>
			<g>
				<title>ELFV_dehydrog_N (PF02812)
"Glu/Leu/Phe/Val dehydrogenase, dimerisation domain"</title>
				<rect class="PF02812" x="456" y="28" stroke-linejoin="round" width="12" height="24" fill="rgb(157,52,200)" stroke="rgb(125,41,160)" stroke-width="1" opacity="0.75" />
			</g>
		</g>
		<g>
			<title> (ctg3_233)</title>
			<polygon class=" (ctg3_233)" points="492,40 503,10 503,70" fill="rgb(255,255,255)" fill-opacity="1.0" stroke="rgb(0,0,0)" stroke-width="2"  />
		</g>
		<g>
			<title> (ctg3_234)</title>
			<polygon class=" (ctg3_234)" points="520,10 540,40 520,70" fill="rgb(255,255,255)" fill-opacity="1.0" stroke="rgb(0,0,0)" stroke-width="2"  />
			<g>
				<title>PAS_6 (PF08348)
"YheO-like PAS domain"</title>
				<polygon class="PF08348" points="520,28 528,28 530,30 530,50 528,52 520,52" stroke-linejoin="round" width="10" height="24" fill="rgb(214,82,179)" stroke="rgb(171,65,143)" stroke-width="1" opacity="0.75" />
			</g>
			<g>
				<title>HTH_22 (PF13309)
"HTH domain"</title>
				<polygon class="PF13309" points="533,35 537,40 533,45" stroke-linejoin="round" width="6" height="24" fill="rgb(61,217,91)" stroke="rgb(48,173,72)" stroke-width="1" opacity="0.75" />
			</g>
		</g>
		<g>
			<title> (ctg3_235)</title>
			<polygon class=" (ctg3_235)" points="616,25 573,25 573,10 543,40 573,70 573,55 616,55" fill="rgb(255,255,255)" fill-opacity="1.0" stroke="rgb(0,0,0)" stroke-width="2"  />
			<g>
				<title>TonB_dep_Rec (PF00593)
"TonB dependent receptor"</title>
				<polygon class="PF00593" points="547,40 559,28 590,28 590,52 559,52" stroke-linejoin="round" width="47" height="24" fill="rgb(171,200,51)" stroke="rgb(136,160,40)" stroke-width="1" opacity="0.75" />
			</g>
			<g>
				<title>Plug (PF07715)
"TonB-dependent Receptor Plug Domain"</title>
				<rect class="PF07715" x="598" y="28" stroke-linejoin="round" width="10" height="24" fill="rgb(99,133,214)" stroke="rgb(79,106,171)" stroke-width="1" opacity="0.75" />
			</g>
		</g>
		<g>
			<title> (ctg3_236)</title>
			<polygon class=" (ctg3_236)" points="622,25 635,25 635,10 665,40 635,70 635,55 622,55" fill="rgb(255,255,255)" fill-opacity="1.0" stroke="rgb(0,0,0)" stroke-width="2"  />
			<g>
				<title>Enterochelin_N (PF11806)
"Enterochelin esterase, N-terminal"</title>
				<rect class="PF11806" x="627" y="28" stroke-linejoin="round" width="13" height="24" fill="rgb(49,154,189)" stroke="rgb(39,123,151)" stroke-width="1" opacity="0.75" />
			</g>
			<g>
				<title>Esterase (PF00756)
"Putative esterase"</title>
				<polygon class="PF00756" points="642,28 649,28 661,40 649,52 642,52" stroke-linejoin="round" width="22" height="24" fill="rgb(217,132,77)" stroke="rgb(173,105,61)" stroke-width="1" opacity="0.75" />
			</g>
		</g>
		<g>
			<title> (ctg3_237)</title>
			<polygon class=" (ctg3_237)" points="667,10 674,40 667,70" fill="rgb(255,255,255)" fill-opacity="1.0" stroke="rgb(0,0,0)" stroke-width="2"  />
			<g>
				<title>MbtH (PF03621)
"MbtH-like protein"</title>
				<polygon class="PF03621" points="667,28 667,28 671,40 667,52 667,52" stroke-linejoin="round" width="5" height="24" fill="rgb(212,165,97)" stroke="rgb(169,132,77)" stroke-width="1" opacity="0.75" />
			</g>
		</g>
		<g>
			<title> (ctg3_238)</title>
			<polygon class=" (ctg3_238)" points="676,25 929,25 929,10 959,40 929,70 929,55 676,55" fill="rgb(255,255,255)" fill-opacity="1.0" stroke="rgb(0,0,0)" stroke-width="2"  />
			<g>
				<title>Condensation (PF00668)
"Condensation domain"</title>
				<rect class="PF00668" x="677" y="28" stroke-linejoin="round" width="44" height="24" fill="rgb(224,184,98)" stroke="rgb(179,147,78)" stroke-width="1" opacity="0.75" />
			</g>
			<g>
				<title>AMP-binding (PF00501)
"AMP-binding enzyme"</title>
				<rect class="PF00501" x="724" y="28" stroke-linejoin="round" width="41" height="24" fill="rgb(60,217,223)" stroke="rgb(48,173,178)" stroke-width="1" opacity="0.75" />
			</g>
			<g>
				<title>AMP-binding_C (PF13193)
"AMP-binding enzyme C-terminal domain"</title>
				<rect class="PF13193" x="765" y="28" stroke-linejoin="round" width="7" height="24" fill="rgb(182,50,118)" stroke="rgb(145,39,94)" stroke-width="1" opacity="0.75" />
			</g>
			<g>
				<title>PP-binding (PF00550)
"Phosphopantetheine attachment site"</title>
				<rect class="PF00550" x="776" y="28" stroke-linejoin="round" width="6" height="24" fill="rgb(103,191,88)" stroke="rgb(82,152,70)" stroke-width="1" opacity="0.75" />
			</g>
			<g>
				<title>Condensation (PF00668)
"Condensation domain"</title>
				<rect class="PF00668" x="784" y="28" stroke-linejoin="round" width="43" height="24" fill="rgb(224,184,98)" stroke="rgb(179,147,78)" stroke-width="1" opacity="0.75" />
			</g>
			<g>
				<title>Condensation (PF00668)
"Condensation domain"</title>
				<rect class="PF00668" x="831" y="28" stroke-linejoin="round" width="42" height="24" fill="rgb(224,184,98)" stroke="rgb(179,147,78)" stroke-width="1" opacity="0.75" />
			</g>
			<g>
				<title>AMP-binding (PF00501)
"AMP-binding enzyme"</title>
				<rect class="PF00501" x="875" y="28" stroke-linejoin="round" width="40" height="24" fill="rgb(60,217,223)" stroke="rgb(48,173,178)" stroke-width="1" opacity="0.75" />
			</g>
			<g>
				<title>AMP-binding_C (PF13193)
"AMP-binding enzyme C-terminal domain"</title>
				<rect class="PF13193" x="916" y="28" stroke-linejoin="round" width="8" height="24" fill="rgb(182,50,118)" stroke="rgb(145,39,94)" stroke-width="1" opacity="0.75" />
			</g>
			<g>
				<title>PP-binding (PF00550)
"Phosphopantetheine attachment site"</title>
				<rect class="PF00550" x="927" y="28" stroke-linejoin="round" width="6" height="24" fill="rgb(103,191,88)" stroke="rgb(82,152,70)" stroke-width="1" opacity="0.75" />
			</g>
			<g>
				<title>Thioesterase (PF00975)
"Thioesterase domain"</title>
				<polygon class="PF00975" points="936,28 943,28 955,40 943,52 936,52" stroke-linejoin="round" width="22" height="24" fill="rgb(207,80,138)" stroke="rgb(165,63,110)" stroke-width="1" opacity="0.75" />
			</g>
		</g>
		<g>
			<title> (ctg3_239)</title>
			<polygon class=" (ctg3_239)" points="962,25 974,25 974,10 1004,40 974,70 974,55 962,55" fill="rgb(255,255,255)" fill-opacity="1.0" stroke="rgb(0,0,0)" stroke-width="2"  />
			<g>
				<title>MFS_1 (PF07690)
"Major Facilitator Superfamily"</title>
				<polygon class="PF07690" points="964,28 988,28 998,38 998,42 988,52 964,52" stroke-linejoin="round" width="34" height="24" fill="rgb(193,224,74)" stroke="rgb(154,179,59)" stroke-width="1" opacity="0.75" />
			</g>
		</g>
		<g>
			<title> (ctg3_240)</title>
			<polygon class=" (ctg3_240)" points="1005,40 1017,10 1017,70" fill="rgb(255,255,255)" fill-opacity="1.0" stroke="rgb(0,0,0)" stroke-width="2"  />
			<g>
				<title>HxlR (PF01638)
"HxlR-like helix-turn-helix"</title>
				<polygon class="PF01638" points="1008,40 1013,28 1014,28 1014,52 1013,52" stroke-linejoin="round" width="9" height="24" fill="rgb(91,150,227)" stroke="rgb(72,119,181)" stroke-width="1" opacity="0.75" />
			</g>
		</g>
		<g>
			<title> (ctg3_241)</title>
			<polygon class=" (ctg3_241)" points="1020,10 1038,40 1020,70" fill="rgb(255,255,255)" fill-opacity="1.0" stroke="rgb(0,0,0)" stroke-width="2"  />
			<g>
				<title>Flavodoxin_2 (PF02525)
"Flavodoxin-like fold"</title>
				<polygon class="PF02525" points="1020,28 1027,28 1034,40 1027,52 1020,52" stroke-linejoin="round" width="16" height="24" fill="rgb(159,188,70)" stroke="rgb(127,150,56)" stroke-width="1" opacity="0.75" />
			</g>
		</g>
		<g>
			<title> (ctg3_242)</title>
			<polygon class=" (ctg3_242)" points="1040,40 1065,10 1065,70" fill="rgb(255,255,255)" fill-opacity="1.0" stroke="rgb(0,0,0)" stroke-width="2"  />
			<g>
				<title>Flavodoxin_2 (PF02525)
"Flavodoxin-like fold"</title>
				<polygon class="PF02525" points="1044,40 1054,28 1065,28 1065,52 1054,52 1044,40" stroke-linejoin="round" width="21" height="24" fill="rgb(159,188,70)" stroke="rgb(127,150,56)" stroke-width="1" opacity="0.75" />
			</g>
		</g>
		<g>
			<title> (ctg3_243)</title>
			<polygon class=" (ctg3_243)" points="1069,10 1098,40 1069,70" fill="rgb(255,255,255)" fill-opacity="1.0" stroke="rgb(0,0,0)" stroke-width="2"  />
			<g>
				<title>HTH_1 (PF00126)
"Bacterial regulatory helix-turn-helix protein, lysR family"</title>
				<rect class="PF00126" x="1069" y="28" stroke-linejoin="round" width="5" height="24" fill="rgb(125,227,79)" stroke="rgb(99,181,63)" stroke-width="1" opacity="0.75" />
			</g>
			<g>
				<title>LysR_substrate (PF03466)
"LysR substrate binding domain"</title>
				<polygon class="PF03466" points="1078,28 1082,28 1094,40 1082,52 1078,52" stroke-linejoin="round" width="20" height="24" fill="rgb(55,136,195)" stroke="rgb(44,108,156)" stroke-width="1" opacity="0.75" />
			</g>
		</g>
		<g>
			<title> (ctg3_244)</title>
			<polygon class=" (ctg3_244)" points="1099,40 1115,10 1115,70" fill="rgb(255,255,255)" fill-opacity="1.0" stroke="rgb(0,0,0)" stroke-width="2"  />
			<g>
				<title>Acetyltransf_1 (PF00583)
"Acetyltransferase (GNAT) family"</title>
				<polygon class="PF00583" points="1102,40 1108,28 1112,28 1112,52 1108,52" stroke-linejoin="round" width="11" height="24" fill="rgb(121,183,50)" stroke="rgb(96,146,39)" stroke-width="1" opacity="0.75" />
			</g>
		</g>
		<g>
			<title> (ctg3_245)</title>
			<polygon class=" (ctg3_245)" points="1119,40 1124,10 1124,70" fill="rgb(255,255,255)" fill-opacity="1.0" stroke="rgb(0,0,0)" stroke-width="2"  />
		</g>
		<g>
			<title> (ctg3_246)</title>
			<polygon class=" (ctg3_246)" points="1197,25 1159,25 1159,10 1129,40 1159,70 1159,55 1197,55" fill="rgb(255,255,255)" fill-opacity="1.0" stroke="rgb(0,0,0)" stroke-width="2"  />
			<g>
				<title>TonB_dep_Rec (PF00593)
"TonB dependent receptor"</title>
				<polygon class="PF00593" points="1133,40 1145,28 1177,28 1177,52 1145,52" stroke-linejoin="round" width="48" height="24" fill="rgb(171,200,51)" stroke="rgb(136,160,40)" stroke-width="1" opacity="0.75" />
			</g>
			<g>
				<title>Plug (PF07715)
"TonB-dependent Receptor Plug Domain"</title>
				<rect class="PF07715" x="1182" y="28" stroke-linejoin="round" width="10" height="24" fill="rgb(99,133,214)" stroke="rgb(79,106,171)" stroke-width="1" opacity="0.75" />
			</g>
		</g>
		<g>
			<title> (ctg3_247)</title>
			<polygon class=" (ctg3_247)" points="1205,40 1215,10 1215,70" fill="rgb(255,255,255)" fill-opacity="1.0" stroke="rgb(0,0,0)" stroke-width="2"  />
			<g>
				<title>DUF2946 (PF11162)
"Protein of unknown function (DUF2946)"</title>
				<polygon class="PF11162" points="1208,40 1212,28 1214,28 1214,52 1212,52" stroke-linejoin="round" width="9" height="24" fill="rgb(216,104,195)" stroke="rgb(172,83,156)" stroke-width="1" opacity="0.75" />
			</g>
		</g>
		<g>
			<title> (ctg3_248)</title>
			<polygon class=" (ctg3_248)" points="1226,10 1246,40 1226,70" fill="rgb(255,255,255)" fill-opacity="1.0" stroke="rgb(0,0,0)" stroke-width="2"  />
			<g>
				<title>Methyltransf_25 (PF13649)
"Methyltransferase domain"</title>
				<polygon class="PF13649" points="1230,28 1234,28 1238,34 1238,46 1234,52 1230,52" stroke-linejoin="round" width="8" height="24" fill="rgb(227,135,74)" stroke="rgb(181,108,59)" stroke-width="1" opacity="0.75" />
			</g>
		</g>
		<g>
			<title> (ctg3_249)</title>
			<polygon class=" (ctg3_249)" points="1291,25 1278,25 1278,10 1248,40 1278,70 1278,55 1291,55" fill="rgb(255,255,255)" fill-opacity="1.0" stroke="rgb(0,0,0)" stroke-width="2"  />
			<g>
				<title>GSDH (PF07995)
"Glucose / Sorbosone dehydrogenase"</title>
				<polygon class="PF07995" points="1255,37 1264,28 1283,28 1283,52 1264,52 1255,43" stroke-linejoin="round" width="28" height="24" fill="rgb(199,57,124)" stroke="rgb(159,45,99)" stroke-width="1" opacity="0.75" />
			</g>
		</g>
		<g>
			<title> (ctg3_250)</title>
			<polygon class=" (ctg3_250)" points="1292,40 1306,10 1306,70" fill="rgb(255,255,255)" fill-opacity="1.0" stroke="rgb(0,0,0)" stroke-width="2"  />
			<g>
				<title>DUF2231 (PF09990)
"Predicted membrane protein (DUF2231)"</title>
				<polygon class="PF09990" points="1295,40 1301,28 1304,28 1304,52 1301,52" stroke-linejoin="round" width="12" height="24" fill="rgb(86,187,169)" stroke="rgb(68,149,135)" stroke-width="1" opacity="0.75" />
			</g>
		</g>
		<g>
			<title> (ctg3_251)</title>
			<polygon class=" (ctg3_251)" points="1311,10 1326,40 1311,70" fill="rgb(255,255,255)" fill-opacity="1.0" stroke="rgb(0,0,0)" stroke-width="2"  />
			<g>
				<title>tRNA_edit (PF04073)
"Aminoacyl-tRNA editing domain"</title>
				<polygon class="PF04073" points="1313,28 1316,28 1322,40 1316,52 1313,52" stroke-linejoin="round" width="11" height="24" fill="rgb(87,163,195)" stroke="rgb(69,130,156)" stroke-width="1" opacity="0.75" />
			</g>
		</g>
		<g>
			<title> (ctg3_252)</title>
			<polygon class=" (ctg3_252)" points="1329,40 1341,10 1341,70" fill="rgb(255,255,255)" fill-opacity="1.0" stroke="rgb(0,0,0)" stroke-width="2"  />
		</g>
		<g>
			<title> (ctg3_253)</title>
			<polygon class=" (ctg3_253)" points="1385,40 1397,10 1397,70" fill="rgb(255,255,255)" fill-opacity="1.0" stroke="rgb(0,0,0)" stroke-width="2"  />
			<g>
				<title>DUF4440 (PF14534)
"Domain of unknown function (DUF4440)"</title>
				<polygon class="PF14534" points="1388,40 1393,28 1396,28 1396,52 1393,52" stroke-linejoin="round" width="10" height="24" fill="rgb(63,159,224)" stroke="rgb(50,127,179)" stroke-width="1" opacity="0.75" />
			</g>
		</g>
		<g>
			<title> (ctg3_254)</title>
			<polygon class=" (ctg3_254)" points="1400,40 1417,10 1417,70" fill="rgb(255,255,255)" fill-opacity="1.0" stroke="rgb(0,0,0)" stroke-width="2"  />
		</g>
		<g>
			<title> (ctg3_255)</title>
			<polygon class=" (ctg3_255)" points="1452,25 1449,25 1449,10 1419,40 1449,70 1449,55 1452,55" fill="rgb(255,255,255)" fill-opacity="1.0" stroke="rgb(0,0,0)" stroke-width="2"  />
			<g>
				<title>Peripla_BP_1 (PF00532)
"Periplasmic binding proteins and sugar binding domain of LacI family"</title>
				<polygon class="PF00532" points="1423,40 1435,28 1445,28 1445,52 1435,52 1423,40" stroke-linejoin="round" width="22" height="24" fill="rgb(170,185,72)" stroke="rgb(136,148,57)" stroke-width="1" opacity="0.75" />
			</g>
			<g>
				<title>LacI (PF00356)
"Bacterial regulatory proteins, lacI family"</title>
				<rect class="PF00356" x="1447" y="28" stroke-linejoin="round" width="4" height="24" fill="rgb(66,188,63)" stroke="rgb(52,150,50)" stroke-width="1" opacity="0.75" />
			</g>
		</g>
		<g>
			<title> (ctg3_256)</title>
			<polygon class=" (ctg3_256)" points="1463,25 1463,25 1463,10 1493,40 1463,70 1463,55 1463,55" fill="rgb(255,255,255)" fill-opacity="1.0" stroke="rgb(0,0,0)" stroke-width="2"  />
			<g>
				<title>Peripla_BP_4 (PF13407)
"Periplasmic binding protein domain"</title>
				<polygon class="PF13407" points="1465,28 1477,28 1489,40 1477,52 1465,52" stroke-linejoin="round" width="25" height="24" fill="rgb(124,182,50)" stroke="rgb(99,145,39)" stroke-width="1" opacity="0.75" />
			</g>
		</g>
		<g>
			<title> (ctg3_257)</title>
			<polygon class=" (ctg3_257)" points="1496,25 1505,25 1505,10 1535,40 1505,70 1505,55 1496,55" fill="rgb(255,255,255)" fill-opacity="1.0" stroke="rgb(0,0,0)" stroke-width="2"  />
			<g>
				<title>GFO_IDH_MocA (PF01408)
"Oxidoreductase family, NAD-binding Rossmann fold"</title>
				<rect class="PF01408" x="1497" y="28" stroke-linejoin="round" width="13" height="24" fill="rgb(76,117,190)" stroke="rgb(60,93,152)" stroke-width="1" opacity="0.75" />
			</g>
			<g>
				<title>GFO_IDH_MocA_C (PF02894)
"Oxidoreductase family, C-terminal alpha/beta domain"</title>
				<polygon class="PF02894" points="1511,28 1518,28 1530,40 1518,52 1511,52" stroke-linejoin="round" width="23" height="24" fill="rgb(195,223,82)" stroke="rgb(155,178,65)" stroke-width="1" opacity="0.75" />
			</g>
		</g>
		<g>
			<title> (ctg3_258)</title>
			<polygon class=" (ctg3_258)" points="1535,25 1536,25 1536,10 1566,40 1536,70 1536,55 1535,55" fill="rgb(255,255,255)" fill-opacity="1.0" stroke="rgb(0,0,0)" stroke-width="2"  />
			<g>
				<title>AP_endonuc_2 (PF01261)
"Xylose isomerase-like TIM barrel"</title>
				<polygon class="PF01261" points="1536,28 1550,28 1562,40 1550,52 1536,52" stroke-linejoin="round" width="29" height="24" fill="rgb(69,222,207)" stroke="rgb(55,177,165)" stroke-width="1" opacity="0.75" />
			</g>
		</g>
		<g>
			<title> (ctg3_259)</title>
			<polygon class=" (ctg3_259)" points="1599,25 1598,25 1598,10 1568,40 1598,70 1598,55 1599,55" fill="rgb(255,255,255)" fill-opacity="1.0" stroke="rgb(0,0,0)" stroke-width="2"  />
			<g>
				<title>HTH_18 (PF12833)
"Helix-turn-helix domain"</title>
				<polygon class="PF12833" points="1572,40 1576,36 1576,44" stroke-linejoin="round" width="7" height="24" fill="rgb(216,58,224)" stroke="rgb(172,46,179)" stroke-width="1" opacity="0.75" />
			</g>
			<g>
				<title>Cupin_6 (PF12852)
"Cupin"</title>
				<polygon class="PF12852" points="1580,32 1584,28 1598,28 1598,52 1584,52 1580,48" stroke-linejoin="round" width="18" height="24" fill="rgb(152,181,77)" stroke="rgb(121,144,61)" stroke-width="1" opacity="0.75" />
			</g>
		</g>
	</g>
</svg>
