<svg version="1.1" baseProfile="full" xmlns="http://www.w3.org/2000/svg" width="758.9" height="80">
	<g>
		<line x1="10" y1="40.0" x2="748.9" y2="40.0" style="stroke:rgb(70,70,70); stroke-width:3 "/>
		<g>
			<title> (ctg1_834)</title>
			<polygon class=" (ctg1_834)" points="31,10 46,40 31,70" fill="rgb(255,255,255)" fill-opacity="1.0" stroke="rgb(0,0,0)" stroke-width="2"  />
			<g>
				<title>HTH_24 (PF13412)
"Winged helix-turn-helix DNA-binding"</title>
				<rect class="PF13412" x="31" y="28" stroke-linejoin="round" width="4" height="24" fill="rgb(222,79,68)" stroke="rgb(177,63,54)" stroke-width="1" opacity="0.75" />
			</g>
			<g>
				<title>AsnC_trans_reg (PF01037)
"Lrp/AsnC ligand binding domain"</title>
				<polygon class="PF01037" points="38,31 43,40 38,49" stroke-linejoin="round" width="7" height="24" fill="rgb(134,72,182)" stroke="rgb(107,57,145)" stroke-width="1" opacity="0.75" />
			</g>
		</g>
		<g>
			<title> (ctg1_835)</title>
			<polygon class=" (ctg1_835)" points="51,25 51,25 51,10 81,40 51,70 51,55 51,55" fill="rgb(255,255,255)" fill-opacity="1.0" stroke="rgb(0,0,0)" stroke-width="2"  />
			<g>
				<title>DeoC (PF01791)
"DeoC/LacD family aldolase"</title>
				<polygon class="PF01791" points="55,28 65,28 77,40 65,52 55,52" stroke-linejoin="round" width="24" height="24" fill="rgb(151,59,198)" stroke="rgb(120,47,158)" stroke-width="1" opacity="0.75" />
			</g>
		</g>
		<g>
			<title> (ctg1_836)</title>
			<polygon class=" (ctg1_836)" points="84,10 97,40 84,70" fill="rgb(255,255,255)" fill-opacity="1.0" stroke="rgb(0,0,0)" stroke-width="2"  />
			<g>
				<title>FUR (PF01475)
"Ferric uptake regulator family"</title>
				<polygon class="PF01475" points="84,28 88,28 94,40 88,52 84,52" stroke-linejoin="round" width="12" height="24" fill="rgb(167,195,50)" stroke="rgb(133,156,40)" stroke-width="1" opacity="0.75" />
			</g>
		</g>
		<g>
			<title> (ctg1_837)</title>
			<polygon class=" (ctg1_837)" points="102,10 109,40 102,70" fill="rgb(255,255,255)" fill-opacity="1.0" stroke="rgb(0,0,0)" stroke-width="2"  />
		</g>
		<g>
			<title> (ctg1_838)</title>
			<polygon class=" (ctg1_838)" points="112,40 124,10 124,70" fill="rgb(255,255,255)" fill-opacity="1.0" stroke="rgb(0,0,0)" stroke-width="2"  />
			<g>
				<title>Response_reg (PF00072)
"Response regulator receiver domain"</title>
				<polygon class="PF00072" points="115,40 120,28 122,28 122,52 120,52" stroke-linejoin="round" width="10" height="24" fill="rgb(100,107,203)" stroke="rgb(80,85,162)" stroke-width="1" opacity="0.75" />
			</g>
		</g>
		<g>
			<title> (ctg1_839)</title>
			<polygon class=" (ctg1_839)" points="162,25 155,25 155,10 125,40 155,70 155,55 162,55" fill="rgb(255,255,255)" fill-opacity="1.0" stroke="rgb(0,0,0)" stroke-width="2"  />
			<g>
				<title>HWE_HK (PF07536)
"HWE histidine kinase"</title>
				<polygon class="PF07536" points="136,33 141,28 143,28 143,52 141,52 136,47" stroke-linejoin="round" width="7" height="24" fill="rgb(73,191,195)" stroke="rgb(58,152,156)" stroke-width="1" opacity="0.75" />
			</g>
		</g>
		<g>
			<title> (ctg1_840)</title>
			<polygon class=" (ctg1_840)" points="168,40 182,10 182,70" fill="rgb(255,255,255)" fill-opacity="1.0" stroke="rgb(0,0,0)" stroke-width="2"  />
			<g>
				<title>MerR-DNA-bind (PF09278)
"MerR, DNA binding"</title>
				<polygon class="PF09278" points="171,40 176,29 176,51" stroke-linejoin="round" width="6" height="24" fill="rgb(152,80,196)" stroke="rgb(121,64,156)" stroke-width="1" opacity="0.75" />
			</g>
		</g>
		<g>
			<title> (ctg1_841)</title>
			<polygon class=" (ctg1_841)" points="186,40 200,10 200,70" fill="rgb(255,255,255)" fill-opacity="1.0" stroke="rgb(0,0,0)" stroke-width="2"  />
			<g>
				<title>Cytochrom_C (PF00034)
"Cytochrome c"</title>
				<polygon class="PF00034" points="189,40 195,28 197,28 197,52 195,52" stroke-linejoin="round" width="10" height="24" fill="rgb(130,184,61)" stroke="rgb(104,147,48)" stroke-width="1" opacity="0.75" />
			</g>
		</g>
		<g>
			<title> (ctg1_842)</title>
			<polygon class=" (ctg1_842)" points="207,10 232,40 207,70" fill="rgb(255,255,255)" fill-opacity="1.0" stroke="rgb(0,0,0)" stroke-width="2"  />
			<g>
				<title>OMP_b-brl (PF13505)
"Outer membrane protein beta-barrel domain"</title>
				<polygon class="PF13505" points="207,28 218,28 228,40 218,52 207,52" stroke-linejoin="round" width="24" height="24" fill="rgb(200,118,85)" stroke="rgb(160,94,67)" stroke-width="1" opacity="0.75" />
			</g>
		</g>
		<g>
			<title> (ctg1_843)</title>
			<polygon class=" (ctg1_843)" points="266,25 265,25 265,10 235,40 265,70 265,55 266,55" fill="rgb(255,255,255)" fill-opacity="1.0" stroke="rgb(0,0,0)" stroke-width="2"  />
			<g>
				<title>PfkB (PF00294)
"pfkB family carbohydrate kinase"</title>
				<polygon class="PF00294" points="239,40 251,28 265,28 265,52 251,52" stroke-linejoin="round" width="30" height="24" fill="rgb(153,96,212)" stroke="rgb(122,76,169)" stroke-width="1" opacity="0.75" />
			</g>
		</g>
		<g>
			<title> (ctg1_844)</title>
			<polygon class=" (ctg1_844)" points="271,25 274,25 274,10 304,40 274,70 274,55 271,55" fill="rgb(255,255,255)" fill-opacity="1.0" stroke="rgb(0,0,0)" stroke-width="2"  />
			<g>
				<title>Asparaginase_II (PF06089)
"L-asparaginase II"</title>
				<polygon class="PF06089" points="271,28 288,28 300,40 288,52 271,52" stroke-linejoin="round" width="32" height="24" fill="rgb(209,140,63)" stroke="rgb(167,112,50)" stroke-width="1" opacity="0.75" />
			</g>
		</g>
		<g>
			<title> (ctg1_845)</title>
			<polygon class=" (ctg1_845)" points="313,25 313,25 313,10 343,40 313,70 313,55 313,55" fill="rgb(255,255,255)" fill-opacity="1.0" stroke="rgb(0,0,0)" stroke-width="2"  />
			<g>
				<title>Lactamase_B_2 (PF12706)
"Beta-lactamase superfamily domain"</title>
				<polygon class="PF12706" points="317,28 327,28 339,40 339,40 327,52 317,52" stroke-linejoin="round" width="22" height="24" fill="rgb(62,169,197)" stroke="rgb(49,135,157)" stroke-width="1" opacity="0.75" />
			</g>
		</g>
		<g>
			<title> (ctg1_846)</title>
			<polygon class=" (ctg1_846)" points="343,10 368,40 343,70" fill="rgb(255,255,255)" fill-opacity="1.0" stroke="rgb(0,0,0)" stroke-width="2"  />
			<g>
				<title>TENA_THI-4 (PF03070)
"TENA/THI-4/PQQC family"</title>
				<polygon class="PF03070" points="344,28 354,28 364,40 354,52 344,52" stroke-linejoin="round" width="21" height="24" fill="rgb(95,149,219)" stroke="rgb(76,119,175)" stroke-width="1" opacity="0.75" />
			</g>
		</g>
		<g>
			<title> (ctg1_847)</title>
			<polygon class=" (ctg1_847)" points="368,10 377,40 368,70" fill="rgb(255,255,255)" fill-opacity="1.0" stroke="rgb(0,0,0)" stroke-width="2"  />
			<g>
				<title>PqqD (PF05402)
"Coenzyme PQQ synthesis protein D (PqqD)"</title>
				<polygon class="PF05402" points="370,28 370,28 374,40 370,52 370,52" stroke-linejoin="round" width="6" height="24" fill="rgb(124,62,188)" stroke="rgb(99,49,150)" stroke-width="1" opacity="0.75" />
			</g>
		</g>
		<g>
			<title> (ctg1_848)</title>
			<polygon class=" (ctg1_848)" points="377,25 384,25 384,10 414,40 384,70 384,55 377,55" fill="rgb(255,255,255)" fill-opacity="1.0" stroke="rgb(0,0,0)" stroke-width="2"  />
			<g>
				<title>Radical_SAM (PF04055)
"Radical SAM superfamily"</title>
				<rect class="PF04055" x="379" y="28" stroke-linejoin="round" width="15" height="24" fill="rgb(149,56,222)" stroke="rgb(119,44,177)" stroke-width="1" opacity="0.75" />
			</g>
			<g>
				<title>SPASM (PF13186)
"Iron-sulfur cluster-binding domain"</title>
				<polygon class="PF13186" points="402,32 408,38 408,42 402,48" stroke-linejoin="round" width="6" height="24" fill="rgb(183,66,65)" stroke="rgb(146,52,51)" stroke-width="1" opacity="0.75" />
			</g>
		</g>
		<g>
			<title> (ctg1_849)</title>
			<polygon class=" (ctg1_849)" points="451,25 445,25 445,10 415,40 445,70 445,55 451,55" fill="rgb(255,255,255)" fill-opacity="1.0" stroke="rgb(0,0,0)" stroke-width="2"  />
			<g>
				<title>CorA (PF01544)
"CorA-like Mg2+ transporter protein"</title>
				<polygon class="PF01544" points="419,40 431,28 436,28 436,52 431,52" stroke-linejoin="round" width="21" height="24" fill="rgb(65,141,201)" stroke="rgb(52,112,160)" stroke-width="1" opacity="0.75" />
			</g>
			<g>
				<title>CorA (PF01544)
"CorA-like Mg2+ transporter protein"</title>
				<rect class="PF01544" x="437" y="28" stroke-linejoin="round" width="11" height="24" fill="rgb(65,141,201)" stroke="rgb(52,112,160)" stroke-width="1" opacity="0.75" />
			</g>
		</g>
		<g>
			<title> (ctg1_850)</title>
			<polygon class=" (ctg1_850)" points="452,40 463,10 463,70" fill="rgb(255,255,255)" fill-opacity="1.0" stroke="rgb(0,0,0)" stroke-width="2"  />
		</g>
		<g>
			<title> (ctg1_851)</title>
			<polygon class=" (ctg1_851)" points="467,25 487,25 487,10 517,40 487,70 487,55 467,55" fill="rgb(255,255,255)" fill-opacity="1.0" stroke="rgb(0,0,0)" stroke-width="2"  />
			<g>
				<title>HerA_C (PF05872)
"Helicase HerA-like C-terminal"</title>
				<polygon class="PF05872" points="468,28 501,28 513,40 501,52 468,52" stroke-linejoin="round" width="49" height="24" fill="rgb(168,80,185)" stroke="rgb(134,64,148)" stroke-width="1" opacity="0.75" />
			</g>
		</g>
		<g>
			<title> (ctg1_852)</title>
			<polygon class=" (ctg1_852)" points="518,40 541,10 541,70" fill="rgb(255,255,255)" fill-opacity="1.0" stroke="rgb(0,0,0)" stroke-width="2"  />
			<g>
				<title>YkuD (PF03734)
"L,D-transpeptidase catalytic domain"</title>
				<polygon class="PF03734" points="522,40 531,28 532,28 532,52 531,52" stroke-linejoin="round" width="13" height="24" fill="rgb(112,183,75)" stroke="rgb(89,146,60)" stroke-width="1" opacity="0.75" />
			</g>
		</g>
		<g>
			<title> (ctg1_853)</title>
			<polygon class=" (ctg1_853)" points="547,25 547,25 547,10 577,40 547,70 547,55 547,55" fill="rgb(255,255,255)" fill-opacity="1.0" stroke="rgb(0,0,0)" stroke-width="2"  />
			<g>
				<title>Aminotran_4 (PF01063)
"Amino-transferase class IV"</title>
				<polygon class="PF01063" points="550,28 560,28 572,40 572,40 560,52 550,52" stroke-linejoin="round" width="22" height="24" fill="rgb(52,144,188)" stroke="rgb(41,115,150)" stroke-width="1" opacity="0.75" />
			</g>
		</g>
		<g>
			<title> (ctg1_854)</title>
			<polygon class=" (ctg1_854)" points="580,10 600,40 580,70" fill="rgb(255,255,255)" fill-opacity="1.0" stroke="rgb(0,0,0)" stroke-width="2"  />
			<g>
				<title>Sod_Fe_N (PF00081)
"Iron/manganese superoxide dismutases, alpha-hairpin domain"</title>
				<rect class="PF00081" x="580" y="28" stroke-linejoin="round" width="8" height="24" fill="rgb(63,202,157)" stroke="rgb(50,161,125)" stroke-width="1" opacity="0.75" />
			</g>
			<g>
				<title>Sod_Fe_C (PF02777)
"Iron/manganese superoxide dismutases, C-terminal domain"</title>
				<polygon class="PF02777" points="589,29 596,40 589,51" stroke-linejoin="round" width="10" height="24" fill="rgb(193,115,61)" stroke="rgb(154,92,48)" stroke-width="1" opacity="0.75" />
			</g>
		</g>
		<g>
			<title> (ctg1_855)</title>
			<polygon class=" (ctg1_855)" points="671,25 632,25 632,10 602,40 632,70 632,55 671,55" fill="rgb(255,255,255)" fill-opacity="1.0" stroke="rgb(0,0,0)" stroke-width="2"  />
			<g>
				<title>Peptidase_S9 (PF00326)
"Prolyl oligopeptidase family"</title>
				<polygon class="PF00326" points="606,40 618,28 623,28 623,52 618,52" stroke-linejoin="round" width="21" height="24" fill="rgb(77,97,209)" stroke="rgb(61,77,167)" stroke-width="1" opacity="0.75" />
			</g>
			<g>
				<title>Peptidase_S9_N (PF02897)
"Prolyl oligopeptidase, N-terminal beta-propeller domain"</title>
				<rect class="PF02897" x="629" y="28" stroke-linejoin="round" width="40" height="24" fill="rgb(221,215,110)" stroke="rgb(176,172,88)" stroke-width="1" opacity="0.75" />
			</g>
		</g>
		<g>
			<title> (ctg1_856)</title>
			<polygon class=" (ctg1_856)" points="674,40 688,10 688,70" fill="rgb(255,255,255)" fill-opacity="1.0" stroke="rgb(0,0,0)" stroke-width="2"  />
			<g>
				<title>SelR (PF01641)
"SelR domain"</title>
				<polygon class="PF01641" points="677,40 683,28 685,28 685,52 683,52" stroke-linejoin="round" width="11" height="24" fill="rgb(192,99,202)" stroke="rgb(153,79,161)" stroke-width="1" opacity="0.75" />
			</g>
		</g>
	</g>
</svg>
