<svg version="1.1" baseProfile="full" xmlns="http://www.w3.org/2000/svg" width="1729.7666666666667" height="80">
	<g>
		<line x1="10" y1="40.0" x2="1719.7666666666667" y2="40.0" style="stroke:rgb(70,70,70); stroke-width:3 "/>
		<g>
			<title> (ctg7_5)</title>
			<polygon class=" (ctg7_5)" points="93,40 109,10 109,70" fill="rgb(255,255,255)" fill-opacity="1.0" stroke="rgb(0,0,0)" stroke-width="2"  />
		</g>
		<g>
			<title> (ctg7_6)</title>
			<polygon class=" (ctg7_6)" points="113,10 119,40 113,70" fill="rgb(255,255,255)" fill-opacity="1.0" stroke="rgb(0,0,0)" stroke-width="2"  />
		</g>
		<g>
			<title> (ctg7_7)</title>
			<polygon class=" (ctg7_7)" points="119,10 132,40 119,70" fill="rgb(255,255,255)" fill-opacity="1.0" stroke="rgb(0,0,0)" stroke-width="2"  />
		</g>
		<g>
			<title> (ctg7_8)</title>
			<polygon class=" (ctg7_8)" points="207,25 164,25 164,10 134,40 164,70 164,55 207,55" fill="rgb(255,255,255)" fill-opacity="1.0" stroke="rgb(0,0,0)" stroke-width="2"  />
			<g>
				<title>DUF2075 (PF09848)
"Schlafen group 3, DNA/RNA helicase domain"</title>
				<rect class="PF09848" x="151" y="28" stroke-linejoin="round" width="36" height="24" fill="rgb(173,201,69)" stroke="rgb(138,160,55)" stroke-width="1" opacity="0.75" />
			</g>
			<g>
				<title>GIY-YIG (PF01541)
"GIY-YIG catalytic domain"</title>
				<rect class="PF01541" x="196" y="28" stroke-linejoin="round" width="6" height="24" fill="rgb(77,220,57)" stroke="rgb(61,176,45)" stroke-width="1" opacity="0.75" />
			</g>
		</g>
		<g>
			<title> (ctg7_9)</title>
			<polygon class=" (ctg7_9)" points="207,40 217,10 217,70" fill="rgb(255,255,255)" fill-opacity="1.0" stroke="rgb(0,0,0)" stroke-width="2"  />
			<g>
				<title>MazG-like (PF12643)
"MazG-like family"</title>
				<polygon class="PF12643" points="210,40 214,28 214,28 214,52 214,52" stroke-linejoin="round" width="7" height="24" fill="rgb(200,96,198)" stroke="rgb(160,76,158)" stroke-width="1" opacity="0.75" />
			</g>
		</g>
		<g>
			<title> (ctg7_10)</title>
			<polygon class=" (ctg7_10)" points="315,25 254,25 254,10 224,40 254,70 254,55 315,55" fill="rgb(255,255,255)" fill-opacity="1.0" stroke="rgb(0,0,0)" stroke-width="2"  />
		</g>
		<g>
			<title> (ctg7_11)</title>
			<polygon class=" (ctg7_11)" points="351,25 347,25 347,10 317,40 347,70 347,55 351,55" fill="rgb(255,255,255)" fill-opacity="1.0" stroke="rgb(0,0,0)" stroke-width="2"  />
		</g>
		<g>
			<title> (ctg7_12)</title>
			<polygon class=" (ctg7_12)" points="351,40 377,10 377,70" fill="rgb(255,255,255)" fill-opacity="1.0" stroke="rgb(0,0,0)" stroke-width="2"  />
		</g>
		<g>
			<title> (ctg7_13)</title>
			<polygon class=" (ctg7_13)" points="380,40 397,10 397,70" fill="rgb(255,255,255)" fill-opacity="1.0" stroke="rgb(0,0,0)" stroke-width="2"  />
		</g>
		<g>
			<title> (ctg7_14)</title>
			<polygon class=" (ctg7_14)" points="408,40 421,10 421,70" fill="rgb(255,255,255)" fill-opacity="1.0" stroke="rgb(0,0,0)" stroke-width="2"  />
		</g>
		<g>
			<title> (ctg7_15)</title>
			<polygon class=" (ctg7_15)" points="424,40 451,10 451,70" fill="rgb(255,255,255)" fill-opacity="1.0" stroke="rgb(0,0,0)" stroke-width="2"  />
			<g>
				<title>HTH_18 (PF12833)
"Helix-turn-helix domain"</title>
				<polygon class="PF12833" points="428,40 431,37 431,43" stroke-linejoin="round" width="7" height="24" fill="rgb(216,58,224)" stroke="rgb(172,46,179)" stroke-width="1" opacity="0.75" />
			</g>
		</g>
		<g>
			<title> (ctg7_16)</title>
			<polygon class=" (ctg7_16)" points="458,40 476,10 476,70" fill="rgb(255,255,255)" fill-opacity="1.0" stroke="rgb(0,0,0)" stroke-width="2"  />
			<g>
				<title>SecD_SecF (PF02355)
"Protein export membrane protein"</title>
				<polygon class="PF02355" points="462,40 468,30 468,50" stroke-linejoin="round" width="9" height="24" fill="rgb(183,133,79)" stroke="rgb(146,106,63)" stroke-width="1" opacity="0.75" />
			</g>
		</g>
		<g>
			<title> (ctg7_17)</title>
			<polygon class=" (ctg7_17)" points="517,25 506,25 506,10 476,40 506,70 506,55 517,55" fill="rgb(255,255,255)" fill-opacity="1.0" stroke="rgb(0,0,0)" stroke-width="2"  />
		</g>
		<g>
			<title> (ctg7_18)</title>
			<polygon class=" (ctg7_18)" points="560,25 548,25 548,10 518,40 548,70 548,55 560,55" fill="rgb(255,255,255)" fill-opacity="1.0" stroke="rgb(0,0,0)" stroke-width="2"  />
			<g>
				<title>Condensation (PF00668)
"Condensation domain"</title>
				<polygon class="PF00668" points="529,33 534,28 559,28 559,52 534,52 529,47" stroke-linejoin="round" width="30" height="24" fill="rgb(224,184,98)" stroke="rgb(179,147,78)" stroke-width="1" opacity="0.75" />
			</g>
		</g>
		<g>
			<title> (ctg7_19)</title>
			<polygon class=" (ctg7_19)" points="641,25 591,25 591,10 561,40 591,70 591,55 641,55" fill="rgb(255,255,255)" fill-opacity="1.0" stroke="rgb(0,0,0)" stroke-width="2"  />
			<g>
				<title>Glyco_tran_28_C (PF04101)
"Glycosyltransferase family 28 C-terminal domain"</title>
				<polygon class="PF04101" points="565,40 575,30 575,50" stroke-linejoin="round" width="13" height="24" fill="rgb(211,90,140)" stroke="rgb(168,72,112)" stroke-width="1" opacity="0.75" />
			</g>
			<g>
				<title>UDPGT (PF00201)
"UDP-glucoronosyl and UDP-glucosyl transferase"</title>
				<rect class="PF00201" x="603" y="28" stroke-linejoin="round" width="17" height="24" fill="rgb(225,150,107)" stroke="rgb(180,120,85)" stroke-width="1" opacity="0.75" />
			</g>
		</g>
		<g>
			<title> (ctg7_20)</title>
			<polygon class=" (ctg7_20)" points="641,40 667,10 667,70" fill="rgb(255,255,255)" fill-opacity="1.0" stroke="rgb(0,0,0)" stroke-width="2"  />
			<g>
				<title>Abhydrolase_1 (PF00561)
"alpha/beta hydrolase fold"</title>
				<polygon class="PF00561" points="649,35 655,28 664,28 664,52 655,52 649,45" stroke-linejoin="round" width="15" height="24" fill="rgb(86,180,151)" stroke="rgb(68,144,120)" stroke-width="1" opacity="0.75" />
			</g>
		</g>
		<g>
			<title> (ctg7_21)</title>
			<polygon class=" (ctg7_21)" points="667,40 677,10 677,70" fill="rgb(255,255,255)" fill-opacity="1.0" stroke="rgb(0,0,0)" stroke-width="2"  />
			<g>
				<title>PP-binding (PF00550)
"Phosphopantetheine attachment site"</title>
				<polygon class="PF00550" points="670,40 674,28 674,28 674,52 674,52" stroke-linejoin="round" width="6" height="24" fill="rgb(103,191,88)" stroke="rgb(82,152,70)" stroke-width="1" opacity="0.75" />
			</g>
		</g>
		<g>
			<title> (ctg7_22)</title>
			<polygon class=" (ctg7_22)" points="817,25 706,25 706,10 676,40 706,70 706,55 817,55" fill="rgb(255,255,255)" fill-opacity="1.0" stroke="rgb(0,0,0)" stroke-width="2"  />
			<g>
				<title>ACPS (PF01648)
"4'-phosphopantetheinyl transferase superfamily"</title>
				<polygon class="PF01648" points="680,40 685,35 685,45" stroke-linejoin="round" width="9" height="24" fill="rgb(85,184,135)" stroke="rgb(68,147,108)" stroke-width="1" opacity="0.75" />
			</g>
			<g>
				<title>Acyl_transf_1 (PF00698)
"Acyl transferase domain"</title>
				<rect class="PF00698" x="734" y="28" stroke-linejoin="round" width="24" height="24" fill="rgb(59,176,209)" stroke="rgb(47,140,167)" stroke-width="1" opacity="0.75" />
			</g>
			<g>
				<title>KAsynt_C_assoc (PF16197)
"Ketoacyl-synthetase C-terminal extension"</title>
				<rect class="PF16197" x="768" y="28" stroke-linejoin="round" width="7" height="24" fill="rgb(240,150,172)" stroke="rgb(192,120,137)" stroke-width="1" opacity="0.75" />
			</g>
			<g>
				<title>Ketoacyl-synt_C (PF02801)
"Beta-ketoacyl synthase, C-terminal domain"</title>
				<rect class="PF02801" x="776" y="28" stroke-linejoin="round" width="11" height="24" fill="rgb(215,78,102)" stroke="rgb(172,62,81)" stroke-width="1" opacity="0.75" />
			</g>
			<g>
				<title>ketoacyl-synt (PF00109)
"Beta-ketoacyl synthase, N-terminal domain"</title>
				<rect class="PF00109" x="789" y="28" stroke-linejoin="round" width="28" height="24" fill="rgb(112,116,228)" stroke="rgb(89,92,182)" stroke-width="1" opacity="0.75" />
			</g>
		</g>
		<g>
			<title> (ctg7_23)</title>
			<polygon class=" (ctg7_23)" points="1052,25 848,25 848,10 818,40 848,70 848,55 1052,55" fill="rgb(255,255,255)" fill-opacity="1.0" stroke="rgb(0,0,0)" stroke-width="2"  />
			<g>
				<title>KR (PF08659)
"KR domain"</title>
				<polygon class="PF08659" points="823,39 834,28 845,28 845,52 834,52 823,41" stroke-linejoin="round" width="22" height="24" fill="rgb(66,209,188)" stroke="rgb(52,167,150)" stroke-width="1" opacity="0.75" />
			</g>
			<g>
				<title>PP-binding (PF00550)
"Phosphopantetheine attachment site"</title>
				<rect class="PF00550" x="868" y="28" stroke-linejoin="round" width="7" height="24" fill="rgb(103,191,88)" stroke="rgb(82,152,70)" stroke-width="1" opacity="0.75" />
			</g>
			<g>
				<title>Acyl_transf_1 (PF00698)
"Acyl transferase domain"</title>
				<rect class="PF00698" x="904" y="28" stroke-linejoin="round" width="30" height="24" fill="rgb(59,176,209)" stroke="rgb(47,140,167)" stroke-width="1" opacity="0.75" />
			</g>
			<g>
				<title>Ketoacyl-synt_C (PF02801)
"Beta-ketoacyl synthase, C-terminal domain"</title>
				<rect class="PF02801" x="948" y="28" stroke-linejoin="round" width="11" height="24" fill="rgb(215,78,102)" stroke="rgb(172,62,81)" stroke-width="1" opacity="0.75" />
			</g>
			<g>
				<title>ketoacyl-synt (PF00109)
"Beta-ketoacyl synthase, N-terminal domain"</title>
				<rect class="PF00109" x="961" y="28" stroke-linejoin="round" width="26" height="24" fill="rgb(112,116,228)" stroke="rgb(89,92,182)" stroke-width="1" opacity="0.75" />
			</g>
			<g>
				<title>NMO (PF03060)
"Nitronate monooxygenase"</title>
				<rect class="PF03060" x="990" y="28" stroke-linejoin="round" width="33" height="24" fill="rgb(100,193,226)" stroke="rgb(80,154,180)" stroke-width="1" opacity="0.75" />
			</g>
			<g>
				<title>NMO (PF03060)
"Nitronate monooxygenase"</title>
				<rect class="PF03060" x="1031" y="28" stroke-linejoin="round" width="12" height="24" fill="rgb(100,193,226)" stroke="rgb(80,154,180)" stroke-width="1" opacity="0.75" />
			</g>
		</g>
		<g>
			<title> (ctg7_24)</title>
			<polygon class=" (ctg7_24)" points="1055,40 1059,10 1059,70" fill="rgb(255,255,255)" fill-opacity="1.0" stroke="rgb(0,0,0)" stroke-width="2"  />
		</g>
		<g>
			<title> (ctg7_25)</title>
			<polygon class=" (ctg7_25)" points="1129,25 1126,25 1126,10 1096,40 1126,70 1126,55 1129,55" fill="rgb(255,255,255)" fill-opacity="1.0" stroke="rgb(0,0,0)" stroke-width="2"  />
			<g>
				<title>Glutaminase (PF04960)
"Glutaminase"</title>
				<polygon class="PF04960" points="1100,40 1112,28 1124,28 1124,52 1112,52" stroke-linejoin="round" width="28" height="24" fill="rgb(96,137,229)" stroke="rgb(76,109,183)" stroke-width="1" opacity="0.75" />
			</g>
		</g>
		<g>
			<title> (ctg7_26)</title>
			<polygon class=" (ctg7_26)" points="1148,25 1280,25 1280,10 1310,40 1280,70 1280,55 1148,55" fill="rgb(255,255,255)" fill-opacity="1.0" stroke="rgb(0,0,0)" stroke-width="2"  />
			<g>
				<title>PKD_4 (PF18911)
"PKD domain"</title>
				<rect class="PF18911" x="1162" y="28" stroke-linejoin="round" width="8" height="24" fill="rgb(91,189,112)" stroke="rgb(72,151,89)" stroke-width="1" opacity="0.75" />
			</g>
			<g>
				<title>Por_Secre_tail (PF18962)
"Secretion system C-terminal sorting domain"</title>
				<polygon class="PF18962" points="1302,36 1306,40 1302,44" stroke-linejoin="round" width="7" height="24" fill="rgb(117,84,214)" stroke="rgb(93,67,171)" stroke-width="1" opacity="0.75" />
			</g>
		</g>
		<g>
			<title> (ctg7_27)</title>
			<polygon class=" (ctg7_27)" points="1313,25 1345,25 1345,10 1375,40 1345,70 1345,55 1313,55" fill="rgb(255,255,255)" fill-opacity="1.0" stroke="rgb(0,0,0)" stroke-width="2"  />
			<g>
				<title>Por_Secre_tail (PF18962)
"Secretion system C-terminal sorting domain"</title>
				<polygon class="PF18962" points="1368,38 1370,40 1368,42" stroke-linejoin="round" width="6" height="24" fill="rgb(117,84,214)" stroke="rgb(93,67,171)" stroke-width="1" opacity="0.75" />
			</g>
		</g>
		<g>
			<title> (ctg7_28)</title>
			<polygon class=" (ctg7_28)" points="1380,10 1403,40 1380,70" fill="rgb(255,255,255)" fill-opacity="1.0" stroke="rgb(0,0,0)" stroke-width="2"  />
		</g>
		<g>
			<title> (ctg7_29)</title>
			<polygon class=" (ctg7_29)" points="1405,40 1433,10 1433,70" fill="rgb(255,255,255)" fill-opacity="1.0" stroke="rgb(0,0,0)" stroke-width="2"  />
			<g>
				<title>SASA (PF03629)
"Carbohydrate esterase, sialic acid-specific acetylesterase"</title>
				<polygon class="PF03629" points="1410,39 1420,28 1432,28 1432,52 1420,52 1410,41" stroke-linejoin="round" width="22" height="24" fill="rgb(133,63,211)" stroke="rgb(106,50,168)" stroke-width="1" opacity="0.75" />
			</g>
		</g>
		<g>
			<title> (ctg7_30)</title>
			<polygon class=" (ctg7_30)" points="1433,40 1451,10 1451,70" fill="rgb(255,255,255)" fill-opacity="1.0" stroke="rgb(0,0,0)" stroke-width="2"  />
			<g>
				<title>TetR_N (PF00440)
"Bacterial regulatory proteins, tetR family"</title>
				<rect class="PF00440" x="1446" y="28" stroke-linejoin="round" width="4" height="24" fill="rgb(73,212,190)" stroke="rgb(58,169,152)" stroke-width="1" opacity="0.75" />
			</g>
		</g>
		<g>
			<title> (ctg7_31)</title>
			<polygon class=" (ctg7_31)" points="1459,10 1478,40 1459,70" fill="rgb(255,255,255)" fill-opacity="1.0" stroke="rgb(0,0,0)" stroke-width="2"  />
			<g>
				<title>DUF4840 (PF16128)
"Domain of unknown function (DUF4840)"</title>
				<polygon class="PF16128" points="1463,28 1467,28 1475,40 1467,52 1463,52" stroke-linejoin="round" width="13" height="24" fill="rgb(65,192,214)" stroke="rgb(52,153,171)" stroke-width="1" opacity="0.75" />
			</g>
		</g>
		<g>
			<title> (ctg7_32)</title>
			<polygon class=" (ctg7_32)" points="1524,25 1511,25 1511,10 1481,40 1511,70 1511,55 1524,55" fill="rgb(255,255,255)" fill-opacity="1.0" stroke="rgb(0,0,0)" stroke-width="2"  />
		</g>
		<g>
			<title> (ctg7_33)</title>
			<polygon class=" (ctg7_33)" points="1573,25 1566,25 1566,10 1536,40 1566,70 1566,55 1573,55" fill="rgb(255,255,255)" fill-opacity="1.0" stroke="rgb(0,0,0)" stroke-width="2"  />
		</g>
		<g>
			<title> (ctg7_34)</title>
			<polygon class=" (ctg7_34)" points="1675,25 1607,25 1607,10 1577,40 1607,70 1607,55 1675,55" fill="rgb(255,255,255)" fill-opacity="1.0" stroke="rgb(0,0,0)" stroke-width="2"  />
			<g>
				<title>RE_endonuc (PF19778)
"Endonuclease domain"</title>
				<polygon class="PF19778" points="1581,40 1589,32 1589,48" stroke-linejoin="round" width="11" height="24" fill="rgb(199,228,84)" stroke="rgb(159,182,67)" stroke-width="1" opacity="0.75" />
			</g>
			<g>
				<title>ResIII (PF04851)
"Type III restriction enzyme, res subunit"</title>
				<rect class="PF04851" x="1650" y="28" stroke-linejoin="round" width="23" height="24" fill="rgb(51,64,189)" stroke="rgb(40,51,151)" stroke-width="1" opacity="0.75" />
			</g>
		</g>
	</g>
</svg>
