<svg version="1.1" baseProfile="full" xmlns="http://www.w3.org/2000/svg" width="1153.5" height="80">
	<g>
		<line x1="10" y1="40.0" x2="1143.5" y2="40.0" style="stroke:rgb(70,70,70); stroke-width:3 "/>
		<g>
			<title> (ctg1_2)</title>
			<polygon class=" (ctg1_2)" points="119,25 73,25 73,10 43,40 73,70 73,55 119,55" fill="rgb(255,255,255)" fill-opacity="1.0" stroke="rgb(0,0,0)" stroke-width="2"  />
			<g>
				<title>AAA_19 (PF13245)
"AAA domain"</title>
				<rect class="PF13245" x="62" y="28" stroke-linejoin="round" width="37" height="24" fill="rgb(80,199,91)" stroke="rgb(64,159,72)" stroke-width="1" opacity="0.75" />
			</g>
		</g>
		<g>
			<title> (ctg1_3)</title>
			<polygon class=" (ctg1_3)" points="173,25 155,25 155,10 125,40 155,70 155,55 173,55" fill="rgb(255,255,255)" fill-opacity="1.0" stroke="rgb(0,0,0)" stroke-width="2"  />
			<g>
				<title>ASL_C2 (PF14698)
"Argininosuccinate lyase C-terminal"</title>
				<polygon class="PF14698" points="129,40 135,34 135,46 129,40" stroke-linejoin="round" width="6" height="24" fill="rgb(107,69,187)" stroke="rgb(85,55,149)" stroke-width="1" opacity="0.75" />
			</g>
			<g>
				<title>Lyase_1 (PF00206)
"Lyase"</title>
				<rect class="PF00206" x="142" y="28" stroke-linejoin="round" width="29" height="24" fill="rgb(217,92,141)" stroke="rgb(173,73,112)" stroke-width="1" opacity="0.75" />
			</g>
		</g>
		<g>
			<title> (ctg1_4)</title>
			<polygon class=" (ctg1_4)" points="218,25 207,25 207,10 177,40 207,70 207,55 218,55" fill="rgb(255,255,255)" fill-opacity="1.0" stroke="rgb(0,0,0)" stroke-width="2"  />
			<g>
				<title>Arginosuc_synth (PF00764)
"Arginosuccinate synthase"</title>
				<polygon class="PF00764" points="181,40 193,28 217,28 217,52 193,52" stroke-linejoin="round" width="38" height="24" fill="rgb(93,212,110)" stroke="rgb(74,169,88)" stroke-width="1" opacity="0.75" />
			</g>
		</g>
		<g>
			<title> (ctg1_5)</title>
			<polygon class=" (ctg1_5)" points="239,10 267,40 239,70" fill="rgb(255,255,255)" fill-opacity="1.0" stroke="rgb(0,0,0)" stroke-width="2"  />
			<g>
				<title>Transglycosylas (PF06737)
"Transglycosylase-like domain"</title>
				<rect class="PF06737" x="243" y="28" stroke-linejoin="round" width="7" height="24" fill="rgb(206,100,217)" stroke="rgb(164,80,173)" stroke-width="1" opacity="0.75" />
			</g>
			<g>
				<title>LysM (PF01476)
"LysM domain"</title>
				<polygon class="PF01476" points="262,39 263,40 262,41" stroke-linejoin="round" width="4" height="24" fill="rgb(200,86,203)" stroke="rgb(160,68,162)" stroke-width="1" opacity="0.75" />
			</g>
		</g>
		<g>
			<title> (ctg1_6)</title>
			<polygon class=" (ctg1_6)" points="271,40 287,10 287,70" fill="rgb(255,255,255)" fill-opacity="1.0" stroke="rgb(0,0,0)" stroke-width="2"  />
			<g>
				<title>Arg_repressor_C (PF02863)
"Arginine repressor, C-terminal domain"</title>
				<polygon class="PF02863" points="274,40 277,34 277,46" stroke-linejoin="round" width="6" height="24" fill="rgb(80,175,218)" stroke="rgb(64,140,174)" stroke-width="1" opacity="0.75" />
			</g>
			<g>
				<title>Arg_repressor (PF01316)
"Arginine repressor, DNA binding domain"</title>
				<polygon class="PF01316" points="280,29 281,28 286,28 286,52 281,52 280,51" stroke-linejoin="round" width="6" height="24" fill="rgb(219,102,162)" stroke="rgb(175,81,129)" stroke-width="1" opacity="0.75" />
			</g>
		</g>
		<g>
			<title> (ctg1_7)</title>
			<polygon class=" (ctg1_7)" points="320,25 318,25 318,10 288,40 318,70 318,55 320,55" fill="rgb(255,255,255)" fill-opacity="1.0" stroke="rgb(0,0,0)" stroke-width="2"  />
			<g>
				<title>OTCace (PF00185)
"Aspartate/ornithine carbamoyltransferase, Asp/Orn binding domain"</title>
				<polygon class="PF00185" points="292,40 304,28 304,28 304,52 304,52" stroke-linejoin="round" width="15" height="24" fill="rgb(215,107,106)" stroke="rgb(172,85,84)" stroke-width="1" opacity="0.75" />
			</g>
			<g>
				<title>OTCace_N (PF02729)
"Aspartate/ornithine carbamoyltransferase, carbamoyl-P binding domain"</title>
				<rect class="PF02729" x="305" y="28" stroke-linejoin="round" width="13" height="24" fill="rgb(223,74,58)" stroke="rgb(178,59,46)" stroke-width="1" opacity="0.75" />
			</g>
		</g>
		<g>
			<title> (ctg1_8)</title>
			<polygon class=" (ctg1_8)" points="361,25 349,25 349,10 319,40 349,70 349,55 361,55" fill="rgb(255,255,255)" fill-opacity="1.0" stroke="rgb(0,0,0)" stroke-width="2"  />
			<g>
				<title>Aminotran_3 (PF00202)
"Aminotransferase class-III"</title>
				<polygon class="PF00202" points="323,40 335,28 359,28 359,52 335,52" stroke-linejoin="round" width="39" height="24" fill="rgb(49,163,189)" stroke="rgb(39,130,151)" stroke-width="1" opacity="0.75" />
			</g>
		</g>
		<g>
			<title> (ctg1_9)</title>
			<polygon class=" (ctg1_9)" points="394,25 392,25 392,10 362,40 392,70 392,55 394,55" fill="rgb(255,255,255)" fill-opacity="1.0" stroke="rgb(0,0,0)" stroke-width="2"  />
			<g>
				<title>AA_kinase (PF00696)
"Amino acid kinase family"</title>
				<polygon class="PF00696" points="366,40 378,28 389,28 389,52 378,52" stroke-linejoin="round" width="24" height="24" fill="rgb(148,78,224)" stroke="rgb(118,62,179)" stroke-width="1" opacity="0.75" />
			</g>
		</g>
		<g>
			<title> (ctg1_10)</title>
			<polygon class=" (ctg1_10)" points="433,25 425,25 425,10 395,40 425,70 425,55 433,55" fill="rgb(255,255,255)" fill-opacity="1.0" stroke="rgb(0,0,0)" stroke-width="2"  />
			<g>
				<title>ArgJ (PF01960)
"ArgJ family"</title>
				<polygon class="PF01960" points="399,40 411,28 432,28 432,52 411,52" stroke-linejoin="round" width="37" height="24" fill="rgb(81,120,181)" stroke="rgb(64,95,144)" stroke-width="1" opacity="0.75" />
			</g>
		</g>
		<g>
			<title> (ctg1_11)</title>
			<polygon class=" (ctg1_11)" points="468,25 464,25 464,10 434,40 464,70 464,55 468,55" fill="rgb(255,255,255)" fill-opacity="1.0" stroke="rgb(0,0,0)" stroke-width="2"  />
			<g>
				<title>Semialdhyde_dhC (PF02774)
"Semialdehyde dehydrogenase, dimerisation domain"</title>
				<polygon class="PF02774" points="438,40 450,28 452,28 452,52 450,52" stroke-linejoin="round" width="15" height="24" fill="rgb(57,188,185)" stroke="rgb(45,150,147)" stroke-width="1" opacity="0.75" />
			</g>
			<g>
				<title>Semialdhyde_dh (PF01118)
"Semialdehyde dehydrogenase, NAD binding domain"</title>
				<rect class="PF01118" x="454" y="28" stroke-linejoin="round" width="13" height="24" fill="rgb(191,106,221)" stroke="rgb(152,84,176)" stroke-width="1" opacity="0.75" />
			</g>
		</g>
		<g>
			<title> (ctg1_12)</title>
			<polygon class=" (ctg1_12)" points="472,25 475,25 475,10 505,40 475,70 475,55 472,55" fill="rgb(255,255,255)" fill-opacity="1.0" stroke="rgb(0,0,0)" stroke-width="2"  />
			<g>
				<title>ADH_zinc_N (PF00107)
"Zinc-binding dehydrogenase"</title>
				<polygon class="PF00107" points="488,28 489,28 500,39 500,41 489,52 488,52" stroke-linejoin="round" width="12" height="24" fill="rgb(81,108,215)" stroke="rgb(64,86,172)" stroke-width="1" opacity="0.75" />
			</g>
		</g>
		<g>
			<title> (ctg1_13)</title>
			<polygon class=" (ctg1_13)" points="510,25 613,25 613,10 643,40 613,70 613,55 510,55" fill="rgb(255,255,255)" fill-opacity="1.0" stroke="rgb(0,0,0)" stroke-width="2"  />
			<g>
				<title>AMP-binding (PF00501)
"AMP-binding enzyme"</title>
				<rect class="PF00501" x="514" y="28" stroke-linejoin="round" width="37" height="24" fill="rgb(60,217,223)" stroke="rgb(48,173,178)" stroke-width="1" opacity="0.75" />
			</g>
			<g>
				<title>PP-binding (PF00550)
"Phosphopantetheine attachment site"</title>
				<rect class="PF00550" x="563" y="28" stroke-linejoin="round" width="6" height="24" fill="rgb(103,191,88)" stroke="rgb(82,152,70)" stroke-width="1" opacity="0.75" />
			</g>
			<g>
				<title>Hexapep_2 (PF14602)
"Hexapeptide repeat of succinyl-transferase"</title>
				<rect class="PF14602" x="588" y="28" stroke-linejoin="round" width="3" height="24" fill="rgb(79,205,115)" stroke="rgb(63,164,92)" stroke-width="1" opacity="0.75" />
			</g>
		</g>
		<g>
			<title> (ctg1_14)</title>
			<polygon class=" (ctg1_14)" points="643,25 657,25 657,10 687,40 657,70 657,55 643,55" fill="rgb(255,255,255)" fill-opacity="1.0" stroke="rgb(0,0,0)" stroke-width="2"  />
			<g>
				<title>Peptidase_M1_N (PF17900)
"Peptidase M1 N-terminal domain"</title>
				<rect class="PF17900" x="644" y="28" stroke-linejoin="round" width="17" height="24" fill="rgb(63,189,168)" stroke="rgb(50,151,134)" stroke-width="1" opacity="0.75" />
			</g>
			<g>
				<title>Peptidase_M1 (PF01433)
"Peptidase family M1 domain"</title>
				<polygon class="PF01433" points="666,28 671,28 683,40 671,52 666,52" stroke-linejoin="round" width="19" height="24" fill="rgb(173,57,219)" stroke="rgb(138,45,175)" stroke-width="1" opacity="0.75" />
			</g>
		</g>
		<g>
			<title> (ctg1_15)</title>
			<polygon class=" (ctg1_15)" points="688,40 708,10 708,70" fill="rgb(255,255,255)" fill-opacity="1.0" stroke="rgb(0,0,0)" stroke-width="2"  />
			<g>
				<title>ACPS (PF01648)
"4'-phosphopantetheinyl transferase superfamily"</title>
				<polygon class="PF01648" points="692,40 697,33 697,47" stroke-linejoin="round" width="8" height="24" fill="rgb(85,184,135)" stroke="rgb(68,147,108)" stroke-width="1" opacity="0.75" />
			</g>
		</g>
		<g>
			<title> (ctg1_16)</title>
			<polygon class=" (ctg1_16)" points="795,25 739,25 739,10 709,40 739,70 739,55 795,55" fill="rgb(255,255,255)" fill-opacity="1.0" stroke="rgb(0,0,0)" stroke-width="2"  />
			<g>
				<title>FDX-ACB (PF03147)
"Ferredoxin-fold anticodon binding domain"</title>
				<polygon class="PF03147" points="713,40 718,35 718,45" stroke-linejoin="round" width="9" height="24" fill="rgb(152,84,215)" stroke="rgb(121,67,172)" stroke-width="1" opacity="0.75" />
			</g>
			<g>
				<title>tRNA_synthFbeta (PF17759)
"Phenylalanyl tRNA synthetase beta chain CLM domain"</title>
				<polygon class="PF17759" points="720,33 725,28 744,28 744,52 725,52 720,47" stroke-linejoin="round" width="24" height="24" fill="rgb(209,87,97)" stroke="rgb(167,69,77)" stroke-width="1" opacity="0.75" />
			</g>
			<g>
				<title>B5 (PF03484)
"tRNA synthetase B5 domain"</title>
				<rect class="PF03484" x="744" y="28" stroke-linejoin="round" width="7" height="24" fill="rgb(94,91,186)" stroke="rgb(75,72,148)" stroke-width="1" opacity="0.75" />
			</g>
			<g>
				<title>B3_4 (PF03483)
"B3/4 domain"</title>
				<rect class="PF03483" x="753" y="28" stroke-linejoin="round" width="17" height="24" fill="rgb(97,63,226)" stroke="rgb(77,50,180)" stroke-width="1" opacity="0.75" />
			</g>
		</g>
		<g>
			<title> (ctg1_17)</title>
			<polygon class=" (ctg1_17)" points="831,25 825,25 825,10 795,40 825,70 825,55 831,55" fill="rgb(255,255,255)" fill-opacity="1.0" stroke="rgb(0,0,0)" stroke-width="2"  />
			<g>
				<title>tRNA-synt_2d (PF01409)
"tRNA synthetases class II core domain (F)"</title>
				<polygon class="PF01409" points="799,40 811,28 819,28 819,52 811,52" stroke-linejoin="round" width="24" height="24" fill="rgb(88,202,82)" stroke="rgb(70,161,65)" stroke-width="1" opacity="0.75" />
			</g>
			<g>
				<title>Phe_tRNA-synt_N (PF02912)
"Aminoacyl tRNA synthetase class II, N-terminal domain"</title>
				<rect class="PF02912" x="820" y="28" stroke-linejoin="round" width="6" height="24" fill="rgb(185,106,54)" stroke="rgb(148,84,43)" stroke-width="1" opacity="0.75" />
			</g>
		</g>
		<g>
			<title> (ctg1_18)</title>
			<polygon class=" (ctg1_18)" points="834,10 847,40 834,70" fill="rgb(255,255,255)" fill-opacity="1.0" stroke="rgb(0,0,0)" stroke-width="2"  />
			<g>
				<title>zf-CHY (PF05495)
"CHY zinc finger"</title>
				<polygon class="PF05495" points="836,28 838,28 843,38 843,42 838,52 836,52" stroke-linejoin="round" width="7" height="24" fill="rgb(126,74,211)" stroke="rgb(100,59,168)" stroke-width="1" opacity="0.75" />
			</g>
		</g>
		<g>
			<title> (ctg1_19)</title>
			<polygon class=" (ctg1_19)" points="847,10 862,40 847,70" fill="rgb(255,255,255)" fill-opacity="1.0" stroke="rgb(0,0,0)" stroke-width="2"  />
		</g>
		<g>
			<title> (ctg1_20)</title>
			<polygon class=" (ctg1_20)" points="864,40 886,10 886,70" fill="rgb(255,255,255)" fill-opacity="1.0" stroke="rgb(0,0,0)" stroke-width="2"  />
			<g>
				<title>Peptidase_C15 (PF01470)
"Pyroglutamyl peptidase"</title>
				<polygon class="PF01470" points="868,40 877,28 884,28 884,52 877,52" stroke-linejoin="round" width="19" height="24" fill="rgb(213,151,77)" stroke="rgb(170,120,61)" stroke-width="1" opacity="0.75" />
			</g>
		</g>
		<g>
			<title> (ctg1_21)</title>
			<polygon class=" (ctg1_21)" points="889,25 894,25 894,10 924,40 894,70 894,55 889,55" fill="rgb(255,255,255)" fill-opacity="1.0" stroke="rgb(0,0,0)" stroke-width="2"  />
			<g>
				<title>Radical_SAM (PF04055)
"Radical SAM superfamily"</title>
				<polygon class="PF04055" points="896,28 908,28 914,34 914,46 908,52 896,52" stroke-linejoin="round" width="18" height="24" fill="rgb(149,56,222)" stroke="rgb(119,44,177)" stroke-width="1" opacity="0.75" />
			</g>
		</g>
		<g>
			<title> (ctg1_22)</title>
			<polygon class=" (ctg1_22)" points="926,40 940,10 940,70" fill="rgb(255,255,255)" fill-opacity="1.0" stroke="rgb(0,0,0)" stroke-width="2"  />
			<g>
				<title>NUDIX (PF00293)
"NUDIX domain"</title>
				<polygon class="PF00293" points="929,40 935,28 939,28 939,52 935,52" stroke-linejoin="round" width="12" height="24" fill="rgb(92,56,187)" stroke="rgb(73,44,149)" stroke-width="1" opacity="0.75" />
			</g>
		</g>
		<g>
			<title> (ctg1_23)</title>
			<polygon class=" (ctg1_23)" points="945,25 959,25 959,10 989,40 959,70 959,55 945,55" fill="rgb(255,255,255)" fill-opacity="1.0" stroke="rgb(0,0,0)" stroke-width="2"  />
			<g>
				<title>MFS_1 (PF07690)
"Major Facilitator Superfamily"</title>
				<polygon class="PF07690" points="950,28 972,28 981,37 981,43 972,52 950,52" stroke-linejoin="round" width="31" height="24" fill="rgb(193,224,74)" stroke="rgb(154,179,59)" stroke-width="1" opacity="0.75" />
			</g>
		</g>
		<g>
			<title> (ctg1_24)</title>
			<polygon class=" (ctg1_24)" points="994,10 1003,40 994,70" fill="rgb(255,255,255)" fill-opacity="1.0" stroke="rgb(0,0,0)" stroke-width="2"  />
			<g>
				<title>Transgly_assoc (PF04226)
"Transglycosylase associated protein"</title>
				<polygon class="PF04226" points="997,31 999,40 997,49" stroke-linejoin="round" width="5" height="24" fill="rgb(87,179,152)" stroke="rgb(69,143,121)" stroke-width="1" opacity="0.75" />
			</g>
		</g>
		<g>
			<title> (ctg1_25)</title>
			<polygon class=" (ctg1_25)" points="1007,40 1036,10 1036,70" fill="rgb(255,255,255)" fill-opacity="1.0" stroke="rgb(0,0,0)" stroke-width="2"  />
			<g>
				<title>SpoU_methylase (PF00588)
"SpoU rRNA Methylase family"</title>
				<polygon class="PF00588" points="1011,40 1022,29 1022,51" stroke-linejoin="round" width="14" height="24" fill="rgb(84,205,178)" stroke="rgb(67,164,142)" stroke-width="1" opacity="0.75" />
			</g>
		</g>
		<g>
			<title> (ctg1_26)</title>
			<polygon class=" (ctg1_26)" points="1041,40 1053,10 1053,70" fill="rgb(255,255,255)" fill-opacity="1.0" stroke="rgb(0,0,0)" stroke-width="2"  />
			<g>
				<title>Ribosomal_L20 (PF00453)
"Ribosomal protein L20"</title>
				<polygon class="PF00453" points="1044,40 1049,28 1053,28 1053,52 1049,52" stroke-linejoin="round" width="10" height="24" fill="rgb(221,85,111)" stroke="rgb(176,67,88)" stroke-width="1" opacity="0.75" />
			</g>
		</g>
		<g>
			<title> (ctg1_27)</title>
			<polygon class=" (ctg1_27)" points="1057,40 1063,10 1063,70" fill="rgb(255,255,255)" fill-opacity="1.0" stroke="rgb(0,0,0)" stroke-width="2"  />
			<g>
				<title>Ribosomal_L35p (PF01632)
"Ribosomal protein L35"</title>
				<polygon class="PF01632" points="1060,40 1063,28 1063,28 1063,52 1063,52" stroke-linejoin="round" width="6" height="24" fill="rgb(87,201,54)" stroke="rgb(69,160,43)" stroke-width="1" opacity="0.75" />
			</g>
		</g>
		<g>
			<title> (ctg1_28)</title>
			<polygon class=" (ctg1_28)" points="1067,40 1096,10 1096,70" fill="rgb(255,255,255)" fill-opacity="1.0" stroke="rgb(0,0,0)" stroke-width="2"  />
			<g>
				<title>IF3_C (PF00707)
"Translation initiation factor IF-3, C-terminal domain"</title>
				<polygon class="PF00707" points="1083,28 1083,28 1091,28 1091,52 1083,52 1083,52" stroke-linejoin="round" width="8" height="24" fill="rgb(122,214,90)" stroke="rgb(97,171,72)" stroke-width="1" opacity="0.75" />
			</g>
			<g>
				<title>IF3_N (PF05198)
"Translation initiation factor IF-3, N-terminal domain"</title>
				<rect class="PF05198" x="1093" y="28" stroke-linejoin="round" width="3" height="24" fill="rgb(226,105,214)" stroke="rgb(180,83,171)" stroke-width="1" opacity="0.75" />
			</g>
		</g>
		<g>
			<title> (ctg1_29)</title>
			<polygon class=" (ctg1_29)" points="1111,10 1124,40 1111,70" fill="rgb(255,255,255)" fill-opacity="1.0" stroke="rgb(0,0,0)" stroke-width="2"  />
			<g>
				<title>DUF1844 (PF08899)
"Domain of unknown function (DUF1844)"</title>
				<polygon class="PF08899" points="1114,28 1115,28 1120,40 1115,52 1114,52" stroke-linejoin="round" width="7" height="24" fill="rgb(165,95,207)" stroke="rgb(132,76,165)" stroke-width="1" opacity="0.75" />
			</g>
		</g>
		<g>
			<title> (ctg1_30)</title>
			<polygon class=" (ctg1_30)" points="1126,40 1141,10 1141,70" fill="rgb(255,255,255)" fill-opacity="1.0" stroke="rgb(0,0,0)" stroke-width="2"  />
		</g>
	</g>
</svg>
