<svg version="1.1" baseProfile="full" xmlns="http://www.w3.org/2000/svg" width="1420.3333333333333" height="80">
	<g>
		<line x1="10" y1="40.0" x2="1410.3333333333333" y2="40.0" style="stroke:rgb(70,70,70); stroke-width:3 "/>
		<g>
			<title> (ctg4_313)</title>
			<polygon class=" (ctg4_313)" points="72,25 69,25 69,10 39,40 69,70 69,55 72,55" fill="rgb(255,255,255)" fill-opacity="1.0" stroke="rgb(0,0,0)" stroke-width="2"  />
			<g>
				<title>oligo_HPY (PF08352)
"Oligopeptide/dipeptide transporter, C-terminal region"</title>
				<polygon class="PF08352" points="43,40 48,35 48,45" stroke-linejoin="round" width="6" height="24" fill="rgb(90,183,173)" stroke="rgb(72,146,138)" stroke-width="1" opacity="0.75" />
			</g>
			<g>
				<title>ABC_tran (PF00005)
"ABC transporter"</title>
				<polygon class="PF00005" points="53,30 55,28 68,28 68,52 55,52 53,50" stroke-linejoin="round" width="15" height="24" fill="rgb(129,201,63)" stroke="rgb(103,160,50)" stroke-width="1" opacity="0.75" />
			</g>
		</g>
		<g>
			<title> (ctg4_314)</title>
			<polygon class=" (ctg4_314)" points="72,40 96,10 96,70" fill="rgb(255,255,255)" fill-opacity="1.0" stroke="rgb(0,0,0)" stroke-width="2"  />
			<g>
				<title>FCD (PF07729)
"FCD domain"</title>
				<polygon class="PF07729" points="76,40 85,29 85,51" stroke-linejoin="round" width="12" height="24" fill="rgb(74,75,215)" stroke="rgb(59,60,172)" stroke-width="1" opacity="0.75" />
			</g>
			<g>
				<title>GntR (PF00392)
"Bacterial regulatory proteins, gntR family"</title>
				<rect class="PF00392" x="88" y="28" stroke-linejoin="round" width="6" height="24" fill="rgb(160,85,194)" stroke="rgb(127,68,155)" stroke-width="1" opacity="0.75" />
			</g>
		</g>
		<g>
			<title> (ctg4_315)</title>
			<polygon class=" (ctg4_315)" points="102,40 105,10 105,70" fill="rgb(255,255,255)" fill-opacity="1.0" stroke="rgb(0,0,0)" stroke-width="2"  />
		</g>
		<g>
			<title> (ctg4_316)</title>
			<polygon class=" (ctg4_316)" points="138,10 160,40 138,70" fill="rgb(255,255,255)" fill-opacity="1.0" stroke="rgb(0,0,0)" stroke-width="2"  />
		</g>
		<g>
			<title> (ctg4_317)</title>
			<polygon class=" (ctg4_317)" points="166,10 187,40 166,70" fill="rgb(255,255,255)" fill-opacity="1.0" stroke="rgb(0,0,0)" stroke-width="2"  />
		</g>
		<g>
			<title> (ctg4_318)</title>
			<polygon class=" (ctg4_318)" points="196,25 241,25 241,10 271,40 241,70 241,55 196,55" fill="rgb(255,255,255)" fill-opacity="1.0" stroke="rgb(0,0,0)" stroke-width="2"  />
			<g>
				<title>ABC_membrane (PF00664)
"ABC transporter transmembrane region"</title>
				<rect class="PF00664" x="213" y="28" stroke-linejoin="round" width="26" height="24" fill="rgb(149,226,73)" stroke="rgb(119,180,58)" stroke-width="1" opacity="0.75" />
			</g>
			<g>
				<title>ABC_tran (PF00005)
"ABC transporter"</title>
				<polygon class="PF00005" points="247,28 254,28 261,35 261,45 254,52 247,52" stroke-linejoin="round" width="14" height="24" fill="rgb(129,201,63)" stroke="rgb(103,160,50)" stroke-width="1" opacity="0.75" />
			</g>
		</g>
		<g>
			<title> (ctg4_319)</title>
			<polygon class=" (ctg4_319)" points="271,25 286,25 286,10 316,40 286,70 286,55 271,55" fill="rgb(255,255,255)" fill-opacity="1.0" stroke="rgb(0,0,0)" stroke-width="2"  />
			<g>
				<title>HlyD_3 (PF13437)
"HlyD family secretion protein"</title>
				<polygon class="PF13437" points="300,29 311,40 300,51" stroke-linejoin="round" width="13" height="24" fill="rgb(82,200,102)" stroke="rgb(65,160,81)" stroke-width="1" opacity="0.75" />
			</g>
		</g>
		<g>
			<title> (ctg4_320)</title>
			<polygon class=" (ctg4_320)" points="316,25 344,25 344,10 374,40 344,70 344,55 316,55" fill="rgb(255,255,255)" fill-opacity="1.0" stroke="rgb(0,0,0)" stroke-width="2"  />
			<g>
				<title>OEP (PF02321)
"Outer membrane efflux protein"</title>
				<rect class="PF02321" x="334" y="28" stroke-linejoin="round" width="18" height="24" fill="rgb(205,57,201)" stroke="rgb(164,45,160)" stroke-width="1" opacity="0.75" />
			</g>
			<g>
				<title>OEP (PF02321)
"Outer membrane efflux protein"</title>
				<polygon class="PF02321" points="355,28 358,28 365,35 365,45 358,52 355,52" stroke-linejoin="round" width="10" height="24" fill="rgb(205,57,201)" stroke="rgb(164,45,160)" stroke-width="1" opacity="0.75" />
			</g>
		</g>
		<g>
			<title> (ctg4_321)</title>
			<polygon class=" (ctg4_321)" points="410,25 407,25 407,10 377,40 407,70 407,55 410,55" fill="rgb(255,255,255)" fill-opacity="1.0" stroke="rgb(0,0,0)" stroke-width="2"  />
		</g>
		<g>
			<title> (ctg4_322)</title>
			<polygon class=" (ctg4_322)" points="441,25 440,25 440,10 410,40 440,70 440,55 441,55" fill="rgb(255,255,255)" fill-opacity="1.0" stroke="rgb(0,0,0)" stroke-width="2"  />
			<g>
				<title>Acyl_transf_1 (PF00698)
"Acyl transferase domain"</title>
				<polygon class="PF00698" points="414,40 426,28 440,28 440,52 426,52" stroke-linejoin="round" width="29" height="24" fill="rgb(59,176,209)" stroke="rgb(47,140,167)" stroke-width="1" opacity="0.75" />
			</g>
		</g>
		<g>
			<title> (ctg4_323)</title>
			<polygon class=" (ctg4_323)" points="488,25 472,25 472,10 442,40 472,70 472,55 488,55" fill="rgb(255,255,255)" fill-opacity="1.0" stroke="rgb(0,0,0)" stroke-width="2"  />
		</g>
		<g>
			<title> (ctg4_324)</title>
			<polygon class=" (ctg4_324)" points="488,40 514,10 514,70" fill="rgb(255,255,255)" fill-opacity="1.0" stroke="rgb(0,0,0)" stroke-width="2"  />
			<g>
				<title>LolA_like (PF17131)
"Outer membrane lipoprotein-sorting protein"</title>
				<polygon class="PF17131" points="492,40 503,28 505,28 505,52 503,52" stroke-linejoin="round" width="17" height="24" fill="rgb(189,100,83)" stroke="rgb(151,80,66)" stroke-width="1" opacity="0.75" />
			</g>
		</g>
		<g>
			<title> (ctg4_325)</title>
			<polygon class=" (ctg4_325)" points="557,25 544,25 544,10 514,40 544,70 544,55 557,55" fill="rgb(255,255,255)" fill-opacity="1.0" stroke="rgb(0,0,0)" stroke-width="2"  />
			<g>
				<title>FtsX (PF02687)
"FtsX-like permease family"</title>
				<polygon class="PF02687" points="518,40 526,32 526,48" stroke-linejoin="round" width="12" height="24" fill="rgb(126,55,214)" stroke="rgb(100,44,171)" stroke-width="1" opacity="0.75" />
			</g>
		</g>
		<g>
			<title> (ctg4_326)</title>
			<polygon class=" (ctg4_326)" points="558,40 579,10 579,70" fill="rgb(255,255,255)" fill-opacity="1.0" stroke="rgb(0,0,0)" stroke-width="2"  />
		</g>
		<g>
			<title> (ctg4_327)</title>
			<polygon class=" (ctg4_327)" points="579,40 602,10 602,70" fill="rgb(255,255,255)" fill-opacity="1.0" stroke="rgb(0,0,0)" stroke-width="2"  />
			<g>
				<title>ABC_tran (PF00005)
"ABC transporter"</title>
				<polygon class="PF00005" points="584,39 592,28 599,28 599,52 592,52 584,41" stroke-linejoin="round" width="15" height="24" fill="rgb(129,201,63)" stroke="rgb(103,160,50)" stroke-width="1" opacity="0.75" />
			</g>
		</g>
		<g>
			<title> (ctg4_328)</title>
			<polygon class=" (ctg4_328)" points="634,25 633,25 633,10 603,40 633,70 633,55 634,55" fill="rgb(255,255,255)" fill-opacity="1.0" stroke="rgb(0,0,0)" stroke-width="2"  />
		</g>
		<g>
			<title> (ctg4_329)</title>
			<polygon class=" (ctg4_329)" points="675,25 665,25 665,10 635,40 665,70 665,55 675,55" fill="rgb(255,255,255)" fill-opacity="1.0" stroke="rgb(0,0,0)" stroke-width="2"  />
			<g>
				<title>Ketoacyl-synt_C (PF02801)
"Beta-ketoacyl synthase, C-terminal domain"</title>
				<polygon class="PF02801" points="640,39 650,29 650,51 640,41" stroke-linejoin="round" width="10" height="24" fill="rgb(215,78,102)" stroke="rgb(172,62,81)" stroke-width="1" opacity="0.75" />
			</g>
			<g>
				<title>ketoacyl-synt (PF00109)
"Beta-ketoacyl synthase, N-terminal domain"</title>
				<polygon class="PF00109" points="651,28 651,28 669,28 669,52 651,52 651,52" stroke-linejoin="round" width="18" height="24" fill="rgb(112,116,228)" stroke="rgb(89,92,182)" stroke-width="1" opacity="0.75" />
			</g>
		</g>
		<g>
			<title> (ctg4_330)</title>
			<polygon class=" (ctg4_330)" points="743,25 706,25 706,10 676,40 706,70 706,55 743,55" fill="rgb(255,255,255)" fill-opacity="1.0" stroke="rgb(0,0,0)" stroke-width="2"  />
			<g>
				<title>Ketoacyl-synt_C (PF02801)
"Beta-ketoacyl synthase, C-terminal domain"</title>
				<polygon class="PF02801" points="680,40 691,29 691,51 680,40" stroke-linejoin="round" width="11" height="24" fill="rgb(215,78,102)" stroke="rgb(172,62,81)" stroke-width="1" opacity="0.75" />
			</g>
			<g>
				<title>ketoacyl-synt (PF00109)
"Beta-ketoacyl synthase, N-terminal domain"</title>
				<polygon class="PF00109" points="692,28 692,28 719,28 719,52 692,52 692,52" stroke-linejoin="round" width="27" height="24" fill="rgb(112,116,228)" stroke="rgb(89,92,182)" stroke-width="1" opacity="0.75" />
			</g>
			<g>
				<title>Ketoacyl-synt_C (PF02801)
"Beta-ketoacyl synthase, C-terminal domain"</title>
				<rect class="PF02801" x="725" y="28" stroke-linejoin="round" width="11" height="24" fill="rgb(215,78,102)" stroke="rgb(172,62,81)" stroke-width="1" opacity="0.75" />
			</g>
		</g>
		<g>
			<title> (ctg4_331)</title>
			<polygon class=" (ctg4_331)" points="741,40 761,10 761,70" fill="rgb(255,255,255)" fill-opacity="1.0" stroke="rgb(0,0,0)" stroke-width="2"  />
		</g>
		<g>
			<title> (ctg4_332)</title>
			<polygon class=" (ctg4_332)" points="803,25 795,25 795,10 765,40 795,70 795,55 803,55" fill="rgb(255,255,255)" fill-opacity="1.0" stroke="rgb(0,0,0)" stroke-width="2"  />
			<g>
				<title>GCV_T_C (PF08669)
"Glycine cleavage T-protein C-terminal barrel domain"</title>
				<polygon class="PF08669" points="769,40 774,35 774,45" stroke-linejoin="round" width="7" height="24" fill="rgb(184,178,54)" stroke="rgb(147,142,43)" stroke-width="1" opacity="0.75" />
			</g>
			<g>
				<title>GCV_T (PF01571)
"Aminomethyltransferase folate-binding domain"</title>
				<polygon class="PF01571" points="777,32 781,28 802,28 802,52 781,52 777,48" stroke-linejoin="round" width="25" height="24" fill="rgb(112,228,161)" stroke="rgb(89,182,128)" stroke-width="1" opacity="0.75" />
			</g>
		</g>
		<g>
			<title> (ctg4_333)</title>
			<polygon class=" (ctg4_333)" points="804,40 813,10 813,70" fill="rgb(255,255,255)" fill-opacity="1.0" stroke="rgb(0,0,0)" stroke-width="2"  />
			<g>
				<title>PP-binding (PF00550)
"Phosphopantetheine attachment site"</title>
				<polygon class="PF00550" points="807,40 811,28 811,28 811,52 811,52" stroke-linejoin="round" width="7" height="24" fill="rgb(103,191,88)" stroke="rgb(82,152,70)" stroke-width="1" opacity="0.75" />
			</g>
		</g>
		<g>
			<title> (ctg4_334)</title>
			<polygon class=" (ctg4_334)" points="815,40 833,10 833,70" fill="rgb(255,255,255)" fill-opacity="1.0" stroke="rgb(0,0,0)" stroke-width="2"  />
			<g>
				<title>FabA (PF07977)
"FabA-like domain"</title>
				<polygon class="PF07977" points="824,32 826,28 831,28 831,52 826,52 824,48" stroke-linejoin="round" width="7" height="24" fill="rgb(66,205,188)" stroke="rgb(52,164,150)" stroke-width="1" opacity="0.75" />
			</g>
		</g>
		<g>
			<title> (ctg4_335)</title>
			<polygon class=" (ctg4_335)" points="833,40 858,10 858,70" fill="rgb(255,255,255)" fill-opacity="1.0" stroke="rgb(0,0,0)" stroke-width="2"  />
			<g>
				<title>adh_short_C2 (PF13561)
"Enoyl-(Acyl carrier protein) reductase"</title>
				<polygon class="PF13561" points="837,40 847,28 856,28 856,52 847,52" stroke-linejoin="round" width="23" height="24" fill="rgb(73,205,127)" stroke="rgb(58,164,101)" stroke-width="1" opacity="0.75" />
			</g>
		</g>
		<g>
			<title> (ctg4_336)</title>
			<polygon class=" (ctg4_336)" points="859,40 871,10 871,70" fill="rgb(255,255,255)" fill-opacity="1.0" stroke="rgb(0,0,0)" stroke-width="2"  />
			<g>
				<title>ACPS (PF01648)
"4'-phosphopantetheinyl transferase superfamily"</title>
				<polygon class="PF01648" points="862,40 867,28 870,28 870,52 867,52" stroke-linejoin="round" width="11" height="24" fill="rgb(85,184,135)" stroke="rgb(68,147,108)" stroke-width="1" opacity="0.75" />
			</g>
		</g>
		<g>
			<title> (ctg4_337)</title>
			<polygon class=" (ctg4_337)" points="926,25 902,25 902,10 872,40 902,70 902,55 926,55" fill="rgb(255,255,255)" fill-opacity="1.0" stroke="rgb(0,0,0)" stroke-width="2"  />
			<g>
				<title>ShlB (PF03865)
"Haemolysin secretion/activation protein ShlB/FhaC/HecB"</title>
				<polygon class="PF03865" points="876,40 888,28 905,28 905,52 888,52" stroke-linejoin="round" width="30" height="24" fill="rgb(110,71,215)" stroke="rgb(87,56,172)" stroke-width="1" opacity="0.75" />
			</g>
			<g>
				<title>POTRA_3 (PF17287)
"POTRA domain"</title>
				<rect class="PF17287" x="906" y="28" stroke-linejoin="round" width="5" height="24" fill="rgb(66,192,58)" stroke="rgb(52,153,46)" stroke-width="1" opacity="0.75" />
			</g>
			<g>
				<title>POTRA_2 (PF08479)
"POTRA domain, ShlB-type"</title>
				<rect class="PF08479" x="911" y="28" stroke-linejoin="round" width="7" height="24" fill="rgb(99,69,180)" stroke="rgb(79,55,144)" stroke-width="1" opacity="0.75" />
			</g>
		</g>
		<g>
			<title> (ctg4_338)</title>
			<polygon class=" (ctg4_338)" points="1058,25 959,25 959,10 929,40 959,70 959,55 1058,55" fill="rgb(255,255,255)" fill-opacity="1.0" stroke="rgb(0,0,0)" stroke-width="2"  />
			<g>
				<title>Fil_haemagg (PF05594)
"Haemagglutinin repeat"</title>
				<polygon class="PF05594" points="940,33 945,28 948,28 948,52 945,52 940,47" stroke-linejoin="round" width="8" height="24" fill="rgb(228,167,73)" stroke="rgb(182,133,58)" stroke-width="1" opacity="0.75" />
			</g>
			<g>
				<title>Fil_haemagg (PF05594)
"Haemagglutinin repeat"</title>
				<rect class="PF05594" x="957" y="28" stroke-linejoin="round" width="7" height="24" fill="rgb(228,167,73)" stroke="rgb(182,133,58)" stroke-width="1" opacity="0.75" />
			</g>
			<g>
				<title>Fil_haemagg (PF05594)
"Haemagglutinin repeat"</title>
				<rect class="PF05594" x="963" y="28" stroke-linejoin="round" width="7" height="24" fill="rgb(228,167,73)" stroke="rgb(182,133,58)" stroke-width="1" opacity="0.75" />
			</g>
			<g>
				<title>Fil_haemagg (PF05594)
"Haemagglutinin repeat"</title>
				<rect class="PF05594" x="986" y="28" stroke-linejoin="round" width="6" height="24" fill="rgb(228,167,73)" stroke="rgb(182,133,58)" stroke-width="1" opacity="0.75" />
			</g>
			<g>
				<title>Fil_haemagg (PF05594)
"Haemagglutinin repeat"</title>
				<rect class="PF05594" x="997" y="28" stroke-linejoin="round" width="5" height="24" fill="rgb(228,167,73)" stroke="rgb(182,133,58)" stroke-width="1" opacity="0.75" />
			</g>
			<g>
				<title>Fil_haemagg (PF05594)
"Haemagglutinin repeat"</title>
				<rect class="PF05594" x="1003" y="28" stroke-linejoin="round" width="10" height="24" fill="rgb(228,167,73)" stroke="rgb(182,133,58)" stroke-width="1" opacity="0.75" />
			</g>
			<g>
				<title>Fil_haemagg (PF05594)
"Haemagglutinin repeat"</title>
				<rect class="PF05594" x="1020" y="28" stroke-linejoin="round" width="6" height="24" fill="rgb(228,167,73)" stroke="rgb(182,133,58)" stroke-width="1" opacity="0.75" />
			</g>
			<g>
				<title>TPS (PF05860)
"TPS secretion domain"</title>
				<rect class="PF05860" x="1029" y="28" stroke-linejoin="round" width="25" height="24" fill="rgb(56,197,81)" stroke="rgb(44,157,64)" stroke-width="1" opacity="0.75" />
			</g>
		</g>
		<g>
			<title> (ctg4_339)</title>
			<polygon class=" (ctg4_339)" points="1138,25 1097,25 1097,10 1067,40 1097,70 1097,55 1138,55" fill="rgb(255,255,255)" fill-opacity="1.0" stroke="rgb(0,0,0)" stroke-width="2"  />
			<g>
				<title>AAA_31 (PF13614)
"AAA domain"</title>
				<polygon class="PF13614" points="1071,40 1083,28 1085,28 1085,52 1083,52" stroke-linejoin="round" width="16" height="24" fill="rgb(144,187,62)" stroke="rgb(115,149,49)" stroke-width="1" opacity="0.75" />
			</g>
			<g>
				<title>GNVR (PF13807)
"G-rich domain on putative tyrosine kinase"</title>
				<rect class="PF13807" x="1093" y="28" stroke-linejoin="round" width="8" height="24" fill="rgb(77,110,190)" stroke="rgb(61,87,152)" stroke-width="1" opacity="0.75" />
			</g>
			<g>
				<title>Wzz (PF02706)
"Chain length determinant protein"</title>
				<rect class="PF02706" x="1127" y="28" stroke-linejoin="round" width="9" height="24" fill="rgb(184,132,90)" stroke="rgb(147,105,72)" stroke-width="1" opacity="0.75" />
			</g>
		</g>
		<g>
			<title> (ctg4_340)</title>
			<polygon class=" (ctg4_340)" points="1139,40 1148,10 1148,70" fill="rgb(255,255,255)" fill-opacity="1.0" stroke="rgb(0,0,0)" stroke-width="2"  />
			<g>
				<title>LMWPc (PF01451)
"Low molecular weight phosphotyrosine protein phosphatase"</title>
				<polygon class="PF01451" points="1142,40 1146,28 1148,28 1148,52 1146,52" stroke-linejoin="round" width="9" height="24" fill="rgb(199,53,196)" stroke="rgb(159,42,156)" stroke-width="1" opacity="0.75" />
			</g>
		</g>
		<g>
			<title> (ctg4_341)</title>
			<polygon class=" (ctg4_341)" points="1192,25 1184,25 1184,10 1154,40 1184,70 1184,55 1192,55" fill="rgb(255,255,255)" fill-opacity="1.0" stroke="rgb(0,0,0)" stroke-width="2"  />
			<g>
				<title>Wza_C (PF18412)
"Outer-membrane lipoprotein Wza C-terminal domain"</title>
				<polygon class="PF18412" points="1158,40 1156,42 1156,38" stroke-linejoin="round" width="2" height="24" fill="rgb(204,137,88)" stroke="rgb(163,109,70)" stroke-width="1" opacity="0.75" />
			</g>
			<g>
				<title>SLBB (PF10531)
"SLBB domain"</title>
				<polygon class="PF10531" points="1169,29 1170,28 1174,28 1174,52 1170,52 1169,51" stroke-linejoin="round" width="5" height="24" fill="rgb(92,145,209)" stroke="rgb(73,116,167)" stroke-width="1" opacity="0.75" />
			</g>
			<g>
				<title>Poly_export (PF02563)
"Polysaccharide biosynthesis/export protein"</title>
				<rect class="PF02563" x="1175" y="28" stroke-linejoin="round" width="8" height="24" fill="rgb(125,185,59)" stroke="rgb(100,148,47)" stroke-width="1" opacity="0.75" />
			</g>
		</g>
		<g>
			<title> (ctg4_342)</title>
			<polygon class=" (ctg4_342)" points="1209,10 1232,40 1209,70" fill="rgb(255,255,255)" fill-opacity="1.0" stroke="rgb(0,0,0)" stroke-width="2"  />
			<g>
				<title>GerE (PF00196)
"Bacterial regulatory proteins, luxR family"</title>
				<polygon class="PF00196" points="1223,34 1228,40 1228,40 1223,46" stroke-linejoin="round" width="5" height="24" fill="rgb(219,94,82)" stroke="rgb(175,75,65)" stroke-width="1" opacity="0.75" />
			</g>
		</g>
		<g>
			<title> (ctg4_343)</title>
			<polygon class=" (ctg4_343)" points="1266,25 1265,25 1265,10 1235,40 1265,70 1265,55 1266,55" fill="rgb(255,255,255)" fill-opacity="1.0" stroke="rgb(0,0,0)" stroke-width="2"  />
			<g>
				<title>OmpA (PF00691)
"OmpA family"</title>
				<polygon class="PF00691" points="1239,40 1245,34 1245,46" stroke-linejoin="round" width="9" height="24" fill="rgb(121,200,70)" stroke="rgb(96,160,56)" stroke-width="1" opacity="0.75" />
			</g>
		</g>
	</g>
</svg>
