<svg version="1.1" baseProfile="full" xmlns="http://www.w3.org/2000/svg" width="748.4666666666667" height="80">
	<g>
		<line x1="10" y1="40.0" x2="738.4666666666667" y2="40.0" style="stroke:rgb(70,70,70); stroke-width:3 "/>
		<g>
			<title> (ctg1_2045)</title>
			<polygon class=" (ctg1_2045)" points="29,40 56,10 56,70" fill="rgb(255,255,255)" fill-opacity="1.0" stroke="rgb(0,0,0)" stroke-width="2"  />
			<g>
				<title>Acetyltransf_1 (PF00583)
"Acetyltransferase (GNAT) family"</title>
				<polygon class="PF00583" points="33,40 41,31 41,49" stroke-linejoin="round" width="11" height="24" fill="rgb(121,183,50)" stroke="rgb(96,146,39)" stroke-width="1" opacity="0.75" />
			</g>
		</g>
		<g>
			<title> (ctg1_2046)</title>
			<polygon class=" (ctg1_2046)" points="109,25 89,25 89,10 59,40 89,70 89,55 109,55" fill="rgb(255,255,255)" fill-opacity="1.0" stroke="rgb(0,0,0)" stroke-width="2"  />
			<g>
				<title>ASL_C2 (PF14698)
"Argininosuccinate lyase C-terminal"</title>
				<polygon class="PF14698" points="64,39 71,32 71,48 64,41" stroke-linejoin="round" width="7" height="24" fill="rgb(107,69,187)" stroke="rgb(85,55,149)" stroke-width="1" opacity="0.75" />
			</g>
			<g>
				<title>Lyase_1 (PF00206)
"Lyase"</title>
				<rect class="PF00206" x="78" y="28" stroke-linejoin="round" width="28" height="24" fill="rgb(217,92,141)" stroke="rgb(173,73,112)" stroke-width="1" opacity="0.75" />
			</g>
		</g>
		<g>
			<title> (ctg1_2047)</title>
			<polygon class=" (ctg1_2047)" points="150,25 143,25 143,10 113,40 143,70 143,55 150,55" fill="rgb(255,255,255)" fill-opacity="1.0" stroke="rgb(0,0,0)" stroke-width="2"  />
			<g>
				<title>Beta-lactamase2 (PF13354)
"Beta-lactamase enzyme family"</title>
				<rect class="PF13354" x="132" y="28" stroke-linejoin="round" width="12" height="24" fill="rgb(72,61,190)" stroke="rgb(57,48,152)" stroke-width="1" opacity="0.75" />
			</g>
		</g>
		<g>
			<title> (ctg1_2048)</title>
			<polygon class=" (ctg1_2048)" points="185,25 184,25 184,10 154,40 184,70 184,55 185,55" fill="rgb(255,255,255)" fill-opacity="1.0" stroke="rgb(0,0,0)" stroke-width="2"  />
			<g>
				<title>IU_nuc_hydro (PF01156)
"Inosine-uridine preferring nucleoside hydrolase"</title>
				<polygon class="PF01156" points="158,40 170,28 183,28 183,52 170,52" stroke-linejoin="round" width="29" height="24" fill="rgb(156,80,217)" stroke="rgb(124,64,173)" stroke-width="1" opacity="0.75" />
			</g>
		</g>
		<g>
			<title> (ctg1_2049)</title>
			<polygon class=" (ctg1_2049)" points="236,25 219,25 219,10 189,40 219,70 219,55 236,55" fill="rgb(255,255,255)" fill-opacity="1.0" stroke="rgb(0,0,0)" stroke-width="2"  />
			<g>
				<title>SSF (PF00474)
"Sodium:solute symporter family"</title>
				<polygon class="PF00474" points="193,40 205,28 232,28 232,52 205,52 193,40" stroke-linejoin="round" width="39" height="24" fill="rgb(49,186,178)" stroke="rgb(39,148,142)" stroke-width="1" opacity="0.75" />
			</g>
		</g>
		<g>
			<title> (ctg1_2050)</title>
			<polygon class=" (ctg1_2050)" points="237,40 246,10 246,70" fill="rgb(255,255,255)" fill-opacity="1.0" stroke="rgb(0,0,0)" stroke-width="2"  />
			<g>
				<title>DUF997 (PF06196)
"Protein of unknown function (DUF997)"</title>
				<polygon class="PF06196" points="240,40 244,28 244,28 244,52 244,52" stroke-linejoin="round" width="7" height="24" fill="rgb(213,96,143)" stroke="rgb(170,76,114)" stroke-width="1" opacity="0.75" />
			</g>
		</g>
		<g>
			<title> (ctg1_2051)</title>
			<polygon class=" (ctg1_2051)" points="255,25 274,25 274,10 304,40 274,70 274,55 255,55" fill="rgb(255,255,255)" fill-opacity="1.0" stroke="rgb(0,0,0)" stroke-width="2"  />
			<g>
				<title>Aldedh (PF00171)
"Aldehyde dehydrogenase family"</title>
				<polygon class="PF00171" points="257,28 288,28 300,40 288,52 257,52" stroke-linejoin="round" width="46" height="24" fill="rgb(105,213,139)" stroke="rgb(84,170,111)" stroke-width="1" opacity="0.75" />
			</g>
		</g>
		<g>
			<title> (ctg1_2052)</title>
			<polygon class=" (ctg1_2052)" points="306,40 330,10 330,70" fill="rgb(255,255,255)" fill-opacity="1.0" stroke="rgb(0,0,0)" stroke-width="2"  />
			<g>
				<title>adh_short_C2 (PF13561)
"Enoyl-(Acyl carrier protein) reductase"</title>
				<polygon class="PF13561" points="310,40 320,28 329,28 329,52 320,52" stroke-linejoin="round" width="23" height="24" fill="rgb(73,205,127)" stroke="rgb(58,164,101)" stroke-width="1" opacity="0.75" />
			</g>
		</g>
		<g>
			<title> (ctg1_2053)</title>
			<polygon class=" (ctg1_2053)" points="335,10 340,40 335,70" fill="rgb(255,255,255)" fill-opacity="1.0" stroke="rgb(0,0,0)" stroke-width="2"  />
			<g>
				<title>YfhD (PF14151)
"YfhD-like protein"</title>
				<polygon class="PF14151" points="335,29 336,40 335,51" stroke-linejoin="round" width="4" height="24" fill="rgb(104,151,223)" stroke="rgb(83,120,178)" stroke-width="1" opacity="0.75" />
			</g>
		</g>
		<g>
			<title> (ctg1_2054)</title>
			<polygon class=" (ctg1_2054)" points="404,25 373,25 373,10 343,40 373,70 373,55 404,55" fill="rgb(255,255,255)" fill-opacity="1.0" stroke="rgb(0,0,0)" stroke-width="2"  />
			<g>
				<title>SQHop_cyclase_C (PF13243)
"Squalene-hopene cyclase C-terminal domain"</title>
				<polygon class="PF13243" points="347,40 359,28 374,28 374,52 359,52" stroke-linejoin="round" width="31" height="24" fill="rgb(191,58,201)" stroke="rgb(152,46,160)" stroke-width="1" opacity="0.75" />
			</g>
			<g>
				<title>SQHop_cyclase_N (PF13249)
"Squalene-hopene cyclase N-terminal domain"</title>
				<rect class="PF13249" x="375" y="28" stroke-linejoin="round" width="28" height="24" fill="rgb(88,190,89)" stroke="rgb(70,152,71)" stroke-width="1" opacity="0.75" />
			</g>
		</g>
		<g>
			<title> (ctg1_2055)</title>
			<polygon class=" (ctg1_2055)" points="408,40 422,10 422,70" fill="rgb(255,255,255)" fill-opacity="1.0" stroke="rgb(0,0,0)" stroke-width="2"  />
			<g>
				<title>DUF212 (PF02681)
"Divergent PAP2 family"</title>
				<polygon class="PF02681" points="411,40 417,28 421,28 421,52 417,52" stroke-linejoin="round" width="13" height="24" fill="rgb(215,62,131)" stroke="rgb(172,49,104)" stroke-width="1" opacity="0.75" />
			</g>
		</g>
		<g>
			<title> (ctg1_2056)</title>
			<polygon class=" (ctg1_2056)" points="456,25 455,25 455,10 425,40 455,70 455,55 456,55" fill="rgb(255,255,255)" fill-opacity="1.0" stroke="rgb(0,0,0)" stroke-width="2"  />
			<g>
				<title>EamA (PF00892)
"EamA-like transporter family"</title>
				<polygon class="PF00892" points="441,28 441,28 455,28 455,52 441,52 441,52" stroke-linejoin="round" width="14" height="24" fill="rgb(105,217,77)" stroke="rgb(84,173,61)" stroke-width="1" opacity="0.75" />
			</g>
		</g>
		<g>
			<title> (ctg1_2057)</title>
			<polygon class=" (ctg1_2057)" points="459,40 467,10 467,70" fill="rgb(255,255,255)" fill-opacity="1.0" stroke="rgb(0,0,0)" stroke-width="2"  />
			<g>
				<title>DUF1294 (PF06961)
"Protein of unknown function (DUF1294)"</title>
				<polygon class="PF06961" points="462,40 465,28 465,28 465,52 465,52" stroke-linejoin="round" width="5" height="24" fill="rgb(60,216,103)" stroke="rgb(47,172,82)" stroke-width="1" opacity="0.75" />
			</g>
		</g>
		<g>
			<title> (ctg1_2058)</title>
			<polygon class=" (ctg1_2058)" points="474,40 487,10 487,70" fill="rgb(255,255,255)" fill-opacity="1.0" stroke="rgb(0,0,0)" stroke-width="2"  />
		</g>
		<g>
			<title> (ctg1_2059)</title>
			<polygon class=" (ctg1_2059)" points="488,40 495,10 495,70" fill="rgb(255,255,255)" fill-opacity="1.0" stroke="rgb(0,0,0)" stroke-width="2"  />
		</g>
		<g>
			<title> (ctg1_2060)</title>
			<polygon class=" (ctg1_2060)" points="531,25 526,25 526,10 496,40 526,70 526,55 531,55" fill="rgb(255,255,255)" fill-opacity="1.0" stroke="rgb(0,0,0)" stroke-width="2"  />
			<g>
				<title>ParA (PF10609)
"NUBPL iron-transfer P-loop NTPase"</title>
				<polygon class="PF10609" points="500,40 512,28 519,28 519,52 512,52" stroke-linejoin="round" width="23" height="24" fill="rgb(107,194,90)" stroke="rgb(85,155,72)" stroke-width="1" opacity="0.75" />
			</g>
			<g>
				<title>FeS_assembly_P (PF01883)
"Iron-sulfur cluster assembly protein"</title>
				<rect class="PF01883" x="523" y="28" stroke-linejoin="round" width="7" height="24" fill="rgb(171,209,57)" stroke="rgb(136,167,45)" stroke-width="1" opacity="0.75" />
			</g>
		</g>
		<g>
			<title> (ctg1_2061)</title>
			<polygon class=" (ctg1_2061)" points="534,40 541,10 541,70" fill="rgb(255,255,255)" fill-opacity="1.0" stroke="rgb(0,0,0)" stroke-width="2"  />
			<g>
				<title>ThiS (PF02597)
"ThiS family"</title>
				<polygon class="PF02597" points="537,40 540,28 541,28 541,52 540,52" stroke-linejoin="round" width="7" height="24" fill="rgb(73,117,196)" stroke="rgb(58,93,156)" stroke-width="1" opacity="0.75" />
			</g>
		</g>
		<g>
			<title> (ctg1_2062)</title>
			<polygon class=" (ctg1_2062)" points="542,40 557,10 557,70" fill="rgb(255,255,255)" fill-opacity="1.0" stroke="rgb(0,0,0)" stroke-width="2"  />
			<g>
				<title>MoaE (PF02391)
"MoaE protein"</title>
				<polygon class="PF02391" points="545,40 551,28 556,28 556,52 551,52 545,40" stroke-linejoin="round" width="11" height="24" fill="rgb(70,60,221)" stroke="rgb(56,48,176)" stroke-width="1" opacity="0.75" />
			</g>
		</g>
		<g>
			<title> (ctg1_2063)</title>
			<polygon class=" (ctg1_2063)" points="600,25 587,25 587,10 557,40 587,70 587,55 600,55" fill="rgb(255,255,255)" fill-opacity="1.0" stroke="rgb(0,0,0)" stroke-width="2"  />
			<g>
				<title>MoeA_C (PF03454)
"MoeA C-terminal region (domain IV)"</title>
				<polygon class="PF03454" points="561,40 566,35 566,45" stroke-linejoin="round" width="7" height="24" fill="rgb(59,190,161)" stroke="rgb(47,152,128)" stroke-width="1" opacity="0.75" />
			</g>
			<g>
				<title>MoCF_biosynth (PF00994)
"Probable molybdopterin binding domain"</title>
				<polygon class="PF00994" points="568,33 573,28 581,28 581,52 573,52 568,47" stroke-linejoin="round" width="13" height="24" fill="rgb(75,187,175)" stroke="rgb(60,149,139)" stroke-width="1" opacity="0.75" />
			</g>
			<g>
				<title>MoeA_N (PF03453)
"MoeA N-terminal region (domain I and II)"</title>
				<rect class="PF03453" x="583" y="28" stroke-linejoin="round" width="16" height="24" fill="rgb(93,188,107)" stroke="rgb(74,150,85)" stroke-width="1" opacity="0.75" />
			</g>
		</g>
		<g>
			<title> (ctg1_2064)</title>
			<polygon class=" (ctg1_2064)" points="634,25 631,25 631,10 601,40 631,70 631,55 634,55" fill="rgb(255,255,255)" fill-opacity="1.0" stroke="rgb(0,0,0)" stroke-width="2"  />
			<g>
				<title>ThiF (PF00899)
"ThiF family"</title>
				<polygon class="PF00899" points="610,35 617,28 633,28 633,52 617,52 610,45" stroke-linejoin="round" width="23" height="24" fill="rgb(82,50,180)" stroke="rgb(65,39,144)" stroke-width="1" opacity="0.75" />
			</g>
		</g>
		<g>
			<title> (ctg1_2065)</title>
			<polygon class=" (ctg1_2065)" points="635,40 661,10 661,70" fill="rgb(255,255,255)" fill-opacity="1.0" stroke="rgb(0,0,0)" stroke-width="2"  />
			<g>
				<title>Form_Nir_trans (PF01226)
"Formate/nitrite transporter"</title>
				<polygon class="PF01226" points="639,40 649,28 660,28 660,52 649,52" stroke-linejoin="round" width="24" height="24" fill="rgb(206,55,143)" stroke="rgb(164,44,114)" stroke-width="1" opacity="0.75" />
			</g>
		</g>
		<g>
			<title> (ctg1_2066)</title>
			<polygon class=" (ctg1_2066)" points="701,25 698,25 698,10 668,40 698,70 698,55 701,55" fill="rgb(255,255,255)" fill-opacity="1.0" stroke="rgb(0,0,0)" stroke-width="2"  />
			<g>
				<title>Mob_synth_C (PF06463)
"Molybdenum Cofactor Synthesis C"</title>
				<polygon class="PF06463" points="672,40 682,30 682,50" stroke-linejoin="round" width="12" height="24" fill="rgb(149,103,225)" stroke="rgb(119,82,180)" stroke-width="1" opacity="0.75" />
			</g>
			<g>
				<title>Radical_SAM (PF04055)
"Radical SAM superfamily"</title>
				<polygon class="PF04055" points="683,29 684,28 699,28 699,52 684,52 683,51" stroke-linejoin="round" width="16" height="24" fill="rgb(149,56,222)" stroke="rgb(119,44,177)" stroke-width="1" opacity="0.75" />
			</g>
		</g>
		<g>
			<title> (ctg1_2067)</title>
			<polygon class=" (ctg1_2067)" points="702,40 728,10 728,70" fill="rgb(255,255,255)" fill-opacity="1.0" stroke="rgb(0,0,0)" stroke-width="2"  />
			<g>
				<title>FdhD-NarQ (PF02634)
"FdhD/NarQ family"</title>
				<polygon class="PF02634" points="706,40 717,28 725,28 725,52 717,52" stroke-linejoin="round" width="23" height="24" fill="rgb(94,203,116)" stroke="rgb(75,162,92)" stroke-width="1" opacity="0.75" />
			</g>
		</g>
	</g>
</svg>
