<svg version="1.1" baseProfile="full" xmlns="http://www.w3.org/2000/svg" width="1400.6333333333334" height="80">
	<g>
		<line x1="10" y1="40.0" x2="1390.6333333333334" y2="40.0" style="stroke:rgb(70,70,70); stroke-width:3 "/>
		<g>
			<title> (ctg1_714)</title>
			<polygon class=" (ctg1_714)" points="60,40 77,10 77,70" fill="rgb(255,255,255)" fill-opacity="1.0" stroke="rgb(0,0,0)" stroke-width="2"  />
			<g>
				<title>YwhD (PF08741)
"YwhD family"</title>
				<polygon class="PF08741" points="63,40 70,28 76,28 76,52 70,52" stroke-linejoin="round" width="16" height="24" fill="rgb(198,193,90)" stroke="rgb(158,154,72)" stroke-width="1" opacity="0.75" />
			</g>
		</g>
		<g>
			<title> (ctg1_715)</title>
			<polygon class=" (ctg1_715)" points="78,40 100,10 100,70" fill="rgb(255,255,255)" fill-opacity="1.0" stroke="rgb(0,0,0)" stroke-width="2"  />
			<g>
				<title>Peptidase_M50 (PF02163)
"Peptidase family M50"</title>
				<polygon class="PF02163" points="82,40 88,32 88,48" stroke-linejoin="round" width="7" height="24" fill="rgb(105,96,203)" stroke="rgb(83,76,162)" stroke-width="1" opacity="0.75" />
			</g>
			<g>
				<title>Peptidase_M50 (PF02163)
"Peptidase family M50"</title>
				<polygon class="PF02163" points="87,33 91,28 97,28 97,52 91,52 87,47" stroke-linejoin="round" width="10" height="24" fill="rgb(105,96,203)" stroke="rgb(83,76,162)" stroke-width="1" opacity="0.75" />
			</g>
		</g>
		<g>
			<title> (ctg1_716)</title>
			<polygon class=" (ctg1_716)" points="103,10 109,40 103,70" fill="rgb(255,255,255)" fill-opacity="1.0" stroke="rgb(0,0,0)" stroke-width="2"  />
			<g>
				<title>Tautomerase (PF01361)
"Tautomerase enzyme"</title>
				<polygon class="PF01361" points="103,28 103,28 106,40 103,52 103,52" stroke-linejoin="round" width="5" height="24" fill="rgb(223,210,102)" stroke="rgb(178,168,81)" stroke-width="1" opacity="0.75" />
			</g>
		</g>
		<g>
			<title> (ctg1_717)</title>
			<polygon class=" (ctg1_717)" points="111,40 125,10 125,70" fill="rgb(255,255,255)" fill-opacity="1.0" stroke="rgb(0,0,0)" stroke-width="2"  />
			<g>
				<title>MarR (PF01047)
"MarR family"</title>
				<polygon class="PF01047" points="115,38 120,28 120,28 120,52 120,52 115,42" stroke-linejoin="round" width="5" height="24" fill="rgb(60,185,86)" stroke="rgb(48,148,68)" stroke-width="1" opacity="0.75" />
			</g>
		</g>
		<g>
			<title> (ctg1_718)</title>
			<polygon class=" (ctg1_718)" points="192,25 159,25 159,10 129,40 159,70 159,55 192,55" fill="rgb(255,255,255)" fill-opacity="1.0" stroke="rgb(0,0,0)" stroke-width="2"  />
			<g>
				<title>HGTP_anticodon (PF03129)
"Anticodon binding domain"</title>
				<polygon class="PF03129" points="133,40 138,35 138,45" stroke-linejoin="round" width="9" height="24" fill="rgb(115,202,95)" stroke="rgb(92,161,76)" stroke-width="1" opacity="0.75" />
			</g>
			<g>
				<title>tRNA-synt_2b (PF00587)
"tRNA synthetase class II core domain (G, H, P, S and T)"</title>
				<polygon class="PF00587" points="139,34 145,28 160,28 160,52 145,52 139,46" stroke-linejoin="round" width="21" height="24" fill="rgb(228,96,220)" stroke="rgb(182,76,176)" stroke-width="1" opacity="0.75" />
			</g>
			<g>
				<title>tRNA_SAD (PF07973)
"Threonyl and Alanyl tRNA synthetase second additional domain"</title>
				<rect class="PF07973" x="170" y="28" stroke-linejoin="round" width="4" height="24" fill="rgb(220,97,228)" stroke="rgb(176,77,182)" stroke-width="1" opacity="0.75" />
			</g>
			<g>
				<title>TGS (PF02824)
"TGS domain"</title>
				<rect class="PF02824" x="186" y="28" stroke-linejoin="round" width="5" height="24" fill="rgb(201,81,163)" stroke="rgb(160,64,130)" stroke-width="1" opacity="0.75" />
			</g>
		</g>
		<g>
			<title> (ctg1_719)</title>
			<polygon class=" (ctg1_719)" points="213,40 218,10 218,70" fill="rgb(255,255,255)" fill-opacity="1.0" stroke="rgb(0,0,0)" stroke-width="2"  />
		</g>
		<g>
			<title> (ctg1_720)</title>
			<polygon class=" (ctg1_720)" points="268,25 251,25 251,10 221,40 251,70 251,55 268,55" fill="rgb(255,255,255)" fill-opacity="1.0" stroke="rgb(0,0,0)" stroke-width="2"  />
			<g>
				<title>MFS_1 (PF07690)
"Major Facilitator Superfamily"</title>
				<polygon class="PF07690" points="226,39 237,28 247,28 247,52 237,52 226,41" stroke-linejoin="round" width="21" height="24" fill="rgb(193,224,74)" stroke="rgb(154,179,59)" stroke-width="1" opacity="0.75" />
			</g>
			<g>
				<title>MFS_1 (PF07690)
"Major Facilitator Superfamily"</title>
				<rect class="PF07690" x="247" y="28" stroke-linejoin="round" width="18" height="24" fill="rgb(193,224,74)" stroke="rgb(154,179,59)" stroke-width="1" opacity="0.75" />
			</g>
		</g>
		<g>
			<title> (ctg1_721)</title>
			<polygon class=" (ctg1_721)" points="268,40 283,10 283,70" fill="rgb(255,255,255)" fill-opacity="1.0" stroke="rgb(0,0,0)" stroke-width="2"  />
			<g>
				<title>Rrf2 (PF02082)
"Iron-dependent Transcriptional regulator"</title>
				<polygon class="PF02082" points="271,40 277,28 283,28 283,52 277,52" stroke-linejoin="round" width="13" height="24" fill="rgb(73,178,133)" stroke="rgb(58,142,106)" stroke-width="1" opacity="0.75" />
			</g>
		</g>
		<g>
			<title> (ctg1_722)</title>
			<polygon class=" (ctg1_722)" points="287,40 303,10 303,70" fill="rgb(255,255,255)" fill-opacity="1.0" stroke="rgb(0,0,0)" stroke-width="2"  />
		</g>
		<g>
			<title> (ctg1_723)</title>
			<polygon class=" (ctg1_723)" points="348,25 335,25 335,10 305,40 335,70 335,55 348,55" fill="rgb(255,255,255)" fill-opacity="1.0" stroke="rgb(0,0,0)" stroke-width="2"  />
			<g>
				<title>HD_assoc_2 (PF19276)
"HD associated region"</title>
				<polygon class="PF19276" points="309,40 321,28 328,28 328,52 321,52" stroke-linejoin="round" width="22" height="24" fill="rgb(61,158,200)" stroke="rgb(48,126,160)" stroke-width="1" opacity="0.75" />
			</g>
			<g>
				<title>HD (PF01966)
"HD domain"</title>
				<rect class="PF01966" x="330" y="28" stroke-linejoin="round" width="12" height="24" fill="rgb(92,193,119)" stroke="rgb(73,154,95)" stroke-width="1" opacity="0.75" />
			</g>
		</g>
		<g>
			<title> (ctg1_724)</title>
			<polygon class=" (ctg1_724)" points="354,40 361,10 361,70" fill="rgb(255,255,255)" fill-opacity="1.0" stroke="rgb(0,0,0)" stroke-width="2"  />
			<g>
				<title>DUF1450 (PF07293)
"Protein of unknown function (DUF1450)"</title>
				<polygon class="PF07293" points="357,40 360,28 361,28 361,52 360,52" stroke-linejoin="round" width="7" height="24" fill="rgb(82,160,191)" stroke="rgb(65,127,152)" stroke-width="1" opacity="0.75" />
			</g>
		</g>
		<g>
			<title> (ctg1_725)</title>
			<polygon class=" (ctg1_725)" points="368,10 393,40 368,70" fill="rgb(255,255,255)" fill-opacity="1.0" stroke="rgb(0,0,0)" stroke-width="2"  />
		</g>
		<g>
			<title> (ctg1_726)</title>
			<polygon class=" (ctg1_726)" points="399,40 428,10 428,70" fill="rgb(255,255,255)" fill-opacity="1.0" stroke="rgb(0,0,0)" stroke-width="2"  />
			<g>
				<title>EamA (PF00892)
"EamA-like transporter family"</title>
				<polygon class="PF00892" points="403,40 413,30 413,50" stroke-linejoin="round" width="13" height="24" fill="rgb(105,217,77)" stroke="rgb(84,173,61)" stroke-width="1" opacity="0.75" />
			</g>
			<g>
				<title>EamA (PF00892)
"EamA-like transporter family"</title>
				<polygon class="PF00892" points="414,29 415,28 427,28 427,52 415,52 414,51" stroke-linejoin="round" width="13" height="24" fill="rgb(105,217,77)" stroke="rgb(84,173,61)" stroke-width="1" opacity="0.75" />
			</g>
		</g>
		<g>
			<title> (ctg1_727)</title>
			<polygon class=" (ctg1_727)" points="434,40 462,10 462,70" fill="rgb(255,255,255)" fill-opacity="1.0" stroke="rgb(0,0,0)" stroke-width="2"  />
			<g>
				<title>BPL_LplA_LipB (PF03099)
"Biotin/lipoate A/B protein ligase family"</title>
				<polygon class="PF03099" points="443,35 449,28 455,28 455,52 449,52 443,45" stroke-linejoin="round" width="12" height="24" fill="rgb(228,147,105)" stroke="rgb(182,117,84)" stroke-width="1" opacity="0.75" />
			</g>
		</g>
		<g>
			<title> (ctg1_728)</title>
			<polygon class=" (ctg1_728)" points="494,25 494,25 494,10 464,40 494,70 494,55 494,55" fill="rgb(255,255,255)" fill-opacity="1.0" stroke="rgb(0,0,0)" stroke-width="2"  />
			<g>
				<title>LysR_substrate (PF03466)
"LysR substrate binding domain"</title>
				<polygon class="PF03466" points="468,40 480,28 484,28 484,52 480,52" stroke-linejoin="round" width="20" height="24" fill="rgb(55,136,195)" stroke="rgb(44,108,156)" stroke-width="1" opacity="0.75" />
			</g>
			<g>
				<title>HTH_1 (PF00126)
"Bacterial regulatory helix-turn-helix protein, lysR family"</title>
				<rect class="PF00126" x="487" y="28" stroke-linejoin="round" width="5" height="24" fill="rgb(125,227,79)" stroke="rgb(99,181,63)" stroke-width="1" opacity="0.75" />
			</g>
		</g>
		<g>
			<title> (ctg1_729)</title>
			<polygon class=" (ctg1_729)" points="531,25 529,25 529,10 499,40 529,70 529,55 531,55" fill="rgb(255,255,255)" fill-opacity="1.0" stroke="rgb(0,0,0)" stroke-width="2"  />
			<g>
				<title>PTA_PTB (PF01515)
"Phosphate acetyl/butaryl transferase"</title>
				<polygon class="PF01515" points="503,40 515,28 530,28 530,52 515,52" stroke-linejoin="round" width="31" height="24" fill="rgb(53,147,183)" stroke="rgb(42,117,146)" stroke-width="1" opacity="0.75" />
			</g>
		</g>
		<g>
			<title> (ctg1_730)</title>
			<polygon class=" (ctg1_730)" points="540,10 565,40 540,70" fill="rgb(255,255,255)" fill-opacity="1.0" stroke="rgb(0,0,0)" stroke-width="2"  />
			<g>
				<title>Chlor_dismutase (PF06778)
"Chlorite dismutase"</title>
				<polygon class="PF06778" points="543,28 551,28 561,40 551,52 543,52" stroke-linejoin="round" width="20" height="24" fill="rgb(179,57,142)" stroke="rgb(143,45,113)" stroke-width="1" opacity="0.75" />
			</g>
		</g>
		<g>
			<title> (ctg1_731)</title>
			<polygon class=" (ctg1_731)" points="570,10 596,40 570,70" fill="rgb(255,255,255)" fill-opacity="1.0" stroke="rgb(0,0,0)" stroke-width="2"  />
			<g>
				<title>adh_short_C2 (PF13561)
"Enoyl-(Acyl carrier protein) reductase"</title>
				<polygon class="PF13561" points="571,28 582,28 592,40 582,52 571,52" stroke-linejoin="round" width="24" height="24" fill="rgb(73,205,127)" stroke="rgb(58,164,101)" stroke-width="1" opacity="0.75" />
			</g>
		</g>
		<g>
			<title> (ctg1_732)</title>
			<polygon class=" (ctg1_732)" points="637,25 627,25 627,10 597,40 627,70 627,55 637,55" fill="rgb(255,255,255)" fill-opacity="1.0" stroke="rgb(0,0,0)" stroke-width="2"  />
			<g>
				<title>Aminotran_1_2 (PF00155)
"Aminotransferase class I and II"</title>
				<polygon class="PF00155" points="601,40 613,28 633,28 633,52 613,52" stroke-linejoin="round" width="35" height="24" fill="rgb(89,113,198)" stroke="rgb(71,90,158)" stroke-width="1" opacity="0.75" />
			</g>
		</g>
		<g>
			<title> (ctg1_733)</title>
			<polygon class=" (ctg1_733)" points="676,25 667,25 667,10 637,40 667,70 667,55 676,55" fill="rgb(255,255,255)" fill-opacity="1.0" stroke="rgb(0,0,0)" stroke-width="2"  />
			<g>
				<title>MFS_1 (PF07690)
"Major Facilitator Superfamily"</title>
				<polygon class="PF07690" points="641,40 653,28 674,28 674,52 653,52 641,40" stroke-linejoin="round" width="33" height="24" fill="rgb(193,224,74)" stroke="rgb(154,179,59)" stroke-width="1" opacity="0.75" />
			</g>
		</g>
		<g>
			<title> (ctg1_734)</title>
			<polygon class=" (ctg1_734)" points="723,25 706,25 706,10 676,40 706,70 706,55 723,55" fill="rgb(255,255,255)" fill-opacity="1.0" stroke="rgb(0,0,0)" stroke-width="2"  />
			<g>
				<title>ATP-grasp_4 (PF13535)
"ATP-grasp domain"</title>
				<polygon class="PF13535" points="689,31 692,28 705,28 705,52 692,52 689,49" stroke-linejoin="round" width="16" height="24" fill="rgb(197,156,74)" stroke="rgb(157,124,59)" stroke-width="1" opacity="0.75" />
			</g>
		</g>
		<g>
			<title> (ctg1_735)</title>
			<polygon class=" (ctg1_735)" points="724,40 749,10 749,70" fill="rgb(255,255,255)" fill-opacity="1.0" stroke="rgb(0,0,0)" stroke-width="2"  />
			<g>
				<title>adh_short_C2 (PF13561)
"Enoyl-(Acyl carrier protein) reductase"</title>
				<polygon class="PF13561" points="728,40 738,28 747,28 747,52 738,52" stroke-linejoin="round" width="23" height="24" fill="rgb(73,205,127)" stroke="rgb(58,164,101)" stroke-width="1" opacity="0.75" />
			</g>
		</g>
		<g>
			<title> (ctg1_736)</title>
			<polygon class=" (ctg1_736)" points="750,40 773,10 773,70" fill="rgb(255,255,255)" fill-opacity="1.0" stroke="rgb(0,0,0)" stroke-width="2"  />
			<g>
				<title>Cupin_2 (PF07883)
"Cupin domain"</title>
				<polygon class="PF07883" points="754,40 758,35 758,45" stroke-linejoin="round" width="7" height="24" fill="rgb(211,192,74)" stroke="rgb(168,153,59)" stroke-width="1" opacity="0.75" />
			</g>
			<g>
				<title>Cupin_2 (PF07883)
"Cupin domain"</title>
				<polygon class="PF07883" points="762,30 763,28 769,28 769,52 763,52 762,50" stroke-linejoin="round" width="7" height="24" fill="rgb(211,192,74)" stroke="rgb(168,153,59)" stroke-width="1" opacity="0.75" />
			</g>
		</g>
		<g>
			<title> (ctg1_737)</title>
			<polygon class=" (ctg1_737)" points="773,40 793,10 793,70" fill="rgb(255,255,255)" fill-opacity="1.0" stroke="rgb(0,0,0)" stroke-width="2"  />
		</g>
		<g>
			<title> (ctg1_738)</title>
			<polygon class=" (ctg1_738)" points="839,25 828,25 828,10 798,40 828,70 828,55 839,55" fill="rgb(255,255,255)" fill-opacity="1.0" stroke="rgb(0,0,0)" stroke-width="2"  />
			<g>
				<title>MFS_1 (PF07690)
"Major Facilitator Superfamily"</title>
				<polygon class="PF07690" points="805,37 814,28 837,28 837,52 814,52 805,43" stroke-linejoin="round" width="32" height="24" fill="rgb(193,224,74)" stroke="rgb(154,179,59)" stroke-width="1" opacity="0.75" />
			</g>
		</g>
		<g>
			<title> (ctg1_739)</title>
			<polygon class=" (ctg1_739)" points="892,25 877,25 877,10 847,40 877,70 877,55 892,55" fill="rgb(255,255,255)" fill-opacity="1.0" stroke="rgb(0,0,0)" stroke-width="2"  />
			<g>
				<title>AA_permease (PF00324)
"Amino acid permease"</title>
				<polygon class="PF00324" points="851,40 863,28 891,28 891,52 863,52" stroke-linejoin="round" width="44" height="24" fill="rgb(82,225,201)" stroke="rgb(65,180,160)" stroke-width="1" opacity="0.75" />
			</g>
		</g>
		<g>
			<title> (ctg1_740)</title>
			<polygon class=" (ctg1_740)" points="950,25 924,25 924,10 894,40 924,70 924,55 950,55" fill="rgb(255,255,255)" fill-opacity="1.0" stroke="rgb(0,0,0)" stroke-width="2"  />
			<g>
				<title>Peptidase_M20 (PF01546)
"Peptidase family M20/M25/M40"</title>
				<rect class="PF01546" x="917" y="28" stroke-linejoin="round" width="21" height="24" fill="rgb(88,213,108)" stroke="rgb(70,170,86)" stroke-width="1" opacity="0.75" />
			</g>
		</g>
		<g>
			<title> (ctg1_741)</title>
			<polygon class=" (ctg1_741)" points="1004,25 983,25 983,10 953,40 983,70 983,55 1004,55" fill="rgb(255,255,255)" fill-opacity="1.0" stroke="rgb(0,0,0)" stroke-width="2"  />
			<g>
				<title>Aldedh (PF00171)
"Aldehyde dehydrogenase family"</title>
				<polygon class="PF00171" points="957,40 969,28 999,28 999,52 969,52" stroke-linejoin="round" width="46" height="24" fill="rgb(105,213,139)" stroke="rgb(84,170,111)" stroke-width="1" opacity="0.75" />
			</g>
		</g>
		<g>
			<title> (ctg1_742)</title>
			<polygon class=" (ctg1_742)" points="1054,25 1042,25 1042,10 1012,40 1042,70 1042,55 1054,55" fill="rgb(255,255,255)" fill-opacity="1.0" stroke="rgb(0,0,0)" stroke-width="2"  />
			<g>
				<title>ELFV_dehydrog (PF00208)
"Glutamate/Leucine/Phenylalanine/Valine dehydrogenase"</title>
				<polygon class="PF00208" points="1016,40 1028,28 1035,28 1035,52 1028,52" stroke-linejoin="round" width="23" height="24" fill="rgb(181,160,45)" stroke="rgb(144,128,36)" stroke-width="1" opacity="0.75" />
			</g>
			<g>
				<title>ELFV_dehydrog_N (PF02812)
"Glu/Leu/Phe/Val dehydrogenase, dimerisation domain"</title>
				<rect class="PF02812" x="1037" y="28" stroke-linejoin="round" width="12" height="24" fill="rgb(157,52,200)" stroke="rgb(125,41,160)" stroke-width="1" opacity="0.75" />
			</g>
		</g>
		<g>
			<title> (ctg1_743)</title>
			<polygon class=" (ctg1_743)" points="1060,40 1075,10 1075,70" fill="rgb(255,255,255)" fill-opacity="1.0" stroke="rgb(0,0,0)" stroke-width="2"  />
			<g>
				<title>BslA (PF17735)
"Biofilm surface layer A"</title>
				<polygon class="PF17735" points="1063,40 1069,28 1071,28 1071,52 1069,52" stroke-linejoin="round" width="11" height="24" fill="rgb(215,66,96)" stroke="rgb(172,52,76)" stroke-width="1" opacity="0.75" />
			</g>
		</g>
		<g>
			<title> (ctg1_744)</title>
			<polygon class=" (ctg1_744)" points="1087,40 1102,10 1102,70" fill="rgb(255,255,255)" fill-opacity="1.0" stroke="rgb(0,0,0)" stroke-width="2"  />
			<g>
				<title>dTDP_sugar_isom (PF00908)
"dTDP-4-dehydrorhamnose 3,5-epimerase"</title>
				<polygon class="PF00908" points="1090,40 1096,28 1102,28 1102,52 1096,52" stroke-linejoin="round" width="15" height="24" fill="rgb(184,89,121)" stroke="rgb(147,71,96)" stroke-width="1" opacity="0.75" />
			</g>
		</g>
		<g>
			<title> (ctg1_745)</title>
			<polygon class=" (ctg1_745)" points="1101,40 1129,10 1129,70" fill="rgb(255,255,255)" fill-opacity="1.0" stroke="rgb(0,0,0)" stroke-width="2"  />
			<g>
				<title>RmlD_sub_bind (PF04321)
"RmlD substrate binding domain"</title>
				<polygon class="PF04321" points="1105,40 1116,28 1128,28 1128,52 1116,52" stroke-linejoin="round" width="27" height="24" fill="rgb(196,203,60)" stroke="rgb(156,162,47)" stroke-width="1" opacity="0.75" />
			</g>
		</g>
		<g>
			<title> (ctg1_746)</title>
			<polygon class=" (ctg1_746)" points="1161,25 1160,25 1160,10 1130,40 1160,70 1160,55 1161,55" fill="rgb(255,255,255)" fill-opacity="1.0" stroke="rgb(0,0,0)" stroke-width="2"  />
			<g>
				<title>GDP_Man_Dehyd (PF16363)
"GDP-mannose 4,6 dehydratase"</title>
				<polygon class="PF16363" points="1134,40 1146,28 1161,28 1161,52 1146,52" stroke-linejoin="round" width="30" height="24" fill="rgb(162,221,65)" stroke="rgb(129,176,51)" stroke-width="1" opacity="0.75" />
			</g>
		</g>
		<g>
			<title> (ctg1_747)</title>
			<polygon class=" (ctg1_747)" points="1162,40 1186,10 1186,70" fill="rgb(255,255,255)" fill-opacity="1.0" stroke="rgb(0,0,0)" stroke-width="2"  />
			<g>
				<title>NTP_transferase (PF00483)
"Nucleotidyl transferase"</title>
				<polygon class="PF00483" points="1166,40 1176,28 1185,28 1185,52 1176,52" stroke-linejoin="round" width="23" height="24" fill="rgb(198,101,87)" stroke="rgb(158,80,69)" stroke-width="1" opacity="0.75" />
			</g>
		</g>
		<g>
			<title> (ctg1_748)</title>
			<polygon class=" (ctg1_748)" points="1221,25 1217,25 1217,10 1187,40 1217,70 1217,55 1221,55" fill="rgb(255,255,255)" fill-opacity="1.0" stroke="rgb(0,0,0)" stroke-width="2"  />
			<g>
				<title>Glyco_tran_28_C (PF04101)
"Glycosyltransferase family 28 C-terminal domain"</title>
				<polygon class="PF04101" points="1191,40 1203,28 1204,28 1204,52 1203,52" stroke-linejoin="round" width="14" height="24" fill="rgb(211,90,140)" stroke="rgb(168,72,112)" stroke-width="1" opacity="0.75" />
			</g>
		</g>
		<g>
			<title> (ctg1_749)</title>
			<polygon class=" (ctg1_749)" points="1221,40 1245,10 1245,70" fill="rgb(255,255,255)" fill-opacity="1.0" stroke="rgb(0,0,0)" stroke-width="2"  />
			<g>
				<title>CTP_transf_3 (PF02348)
"Cytidylyltransferase"</title>
				<polygon class="PF02348" points="1225,40 1235,28 1243,28 1243,52 1235,52" stroke-linejoin="round" width="21" height="24" fill="rgb(198,69,151)" stroke="rgb(158,55,120)" stroke-width="1" opacity="0.75" />
			</g>
		</g>
		<g>
			<title> (ctg1_750)</title>
			<polygon class=" (ctg1_750)" points="1282,25 1275,25 1275,10 1245,40 1275,70 1275,55 1282,55" fill="rgb(255,255,255)" fill-opacity="1.0" stroke="rgb(0,0,0)" stroke-width="2"  />
			<g>
				<title>SAF (PF08666)
"SAF domain"</title>
				<polygon class="PF08666" points="1249,40 1251,38 1251,42" stroke-linejoin="round" width="6" height="24" fill="rgb(203,50,144)" stroke="rgb(162,40,115)" stroke-width="1" opacity="0.75" />
			</g>
			<g>
				<title>NeuB (PF03102)
"NeuB family"</title>
				<polygon class="PF03102" points="1254,35 1261,28 1277,28 1277,52 1261,52 1254,45" stroke-linejoin="round" width="23" height="24" fill="rgb(225,145,80)" stroke="rgb(180,116,64)" stroke-width="1" opacity="0.75" />
			</g>
		</g>
		<g>
			<title> (ctg1_751)</title>
			<polygon class=" (ctg1_751)" points="1283,40 1312,10 1312,70" fill="rgb(255,255,255)" fill-opacity="1.0" stroke="rgb(0,0,0)" stroke-width="2"  />
			<g>
				<title>Acetyltransf_1 (PF00583)
"Acetyltransferase (GNAT) family"</title>
				<polygon class="PF00583" points="1287,40 1296,31 1296,49" stroke-linejoin="round" width="12" height="24" fill="rgb(121,183,50)" stroke="rgb(96,146,39)" stroke-width="1" opacity="0.75" />
			</g>
		</g>
		<g>
			<title> (ctg1_752)</title>
			<polygon class=" (ctg1_752)" points="1351,25 1342,25 1342,10 1312,40 1342,70 1342,55 1351,55" fill="rgb(255,255,255)" fill-opacity="1.0" stroke="rgb(0,0,0)" stroke-width="2"  />
			<g>
				<title>DegT_DnrJ_EryC1 (PF01041)
"DegT/DnrJ/EryC1/StrS aminotransferase family"</title>
				<polygon class="PF01041" points="1316,40 1328,28 1348,28 1348,52 1328,52" stroke-linejoin="round" width="36" height="24" fill="rgb(59,139,191)" stroke="rgb(47,111,152)" stroke-width="1" opacity="0.75" />
			</g>
		</g>
	</g>
</svg>
