<svg version="1.1" baseProfile="full" xmlns="http://www.w3.org/2000/svg" width="1768.4333333333334" height="80">
	<g>
		<line x1="10" y1="40.0" x2="1758.4333333333334" y2="40.0" style="stroke:rgb(70,70,70); stroke-width:3 "/>
		<g>
			<title> (ctg17_55)</title>
			<polygon class=" (ctg17_55)" points="70,25 64,25 64,10 34,40 64,70 64,55 70,55" fill="rgb(255,255,255)" fill-opacity="1.0" stroke="rgb(0,0,0)" stroke-width="2"  />
			<g>
				<title>Peptidase_M19 (PF01244)
"Membrane dipeptidase (Peptidase family M19)"</title>
				<polygon class="PF01244" points="38,40 50,28 67,28 67,52 50,52" stroke-linejoin="round" width="32" height="24" fill="rgb(178,227,92)" stroke="rgb(142,181,73)" stroke-width="1" opacity="0.75" />
			</g>
		</g>
		<g>
			<title> (ctg17_56)</title>
			<polygon class=" (ctg17_56)" points="119,25 103,25 103,10 73,40 103,70 103,55 119,55" fill="rgb(255,255,255)" fill-opacity="1.0" stroke="rgb(0,0,0)" stroke-width="2"  />
			<g>
				<title>Beta-lactamase (PF00144)
"Beta-lactamase"</title>
				<polygon class="PF00144" points="83,34 89,28 117,28 117,52 89,52 83,46" stroke-linejoin="round" width="34" height="24" fill="rgb(92,159,200)" stroke="rgb(73,127,160)" stroke-width="1" opacity="0.75" />
			</g>
		</g>
		<g>
			<title> (ctg17_57)</title>
			<polygon class=" (ctg17_57)" points="128,40 144,10 144,70" fill="rgb(255,255,255)" fill-opacity="1.0" stroke="rgb(0,0,0)" stroke-width="2"  />
			<g>
				<title>YjgF_endoribonc (PF14588)
"YjgF/chorismate_mutase-like, putative endoribonuclease"</title>
				<polygon class="PF14588" points="131,40 137,28 142,28 142,52 137,52" stroke-linejoin="round" width="14" height="24" fill="rgb(97,153,228)" stroke="rgb(77,122,182)" stroke-width="1" opacity="0.75" />
			</g>
		</g>
		<g>
			<title> (ctg17_58)</title>
			<polygon class=" (ctg17_58)" points="191,25 174,25 174,10 144,40 174,70 174,55 191,55" fill="rgb(255,255,255)" fill-opacity="1.0" stroke="rgb(0,0,0)" stroke-width="2"  />
			<g>
				<title>FAD-oxidase_C (PF02913)
"FAD linked oxidases, C-terminal domain"</title>
				<polygon class="PF02913" points="148,40 160,28 169,28 169,52 160,52" stroke-linejoin="round" width="23" height="24" fill="rgb(111,69,188)" stroke="rgb(88,55,150)" stroke-width="1" opacity="0.75" />
			</g>
			<g>
				<title>FAD_binding_4 (PF01565)
"FAD binding domain"</title>
				<rect class="PF01565" x="173" y="28" stroke-linejoin="round" width="13" height="24" fill="rgb(226,88,136)" stroke="rgb(180,70,108)" stroke-width="1" opacity="0.75" />
			</g>
		</g>
		<g>
			<title> (ctg17_59)</title>
			<polygon class=" (ctg17_59)" points="242,25 221,25 221,10 191,40 221,70 221,55 242,55" fill="rgb(255,255,255)" fill-opacity="1.0" stroke="rgb(0,0,0)" stroke-width="2"  />
			<g>
				<title>Amidohydro_3 (PF07969)
"Amidohydrolase family"</title>
				<polygon class="PF07969" points="195,40 207,28 238,28 238,52 207,52" stroke-linejoin="round" width="45" height="24" fill="rgb(228,157,101)" stroke="rgb(182,125,80)" stroke-width="1" opacity="0.75" />
			</g>
		</g>
		<g>
			<title> (ctg17_60)</title>
			<polygon class=" (ctg17_60)" points="244,25 248,25 248,10 278,40 248,70 248,55 244,55" fill="rgb(255,255,255)" fill-opacity="1.0" stroke="rgb(0,0,0)" stroke-width="2"  />
			<g>
				<title>HTH_1 (PF00126)
"Bacterial regulatory helix-turn-helix protein, lysR family"</title>
				<rect class="PF00126" x="249" y="28" stroke-linejoin="round" width="5" height="24" fill="rgb(125,227,79)" stroke="rgb(99,181,63)" stroke-width="1" opacity="0.75" />
			</g>
			<g>
				<title>LysR_substrate (PF03466)
"LysR substrate binding domain"</title>
				<polygon class="PF03466" points="257,28 262,28 274,40 262,52 257,52" stroke-linejoin="round" width="20" height="24" fill="rgb(55,136,195)" stroke="rgb(44,108,156)" stroke-width="1" opacity="0.75" />
			</g>
		</g>
		<g>
			<title> (ctg17_61)</title>
			<polygon class=" (ctg17_61)" points="282,10 311,40 282,70" fill="rgb(255,255,255)" fill-opacity="1.0" stroke="rgb(0,0,0)" stroke-width="2"  />
			<g>
				<title>Beta-lactamase2 (PF13354)
"Beta-lactamase enzyme family"</title>
				<polygon class="PF13354" points="284,28 295,28 307,40 295,52 284,52" stroke-linejoin="round" width="24" height="24" fill="rgb(72,61,190)" stroke="rgb(57,48,152)" stroke-width="1" opacity="0.75" />
			</g>
		</g>
		<g>
			<title> (ctg17_62)</title>
			<polygon class=" (ctg17_62)" points="371,25 344,25 344,10 314,40 344,70 344,55 371,55" fill="rgb(255,255,255)" fill-opacity="1.0" stroke="rgb(0,0,0)" stroke-width="2"  />
			<g>
				<title>HTH_30 (PF13556)
"PucR C-terminal helix-turn-helix domain"</title>
				<polygon class="PF13556" points="318,40 319,39 319,41" stroke-linejoin="round" width="5" height="24" fill="rgb(180,199,81)" stroke="rgb(144,159,64)" stroke-width="1" opacity="0.75" />
			</g>
			<g>
				<title>GGDEF_2 (PF17853)
"GGDEF-like domain"</title>
				<polygon class="PF17853" points="325,33 330,28 338,28 338,52 330,52 325,47" stroke-linejoin="round" width="13" height="24" fill="rgb(202,193,91)" stroke="rgb(161,154,72)" stroke-width="1" opacity="0.75" />
			</g>
		</g>
		<g>
			<title> (ctg17_63)</title>
			<polygon class=" (ctg17_63)" points="371,40 400,10 400,70" fill="rgb(255,255,255)" fill-opacity="1.0" stroke="rgb(0,0,0)" stroke-width="2"  />
			<g>
				<title>Acetyltransf_6 (PF13480)
"Acetyltransferase (GNAT) domain"</title>
				<polygon class="PF13480" points="386,29 387,28 399,28 399,52 387,52 386,51" stroke-linejoin="round" width="13" height="24" fill="rgb(110,194,95)" stroke="rgb(88,155,76)" stroke-width="1" opacity="0.75" />
			</g>
		</g>
		<g>
			<title> (ctg17_64)</title>
			<polygon class=" (ctg17_64)" points="437,25 431,25 431,10 401,40 431,70 431,55 437,55" fill="rgb(255,255,255)" fill-opacity="1.0" stroke="rgb(0,0,0)" stroke-width="2"  />
			<g>
				<title>Peptidase_M20 (PF01546)
"Peptidase family M20/M25/M40"</title>
				<polygon class="PF01546" points="405,40 417,28 430,28 430,52 417,52" stroke-linejoin="round" width="29" height="24" fill="rgb(88,213,108)" stroke="rgb(70,170,86)" stroke-width="1" opacity="0.75" />
			</g>
		</g>
		<g>
			<title> (ctg17_65)</title>
			<polygon class=" (ctg17_65)" points="442,40 470,10 470,70" fill="rgb(255,255,255)" fill-opacity="1.0" stroke="rgb(0,0,0)" stroke-width="2"  />
			<g>
				<title>Peptidase_M55 (PF04951)
"D-aminopeptidase"</title>
				<polygon class="PF04951" points="446,40 457,28 470,28 470,52 457,52" stroke-linejoin="round" width="26" height="24" fill="rgb(94,138,195)" stroke="rgb(75,110,156)" stroke-width="1" opacity="0.75" />
			</g>
		</g>
		<g>
			<title> (ctg17_66)</title>
			<polygon class=" (ctg17_66)" points="476,25 480,25 480,10 510,40 480,70 480,55 476,55" fill="rgb(255,255,255)" fill-opacity="1.0" stroke="rgb(0,0,0)" stroke-width="2"  />
			<g>
				<title>Amidohydro_3 (PF07969)
"Amidohydrolase family"</title>
				<polygon class="PF07969" points="480,28 493,28 505,40 493,52 480,52" stroke-linejoin="round" width="26" height="24" fill="rgb(228,157,101)" stroke="rgb(182,125,80)" stroke-width="1" opacity="0.75" />
			</g>
		</g>
		<g>
			<title> (ctg17_67)</title>
			<polygon class=" (ctg17_67)" points="510,10 525,40 510,70" fill="rgb(255,255,255)" fill-opacity="1.0" stroke="rgb(0,0,0)" stroke-width="2"  />
			<g>
				<title>Amidohydro_3 (PF07969)
"Amidohydrolase family"</title>
				<polygon class="PF07969" points="512,28 515,28 521,40 515,52 512,52" stroke-linejoin="round" width="10" height="24" fill="rgb(228,157,101)" stroke="rgb(182,125,80)" stroke-width="1" opacity="0.75" />
			</g>
		</g>
		<g>
			<title> (ctg17_68)</title>
			<polygon class=" (ctg17_68)" points="527,25 539,25 539,10 569,40 539,70 539,55 527,55" fill="rgb(255,255,255)" fill-opacity="1.0" stroke="rgb(0,0,0)" stroke-width="2"  />
			<g>
				<title>Ala_racemase_N (PF01168)
"Alanine racemase, N-terminal domain"</title>
				<rect class="PF01168" x="532" y="28" stroke-linejoin="round" width="18" height="24" fill="rgb(87,82,180)" stroke="rgb(69,65,144)" stroke-width="1" opacity="0.75" />
			</g>
			<g>
				<title>D-ser_dehydrat (PF14031)
"Putative serine dehydratase domain"</title>
				<polygon class="PF14031" points="558,33 565,40 558,47" stroke-linejoin="round" width="9" height="24" fill="rgb(185,183,55)" stroke="rgb(148,146,44)" stroke-width="1" opacity="0.75" />
			</g>
		</g>
		<g>
			<title> (ctg17_69)</title>
			<polygon class=" (ctg17_69)" points="571,40 599,10 599,70" fill="rgb(255,255,255)" fill-opacity="1.0" stroke="rgb(0,0,0)" stroke-width="2"  />
			<g>
				<title>SIP (PF04954)
"Siderophore-interacting protein"</title>
				<polygon class="PF04954" points="575,40 584,30 584,50" stroke-linejoin="round" width="12" height="24" fill="rgb(75,222,95)" stroke="rgb(60,177,76)" stroke-width="1" opacity="0.75" />
			</g>
			<g>
				<title>FAD_binding_9 (PF08021)
"Siderophore-interacting FAD-binding domain"</title>
				<polygon class="PF08021" points="584,30 586,28 595,28 595,52 586,52 584,50" stroke-linejoin="round" width="11" height="24" fill="rgb(58,190,106)" stroke="rgb(46,152,84)" stroke-width="1" opacity="0.75" />
			</g>
		</g>
		<g>
			<title> (ctg17_70)</title>
			<polygon class=" (ctg17_70)" points="642,25 629,25 629,10 599,40 629,70 629,55 642,55" fill="rgb(255,255,255)" fill-opacity="1.0" stroke="rgb(0,0,0)" stroke-width="2"  />
			<g>
				<title>MFS_1 (PF07690)
"Major Facilitator Superfamily"</title>
				<polygon class="PF07690" points="610,33 615,28 640,28 640,52 615,52 610,47" stroke-linejoin="round" width="30" height="24" fill="rgb(193,224,74)" stroke="rgb(154,179,59)" stroke-width="1" opacity="0.75" />
			</g>
		</g>
		<g>
			<title> (ctg17_71)</title>
			<polygon class=" (ctg17_71)" points="675,25 672,25 672,10 642,40 672,70 672,55 675,55" fill="rgb(255,255,255)" fill-opacity="1.0" stroke="rgb(0,0,0)" stroke-width="2"  />
			<g>
				<title>Peripla_BP_2 (PF01497)
"Periplasmic binding protein"</title>
				<polygon class="PF01497" points="646,40 658,28 668,28 668,52 658,52" stroke-linejoin="round" width="24" height="24" fill="rgb(183,226,104)" stroke="rgb(146,180,83)" stroke-width="1" opacity="0.75" />
			</g>
		</g>
		<g>
			<title> (ctg17_72)</title>
			<polygon class=" (ctg17_72)" points="1091,25 706,25 706,10 676,40 706,70 706,55 1091,55" fill="rgb(255,255,255)" fill-opacity="1.0" stroke="rgb(0,0,0)" stroke-width="2"  />
			<g>
				<title>Thioesterase (PF00975)
"Thioesterase domain"</title>
				<polygon class="PF00975" points="680,40 692,28 698,28 698,52 692,52" stroke-linejoin="round" width="21" height="24" fill="rgb(207,80,138)" stroke="rgb(165,63,110)" stroke-width="1" opacity="0.75" />
			</g>
			<g>
				<title>PP-binding (PF00550)
"Phosphopantetheine attachment site"</title>
				<rect class="PF00550" x="701" y="28" stroke-linejoin="round" width="6" height="24" fill="rgb(103,191,88)" stroke="rgb(82,152,70)" stroke-width="1" opacity="0.75" />
			</g>
			<g>
				<title>AMP-binding_C (PF13193)
"AMP-binding enzyme C-terminal domain"</title>
				<rect class="PF13193" x="710" y="28" stroke-linejoin="round" width="7" height="24" fill="rgb(182,50,118)" stroke="rgb(145,39,94)" stroke-width="1" opacity="0.75" />
			</g>
			<g>
				<title>AMP-binding (PF00501)
"AMP-binding enzyme"</title>
				<rect class="PF00501" x="718" y="28" stroke-linejoin="round" width="40" height="24" fill="rgb(60,217,223)" stroke="rgb(48,173,178)" stroke-width="1" opacity="0.75" />
			</g>
			<g>
				<title>Condensation (PF00668)
"Condensation domain"</title>
				<rect class="PF00668" x="766" y="28" stroke-linejoin="round" width="40" height="24" fill="rgb(224,184,98)" stroke="rgb(179,147,78)" stroke-width="1" opacity="0.75" />
			</g>
			<g>
				<title>AMP-binding (PF00501)
"AMP-binding enzyme"</title>
				<rect class="PF00501" x="818" y="28" stroke-linejoin="round" width="38" height="24" fill="rgb(60,217,223)" stroke="rgb(48,173,178)" stroke-width="1" opacity="0.75" />
			</g>
			<g>
				<title>PP-binding (PF00550)
"Phosphopantetheine attachment site"</title>
				<rect class="PF00550" x="882" y="28" stroke-linejoin="round" width="6" height="24" fill="rgb(103,191,88)" stroke="rgb(82,152,70)" stroke-width="1" opacity="0.75" />
			</g>
			<g>
				<title>Condensation (PF00668)
"Condensation domain"</title>
				<rect class="PF00668" x="891" y="28" stroke-linejoin="round" width="42" height="24" fill="rgb(224,184,98)" stroke="rgb(179,147,78)" stroke-width="1" opacity="0.75" />
			</g>
			<g>
				<title>Condensation (PF00668)
"Condensation domain"</title>
				<rect class="PF00668" x="936" y="28" stroke-linejoin="round" width="45" height="24" fill="rgb(224,184,98)" stroke="rgb(179,147,78)" stroke-width="1" opacity="0.75" />
			</g>
			<g>
				<title>PP-binding (PF00550)
"Phosphopantetheine attachment site"</title>
				<rect class="PF00550" x="985" y="28" stroke-linejoin="round" width="6" height="24" fill="rgb(103,191,88)" stroke="rgb(82,152,70)" stroke-width="1" opacity="0.75" />
			</g>
			<g>
				<title>AMP-binding_C (PF13193)
"AMP-binding enzyme C-terminal domain"</title>
				<rect class="PF13193" x="994" y="28" stroke-linejoin="round" width="7" height="24" fill="rgb(182,50,118)" stroke="rgb(145,39,94)" stroke-width="1" opacity="0.75" />
			</g>
			<g>
				<title>AMP-binding (PF00501)
"AMP-binding enzyme"</title>
				<rect class="PF00501" x="1002" y="28" stroke-linejoin="round" width="40" height="24" fill="rgb(60,217,223)" stroke="rgb(48,173,178)" stroke-width="1" opacity="0.75" />
			</g>
			<g>
				<title>Condensation (PF00668)
"Condensation domain"</title>
				<rect class="PF00668" x="1045" y="28" stroke-linejoin="round" width="44" height="24" fill="rgb(224,184,98)" stroke="rgb(179,147,78)" stroke-width="1" opacity="0.75" />
			</g>
		</g>
		<g>
			<title> (ctg17_73)</title>
			<polygon class=" (ctg17_73)" points="1099,40 1114,10 1114,70" fill="rgb(255,255,255)" fill-opacity="1.0" stroke="rgb(0,0,0)" stroke-width="2"  />
		</g>
		<g>
			<title> (ctg17_74)</title>
			<polygon class=" (ctg17_74)" points="1116,40 1123,10 1123,70" fill="rgb(255,255,255)" fill-opacity="1.0" stroke="rgb(0,0,0)" stroke-width="2"  />
			<g>
				<title>PP-binding (PF00550)
"Phosphopantetheine attachment site"</title>
				<polygon class="PF00550" points="1119,40 1122,28 1122,28 1122,52 1122,52" stroke-linejoin="round" width="6" height="24" fill="rgb(103,191,88)" stroke="rgb(82,152,70)" stroke-width="1" opacity="0.75" />
			</g>
		</g>
		<g>
			<title> (ctg17_75)</title>
			<polygon class=" (ctg17_75)" points="1129,25 1137,25 1137,10 1167,40 1137,70 1137,55 1129,55" fill="rgb(255,255,255)" fill-opacity="1.0" stroke="rgb(0,0,0)" stroke-width="2"  />
			<g>
				<title>Chorismate_bind (PF00425)
"chorismate binding enzyme"</title>
				<polygon class="PF00425" points="1139,28 1151,28 1163,40 1151,52 1139,52" stroke-linejoin="round" width="26" height="24" fill="rgb(188,116,88)" stroke="rgb(150,92,70)" stroke-width="1" opacity="0.75" />
			</g>
		</g>
		<g>
			<title> (ctg17_76)</title>
			<polygon class=" (ctg17_76)" points="1171,25 1172,25 1172,10 1202,40 1172,70 1172,55 1171,55" fill="rgb(255,255,255)" fill-opacity="1.0" stroke="rgb(0,0,0)" stroke-width="2"  />
		</g>
		<g>
			<title> (ctg17_77)</title>
			<polygon class=" (ctg17_77)" points="1205,10 1226,40 1205,70" fill="rgb(255,255,255)" fill-opacity="1.0" stroke="rgb(0,0,0)" stroke-width="2"  />
			<g>
				<title>DUF3105 (PF11303)
"Protein of unknown function (DUF3105)"</title>
				<polygon class="PF11303" points="1210,28 1214,28 1222,40 1214,52 1210,52" stroke-linejoin="round" width="13" height="24" fill="rgb(189,114,77)" stroke="rgb(151,91,61)" stroke-width="1" opacity="0.75" />
			</g>
		</g>
		<g>
			<title> (ctg17_78)</title>
			<polygon class=" (ctg17_78)" points="1227,40 1242,10 1242,70" fill="rgb(255,255,255)" fill-opacity="1.0" stroke="rgb(0,0,0)" stroke-width="2"  />
		</g>
		<g>
			<title> (ctg17_79)</title>
			<polygon class=" (ctg17_79)" points="1243,40 1268,10 1268,70" fill="rgb(255,255,255)" fill-opacity="1.0" stroke="rgb(0,0,0)" stroke-width="2"  />
			<g>
				<title>DapB_C (PF05173)
"Dihydrodipicolinate reductase, C-terminus"</title>
				<polygon class="PF05173" points="1247,40 1256,29 1256,51" stroke-linejoin="round" width="13" height="24" fill="rgb(70,196,178)" stroke="rgb(56,156,142)" stroke-width="1" opacity="0.75" />
			</g>
			<g>
				<title>DapB_N (PF01113)
"Dihydrodipicolinate reductase, N-terminus"</title>
				<polygon class="PF01113" points="1257,28 1257,28 1267,28 1267,52 1257,52 1257,52" stroke-linejoin="round" width="10" height="24" fill="rgb(220,76,108)" stroke="rgb(176,60,86)" stroke-width="1" opacity="0.75" />
			</g>
		</g>
		<g>
			<title> (ctg17_80)</title>
			<polygon class=" (ctg17_80)" points="1274,25 1309,25 1309,10 1339,40 1309,70 1309,55 1274,55" fill="rgb(255,255,255)" fill-opacity="1.0" stroke="rgb(0,0,0)" stroke-width="2"  />
			<g>
				<title>ABC_tran (PF00005)
"ABC transporter"</title>
				<rect class="PF00005" x="1296" y="28" stroke-linejoin="round" width="13" height="24" fill="rgb(129,201,63)" stroke="rgb(103,160,50)" stroke-width="1" opacity="0.75" />
			</g>
			<g>
				<title>ABC_tran (PF00005)
"ABC transporter"</title>
				<polygon class="PF00005" points="1319,28 1323,28 1332,37 1332,43 1323,52 1319,52" stroke-linejoin="round" width="13" height="24" fill="rgb(129,201,63)" stroke="rgb(103,160,50)" stroke-width="1" opacity="0.75" />
			</g>
		</g>
		<g>
			<title> (ctg17_81)</title>
			<polygon class=" (ctg17_81)" points="1340,10 1364,40 1340,70" fill="rgb(255,255,255)" fill-opacity="1.0" stroke="rgb(0,0,0)" stroke-width="2"  />
			<g>
				<title>CbiQ (PF02361)
"Cobalt transport protein"</title>
				<polygon class="PF02361" points="1341,28 1351,28 1360,40 1351,52 1341,52" stroke-linejoin="round" width="20" height="24" fill="rgb(217,92,216)" stroke="rgb(173,73,172)" stroke-width="1" opacity="0.75" />
			</g>
		</g>
		<g>
			<title> (ctg17_82)</title>
			<polygon class=" (ctg17_82)" points="1364,40 1384,10 1384,70" fill="rgb(255,255,255)" fill-opacity="1.0" stroke="rgb(0,0,0)" stroke-width="2"  />
			<g>
				<title>TetR_N (PF00440)
"Bacterial regulatory proteins, tetR family"</title>
				<rect class="PF00440" x="1377" y="28" stroke-linejoin="round" width="4" height="24" fill="rgb(73,212,190)" stroke="rgb(58,169,152)" stroke-width="1" opacity="0.75" />
			</g>
		</g>
		<g>
			<title> (ctg17_83)</title>
			<polygon class=" (ctg17_83)" points="1391,25 1393,25 1393,10 1423,40 1393,70 1393,55 1391,55" fill="rgb(255,255,255)" fill-opacity="1.0" stroke="rgb(0,0,0)" stroke-width="2"  />
			<g>
				<title>Metal_hydrol (PF10118)
"Predicted metal-dependent hydrolase"</title>
				<polygon class="PF10118" points="1391,28 1406,28 1414,36 1414,44 1406,52 1391,52" stroke-linejoin="round" width="23" height="24" fill="rgb(72,190,117)" stroke="rgb(57,152,93)" stroke-width="1" opacity="0.75" />
			</g>
		</g>
		<g>
			<title> (ctg17_84)</title>
			<polygon class=" (ctg17_84)" points="1422,25 1430,25 1430,10 1460,40 1430,70 1430,55 1422,55" fill="rgb(255,255,255)" fill-opacity="1.0" stroke="rgb(0,0,0)" stroke-width="2"  />
		</g>
		<g>
			<title> (ctg17_85)</title>
			<polygon class=" (ctg17_85)" points="1497,25 1492,25 1492,10 1462,40 1492,70 1492,55 1497,55" fill="rgb(255,255,255)" fill-opacity="1.0" stroke="rgb(0,0,0)" stroke-width="2"  />
			<g>
				<title>BPL_LplA_LipB (PF03099)
"Biotin/lipoate A/B protein ligase family"</title>
				<polygon class="PF03099" points="1470,36 1478,28 1482,28 1482,52 1478,52 1470,44" stroke-linejoin="round" width="12" height="24" fill="rgb(228,147,105)" stroke="rgb(182,117,84)" stroke-width="1" opacity="0.75" />
			</g>
		</g>
		<g>
			<title> (ctg17_86)</title>
			<polygon class=" (ctg17_86)" points="1503,10 1508,40 1503,70" fill="rgb(255,255,255)" fill-opacity="1.0" stroke="rgb(0,0,0)" stroke-width="2"  />
		</g>
		<g>
			<title> (ctg17_87)</title>
			<polygon class=" (ctg17_87)" points="1509,40 1534,10 1534,70" fill="rgb(255,255,255)" fill-opacity="1.0" stroke="rgb(0,0,0)" stroke-width="2"  />
			<g>
				<title>DUF6390 (PF19927)
"Family of unknown function (DUF6390)"</title>
				<polygon class="PF19927" points="1513,40 1523,28 1533,28 1533,52 1523,52" stroke-linejoin="round" width="24" height="24" fill="rgb(151,215,85)" stroke="rgb(120,172,68)" stroke-width="1" opacity="0.75" />
			</g>
		</g>
		<g>
			<title> (ctg17_88)</title>
			<polygon class=" (ctg17_88)" points="1569,25 1564,25 1564,10 1534,40 1564,70 1564,55 1569,55" fill="rgb(255,255,255)" fill-opacity="1.0" stroke="rgb(0,0,0)" stroke-width="2"  />
			<g>
				<title>AIRS_C (PF02769)
"AIR synthase related protein, C-terminal domain"</title>
				<polygon class="PF02769" points="1538,40 1550,28 1551,28 1551,52 1550,52" stroke-linejoin="round" width="15" height="24" fill="rgb(182,125,70)" stroke="rgb(145,100,56)" stroke-width="1" opacity="0.75" />
			</g>
			<g>
				<title>AIRS (PF00586)
"AIR synthase related protein, N-terminal domain"</title>
				<rect class="PF00586" x="1552" y="28" stroke-linejoin="round" width="12" height="24" fill="rgb(215,196,78)" stroke="rgb(172,156,62)" stroke-width="1" opacity="0.75" />
			</g>
		</g>
		<g>
			<title> (ctg17_89)</title>
			<polygon class=" (ctg17_89)" points="1606,25 1599,25 1599,10 1569,40 1599,70 1599,55 1606,55" fill="rgb(255,255,255)" fill-opacity="1.0" stroke="rgb(0,0,0)" stroke-width="2"  />
			<g>
				<title>HypD (PF01924)
"Hydrogenase formation hypA family"</title>
				<polygon class="PF01924" points="1573,40 1585,28 1604,28 1604,52 1585,52" stroke-linejoin="round" width="34" height="24" fill="rgb(68,196,130)" stroke="rgb(54,156,104)" stroke-width="1" opacity="0.75" />
			</g>
		</g>
		<g>
			<title> (ctg17_90)</title>
			<polygon class=" (ctg17_90)" points="1606,40 1616,10 1616,70" fill="rgb(255,255,255)" fill-opacity="1.0" stroke="rgb(0,0,0)" stroke-width="2"  />
			<g>
				<title>HupF_HypC (PF01455)
"HupF/HypC family"</title>
				<polygon class="PF01455" points="1609,40 1613,28 1615,28 1615,52 1613,52 1609,40" stroke-linejoin="round" width="6" height="24" fill="rgb(147,55,217)" stroke="rgb(117,44,173)" stroke-width="1" opacity="0.75" />
			</g>
		</g>
		<g>
			<title> (ctg17_91)</title>
			<polygon class=" (ctg17_91)" points="1693,25 1647,25 1647,10 1617,40 1647,70 1647,55 1693,55" fill="rgb(255,255,255)" fill-opacity="1.0" stroke="rgb(0,0,0)" stroke-width="2"  />
			<g>
				<title>HypF_C (PF17788)
"HypF Kae1-like domain"</title>
				<rect class="PF17788" x="1643" y="28" stroke-linejoin="round" width="9" height="24" fill="rgb(139,60,217)" stroke="rgb(111,47,173)" stroke-width="1" opacity="0.75" />
			</g>
			<g>
				<title>Sua5_yciO_yrdC (PF01300)
"Telomere recombination"</title>
				<rect class="PF01300" x="1654" y="28" stroke-linejoin="round" width="17" height="24" fill="rgb(183,139,65)" stroke="rgb(146,111,51)" stroke-width="1" opacity="0.75" />
			</g>
			<g>
				<title>zf-HYPF (PF07503)
"HypF finger"</title>
				<rect class="PF07503" x="1674" y="28" stroke-linejoin="round" width="3" height="24" fill="rgb(182,102,84)" stroke="rgb(145,81,67)" stroke-width="1" opacity="0.75" />
			</g>
			<g>
				<title>zf-HYPF (PF07503)
"HypF finger"</title>
				<rect class="PF07503" x="1679" y="28" stroke-linejoin="round" width="3" height="24" fill="rgb(182,102,84)" stroke="rgb(145,81,67)" stroke-width="1" opacity="0.75" />
			</g>
			<g>
				<title>Acylphosphatase (PF00708)
"Acylphosphatase"</title>
				<rect class="PF00708" x="1684" y="28" stroke-linejoin="round" width="8" height="24" fill="rgb(79,219,111)" stroke="rgb(63,175,88)" stroke-width="1" opacity="0.75" />
			</g>
		</g>
		<g>
			<title> (ctg17_92)</title>
			<polygon class=" (ctg17_92)" points="1694,40 1703,10 1703,70" fill="rgb(255,255,255)" fill-opacity="1.0" stroke="rgb(0,0,0)" stroke-width="2"  />
			<g>
				<title>HupF_HypC (PF01455)
"HupF/HypC family"</title>
				<polygon class="PF01455" points="1697,40 1701,28 1702,28 1702,52 1701,52" stroke-linejoin="round" width="7" height="24" fill="rgb(147,55,217)" stroke="rgb(117,44,173)" stroke-width="1" opacity="0.75" />
			</g>
		</g>
		<g>
			<title> (ctg17_93)</title>
			<polygon class=" (ctg17_93)" points="1703,40 1719,10 1719,70" fill="rgb(255,255,255)" fill-opacity="1.0" stroke="rgb(0,0,0)" stroke-width="2"  />
			<g>
				<title>HycI (PF01750)
"Hydrogenase maturation protease"</title>
				<polygon class="PF01750" points="1706,40 1713,28 1716,28 1716,52 1713,52" stroke-linejoin="round" width="12" height="24" fill="rgb(67,142,190)" stroke="rgb(53,113,152)" stroke-width="1" opacity="0.75" />
			</g>
		</g>
		<g>
			<title> (ctg17_94)</title>
			<polygon class=" (ctg17_94)" points="1719,40 1723,10 1723,70" fill="rgb(255,255,255)" fill-opacity="1.0" stroke="rgb(0,0,0)" stroke-width="2"  />
		</g>
	</g>
</svg>
