<svg version="1.1" baseProfile="full" xmlns="http://www.w3.org/2000/svg" width="1155.0" height="80">
	<g>
		<line x1="10" y1="40.0" x2="1145.0" y2="40.0" style="stroke:rgb(70,70,70); stroke-width:3 "/>
		<g>
			<title> (ctg3_248)</title>
			<polygon class=" (ctg3_248)" points="21,40 43,10 43,70" fill="rgb(255,255,255)" fill-opacity="1.0" stroke="rgb(0,0,0)" stroke-width="2"  />
			<g>
				<title>NAD_binding_10 (PF13460)
"NAD(P)H-binding"</title>
				<polygon class="PF13460" points="29,35 34,28 41,28 41,52 34,52 29,45" stroke-linejoin="round" width="12" height="24" fill="rgb(188,201,78)" stroke="rgb(150,160,62)" stroke-width="1" opacity="0.75" />
			</g>
		</g>
		<g>
			<title> (ctg3_249)</title>
			<polygon class=" (ctg3_249)" points="81,25 76,25 76,10 46,40 76,70 76,55 81,55" fill="rgb(255,255,255)" fill-opacity="1.0" stroke="rgb(0,0,0)" stroke-width="2"  />
			<g>
				<title>APP1_cat (PF09949)
"Phosphatidate phosphatase APP1, catalytic domain"</title>
				<polygon class="PF09949" points="50,40 62,28 65,28 65,52 62,52 50,40" stroke-linejoin="round" width="15" height="24" fill="rgb(228,200,91)" stroke="rgb(182,159,72)" stroke-width="1" opacity="0.75" />
			</g>
		</g>
		<g>
			<title> (ctg3_250)</title>
			<polygon class=" (ctg3_250)" points="128,25 118,25 118,10 88,40 118,70 118,55 128,55" fill="rgb(255,255,255)" fill-opacity="1.0" stroke="rgb(0,0,0)" stroke-width="2"  />
			<g>
				<title>Metallophos (PF00149)
"Calcineurin-like phosphoesterase"</title>
				<polygon class="PF00149" points="96,36 104,28 122,28 122,52 104,52 96,44" stroke-linejoin="round" width="26" height="24" fill="rgb(181,197,58)" stroke="rgb(144,157,46)" stroke-width="1" opacity="0.75" />
			</g>
		</g>
		<g>
			<title> (ctg3_251)</title>
			<polygon class=" (ctg3_251)" points="257,25 164,25 164,10 134,40 164,70 164,55 257,55" fill="rgb(255,255,255)" fill-opacity="1.0" stroke="rgb(0,0,0)" stroke-width="2"  />
			<g>
				<title>HHH_6 (PF14579)
"Helix-hairpin-helix motif"</title>
				<rect class="PF14579" x="159" y="28" stroke-linejoin="round" width="10" height="24" fill="rgb(166,180,62)" stroke="rgb(132,144,49)" stroke-width="1" opacity="0.75" />
			</g>
			<g>
				<title>DNA_pol3_finger (PF17657)
"Bacterial DNA polymerase III alpha subunit finger domain"</title>
				<rect class="PF17657" x="177" y="28" stroke-linejoin="round" width="16" height="24" fill="rgb(220,76,163)" stroke="rgb(176,60,130)" stroke-width="1" opacity="0.75" />
			</g>
			<g>
				<title>DNA_pol3_alpha (PF07733)
"Bacterial DNA polymerase III alpha NTPase domain"</title>
				<rect class="PF07733" x="193" y="28" stroke-linejoin="round" width="26" height="24" fill="rgb(190,187,47)" stroke="rgb(152,149,37)" stroke-width="1" opacity="0.75" />
			</g>
			<g>
				<title>PHP (PF02811)
"PHP domain"</title>
				<rect class="PF02811" x="235" y="28" stroke-linejoin="round" width="20" height="24" fill="rgb(167,87,219)" stroke="rgb(133,69,175)" stroke-width="1" opacity="0.75" />
			</g>
		</g>
		<g>
			<title> (ctg3_252)</title>
			<polygon class=" (ctg3_252)" points="259,40 272,10 272,70" fill="rgb(255,255,255)" fill-opacity="1.0" stroke="rgb(0,0,0)" stroke-width="2"  />
		</g>
		<g>
			<title> (ctg3_253)</title>
			<polygon class=" (ctg3_253)" points="279,10 286,40 279,70" fill="rgb(255,255,255)" fill-opacity="1.0" stroke="rgb(0,0,0)" stroke-width="2"  />
		</g>
		<g>
			<title> (ctg3_254)</title>
			<polygon class=" (ctg3_254)" points="288,10 300,40 288,70" fill="rgb(255,255,255)" fill-opacity="1.0" stroke="rgb(0,0,0)" stroke-width="2"  />
		</g>
		<g>
			<title> (ctg3_255)</title>
			<polygon class=" (ctg3_255)" points="315,10 326,40 315,70" fill="rgb(255,255,255)" fill-opacity="1.0" stroke="rgb(0,0,0)" stroke-width="2"  />
			<g>
				<title>ABM (PF03992)
"Antibiotic biosynthesis monooxygenase"</title>
				<polygon class="PF03992" points="316,28 318,28 322,40 318,52 316,52" stroke-linejoin="round" width="7" height="24" fill="rgb(193,84,127)" stroke="rgb(154,67,101)" stroke-width="1" opacity="0.75" />
			</g>
		</g>
		<g>
			<title> (ctg3_256)</title>
			<polygon class=" (ctg3_256)" points="327,40 338,10 338,70" fill="rgb(255,255,255)" fill-opacity="1.0" stroke="rgb(0,0,0)" stroke-width="2"  />
			<g>
				<title>adh_short_C2 (PF13561)
"Enoyl-(Acyl carrier protein) reductase"</title>
				<polygon class="PF13561" points="330,40 335,28 338,28 338,52 335,52" stroke-linejoin="round" width="11" height="24" fill="rgb(73,205,127)" stroke="rgb(58,164,101)" stroke-width="1" opacity="0.75" />
			</g>
		</g>
		<g>
			<title> (ctg3_257)</title>
			<polygon class=" (ctg3_257)" points="347,40 355,10 355,70" fill="rgb(255,255,255)" fill-opacity="1.0" stroke="rgb(0,0,0)" stroke-width="2"  />
		</g>
		<g>
			<title> (ctg3_258)</title>
			<polygon class=" (ctg3_258)" points="355,40 377,10 377,70" fill="rgb(255,255,255)" fill-opacity="1.0" stroke="rgb(0,0,0)" stroke-width="2"  />
			<g>
				<title>ECH_1 (PF00378)
"Enoyl-CoA hydratase/isomerase"</title>
				<polygon class="PF00378" points="359,40 360,39 360,41" stroke-linejoin="round" width="5" height="24" fill="rgb(218,72,181)" stroke="rgb(174,57,144)" stroke-width="1" opacity="0.75" />
			</g>
			<g>
				<title>TetR_C_24 (PF17932)
"Tetracyclin repressor-like, C-terminal domain"</title>
				<polygon class="PF17932" points="363,35 368,28 371,28 371,52 368,52 363,45" stroke-linejoin="round" width="8" height="24" fill="rgb(165,217,107)" stroke="rgb(132,173,85)" stroke-width="1" opacity="0.75" />
			</g>
		</g>
		<g>
			<title> (ctg3_259)</title>
			<polygon class=" (ctg3_259)" points="380,40 396,10 396,70" fill="rgb(255,255,255)" fill-opacity="1.0" stroke="rgb(0,0,0)" stroke-width="2"  />
			<g>
				<title>tRNA_edit (PF04073)
"Aminoacyl-tRNA editing domain"</title>
				<polygon class="PF04073" points="383,40 390,28 393,28 393,52 390,52" stroke-linejoin="round" width="12" height="24" fill="rgb(87,163,195)" stroke="rgb(69,130,156)" stroke-width="1" opacity="0.75" />
			</g>
		</g>
		<g>
			<title> (ctg3_260)</title>
			<polygon class=" (ctg3_260)" points="409,10 434,40 409,70" fill="rgb(255,255,255)" fill-opacity="1.0" stroke="rgb(0,0,0)" stroke-width="2"  />
			<g>
				<title>Thioesterase (PF00975)
"Thioesterase domain"</title>
				<polygon class="PF00975" points="411,28 420,28 430,40 420,52 411,52" stroke-linejoin="round" width="22" height="24" fill="rgb(207,80,138)" stroke="rgb(165,63,110)" stroke-width="1" opacity="0.75" />
			</g>
		</g>
		<g>
			<title> (ctg3_261)</title>
			<polygon class=" (ctg3_261)" points="434,10 460,40 434,70" fill="rgb(255,255,255)" fill-opacity="1.0" stroke="rgb(0,0,0)" stroke-width="2"  />
			<g>
				<title>ACPS (PF01648)
"4'-phosphopantetheinyl transferase superfamily"</title>
				<polygon class="PF01648" points="449,32 456,40 449,48" stroke-linejoin="round" width="8" height="24" fill="rgb(85,184,135)" stroke="rgb(68,147,108)" stroke-width="1" opacity="0.75" />
			</g>
		</g>
		<g>
			<title> (ctg3_262)</title>
			<polygon class=" (ctg3_262)" points="509,25 492,25 492,10 462,40 492,70 492,55 509,55" fill="rgb(255,255,255)" fill-opacity="1.0" stroke="rgb(0,0,0)" stroke-width="2"  />
			<g>
				<title>HGSNAT_cat (PF07786)
"Heparan-alpha-glucosaminide N-acetyltransferase, catalytic"</title>
				<polygon class="PF07786" points="478,28 478,28 500,28 500,52 478,52 478,52" stroke-linejoin="round" width="22" height="24" fill="rgb(166,59,205)" stroke="rgb(132,47,164)" stroke-width="1" opacity="0.75" />
			</g>
		</g>
		<g>
			<title> (ctg3_263)</title>
			<polygon class=" (ctg3_263)" points="645,25 540,25 540,10 510,40 540,70 540,55 645,55" fill="rgb(255,255,255)" fill-opacity="1.0" stroke="rgb(0,0,0)" stroke-width="2"  />
			<g>
				<title>PP-binding (PF00550)
"Phosphopantetheine attachment site"</title>
				<rect class="PF00550" x="588" y="28" stroke-linejoin="round" width="6" height="24" fill="rgb(103,191,88)" stroke="rgb(82,152,70)" stroke-width="1" opacity="0.75" />
			</g>
			<g>
				<title>AMP-binding (PF00501)
"AMP-binding enzyme"</title>
				<rect class="PF00501" x="605" y="28" stroke-linejoin="round" width="37" height="24" fill="rgb(60,217,223)" stroke="rgb(48,173,178)" stroke-width="1" opacity="0.75" />
			</g>
		</g>
		<g>
			<title> (ctg3_264)</title>
			<polygon class=" (ctg3_264)" points="688,25 687,25 687,10 657,40 687,70 687,55 688,55" fill="rgb(255,255,255)" fill-opacity="1.0" stroke="rgb(0,0,0)" stroke-width="2"  />
		</g>
		<g>
			<title> (ctg3_265)</title>
			<polygon class=" (ctg3_265)" points="724,25 723,25 723,10 693,40 723,70 723,55 724,55" fill="rgb(255,255,255)" fill-opacity="1.0" stroke="rgb(0,0,0)" stroke-width="2"  />
			<g>
				<title>SBF (PF01758)
"Sodium Bile acid symporter family"</title>
				<polygon class="PF01758" points="702,35 709,28 720,28 720,52 709,52 702,45" stroke-linejoin="round" width="18" height="24" fill="rgb(139,96,196)" stroke="rgb(111,76,156)" stroke-width="1" opacity="0.75" />
			</g>
		</g>
		<g>
			<title> (ctg3_266)</title>
			<polygon class=" (ctg3_266)" points="725,40 747,10 747,70" fill="rgb(255,255,255)" fill-opacity="1.0" stroke="rgb(0,0,0)" stroke-width="2"  />
			<g>
				<title>TetR_C_1 (PF02909)
"Tetracyclin repressor-like, C-terminal domain"</title>
				<polygon class="PF02909" points="729,40 738,28 738,28 738,52 738,52" stroke-linejoin="round" width="11" height="24" fill="rgb(151,203,75)" stroke="rgb(120,162,60)" stroke-width="1" opacity="0.75" />
			</g>
			<g>
				<title>TetR_N (PF00440)
"Bacterial regulatory proteins, tetR family"</title>
				<rect class="PF00440" x="740" y="28" stroke-linejoin="round" width="4" height="24" fill="rgb(73,212,190)" stroke="rgb(58,169,152)" stroke-width="1" opacity="0.75" />
			</g>
		</g>
		<g>
			<title> (ctg3_267)</title>
			<polygon class=" (ctg3_267)" points="761,10 776,40 761,70" fill="rgb(255,255,255)" fill-opacity="1.0" stroke="rgb(0,0,0)" stroke-width="2"  />
			<g>
				<title>Phytase-like (PF13449)
"Esterase-like activity of phytase"</title>
				<polygon class="PF13449" points="761,28 766,28 773,40 766,52 761,52" stroke-linejoin="round" width="13" height="24" fill="rgb(76,126,200)" stroke="rgb(60,100,160)" stroke-width="1" opacity="0.75" />
			</g>
		</g>
		<g>
			<title> (ctg3_268)</title>
			<polygon class=" (ctg3_268)" points="780,40 787,10 787,70" fill="rgb(255,255,255)" fill-opacity="1.0" stroke="rgb(0,0,0)" stroke-width="2"  />
		</g>
		<g>
			<title> (ctg3_269)</title>
			<polygon class=" (ctg3_269)" points="792,40 800,10 800,70" fill="rgb(255,255,255)" fill-opacity="1.0" stroke="rgb(0,0,0)" stroke-width="2"  />
		</g>
		<g>
			<title> (ctg3_270)</title>
			<polygon class=" (ctg3_270)" points="815,40 828,10 828,70" fill="rgb(255,255,255)" fill-opacity="1.0" stroke="rgb(0,0,0)" stroke-width="2"  />
			<g>
				<title>RsfS (PF02410)
"Ribosomal silencing factor during starvation"</title>
				<polygon class="PF02410" points="818,40 823,28 826,28 826,52 823,52" stroke-linejoin="round" width="9" height="24" fill="rgb(221,171,70)" stroke="rgb(176,136,56)" stroke-width="1" opacity="0.75" />
			</g>
		</g>
		<g>
			<title> (ctg3_271)</title>
			<polygon class=" (ctg3_271)" points="862,25 860,25 860,10 830,40 860,70 860,55 862,55" fill="rgb(255,255,255)" fill-opacity="1.0" stroke="rgb(0,0,0)" stroke-width="2"  />
		</g>
		<g>
			<title> (ctg3_272)</title>
			<polygon class=" (ctg3_272)" points="862,40 887,10 887,70" fill="rgb(255,255,255)" fill-opacity="1.0" stroke="rgb(0,0,0)" stroke-width="2"  />
			<g>
				<title>CTP_transf_like (PF01467)
"Cytidylyltransferase-like"</title>
				<polygon class="PF01467" points="869,37 876,28 884,28 884,52 876,52 869,43" stroke-linejoin="round" width="15" height="24" fill="rgb(110,215,57)" stroke="rgb(88,172,45)" stroke-width="1" opacity="0.75" />
			</g>
		</g>
		<g>
			<title> (ctg3_273)</title>
			<polygon class=" (ctg3_273)" points="889,40 897,10 897,70" fill="rgb(255,255,255)" fill-opacity="1.0" stroke="rgb(0,0,0)" stroke-width="2"  />
		</g>
		<g>
			<title> (ctg3_274)</title>
			<polygon class=" (ctg3_274)" points="943,25 930,25 930,10 900,40 930,70 930,55 943,55" fill="rgb(255,255,255)" fill-opacity="1.0" stroke="rgb(0,0,0)" stroke-width="2"  />
			<g>
				<title>Aldedh (PF00171)
"Aldehyde dehydrogenase family"</title>
				<polygon class="PF00171" points="912,32 916,28 942,28 942,52 916,52 912,48" stroke-linejoin="round" width="30" height="24" fill="rgb(105,213,139)" stroke="rgb(84,170,111)" stroke-width="1" opacity="0.75" />
			</g>
		</g>
		<g>
			<title> (ctg3_275)</title>
			<polygon class=" (ctg3_275)" points="988,25 976,25 976,10 946,40 976,70 976,55 988,55" fill="rgb(255,255,255)" fill-opacity="1.0" stroke="rgb(0,0,0)" stroke-width="2"  />
			<g>
				<title>PUA (PF01472)
"PUA domain"</title>
				<polygon class="PF01472" points="950,40 956,34 956,46" stroke-linejoin="round" width="7" height="24" fill="rgb(203,171,67)" stroke="rgb(162,136,53)" stroke-width="1" opacity="0.75" />
			</g>
			<g>
				<title>AA_kinase (PF00696)
"Amino acid kinase family"</title>
				<polygon class="PF00696" points="960,30 962,28 983,28 983,52 962,52 960,50" stroke-linejoin="round" width="23" height="24" fill="rgb(148,78,224)" stroke="rgb(118,62,179)" stroke-width="1" opacity="0.75" />
			</g>
		</g>
		<g>
			<title> (ctg3_276)</title>
			<polygon class=" (ctg3_276)" points="1041,25 1018,25 1018,10 988,40 1018,70 1018,55 1041,55" fill="rgb(255,255,255)" fill-opacity="1.0" stroke="rgb(0,0,0)" stroke-width="2"  />
			<g>
				<title>DUF1967 (PF09269)
"Domain of unknown function (DUF1967)"</title>
				<polygon class="PF09269" points="996,36 1003,29 1003,51 996,44" stroke-linejoin="round" width="7" height="24" fill="rgb(50,182,62)" stroke="rgb(39,145,49)" stroke-width="1" opacity="0.75" />
			</g>
			<g>
				<title>MMR_HSR1 (PF01926)
"50S ribosome-binding GTPase"</title>
				<rect class="PF01926" x="1012" y="28" stroke-linejoin="round" width="13" height="24" fill="rgb(105,180,226)" stroke="rgb(83,143,180)" stroke-width="1" opacity="0.75" />
			</g>
			<g>
				<title>GTP1_OBG (PF01018)
"GTP1/OBG"</title>
				<rect class="PF01018" x="1025" y="28" stroke-linejoin="round" width="15" height="24" fill="rgb(159,183,68)" stroke="rgb(127,146,54)" stroke-width="1" opacity="0.75" />
			</g>
		</g>
		<g>
			<title> (ctg3_277)</title>
			<polygon class=" (ctg3_277)" points="1047,40 1055,10 1055,70" fill="rgb(255,255,255)" fill-opacity="1.0" stroke="rgb(0,0,0)" stroke-width="2"  />
			<g>
				<title>Ribosomal_L27 (PF01016)
"Ribosomal L27 protein"</title>
				<polygon class="PF01016" points="1050,40 1053,28 1054,28 1054,52 1053,52" stroke-linejoin="round" width="7" height="24" fill="rgb(108,228,174)" stroke="rgb(86,182,139)" stroke-width="1" opacity="0.75" />
			</g>
		</g>
		<g>
			<title> (ctg3_278)</title>
			<polygon class=" (ctg3_278)" points="1057,40 1067,10 1067,70" fill="rgb(255,255,255)" fill-opacity="1.0" stroke="rgb(0,0,0)" stroke-width="2"  />
			<g>
				<title>Ribosomal_L21p (PF00829)
"Ribosomal prokaryotic L21 protein"</title>
				<polygon class="PF00829" points="1060,40 1064,28 1066,28 1066,52 1064,52" stroke-linejoin="round" width="9" height="24" fill="rgb(211,146,57)" stroke="rgb(168,116,45)" stroke-width="1" opacity="0.75" />
			</g>
		</g>
		<g>
			<title> (ctg3_279)</title>
			<polygon class=" (ctg3_279)" points="1126,25 1105,25 1105,10 1075,40 1105,70 1105,55 1126,55" fill="rgb(255,255,255)" fill-opacity="1.0" stroke="rgb(0,0,0)" stroke-width="2"  />
			<g>
				<title>TENA_THI-4 (PF03070)
"TENA/THI-4/PQQC family"</title>
				<polygon class="PF03070" points="1079,40 1091,28 1095,28 1095,52 1091,52" stroke-linejoin="round" width="19" height="24" fill="rgb(95,149,219)" stroke="rgb(76,119,175)" stroke-width="1" opacity="0.75" />
			</g>
			<g>
				<title>Phos_pyr_kin (PF08543)
"Phosphomethylpyrimidine kinase"</title>
				<rect class="PF08543" x="1100" y="28" stroke-linejoin="round" width="24" height="24" fill="rgb(91,84,223)" stroke="rgb(72,67,178)" stroke-width="1" opacity="0.75" />
			</g>
		</g>
	</g>
</svg>
