<svg version="1.1" baseProfile="full" xmlns="http://www.w3.org/2000/svg" width="1470.1333333333334" height="80">
	<g>
		<line x1="10" y1="40.0" x2="1460.1333333333334" y2="40.0" style="stroke:rgb(70,70,70); stroke-width:3 "/>
		<g>
			<title> (ctg1_614)</title>
			<polygon class=" (ctg1_614)" points="15,10 42,40 15,70" fill="rgb(255,255,255)" fill-opacity="1.0" stroke="rgb(0,0,0)" stroke-width="2"  />
			<g>
				<title>Pantoate_ligase (PF02569)
"Pantoate-beta-alanine ligase"</title>
				<polygon class="PF02569" points="15,28 27,28 38,40 27,52 15,52" stroke-linejoin="round" width="27" height="24" fill="rgb(53,172,184)" stroke="rgb(42,137,147)" stroke-width="1" opacity="0.75" />
			</g>
		</g>
		<g>
			<title> (ctg1_615)</title>
			<polygon class=" (ctg1_615)" points="49,25 111,25 111,10 141,40 111,70 111,55 49,55" fill="rgb(255,255,255)" fill-opacity="1.0" stroke="rgb(0,0,0)" stroke-width="2"  />
			<g>
				<title>RNase_T (PF00929)
"Exonuclease"</title>
				<rect class="PF00929" x="49" y="28" stroke-linejoin="round" width="15" height="24" fill="rgb(201,87,120)" stroke="rgb(160,69,96)" stroke-width="1" opacity="0.75" />
			</g>
			<g>
				<title>DEAD (PF00270)
"DEAD/DEAH box helicase"</title>
				<rect class="PF00270" x="74" y="28" stroke-linejoin="round" width="15" height="24" fill="rgb(195,100,62)" stroke="rgb(156,80,49)" stroke-width="1" opacity="0.75" />
			</g>
			<g>
				<title>Helicase_C_2 (PF13307)
"Helicase C-terminal domain"</title>
				<polygon class="PF13307" points="122,28 124,28 136,40 124,52 122,52" stroke-linejoin="round" width="16" height="24" fill="rgb(70,108,178)" stroke="rgb(56,86,142)" stroke-width="1" opacity="0.75" />
			</g>
		</g>
		<g>
			<title> (ctg1_616)</title>
			<polygon class=" (ctg1_616)" points="142,10 158,40 142,70" fill="rgb(255,255,255)" fill-opacity="1.0" stroke="rgb(0,0,0)" stroke-width="2"  />
			<g>
				<title>DUF5590 (PF17881)
"Domain of unknown function (DUF5590)"</title>
				<polygon class="PF17881" points="145,28 148,28 149,30 149,50 148,52 145,52" stroke-linejoin="round" width="4" height="24" fill="rgb(119,197,71)" stroke="rgb(95,157,56)" stroke-width="1" opacity="0.75" />
			</g>
		</g>
		<g>
			<title> (ctg1_617)</title>
			<polygon class=" (ctg1_617)" points="162,25 175,25 175,10 205,40 175,70 175,55 162,55" fill="rgb(255,255,255)" fill-opacity="1.0" stroke="rgb(0,0,0)" stroke-width="2"  />
			<g>
				<title>tRNA_anti-codon (PF01336)
"OB-fold nucleic acid binding domain"</title>
				<rect class="PF01336" x="163" y="28" stroke-linejoin="round" width="7" height="24" fill="rgb(215,103,173)" stroke="rgb(172,82,138)" stroke-width="1" opacity="0.75" />
			</g>
			<g>
				<title>tRNA-synt_2 (PF00152)
"tRNA synthetases class II (D, K and N)"</title>
				<polygon class="PF00152" points="173,28 188,28 200,40 188,52 173,52" stroke-linejoin="round" width="31" height="24" fill="rgb(90,71,190)" stroke="rgb(72,56,152)" stroke-width="1" opacity="0.75" />
			</g>
		</g>
		<g>
			<title> (ctg1_618)</title>
			<polygon class=" (ctg1_618)" points="211,25 212,25 212,10 242,40 212,70 212,55 211,55" fill="rgb(255,255,255)" fill-opacity="1.0" stroke="rgb(0,0,0)" stroke-width="2"  />
			<g>
				<title>SATase_N (PF06426)
"Serine acetyltransferase, N-terminal"</title>
				<polygon class="PF06426" points="217,28 225,28 226,29 226,51 225,52 217,52" stroke-linejoin="round" width="9" height="24" fill="rgb(66,167,178)" stroke="rgb(52,133,142)" stroke-width="1" opacity="0.75" />
			</g>
			<g>
				<title>Hexapep (PF00132)
"Bacterial transferase hexapeptide (six repeats)"</title>
				<polygon class="PF00132" points="228,31 233,36 233,44 228,49" stroke-linejoin="round" width="5" height="24" fill="rgb(89,131,202)" stroke="rgb(71,104,161)" stroke-width="1" opacity="0.75" />
			</g>
		</g>
		<g>
			<title> (ctg1_619)</title>
			<polygon class=" (ctg1_619)" points="244,10 262,40 244,70" fill="rgb(255,255,255)" fill-opacity="1.0" stroke="rgb(0,0,0)" stroke-width="2"  />
			<g>
				<title>NUDIX (PF00293)
"NUDIX domain"</title>
				<polygon class="PF00293" points="248,28 251,28 258,40 251,52 248,52" stroke-linejoin="round" width="13" height="24" fill="rgb(92,56,187)" stroke="rgb(73,44,149)" stroke-width="1" opacity="0.75" />
			</g>
		</g>
		<g>
			<title> (ctg1_620)</title>
			<polygon class=" (ctg1_620)" points="302,25 296,25 296,10 266,40 296,70 296,55 302,55" fill="rgb(255,255,255)" fill-opacity="1.0" stroke="rgb(0,0,0)" stroke-width="2"  />
			<g>
				<title>OB_MalK (PF17912)
"MalK OB fold domain"</title>
				<polygon class="PF17912" points="274,36 279,31 279,49 274,44" stroke-linejoin="round" width="5" height="24" fill="rgb(107,58,183)" stroke="rgb(85,46,146)" stroke-width="1" opacity="0.75" />
			</g>
			<g>
				<title>ABC_tran (PF00005)
"ABC transporter"</title>
				<rect class="PF00005" x="286" y="28" stroke-linejoin="round" width="14" height="24" fill="rgb(129,201,63)" stroke="rgb(103,160,50)" stroke-width="1" opacity="0.75" />
			</g>
		</g>
		<g>
			<title> (ctg1_621)</title>
			<polygon class=" (ctg1_621)" points="315,25 315,25 315,10 345,40 315,70 315,55 315,55" fill="rgb(255,255,255)" fill-opacity="1.0" stroke="rgb(0,0,0)" stroke-width="2"  />
			<g>
				<title>DHDPS (PF00701)
"Dihydrodipicolinate synthetase family"</title>
				<polygon class="PF00701" points="315,28 329,28 341,40 329,52 315,52" stroke-linejoin="round" width="28" height="24" fill="rgb(80,204,82)" stroke="rgb(64,163,65)" stroke-width="1" opacity="0.75" />
			</g>
		</g>
		<g>
			<title> (ctg1_622)</title>
			<polygon class=" (ctg1_622)" points="345,10 366,40 345,70" fill="rgb(255,255,255)" fill-opacity="1.0" stroke="rgb(0,0,0)" stroke-width="2"  />
			<g>
				<title>Lipase_GDSL_2 (PF13472)
"GDSL-like Lipase/Acylhydrolase family"</title>
				<polygon class="PF13472" points="346,28 354,28 363,40 354,52 346,52" stroke-linejoin="round" width="19" height="24" fill="rgb(116,68,184)" stroke="rgb(92,54,147)" stroke-width="1" opacity="0.75" />
			</g>
		</g>
		<g>
			<title> (ctg1_623)</title>
			<polygon class=" (ctg1_623)" points="367,25 383,25 383,10 413,40 383,70 383,55 367,55" fill="rgb(255,255,255)" fill-opacity="1.0" stroke="rgb(0,0,0)" stroke-width="2"  />
			<g>
				<title>SBP_bac_1 (PF01547)
"Bacterial extracellular solute-binding protein"</title>
				<polygon class="PF01547" points="372,28 396,28 403,35 403,45 396,52 372,52" stroke-linejoin="round" width="31" height="24" fill="rgb(195,119,75)" stroke="rgb(156,95,60)" stroke-width="1" opacity="0.75" />
			</g>
		</g>
		<g>
			<title> (ctg1_624)</title>
			<polygon class=" (ctg1_624)" points="416,10 445,40 416,70" fill="rgb(255,255,255)" fill-opacity="1.0" stroke="rgb(0,0,0)" stroke-width="2"  />
			<g>
				<title>BPD_transp_1 (PF00528)
"Binding-protein-dependent transport system inner membrane component"</title>
				<polygon class="PF00528" points="424,28 428,28 440,40 428,52 424,52" stroke-linejoin="round" width="20" height="24" fill="rgb(77,208,225)" stroke="rgb(61,166,180)" stroke-width="1" opacity="0.75" />
			</g>
		</g>
		<g>
			<title> (ctg1_625)</title>
			<polygon class=" (ctg1_625)" points="445,10 473,40 445,70" fill="rgb(255,255,255)" fill-opacity="1.0" stroke="rgb(0,0,0)" stroke-width="2"  />
			<g>
				<title>BPD_transp_1 (PF00528)
"Binding-protein-dependent transport system inner membrane component"</title>
				<polygon class="PF00528" points="454,28 457,28 468,40 457,52 454,52" stroke-linejoin="round" width="18" height="24" fill="rgb(77,208,225)" stroke="rgb(61,166,180)" stroke-width="1" opacity="0.75" />
			</g>
		</g>
		<g>
			<title> (ctg1_626)</title>
			<polygon class=" (ctg1_626)" points="474,10 497,40 474,70" fill="rgb(255,255,255)" fill-opacity="1.0" stroke="rgb(0,0,0)" stroke-width="2"  />
			<g>
				<title>NanE (PF04131)
"Putative N-acetylmannosamine-6-phosphate epimerase"</title>
				<polygon class="PF04131" points="477,28 484,28 493,40 484,52 477,52" stroke-linejoin="round" width="19" height="24" fill="rgb(94,199,217)" stroke="rgb(75,159,173)" stroke-width="1" opacity="0.75" />
			</g>
		</g>
		<g>
			<title> (ctg1_627)</title>
			<polygon class=" (ctg1_627)" points="497,10 526,40 497,70" fill="rgb(255,255,255)" fill-opacity="1.0" stroke="rgb(0,0,0)" stroke-width="2"  />
			<g>
				<title>ROK (PF00480)
"ROK family"</title>
				<polygon class="PF00480" points="497,28 510,28 522,40 510,52 497,52" stroke-linejoin="round" width="29" height="24" fill="rgb(205,99,210)" stroke="rgb(163,79,168)" stroke-width="1" opacity="0.75" />
			</g>
		</g>
		<g>
			<title> (ctg1_628)</title>
			<polygon class=" (ctg1_628)" points="527,10 555,40 527,70" fill="rgb(255,255,255)" fill-opacity="1.0" stroke="rgb(0,0,0)" stroke-width="2"  />
			<g>
				<title>HTH_6 (PF01418)
"Helix-turn-helix domain, rpiR family"</title>
				<rect class="PF01418" x="527" y="28" stroke-linejoin="round" width="7" height="24" fill="rgb(214,118,93)" stroke="rgb(171,94,74)" stroke-width="1" opacity="0.75" />
			</g>
			<g>
				<title>SIS (PF01380)
"SIS domain"</title>
				<polygon class="PF01380" points="539,28 539,28 551,40 551,40 539,52 539,52" stroke-linejoin="round" width="12" height="24" fill="rgb(212,106,227)" stroke="rgb(169,84,181)" stroke-width="1" opacity="0.75" />
			</g>
		</g>
		<g>
			<title> (ctg1_629)</title>
			<polygon class=" (ctg1_629)" points="571,10 589,40 571,70" fill="rgb(255,255,255)" fill-opacity="1.0" stroke="rgb(0,0,0)" stroke-width="2"  />
			<g>
				<title>AhpC-TSA (PF00578)
"AhpC/TSA family"</title>
				<polygon class="PF00578" points="571,28 578,28 584,37 584,43 578,52 571,52" stroke-linejoin="round" width="13" height="24" fill="rgb(166,71,190)" stroke="rgb(132,56,152)" stroke-width="1" opacity="0.75" />
			</g>
			<g>
				<title>1-cysPrx_C (PF10417)
"C-terminal domain of 1-Cys peroxiredoxin"</title>
				<polygon class="PF10417" points="586,40 586,40 586,40" stroke-linejoin="round" width="3" height="24" fill="rgb(80,189,172)" stroke="rgb(64,151,137)" stroke-width="1" opacity="0.75" />
			</g>
		</g>
		<g>
			<title> (ctg1_630)</title>
			<polygon class=" (ctg1_630)" points="599,25 621,25 621,10 651,40 621,70 621,55 599,55" fill="rgb(255,255,255)" fill-opacity="1.0" stroke="rgb(0,0,0)" stroke-width="2"  />
			<g>
				<title>Pyr_redox_2 (PF07992)
"Pyridine nucleotide-disulphide oxidoreductase"</title>
				<polygon class="PF07992" points="620,28 635,28 647,40 635,52 620,52" stroke-linejoin="round" width="28" height="24" fill="rgb(83,223,167)" stroke="rgb(66,178,133)" stroke-width="1" opacity="0.75" />
			</g>
		</g>
		<g>
			<title> (ctg1_631)</title>
			<polygon class=" (ctg1_631)" points="657,40 676,10 676,70" fill="rgb(255,255,255)" fill-opacity="1.0" stroke="rgb(0,0,0)" stroke-width="2"  />
		</g>
		<g>
			<title> (ctg1_632)</title>
			<polygon class=" (ctg1_632)" points="792,25 706,25 706,10 676,40 706,70 706,55 792,55" fill="rgb(255,255,255)" fill-opacity="1.0" stroke="rgb(0,0,0)" stroke-width="2"  />
			<g>
				<title>NAD_binding_4 (PF07993)
"Male sterility protein"</title>
				<polygon class="PF07993" points="688,32 692,28 712,28 712,52 692,52 688,48" stroke-linejoin="round" width="24" height="24" fill="rgb(100,212,204)" stroke="rgb(80,169,163)" stroke-width="1" opacity="0.75" />
			</g>
			<g>
				<title>PP-binding (PF00550)
"Phosphopantetheine attachment site"</title>
				<rect class="PF00550" x="717" y="28" stroke-linejoin="round" width="6" height="24" fill="rgb(103,191,88)" stroke="rgb(82,152,70)" stroke-width="1" opacity="0.75" />
			</g>
			<g>
				<title>AMP-binding_C (PF13193)
"AMP-binding enzyme C-terminal domain"</title>
				<rect class="PF13193" x="726" y="28" stroke-linejoin="round" width="7" height="24" fill="rgb(182,50,118)" stroke="rgb(145,39,94)" stroke-width="1" opacity="0.75" />
			</g>
			<g>
				<title>AMP-binding (PF00501)
"AMP-binding enzyme"</title>
				<rect class="PF00501" x="734" y="28" stroke-linejoin="round" width="40" height="24" fill="rgb(60,217,223)" stroke="rgb(48,173,178)" stroke-width="1" opacity="0.75" />
			</g>
		</g>
		<g>
			<title> (ctg1_633)</title>
			<polygon class=" (ctg1_633)" points="853,25 826,25 826,10 796,40 826,70 826,55 853,55" fill="rgb(255,255,255)" fill-opacity="1.0" stroke="rgb(0,0,0)" stroke-width="2"  />
			<g>
				<title>MCPsignal (PF00015)
"Methyl-accepting chemotaxis protein (MCP) signalling domain"</title>
				<polygon class="PF00015" points="800,40 812,28 818,28 818,52 812,52 800,40" stroke-linejoin="round" width="18" height="24" fill="rgb(104,174,223)" stroke="rgb(83,139,178)" stroke-width="1" opacity="0.75" />
			</g>
			<g>
				<title>HAMP (PF00672)
"HAMP domain"</title>
				<rect class="PF00672" x="826" y="28" stroke-linejoin="round" width="5" height="24" fill="rgb(124,89,195)" stroke="rgb(99,71,156)" stroke-width="1" opacity="0.75" />
			</g>
		</g>
		<g>
			<title> (ctg1_634)</title>
			<polygon class=" (ctg1_634)" points="905,25 895,25 895,10 865,40 895,70 895,55 905,55" fill="rgb(255,255,255)" fill-opacity="1.0" stroke="rgb(0,0,0)" stroke-width="2"  />
		</g>
		<g>
			<title> (ctg1_635)</title>
			<polygon class=" (ctg1_635)" points="991,25 945,25 945,10 915,40 945,70 945,55 991,55" fill="rgb(255,255,255)" fill-opacity="1.0" stroke="rgb(0,0,0)" stroke-width="2"  />
			<g>
				<title>Meth_synt_2 (PF01717)
"Cobalamin-independent synthase, Catalytic domain"</title>
				<polygon class="PF01717" points="919,40 931,28 948,28 948,52 931,52" stroke-linejoin="round" width="32" height="24" fill="rgb(163,221,87)" stroke="rgb(130,176,69)" stroke-width="1" opacity="0.75" />
			</g>
			<g>
				<title>Meth_synt_1 (PF08267)
"Cobalamin-independent synthase, N-terminal domain"</title>
				<rect class="PF08267" x="960" y="28" stroke-linejoin="round" width="31" height="24" fill="rgb(102,88,199)" stroke="rgb(81,70,159)" stroke-width="1" opacity="0.75" />
			</g>
		</g>
		<g>
			<title> (ctg1_636)</title>
			<polygon class=" (ctg1_636)" points="1020,40 1039,10 1039,70" fill="rgb(255,255,255)" fill-opacity="1.0" stroke="rgb(0,0,0)" stroke-width="2"  />
			<g>
				<title>TetR_C_8 (PF14278)
"Transcriptional regulator C-terminal region"</title>
				<polygon class="PF14278" points="1024,40 1029,32 1029,48" stroke-linejoin="round" width="9" height="24" fill="rgb(192,229,97)" stroke="rgb(153,183,77)" stroke-width="1" opacity="0.75" />
			</g>
		</g>
		<g>
			<title> (ctg1_637)</title>
			<polygon class=" (ctg1_637)" points="1047,10 1071,40 1047,70" fill="rgb(255,255,255)" fill-opacity="1.0" stroke="rgb(0,0,0)" stroke-width="2"  />
			<g>
				<title>adh_short_C2 (PF13561)
"Enoyl-(Acyl carrier protein) reductase"</title>
				<polygon class="PF13561" points="1048,28 1058,28 1067,40 1058,52 1048,52" stroke-linejoin="round" width="22" height="24" fill="rgb(73,205,127)" stroke="rgb(58,164,101)" stroke-width="1" opacity="0.75" />
			</g>
		</g>
		<g>
			<title> (ctg1_638)</title>
			<polygon class=" (ctg1_638)" points="1079,25 1081,25 1081,10 1111,40 1081,70 1081,55 1079,55" fill="rgb(255,255,255)" fill-opacity="1.0" stroke="rgb(0,0,0)" stroke-width="2"  />
			<g>
				<title>LacI (PF00356)
"Bacterial regulatory proteins, lacI family"</title>
				<rect class="PF00356" x="1079" y="28" stroke-linejoin="round" width="4" height="24" fill="rgb(66,188,63)" stroke="rgb(52,150,50)" stroke-width="1" opacity="0.75" />
			</g>
			<g>
				<title>Peripla_BP_3 (PF13377)
"Periplasmic binding protein-like domain"</title>
				<polygon class="PF13377" points="1095,28 1095,28 1107,40 1095,52 1095,52" stroke-linejoin="round" width="15" height="24" fill="rgb(101,208,189)" stroke="rgb(80,166,151)" stroke-width="1" opacity="0.75" />
			</g>
		</g>
		<g>
			<title> (ctg1_639)</title>
			<polygon class=" (ctg1_639)" points="1111,10 1140,40 1111,70" fill="rgb(255,255,255)" fill-opacity="1.0" stroke="rgb(0,0,0)" stroke-width="2"  />
			<g>
				<title>PfkB (PF00294)
"pfkB family carbohydrate kinase"</title>
				<polygon class="PF00294" points="1111,28 1124,28 1136,40 1124,52 1111,52" stroke-linejoin="round" width="28" height="24" fill="rgb(153,96,212)" stroke="rgb(122,76,169)" stroke-width="1" opacity="0.75" />
			</g>
		</g>
		<g>
			<title> (ctg1_640)</title>
			<polygon class=" (ctg1_640)" points="1145,10 1174,40 1145,70" fill="rgb(255,255,255)" fill-opacity="1.0" stroke="rgb(0,0,0)" stroke-width="2"  />
			<g>
				<title>G5 (PF07501)
"G5 domain"</title>
				<polygon class="PF07501" points="1166,36 1170,40 1166,44" stroke-linejoin="round" width="7" height="24" fill="rgb(97,103,218)" stroke="rgb(77,82,174)" stroke-width="1" opacity="0.75" />
			</g>
		</g>
		<g>
			<title> (ctg1_641)</title>
			<polygon class=" (ctg1_641)" points="1173,10 1179,40 1173,70" fill="rgb(255,255,255)" fill-opacity="1.0" stroke="rgb(0,0,0)" stroke-width="2"  />
		</g>
		<g>
			<title> (ctg1_642)</title>
			<polygon class=" (ctg1_642)" points="1184,10 1208,40 1184,70" fill="rgb(255,255,255)" fill-opacity="1.0" stroke="rgb(0,0,0)" stroke-width="2"  />
			<g>
				<title>DnaB_2 (PF07261)
"Replication initiation and membrane attachment"</title>
				<polygon class="PF07261" points="1197,31 1204,40 1204,40 1197,49" stroke-linejoin="round" width="7" height="24" fill="rgb(115,85,178)" stroke="rgb(91,68,142)" stroke-width="1" opacity="0.75" />
			</g>
		</g>
		<g>
			<title> (ctg1_643)</title>
			<polygon class=" (ctg1_643)" points="1208,10 1230,40 1208,70" fill="rgb(255,255,255)" fill-opacity="1.0" stroke="rgb(0,0,0)" stroke-width="2"  />
			<g>
				<title>HhH-GPD (PF00730)
"HhH-GPD superfamily base excision DNA repair protein"</title>
				<polygon class="PF00730" points="1211,28 1217,28 1224,37 1224,43 1217,52 1211,52" stroke-linejoin="round" width="13" height="24" fill="rgb(190,78,115)" stroke="rgb(152,62,92)" stroke-width="1" opacity="0.75" />
			</g>
		</g>
		<g>
			<title> (ctg1_644)</title>
			<polygon class=" (ctg1_644)" points="1230,10 1241,40 1230,70" fill="rgb(255,255,255)" fill-opacity="1.0" stroke="rgb(0,0,0)" stroke-width="2"  />
		</g>
		<g>
			<title> (ctg1_645)</title>
			<polygon class=" (ctg1_645)" points="1334,25 1278,25 1278,10 1248,40 1278,70 1278,55 1334,55" fill="rgb(255,255,255)" fill-opacity="1.0" stroke="rgb(0,0,0)" stroke-width="2"  />
			<g>
				<title>Transpeptidase (PF00905)
"Penicillin binding protein transpeptidase domain"</title>
				<rect class="PF00905" x="1270" y="28" stroke-linejoin="round" width="29" height="24" fill="rgb(161,226,87)" stroke="rgb(128,180,69)" stroke-width="1" opacity="0.75" />
			</g>
			<g>
				<title>Transgly (PF00912)
"Transglycosylase"</title>
				<rect class="PF00912" x="1308" y="28" stroke-linejoin="round" width="17" height="24" fill="rgb(172,107,216)" stroke="rgb(137,85,172)" stroke-width="1" opacity="0.75" />
			</g>
		</g>
		<g>
			<title> (ctg1_646)</title>
			<polygon class=" (ctg1_646)" points="1336,40 1356,10 1356,70" fill="rgb(255,255,255)" fill-opacity="1.0" stroke="rgb(0,0,0)" stroke-width="2"  />
			<g>
				<title>RecU (PF03838)
"Recombination protein U"</title>
				<polygon class="PF03838" points="1340,40 1348,28 1352,28 1352,52 1348,52" stroke-linejoin="round" width="16" height="24" fill="rgb(93,204,83)" stroke="rgb(74,163,66)" stroke-width="1" opacity="0.75" />
			</g>
		</g>
		<g>
			<title> (ctg1_647)</title>
			<polygon class=" (ctg1_647)" points="1364,10 1376,40 1364,70" fill="rgb(255,255,255)" fill-opacity="1.0" stroke="rgb(0,0,0)" stroke-width="2"  />
			<g>
				<title>DUF1798 (PF08807)
"Bacterial domain of unknown function (DUF1798)"</title>
				<polygon class="PF08807" points="1364,28 1368,28 1373,40 1368,52 1364,52" stroke-linejoin="round" width="10" height="24" fill="rgb(153,201,81)" stroke="rgb(122,160,64)" stroke-width="1" opacity="0.75" />
			</g>
		</g>
		<g>
			<title> (ctg1_648)</title>
			<polygon class=" (ctg1_648)" points="1375,25 1423,25 1423,10 1453,40 1423,70 1423,55 1375,55" fill="rgb(255,255,255)" fill-opacity="1.0" stroke="rgb(0,0,0)" stroke-width="2"  />
			<g>
				<title>DEAD (PF00270)
"DEAD/DEAH box helicase"</title>
				<rect class="PF00270" x="1381" y="28" stroke-linejoin="round" width="17" height="24" fill="rgb(195,100,62)" stroke="rgb(156,80,49)" stroke-width="1" opacity="0.75" />
			</g>
			<g>
				<title>Helicase_C (PF00271)
"Helicase conserved C-terminal domain"</title>
				<rect class="PF00271" x="1402" y="28" stroke-linejoin="round" width="11" height="24" fill="rgb(104,224,158)" stroke="rgb(83,179,126)" stroke-width="1" opacity="0.75" />
			</g>
			<g>
				<title>MZB (PF09369)
"MrfA Zn-binding domain"</title>
				<polygon class="PF09369" points="1440,31 1447,38 1447,42 1440,49" stroke-linejoin="round" width="7" height="24" fill="rgb(161,180,86)" stroke="rgb(128,144,68)" stroke-width="1" opacity="0.75" />
			</g>
		</g>
	</g>
</svg>
