<svg version="1.1" baseProfile="full" xmlns="http://www.w3.org/2000/svg" width="714.0666666666667" height="80">
	<g>
		<line x1="10" y1="40.0" x2="704.0666666666667" y2="40.0" style="stroke:rgb(70,70,70); stroke-width:3 "/>
		<g>
			<title> (ctg12_87)</title>
			<polygon class=" (ctg12_87)" points="40,10 67,40 40,70" fill="rgb(255,255,255)" fill-opacity="1.0" stroke="rgb(0,0,0)" stroke-width="2"  />
			<g>
				<title>MerR_1 (PF13411)
"MerR HTH family regulatory protein"</title>
				<rect class="PF13411" x="40" y="28" stroke-linejoin="round" width="7" height="24" fill="rgb(100,202,107)" stroke="rgb(80,161,85)" stroke-width="1" opacity="0.75" />
			</g>
			<g>
				<title>GyrI-like (PF06445)
"GyrI-like small molecule binding domain"</title>
				<polygon class="PF06445" points="52,28 63,40 52,52" stroke-linejoin="round" width="15" height="24" fill="rgb(61,183,118)" stroke="rgb(48,146,94)" stroke-width="1" opacity="0.75" />
			</g>
		</g>
		<g>
			<title> (ctg12_88)</title>
			<polygon class=" (ctg12_88)" points="68,25 77,25 77,10 107,40 77,70 77,55 68,55" fill="rgb(255,255,255)" fill-opacity="1.0" stroke="rgb(0,0,0)" stroke-width="2"  />
			<g>
				<title>MFS_1 (PF07690)
"Major Facilitator Superfamily"</title>
				<polygon class="PF07690" points="69,28 91,28 100,37 100,43 91,52 69,52" stroke-linejoin="round" width="31" height="24" fill="rgb(193,224,74)" stroke="rgb(154,179,59)" stroke-width="1" opacity="0.75" />
			</g>
		</g>
		<g>
			<title> (ctg12_89)</title>
			<polygon class=" (ctg12_89)" points="111,10 130,40 111,70" fill="rgb(255,255,255)" fill-opacity="1.0" stroke="rgb(0,0,0)" stroke-width="2"  />
			<g>
				<title>BLIP (PF07467)
"Beta-lactamase inhibitor (BLIP)"</title>
				<polygon class="PF07467" points="115,28 119,28 125,38 125,42 119,52 115,52" stroke-linejoin="round" width="10" height="24" fill="rgb(215,90,200)" stroke="rgb(172,72,160)" stroke-width="1" opacity="0.75" />
			</g>
		</g>
		<g>
			<title> (ctg12_90)</title>
			<polygon class=" (ctg12_90)" points="138,10 158,40 138,70" fill="rgb(255,255,255)" fill-opacity="1.0" stroke="rgb(0,0,0)" stroke-width="2"  />
			<g>
				<title>LysM (PF01476)
"LysM domain"</title>
				<rect class="PF01476" x="141" y="28" stroke-linejoin="round" width="4" height="24" fill="rgb(200,86,203)" stroke="rgb(160,68,162)" stroke-width="1" opacity="0.75" />
			</g>
			<g>
				<title>NLPC_P60 (PF00877)
"NlpC/P60 family"</title>
				<polygon class="PF00877" points="147,29 154,40 147,51" stroke-linejoin="round" width="10" height="24" fill="rgb(187,86,137)" stroke="rgb(149,68,109)" stroke-width="1" opacity="0.75" />
			</g>
		</g>
		<g>
			<title> (ctg12_91)</title>
			<polygon class=" (ctg12_91)" points="199,25 190,25 190,10 160,40 190,70 190,55 199,55" fill="rgb(255,255,255)" fill-opacity="1.0" stroke="rgb(0,0,0)" stroke-width="2"  />
			<g>
				<title>MFS_1 (PF07690)
"Major Facilitator Superfamily"</title>
				<polygon class="PF07690" points="170,34 176,28 197,28 197,52 176,52 170,46" stroke-linejoin="round" width="27" height="24" fill="rgb(193,224,74)" stroke="rgb(154,179,59)" stroke-width="1" opacity="0.75" />
			</g>
		</g>
		<g>
			<title> (ctg12_92)</title>
			<polygon class=" (ctg12_92)" points="200,40 213,10 213,70" fill="rgb(255,255,255)" fill-opacity="1.0" stroke="rgb(0,0,0)" stroke-width="2"  />
			<g>
				<title>MarR (PF01047)
"MarR family"</title>
				<polygon class="PF01047" points="204,38 208,28 209,28 209,52 208,52 204,42" stroke-linejoin="round" width="5" height="24" fill="rgb(60,185,86)" stroke="rgb(48,148,68)" stroke-width="1" opacity="0.75" />
			</g>
		</g>
		<g>
			<title> (ctg12_93)</title>
			<polygon class=" (ctg12_93)" points="219,10 237,40 219,70" fill="rgb(255,255,255)" fill-opacity="1.0" stroke="rgb(0,0,0)" stroke-width="2"  />
			<g>
				<title>DJ-1_PfpI (PF01965)
"DJ-1/PfpI family"</title>
				<polygon class="PF01965" points="219,28 226,28 233,40 226,52 219,52" stroke-linejoin="round" width="17" height="24" fill="rgb(66,224,145)" stroke="rgb(52,179,116)" stroke-width="1" opacity="0.75" />
			</g>
		</g>
		<g>
			<title> (ctg12_94)</title>
			<polygon class=" (ctg12_94)" points="239,40 249,10 249,70" fill="rgb(255,255,255)" fill-opacity="1.0" stroke="rgb(0,0,0)" stroke-width="2"  />
			<g>
				<title>DUF3889 (PF13028)
"Protein of unknown function (DUF3889)"</title>
				<polygon class="PF13028" points="242,40 246,28 248,28 248,52 246,52" stroke-linejoin="round" width="9" height="24" fill="rgb(180,84,132)" stroke="rgb(144,67,105)" stroke-width="1" opacity="0.75" />
			</g>
		</g>
		<g>
			<title> (ctg12_95)</title>
			<polygon class=" (ctg12_95)" points="252,40 256,10 256,70" fill="rgb(255,255,255)" fill-opacity="1.0" stroke="rgb(0,0,0)" stroke-width="2"  />
		</g>
		<g>
			<title> (ctg12_96)</title>
			<polygon class=" (ctg12_96)" points="258,10 266,40 258,70" fill="rgb(255,255,255)" fill-opacity="1.0" stroke="rgb(0,0,0)" stroke-width="2"  />
		</g>
		<g>
			<title> (ctg12_97)</title>
			<polygon class=" (ctg12_97)" points="269,40 296,10 296,70" fill="rgb(255,255,255)" fill-opacity="1.0" stroke="rgb(0,0,0)" stroke-width="2"  />
			<g>
				<title>Fumble (PF03630)
"Fumble"</title>
				<polygon class="PF03630" points="273,40 284,28 295,28 295,52 284,52" stroke-linejoin="round" width="26" height="24" fill="rgb(60,213,139)" stroke="rgb(48,170,111)" stroke-width="1" opacity="0.75" />
			</g>
		</g>
		<g>
			<title> (ctg12_98)</title>
			<polygon class=" (ctg12_98)" points="311,40 335,10 335,70" fill="rgb(255,255,255)" fill-opacity="1.0" stroke="rgb(0,0,0)" stroke-width="2"  />
			<g>
				<title>adh_short_C2 (PF13561)
"Enoyl-(Acyl carrier protein) reductase"</title>
				<polygon class="PF13561" points="315,40 325,28 333,28 333,52 325,52" stroke-linejoin="round" width="22" height="24" fill="rgb(73,205,127)" stroke="rgb(58,164,101)" stroke-width="1" opacity="0.75" />
			</g>
		</g>
		<g>
			<title> (ctg12_99)</title>
			<polygon class=" (ctg12_99)" points="343,10 370,40 343,70" fill="rgb(255,255,255)" fill-opacity="1.0" stroke="rgb(0,0,0)" stroke-width="2"  />
			<g>
				<title>SQS_PSY (PF00494)
"Squalene/phytoene synthase"</title>
				<polygon class="PF00494" points="344,28 354,28 363,37 363,43 354,52 344,52" stroke-linejoin="round" width="19" height="24" fill="rgb(178,91,49)" stroke="rgb(142,72,39)" stroke-width="1" opacity="0.75" />
			</g>
		</g>
		<g>
			<title> (ctg12_100)</title>
			<polygon class=" (ctg12_100)" points="381,40 397,10 397,70" fill="rgb(255,255,255)" fill-opacity="1.0" stroke="rgb(0,0,0)" stroke-width="2"  />
			<g>
				<title>YdjM (PF04307)
"LexA-binding, inner membrane-associated putative hydrolase"</title>
				<polygon class="PF04307" points="384,40 391,28 396,28 396,52 391,52" stroke-linejoin="round" width="15" height="24" fill="rgb(140,223,68)" stroke="rgb(112,178,54)" stroke-width="1" opacity="0.75" />
			</g>
		</g>
		<g>
			<title> (ctg12_101)</title>
			<polygon class=" (ctg12_101)" points="403,25 413,25 413,10 443,40 413,70 413,55 403,55" fill="rgb(255,255,255)" fill-opacity="1.0" stroke="rgb(0,0,0)" stroke-width="2"  />
			<g>
				<title>Ferric_reduct (PF01794)
"Ferric reductase like transmembrane component"</title>
				<rect class="PF01794" x="407" y="28" stroke-linejoin="round" width="11" height="24" fill="rgb(64,69,204)" stroke="rgb(51,55,163)" stroke-width="1" opacity="0.75" />
			</g>
			<g>
				<title>FAD_binding_8 (PF08022)
"FAD-binding domain"</title>
				<polygon class="PF08022" points="423,28 427,28 432,33 432,47 427,52 423,52" stroke-linejoin="round" width="9" height="24" fill="rgb(208,115,56)" stroke="rgb(166,92,44)" stroke-width="1" opacity="0.75" />
			</g>
			<g>
				<title>NAD_binding_1 (PF00175)
"Oxidoreductase NAD-binding domain"</title>
				<polygon class="PF00175" points="433,34 439,40 433,46" stroke-linejoin="round" width="9" height="24" fill="rgb(177,211,96)" stroke="rgb(141,168,76)" stroke-width="1" opacity="0.75" />
			</g>
		</g>
		<g>
			<title> (ctg12_102)</title>
			<polygon class=" (ctg12_102)" points="457,10 477,40 457,70" fill="rgb(255,255,255)" fill-opacity="1.0" stroke="rgb(0,0,0)" stroke-width="2"  />
			<g>
				<title>Nitroreductase (PF00881)
"Nitroreductase family"</title>
				<polygon class="PF00881" points="458,28 466,28 474,40 466,52 458,52" stroke-linejoin="round" width="17" height="24" fill="rgb(79,118,187)" stroke="rgb(63,94,149)" stroke-width="1" opacity="0.75" />
			</g>
		</g>
		<g>
			<title> (ctg12_103)</title>
			<polygon class=" (ctg12_103)" points="489,10 505,40 489,70" fill="rgb(255,255,255)" fill-opacity="1.0" stroke="rgb(0,0,0)" stroke-width="2"  />
		</g>
		<g>
			<title> (ctg12_104)</title>
			<polygon class=" (ctg12_104)" points="507,40 513,10 513,70" fill="rgb(255,255,255)" fill-opacity="1.0" stroke="rgb(0,0,0)" stroke-width="2"  />
			<g>
				<title>DUF3658 (PF12395)
"Protein of unknown function"</title>
				<polygon class="PF12395" points="510,40 513,28 513,28 513,52 513,52" stroke-linejoin="round" width="5" height="24" fill="rgb(71,171,195)" stroke="rgb(56,136,156)" stroke-width="1" opacity="0.75" />
			</g>
		</g>
		<g>
			<title> (ctg12_105)</title>
			<polygon class=" (ctg12_105)" points="518,25 527,25 527,10 557,40 527,70 527,55 518,55" fill="rgb(255,255,255)" fill-opacity="1.0" stroke="rgb(0,0,0)" stroke-width="2"  />
			<g>
				<title>Aminotran_5 (PF00266)
"Aminotransferase class-V"</title>
				<polygon class="PF00266" points="518,28 540,28 550,38 550,42 540,52 518,52" stroke-linejoin="round" width="32" height="24" fill="rgb(214,54,122)" stroke="rgb(171,43,97)" stroke-width="1" opacity="0.75" />
			</g>
		</g>
		<g>
			<title> (ctg12_106)</title>
			<polygon class=" (ctg12_106)" points="604,25 590,25 590,10 560,40 590,70 590,55 604,55" fill="rgb(255,255,255)" fill-opacity="1.0" stroke="rgb(0,0,0)" stroke-width="2"  />
			<g>
				<title>PALP (PF00291)
"Pyridoxal-phosphate dependent enzyme"</title>
				<polygon class="PF00291" points="564,40 576,28 596,28 596,52 576,52 564,40" stroke-linejoin="round" width="32" height="24" fill="rgb(180,55,145)" stroke="rgb(144,44,116)" stroke-width="1" opacity="0.75" />
			</g>
		</g>
		<g>
			<title> (ctg12_107)</title>
			<polygon class=" (ctg12_107)" points="604,40 619,10 619,70" fill="rgb(255,255,255)" fill-opacity="1.0" stroke="rgb(0,0,0)" stroke-width="2"  />
			<g>
				<title>DUF188 (PF02639)
"Uncharacterized BCR, YaiI/YqxD family COG1671"</title>
				<polygon class="PF02639" points="607,40 613,28 617,28 617,52 613,52" stroke-linejoin="round" width="12" height="24" fill="rgb(145,182,48)" stroke="rgb(116,145,38)" stroke-width="1" opacity="0.75" />
			</g>
		</g>
		<g>
			<title> (ctg12_108)</title>
			<polygon class=" (ctg12_108)" points="626,25 642,25 642,10 672,40 642,70 642,55 626,55" fill="rgb(255,255,255)" fill-opacity="1.0" stroke="rgb(0,0,0)" stroke-width="2"  />
			<g>
				<title>ELFV_dehydrog_N (PF02812)
"Glu/Leu/Phe/Val dehydrogenase, dimerisation domain"</title>
				<rect class="PF02812" x="633" y="28" stroke-linejoin="round" width="12" height="24" fill="rgb(157,52,200)" stroke="rgb(125,41,160)" stroke-width="1" opacity="0.75" />
			</g>
			<g>
				<title>ELFV_dehydrog (PF00208)
"Glutamate/Leucine/Phenylalanine/Valine dehydrogenase"</title>
				<polygon class="PF00208" points="647,28 656,28 668,40 656,52 647,52" stroke-linejoin="round" width="24" height="24" fill="rgb(181,160,45)" stroke="rgb(144,128,36)" stroke-width="1" opacity="0.75" />
			</g>
		</g>
		<g>
			<title> (ctg12_109)</title>
			<polygon class=" (ctg12_109)" points="679,10 701,40 679,70" fill="rgb(255,255,255)" fill-opacity="1.0" stroke="rgb(0,0,0)" stroke-width="2"  />
			<g>
				<title>SAICAR_synt (PF01259)
"SAICAR synthetase"</title>
				<polygon class="PF01259" points="679,28 689,28 698,40 689,52 679,52" stroke-linejoin="round" width="22" height="24" fill="rgb(75,117,191)" stroke="rgb(60,93,152)" stroke-width="1" opacity="0.75" />
			</g>
		</g>
	</g>
</svg>
