<svg version="1.1" baseProfile="full" xmlns="http://www.w3.org/2000/svg" width="767.0333333333333" height="80">
	<g>
		<line x1="10" y1="40.0" x2="757.0333333333333" y2="40.0" style="stroke:rgb(70,70,70); stroke-width:3 "/>
		<g>
			<title> (ctg3_224)</title>
			<polygon class=" (ctg3_224)" points="155,40 164,10 164,70" fill="rgb(255,255,255)" fill-opacity="1.0" stroke="rgb(0,0,0)" stroke-width="2"  />
			<g>
				<title>HTH_31 (PF13560)
"Helix-turn-helix domain"</title>
				<polygon class="PF13560" points="158,40 162,28 163,28 163,52 162,52" stroke-linejoin="round" width="6" height="24" fill="rgb(207,145,90)" stroke="rgb(165,116,72)" stroke-width="1" opacity="0.75" />
			</g>
		</g>
		<g>
			<title> (ctg3_225)</title>
			<polygon class=" (ctg3_225)" points="175,40 185,10 185,70" fill="rgb(255,255,255)" fill-opacity="1.0" stroke="rgb(0,0,0)" stroke-width="2"  />
		</g>
		<g>
			<title> (ctg3_226)</title>
			<polygon class=" (ctg3_226)" points="195,25 242,25 242,10 272,40 242,70 242,55 195,55" fill="rgb(255,255,255)" fill-opacity="1.0" stroke="rgb(0,0,0)" stroke-width="2"  />
			<g>
				<title>Plug (PF07715)
"TonB-dependent Receptor Plug Domain"</title>
				<rect class="PF07715" x="200" y="28" stroke-linejoin="round" width="12" height="24" fill="rgb(99,133,214)" stroke="rgb(79,106,171)" stroke-width="1" opacity="0.75" />
			</g>
			<g>
				<title>TonB_dep_Rec (PF00593)
"TonB dependent receptor"</title>
				<polygon class="PF00593" points="215,28 256,28 268,40 256,52 215,52" stroke-linejoin="round" width="57" height="24" fill="rgb(171,200,51)" stroke="rgb(136,160,40)" stroke-width="1" opacity="0.75" />
			</g>
		</g>
		<g>
			<title> (ctg3_227)</title>
			<polygon class=" (ctg3_227)" points="310,25 312,25 312,10 342,40 312,70 312,55 310,55" fill="rgb(255,255,255)" fill-opacity="1.0" stroke="rgb(0,0,0)" stroke-width="2"  />
			<g>
				<title>Peptidase_S9 (PF00326)
"Prolyl oligopeptidase family"</title>
				<polygon class="PF00326" points="322,28 326,28 338,40 338,40 326,52 322,52" stroke-linejoin="round" width="16" height="24" fill="rgb(77,97,209)" stroke="rgb(61,77,167)" stroke-width="1" opacity="0.75" />
			</g>
		</g>
		<g>
			<title> (ctg3_228)</title>
			<polygon class=" (ctg3_228)" points="400,25 373,25 373,10 343,40 373,70 373,55 400,55" fill="rgb(255,255,255)" fill-opacity="1.0" stroke="rgb(0,0,0)" stroke-width="2"  />
			<g>
				<title>Asn_synthase (PF00733)
"Asparagine synthase"</title>
				<polygon class="PF00733" points="347,40 359,28 378,28 378,52 359,52" stroke-linejoin="round" width="35" height="24" fill="rgb(97,201,176)" stroke="rgb(77,160,140)" stroke-width="1" opacity="0.75" />
			</g>
		</g>
		<g>
			<title> (ctg3_229)</title>
			<polygon class=" (ctg3_229)" points="401,40 423,10 423,70" fill="rgb(255,255,255)" fill-opacity="1.0" stroke="rgb(0,0,0)" stroke-width="2"  />
			<g>
				<title>Transglut_core3 (PF13471)
"Transglutaminase-like superfamily"</title>
				<polygon class="PF13471" points="405,40 412,31 412,49" stroke-linejoin="round" width="11" height="24" fill="rgb(63,111,179)" stroke="rgb(50,88,143)" stroke-width="1" opacity="0.75" />
			</g>
		</g>
		<g>
			<title> (ctg3_230)</title>
			<polygon class=" (ctg3_230)" points="425,40 429,10 429,70" fill="rgb(255,255,255)" fill-opacity="1.0" stroke="rgb(0,0,0)" stroke-width="2"  />
		</g>
		<g>
			<title> (ctg3_231)</title>
			<polygon class=" (ctg3_231)" points="433,40 453,10 453,70" fill="rgb(255,255,255)" fill-opacity="1.0" stroke="rgb(0,0,0)" stroke-width="2"  />
			<g>
				<title>GntR (PF00392)
"Bacterial regulatory proteins, gntR family"</title>
				<rect class="PF00392" x="446" y="28" stroke-linejoin="round" width="6" height="24" fill="rgb(160,85,194)" stroke="rgb(127,68,155)" stroke-width="1" opacity="0.75" />
			</g>
		</g>
		<g>
			<title> (ctg3_232)</title>
			<polygon class=" (ctg3_232)" points="520,25 490,25 490,10 460,40 490,70 490,55 520,55" fill="rgb(255,255,255)" fill-opacity="1.0" stroke="rgb(0,0,0)" stroke-width="2"  />
		</g>
		<g>
			<title> (ctg3_233)</title>
			<polygon class=" (ctg3_233)" points="553,25 552,25 552,10 522,40 552,70 552,55 553,55" fill="rgb(255,255,255)" fill-opacity="1.0" stroke="rgb(0,0,0)" stroke-width="2"  />
			<g>
				<title>ABC_tran (PF00005)
"ABC transporter"</title>
				<polygon class="PF00005" points="536,30 538,28 549,28 549,52 538,52 536,50" stroke-linejoin="round" width="13" height="24" fill="rgb(129,201,63)" stroke="rgb(103,160,50)" stroke-width="1" opacity="0.75" />
			</g>
		</g>
		<g>
			<title> (ctg3_234)</title>
			<polygon class=" (ctg3_234)" points="553,40 566,10 566,70" fill="rgb(255,255,255)" fill-opacity="1.0" stroke="rgb(0,0,0)" stroke-width="2"  />
			<g>
				<title>GntR (PF00392)
"Bacterial regulatory proteins, gntR family"</title>
				<polygon class="PF00392" points="558,36 561,28 564,28 564,52 561,52 558,44" stroke-linejoin="round" width="6" height="24" fill="rgb(160,85,194)" stroke="rgb(127,68,155)" stroke-width="1" opacity="0.75" />
			</g>
		</g>
		<g>
			<title> (ctg3_235)</title>
			<polygon class=" (ctg3_235)" points="572,25 592,25 592,10 622,40 592,70 592,55 572,55" fill="rgb(255,255,255)" fill-opacity="1.0" stroke="rgb(0,0,0)" stroke-width="2"  />
			<g>
				<title>Beta-lactamase (PF00144)
"Beta-lactamase"</title>
				<polygon class="PF00144" points="576,28 605,28 609,32 609,48 605,52 576,52" stroke-linejoin="round" width="33" height="24" fill="rgb(92,159,200)" stroke="rgb(73,127,160)" stroke-width="1" opacity="0.75" />
			</g>
		</g>
		<g>
			<title> (ctg3_236)</title>
			<polygon class=" (ctg3_236)" points="663,25 663,25 663,10 633,40 663,70 663,55 663,55" fill="rgb(255,255,255)" fill-opacity="1.0" stroke="rgb(0,0,0)" stroke-width="2"  />
			<g>
				<title>HTH_ParB (PF17762)
"HTH domain found in ParB protein"</title>
				<polygon class="PF17762" points="640,37 645,32 645,48 640,43" stroke-linejoin="round" width="5" height="24" fill="rgb(190,83,224)" stroke="rgb(151,66,179)" stroke-width="1" opacity="0.75" />
			</g>
			<g>
				<title>ParBc (PF02195)
"ParB/Sulfiredoxin domain"</title>
				<rect class="PF02195" x="650" y="28" stroke-linejoin="round" width="9" height="24" fill="rgb(55,214,209)" stroke="rgb(44,171,167)" stroke-width="1" opacity="0.75" />
			</g>
		</g>
		<g>
			<title> (ctg3_237)</title>
			<polygon class=" (ctg3_237)" points="663,40 689,10 689,70" fill="rgb(255,255,255)" fill-opacity="1.0" stroke="rgb(0,0,0)" stroke-width="2"  />
			<g>
				<title>AAA_31 (PF13614)
"AAA domain"</title>
				<polygon class="PF13614" points="672,34 678,28 689,28 689,52 678,52 672,46" stroke-linejoin="round" width="17" height="24" fill="rgb(144,187,62)" stroke="rgb(115,149,49)" stroke-width="1" opacity="0.75" />
			</g>
		</g>
		<g>
			<title> (ctg3_238)</title>
			<polygon class=" (ctg3_238)" points="692,40 713,10 713,70" fill="rgb(255,255,255)" fill-opacity="1.0" stroke="rgb(0,0,0)" stroke-width="2"  />
			<g>
				<title>GidB (PF02527)
"rRNA small subunit methyltransferase G"</title>
				<polygon class="PF02527" points="696,40 705,28 709,28 709,52 705,52" stroke-linejoin="round" width="17" height="24" fill="rgb(63,147,188)" stroke="rgb(50,117,150)" stroke-width="1" opacity="0.75" />
			</g>
		</g>
		<g>
			<title> (ctg3_239)</title>
			<polygon class=" (ctg3_239)" points="713,40 734,10 734,70" fill="rgb(255,255,255)" fill-opacity="1.0" stroke="rgb(0,0,0)" stroke-width="2"  />
			<g>
				<title>ACPS (PF01648)
"4'-phosphopantetheinyl transferase superfamily"</title>
				<polygon class="PF01648" points="717,40 725,29 725,51" stroke-linejoin="round" width="11" height="24" fill="rgb(85,184,135)" stroke="rgb(68,147,108)" stroke-width="1" opacity="0.75" />
			</g>
		</g>
		<g>
			<title> (ctg3_240)</title>
			<polygon class=" (ctg3_240)" points="742,10 750,40 742,70" fill="rgb(255,255,255)" fill-opacity="1.0" stroke="rgb(0,0,0)" stroke-width="2"  />
			<g>
				<title>Transgly_assoc (PF04226)
"Transglycosylase associated protein"</title>
				<polygon class="PF04226" points="745,32 747,40 745,48" stroke-linejoin="round" width="4" height="24" fill="rgb(87,179,152)" stroke="rgb(69,143,121)" stroke-width="1" opacity="0.75" />
			</g>
		</g>
	</g>
</svg>
