<svg version="1.1" baseProfile="full" xmlns="http://www.w3.org/2000/svg" width="758.8666666666667" height="80">
	<g>
		<line x1="10" y1="40.0" x2="748.8666666666667" y2="40.0" style="stroke:rgb(70,70,70); stroke-width:3 "/>
		<g>
			<title> (ctg1_1137)</title>
			<polygon class=" (ctg1_1137)" points="41,10 51,40 41,70" fill="rgb(255,255,255)" fill-opacity="1.0" stroke="rgb(0,0,0)" stroke-width="2"  />
		</g>
		<g>
			<title> (ctg1_1138)</title>
			<polygon class=" (ctg1_1138)" points="61,10 88,40 61,70" fill="rgb(255,255,255)" fill-opacity="1.0" stroke="rgb(0,0,0)" stroke-width="2"  />
		</g>
		<g>
			<title> (ctg1_1139)</title>
			<polygon class=" (ctg1_1139)" points="88,40 99,10 99,70" fill="rgb(255,255,255)" fill-opacity="1.0" stroke="rgb(0,0,0)" stroke-width="2"  />
			<g>
				<title>Multi_Drug_Res (PF00893)
"Small Multidrug Resistance protein"</title>
				<polygon class="PF00893" points="91,40 95,28 98,28 98,52 95,52" stroke-linejoin="round" width="9" height="24" fill="rgb(199,75,202)" stroke="rgb(159,60,161)" stroke-width="1" opacity="0.75" />
			</g>
		</g>
		<g>
			<title> (ctg1_1140)</title>
			<polygon class=" (ctg1_1140)" points="99,40 112,10 112,70" fill="rgb(255,255,255)" fill-opacity="1.0" stroke="rgb(0,0,0)" stroke-width="2"  />
			<g>
				<title>Multi_Drug_Res (PF00893)
"Small Multidrug Resistance protein"</title>
				<polygon class="PF00893" points="102,40 107,28 110,28 110,52 107,52" stroke-linejoin="round" width="9" height="24" fill="rgb(199,75,202)" stroke="rgb(159,60,161)" stroke-width="1" opacity="0.75" />
			</g>
		</g>
		<g>
			<title> (ctg1_1141)</title>
			<polygon class=" (ctg1_1141)" points="125,25 129,25 129,10 159,40 129,70 129,55 125,55" fill="rgb(255,255,255)" fill-opacity="1.0" stroke="rgb(0,0,0)" stroke-width="2"  />
			<g>
				<title>AI-2E_transport (PF01594)
"AI-2E family transporter"</title>
				<polygon class="PF01594" points="126,28 143,28 155,40 143,52 126,52" stroke-linejoin="round" width="31" height="24" fill="rgb(226,96,145)" stroke="rgb(180,76,116)" stroke-width="1" opacity="0.75" />
			</g>
		</g>
		<g>
			<title> (ctg1_1142)</title>
			<polygon class=" (ctg1_1142)" points="159,40 187,10 187,70" fill="rgb(255,255,255)" fill-opacity="1.0" stroke="rgb(0,0,0)" stroke-width="2"  />
		</g>
		<g>
			<title> (ctg1_1143)</title>
			<polygon class=" (ctg1_1143)" points="225,25 221,25 221,10 191,40 221,70 221,55 225,55" fill="rgb(255,255,255)" fill-opacity="1.0" stroke="rgb(0,0,0)" stroke-width="2"  />
			<g>
				<title>Bac_luciferase (PF00296)
"Luciferase-like monooxygenase"</title>
				<polygon class="PF00296" points="195,40 207,28 224,28 224,52 207,52" stroke-linejoin="round" width="30" height="24" fill="rgb(180,112,78)" stroke="rgb(144,89,62)" stroke-width="1" opacity="0.75" />
			</g>
		</g>
		<g>
			<title> (ctg1_1144)</title>
			<polygon class=" (ctg1_1144)" points="232,10 243,40 232,70" fill="rgb(255,255,255)" fill-opacity="1.0" stroke="rgb(0,0,0)" stroke-width="2"  />
			<g>
				<title>HNH (PF01844)
"HNH endonuclease"</title>
				<polygon class="PF01844" points="234,28 235,28 238,34 238,46 235,52 234,52" stroke-linejoin="round" width="4" height="24" fill="rgb(118,184,79)" stroke="rgb(94,147,63)" stroke-width="1" opacity="0.75" />
			</g>
		</g>
		<g>
			<title> (ctg1_1145)</title>
			<polygon class=" (ctg1_1145)" points="246,40 260,10 260,70" fill="rgb(255,255,255)" fill-opacity="1.0" stroke="rgb(0,0,0)" stroke-width="2"  />
		</g>
		<g>
			<title> (ctg1_1146)</title>
			<polygon class=" (ctg1_1146)" points="269,25 273,25 273,10 303,40 273,70 273,55 269,55" fill="rgb(255,255,255)" fill-opacity="1.0" stroke="rgb(0,0,0)" stroke-width="2"  />
			<g>
				<title>Peptidase_M19 (PF01244)
"Membrane dipeptidase (Peptidase family M19)"</title>
				<polygon class="PF01244" points="269,28 286,28 298,40 286,52 269,52" stroke-linejoin="round" width="33" height="24" fill="rgb(178,227,92)" stroke="rgb(142,181,73)" stroke-width="1" opacity="0.75" />
			</g>
		</g>
		<g>
			<title> (ctg1_1147)</title>
			<polygon class=" (ctg1_1147)" points="312,25 312,25 312,10 342,40 312,70 312,55 312,55" fill="rgb(255,255,255)" fill-opacity="1.0" stroke="rgb(0,0,0)" stroke-width="2"  />
			<g>
				<title>Lactamase_B_2 (PF12706)
"Beta-lactamase superfamily domain"</title>
				<polygon class="PF12706" points="317,28 326,28 338,40 326,52 317,52" stroke-linejoin="round" width="22" height="24" fill="rgb(62,169,197)" stroke="rgb(49,135,157)" stroke-width="1" opacity="0.75" />
			</g>
		</g>
		<g>
			<title> (ctg1_1148)</title>
			<polygon class=" (ctg1_1148)" points="343,10 368,40 343,70" fill="rgb(255,255,255)" fill-opacity="1.0" stroke="rgb(0,0,0)" stroke-width="2"  />
			<g>
				<title>TENA_THI-4 (PF03070)
"TENA/THI-4/PQQC family"</title>
				<polygon class="PF03070" points="344,28 354,28 364,40 354,52 344,52" stroke-linejoin="round" width="21" height="24" fill="rgb(95,149,219)" stroke="rgb(76,119,175)" stroke-width="1" opacity="0.75" />
			</g>
		</g>
		<g>
			<title> (ctg1_1149)</title>
			<polygon class=" (ctg1_1149)" points="368,10 377,40 368,70" fill="rgb(255,255,255)" fill-opacity="1.0" stroke="rgb(0,0,0)" stroke-width="2"  />
			<g>
				<title>PqqD (PF05402)
"Coenzyme PQQ synthesis protein D (PqqD)"</title>
				<polygon class="PF05402" points="370,28 370,28 374,40 370,52 370,52" stroke-linejoin="round" width="6" height="24" fill="rgb(124,62,188)" stroke="rgb(99,49,150)" stroke-width="1" opacity="0.75" />
			</g>
		</g>
		<g>
			<title> (ctg1_1150)</title>
			<polygon class=" (ctg1_1150)" points="377,25 385,25 385,10 415,40 385,70 385,55 377,55" fill="rgb(255,255,255)" fill-opacity="1.0" stroke="rgb(0,0,0)" stroke-width="2"  />
			<g>
				<title>Radical_SAM (PF04055)
"Radical SAM superfamily"</title>
				<rect class="PF04055" x="378" y="28" stroke-linejoin="round" width="15" height="24" fill="rgb(149,56,222)" stroke="rgb(119,44,177)" stroke-width="1" opacity="0.75" />
			</g>
			<g>
				<title>SPASM (PF13186)
"Iron-sulfur cluster-binding domain"</title>
				<polygon class="PF13186" points="401,31 407,37 407,43 401,49" stroke-linejoin="round" width="6" height="24" fill="rgb(183,66,65)" stroke="rgb(146,52,51)" stroke-width="1" opacity="0.75" />
			</g>
		</g>
		<g>
			<title> (ctg1_1151)</title>
			<polygon class=" (ctg1_1151)" points="415,25 460,25 460,10 490,40 460,70 460,55 415,55" fill="rgb(255,255,255)" fill-opacity="1.0" stroke="rgb(0,0,0)" stroke-width="2"  />
			<g>
				<title>Peptidase_M16 (PF00675)
"Insulinase (Peptidase family M16)"</title>
				<rect class="PF00675" x="416" y="28" stroke-linejoin="round" width="13" height="24" fill="rgb(70,225,127)" stroke="rgb(56,180,101)" stroke-width="1" opacity="0.75" />
			</g>
		</g>
		<g>
			<title> (ctg1_1152)</title>
			<polygon class=" (ctg1_1152)" points="575,25 524,25 524,10 494,40 524,70 524,55 575,55" fill="rgb(255,255,255)" fill-opacity="1.0" stroke="rgb(0,0,0)" stroke-width="2"  />
			<g>
				<title>PQQ (PF01011)
"PQQ enzyme repeat"</title>
				<polygon class="PF01011" points="498,40 500,38 500,42" stroke-linejoin="round" width="3" height="24" fill="rgb(223,77,129)" stroke="rgb(178,61,103)" stroke-width="1" opacity="0.75" />
			</g>
			<g>
				<title>PQQ (PF01011)
"PQQ enzyme repeat"</title>
				<rect class="PF01011" x="526" y="28" stroke-linejoin="round" width="3" height="24" fill="rgb(223,77,129)" stroke="rgb(178,61,103)" stroke-width="1" opacity="0.75" />
			</g>
			<g>
				<title>PQQ (PF01011)
"PQQ enzyme repeat"</title>
				<rect class="PF01011" x="548" y="28" stroke-linejoin="round" width="3" height="24" fill="rgb(223,77,129)" stroke="rgb(178,61,103)" stroke-width="1" opacity="0.75" />
			</g>
		</g>
		<g>
			<title> (ctg1_1153)</title>
			<polygon class=" (ctg1_1153)" points="596,10 602,40 596,70" fill="rgb(255,255,255)" fill-opacity="1.0" stroke="rgb(0,0,0)" stroke-width="2"  />
		</g>
		<g>
			<title> (ctg1_1154)</title>
			<polygon class=" (ctg1_1154)" points="604,40 632,10 632,70" fill="rgb(255,255,255)" fill-opacity="1.0" stroke="rgb(0,0,0)" stroke-width="2"  />
			<g>
				<title>Aldo_ket_red (PF00248)
"Aldo/keto reductase family"</title>
				<polygon class="PF00248" points="608,40 620,28 630,28 630,52 620,52" stroke-linejoin="round" width="26" height="24" fill="rgb(225,205,58)" stroke="rgb(180,164,46)" stroke-width="1" opacity="0.75" />
			</g>
		</g>
		<g>
			<title> (ctg1_1155)</title>
			<polygon class=" (ctg1_1155)" points="638,25 663,25 663,10 693,40 663,70 663,55 638,55" fill="rgb(255,255,255)" fill-opacity="1.0" stroke="rgb(0,0,0)" stroke-width="2"  />
			<g>
				<title>TarH (PF02203)
"Tar ligand binding domain homologue"</title>
				<rect class="PF02203" x="638" y="28" stroke-linejoin="round" width="17" height="24" fill="rgb(190,78,86)" stroke="rgb(152,62,68)" stroke-width="1" opacity="0.75" />
			</g>
			<g>
				<title>HAMP (PF00672)
"HAMP domain"</title>
				<rect class="PF00672" x="659" y="28" stroke-linejoin="round" width="5" height="24" fill="rgb(124,89,195)" stroke="rgb(99,71,156)" stroke-width="1" opacity="0.75" />
			</g>
			<g>
				<title>MCPsignal (PF00015)
"Methyl-accepting chemotaxis protein (MCP) signalling domain"</title>
				<polygon class="PF00015" points="670,28 677,28 685,36 685,44 677,52 670,52" stroke-linejoin="round" width="15" height="24" fill="rgb(104,174,223)" stroke="rgb(83,139,178)" stroke-width="1" opacity="0.75" />
			</g>
		</g>
		<g>
			<title> (ctg1_1156)</title>
			<polygon class=" (ctg1_1156)" points="694,40 712,10 712,70" fill="rgb(255,255,255)" fill-opacity="1.0" stroke="rgb(0,0,0)" stroke-width="2"  />
			<g>
				<title>Smr (PF01713)
"Smr domain"</title>
				<polygon class="PF01713" points="698,40 703,32 703,48" stroke-linejoin="round" width="8" height="24" fill="rgb(183,72,146)" stroke="rgb(146,57,116)" stroke-width="1" opacity="0.75" />
			</g>
		</g>
	</g>
</svg>
