<svg version="1.1" baseProfile="full" xmlns="http://www.w3.org/2000/svg" width="382.53333333333336" height="80">
	<g>
		<line x1="10" y1="40.0" x2="372.53333333333336" y2="40.0" style="stroke:rgb(70,70,70); stroke-width:3 "/>
		<g>
			<title> (ctg3_178)</title>
			<polygon class=" (ctg3_178)" points="106,40 125,10 125,70" fill="rgb(255,255,255)" fill-opacity="1.0" stroke="rgb(0,0,0)" stroke-width="2"  />
			<g>
				<title>RNase_T (PF00929)
"Exonuclease"</title>
				<polygon class="PF00929" points="110,40 118,28 124,28 124,52 118,52" stroke-linejoin="round" width="17" height="24" fill="rgb(201,87,120)" stroke="rgb(160,69,96)" stroke-width="1" opacity="0.75" />
			</g>
		</g>
		<g>
			<title> (ctg3_179)</title>
			<polygon class=" (ctg3_179)" points="133,40 150,10 150,70" fill="rgb(255,255,255)" fill-opacity="1.0" stroke="rgb(0,0,0)" stroke-width="2"  />
			<g>
				<title>DoxX (PF07681)
"DoxX"</title>
				<polygon class="PF07681" points="139,35 143,28 147,28 147,52 143,52 139,45" stroke-linejoin="round" width="8" height="24" fill="rgb(93,188,216)" stroke="rgb(74,150,172)" stroke-width="1" opacity="0.75" />
			</g>
		</g>
		<g>
			<title> (ctg3_180)</title>
			<polygon class=" (ctg3_180)" points="151,40 176,10 176,70" fill="rgb(255,255,255)" fill-opacity="1.0" stroke="rgb(0,0,0)" stroke-width="2"  />
			<g>
				<title>DUF2063 (PF09836)
"Putative DNA-binding domain"</title>
				<rect class="PF09836" x="166" y="28" stroke-linejoin="round" width="8" height="24" fill="rgb(88,194,190)" stroke="rgb(70,155,152)" stroke-width="1" opacity="0.75" />
			</g>
		</g>
		<g>
			<title> (ctg3_181)</title>
			<polygon class=" (ctg3_181)" points="176,40 205,10 205,70" fill="rgb(255,255,255)" fill-opacity="1.0" stroke="rgb(0,0,0)" stroke-width="2"  />
			<g>
				<title>DUF692 (PF05114)
"Protein of unknown function (DUF692)"</title>
				<polygon class="PF05114" points="180,40 192,28 202,28 202,52 192,52" stroke-linejoin="round" width="26" height="24" fill="rgb(63,196,127)" stroke="rgb(50,156,101)" stroke-width="1" opacity="0.75" />
			</g>
		</g>
		<g>
			<title> (ctg3_182)</title>
			<polygon class=" (ctg3_182)" points="205,40 216,10 216,70" fill="rgb(255,255,255)" fill-opacity="1.0" stroke="rgb(0,0,0)" stroke-width="2"  />
		</g>
		<g>
			<title> (ctg3_183)</title>
			<polygon class=" (ctg3_183)" points="225,40 248,10 248,70" fill="rgb(255,255,255)" fill-opacity="1.0" stroke="rgb(0,0,0)" stroke-width="2"  />
			<g>
				<title>PhoU (PF01895)
"PhoU domain"</title>
				<polygon class="PF01895" points="229,40 235,32 235,48" stroke-linejoin="round" width="8" height="24" fill="rgb(88,153,182)" stroke="rgb(70,122,145)" stroke-width="1" opacity="0.75" />
			</g>
			<g>
				<title>PhoU (PF01895)
"PhoU domain"</title>
				<polygon class="PF01895" points="237,30 238,28 245,28 245,52 238,52 237,50" stroke-linejoin="round" width="8" height="24" fill="rgb(88,153,182)" stroke="rgb(70,122,145)" stroke-width="1" opacity="0.75" />
			</g>
		</g>
		<g>
			<title> (ctg3_184)</title>
			<polygon class=" (ctg3_184)" points="252,40 279,10 279,70" fill="rgb(255,255,255)" fill-opacity="1.0" stroke="rgb(0,0,0)" stroke-width="2"  />
			<g>
				<title>ABC_tran (PF00005)
"ABC transporter"</title>
				<polygon class="PF00005" points="259,37 267,28 274,28 274,52 267,52 259,43" stroke-linejoin="round" width="15" height="24" fill="rgb(129,201,63)" stroke="rgb(103,160,50)" stroke-width="1" opacity="0.75" />
			</g>
		</g>
		<g>
			<title> (ctg3_185)</title>
			<polygon class=" (ctg3_185)" points="281,40 309,10 309,70" fill="rgb(255,255,255)" fill-opacity="1.0" stroke="rgb(0,0,0)" stroke-width="2"  />
			<g>
				<title>BPD_transp_1 (PF00528)
"Binding-protein-dependent transport system inner membrane component"</title>
				<polygon class="PF00528" points="285,40 297,28 300,28 300,52 297,52" stroke-linejoin="round" width="19" height="24" fill="rgb(77,208,225)" stroke="rgb(61,166,180)" stroke-width="1" opacity="0.75" />
			</g>
		</g>
		<g>
			<title> (ctg3_186)</title>
			<polygon class=" (ctg3_186)" points="341,25 339,25 339,10 309,40 339,70 339,55 341,55" fill="rgb(255,255,255)" fill-opacity="1.0" stroke="rgb(0,0,0)" stroke-width="2"  />
			<g>
				<title>BPD_transp_1 (PF00528)
"Binding-protein-dependent transport system inner membrane component"</title>
				<polygon class="PF00528" points="313,40 325,28 331,28 331,52 325,52" stroke-linejoin="round" width="22" height="24" fill="rgb(77,208,225)" stroke="rgb(61,166,180)" stroke-width="1" opacity="0.75" />
			</g>
		</g>
	</g>
</svg>
