<svg version="1.1" baseProfile="full" xmlns="http://www.w3.org/2000/svg" width="381.3333333333333" height="80">
	<g>
		<line x1="10" y1="40.0" x2="371.3333333333333" y2="40.0" style="stroke:rgb(70,70,70); stroke-width:3 "/>
		<g>
			<title> (ctg5_336)</title>
			<polygon class=" (ctg5_336)" points="28,40 49,10 49,70" fill="rgb(255,255,255)" fill-opacity="1.0" stroke="rgb(0,0,0)" stroke-width="2"  />
		</g>
		<g>
			<title> (ctg5_337)</title>
			<polygon class=" (ctg5_337)" points="52,40 77,10 77,70" fill="rgb(255,255,255)" fill-opacity="1.0" stroke="rgb(0,0,0)" stroke-width="2"  />
			<g>
				<title>DUF2092 (PF09865)
"Predicted periplasmic protein (DUF2092)"</title>
				<polygon class="PF09865" points="56,40 66,28 74,28 74,52 66,52" stroke-linejoin="round" width="21" height="24" fill="rgb(178,95,74)" stroke="rgb(142,76,59)" stroke-width="1" opacity="0.75" />
			</g>
		</g>
		<g>
			<title> (ctg5_338)</title>
			<polygon class=" (ctg5_338)" points="82,10 111,40 82,70" fill="rgb(255,255,255)" fill-opacity="1.0" stroke="rgb(0,0,0)" stroke-width="2"  />
			<g>
				<title>Abhydrolase_1 (PF00561)
"alpha/beta hydrolase fold"</title>
				<polygon class="PF00561" points="84,28 95,28 107,40 95,52 84,52" stroke-linejoin="round" width="25" height="24" fill="rgb(86,180,151)" stroke="rgb(68,144,120)" stroke-width="1" opacity="0.75" />
			</g>
		</g>
		<g>
			<title> (ctg5_339)</title>
			<polygon class=" (ctg5_339)" points="110,10 133,40 110,70" fill="rgb(255,255,255)" fill-opacity="1.0" stroke="rgb(0,0,0)" stroke-width="2"  />
			<g>
				<title>Chalcone_3 (PF16036)
"Chalcone isomerase-like"</title>
				<polygon class="PF16036" points="116,28 120,28 129,40 120,52 116,52" stroke-linejoin="round" width="15" height="24" fill="rgb(224,132,63)" stroke="rgb(179,105,50)" stroke-width="1" opacity="0.75" />
			</g>
		</g>
		<g>
			<title> (ctg5_340)</title>
			<polygon class=" (ctg5_340)" points="134,40 149,10 149,70" fill="rgb(255,255,255)" fill-opacity="1.0" stroke="rgb(0,0,0)" stroke-width="2"  />
			<g>
				<title>DoxX (PF07681)
"DoxX"</title>
				<polygon class="PF07681" points="137,40 143,28 145,28 145,52 143,52 137,40" stroke-linejoin="round" width="8" height="24" fill="rgb(93,188,216)" stroke="rgb(74,150,172)" stroke-width="1" opacity="0.75" />
			</g>
		</g>
		<g>
			<title> (ctg5_341)</title>
			<polygon class=" (ctg5_341)" points="150,40 176,10 176,70" fill="rgb(255,255,255)" fill-opacity="1.0" stroke="rgb(0,0,0)" stroke-width="2"  />
			<g>
				<title>DUF2063 (PF09836)
"Putative DNA-binding domain"</title>
				<rect class="PF09836" x="166" y="28" stroke-linejoin="round" width="9" height="24" fill="rgb(88,194,190)" stroke="rgb(70,155,152)" stroke-width="1" opacity="0.75" />
			</g>
		</g>
		<g>
			<title> (ctg5_342)</title>
			<polygon class=" (ctg5_342)" points="176,40 204,10 204,70" fill="rgb(255,255,255)" fill-opacity="1.0" stroke="rgb(0,0,0)" stroke-width="2"  />
			<g>
				<title>DUF692 (PF05114)
"Protein of unknown function (DUF692)"</title>
				<polygon class="PF05114" points="180,40 191,28 202,28 202,52 191,52" stroke-linejoin="round" width="26" height="24" fill="rgb(63,196,127)" stroke="rgb(50,156,101)" stroke-width="1" opacity="0.75" />
			</g>
		</g>
		<g>
			<title> (ctg5_343)</title>
			<polygon class=" (ctg5_343)" points="205,40 214,10 214,70" fill="rgb(255,255,255)" fill-opacity="1.0" stroke="rgb(0,0,0)" stroke-width="2"  />
			<g>
				<title>DUF2282 (PF10048)
"Predicted integral membrane protein (DUF2282)"</title>
				<polygon class="PF10048" points="208,40 210,33 210,47" stroke-linejoin="round" width="5" height="24" fill="rgb(58,205,168)" stroke="rgb(46,164,134)" stroke-width="1" opacity="0.75" />
			</g>
		</g>
		<g>
			<title> (ctg5_344)</title>
			<polygon class=" (ctg5_344)" points="221,10 239,40 221,70" fill="rgb(255,255,255)" fill-opacity="1.0" stroke="rgb(0,0,0)" stroke-width="2"  />
			<g>
				<title>Sigma70_r2 (PF04542)
"Sigma-70 region 2"</title>
				<polygon class="PF04542" points="224,28 228,28 231,32 231,48 228,52 224,52" stroke-linejoin="round" width="7" height="24" fill="rgb(184,59,197)" stroke="rgb(147,47,157)" stroke-width="1" opacity="0.75" />
			</g>
			<g>
				<title>Sigma70_r4_2 (PF08281)
"Sigma-70, region 4"</title>
				<polygon class="PF08281" points="233,35 236,40 233,45" stroke-linejoin="round" width="5" height="24" fill="rgb(222,103,144)" stroke="rgb(177,82,115)" stroke-width="1" opacity="0.75" />
			</g>
		</g>
		<g>
			<title> (ctg5_345)</title>
			<polygon class=" (ctg5_345)" points="239,10 260,40 239,70" fill="rgb(255,255,255)" fill-opacity="1.0" stroke="rgb(0,0,0)" stroke-width="2"  />
			<g>
				<title>NrsF (PF06532)
"Negative regulator of sigma F"</title>
				<polygon class="PF06532" points="240,28 248,28 256,40 248,52 240,52" stroke-linejoin="round" width="20" height="24" fill="rgb(100,222,119)" stroke="rgb(80,177,95)" stroke-width="1" opacity="0.75" />
			</g>
		</g>
		<g>
			<title> (ctg5_346)</title>
			<polygon class=" (ctg5_346)" points="263,10 283,40 263,70" fill="rgb(255,255,255)" fill-opacity="1.0" stroke="rgb(0,0,0)" stroke-width="2"  />
			<g>
				<title>Flavin_Reduct (PF01613)
"Flavin reductase like domain"</title>
				<polygon class="PF01613" points="264,28 271,28 279,40 279,40 271,52 264,52" stroke-linejoin="round" width="15" height="24" fill="rgb(107,197,222)" stroke="rgb(85,157,177)" stroke-width="1" opacity="0.75" />
			</g>
		</g>
		<g>
			<title> (ctg5_347)</title>
			<polygon class=" (ctg5_347)" points="342,25 319,25 319,10 289,40 319,70 319,55 342,55" fill="rgb(255,255,255)" fill-opacity="1.0" stroke="rgb(0,0,0)" stroke-width="2"  />
			<g>
				<title>Mqo (PF06039)
"Malate:quinone oxidoreductase (Mqo)"</title>
				<polygon class="PF06039" points="293,40 305,28 338,28 338,52 305,52" stroke-linejoin="round" width="48" height="24" fill="rgb(73,180,113)" stroke="rgb(58,144,90)" stroke-width="1" opacity="0.75" />
			</g>
		</g>
	</g>
</svg>
