<svg version="1.1" baseProfile="full" xmlns="http://www.w3.org/2000/svg" width="803.5666666666667" height="80">
	<g>
		<line x1="10" y1="40.0" x2="793.5666666666667" y2="40.0" style="stroke:rgb(70,70,70); stroke-width:3 "/>
		<g>
			<title> (ctg1_493)</title>
			<polygon class=" (ctg1_493)" points="33,10 58,40 33,70" fill="rgb(255,255,255)" fill-opacity="1.0" stroke="rgb(0,0,0)" stroke-width="2"  />
			<g>
				<title>Trp_syntA (PF00290)
"Tryptophan synthase alpha chain"</title>
				<polygon class="PF00290" points="33,28 45,28 54,40 45,52 33,52" stroke-linejoin="round" width="25" height="24" fill="rgb(101,209,118)" stroke="rgb(80,167,94)" stroke-width="1" opacity="0.75" />
			</g>
		</g>
		<g>
			<title> (ctg1_494)</title>
			<polygon class=" (ctg1_494)" points="61,10 73,40 61,70" fill="rgb(255,255,255)" fill-opacity="1.0" stroke="rgb(0,0,0)" stroke-width="2"  />
		</g>
		<g>
			<title> (ctg1_495)</title>
			<polygon class=" (ctg1_495)" points="73,10 77,40 73,70" fill="rgb(255,255,255)" fill-opacity="1.0" stroke="rgb(0,0,0)" stroke-width="2"  />
		</g>
		<g>
			<title> (ctg1_496)</title>
			<polygon class=" (ctg1_496)" points="77,25 97,25 97,10 127,40 97,70 97,55 77,55" fill="rgb(255,255,255)" fill-opacity="1.0" stroke="rgb(0,0,0)" stroke-width="2"  />
			<g>
				<title>Lactate_perm (PF02652)
"L-lactate permease"</title>
				<polygon class="PF02652" points="77,28 110,28 122,40 110,52 77,52" stroke-linejoin="round" width="49" height="24" fill="rgb(61,117,189)" stroke="rgb(48,93,151)" stroke-width="1" opacity="0.75" />
			</g>
		</g>
		<g>
			<title> (ctg1_497)</title>
			<polygon class=" (ctg1_497)" points="130,10 152,40 130,70" fill="rgb(255,255,255)" fill-opacity="1.0" stroke="rgb(0,0,0)" stroke-width="2"  />
			<g>
				<title>DUF2278 (PF10042)
"Uncharacterized conserved protein (DUF2278)"</title>
				<polygon class="PF10042" points="130,28 140,28 149,40 140,52 130,52" stroke-linejoin="round" width="21" height="24" fill="rgb(102,216,88)" stroke="rgb(81,172,70)" stroke-width="1" opacity="0.75" />
			</g>
		</g>
		<g>
			<title> (ctg1_498)</title>
			<polygon class=" (ctg1_498)" points="153,40 180,10 180,70" fill="rgb(255,255,255)" fill-opacity="1.0" stroke="rgb(0,0,0)" stroke-width="2"  />
		</g>
		<g>
			<title> (ctg1_499)</title>
			<polygon class=" (ctg1_499)" points="188,10 214,40 188,70" fill="rgb(255,255,255)" fill-opacity="1.0" stroke="rgb(0,0,0)" stroke-width="2"  />
			<g>
				<title>zinc_ribbon_2 (PF13240)
"zinc-ribbon domain"</title>
				<rect class="PF13240" x="188" y="28" stroke-linejoin="round" width="2" height="24" fill="rgb(189,93,142)" stroke="rgb(151,74,113)" stroke-width="1" opacity="0.75" />
			</g>
		</g>
		<g>
			<title> (ctg1_500)</title>
			<polygon class=" (ctg1_500)" points="215,10 241,40 215,70" fill="rgb(255,255,255)" fill-opacity="1.0" stroke="rgb(0,0,0)" stroke-width="2"  />
			<g>
				<title>zinc_ribbon_2 (PF13240)
"zinc-ribbon domain"</title>
				<rect class="PF13240" x="215" y="28" stroke-linejoin="round" width="2" height="24" fill="rgb(189,93,142)" stroke="rgb(151,74,113)" stroke-width="1" opacity="0.75" />
			</g>
		</g>
		<g>
			<title> (ctg1_501)</title>
			<polygon class=" (ctg1_501)" points="257,40 271,10 271,70" fill="rgb(255,255,255)" fill-opacity="1.0" stroke="rgb(0,0,0)" stroke-width="2"  />
		</g>
		<g>
			<title> (ctg1_502)</title>
			<polygon class=" (ctg1_502)" points="278,25 292,25 292,10 322,40 292,70 292,55 278,55" fill="rgb(255,255,255)" fill-opacity="1.0" stroke="rgb(0,0,0)" stroke-width="2"  />
			<g>
				<title>Pyr_redox_2 (PF07992)
"Pyridine nucleotide-disulphide oxidoreductase"</title>
				<polygon class="PF07992" points="278,28 306,28 308,30 308,50 306,52 278,52" stroke-linejoin="round" width="30" height="24" fill="rgb(83,223,167)" stroke="rgb(66,178,133)" stroke-width="1" opacity="0.75" />
			</g>
			<g>
				<title>Pyr_redox_dim (PF02852)
"Pyridine nucleotide-disulphide oxidoreductase, dimerisation domain"</title>
				<polygon class="PF02852" points="310,32 318,40 310,48" stroke-linejoin="round" width="10" height="24" fill="rgb(191,148,67)" stroke="rgb(152,118,53)" stroke-width="1" opacity="0.75" />
			</g>
		</g>
		<g>
			<title> (ctg1_503)</title>
			<polygon class=" (ctg1_503)" points="328,10 341,40 328,70" fill="rgb(255,255,255)" fill-opacity="1.0" stroke="rgb(0,0,0)" stroke-width="2"  />
			<g>
				<title>DUF3908 (PF13048)
"Protein of unknown function (DUF3908)"</title>
				<polygon class="PF13048" points="328,28 332,28 338,40 332,52 328,52" stroke-linejoin="round" width="12" height="24" fill="rgb(103,101,215)" stroke="rgb(82,80,172)" stroke-width="1" opacity="0.75" />
			</g>
		</g>
		<g>
			<title> (ctg1_504)</title>
			<polygon class=" (ctg1_504)" points="394,25 373,25 373,10 343,40 373,70 373,55 394,55" fill="rgb(255,255,255)" fill-opacity="1.0" stroke="rgb(0,0,0)" stroke-width="2"  />
			<g>
				<title>Nitroreductase (PF00881)
"Nitroreductase family"</title>
				<polygon class="PF00881" points="347,40 359,28 365,28 365,52 359,52" stroke-linejoin="round" width="21" height="24" fill="rgb(79,118,187)" stroke="rgb(63,94,149)" stroke-width="1" opacity="0.75" />
			</g>
		</g>
		<g>
			<title> (ctg1_505)</title>
			<polygon class=" (ctg1_505)" points="460,25 425,25 425,10 395,40 425,70 425,55 460,55" fill="rgb(255,255,255)" fill-opacity="1.0" stroke="rgb(0,0,0)" stroke-width="2"  />
			<g>
				<title>YcaO (PF02624)
"YcaO cyclodehydratase, ATP-ad Mg2+-binding"</title>
				<polygon class="PF02624" points="399,40 411,28 433,28 433,52 411,52 399,40" stroke-linejoin="round" width="34" height="24" fill="rgb(76,84,185)" stroke="rgb(60,67,148)" stroke-width="1" opacity="0.75" />
			</g>
		</g>
		<g>
			<title> (ctg1_506)</title>
			<polygon class=" (ctg1_506)" points="524,25 490,25 490,10 460,40 490,70 490,55 524,55" fill="rgb(255,255,255)" fill-opacity="1.0" stroke="rgb(0,0,0)" stroke-width="2"  />
		</g>
		<g>
			<title> (ctg1_507)</title>
			<polygon class=" (ctg1_507)" points="570,25 558,25 558,10 528,40 558,70 558,55 570,55" fill="rgb(255,255,255)" fill-opacity="1.0" stroke="rgb(0,0,0)" stroke-width="2"  />
			<g>
				<title>2-oxoacid_dh (PF00198)
"2-oxoacid dehydrogenases acyltransferase (catalytic domain)"</title>
				<polygon class="PF00198" points="532,40 544,28 551,28 551,52 544,52" stroke-linejoin="round" width="23" height="24" fill="rgb(204,74,202)" stroke="rgb(163,59,161)" stroke-width="1" opacity="0.75" />
			</g>
			<g>
				<title>E3_binding (PF02817)
"e3 binding domain"</title>
				<rect class="PF02817" x="554" y="28" stroke-linejoin="round" width="3" height="24" fill="rgb(217,136,99)" stroke="rgb(173,108,79)" stroke-width="1" opacity="0.75" />
			</g>
			<g>
				<title>Biotin_lipoyl (PF00364)
"Biotin-requiring enzyme"</title>
				<rect class="PF00364" x="562" y="28" stroke-linejoin="round" width="7" height="24" fill="rgb(67,214,213)" stroke="rgb(53,171,170)" stroke-width="1" opacity="0.75" />
			</g>
		</g>
		<g>
			<title> (ctg1_508)</title>
			<polygon class=" (ctg1_508)" points="669,25 604,25 604,10 574,40 604,70 604,55 669,55" fill="rgb(255,255,255)" fill-opacity="1.0" stroke="rgb(0,0,0)" stroke-width="2"  />
			<g>
				<title>OxoGdeHyase_C (PF16870)
"2-oxoglutarate dehydrogenase C-terminal"</title>
				<polygon class="PF16870" points="578,40 589,29 589,51" stroke-linejoin="round" width="14" height="24" fill="rgb(176,82,224)" stroke="rgb(140,65,179)" stroke-width="1" opacity="0.75" />
			</g>
			<g>
				<title>Transket_pyr (PF02779)
"Transketolase, pyrimidine binding domain"</title>
				<polygon class="PF02779" points="590,28 590,28 609,28 609,52 590,52 590,52" stroke-linejoin="round" width="19" height="24" fill="rgb(189,186,84)" stroke="rgb(151,148,67)" stroke-width="1" opacity="0.75" />
			</g>
			<g>
				<title>E1_dh (PF00676)
"Dehydrogenase E1 component"</title>
				<rect class="PF00676" x="616" y="28" stroke-linejoin="round" width="33" height="24" fill="rgb(180,115,48)" stroke="rgb(144,92,38)" stroke-width="1" opacity="0.75" />
			</g>
		</g>
		<g>
			<title> (ctg1_509)</title>
			<polygon class=" (ctg1_509)" points="698,10 704,40 698,70" fill="rgb(255,255,255)" fill-opacity="1.0" stroke="rgb(0,0,0)" stroke-width="2"  />
			<g>
				<title>HTH_3 (PF01381)
"Helix-turn-helix"</title>
				<polygon class="PF01381" points="698,28 698,28 701,40 698,52 698,52" stroke-linejoin="round" width="5" height="24" fill="rgb(105,79,202)" stroke="rgb(83,63,161)" stroke-width="1" opacity="0.75" />
			</g>
		</g>
		<g>
			<title> (ctg1_510)</title>
			<polygon class=" (ctg1_510)" points="704,10 716,40 704,70" fill="rgb(255,255,255)" fill-opacity="1.0" stroke="rgb(0,0,0)" stroke-width="2"  />
		</g>
		<g>
			<title> (ctg1_511)</title>
			<polygon class=" (ctg1_511)" points="718,10 724,40 718,70" fill="rgb(255,255,255)" fill-opacity="1.0" stroke="rgb(0,0,0)" stroke-width="2"  />
			<g>
				<title>DUF3976 (PF13121)
"Domain of unknown function (DUF3976)"</title>
				<polygon class="PF13121" points="719,30 721,40 719,50" stroke-linejoin="round" width="3" height="24" fill="rgb(208,169,56)" stroke="rgb(166,135,44)" stroke-width="1" opacity="0.75" />
			</g>
		</g>
		<g>
			<title> (ctg1_512)</title>
			<polygon class=" (ctg1_512)" points="728,10 740,40 728,70" fill="rgb(255,255,255)" fill-opacity="1.0" stroke="rgb(0,0,0)" stroke-width="2"  />
		</g>
		<g>
			<title> (ctg1_513)</title>
			<polygon class=" (ctg1_513)" points="752,10 758,40 752,70" fill="rgb(255,255,255)" fill-opacity="1.0" stroke="rgb(0,0,0)" stroke-width="2"  />
		</g>
		<g>
			<title> (ctg1_514)</title>
			<polygon class=" (ctg1_514)" points="761,10 769,40 761,70" fill="rgb(255,255,255)" fill-opacity="1.0" stroke="rgb(0,0,0)" stroke-width="2"  />
		</g>
	</g>
</svg>
