<svg version="1.1" baseProfile="full" xmlns="http://www.w3.org/2000/svg" width="441.03333333333336" height="80">
	<g>
		<line x1="10" y1="40.0" x2="431.03333333333336" y2="40.0" style="stroke:rgb(70,70,70); stroke-width:3 "/>
		<g>
			<title> (ctg1_1)</title>
			<polygon class=" (ctg1_1)" points="81,25 46,25 46,10 16,40 46,70 46,55 81,55" fill="rgb(255,255,255)" fill-opacity="1.0" stroke="rgb(0,0,0)" stroke-width="2"  />
			<g>
				<title>Guanylate_cyc (PF00211)
"Adenylate and Guanylate cyclase catalytic domain"</title>
				<polygon class="PF00211" points="20,40 32,28 34,28 34,52 32,52" stroke-linejoin="round" width="18" height="24" fill="rgb(195,180,69)" stroke="rgb(156,144,55)" stroke-width="1" opacity="0.75" />
			</g>
			<g>
				<title>TPR_12 (PF13424)
"Tetratricopeptide repeat"</title>
				<rect class="PF13424" x="54" y="28" stroke-linejoin="round" width="7" height="24" fill="rgb(147,215,101)" stroke="rgb(117,172,80)" stroke-width="1" opacity="0.75" />
			</g>
			<g>
				<title>TPR_12 (PF13424)
"Tetratricopeptide repeat"</title>
				<rect class="PF13424" x="62" y="28" stroke-linejoin="round" width="7" height="24" fill="rgb(147,215,101)" stroke="rgb(117,172,80)" stroke-width="1" opacity="0.75" />
			</g>
			<g>
				<title>TPR_10 (PF13374)
"Tetratricopeptide repeat"</title>
				<rect class="PF13374" x="70" y="28" stroke-linejoin="round" width="3" height="24" fill="rgb(211,98,167)" stroke="rgb(168,78,133)" stroke-width="1" opacity="0.75" />
			</g>
		</g>
		<g>
			<title> (ctg1_2)</title>
			<polygon class=" (ctg1_2)" points="86,40 97,10 97,70" fill="rgb(255,255,255)" fill-opacity="1.0" stroke="rgb(0,0,0)" stroke-width="2"  />
		</g>
		<g>
			<title> (ctg1_3)</title>
			<polygon class=" (ctg1_3)" points="130,10 142,40 130,70" fill="rgb(255,255,255)" fill-opacity="1.0" stroke="rgb(0,0,0)" stroke-width="2"  />
			<g>
				<title>DUF3127 (PF11325)
"Domain of unknown function (DUF3127)"</title>
				<polygon class="PF11325" points="130,28 134,28 138,37 138,43 134,52 130,52" stroke-linejoin="round" width="8" height="24" fill="rgb(65,159,209)" stroke="rgb(52,127,167)" stroke-width="1" opacity="0.75" />
			</g>
		</g>
		<g>
			<title> (ctg1_4)</title>
			<polygon class=" (ctg1_4)" points="145,10 166,40 145,70" fill="rgb(255,255,255)" fill-opacity="1.0" stroke="rgb(0,0,0)" stroke-width="2"  />
			<g>
				<title>Leu_Phe_trans (PF03588)
"Leucyl/phenylalanyl-tRNA protein transferase"</title>
				<polygon class="PF03588" points="148,28 154,28 163,40 154,52 148,52" stroke-linejoin="round" width="17" height="24" fill="rgb(67,220,156)" stroke="rgb(53,176,124)" stroke-width="1" opacity="0.75" />
			</g>
		</g>
		<g>
			<title> (ctg1_5)</title>
			<polygon class=" (ctg1_5)" points="166,10 195,40 166,70" fill="rgb(255,255,255)" fill-opacity="1.0" stroke="rgb(0,0,0)" stroke-width="2"  />
			<g>
				<title>EamA (PF00892)
"EamA-like transporter family"</title>
				<rect class="PF00892" x="166" y="28" stroke-linejoin="round" width="13" height="24" fill="rgb(105,217,77)" stroke="rgb(84,173,61)" stroke-width="1" opacity="0.75" />
			</g>
			<g>
				<title>EamA (PF00892)
"EamA-like transporter family"</title>
				<polygon class="PF00892" points="180,29 191,40 180,51" stroke-linejoin="round" width="14" height="24" fill="rgb(105,217,77)" stroke="rgb(84,173,61)" stroke-width="1" opacity="0.75" />
			</g>
		</g>
		<g>
			<title> (ctg1_6)</title>
			<polygon class=" (ctg1_6)" points="197,10 225,40 197,70" fill="rgb(255,255,255)" fill-opacity="1.0" stroke="rgb(0,0,0)" stroke-width="2"  />
		</g>
		<g>
			<title> (ctg1_7)</title>
			<polygon class=" (ctg1_7)" points="271,25 257,25 257,10 227,40 257,70 257,55 271,55" fill="rgb(255,255,255)" fill-opacity="1.0" stroke="rgb(0,0,0)" stroke-width="2"  />
			<g>
				<title>TPR_15 (PF13429)
"Tetratricopeptide repeat"</title>
				<polygon class="PF13429" points="232,39 243,28 246,28 246,52 243,52 232,41" stroke-linejoin="round" width="14" height="24" fill="rgb(193,63,51)" stroke="rgb(154,50,40)" stroke-width="1" opacity="0.75" />
			</g>
			<g>
				<title>ANAPC3 (PF12895)
"Anaphase-promoting complex, cyclosome, subunit 3"</title>
				<rect class="PF12895" x="247" y="28" stroke-linejoin="round" width="7" height="24" fill="rgb(158,66,183)" stroke="rgb(126,52,146)" stroke-width="1" opacity="0.75" />
			</g>
			<g>
				<title>TPR_8 (PF13181)
"Tetratricopeptide repeat"</title>
				<rect class="PF13181" x="260" y="28" stroke-linejoin="round" width="2" height="24" fill="rgb(182,172,47)" stroke="rgb(145,137,37)" stroke-width="1" opacity="0.75" />
			</g>
		</g>
		<g>
			<title> (ctg1_8)</title>
			<polygon class=" (ctg1_8)" points="312,25 310,25 310,10 280,40 310,70 310,55 312,55" fill="rgb(255,255,255)" fill-opacity="1.0" stroke="rgb(0,0,0)" stroke-width="2"  />
			<g>
				<title>ADH_zinc_N (PF00107)
"Zinc-binding dehydrogenase"</title>
				<polygon class="PF00107" points="284,40 296,28 297,28 297,52 296,52 284,40" stroke-linejoin="round" width="13" height="24" fill="rgb(81,108,215)" stroke="rgb(64,86,172)" stroke-width="1" opacity="0.75" />
			</g>
		</g>
		<g>
			<title> (ctg1_9)</title>
			<polygon class=" (ctg1_9)" points="321,40 340,10 340,70" fill="rgb(255,255,255)" fill-opacity="1.0" stroke="rgb(0,0,0)" stroke-width="2"  />
			<g>
				<title>cNMP_binding (PF00027)
"Cyclic nucleotide-binding domain"</title>
				<polygon class="PF00027" points="329,34 333,28 337,28 337,52 333,52 329,46" stroke-linejoin="round" width="8" height="24" fill="rgb(138,95,204)" stroke="rgb(110,76,163)" stroke-width="1" opacity="0.75" />
			</g>
		</g>
		<g>
			<title> (ctg1_10)</title>
			<polygon class=" (ctg1_10)" points="388,25 372,25 372,10 342,40 372,70 372,55 388,55" fill="rgb(255,255,255)" fill-opacity="1.0" stroke="rgb(0,0,0)" stroke-width="2"  />
			<g>
				<title>PGM_PMM_IV (PF00408)
"Phosphoglucomutase/phosphomannomutase, C-terminal domain"</title>
				<polygon class="PF00408" points="346,40 349,37 349,43" stroke-linejoin="round" width="7" height="24" fill="rgb(74,205,143)" stroke="rgb(59,164,114)" stroke-width="1" opacity="0.75" />
			</g>
			<g>
				<title>PGM_PMM_III (PF02880)
"Phosphoglucomutase/phosphomannomutase, alpha/beta/alpha domain III"</title>
				<polygon class="PF02880" points="350,36 358,28 360,28 360,52 358,52 350,44" stroke-linejoin="round" width="10" height="24" fill="rgb(67,204,90)" stroke="rgb(53,163,72)" stroke-width="1" opacity="0.75" />
			</g>
			<g>
				<title>PGM_PMM_II (PF02879)
"Phosphoglucomutase/phosphomannomutase, alpha/beta/alpha domain II"</title>
				<rect class="PF02879" x="361" y="28" stroke-linejoin="round" width="10" height="24" fill="rgb(192,221,60)" stroke="rgb(153,176,48)" stroke-width="1" opacity="0.75" />
			</g>
			<g>
				<title>PGM_PMM_I (PF02878)
"Phosphoglucomutase/phosphomannomutase, alpha/beta/alpha domain I"</title>
				<rect class="PF02878" x="373" y="28" stroke-linejoin="round" width="14" height="24" fill="rgb(217,133,102)" stroke="rgb(173,106,81)" stroke-width="1" opacity="0.75" />
			</g>
		</g>
		<g>
			<title> (ctg1_11)</title>
			<polygon class=" (ctg1_11)" points="423,25 420,25 420,10 390,40 420,70 420,55 423,55" fill="rgb(255,255,255)" fill-opacity="1.0" stroke="rgb(0,0,0)" stroke-width="2"  />
			<g>
				<title>DUF4421 (PF14391)
"Domain of unknown function (DUF4421)"</title>
				<polygon class="PF14391" points="394,40 406,28 421,28 421,52 406,52" stroke-linejoin="round" width="29" height="24" fill="rgb(189,93,169)" stroke="rgb(151,74,135)" stroke-width="1" opacity="0.75" />
			</g>
		</g>
	</g>
</svg>
