<svg version="1.1" baseProfile="full" xmlns="http://www.w3.org/2000/svg" width="697.7666666666667" height="80">
	<g>
		<line x1="10" y1="40.0" x2="687.7666666666667" y2="40.0" style="stroke:rgb(70,70,70); stroke-width:3 "/>
		<g>
			<title> (ctg13_14)</title>
			<polygon class=" (ctg13_14)" points="48,25 61,25 61,10 91,40 61,70 61,55 48,55" fill="rgb(255,255,255)" fill-opacity="1.0" stroke="rgb(0,0,0)" stroke-width="2"  />
			<g>
				<title>Wzy_C (PF04932)
"O-Antigen ligase"</title>
				<polygon class="PF04932" points="69,28 75,28 81,34 81,46 75,52 69,52" stroke-linejoin="round" width="12" height="24" fill="rgb(106,219,107)" stroke="rgb(84,175,85)" stroke-width="1" opacity="0.75" />
			</g>
		</g>
		<g>
			<title> (ctg13_15)</title>
			<polygon class=" (ctg13_15)" points="98,10 118,40 98,70" fill="rgb(255,255,255)" fill-opacity="1.0" stroke="rgb(0,0,0)" stroke-width="2"  />
			<g>
				<title>Ribosomal_L25p (PF01386)
"Ribosomal L25p family"</title>
				<rect class="PF01386" x="98" y="28" stroke-linejoin="round" width="8" height="24" fill="rgb(79,225,110)" stroke="rgb(63,180,88)" stroke-width="1" opacity="0.75" />
			</g>
			<g>
				<title>Ribosomal_TL5_C (PF14693)
"Ribosomal protein TL5, C-terminal domain"</title>
				<polygon class="PF14693" points="108,30 115,40 115,40 108,50" stroke-linejoin="round" width="7" height="24" fill="rgb(228,79,104)" stroke="rgb(182,63,83)" stroke-width="1" opacity="0.75" />
			</g>
		</g>
		<g>
			<title> (ctg13_16)</title>
			<polygon class=" (ctg13_16)" points="119,10 138,40 119,70" fill="rgb(255,255,255)" fill-opacity="1.0" stroke="rgb(0,0,0)" stroke-width="2"  />
			<g>
				<title>Pept_tRNA_hydro (PF01195)
"Peptidyl-tRNA hydrolase"</title>
				<polygon class="PF01195" points="119,28 127,28 134,40 127,52 119,52" stroke-linejoin="round" width="18" height="24" fill="rgb(51,192,198)" stroke="rgb(40,153,158)" stroke-width="1" opacity="0.75" />
			</g>
		</g>
		<g>
			<title> (ctg13_17)</title>
			<polygon class=" (ctg13_17)" points="140,40 159,10 159,70" fill="rgb(255,255,255)" fill-opacity="1.0" stroke="rgb(0,0,0)" stroke-width="2"  />
			<g>
				<title>LMWPc (PF01451)
"Low molecular weight phosphotyrosine protein phosphatase"</title>
				<polygon class="PF01451" points="145,38 152,28 158,28 158,52 152,52 145,42" stroke-linejoin="round" width="13" height="24" fill="rgb(199,53,196)" stroke="rgb(159,42,156)" stroke-width="1" opacity="0.75" />
			</g>
		</g>
		<g>
			<title> (ctg13_18)</title>
			<polygon class=" (ctg13_18)" points="162,40 179,10 179,70" fill="rgb(255,255,255)" fill-opacity="1.0" stroke="rgb(0,0,0)" stroke-width="2"  />
			<g>
				<title>DUF2505 (PF10698)
"Protein of unknown function (DUF2505)"</title>
				<polygon class="PF10698" points="165,40 172,28 179,28 179,52 172,52" stroke-linejoin="round" width="16" height="24" fill="rgb(91,178,222)" stroke="rgb(72,142,177)" stroke-width="1" opacity="0.75" />
			</g>
		</g>
		<g>
			<title> (ctg13_19)</title>
			<polygon class=" (ctg13_19)" points="182,25 191,25 191,10 221,40 191,70 191,55 182,55" fill="rgb(255,255,255)" fill-opacity="1.0" stroke="rgb(0,0,0)" stroke-width="2"  />
			<g>
				<title>MauE (PF07291)
"Methylamine utilisation protein MauE"</title>
				<rect class="PF07291" x="184" y="28" stroke-linejoin="round" width="18" height="24" fill="rgb(177,83,181)" stroke="rgb(141,66,144)" stroke-width="1" opacity="0.75" />
			</g>
		</g>
		<g>
			<title> (ctg13_20)</title>
			<polygon class=" (ctg13_20)" points="221,25 312,25 312,10 342,40 312,70 312,55 221,55" fill="rgb(255,255,255)" fill-opacity="1.0" stroke="rgb(0,0,0)" stroke-width="2"  />
			<g>
				<title>UvrB_inter (PF17757)
"UvrB interaction domain"</title>
				<rect class="PF17757" x="237" y="28" stroke-linejoin="round" width="8" height="24" fill="rgb(222,94,166)" stroke="rgb(177,75,132)" stroke-width="1" opacity="0.75" />
			</g>
			<g>
				<title>CarD_CdnL_TRCF (PF02559)
"CarD-like/TRCF domain"</title>
				<rect class="PF02559" x="274" y="28" stroke-linejoin="round" width="10" height="24" fill="rgb(216,93,82)" stroke="rgb(172,74,65)" stroke-width="1" opacity="0.75" />
			</g>
			<g>
				<title>DEAD (PF00270)
"DEAD/DEAH box helicase"</title>
				<rect class="PF00270" x="288" y="28" stroke-linejoin="round" width="16" height="24" fill="rgb(195,100,62)" stroke="rgb(156,80,49)" stroke-width="1" opacity="0.75" />
			</g>
			<g>
				<title>Helicase_C (PF00271)
"Helicase conserved C-terminal domain"</title>
				<rect class="PF00271" x="307" y="28" stroke-linejoin="round" width="11" height="24" fill="rgb(104,224,158)" stroke="rgb(83,179,126)" stroke-width="1" opacity="0.75" />
			</g>
			<g>
				<title>TRCF (PF03461)
"TRCF domain"</title>
				<polygon class="PF03461" points="328,30 337,39 337,41 328,50" stroke-linejoin="round" width="9" height="24" fill="rgb(60,201,111)" stroke="rgb(48,160,88)" stroke-width="1" opacity="0.75" />
			</g>
		</g>
		<g>
			<title> (ctg13_21)</title>
			<polygon class=" (ctg13_21)" points="343,40 354,10 354,70" fill="rgb(255,255,255)" fill-opacity="1.0" stroke="rgb(0,0,0)" stroke-width="2"  />
		</g>
		<g>
			<title> (ctg13_22)</title>
			<polygon class=" (ctg13_22)" points="391,25 384,25 384,10 354,40 384,70 384,55 391,55" fill="rgb(255,255,255)" fill-opacity="1.0" stroke="rgb(0,0,0)" stroke-width="2"  />
			<g>
				<title>NTP_transf_5 (PF14907)
"Uncharacterised nucleotidyltransferase"</title>
				<polygon class="PF14907" points="363,35 370,28 381,28 381,52 370,52 363,45" stroke-linejoin="round" width="18" height="24" fill="rgb(191,137,74)" stroke="rgb(152,109,59)" stroke-width="1" opacity="0.75" />
			</g>
		</g>
		<g>
			<title> (ctg13_23)</title>
			<polygon class=" (ctg13_23)" points="424,25 423,25 423,10 393,40 423,70 423,55 424,55" fill="rgb(255,255,255)" fill-opacity="1.0" stroke="rgb(0,0,0)" stroke-width="2"  />
			<g>
				<title>LMWPc (PF01451)
"Low molecular weight phosphotyrosine protein phosphatase"</title>
				<polygon class="PF01451" points="398,39 409,28 412,28 412,52 409,52 398,41" stroke-linejoin="round" width="14" height="24" fill="rgb(199,53,196)" stroke="rgb(159,42,156)" stroke-width="1" opacity="0.75" />
			</g>
		</g>
		<g>
			<title> (ctg13_24)</title>
			<polygon class=" (ctg13_24)" points="460,25 455,25 455,10 425,40 455,70 455,55 460,55" fill="rgb(255,255,255)" fill-opacity="1.0" stroke="rgb(0,0,0)" stroke-width="2"  />
			<g>
				<title>Acyl_transf_3 (PF01757)
"Acyltransferase family"</title>
				<polygon class="PF01757" points="429,40 441,28 459,28 459,52 441,52 429,40" stroke-linejoin="round" width="30" height="24" fill="rgb(50,152,200)" stroke="rgb(40,121,160)" stroke-width="1" opacity="0.75" />
			</g>
		</g>
		<g>
			<title> (ctg13_25)</title>
			<polygon class=" (ctg13_25)" points="463,40 473,10 473,70" fill="rgb(255,255,255)" fill-opacity="1.0" stroke="rgb(0,0,0)" stroke-width="2"  />
		</g>
		<g>
			<title> (ctg13_26)</title>
			<polygon class=" (ctg13_26)" points="475,40 498,10 498,70" fill="rgb(255,255,255)" fill-opacity="1.0" stroke="rgb(0,0,0)" stroke-width="2"  />
			<g>
				<title>DeoC (PF01791)
"DeoC/LacD family aldolase"</title>
				<polygon class="PF01791" points="479,40 488,28 496,28 496,52 488,52" stroke-linejoin="round" width="21" height="24" fill="rgb(151,59,198)" stroke="rgb(120,47,158)" stroke-width="1" opacity="0.75" />
			</g>
		</g>
		<g>
			<title> (ctg13_27)</title>
			<polygon class=" (ctg13_27)" points="556,25 529,25 529,10 499,40 529,70 529,55 556,55" fill="rgb(255,255,255)" fill-opacity="1.0" stroke="rgb(0,0,0)" stroke-width="2"  />
			<g>
				<title>PGM_PMM_IV (PF00408)
"Phosphoglucomutase/phosphomannomutase, C-terminal domain"</title>
				<polygon class="PF00408" points="503,40 508,35 508,45" stroke-linejoin="round" width="9" height="24" fill="rgb(74,205,143)" stroke="rgb(59,164,114)" stroke-width="1" opacity="0.75" />
			</g>
			<g>
				<title>PGM_PMM_III (PF02880)
"Phosphoglucomutase/phosphomannomutase, alpha/beta/alpha domain III"</title>
				<polygon class="PF02880" points="510,33 515,28 521,28 521,52 515,52 510,47" stroke-linejoin="round" width="11" height="24" fill="rgb(67,204,90)" stroke="rgb(53,163,72)" stroke-width="1" opacity="0.75" />
			</g>
			<g>
				<title>PGM_PMM_II (PF02879)
"Phosphoglucomutase/phosphomannomutase, alpha/beta/alpha domain II"</title>
				<rect class="PF02879" x="522" y="28" stroke-linejoin="round" width="11" height="24" fill="rgb(192,221,60)" stroke="rgb(153,176,48)" stroke-width="1" opacity="0.75" />
			</g>
			<g>
				<title>PGM_PMM_I (PF02878)
"Phosphoglucomutase/phosphomannomutase, alpha/beta/alpha domain I"</title>
				<rect class="PF02878" x="535" y="28" stroke-linejoin="round" width="15" height="24" fill="rgb(217,133,102)" stroke="rgb(173,106,81)" stroke-width="1" opacity="0.75" />
			</g>
		</g>
		<g>
			<title> (ctg13_28)</title>
			<polygon class=" (ctg13_28)" points="556,40 584,10 584,70" fill="rgb(255,255,255)" fill-opacity="1.0" stroke="rgb(0,0,0)" stroke-width="2"  />
			<g>
				<title>PNP_UDP_1 (PF01048)
"Phosphorylase superfamily"</title>
				<polygon class="PF01048" points="560,40 571,28 579,28 579,52 571,52" stroke-linejoin="round" width="23" height="24" fill="rgb(75,186,148)" stroke="rgb(60,148,118)" stroke-width="1" opacity="0.75" />
			</g>
		</g>
		<g>
			<title> (ctg13_29)</title>
			<polygon class=" (ctg13_29)" points="587,25 605,25 605,10 635,40 605,70 605,55 587,55" fill="rgb(255,255,255)" fill-opacity="1.0" stroke="rgb(0,0,0)" stroke-width="2"  />
			<g>
				<title>Pyr_redox_2 (PF07992)
"Pyridine nucleotide-disulphide oxidoreductase"</title>
				<polygon class="PF07992" points="588,28 618,28 621,31 621,49 618,52 588,52" stroke-linejoin="round" width="33" height="24" fill="rgb(83,223,167)" stroke="rgb(66,178,133)" stroke-width="1" opacity="0.75" />
			</g>
			<g>
				<title>Pyr_redox_dim (PF02852)
"Pyridine nucleotide-disulphide oxidoreductase, dimerisation domain"</title>
				<polygon class="PF02852" points="623,33 630,40 623,47" stroke-linejoin="round" width="10" height="24" fill="rgb(191,148,67)" stroke="rgb(152,118,53)" stroke-width="1" opacity="0.75" />
			</g>
		</g>
		<g>
			<title> (ctg13_30)</title>
			<polygon class=" (ctg13_30)" points="686,25 669,25 669,10 639,40 669,70 669,55 686,55" fill="rgb(255,255,255)" fill-opacity="1.0" stroke="rgb(0,0,0)" stroke-width="2"  />
			<g>
				<title>MFS_1 (PF07690)
"Major Facilitator Superfamily"</title>
				<polygon class="PF07690" points="643,40 655,28 656,28 656,52 655,52" stroke-linejoin="round" width="17" height="24" fill="rgb(193,224,74)" stroke="rgb(154,179,59)" stroke-width="1" opacity="0.75" />
			</g>
			<g>
				<title>Sugar_tr (PF00083)
"Sugar (and other) transporter"</title>
				<rect class="PF00083" x="660" y="28" stroke-linejoin="round" width="23" height="24" fill="rgb(48,186,105)" stroke="rgb(38,148,84)" stroke-width="1" opacity="0.75" />
			</g>
		</g>
	</g>
</svg>
