<svg version="1.1" baseProfile="full" xmlns="http://www.w3.org/2000/svg" width="693.9666666666667" height="80">
	<g>
		<line x1="10" y1="40.0" x2="683.9666666666667" y2="40.0" style="stroke:rgb(70,70,70); stroke-width:3 "/>
		<g>
			<title> (ctg1_442)</title>
			<polygon class=" (ctg1_442)" points="25,40 47,10 47,70" fill="rgb(255,255,255)" fill-opacity="1.0" stroke="rgb(0,0,0)" stroke-width="2"  />
			<g>
				<title>ABC_tran (PF00005)
"ABC transporter"</title>
				<polygon class="PF00005" points="31,37 38,28 44,28 44,52 38,52 31,43" stroke-linejoin="round" width="13" height="24" fill="rgb(129,201,63)" stroke="rgb(103,160,50)" stroke-width="1" opacity="0.75" />
			</g>
		</g>
		<g>
			<title> (ctg1_443)</title>
			<polygon class=" (ctg1_443)" points="47,40 57,10 57,70" fill="rgb(255,255,255)" fill-opacity="1.0" stroke="rgb(0,0,0)" stroke-width="2"  />
		</g>
		<g>
			<title> (ctg1_444)</title>
			<polygon class=" (ctg1_444)" points="56,40 78,10 78,70" fill="rgb(255,255,255)" fill-opacity="1.0" stroke="rgb(0,0,0)" stroke-width="2"  />
		</g>
		<g>
			<title> (ctg1_445)</title>
			<polygon class=" (ctg1_445)" points="154,25 113,25 113,10 83,40 113,70 113,55 154,55" fill="rgb(255,255,255)" fill-opacity="1.0" stroke="rgb(0,0,0)" stroke-width="2"  />
			<g>
				<title>MutS_V (PF00488)
"MutS domain V"</title>
				<rect class="PF00488" x="102" y="28" stroke-linejoin="round" width="18" height="24" fill="rgb(106,217,199)" stroke="rgb(84,173,159)" stroke-width="1" opacity="0.75" />
			</g>
		</g>
		<g>
			<title> (ctg1_446)</title>
			<polygon class=" (ctg1_446)" points="159,10 175,40 159,70" fill="rgb(255,255,255)" fill-opacity="1.0" stroke="rgb(0,0,0)" stroke-width="2"  />
			<g>
				<title>Acetyltransf_3 (PF13302)
"Acetyltransferase (GNAT) domain"</title>
				<polygon class="PF13302" points="159,28 165,28 172,40 165,52 159,52" stroke-linejoin="round" width="14" height="24" fill="rgb(105,146,215)" stroke="rgb(84,116,172)" stroke-width="1" opacity="0.75" />
			</g>
		</g>
		<g>
			<title> (ctg1_447)</title>
			<polygon class=" (ctg1_447)" points="178,10 199,40 178,70" fill="rgb(255,255,255)" fill-opacity="1.0" stroke="rgb(0,0,0)" stroke-width="2"  />
			<g>
				<title>UDG (PF03167)
"Uracil DNA glycosylase superfamily"</title>
				<polygon class="PF03167" points="182,28 187,28 195,40 187,52 182,52" stroke-linejoin="round" width="15" height="24" fill="rgb(64,224,60)" stroke="rgb(51,179,48)" stroke-width="1" opacity="0.75" />
			</g>
		</g>
		<g>
			<title> (ctg1_448)</title>
			<polygon class=" (ctg1_448)" points="199,40 215,10 215,70" fill="rgb(255,255,255)" fill-opacity="1.0" stroke="rgb(0,0,0)" stroke-width="2"  />
		</g>
		<g>
			<title> (ctg1_449)</title>
			<polygon class=" (ctg1_449)" points="217,40 233,10 233,70" fill="rgb(255,255,255)" fill-opacity="1.0" stroke="rgb(0,0,0)" stroke-width="2"  />
			<g>
				<title>DUF456 (PF04306)
"Protein of unknown function (DUF456)"</title>
				<polygon class="PF04306" points="220,40 227,28 230,28 230,52 227,52" stroke-linejoin="round" width="13" height="24" fill="rgb(202,219,65)" stroke="rgb(161,175,52)" stroke-width="1" opacity="0.75" />
			</g>
		</g>
		<g>
			<title> (ctg1_450)</title>
			<polygon class=" (ctg1_450)" points="239,25 251,25 251,10 281,40 251,70 251,55 239,55" fill="rgb(255,255,255)" fill-opacity="1.0" stroke="rgb(0,0,0)" stroke-width="2"  />
			<g>
				<title>MS_channel (PF00924)
"Mechanosensitive ion channel"</title>
				<polygon class="PF00924" points="255,28 265,28 277,40 265,52 255,52" stroke-linejoin="round" width="25" height="24" fill="rgb(177,58,210)" stroke="rgb(141,46,168)" stroke-width="1" opacity="0.75" />
			</g>
		</g>
		<g>
			<title> (ctg1_451)</title>
			<polygon class=" (ctg1_451)" points="286,10 310,40 286,70" fill="rgb(255,255,255)" fill-opacity="1.0" stroke="rgb(0,0,0)" stroke-width="2"  />
			<g>
				<title>PdxJ (PF03740)
"Pyridoxal phosphate biosynthesis protein PdxJ"</title>
				<polygon class="PF03740" points="286,28 296,28 306,40 296,52 286,52" stroke-linejoin="round" width="23" height="24" fill="rgb(175,196,77)" stroke="rgb(139,156,61)" stroke-width="1" opacity="0.75" />
			</g>
		</g>
		<g>
			<title> (ctg1_452)</title>
			<polygon class=" (ctg1_452)" points="313,10 339,40 313,70" fill="rgb(255,255,255)" fill-opacity="1.0" stroke="rgb(0,0,0)" stroke-width="2"  />
			<g>
				<title>Abhydrolase_1 (PF00561)
"alpha/beta hydrolase fold"</title>
				<polygon class="PF00561" points="314,28 325,28 327,31 327,49 325,52 314,52" stroke-linejoin="round" width="13" height="24" fill="rgb(86,180,151)" stroke="rgb(68,144,120)" stroke-width="1" opacity="0.75" />
			</g>
		</g>
		<g>
			<title> (ctg1_453)</title>
			<polygon class=" (ctg1_453)" points="343,10 350,40 343,70" fill="rgb(255,255,255)" fill-opacity="1.0" stroke="rgb(0,0,0)" stroke-width="2"  />
			<g>
				<title>Inhibitor_I10 (PF12559)
"Serine endopeptidase inhibitors"</title>
				<polygon class="PF12559" points="343,28 343,28 347,40 343,52 343,52" stroke-linejoin="round" width="6" height="24" fill="rgb(179,147,51)" stroke="rgb(143,117,40)" stroke-width="1" opacity="0.75" />
			</g>
		</g>
		<g>
			<title> (ctg1_454)</title>
			<polygon class=" (ctg1_454)" points="353,25 354,25 354,10 384,40 354,70 354,55 353,55" fill="rgb(255,255,255)" fill-opacity="1.0" stroke="rgb(0,0,0)" stroke-width="2"  />
			<g>
				<title>RimK (PF08443)
"RimK-like ATP-grasp domain"</title>
				<polygon class="PF08443" points="365,28 368,28 380,40 368,52 365,52" stroke-linejoin="round" width="19" height="24" fill="rgb(192,59,192)" stroke="rgb(153,47,153)" stroke-width="1" opacity="0.75" />
			</g>
		</g>
		<g>
			<title> (ctg1_455)</title>
			<polygon class=" (ctg1_455)" points="385,25 388,25 388,10 418,40 388,70 388,55 385,55" fill="rgb(255,255,255)" fill-opacity="1.0" stroke="rgb(0,0,0)" stroke-width="2"  />
			<g>
				<title>RimK (PF08443)
"RimK-like ATP-grasp domain"</title>
				<polygon class="PF08443" points="397,28 402,28 414,40 402,52 397,52" stroke-linejoin="round" width="19" height="24" fill="rgb(192,59,192)" stroke="rgb(153,47,153)" stroke-width="1" opacity="0.75" />
			</g>
		</g>
		<g>
			<title> (ctg1_456)</title>
			<polygon class=" (ctg1_456)" points="434,25 437,25 437,10 467,40 437,70 437,55 434,55" fill="rgb(255,255,255)" fill-opacity="1.0" stroke="rgb(0,0,0)" stroke-width="2"  />
			<g>
				<title>Epimerase (PF01370)
"NAD dependent epimerase/dehydratase family"</title>
				<polygon class="PF01370" points="434,28 451,28 457,34 457,46 451,52 434,52" stroke-linejoin="round" width="23" height="24" fill="rgb(98,102,214)" stroke="rgb(78,81,171)" stroke-width="1" opacity="0.75" />
			</g>
		</g>
		<g>
			<title> (ctg1_457)</title>
			<polygon class=" (ctg1_457)" points="468,25 497,25 497,10 527,40 497,70 497,55 468,55" fill="rgb(255,255,255)" fill-opacity="1.0" stroke="rgb(0,0,0)" stroke-width="2"  />
			<g>
				<title>AMP-binding (PF00501)
"AMP-binding enzyme"</title>
				<polygon class="PF00501" points="468,28 510,28 513,31 513,49 510,52 468,52" stroke-linejoin="round" width="45" height="24" fill="rgb(60,217,223)" stroke="rgb(48,173,178)" stroke-width="1" opacity="0.75" />
			</g>
		</g>
		<g>
			<title> (ctg1_458)</title>
			<polygon class=" (ctg1_458)" points="534,25 539,25 539,10 569,40 539,70 539,55 534,55" fill="rgb(255,255,255)" fill-opacity="1.0" stroke="rgb(0,0,0)" stroke-width="2"  />
			<g>
				<title>MDD_C (PF18376)
"Mevalonate 5-diphosphate decarboxylase C-terminal domain"</title>
				<polygon class="PF18376" points="554,30 564,40 554,50" stroke-linejoin="round" width="14" height="24" fill="rgb(104,190,211)" stroke="rgb(83,152,168)" stroke-width="1" opacity="0.75" />
			</g>
		</g>
		<g>
			<title> (ctg1_459)</title>
			<polygon class=" (ctg1_459)" points="606,25 600,25 600,10 570,40 600,70 600,55 606,55" fill="rgb(255,255,255)" fill-opacity="1.0" stroke="rgb(0,0,0)" stroke-width="2"  />
			<g>
				<title>Exo_endo_phos (PF03372)
"Endonuclease/Exonuclease/phosphatase family"</title>
				<polygon class="PF03372" points="575,39 586,28 595,28 595,52 586,52 575,41" stroke-linejoin="round" width="20" height="24" fill="rgb(76,66,180)" stroke="rgb(60,52,144)" stroke-width="1" opacity="0.75" />
			</g>
		</g>
		<g>
			<title> (ctg1_460)</title>
			<polygon class=" (ctg1_460)" points="610,10 624,40 610,70" fill="rgb(255,255,255)" fill-opacity="1.0" stroke="rgb(0,0,0)" stroke-width="2"  />
			<g>
				<title>Lumazine_bd_2 (PF12893)
"Putative lumazine-binding"</title>
				<polygon class="PF12893" points="611,28 615,28 621,40 615,52 611,52" stroke-linejoin="round" width="11" height="24" fill="rgb(191,119,51)" stroke="rgb(152,95,40)" stroke-width="1" opacity="0.75" />
			</g>
		</g>
		<g>
			<title> (ctg1_461)</title>
			<polygon class=" (ctg1_461)" points="626,10 638,40 626,70" fill="rgb(255,255,255)" fill-opacity="1.0" stroke="rgb(0,0,0)" stroke-width="2"  />
			<g>
				<title>Glyoxalase (PF00903)
"Glyoxalase/Bleomycin resistance protein/Dioxygenase superfamily"</title>
				<polygon class="PF00903" points="626,28 630,28 635,40 630,52 626,52" stroke-linejoin="round" width="12" height="24" fill="rgb(50,162,189)" stroke="rgb(40,129,151)" stroke-width="1" opacity="0.75" />
			</g>
		</g>
		<g>
			<title> (ctg1_462)</title>
			<polygon class=" (ctg1_462)" points="639,40 651,10 651,70" fill="rgb(255,255,255)" fill-opacity="1.0" stroke="rgb(0,0,0)" stroke-width="2"  />
			<g>
				<title>DUF1634 (PF07843)
"Protein of unknown function (DUF1634)"</title>
				<polygon class="PF07843" points="642,40 647,28 649,28 649,52 647,52" stroke-linejoin="round" width="10" height="24" fill="rgb(65,84,184)" stroke="rgb(52,67,147)" stroke-width="1" opacity="0.75" />
			</g>
		</g>
		<g>
			<title> (ctg1_463)</title>
			<polygon class=" (ctg1_463)" points="651,40 678,10 678,70" fill="rgb(255,255,255)" fill-opacity="1.0" stroke="rgb(0,0,0)" stroke-width="2"  />
			<g>
				<title>TauE (PF01925)
"Sulfite exporter TauE/SafE"</title>
				<polygon class="PF01925" points="655,40 666,28 677,28 677,52 666,52" stroke-linejoin="round" width="25" height="24" fill="rgb(105,203,95)" stroke="rgb(84,162,76)" stroke-width="1" opacity="0.75" />
			</g>
		</g>
	</g>
</svg>
