<svg version="1.1" baseProfile="full" xmlns="http://www.w3.org/2000/svg" width="805.8" height="80">
	<g>
		<line x1="10" y1="40.0" x2="795.8" y2="40.0" style="stroke:rgb(70,70,70); stroke-width:3 "/>
		<g>
			<title> (ctg5_218)</title>
			<polygon class=" (ctg5_218)" points="84,25 67,25 67,10 37,40 67,70 67,55 84,55" fill="rgb(255,255,255)" fill-opacity="1.0" stroke="rgb(0,0,0)" stroke-width="2"  />
			<g>
				<title>MFS_1 (PF07690)
"Major Facilitator Superfamily"</title>
				<polygon class="PF07690" points="42,39 53,28 82,28 82,52 53,52 42,41" stroke-linejoin="round" width="40" height="24" fill="rgb(193,224,74)" stroke="rgb(154,179,59)" stroke-width="1" opacity="0.75" />
			</g>
		</g>
		<g>
			<title> (ctg5_219)</title>
			<polygon class=" (ctg5_219)" points="88,10 116,40 88,70" fill="rgb(255,255,255)" fill-opacity="1.0" stroke="rgb(0,0,0)" stroke-width="2"  />
			<g>
				<title>HTH_31 (PF13560)
"Helix-turn-helix domain"</title>
				<rect class="PF13560" x="89" y="28" stroke-linejoin="round" width="7" height="24" fill="rgb(207,145,90)" stroke="rgb(165,116,72)" stroke-width="1" opacity="0.75" />
			</g>
			<g>
				<title>MLTR_LBD (PF17765)
"MmyB-like transcription regulator ligand binding domain"</title>
				<polygon class="PF17765" points="99,28 100,28 112,40 100,52 99,52" stroke-linejoin="round" width="16" height="24" fill="rgb(190,109,59)" stroke="rgb(152,87,47)" stroke-width="1" opacity="0.75" />
			</g>
		</g>
		<g>
			<title> (ctg5_220)</title>
			<polygon class=" (ctg5_220)" points="118,10 123,40 118,70" fill="rgb(255,255,255)" fill-opacity="1.0" stroke="rgb(0,0,0)" stroke-width="2"  />
		</g>
		<g>
			<title> (ctg5_221)</title>
			<polygon class=" (ctg5_221)" points="125,10 136,40 125,70" fill="rgb(255,255,255)" fill-opacity="1.0" stroke="rgb(0,0,0)" stroke-width="2"  />
		</g>
		<g>
			<title> (ctg5_222)</title>
			<polygon class=" (ctg5_222)" points="177,25 168,25 168,10 138,40 168,70 168,55 177,55" fill="rgb(255,255,255)" fill-opacity="1.0" stroke="rgb(0,0,0)" stroke-width="2"  />
			<g>
				<title>ADH_zinc_N (PF00107)
"Zinc-binding dehydrogenase"</title>
				<polygon class="PF00107" points="149,33 154,28 157,28 157,52 154,52 149,47" stroke-linejoin="round" width="8" height="24" fill="rgb(81,108,215)" stroke="rgb(64,86,172)" stroke-width="1" opacity="0.75" />
			</g>
			<g>
				<title>ADH_N (PF08240)
"Alcohol dehydrogenase GroES-like domain"</title>
				<rect class="PF08240" x="162" y="28" stroke-linejoin="round" width="12" height="24" fill="rgb(211,65,138)" stroke="rgb(168,51,110)" stroke-width="1" opacity="0.75" />
			</g>
			<g>
				<title>ADH_N_assoc (PF13823)
"Alcohol dehydrogenase GroES-associated"</title>
				<rect class="PF13823" x="175" y="28" stroke-linejoin="round" width="2" height="24" fill="rgb(221,55,66)" stroke="rgb(176,44,52)" stroke-width="1" opacity="0.75" />
			</g>
		</g>
		<g>
			<title> (ctg5_223)</title>
			<polygon class=" (ctg5_223)" points="187,10 210,40 187,70" fill="rgb(255,255,255)" fill-opacity="1.0" stroke="rgb(0,0,0)" stroke-width="2"  />
			<g>
				<title>Phage_pRha (PF09669)
"Phage regulatory protein Rha (Phage_pRha)"</title>
				<rect class="PF09669" x="188" y="28" stroke-linejoin="round" width="7" height="24" fill="rgb(158,210,68)" stroke="rgb(126,168,54)" stroke-width="1" opacity="0.75" />
			</g>
			<g>
				<title>ANT (PF03374)
"Phage antirepressor protein KilAC domain"</title>
				<polygon class="PF03374" points="199,31 206,40 199,49" stroke-linejoin="round" width="10" height="24" fill="rgb(211,184,62)" stroke="rgb(168,147,49)" stroke-width="1" opacity="0.75" />
			</g>
		</g>
		<g>
			<title> (ctg5_224)</title>
			<polygon class=" (ctg5_224)" points="211,40 218,10 218,70" fill="rgb(255,255,255)" fill-opacity="1.0" stroke="rgb(0,0,0)" stroke-width="2"  />
		</g>
		<g>
			<title> (ctg5_225)</title>
			<polygon class=" (ctg5_225)" points="262,25 253,25 253,10 223,40 253,70 253,55 262,55" fill="rgb(255,255,255)" fill-opacity="1.0" stroke="rgb(0,0,0)" stroke-width="2"  />
			<g>
				<title>DAO (PF01266)
"FAD dependent oxidoreductase"</title>
				<polygon class="PF01266" points="227,40 239,28 261,28 261,52 239,52" stroke-linejoin="round" width="35" height="24" fill="rgb(123,179,59)" stroke="rgb(98,143,47)" stroke-width="1" opacity="0.75" />
			</g>
		</g>
		<g>
			<title> (ctg5_226)</title>
			<polygon class=" (ctg5_226)" points="270,25 270,25 270,10 300,40 270,70 270,55 270,55" fill="rgb(255,255,255)" fill-opacity="1.0" stroke="rgb(0,0,0)" stroke-width="2"  />
			<g>
				<title>polyprenyl_synt (PF00348)
"Polyprenyl synthetase"</title>
				<polygon class="PF00348" points="273,28 283,28 295,40 283,52 273,52" stroke-linejoin="round" width="24" height="24" fill="rgb(61,206,65)" stroke="rgb(48,164,52)" stroke-width="1" opacity="0.75" />
			</g>
		</g>
		<g>
			<title> (ctg5_227)</title>
			<polygon class=" (ctg5_227)" points="300,25 312,25 312,10 342,40 312,70 312,55 300,55" fill="rgb(255,255,255)" fill-opacity="1.0" stroke="rgb(0,0,0)" stroke-width="2"  />
			<g>
				<title>UDPGT (PF00201)
"UDP-glucoronosyl and UDP-glucosyl transferase"</title>
				<polygon class="PF00201" points="320,28 326,28 338,40 326,52 320,52" stroke-linejoin="round" width="19" height="24" fill="rgb(225,150,107)" stroke="rgb(180,120,85)" stroke-width="1" opacity="0.75" />
			</g>
		</g>
		<g>
			<title> (ctg5_228)</title>
			<polygon class=" (ctg5_228)" points="343,25 351,25 351,10 381,40 351,70 351,55 343,55" fill="rgb(255,255,255)" fill-opacity="1.0" stroke="rgb(0,0,0)" stroke-width="2"  />
			<g>
				<title>Lycopene_cycl (PF05834)
"Lycopene cyclase protein"</title>
				<polygon class="PF05834" points="343,28 365,28 377,40 365,52 343,52" stroke-linejoin="round" width="37" height="24" fill="rgb(212,80,200)" stroke="rgb(169,64,160)" stroke-width="1" opacity="0.75" />
			</g>
		</g>
		<g>
			<title> (ctg5_229)</title>
			<polygon class=" (ctg5_229)" points="382,25 401,25 401,10 431,40 401,70 401,55 382,55" fill="rgb(255,255,255)" fill-opacity="1.0" stroke="rgb(0,0,0)" stroke-width="2"  />
			<g>
				<title>Amino_oxidase (PF01593)
"Flavin containing amine oxidoreductase"</title>
				<polygon class="PF01593" points="383,28 415,28 427,40 415,52 383,52" stroke-linejoin="round" width="47" height="24" fill="rgb(184,74,52)" stroke="rgb(147,59,41)" stroke-width="1" opacity="0.75" />
			</g>
		</g>
		<g>
			<title> (ctg5_230)</title>
			<polygon class=" (ctg5_230)" points="431,25 432,25 432,10 462,40 432,70 432,55 431,55" fill="rgb(255,255,255)" fill-opacity="1.0" stroke="rgb(0,0,0)" stroke-width="2"  />
			<g>
				<title>SQS_PSY (PF00494)
"Squalene/phytoene synthase"</title>
				<polygon class="PF00494" points="432,28 445,28 457,40 445,52 432,52" stroke-linejoin="round" width="26" height="24" fill="rgb(178,91,49)" stroke="rgb(142,72,39)" stroke-width="1" opacity="0.75" />
			</g>
		</g>
		<g>
			<title> (ctg5_231)</title>
			<polygon class=" (ctg5_231)" points="460,40 477,10 477,70" fill="rgb(255,255,255)" fill-opacity="1.0" stroke="rgb(0,0,0)" stroke-width="2"  />
		</g>
		<g>
			<title> (ctg5_232)</title>
			<polygon class=" (ctg5_232)" points="488,25 497,25 497,10 527,40 497,70 497,55 488,55" fill="rgb(255,255,255)" fill-opacity="1.0" stroke="rgb(0,0,0)" stroke-width="2"  />
			<g>
				<title>MFS_1 (PF07690)
"Major Facilitator Superfamily"</title>
				<polygon class="PF07690" points="489,28 511,28 522,39 522,41 511,52 489,52" stroke-linejoin="round" width="33" height="24" fill="rgb(193,224,74)" stroke="rgb(154,179,59)" stroke-width="1" opacity="0.75" />
			</g>
		</g>
		<g>
			<title> (ctg5_233)</title>
			<polygon class=" (ctg5_233)" points="564,25 558,25 558,10 528,40 558,70 558,55 564,55" fill="rgb(255,255,255)" fill-opacity="1.0" stroke="rgb(0,0,0)" stroke-width="2"  />
			<g>
				<title>Bac_luciferase (PF00296)
"Luciferase-like monooxygenase"</title>
				<polygon class="PF00296" points="532,40 544,28 563,28 563,52 544,52" stroke-linejoin="round" width="32" height="24" fill="rgb(180,112,78)" stroke="rgb(144,89,62)" stroke-width="1" opacity="0.75" />
			</g>
		</g>
		<g>
			<title> (ctg5_234)</title>
			<polygon class=" (ctg5_234)" points="572,40 583,10 583,70" fill="rgb(255,255,255)" fill-opacity="1.0" stroke="rgb(0,0,0)" stroke-width="2"  />
			<g>
				<title>HTH_20 (PF12840)
"Helix-turn-helix domain"</title>
				<polygon class="PF12840" points="576,37 580,28 581,28 581,52 580,52 576,43" stroke-linejoin="round" width="5" height="24" fill="rgb(157,225,93)" stroke="rgb(125,180,74)" stroke-width="1" opacity="0.75" />
			</g>
		</g>
		<g>
			<title> (ctg5_235)</title>
			<polygon class=" (ctg5_235)" points="588,25 598,25 598,10 628,40 598,70 598,55 588,55" fill="rgb(255,255,255)" fill-opacity="1.0" stroke="rgb(0,0,0)" stroke-width="2"  />
			<g>
				<title>MFS_1 (PF07690)
"Major Facilitator Superfamily"</title>
				<polygon class="PF07690" points="589,28 612,28 618,34 618,46 612,52 589,52" stroke-linejoin="round" width="29" height="24" fill="rgb(193,224,74)" stroke="rgb(154,179,59)" stroke-width="1" opacity="0.75" />
			</g>
		</g>
		<g>
			<title> (ctg5_236)</title>
			<polygon class=" (ctg5_236)" points="636,10 645,40 636,70" fill="rgb(255,255,255)" fill-opacity="1.0" stroke="rgb(0,0,0)" stroke-width="2"  />
			<g>
				<title>HTH_3 (PF01381)
"Helix-turn-helix"</title>
				<polygon class="PF01381" points="639,30 642,40 639,50" stroke-linejoin="round" width="5" height="24" fill="rgb(105,79,202)" stroke="rgb(83,63,161)" stroke-width="1" opacity="0.75" />
			</g>
		</g>
		<g>
			<title> (ctg5_237)</title>
			<polygon class=" (ctg5_237)" points="694,25 678,25 678,10 648,40 678,70 678,55 694,55" fill="rgb(255,255,255)" fill-opacity="1.0" stroke="rgb(0,0,0)" stroke-width="2"  />
			<g>
				<title>Voltage_CLC (PF00654)
"Voltage gated chloride channel"</title>
				<polygon class="PF00654" points="652,40 664,28 685,28 685,52 664,52" stroke-linejoin="round" width="34" height="24" fill="rgb(90,197,150)" stroke="rgb(72,157,120)" stroke-width="1" opacity="0.75" />
			</g>
		</g>
		<g>
			<title> (ctg5_238)</title>
			<polygon class=" (ctg5_238)" points="705,25 705,25 705,10 735,40 705,70 705,55 705,55" fill="rgb(255,255,255)" fill-opacity="1.0" stroke="rgb(0,0,0)" stroke-width="2"  />
			<g>
				<title>Glutaminase (PF04960)
"Glutaminase"</title>
				<polygon class="PF04960" points="707,28 719,28 731,40 719,52 707,52" stroke-linejoin="round" width="28" height="24" fill="rgb(96,137,229)" stroke="rgb(76,109,183)" stroke-width="1" opacity="0.75" />
			</g>
		</g>
		<g>
			<title> (ctg5_239)</title>
			<polygon class=" (ctg5_239)" points="755,10 768,40 755,70" fill="rgb(255,255,255)" fill-opacity="1.0" stroke="rgb(0,0,0)" stroke-width="2"  />
			<g>
				<title>DUF2946 (PF11162)
"Protein of unknown function (DUF2946)"</title>
				<polygon class="PF11162" points="756,28 759,28 765,40 759,52 756,52" stroke-linejoin="round" width="12" height="24" fill="rgb(216,104,195)" stroke="rgb(172,83,156)" stroke-width="1" opacity="0.75" />
			</g>
		</g>
	</g>
</svg>
