<svg version="1.1" baseProfile="full" xmlns="http://www.w3.org/2000/svg" width="1488.2333333333333" height="80">
	<g>
		<line x1="10" y1="40.0" x2="1478.2333333333333" y2="40.0" style="stroke:rgb(70,70,70); stroke-width:3 "/>
		<g>
			<title> (ctg1_112)</title>
			<polygon class=" (ctg1_112)" points="10,40 23,10 23,70" fill="rgb(255,255,255)" fill-opacity="1.0" stroke="rgb(0,0,0)" stroke-width="2"  />
		</g>
		<g>
			<title> (ctg1_113)</title>
			<polygon class=" (ctg1_113)" points="23,40 37,10 37,70" fill="rgb(255,255,255)" fill-opacity="1.0" stroke="rgb(0,0,0)" stroke-width="2"  />
			<g>
				<title>OB_aCoA_assoc (PF01796)
"DUF35 OB-fold domain, acyl-CoA-associated"</title>
				<polygon class="PF01796" points="26,40 30,32 30,48" stroke-linejoin="round" width="6" height="24" fill="rgb(76,159,198)" stroke="rgb(60,127,158)" stroke-width="1" opacity="0.75" />
			</g>
			<g>
				<title>DUF35_N (PF12172)
"Rubredoxin-like zinc ribbon domain (DUF35_N)"</title>
				<polygon class="PF12172" points="31,30 32,28 34,28 34,52 32,52 31,50" stroke-linejoin="round" width="3" height="24" fill="rgb(189,90,191)" stroke="rgb(151,72,152)" stroke-width="1" opacity="0.75" />
			</g>
		</g>
		<g>
			<title> (ctg1_114)</title>
			<polygon class=" (ctg1_114)" points="37,40 56,10 56,70" fill="rgb(255,255,255)" fill-opacity="1.0" stroke="rgb(0,0,0)" stroke-width="2"  />
			<g>
				<title>MaoC_dehydrat_N (PF13452)
"N-terminal half of MaoC dehydratase"</title>
				<polygon class="PF13452" points="41,40 49,28 54,28 54,52 49,52" stroke-linejoin="round" width="15" height="24" fill="rgb(215,186,64)" stroke="rgb(172,148,51)" stroke-width="1" opacity="0.75" />
			</g>
		</g>
		<g>
			<title> (ctg1_115)</title>
			<polygon class=" (ctg1_115)" points="59,10 82,40 59,70" fill="rgb(255,255,255)" fill-opacity="1.0" stroke="rgb(0,0,0)" stroke-width="2"  />
			<g>
				<title>TetR_N (PF00440)
"Bacterial regulatory proteins, tetR family"</title>
				<rect class="PF00440" x="64" y="28" stroke-linejoin="round" width="4" height="24" fill="rgb(73,212,190)" stroke="rgb(58,169,152)" stroke-width="1" opacity="0.75" />
			</g>
			<g>
				<title>TetR_C_24 (PF17932)
"Tetracyclin repressor-like, C-terminal domain"</title>
				<polygon class="PF17932" points="71,30 78,40 71,50" stroke-linejoin="round" width="11" height="24" fill="rgb(165,217,107)" stroke="rgb(132,173,85)" stroke-width="1" opacity="0.75" />
			</g>
		</g>
		<g>
			<title> (ctg1_116)</title>
			<polygon class=" (ctg1_116)" points="131,25 112,25 112,10 82,40 112,70 112,55 131,55" fill="rgb(255,255,255)" fill-opacity="1.0" stroke="rgb(0,0,0)" stroke-width="2"  />
			<g>
				<title>MFS_1 (PF07690)
"Major Facilitator Superfamily"</title>
				<polygon class="PF07690" points="97,29 98,28 127,28 127,52 98,52 97,51" stroke-linejoin="round" width="30" height="24" fill="rgb(193,224,74)" stroke="rgb(154,179,59)" stroke-width="1" opacity="0.75" />
			</g>
		</g>
		<g>
			<title> (ctg1_117)</title>
			<polygon class=" (ctg1_117)" points="134,40 153,10 153,70" fill="rgb(255,255,255)" fill-opacity="1.0" stroke="rgb(0,0,0)" stroke-width="2"  />
			<g>
				<title>TetR_C_16 (PF17920)
"Tetracyclin repressor-like, C-terminal domain"</title>
				<polygon class="PF17920" points="138,40 144,31 144,49" stroke-linejoin="round" width="10" height="24" fill="rgb(194,84,83)" stroke="rgb(155,67,66)" stroke-width="1" opacity="0.75" />
			</g>
			<g>
				<title>TetR_N (PF00440)
"Bacterial regulatory proteins, tetR family"</title>
				<polygon class="PF00440" points="146,27 146,28 150,28 150,52 146,52 146,53" stroke-linejoin="round" width="4" height="24" fill="rgb(73,212,190)" stroke="rgb(58,169,152)" stroke-width="1" opacity="0.75" />
			</g>
		</g>
		<g>
			<title> (ctg1_118)</title>
			<polygon class=" (ctg1_118)" points="153,40 173,10 173,70" fill="rgb(255,255,255)" fill-opacity="1.0" stroke="rgb(0,0,0)" stroke-width="2"  />
			<g>
				<title>Toprim_4 (PF13662)
"Toprim domain"</title>
				<polygon class="PF13662" points="157,40 165,28 165,28 165,52 165,52" stroke-linejoin="round" width="9" height="24" fill="rgb(192,150,56)" stroke="rgb(153,120,44)" stroke-width="1" opacity="0.75" />
			</g>
			<g>
				<title>RecR (PF02132)
"RecR protein"</title>
				<rect class="PF02132" x="166" y="28" stroke-linejoin="round" width="3" height="24" fill="rgb(118,195,60)" stroke="rgb(94,156,48)" stroke-width="1" opacity="0.75" />
			</g>
		</g>
		<g>
			<title> (ctg1_119)</title>
			<polygon class=" (ctg1_119)" points="174,40 184,10 184,70" fill="rgb(255,255,255)" fill-opacity="1.0" stroke="rgb(0,0,0)" stroke-width="2"  />
			<g>
				<title>YbaB_DNA_bd (PF02575)
"YbaB/EbfC DNA-binding family"</title>
				<polygon class="PF02575" points="177,40 181,28 183,28 183,52 181,52" stroke-linejoin="round" width="8" height="24" fill="rgb(186,75,123)" stroke="rgb(148,60,98)" stroke-width="1" opacity="0.75" />
			</g>
		</g>
		<g>
			<title> (ctg1_120)</title>
			<polygon class=" (ctg1_120)" points="189,10 215,40 189,70" fill="rgb(255,255,255)" fill-opacity="1.0" stroke="rgb(0,0,0)" stroke-width="2"  />
			<g>
				<title>Amidase_3 (PF01520)
"N-acetylmuramoyl-L-alanine amidase"</title>
				<polygon class="PF01520" points="194,28 200,28 211,40 200,52 194,52" stroke-linejoin="round" width="20" height="24" fill="rgb(174,223,57)" stroke="rgb(139,178,45)" stroke-width="1" opacity="0.75" />
			</g>
		</g>
		<g>
			<title> (ctg1_121)</title>
			<polygon class=" (ctg1_121)" points="219,10 228,40 219,70" fill="rgb(255,255,255)" fill-opacity="1.0" stroke="rgb(0,0,0)" stroke-width="2"  />
		</g>
		<g>
			<title> (ctg1_122)</title>
			<polygon class=" (ctg1_122)" points="228,25 248,25 248,10 278,40 248,70 248,55 228,55" fill="rgb(255,255,255)" fill-opacity="1.0" stroke="rgb(0,0,0)" stroke-width="2"  />
			<g>
				<title>Abhydrolase_8 (PF06259)
"Alpha/beta hydrolase"</title>
				<polygon class="PF06259" points="255,28 262,28 272,38 272,42 262,52 255,52" stroke-linejoin="round" width="17" height="24" fill="rgb(194,151,87)" stroke="rgb(155,120,69)" stroke-width="1" opacity="0.75" />
			</g>
		</g>
		<g>
			<title> (ctg1_123)</title>
			<polygon class=" (ctg1_123)" points="281,40 298,10 298,70" fill="rgb(255,255,255)" fill-opacity="1.0" stroke="rgb(0,0,0)" stroke-width="2"  />
			<g>
				<title>Polyketide_cyc2 (PF10604)
"Polyketide cyclase / dehydrase and lipid transport"</title>
				<polygon class="PF10604" points="284,40 291,28 295,28 295,52 291,52" stroke-linejoin="round" width="14" height="24" fill="rgb(105,204,74)" stroke="rgb(84,163,59)" stroke-width="1" opacity="0.75" />
			</g>
		</g>
		<g>
			<title> (ctg1_124)</title>
			<polygon class=" (ctg1_124)" points="306,25 322,25 322,10 352,40 322,70 322,55 306,55" fill="rgb(255,255,255)" fill-opacity="1.0" stroke="rgb(0,0,0)" stroke-width="2"  />
			<g>
				<title>FAD_binding_4 (PF01565)
"FAD binding domain"</title>
				<rect class="PF01565" x="307" y="28" stroke-linejoin="round" width="12" height="24" fill="rgb(226,88,136)" stroke="rgb(180,70,108)" stroke-width="1" opacity="0.75" />
			</g>
		</g>
		<g>
			<title> (ctg1_125)</title>
			<polygon class=" (ctg1_125)" points="353,25 366,25 366,10 396,40 366,70 366,55 353,55" fill="rgb(255,255,255)" fill-opacity="1.0" stroke="rgb(0,0,0)" stroke-width="2"  />
			<g>
				<title>CMAS (PF02353)
"Mycolic acid cyclopropane synthetase"</title>
				<polygon class="PF02353" points="367,28 380,28 392,40 380,52 367,52" stroke-linejoin="round" width="26" height="24" fill="rgb(56,174,188)" stroke="rgb(44,139,150)" stroke-width="1" opacity="0.75" />
			</g>
		</g>
		<g>
			<title> (ctg1_126)</title>
			<polygon class=" (ctg1_126)" points="429,25 428,25 428,10 398,40 428,70 428,55 429,55" fill="rgb(255,255,255)" fill-opacity="1.0" stroke="rgb(0,0,0)" stroke-width="2"  />
		</g>
		<g>
			<title> (ctg1_127)</title>
			<polygon class=" (ctg1_127)" points="508,25 467,25 467,10 437,40 467,70 467,55 508,55" fill="rgb(255,255,255)" fill-opacity="1.0" stroke="rgb(0,0,0)" stroke-width="2"  />
			<g>
				<title>3HCDH (PF00725)
"3-hydroxyacyl-CoA dehydrogenase, C-terminal domain"</title>
				<polygon class="PF00725" points="448,33 453,28 458,28 458,52 453,52 448,47" stroke-linejoin="round" width="10" height="24" fill="rgb(180,78,60)" stroke="rgb(144,62,48)" stroke-width="1" opacity="0.75" />
			</g>
			<g>
				<title>3HCDH_N (PF02737)
"3-hydroxyacyl-CoA dehydrogenase, NAD binding domain"</title>
				<rect class="PF02737" x="458" y="28" stroke-linejoin="round" width="17" height="24" fill="rgb(212,65,199)" stroke="rgb(169,52,159)" stroke-width="1" opacity="0.75" />
			</g>
			<g>
				<title>ECH_1 (PF00378)
"Enoyl-CoA hydratase/isomerase"</title>
				<rect class="PF00378" x="487" y="28" stroke-linejoin="round" width="20" height="24" fill="rgb(218,72,181)" stroke="rgb(174,57,144)" stroke-width="1" opacity="0.75" />
			</g>
		</g>
		<g>
			<title> (ctg1_128)</title>
			<polygon class=" (ctg1_128)" points="550,25 540,25 540,10 510,40 540,70 540,55 550,55" fill="rgb(255,255,255)" fill-opacity="1.0" stroke="rgb(0,0,0)" stroke-width="2"  />
			<g>
				<title>Thiolase_C (PF02803)
"Thiolase, C-terminal domain"</title>
				<polygon class="PF02803" points="514,40 522,32 522,48" stroke-linejoin="round" width="12" height="24" fill="rgb(218,187,56)" stroke="rgb(174,149,44)" stroke-width="1" opacity="0.75" />
			</g>
			<g>
				<title>Thiolase_N (PF00108)
"Thiolase, N-terminal domain"</title>
				<polygon class="PF00108" points="523,31 526,28 549,28 549,52 526,52 523,49" stroke-linejoin="round" width="26" height="24" fill="rgb(82,90,195)" stroke="rgb(65,72,156)" stroke-width="1" opacity="0.75" />
			</g>
		</g>
		<g>
			<title> (ctg1_129)</title>
			<polygon class=" (ctg1_129)" points="618,25 588,25 588,10 558,40 588,70 588,55 618,55" fill="rgb(255,255,255)" fill-opacity="1.0" stroke="rgb(0,0,0)" stroke-width="2"  />
			<g>
				<title>Cu-oxidase_2 (PF07731)
"Multicopper oxidase"</title>
				<polygon class="PF07731" points="564,38 574,28 577,28 577,52 574,52 564,42" stroke-linejoin="round" width="13" height="24" fill="rgb(183,55,192)" stroke="rgb(146,44,153)" stroke-width="1" opacity="0.75" />
			</g>
			<g>
				<title>Cu-oxidase (PF00394)
"Multicopper oxidase"</title>
				<rect class="PF00394" x="583" y="28" stroke-linejoin="round" width="11" height="24" fill="rgb(172,188,74)" stroke="rgb(137,150,59)" stroke-width="1" opacity="0.75" />
			</g>
			<g>
				<title>Cu-oxidase_3 (PF07732)
"Multicopper oxidase"</title>
				<rect class="PF07732" x="597" y="28" stroke-linejoin="round" width="7" height="24" fill="rgb(80,81,179)" stroke="rgb(63,64,143)" stroke-width="1" opacity="0.75" />
			</g>
		</g>
		<g>
			<title> (ctg1_130)</title>
			<polygon class=" (ctg1_130)" points="672,25 651,25 651,10 621,40 651,70 651,55 672,55" fill="rgb(255,255,255)" fill-opacity="1.0" stroke="rgb(0,0,0)" stroke-width="2"  />
		</g>
		<g>
			<title> (ctg1_131)</title>
			<polygon class=" (ctg1_131)" points="876,25 703,25 703,10 673,40 703,70 703,55 876,55" fill="rgb(255,255,255)" fill-opacity="1.0" stroke="rgb(0,0,0)" stroke-width="2"  />
			<g>
				<title>PS-DH (PF14765)
"Polyketide synthase dehydratase"</title>
				<polygon class="PF14765" points="680,37 689,28 707,28 707,52 689,52 680,43" stroke-linejoin="round" width="27" height="24" fill="rgb(173,56,182)" stroke="rgb(138,44,145)" stroke-width="1" opacity="0.75" />
			</g>
			<g>
				<title>KR (PF08659)
"KR domain"</title>
				<rect class="PF08659" x="714" y="28" stroke-linejoin="round" width="18" height="24" fill="rgb(66,209,188)" stroke="rgb(52,167,150)" stroke-width="1" opacity="0.75" />
			</g>
			<g>
				<title>PP-binding (PF00550)
"Phosphopantetheine attachment site"</title>
				<rect class="PF00550" x="756" y="28" stroke-linejoin="round" width="6" height="24" fill="rgb(103,191,88)" stroke="rgb(82,152,70)" stroke-width="1" opacity="0.75" />
			</g>
			<g>
				<title>PP-binding (PF00550)
"Phosphopantetheine attachment site"</title>
				<rect class="PF00550" x="765" y="28" stroke-linejoin="round" width="6" height="24" fill="rgb(103,191,88)" stroke="rgb(82,152,70)" stroke-width="1" opacity="0.75" />
			</g>
			<g>
				<title>Acyl_transf_1 (PF00698)
"Acyl transferase domain"</title>
				<rect class="PF00698" x="785" y="28" stroke-linejoin="round" width="32" height="24" fill="rgb(59,176,209)" stroke="rgb(47,140,167)" stroke-width="1" opacity="0.75" />
			</g>
			<g>
				<title>Ketoacyl-synt_C (PF02801)
"Beta-ketoacyl synthase, C-terminal domain"</title>
				<rect class="PF02801" x="834" y="28" stroke-linejoin="round" width="11" height="24" fill="rgb(215,78,102)" stroke="rgb(172,62,81)" stroke-width="1" opacity="0.75" />
			</g>
			<g>
				<title>ketoacyl-synt (PF00109)
"Beta-ketoacyl synthase, N-terminal domain"</title>
				<rect class="PF00109" x="847" y="28" stroke-linejoin="round" width="28" height="24" fill="rgb(112,116,228)" stroke="rgb(89,92,182)" stroke-width="1" opacity="0.75" />
			</g>
		</g>
		<g>
			<title> (ctg1_132)</title>
			<polygon class=" (ctg1_132)" points="972,25 929,25 929,10 899,40 929,70 929,55 972,55" fill="rgb(255,255,255)" fill-opacity="1.0" stroke="rgb(0,0,0)" stroke-width="2"  />
			<g>
				<title>DNA_pol3_gamma3 (PF12169)
"DNA polymerase III subunits gamma and tau domain III"</title>
				<rect class="PF12169" x="935" y="28" stroke-linejoin="round" width="14" height="24" fill="rgb(169,67,207)" stroke="rgb(135,53,165)" stroke-width="1" opacity="0.75" />
			</g>
			<g>
				<title>DNA_pol3_delta2 (PF13177)
"DNA polymerase III, delta subunit"</title>
				<rect class="PF13177" x="955" y="28" stroke-linejoin="round" width="16" height="24" fill="rgb(188,69,141)" stroke="rgb(150,55,112)" stroke-width="1" opacity="0.75" />
			</g>
		</g>
		<g>
			<title> (ctg1_133)</title>
			<polygon class=" (ctg1_133)" points="978,25 991,25 991,10 1021,40 991,70 991,55 978,55" fill="rgb(255,255,255)" fill-opacity="1.0" stroke="rgb(0,0,0)" stroke-width="2"  />
			<g>
				<title>Ammonium_transp (PF00909)
"Ammonium Transporter Family"</title>
				<polygon class="PF00909" points="979,28 1005,28 1017,40 1005,52 979,52" stroke-linejoin="round" width="39" height="24" fill="rgb(94,77,188)" stroke="rgb(75,61,150)" stroke-width="1" opacity="0.75" />
			</g>
		</g>
		<g>
			<title> (ctg1_134)</title>
			<polygon class=" (ctg1_134)" points="1022,40 1034,10 1034,70" fill="rgb(255,255,255)" fill-opacity="1.0" stroke="rgb(0,0,0)" stroke-width="2"  />
			<g>
				<title>CMD (PF02627)
"Carboxymuconolactone decarboxylase family"</title>
				<polygon class="PF02627" points="1025,40 1030,28 1030,28 1030,52 1030,52" stroke-linejoin="round" width="7" height="24" fill="rgb(58,205,164)" stroke="rgb(46,164,131)" stroke-width="1" opacity="0.75" />
			</g>
		</g>
		<g>
			<title> (ctg1_135)</title>
			<polygon class=" (ctg1_135)" points="1088,25 1065,25 1065,10 1035,40 1065,70 1065,55 1088,55" fill="rgb(255,255,255)" fill-opacity="1.0" stroke="rgb(0,0,0)" stroke-width="2"  />
			<g>
				<title>AMP-binding_C (PF13193)
"AMP-binding enzyme C-terminal domain"</title>
				<polygon class="PF13193" points="1039,40 1043,36 1043,44" stroke-linejoin="round" width="7" height="24" fill="rgb(182,50,118)" stroke="rgb(145,39,94)" stroke-width="1" opacity="0.75" />
			</g>
			<g>
				<title>AMP-binding (PF00501)
"AMP-binding enzyme"</title>
				<polygon class="PF00501" points="1044,35 1051,28 1086,28 1086,52 1051,52 1044,45" stroke-linejoin="round" width="42" height="24" fill="rgb(60,217,223)" stroke="rgb(48,173,178)" stroke-width="1" opacity="0.75" />
			</g>
		</g>
		<g>
			<title> (ctg1_136)</title>
			<polygon class=" (ctg1_136)" points="1088,40 1108,10 1108,70" fill="rgb(255,255,255)" fill-opacity="1.0" stroke="rgb(0,0,0)" stroke-width="2"  />
			<g>
				<title>Ser_hydrolase (PF06821)
"Serine hydrolase"</title>
				<polygon class="PF06821" points="1092,40 1100,28 1107,28 1107,52 1100,52" stroke-linejoin="round" width="17" height="24" fill="rgb(74,96,227)" stroke="rgb(59,76,181)" stroke-width="1" opacity="0.75" />
			</g>
		</g>
		<g>
			<title> (ctg1_137)</title>
			<polygon class=" (ctg1_137)" points="1154,25 1139,25 1139,10 1109,40 1139,70 1139,55 1154,55" fill="rgb(255,255,255)" fill-opacity="1.0" stroke="rgb(0,0,0)" stroke-width="2"  />
			<g>
				<title>MFS_1 (PF07690)
"Major Facilitator Superfamily"</title>
				<polygon class="PF07690" points="1119,34 1125,28 1151,28 1151,52 1125,52 1119,46" stroke-linejoin="round" width="32" height="24" fill="rgb(193,224,74)" stroke="rgb(154,179,59)" stroke-width="1" opacity="0.75" />
			</g>
		</g>
		<g>
			<title> (ctg1_138)</title>
			<polygon class=" (ctg1_138)" points="1192,25 1187,25 1187,10 1157,40 1187,70 1187,55 1192,55" fill="rgb(255,255,255)" fill-opacity="1.0" stroke="rgb(0,0,0)" stroke-width="2"  />
			<g>
				<title>BKACE (PF05853)
"beta-keto acid cleavage enzyme"</title>
				<polygon class="PF05853" points="1161,40 1173,28 1190,28 1190,52 1173,52" stroke-linejoin="round" width="30" height="24" fill="rgb(176,96,196)" stroke="rgb(140,76,156)" stroke-width="1" opacity="0.75" />
			</g>
		</g>
		<g>
			<title> (ctg1_139)</title>
			<polygon class=" (ctg1_139)" points="1224,25 1224,25 1224,10 1194,40 1224,70 1224,55 1224,55" fill="rgb(255,255,255)" fill-opacity="1.0" stroke="rgb(0,0,0)" stroke-width="2"  />
			<g>
				<title>TauD (PF02668)
"Taurine catabolism dioxygenase TauD, TfdA family"</title>
				<polygon class="PF02668" points="1198,40 1210,28 1221,28 1221,52 1210,52" stroke-linejoin="round" width="27" height="24" fill="rgb(180,79,217)" stroke="rgb(144,63,173)" stroke-width="1" opacity="0.75" />
			</g>
		</g>
		<g>
			<title> (ctg1_140)</title>
			<polygon class=" (ctg1_140)" points="1257,25 1255,25 1255,10 1225,40 1255,70 1255,55 1257,55" fill="rgb(255,255,255)" fill-opacity="1.0" stroke="rgb(0,0,0)" stroke-width="2"  />
			<g>
				<title>ADH_zinc_N (PF00107)
"Zinc-binding dehydrogenase"</title>
				<polygon class="PF00107" points="1229,40 1241,28 1241,28 1241,52 1241,52 1229,40" stroke-linejoin="round" width="12" height="24" fill="rgb(81,108,215)" stroke="rgb(64,86,172)" stroke-width="1" opacity="0.75" />
			</g>
			<g>
				<title>ADH_N (PF08240)
"Alcohol dehydrogenase GroES-like domain"</title>
				<rect class="PF08240" x="1248" y="28" stroke-linejoin="round" width="6" height="24" fill="rgb(211,65,138)" stroke="rgb(168,51,110)" stroke-width="1" opacity="0.75" />
			</g>
		</g>
		<g>
			<title> (ctg1_141)</title>
			<polygon class=" (ctg1_141)" points="1264,25 1267,25 1267,10 1297,40 1267,70 1267,55 1264,55" fill="rgb(255,255,255)" fill-opacity="1.0" stroke="rgb(0,0,0)" stroke-width="2"  />
			<g>
				<title>Arabinose_bd (PF12625)
"Arabinose-binding domain of AraC transcription regulator, N-term"</title>
				<polygon class="PF12625" points="1266,28 1281,28 1284,31 1284,49 1281,52 1266,52" stroke-linejoin="round" width="18" height="24" fill="rgb(64,208,210)" stroke="rgb(51,166,168)" stroke-width="1" opacity="0.75" />
			</g>
			<g>
				<title>HTH_18 (PF12833)
"Helix-turn-helix domain"</title>
				<polygon class="PF12833" points="1289,36 1293,40 1289,44" stroke-linejoin="round" width="7" height="24" fill="rgb(216,58,224)" stroke="rgb(172,46,179)" stroke-width="1" opacity="0.75" />
			</g>
		</g>
		<g>
			<title> (ctg1_142)</title>
			<polygon class=" (ctg1_142)" points="1331,25 1327,25 1327,10 1297,40 1327,70 1327,55 1331,55" fill="rgb(255,255,255)" fill-opacity="1.0" stroke="rgb(0,0,0)" stroke-width="2"  />
			<g>
				<title>Cons_hypoth698 (PF03601)
"Conserved hypothetical protein 698"</title>
				<polygon class="PF03601" points="1301,40 1313,28 1328,28 1328,52 1313,52" stroke-linejoin="round" width="29" height="24" fill="rgb(160,73,195)" stroke="rgb(128,58,156)" stroke-width="1" opacity="0.75" />
			</g>
		</g>
		<g>
			<title> (ctg1_143)</title>
			<polygon class=" (ctg1_143)" points="1336,25 1336,25 1336,10 1366,40 1336,70 1336,55 1336,55" fill="rgb(255,255,255)" fill-opacity="1.0" stroke="rgb(0,0,0)" stroke-width="2"  />
			<g>
				<title>HTH_1 (PF00126)
"Bacterial regulatory helix-turn-helix protein, lysR family"</title>
				<rect class="PF00126" x="1336" y="28" stroke-linejoin="round" width="5" height="24" fill="rgb(125,227,79)" stroke="rgb(99,181,63)" stroke-width="1" opacity="0.75" />
			</g>
			<g>
				<title>LysR_substrate (PF03466)
"LysR substrate binding domain"</title>
				<polygon class="PF03466" points="1345,28 1350,28 1362,40 1350,52 1345,52" stroke-linejoin="round" width="20" height="24" fill="rgb(55,136,195)" stroke="rgb(44,108,156)" stroke-width="1" opacity="0.75" />
			</g>
		</g>
		<g>
			<title> (ctg1_144)</title>
			<polygon class=" (ctg1_144)" points="1366,40 1385,10 1385,70" fill="rgb(255,255,255)" fill-opacity="1.0" stroke="rgb(0,0,0)" stroke-width="2"  />
			<g>
				<title>HhH-GPD (PF00730)
"HhH-GPD superfamily base excision DNA repair protein"</title>
				<polygon class="PF00730" points="1370,40 1378,28 1382,28 1382,52 1378,52" stroke-linejoin="round" width="16" height="24" fill="rgb(190,78,115)" stroke="rgb(152,62,92)" stroke-width="1" opacity="0.75" />
			</g>
		</g>
		<g>
			<title> (ctg1_145)</title>
			<polygon class=" (ctg1_145)" points="1431,25 1416,25 1416,10 1386,40 1416,70 1416,55 1431,55" fill="rgb(255,255,255)" fill-opacity="1.0" stroke="rgb(0,0,0)" stroke-width="2"  />
			<g>
				<title>GT87 (PF09594)
"Glycosyltransferase family 87"</title>
				<polygon class="PF09594" points="1397,33 1402,28 1420,28 1420,52 1402,52 1397,47" stroke-linejoin="round" width="23" height="24" fill="rgb(110,68,183)" stroke="rgb(87,54,146)" stroke-width="1" opacity="0.75" />
			</g>
		</g>
		<g>
			<title> (ctg1_146)</title>
			<polygon class=" (ctg1_146)" points="1478,25 1465,25 1465,10 1435,40 1465,70 1465,55 1478,55" fill="rgb(255,255,255)" fill-opacity="1.0" stroke="rgb(0,0,0)" stroke-width="2"  />
			<g>
				<title>Asp_aminotransf (PF12897)
"Aspartate amino-transferase"</title>
				<polygon class="PF12897" points="1439,40 1451,28 1476,28 1476,52 1451,52" stroke-linejoin="round" width="41" height="24" fill="rgb(170,182,87)" stroke="rgb(136,145,69)" stroke-width="1" opacity="0.75" />
			</g>
		</g>
	</g>
</svg>
