<svg version="1.1" baseProfile="full" xmlns="http://www.w3.org/2000/svg" width="748.9666666666667" height="80">
	<g>
		<line x1="10" y1="40.0" x2="738.9666666666667" y2="40.0" style="stroke:rgb(70,70,70); stroke-width:3 "/>
		<g>
			<title> (ctg6_47)</title>
			<polygon class=" (ctg6_47)" points="67,25 67,25 67,10 97,40 67,70 67,55 67,55" fill="rgb(255,255,255)" fill-opacity="1.0" stroke="rgb(0,0,0)" stroke-width="2"  />
			<g>
				<title>EamA (PF00892)
"EamA-like transporter family"</title>
				<rect class="PF00892" x="68" y="28" stroke-linejoin="round" width="13" height="24" fill="rgb(105,217,77)" stroke="rgb(84,173,61)" stroke-width="1" opacity="0.75" />
			</g>
			<g>
				<title>EamA (PF00892)
"EamA-like transporter family"</title>
				<polygon class="PF00892" points="83,30 93,40 83,50" stroke-linejoin="round" width="13" height="24" fill="rgb(105,217,77)" stroke="rgb(84,173,61)" stroke-width="1" opacity="0.75" />
			</g>
		</g>
		<g>
			<title> (ctg6_48)</title>
			<polygon class=" (ctg6_48)" points="202,25 129,25 129,10 99,40 129,70 129,55 202,55" fill="rgb(255,255,255)" fill-opacity="1.0" stroke="rgb(0,0,0)" stroke-width="2"  />
			<g>
				<title>Bgal_small_N (PF02929)
"Beta galactosidase small chain"</title>
				<polygon class="PF02929" points="103,40 115,28 125,28 125,52 115,52" stroke-linejoin="round" width="26" height="24" fill="rgb(180,83,167)" stroke="rgb(144,66,133)" stroke-width="1" opacity="0.75" />
			</g>
			<g>
				<title>LacZ_4 (PF16353)
"Beta-galactosidase, domain 4"</title>
				<rect class="PF16353" x="128" y="28" stroke-linejoin="round" width="8" height="24" fill="rgb(198,111,90)" stroke="rgb(158,88,72)" stroke-width="1" opacity="0.75" />
			</g>
			<g>
				<title>Glyco_hydro_2_C (PF02836)
"Glycosyl hydrolases family 2, TIM barrel domain"</title>
				<rect class="PF02836" x="138" y="28" stroke-linejoin="round" width="29" height="24" fill="rgb(92,103,201)" stroke="rgb(73,82,160)" stroke-width="1" opacity="0.75" />
			</g>
			<g>
				<title>Glyco_hydro_2 (PF00703)
"Glycosyl hydrolases family 2"</title>
				<rect class="PF00703" x="168" y="28" stroke-linejoin="round" width="11" height="24" fill="rgb(199,91,180)" stroke="rgb(159,72,144)" stroke-width="1" opacity="0.75" />
			</g>
			<g>
				<title>Glyco_hydro_2_N (PF02837)
"Glycosyl hydrolases family 2, sugar binding domain"</title>
				<rect class="PF02837" x="179" y="28" stroke-linejoin="round" width="17" height="24" fill="rgb(159,68,216)" stroke="rgb(127,54,172)" stroke-width="1" opacity="0.75" />
			</g>
		</g>
		<g>
			<title> (ctg6_49)</title>
			<polygon class=" (ctg6_49)" points="207,10 234,40 207,70" fill="rgb(255,255,255)" fill-opacity="1.0" stroke="rgb(0,0,0)" stroke-width="2"  />
			<g>
				<title>AraC_binding (PF02311)
"AraC-like ligand binding domain"</title>
				<polygon class="PF02311" points="208,28 219,28 221,30 221,50 219,52 208,52" stroke-linejoin="round" width="13" height="24" fill="rgb(81,203,213)" stroke="rgb(64,162,170)" stroke-width="1" opacity="0.75" />
			</g>
			<g>
				<title>HTH_18 (PF12833)
"Helix-turn-helix domain"</title>
				<polygon class="PF12833" points="226,36 230,40 226,44" stroke-linejoin="round" width="8" height="24" fill="rgb(216,58,224)" stroke="rgb(172,46,179)" stroke-width="1" opacity="0.75" />
			</g>
		</g>
		<g>
			<title> (ctg6_50)</title>
			<polygon class=" (ctg6_50)" points="239,10 254,40 239,70" fill="rgb(255,255,255)" fill-opacity="1.0" stroke="rgb(0,0,0)" stroke-width="2"  />
		</g>
		<g>
			<title> (ctg6_51)</title>
			<polygon class=" (ctg6_51)" points="260,10 276,40 260,70" fill="rgb(255,255,255)" fill-opacity="1.0" stroke="rgb(0,0,0)" stroke-width="2"  />
			<g>
				<title>Acetyltransf_3 (PF13302)
"Acetyltransferase (GNAT) domain"</title>
				<polygon class="PF13302" points="260,28 266,28 272,40 266,52 260,52" stroke-linejoin="round" width="13" height="24" fill="rgb(105,146,215)" stroke="rgb(84,116,172)" stroke-width="1" opacity="0.75" />
			</g>
		</g>
		<g>
			<title> (ctg6_52)</title>
			<polygon class=" (ctg6_52)" points="277,10 303,40 277,70" fill="rgb(255,255,255)" fill-opacity="1.0" stroke="rgb(0,0,0)" stroke-width="2"  />
			<g>
				<title>ABC_tran (PF00005)
"ABC transporter"</title>
				<polygon class="PF00005" points="278,28 289,28 293,33 293,47 289,52 278,52" stroke-linejoin="round" width="15" height="24" fill="rgb(129,201,63)" stroke="rgb(103,160,50)" stroke-width="1" opacity="0.75" />
			</g>
		</g>
		<g>
			<title> (ctg6_53)</title>
			<polygon class=" (ctg6_53)" points="303,40 309,10 309,70" fill="rgb(255,255,255)" fill-opacity="1.0" stroke="rgb(0,0,0)" stroke-width="2"  />
		</g>
		<g>
			<title> (ctg6_54)</title>
			<polygon class=" (ctg6_54)" points="313,40 331,10 331,70" fill="rgb(255,255,255)" fill-opacity="1.0" stroke="rgb(0,0,0)" stroke-width="2"  />
			<g>
				<title>Acetyltransf_3 (PF13302)
"Acetyltransferase (GNAT) domain"</title>
				<polygon class="PF13302" points="317,40 324,28 329,28 329,52 324,52" stroke-linejoin="round" width="13" height="24" fill="rgb(105,146,215)" stroke="rgb(84,116,172)" stroke-width="1" opacity="0.75" />
			</g>
		</g>
		<g>
			<title> (ctg6_55)</title>
			<polygon class=" (ctg6_55)" points="405,25 373,25 373,10 343,40 373,70 373,55 405,55" fill="rgb(255,255,255)" fill-opacity="1.0" stroke="rgb(0,0,0)" stroke-width="2"  />
			<g>
				<title>SQHop_cyclase_C (PF13243)
"Squalene-hopene cyclase C-terminal domain"</title>
				<polygon class="PF13243" points="347,40 359,28 374,28 374,52 359,52" stroke-linejoin="round" width="31" height="24" fill="rgb(191,58,201)" stroke="rgb(152,46,160)" stroke-width="1" opacity="0.75" />
			</g>
			<g>
				<title>SQHop_cyclase_N (PF13249)
"Squalene-hopene cyclase N-terminal domain"</title>
				<rect class="PF13249" x="376" y="28" stroke-linejoin="round" width="28" height="24" fill="rgb(88,190,89)" stroke="rgb(70,152,71)" stroke-width="1" opacity="0.75" />
			</g>
		</g>
		<g>
			<title> (ctg6_56)</title>
			<polygon class=" (ctg6_56)" points="410,25 414,25 414,10 444,40 414,70 414,55 410,55" fill="rgb(255,255,255)" fill-opacity="1.0" stroke="rgb(0,0,0)" stroke-width="2"  />
			<g>
				<title>AAT (PF03417)
"Acyl-coenzyme A:6-aminopenicillanic acid acyl-transferase"</title>
				<polygon class="PF03417" points="419,28 428,28 440,40 440,40 428,52 419,52" stroke-linejoin="round" width="21" height="24" fill="rgb(101,81,194)" stroke="rgb(80,64,155)" stroke-width="1" opacity="0.75" />
			</g>
		</g>
		<g>
			<title> (ctg6_57)</title>
			<polygon class=" (ctg6_57)" points="445,25 465,25 465,10 495,40 465,70 465,55 445,55" fill="rgb(255,255,255)" fill-opacity="1.0" stroke="rgb(0,0,0)" stroke-width="2"  />
			<g>
				<title>YjeF_N (PF03853)
"YjeF-related protein N-terminus"</title>
				<rect class="PF03853" x="447" y="28" stroke-linejoin="round" width="15" height="24" fill="rgb(201,202,97)" stroke="rgb(160,161,77)" stroke-width="1" opacity="0.75" />
			</g>
			<g>
				<title>Carb_kinase (PF01256)
"Carbohydrate kinase"</title>
				<polygon class="PF01256" points="469,28 478,28 490,40 478,52 469,52" stroke-linejoin="round" width="24" height="24" fill="rgb(187,173,78)" stroke="rgb(149,138,62)" stroke-width="1" opacity="0.75" />
			</g>
		</g>
		<g>
			<title> (ctg6_58)</title>
			<polygon class=" (ctg6_58)" points="500,10 508,40 500,70" fill="rgb(255,255,255)" fill-opacity="1.0" stroke="rgb(0,0,0)" stroke-width="2"  />
		</g>
		<g>
			<title> (ctg6_59)</title>
			<polygon class=" (ctg6_59)" points="510,40 539,10 539,70" fill="rgb(255,255,255)" fill-opacity="1.0" stroke="rgb(0,0,0)" stroke-width="2"  />
			<g>
				<title>PhzC-PhzF (PF02567)
"Phenazine biosynthesis-like protein"</title>
				<polygon class="PF02567" points="514,40 526,28 538,28 538,52 526,52" stroke-linejoin="round" width="28" height="24" fill="rgb(223,91,96)" stroke="rgb(178,72,76)" stroke-width="1" opacity="0.75" />
			</g>
		</g>
		<g>
			<title> (ctg6_60)</title>
			<polygon class=" (ctg6_60)" points="543,40 564,10 564,70" fill="rgb(255,255,255)" fill-opacity="1.0" stroke="rgb(0,0,0)" stroke-width="2"  />
		</g>
		<g>
			<title> (ctg6_61)</title>
			<polygon class=" (ctg6_61)" points="570,40 595,10 595,70" fill="rgb(255,255,255)" fill-opacity="1.0" stroke="rgb(0,0,0)" stroke-width="2"  />
			<g>
				<title>TauE (PF01925)
"Sulfite exporter TauE/SafE"</title>
				<polygon class="PF01925" points="574,40 584,28 594,28 594,52 584,52" stroke-linejoin="round" width="23" height="24" fill="rgb(105,203,95)" stroke="rgb(84,162,76)" stroke-width="1" opacity="0.75" />
			</g>
		</g>
		<g>
			<title> (ctg6_62)</title>
			<polygon class=" (ctg6_62)" points="600,10 625,40 600,70" fill="rgb(255,255,255)" fill-opacity="1.0" stroke="rgb(0,0,0)" stroke-width="2"  />
			<g>
				<title>TrmB (PF01978)
"Sugar-specific transcriptional regulator TrmB"</title>
				<rect class="PF01978" x="600" y="28" stroke-linejoin="round" width="6" height="24" fill="rgb(175,92,191)" stroke="rgb(139,73,152)" stroke-width="1" opacity="0.75" />
			</g>
		</g>
		<g>
			<title> (ctg6_63)</title>
			<polygon class=" (ctg6_63)" points="629,40 636,10 636,70" fill="rgb(255,255,255)" fill-opacity="1.0" stroke="rgb(0,0,0)" stroke-width="2"  />
		</g>
		<g>
			<title> (ctg6_64)</title>
			<polygon class=" (ctg6_64)" points="638,40 658,10 658,70" fill="rgb(255,255,255)" fill-opacity="1.0" stroke="rgb(0,0,0)" stroke-width="2"  />
			<g>
				<title>Flavodoxin_2 (PF02525)
"Flavodoxin-like fold"</title>
				<polygon class="PF02525" points="642,40 650,28 658,28 658,52 650,52" stroke-linejoin="round" width="20" height="24" fill="rgb(159,188,70)" stroke="rgb(127,150,56)" stroke-width="1" opacity="0.75" />
			</g>
		</g>
		<g>
			<title> (ctg6_65)</title>
			<polygon class=" (ctg6_65)" points="666,10 690,40 666,70" fill="rgb(255,255,255)" fill-opacity="1.0" stroke="rgb(0,0,0)" stroke-width="2"  />
			<g>
				<title>adh_short_C2 (PF13561)
"Enoyl-(Acyl carrier protein) reductase"</title>
				<polygon class="PF13561" points="667,28 676,28 686,40 676,52 667,52" stroke-linejoin="round" width="22" height="24" fill="rgb(73,205,127)" stroke="rgb(58,164,101)" stroke-width="1" opacity="0.75" />
			</g>
		</g>
		<g>
			<title> (ctg6_66)</title>
			<polygon class=" (ctg6_66)" points="704,10 722,40 704,70" fill="rgb(255,255,255)" fill-opacity="1.0" stroke="rgb(0,0,0)" stroke-width="2"  />
			<g>
				<title>RrnaAD (PF00398)
"Ribosomal RNA adenine dimethylase"</title>
				<polygon class="PF00398" points="705,28 711,28 718,38 718,42 711,52 705,52" stroke-linejoin="round" width="13" height="24" fill="rgb(71,217,122)" stroke="rgb(56,173,97)" stroke-width="1" opacity="0.75" />
			</g>
		</g>
	</g>
</svg>
