<svg version="1.1" baseProfile="full" xmlns="http://www.w3.org/2000/svg" width="1389.5333333333333" height="80">
	<g>
		<line x1="10" y1="40.0" x2="1379.5333333333333" y2="40.0" style="stroke:rgb(70,70,70); stroke-width:3 "/>
		<g>
			<title> (ctg1_788)</title>
			<polygon class=" (ctg1_788)" points="40,10 60,40 40,70" fill="rgb(255,255,255)" fill-opacity="1.0" stroke="rgb(0,0,0)" stroke-width="2"  />
			<g>
				<title>Response_reg (PF00072)
"Response regulator receiver domain"</title>
				<polygon class="PF00072" points="40,28 49,28 51,32 51,48 49,52 40,52" stroke-linejoin="round" width="11" height="24" fill="rgb(100,107,203)" stroke="rgb(80,85,162)" stroke-width="1" opacity="0.75" />
			</g>
			<g>
				<title>GerE (PF00196)
"Bacterial regulatory proteins, luxR family"</title>
				<polygon class="PF00196" points="54,36 57,40 54,44" stroke-linejoin="round" width="5" height="24" fill="rgb(219,94,82)" stroke="rgb(175,75,65)" stroke-width="1" opacity="0.75" />
			</g>
		</g>
		<g>
			<title> (ctg1_789)</title>
			<polygon class=" (ctg1_789)" points="66,25 91,25 91,10 121,40 91,70 91,55 66,55" fill="rgb(255,255,255)" fill-opacity="1.0" stroke="rgb(0,0,0)" stroke-width="2"  />
			<g>
				<title>Alpha-amylase (PF00128)
"Alpha amylase, catalytic domain"</title>
				<rect class="PF00128" x="68" y="28" stroke-linejoin="round" width="35" height="24" fill="rgb(72,189,149)" stroke="rgb(57,151,119)" stroke-width="1" opacity="0.75" />
			</g>
			<g>
				<title>Malt_amylase_C (PF16657)
"Maltogenic Amylase, C-terminal domain"</title>
				<polygon class="PF16657" points="113,36 117,40 113,44" stroke-linejoin="round" width="7" height="24" fill="rgb(112,65,207)" stroke="rgb(89,51,165)" stroke-width="1" opacity="0.75" />
			</g>
		</g>
		<g>
			<title> (ctg1_790)</title>
			<polygon class=" (ctg1_790)" points="128,25 136,25 136,10 166,40 136,70 136,55 128,55" fill="rgb(255,255,255)" fill-opacity="1.0" stroke="rgb(0,0,0)" stroke-width="2"  />
			<g>
				<title>THUMP (PF02926)
"THUMP domain"</title>
				<rect class="PF02926" x="129" y="28" stroke-linejoin="round" width="14" height="24" fill="rgb(52,209,163)" stroke="rgb(41,167,130)" stroke-width="1" opacity="0.75" />
			</g>
			<g>
				<title>UPF0020 (PF01170)
"Putative RNA methylase family UPF0020"</title>
				<polygon class="PF01170" points="144,28 149,28 161,40 149,52 144,52" stroke-linejoin="round" width="20" height="24" fill="rgb(89,182,69)" stroke="rgb(71,145,55)" stroke-width="1" opacity="0.75" />
			</g>
		</g>
		<g>
			<title> (ctg1_791)</title>
			<polygon class=" (ctg1_791)" points="178,10 194,40 178,70" fill="rgb(255,255,255)" fill-opacity="1.0" stroke="rgb(0,0,0)" stroke-width="2"  />
		</g>
		<g>
			<title> (ctg1_792)</title>
			<polygon class=" (ctg1_792)" points="195,40 222,10 222,70" fill="rgb(255,255,255)" fill-opacity="1.0" stroke="rgb(0,0,0)" stroke-width="2"  />
			<g>
				<title>BPD_transp_1 (PF00528)
"Binding-protein-dependent transport system inner membrane component"</title>
				<polygon class="PF00528" points="199,40 210,28 213,28 213,52 210,52" stroke-linejoin="round" width="18" height="24" fill="rgb(77,208,225)" stroke="rgb(61,166,180)" stroke-width="1" opacity="0.75" />
			</g>
		</g>
		<g>
			<title> (ctg1_793)</title>
			<polygon class=" (ctg1_793)" points="254,25 253,25 253,10 223,40 253,70 253,55 254,55" fill="rgb(255,255,255)" fill-opacity="1.0" stroke="rgb(0,0,0)" stroke-width="2"  />
			<g>
				<title>BPD_transp_1 (PF00528)
"Binding-protein-dependent transport system inner membrane component"</title>
				<polygon class="PF00528" points="227,40 239,28 243,28 243,52 239,52" stroke-linejoin="round" width="20" height="24" fill="rgb(77,208,225)" stroke="rgb(61,166,180)" stroke-width="1" opacity="0.75" />
			</g>
		</g>
		<g>
			<title> (ctg1_794)</title>
			<polygon class=" (ctg1_794)" points="295,25 284,25 284,10 254,40 284,70 284,55 295,55" fill="rgb(255,255,255)" fill-opacity="1.0" stroke="rgb(0,0,0)" stroke-width="2"  />
			<g>
				<title>SBP_bac_1 (PF01547)
"Bacterial extracellular solute-binding protein"</title>
				<polygon class="PF01547" points="262,36 270,28 291,28 291,52 270,52 262,44" stroke-linejoin="round" width="29" height="24" fill="rgb(195,119,75)" stroke="rgb(156,95,60)" stroke-width="1" opacity="0.75" />
			</g>
		</g>
		<g>
			<title> (ctg1_795)</title>
			<polygon class=" (ctg1_795)" points="333,25 327,25 327,10 297,40 327,70 327,55 333,55" fill="rgb(255,255,255)" fill-opacity="1.0" stroke="rgb(0,0,0)" stroke-width="2"  />
			<g>
				<title>OB_MalK (PF17912)
"MalK OB fold domain"</title>
				<polygon class="PF17912" points="304,37 309,32 309,48 304,43" stroke-linejoin="round" width="5" height="24" fill="rgb(107,58,183)" stroke="rgb(85,46,146)" stroke-width="1" opacity="0.75" />
			</g>
			<g>
				<title>ABC_tran (PF00005)
"ABC transporter"</title>
				<rect class="PF00005" x="317" y="28" stroke-linejoin="round" width="14" height="24" fill="rgb(129,201,63)" stroke="rgb(103,160,50)" stroke-width="1" opacity="0.75" />
			</g>
		</g>
		<g>
			<title> (ctg1_796)</title>
			<polygon class=" (ctg1_796)" points="344,10 350,40 344,70" fill="rgb(255,255,255)" fill-opacity="1.0" stroke="rgb(0,0,0)" stroke-width="2"  />
		</g>
		<g>
			<title> (ctg1_797)</title>
			<polygon class=" (ctg1_797)" points="358,25 392,25 392,10 422,40 392,70 392,55 358,55" fill="rgb(255,255,255)" fill-opacity="1.0" stroke="rgb(0,0,0)" stroke-width="2"  />
			<g>
				<title>Helicase_C_2 (PF13307)
"Helicase C-terminal domain"</title>
				<polygon class="PF13307" points="406,28 406,28 418,40 406,52 406,52" stroke-linejoin="round" width="15" height="24" fill="rgb(70,108,178)" stroke="rgb(56,86,142)" stroke-width="1" opacity="0.75" />
			</g>
		</g>
		<g>
			<title> (ctg1_798)</title>
			<polygon class=" (ctg1_798)" points="426,25 446,25 446,10 476,40 446,70 446,55 426,55" fill="rgb(255,255,255)" fill-opacity="1.0" stroke="rgb(0,0,0)" stroke-width="2"  />
			<g>
				<title>Peptidase_M32 (PF02074)
"Carboxypeptidase Taq (M32) metallopeptidase"</title>
				<polygon class="PF02074" points="427,28 460,28 472,40 460,52 427,52" stroke-linejoin="round" width="48" height="24" fill="rgb(213,142,93)" stroke="rgb(170,113,74)" stroke-width="1" opacity="0.75" />
			</g>
		</g>
		<g>
			<title> (ctg1_799)</title>
			<polygon class=" (ctg1_799)" points="487,10 506,40 487,70" fill="rgb(255,255,255)" fill-opacity="1.0" stroke="rgb(0,0,0)" stroke-width="2"  />
			<g>
				<title>Pribosyltran (PF00156)
"Phosphoribosyl transferase domain"</title>
				<polygon class="PF00156" points="490,28 495,28 503,40 495,52 490,52" stroke-linejoin="round" width="15" height="24" fill="rgb(210,210,74)" stroke="rgb(168,168,59)" stroke-width="1" opacity="0.75" />
			</g>
		</g>
		<g>
			<title> (ctg1_800)</title>
			<polygon class=" (ctg1_800)" points="507,25 520,25 520,10 550,40 520,70 520,55 507,55" fill="rgb(255,255,255)" fill-opacity="1.0" stroke="rgb(0,0,0)" stroke-width="2"  />
			<g>
				<title>Xan_ur_permease (PF00860)
"Permease family"</title>
				<polygon class="PF00860" points="507,28 534,28 545,39 545,41 534,52 507,52" stroke-linejoin="round" width="38" height="24" fill="rgb(216,88,217)" stroke="rgb(172,70,173)" stroke-width="1" opacity="0.75" />
			</g>
		</g>
		<g>
			<title> (ctg1_801)</title>
			<polygon class=" (ctg1_801)" points="555,40 583,10 583,70" fill="rgb(255,255,255)" fill-opacity="1.0" stroke="rgb(0,0,0)" stroke-width="2"  />
			<g>
				<title>LysR_substrate (PF03466)
"LysR substrate binding domain"</title>
				<polygon class="PF03466" points="559,40 570,28 575,28 575,52 570,52" stroke-linejoin="round" width="19" height="24" fill="rgb(55,136,195)" stroke="rgb(44,108,156)" stroke-width="1" opacity="0.75" />
			</g>
			<g>
				<title>HTH_1 (PF00126)
"Bacterial regulatory helix-turn-helix protein, lysR family"</title>
				<rect class="PF00126" x="577" y="28" stroke-linejoin="round" width="5" height="24" fill="rgb(125,227,79)" stroke="rgb(99,181,63)" stroke-width="1" opacity="0.75" />
			</g>
		</g>
		<g>
			<title> (ctg1_802)</title>
			<polygon class=" (ctg1_802)" points="588,25 605,25 605,10 635,40 605,70 605,55 588,55" fill="rgb(255,255,255)" fill-opacity="1.0" stroke="rgb(0,0,0)" stroke-width="2"  />
			<g>
				<title>Aldedh (PF00171)
"Aldehyde dehydrogenase family"</title>
				<polygon class="PF00171" points="589,28 619,28 631,40 619,52 589,52" stroke-linejoin="round" width="45" height="24" fill="rgb(105,213,139)" stroke="rgb(84,170,111)" stroke-width="1" opacity="0.75" />
			</g>
		</g>
		<g>
			<title> (ctg1_803)</title>
			<polygon class=" (ctg1_803)" points="651,10 669,40 651,70" fill="rgb(255,255,255)" fill-opacity="1.0" stroke="rgb(0,0,0)" stroke-width="2"  />
			<g>
				<title>Acetyltransf_4 (PF13420)
"Acetyltransferase (GNAT) domain"</title>
				<polygon class="PF13420" points="653,28 658,28 665,40 658,52 653,52" stroke-linejoin="round" width="15" height="24" fill="rgb(162,66,181)" stroke="rgb(129,52,144)" stroke-width="1" opacity="0.75" />
			</g>
		</g>
		<g>
			<title> (ctg1_804)</title>
			<polygon class=" (ctg1_804)" points="676,25 682,25 682,10 712,40 682,70 682,55 676,55" fill="rgb(255,255,255)" fill-opacity="1.0" stroke="rgb(0,0,0)" stroke-width="2"  />
			<g>
				<title>Chal_sti_synt_N (PF00195)
"Chalcone and stilbene synthases, N-terminal domain"</title>
				<polygon class="PF00195" points="681,28 695,28 696,29 696,51 695,52 681,52" stroke-linejoin="round" width="15" height="24" fill="rgb(60,181,161)" stroke="rgb(47,144,128)" stroke-width="1" opacity="0.75" />
			</g>
			<g>
				<title>Chal_sti_synt_C (PF02797)
"Chalcone and stilbene synthases, C-terminal domain"</title>
				<polygon class="PF02797" points="698,31 707,40 698,49" stroke-linejoin="round" width="13" height="24" fill="rgb(139,212,63)" stroke="rgb(111,169,50)" stroke-width="1" opacity="0.75" />
			</g>
		</g>
		<g>
			<title> (ctg1_805)</title>
			<polygon class=" (ctg1_805)" points="713,10 731,40 713,70" fill="rgb(255,255,255)" fill-opacity="1.0" stroke="rgb(0,0,0)" stroke-width="2"  />
			<g>
				<title>ICMT (PF04140)
"Isoprenylcysteine carboxyl methyltransferase (ICMT) family"</title>
				<polygon class="PF04140" points="720,28 720,28 728,40 720,52 720,52" stroke-linejoin="round" width="9" height="24" fill="rgb(100,223,104)" stroke="rgb(80,178,83)" stroke-width="1" opacity="0.75" />
			</g>
		</g>
		<g>
			<title> (ctg1_806)</title>
			<polygon class=" (ctg1_806)" points="744,25 834,25 834,10 864,40 834,70 834,55 744,55" fill="rgb(255,255,255)" fill-opacity="1.0" stroke="rgb(0,0,0)" stroke-width="2"  />
			<g>
				<title>Dynamin_N (PF00350)
"Dynamin family"</title>
				<rect class="PF00350" x="749" y="28" stroke-linejoin="round" width="15" height="24" fill="rgb(114,185,61)" stroke="rgb(91,148,48)" stroke-width="1" opacity="0.75" />
			</g>
			<g>
				<title>Dynamin_N (PF00350)
"Dynamin family"</title>
				<rect class="PF00350" x="807" y="28" stroke-linejoin="round" width="22" height="24" fill="rgb(114,185,61)" stroke="rgb(91,148,48)" stroke-width="1" opacity="0.75" />
			</g>
		</g>
		<g>
			<title> (ctg1_807)</title>
			<polygon class=" (ctg1_807)" points="865,10 890,40 865,70" fill="rgb(255,255,255)" fill-opacity="1.0" stroke="rgb(0,0,0)" stroke-width="2"  />
			<g>
				<title>RlaP (PF10127)
"RNA repair pathway DNA polymerase beta family"</title>
				<polygon class="PF10127" points="865,28 876,28 886,40 876,52 865,52" stroke-linejoin="round" width="24" height="24" fill="rgb(206,132,102)" stroke="rgb(164,105,81)" stroke-width="1" opacity="0.75" />
			</g>
		</g>
		<g>
			<title> (ctg1_808)</title>
			<polygon class=" (ctg1_808)" points="890,10 898,40 890,70" fill="rgb(255,255,255)" fill-opacity="1.0" stroke="rgb(0,0,0)" stroke-width="2"  />
			<g>
				<title>DUF2533 (PF10752)
"Protein of unknown function (DUF2533)"</title>
				<polygon class="PF10752" points="890,28 891,28 895,40 891,52 890,52" stroke-linejoin="round" width="8" height="24" fill="rgb(160,227,65)" stroke="rgb(128,181,52)" stroke-width="1" opacity="0.75" />
			</g>
		</g>
		<g>
			<title> (ctg1_809)</title>
			<polygon class=" (ctg1_809)" points="902,10 912,40 902,70" fill="rgb(255,255,255)" fill-opacity="1.0" stroke="rgb(0,0,0)" stroke-width="2"  />
		</g>
		<g>
			<title> (ctg1_810)</title>
			<polygon class=" (ctg1_810)" points="917,10 932,40 917,70" fill="rgb(255,255,255)" fill-opacity="1.0" stroke="rgb(0,0,0)" stroke-width="2"  />
			<g>
				<title>DUF212 (PF02681)
"Divergent PAP2 family"</title>
				<polygon class="PF02681" points="917,28 922,28 929,40 922,52 917,52" stroke-linejoin="round" width="14" height="24" fill="rgb(215,62,131)" stroke="rgb(172,49,104)" stroke-width="1" opacity="0.75" />
			</g>
		</g>
		<g>
			<title> (ctg1_811)</title>
			<polygon class=" (ctg1_811)" points="935,10 944,40 935,70" fill="rgb(255,255,255)" fill-opacity="1.0" stroke="rgb(0,0,0)" stroke-width="2"  />
			<g>
				<title>DUF6123 (PF19618)
"Family of unknown function (DUF6123)"</title>
				<polygon class="PF19618" points="935,28 937,28 941,40 937,52 935,52" stroke-linejoin="round" width="8" height="24" fill="rgb(76,202,151)" stroke="rgb(60,161,120)" stroke-width="1" opacity="0.75" />
			</g>
		</g>
		<g>
			<title> (ctg1_812)</title>
			<polygon class=" (ctg1_812)" points="944,40 957,10 957,70" fill="rgb(255,255,255)" fill-opacity="1.0" stroke="rgb(0,0,0)" stroke-width="2"  />
			<g>
				<title>RVT_3 (PF13456)
"Reverse transcriptase-like"</title>
				<polygon class="PF13456" points="947,40 952,28 955,28 955,52 952,52" stroke-linejoin="round" width="11" height="24" fill="rgb(198,123,86)" stroke="rgb(158,98,68)" stroke-width="1" opacity="0.75" />
			</g>
		</g>
		<g>
			<title> (ctg1_813)</title>
			<polygon class=" (ctg1_813)" points="965,10 986,40 965,70" fill="rgb(255,255,255)" fill-opacity="1.0" stroke="rgb(0,0,0)" stroke-width="2"  />
			<g>
				<title>RVT_3 (PF13456)
"Reverse transcriptase-like"</title>
				<polygon class="PF13456" points="972,28 974,28 983,40 974,52 972,52" stroke-linejoin="round" width="12" height="24" fill="rgb(198,123,86)" stroke="rgb(158,98,68)" stroke-width="1" opacity="0.75" />
			</g>
		</g>
		<g>
			<title> (ctg1_814)</title>
			<polygon class=" (ctg1_814)" points="987,10 993,40 987,70" fill="rgb(255,255,255)" fill-opacity="1.0" stroke="rgb(0,0,0)" stroke-width="2"  />
			<g>
				<title>zf-C2HCIx2C (PF10782)
"Zinc-finger"</title>
				<polygon class="PF10782" points="987,28 987,28 990,40 987,52 987,52" stroke-linejoin="round" width="5" height="24" fill="rgb(124,192,78)" stroke="rgb(99,153,62)" stroke-width="1" opacity="0.75" />
			</g>
		</g>
		<g>
			<title> (ctg1_815)</title>
			<polygon class=" (ctg1_815)" points="995,10 1004,40 995,70" fill="rgb(255,255,255)" fill-opacity="1.0" stroke="rgb(0,0,0)" stroke-width="2"  />
			<g>
				<title>DUF2564 (PF10819)
"Protein of unknown function (DUF2564)"</title>
				<polygon class="PF10819" points="996,28 996,28 1000,40 996,52 996,52" stroke-linejoin="round" width="7" height="24" fill="rgb(68,61,200)" stroke="rgb(54,48,160)" stroke-width="1" opacity="0.75" />
			</g>
		</g>
		<g>
			<title> (ctg1_816)</title>
			<polygon class=" (ctg1_816)" points="1006,40 1012,10 1012,70" fill="rgb(255,255,255)" fill-opacity="1.0" stroke="rgb(0,0,0)" stroke-width="2"  />
			<g>
				<title>CSD (PF00313)
"'Cold-shock' DNA-binding domain"</title>
				<polygon class="PF00313" points="1009,40 1012,28 1012,28 1012,52 1012,52" stroke-linejoin="round" width="6" height="24" fill="rgb(87,72,181)" stroke="rgb(69,57,144)" stroke-width="1" opacity="0.75" />
			</g>
		</g>
		<g>
			<title> (ctg1_817)</title>
			<polygon class=" (ctg1_817)" points="1022,10 1031,40 1022,70" fill="rgb(255,255,255)" fill-opacity="1.0" stroke="rgb(0,0,0)" stroke-width="2"  />
		</g>
		<g>
			<title> (ctg1_818)</title>
			<polygon class=" (ctg1_818)" points="1042,25 1053,25 1053,10 1083,40 1053,70 1053,55 1042,55" fill="rgb(255,255,255)" fill-opacity="1.0" stroke="rgb(0,0,0)" stroke-width="2"  />
			<g>
				<title>MFS_1 (PF07690)
"Major Facilitator Superfamily"</title>
				<polygon class="PF07690" points="1043,28 1067,28 1078,39 1078,41 1067,52 1043,52" stroke-linejoin="round" width="35" height="24" fill="rgb(193,224,74)" stroke="rgb(154,179,59)" stroke-width="1" opacity="0.75" />
			</g>
		</g>
		<g>
			<title> (ctg1_819)</title>
			<polygon class=" (ctg1_819)" points="1089,25 1199,25 1199,10 1229,40 1199,70 1199,55 1089,55" fill="rgb(255,255,255)" fill-opacity="1.0" stroke="rgb(0,0,0)" stroke-width="2"  />
			<g>
				<title>TPR_8 (PF13181)
"Tetratricopeptide repeat"</title>
				<rect class="PF13181" x="1108" y="28" stroke-linejoin="round" width="3" height="24" fill="rgb(182,172,47)" stroke="rgb(145,137,37)" stroke-width="1" opacity="0.75" />
			</g>
			<g>
				<title>Peptidase_C39_2 (PF13529)
"Peptidase_C39 like family"</title>
				<rect class="PF13529" x="1120" y="28" stroke-linejoin="round" width="11" height="24" fill="rgb(228,224,83)" stroke="rgb(182,179,66)" stroke-width="1" opacity="0.75" />
			</g>
			<g>
				<title>TPR_8 (PF13181)
"Tetratricopeptide repeat"</title>
				<rect class="PF13181" x="1145" y="28" stroke-linejoin="round" width="2" height="24" fill="rgb(182,172,47)" stroke="rgb(145,137,37)" stroke-width="1" opacity="0.75" />
			</g>
			<g>
				<title>TPR_16 (PF13432)
"Tetratricopeptide repeat"</title>
				<rect class="PF13432" x="1152" y="28" stroke-linejoin="round" width="5" height="24" fill="rgb(154,205,86)" stroke="rgb(123,164,68)" stroke-width="1" opacity="0.75" />
			</g>
			<g>
				<title>TPR_16 (PF13432)
"Tetratricopeptide repeat"</title>
				<rect class="PF13432" x="1160" y="28" stroke-linejoin="round" width="9" height="24" fill="rgb(154,205,86)" stroke="rgb(123,164,68)" stroke-width="1" opacity="0.75" />
			</g>
			<g>
				<title>TPR_8 (PF13181)
"Tetratricopeptide repeat"</title>
				<rect class="PF13181" x="1180" y="28" stroke-linejoin="round" width="3" height="24" fill="rgb(182,172,47)" stroke="rgb(145,137,37)" stroke-width="1" opacity="0.75" />
			</g>
			<g>
				<title>TPR_19 (PF14559)
"Tetratricopeptide repeat"</title>
				<rect class="PF14559" x="1191" y="28" stroke-linejoin="round" width="6" height="24" fill="rgb(182,60,145)" stroke="rgb(145,48,115)" stroke-width="1" opacity="0.75" />
			</g>
		</g>
		<g>
			<title> (ctg1_820)</title>
			<polygon class=" (ctg1_820)" points="1273,25 1260,25 1260,10 1230,40 1260,70 1260,55 1273,55" fill="rgb(255,255,255)" fill-opacity="1.0" stroke="rgb(0,0,0)" stroke-width="2"  />
			<g>
				<title>Xan_ur_permease (PF00860)
"Permease family"</title>
				<polygon class="PF00860" points="1234,40 1246,28 1272,28 1272,52 1246,52 1234,40" stroke-linejoin="round" width="38" height="24" fill="rgb(216,88,217)" stroke="rgb(172,70,173)" stroke-width="1" opacity="0.75" />
			</g>
		</g>
		<g>
			<title> (ctg1_821)</title>
			<polygon class=" (ctg1_821)" points="1282,10 1309,40 1282,70" fill="rgb(255,255,255)" fill-opacity="1.0" stroke="rgb(0,0,0)" stroke-width="2"  />
			<g>
				<title>Peptidase_M55 (PF04951)
"D-aminopeptidase"</title>
				<polygon class="PF04951" points="1282,28 1293,28 1305,40 1293,52 1282,52" stroke-linejoin="round" width="26" height="24" fill="rgb(94,138,195)" stroke="rgb(75,110,156)" stroke-width="1" opacity="0.75" />
			</g>
		</g>
		<g>
			<title> (ctg1_822)</title>
			<polygon class=" (ctg1_822)" points="1310,25 1311,25 1311,10 1341,40 1311,70 1311,55 1310,55" fill="rgb(255,255,255)" fill-opacity="1.0" stroke="rgb(0,0,0)" stroke-width="2"  />
			<g>
				<title>BPD_transp_1_N (PF19300)
"Binding-prot-dependent transport system membrane comp, N-term"</title>
				<rect class="PF19300" x="1310" y="28" stroke-linejoin="round" width="9" height="24" fill="rgb(201,94,75)" stroke="rgb(160,75,60)" stroke-width="1" opacity="0.75" />
			</g>
			<g>
				<title>BPD_transp_1 (PF00528)
"Binding-protein-dependent transport system inner membrane component"</title>
				<polygon class="PF00528" points="1321,28 1324,28 1336,40 1324,52 1321,52" stroke-linejoin="round" width="19" height="24" fill="rgb(77,208,225)" stroke="rgb(61,166,180)" stroke-width="1" opacity="0.75" />
			</g>
		</g>
		<g>
			<title> (ctg1_823)</title>
			<polygon class=" (ctg1_823)" points="1341,25 1342,25 1342,10 1372,40 1342,70 1342,55 1341,55" fill="rgb(255,255,255)" fill-opacity="1.0" stroke="rgb(0,0,0)" stroke-width="2"  />
			<g>
				<title>OppC_N (PF12911)
"N-terminal TM domain of oligopeptide transport permease C"</title>
				<rect class="PF12911" x="1344" y="28" stroke-linejoin="round" width="5" height="24" fill="rgb(167,178,88)" stroke="rgb(133,142,70)" stroke-width="1" opacity="0.75" />
			</g>
			<g>
				<title>BPD_transp_1 (PF00528)
"Binding-protein-dependent transport system inner membrane component"</title>
				<polygon class="PF00528" points="1353,28 1356,28 1368,40 1356,52 1353,52" stroke-linejoin="round" width="18" height="24" fill="rgb(77,208,225)" stroke="rgb(61,166,180)" stroke-width="1" opacity="0.75" />
			</g>
		</g>
	</g>
</svg>
