<svg version="1.1" baseProfile="full" xmlns="http://www.w3.org/2000/svg" width="715.5666666666667" height="80">
	<g>
		<line x1="10" y1="40.0" x2="705.5666666666667" y2="40.0" style="stroke:rgb(70,70,70); stroke-width:3 "/>
		<g>
			<title> (ctg14_22)</title>
			<polygon class=" (ctg14_22)" points="30,40 54,10 54,70" fill="rgb(255,255,255)" fill-opacity="1.0" stroke="rgb(0,0,0)" stroke-width="2"  />
			<g>
				<title>RskA (PF10099)
"Anti-sigma-K factor rskA"</title>
				<polygon class="PF10099" points="34,40 44,28 48,28 48,52 44,52" stroke-linejoin="round" width="18" height="24" fill="rgb(84,179,192)" stroke="rgb(67,143,153)" stroke-width="1" opacity="0.75" />
			</g>
			<g>
				<title>zf-HC2 (PF13490)
"Putative zinc-finger"</title>
				<rect class="PF13490" x="50" y="28" stroke-linejoin="round" width="3" height="24" fill="rgb(179,173,84)" stroke="rgb(143,138,67)" stroke-width="1" opacity="0.75" />
			</g>
		</g>
		<g>
			<title> (ctg14_23)</title>
			<polygon class=" (ctg14_23)" points="54,40 72,10 72,70" fill="rgb(255,255,255)" fill-opacity="1.0" stroke="rgb(0,0,0)" stroke-width="2"  />
			<g>
				<title>Sigma70_r4_2 (PF08281)
"Sigma-70, region 4"</title>
				<polygon class="PF08281" points="58,40 60,37 60,43" stroke-linejoin="round" width="5" height="24" fill="rgb(222,103,144)" stroke="rgb(177,82,115)" stroke-width="1" opacity="0.75" />
			</g>
			<g>
				<title>Sigma70_r2 (PF04542)
"Sigma-70 region 2"</title>
				<polygon class="PF04542" points="63,32 65,28 69,28 69,52 65,52 63,48" stroke-linejoin="round" width="6" height="24" fill="rgb(184,59,197)" stroke="rgb(147,47,157)" stroke-width="1" opacity="0.75" />
			</g>
		</g>
		<g>
			<title> (ctg14_24)</title>
			<polygon class=" (ctg14_24)" points="90,25 90,25 90,10 120,40 90,70 90,55 90,55" fill="rgb(255,255,255)" fill-opacity="1.0" stroke="rgb(0,0,0)" stroke-width="2"  />
			<g>
				<title>YitT_membrane (PF02588)
"Uncharacterised 5xTM membrane BCR, YitT family COG1284"</title>
				<polygon class="PF02588" points="92,28 103,28 112,37 112,43 103,52 92,52" stroke-linejoin="round" width="20" height="24" fill="rgb(155,63,204)" stroke="rgb(123,50,163)" stroke-width="1" opacity="0.75" />
			</g>
			<g>
				<title>DUF2179 (PF10035)
"Uncharacterized protein conserved in bacteria (DUF2179)"</title>
				<polygon class="PF10035" points="113,38 115,40 113,42" stroke-linejoin="round" width="5" height="24" fill="rgb(210,106,80)" stroke="rgb(168,84,64)" stroke-width="1" opacity="0.75" />
			</g>
		</g>
		<g>
			<title> (ctg14_25)</title>
			<polygon class=" (ctg14_25)" points="124,10 149,40 124,70" fill="rgb(255,255,255)" fill-opacity="1.0" stroke="rgb(0,0,0)" stroke-width="2"  />
			<g>
				<title>Rce1-like (PF02517)
"Type II CAAX prenyl endopeptidase Rce1-like"</title>
				<polygon class="PF02517" points="124,28 135,28 145,40 135,52 124,52" stroke-linejoin="round" width="23" height="24" fill="rgb(150,86,216)" stroke="rgb(120,68,172)" stroke-width="1" opacity="0.75" />
			</g>
		</g>
		<g>
			<title> (ctg14_26)</title>
			<polygon class=" (ctg14_26)" points="152,40 160,10 160,70" fill="rgb(255,255,255)" fill-opacity="1.0" stroke="rgb(0,0,0)" stroke-width="2"  />
		</g>
		<g>
			<title> (ctg14_27)</title>
			<polygon class=" (ctg14_27)" points="164,10 179,40 164,70" fill="rgb(255,255,255)" fill-opacity="1.0" stroke="rgb(0,0,0)" stroke-width="2"  />
			<g>
				<title>Acetyltransf_1 (PF00583)
"Acetyltransferase (GNAT) family"</title>
				<polygon class="PF00583" points="164,28 169,28 174,37 174,43 169,52 164,52" stroke-linejoin="round" width="10" height="24" fill="rgb(121,183,50)" stroke="rgb(96,146,39)" stroke-width="1" opacity="0.75" />
			</g>
		</g>
		<g>
			<title> (ctg14_28)</title>
			<polygon class=" (ctg14_28)" points="181,10 195,40 181,70" fill="rgb(255,255,255)" fill-opacity="1.0" stroke="rgb(0,0,0)" stroke-width="2"  />
			<g>
				<title>OsmC (PF02566)
"OsmC-like protein"</title>
				<polygon class="PF02566" points="184,28 185,28 191,40 185,52 184,52" stroke-linejoin="round" width="9" height="24" fill="rgb(161,56,212)" stroke="rgb(128,44,169)" stroke-width="1" opacity="0.75" />
			</g>
		</g>
		<g>
			<title> (ctg14_29)</title>
			<polygon class=" (ctg14_29)" points="197,40 221,10 221,70" fill="rgb(255,255,255)" fill-opacity="1.0" stroke="rgb(0,0,0)" stroke-width="2"  />
			<g>
				<title>Peptidase_M24 (PF00557)
"Metallopeptidase family M24"</title>
				<polygon class="PF00557" points="201,40 211,28 220,28 220,52 211,52" stroke-linejoin="round" width="23" height="24" fill="rgb(217,177,88)" stroke="rgb(173,141,70)" stroke-width="1" opacity="0.75" />
			</g>
		</g>
		<g>
			<title> (ctg14_30)</title>
			<polygon class=" (ctg14_30)" points="237,10 244,40 237,70" fill="rgb(255,255,255)" fill-opacity="1.0" stroke="rgb(0,0,0)" stroke-width="2"  />
		</g>
		<g>
			<title> (ctg14_31)</title>
			<polygon class=" (ctg14_31)" points="249,40 259,10 259,70" fill="rgb(255,255,255)" fill-opacity="1.0" stroke="rgb(0,0,0)" stroke-width="2"  />
			<g>
				<title>HxlR (PF01638)
"HxlR-like helix-turn-helix"</title>
				<polygon class="PF01638" points="252,40 256,28 257,28 257,52 256,52" stroke-linejoin="round" width="8" height="24" fill="rgb(91,150,227)" stroke="rgb(72,119,181)" stroke-width="1" opacity="0.75" />
			</g>
		</g>
		<g>
			<title> (ctg14_32)</title>
			<polygon class=" (ctg14_32)" points="265,10 293,40 265,70" fill="rgb(255,255,255)" fill-opacity="1.0" stroke="rgb(0,0,0)" stroke-width="2"  />
			<g>
				<title>Glyoxalase (PF00903)
"Glyoxalase/Bleomycin resistance protein/Dioxygenase superfamily"</title>
				<rect class="PF00903" x="266" y="28" stroke-linejoin="round" width="11" height="24" fill="rgb(50,162,189)" stroke="rgb(40,129,151)" stroke-width="1" opacity="0.75" />
			</g>
			<g>
				<title>Glyoxalase (PF00903)
"Glyoxalase/Bleomycin resistance protein/Dioxygenase superfamily"</title>
				<polygon class="PF00903" points="281,32 289,40 281,48" stroke-linejoin="round" width="11" height="24" fill="rgb(50,162,189)" stroke="rgb(40,129,151)" stroke-width="1" opacity="0.75" />
			</g>
		</g>
		<g>
			<title> (ctg14_33)</title>
			<polygon class=" (ctg14_33)" points="296,10 309,40 296,70" fill="rgb(255,255,255)" fill-opacity="1.0" stroke="rgb(0,0,0)" stroke-width="2"  />
		</g>
		<g>
			<title> (ctg14_34)</title>
			<polygon class=" (ctg14_34)" points="312,40 340,10 340,70" fill="rgb(255,255,255)" fill-opacity="1.0" stroke="rgb(0,0,0)" stroke-width="2"  />
			<g>
				<title>adh_short (PF00106)
"short chain dehydrogenase"</title>
				<polygon class="PF00106" points="320,36 327,28 339,28 339,52 327,52 320,44" stroke-linejoin="round" width="19" height="24" fill="rgb(182,219,73)" stroke="rgb(145,175,58)" stroke-width="1" opacity="0.75" />
			</g>
		</g>
		<g>
			<title> (ctg14_35)</title>
			<polygon class=" (ctg14_35)" points="343,40 371,10 371,70" fill="rgb(255,255,255)" fill-opacity="1.0" stroke="rgb(0,0,0)" stroke-width="2"  />
			<g>
				<title>SQS_PSY (PF00494)
"Squalene/phytoene synthase"</title>
				<polygon class="PF00494" points="349,38 359,28 367,28 367,52 359,52 349,42" stroke-linejoin="round" width="18" height="24" fill="rgb(178,91,49)" stroke="rgb(142,72,39)" stroke-width="1" opacity="0.75" />
			</g>
		</g>
		<g>
			<title> (ctg14_36)</title>
			<polygon class=" (ctg14_36)" points="383,25 401,25 401,10 431,40 401,70 401,55 383,55" fill="rgb(255,255,255)" fill-opacity="1.0" stroke="rgb(0,0,0)" stroke-width="2"  />
			<g>
				<title>Catalase (PF00199)
"Catalase"</title>
				<polygon class="PF00199" points="383,28 415,28 421,34 421,46 415,52 383,52" stroke-linejoin="round" width="38" height="24" fill="rgb(191,89,74)" stroke="rgb(152,71,59)" stroke-width="1" opacity="0.75" />
			</g>
			<g>
				<title>Catalase-rel (PF06628)
"Catalase-related immune-responsive"</title>
				<polygon class="PF06628" points="424,37 427,40 424,43" stroke-linejoin="round" width="6" height="24" fill="rgb(79,179,148)" stroke="rgb(63,143,118)" stroke-width="1" opacity="0.75" />
			</g>
		</g>
		<g>
			<title> (ctg14_37)</title>
			<polygon class=" (ctg14_37)" points="492,25 489,25 489,10 459,40 489,70 489,55 492,55" fill="rgb(255,255,255)" fill-opacity="1.0" stroke="rgb(0,0,0)" stroke-width="2"  />
			<g>
				<title>DUF3231 (PF11553)
"Protein of unknown function (DUF3231)"</title>
				<polygon class="PF11553" points="463,40 475,28 475,28 475,52 475,52" stroke-linejoin="round" width="16" height="24" fill="rgb(199,128,68)" stroke="rgb(159,102,54)" stroke-width="1" opacity="0.75" />
			</g>
			<g>
				<title>DUF3231 (PF11553)
"Protein of unknown function (DUF3231)"</title>
				<rect class="PF11553" x="476" y="28" stroke-linejoin="round" width="16" height="24" fill="rgb(199,128,68)" stroke="rgb(159,102,54)" stroke-width="1" opacity="0.75" />
			</g>
		</g>
		<g>
			<title> (ctg14_38)</title>
			<polygon class=" (ctg14_38)" points="501,40 520,10 520,70" fill="rgb(255,255,255)" fill-opacity="1.0" stroke="rgb(0,0,0)" stroke-width="2"  />
		</g>
		<g>
			<title> (ctg14_39)</title>
			<polygon class=" (ctg14_39)" points="521,40 532,10 532,70" fill="rgb(255,255,255)" fill-opacity="1.0" stroke="rgb(0,0,0)" stroke-width="2"  />
			<g>
				<title>PTH2 (PF01981)
"Peptidyl-tRNA hydrolase PTH2"</title>
				<polygon class="PF01981" points="524,40 528,28 531,28 531,52 528,52" stroke-linejoin="round" width="10" height="24" fill="rgb(140,74,189)" stroke="rgb(112,59,151)" stroke-width="1" opacity="0.75" />
			</g>
		</g>
		<g>
			<title> (ctg14_40)</title>
			<polygon class=" (ctg14_40)" points="533,40 542,10 542,70" fill="rgb(255,255,255)" fill-opacity="1.0" stroke="rgb(0,0,0)" stroke-width="2"  />
		</g>
		<g>
			<title> (ctg14_41)</title>
			<polygon class=" (ctg14_41)" points="546,40 568,10 568,70" fill="rgb(255,255,255)" fill-opacity="1.0" stroke="rgb(0,0,0)" stroke-width="2"  />
			<g>
				<title>Peptidase_M50B (PF13398)
"Peptidase M50B-like"</title>
				<polygon class="PF13398" points="550,40 559,28 567,28 567,52 559,52" stroke-linejoin="round" width="20" height="24" fill="rgb(182,98,63)" stroke="rgb(145,78,50)" stroke-width="1" opacity="0.75" />
			</g>
		</g>
		<g>
			<title> (ctg14_42)</title>
			<polygon class=" (ctg14_42)" points="587,25 589,25 589,10 619,40 589,70 589,55 587,55" fill="rgb(255,255,255)" fill-opacity="1.0" stroke="rgb(0,0,0)" stroke-width="2"  />
			<g>
				<title>ADH_N (PF08240)
"Alcohol dehydrogenase GroES-like domain"</title>
				<rect class="PF08240" x="589" y="28" stroke-linejoin="round" width="6" height="24" fill="rgb(211,65,138)" stroke="rgb(168,51,110)" stroke-width="1" opacity="0.75" />
			</g>
			<g>
				<title>ADH_zinc_N (PF00107)
"Zinc-binding dehydrogenase"</title>
				<polygon class="PF00107" points="602,28 603,28 615,40 615,40 603,52 602,52" stroke-linejoin="round" width="13" height="24" fill="rgb(81,108,215)" stroke="rgb(64,86,172)" stroke-width="1" opacity="0.75" />
			</g>
		</g>
		<g>
			<title> (ctg14_43)</title>
			<polygon class=" (ctg14_43)" points="620,40 641,10 641,70" fill="rgb(255,255,255)" fill-opacity="1.0" stroke="rgb(0,0,0)" stroke-width="2"  />
			<g>
				<title>TMP-TENI (PF02581)
"Thiamine monophosphate synthase"</title>
				<polygon class="PF02581" points="624,40 633,28 640,28 640,52 633,52" stroke-linejoin="round" width="18" height="24" fill="rgb(198,51,163)" stroke="rgb(158,40,130)" stroke-width="1" opacity="0.75" />
			</g>
		</g>
		<g>
			<title> (ctg14_44)</title>
			<polygon class=" (ctg14_44)" points="642,40 669,10 669,70" fill="rgb(255,255,255)" fill-opacity="1.0" stroke="rgb(0,0,0)" stroke-width="2"  />
			<g>
				<title>Phos_pyr_kin (PF08543)
"Phosphomethylpyrimidine kinase"</title>
				<polygon class="PF08543" points="646,40 657,28 667,28 667,52 657,52" stroke-linejoin="round" width="24" height="24" fill="rgb(91,84,223)" stroke="rgb(72,67,178)" stroke-width="1" opacity="0.75" />
			</g>
		</g>
		<g>
			<title> (ctg14_45)</title>
			<polygon class=" (ctg14_45)" points="670,40 697,10 697,70" fill="rgb(255,255,255)" fill-opacity="1.0" stroke="rgb(0,0,0)" stroke-width="2"  />
			<g>
				<title>HK (PF02110)
"Hydroxyethylthiazole kinase family"</title>
				<polygon class="PF02110" points="674,40 685,28 695,28 695,52 685,52" stroke-linejoin="round" width="24" height="24" fill="rgb(167,92,213)" stroke="rgb(133,73,170)" stroke-width="1" opacity="0.75" />
			</g>
		</g>
	</g>
</svg>
