<svg version="1.1" baseProfile="full" xmlns="http://www.w3.org/2000/svg" width="766.1333333333333" height="80">
	<g>
		<line x1="10" y1="40.0" x2="756.1333333333333" y2="40.0" style="stroke:rgb(70,70,70); stroke-width:3 "/>
		<g>
			<title> (ctg1_659)</title>
			<polygon class=" (ctg1_659)" points="25,40 39,10 39,70" fill="rgb(255,255,255)" fill-opacity="1.0" stroke="rgb(0,0,0)" stroke-width="2"  />
			<g>
				<title>Metal_resist (PF13801)
"Heavy-metal resistance"</title>
				<polygon class="PF13801" points="28,40 34,28 38,28 38,52 34,52" stroke-linejoin="round" width="12" height="24" fill="rgb(204,215,92)" stroke="rgb(163,172,73)" stroke-width="1" opacity="0.75" />
			</g>
		</g>
		<g>
			<title> (ctg1_660)</title>
			<polygon class=" (ctg1_660)" points="40,40 48,10 48,70" fill="rgb(255,255,255)" fill-opacity="1.0" stroke="rgb(0,0,0)" stroke-width="2"  />
		</g>
		<g>
			<title> (ctg1_661)</title>
			<polygon class=" (ctg1_661)" points="54,40 72,10 72,70" fill="rgb(255,255,255)" fill-opacity="1.0" stroke="rgb(0,0,0)" stroke-width="2"  />
			<g>
				<title>CopD (PF05425)
"Copper resistance protein D"</title>
				<polygon class="PF05425" points="57,40 64,28 65,28 65,52 64,52" stroke-linejoin="round" width="10" height="24" fill="rgb(94,216,110)" stroke="rgb(75,172,88)" stroke-width="1" opacity="0.75" />
			</g>
		</g>
		<g>
			<title> (ctg1_662)</title>
			<polygon class=" (ctg1_662)" points="78,10 82,40 78,70" fill="rgb(255,255,255)" fill-opacity="1.0" stroke="rgb(0,0,0)" stroke-width="2"  />
		</g>
		<g>
			<title> (ctg1_663)</title>
			<polygon class=" (ctg1_663)" points="95,40 103,10 103,70" fill="rgb(255,255,255)" fill-opacity="1.0" stroke="rgb(0,0,0)" stroke-width="2"  />
			<g>
				<title>GerE (PF00196)
"Bacterial regulatory proteins, luxR family"</title>
				<polygon class="PF00196" points="98,40 101,28 101,28 101,52 101,52" stroke-linejoin="round" width="5" height="24" fill="rgb(219,94,82)" stroke="rgb(175,75,65)" stroke-width="1" opacity="0.75" />
			</g>
		</g>
		<g>
			<title> (ctg1_664)</title>
			<polygon class=" (ctg1_664)" points="114,10 130,40 114,70" fill="rgb(255,255,255)" fill-opacity="1.0" stroke="rgb(0,0,0)" stroke-width="2"  />
			<g>
				<title>Sigma70_r2 (PF04542)
"Sigma-70 region 2"</title>
				<polygon class="PF04542" points="115,28 120,28 121,30 121,50 120,52 115,52" stroke-linejoin="round" width="6" height="24" fill="rgb(184,59,197)" stroke="rgb(147,47,157)" stroke-width="1" opacity="0.75" />
			</g>
			<g>
				<title>Sigma70_r4_2 (PF08281)
"Sigma-70, region 4"</title>
				<polygon class="PF08281" points="124,35 126,40 124,45" stroke-linejoin="round" width="5" height="24" fill="rgb(222,103,144)" stroke="rgb(177,82,115)" stroke-width="1" opacity="0.75" />
			</g>
		</g>
		<g>
			<title> (ctg1_665)</title>
			<polygon class=" (ctg1_665)" points="131,25 133,25 133,10 163,40 133,70 133,55 131,55" fill="rgb(255,255,255)" fill-opacity="1.0" stroke="rgb(0,0,0)" stroke-width="2"  />
			<g>
				<title>DUF4880 (PF16220)
"Domain of unknown function (DUF4880)"</title>
				<rect class="PF16220" x="132" y="28" stroke-linejoin="round" width="4" height="24" fill="rgb(72,211,78)" stroke="rgb(57,168,62)" stroke-width="1" opacity="0.75" />
			</g>
			<g>
				<title>FecR (PF04773)
"FecR protein"</title>
				<polygon class="PF04773" points="142,28 147,28 151,32 151,48 147,52 142,52" stroke-linejoin="round" width="9" height="24" fill="rgb(186,67,139)" stroke="rgb(148,53,111)" stroke-width="1" opacity="0.75" />
			</g>
		</g>
		<g>
			<title> (ctg1_666)</title>
			<polygon class=" (ctg1_666)" points="167,25 235,25 235,10 265,40 235,70 235,55 167,55" fill="rgb(255,255,255)" fill-opacity="1.0" stroke="rgb(0,0,0)" stroke-width="2"  />
			<g>
				<title>STN (PF07660)
"Secretin and TonB N terminus short domain"</title>
				<rect class="PF07660" x="172" y="28" stroke-linejoin="round" width="5" height="24" fill="rgb(78,190,205)" stroke="rgb(62,152,164)" stroke-width="1" opacity="0.75" />
			</g>
			<g>
				<title>Plug (PF07715)
"TonB-dependent Receptor Plug Domain"</title>
				<rect class="PF07715" x="179" y="28" stroke-linejoin="round" width="12" height="24" fill="rgb(99,133,214)" stroke="rgb(79,106,171)" stroke-width="1" opacity="0.75" />
			</g>
			<g>
				<title>TonB_dep_Rec (PF00593)
"TonB dependent receptor"</title>
				<polygon class="PF00593" points="210,28 249,28 261,40 249,52 210,52" stroke-linejoin="round" width="54" height="24" fill="rgb(171,200,51)" stroke="rgb(136,160,40)" stroke-width="1" opacity="0.75" />
			</g>
		</g>
		<g>
			<title> (ctg1_667)</title>
			<polygon class=" (ctg1_667)" points="265,25 314,25 314,10 344,40 314,70 314,55 265,55" fill="rgb(255,255,255)" fill-opacity="1.0" stroke="rgb(0,0,0)" stroke-width="2"  />
			<g>
				<title>Peptidase_S9 (PF00326)
"Prolyl oligopeptidase family"</title>
				<polygon class="PF00326" points="323,28 328,28 340,40 328,52 323,52" stroke-linejoin="round" width="18" height="24" fill="rgb(77,97,209)" stroke="rgb(61,77,167)" stroke-width="1" opacity="0.75" />
			</g>
		</g>
		<g>
			<title> (ctg1_668)</title>
			<polygon class=" (ctg1_668)" points="400,25 373,25 373,10 343,40 373,70 373,55 400,55" fill="rgb(255,255,255)" fill-opacity="1.0" stroke="rgb(0,0,0)" stroke-width="2"  />
			<g>
				<title>Asn_synthase (PF00733)
"Asparagine synthase"</title>
				<polygon class="PF00733" points="347,40 359,28 378,28 378,52 359,52" stroke-linejoin="round" width="34" height="24" fill="rgb(97,201,176)" stroke="rgb(77,160,140)" stroke-width="1" opacity="0.75" />
			</g>
		</g>
		<g>
			<title> (ctg1_669)</title>
			<polygon class=" (ctg1_669)" points="400,40 422,10 422,70" fill="rgb(255,255,255)" fill-opacity="1.0" stroke="rgb(0,0,0)" stroke-width="2"  />
			<g>
				<title>Transglut_core3 (PF13471)
"Transglutaminase-like superfamily"</title>
				<polygon class="PF13471" points="404,40 411,31 411,49" stroke-linejoin="round" width="11" height="24" fill="rgb(63,111,179)" stroke="rgb(50,88,143)" stroke-width="1" opacity="0.75" />
			</g>
		</g>
		<g>
			<title> (ctg1_670)</title>
			<polygon class=" (ctg1_670)" points="425,40 429,10 429,70" fill="rgb(255,255,255)" fill-opacity="1.0" stroke="rgb(0,0,0)" stroke-width="2"  />
		</g>
		<g>
			<title> (ctg1_671)</title>
			<polygon class=" (ctg1_671)" points="432,40 436,10 436,70" fill="rgb(255,255,255)" fill-opacity="1.0" stroke="rgb(0,0,0)" stroke-width="2"  />
		</g>
		<g>
			<title> (ctg1_672)</title>
			<polygon class=" (ctg1_672)" points="439,40 458,10 458,70" fill="rgb(255,255,255)" fill-opacity="1.0" stroke="rgb(0,0,0)" stroke-width="2"  />
			<g>
				<title>GntR (PF00392)
"Bacterial regulatory proteins, gntR family"</title>
				<polygon class="PF00392" points="451,28 451,28 456,28 456,52 451,52 451,52" stroke-linejoin="round" width="5" height="24" fill="rgb(160,85,194)" stroke="rgb(127,68,155)" stroke-width="1" opacity="0.75" />
			</g>
		</g>
		<g>
			<title> (ctg1_673)</title>
			<polygon class=" (ctg1_673)" points="465,10 482,40 465,70" fill="rgb(255,255,255)" fill-opacity="1.0" stroke="rgb(0,0,0)" stroke-width="2"  />
		</g>
		<g>
			<title> (ctg1_674)</title>
			<polygon class=" (ctg1_674)" points="496,10 516,40 496,70" fill="rgb(255,255,255)" fill-opacity="1.0" stroke="rgb(0,0,0)" stroke-width="2"  />
			<g>
				<title>SLT (PF01464)
"Transglycosylase SLT domain"</title>
				<polygon class="PF01464" points="496,28 504,28 510,36 510,44 504,52 496,52" stroke-linejoin="round" width="14" height="24" fill="rgb(181,60,156)" stroke="rgb(144,47,124)" stroke-width="1" opacity="0.75" />
			</g>
		</g>
		<g>
			<title> (ctg1_675)</title>
			<polygon class=" (ctg1_675)" points="517,10 527,40 517,70" fill="rgb(255,255,255)" fill-opacity="1.0" stroke="rgb(0,0,0)" stroke-width="2"  />
			<g>
				<title>TrbC (PF04956)
"TrbC/VIRB2 pilin"</title>
				<polygon class="PF04956" points="517,28 519,28 524,40 519,52 517,52" stroke-linejoin="round" width="9" height="24" fill="rgb(187,95,220)" stroke="rgb(149,76,176)" stroke-width="1" opacity="0.75" />
			</g>
		</g>
		<g>
			<title> (ctg1_676)</title>
			<polygon class=" (ctg1_676)" points="527,10 533,40 527,70" fill="rgb(255,255,255)" fill-opacity="1.0" stroke="rgb(0,0,0)" stroke-width="2"  />
		</g>
		<g>
			<title> (ctg1_677)</title>
			<polygon class=" (ctg1_677)" points="533,10 544,40 533,70" fill="rgb(255,255,255)" fill-opacity="1.0" stroke="rgb(0,0,0)" stroke-width="2"  />
			<g>
				<title>VirB3 (PF05101)
"Type IV secretory pathway, VirB3-like protein"</title>
				<polygon class="PF05101" points="533,28 536,28 540,40 536,52 533,52" stroke-linejoin="round" width="8" height="24" fill="rgb(204,170,99)" stroke="rgb(163,136,79)" stroke-width="1" opacity="0.75" />
			</g>
		</g>
		<g>
			<title> (ctg1_678)</title>
			<polygon class=" (ctg1_678)" points="544,25 593,25 593,10 623,40 593,70 593,55 544,55" fill="rgb(255,255,255)" fill-opacity="1.0" stroke="rgb(0,0,0)" stroke-width="2"  />
			<g>
				<title>CagE_TrbE_VirB (PF03135)
"CagE, TrbE, VirB family, component of type IV transporter system"</title>
				<rect class="PF03135" x="562" y="28" stroke-linejoin="round" width="20" height="24" fill="rgb(185,101,220)" stroke="rgb(148,80,176)" stroke-width="1" opacity="0.75" />
			</g>
			<g>
				<title>P-loop_TraG (PF19044)
"TraG P-loop domain"</title>
				<rect class="PF19044" x="587" y="28" stroke-linejoin="round" width="12" height="24" fill="rgb(62,200,225)" stroke="rgb(49,160,180)" stroke-width="1" opacity="0.75" />
			</g>
			<g>
				<title>P-loop_TraG (PF19044)
"TraG P-loop domain"</title>
				<polygon class="PF19044" points="600,28 606,28 616,38 616,42 606,52 600,52" stroke-linejoin="round" width="16" height="24" fill="rgb(62,200,225)" stroke="rgb(49,160,180)" stroke-width="1" opacity="0.75" />
			</g>
		</g>
		<g>
			<title> (ctg1_679)</title>
			<polygon class=" (ctg1_679)" points="623,10 647,40 623,70" fill="rgb(255,255,255)" fill-opacity="1.0" stroke="rgb(0,0,0)" stroke-width="2"  />
			<g>
				<title>T4SS (PF07996)
"Type IV secretion system proteins"</title>
				<polygon class="PF07996" points="625,28 634,28 643,40 634,52 625,52" stroke-linejoin="round" width="19" height="24" fill="rgb(69,181,135)" stroke="rgb(55,144,108)" stroke-width="1" opacity="0.75" />
			</g>
		</g>
		<g>
			<title> (ctg1_680)</title>
			<polygon class=" (ctg1_680)" points="647,10 654,40 647,70" fill="rgb(255,255,255)" fill-opacity="1.0" stroke="rgb(0,0,0)" stroke-width="2"  />
		</g>
		<g>
			<title> (ctg1_681)</title>
			<polygon class=" (ctg1_681)" points="655,25 655,25 655,10 685,40 655,70 655,55 655,55" fill="rgb(255,255,255)" fill-opacity="1.0" stroke="rgb(0,0,0)" stroke-width="2"  />
			<g>
				<title>TrbL (PF04610)
"TrbL/VirB6 plasmid conjugal transfer protein"</title>
				<polygon class="PF04610" points="659,28 669,28 680,39 680,41 669,52 659,52" stroke-linejoin="round" width="21" height="24" fill="rgb(85,67,187)" stroke="rgb(68,53,149)" stroke-width="1" opacity="0.75" />
			</g>
		</g>
		<g>
			<title> (ctg1_682)</title>
			<polygon class=" (ctg1_682)" points="686,10 692,40 686,70" fill="rgb(255,255,255)" fill-opacity="1.0" stroke="rgb(0,0,0)" stroke-width="2"  />
		</g>
		<g>
			<title> (ctg1_683)</title>
			<polygon class=" (ctg1_683)" points="692,10 714,40 692,70" fill="rgb(255,255,255)" fill-opacity="1.0" stroke="rgb(0,0,0)" stroke-width="2"  />
			<g>
				<title>VirB8 (PF04335)
"VirB8 protein"</title>
				<polygon class="PF04335" points="693,28 702,28 711,40 702,52 693,52" stroke-linejoin="round" width="20" height="24" fill="rgb(214,55,192)" stroke="rgb(171,44,153)" stroke-width="1" opacity="0.75" />
			</g>
		</g>
		<g>
			<title> (ctg1_684)</title>
			<polygon class=" (ctg1_684)" points="715,10 742,40 715,70" fill="rgb(255,255,255)" fill-opacity="1.0" stroke="rgb(0,0,0)" stroke-width="2"  />
			<g>
				<title>CagX (PF03524)
"Conjugal transfer protein"</title>
				<polygon class="PF03524" points="717,28 726,28 738,40 738,40 726,52 717,52" stroke-linejoin="round" width="21" height="24" fill="rgb(219,189,104)" stroke="rgb(175,151,83)" stroke-width="1" opacity="0.75" />
			</g>
		</g>
	</g>
</svg>
