<svg version="1.1" baseProfile="full" xmlns="http://www.w3.org/2000/svg" width="758.9666666666667" height="80">
	<g>
		<line x1="10" y1="40.0" x2="748.9666666666667" y2="40.0" style="stroke:rgb(70,70,70); stroke-width:3 "/>
		<g>
			<title> (ctg3_278)</title>
			<polygon class=" (ctg3_278)" points="37,10 55,40 37,70" fill="rgb(255,255,255)" fill-opacity="1.0" stroke="rgb(0,0,0)" stroke-width="2"  />
			<g>
				<title>His_Phos_1 (PF00300)
"Histidine phosphatase superfamily (branch 1)"</title>
				<polygon class="PF00300" points="37,28 44,28 51,40 44,52 37,52" stroke-linejoin="round" width="17" height="24" fill="rgb(135,184,63)" stroke="rgb(107,147,50)" stroke-width="1" opacity="0.75" />
			</g>
		</g>
		<g>
			<title> (ctg3_279)</title>
			<polygon class=" (ctg3_279)" points="56,40 75,10 75,70" fill="rgb(255,255,255)" fill-opacity="1.0" stroke="rgb(0,0,0)" stroke-width="2"  />
			<g>
				<title>TetR_N (PF00440)
"Bacterial regulatory proteins, tetR family"</title>
				<rect class="PF00440" x="69" y="28" stroke-linejoin="round" width="4" height="24" fill="rgb(73,212,190)" stroke="rgb(58,169,152)" stroke-width="1" opacity="0.75" />
			</g>
		</g>
		<g>
			<title> (ctg3_280)</title>
			<polygon class=" (ctg3_280)" points="80,10 106,40 80,70" fill="rgb(255,255,255)" fill-opacity="1.0" stroke="rgb(0,0,0)" stroke-width="2"  />
			<g>
				<title>adh_short (PF00106)
"short chain dehydrogenase"</title>
				<polygon class="PF00106" points="80,28 92,28 99,37 99,43 92,52 80,52" stroke-linejoin="round" width="19" height="24" fill="rgb(182,219,73)" stroke="rgb(145,175,58)" stroke-width="1" opacity="0.75" />
			</g>
		</g>
		<g>
			<title> (ctg3_281)</title>
			<polygon class=" (ctg3_281)" points="134,40 145,10 145,70" fill="rgb(255,255,255)" fill-opacity="1.0" stroke="rgb(0,0,0)" stroke-width="2"  />
			<g>
				<title>HTH_3 (PF01381)
"Helix-turn-helix"</title>
				<polygon class="PF01381" points="138,37 142,28 143,28 143,52 142,52 138,43" stroke-linejoin="round" width="5" height="24" fill="rgb(105,79,202)" stroke="rgb(83,63,161)" stroke-width="1" opacity="0.75" />
			</g>
		</g>
		<g>
			<title> (ctg3_282)</title>
			<polygon class=" (ctg3_282)" points="146,40 152,10 152,70" fill="rgb(255,255,255)" fill-opacity="1.0" stroke="rgb(0,0,0)" stroke-width="2"  />
		</g>
		<g>
			<title> (ctg3_283)</title>
			<polygon class=" (ctg3_283)" points="157,40 179,10 179,70" fill="rgb(255,255,255)" fill-opacity="1.0" stroke="rgb(0,0,0)" stroke-width="2"  />
		</g>
		<g>
			<title> (ctg3_284)</title>
			<polygon class=" (ctg3_284)" points="179,40 197,10 197,70" fill="rgb(255,255,255)" fill-opacity="1.0" stroke="rgb(0,0,0)" stroke-width="2"  />
			<g>
				<title>Sigma70_r4 (PF04545)
"Sigma-70, region 4"</title>
				<polygon class="PF04545" points="183,40 184,38 184,42" stroke-linejoin="round" width="4" height="24" fill="rgb(75,207,224)" stroke="rgb(60,165,179)" stroke-width="1" opacity="0.75" />
			</g>
			<g>
				<title>Sigma70_r2 (PF04542)
"Sigma-70 region 2"</title>
				<polygon class="PF04542" points="187,34 190,28 193,28 193,52 190,52 187,46" stroke-linejoin="round" width="6" height="24" fill="rgb(184,59,197)" stroke="rgb(147,47,157)" stroke-width="1" opacity="0.75" />
			</g>
		</g>
		<g>
			<title> (ctg3_285)</title>
			<polygon class=" (ctg3_285)" points="240,25 229,25 229,10 199,40 229,70 229,55 240,55" fill="rgb(255,255,255)" fill-opacity="1.0" stroke="rgb(0,0,0)" stroke-width="2"  />
			<g>
				<title>Thioredoxin_7 (PF13899)
"Thioredoxin-like"</title>
				<polygon class="PF13899" points="203,40 210,33 210,47" stroke-linejoin="round" width="8" height="24" fill="rgb(143,52,187)" stroke="rgb(114,41,149)" stroke-width="1" opacity="0.75" />
			</g>
			<g>
				<title>DsbD (PF02683)
"Cytochrome C biogenesis protein transmembrane region"</title>
				<rect class="PF02683" x="220" y="28" stroke-linejoin="round" width="19" height="24" fill="rgb(89,192,111)" stroke="rgb(71,153,88)" stroke-width="1" opacity="0.75" />
			</g>
		</g>
		<g>
			<title> (ctg3_286)</title>
			<polygon class=" (ctg3_286)" points="242,40 260,10 260,70" fill="rgb(255,255,255)" fill-opacity="1.0" stroke="rgb(0,0,0)" stroke-width="2"  />
			<g>
				<title>AhpC-TSA (PF00578)
"AhpC/TSA family"</title>
				<polygon class="PF00578" points="246,40 254,28 257,28 257,52 254,52" stroke-linejoin="round" width="13" height="24" fill="rgb(166,71,190)" stroke="rgb(132,56,152)" stroke-width="1" opacity="0.75" />
			</g>
		</g>
		<g>
			<title> (ctg3_287)</title>
			<polygon class=" (ctg3_287)" points="342,25 294,25 294,10 264,40 294,70 294,55 342,55" fill="rgb(255,255,255)" fill-opacity="1.0" stroke="rgb(0,0,0)" stroke-width="2"  />
			<g>
				<title>Peptidase_M16 (PF00675)
"Insulinase (Peptidase family M16)"</title>
				<rect class="PF00675" x="327" y="28" stroke-linejoin="round" width="14" height="24" fill="rgb(70,225,127)" stroke="rgb(56,180,101)" stroke-width="1" opacity="0.75" />
			</g>
		</g>
		<g>
			<title> (ctg3_288)</title>
			<polygon class=" (ctg3_288)" points="381,25 373,25 373,10 343,40 373,70 373,55 381,55" fill="rgb(255,255,255)" fill-opacity="1.0" stroke="rgb(0,0,0)" stroke-width="2"  />
			<g>
				<title>SPASM (PF13186)
"Iron-sulfur cluster-binding domain"</title>
				<polygon class="PF13186" points="350,37 356,31 356,49 350,43" stroke-linejoin="round" width="6" height="24" fill="rgb(183,66,65)" stroke="rgb(146,52,51)" stroke-width="1" opacity="0.75" />
			</g>
			<g>
				<title>Radical_SAM (PF04055)
"Radical SAM superfamily"</title>
				<rect class="PF04055" x="363" y="28" stroke-linejoin="round" width="15" height="24" fill="rgb(149,56,222)" stroke="rgb(119,44,177)" stroke-width="1" opacity="0.75" />
			</g>
		</g>
		<g>
			<title> (ctg3_289)</title>
			<polygon class=" (ctg3_289)" points="381,40 390,10 390,70" fill="rgb(255,255,255)" fill-opacity="1.0" stroke="rgb(0,0,0)" stroke-width="2"  />
			<g>
				<title>PqqD (PF05402)
"Coenzyme PQQ synthesis protein D (PqqD)"</title>
				<polygon class="PF05402" points="384,40 387,30 387,50" stroke-linejoin="round" width="6" height="24" fill="rgb(124,62,188)" stroke="rgb(99,49,150)" stroke-width="1" opacity="0.75" />
			</g>
		</g>
		<g>
			<title> (ctg3_290)</title>
			<polygon class=" (ctg3_290)" points="390,40 415,10 415,70" fill="rgb(255,255,255)" fill-opacity="1.0" stroke="rgb(0,0,0)" stroke-width="2"  />
			<g>
				<title>TENA_THI-4 (PF03070)
"TENA/THI-4/PQQC family"</title>
				<polygon class="PF03070" points="394,40 404,28 413,28 413,52 404,52" stroke-linejoin="round" width="21" height="24" fill="rgb(95,149,219)" stroke="rgb(76,119,175)" stroke-width="1" opacity="0.75" />
			</g>
		</g>
		<g>
			<title> (ctg3_291)</title>
			<polygon class=" (ctg3_291)" points="447,25 445,25 445,10 415,40 445,70 445,55 447,55" fill="rgb(255,255,255)" fill-opacity="1.0" stroke="rgb(0,0,0)" stroke-width="2"  />
			<g>
				<title>Lactamase_B_2 (PF12706)
"Beta-lactamase superfamily domain"</title>
				<polygon class="PF12706" points="419,40 431,28 440,28 440,52 431,52" stroke-linejoin="round" width="22" height="24" fill="rgb(62,169,197)" stroke="rgb(49,135,157)" stroke-width="1" opacity="0.75" />
			</g>
		</g>
		<g>
			<title> (ctg3_292)</title>
			<polygon class=" (ctg3_292)" points="494,25 490,25 490,10 460,40 490,70 490,55 494,55" fill="rgb(255,255,255)" fill-opacity="1.0" stroke="rgb(0,0,0)" stroke-width="2"  />
			<g>
				<title>Peptidase_M19 (PF01244)
"Membrane dipeptidase (Peptidase family M19)"</title>
				<polygon class="PF01244" points="464,40 476,28 493,28 493,52 476,52" stroke-linejoin="round" width="33" height="24" fill="rgb(178,227,92)" stroke="rgb(142,181,73)" stroke-width="1" opacity="0.75" />
			</g>
		</g>
		<g>
			<title> (ctg3_293)</title>
			<polygon class=" (ctg3_293)" points="498,40 505,10 505,70" fill="rgb(255,255,255)" fill-opacity="1.0" stroke="rgb(0,0,0)" stroke-width="2"  />
			<g>
				<title>Ogr_Delta (PF04606)
"Ogr/Delta-like zinc finger"</title>
				<polygon class="PF04606" points="501,40 504,28 504,28 504,52 504,52" stroke-linejoin="round" width="4" height="24" fill="rgb(180,76,51)" stroke="rgb(144,60,40)" stroke-width="1" opacity="0.75" />
			</g>
		</g>
		<g>
			<title> (ctg3_294)</title>
			<polygon class=" (ctg3_294)" points="546,25 539,25 539,10 509,40 539,70 539,55 546,55" fill="rgb(255,255,255)" fill-opacity="1.0" stroke="rgb(0,0,0)" stroke-width="2"  />
			<g>
				<title>Phage_GPD (PF05954)
"Phage tail baseplate hub (GPD)"</title>
				<polygon class="PF05954" points="513,40 525,28 540,28 540,52 525,52" stroke-linejoin="round" width="29" height="24" fill="rgb(123,216,82)" stroke="rgb(98,172,65)" stroke-width="1" opacity="0.75" />
			</g>
		</g>
		<g>
			<title> (ctg3_295)</title>
			<polygon class=" (ctg3_295)" points="546,40 561,10 561,70" fill="rgb(255,255,255)" fill-opacity="1.0" stroke="rgb(0,0,0)" stroke-width="2"  />
			<g>
				<title>Phage_P2_GpU (PF06995)
"Phage P2 GpU"</title>
				<polygon class="PF06995" points="549,40 555,28 560,28 560,52 555,52 549,40" stroke-linejoin="round" width="11" height="24" fill="rgb(87,154,184)" stroke="rgb(69,123,147)" stroke-width="1" opacity="0.75" />
			</g>
		</g>
		<g>
			<title> (ctg3_296)</title>
			<polygon class=" (ctg3_296)" points="612,25 592,25 592,10 562,40 592,70 592,55 612,55" fill="rgb(255,255,255)" fill-opacity="1.0" stroke="rgb(0,0,0)" stroke-width="2"  />
		</g>
		<g>
			<title> (ctg3_297)</title>
			<polygon class=" (ctg3_297)" points="617,40 626,10 626,70" fill="rgb(255,255,255)" fill-opacity="1.0" stroke="rgb(0,0,0)" stroke-width="2"  />
			<g>
				<title>Phage_TAC_7 (PF10109)
"Phage tail assembly chaperone proteins, E, or 41 or 14"</title>
				<polygon class="PF10109" points="620,40 624,28 626,28 626,52 624,52" stroke-linejoin="round" width="8" height="24" fill="rgb(142,59,179)" stroke="rgb(113,47,143)" stroke-width="1" opacity="0.75" />
			</g>
		</g>
		<g>
			<title> (ctg3_298)</title>
			<polygon class=" (ctg3_298)" points="632,40 649,10 649,70" fill="rgb(255,255,255)" fill-opacity="1.0" stroke="rgb(0,0,0)" stroke-width="2"  />
			<g>
				<title>Phage_tube (PF04985)
"Phage tail tube protein FII"</title>
				<polygon class="PF04985" points="635,40 642,28 648,28 648,52 642,52" stroke-linejoin="round" width="16" height="24" fill="rgb(186,72,96)" stroke="rgb(148,57,76)" stroke-width="1" opacity="0.75" />
			</g>
		</g>
		<g>
			<title> (ctg3_299)</title>
			<polygon class=" (ctg3_299)" points="688,25 679,25 679,10 649,40 679,70 679,55 688,55" fill="rgb(255,255,255)" fill-opacity="1.0" stroke="rgb(0,0,0)" stroke-width="2"  />
			<g>
				<title>Phage_sheath_1C (PF17482)
"Phage tail sheath C-terminal domain"</title>
				<polygon class="PF17482" points="653,40 660,33 660,47" stroke-linejoin="round" width="10" height="24" fill="rgb(64,208,189)" stroke="rgb(51,166,151)" stroke-width="1" opacity="0.75" />
			</g>
			<g>
				<title>Phage_sheath_1 (PF04984)
"Phage tail sheath protein subtilisin-like domain"</title>
				<polygon class="PF04984" points="660,33 665,28 676,28 676,52 665,52 660,47" stroke-linejoin="round" width="16" height="24" fill="rgb(173,209,71)" stroke="rgb(138,167,56)" stroke-width="1" opacity="0.75" />
			</g>
		</g>
		<g>
			<title> (ctg3_300)</title>
			<polygon class=" (ctg3_300)" points="693,40 698,10 698,70" fill="rgb(255,255,255)" fill-opacity="1.0" stroke="rgb(0,0,0)" stroke-width="2"  />
		</g>
		<g>
			<title> (ctg3_301)</title>
			<polygon class=" (ctg3_301)" points="738,25 728,25 728,10 698,40 728,70 728,55 738,55" fill="rgb(255,255,255)" fill-opacity="1.0" stroke="rgb(0,0,0)" stroke-width="2"  />
			<g>
				<title>DUF3751 (PF12571)
"Phage tail-collar fibre protein"</title>
				<rect class="PF12571" x="723" y="28" stroke-linejoin="round" width="14" height="24" fill="rgb(67,190,98)" stroke="rgb(53,152,78)" stroke-width="1" opacity="0.75" />
			</g>
		</g>
	</g>
</svg>
