<svg version="1.1" baseProfile="full" xmlns="http://www.w3.org/2000/svg" width="417.53333333333336" height="80">
	<g>
		<line x1="10" y1="40.0" x2="407.53333333333336" y2="40.0" style="stroke:rgb(70,70,70); stroke-width:3 "/>
		<g>
			<title> (ctg3_40)</title>
			<polygon class=" (ctg3_40)" points="58,25 54,25 54,10 24,40 54,70 54,55 58,55" fill="rgb(255,255,255)" fill-opacity="1.0" stroke="rgb(0,0,0)" stroke-width="2"  />
			<g>
				<title>DUF2066 (PF09839)
"Uncharacterized protein conserved in bacteria (DUF2066)"</title>
				<polygon class="PF09839" points="33,35 40,28 55,28 55,52 40,52 33,45" stroke-linejoin="round" width="22" height="24" fill="rgb(75,203,108)" stroke="rgb(60,162,86)" stroke-width="1" opacity="0.75" />
			</g>
		</g>
		<g>
			<title> (ctg3_41)</title>
			<polygon class=" (ctg3_41)" points="71,25 76,25 76,10 106,40 76,70 76,55 71,55" fill="rgb(255,255,255)" fill-opacity="1.0" stroke="rgb(0,0,0)" stroke-width="2"  />
			<g>
				<title>AIRS (PF00586)
"AIR synthase related protein, N-terminal domain"</title>
				<rect class="PF00586" x="72" y="28" stroke-linejoin="round" width="15" height="24" fill="rgb(215,196,78)" stroke="rgb(172,156,62)" stroke-width="1" opacity="0.75" />
			</g>
			<g>
				<title>AIRS_C (PF02769)
"AIR synthase related protein, C-terminal domain"</title>
				<polygon class="PF02769" points="88,28 90,28 102,40 90,52 88,52" stroke-linejoin="round" width="16" height="24" fill="rgb(182,125,70)" stroke="rgb(145,100,56)" stroke-width="1" opacity="0.75" />
			</g>
		</g>
		<g>
			<title> (ctg3_42)</title>
			<polygon class=" (ctg3_42)" points="106,10 127,40 106,70" fill="rgb(255,255,255)" fill-opacity="1.0" stroke="rgb(0,0,0)" stroke-width="2"  />
			<g>
				<title>Formyl_trans_N (PF00551)
"Formyl transferase"</title>
				<polygon class="PF00551" points="106,28 115,28 123,40 115,52 106,52" stroke-linejoin="round" width="18" height="24" fill="rgb(111,183,66)" stroke="rgb(88,146,52)" stroke-width="1" opacity="0.75" />
			</g>
		</g>
		<g>
			<title> (ctg3_43)</title>
			<polygon class=" (ctg3_43)" points="128,10 151,40 128,70" fill="rgb(255,255,255)" fill-opacity="1.0" stroke="rgb(0,0,0)" stroke-width="2"  />
			<g>
				<title>DUF3108 (PF11306)
"Protein of unknown function (DUF3108)"</title>
				<polygon class="PF11306" points="128,28 138,28 147,40 138,52 128,52" stroke-linejoin="round" width="22" height="24" fill="rgb(67,149,182)" stroke="rgb(53,119,145)" stroke-width="1" opacity="0.75" />
			</g>
		</g>
		<g>
			<title> (ctg3_44)</title>
			<polygon class=" (ctg3_44)" points="164,10 170,40 164,70" fill="rgb(255,255,255)" fill-opacity="1.0" stroke="rgb(0,0,0)" stroke-width="2"  />
		</g>
		<g>
			<title> (ctg3_45)</title>
			<polygon class=" (ctg3_45)" points="176,25 210,25 210,10 240,40 210,70 210,55 176,55" fill="rgb(255,255,255)" fill-opacity="1.0" stroke="rgb(0,0,0)" stroke-width="2"  />
			<g>
				<title>IucA_IucC (PF04183)
"IucA / IucC family"</title>
				<rect class="PF04183" x="195" y="28" stroke-linejoin="round" width="24" height="24" fill="rgb(221,104,121)" stroke="rgb(176,83,96)" stroke-width="1" opacity="0.75" />
			</g>
			<g>
				<title>FhuF (PF06276)
"Ferric iron reductase FhuF-like transporter"</title>
				<polygon class="PF06276" points="221,28 223,28 235,40 223,52 221,52" stroke-linejoin="round" width="16" height="24" fill="rgb(76,151,221)" stroke="rgb(60,120,176)" stroke-width="1" opacity="0.75" />
			</g>
		</g>
		<g>
			<title> (ctg3_46)</title>
			<polygon class=" (ctg3_46)" points="240,25 251,25 251,10 281,40 251,70 251,55 240,55" fill="rgb(255,255,255)" fill-opacity="1.0" stroke="rgb(0,0,0)" stroke-width="2"  />
			<g>
				<title>MFS_1 (PF07690)
"Major Facilitator Superfamily"</title>
				<rect class="PF07690" x="241" y="28" stroke-linejoin="round" width="20" height="24" fill="rgb(193,224,74)" stroke="rgb(154,179,59)" stroke-width="1" opacity="0.75" />
			</g>
			<g>
				<title>MFS_1 (PF07690)
"Major Facilitator Superfamily"</title>
				<polygon class="PF07690" points="261,28 264,28 276,40 264,52 261,52" stroke-linejoin="round" width="19" height="24" fill="rgb(193,224,74)" stroke="rgb(154,179,59)" stroke-width="1" opacity="0.75" />
			</g>
		</g>
		<g>
			<title> (ctg3_47)</title>
			<polygon class=" (ctg3_47)" points="281,25 321,25 321,10 351,40 321,70 321,55 281,55" fill="rgb(255,255,255)" fill-opacity="1.0" stroke="rgb(0,0,0)" stroke-width="2"  />
			<g>
				<title>Plug (PF07715)
"TonB-dependent Receptor Plug Domain"</title>
				<rect class="PF07715" x="286" y="28" stroke-linejoin="round" width="10" height="24" fill="rgb(99,133,214)" stroke="rgb(79,106,171)" stroke-width="1" opacity="0.75" />
			</g>
			<g>
				<title>TonB_dep_Rec (PF00593)
"TonB dependent receptor"</title>
				<polygon class="PF00593" points="298,28 335,28 347,40 335,52 298,52" stroke-linejoin="round" width="52" height="24" fill="rgb(171,200,51)" stroke="rgb(136,160,40)" stroke-width="1" opacity="0.75" />
			</g>
		</g>
		<g>
			<title> (ctg3_48)</title>
			<polygon class=" (ctg3_48)" points="353,40 371,10 371,70" fill="rgb(255,255,255)" fill-opacity="1.0" stroke="rgb(0,0,0)" stroke-width="2"  />
			<g>
				<title>DUF2058 (PF09831)
"Uncharacterized protein conserved in bacteria (DUF2058)"</title>
				<polygon class="PF09831" points="357,40 364,28 370,28 370,52 364,52" stroke-linejoin="round" width="17" height="24" fill="rgb(183,73,159)" stroke="rgb(146,58,127)" stroke-width="1" opacity="0.75" />
			</g>
		</g>
		<g>
			<title> (ctg3_49)</title>
			<polygon class=" (ctg3_49)" points="372,40 399,10 399,70" fill="rgb(255,255,255)" fill-opacity="1.0" stroke="rgb(0,0,0)" stroke-width="2"  />
			<g>
				<title>MazG (PF03819)
"MazG nucleotide pyrophosphohydrolase domain"</title>
				<polygon class="PF03819" points="376,40 382,34 382,46 376,40" stroke-linejoin="round" width="6" height="24" fill="rgb(199,54,154)" stroke="rgb(159,43,123)" stroke-width="1" opacity="0.75" />
			</g>
			<g>
				<title>MazG (PF03819)
"MazG nucleotide pyrophosphohydrolase domain"</title>
				<rect class="PF03819" x="389" y="28" stroke-linejoin="round" width="7" height="24" fill="rgb(199,54,154)" stroke="rgb(159,43,123)" stroke-width="1" opacity="0.75" />
			</g>
		</g>
	</g>
</svg>
