<svg version="1.1" baseProfile="full" xmlns="http://www.w3.org/2000/svg" width="704.7666666666667" height="80">
	<g>
		<line x1="10" y1="40.0" x2="694.7666666666667" y2="40.0" style="stroke:rgb(70,70,70); stroke-width:3 "/>
		<g>
			<title> (ctg3_80)</title>
			<polygon class=" (ctg3_80)" points="60,25 40,25 40,10 10,40 40,70 40,55 60,55" fill="rgb(255,255,255)" fill-opacity="1.0" stroke="rgb(0,0,0)" stroke-width="2"  />
			<g>
				<title>FliD_C (PF07195)
"Flagellar hook-associated protein 2 C-terminus"</title>
				<polygon class="PF07195" points="14,40 26,28 38,28 38,52 26,52" stroke-linejoin="round" width="28" height="24" fill="rgb(198,97,113)" stroke="rgb(158,77,90)" stroke-width="1" opacity="0.75" />
			</g>
			<g>
				<title>Flagellin_IN (PF07196)
"Flagellin hook IN motif"</title>
				<rect class="PF07196" x="42" y="28" stroke-linejoin="round" width="5" height="24" fill="rgb(186,93,54)" stroke="rgb(148,74,43)" stroke-width="1" opacity="0.75" />
			</g>
			<g>
				<title>FliD_N (PF02465)
"Flagellar hook-associated protein 2 N-terminus"</title>
				<rect class="PF02465" x="49" y="28" stroke-linejoin="round" width="9" height="24" fill="rgb(78,51,182)" stroke="rgb(62,40,145)" stroke-width="1" opacity="0.75" />
			</g>
		</g>
		<g>
			<title> (ctg3_81)</title>
			<polygon class=" (ctg3_81)" points="61,40 73,10 73,70" fill="rgb(255,255,255)" fill-opacity="1.0" stroke="rgb(0,0,0)" stroke-width="2"  />
			<g>
				<title>FlaG (PF03646)
"FlaG protein"</title>
				<polygon class="PF03646" points="64,40 69,28 71,28 71,52 69,52" stroke-linejoin="round" width="10" height="24" fill="rgb(106,202,87)" stroke="rgb(84,161,69)" stroke-width="1" opacity="0.75" />
			</g>
		</g>
		<g>
			<title> (ctg3_82)</title>
			<polygon class=" (ctg3_82)" points="78,40 104,10 104,70" fill="rgb(255,255,255)" fill-opacity="1.0" stroke="rgb(0,0,0)" stroke-width="2"  />
			<g>
				<title>Flagellin_C (PF00700)
"Bacterial flagellin C-terminal helical region"</title>
				<polygon class="PF00700" points="82,40 86,35 86,45" stroke-linejoin="round" width="8" height="24" fill="rgb(98,216,202)" stroke="rgb(78,172,161)" stroke-width="1" opacity="0.75" />
			</g>
			<g>
				<title>Flagellin_N (PF00669)
"Bacterial flagellin N-terminal helical region"</title>
				<polygon class="PF00669" points="90,31 92,28 103,28 103,52 92,52 90,49" stroke-linejoin="round" width="13" height="24" fill="rgb(97,198,187)" stroke="rgb(77,158,149)" stroke-width="1" opacity="0.75" />
			</g>
		</g>
		<g>
			<title> (ctg3_83)</title>
			<polygon class=" (ctg3_83)" points="111,40 118,10 118,70" fill="rgb(255,255,255)" fill-opacity="1.0" stroke="rgb(0,0,0)" stroke-width="2"  />
			<g>
				<title>CsrA (PF02599)
"Global regulator protein family"</title>
				<polygon class="PF02599" points="114,40 117,28 118,28 118,52 117,52" stroke-linejoin="round" width="5" height="24" fill="rgb(211,58,142)" stroke="rgb(168,46,113)" stroke-width="1" opacity="0.75" />
			</g>
		</g>
		<g>
			<title> (ctg3_84)</title>
			<polygon class=" (ctg3_84)" points="118,40 133,10 133,70" fill="rgb(255,255,255)" fill-opacity="1.0" stroke="rgb(0,0,0)" stroke-width="2"  />
			<g>
				<title>FliW (PF02623)
"FliW protein"</title>
				<polygon class="PF02623" points="121,40 127,28 130,28 130,52 127,52" stroke-linejoin="round" width="11" height="24" fill="rgb(76,158,220)" stroke="rgb(60,126,176)" stroke-width="1" opacity="0.75" />
			</g>
		</g>
		<g>
			<title> (ctg3_85)</title>
			<polygon class=" (ctg3_85)" points="166,25 166,25 166,10 136,40 166,70 166,55 166,55" fill="rgb(255,255,255)" fill-opacity="1.0" stroke="rgb(0,0,0)" stroke-width="2"  />
			<g>
				<title>Flagellin_C (PF00700)
"Bacterial flagellin C-terminal helical region"</title>
				<polygon class="PF00700" points="140,40 144,36 144,44" stroke-linejoin="round" width="8" height="24" fill="rgb(98,216,202)" stroke="rgb(78,172,161)" stroke-width="1" opacity="0.75" />
			</g>
			<g>
				<title>Flagellin_N (PF00669)
"Bacterial flagellin N-terminal helical region"</title>
				<polygon class="PF00669" points="152,28 152,28 165,28 165,52 152,52 152,52" stroke-linejoin="round" width="13" height="24" fill="rgb(97,198,187)" stroke="rgb(77,158,149)" stroke-width="1" opacity="0.75" />
			</g>
		</g>
		<g>
			<title> (ctg3_86)</title>
			<polygon class=" (ctg3_86)" points="219,25 197,25 197,10 167,40 197,70 197,55 219,55" fill="rgb(255,255,255)" fill-opacity="1.0" stroke="rgb(0,0,0)" stroke-width="2"  />
			<g>
				<title>Flg_bbr_C (PF06429)
"Flagellar basal body rod FlgEFG protein C-terminal"</title>
				<polygon class="PF06429" points="171,40 174,37 174,43" stroke-linejoin="round" width="7" height="24" fill="rgb(176,68,227)" stroke="rgb(140,54,181)" stroke-width="1" opacity="0.75" />
			</g>
			<g>
				<title>Flg_bb_rod (PF00460)
"Flagella basal body rod protein"</title>
				<rect class="PF00460" x="215" y="28" stroke-linejoin="round" width="2" height="24" fill="rgb(123,219,78)" stroke="rgb(98,175,62)" stroke-width="1" opacity="0.75" />
			</g>
		</g>
		<g>
			<title> (ctg3_87)</title>
			<polygon class=" (ctg3_87)" points="220,40 236,10 236,70" fill="rgb(255,255,255)" fill-opacity="1.0" stroke="rgb(0,0,0)" stroke-width="2"  />
			<g>
				<title>FlgN (PF05130)
"FlgN protein"</title>
				<polygon class="PF05130" points="223,40 230,28 236,28 236,52 230,52" stroke-linejoin="round" width="15" height="24" fill="rgb(184,189,60)" stroke="rgb(147,151,48)" stroke-width="1" opacity="0.75" />
			</g>
		</g>
		<g>
			<title> (ctg3_88)</title>
			<polygon class=" (ctg3_88)" points="237,40 246,10 246,70" fill="rgb(255,255,255)" fill-opacity="1.0" stroke="rgb(0,0,0)" stroke-width="2"  />
			<g>
				<title>FlgM (PF04316)
"Anti-sigma-28 factor, FlgM"</title>
				<polygon class="PF04316" points="240,40 243,31 243,49" stroke-linejoin="round" width="5" height="24" fill="rgb(211,133,76)" stroke="rgb(168,106,60)" stroke-width="1" opacity="0.75" />
			</g>
		</g>
		<g>
			<title> (ctg3_89)</title>
			<polygon class=" (ctg3_89)" points="247,40 252,10 252,70" fill="rgb(255,255,255)" fill-opacity="1.0" stroke="rgb(0,0,0)" stroke-width="2"  />
		</g>
		<g>
			<title> (ctg3_90)</title>
			<polygon class=" (ctg3_90)" points="251,40 264,10 264,70" fill="rgb(255,255,255)" fill-opacity="1.0" stroke="rgb(0,0,0)" stroke-width="2"  />
		</g>
		<g>
			<title> (ctg3_91)</title>
			<polygon class=" (ctg3_91)" points="274,40 298,10 298,70" fill="rgb(255,255,255)" fill-opacity="1.0" stroke="rgb(0,0,0)" stroke-width="2"  />
		</g>
		<g>
			<title> (ctg3_92)</title>
			<polygon class=" (ctg3_92)" points="300,40 307,10 307,70" fill="rgb(255,255,255)" fill-opacity="1.0" stroke="rgb(0,0,0)" stroke-width="2"  />
		</g>
		<g>
			<title> (ctg3_93)</title>
			<polygon class=" (ctg3_93)" points="312,10 318,40 312,70" fill="rgb(255,255,255)" fill-opacity="1.0" stroke="rgb(0,0,0)" stroke-width="2"  />
			<g>
				<title>HTH_3 (PF01381)
"Helix-turn-helix"</title>
				<polygon class="PF01381" points="312,28 312,28 314,40 312,52 312,52" stroke-linejoin="round" width="5" height="24" fill="rgb(105,79,202)" stroke="rgb(83,63,161)" stroke-width="1" opacity="0.75" />
			</g>
		</g>
		<g>
			<title> (ctg3_94)</title>
			<polygon class=" (ctg3_94)" points="326,40 338,10 338,70" fill="rgb(255,255,255)" fill-opacity="1.0" stroke="rgb(0,0,0)" stroke-width="2"  />
		</g>
		<g>
			<title> (ctg3_95)</title>
			<polygon class=" (ctg3_95)" points="343,40 361,10 361,70" fill="rgb(255,255,255)" fill-opacity="1.0" stroke="rgb(0,0,0)" stroke-width="2"  />
			<g>
				<title>AgrB (PF04647)
"Accessory gene regulator B"</title>
				<polygon class="PF04647" points="347,40 354,28 359,28 359,52 354,52" stroke-linejoin="round" width="16" height="24" fill="rgb(181,182,61)" stroke="rgb(144,145,48)" stroke-width="1" opacity="0.75" />
			</g>
		</g>
		<g>
			<title> (ctg3_96)</title>
			<polygon class=" (ctg3_96)" points="361,40 381,10 381,70" fill="rgb(255,255,255)" fill-opacity="1.0" stroke="rgb(0,0,0)" stroke-width="2"  />
		</g>
		<g>
			<title> (ctg3_97)</title>
			<polygon class=" (ctg3_97)" points="384,40 395,10 395,70" fill="rgb(255,255,255)" fill-opacity="1.0" stroke="rgb(0,0,0)" stroke-width="2"  />
			<g>
				<title>YolD (PF08863)
"YolD-like protein"</title>
				<polygon class="PF08863" points="387,40 391,28 393,28 393,52 391,52" stroke-linejoin="round" width="9" height="24" fill="rgb(210,129,59)" stroke="rgb(168,103,47)" stroke-width="1" opacity="0.75" />
			</g>
		</g>
		<g>
			<title> (ctg3_98)</title>
			<polygon class=" (ctg3_98)" points="396,40 405,10 405,70" fill="rgb(255,255,255)" fill-opacity="1.0" stroke="rgb(0,0,0)" stroke-width="2"  />
		</g>
		<g>
			<title> (ctg3_99)</title>
			<polygon class=" (ctg3_99)" points="410,10 423,40 410,70" fill="rgb(255,255,255)" fill-opacity="1.0" stroke="rgb(0,0,0)" stroke-width="2"  />
		</g>
		<g>
			<title> (ctg3_100)</title>
			<polygon class=" (ctg3_100)" points="429,40 436,10 436,70" fill="rgb(255,255,255)" fill-opacity="1.0" stroke="rgb(0,0,0)" stroke-width="2"  />
			<g>
				<title>HTH_26 (PF13443)
"Cro/C1-type HTH DNA-binding domain"</title>
				<polygon class="PF13443" points="432,40 435,28 435,28 435,52 435,52" stroke-linejoin="round" width="6" height="24" fill="rgb(210,216,86)" stroke="rgb(168,172,68)" stroke-width="1" opacity="0.75" />
			</g>
		</g>
		<g>
			<title> (ctg3_101)</title>
			<polygon class=" (ctg3_101)" points="440,10 448,40 440,70" fill="rgb(255,255,255)" fill-opacity="1.0" stroke="rgb(0,0,0)" stroke-width="2"  />
		</g>
		<g>
			<title> (ctg3_102)</title>
			<polygon class=" (ctg3_102)" points="448,10 457,40 448,70" fill="rgb(255,255,255)" fill-opacity="1.0" stroke="rgb(0,0,0)" stroke-width="2"  />
		</g>
		<g>
			<title> (ctg3_103)</title>
			<polygon class=" (ctg3_103)" points="459,10 474,40 459,70" fill="rgb(255,255,255)" fill-opacity="1.0" stroke="rgb(0,0,0)" stroke-width="2"  />
			<g>
				<title>DNase_NucA_NucB (PF14040)
"Deoxyribonuclease NucA/NucB"</title>
				<polygon class="PF14040" points="463,28 464,28 470,40 464,52 463,52" stroke-linejoin="round" width="10" height="24" fill="rgb(226,110,190)" stroke="rgb(180,88,151)" stroke-width="1" opacity="0.75" />
			</g>
		</g>
		<g>
			<title> (ctg3_104)</title>
			<polygon class=" (ctg3_104)" points="476,10 504,40 476,70" fill="rgb(255,255,255)" fill-opacity="1.0" stroke="rgb(0,0,0)" stroke-width="2"  />
			<g>
				<title>DNA_ligase_A_M (PF01068)
"ATP dependent DNA ligase domain"</title>
				<polygon class="PF01068" points="476,28 488,28 494,34 494,46 488,52 476,52" stroke-linejoin="round" width="18" height="24" fill="rgb(164,187,87)" stroke="rgb(131,149,69)" stroke-width="1" opacity="0.75" />
			</g>
		</g>
		<g>
			<title> (ctg3_105)</title>
			<polygon class=" (ctg3_105)" points="505,40 512,10 512,70" fill="rgb(255,255,255)" fill-opacity="1.0" stroke="rgb(0,0,0)" stroke-width="2"  />
		</g>
		<g>
			<title> (ctg3_106)</title>
			<polygon class=" (ctg3_106)" points="560,25 544,25 544,10 514,40 544,70 544,55 560,55" fill="rgb(255,255,255)" fill-opacity="1.0" stroke="rgb(0,0,0)" stroke-width="2"  />
			<g>
				<title>Fic (PF02661)
"Fic/DOC family"</title>
				<polygon class="PF02661" points="520,38 530,28 530,28 530,52 530,52 520,42" stroke-linejoin="round" width="10" height="24" fill="rgb(225,135,106)" stroke="rgb(180,108,84)" stroke-width="1" opacity="0.75" />
			</g>
			<g>
				<title>Peptidase_M78 (PF06114)
"IrrE N-terminal-like domain"</title>
				<rect class="PF06114" x="542" y="28" stroke-linejoin="round" width="12" height="24" fill="rgb(182,213,77)" stroke="rgb(145,170,61)" stroke-width="1" opacity="0.75" />
			</g>
		</g>
		<g>
			<title> (ctg3_107)</title>
			<polygon class=" (ctg3_107)" points="560,40 570,10 570,70" fill="rgb(255,255,255)" fill-opacity="1.0" stroke="rgb(0,0,0)" stroke-width="2"  />
			<g>
				<title>HTH_3 (PF01381)
"Helix-turn-helix"</title>
				<polygon class="PF01381" points="564,37 567,28 569,28 569,52 567,52 564,43" stroke-linejoin="round" width="5" height="24" fill="rgb(105,79,202)" stroke="rgb(83,63,161)" stroke-width="1" opacity="0.75" />
			</g>
		</g>
		<g>
			<title> (ctg3_108)</title>
			<polygon class=" (ctg3_108)" points="576,40 590,10 590,70" fill="rgb(255,255,255)" fill-opacity="1.0" stroke="rgb(0,0,0)" stroke-width="2"  />
			<g>
				<title>Phage_holin_6_1 (PF09682)
"Bacteriophage holin of superfamily 6 (Holin_LLH)"</title>
				<polygon class="PF09682" points="579,40 585,28 590,28 590,52 585,52 579,40" stroke-linejoin="round" width="11" height="24" fill="rgb(228,58,62)" stroke="rgb(182,46,49)" stroke-width="1" opacity="0.75" />
			</g>
		</g>
		<g>
			<title> (ctg3_109)</title>
			<polygon class=" (ctg3_109)" points="590,40 617,10 617,70" fill="rgb(255,255,255)" fill-opacity="1.0" stroke="rgb(0,0,0)" stroke-width="2"  />
			<g>
				<title>Peptidase_M15_4 (PF13539)
"D-alanyl-D-alanine carboxypeptidase"</title>
				<polygon class="PF13539" points="603,30 605,28 610,28 610,52 605,52 603,50" stroke-linejoin="round" width="7" height="24" fill="rgb(79,118,198)" stroke="rgb(63,94,158)" stroke-width="1" opacity="0.75" />
			</g>
		</g>
		<g>
			<title> (ctg3_110)</title>
			<polygon class=" (ctg3_110)" points="617,40 630,10 630,70" fill="rgb(255,255,255)" fill-opacity="1.0" stroke="rgb(0,0,0)" stroke-width="2"  />
		</g>
		<g>
			<title> (ctg3_111)</title>
			<polygon class=" (ctg3_111)" points="629,40 636,10 636,70" fill="rgb(255,255,255)" fill-opacity="1.0" stroke="rgb(0,0,0)" stroke-width="2"  />
		</g>
		<g>
			<title> (ctg3_112)</title>
			<polygon class=" (ctg3_112)" points="637,40 646,10 646,70" fill="rgb(255,255,255)" fill-opacity="1.0" stroke="rgb(0,0,0)" stroke-width="2"  />
		</g>
		<g>
			<title> (ctg3_113)</title>
			<polygon class=" (ctg3_113)" points="684,25 679,25 679,10 649,40 679,70 679,55 684,55" fill="rgb(255,255,255)" fill-opacity="1.0" stroke="rgb(0,0,0)" stroke-width="2"  />
			<g>
				<title>Phage_fiber_2 (PF03406)
"Phage tail fibre repeat"</title>
				<rect class="PF03406" x="676" y="28" stroke-linejoin="round" width="4" height="24" fill="rgb(224,211,62)" stroke="rgb(179,168,49)" stroke-width="1" opacity="0.75" />
			</g>
		</g>
	</g>
</svg>
