<svg version="1.1" baseProfile="full" xmlns="http://www.w3.org/2000/svg" width="1751.0666666666666" height="80">
	<g>
		<line x1="10" y1="40.0" x2="1741.0666666666666" y2="40.0" style="stroke:rgb(70,70,70); stroke-width:3 "/>
		<g>
			<title> (ctg4_102)</title>
			<polygon class=" (ctg4_102)" points="64,25 58,25 58,10 28,40 58,70 58,55 64,55" fill="rgb(255,255,255)" fill-opacity="1.0" stroke="rgb(0,0,0)" stroke-width="2"  />
			<g>
				<title>PhnI (PF05861)
"Bacterial phosphonate metabolism protein (PhnI)"</title>
				<polygon class="PF05861" points="32,40 44,28 64,28 64,52 44,52" stroke-linejoin="round" width="35" height="24" fill="rgb(85,157,196)" stroke="rgb(68,125,156)" stroke-width="1" opacity="0.75" />
			</g>
		</g>
		<g>
			<title> (ctg4_103)</title>
			<polygon class=" (ctg4_103)" points="64,40 83,10 83,70" fill="rgb(255,255,255)" fill-opacity="1.0" stroke="rgb(0,0,0)" stroke-width="2"  />
			<g>
				<title>PhnH (PF05845)
"Bacterial phosphonate metabolism protein (PhnH)"</title>
				<polygon class="PF05845" points="68,40 76,28 82,28 82,52 76,52" stroke-linejoin="round" width="18" height="24" fill="rgb(69,116,182)" stroke="rgb(55,92,145)" stroke-width="1" opacity="0.75" />
			</g>
		</g>
		<g>
			<title> (ctg4_104)</title>
			<polygon class=" (ctg4_104)" points="83,40 97,10 97,70" fill="rgb(255,255,255)" fill-opacity="1.0" stroke="rgb(0,0,0)" stroke-width="2"  />
			<g>
				<title>PhnG (PF06754)
"Phosphonate metabolism protein PhnG"</title>
				<polygon class="PF06754" points="86,40 92,28 97,28 97,52 92,52" stroke-linejoin="round" width="14" height="24" fill="rgb(216,175,98)" stroke="rgb(172,140,78)" stroke-width="1" opacity="0.75" />
			</g>
		</g>
		<g>
			<title> (ctg4_105)</title>
			<polygon class=" (ctg4_105)" points="98,40 122,10 122,70" fill="rgb(255,255,255)" fill-opacity="1.0" stroke="rgb(0,0,0)" stroke-width="2"  />
			<g>
				<title>UTRA (PF07702)
"UTRA domain"</title>
				<polygon class="PF07702" points="102,40 112,28 112,28 112,52 112,52" stroke-linejoin="round" width="14" height="24" fill="rgb(170,184,91)" stroke="rgb(136,147,72)" stroke-width="1" opacity="0.75" />
			</g>
			<g>
				<title>GntR (PF00392)
"Bacterial regulatory proteins, gntR family"</title>
				<rect class="PF00392" x="114" y="28" stroke-linejoin="round" width="6" height="24" fill="rgb(160,85,194)" stroke="rgb(127,68,155)" stroke-width="1" opacity="0.75" />
			</g>
		</g>
		<g>
			<title> (ctg4_106)</title>
			<polygon class=" (ctg4_106)" points="130,25 135,25 135,10 165,40 135,70 135,55 130,55" fill="rgb(255,255,255)" fill-opacity="1.0" stroke="rgb(0,0,0)" stroke-width="2"  />
			<g>
				<title>ArsP_1 (PF03773)
"Predicted permease"</title>
				<polygon class="PF03773" points="137,28 148,28 160,40 148,52 137,52" stroke-linejoin="round" width="27" height="24" fill="rgb(103,196,76)" stroke="rgb(82,156,60)" stroke-width="1" opacity="0.75" />
			</g>
		</g>
		<g>
			<title> (ctg4_107)</title>
			<polygon class=" (ctg4_107)" points="169,10 178,40 169,70" fill="rgb(255,255,255)" fill-opacity="1.0" stroke="rgb(0,0,0)" stroke-width="2"  />
			<g>
				<title>RelB (PF04221)
"RelB antitoxin"</title>
				<polygon class="PF04221" points="169,28 171,28 175,40 171,52 169,52" stroke-linejoin="round" width="8" height="24" fill="rgb(215,96,77)" stroke="rgb(172,76,61)" stroke-width="1" opacity="0.75" />
			</g>
		</g>
		<g>
			<title> (ctg4_108)</title>
			<polygon class=" (ctg4_108)" points="179,10 188,40 179,70" fill="rgb(255,255,255)" fill-opacity="1.0" stroke="rgb(0,0,0)" stroke-width="2"  />
			<g>
				<title>ParE_toxin (PF05016)
"ParE toxin of type II toxin-antitoxin system, parDE"</title>
				<polygon class="PF05016" points="179,28 181,28 185,40 181,52 179,52" stroke-linejoin="round" width="8" height="24" fill="rgb(110,226,73)" stroke="rgb(88,180,58)" stroke-width="1" opacity="0.75" />
			</g>
		</g>
		<g>
			<title> (ctg4_109)</title>
			<polygon class=" (ctg4_109)" points="188,40 203,10 203,70" fill="rgb(255,255,255)" fill-opacity="1.0" stroke="rgb(0,0,0)" stroke-width="2"  />
			<g>
				<title>Fer4_12 (PF13353)
"4Fe-4S single cluster domain"</title>
				<polygon class="PF13353" points="191,40 197,28 201,28 201,52 197,52" stroke-linejoin="round" width="13" height="24" fill="rgb(213,229,100)" stroke="rgb(170,183,80)" stroke-width="1" opacity="0.75" />
			</g>
		</g>
		<g>
			<title> (ctg4_110)</title>
			<polygon class=" (ctg4_110)" points="281,25 239,25 239,10 209,40 239,70 239,55 281,55" fill="rgb(255,255,255)" fill-opacity="1.0" stroke="rgb(0,0,0)" stroke-width="2"  />
			<g>
				<title>NRDD (PF13597)
"Anaerobic ribonucleoside-triphosphate reductase"</title>
				<polygon class="PF13597" points="213,40 225,28 267,28 267,52 225,52" stroke-linejoin="round" width="58" height="24" fill="rgb(212,80,212)" stroke="rgb(169,64,169)" stroke-width="1" opacity="0.75" />
			</g>
			<g>
				<title>ATP-cone (PF03477)
"ATP cone domain"</title>
				<rect class="PF03477" x="271" y="28" stroke-linejoin="round" width="8" height="24" fill="rgb(186,70,213)" stroke="rgb(148,56,170)" stroke-width="1" opacity="0.75" />
			</g>
		</g>
		<g>
			<title> (ctg4_111)</title>
			<polygon class=" (ctg4_111)" points="318,25 318,25 318,10 288,40 318,70 318,55 318,55" fill="rgb(255,255,255)" fill-opacity="1.0" stroke="rgb(0,0,0)" stroke-width="2"  />
			<g>
				<title>LysR_substrate (PF03466)
"LysR substrate binding domain"</title>
				<polygon class="PF03466" points="292,40 304,28 308,28 308,52 304,52" stroke-linejoin="round" width="20" height="24" fill="rgb(55,136,195)" stroke="rgb(44,108,156)" stroke-width="1" opacity="0.75" />
			</g>
			<g>
				<title>HTH_1 (PF00126)
"Bacterial regulatory helix-turn-helix protein, lysR family"</title>
				<rect class="PF00126" x="311" y="28" stroke-linejoin="round" width="5" height="24" fill="rgb(125,227,79)" stroke="rgb(99,181,63)" stroke-width="1" opacity="0.75" />
			</g>
		</g>
		<g>
			<title> (ctg4_112)</title>
			<polygon class=" (ctg4_112)" points="323,10 340,40 323,70" fill="rgb(255,255,255)" fill-opacity="1.0" stroke="rgb(0,0,0)" stroke-width="2"  />
			<g>
				<title>Flavodoxin_2 (PF02525)
"Flavodoxin-like fold"</title>
				<polygon class="PF02525" points="323,28 329,28 337,40 329,52 323,52" stroke-linejoin="round" width="16" height="24" fill="rgb(159,188,70)" stroke="rgb(127,150,56)" stroke-width="1" opacity="0.75" />
			</g>
		</g>
		<g>
			<title> (ctg4_113)</title>
			<polygon class=" (ctg4_113)" points="396,25 371,25 371,10 341,40 371,70 371,55 396,55" fill="rgb(255,255,255)" fill-opacity="1.0" stroke="rgb(0,0,0)" stroke-width="2"  />
			<g>
				<title>DUF3459 (PF11941)
"Domain of unknown function (DUF3459)"</title>
				<polygon class="PF11941" points="345,40 350,35 350,45" stroke-linejoin="round" width="9" height="24" fill="rgb(55,147,193)" stroke="rgb(44,117,154)" stroke-width="1" opacity="0.75" />
			</g>
			<g>
				<title>Alpha-amylase (PF00128)
"Alpha amylase, catalytic domain"</title>
				<rect class="PF00128" x="358" y="28" stroke-linejoin="round" width="34" height="24" fill="rgb(72,189,149)" stroke="rgb(57,151,119)" stroke-width="1" opacity="0.75" />
			</g>
		</g>
		<g>
			<title> (ctg4_114)</title>
			<polygon class=" (ctg4_114)" points="446,25 429,25 429,10 399,40 429,70 429,55 446,55" fill="rgb(255,255,255)" fill-opacity="1.0" stroke="rgb(0,0,0)" stroke-width="2"  />
			<g>
				<title>PTS_EIIC (PF02378)
"Phosphotransferase system, EIIC"</title>
				<polygon class="PF02378" points="405,38 415,28 434,28 434,52 415,52 405,42" stroke-linejoin="round" width="29" height="24" fill="rgb(73,199,212)" stroke="rgb(58,159,169)" stroke-width="1" opacity="0.75" />
			</g>
			<g>
				<title>PTS_EIIB (PF00367)
"phosphotransferase system, EIIB"</title>
				<rect class="PF00367" x="442" y="28" stroke-linejoin="round" width="3" height="24" fill="rgb(188,77,92)" stroke="rgb(150,61,73)" stroke-width="1" opacity="0.75" />
			</g>
		</g>
		<g>
			<title> (ctg4_115)</title>
			<polygon class=" (ctg4_115)" points="481,25 480,25 480,10 450,40 480,70 480,55 481,55" fill="rgb(255,255,255)" fill-opacity="1.0" stroke="rgb(0,0,0)" stroke-width="2"  />
			<g>
				<title>Peripla_BP_3 (PF13377)
"Periplasmic binding protein-like domain"</title>
				<polygon class="PF13377" points="454,40 464,30 464,50" stroke-linejoin="round" width="14" height="24" fill="rgb(101,208,189)" stroke="rgb(80,166,151)" stroke-width="1" opacity="0.75" />
			</g>
			<g>
				<title>LacI (PF00356)
"Bacterial regulatory proteins, lacI family"</title>
				<rect class="PF00356" x="476" y="28" stroke-linejoin="round" width="4" height="24" fill="rgb(66,188,63)" stroke="rgb(52,150,50)" stroke-width="1" opacity="0.75" />
			</g>
		</g>
		<g>
			<title> (ctg4_116)</title>
			<polygon class=" (ctg4_116)" points="496,25 556,25 556,10 586,40 556,70 556,55 496,55" fill="rgb(255,255,255)" fill-opacity="1.0" stroke="rgb(0,0,0)" stroke-width="2"  />
			<g>
				<title>Cation_ATPase_N (PF00690)
"Cation transporter/ATPase, N-terminus"</title>
				<rect class="PF00690" x="501" y="28" stroke-linejoin="round" width="6" height="24" fill="rgb(174,102,225)" stroke="rgb(139,81,180)" stroke-width="1" opacity="0.75" />
			</g>
			<g>
				<title>E1-E2_ATPase (PF00122)
"E1-E2 ATPase"</title>
				<rect class="PF00122" x="511" y="28" stroke-linejoin="round" width="19" height="24" fill="rgb(149,204,70)" stroke="rgb(119,163,56)" stroke-width="1" opacity="0.75" />
			</g>
			<g>
				<title>Hydrolase (PF00702)
"haloacid dehalogenase-like hydrolase"</title>
				<rect class="PF00702" x="533" y="28" stroke-linejoin="round" width="28" height="24" fill="rgb(68,220,102)" stroke="rgb(54,176,81)" stroke-width="1" opacity="0.75" />
			</g>
			<g>
				<title>Cation_ATPase_C (PF00689)
"Cation transporting ATPase, C-terminus"</title>
				<polygon class="PF00689" points="568,28 570,28 582,40 570,52 568,52" stroke-linejoin="round" width="16" height="24" fill="rgb(76,203,161)" stroke="rgb(60,162,128)" stroke-width="1" opacity="0.75" />
			</g>
		</g>
		<g>
			<title> (ctg4_117)</title>
			<polygon class=" (ctg4_117)" points="595,25 644,25 644,10 674,40 644,70 644,55 595,55" fill="rgb(255,255,255)" fill-opacity="1.0" stroke="rgb(0,0,0)" stroke-width="2"  />
			<g>
				<title>Glyco_hydro_20b (PF02838)
"Glycosyl hydrolase family 20, domain 2"</title>
				<rect class="PF02838" x="597" y="28" stroke-linejoin="round" width="13" height="24" fill="rgb(221,191,77)" stroke="rgb(176,152,61)" stroke-width="1" opacity="0.75" />
			</g>
			<g>
				<title>Glyco_hydro_20 (PF00728)
"Glycosyl hydrolase family 20, catalytic domain"</title>
				<rect class="PF00728" x="611" y="28" stroke-linejoin="round" width="31" height="24" fill="rgb(83,201,133)" stroke="rgb(66,160,106)" stroke-width="1" opacity="0.75" />
			</g>
			<g>
				<title>Glyco_hydro_20 (PF00728)
"Glycosyl hydrolase family 20, catalytic domain"</title>
				<rect class="PF00728" x="645" y="28" stroke-linejoin="round" width="7" height="24" fill="rgb(83,201,133)" stroke="rgb(66,160,106)" stroke-width="1" opacity="0.75" />
			</g>
		</g>
		<g>
			<title> (ctg4_118)</title>
			<polygon class=" (ctg4_118)" points="775,25 706,25 706,10 676,40 706,70 706,55 775,55" fill="rgb(255,255,255)" fill-opacity="1.0" stroke="rgb(0,0,0)" stroke-width="2"  />
			<g>
				<title>NAD_binding_4 (PF07993)
"Male sterility protein"</title>
				<polygon class="PF07993" points="689,31 692,28 713,28 713,52 692,52 689,49" stroke-linejoin="round" width="24" height="24" fill="rgb(100,212,204)" stroke="rgb(80,169,163)" stroke-width="1" opacity="0.75" />
			</g>
			<g>
				<title>PP-binding (PF00550)
"Phosphopantetheine attachment site"</title>
				<rect class="PF00550" x="718" y="28" stroke-linejoin="round" width="6" height="24" fill="rgb(103,191,88)" stroke="rgb(82,152,70)" stroke-width="1" opacity="0.75" />
			</g>
			<g>
				<title>AMP-binding_C (PF13193)
"AMP-binding enzyme C-terminal domain"</title>
				<rect class="PF13193" x="727" y="28" stroke-linejoin="round" width="7" height="24" fill="rgb(182,50,118)" stroke="rgb(145,39,94)" stroke-width="1" opacity="0.75" />
			</g>
			<g>
				<title>AMP-binding (PF00501)
"AMP-binding enzyme"</title>
				<rect class="PF00501" x="735" y="28" stroke-linejoin="round" width="39" height="24" fill="rgb(60,217,223)" stroke="rgb(48,173,178)" stroke-width="1" opacity="0.75" />
			</g>
		</g>
		<g>
			<title> (ctg4_119)</title>
			<polygon class=" (ctg4_119)" points="782,40 794,10 794,70" fill="rgb(255,255,255)" fill-opacity="1.0" stroke="rgb(0,0,0)" stroke-width="2"  />
			<g>
				<title>Ribonuc_L-PSP (PF01042)
"Endoribonuclease L-PSP"</title>
				<polygon class="PF01042" points="785,40 790,28 794,28 794,52 790,52" stroke-linejoin="round" width="12" height="24" fill="rgb(93,120,208)" stroke="rgb(74,96,166)" stroke-width="1" opacity="0.75" />
			</g>
		</g>
		<g>
			<title> (ctg4_120)</title>
			<polygon class=" (ctg4_120)" points="800,40 815,10 815,70" fill="rgb(255,255,255)" fill-opacity="1.0" stroke="rgb(0,0,0)" stroke-width="2"  />
			<g>
				<title>PyrI_C (PF02748)
"Aspartate carbamoyltransferase regulatory chain, metal binding domain"</title>
				<polygon class="PF02748" points="803,40 804,38 804,42" stroke-linejoin="round" width="4" height="24" fill="rgb(70,213,227)" stroke="rgb(56,170,181)" stroke-width="1" opacity="0.75" />
			</g>
			<g>
				<title>PyrI (PF01948)
"Aspartate carbamoyltransferase regulatory chain, allosteric domain"</title>
				<polygon class="PF01948" points="805,36 809,28 814,28 814,52 809,52 805,44" stroke-linejoin="round" width="9" height="24" fill="rgb(189,70,203)" stroke="rgb(151,56,162)" stroke-width="1" opacity="0.75" />
			</g>
		</g>
		<g>
			<title> (ctg4_121)</title>
			<polygon class=" (ctg4_121)" points="847,25 846,25 846,10 816,40 846,70 846,55 847,55" fill="rgb(255,255,255)" fill-opacity="1.0" stroke="rgb(0,0,0)" stroke-width="2"  />
			<g>
				<title>OTCace (PF00185)
"Aspartate/ornithine carbamoyltransferase, Asp/Orn binding domain"</title>
				<polygon class="PF00185" points="820,40 831,29 831,51" stroke-linejoin="round" width="15" height="24" fill="rgb(215,107,106)" stroke="rgb(172,85,84)" stroke-width="1" opacity="0.75" />
			</g>
			<g>
				<title>OTCace_N (PF02729)
"Aspartate/ornithine carbamoyltransferase, carbamoyl-P binding domain"</title>
				<polygon class="PF02729" points="832,28 832,28 846,28 846,52 832,52 832,52" stroke-linejoin="round" width="14" height="24" fill="rgb(223,74,58)" stroke="rgb(178,59,46)" stroke-width="1" opacity="0.75" />
			</g>
		</g>
		<g>
			<title> (ctg4_122)</title>
			<polygon class=" (ctg4_122)" points="909,25 887,25 887,10 857,40 887,70 887,55 909,55" fill="rgb(255,255,255)" fill-opacity="1.0" stroke="rgb(0,0,0)" stroke-width="2"  />
			<g>
				<title>SBP_bac_5 (PF00496)
"Bacterial extracellular solute-binding proteins, family 5 Middle"</title>
				<polygon class="PF00496" points="865,36 873,28 902,28 902,52 873,52 865,44" stroke-linejoin="round" width="37" height="24" fill="rgb(199,94,116)" stroke="rgb(159,75,92)" stroke-width="1" opacity="0.75" />
			</g>
		</g>
		<g>
			<title> (ctg4_123)</title>
			<polygon class=" (ctg4_123)" points="950,25 946,25 946,10 916,40 946,70 946,55 950,55" fill="rgb(255,255,255)" fill-opacity="1.0" stroke="rgb(0,0,0)" stroke-width="2"  />
			<g>
				<title>OTCace (PF00185)
"Aspartate/ornithine carbamoyltransferase, Asp/Orn binding domain"</title>
				<polygon class="PF00185" points="920,40 932,28 933,28 933,52 932,52" stroke-linejoin="round" width="17" height="24" fill="rgb(215,107,106)" stroke="rgb(172,85,84)" stroke-width="1" opacity="0.75" />
			</g>
			<g>
				<title>OTCace_N (PF02729)
"Aspartate/ornithine carbamoyltransferase, carbamoyl-P binding domain"</title>
				<rect class="PF02729" x="935" y="28" stroke-linejoin="round" width="14" height="24" fill="rgb(223,74,58)" stroke="rgb(178,59,46)" stroke-width="1" opacity="0.75" />
			</g>
		</g>
		<g>
			<title> (ctg4_124)</title>
			<polygon class=" (ctg4_124)" points="956,10 970,40 956,70" fill="rgb(255,255,255)" fill-opacity="1.0" stroke="rgb(0,0,0)" stroke-width="2"  />
			<g>
				<title>RraB (PF06877)
"Regulator of ribonuclease activity B"</title>
				<polygon class="PF06877" points="957,28 961,28 966,40 961,52 957,52" stroke-linejoin="round" width="10" height="24" fill="rgb(134,65,184)" stroke="rgb(107,52,147)" stroke-width="1" opacity="0.75" />
			</g>
		</g>
		<g>
			<title> (ctg4_125)</title>
			<polygon class=" (ctg4_125)" points="972,10 997,40 972,70" fill="rgb(255,255,255)" fill-opacity="1.0" stroke="rgb(0,0,0)" stroke-width="2"  />
			<g>
				<title>MiaE (PF06175)
"tRNA-(MS[2]IO[6]A)-hydroxylase (MiaE)"</title>
				<polygon class="PF06175" points="972,28 983,28 993,40 983,52 972,52" stroke-linejoin="round" width="24" height="24" fill="rgb(112,226,180)" stroke="rgb(89,180,144)" stroke-width="1" opacity="0.75" />
			</g>
		</g>
		<g>
			<title> (ctg4_126)</title>
			<polygon class=" (ctg4_126)" points="1051,25 1028,25 1028,10 998,40 1028,70 1028,55 1051,55" fill="rgb(255,255,255)" fill-opacity="1.0" stroke="rgb(0,0,0)" stroke-width="2"  />
			<g>
				<title>GMC_oxred_C (PF05199)
"GMC oxidoreductase"</title>
				<polygon class="PF05199" points="1002,40 1012,30 1012,50" stroke-linejoin="round" width="13" height="24" fill="rgb(186,52,106)" stroke="rgb(148,41,84)" stroke-width="1" opacity="0.75" />
			</g>
			<g>
				<title>GMC_oxred_N (PF00732)
"GMC oxidoreductase"</title>
				<rect class="PF00732" x="1022" y="28" stroke-linejoin="round" width="29" height="24" fill="rgb(180,89,214)" stroke="rgb(143,71,171)" stroke-width="1" opacity="0.75" />
			</g>
		</g>
		<g>
			<title> (ctg4_127)</title>
			<polygon class=" (ctg4_127)" points="1059,40 1075,10 1075,70" fill="rgb(255,255,255)" fill-opacity="1.0" stroke="rgb(0,0,0)" stroke-width="2"  />
			<g>
				<title>Acetyltransf_1 (PF00583)
"Acetyltransferase (GNAT) family"</title>
				<polygon class="PF00583" points="1062,40 1069,28 1072,28 1072,52 1069,52" stroke-linejoin="round" width="11" height="24" fill="rgb(121,183,50)" stroke="rgb(96,146,39)" stroke-width="1" opacity="0.75" />
			</g>
		</g>
		<g>
			<title> (ctg4_128)</title>
			<polygon class=" (ctg4_128)" points="1177,25 1112,25 1112,10 1082,40 1112,70 1112,55 1177,55" fill="rgb(255,255,255)" fill-opacity="1.0" stroke="rgb(0,0,0)" stroke-width="2"  />
			<g>
				<title>Val_tRNA-synt_C (PF10458)
"Valyl tRNA synthetase tRNA binding arm"</title>
				<polygon class="PF10458" points="1086,40 1088,38 1088,42" stroke-linejoin="round" width="6" height="24" fill="rgb(180,145,58)" stroke="rgb(144,116,46)" stroke-width="1" opacity="0.75" />
			</g>
			<g>
				<title>Anticodon_1 (PF08264)
"Anticodon-binding domain of tRNA ligase"</title>
				<polygon class="PF08264" points="1094,32 1098,28 1109,28 1109,52 1098,52 1094,48" stroke-linejoin="round" width="15" height="24" fill="rgb(85,52,208)" stroke="rgb(68,41,166)" stroke-width="1" opacity="0.75" />
			</g>
			<g>
				<title>tRNA-synt_1 (PF00133)
"tRNA synthetases class I (I, L, M and V)"</title>
				<rect class="PF00133" x="1114" y="28" stroke-linejoin="round" width="61" height="24" fill="rgb(209,58,146)" stroke="rgb(167,46,116)" stroke-width="1" opacity="0.75" />
			</g>
		</g>
		<g>
			<title> (ctg4_129)</title>
			<polygon class=" (ctg4_129)" points="1178,40 1193,10 1193,70" fill="rgb(255,255,255)" fill-opacity="1.0" stroke="rgb(0,0,0)" stroke-width="2"  />
			<g>
				<title>DNA_pol3_chi (PF04364)
"DNA polymerase III chi subunit, HolC"</title>
				<polygon class="PF04364" points="1181,40 1187,28 1192,28 1192,52 1187,52" stroke-linejoin="round" width="14" height="24" fill="rgb(212,174,104)" stroke="rgb(169,139,83)" stroke-width="1" opacity="0.75" />
			</g>
		</g>
		<g>
			<title> (ctg4_130)</title>
			<polygon class=" (ctg4_130)" points="1246,25 1226,25 1226,10 1196,40 1226,70 1226,55 1246,55" fill="rgb(255,255,255)" fill-opacity="1.0" stroke="rgb(0,0,0)" stroke-width="2"  />
			<g>
				<title>Peptidase_M17 (PF00883)
"Cytosol aminopeptidase family, catalytic domain"</title>
				<polygon class="PF00883" points="1200,40 1212,28 1227,28 1227,52 1212,52" stroke-linejoin="round" width="30" height="24" fill="rgb(81,178,163)" stroke="rgb(64,142,130)" stroke-width="1" opacity="0.75" />
			</g>
			<g>
				<title>Peptidase_M17_N (PF02789)
"Cytosol aminopeptidase family, N-terminal domain"</title>
				<rect class="PF02789" x="1231" y="28" stroke-linejoin="round" width="12" height="24" fill="rgb(216,155,96)" stroke="rgb(172,124,76)" stroke-width="1" opacity="0.75" />
			</g>
		</g>
		<g>
			<title> (ctg4_131)</title>
			<polygon class=" (ctg4_131)" points="1256,25 1262,25 1262,10 1292,40 1262,70 1262,55 1256,55" fill="rgb(255,255,255)" fill-opacity="1.0" stroke="rgb(0,0,0)" stroke-width="2"  />
			<g>
				<title>LptF_LptG (PF03739)
"Lipopolysaccharide export system permease LptF/LptG"</title>
				<polygon class="PF03739" points="1256,28 1276,28 1288,40 1276,52 1256,52" stroke-linejoin="round" width="34" height="24" fill="rgb(98,66,205)" stroke="rgb(78,52,164)" stroke-width="1" opacity="0.75" />
			</g>
		</g>
		<g>
			<title> (ctg4_132)</title>
			<polygon class=" (ctg4_132)" points="1293,25 1298,25 1298,10 1328,40 1298,70 1298,55 1293,55" fill="rgb(255,255,255)" fill-opacity="1.0" stroke="rgb(0,0,0)" stroke-width="2"  />
			<g>
				<title>LptF_LptG (PF03739)
"Lipopolysaccharide export system permease LptF/LptG"</title>
				<polygon class="PF03739" points="1293,28 1312,28 1324,40 1312,52 1293,52" stroke-linejoin="round" width="34" height="24" fill="rgb(98,66,205)" stroke="rgb(78,52,164)" stroke-width="1" opacity="0.75" />
			</g>
		</g>
		<g>
			<title> (ctg4_133)</title>
			<polygon class=" (ctg4_133)" points="1330,40 1355,10 1355,70" fill="rgb(255,255,255)" fill-opacity="1.0" stroke="rgb(0,0,0)" stroke-width="2"  />
			<g>
				<title>DeoRC (PF00455)
"DeoR C terminal sensor domain"</title>
				<polygon class="PF00455" points="1334,40 1344,28 1347,28 1347,52 1344,52" stroke-linejoin="round" width="15" height="24" fill="rgb(183,143,83)" stroke="rgb(146,114,66)" stroke-width="1" opacity="0.75" />
			</g>
			<g>
				<title>HTH_DeoR (PF08220)
"DeoR-like helix-turn-helix domain"</title>
				<rect class="PF08220" x="1349" y="28" stroke-linejoin="round" width="5" height="24" fill="rgb(194,214,67)" stroke="rgb(155,171,53)" stroke-width="1" opacity="0.75" />
			</g>
		</g>
		<g>
			<title> (ctg4_134)</title>
			<polygon class=" (ctg4_134)" points="1362,10 1385,40 1362,70" fill="rgb(255,255,255)" fill-opacity="1.0" stroke="rgb(0,0,0)" stroke-width="2"  />
			<g>
				<title>Autoind_bind (PF03472)
"Autoinducer binding domain"</title>
				<polygon class="PF03472" points="1363,28 1372,28 1377,34 1377,46 1372,52 1363,52" stroke-linejoin="round" width="14" height="24" fill="rgb(99,181,52)" stroke="rgb(79,144,41)" stroke-width="1" opacity="0.75" />
			</g>
			<g>
				<title>GerE (PF00196)
"Bacterial regulatory proteins, luxR family"</title>
				<polygon class="PF00196" points="1379,37 1382,40 1379,43" stroke-linejoin="round" width="5" height="24" fill="rgb(219,94,82)" stroke="rgb(175,75,65)" stroke-width="1" opacity="0.75" />
			</g>
		</g>
		<g>
			<title> (ctg4_135)</title>
			<polygon class=" (ctg4_135)" points="1386,40 1407,10 1407,70" fill="rgb(255,255,255)" fill-opacity="1.0" stroke="rgb(0,0,0)" stroke-width="2"  />
			<g>
				<title>Autoind_synth (PF00765)
"Autoinducer synthase"</title>
				<polygon class="PF00765" points="1390,40 1399,28 1405,28 1405,52 1399,52" stroke-linejoin="round" width="17" height="24" fill="rgb(197,72,80)" stroke="rgb(157,57,64)" stroke-width="1" opacity="0.75" />
			</g>
		</g>
		<g>
			<title> (ctg4_136)</title>
			<polygon class=" (ctg4_136)" points="1449,40 1462,10 1462,70" fill="rgb(255,255,255)" fill-opacity="1.0" stroke="rgb(0,0,0)" stroke-width="2"  />
			<g>
				<title>Glyoxalase_4 (PF13669)
"Glyoxalase/Bleomycin resistance protein/Dioxygenase superfamily"</title>
				<polygon class="PF13669" points="1452,40 1457,28 1460,28 1460,52 1457,52" stroke-linejoin="round" width="10" height="24" fill="rgb(66,183,136)" stroke="rgb(52,146,108)" stroke-width="1" opacity="0.75" />
			</g>
		</g>
		<g>
			<title> (ctg4_137)</title>
			<polygon class=" (ctg4_137)" points="1506,25 1492,25 1492,10 1462,40 1492,70 1492,55 1506,55" fill="rgb(255,255,255)" fill-opacity="1.0" stroke="rgb(0,0,0)" stroke-width="2"  />
			<g>
				<title>MFS_1 (PF07690)
"Major Facilitator Superfamily"</title>
				<polygon class="PF07690" points="1466,40 1478,28 1503,28 1503,52 1478,52 1466,40" stroke-linejoin="round" width="37" height="24" fill="rgb(193,224,74)" stroke="rgb(154,179,59)" stroke-width="1" opacity="0.75" />
			</g>
		</g>
		<g>
			<title> (ctg4_138)</title>
			<polygon class=" (ctg4_138)" points="1557,25 1536,25 1536,10 1506,40 1536,70 1536,55 1557,55" fill="rgb(255,255,255)" fill-opacity="1.0" stroke="rgb(0,0,0)" stroke-width="2"  />
			<g>
				<title>FGGY_C (PF02782)
"FGGY family of carbohydrate kinases, C-terminal domain"</title>
				<polygon class="PF02782" points="1512,38 1522,28 1530,28 1530,52 1522,52 1512,42" stroke-linejoin="round" width="18" height="24" fill="rgb(204,103,85)" stroke="rgb(163,82,68)" stroke-width="1" opacity="0.75" />
			</g>
			<g>
				<title>FGGY_N (PF00370)
"FGGY family of carbohydrate kinases, N-terminal domain"</title>
				<rect class="PF00370" x="1532" y="28" stroke-linejoin="round" width="24" height="24" fill="rgb(83,186,105)" stroke="rgb(66,148,83)" stroke-width="1" opacity="0.75" />
			</g>
		</g>
		<g>
			<title> (ctg4_139)</title>
			<polygon class=" (ctg4_139)" points="1559,40 1582,10 1582,70" fill="rgb(255,255,255)" fill-opacity="1.0" stroke="rgb(0,0,0)" stroke-width="2"  />
			<g>
				<title>DeoC (PF01791)
"DeoC/LacD family aldolase"</title>
				<polygon class="PF01791" points="1563,40 1573,28 1581,28 1581,52 1573,52" stroke-linejoin="round" width="20" height="24" fill="rgb(151,59,198)" stroke="rgb(120,47,158)" stroke-width="1" opacity="0.75" />
			</g>
		</g>
		<g>
			<title> (ctg4_140)</title>
			<polygon class=" (ctg4_140)" points="1685,25 1646,25 1646,10 1616,40 1646,70 1646,55 1685,55" fill="rgb(255,255,255)" fill-opacity="1.0" stroke="rgb(0,0,0)" stroke-width="2"  />
			<g>
				<title>HATPase_c_3 (PF13589)
"Histidine kinase-, DNA gyrase B-, and HSP90-like ATPase"</title>
				<rect class="PF13589" x="1668" y="28" stroke-linejoin="round" width="14" height="24" fill="rgb(220,68,225)" stroke="rgb(176,54,180)" stroke-width="1" opacity="0.75" />
			</g>
		</g>
		<g>
			<title> (ctg4_141)</title>
			<polygon class=" (ctg4_141)" points="1732,25 1718,25 1718,10 1688,40 1718,70 1718,55 1732,55" fill="rgb(255,255,255)" fill-opacity="1.0" stroke="rgb(0,0,0)" stroke-width="2"  />
		</g>
	</g>
</svg>
