<svg version="1.1" baseProfile="full" xmlns="http://www.w3.org/2000/svg" width="1492.9333333333334" height="80">
	<g>
		<line x1="10" y1="40.0" x2="1482.9333333333334" y2="40.0" style="stroke:rgb(70,70,70); stroke-width:3 "/>
		<g>
			<title> (ctg7_95)</title>
			<polygon class=" (ctg7_95)" points="74,25 69,25 69,10 39,40 69,70 69,55 74,55" fill="rgb(255,255,255)" fill-opacity="1.0" stroke="rgb(0,0,0)" stroke-width="2"  />
		</g>
		<g>
			<title> (ctg7_96)</title>
			<polygon class=" (ctg7_96)" points="80,40 93,10 93,70" fill="rgb(255,255,255)" fill-opacity="1.0" stroke="rgb(0,0,0)" stroke-width="2"  />
		</g>
		<g>
			<title> (ctg7_97)</title>
			<polygon class=" (ctg7_97)" points="160,25 157,25 157,10 127,40 157,70 157,55 160,55" fill="rgb(255,255,255)" fill-opacity="1.0" stroke="rgb(0,0,0)" stroke-width="2"  />
			<g>
				<title>DUF4379 (PF14311)
"Probable Zinc-ribbon domain"</title>
				<polygon class="PF14311" points="131,40 136,35 136,45 131,40" stroke-linejoin="round" width="5" height="24" fill="rgb(91,223,148)" stroke="rgb(72,178,118)" stroke-width="1" opacity="0.75" />
			</g>
			<g>
				<title>DUF4379 (PF14311)
"Probable Zinc-ribbon domain"</title>
				<polygon class="PF14311" points="138,33 143,28 143,28 143,52 143,52 138,47" stroke-linejoin="round" width="5" height="24" fill="rgb(91,223,148)" stroke="rgb(72,178,118)" stroke-width="1" opacity="0.75" />
			</g>
			<g>
				<title>DUF4379 (PF14311)
"Probable Zinc-ribbon domain"</title>
				<rect class="PF14311" x="145" y="28" stroke-linejoin="round" width="5" height="24" fill="rgb(91,223,148)" stroke="rgb(72,178,118)" stroke-width="1" opacity="0.75" />
			</g>
			<g>
				<title>DUF4379 (PF14311)
"Probable Zinc-ribbon domain"</title>
				<rect class="PF14311" x="154" y="28" stroke-linejoin="round" width="5" height="24" fill="rgb(91,223,148)" stroke="rgb(72,178,118)" stroke-width="1" opacity="0.75" />
			</g>
		</g>
		<g>
			<title> (ctg7_98)</title>
			<polygon class=" (ctg7_98)" points="162,40 172,10 172,70" fill="rgb(255,255,255)" fill-opacity="1.0" stroke="rgb(0,0,0)" stroke-width="2"  />
		</g>
		<g>
			<title> (ctg7_99)</title>
			<polygon class=" (ctg7_99)" points="269,25 238,25 238,10 208,40 238,70 238,55 269,55" fill="rgb(255,255,255)" fill-opacity="1.0" stroke="rgb(0,0,0)" stroke-width="2"  />
			<g>
				<title>HATPase_c (PF02518)
"Histidine kinase-, DNA gyrase B-, and HSP90-like ATPase"</title>
				<polygon class="PF02518" points="212,40 219,33 219,47" stroke-linejoin="round" width="11" height="24" fill="rgb(80,94,225)" stroke="rgb(64,75,180)" stroke-width="1" opacity="0.75" />
			</g>
			<g>
				<title>HisKA (PF00512)
"His Kinase A (phospho-acceptor) domain"</title>
				<polygon class="PF00512" points="223,29 224,28 229,28 229,52 224,52 223,51" stroke-linejoin="round" width="6" height="24" fill="rgb(193,125,62)" stroke="rgb(154,100,49)" stroke-width="1" opacity="0.75" />
			</g>
		</g>
		<g>
			<title> (ctg7_100)</title>
			<polygon class=" (ctg7_100)" points="269,40 291,10 291,70" fill="rgb(255,255,255)" fill-opacity="1.0" stroke="rgb(0,0,0)" stroke-width="2"  />
			<g>
				<title>Trans_reg_C (PF00486)
"Transcriptional regulatory protein, C terminal"</title>
				<polygon class="PF00486" points="273,40 276,36 276,44" stroke-linejoin="round" width="7" height="24" fill="rgb(204,153,57)" stroke="rgb(163,122,45)" stroke-width="1" opacity="0.75" />
			</g>
			<g>
				<title>Response_reg (PF00072)
"Response regulator receiver domain"</title>
				<polygon class="PF00072" points="280,31 282,28 291,28 291,52 282,52 280,49" stroke-linejoin="round" width="11" height="24" fill="rgb(100,107,203)" stroke="rgb(80,85,162)" stroke-width="1" opacity="0.75" />
			</g>
		</g>
		<g>
			<title> (ctg7_101)</title>
			<polygon class=" (ctg7_101)" points="293,40 320,10 320,70" fill="rgb(255,255,255)" fill-opacity="1.0" stroke="rgb(0,0,0)" stroke-width="2"  />
			<g>
				<title>Peptidase_C39_2 (PF13529)
"Peptidase_C39 like family"</title>
				<polygon class="PF13529" points="297,40 308,28 312,28 312,52 308,52" stroke-linejoin="round" width="16" height="24" fill="rgb(228,224,83)" stroke="rgb(182,179,66)" stroke-width="1" opacity="0.75" />
			</g>
		</g>
		<g>
			<title> (ctg7_102)</title>
			<polygon class=" (ctg7_102)" points="400,10 417,40 400,70" fill="rgb(255,255,255)" fill-opacity="1.0" stroke="rgb(0,0,0)" stroke-width="2"  />
			<g>
				<title>Isochorismatase (PF00857)
"Isochorismatase family"</title>
				<polygon class="PF00857" points="400,28 407,28 414,40 407,52 400,52" stroke-linejoin="round" width="15" height="24" fill="rgb(144,224,70)" stroke="rgb(115,179,56)" stroke-width="1" opacity="0.75" />
			</g>
		</g>
		<g>
			<title> (ctg7_103)</title>
			<polygon class=" (ctg7_103)" points="435,40 445,10 445,70" fill="rgb(255,255,255)" fill-opacity="1.0" stroke="rgb(0,0,0)" stroke-width="2"  />
		</g>
		<g>
			<title> (ctg7_104)</title>
			<polygon class=" (ctg7_104)" points="449,25 454,25 454,10 484,40 454,70 454,55 449,55" fill="rgb(255,255,255)" fill-opacity="1.0" stroke="rgb(0,0,0)" stroke-width="2"  />
			<g>
				<title>Amidase_6 (PF12671)
"Putative amidase domain"</title>
				<polygon class="PF12671" points="466,28 468,28 480,40 468,52 466,52" stroke-linejoin="round" width="17" height="24" fill="rgb(162,213,63)" stroke="rgb(129,170,50)" stroke-width="1" opacity="0.75" />
			</g>
		</g>
		<g>
			<title> (ctg7_105)</title>
			<polygon class=" (ctg7_105)" points="488,10 497,40 488,70" fill="rgb(255,255,255)" fill-opacity="1.0" stroke="rgb(0,0,0)" stroke-width="2"  />
			<g>
				<title>Bac_DNA_binding (PF00216)
"Bacterial DNA-binding protein"</title>
				<polygon class="PF00216" points="488,28 489,28 493,40 489,52 488,52" stroke-linejoin="round" width="8" height="24" fill="rgb(73,205,204)" stroke="rgb(58,164,163)" stroke-width="1" opacity="0.75" />
			</g>
		</g>
		<g>
			<title> (ctg7_106)</title>
			<polygon class=" (ctg7_106)" points="504,40 518,10 518,70" fill="rgb(255,255,255)" fill-opacity="1.0" stroke="rgb(0,0,0)" stroke-width="2"  />
			<g>
				<title>SUKH_5 (PF14567)
"SMI1-KNR4 cell-wall"</title>
				<polygon class="PF14567" points="507,40 513,28 517,28 517,52 513,52" stroke-linejoin="round" width="12" height="24" fill="rgb(88,214,135)" stroke="rgb(70,171,108)" stroke-width="1" opacity="0.75" />
			</g>
		</g>
		<g>
			<title> (ctg7_107)</title>
			<polygon class=" (ctg7_107)" points="520,40 526,10 526,70" fill="rgb(255,255,255)" fill-opacity="1.0" stroke="rgb(0,0,0)" stroke-width="2"  />
			<g>
				<title>DUF4083 (PF13314)
"Domain of unknown function (DUF4083)"</title>
				<polygon class="PF13314" points="523,40 525,28 525,28 525,52 525,52" stroke-linejoin="round" width="5" height="24" fill="rgb(103,213,119)" stroke="rgb(82,170,95)" stroke-width="1" opacity="0.75" />
			</g>
		</g>
		<g>
			<title> (ctg7_108)</title>
			<polygon class=" (ctg7_108)" points="531,40 544,10 544,70" fill="rgb(255,255,255)" fill-opacity="1.0" stroke="rgb(0,0,0)" stroke-width="2"  />
			<g>
				<title>Glyoxalase (PF00903)
"Glyoxalase/Bleomycin resistance protein/Dioxygenase superfamily"</title>
				<polygon class="PF00903" points="534,40 540,28 544,28 544,52 540,52" stroke-linejoin="round" width="11" height="24" fill="rgb(50,162,189)" stroke="rgb(40,129,151)" stroke-width="1" opacity="0.75" />
			</g>
		</g>
		<g>
			<title> (ctg7_109)</title>
			<polygon class=" (ctg7_109)" points="556,40 578,10 578,70" fill="rgb(255,255,255)" fill-opacity="1.0" stroke="rgb(0,0,0)" stroke-width="2"  />
			<g>
				<title>HAD_2 (PF13419)
"Haloacid dehalogenase-like hydrolase"</title>
				<polygon class="PF13419" points="560,40 569,28 577,28 577,52 569,52" stroke-linejoin="round" width="18" height="24" fill="rgb(60,223,188)" stroke="rgb(48,178,150)" stroke-width="1" opacity="0.75" />
			</g>
		</g>
		<g>
			<title> (ctg7_110)</title>
			<polygon class=" (ctg7_110)" points="582,40 603,10 603,70" fill="rgb(255,255,255)" fill-opacity="1.0" stroke="rgb(0,0,0)" stroke-width="2"  />
			<g>
				<title>HAD_2 (PF13419)
"Haloacid dehalogenase-like hydrolase"</title>
				<polygon class="PF13419" points="586,40 594,28 601,28 601,52 594,52" stroke-linejoin="round" width="17" height="24" fill="rgb(60,223,188)" stroke="rgb(48,178,150)" stroke-width="1" opacity="0.75" />
			</g>
		</g>
		<g>
			<title> (ctg7_111)</title>
			<polygon class=" (ctg7_111)" points="637,25 634,25 634,10 604,40 634,70 634,55 637,55" fill="rgb(255,255,255)" fill-opacity="1.0" stroke="rgb(0,0,0)" stroke-width="2"  />
		</g>
		<g>
			<title> (ctg7_112)</title>
			<polygon class=" (ctg7_112)" points="670,25 668,25 668,10 638,40 668,70 668,55 670,55" fill="rgb(255,255,255)" fill-opacity="1.0" stroke="rgb(0,0,0)" stroke-width="2"  />
		</g>
		<g>
			<title> (ctg7_113)</title>
			<polygon class=" (ctg7_113)" points="815,25 706,25 706,10 676,40 706,70 706,55 815,55" fill="rgb(255,255,255)" fill-opacity="1.0" stroke="rgb(0,0,0)" stroke-width="2"  />
			<g>
				<title>Condensation (PF00668)
"Condensation domain"</title>
				<rect class="PF00668" x="698" y="28" stroke-linejoin="round" width="19" height="24" fill="rgb(224,184,98)" stroke="rgb(179,147,78)" stroke-width="1" opacity="0.75" />
			</g>
			<g>
				<title>PP-binding (PF00550)
"Phosphopantetheine attachment site"</title>
				<rect class="PF00550" x="729" y="28" stroke-linejoin="round" width="6" height="24" fill="rgb(103,191,88)" stroke="rgb(82,152,70)" stroke-width="1" opacity="0.75" />
			</g>
			<g>
				<title>AMP-binding_C (PF13193)
"AMP-binding enzyme C-terminal domain"</title>
				<rect class="PF13193" x="738" y="28" stroke-linejoin="round" width="7" height="24" fill="rgb(182,50,118)" stroke="rgb(145,39,94)" stroke-width="1" opacity="0.75" />
			</g>
			<g>
				<title>AMP-binding (PF00501)
"AMP-binding enzyme"</title>
				<rect class="PF00501" x="746" y="28" stroke-linejoin="round" width="38" height="24" fill="rgb(60,217,223)" stroke="rgb(48,173,178)" stroke-width="1" opacity="0.75" />
			</g>
			<g>
				<title>Condensation (PF00668)
"Condensation domain"</title>
				<rect class="PF00668" x="786" y="28" stroke-linejoin="round" width="28" height="24" fill="rgb(224,184,98)" stroke="rgb(179,147,78)" stroke-width="1" opacity="0.75" />
			</g>
		</g>
		<g>
			<title> (ctg7_114)</title>
			<polygon class=" (ctg7_114)" points="853,25 863,25 863,10 893,40 863,70 863,55 853,55" fill="rgb(255,255,255)" fill-opacity="1.0" stroke="rgb(0,0,0)" stroke-width="2"  />
			<g>
				<title>ATP-grasp_3 (PF02655)
"ATP-grasp domain"</title>
				<polygon class="PF02655" points="863,28 877,28 880,31 880,49 877,52 863,52" stroke-linejoin="round" width="17" height="24" fill="rgb(84,156,185)" stroke="rgb(67,124,148)" stroke-width="1" opacity="0.75" />
			</g>
		</g>
		<g>
			<title> (ctg7_115)</title>
			<polygon class=" (ctg7_115)" points="894,25 905,25 905,10 935,40 905,70 905,55 894,55" fill="rgb(255,255,255)" fill-opacity="1.0" stroke="rgb(0,0,0)" stroke-width="2"  />
			<g>
				<title>MFS_1 (PF07690)
"Major Facilitator Superfamily"</title>
				<rect class="PF07690" x="895" y="28" stroke-linejoin="round" width="24" height="24" fill="rgb(193,224,74)" stroke="rgb(154,179,59)" stroke-width="1" opacity="0.75" />
			</g>
			<g>
				<title>MFS_1 (PF07690)
"Major Facilitator Superfamily"</title>
				<polygon class="PF07690" points="919,28 919,28 931,40 919,52 919,52" stroke-linejoin="round" width="16" height="24" fill="rgb(193,224,74)" stroke="rgb(154,179,59)" stroke-width="1" opacity="0.75" />
			</g>
		</g>
		<g>
			<title> (ctg7_116)</title>
			<polygon class=" (ctg7_116)" points="952,40 972,10 972,70" fill="rgb(255,255,255)" fill-opacity="1.0" stroke="rgb(0,0,0)" stroke-width="2"  />
			<g>
				<title>HAD_2 (PF13419)
"Haloacid dehalogenase-like hydrolase"</title>
				<polygon class="PF13419" points="956,40 964,28 971,28 971,52 964,52" stroke-linejoin="round" width="17" height="24" fill="rgb(60,223,188)" stroke="rgb(48,178,150)" stroke-width="1" opacity="0.75" />
			</g>
		</g>
		<g>
			<title> (ctg7_117)</title>
			<polygon class=" (ctg7_117)" points="1052,25 1035,25 1035,10 1005,40 1035,70 1035,55 1052,55" fill="rgb(255,255,255)" fill-opacity="1.0" stroke="rgb(0,0,0)" stroke-width="2"  />
			<g>
				<title>DDE_Tnp_1 (PF01609)
"Transposase DDE domain"</title>
				<polygon class="PF01609" points="1014,35 1021,28 1040,28 1040,52 1021,52 1014,45" stroke-linejoin="round" width="26" height="24" fill="rgb(229,102,99)" stroke="rgb(183,81,79)" stroke-width="1" opacity="0.75" />
			</g>
		</g>
		<g>
			<title> (ctg7_118)</title>
			<polygon class=" (ctg7_118)" points="1055,40 1083,10 1083,70" fill="rgb(255,255,255)" fill-opacity="1.0" stroke="rgb(0,0,0)" stroke-width="2"  />
			<g>
				<title>rve_2 (PF13333)
"Integrase core domain"</title>
				<polygon class="PF13333" points="1059,40 1060,39 1060,41" stroke-linejoin="round" width="5" height="24" fill="rgb(97,193,73)" stroke="rgb(77,154,58)" stroke-width="1" opacity="0.75" />
			</g>
			<g>
				<title>rve (PF00665)
"Integrase core domain"</title>
				<polygon class="PF00665" points="1061,38 1070,28 1070,28 1070,52 1070,52 1061,42" stroke-linejoin="round" width="9" height="24" fill="rgb(93,64,200)" stroke="rgb(74,51,160)" stroke-width="1" opacity="0.75" />
			</g>
			<g>
				<title>HTH_21 (PF13276)
"HTH-like domain"</title>
				<rect class="PF13276" x="1073" y="28" stroke-linejoin="round" width="5" height="24" fill="rgb(114,195,68)" stroke="rgb(91,156,54)" stroke-width="1" opacity="0.75" />
			</g>
		</g>
		<g>
			<title> (ctg7_119)</title>
			<polygon class=" (ctg7_119)" points="1083,40 1093,10 1093,70" fill="rgb(255,255,255)" fill-opacity="1.0" stroke="rgb(0,0,0)" stroke-width="2"  />
		</g>
		<g>
			<title> (ctg7_120)</title>
			<polygon class=" (ctg7_120)" points="1096,25 1108,25 1108,10 1138,40 1108,70 1108,55 1096,55" fill="rgb(255,255,255)" fill-opacity="1.0" stroke="rgb(0,0,0)" stroke-width="2"  />
			<g>
				<title>DUF4158 (PF13700)
"Domain of unknown function (DUF4158)"</title>
				<rect class="PF13700" x="1096" y="28" stroke-linejoin="round" width="6" height="24" fill="rgb(93,106,195)" stroke="rgb(74,84,156)" stroke-width="1" opacity="0.75" />
			</g>
		</g>
		<g>
			<title> (ctg7_121)</title>
			<polygon class=" (ctg7_121)" points="1134,40 1141,10 1141,70" fill="rgb(255,255,255)" fill-opacity="1.0" stroke="rgb(0,0,0)" stroke-width="2"  />
		</g>
		<g>
			<title> (ctg7_122)</title>
			<polygon class=" (ctg7_122)" points="1145,25 1164,25 1164,10 1194,40 1164,70 1164,55 1145,55" fill="rgb(255,255,255)" fill-opacity="1.0" stroke="rgb(0,0,0)" stroke-width="2"  />
			<g>
				<title>GerA (PF03323)
"Bacillus/Clostridium GerA spore germination protein"</title>
				<polygon class="PF03323" points="1146,28 1178,28 1190,40 1178,52 1146,52" stroke-linejoin="round" width="45" height="24" fill="rgb(114,81,229)" stroke="rgb(91,64,183)" stroke-width="1" opacity="0.75" />
			</g>
		</g>
		<g>
			<title> (ctg7_123)</title>
			<polygon class=" (ctg7_123)" points="1195,25 1201,25 1201,10 1231,40 1201,70 1201,55 1195,55" fill="rgb(255,255,255)" fill-opacity="1.0" stroke="rgb(0,0,0)" stroke-width="2"  />
			<g>
				<title>Spore_permease (PF03845)
"Spore germination protein"</title>
				<polygon class="PF03845" points="1195,28 1215,28 1226,39 1226,41 1215,52 1195,52" stroke-linejoin="round" width="31" height="24" fill="rgb(89,176,194)" stroke="rgb(71,140,155)" stroke-width="1" opacity="0.75" />
			</g>
		</g>
		<g>
			<title> (ctg7_124)</title>
			<polygon class=" (ctg7_124)" points="1232,25 1239,25 1239,10 1269,40 1239,70 1239,55 1232,55" fill="rgb(255,255,255)" fill-opacity="1.0" stroke="rgb(0,0,0)" stroke-width="2"  />
			<g>
				<title>Spore_GerAC (PF05504)
"Spore germination B3/ GerAC like, C-terminal"</title>
				<polygon class="PF05504" points="1251,28 1253,28 1265,40 1253,52 1251,52" stroke-linejoin="round" width="17" height="24" fill="rgb(90,84,197)" stroke="rgb(71,67,157)" stroke-width="1" opacity="0.75" />
			</g>
		</g>
		<g>
			<title> (ctg7_125)</title>
			<polygon class=" (ctg7_125)" points="1282,10 1300,40 1282,70" fill="rgb(255,255,255)" fill-opacity="1.0" stroke="rgb(0,0,0)" stroke-width="2"  />
			<g>
				<title>Resolvase (PF00239)
"Resolvase, N terminal domain"</title>
				<polygon class="PF00239" points="1282,28 1289,28 1295,37 1295,43 1289,52 1282,52" stroke-linejoin="round" width="13" height="24" fill="rgb(99,177,201)" stroke="rgb(79,141,160)" stroke-width="1" opacity="0.75" />
			</g>
			<g>
				<title>HTH_7 (PF02796)
"Helix-turn-helix domain of resolvase"</title>
				<polygon class="PF02796" points="1295,37 1296,40 1295,43" stroke-linejoin="round" width="4" height="24" fill="rgb(223,208,93)" stroke="rgb(178,166,74)" stroke-width="1" opacity="0.75" />
			</g>
		</g>
		<g>
			<title> (ctg7_126)</title>
			<polygon class=" (ctg7_126)" points="1301,40 1320,10 1320,70" fill="rgb(255,255,255)" fill-opacity="1.0" stroke="rgb(0,0,0)" stroke-width="2"  />
			<g>
				<title>CLP_protease (PF00574)
"Clp protease"</title>
				<polygon class="PF00574" points="1305,40 1313,28 1319,28 1319,52 1313,52" stroke-linejoin="round" width="18" height="24" fill="rgb(196,111,59)" stroke="rgb(156,88,47)" stroke-width="1" opacity="0.75" />
			</g>
		</g>
		<g>
			<title> (ctg7_127)</title>
			<polygon class=" (ctg7_127)" points="1329,40 1358,10 1358,70" fill="rgb(255,255,255)" fill-opacity="1.0" stroke="rgb(0,0,0)" stroke-width="2"  />
			<g>
				<title>DUF1657 (PF07870)
"Protein of unknown function (DUF1657)"</title>
				<polygon class="PF07870" points="1333,40 1333,40 1333,40" stroke-linejoin="round" width="4" height="24" fill="rgb(75,94,197)" stroke="rgb(60,75,157)" stroke-width="1" opacity="0.75" />
			</g>
			<g>
				<title>DUF421 (PF04239)
"Protein of unknown function (DUF421)"</title>
				<polygon class="PF04239" points="1337,36 1345,28 1348,28 1348,52 1345,52 1337,44" stroke-linejoin="round" width="11" height="24" fill="rgb(165,197,85)" stroke="rgb(132,157,68)" stroke-width="1" opacity="0.75" />
			</g>
		</g>
		<g>
			<title> (ctg7_128)</title>
			<polygon class=" (ctg7_128)" points="1358,40 1364,10 1364,70" fill="rgb(255,255,255)" fill-opacity="1.0" stroke="rgb(0,0,0)" stroke-width="2"  />
			<g>
				<title>DUF1657 (PF07870)
"Protein of unknown function (DUF1657)"</title>
				<polygon class="PF07870" points="1361,40 1363,31 1363,49" stroke-linejoin="round" width="4" height="24" fill="rgb(75,94,197)" stroke="rgb(60,75,157)" stroke-width="1" opacity="0.75" />
			</g>
		</g>
		<g>
			<title> (ctg7_129)</title>
			<polygon class=" (ctg7_129)" points="1366,40 1377,10 1377,70" fill="rgb(255,255,255)" fill-opacity="1.0" stroke="rgb(0,0,0)" stroke-width="2"  />
			<g>
				<title>SpoVAC_SpoVAEB (PF03862)
"SpoVAC/SpoVAEB sporulation membrane protein"</title>
				<polygon class="PF03862" points="1369,40 1374,28 1376,28 1376,52 1374,52" stroke-linejoin="round" width="10" height="24" fill="rgb(64,80,196)" stroke="rgb(51,64,156)" stroke-width="1" opacity="0.75" />
			</g>
		</g>
		<g>
			<title> (ctg7_130)</title>
			<polygon class=" (ctg7_130)" points="1410,25 1407,25 1407,10 1377,40 1407,70 1407,55 1410,55" fill="rgb(255,255,255)" fill-opacity="1.0" stroke="rgb(0,0,0)" stroke-width="2"  />
			<g>
				<title>SpoVAD (PF07451)
"Stage V sporulation protein AD (SpoVAD)"</title>
				<polygon class="PF07451" points="1381,40 1393,28 1409,28 1409,52 1393,52" stroke-linejoin="round" width="32" height="24" fill="rgb(159,101,207)" stroke="rgb(127,80,165)" stroke-width="1" opacity="0.75" />
			</g>
		</g>
		<g>
			<title> (ctg7_131)</title>
			<polygon class=" (ctg7_131)" points="1411,40 1426,10 1426,70" fill="rgb(255,255,255)" fill-opacity="1.0" stroke="rgb(0,0,0)" stroke-width="2"  />
			<g>
				<title>SpoVAC_SpoVAEB (PF03862)
"SpoVAC/SpoVAEB sporulation membrane protein"</title>
				<polygon class="PF03862" points="1414,40 1420,28 1423,28 1423,52 1420,52" stroke-linejoin="round" width="11" height="24" fill="rgb(64,80,196)" stroke="rgb(51,64,156)" stroke-width="1" opacity="0.75" />
			</g>
		</g>
		<g>
			<title> (ctg7_132)</title>
			<polygon class=" (ctg7_132)" points="1428,40 1446,10 1446,70" fill="rgb(255,255,255)" fill-opacity="1.0" stroke="rgb(0,0,0)" stroke-width="2"  />
		</g>
		<g>
			<title> (ctg7_133)</title>
			<polygon class=" (ctg7_133)" points="1447,40 1453,10 1453,70" fill="rgb(255,255,255)" fill-opacity="1.0" stroke="rgb(0,0,0)" stroke-width="2"  />
			<g>
				<title>DUF1657 (PF07870)
"Protein of unknown function (DUF1657)"</title>
				<polygon class="PF07870" points="1450,40 1452,31 1452,49" stroke-linejoin="round" width="4" height="24" fill="rgb(75,94,197)" stroke="rgb(60,75,157)" stroke-width="1" opacity="0.75" />
			</g>
		</g>
	</g>
</svg>
