<svg version="1.1" baseProfile="full" xmlns="http://www.w3.org/2000/svg" width="1472.7333333333333" height="80">
	<g>
		<line x1="10" y1="40.0" x2="1462.7333333333333" y2="40.0" style="stroke:rgb(70,70,70); stroke-width:3 "/>
		<g>
			<title> (ctg13_80)</title>
			<polygon class=" (ctg13_80)" points="13,25 15,25 15,10 45,40 15,70 15,55 13,55" fill="rgb(255,255,255)" fill-opacity="1.0" stroke="rgb(0,0,0)" stroke-width="2"  />
			<g>
				<title>AA_kinase (PF00696)
"Amino acid kinase family"</title>
				<polygon class="PF00696" points="13,28 28,28 40,40 28,52 13,52" stroke-linejoin="round" width="29" height="24" fill="rgb(148,78,224)" stroke="rgb(118,62,179)" stroke-width="1" opacity="0.75" />
			</g>
		</g>
		<g>
			<title> (ctg13_81)</title>
			<polygon class=" (ctg13_81)" points="52,10 75,40 52,70" fill="rgb(255,255,255)" fill-opacity="1.0" stroke="rgb(0,0,0)" stroke-width="2"  />
			<g>
				<title>cNMP_binding (PF00027)
"Cyclic nucleotide-binding domain"</title>
				<polygon class="PF00027" points="55,28 62,28 63,30 63,50 62,52 55,52" stroke-linejoin="round" width="8" height="24" fill="rgb(138,95,204)" stroke="rgb(110,76,163)" stroke-width="1" opacity="0.75" />
			</g>
			<g>
				<title>HTH_Crp_2 (PF13545)
"Crp-like helix-turn-helix domain"</title>
				<polygon class="PF13545" points="67,35 71,40 67,45" stroke-linejoin="round" width="7" height="24" fill="rgb(87,137,202)" stroke="rgb(69,109,161)" stroke-width="1" opacity="0.75" />
			</g>
		</g>
		<g>
			<title> (ctg13_82)</title>
			<polygon class=" (ctg13_82)" points="80,10 102,40 80,70" fill="rgb(255,255,255)" fill-opacity="1.0" stroke="rgb(0,0,0)" stroke-width="2"  />
		</g>
		<g>
			<title> (ctg13_83)</title>
			<polygon class=" (ctg13_83)" points="151,25 137,25 137,10 107,40 137,70 137,55 151,55" fill="rgb(255,255,255)" fill-opacity="1.0" stroke="rgb(0,0,0)" stroke-width="2"  />
			<g>
				<title>BBE (PF08031)
"Berberine and berberine like"</title>
				<polygon class="PF08031" points="111,40 111,40 111,40" stroke-linejoin="round" width="4" height="24" fill="rgb(210,73,83)" stroke="rgb(168,58,66)" stroke-width="1" opacity="0.75" />
			</g>
			<g>
				<title>FAD_binding_4 (PF01565)
"FAD binding domain"</title>
				<rect class="PF01565" x="135" y="28" stroke-linejoin="round" width="13" height="24" fill="rgb(226,88,136)" stroke="rgb(180,70,108)" stroke-width="1" opacity="0.75" />
			</g>
		</g>
		<g>
			<title> (ctg13_84)</title>
			<polygon class=" (ctg13_84)" points="159,25 184,25 184,10 214,40 184,70 184,55 159,55" fill="rgb(255,255,255)" fill-opacity="1.0" stroke="rgb(0,0,0)" stroke-width="2"  />
			<g>
				<title>Alpha-amylase (PF00128)
"Alpha amylase, catalytic domain"</title>
				<rect class="PF00128" x="161" y="28" stroke-linejoin="round" width="35" height="24" fill="rgb(72,189,149)" stroke="rgb(57,151,119)" stroke-width="1" opacity="0.75" />
			</g>
			<g>
				<title>Malt_amylase_C (PF16657)
"Maltogenic Amylase, C-terminal domain"</title>
				<polygon class="PF16657" points="206,36 210,40 206,44" stroke-linejoin="round" width="7" height="24" fill="rgb(112,65,207)" stroke="rgb(89,51,165)" stroke-width="1" opacity="0.75" />
			</g>
		</g>
		<g>
			<title> (ctg13_85)</title>
			<polygon class=" (ctg13_85)" points="222,25 246,25 246,10 276,40 246,70 246,55 222,55" fill="rgb(255,255,255)" fill-opacity="1.0" stroke="rgb(0,0,0)" stroke-width="2"  />
			<g>
				<title>PTS_EIIC (PF02378)
"Phosphotransferase system, EIIC"</title>
				<rect class="PF02378" x="223" y="28" stroke-linejoin="round" width="36" height="24" fill="rgb(73,199,212)" stroke="rgb(58,159,169)" stroke-width="1" opacity="0.75" />
			</g>
			<g>
				<title>PTS_EIIB (PF00367)
"phosphotransferase system, EIIB"</title>
				<polygon class="PF00367" points="269,37 272,40 272,40 269,43" stroke-linejoin="round" width="3" height="24" fill="rgb(188,77,92)" stroke="rgb(150,61,73)" stroke-width="1" opacity="0.75" />
			</g>
		</g>
		<g>
			<title> (ctg13_86)</title>
			<polygon class=" (ctg13_86)" points="276,10 302,40 276,70" fill="rgb(255,255,255)" fill-opacity="1.0" stroke="rgb(0,0,0)" stroke-width="2"  />
			<g>
				<title>Exo_endo_phos (PF03372)
"Endonuclease/Exonuclease/phosphatase family"</title>
				<polygon class="PF03372" points="276,28 288,28 298,40 288,52 276,52" stroke-linejoin="round" width="24" height="24" fill="rgb(76,66,180)" stroke="rgb(60,52,144)" stroke-width="1" opacity="0.75" />
			</g>
		</g>
		<g>
			<title> (ctg13_87)</title>
			<polygon class=" (ctg13_87)" points="313,25 382,25 382,10 412,40 382,70 382,55 313,55" fill="rgb(255,255,255)" fill-opacity="1.0" stroke="rgb(0,0,0)" stroke-width="2"  />
			<g>
				<title>ABC2_membrane_3 (PF12698)
"ABC-2 family transporter protein"</title>
				<rect class="PF12698" x="314" y="28" stroke-linejoin="round" width="19" height="24" fill="rgb(151,189,55)" stroke="rgb(120,151,44)" stroke-width="1" opacity="0.75" />
			</g>
			<g>
				<title>ABC2_membrane_3 (PF12698)
"ABC-2 family transporter protein"</title>
				<polygon class="PF12698" points="346,28 395,28 407,40 395,52 346,52" stroke-linejoin="round" width="63" height="24" fill="rgb(151,189,55)" stroke="rgb(120,151,44)" stroke-width="1" opacity="0.75" />
			</g>
		</g>
		<g>
			<title> (ctg13_88)</title>
			<polygon class=" (ctg13_88)" points="487,25 444,25 444,10 414,40 444,70 444,55 487,55" fill="rgb(255,255,255)" fill-opacity="1.0" stroke="rgb(0,0,0)" stroke-width="2"  />
			<g>
				<title>Topoisom_bac (PF01131)
"DNA topoisomerase"</title>
				<polygon class="PF01131" points="428,30 430,28 471,28 471,52 430,52 428,50" stroke-linejoin="round" width="43" height="24" fill="rgb(136,196,98)" stroke="rgb(108,156,78)" stroke-width="1" opacity="0.75" />
			</g>
			<g>
				<title>Toprim (PF01751)
"Toprim domain"</title>
				<rect class="PF01751" x="473" y="28" stroke-linejoin="round" width="13" height="24" fill="rgb(95,212,145)" stroke="rgb(76,169,116)" stroke-width="1" opacity="0.75" />
			</g>
		</g>
		<g>
			<title> (ctg13_89)</title>
			<polygon class=" (ctg13_89)" points="500,10 527,40 500,70" fill="rgb(255,255,255)" fill-opacity="1.0" stroke="rgb(0,0,0)" stroke-width="2"  />
			<g>
				<title>HK (PF02110)
"Hydroxyethylthiazole kinase family"</title>
				<polygon class="PF02110" points="501,28 511,28 522,40 511,52 501,52" stroke-linejoin="round" width="24" height="24" fill="rgb(167,92,213)" stroke="rgb(133,73,170)" stroke-width="1" opacity="0.75" />
			</g>
		</g>
		<g>
			<title> (ctg13_90)</title>
			<polygon class=" (ctg13_90)" points="527,10 549,40 527,70" fill="rgb(255,255,255)" fill-opacity="1.0" stroke="rgb(0,0,0)" stroke-width="2"  />
			<g>
				<title>TMP-TENI (PF02581)
"Thiamine monophosphate synthase"</title>
				<polygon class="PF02581" points="528,28 536,28 545,40 536,52 528,52" stroke-linejoin="round" width="18" height="24" fill="rgb(198,51,163)" stroke="rgb(158,40,130)" stroke-width="1" opacity="0.75" />
			</g>
		</g>
		<g>
			<title> (ctg13_91)</title>
			<polygon class=" (ctg13_91)" points="596,25 583,25 583,10 553,40 583,70 583,55 596,55" fill="rgb(255,255,255)" fill-opacity="1.0" stroke="rgb(0,0,0)" stroke-width="2"  />
			<g>
				<title>DcuA_DcuB (PF03605)
"Anaerobic c4-dicarboxylate membrane transporter"</title>
				<polygon class="PF03605" points="559,38 569,28 595,28 595,52 569,52 559,42" stroke-linejoin="round" width="36" height="24" fill="rgb(183,176,55)" stroke="rgb(146,140,44)" stroke-width="1" opacity="0.75" />
			</g>
		</g>
		<g>
			<title> (ctg13_92)</title>
			<polygon class=" (ctg13_92)" points="614,25 642,25 642,10 672,40 642,70 642,55 614,55" fill="rgb(255,255,255)" fill-opacity="1.0" stroke="rgb(0,0,0)" stroke-width="2"  />
			<g>
				<title>MCPsignal (PF00015)
"Methyl-accepting chemotaxis protein (MCP) signalling domain"</title>
				<polygon class="PF00015" points="648,28 655,28 666,39 666,41 655,52 648,52" stroke-linejoin="round" width="18" height="24" fill="rgb(104,174,223)" stroke="rgb(83,139,178)" stroke-width="1" opacity="0.75" />
			</g>
		</g>
		<g>
			<title> (ctg13_93)</title>
			<polygon class=" (ctg13_93)" points="676,25 765,25 765,10 795,40 765,70 765,55 676,55" fill="rgb(255,255,255)" fill-opacity="1.0" stroke="rgb(0,0,0)" stroke-width="2"  />
			<g>
				<title>AMP-binding (PF00501)
"AMP-binding enzyme"</title>
				<rect class="PF00501" x="698" y="28" stroke-linejoin="round" width="39" height="24" fill="rgb(60,217,223)" stroke="rgb(48,173,178)" stroke-width="1" opacity="0.75" />
			</g>
			<g>
				<title>AMP-binding_C (PF13193)
"AMP-binding enzyme C-terminal domain"</title>
				<rect class="PF13193" x="738" y="28" stroke-linejoin="round" width="7" height="24" fill="rgb(182,50,118)" stroke="rgb(145,39,94)" stroke-width="1" opacity="0.75" />
			</g>
			<g>
				<title>PP-binding (PF00550)
"Phosphopantetheine attachment site"</title>
				<rect class="PF00550" x="749" y="28" stroke-linejoin="round" width="6" height="24" fill="rgb(103,191,88)" stroke="rgb(82,152,70)" stroke-width="1" opacity="0.75" />
			</g>
			<g>
				<title>NAD_binding_4 (PF07993)
"Male sterility protein"</title>
				<polygon class="PF07993" points="759,28 779,28 782,31 782,49 779,52 759,52" stroke-linejoin="round" width="23" height="24" fill="rgb(100,212,204)" stroke="rgb(80,169,163)" stroke-width="1" opacity="0.75" />
			</g>
		</g>
		<g>
			<title> (ctg13_94)</title>
			<polygon class=" (ctg13_94)" points="804,10 814,40 804,70" fill="rgb(255,255,255)" fill-opacity="1.0" stroke="rgb(0,0,0)" stroke-width="2"  />
			<g>
				<title>Thiamine_BP (PF01910)
"Thiamine-binding protein"</title>
				<polygon class="PF01910" points="804,28 806,28 811,40 806,52 804,52" stroke-linejoin="round" width="9" height="24" fill="rgb(201,146,71)" stroke="rgb(160,116,56)" stroke-width="1" opacity="0.75" />
			</g>
		</g>
		<g>
			<title> (ctg13_95)</title>
			<polygon class=" (ctg13_95)" points="814,10 839,40 814,70" fill="rgb(255,255,255)" fill-opacity="1.0" stroke="rgb(0,0,0)" stroke-width="2"  />
			<g>
				<title>BPD_transp_1 (PF00528)
"Binding-protein-dependent transport system inner membrane component"</title>
				<polygon class="PF00528" points="820,28 825,28 835,40 825,52 820,52" stroke-linejoin="round" width="18" height="24" fill="rgb(77,208,225)" stroke="rgb(61,166,180)" stroke-width="1" opacity="0.75" />
			</g>
		</g>
		<g>
			<title> (ctg13_96)</title>
			<polygon class=" (ctg13_96)" points="839,25 842,25 842,10 872,40 842,70 842,55 839,55" fill="rgb(255,255,255)" fill-opacity="1.0" stroke="rgb(0,0,0)" stroke-width="2"  />
			<g>
				<title>NMT1 (PF09084)
"NMT1/THI5 like"</title>
				<polygon class="PF09084" points="843,28 856,28 864,36 864,44 856,52 843,52" stroke-linejoin="round" width="21" height="24" fill="rgb(196,85,209)" stroke="rgb(156,68,167)" stroke-width="1" opacity="0.75" />
			</g>
		</g>
		<g>
			<title> (ctg13_97)</title>
			<polygon class=" (ctg13_97)" points="873,10 898,40 873,70" fill="rgb(255,255,255)" fill-opacity="1.0" stroke="rgb(0,0,0)" stroke-width="2"  />
			<g>
				<title>ABC_tran (PF00005)
"ABC transporter"</title>
				<polygon class="PF00005" points="874,28 884,28 887,32 887,48 884,52 874,52" stroke-linejoin="round" width="13" height="24" fill="rgb(129,201,63)" stroke="rgb(103,160,50)" stroke-width="1" opacity="0.75" />
			</g>
		</g>
		<g>
			<title> (ctg13_98)</title>
			<polygon class=" (ctg13_98)" points="911,25 932,25 932,10 962,40 932,70 932,55 911,55" fill="rgb(255,255,255)" fill-opacity="1.0" stroke="rgb(0,0,0)" stroke-width="2"  />
			<g>
				<title>ABC_tran (PF00005)
"ABC transporter"</title>
				<rect class="PF00005" x="912" y="28" stroke-linejoin="round" width="17" height="24" fill="rgb(129,201,63)" stroke="rgb(103,160,50)" stroke-width="1" opacity="0.75" />
			</g>
			<g>
				<title>ABC_tran_Xtn (PF12848)
"ABC transporter"</title>
				<rect class="PF12848" x="933" y="28" stroke-linejoin="round" width="8" height="24" fill="rgb(54,177,199)" stroke="rgb(43,141,159)" stroke-width="1" opacity="0.75" />
			</g>
			<g>
				<title>ABC_tran (PF00005)
"ABC transporter"</title>
				<polygon class="PF00005" points="944,28 946,28 956,38 956,42 946,52 944,52" stroke-linejoin="round" width="12" height="24" fill="rgb(129,201,63)" stroke="rgb(103,160,50)" stroke-width="1" opacity="0.75" />
			</g>
		</g>
		<g>
			<title> (ctg13_99)</title>
			<polygon class=" (ctg13_99)" points="1044,25 1007,25 1007,10 977,40 1007,70 1007,55 1044,55" fill="rgb(255,255,255)" fill-opacity="1.0" stroke="rgb(0,0,0)" stroke-width="2"  />
			<g>
				<title>CBM_2 (PF00553)
"Cellulose binding domain"</title>
				<polygon class="PF00553" points="981,40 986,35 986,45" stroke-linejoin="round" width="9" height="24" fill="rgb(224,89,220)" stroke="rgb(179,71,176)" stroke-width="1" opacity="0.75" />
			</g>
			<g>
				<title>fn3 (PF00041)
"Fibronectin type III domain"</title>
				<polygon class="PF00041" points="988,33 993,28 995,28 995,52 993,52 988,47" stroke-linejoin="round" width="7" height="24" fill="rgb(203,70,135)" stroke="rgb(162,56,107)" stroke-width="1" opacity="0.75" />
			</g>
			<g>
				<title>Glyco_hydro_18 (PF00704)
"Glycosyl hydrolases family 18"</title>
				<rect class="PF00704" x="999" y="28" stroke-linejoin="round" width="41" height="24" fill="rgb(226,95,151)" stroke="rgb(180,76,120)" stroke-width="1" opacity="0.75" />
			</g>
		</g>
		<g>
			<title> (ctg13_100)</title>
			<polygon class=" (ctg13_100)" points="1057,10 1069,40 1057,70" fill="rgb(255,255,255)" fill-opacity="1.0" stroke="rgb(0,0,0)" stroke-width="2"  />
			<g>
				<title>DJC28_CD (PF09350)
"DnaJ homologue, subfamily C, member 28, conserved domain"</title>
				<polygon class="PF09350" points="1057,28 1060,28 1063,33 1063,47 1060,52 1057,52" stroke-linejoin="round" width="6" height="24" fill="rgb(178,56,185)" stroke="rgb(142,44,148)" stroke-width="1" opacity="0.75" />
			</g>
		</g>
		<g>
			<title> (ctg13_101)</title>
			<polygon class=" (ctg13_101)" points="1070,10 1080,40 1070,70" fill="rgb(255,255,255)" fill-opacity="1.0" stroke="rgb(0,0,0)" stroke-width="2"  />
		</g>
		<g>
			<title> (ctg13_102)</title>
			<polygon class=" (ctg13_102)" points="1081,10 1089,40 1081,70" fill="rgb(255,255,255)" fill-opacity="1.0" stroke="rgb(0,0,0)" stroke-width="2"  />
		</g>
		<g>
			<title> (ctg13_103)</title>
			<polygon class=" (ctg13_103)" points="1093,10 1097,40 1093,70" fill="rgb(255,255,255)" fill-opacity="1.0" stroke="rgb(0,0,0)" stroke-width="2"  />
		</g>
		<g>
			<title> (ctg13_104)</title>
			<polygon class=" (ctg13_104)" points="1101,10 1120,40 1101,70" fill="rgb(255,255,255)" fill-opacity="1.0" stroke="rgb(0,0,0)" stroke-width="2"  />
			<g>
				<title>TetR_N (PF00440)
"Bacterial regulatory proteins, tetR family"</title>
				<rect class="PF00440" x="1102" y="28" stroke-linejoin="round" width="4" height="24" fill="rgb(73,212,190)" stroke="rgb(58,169,152)" stroke-width="1" opacity="0.75" />
			</g>
			<g>
				<title>TetR_C_5 (PF08360)
"QacR-like protein, C-terminal region"</title>
				<polygon class="PF08360" points="1107,28 1109,28 1116,40 1109,52 1107,52" stroke-linejoin="round" width="13" height="24" fill="rgb(57,214,177)" stroke="rgb(45,171,141)" stroke-width="1" opacity="0.75" />
			</g>
		</g>
		<g>
			<title> (ctg13_105)</title>
			<polygon class=" (ctg13_105)" points="1122,25 1133,25 1133,10 1163,40 1133,70 1133,55 1122,55" fill="rgb(255,255,255)" fill-opacity="1.0" stroke="rgb(0,0,0)" stroke-width="2"  />
			<g>
				<title>MFS_1 (PF07690)
"Major Facilitator Superfamily"</title>
				<rect class="PF07690" x="1123" y="28" stroke-linejoin="round" width="23" height="24" fill="rgb(193,224,74)" stroke="rgb(154,179,59)" stroke-width="1" opacity="0.75" />
			</g>
		</g>
		<g>
			<title> (ctg13_106)</title>
			<polygon class=" (ctg13_106)" points="1165,10 1173,40 1165,70" fill="rgb(255,255,255)" fill-opacity="1.0" stroke="rgb(0,0,0)" stroke-width="2"  />
			<g>
				<title>HTH_3 (PF01381)
"Helix-turn-helix"</title>
				<polygon class="PF01381" points="1167,29 1170,40 1167,51" stroke-linejoin="round" width="5" height="24" fill="rgb(105,79,202)" stroke="rgb(83,63,161)" stroke-width="1" opacity="0.75" />
			</g>
		</g>
		<g>
			<title> (ctg13_107)</title>
			<polygon class=" (ctg13_107)" points="1218,25 1206,25 1206,10 1176,40 1206,70 1206,55 1218,55" fill="rgb(255,255,255)" fill-opacity="1.0" stroke="rgb(0,0,0)" stroke-width="2"  />
			<g>
				<title>ATG22 (PF11700)
"Vacuole effluxer Atg22 like"</title>
				<polygon class="PF11700" points="1180,40 1192,28 1205,28 1205,52 1192,52" stroke-linejoin="round" width="28" height="24" fill="rgb(187,76,115)" stroke="rgb(149,60,92)" stroke-width="1" opacity="0.75" />
			</g>
			<g>
				<title>ATG22 (PF11700)
"Vacuole effluxer Atg22 like"</title>
				<rect class="PF11700" x="1204" y="28" stroke-linejoin="round" width="9" height="24" fill="rgb(187,76,115)" stroke="rgb(149,60,92)" stroke-width="1" opacity="0.75" />
			</g>
		</g>
		<g>
			<title> (ctg13_108)</title>
			<polygon class=" (ctg13_108)" points="1265,25 1252,25 1252,10 1222,40 1252,70 1252,55 1265,55" fill="rgb(255,255,255)" fill-opacity="1.0" stroke="rgb(0,0,0)" stroke-width="2"  />
			<g>
				<title>Phosphodiest (PF01663)
"Type I phosphodiesterase / nucleotide pyrophosphatase"</title>
				<polygon class="PF01663" points="1227,39 1238,28 1264,28 1264,52 1238,52 1227,41" stroke-linejoin="round" width="37" height="24" fill="rgb(178,65,158)" stroke="rgb(142,52,126)" stroke-width="1" opacity="0.75" />
			</g>
		</g>
		<g>
			<title> (ctg13_109)</title>
			<polygon class=" (ctg13_109)" points="1271,10 1280,40 1271,70" fill="rgb(255,255,255)" fill-opacity="1.0" stroke="rgb(0,0,0)" stroke-width="2"  />
			<g>
				<title>YesK (PF14150)
"YesK-like protein"</title>
				<polygon class="PF14150" points="1272,28 1273,28 1277,40 1273,52 1272,52" stroke-linejoin="round" width="8" height="24" fill="rgb(218,90,177)" stroke="rgb(174,72,141)" stroke-width="1" opacity="0.75" />
			</g>
		</g>
		<g>
			<title> (ctg13_110)</title>
			<polygon class=" (ctg13_110)" points="1292,25 1309,25 1309,10 1339,40 1309,70 1309,55 1292,55" fill="rgb(255,255,255)" fill-opacity="1.0" stroke="rgb(0,0,0)" stroke-width="2"  />
			<g>
				<title>tRNA-synt_2b (PF00587)
"tRNA synthetase class II core domain (G, H, P, S and T)"</title>
				<rect class="PF00587" x="1301" y="28" stroke-linejoin="round" width="17" height="24" fill="rgb(228,96,220)" stroke="rgb(182,76,176)" stroke-width="1" opacity="0.75" />
			</g>
			<g>
				<title>HGTP_anticodon (PF03129)
"Anticodon binding domain"</title>
				<polygon class="PF03129" points="1321,28 1323,28 1330,35 1330,45 1323,52 1321,52" stroke-linejoin="round" width="9" height="24" fill="rgb(115,202,95)" stroke="rgb(92,161,76)" stroke-width="1" opacity="0.75" />
			</g>
			<g>
				<title>ProRS-C_1 (PF09180)
"Prolyl-tRNA synthetase, C-terminal"</title>
				<polygon class="PF09180" points="1332,37 1335,40 1332,43" stroke-linejoin="round" width="6" height="24" fill="rgb(200,70,78)" stroke="rgb(160,56,62)" stroke-width="1" opacity="0.75" />
			</g>
		</g>
		<g>
			<title> (ctg13_111)</title>
			<polygon class=" (ctg13_111)" points="1377,25 1374,25 1374,10 1344,40 1374,70 1374,55 1377,55" fill="rgb(255,255,255)" fill-opacity="1.0" stroke="rgb(0,0,0)" stroke-width="2"  />
			<g>
				<title>Gram_pos_anchor (PF00746)
"LPXTG cell wall anchor motif"</title>
				<polygon class="PF00746" points="1348,40 1348,40 1348,40" stroke-linejoin="round" width="4" height="24" fill="rgb(45,94,179)" stroke="rgb(36,75,143)" stroke-width="1" opacity="0.75" />
			</g>
		</g>
		<g>
			<title> (ctg13_112)</title>
			<polygon class=" (ctg13_112)" points="1384,10 1413,40 1384,70" fill="rgb(255,255,255)" fill-opacity="1.0" stroke="rgb(0,0,0)" stroke-width="2"  />
			<g>
				<title>ROK (PF00480)
"ROK family"</title>
				<polygon class="PF00480" points="1384,28 1397,28 1409,40 1397,52 1384,52" stroke-linejoin="round" width="28" height="24" fill="rgb(205,99,210)" stroke="rgb(163,79,168)" stroke-width="1" opacity="0.75" />
			</g>
		</g>
		<g>
			<title> (ctg13_113)</title>
			<polygon class=" (ctg13_113)" points="1418,10 1437,40 1418,70" fill="rgb(255,255,255)" fill-opacity="1.0" stroke="rgb(0,0,0)" stroke-width="2"  />
			<g>
				<title>TerD (PF02342)
"TerD domain"</title>
				<polygon class="PF02342" points="1418,28 1426,28 1434,40 1426,52 1418,52" stroke-linejoin="round" width="19" height="24" fill="rgb(84,103,187)" stroke="rgb(67,82,149)" stroke-width="1" opacity="0.75" />
			</g>
		</g>
		<g>
			<title> (ctg13_114)</title>
			<polygon class=" (ctg13_114)" points="1439,10 1458,40 1439,70" fill="rgb(255,255,255)" fill-opacity="1.0" stroke="rgb(0,0,0)" stroke-width="2"  />
			<g>
				<title>TerD (PF02342)
"TerD domain"</title>
				<polygon class="PF02342" points="1439,28 1447,28 1454,40 1447,52 1439,52" stroke-linejoin="round" width="18" height="24" fill="rgb(84,103,187)" stroke="rgb(67,82,149)" stroke-width="1" opacity="0.75" />
			</g>
		</g>
	</g>
</svg>
