<svg version="1.1" baseProfile="full" xmlns="http://www.w3.org/2000/svg" width="1698.3333333333333" height="80">
	<g>
		<line x1="10" y1="40.0" x2="1688.3333333333333" y2="40.0" style="stroke:rgb(70,70,70); stroke-width:3 "/>
		<g>
			<title> (ctg1_270)</title>
			<polygon class=" (ctg1_270)" points="19,10 40,40 19,70" fill="rgb(255,255,255)" fill-opacity="1.0" stroke="rgb(0,0,0)" stroke-width="2"  />
			<g>
				<title>Response_reg (PF00072)
"Response regulator receiver domain"</title>
				<polygon class="PF00072" points="20,28 28,28 31,32 31,48 28,52 20,52" stroke-linejoin="round" width="11" height="24" fill="rgb(100,107,203)" stroke="rgb(80,85,162)" stroke-width="1" opacity="0.75" />
			</g>
			<g>
				<title>GerE (PF00196)
"Bacterial regulatory proteins, luxR family"</title>
				<polygon class="PF00196" points="34,36 36,40 34,44" stroke-linejoin="round" width="5" height="24" fill="rgb(219,94,82)" stroke="rgb(175,75,65)" stroke-width="1" opacity="0.75" />
			</g>
		</g>
		<g>
			<title> (ctg1_271)</title>
			<polygon class=" (ctg1_271)" points="45,40 54,10 54,70" fill="rgb(255,255,255)" fill-opacity="1.0" stroke="rgb(0,0,0)" stroke-width="2"  />
		</g>
		<g>
			<title> (ctg1_272)</title>
			<polygon class=" (ctg1_272)" points="54,40 64,10 64,70" fill="rgb(255,255,255)" fill-opacity="1.0" stroke="rgb(0,0,0)" stroke-width="2"  />
			<g>
				<title>Transgly_assoc (PF04226)
"Transglycosylase associated protein"</title>
				<polygon class="PF04226" points="57,40 58,37 58,43" stroke-linejoin="round" width="4" height="24" fill="rgb(87,179,152)" stroke="rgb(69,143,121)" stroke-width="1" opacity="0.75" />
			</g>
		</g>
		<g>
			<title> (ctg1_273)</title>
			<polygon class=" (ctg1_273)" points="73,40 96,10 96,70" fill="rgb(255,255,255)" fill-opacity="1.0" stroke="rgb(0,0,0)" stroke-width="2"  />
			<g>
				<title>ANTAR (PF03861)
"ANTAR domain"</title>
				<polygon class="PF03861" points="77,40 79,37 79,43" stroke-linejoin="round" width="5" height="24" fill="rgb(113,53,203)" stroke="rgb(90,42,162)" stroke-width="1" opacity="0.75" />
			</g>
			<g>
				<title>GAF_2 (PF13185)
"GAF domain"</title>
				<polygon class="PF13185" points="80,36 86,28 94,28 94,52 86,52 80,44" stroke-linejoin="round" width="14" height="24" fill="rgb(158,189,90)" stroke="rgb(126,151,72)" stroke-width="1" opacity="0.75" />
			</g>
		</g>
		<g>
			<title> (ctg1_274)</title>
			<polygon class=" (ctg1_274)" points="150,25 131,25 131,10 101,40 131,70 131,55 150,55" fill="rgb(255,255,255)" fill-opacity="1.0" stroke="rgb(0,0,0)" stroke-width="2"  />
			<g>
				<title>FumaraseC_C (PF10415)
"Fumarase C C-terminus"</title>
				<polygon class="PF10415" points="105,40 108,37 108,43" stroke-linejoin="round" width="5" height="24" fill="rgb(150,80,199)" stroke="rgb(119,64,159)" stroke-width="1" opacity="0.75" />
			</g>
			<g>
				<title>Lyase_1 (PF00206)
"Lyase"</title>
				<polygon class="PF00206" points="115,30 117,28 148,28 148,52 117,52 115,50" stroke-linejoin="round" width="33" height="24" fill="rgb(217,92,141)" stroke="rgb(173,73,112)" stroke-width="1" opacity="0.75" />
			</g>
		</g>
		<g>
			<title> (ctg1_275)</title>
			<polygon class=" (ctg1_275)" points="152,40 162,10 162,70" fill="rgb(255,255,255)" fill-opacity="1.0" stroke="rgb(0,0,0)" stroke-width="2"  />
			<g>
				<title>Barstar (PF01337)
"Barstar (barnase inhibitor)"</title>
				<polygon class="PF01337" points="155,40 159,28 161,28 161,52 159,52" stroke-linejoin="round" width="8" height="24" fill="rgb(180,74,147)" stroke="rgb(144,59,117)" stroke-width="1" opacity="0.75" />
			</g>
		</g>
		<g>
			<title> (ctg1_276)</title>
			<polygon class=" (ctg1_276)" points="162,40 174,10 174,70" fill="rgb(255,255,255)" fill-opacity="1.0" stroke="rgb(0,0,0)" stroke-width="2"  />
			<g>
				<title>Ribonuclease (PF00545)
"ribonuclease"</title>
				<polygon class="PF00545" points="165,40 170,28 170,28 170,52 170,52" stroke-linejoin="round" width="8" height="24" fill="rgb(63,100,201)" stroke="rgb(50,80,160)" stroke-width="1" opacity="0.75" />
			</g>
		</g>
		<g>
			<title> (ctg1_277)</title>
			<polygon class=" (ctg1_277)" points="177,40 199,10 199,70" fill="rgb(255,255,255)" fill-opacity="1.0" stroke="rgb(0,0,0)" stroke-width="2"  />
			<g>
				<title>TetR_N (PF00440)
"Bacterial regulatory proteins, tetR family"</title>
				<rect class="PF00440" x="191" y="28" stroke-linejoin="round" width="4" height="24" fill="rgb(73,212,190)" stroke="rgb(58,169,152)" stroke-width="1" opacity="0.75" />
			</g>
		</g>
		<g>
			<title> (ctg1_278)</title>
			<polygon class=" (ctg1_278)" points="205,25 210,25 210,10 240,40 210,70 210,55 205,55" fill="rgb(255,255,255)" fill-opacity="1.0" stroke="rgb(0,0,0)" stroke-width="2"  />
			<g>
				<title>FAD_binding_6 (PF00970)
"Oxidoreductase FAD-binding domain"</title>
				<rect class="PF00970" x="208" y="28" stroke-linejoin="round" width="9" height="24" fill="rgb(212,194,103)" stroke="rgb(169,155,82)" stroke-width="1" opacity="0.75" />
			</g>
			<g>
				<title>NAD_binding_1 (PF00175)
"Oxidoreductase NAD-binding domain"</title>
				<polygon class="PF00175" points="219,28 223,28 228,33 228,47 223,52 219,52" stroke-linejoin="round" width="9" height="24" fill="rgb(177,211,96)" stroke="rgb(141,168,76)" stroke-width="1" opacity="0.75" />
			</g>
		</g>
		<g>
			<title> (ctg1_279)</title>
			<polygon class=" (ctg1_279)" points="241,25 250,25 250,10 280,40 250,70 250,55 241,55" fill="rgb(255,255,255)" fill-opacity="1.0" stroke="rgb(0,0,0)" stroke-width="2"  />
			<g>
				<title>FA_desaturase (PF00487)
"Fatty acid desaturase"</title>
				<polygon class="PF00487" points="246,28 263,28 273,38 273,42 263,52 246,52" stroke-linejoin="round" width="27" height="24" fill="rgb(104,51,205)" stroke="rgb(83,40,164)" stroke-width="1" opacity="0.75" />
			</g>
		</g>
		<g>
			<title> (ctg1_280)</title>
			<polygon class=" (ctg1_280)" points="281,10 293,40 281,70" fill="rgb(255,255,255)" fill-opacity="1.0" stroke="rgb(0,0,0)" stroke-width="2"  />
		</g>
		<g>
			<title> (ctg1_281)</title>
			<polygon class=" (ctg1_281)" points="296,10 312,40 296,70" fill="rgb(255,255,255)" fill-opacity="1.0" stroke="rgb(0,0,0)" stroke-width="2"  />
		</g>
		<g>
			<title> (ctg1_282)</title>
			<polygon class=" (ctg1_282)" points="365,25 345,25 345,10 315,40 345,70 345,55 365,55" fill="rgb(255,255,255)" fill-opacity="1.0" stroke="rgb(0,0,0)" stroke-width="2"  />
			<g>
				<title>Pkinase (PF00069)
"Protein kinase domain"</title>
				<rect class="PF00069" x="338" y="28" stroke-linejoin="round" width="26" height="24" fill="rgb(104,187,65)" stroke="rgb(83,149,51)" stroke-width="1" opacity="0.75" />
			</g>
		</g>
		<g>
			<title> (ctg1_283)</title>
			<polygon class=" (ctg1_283)" points="469,25 399,25 399,10 369,40 399,70 399,55 469,55" fill="rgb(255,255,255)" fill-opacity="1.0" stroke="rgb(0,0,0)" stroke-width="2"  />
			<g>
				<title>MMPL (PF03176)
"MMPL family"</title>
				<rect class="PF03176" x="390" y="28" stroke-linejoin="round" width="33" height="24" fill="rgb(228,109,193)" stroke="rgb(182,87,154)" stroke-width="1" opacity="0.75" />
			</g>
			<g>
				<title>MMPL (PF03176)
"MMPL family"</title>
				<rect class="PF03176" x="426" y="28" stroke-linejoin="round" width="28" height="24" fill="rgb(228,109,193)" stroke="rgb(182,87,154)" stroke-width="1" opacity="0.75" />
			</g>
		</g>
		<g>
			<title> (ctg1_284)</title>
			<polygon class=" (ctg1_284)" points="471,40 493,10 493,70" fill="rgb(255,255,255)" fill-opacity="1.0" stroke="rgb(0,0,0)" stroke-width="2"  />
			<g>
				<title>NYN (PF01936)
"NYN domain"</title>
				<polygon class="PF01936" points="475,40 484,28 491,28 491,52 484,52 475,40" stroke-linejoin="round" width="16" height="24" fill="rgb(215,71,199)" stroke="rgb(172,56,159)" stroke-width="1" opacity="0.75" />
			</g>
		</g>
		<g>
			<title> (ctg1_285)</title>
			<polygon class=" (ctg1_285)" points="493,40 522,10 522,70" fill="rgb(255,255,255)" fill-opacity="1.0" stroke="rgb(0,0,0)" stroke-width="2"  />
			<g>
				<title>Methyltransf_4 (PF02390)
"Putative methyltransferase"</title>
				<polygon class="PF02390" points="497,40 509,28 511,28 511,52 509,52" stroke-linejoin="round" width="17" height="24" fill="rgb(186,183,89)" stroke="rgb(148,146,71)" stroke-width="1" opacity="0.75" />
			</g>
		</g>
		<g>
			<title> (ctg1_286)</title>
			<polygon class=" (ctg1_286)" points="523,10 547,40 523,70" fill="rgb(255,255,255)" fill-opacity="1.0" stroke="rgb(0,0,0)" stroke-width="2"  />
			<g>
				<title>LppX_LprAFG (PF07161)
"LppX_LprAFG lipoprotein"</title>
				<polygon class="PF07161" points="527,28 534,28 543,40 534,52 527,52" stroke-linejoin="round" width="19" height="24" fill="rgb(180,73,67)" stroke="rgb(144,58,53)" stroke-width="1" opacity="0.75" />
			</g>
		</g>
		<g>
			<title> (ctg1_287)</title>
			<polygon class=" (ctg1_287)" points="548,25 572,25 572,10 602,40 572,70 572,55 548,55" fill="rgb(255,255,255)" fill-opacity="1.0" stroke="rgb(0,0,0)" stroke-width="2"  />
			<g>
				<title>MFS_1 (PF07690)
"Major Facilitator Superfamily"</title>
				<polygon class="PF07690" points="550,28 586,28 593,35 593,45 586,52 550,52" stroke-linejoin="round" width="43" height="24" fill="rgb(193,224,74)" stroke="rgb(154,179,59)" stroke-width="1" opacity="0.75" />
			</g>
		</g>
		<g>
			<title> (ctg1_288)</title>
			<polygon class=" (ctg1_288)" points="603,10 627,40 603,70" fill="rgb(255,255,255)" fill-opacity="1.0" stroke="rgb(0,0,0)" stroke-width="2"  />
		</g>
		<g>
			<title> (ctg1_289)</title>
			<polygon class=" (ctg1_289)" points="627,25 633,25 633,10 663,40 633,70 633,55 627,55" fill="rgb(255,255,255)" fill-opacity="1.0" stroke="rgb(0,0,0)" stroke-width="2"  />
		</g>
		<g>
			<title> (ctg1_290)</title>
			<polygon class=" (ctg1_290)" points="663,10 674,40 663,70" fill="rgb(255,255,255)" fill-opacity="1.0" stroke="rgb(0,0,0)" stroke-width="2"  />
			<g>
				<title>DUF6802 (PF20615)
"Family of unknown function (DUF6802)"</title>
				<polygon class="PF20615" points="666,28 666,28 671,40 666,52 666,52" stroke-linejoin="round" width="7" height="24" fill="rgb(54,203,102)" stroke="rgb(43,162,81)" stroke-width="1" opacity="0.75" />
			</g>
		</g>
		<g>
			<title> (ctg1_291)</title>
			<polygon class=" (ctg1_291)" points="676,25 991,25 991,10 1021,40 991,70 991,55 676,55" fill="rgb(255,255,255)" fill-opacity="1.0" stroke="rgb(0,0,0)" stroke-width="2"  />
			<g>
				<title>Condensation (PF00668)
"Condensation domain"</title>
				<rect class="PF00668" x="677" y="28" stroke-linejoin="round" width="31" height="24" fill="rgb(224,184,98)" stroke="rgb(179,147,78)" stroke-width="1" opacity="0.75" />
			</g>
			<g>
				<title>PP-binding (PF00550)
"Phosphopantetheine attachment site"</title>
				<rect class="PF00550" x="720" y="28" stroke-linejoin="round" width="6" height="24" fill="rgb(103,191,88)" stroke="rgb(82,152,70)" stroke-width="1" opacity="0.75" />
			</g>
			<g>
				<title>Condensation (PF00668)
"Condensation domain"</title>
				<rect class="PF00668" x="731" y="28" stroke-linejoin="round" width="44" height="24" fill="rgb(224,184,98)" stroke="rgb(179,147,78)" stroke-width="1" opacity="0.75" />
			</g>
			<g>
				<title>AMP-binding (PF00501)
"AMP-binding enzyme"</title>
				<rect class="PF00501" x="777" y="28" stroke-linejoin="round" width="37" height="24" fill="rgb(60,217,223)" stroke="rgb(48,173,178)" stroke-width="1" opacity="0.75" />
			</g>
			<g>
				<title>AMP-binding_C (PF13193)
"AMP-binding enzyme C-terminal domain"</title>
				<rect class="PF13193" x="816" y="28" stroke-linejoin="round" width="7" height="24" fill="rgb(182,50,118)" stroke="rgb(145,39,94)" stroke-width="1" opacity="0.75" />
			</g>
			<g>
				<title>PP-binding (PF00550)
"Phosphopantetheine attachment site"</title>
				<rect class="PF00550" x="825" y="28" stroke-linejoin="round" width="6" height="24" fill="rgb(103,191,88)" stroke="rgb(82,152,70)" stroke-width="1" opacity="0.75" />
			</g>
			<g>
				<title>Condensation (PF00668)
"Condensation domain"</title>
				<rect class="PF00668" x="834" y="28" stroke-linejoin="round" width="39" height="24" fill="rgb(224,184,98)" stroke="rgb(179,147,78)" stroke-width="1" opacity="0.75" />
			</g>
			<g>
				<title>Condensation (PF00668)
"Condensation domain"</title>
				<rect class="PF00668" x="881" y="28" stroke-linejoin="round" width="44" height="24" fill="rgb(224,184,98)" stroke="rgb(179,147,78)" stroke-width="1" opacity="0.75" />
			</g>
			<g>
				<title>AMP-binding (PF00501)
"AMP-binding enzyme"</title>
				<rect class="PF00501" x="927" y="28" stroke-linejoin="round" width="37" height="24" fill="rgb(60,217,223)" stroke="rgb(48,173,178)" stroke-width="1" opacity="0.75" />
			</g>
			<g>
				<title>AMP-binding_C (PF13193)
"AMP-binding enzyme C-terminal domain"</title>
				<rect class="PF13193" x="965" y="28" stroke-linejoin="round" width="7" height="24" fill="rgb(182,50,118)" stroke="rgb(145,39,94)" stroke-width="1" opacity="0.75" />
			</g>
			<g>
				<title>PP-binding (PF00550)
"Phosphopantetheine attachment site"</title>
				<rect class="PF00550" x="975" y="28" stroke-linejoin="round" width="6" height="24" fill="rgb(103,191,88)" stroke="rgb(82,152,70)" stroke-width="1" opacity="0.75" />
			</g>
			<g>
				<title>NAD_binding_4 (PF07993)
"Male sterility protein"</title>
				<polygon class="PF07993" points="985,28 1004,28 1007,31 1007,49 1004,52 985,52" stroke-linejoin="round" width="22" height="24" fill="rgb(100,212,204)" stroke="rgb(80,169,163)" stroke-width="1" opacity="0.75" />
			</g>
		</g>
		<g>
			<title> (ctg1_292)</title>
			<polygon class=" (ctg1_292)" points="1024,25 1055,25 1055,10 1085,40 1055,70 1055,55 1024,55" fill="rgb(255,255,255)" fill-opacity="1.0" stroke="rgb(0,0,0)" stroke-width="2"  />
			<g>
				<title>PEPCK_N (PF17297)
"Phosphoenolpyruvate carboxykinase N-terminal domain"</title>
				<rect class="PF17297" x="1026" y="28" stroke-linejoin="round" width="22" height="24" fill="rgb(78,187,75)" stroke="rgb(62,149,60)" stroke-width="1" opacity="0.75" />
			</g>
			<g>
				<title>PEPCK_GTP (PF00821)
"Phosphoenolpyruvate carboxykinase C-terminal P-loop domain"</title>
				<polygon class="PF00821" points="1048,28 1069,28 1081,40 1069,52 1048,52" stroke-linejoin="round" width="36" height="24" fill="rgb(123,95,194)" stroke="rgb(98,76,155)" stroke-width="1" opacity="0.75" />
			</g>
		</g>
		<g>
			<title> (ctg1_293)</title>
			<polygon class=" (ctg1_293)" points="1139,25 1118,25 1118,10 1088,40 1118,70 1118,55 1139,55" fill="rgb(255,255,255)" fill-opacity="1.0" stroke="rgb(0,0,0)" stroke-width="2"  />
			<g>
				<title>AMP-binding_C (PF13193)
"AMP-binding enzyme C-terminal domain"</title>
				<polygon class="PF13193" points="1092,40 1096,36 1096,44" stroke-linejoin="round" width="7" height="24" fill="rgb(182,50,118)" stroke="rgb(145,39,94)" stroke-width="1" opacity="0.75" />
			</g>
			<g>
				<title>AMP-binding (PF00501)
"AMP-binding enzyme"</title>
				<polygon class="PF00501" points="1097,35 1104,28 1137,28 1137,52 1104,52 1097,45" stroke-linejoin="round" width="40" height="24" fill="rgb(60,217,223)" stroke="rgb(48,173,178)" stroke-width="1" opacity="0.75" />
			</g>
		</g>
		<g>
			<title> (ctg1_294)</title>
			<polygon class=" (ctg1_294)" points="1143,25 1152,25 1152,10 1182,40 1152,70 1152,55 1143,55" fill="rgb(255,255,255)" fill-opacity="1.0" stroke="rgb(0,0,0)" stroke-width="2"  />
			<g>
				<title>Thiolase_N (PF00108)
"Thiolase, N-terminal domain"</title>
				<rect class="PF00108" x="1143" y="28" stroke-linejoin="round" width="19" height="24" fill="rgb(82,90,195)" stroke="rgb(65,72,156)" stroke-width="1" opacity="0.75" />
			</g>
			<g>
				<title>Thiolase_C (PF02803)
"Thiolase, C-terminal domain"</title>
				<polygon class="PF02803" points="1169,31 1178,40 1169,49" stroke-linejoin="round" width="10" height="24" fill="rgb(218,187,56)" stroke="rgb(174,149,44)" stroke-width="1" opacity="0.75" />
			</g>
		</g>
		<g>
			<title> (ctg1_295)</title>
			<polygon class=" (ctg1_295)" points="1183,10 1198,40 1183,70" fill="rgb(255,255,255)" fill-opacity="1.0" stroke="rgb(0,0,0)" stroke-width="2"  />
			<g>
				<title>MaoC_dehydrat_N (PF13452)
"N-terminal half of MaoC dehydratase"</title>
				<polygon class="PF13452" points="1183,28 1188,28 1194,40 1188,52 1183,52" stroke-linejoin="round" width="12" height="24" fill="rgb(215,186,64)" stroke="rgb(172,148,51)" stroke-width="1" opacity="0.75" />
			</g>
		</g>
		<g>
			<title> (ctg1_296)</title>
			<polygon class=" (ctg1_296)" points="1198,10 1211,40 1198,70" fill="rgb(255,255,255)" fill-opacity="1.0" stroke="rgb(0,0,0)" stroke-width="2"  />
			<g>
				<title>MaoC_dehydratas (PF01575)
"MaoC like domain"</title>
				<polygon class="PF01575" points="1198,28 1202,28 1208,40 1202,52 1198,52" stroke-linejoin="round" width="11" height="24" fill="rgb(218,129,86)" stroke="rgb(174,103,68)" stroke-width="1" opacity="0.75" />
			</g>
		</g>
		<g>
			<title> (ctg1_297)</title>
			<polygon class=" (ctg1_297)" points="1212,10 1239,40 1212,70" fill="rgb(255,255,255)" fill-opacity="1.0" stroke="rgb(0,0,0)" stroke-width="2"  />
			<g>
				<title>adh_short_C2 (PF13561)
"Enoyl-(Acyl carrier protein) reductase"</title>
				<polygon class="PF13561" points="1213,28 1224,28 1235,40 1224,52 1213,52" stroke-linejoin="round" width="26" height="24" fill="rgb(73,205,127)" stroke="rgb(58,164,101)" stroke-width="1" opacity="0.75" />
			</g>
		</g>
		<g>
			<title> (ctg1_298)</title>
			<polygon class=" (ctg1_298)" points="1240,25 1248,25 1248,10 1278,40 1248,70 1248,55 1240,55" fill="rgb(255,255,255)" fill-opacity="1.0" stroke="rgb(0,0,0)" stroke-width="2"  />
			<g>
				<title>TetR_N (PF00440)
"Bacterial regulatory proteins, tetR family"</title>
				<rect class="PF00440" x="1241" y="28" stroke-linejoin="round" width="4" height="24" fill="rgb(73,212,190)" stroke="rgb(58,169,152)" stroke-width="1" opacity="0.75" />
			</g>
			<g>
				<title>TetR_N (PF00440)
"Bacterial regulatory proteins, tetR family"</title>
				<polygon class="PF00440" points="1260,28 1262,28 1264,30 1264,50 1262,52 1260,52" stroke-linejoin="round" width="4" height="24" fill="rgb(73,212,190)" stroke="rgb(58,169,152)" stroke-width="1" opacity="0.75" />
			</g>
		</g>
		<g>
			<title> (ctg1_299)</title>
			<polygon class=" (ctg1_299)" points="1312,25 1309,25 1309,10 1279,40 1309,70 1309,55 1312,55" fill="rgb(255,255,255)" fill-opacity="1.0" stroke="rgb(0,0,0)" stroke-width="2"  />
			<g>
				<title>LPG_synthase_C (PF09924)
"Phosphatidylglycerol lysyltransferase, C-terminal"</title>
				<polygon class="PF09924" points="1283,40 1295,28 1310,28 1310,52 1295,52" stroke-linejoin="round" width="29" height="24" fill="rgb(212,197,83)" stroke="rgb(169,157,66)" stroke-width="1" opacity="0.75" />
			</g>
		</g>
		<g>
			<title> (ctg1_300)</title>
			<polygon class=" (ctg1_300)" points="1348,25 1343,25 1343,10 1313,40 1343,70 1343,55 1348,55" fill="rgb(255,255,255)" fill-opacity="1.0" stroke="rgb(0,0,0)" stroke-width="2"  />
			<g>
				<title>Peripla_BP_3 (PF13377)
"Periplasmic binding protein-like domain"</title>
				<polygon class="PF13377" points="1317,40 1329,28 1331,28 1331,52 1329,52" stroke-linejoin="round" width="16" height="24" fill="rgb(101,208,189)" stroke="rgb(80,166,151)" stroke-width="1" opacity="0.75" />
			</g>
			<g>
				<title>LacI (PF00356)
"Bacterial regulatory proteins, lacI family"</title>
				<rect class="PF00356" x="1343" y="28" stroke-linejoin="round" width="4" height="24" fill="rgb(66,188,63)" stroke="rgb(52,150,50)" stroke-width="1" opacity="0.75" />
			</g>
		</g>
		<g>
			<title> (ctg1_301)</title>
			<polygon class=" (ctg1_301)" points="1351,25 1358,25 1358,10 1388,40 1358,70 1358,55 1351,55" fill="rgb(255,255,255)" fill-opacity="1.0" stroke="rgb(0,0,0)" stroke-width="2"  />
			<g>
				<title>AAT (PF03417)
"Acyl-coenzyme A:6-aminopenicillanic acid acyl-transferase"</title>
				<polygon class="PF03417" points="1364,28 1372,28 1384,40 1372,52 1364,52" stroke-linejoin="round" width="21" height="24" fill="rgb(101,81,194)" stroke="rgb(80,64,155)" stroke-width="1" opacity="0.75" />
			</g>
		</g>
		<g>
			<title> (ctg1_302)</title>
			<polygon class=" (ctg1_302)" points="1388,25 1403,25 1403,10 1433,40 1403,70 1403,55 1388,55" fill="rgb(255,255,255)" fill-opacity="1.0" stroke="rgb(0,0,0)" stroke-width="2"  />
			<g>
				<title>MFS_1 (PF07690)
"Major Facilitator Superfamily"</title>
				<polygon class="PF07690" points="1389,28 1416,28 1425,37 1425,43 1416,52 1389,52" stroke-linejoin="round" width="36" height="24" fill="rgb(193,224,74)" stroke="rgb(154,179,59)" stroke-width="1" opacity="0.75" />
			</g>
		</g>
		<g>
			<title> (ctg1_303)</title>
			<polygon class=" (ctg1_303)" points="1452,25 1461,25 1461,10 1491,40 1461,70 1461,55 1452,55" fill="rgb(255,255,255)" fill-opacity="1.0" stroke="rgb(0,0,0)" stroke-width="2"  />
		</g>
		<g>
			<title> (ctg1_304)</title>
			<polygon class=" (ctg1_304)" points="1533,25 1523,25 1523,10 1493,40 1523,70 1523,55 1533,55" fill="rgb(255,255,255)" fill-opacity="1.0" stroke="rgb(0,0,0)" stroke-width="2"  />
			<g>
				<title>FAD_binding_3 (PF01494)
"FAD binding domain"</title>
				<polygon class="PF01494" points="1497,40 1509,28 1516,28 1516,52 1509,52 1497,40" stroke-linejoin="round" width="19" height="24" fill="rgb(182,175,59)" stroke="rgb(145,140,47)" stroke-width="1" opacity="0.75" />
			</g>
			<g>
				<title>FAD_binding_3 (PF01494)
"FAD binding domain"</title>
				<rect class="PF01494" x="1518" y="28" stroke-linejoin="round" width="12" height="24" fill="rgb(182,175,59)" stroke="rgb(145,140,47)" stroke-width="1" opacity="0.75" />
			</g>
		</g>
		<g>
			<title> (ctg1_305)</title>
			<polygon class=" (ctg1_305)" points="1537,10 1554,40 1537,70" fill="rgb(255,255,255)" fill-opacity="1.0" stroke="rgb(0,0,0)" stroke-width="2"  />
			<g>
				<title>MaoC_dehydrat_N (PF13452)
"N-terminal half of MaoC dehydratase"</title>
				<polygon class="PF13452" points="1537,28 1544,28 1548,35 1548,45 1544,52 1537,52" stroke-linejoin="round" width="11" height="24" fill="rgb(215,186,64)" stroke="rgb(172,148,51)" stroke-width="1" opacity="0.75" />
			</g>
		</g>
		<g>
			<title> (ctg1_306)</title>
			<polygon class=" (ctg1_306)" points="1555,40 1570,10 1570,70" fill="rgb(255,255,255)" fill-opacity="1.0" stroke="rgb(0,0,0)" stroke-width="2"  />
			<g>
				<title>AAA_lid_6 (PF17866)
"AAA lid domain"</title>
				<polygon class="PF17866" points="1558,40 1562,32 1562,48" stroke-linejoin="round" width="6" height="24" fill="rgb(196,89,162)" stroke="rgb(156,71,129)" stroke-width="1" opacity="0.75" />
			</g>
		</g>
		<g>
			<title> (ctg1_307)</title>
			<polygon class=" (ctg1_307)" points="1573,25 1588,25 1588,10 1618,40 1588,70 1588,55 1573,55" fill="rgb(255,255,255)" fill-opacity="1.0" stroke="rgb(0,0,0)" stroke-width="2"  />
			<g>
				<title>Resolvase (PF00239)
"Resolvase, N terminal domain"</title>
				<rect class="PF00239" x="1573" y="28" stroke-linejoin="round" width="14" height="24" fill="rgb(99,177,201)" stroke="rgb(79,141,160)" stroke-width="1" opacity="0.75" />
			</g>
			<g>
				<title>Recombinase (PF07508)
"Recombinase"</title>
				<rect class="PF07508" x="1590" y="28" stroke-linejoin="round" width="9" height="24" fill="rgb(92,198,102)" stroke="rgb(73,158,81)" stroke-width="1" opacity="0.75" />
			</g>
		</g>
		<g>
			<title> (ctg1_308)</title>
			<polygon class=" (ctg1_308)" points="1633,10 1637,40 1633,70" fill="rgb(255,255,255)" fill-opacity="1.0" stroke="rgb(0,0,0)" stroke-width="2"  />
		</g>
		<g>
			<title> (ctg1_309)</title>
			<polygon class=" (ctg1_309)" points="1637,25 1638,25 1638,10 1668,40 1638,70 1638,55 1637,55" fill="rgb(255,255,255)" fill-opacity="1.0" stroke="rgb(0,0,0)" stroke-width="2"  />
		</g>
		<g>
			<title> (ctg1_310)</title>
			<polygon class=" (ctg1_310)" points="1670,40 1684,10 1684,70" fill="rgb(255,255,255)" fill-opacity="1.0" stroke="rgb(0,0,0)" stroke-width="2"  />
		</g>
	</g>
</svg>
