<svg version="1.1" baseProfile="full" xmlns="http://www.w3.org/2000/svg" width="454.1" height="80">
	<g>
		<line x1="10" y1="40.0" x2="444.1" y2="40.0" style="stroke:rgb(70,70,70); stroke-width:3 "/>
		<g>
			<title> (ctg13_1)</title>
			<polygon class=" (ctg13_1)" points="13,40 20,10 20,70" fill="rgb(255,255,255)" fill-opacity="1.0" stroke="rgb(0,0,0)" stroke-width="2"  />
			<g>
				<title>HAD_2 (PF13419)
"Haloacid dehalogenase-like hydrolase"</title>
				<polygon class="PF13419" points="16,40 19,28 19,28 19,52 19,52" stroke-linejoin="round" width="6" height="24" fill="rgb(60,223,188)" stroke="rgb(48,178,150)" stroke-width="1" opacity="0.75" />
			</g>
		</g>
		<g>
			<title> (ctg13_2)</title>
			<polygon class=" (ctg13_2)" points="33,25 52,25 52,10 82,40 52,70 52,55 33,55" fill="rgb(255,255,255)" fill-opacity="1.0" stroke="rgb(0,0,0)" stroke-width="2"  />
			<g>
				<title>Amino_oxidase (PF01593)
"Flavin containing amine oxidoreductase"</title>
				<polygon class="PF01593" points="34,28 66,28 78,40 66,52 34,52" stroke-linejoin="round" width="47" height="24" fill="rgb(184,74,52)" stroke="rgb(147,59,41)" stroke-width="1" opacity="0.75" />
			</g>
		</g>
		<g>
			<title> (ctg13_3)</title>
			<polygon class=" (ctg13_3)" points="82,10 109,40 82,70" fill="rgb(255,255,255)" fill-opacity="1.0" stroke="rgb(0,0,0)" stroke-width="2"  />
			<g>
				<title>SQS_PSY (PF00494)
"Squalene/phytoene synthase"</title>
				<polygon class="PF00494" points="83,28 94,28 101,35 101,45 94,52 83,52" stroke-linejoin="round" width="18" height="24" fill="rgb(178,91,49)" stroke="rgb(142,72,39)" stroke-width="1" opacity="0.75" />
			</g>
		</g>
		<g>
			<title> (ctg13_4)</title>
			<polygon class=" (ctg13_4)" points="110,10 125,40 110,70" fill="rgb(255,255,255)" fill-opacity="1.0" stroke="rgb(0,0,0)" stroke-width="2"  />
		</g>
		<g>
			<title> (ctg13_5)</title>
			<polygon class=" (ctg13_5)" points="126,10 141,40 126,70" fill="rgb(255,255,255)" fill-opacity="1.0" stroke="rgb(0,0,0)" stroke-width="2"  />
		</g>
		<g>
			<title> (ctg13_6)</title>
			<polygon class=" (ctg13_6)" points="141,10 156,40 141,70" fill="rgb(255,255,255)" fill-opacity="1.0" stroke="rgb(0,0,0)" stroke-width="2"  />
			<g>
				<title>FA_hydroxylase (PF04116)
"Fatty acid hydroxylase"</title>
				<polygon class="PF04116" points="141,28 146,28 152,40 146,52 141,52" stroke-linejoin="round" width="13" height="24" fill="rgb(171,60,209)" stroke="rgb(136,48,167)" stroke-width="1" opacity="0.75" />
			</g>
		</g>
		<g>
			<title> (ctg13_7)</title>
			<polygon class=" (ctg13_7)" points="156,10 179,40 156,70" fill="rgb(255,255,255)" fill-opacity="1.0" stroke="rgb(0,0,0)" stroke-width="2"  />
			<g>
				<title>Lycopene_cyc (PF18916)
"Lycopene cyclase"</title>
				<rect class="PF18916" x="156" y="28" stroke-linejoin="round" width="9" height="24" fill="rgb(208,69,86)" stroke="rgb(166,55,68)" stroke-width="1" opacity="0.75" />
			</g>
			<g>
				<title>Lycopene_cyc (PF18916)
"Lycopene cyclase"</title>
				<polygon class="PF18916" points="168,31 175,40 168,49" stroke-linejoin="round" width="9" height="24" fill="rgb(208,69,86)" stroke="rgb(166,55,68)" stroke-width="1" opacity="0.75" />
			</g>
		</g>
		<g>
			<title> (ctg13_8)</title>
			<polygon class=" (ctg13_8)" points="182,10 201,40 182,70" fill="rgb(255,255,255)" fill-opacity="1.0" stroke="rgb(0,0,0)" stroke-width="2"  />
		</g>
		<g>
			<title> (ctg13_9)</title>
			<polygon class=" (ctg13_9)" points="205,10 227,40 205,70" fill="rgb(255,255,255)" fill-opacity="1.0" stroke="rgb(0,0,0)" stroke-width="2"  />
			<g>
				<title>YceI (PF04264)
"YceI-like domain"</title>
				<polygon class="PF04264" points="209,28 214,28 223,40 214,52 209,52" stroke-linejoin="round" width="17" height="24" fill="rgb(170,111,224)" stroke="rgb(135,88,179)" stroke-width="1" opacity="0.75" />
			</g>
		</g>
		<g>
			<title> (ctg13_10)</title>
			<polygon class=" (ctg13_10)" points="235,10 249,40 235,70" fill="rgb(255,255,255)" fill-opacity="1.0" stroke="rgb(0,0,0)" stroke-width="2"  />
		</g>
		<g>
			<title> (ctg13_11)</title>
			<polygon class=" (ctg13_11)" points="252,40 262,10 262,70" fill="rgb(255,255,255)" fill-opacity="1.0" stroke="rgb(0,0,0)" stroke-width="2"  />
		</g>
		<g>
			<title> (ctg13_12)</title>
			<polygon class=" (ctg13_12)" points="275,40 302,10 302,70" fill="rgb(255,255,255)" fill-opacity="1.0" stroke="rgb(0,0,0)" stroke-width="2"  />
			<g>
				<title>RskA (PF10099)
"Anti-sigma-K factor rskA"</title>
				<polygon class="PF10099" points="279,40 290,28 297,28 297,52 290,52" stroke-linejoin="round" width="22" height="24" fill="rgb(84,179,192)" stroke="rgb(67,143,153)" stroke-width="1" opacity="0.75" />
			</g>
		</g>
		<g>
			<title> (ctg13_13)</title>
			<polygon class=" (ctg13_13)" points="302,40 317,10 317,70" fill="rgb(255,255,255)" fill-opacity="1.0" stroke="rgb(0,0,0)" stroke-width="2"  />
			<g>
				<title>Sigma70_r4 (PF04545)
"Sigma-70, region 4"</title>
				<polygon class="PF04545" points="305,40 306,38 306,42" stroke-linejoin="round" width="4" height="24" fill="rgb(75,207,224)" stroke="rgb(60,165,179)" stroke-width="1" opacity="0.75" />
			</g>
			<g>
				<title>Sigma70_r2 (PF04542)
"Sigma-70 region 2"</title>
				<polygon class="PF04542" points="311,29 311,28 317,28 317,52 311,52 311,51" stroke-linejoin="round" width="6" height="24" fill="rgb(184,59,197)" stroke="rgb(147,47,157)" stroke-width="1" opacity="0.75" />
			</g>
		</g>
		<g>
			<title> (ctg13_14)</title>
			<polygon class=" (ctg13_14)" points="324,10 341,40 324,70" fill="rgb(255,255,255)" fill-opacity="1.0" stroke="rgb(0,0,0)" stroke-width="2"  />
			<g>
				<title>SelR (PF01641)
"SelR domain"</title>
				<polygon class="PF01641" points="328,28 330,28 337,40 330,52 328,52" stroke-linejoin="round" width="11" height="24" fill="rgb(192,99,202)" stroke="rgb(153,79,161)" stroke-width="1" opacity="0.75" />
			</g>
		</g>
		<g>
			<title> (ctg13_15)</title>
			<polygon class=" (ctg13_15)" points="345,10 364,40 345,70" fill="rgb(255,255,255)" fill-opacity="1.0" stroke="rgb(0,0,0)" stroke-width="2"  />
			<g>
				<title>Fasciclin (PF02469)
"Fasciclin domain"</title>
				<polygon class="PF02469" points="350,28 352,28 360,40 352,52 350,52" stroke-linejoin="round" width="13" height="24" fill="rgb(216,185,71)" stroke="rgb(172,148,56)" stroke-width="1" opacity="0.75" />
			</g>
		</g>
		<g>
			<title> (ctg13_16)</title>
			<polygon class=" (ctg13_16)" points="366,10 389,40 366,70" fill="rgb(255,255,255)" fill-opacity="1.0" stroke="rgb(0,0,0)" stroke-width="2"  />
			<g>
				<title>Ferritin_2 (PF13668)
"Ferritin-like domain"</title>
				<polygon class="PF13668" points="371,28 376,28 384,38 384,42 376,52 371,52" stroke-linejoin="round" width="13" height="24" fill="rgb(181,64,63)" stroke="rgb(144,51,50)" stroke-width="1" opacity="0.75" />
			</g>
		</g>
		<g>
			<title> (ctg13_17)</title>
			<polygon class=" (ctg13_17)" points="391,10 418,40 391,70" fill="rgb(255,255,255)" fill-opacity="1.0" stroke="rgb(0,0,0)" stroke-width="2"  />
			<g>
				<title>Ferritin_2 (PF13668)
"Ferritin-like domain"</title>
				<polygon class="PF13668" points="397,28 402,28 410,36 410,44 402,52 397,52" stroke-linejoin="round" width="13" height="24" fill="rgb(181,64,63)" stroke="rgb(144,51,50)" stroke-width="1" opacity="0.75" />
			</g>
		</g>
	</g>
</svg>
