<svg version="1.1" baseProfile="full" xmlns="http://www.w3.org/2000/svg" width="1472.5333333333333" height="80">
	<g>
		<line x1="10" y1="40.0" x2="1462.5333333333333" y2="40.0" style="stroke:rgb(70,70,70); stroke-width:3 "/>
		<g>
			<title> (ctg9_79)</title>
			<polygon class=" (ctg9_79)" points="88,25 106,25 106,10 136,40 106,70 106,55 88,55" fill="rgb(255,255,255)" fill-opacity="1.0" stroke="rgb(0,0,0)" stroke-width="2"  />
			<g>
				<title>SelO (PF02696)
"Protein adenylyltransferase SelO"</title>
				<polygon class="PF02696" points="88,28 120,28 132,40 120,52 88,52" stroke-linejoin="round" width="45" height="24" fill="rgb(80,146,212)" stroke="rgb(64,116,169)" stroke-width="1" opacity="0.75" />
			</g>
		</g>
		<g>
			<title> (ctg9_80)</title>
			<polygon class=" (ctg9_80)" points="138,40 145,10 145,70" fill="rgb(255,255,255)" fill-opacity="1.0" stroke="rgb(0,0,0)" stroke-width="2"  />
		</g>
		<g>
			<title> (ctg9_81)</title>
			<polygon class=" (ctg9_81)" points="149,10 163,40 149,70" fill="rgb(255,255,255)" fill-opacity="1.0" stroke="rgb(0,0,0)" stroke-width="2"  />
			<g>
				<title>Thioredoxin (PF00085)
"Thioredoxin"</title>
				<polygon class="PF00085" points="153,28 154,28 160,40 154,52 153,52" stroke-linejoin="round" width="10" height="24" fill="rgb(220,109,180)" stroke="rgb(176,87,144)" stroke-width="1" opacity="0.75" />
			</g>
		</g>
		<g>
			<title> (ctg9_82)</title>
			<polygon class=" (ctg9_82)" points="167,40 174,10 174,70" fill="rgb(255,255,255)" fill-opacity="1.0" stroke="rgb(0,0,0)" stroke-width="2"  />
			<g>
				<title>DUF6124 (PF19619)
"Family of unknown function (DUF6124)"</title>
				<polygon class="PF19619" points="170,40 173,28 174,28 174,52 173,52" stroke-linejoin="round" width="7" height="24" fill="rgb(119,217,94)" stroke="rgb(95,173,75)" stroke-width="1" opacity="0.75" />
			</g>
		</g>
		<g>
			<title> (ctg9_83)</title>
			<polygon class=" (ctg9_83)" points="191,40 216,10 216,70" fill="rgb(255,255,255)" fill-opacity="1.0" stroke="rgb(0,0,0)" stroke-width="2"  />
			<g>
				<title>AAA_31 (PF13614)
"AAA domain"</title>
				<polygon class="PF13614" points="198,36 205,28 216,28 216,52 205,52 198,44" stroke-linejoin="round" width="18" height="24" fill="rgb(144,187,62)" stroke="rgb(115,149,49)" stroke-width="1" opacity="0.75" />
			</g>
		</g>
		<g>
			<title> (ctg9_84)</title>
			<polygon class=" (ctg9_84)" points="227,10 251,40 227,70" fill="rgb(255,255,255)" fill-opacity="1.0" stroke="rgb(0,0,0)" stroke-width="2"  />
			<g>
				<title>Ketoacyl-synt_2 (PF13723)
"Beta-ketoacyl synthase, N-terminal domain"</title>
				<polygon class="PF13723" points="229,28 237,28 247,40 237,52 229,52" stroke-linejoin="round" width="21" height="24" fill="rgb(57,130,212)" stroke="rgb(45,103,169)" stroke-width="1" opacity="0.75" />
			</g>
		</g>
		<g>
			<title> (ctg9_85)</title>
			<polygon class=" (ctg9_85)" points="250,10 277,40 250,70" fill="rgb(255,255,255)" fill-opacity="1.0" stroke="rgb(0,0,0)" stroke-width="2"  />
			<g>
				<title>Acyltransferase (PF01553)
"Acyltransferase"</title>
				<polygon class="PF01553" points="258,28 261,28 270,37 270,43 261,52 258,52" stroke-linejoin="round" width="12" height="24" fill="rgb(87,176,216)" stroke="rgb(69,140,172)" stroke-width="1" opacity="0.75" />
			</g>
		</g>
		<g>
			<title> (ctg9_86)</title>
			<polygon class=" (ctg9_86)" points="277,10 286,40 277,70" fill="rgb(255,255,255)" fill-opacity="1.0" stroke="rgb(0,0,0)" stroke-width="2"  />
			<g>
				<title>PP-binding (PF00550)
"Phosphopantetheine attachment site"</title>
				<polygon class="PF00550" points="277,28 278,28 282,40 278,52 277,52" stroke-linejoin="round" width="7" height="24" fill="rgb(103,191,88)" stroke="rgb(82,152,70)" stroke-width="1" opacity="0.75" />
			</g>
		</g>
		<g>
			<title> (ctg9_87)</title>
			<polygon class=" (ctg9_87)" points="286,10 294,40 286,70" fill="rgb(255,255,255)" fill-opacity="1.0" stroke="rgb(0,0,0)" stroke-width="2"  />
			<g>
				<title>PP-binding (PF00550)
"Phosphopantetheine attachment site"</title>
				<polygon class="PF00550" points="286,28 287,28 291,40 287,52 286,52" stroke-linejoin="round" width="6" height="24" fill="rgb(103,191,88)" stroke="rgb(82,152,70)" stroke-width="1" opacity="0.75" />
			</g>
		</g>
		<g>
			<title> (ctg9_88)</title>
			<polygon class=" (ctg9_88)" points="294,10 312,40 294,70" fill="rgb(255,255,255)" fill-opacity="1.0" stroke="rgb(0,0,0)" stroke-width="2"  />
		</g>
		<g>
			<title> (ctg9_89)</title>
			<polygon class=" (ctg9_89)" points="312,25 337,25 337,10 367,40 337,70 337,55 312,55" fill="rgb(255,255,255)" fill-opacity="1.0" stroke="rgb(0,0,0)" stroke-width="2"  />
			<g>
				<title>AMP-binding (PF00501)
"AMP-binding enzyme"</title>
				<rect class="PF00501" x="319" y="28" stroke-linejoin="round" width="21" height="24" fill="rgb(60,217,223)" stroke="rgb(48,173,178)" stroke-width="1" opacity="0.75" />
			</g>
			<g>
				<title>AMP-binding_C (PF13193)
"AMP-binding enzyme C-terminal domain"</title>
				<polygon class="PF13193" points="346,28 351,28 354,31 354,49 351,52 346,52" stroke-linejoin="round" width="8" height="24" fill="rgb(182,50,118)" stroke="rgb(145,39,94)" stroke-width="1" opacity="0.75" />
			</g>
			<g>
				<title>FabA (PF07977)
"FabA-like domain"</title>
				<polygon class="PF07977" points="356,33 363,40 356,47" stroke-linejoin="round" width="10" height="24" fill="rgb(66,205,188)" stroke="rgb(52,164,150)" stroke-width="1" opacity="0.75" />
			</g>
		</g>
		<g>
			<title> (ctg9_90)</title>
			<polygon class=" (ctg9_90)" points="372,10 397,40 372,70" fill="rgb(255,255,255)" fill-opacity="1.0" stroke="rgb(0,0,0)" stroke-width="2"  />
			<g>
				<title>Glycos_transf_2 (PF00535)
"Glycosyl transferase family 2"</title>
				<polygon class="PF00535" points="373,28 383,28 389,35 389,45 383,52 373,52" stroke-linejoin="round" width="16" height="24" fill="rgb(224,122,96)" stroke="rgb(179,97,76)" stroke-width="1" opacity="0.75" />
			</g>
		</g>
		<g>
			<title> (ctg9_91)</title>
			<polygon class=" (ctg9_91)" points="397,25 398,25 398,10 428,40 398,70 398,55 397,55" fill="rgb(255,255,255)" fill-opacity="1.0" stroke="rgb(0,0,0)" stroke-width="2"  />
			<g>
				<title>Lip_A_acyltrans (PF03279)
"Bacterial lipid A biosynthesis acyltransferase"</title>
				<polygon class="PF03279" points="397,28 411,28 423,40 411,52 397,52" stroke-linejoin="round" width="29" height="24" fill="rgb(95,219,149)" stroke="rgb(76,175,119)" stroke-width="1" opacity="0.75" />
			</g>
		</g>
		<g>
			<title> (ctg9_92)</title>
			<polygon class=" (ctg9_92)" points="428,25 449,25 449,10 479,40 449,70 449,55 428,55" fill="rgb(255,255,255)" fill-opacity="1.0" stroke="rgb(0,0,0)" stroke-width="2"  />
			<g>
				<title>Lyase_aromatic (PF00221)
"Aromatic amino acid lyase"</title>
				<polygon class="PF00221" points="429,28 463,28 475,40 475,40 463,52 429,52" stroke-linejoin="round" width="46" height="24" fill="rgb(182,133,62)" stroke="rgb(145,106,49)" stroke-width="1" opacity="0.75" />
			</g>
		</g>
		<g>
			<title> (ctg9_93)</title>
			<polygon class=" (ctg9_93)" points="479,10 493,40 479,70" fill="rgb(255,255,255)" fill-opacity="1.0" stroke="rgb(0,0,0)" stroke-width="2"  />
			<g>
				<title>4HBT (PF03061)
"Thioesterase superfamily"</title>
				<polygon class="PF03061" points="481,28 484,28 488,37 488,43 484,52 481,52" stroke-linejoin="round" width="7" height="24" fill="rgb(143,103,215)" stroke="rgb(114,82,172)" stroke-width="1" opacity="0.75" />
			</g>
		</g>
		<g>
			<title> (ctg9_94)</title>
			<polygon class=" (ctg9_94)" points="493,10 515,40 493,70" fill="rgb(255,255,255)" fill-opacity="1.0" stroke="rgb(0,0,0)" stroke-width="2"  />
			<g>
				<title>LolA_3 (PF19574)
"Outer membrane lipoprotein carrier protein LolA-like"</title>
				<polygon class="PF19574" points="497,28 503,28 512,40 503,52 497,52" stroke-linejoin="round" width="17" height="24" fill="rgb(55,185,49)" stroke="rgb(43,148,39)" stroke-width="1" opacity="0.75" />
			</g>
		</g>
		<g>
			<title> (ctg9_95)</title>
			<polygon class=" (ctg9_95)" points="516,25 563,25 563,10 593,40 563,70 563,55 516,55" fill="rgb(255,255,255)" fill-opacity="1.0" stroke="rgb(0,0,0)" stroke-width="2"  />
			<g>
				<title>MMPL (PF03176)
"MMPL family"</title>
				<rect class="PF03176" x="524" y="28" stroke-linejoin="round" width="34" height="24" fill="rgb(228,109,193)" stroke="rgb(182,87,154)" stroke-width="1" opacity="0.75" />
			</g>
		</g>
		<g>
			<title> (ctg9_96)</title>
			<polygon class=" (ctg9_96)" points="594,25 605,25 605,10 635,40 605,70 605,55 594,55" fill="rgb(255,255,255)" fill-opacity="1.0" stroke="rgb(0,0,0)" stroke-width="2"  />
			<g>
				<title>FAD_binding_3 (PF01494)
"FAD binding domain"</title>
				<polygon class="PF01494" points="594,28 619,28 627,36 627,44 619,52 594,52" stroke-linejoin="round" width="33" height="24" fill="rgb(182,175,59)" stroke="rgb(145,140,47)" stroke-width="1" opacity="0.75" />
			</g>
		</g>
		<g>
			<title> (ctg9_97)</title>
			<polygon class=" (ctg9_97)" points="635,10 660,40 635,70" fill="rgb(255,255,255)" fill-opacity="1.0" stroke="rgb(0,0,0)" stroke-width="2"  />
			<g>
				<title>Methyltransf_11 (PF08241)
"Methyltransferase domain"</title>
				<polygon class="PF08241" points="640,28 646,28 649,32 649,48 646,52 640,52" stroke-linejoin="round" width="9" height="24" fill="rgb(106,219,159)" stroke="rgb(84,175,127)" stroke-width="1" opacity="0.75" />
			</g>
		</g>
		<g>
			<title> (ctg9_98)</title>
			<polygon class=" (ctg9_98)" points="660,10 676,40 660,70" fill="rgb(255,255,255)" fill-opacity="1.0" stroke="rgb(0,0,0)" stroke-width="2"  />
		</g>
		<g>
			<title> (ctg9_99)</title>
			<polygon class=" (ctg9_99)" points="676,25 684,25 684,10 714,40 684,70 684,55 676,55" fill="rgb(255,255,255)" fill-opacity="1.0" stroke="rgb(0,0,0)" stroke-width="2"  />
			<g>
				<title>ketoacyl-synt (PF00109)
"Beta-ketoacyl synthase, N-terminal domain"</title>
				<rect class="PF00109" x="679" y="28" stroke-linejoin="round" width="19" height="24" fill="rgb(112,116,228)" stroke="rgb(89,92,182)" stroke-width="1" opacity="0.75" />
			</g>
			<g>
				<title>Ketoacyl-synt_C (PF02801)
"Beta-ketoacyl synthase, C-terminal domain"</title>
				<polygon class="PF02801" points="699,29 709,39 709,41 699,51" stroke-linejoin="round" width="10" height="24" fill="rgb(215,78,102)" stroke="rgb(172,62,81)" stroke-width="1" opacity="0.75" />
			</g>
		</g>
		<g>
			<title> (ctg9_100)</title>
			<polygon class=" (ctg9_100)" points="715,10 730,40 715,70" fill="rgb(255,255,255)" fill-opacity="1.0" stroke="rgb(0,0,0)" stroke-width="2"  />
		</g>
		<g>
			<title> (ctg9_101)</title>
			<polygon class=" (ctg9_101)" points="730,10 754,40 730,70" fill="rgb(255,255,255)" fill-opacity="1.0" stroke="rgb(0,0,0)" stroke-width="2"  />
			<g>
				<title>adh_short_C2 (PF13561)
"Enoyl-(Acyl carrier protein) reductase"</title>
				<polygon class="PF13561" points="730,28 741,28 750,40 741,52 730,52" stroke-linejoin="round" width="23" height="24" fill="rgb(73,205,127)" stroke="rgb(58,164,101)" stroke-width="1" opacity="0.75" />
			</g>
		</g>
		<g>
			<title> (ctg9_102)</title>
			<polygon class=" (ctg9_102)" points="754,25 764,25 764,10 794,40 764,70 764,55 754,55" fill="rgb(255,255,255)" fill-opacity="1.0" stroke="rgb(0,0,0)" stroke-width="2"  />
			<g>
				<title>ketoacyl-synt (PF00109)
"Beta-ketoacyl synthase, N-terminal domain"</title>
				<rect class="PF00109" x="754" y="28" stroke-linejoin="round" width="24" height="24" fill="rgb(112,116,228)" stroke="rgb(89,92,182)" stroke-width="1" opacity="0.75" />
			</g>
			<g>
				<title>Ketoacyl-synt_C (PF02801)
"Beta-ketoacyl synthase, C-terminal domain"</title>
				<polygon class="PF02801" points="779,29 790,40 790,40 779,51" stroke-linejoin="round" width="11" height="24" fill="rgb(215,78,102)" stroke="rgb(172,62,81)" stroke-width="1" opacity="0.75" />
			</g>
		</g>
		<g>
			<title> (ctg9_103)</title>
			<polygon class=" (ctg9_103)" points="796,10 810,40 796,70" fill="rgb(255,255,255)" fill-opacity="1.0" stroke="rgb(0,0,0)" stroke-width="2"  />
		</g>
		<g>
			<title> (ctg9_104)</title>
			<polygon class=" (ctg9_104)" points="814,40 843,10 843,70" fill="rgb(255,255,255)" fill-opacity="1.0" stroke="rgb(0,0,0)" stroke-width="2"  />
			<g>
				<title>LysR_substrate (PF03466)
"LysR substrate binding domain"</title>
				<polygon class="PF03466" points="818,40 830,28 834,28 834,52 830,52" stroke-linejoin="round" width="20" height="24" fill="rgb(55,136,195)" stroke="rgb(44,108,156)" stroke-width="1" opacity="0.75" />
			</g>
			<g>
				<title>HTH_1 (PF00126)
"Bacterial regulatory helix-turn-helix protein, lysR family"</title>
				<rect class="PF00126" x="837" y="28" stroke-linejoin="round" width="5" height="24" fill="rgb(125,227,79)" stroke="rgb(99,181,63)" stroke-width="1" opacity="0.75" />
			</g>
		</g>
		<g>
			<title> (ctg9_105)</title>
			<polygon class=" (ctg9_105)" points="848,25 860,25 860,10 890,40 860,70 860,55 848,55" fill="rgb(255,255,255)" fill-opacity="1.0" stroke="rgb(0,0,0)" stroke-width="2"  />
			<g>
				<title>MFS_1 (PF07690)
"Major Facilitator Superfamily"</title>
				<polygon class="PF07690" points="852,28 874,28 885,39 885,41 874,52 852,52" stroke-linejoin="round" width="33" height="24" fill="rgb(193,224,74)" stroke="rgb(154,179,59)" stroke-width="1" opacity="0.75" />
			</g>
		</g>
		<g>
			<title> (ctg9_106)</title>
			<polygon class=" (ctg9_106)" points="928,25 923,25 923,10 893,40 923,70 923,55 928,55" fill="rgb(255,255,255)" fill-opacity="1.0" stroke="rgb(0,0,0)" stroke-width="2"  />
			<g>
				<title>URO-D (PF01208)
"Uroporphyrinogen decarboxylase (URO-D)"</title>
				<polygon class="PF01208" points="897,40 909,28 927,28 927,52 909,52" stroke-linejoin="round" width="34" height="24" fill="rgb(186,206,58)" stroke="rgb(148,164,46)" stroke-width="1" opacity="0.75" />
			</g>
		</g>
		<g>
			<title> (ctg9_107)</title>
			<polygon class=" (ctg9_107)" points="983,25 966,25 966,10 936,40 966,70 966,55 983,55" fill="rgb(255,255,255)" fill-opacity="1.0" stroke="rgb(0,0,0)" stroke-width="2"  />
			<g>
				<title>Pyr_redox_2 (PF07992)
"Pyridine nucleotide-disulphide oxidoreductase"</title>
				<polygon class="PF07992" points="940,40 952,28 967,28 967,52 952,52" stroke-linejoin="round" width="30" height="24" fill="rgb(83,223,167)" stroke="rgb(66,178,133)" stroke-width="1" opacity="0.75" />
			</g>
			<g>
				<title>Fer4_20 (PF14691)
"Dihydroprymidine dehydrogenase domain II, 4Fe-4S cluster"</title>
				<rect class="PF14691" x="969" y="28" stroke-linejoin="round" width="11" height="24" fill="rgb(180,85,207)" stroke="rgb(144,67,165)" stroke-width="1" opacity="0.75" />
			</g>
		</g>
		<g>
			<title> (ctg9_108)</title>
			<polygon class=" (ctg9_108)" points="1133,25 1015,25 1015,10 985,40 1015,70 1015,55 1133,55" fill="rgb(255,255,255)" fill-opacity="1.0" stroke="rgb(0,0,0)" stroke-width="2"  />
			<g>
				<title>GXGXG (PF01493)
"GXGXG motif"</title>
				<polygon class="PF01493" points="990,39 1001,28 1008,28 1008,52 1001,52 990,41" stroke-linejoin="round" width="18" height="24" fill="rgb(197,218,88)" stroke="rgb(157,174,70)" stroke-width="1" opacity="0.75" />
			</g>
			<g>
				<title>Glu_synthase (PF01645)
"Conserved region in glutamate synthase"</title>
				<rect class="PF01645" x="1017" y="28" stroke-linejoin="round" width="36" height="24" fill="rgb(97,123,226)" stroke="rgb(77,98,180)" stroke-width="1" opacity="0.75" />
			</g>
			<g>
				<title>Glu_syn_central (PF04898)
"Glutamate synthase central domain"</title>
				<rect class="PF04898" x="1059" y="28" stroke-linejoin="round" width="28" height="24" fill="rgb(119,210,66)" stroke="rgb(95,168,52)" stroke-width="1" opacity="0.75" />
			</g>
			<g>
				<title>GATase_2 (PF00310)
"Glutamine amidotransferases class-II"</title>
				<rect class="PF00310" x="1090" y="28" stroke-linejoin="round" width="41" height="24" fill="rgb(195,63,68)" stroke="rgb(156,50,54)" stroke-width="1" opacity="0.75" />
			</g>
		</g>
		<g>
			<title> (ctg9_109)</title>
			<polygon class=" (ctg9_109)" points="1197,25 1175,25 1175,10 1145,40 1175,70 1175,55 1197,55" fill="rgb(255,255,255)" fill-opacity="1.0" stroke="rgb(0,0,0)" stroke-width="2"  />
			<g>
				<title>SPOR (PF05036)
"SPOR domain"</title>
				<polygon class="PF05036" points="1149,40 1153,36 1153,44" stroke-linejoin="round" width="7" height="24" fill="rgb(173,203,80)" stroke="rgb(138,162,64)" stroke-width="1" opacity="0.75" />
			</g>
			<g>
				<title>AAA_22 (PF13401)
"AAA domain"</title>
				<rect class="PF13401" x="1180" y="28" stroke-linejoin="round" width="12" height="24" fill="rgb(174,224,73)" stroke="rgb(139,179,58)" stroke-width="1" opacity="0.75" />
			</g>
		</g>
		<g>
			<title> (ctg9_110)</title>
			<polygon class=" (ctg9_110)" points="1234,25 1228,25 1228,10 1198,40 1228,70 1228,55 1234,55" fill="rgb(255,255,255)" fill-opacity="1.0" stroke="rgb(0,0,0)" stroke-width="2"  />
			<g>
				<title>DHQ_synthase (PF01761)
"3-dehydroquinate synthase"</title>
				<polygon class="PF01761" points="1202,40 1214,28 1228,28 1228,52 1214,52 1202,40" stroke-linejoin="round" width="26" height="24" fill="rgb(150,62,180)" stroke="rgb(120,49,144)" stroke-width="1" opacity="0.75" />
			</g>
		</g>
		<g>
			<title> (ctg9_111)</title>
			<polygon class=" (ctg9_111)" points="1238,40 1254,10 1254,70" fill="rgb(255,255,255)" fill-opacity="1.0" stroke="rgb(0,0,0)" stroke-width="2"  />
			<g>
				<title>SKI (PF01202)
"Shikimate kinase"</title>
				<polygon class="PF01202" points="1241,40 1248,28 1253,28 1253,52 1248,52" stroke-linejoin="round" width="15" height="24" fill="rgb(62,197,58)" stroke="rgb(49,157,46)" stroke-width="1" opacity="0.75" />
			</g>
		</g>
		<g>
			<title> (ctg9_112)</title>
			<polygon class=" (ctg9_112)" points="1302,25 1286,25 1286,10 1256,40 1286,70 1286,55 1302,55" fill="rgb(255,255,255)" fill-opacity="1.0" stroke="rgb(0,0,0)" stroke-width="2"  />
			<g>
				<title>Secretin (PF00263)
"Bacterial type II and III secretion system protein"</title>
				<polygon class="PF00263" points="1260,40 1271,29 1271,51" stroke-linejoin="round" width="15" height="24" fill="rgb(59,184,59)" stroke="rgb(47,147,47)" stroke-width="1" opacity="0.75" />
			</g>
			<g>
				<title>Secretin_N (PF03958)
"Bacterial type II/III secretion system short domain"</title>
				<rect class="PF03958" x="1281" y="28" stroke-linejoin="round" width="6" height="24" fill="rgb(112,201,90)" stroke="rgb(89,160,72)" stroke-width="1" opacity="0.75" />
			</g>
			<g>
				<title>STN (PF07660)
"Secretin and TonB N terminus short domain"</title>
				<rect class="PF07660" x="1290" y="28" stroke-linejoin="round" width="4" height="24" fill="rgb(78,190,205)" stroke="rgb(62,152,164)" stroke-width="1" opacity="0.75" />
			</g>
		</g>
		<g>
			<title> (ctg9_113)</title>
			<polygon class=" (ctg9_113)" points="1334,25 1332,25 1332,10 1302,40 1332,70 1332,55 1334,55" fill="rgb(255,255,255)" fill-opacity="1.0" stroke="rgb(0,0,0)" stroke-width="2"  />
			<g>
				<title>PilP (PF04351)
"Pilus assembly protein, PilP"</title>
				<polygon class="PF04351" points="1306,40 1315,31 1315,49" stroke-linejoin="round" width="13" height="24" fill="rgb(184,80,168)" stroke="rgb(147,64,134)" stroke-width="1" opacity="0.75" />
			</g>
			<g>
				<title>PilO (PF04350)
"Pilus assembly protein, PilO"</title>
				<polygon class="PF04350" points="1315,31 1318,28 1328,28 1328,52 1318,52 1315,49" stroke-linejoin="round" width="13" height="24" fill="rgb(167,74,182)" stroke="rgb(133,59,145)" stroke-width="1" opacity="0.75" />
			</g>
		</g>
		<g>
			<title> (ctg9_114)</title>
			<polygon class=" (ctg9_114)" points="1335,40 1353,10 1353,70" fill="rgb(255,255,255)" fill-opacity="1.0" stroke="rgb(0,0,0)" stroke-width="2"  />
			<g>
				<title>PilN (PF05137)
"Fimbrial assembly protein (PilN)"</title>
				<polygon class="PF05137" points="1339,40 1342,35 1342,45" stroke-linejoin="round" width="7" height="24" fill="rgb(172,187,68)" stroke="rgb(137,149,54)" stroke-width="1" opacity="0.75" />
			</g>
		</g>
		<g>
			<title> (ctg9_115)</title>
			<polygon class=" (ctg9_115)" points="1353,40 1374,10 1374,70" fill="rgb(255,255,255)" fill-opacity="1.0" stroke="rgb(0,0,0)" stroke-width="2"  />
			<g>
				<title>PilM_2 (PF11104)
"Type IV pilus assembly protein PilM;"</title>
				<polygon class="PF11104" points="1357,40 1366,28 1372,28 1372,52 1366,52" stroke-linejoin="round" width="17" height="24" fill="rgb(116,209,94)" stroke="rgb(92,167,75)" stroke-width="1" opacity="0.75" />
			</g>
		</g>
	</g>
</svg>
