<svg version="1.1" baseProfile="full" xmlns="http://www.w3.org/2000/svg" width="1472.3333333333333" height="80">
	<g>
		<line x1="10" y1="40.0" x2="1462.3333333333333" y2="40.0" style="stroke:rgb(70,70,70); stroke-width:3 "/>
		<g>
			<title> (ctg10_61)</title>
			<polygon class=" (ctg10_61)" points="53,10 67,40 53,70" fill="rgb(255,255,255)" fill-opacity="1.0" stroke="rgb(0,0,0)" stroke-width="2"  />
		</g>
		<g>
			<title> (ctg10_62)</title>
			<polygon class=" (ctg10_62)" points="111,25 110,25 110,10 80,40 110,70 110,55 111,55" fill="rgb(255,255,255)" fill-opacity="1.0" stroke="rgb(0,0,0)" stroke-width="2"  />
			<g>
				<title>2-Hacid_dh_C (PF02826)
"D-isomer specific 2-hydroxyacid dehydrogenase, NAD binding domain"</title>
				<polygon class="PF02826" points="84,40 96,28 100,28 100,52 96,52" stroke-linejoin="round" width="17" height="24" fill="rgb(192,197,93)" stroke="rgb(153,157,74)" stroke-width="1" opacity="0.75" />
			</g>
		</g>
		<g>
			<title> (ctg10_63)</title>
			<polygon class=" (ctg10_63)" points="111,40 134,10 134,70" fill="rgb(255,255,255)" fill-opacity="1.0" stroke="rgb(0,0,0)" stroke-width="2"  />
			<g>
				<title>RraA-like (PF03737)
"Aldolase/RraA"</title>
				<polygon class="PF03737" points="116,39 124,28 130,28 130,52 124,52 116,41" stroke-linejoin="round" width="14" height="24" fill="rgb(59,211,194)" stroke="rgb(47,168,155)" stroke-width="1" opacity="0.75" />
			</g>
		</g>
		<g>
			<title> (ctg10_64)</title>
			<polygon class=" (ctg10_64)" points="140,10 164,40 140,70" fill="rgb(255,255,255)" fill-opacity="1.0" stroke="rgb(0,0,0)" stroke-width="2"  />
			<g>
				<title>HTH_IclR (PF09339)
"IclR helix-turn-helix domain"</title>
				<rect class="PF09339" x="140" y="28" stroke-linejoin="round" width="5" height="24" fill="rgb(135,102,222)" stroke="rgb(108,81,177)" stroke-width="1" opacity="0.75" />
			</g>
			<g>
				<title>IclR (PF01614)
"Bacterial transcriptional regulator"</title>
				<polygon class="PF01614" points="156,35 160,40 156,45" stroke-linejoin="round" width="5" height="24" fill="rgb(58,93,180)" stroke="rgb(46,74,144)" stroke-width="1" opacity="0.75" />
			</g>
		</g>
		<g>
			<title> (ctg10_65)</title>
			<polygon class=" (ctg10_65)" points="210,25 196,25 196,10 166,40 196,70 196,55 210,55" fill="rgb(255,255,255)" fill-opacity="1.0" stroke="rgb(0,0,0)" stroke-width="2"  />
			<g>
				<title>MFS_1 (PF07690)
"Major Facilitator Superfamily"</title>
				<polygon class="PF07690" points="171,39 182,28 207,28 207,52 182,52 171,41" stroke-linejoin="round" width="36" height="24" fill="rgb(193,224,74)" stroke="rgb(154,179,59)" stroke-width="1" opacity="0.75" />
			</g>
		</g>
		<g>
			<title> (ctg10_66)</title>
			<polygon class=" (ctg10_66)" points="221,10 234,40 221,70" fill="rgb(255,255,255)" fill-opacity="1.0" stroke="rgb(0,0,0)" stroke-width="2"  />
			<g>
				<title>Ion_trans_2 (PF07885)
"Ion channel"</title>
				<polygon class="PF07885" points="225,28 225,28 231,40 225,52 225,52" stroke-linejoin="round" width="8" height="24" fill="rgb(72,141,189)" stroke="rgb(57,112,151)" stroke-width="1" opacity="0.75" />
			</g>
		</g>
		<g>
			<title> (ctg10_67)</title>
			<polygon class=" (ctg10_67)" points="239,25 243,25 243,10 273,40 243,70 243,55 239,55" fill="rgb(255,255,255)" fill-opacity="1.0" stroke="rgb(0,0,0)" stroke-width="2"  />
			<g>
				<title>TerC (PF03741)
"Integral membrane protein TerC family"</title>
				<polygon class="PF03741" points="246,28 256,28 268,40 268,40 256,52 246,52" stroke-linejoin="round" width="22" height="24" fill="rgb(221,113,97)" stroke="rgb(176,90,77)" stroke-width="1" opacity="0.75" />
			</g>
		</g>
		<g>
			<title> (ctg10_68)</title>
			<polygon class=" (ctg10_68)" points="276,40 298,10 298,70" fill="rgb(255,255,255)" fill-opacity="1.0" stroke="rgb(0,0,0)" stroke-width="2"  />
			<g>
				<title>HAD (PF12710)
"haloacid dehalogenase-like hydrolase"</title>
				<polygon class="PF12710" points="280,40 289,28 296,28 296,52 289,52" stroke-linejoin="round" width="18" height="24" fill="rgb(181,59,119)" stroke="rgb(144,47,95)" stroke-width="1" opacity="0.75" />
			</g>
		</g>
		<g>
			<title> (ctg10_69)</title>
			<polygon class=" (ctg10_69)" points="304,10 323,40 304,70" fill="rgb(255,255,255)" fill-opacity="1.0" stroke="rgb(0,0,0)" stroke-width="2"  />
			<g>
				<title>NLPC_P60 (PF00877)
"NlpC/P60 family"</title>
				<polygon class="PF00877" points="312,28 312,28 319,40 312,52 312,52" stroke-linejoin="round" width="10" height="24" fill="rgb(187,86,137)" stroke="rgb(149,68,109)" stroke-width="1" opacity="0.75" />
			</g>
		</g>
		<g>
			<title> (ctg10_70)</title>
			<polygon class=" (ctg10_70)" points="323,40 349,10 349,70" fill="rgb(255,255,255)" fill-opacity="1.0" stroke="rgb(0,0,0)" stroke-width="2"  />
			<g>
				<title>adh_short (PF00106)
"short chain dehydrogenase"</title>
				<polygon class="PF00106" points="329,38 338,28 348,28 348,52 338,52 329,42" stroke-linejoin="round" width="19" height="24" fill="rgb(182,219,73)" stroke="rgb(145,175,58)" stroke-width="1" opacity="0.75" />
			</g>
		</g>
		<g>
			<title> (ctg10_71)</title>
			<polygon class=" (ctg10_71)" points="351,40 380,10 380,70" fill="rgb(255,255,255)" fill-opacity="1.0" stroke="rgb(0,0,0)" stroke-width="2"  />
			<g>
				<title>LysR_substrate (PF03466)
"LysR substrate binding domain"</title>
				<polygon class="PF03466" points="355,40 367,28 370,28 370,52 367,52" stroke-linejoin="round" width="19" height="24" fill="rgb(55,136,195)" stroke="rgb(44,108,156)" stroke-width="1" opacity="0.75" />
			</g>
			<g>
				<title>HTH_1 (PF00126)
"Bacterial regulatory helix-turn-helix protein, lysR family"</title>
				<rect class="PF00126" x="373" y="28" stroke-linejoin="round" width="5" height="24" fill="rgb(125,227,79)" stroke="rgb(99,181,63)" stroke-width="1" opacity="0.75" />
			</g>
		</g>
		<g>
			<title> (ctg10_72)</title>
			<polygon class=" (ctg10_72)" points="384,10 400,40 384,70" fill="rgb(255,255,255)" fill-opacity="1.0" stroke="rgb(0,0,0)" stroke-width="2"  />
			<g>
				<title>PA_decarbox (PF05870)
"Phenolic acid decarboxylase (PAD)"</title>
				<polygon class="PF05870" points="384,28 390,28 397,40 390,52 384,52" stroke-linejoin="round" width="15" height="24" fill="rgb(215,65,125)" stroke="rgb(172,52,100)" stroke-width="1" opacity="0.75" />
			</g>
		</g>
		<g>
			<title> (ctg10_73)</title>
			<polygon class=" (ctg10_73)" points="411,25 419,25 419,10 449,40 419,70 419,55 411,55" fill="rgb(255,255,255)" fill-opacity="1.0" stroke="rgb(0,0,0)" stroke-width="2"  />
			<g>
				<title>DegT_DnrJ_EryC1 (PF01041)
"DegT/DnrJ/EryC1/StrS aminotransferase family"</title>
				<polygon class="PF01041" points="412,28 432,28 444,40 432,52 412,52" stroke-linejoin="round" width="36" height="24" fill="rgb(59,139,191)" stroke="rgb(47,111,152)" stroke-width="1" opacity="0.75" />
			</g>
		</g>
		<g>
			<title> (ctg10_74)</title>
			<polygon class=" (ctg10_74)" points="448,25 452,25 452,10 482,40 452,70 452,55 448,55" fill="rgb(255,255,255)" fill-opacity="1.0" stroke="rgb(0,0,0)" stroke-width="2"  />
			<g>
				<title>Glycos_transf_2 (PF00535)
"Glycosyl transferase family 2"</title>
				<rect class="PF00535" x="450" y="28" stroke-linejoin="round" width="16" height="24" fill="rgb(224,122,96)" stroke="rgb(179,97,76)" stroke-width="1" opacity="0.75" />
			</g>
		</g>
		<g>
			<title> (ctg10_75)</title>
			<polygon class=" (ctg10_75)" points="482,25 518,25 518,10 548,40 518,70 518,55 482,55" fill="rgb(255,255,255)" fill-opacity="1.0" stroke="rgb(0,0,0)" stroke-width="2"  />
			<g>
				<title>Formyl_trans_N (PF00551)
"Formyl transferase"</title>
				<rect class="PF00551" x="483" y="28" stroke-linejoin="round" width="15" height="24" fill="rgb(111,183,66)" stroke="rgb(88,146,52)" stroke-width="1" opacity="0.75" />
			</g>
			<g>
				<title>Formyl_trans_C (PF02911)
"Formyl transferase, C-terminal domain"</title>
				<rect class="PF02911" x="502" y="28" stroke-linejoin="round" width="9" height="24" fill="rgb(74,115,225)" stroke="rgb(59,92,180)" stroke-width="1" opacity="0.75" />
			</g>
			<g>
				<title>Epimerase (PF01370)
"NAD dependent epimerase/dehydratase family"</title>
				<polygon class="PF01370" points="513,28 531,28 537,34 537,46 531,52 513,52" stroke-linejoin="round" width="24" height="24" fill="rgb(98,102,214)" stroke="rgb(78,81,171)" stroke-width="1" opacity="0.75" />
			</g>
		</g>
		<g>
			<title> (ctg10_76)</title>
			<polygon class=" (ctg10_76)" points="548,25 548,25 548,10 578,40 548,70 548,55 548,55" fill="rgb(255,255,255)" fill-opacity="1.0" stroke="rgb(0,0,0)" stroke-width="2"  />
			<g>
				<title>Polysacc_deac_1 (PF01522)
"Polysaccharide deacetylase"</title>
				<polygon class="PF01522" points="548,28 561,28 564,31 564,49 561,52 548,52" stroke-linejoin="round" width="16" height="24" fill="rgb(56,221,58)" stroke="rgb(44,176,46)" stroke-width="1" opacity="0.75" />
			</g>
		</g>
		<g>
			<title> (ctg10_77)</title>
			<polygon class=" (ctg10_77)" points="578,25 603,25 603,10 633,40 603,70 603,55 578,55" fill="rgb(255,255,255)" fill-opacity="1.0" stroke="rgb(0,0,0)" stroke-width="2"  />
			<g>
				<title>PMT (PF02366)
"Dolichyl-phosphate-mannose-protein mannosyltransferase"</title>
				<rect class="PF02366" x="578" y="28" stroke-linejoin="round" width="23" height="24" fill="rgb(192,92,197)" stroke="rgb(153,73,157)" stroke-width="1" opacity="0.75" />
			</g>
		</g>
		<g>
			<title> (ctg10_78)</title>
			<polygon class=" (ctg10_78)" points="633,10 644,40 633,70" fill="rgb(255,255,255)" fill-opacity="1.0" stroke="rgb(0,0,0)" stroke-width="2"  />
			<g>
				<title>EamA (PF00892)
"EamA-like transporter family"</title>
				<polygon class="PF00892" points="633,28 636,28 640,40 636,52 633,52" stroke-linejoin="round" width="10" height="24" fill="rgb(105,217,77)" stroke="rgb(84,173,61)" stroke-width="1" opacity="0.75" />
			</g>
		</g>
		<g>
			<title> (ctg10_79)</title>
			<polygon class=" (ctg10_79)" points="644,10 657,40 644,70" fill="rgb(255,255,255)" fill-opacity="1.0" stroke="rgb(0,0,0)" stroke-width="2"  />
		</g>
		<g>
			<title> (ctg10_80)</title>
			<polygon class=" (ctg10_80)" points="656,40 676,10 676,70" fill="rgb(255,255,255)" fill-opacity="1.0" stroke="rgb(0,0,0)" stroke-width="2"  />
			<g>
				<title>ACPS (PF01648)
"4'-phosphopantetheinyl transferase superfamily"</title>
				<polygon class="PF01648" points="660,40 667,30 667,50" stroke-linejoin="round" width="10" height="24" fill="rgb(85,184,135)" stroke="rgb(68,147,108)" stroke-width="1" opacity="0.75" />
			</g>
		</g>
		<g>
			<title> (ctg10_81)</title>
			<polygon class=" (ctg10_81)" points="717,25 706,25 706,10 676,40 706,70 706,55 717,55" fill="rgb(255,255,255)" fill-opacity="1.0" stroke="rgb(0,0,0)" stroke-width="2"  />
			<g>
				<title>Ketoacyl-synt_C (PF02801)
"Beta-ketoacyl synthase, C-terminal domain"</title>
				<polygon class="PF02801" points="680,40 691,29 691,51 680,40" stroke-linejoin="round" width="11" height="24" fill="rgb(215,78,102)" stroke="rgb(172,62,81)" stroke-width="1" opacity="0.75" />
			</g>
			<g>
				<title>ketoacyl-synt (PF00109)
"Beta-ketoacyl synthase, N-terminal domain"</title>
				<polygon class="PF00109" points="692,28 692,28 716,28 716,52 692,52 692,52" stroke-linejoin="round" width="24" height="24" fill="rgb(112,116,228)" stroke="rgb(89,92,182)" stroke-width="1" opacity="0.75" />
			</g>
		</g>
		<g>
			<title> (ctg10_82)</title>
			<polygon class=" (ctg10_82)" points="717,40 741,10 741,70" fill="rgb(255,255,255)" fill-opacity="1.0" stroke="rgb(0,0,0)" stroke-width="2"  />
			<g>
				<title>adh_short_C2 (PF13561)
"Enoyl-(Acyl carrier protein) reductase"</title>
				<polygon class="PF13561" points="721,40 731,28 740,28 740,52 731,52" stroke-linejoin="round" width="23" height="24" fill="rgb(73,205,127)" stroke="rgb(58,164,101)" stroke-width="1" opacity="0.75" />
			</g>
		</g>
		<g>
			<title> (ctg10_83)</title>
			<polygon class=" (ctg10_83)" points="741,40 756,10 756,70" fill="rgb(255,255,255)" fill-opacity="1.0" stroke="rgb(0,0,0)" stroke-width="2"  />
		</g>
		<g>
			<title> (ctg10_84)</title>
			<polygon class=" (ctg10_84)" points="795,25 787,25 787,10 757,40 787,70 787,55 795,55" fill="rgb(255,255,255)" fill-opacity="1.0" stroke="rgb(0,0,0)" stroke-width="2"  />
			<g>
				<title>Ketoacyl-synt_C (PF02801)
"Beta-ketoacyl synthase, C-terminal domain"</title>
				<polygon class="PF02801" points="761,40 771,30 771,50 761,40" stroke-linejoin="round" width="10" height="24" fill="rgb(215,78,102)" stroke="rgb(172,62,81)" stroke-width="1" opacity="0.75" />
			</g>
			<g>
				<title>ketoacyl-synt (PF00109)
"Beta-ketoacyl synthase, N-terminal domain"</title>
				<polygon class="PF00109" points="772,29 773,28 789,28 789,52 773,52 772,51" stroke-linejoin="round" width="17" height="24" fill="rgb(112,116,228)" stroke="rgb(89,92,182)" stroke-width="1" opacity="0.75" />
			</g>
		</g>
		<g>
			<title> (ctg10_85)</title>
			<polygon class=" (ctg10_85)" points="796,40 815,10 815,70" fill="rgb(255,255,255)" fill-opacity="1.0" stroke="rgb(0,0,0)" stroke-width="2"  />
			<g>
				<title>DUF3261 (PF11659)
"Protein of unknown function (DUF3261)"</title>
				<polygon class="PF11659" points="800,40 808,28 809,28 809,52 808,52" stroke-linejoin="round" width="13" height="24" fill="rgb(224,86,172)" stroke="rgb(179,68,137)" stroke-width="1" opacity="0.75" />
			</g>
		</g>
		<g>
			<title> (ctg10_86)</title>
			<polygon class=" (ctg10_86)" points="892,25 845,25 845,10 815,40 845,70 845,55 892,55" fill="rgb(255,255,255)" fill-opacity="1.0" stroke="rgb(0,0,0)" stroke-width="2"  />
			<g>
				<title>MMPL (PF03176)
"MMPL family"</title>
				<rect class="PF03176" x="848" y="28" stroke-linejoin="round" width="25" height="24" fill="rgb(228,109,193)" stroke="rgb(182,87,154)" stroke-width="1" opacity="0.75" />
			</g>
		</g>
		<g>
			<title> (ctg10_87)</title>
			<polygon class=" (ctg10_87)" points="892,40 912,10 912,70" fill="rgb(255,255,255)" fill-opacity="1.0" stroke="rgb(0,0,0)" stroke-width="2"  />
			<g>
				<title>LolA_3 (PF19574)
"Outer membrane lipoprotein carrier protein LolA-like"</title>
				<polygon class="PF19574" points="896,40 904,28 910,28 910,52 904,52" stroke-linejoin="round" width="18" height="24" fill="rgb(55,185,49)" stroke="rgb(43,148,39)" stroke-width="1" opacity="0.75" />
			</g>
		</g>
		<g>
			<title> (ctg10_88)</title>
			<polygon class=" (ctg10_88)" points="912,40 926,10 926,70" fill="rgb(255,255,255)" fill-opacity="1.0" stroke="rgb(0,0,0)" stroke-width="2"  />
			<g>
				<title>4HBT_2 (PF13279)
"Thioesterase-like superfamily"</title>
				<polygon class="PF13279" points="915,40 921,28 923,28 923,52 921,52" stroke-linejoin="round" width="11" height="24" fill="rgb(213,114,82)" stroke="rgb(170,91,65)" stroke-width="1" opacity="0.75" />
			</g>
		</g>
		<g>
			<title> (ctg10_89)</title>
			<polygon class=" (ctg10_89)" points="982,25 956,25 956,10 926,40 956,70 956,55 982,55" fill="rgb(255,255,255)" fill-opacity="1.0" stroke="rgb(0,0,0)" stroke-width="2"  />
			<g>
				<title>Glycos_transf_2 (PF00535)
"Glycosyl transferase family 2"</title>
				<rect class="PF00535" x="965" y="28" stroke-linejoin="round" width="15" height="24" fill="rgb(224,122,96)" stroke="rgb(179,97,76)" stroke-width="1" opacity="0.75" />
			</g>
		</g>
		<g>
			<title> (ctg10_90)</title>
			<polygon class=" (ctg10_90)" points="982,40 993,10 993,70" fill="rgb(255,255,255)" fill-opacity="1.0" stroke="rgb(0,0,0)" stroke-width="2"  />
			<g>
				<title>FabA (PF07977)
"FabA-like domain"</title>
				<polygon class="PF07977" points="985,40 990,28 993,28 993,52 990,52" stroke-linejoin="round" width="10" height="24" fill="rgb(66,205,188)" stroke="rgb(52,164,150)" stroke-width="1" opacity="0.75" />
			</g>
		</g>
		<g>
			<title> (ctg10_91)</title>
			<polygon class=" (ctg10_91)" points="1038,25 1023,25 1023,10 993,40 1023,70 1023,55 1038,55" fill="rgb(255,255,255)" fill-opacity="1.0" stroke="rgb(0,0,0)" stroke-width="2"  />
		</g>
		<g>
			<title> (ctg10_92)</title>
			<polygon class=" (ctg10_92)" points="1038,40 1057,10 1057,70" fill="rgb(255,255,255)" fill-opacity="1.0" stroke="rgb(0,0,0)" stroke-width="2"  />
		</g>
		<g>
			<title> (ctg10_93)</title>
			<polygon class=" (ctg10_93)" points="1058,40 1066,10 1066,70" fill="rgb(255,255,255)" fill-opacity="1.0" stroke="rgb(0,0,0)" stroke-width="2"  />
			<g>
				<title>PP-binding (PF00550)
"Phosphopantetheine attachment site"</title>
				<polygon class="PF00550" points="1061,40 1064,28 1064,28 1064,52 1064,52" stroke-linejoin="round" width="6" height="24" fill="rgb(103,191,88)" stroke="rgb(82,152,70)" stroke-width="1" opacity="0.75" />
			</g>
		</g>
		<g>
			<title> (ctg10_94)</title>
			<polygon class=" (ctg10_94)" points="1067,40 1075,10 1075,70" fill="rgb(255,255,255)" fill-opacity="1.0" stroke="rgb(0,0,0)" stroke-width="2"  />
			<g>
				<title>PP-binding (PF00550)
"Phosphopantetheine attachment site"</title>
				<polygon class="PF00550" points="1070,40 1073,28 1074,28 1074,52 1073,52" stroke-linejoin="round" width="7" height="24" fill="rgb(103,191,88)" stroke="rgb(82,152,70)" stroke-width="1" opacity="0.75" />
			</g>
		</g>
		<g>
			<title> (ctg10_95)</title>
			<polygon class=" (ctg10_95)" points="1075,40 1102,10 1102,70" fill="rgb(255,255,255)" fill-opacity="1.0" stroke="rgb(0,0,0)" stroke-width="2"  />
			<g>
				<title>Acyltransferase (PF01553)
"Acyltransferase"</title>
				<polygon class="PF01553" points="1082,37 1090,28 1094,28 1094,52 1090,52 1082,43" stroke-linejoin="round" width="12" height="24" fill="rgb(87,176,216)" stroke="rgb(69,140,172)" stroke-width="1" opacity="0.75" />
			</g>
		</g>
		<g>
			<title> (ctg10_96)</title>
			<polygon class=" (ctg10_96)" points="1102,40 1126,10 1126,70" fill="rgb(255,255,255)" fill-opacity="1.0" stroke="rgb(0,0,0)" stroke-width="2"  />
			<g>
				<title>Ketoacyl-synt_2 (PF13723)
"Beta-ketoacyl synthase, N-terminal domain"</title>
				<polygon class="PF13723" points="1106,40 1116,28 1123,28 1123,52 1116,52" stroke-linejoin="round" width="21" height="24" fill="rgb(57,130,212)" stroke="rgb(45,103,169)" stroke-width="1" opacity="0.75" />
			</g>
		</g>
		<g>
			<title> (ctg10_97)</title>
			<polygon class=" (ctg10_97)" points="1163,25 1158,25 1158,10 1128,40 1158,70 1158,55 1163,55" fill="rgb(255,255,255)" fill-opacity="1.0" stroke="rgb(0,0,0)" stroke-width="2"  />
			<g>
				<title>Methyltransf_2 (PF00891)
"O-methyltransferase domain"</title>
				<polygon class="PF00891" points="1132,40 1144,28 1147,28 1147,52 1144,52" stroke-linejoin="round" width="17" height="24" fill="rgb(50,51,190)" stroke="rgb(39,40,152)" stroke-width="1" opacity="0.75" />
			</g>
		</g>
		<g>
			<title> (ctg10_98)</title>
			<polygon class=" (ctg10_98)" points="1166,40 1179,10 1179,70" fill="rgb(255,255,255)" fill-opacity="1.0" stroke="rgb(0,0,0)" stroke-width="2"  />
		</g>
		<g>
			<title> (ctg10_99)</title>
			<polygon class=" (ctg10_99)" points="1225,25 1220,25 1220,10 1190,40 1220,70 1220,55 1225,55" fill="rgb(255,255,255)" fill-opacity="1.0" stroke="rgb(0,0,0)" stroke-width="2"  />
			<g>
				<title>AI-2E_transport (PF01594)
"AI-2E family transporter"</title>
				<polygon class="PF01594" points="1194,40 1206,28 1223,28 1223,52 1206,52" stroke-linejoin="round" width="31" height="24" fill="rgb(226,96,145)" stroke="rgb(180,76,116)" stroke-width="1" opacity="0.75" />
			</g>
		</g>
		<g>
			<title> (ctg10_100)</title>
			<polygon class=" (ctg10_100)" points="1230,25 1240,25 1240,10 1270,40 1240,70 1240,55 1230,55" fill="rgb(255,255,255)" fill-opacity="1.0" stroke="rgb(0,0,0)" stroke-width="2"  />
			<g>
				<title>MFS_1 (PF07690)
"Major Facilitator Superfamily"</title>
				<polygon class="PF07690" points="1232,28 1254,28 1257,31 1257,49 1254,52 1232,52" stroke-linejoin="round" width="25" height="24" fill="rgb(193,224,74)" stroke="rgb(154,179,59)" stroke-width="1" opacity="0.75" />
			</g>
		</g>
		<g>
			<title> (ctg10_101)</title>
			<polygon class=" (ctg10_101)" points="1271,40 1289,10 1289,70" fill="rgb(255,255,255)" fill-opacity="1.0" stroke="rgb(0,0,0)" stroke-width="2"  />
			<g>
				<title>DcrB (PF08786)
"DcrB"</title>
				<polygon class="PF08786" points="1275,40 1282,28 1284,28 1284,52 1282,52" stroke-linejoin="round" width="13" height="24" fill="rgb(86,179,119)" stroke="rgb(68,143,95)" stroke-width="1" opacity="0.75" />
			</g>
		</g>
		<g>
			<title> (ctg10_102)</title>
			<polygon class=" (ctg10_102)" points="1292,40 1314,10 1314,70" fill="rgb(255,255,255)" fill-opacity="1.0" stroke="rgb(0,0,0)" stroke-width="2"  />
			<g>
				<title>Vut_1 (PF02592)
"Putative vitamin uptake transporter"</title>
				<polygon class="PF02592" points="1296,40 1305,28 1309,28 1309,52 1305,52" stroke-linejoin="round" width="15" height="24" fill="rgb(93,184,75)" stroke="rgb(74,147,60)" stroke-width="1" opacity="0.75" />
			</g>
		</g>
		<g>
			<title> (ctg10_103)</title>
			<polygon class=" (ctg10_103)" points="1320,10 1328,40 1320,70" fill="rgb(255,255,255)" fill-opacity="1.0" stroke="rgb(0,0,0)" stroke-width="2"  />
			<g>
				<title>TusA (PF01206)
"Sulfurtransferase TusA"</title>
				<polygon class="PF01206" points="1321,28 1321,28 1324,40 1321,52 1321,52" stroke-linejoin="round" width="6" height="24" fill="rgb(144,82,184)" stroke="rgb(115,65,147)" stroke-width="1" opacity="0.75" />
			</g>
		</g>
		<g>
			<title> (ctg10_104)</title>
			<polygon class=" (ctg10_104)" points="1331,40 1350,10 1350,70" fill="rgb(255,255,255)" fill-opacity="1.0" stroke="rgb(0,0,0)" stroke-width="2"  />
			<g>
				<title>MarC (PF01914)
"MarC family integral membrane protein"</title>
				<polygon class="PF01914" points="1335,40 1343,28 1350,28 1350,52 1343,52" stroke-linejoin="round" width="19" height="24" fill="rgb(183,65,84)" stroke="rgb(146,51,67)" stroke-width="1" opacity="0.75" />
			</g>
		</g>
		<g>
			<title> (ctg10_105)</title>
			<polygon class=" (ctg10_105)" points="1357,25 1363,25 1363,10 1393,40 1363,70 1363,55 1357,55" fill="rgb(255,255,255)" fill-opacity="1.0" stroke="rgb(0,0,0)" stroke-width="2"  />
			<g>
				<title>Semialdhyde_dh (PF01118)
"Semialdehyde dehydrogenase, NAD binding domain"</title>
				<rect class="PF01118" x="1357" y="28" stroke-linejoin="round" width="11" height="24" fill="rgb(191,106,221)" stroke="rgb(152,84,176)" stroke-width="1" opacity="0.75" />
			</g>
			<g>
				<title>Semialdhyde_dhC (PF02774)
"Semialdehyde dehydrogenase, dimerisation domain"</title>
				<polygon class="PF02774" points="1371,28 1377,28 1389,40 1377,52 1371,52" stroke-linejoin="round" width="20" height="24" fill="rgb(57,188,185)" stroke="rgb(45,150,147)" stroke-width="1" opacity="0.75" />
			</g>
		</g>
	</g>
</svg>
