<svg version="1.1" baseProfile="full" xmlns="http://www.w3.org/2000/svg" width="1632.2666666666667" height="80">
	<g>
		<line x1="10" y1="40.0" x2="1622.2666666666667" y2="40.0" style="stroke:rgb(70,70,70); stroke-width:3 "/>
		<g>
			<title> (ctg10_115)</title>
			<polygon class=" (ctg10_115)" points="32,25 80,25 80,10 110,40 80,70 80,55 32,55" fill="rgb(255,255,255)" fill-opacity="1.0" stroke="rgb(0,0,0)" stroke-width="2"  />
			<g>
				<title>Ribonuc_red_lgN (PF00317)
"Ribonucleotide reductase, all-alpha domain"</title>
				<rect class="PF00317" x="49" y="28" stroke-linejoin="round" width="7" height="24" fill="rgb(210,206,91)" stroke="rgb(168,164,72)" stroke-width="1" opacity="0.75" />
			</g>
			<g>
				<title>Ribonuc_red_lgC (PF02867)
"Ribonucleotide reductase, barrel domain"</title>
				<polygon class="PF02867" points="57,28 94,28 101,35 101,45 94,52 57,52" stroke-linejoin="round" width="44" height="24" fill="rgb(53,200,190)" stroke="rgb(42,160,152)" stroke-width="1" opacity="0.75" />
			</g>
			<g>
				<title>Ribonuc_red_lgC (PF02867)
"Ribonucleotide reductase, barrel domain"</title>
				<polygon class="PF02867" points="101,35 106,40 101,45" stroke-linejoin="round" width="8" height="24" fill="rgb(53,200,190)" stroke="rgb(42,160,152)" stroke-width="1" opacity="0.75" />
			</g>
		</g>
		<g>
			<title> (ctg10_116)</title>
			<polygon class=" (ctg10_116)" points="116,25 120,25 120,10 150,40 120,70 120,55 116,55" fill="rgb(255,255,255)" fill-opacity="1.0" stroke="rgb(0,0,0)" stroke-width="2"  />
			<g>
				<title>Ribonuc_red_sm (PF00268)
"Ribonucleotide reductase, small chain"</title>
				<polygon class="PF00268" points="119,28 134,28 146,40 134,52 119,52" stroke-linejoin="round" width="28" height="24" fill="rgb(88,210,197)" stroke="rgb(70,168,157)" stroke-width="1" opacity="0.75" />
			</g>
		</g>
		<g>
			<title> (ctg10_117)</title>
			<polygon class=" (ctg10_117)" points="149,10 167,40 149,70" fill="rgb(255,255,255)" fill-opacity="1.0" stroke="rgb(0,0,0)" stroke-width="2"  />
			<g>
				<title>Flavodoxin_1 (PF00258)
"Flavodoxin"</title>
				<polygon class="PF00258" points="151,28 156,28 161,36 161,44 156,52 151,52" stroke-linejoin="round" width="10" height="24" fill="rgb(77,169,183)" stroke="rgb(61,135,146)" stroke-width="1" opacity="0.75" />
			</g>
		</g>
		<g>
			<title> (ctg10_118)</title>
			<polygon class=" (ctg10_118)" points="166,10 176,40 166,70" fill="rgb(255,255,255)" fill-opacity="1.0" stroke="rgb(0,0,0)" stroke-width="2"  />
			<g>
				<title>Thioredoxin (PF00085)
"Thioredoxin"</title>
				<polygon class="PF00085" points="166,28 169,28 173,40 169,52 166,52" stroke-linejoin="round" width="10" height="24" fill="rgb(220,109,180)" stroke="rgb(176,87,144)" stroke-width="1" opacity="0.75" />
			</g>
		</g>
		<g>
			<title> (ctg10_119)</title>
			<polygon class=" (ctg10_119)" points="232,25 218,25 218,10 188,40 218,70 218,55 232,55" fill="rgb(255,255,255)" fill-opacity="1.0" stroke="rgb(0,0,0)" stroke-width="2"  />
			<g>
				<title>Nramp (PF01566)
"Natural resistance-associated macrophage protein"</title>
				<polygon class="PF01566" points="192,40 204,28 225,28 225,52 204,52" stroke-linejoin="round" width="35" height="24" fill="rgb(155,80,205)" stroke="rgb(123,64,164)" stroke-width="1" opacity="0.75" />
			</g>
		</g>
		<g>
			<title> (ctg10_120)</title>
			<polygon class=" (ctg10_120)" points="239,10 251,40 239,70" fill="rgb(255,255,255)" fill-opacity="1.0" stroke="rgb(0,0,0)" stroke-width="2"  />
			<g>
				<title>Fe_dep_repress (PF01325)
"Iron dependent repressor, N-terminal DNA binding domain"</title>
				<polygon class="PF01325" points="239,28 242,28 244,30 244,50 242,52 239,52" stroke-linejoin="round" width="5" height="24" fill="rgb(56,220,176)" stroke="rgb(44,176,140)" stroke-width="1" opacity="0.75" />
			</g>
			<g>
				<title>Fe_dep_repr_C (PF02742)
"Iron dependent repressor, metal binding and dimerisation domain"</title>
				<polygon class="PF02742" points="245,33 248,40 245,47" stroke-linejoin="round" width="6" height="24" fill="rgb(217,122,64)" stroke="rgb(173,97,51)" stroke-width="1" opacity="0.75" />
			</g>
		</g>
		<g>
			<title> (ctg10_121)</title>
			<polygon class=" (ctg10_121)" points="254,40 270,10 270,70" fill="rgb(255,255,255)" fill-opacity="1.0" stroke="rgb(0,0,0)" stroke-width="2"  />
			<g>
				<title>Thioredoxin_8 (PF13905)
"Thioredoxin-like"</title>
				<polygon class="PF13905" points="258,38 264,28 267,28 267,52 264,52 258,42" stroke-linejoin="round" width="9" height="24" fill="rgb(180,174,87)" stroke="rgb(144,139,69)" stroke-width="1" opacity="0.75" />
			</g>
		</g>
		<g>
			<title> (ctg10_122)</title>
			<polygon class=" (ctg10_122)" points="343,25 302,25 302,10 272,40 302,70 302,55 343,55" fill="rgb(255,255,255)" fill-opacity="1.0" stroke="rgb(0,0,0)" stroke-width="2"  />
			<g>
				<title>TonB_dep_Rec (PF00593)
"TonB dependent receptor"</title>
				<polygon class="PF00593" points="276,40 288,28 325,28 325,52 288,52" stroke-linejoin="round" width="53" height="24" fill="rgb(171,200,51)" stroke="rgb(136,160,40)" stroke-width="1" opacity="0.75" />
			</g>
			<g>
				<title>Plug (PF07715)
"TonB-dependent Receptor Plug Domain"</title>
				<rect class="PF07715" x="328" y="28" stroke-linejoin="round" width="10" height="24" fill="rgb(99,133,214)" stroke="rgb(79,106,171)" stroke-width="1" opacity="0.75" />
			</g>
		</g>
		<g>
			<title> (ctg10_123)</title>
			<polygon class=" (ctg10_123)" points="353,40 374,10 374,70" fill="rgb(255,255,255)" fill-opacity="1.0" stroke="rgb(0,0,0)" stroke-width="2"  />
			<g>
				<title>TetR_N (PF00440)
"Bacterial regulatory proteins, tetR family"</title>
				<rect class="PF00440" x="367" y="28" stroke-linejoin="round" width="4" height="24" fill="rgb(73,212,190)" stroke="rgb(58,169,152)" stroke-width="1" opacity="0.75" />
			</g>
		</g>
		<g>
			<title> (ctg10_124)</title>
			<polygon class=" (ctg10_124)" points="377,25 384,25 384,10 414,40 384,70 384,55 377,55" fill="rgb(255,255,255)" fill-opacity="1.0" stroke="rgb(0,0,0)" stroke-width="2"  />
			<g>
				<title>FAD_binding_6 (PF00970)
"Oxidoreductase FAD-binding domain"</title>
				<rect class="PF00970" x="382" y="28" stroke-linejoin="round" width="9" height="24" fill="rgb(212,194,103)" stroke="rgb(169,155,82)" stroke-width="1" opacity="0.75" />
			</g>
			<g>
				<title>NAD_binding_1 (PF00175)
"Oxidoreductase NAD-binding domain"</title>
				<polygon class="PF00175" points="392,28 397,28 402,33 402,47 397,52 392,52" stroke-linejoin="round" width="10" height="24" fill="rgb(177,211,96)" stroke="rgb(141,168,76)" stroke-width="1" opacity="0.75" />
			</g>
			<g>
				<title>Fer2 (PF00111)
"2Fe-2S iron-sulfur cluster binding domain"</title>
				<polygon class="PF00111" points="405,36 409,40 405,44" stroke-linejoin="round" width="7" height="24" fill="rgb(60,59,191)" stroke="rgb(48,47,152)" stroke-width="1" opacity="0.75" />
			</g>
		</g>
		<g>
			<title> (ctg10_125)</title>
			<polygon class=" (ctg10_125)" points="414,25 422,25 422,10 452,40 422,70 422,55 414,55" fill="rgb(255,255,255)" fill-opacity="1.0" stroke="rgb(0,0,0)" stroke-width="2"  />
			<g>
				<title>FA_desaturase (PF00487)
"Fatty acid desaturase"</title>
				<polygon class="PF00487" points="421,28 436,28 448,40 448,40 436,52 421,52" stroke-linejoin="round" width="27" height="24" fill="rgb(104,51,205)" stroke="rgb(83,40,164)" stroke-width="1" opacity="0.75" />
			</g>
		</g>
		<g>
			<title> (ctg10_126)</title>
			<polygon class=" (ctg10_126)" points="453,40 464,10 464,70" fill="rgb(255,255,255)" fill-opacity="1.0" stroke="rgb(0,0,0)" stroke-width="2"  />
			<g>
				<title>TPR_19 (PF14559)
"Tetratricopeptide repeat"</title>
				<polygon class="PF14559" points="456,40 460,28 461,28 461,52 460,52" stroke-linejoin="round" width="8" height="24" fill="rgb(182,60,145)" stroke="rgb(145,48,115)" stroke-width="1" opacity="0.75" />
			</g>
		</g>
		<g>
			<title> (ctg10_127)</title>
			<polygon class=" (ctg10_127)" points="464,40 483,10 483,70" fill="rgb(255,255,255)" fill-opacity="1.0" stroke="rgb(0,0,0)" stroke-width="2"  />
			<g>
				<title>Flavin_Reduct (PF01613)
"Flavin reductase like domain"</title>
				<polygon class="PF01613" points="468,40 476,28 479,28 479,52 476,52" stroke-linejoin="round" width="14" height="24" fill="rgb(107,197,222)" stroke="rgb(85,157,177)" stroke-width="1" opacity="0.75" />
			</g>
		</g>
		<g>
			<title> (ctg10_128)</title>
			<polygon class=" (ctg10_128)" points="483,40 504,10 504,70" fill="rgb(255,255,255)" fill-opacity="1.0" stroke="rgb(0,0,0)" stroke-width="2"  />
			<g>
				<title>Sod_Fe_C (PF02777)
"Iron/manganese superoxide dismutases, C-terminal domain"</title>
				<polygon class="PF02777" points="487,40 493,31 493,49" stroke-linejoin="round" width="10" height="24" fill="rgb(193,115,61)" stroke="rgb(154,92,48)" stroke-width="1" opacity="0.75" />
			</g>
			<g>
				<title>Sod_Fe_N (PF00081)
"Iron/manganese superoxide dismutases, alpha-hairpin domain"</title>
				<polygon class="PF00081" points="495,29 495,28 503,28 503,52 495,52 495,51" stroke-linejoin="round" width="8" height="24" fill="rgb(63,202,157)" stroke="rgb(50,161,125)" stroke-width="1" opacity="0.75" />
			</g>
		</g>
		<g>
			<title> (ctg10_129)</title>
			<polygon class=" (ctg10_129)" points="564,25 544,25 544,10 514,40 544,70 544,55 564,55" fill="rgb(255,255,255)" fill-opacity="1.0" stroke="rgb(0,0,0)" stroke-width="2"  />
			<g>
				<title>Thioredoxin_7 (PF13899)
"Thioredoxin-like"</title>
				<rect class="PF13899" x="552" y="28" stroke-linejoin="round" width="8" height="24" fill="rgb(143,52,187)" stroke="rgb(114,41,149)" stroke-width="1" opacity="0.75" />
			</g>
		</g>
		<g>
			<title> (ctg10_130)</title>
			<polygon class=" (ctg10_130)" points="568,40 583,10 583,70" fill="rgb(255,255,255)" fill-opacity="1.0" stroke="rgb(0,0,0)" stroke-width="2"  />
			<g>
				<title>Acetyltransf_10 (PF13673)
"Acetyltransferase (GNAT) domain"</title>
				<polygon class="PF13673" points="571,40 577,28 580,28 580,52 577,52" stroke-linejoin="round" width="12" height="24" fill="rgb(88,180,95)" stroke="rgb(70,144,76)" stroke-width="1" opacity="0.75" />
			</g>
		</g>
		<g>
			<title> (ctg10_131)</title>
			<polygon class=" (ctg10_131)" points="588,10 617,40 588,70" fill="rgb(255,255,255)" fill-opacity="1.0" stroke="rgb(0,0,0)" stroke-width="2"  />
			<g>
				<title>Bac_luciferase (PF00296)
"Luciferase-like monooxygenase"</title>
				<polygon class="PF00296" points="588,28 600,28 610,37 610,43 600,52 588,52" stroke-linejoin="round" width="22" height="24" fill="rgb(180,112,78)" stroke="rgb(144,89,62)" stroke-width="1" opacity="0.75" />
			</g>
		</g>
		<g>
			<title> (ctg10_132)</title>
			<polygon class=" (ctg10_132)" points="620,10 631,40 620,70" fill="rgb(255,255,255)" fill-opacity="1.0" stroke="rgb(0,0,0)" stroke-width="2"  />
			<g>
				<title>DUF3817 (PF12823)
"Domain of unknown function (DUF3817)"</title>
				<polygon class="PF12823" points="621,28 623,28 628,40 623,52 621,52" stroke-linejoin="round" width="8" height="24" fill="rgb(204,120,58)" stroke="rgb(163,96,46)" stroke-width="1" opacity="0.75" />
			</g>
		</g>
		<g>
			<title> (ctg10_133)</title>
			<polygon class=" (ctg10_133)" points="634,25 645,25 645,10 675,40 645,70 645,55 634,55" fill="rgb(255,255,255)" fill-opacity="1.0" stroke="rgb(0,0,0)" stroke-width="2"  />
			<g>
				<title>MFS_1 (PF07690)
"Major Facilitator Superfamily"</title>
				<polygon class="PF07690" points="637,28 659,28 661,30 661,50 659,52 637,52" stroke-linejoin="round" width="24" height="24" fill="rgb(193,224,74)" stroke="rgb(154,179,59)" stroke-width="1" opacity="0.75" />
			</g>
		</g>
		<g>
			<title> (ctg10_134)</title>
			<polygon class=" (ctg10_134)" points="676,25 685,25 685,10 715,40 685,70 685,55 676,55" fill="rgb(255,255,255)" fill-opacity="1.0" stroke="rgb(0,0,0)" stroke-width="2"  />
			<g>
				<title>Chorismate_bind (PF00425)
"chorismate binding enzyme"</title>
				<polygon class="PF00425" points="687,28 699,28 711,40 699,52 687,52" stroke-linejoin="round" width="26" height="24" fill="rgb(188,116,88)" stroke="rgb(150,92,70)" stroke-width="1" opacity="0.75" />
			</g>
		</g>
		<g>
			<title> (ctg10_135)</title>
			<polygon class=" (ctg10_135)" points="716,25 741,25 741,10 771,40 741,70 741,55 716,55" fill="rgb(255,255,255)" fill-opacity="1.0" stroke="rgb(0,0,0)" stroke-width="2"  />
			<g>
				<title>AMP-binding (PF00501)
"AMP-binding enzyme"</title>
				<polygon class="PF00501" points="719,28 754,28 759,33 759,47 754,52 719,52" stroke-linejoin="round" width="40" height="24" fill="rgb(60,217,223)" stroke="rgb(48,173,178)" stroke-width="1" opacity="0.75" />
			</g>
			<g>
				<title>AMP-binding_C (PF13193)
"AMP-binding enzyme C-terminal domain"</title>
				<polygon class="PF13193" points="761,35 766,40 761,45" stroke-linejoin="round" width="7" height="24" fill="rgb(182,50,118)" stroke="rgb(145,39,94)" stroke-width="1" opacity="0.75" />
			</g>
		</g>
		<g>
			<title> (ctg10_136)</title>
			<polygon class=" (ctg10_136)" points="771,10 792,40 771,70" fill="rgb(255,255,255)" fill-opacity="1.0" stroke="rgb(0,0,0)" stroke-width="2"  />
			<g>
				<title>Isochorismatase (PF00857)
"Isochorismatase family"</title>
				<polygon class="PF00857" points="774,28 780,28 788,40 780,52 774,52" stroke-linejoin="round" width="17" height="24" fill="rgb(144,224,70)" stroke="rgb(115,179,56)" stroke-width="1" opacity="0.75" />
			</g>
		</g>
		<g>
			<title> (ctg10_137)</title>
			<polygon class=" (ctg10_137)" points="792,10 800,40 792,70" fill="rgb(255,255,255)" fill-opacity="1.0" stroke="rgb(0,0,0)" stroke-width="2"  />
			<g>
				<title>PP-binding (PF00550)
"Phosphopantetheine attachment site"</title>
				<polygon class="PF00550" points="793,28 793,28 797,40 793,52 793,52" stroke-linejoin="round" width="6" height="24" fill="rgb(103,191,88)" stroke="rgb(82,152,70)" stroke-width="1" opacity="0.75" />
			</g>
		</g>
		<g>
			<title> (ctg10_138)</title>
			<polygon class=" (ctg10_138)" points="800,25 899,25 899,10 929,40 899,70 899,55 800,55" fill="rgb(255,255,255)" fill-opacity="1.0" stroke="rgb(0,0,0)" stroke-width="2"  />
			<g>
				<title>Condensation (PF00668)
"Condensation domain"</title>
				<rect class="PF00668" x="800" y="28" stroke-linejoin="round" width="42" height="24" fill="rgb(224,184,98)" stroke="rgb(179,147,78)" stroke-width="1" opacity="0.75" />
			</g>
			<g>
				<title>AMP-binding (PF00501)
"AMP-binding enzyme"</title>
				<rect class="PF00501" x="845" y="28" stroke-linejoin="round" width="39" height="24" fill="rgb(60,217,223)" stroke="rgb(48,173,178)" stroke-width="1" opacity="0.75" />
			</g>
			<g>
				<title>AMP-binding_C (PF13193)
"AMP-binding enzyme C-terminal domain"</title>
				<rect class="PF13193" x="885" y="28" stroke-linejoin="round" width="7" height="24" fill="rgb(182,50,118)" stroke="rgb(145,39,94)" stroke-width="1" opacity="0.75" />
			</g>
			<g>
				<title>PP-binding (PF00550)
"Phosphopantetheine attachment site"</title>
				<rect class="PF00550" x="895" y="28" stroke-linejoin="round" width="6" height="24" fill="rgb(103,191,88)" stroke="rgb(82,152,70)" stroke-width="1" opacity="0.75" />
			</g>
			<g>
				<title>Thioesterase (PF00975)
"Thioesterase domain"</title>
				<polygon class="PF00975" points="904,28 913,28 925,40 913,52 904,52" stroke-linejoin="round" width="23" height="24" fill="rgb(207,80,138)" stroke="rgb(165,63,110)" stroke-width="1" opacity="0.75" />
			</g>
		</g>
		<g>
			<title> (ctg10_139)</title>
			<polygon class=" (ctg10_139)" points="930,10 955,40 930,70" fill="rgb(255,255,255)" fill-opacity="1.0" stroke="rgb(0,0,0)" stroke-width="2"  />
			<g>
				<title>adh_short_C2 (PF13561)
"Enoyl-(Acyl carrier protein) reductase"</title>
				<polygon class="PF13561" points="931,28 941,28 951,40 941,52 931,52" stroke-linejoin="round" width="23" height="24" fill="rgb(73,205,127)" stroke="rgb(58,164,101)" stroke-width="1" opacity="0.75" />
			</g>
		</g>
		<g>
			<title> (ctg10_140)</title>
			<polygon class=" (ctg10_140)" points="969,10 975,40 969,70" fill="rgb(255,255,255)" fill-opacity="1.0" stroke="rgb(0,0,0)" stroke-width="2"  />
		</g>
		<g>
			<title> (ctg10_141)</title>
			<polygon class=" (ctg10_141)" points="1026,25 1008,25 1008,10 978,40 1008,70 1008,55 1026,55" fill="rgb(255,255,255)" fill-opacity="1.0" stroke="rgb(0,0,0)" stroke-width="2"  />
			<g>
				<title>Phytase-like (PF13449)
"Esterase-like activity of phytase"</title>
				<polygon class="PF13449" points="982,40 994,28 1020,28 1020,52 994,52" stroke-linejoin="round" width="39" height="24" fill="rgb(76,126,200)" stroke="rgb(60,100,160)" stroke-width="1" opacity="0.75" />
			</g>
		</g>
		<g>
			<title> (ctg10_142)</title>
			<polygon class=" (ctg10_142)" points="1104,25 1057,25 1057,10 1027,40 1057,70 1057,55 1104,55" fill="rgb(255,255,255)" fill-opacity="1.0" stroke="rgb(0,0,0)" stroke-width="2"  />
			<g>
				<title>TonB_dep_Rec (PF00593)
"TonB dependent receptor"</title>
				<polygon class="PF00593" points="1031,40 1043,28 1079,28 1079,52 1043,52" stroke-linejoin="round" width="52" height="24" fill="rgb(171,200,51)" stroke="rgb(136,160,40)" stroke-width="1" opacity="0.75" />
			</g>
			<g>
				<title>Plug (PF07715)
"TonB-dependent Receptor Plug Domain"</title>
				<rect class="PF07715" x="1089" y="28" stroke-linejoin="round" width="10" height="24" fill="rgb(99,133,214)" stroke="rgb(79,106,171)" stroke-width="1" opacity="0.75" />
			</g>
		</g>
		<g>
			<title> (ctg10_143)</title>
			<polygon class=" (ctg10_143)" points="1115,40 1127,10 1127,70" fill="rgb(255,255,255)" fill-opacity="1.0" stroke="rgb(0,0,0)" stroke-width="2"  />
			<g>
				<title>DUF2894 (PF11445)
"Protein of unknown function (DUF2894)"</title>
				<polygon class="PF11445" points="1118,40 1123,28 1127,28 1127,52 1123,52" stroke-linejoin="round" width="10" height="24" fill="rgb(97,83,206)" stroke="rgb(77,66,164)" stroke-width="1" opacity="0.75" />
			</g>
		</g>
		<g>
			<title> (ctg10_144)</title>
			<polygon class=" (ctg10_144)" points="1127,40 1148,10 1148,70" fill="rgb(255,255,255)" fill-opacity="1.0" stroke="rgb(0,0,0)" stroke-width="2"  />
			<g>
				<title>OmpA (PF00691)
"OmpA family"</title>
				<polygon class="PF00691" points="1131,40 1138,30 1138,50" stroke-linejoin="round" width="10" height="24" fill="rgb(121,200,70)" stroke="rgb(96,160,56)" stroke-width="1" opacity="0.75" />
			</g>
		</g>
		<g>
			<title> (ctg10_145)</title>
			<polygon class=" (ctg10_145)" points="1224,25 1179,25 1179,10 1149,40 1179,70 1179,55 1224,55" fill="rgb(255,255,255)" fill-opacity="1.0" stroke="rgb(0,0,0)" stroke-width="2"  />
			<g>
				<title>DUF802 (PF05650)
"Domain of unknown function (DUF802)"</title>
				<rect class="PF05650" x="1187" y="28" stroke-linejoin="round" width="5" height="24" fill="rgb(140,198,89)" stroke="rgb(112,158,71)" stroke-width="1" opacity="0.75" />
			</g>
		</g>
		<g>
			<title> (ctg10_146)</title>
			<polygon class=" (ctg10_146)" points="1224,40 1245,10 1245,70" fill="rgb(255,255,255)" fill-opacity="1.0" stroke="rgb(0,0,0)" stroke-width="2"  />
			<g>
				<title>DUF3348 (PF11828)
"Protein of unknown function (DUF3348)"</title>
				<polygon class="PF11828" points="1228,40 1237,28 1245,28 1245,52 1237,52" stroke-linejoin="round" width="18" height="24" fill="rgb(62,208,182)" stroke="rgb(49,166,145)" stroke-width="1" opacity="0.75" />
			</g>
		</g>
		<g>
			<title> (ctg10_147)</title>
			<polygon class=" (ctg10_147)" points="1251,25 1251,25 1251,10 1281,40 1251,70 1251,55 1251,55" fill="rgb(255,255,255)" fill-opacity="1.0" stroke="rgb(0,0,0)" stroke-width="2"  />
			<g>
				<title>AstE_AspA (PF04952)
"Succinylglutamate desuccinylase / Aspartoacylase family"</title>
				<polygon class="PF04952" points="1258,28 1265,28 1269,32 1269,48 1265,52 1258,52" stroke-linejoin="round" width="11" height="24" fill="rgb(143,103,224)" stroke="rgb(114,82,179)" stroke-width="1" opacity="0.75" />
			</g>
		</g>
		<g>
			<title> (ctg10_148)</title>
			<polygon class=" (ctg10_148)" points="1284,10 1297,40 1284,70" fill="rgb(255,255,255)" fill-opacity="1.0" stroke="rgb(0,0,0)" stroke-width="2"  />
		</g>
		<g>
			<title> (ctg10_149)</title>
			<polygon class=" (ctg10_149)" points="1298,10 1321,40 1298,70" fill="rgb(255,255,255)" fill-opacity="1.0" stroke="rgb(0,0,0)" stroke-width="2"  />
		</g>
		<g>
			<title> (ctg10_150)</title>
			<polygon class=" (ctg10_150)" points="1324,10 1349,40 1324,70" fill="rgb(255,255,255)" fill-opacity="1.0" stroke="rgb(0,0,0)" stroke-width="2"  />
			<g>
				<title>DUF3307 (PF11750)
"Protein of unknown function (DUF3307)"</title>
				<rect class="PF11750" x="1324" y="28" stroke-linejoin="round" width="11" height="24" fill="rgb(209,90,195)" stroke="rgb(167,72,156)" stroke-width="1" opacity="0.75" />
			</g>
		</g>
		<g>
			<title> (ctg10_151)</title>
			<polygon class=" (ctg10_151)" points="1351,40 1364,10 1364,70" fill="rgb(255,255,255)" fill-opacity="1.0" stroke="rgb(0,0,0)" stroke-width="2"  />
			<g>
				<title>DAGK_prokar (PF01219)
"Prokaryotic diacylglycerol kinase"</title>
				<polygon class="PF01219" points="1354,40 1359,28 1361,28 1361,52 1359,52" stroke-linejoin="round" width="10" height="24" fill="rgb(54,189,137)" stroke="rgb(43,151,109)" stroke-width="1" opacity="0.75" />
			</g>
		</g>
		<g>
			<title> (ctg10_152)</title>
			<polygon class=" (ctg10_152)" points="1367,40 1387,10 1387,70" fill="rgb(255,255,255)" fill-opacity="1.0" stroke="rgb(0,0,0)" stroke-width="2"  />
		</g>
		<g>
			<title> (ctg10_153)</title>
			<polygon class=" (ctg10_153)" points="1388,40 1397,10 1397,70" fill="rgb(255,255,255)" fill-opacity="1.0" stroke="rgb(0,0,0)" stroke-width="2"  />
		</g>
		<g>
			<title> (ctg10_154)</title>
			<polygon class=" (ctg10_154)" points="1400,40 1411,10 1411,70" fill="rgb(255,255,255)" fill-opacity="1.0" stroke="rgb(0,0,0)" stroke-width="2"  />
			<g>
				<title>RcnB (PF11776)
"Nickel/cobalt transporter regulator"</title>
				<polygon class="PF11776" points="1403,40 1405,35 1405,45" stroke-linejoin="round" width="5" height="24" fill="rgb(83,57,205)" stroke="rgb(66,45,164)" stroke-width="1" opacity="0.75" />
			</g>
		</g>
		<g>
			<title> (ctg10_155)</title>
			<polygon class=" (ctg10_155)" points="1452,25 1447,25 1447,10 1417,40 1447,70 1447,55 1452,55" fill="rgb(255,255,255)" fill-opacity="1.0" stroke="rgb(0,0,0)" stroke-width="2"  />
			<g>
				<title>SBF (PF01758)
"Sodium Bile acid symporter family"</title>
				<polygon class="PF01758" points="1427,34 1433,28 1446,28 1446,52 1433,52 1427,46" stroke-linejoin="round" width="19" height="24" fill="rgb(139,96,196)" stroke="rgb(111,76,156)" stroke-width="1" opacity="0.75" />
			</g>
		</g>
		<g>
			<title> (ctg10_156)</title>
			<polygon class=" (ctg10_156)" points="1452,40 1468,10 1468,70" fill="rgb(255,255,255)" fill-opacity="1.0" stroke="rgb(0,0,0)" stroke-width="2"  />
			<g>
				<title>LMWPc (PF01451)
"Low molecular weight phosphotyrosine protein phosphatase"</title>
				<polygon class="PF01451" points="1455,40 1462,28 1468,28 1468,52 1462,52 1455,40" stroke-linejoin="round" width="13" height="24" fill="rgb(199,53,196)" stroke="rgb(159,42,156)" stroke-width="1" opacity="0.75" />
			</g>
		</g>
		<g>
			<title> (ctg10_157)</title>
			<polygon class=" (ctg10_157)" points="1469,40 1480,10 1480,70" fill="rgb(255,255,255)" fill-opacity="1.0" stroke="rgb(0,0,0)" stroke-width="2"  />
			<g>
				<title>HTH_20 (PF12840)
"Helix-turn-helix domain"</title>
				<polygon class="PF12840" points="1473,37 1476,28 1479,28 1479,52 1476,52 1473,43" stroke-linejoin="round" width="6" height="24" fill="rgb(157,225,93)" stroke="rgb(125,180,74)" stroke-width="1" opacity="0.75" />
			</g>
		</g>
		<g>
			<title> (ctg10_158)</title>
			<polygon class=" (ctg10_158)" points="1481,10 1505,40 1481,70" fill="rgb(255,255,255)" fill-opacity="1.0" stroke="rgb(0,0,0)" stroke-width="2"  />
			<g>
				<title>FMN_red (PF03358)
"NADPH-dependent FMN reductase"</title>
				<polygon class="PF03358" points="1484,28 1492,28 1498,36 1498,44 1492,52 1484,52" stroke-linejoin="round" width="14" height="24" fill="rgb(90,228,61)" stroke="rgb(72,182,48)" stroke-width="1" opacity="0.75" />
			</g>
		</g>
		<g>
			<title> (ctg10_159)</title>
			<polygon class=" (ctg10_159)" points="1506,40 1519,10 1519,70" fill="rgb(255,255,255)" fill-opacity="1.0" stroke="rgb(0,0,0)" stroke-width="2"  />
			<g>
				<title>MerR_1 (PF13411)
"MerR HTH family regulatory protein"</title>
				<polygon class="PF13411" points="1512,33 1514,28 1518,28 1518,52 1514,52 1512,47" stroke-linejoin="round" width="6" height="24" fill="rgb(100,202,107)" stroke="rgb(80,161,85)" stroke-width="1" opacity="0.75" />
			</g>
		</g>
		<g>
			<title> (ctg10_160)</title>
			<polygon class=" (ctg10_160)" points="1522,10 1543,40 1522,70" fill="rgb(255,255,255)" fill-opacity="1.0" stroke="rgb(0,0,0)" stroke-width="2"  />
			<g>
				<title>Cation_efflux (PF01545)
"Cation efflux family"</title>
				<polygon class="PF01545" points="1524,28 1531,28 1539,40 1531,52 1524,52" stroke-linejoin="round" width="17" height="24" fill="rgb(151,84,211)" stroke="rgb(120,67,168)" stroke-width="1" opacity="0.75" />
			</g>
		</g>
		<g>
			<title> (ctg10_161)</title>
			<polygon class=" (ctg10_161)" points="1574,25 1573,25 1573,10 1543,40 1573,70 1573,55 1574,55" fill="rgb(255,255,255)" fill-opacity="1.0" stroke="rgb(0,0,0)" stroke-width="2"  />
			<g>
				<title>Asp_protease_2 (PF13650)
"Aspartyl protease"</title>
				<polygon class="PF13650" points="1557,30 1559,28 1567,28 1567,52 1559,52 1557,50" stroke-linejoin="round" width="10" height="24" fill="rgb(83,188,195)" stroke="rgb(66,150,156)" stroke-width="1" opacity="0.75" />
			</g>
		</g>
	</g>
</svg>
