<svg version="1.1" baseProfile="full" xmlns="http://www.w3.org/2000/svg" width="1765.8" height="80">
	<g>
		<line x1="10" y1="40.0" x2="1755.8" y2="40.0" style="stroke:rgb(70,70,70); stroke-width:3 "/>
		<g>
			<title> (ctg2_306)</title>
			<polygon class=" (ctg2_306)" points="33,40 42,10 42,70" fill="rgb(255,255,255)" fill-opacity="1.0" stroke="rgb(0,0,0)" stroke-width="2"  />
			<g>
				<title>Ribosomal_S15 (PF00312)
"Ribosomal protein S15"</title>
				<polygon class="PF00312" points="36,40 40,28 41,28 41,52 40,52" stroke-linejoin="round" width="8" height="24" fill="rgb(176,72,186)" stroke="rgb(140,57,148)" stroke-width="1" opacity="0.75" />
			</g>
		</g>
		<g>
			<title> (ctg2_307)</title>
			<polygon class=" (ctg2_307)" points="77,25 76,25 76,10 46,40 76,70 76,55 77,55" fill="rgb(255,255,255)" fill-opacity="1.0" stroke="rgb(0,0,0)" stroke-width="2"  />
			<g>
				<title>TruB-C_2 (PF09157)
"Pseudouridine synthase II TruB, C-terminal"</title>
				<polygon class="PF09157" points="50,40 51,39 51,41" stroke-linejoin="round" width="5" height="24" fill="rgb(189,67,147)" stroke="rgb(151,53,117)" stroke-width="1" opacity="0.75" />
			</g>
			<g>
				<title>TruB_C_2 (PF16198)
"tRNA pseudouridylate synthase B C-terminal domain"</title>
				<polygon class="PF16198" points="52,38 58,32 58,48 52,42" stroke-linejoin="round" width="6" height="24" fill="rgb(214,83,215)" stroke="rgb(171,66,172)" stroke-width="1" opacity="0.75" />
			</g>
			<g>
				<title>TruB_N (PF01509)
"TruB family pseudouridylate synthase (N terminal domain)"</title>
				<polygon class="PF01509" points="59,31 62,28 73,28 73,52 62,52 59,49" stroke-linejoin="round" width="14" height="24" fill="rgb(65,212,107)" stroke="rgb(52,169,85)" stroke-width="1" opacity="0.75" />
			</g>
		</g>
		<g>
			<title> (ctg2_308)</title>
			<polygon class=" (ctg2_308)" points="78,40 91,10 91,70" fill="rgb(255,255,255)" fill-opacity="1.0" stroke="rgb(0,0,0)" stroke-width="2"  />
			<g>
				<title>RBFA (PF02033)
"Ribosome-binding factor A"</title>
				<polygon class="PF02033" points="81,40 86,28 90,28 90,52 86,52" stroke-linejoin="round" width="10" height="24" fill="rgb(221,90,110)" stroke="rgb(176,72,88)" stroke-width="1" opacity="0.75" />
			</g>
		</g>
		<g>
			<title> (ctg2_309)</title>
			<polygon class=" (ctg2_309)" points="183,25 124,25 124,10 94,40 124,70 124,55 183,55" fill="rgb(255,255,255)" fill-opacity="1.0" stroke="rgb(0,0,0)" stroke-width="2"  />
			<g>
				<title>IF-2 (PF11987)
"Translation-initiation factor 2"</title>
				<polygon class="PF11987" points="105,33 110,28 116,28 116,52 110,52 105,47" stroke-linejoin="round" width="11" height="24" fill="rgb(180,73,72)" stroke="rgb(144,58,57)" stroke-width="1" opacity="0.75" />
			</g>
			<g>
				<title>GTP_EFTU (PF00009)
"Elongation factor Tu GTP binding domain"</title>
				<rect class="PF00009" x="127" y="28" stroke-linejoin="round" width="16" height="24" fill="rgb(196,118,83)" stroke="rgb(156,94,66)" stroke-width="1" opacity="0.75" />
			</g>
			<g>
				<title>IF2_N (PF04760)
"Translation initiation factor IF-2, N-terminal region"</title>
				<rect class="PF04760" x="146" y="28" stroke-linejoin="round" width="5" height="24" fill="rgb(76,229,91)" stroke="rgb(60,183,72)" stroke-width="1" opacity="0.75" />
			</g>
			<g>
				<title>IF2_assoc (PF08364)
"Bacterial translation initiation factor IF-2 associated region"</title>
				<rect class="PF08364" x="174" y="28" stroke-linejoin="round" width="3" height="24" fill="rgb(168,88,199)" stroke="rgb(134,70,159)" stroke-width="1" opacity="0.75" />
			</g>
			<g>
				<title>IF2_N (PF04760)
"Translation initiation factor IF-2, N-terminal region"</title>
				<rect class="PF04760" x="178" y="28" stroke-linejoin="round" width="5" height="24" fill="rgb(76,229,91)" stroke="rgb(60,183,72)" stroke-width="1" opacity="0.75" />
			</g>
		</g>
		<g>
			<title> (ctg2_310)</title>
			<polygon class=" (ctg2_310)" points="233,25 214,25 214,10 184,40 214,70 214,55 233,55" fill="rgb(255,255,255)" fill-opacity="1.0" stroke="rgb(0,0,0)" stroke-width="2"  />
			<g>
				<title>HHH_5 (PF14520)
"Helix-hairpin-helix domain"</title>
				<polygon class="PF14520" points="188,40 189,39 189,41" stroke-linejoin="round" width="5" height="24" fill="rgb(118,220,87)" stroke="rgb(94,176,69)" stroke-width="1" opacity="0.75" />
			</g>
			<g>
				<title>HHH_5 (PF14520)
"Helix-hairpin-helix domain"</title>
				<polygon class="PF14520" points="192,36 196,32 196,48 192,44" stroke-linejoin="round" width="4" height="24" fill="rgb(118,220,87)" stroke="rgb(94,176,69)" stroke-width="1" opacity="0.75" />
			</g>
			<g>
				<title>KH_5 (PF13184)
"NusA-like KH domain"</title>
				<rect class="PF13184" x="203" y="28" stroke-linejoin="round" width="6" height="24" fill="rgb(70,213,202)" stroke="rgb(56,170,161)" stroke-width="1" opacity="0.75" />
			</g>
			<g>
				<title>S1 (PF00575)
"S1 RNA binding domain"</title>
				<rect class="PF00575" x="213" y="28" stroke-linejoin="round" width="6" height="24" fill="rgb(102,56,190)" stroke="rgb(81,44,152)" stroke-width="1" opacity="0.75" />
			</g>
			<g>
				<title>NusA_N (PF08529)
"NusA N-terminal domain"</title>
				<rect class="PF08529" x="221" y="28" stroke-linejoin="round" width="12" height="24" fill="rgb(185,191,82)" stroke="rgb(148,152,65)" stroke-width="1" opacity="0.75" />
			</g>
		</g>
		<g>
			<title> (ctg2_311)</title>
			<polygon class=" (ctg2_311)" points="234,40 248,10 248,70" fill="rgb(255,255,255)" fill-opacity="1.0" stroke="rgb(0,0,0)" stroke-width="2"  />
			<g>
				<title>DUF150_C (PF17384)
"RimP C-terminal SH3 domain"</title>
				<polygon class="PF17384" points="237,40 240,34 240,46" stroke-linejoin="round" width="6" height="24" fill="rgb(216,131,73)" stroke="rgb(172,104,58)" stroke-width="1" opacity="0.75" />
			</g>
			<g>
				<title>RimP_N (PF02576)
"RimP N-terminal domain"</title>
				<polygon class="PF02576" points="240,34 243,28 247,28 247,52 243,52 240,46" stroke-linejoin="round" width="7" height="24" fill="rgb(108,100,206)" stroke="rgb(86,80,164)" stroke-width="1" opacity="0.75" />
			</g>
		</g>
		<g>
			<title> (ctg2_312)</title>
			<polygon class=" (ctg2_312)" points="265,40 276,10 276,70" fill="rgb(255,255,255)" fill-opacity="1.0" stroke="rgb(0,0,0)" stroke-width="2"  />
			<g>
				<title>SecG (PF03840)
"Preprotein translocase SecG subunit"</title>
				<polygon class="PF03840" points="269,37 273,28 275,28 275,52 273,52 269,43" stroke-linejoin="round" width="6" height="24" fill="rgb(226,130,104)" stroke="rgb(180,104,83)" stroke-width="1" opacity="0.75" />
			</g>
		</g>
		<g>
			<title> (ctg2_313)</title>
			<polygon class=" (ctg2_313)" points="328,25 314,25 314,10 284,40 314,70 314,55 328,55" fill="rgb(255,255,255)" fill-opacity="1.0" stroke="rgb(0,0,0)" stroke-width="2"  />
			<g>
				<title>PGM_PMM_IV (PF00408)
"Phosphoglucomutase/phosphomannomutase, C-terminal domain"</title>
				<polygon class="PF00408" points="288,40 290,38 290,42" stroke-linejoin="round" width="6" height="24" fill="rgb(74,205,143)" stroke="rgb(59,164,114)" stroke-width="1" opacity="0.75" />
			</g>
			<g>
				<title>PGM_PMM_III (PF02880)
"Phosphoglucomutase/phosphomannomutase, alpha/beta/alpha domain III"</title>
				<polygon class="PF02880" points="291,37 300,28 302,28 302,52 300,52 291,43" stroke-linejoin="round" width="11" height="24" fill="rgb(67,204,90)" stroke="rgb(53,163,72)" stroke-width="1" opacity="0.75" />
			</g>
			<g>
				<title>PGM_PMM_II (PF02879)
"Phosphoglucomutase/phosphomannomutase, alpha/beta/alpha domain II"</title>
				<rect class="PF02879" x="303" y="28" stroke-linejoin="round" width="9" height="24" fill="rgb(192,221,60)" stroke="rgb(153,176,48)" stroke-width="1" opacity="0.75" />
			</g>
			<g>
				<title>PGM_PMM_I (PF02878)
"Phosphoglucomutase/phosphomannomutase, alpha/beta/alpha domain I"</title>
				<rect class="PF02878" x="314" y="28" stroke-linejoin="round" width="13" height="24" fill="rgb(217,133,102)" stroke="rgb(173,106,81)" stroke-width="1" opacity="0.75" />
			</g>
		</g>
		<g>
			<title> (ctg2_314)</title>
			<polygon class=" (ctg2_314)" points="328,40 355,10 355,70" fill="rgb(255,255,255)" fill-opacity="1.0" stroke="rgb(0,0,0)" stroke-width="2"  />
			<g>
				<title>Pterin_bind (PF00809)
"Pterin binding enzyme"</title>
				<polygon class="PF00809" points="332,40 343,28 353,28 353,52 343,52" stroke-linejoin="round" width="23" height="24" fill="rgb(192,119,62)" stroke="rgb(153,95,49)" stroke-width="1" opacity="0.75" />
			</g>
		</g>
		<g>
			<title> (ctg2_315)</title>
			<polygon class=" (ctg2_315)" points="423,25 389,25 389,10 359,40 389,70 389,55 423,55" fill="rgb(255,255,255)" fill-opacity="1.0" stroke="rgb(0,0,0)" stroke-width="2"  />
			<g>
				<title>Peptidase_M41 (PF01434)
"Peptidase family M41"</title>
				<polygon class="PF01434" points="364,39 375,28 383,28 383,52 375,52 364,41" stroke-linejoin="round" width="19" height="24" fill="rgb(108,182,48)" stroke="rgb(86,145,38)" stroke-width="1" opacity="0.75" />
			</g>
			<g>
				<title>AAA_lid_3 (PF17862)
"AAA+ lid domain"</title>
				<rect class="PF17862" x="384" y="28" stroke-linejoin="round" width="4" height="24" fill="rgb(219,69,225)" stroke="rgb(175,55,180)" stroke-width="1" opacity="0.75" />
			</g>
			<g>
				<title>AAA (PF00004)
"ATPase family associated with various cellular activities (AAA)"</title>
				<rect class="PF00004" x="391" y="28" stroke-linejoin="round" width="13" height="24" fill="rgb(57,194,204)" stroke="rgb(45,155,163)" stroke-width="1" opacity="0.75" />
			</g>
			<g>
				<title>FtsH_ext (PF06480)
"FtsH Extracellular"</title>
				<rect class="PF06480" x="413" y="28" stroke-linejoin="round" width="8" height="24" fill="rgb(86,101,178)" stroke="rgb(68,80,142)" stroke-width="1" opacity="0.75" />
			</g>
		</g>
		<g>
			<title> (ctg2_316)</title>
			<polygon class=" (ctg2_316)" points="427,40 448,10 448,70" fill="rgb(255,255,255)" fill-opacity="1.0" stroke="rgb(0,0,0)" stroke-width="2"  />
			<g>
				<title>FtsJ (PF01728)
"FtsJ-like methyltransferase"</title>
				<polygon class="PF01728" points="431,40 439,28 444,28 444,52 439,52" stroke-linejoin="round" width="17" height="24" fill="rgb(66,140,192)" stroke="rgb(52,111,153)" stroke-width="1" opacity="0.75" />
			</g>
		</g>
		<g>
			<title> (ctg2_317)</title>
			<polygon class=" (ctg2_317)" points="452,10 461,40 452,70" fill="rgb(255,255,255)" fill-opacity="1.0" stroke="rgb(0,0,0)" stroke-width="2"  />
			<g>
				<title>CRS1_YhbY (PF01985)
"CRS1 / YhbY (CRM) domain"</title>
				<polygon class="PF01985" points="452,28 454,28 458,40 454,52 452,52" stroke-linejoin="round" width="8" height="24" fill="rgb(45,125,179)" stroke="rgb(36,99,143)" stroke-width="1" opacity="0.75" />
			</g>
		</g>
		<g>
			<title> (ctg2_318)</title>
			<polygon class=" (ctg2_318)" points="465,40 480,10 480,70" fill="rgb(255,255,255)" fill-opacity="1.0" stroke="rgb(0,0,0)" stroke-width="2"  />
			<g>
				<title>GreA_GreB (PF01272)
"Transcription elongation factor, GreA/GreB, C-term"</title>
				<polygon class="PF01272" points="468,40 472,32 472,48" stroke-linejoin="round" width="7" height="24" fill="rgb(196,189,58)" stroke="rgb(156,151,46)" stroke-width="1" opacity="0.75" />
			</g>
			<g>
				<title>GreA_GreB_N (PF03449)
"Transcription elongation factor, N-terminal"</title>
				<polygon class="PF03449" points="473,31 474,28 480,28 480,52 474,52 473,49" stroke-linejoin="round" width="7" height="24" fill="rgb(109,94,217)" stroke="rgb(87,75,173)" stroke-width="1" opacity="0.75" />
			</g>
		</g>
		<g>
			<title> (ctg2_319)</title>
			<polygon class=" (ctg2_319)" points="491,25 507,25 507,10 537,40 507,70 507,55 491,55" fill="rgb(255,255,255)" fill-opacity="1.0" stroke="rgb(0,0,0)" stroke-width="2"  />
			<g>
				<title>Peptidase_S13 (PF02113)
"D-Ala-D-Ala carboxypeptidase 3 (S13) family"</title>
				<polygon class="PF02113" points="491,28 521,28 533,40 521,52 491,52" stroke-linejoin="round" width="45" height="24" fill="rgb(222,106,76)" stroke="rgb(177,84,60)" stroke-width="1" opacity="0.75" />
			</g>
		</g>
		<g>
			<title> (ctg2_320)</title>
			<polygon class=" (ctg2_320)" points="617,25 572,25 572,10 542,40 572,70 572,55 617,55" fill="rgb(255,255,255)" fill-opacity="1.0" stroke="rgb(0,0,0)" stroke-width="2"  />
			<g>
				<title>TonB_dep_Rec (PF00593)
"TonB dependent receptor"</title>
				<polygon class="PF00593" points="546,40 558,28 593,28 593,52 558,52" stroke-linejoin="round" width="51" height="24" fill="rgb(171,200,51)" stroke="rgb(136,160,40)" stroke-width="1" opacity="0.75" />
			</g>
			<g>
				<title>Plug (PF07715)
"TonB-dependent Receptor Plug Domain"</title>
				<rect class="PF07715" x="599" y="28" stroke-linejoin="round" width="12" height="24" fill="rgb(99,133,214)" stroke="rgb(79,106,171)" stroke-width="1" opacity="0.75" />
			</g>
		</g>
		<g>
			<title> (ctg2_321)</title>
			<polygon class=" (ctg2_321)" points="624,25 635,25 635,10 665,40 635,70 635,55 624,55" fill="rgb(255,255,255)" fill-opacity="1.0" stroke="rgb(0,0,0)" stroke-width="2"  />
			<g>
				<title>Enterochelin_N (PF11806)
"Enterochelin esterase, N-terminal"</title>
				<rect class="PF11806" x="628" y="28" stroke-linejoin="round" width="12" height="24" fill="rgb(49,154,189)" stroke="rgb(39,123,151)" stroke-width="1" opacity="0.75" />
			</g>
			<g>
				<title>Esterase (PF00756)
"Putative esterase"</title>
				<polygon class="PF00756" points="643,28 649,28 661,40 649,52 643,52" stroke-linejoin="round" width="21" height="24" fill="rgb(217,132,77)" stroke="rgb(173,105,61)" stroke-width="1" opacity="0.75" />
			</g>
		</g>
		<g>
			<title> (ctg2_322)</title>
			<polygon class=" (ctg2_322)" points="669,10 676,40 669,70" fill="rgb(255,255,255)" fill-opacity="1.0" stroke="rgb(0,0,0)" stroke-width="2"  />
			<g>
				<title>MbtH (PF03621)
"MbtH-like protein"</title>
				<polygon class="PF03621" points="669,28 669,28 673,40 669,52 669,52" stroke-linejoin="round" width="5" height="24" fill="rgb(212,165,97)" stroke="rgb(169,132,77)" stroke-width="1" opacity="0.75" />
			</g>
		</g>
		<g>
			<title> (ctg2_323)</title>
			<polygon class=" (ctg2_323)" points="676,25 776,25 776,10 806,40 776,70 776,55 676,55" fill="rgb(255,255,255)" fill-opacity="1.0" stroke="rgb(0,0,0)" stroke-width="2"  />
			<g>
				<title>Condensation (PF00668)
"Condensation domain"</title>
				<rect class="PF00668" x="676" y="28" stroke-linejoin="round" width="44" height="24" fill="rgb(224,184,98)" stroke="rgb(179,147,78)" stroke-width="1" opacity="0.75" />
			</g>
			<g>
				<title>AMP-binding (PF00501)
"AMP-binding enzyme"</title>
				<rect class="PF00501" x="722" y="28" stroke-linejoin="round" width="40" height="24" fill="rgb(60,217,223)" stroke="rgb(48,173,178)" stroke-width="1" opacity="0.75" />
			</g>
			<g>
				<title>AMP-binding_C (PF13193)
"AMP-binding enzyme C-terminal domain"</title>
				<rect class="PF13193" x="763" y="28" stroke-linejoin="round" width="7" height="24" fill="rgb(182,50,118)" stroke="rgb(145,39,94)" stroke-width="1" opacity="0.75" />
			</g>
			<g>
				<title>PP-binding (PF00550)
"Phosphopantetheine attachment site"</title>
				<rect class="PF00550" x="774" y="28" stroke-linejoin="round" width="6" height="24" fill="rgb(103,191,88)" stroke="rgb(82,152,70)" stroke-width="1" opacity="0.75" />
			</g>
			<g>
				<title>Thioesterase (PF00975)
"Thioesterase domain"</title>
				<polygon class="PF00975" points="783,28 790,28 802,40 790,52 783,52" stroke-linejoin="round" width="22" height="24" fill="rgb(207,80,138)" stroke="rgb(165,63,110)" stroke-width="1" opacity="0.75" />
			</g>
		</g>
		<g>
			<title> (ctg2_324)</title>
			<polygon class=" (ctg2_324)" points="808,40 834,10 834,70" fill="rgb(255,255,255)" fill-opacity="1.0" stroke="rgb(0,0,0)" stroke-width="2"  />
			<g>
				<title>ABC_tran (PF00005)
"ABC transporter"</title>
				<polygon class="PF00005" points="817,34 823,28 831,28 831,52 823,52 817,46" stroke-linejoin="round" width="14" height="24" fill="rgb(129,201,63)" stroke="rgb(103,160,50)" stroke-width="1" opacity="0.75" />
			</g>
		</g>
		<g>
			<title> (ctg2_325)</title>
			<polygon class=" (ctg2_325)" points="866,25 864,25 864,10 834,40 864,70 864,55 866,55" fill="rgb(255,255,255)" fill-opacity="1.0" stroke="rgb(0,0,0)" stroke-width="2"  />
			<g>
				<title>FecCD (PF01032)
"FecCD transport family"</title>
				<polygon class="PF01032" points="838,40 850,28 865,28 865,52 850,52" stroke-linejoin="round" width="31" height="24" fill="rgb(210,177,70)" stroke="rgb(168,141,56)" stroke-width="1" opacity="0.75" />
			</g>
		</g>
		<g>
			<title> (ctg2_326)</title>
			<polygon class=" (ctg2_326)" points="898,25 897,25 897,10 867,40 897,70 897,55 898,55" fill="rgb(255,255,255)" fill-opacity="1.0" stroke="rgb(0,0,0)" stroke-width="2"  />
			<g>
				<title>FecCD (PF01032)
"FecCD transport family"</title>
				<polygon class="PF01032" points="871,40 883,28 897,28 897,52 883,52" stroke-linejoin="round" width="30" height="24" fill="rgb(210,177,70)" stroke="rgb(168,141,56)" stroke-width="1" opacity="0.75" />
			</g>
		</g>
		<g>
			<title> (ctg2_327)</title>
			<polygon class=" (ctg2_327)" points="934,25 932,25 932,10 902,40 932,70 932,55 934,55" fill="rgb(255,255,255)" fill-opacity="1.0" stroke="rgb(0,0,0)" stroke-width="2"  />
			<g>
				<title>Peripla_BP_2 (PF01497)
"Periplasmic binding protein"</title>
				<polygon class="PF01497" points="906,40 918,28 928,28 928,52 918,52" stroke-linejoin="round" width="24" height="24" fill="rgb(183,226,104)" stroke="rgb(146,180,83)" stroke-width="1" opacity="0.75" />
			</g>
		</g>
		<g>
			<title> (ctg2_328)</title>
			<polygon class=" (ctg2_328)" points="941,25 950,25 950,10 980,40 950,70 950,55 941,55" fill="rgb(255,255,255)" fill-opacity="1.0" stroke="rgb(0,0,0)" stroke-width="2"  />
			<g>
				<title>Chorismate_bind (PF00425)
"chorismate binding enzyme"</title>
				<polygon class="PF00425" points="953,28 964,28 976,40 964,52 953,52" stroke-linejoin="round" width="25" height="24" fill="rgb(188,116,88)" stroke="rgb(150,92,70)" stroke-width="1" opacity="0.75" />
			</g>
		</g>
		<g>
			<title> (ctg2_329)</title>
			<polygon class=" (ctg2_329)" points="980,25 1003,25 1003,10 1033,40 1003,70 1003,55 980,55" fill="rgb(255,255,255)" fill-opacity="1.0" stroke="rgb(0,0,0)" stroke-width="2"  />
			<g>
				<title>AMP-binding (PF00501)
"AMP-binding enzyme"</title>
				<polygon class="PF00501" points="983,28 1017,28 1023,34 1023,46 1017,52 983,52" stroke-linejoin="round" width="40" height="24" fill="rgb(60,217,223)" stroke="rgb(48,173,178)" stroke-width="1" opacity="0.75" />
			</g>
			<g>
				<title>AMP-binding_C (PF13193)
"AMP-binding enzyme C-terminal domain"</title>
				<polygon class="PF13193" points="1024,35 1029,40 1024,45" stroke-linejoin="round" width="7" height="24" fill="rgb(182,50,118)" stroke="rgb(145,39,94)" stroke-width="1" opacity="0.75" />
			</g>
		</g>
		<g>
			<title> (ctg2_330)</title>
			<polygon class=" (ctg2_330)" points="1035,10 1063,40 1035,70" fill="rgb(255,255,255)" fill-opacity="1.0" stroke="rgb(0,0,0)" stroke-width="2"  />
			<g>
				<title>Isochorismatase (PF00857)
"Isochorismatase family"</title>
				<polygon class="PF00857" points="1038,28 1047,28 1055,36 1055,44 1047,52 1038,52" stroke-linejoin="round" width="17" height="24" fill="rgb(144,224,70)" stroke="rgb(115,179,56)" stroke-width="1" opacity="0.75" />
			</g>
			<g>
				<title>PP-binding (PF00550)
"Phosphopantetheine attachment site"</title>
				<polygon class="PF00550" points="1056,37 1059,40 1056,43" stroke-linejoin="round" width="6" height="24" fill="rgb(103,191,88)" stroke="rgb(82,152,70)" stroke-width="1" opacity="0.75" />
			</g>
		</g>
		<g>
			<title> (ctg2_331)</title>
			<polygon class=" (ctg2_331)" points="1063,10 1088,40 1063,70" fill="rgb(255,255,255)" fill-opacity="1.0" stroke="rgb(0,0,0)" stroke-width="2"  />
			<g>
				<title>adh_short_C2 (PF13561)
"Enoyl-(Acyl carrier protein) reductase"</title>
				<polygon class="PF13561" points="1064,28 1074,28 1084,40 1074,52 1064,52" stroke-linejoin="round" width="23" height="24" fill="rgb(73,205,127)" stroke="rgb(58,164,101)" stroke-width="1" opacity="0.75" />
			</g>
		</g>
		<g>
			<title> (ctg2_332)</title>
			<polygon class=" (ctg2_332)" points="1089,10 1103,40 1089,70" fill="rgb(255,255,255)" fill-opacity="1.0" stroke="rgb(0,0,0)" stroke-width="2"  />
			<g>
				<title>4HBT (PF03061)
"Thioesterase superfamily"</title>
				<polygon class="PF03061" points="1094,28 1099,40 1094,52" stroke-linejoin="round" width="7" height="24" fill="rgb(143,103,215)" stroke="rgb(114,82,172)" stroke-width="1" opacity="0.75" />
			</g>
		</g>
		<g>
			<title> (ctg2_333)</title>
			<polygon class=" (ctg2_333)" points="1144,25 1135,25 1135,10 1105,40 1135,70 1135,55 1144,55" fill="rgb(255,255,255)" fill-opacity="1.0" stroke="rgb(0,0,0)" stroke-width="2"  />
			<g>
				<title>MMR_HSR1 (PF01926)
"50S ribosome-binding GTPase"</title>
				<polygon class="PF01926" points="1115,34 1121,28 1127,28 1127,52 1121,52 1115,46" stroke-linejoin="round" width="12" height="24" fill="rgb(105,180,226)" stroke="rgb(83,143,180)" stroke-width="1" opacity="0.75" />
			</g>
			<g>
				<title>GTP1_OBG (PF01018)
"GTP1/OBG"</title>
				<rect class="PF01018" x="1128" y="28" stroke-linejoin="round" width="15" height="24" fill="rgb(159,183,68)" stroke="rgb(127,146,54)" stroke-width="1" opacity="0.75" />
			</g>
		</g>
		<g>
			<title> (ctg2_334)</title>
			<polygon class=" (ctg2_334)" points="1152,40 1160,10 1160,70" fill="rgb(255,255,255)" fill-opacity="1.0" stroke="rgb(0,0,0)" stroke-width="2"  />
			<g>
				<title>Ribosomal_L27 (PF01016)
"Ribosomal L27 protein"</title>
				<polygon class="PF01016" points="1155,40 1158,28 1160,28 1160,52 1158,52" stroke-linejoin="round" width="8" height="24" fill="rgb(108,228,174)" stroke="rgb(86,182,139)" stroke-width="1" opacity="0.75" />
			</g>
		</g>
		<g>
			<title> (ctg2_335)</title>
			<polygon class=" (ctg2_335)" points="1161,40 1171,10 1171,70" fill="rgb(255,255,255)" fill-opacity="1.0" stroke="rgb(0,0,0)" stroke-width="2"  />
			<g>
				<title>Ribosomal_L21p (PF00829)
"Ribosomal prokaryotic L21 protein"</title>
				<polygon class="PF00829" points="1164,40 1168,28 1171,28 1171,52 1168,52" stroke-linejoin="round" width="10" height="24" fill="rgb(211,146,57)" stroke="rgb(168,116,45)" stroke-width="1" opacity="0.75" />
			</g>
		</g>
		<g>
			<title> (ctg2_336)</title>
			<polygon class=" (ctg2_336)" points="1180,25 1182,25 1182,10 1212,40 1182,70 1182,55 1180,55" fill="rgb(255,255,255)" fill-opacity="1.0" stroke="rgb(0,0,0)" stroke-width="2"  />
			<g>
				<title>polyprenyl_synt (PF00348)
"Polyprenyl synthetase"</title>
				<polygon class="PF00348" points="1182,28 1196,28 1206,38 1206,42 1196,52 1182,52" stroke-linejoin="round" width="24" height="24" fill="rgb(61,206,65)" stroke="rgb(48,164,52)" stroke-width="1" opacity="0.75" />
			</g>
		</g>
		<g>
			<title> (ctg2_337)</title>
			<polygon class=" (ctg2_337)" points="1220,10 1229,40 1220,70" fill="rgb(255,255,255)" fill-opacity="1.0" stroke="rgb(0,0,0)" stroke-width="2"  />
			<g>
				<title>HTH_35 (PF13693)
"Winged helix-turn-helix DNA-binding"</title>
				<polygon class="PF13693" points="1220,28 1222,28 1226,40 1222,52 1220,52" stroke-linejoin="round" width="7" height="24" fill="rgb(196,88,166)" stroke="rgb(156,70,132)" stroke-width="1" opacity="0.75" />
			</g>
		</g>
		<g>
			<title> (ctg2_338)</title>
			<polygon class=" (ctg2_338)" points="1274,25 1262,25 1262,10 1232,40 1262,70 1262,55 1274,55" fill="rgb(255,255,255)" fill-opacity="1.0" stroke="rgb(0,0,0)" stroke-width="2"  />
			<g>
				<title>EPSP_synthase (PF00275)
"EPSP synthase (3-phosphoshikimate 1-carboxyvinyltransferase)"</title>
				<polygon class="PF00275" points="1236,40 1248,28 1273,28 1273,52 1248,52" stroke-linejoin="round" width="40" height="24" fill="rgb(217,213,85)" stroke="rgb(173,170,68)" stroke-width="1" opacity="0.75" />
			</g>
		</g>
		<g>
			<title> (ctg2_339)</title>
			<polygon class=" (ctg2_339)" points="1276,40 1284,10 1284,70" fill="rgb(255,255,255)" fill-opacity="1.0" stroke="rgb(0,0,0)" stroke-width="2"  />
			<g>
				<title>BolA (PF01722)
"BolA-like protein"</title>
				<polygon class="PF01722" points="1279,40 1282,28 1283,28 1283,52 1282,52" stroke-linejoin="round" width="6" height="24" fill="rgb(60,203,119)" stroke="rgb(47,162,95)" stroke-width="1" opacity="0.75" />
			</g>
		</g>
		<g>
			<title> (ctg2_340)</title>
			<polygon class=" (ctg2_340)" points="1288,40 1298,10 1298,70" fill="rgb(255,255,255)" fill-opacity="1.0" stroke="rgb(0,0,0)" stroke-width="2"  />
			<g>
				<title>STAS_2 (PF13466)
"STAS domain"</title>
				<polygon class="PF13466" points="1291,40 1295,28 1296,28 1296,52 1295,52" stroke-linejoin="round" width="7" height="24" fill="rgb(206,83,63)" stroke="rgb(164,66,50)" stroke-width="1" opacity="0.75" />
			</g>
		</g>
		<g>
			<title> (ctg2_341)</title>
			<polygon class=" (ctg2_341)" points="1299,40 1320,10 1320,70" fill="rgb(255,255,255)" fill-opacity="1.0" stroke="rgb(0,0,0)" stroke-width="2"  />
			<g>
				<title>MlaC (PF05494)
"MlaC protein"</title>
				<polygon class="PF05494" points="1303,40 1311,28 1316,28 1316,52 1311,52" stroke-linejoin="round" width="16" height="24" fill="rgb(147,194,90)" stroke="rgb(117,155,72)" stroke-width="1" opacity="0.75" />
			</g>
		</g>
		<g>
			<title> (ctg2_342)</title>
			<polygon class=" (ctg2_342)" points="1320,40 1338,10 1338,70" fill="rgb(255,255,255)" fill-opacity="1.0" stroke="rgb(0,0,0)" stroke-width="2"  />
			<g>
				<title>MlaD (PF02470)
"MlaD protein"</title>
				<polygon class="PF02470" points="1326,37 1331,28 1334,28 1334,52 1331,52 1326,43" stroke-linejoin="round" width="8" height="24" fill="rgb(219,201,73)" stroke="rgb(175,160,58)" stroke-width="1" opacity="0.75" />
			</g>
		</g>
		<g>
			<title> (ctg2_343)</title>
			<polygon class=" (ctg2_343)" points="1339,40 1365,10 1365,70" fill="rgb(255,255,255)" fill-opacity="1.0" stroke="rgb(0,0,0)" stroke-width="2"  />
			<g>
				<title>MlaE (PF02405)
"Permease MlaE"</title>
				<polygon class="PF02405" points="1343,40 1353,28 1360,28 1360,52 1353,52" stroke-linejoin="round" width="21" height="24" fill="rgb(56,97,187)" stroke="rgb(44,77,149)" stroke-width="1" opacity="0.75" />
			</g>
		</g>
		<g>
			<title> (ctg2_344)</title>
			<polygon class=" (ctg2_344)" points="1365,40 1392,10 1392,70" fill="rgb(255,255,255)" fill-opacity="1.0" stroke="rgb(0,0,0)" stroke-width="2"  />
			<g>
				<title>ABC_tran (PF00005)
"ABC transporter"</title>
				<polygon class="PF00005" points="1374,34 1380,28 1388,28 1388,52 1380,52 1374,46" stroke-linejoin="round" width="14" height="24" fill="rgb(129,201,63)" stroke="rgb(103,160,50)" stroke-width="1" opacity="0.75" />
			</g>
		</g>
		<g>
			<title> (ctg2_345)</title>
			<polygon class=" (ctg2_345)" points="1400,25 1402,25 1402,10 1432,40 1402,70 1402,55 1400,55" fill="rgb(255,255,255)" fill-opacity="1.0" stroke="rgb(0,0,0)" stroke-width="2"  />
			<g>
				<title>Na_Ca_ex (PF01699)
"Sodium/calcium exchanger protein"</title>
				<rect class="PF01699" x="1400" y="28" stroke-linejoin="round" width="14" height="24" fill="rgb(64,189,136)" stroke="rgb(51,151,108)" stroke-width="1" opacity="0.75" />
			</g>
			<g>
				<title>Na_Ca_ex (PF01699)
"Sodium/calcium exchanger protein"</title>
				<polygon class="PF01699" points="1417,29 1428,40 1417,51" stroke-linejoin="round" width="14" height="24" fill="rgb(64,189,136)" stroke="rgb(51,151,108)" stroke-width="1" opacity="0.75" />
			</g>
		</g>
		<g>
			<title> (ctg2_346)</title>
			<polygon class=" (ctg2_346)" points="1433,25 1435,25 1435,10 1465,40 1435,70 1435,55 1433,55" fill="rgb(255,255,255)" fill-opacity="1.0" stroke="rgb(0,0,0)" stroke-width="2"  />
			<g>
				<title>SIS (PF01380)
"SIS domain"</title>
				<polygon class="PF01380" points="1437,28 1449,28 1450,29 1450,51 1449,52 1437,52" stroke-linejoin="round" width="13" height="24" fill="rgb(212,106,227)" stroke="rgb(169,84,181)" stroke-width="1" opacity="0.75" />
			</g>
			<g>
				<title>CBS (PF00571)
"CBS domain"</title>
				<polygon class="PF00571" points="1453,32 1458,37 1458,43 1453,48" stroke-linejoin="round" width="5" height="24" fill="rgb(220,56,105)" stroke="rgb(176,44,84)" stroke-width="1" opacity="0.75" />
			</g>
			<g>
				<title>CBS (PF00571)
"CBS domain"</title>
				<polygon class="PF00571" points="1460,39 1461,40 1460,41" stroke-linejoin="round" width="5" height="24" fill="rgb(220,56,105)" stroke="rgb(176,44,84)" stroke-width="1" opacity="0.75" />
			</g>
		</g>
		<g>
			<title> (ctg2_347)</title>
			<polygon class=" (ctg2_347)" points="1466,10 1484,40 1466,70" fill="rgb(255,255,255)" fill-opacity="1.0" stroke="rgb(0,0,0)" stroke-width="2"  />
			<g>
				<title>Hydrolase_3 (PF08282)
"haloacid dehalogenase-like hydrolase"</title>
				<polygon class="PF08282" points="1475,30 1481,40 1475,50" stroke-linejoin="round" width="7" height="24" fill="rgb(195,74,128)" stroke="rgb(156,59,102)" stroke-width="1" opacity="0.75" />
			</g>
		</g>
		<g>
			<title> (ctg2_348)</title>
			<polygon class=" (ctg2_348)" points="1485,10 1504,40 1485,70" fill="rgb(255,255,255)" fill-opacity="1.0" stroke="rgb(0,0,0)" stroke-width="2"  />
			<g>
				<title>LptC (PF06835)
"Lipopolysaccharide-assembly, LptC-related"</title>
				<polygon class="PF06835" points="1486,28 1492,28 1500,40 1492,52 1486,52" stroke-linejoin="round" width="17" height="24" fill="rgb(66,154,188)" stroke="rgb(52,123,150)" stroke-width="1" opacity="0.75" />
			</g>
		</g>
		<g>
			<title> (ctg2_349)</title>
			<polygon class=" (ctg2_349)" points="1503,10 1521,40 1503,70" fill="rgb(255,255,255)" fill-opacity="1.0" stroke="rgb(0,0,0)" stroke-width="2"  />
			<g>
				<title>LptD_N (PF03968)
"LptA/(LptD N-terminal domain) LPS transport protein"</title>
				<polygon class="PF03968" points="1506,28 1510,28 1517,39 1517,41 1510,52 1506,52" stroke-linejoin="round" width="11" height="24" fill="rgb(211,76,126)" stroke="rgb(168,60,100)" stroke-width="1" opacity="0.75" />
			</g>
		</g>
		<g>
			<title> (ctg2_350)</title>
			<polygon class=" (ctg2_350)" points="1522,10 1546,40 1522,70" fill="rgb(255,255,255)" fill-opacity="1.0" stroke="rgb(0,0,0)" stroke-width="2"  />
			<g>
				<title>ABC_tran (PF00005)
"ABC transporter"</title>
				<polygon class="PF00005" points="1523,28 1533,28 1537,34 1537,46 1533,52 1523,52" stroke-linejoin="round" width="14" height="24" fill="rgb(129,201,63)" stroke="rgb(103,160,50)" stroke-width="1" opacity="0.75" />
			</g>
			<g>
				<title>BCA_ABC_TP_C (PF12399)
"Branched-chain amino acid ATP-binding cassette transporter"</title>
				<polygon class="PF12399" points="1543,40 1542,40 1543,40" stroke-linejoin="round" width="2" height="24" fill="rgb(205,68,53)" stroke="rgb(164,54,42)" stroke-width="1" opacity="0.75" />
			</g>
		</g>
		<g>
			<title> (ctg2_351)</title>
			<polygon class=" (ctg2_351)" points="1547,25 1564,25 1564,10 1594,40 1564,70 1564,55 1547,55" fill="rgb(255,255,255)" fill-opacity="1.0" stroke="rgb(0,0,0)" stroke-width="2"  />
			<g>
				<title>Sigma54_AID (PF00309)
"Sigma-54 factor, Activator interacting domain (AID)"</title>
				<rect class="PF00309" x="1547" y="28" stroke-linejoin="round" width="4" height="24" fill="rgb(182,65,158)" stroke="rgb(145,52,126)" stroke-width="1" opacity="0.75" />
			</g>
			<g>
				<title>Sigma54_CBD (PF04963)
"Sigma-54 factor, core binding domain"</title>
				<rect class="PF04963" x="1558" y="28" stroke-linejoin="round" width="19" height="24" fill="rgb(157,66,219)" stroke="rgb(125,52,175)" stroke-width="1" opacity="0.75" />
			</g>
			<g>
				<title>Sigma54_DBD (PF04552)
"Sigma-54, DNA binding domain"</title>
				<polygon class="PF04552" points="1578,28 1578,28 1590,40 1578,52 1578,52" stroke-linejoin="round" width="15" height="24" fill="rgb(196,204,61)" stroke="rgb(156,163,48)" stroke-width="1" opacity="0.75" />
			</g>
		</g>
		<g>
			<title> (ctg2_352)</title>
			<polygon class=" (ctg2_352)" points="1596,10 1605,40 1596,70" fill="rgb(255,255,255)" fill-opacity="1.0" stroke="rgb(0,0,0)" stroke-width="2"  />
			<g>
				<title>Ribosomal_S30AE (PF02482)
"Sigma 54 modulation protein / S30EA ribosomal protein"</title>
				<polygon class="PF02482" points="1596,28 1598,28 1602,40 1598,52 1596,52" stroke-linejoin="round" width="9" height="24" fill="rgb(104,228,126)" stroke="rgb(83,182,100)" stroke-width="1" opacity="0.75" />
			</g>
		</g>
		<g>
			<title> (ctg2_353)</title>
			<polygon class=" (ctg2_353)" points="1611,10 1627,40 1611,70" fill="rgb(255,255,255)" fill-opacity="1.0" stroke="rgb(0,0,0)" stroke-width="2"  />
			<g>
				<title>PTS_EIIA_2 (PF00359)
"Phosphoenolpyruvate-dependent sugar phosphotransferase system, EIIA 2"</title>
				<polygon class="PF00359" points="1612,28 1617,28 1623,40 1617,52 1612,52" stroke-linejoin="round" width="14" height="24" fill="rgb(115,83,186)" stroke="rgb(91,66,148)" stroke-width="1" opacity="0.75" />
			</g>
		</g>
		<g>
			<title> (ctg2_354)</title>
			<polygon class=" (ctg2_354)" points="1628,10 1656,40 1628,70" fill="rgb(255,255,255)" fill-opacity="1.0" stroke="rgb(0,0,0)" stroke-width="2"  />
			<g>
				<title>ATP_bind_2 (PF03668)
"P-loop ATPase protein family"</title>
				<polygon class="PF03668" points="1628,28 1640,28 1652,40 1640,52 1628,52" stroke-linejoin="round" width="28" height="24" fill="rgb(183,184,73)" stroke="rgb(146,147,58)" stroke-width="1" opacity="0.75" />
			</g>
		</g>
		<g>
			<title> (ctg2_355)</title>
			<polygon class=" (ctg2_355)" points="1656,10 1665,40 1656,70" fill="rgb(255,255,255)" fill-opacity="1.0" stroke="rgb(0,0,0)" stroke-width="2"  />
			<g>
				<title>PTS-HPr (PF00381)
"PTS HPr component phosphorylation site"</title>
				<polygon class="PF00381" points="1656,28 1657,28 1661,40 1657,52 1656,52" stroke-linejoin="round" width="8" height="24" fill="rgb(207,89,139)" stroke="rgb(165,71,111)" stroke-width="1" opacity="0.75" />
			</g>
		</g>
		<g>
			<title> (ctg2_356)</title>
			<polygon class=" (ctg2_356)" points="1666,40 1690,10 1690,70" fill="rgb(255,255,255)" fill-opacity="1.0" stroke="rgb(0,0,0)" stroke-width="2"  />
			<g>
				<title>Transgly (PF00912)
"Transglycosylase"</title>
				<polygon class="PF00912" points="1670,40 1680,28 1684,28 1684,52 1680,52" stroke-linejoin="round" width="17" height="24" fill="rgb(172,107,216)" stroke="rgb(137,85,172)" stroke-width="1" opacity="0.75" />
			</g>
		</g>
	</g>
</svg>
