<svg version="1.1" baseProfile="full" xmlns="http://www.w3.org/2000/svg" width="950.1666666666666" height="80">
	<g>
		<line x1="10" y1="40.0" x2="940.1666666666666" y2="40.0" style="stroke:rgb(70,70,70); stroke-width:3 "/>
		<g>
			<title> (ctg22_41)</title>
			<polygon class=" (ctg22_41)" points="64,10 74,40 64,70" fill="rgb(255,255,255)" fill-opacity="1.0" stroke="rgb(0,0,0)" stroke-width="2"  />
		</g>
		<g>
			<title> (ctg22_42)</title>
			<polygon class=" (ctg22_42)" points="74,10 97,40 74,70" fill="rgb(255,255,255)" fill-opacity="1.0" stroke="rgb(0,0,0)" stroke-width="2"  />
			<g>
				<title>DUF4366 (PF14283)
"Domain of unknown function (DUF4366)"</title>
				<polygon class="PF14283" points="81,28 84,28 93,40 93,40 84,52 81,52" stroke-linejoin="round" width="12" height="24" fill="rgb(120,179,78)" stroke="rgb(95,143,62)" stroke-width="1" opacity="0.75" />
			</g>
		</g>
		<g>
			<title> (ctg22_43)</title>
			<polygon class=" (ctg22_43)" points="97,10 114,40 97,70" fill="rgb(255,255,255)" fill-opacity="1.0" stroke="rgb(0,0,0)" stroke-width="2"  />
		</g>
		<g>
			<title> (ctg22_44)</title>
			<polygon class=" (ctg22_44)" points="114,25 141,25 141,10 171,40 141,70 141,55 114,55" fill="rgb(255,255,255)" fill-opacity="1.0" stroke="rgb(0,0,0)" stroke-width="2"  />
			<g>
				<title>Flg_new (PF09479)
"Listeria-Bacteroides repeat domain (List_Bact_rpt)"</title>
				<rect class="PF09479" x="136" y="28" stroke-linejoin="round" width="6" height="24" fill="rgb(90,215,56)" stroke="rgb(72,172,44)" stroke-width="1" opacity="0.75" />
			</g>
		</g>
		<g>
			<title> (ctg22_45)</title>
			<polygon class=" (ctg22_45)" points="172,10 177,40 172,70" fill="rgb(255,255,255)" fill-opacity="1.0" stroke="rgb(0,0,0)" stroke-width="2"  />
		</g>
		<g>
			<title> (ctg22_46)</title>
			<polygon class=" (ctg22_46)" points="177,10 184,40 177,70" fill="rgb(255,255,255)" fill-opacity="1.0" stroke="rgb(0,0,0)" stroke-width="2"  />
			<g>
				<title>Maff2 (PF12750)
"Maff2 family"</title>
				<polygon class="PF12750" points="177,28 177,28 181,40 177,52 177,52" stroke-linejoin="round" width="6" height="24" fill="rgb(82,90,211)" stroke="rgb(65,72,168)" stroke-width="1" opacity="0.75" />
			</g>
		</g>
		<g>
			<title> (ctg22_47)</title>
			<polygon class=" (ctg22_47)" points="186,10 193,40 186,70" fill="rgb(255,255,255)" fill-opacity="1.0" stroke="rgb(0,0,0)" stroke-width="2"  />
			<g>
				<title>Maff2 (PF12750)
"Maff2 family"</title>
				<polygon class="PF12750" points="186,28 186,28 190,40 186,52 186,52" stroke-linejoin="round" width="6" height="24" fill="rgb(82,90,211)" stroke="rgb(65,72,168)" stroke-width="1" opacity="0.75" />
			</g>
		</g>
		<g>
			<title> (ctg22_48)</title>
			<polygon class=" (ctg22_48)" points="198,25 228,25 228,10 258,40 228,70 228,55 198,55" fill="rgb(255,255,255)" fill-opacity="1.0" stroke="rgb(0,0,0)" stroke-width="2"  />
			<g>
				<title>T4SS-DNA_transf (PF02534)
"Type IV secretory system Conjugative DNA transfer"</title>
				<polygon class="PF02534" points="207,28 242,28 254,40 242,52 207,52" stroke-linejoin="round" width="49" height="24" fill="rgb(48,182,65)" stroke="rgb(38,145,52)" stroke-width="1" opacity="0.75" />
			</g>
		</g>
		<g>
			<title> (ctg22_49)</title>
			<polygon class=" (ctg22_49)" points="275,10 286,40 275,70" fill="rgb(255,255,255)" fill-opacity="1.0" stroke="rgb(0,0,0)" stroke-width="2"  />
		</g>
		<g>
			<title> (ctg22_50)</title>
			<polygon class=" (ctg22_50)" points="298,10 309,40 298,70" fill="rgb(255,255,255)" fill-opacity="1.0" stroke="rgb(0,0,0)" stroke-width="2"  />
		</g>
		<g>
			<title> (ctg22_51)</title>
			<polygon class=" (ctg22_51)" points="317,10 324,40 317,70" fill="rgb(255,255,255)" fill-opacity="1.0" stroke="rgb(0,0,0)" stroke-width="2"  />
			<g>
				<title>HTH_3 (PF01381)
"Helix-turn-helix"</title>
				<polygon class="PF01381" points="318,28 318,28 321,40 318,52 318,52" stroke-linejoin="round" width="5" height="24" fill="rgb(105,79,202)" stroke="rgb(83,63,161)" stroke-width="1" opacity="0.75" />
			</g>
		</g>
		<g>
			<title> (ctg22_52)</title>
			<polygon class=" (ctg22_52)" points="325,10 336,40 325,70" fill="rgb(255,255,255)" fill-opacity="1.0" stroke="rgb(0,0,0)" stroke-width="2"  />
		</g>
		<g>
			<title> (ctg22_53)</title>
			<polygon class=" (ctg22_53)" points="433,25 373,25 373,10 343,40 373,70 373,55 433,55" fill="rgb(255,255,255)" fill-opacity="1.0" stroke="rgb(0,0,0)" stroke-width="2"  />
			<g>
				<title>LANC_like (PF05147)
"Lanthionine synthetase C-like protein"</title>
				<polygon class="PF05147" points="347,40 359,28 377,28 377,52 359,52" stroke-linejoin="round" width="34" height="24" fill="rgb(129,182,79)" stroke="rgb(103,145,63)" stroke-width="1" opacity="0.75" />
			</g>
			<g>
				<title>DUF4135 (PF13575)
"Domain of unknown function (DUF4135)"</title>
				<rect class="PF13575" x="386" y="28" stroke-linejoin="round" width="34" height="24" fill="rgb(228,84,217)" stroke="rgb(182,67,173)" stroke-width="1" opacity="0.75" />
			</g>
		</g>
		<g>
			<title> (ctg22_54)</title>
			<polygon class=" (ctg22_54)" points="504,25 463,25 463,10 433,40 463,70 463,55 504,55" fill="rgb(255,255,255)" fill-opacity="1.0" stroke="rgb(0,0,0)" stroke-width="2"  />
			<g>
				<title>ABC_tran (PF00005)
"ABC transporter"</title>
				<polygon class="PF00005" points="440,37 449,28 454,28 454,52 449,52 440,43" stroke-linejoin="round" width="14" height="24" fill="rgb(129,201,63)" stroke="rgb(103,160,50)" stroke-width="1" opacity="0.75" />
			</g>
			<g>
				<title>ABC_membrane (PF00664)
"ABC transporter transmembrane region"</title>
				<rect class="PF00664" x="461" y="28" stroke-linejoin="round" width="27" height="24" fill="rgb(149,226,73)" stroke="rgb(119,180,58)" stroke-width="1" opacity="0.75" />
			</g>
			<g>
				<title>Peptidase_C39 (PF03412)
"Peptidase C39 family"</title>
				<rect class="PF03412" x="490" y="28" stroke-linejoin="round" width="13" height="24" fill="rgb(214,226,77)" stroke="rgb(171,180,61)" stroke-width="1" opacity="0.75" />
			</g>
		</g>
		<g>
			<title> (ctg22_55)</title>
			<polygon class=" (ctg22_55)" points="506,10 512,40 506,70" fill="rgb(255,255,255)" fill-opacity="1.0" stroke="rgb(0,0,0)" stroke-width="2"  />
		</g>
		<g>
			<title> (ctg22_56)</title>
			<polygon class=" (ctg22_56)" points="605,25 543,25 543,10 513,40 543,70 543,55 605,55" fill="rgb(255,255,255)" fill-opacity="1.0" stroke="rgb(0,0,0)" stroke-width="2"  />
			<g>
				<title>LANC_like (PF05147)
"Lanthionine synthetase C-like protein"</title>
				<polygon class="PF05147" points="517,40 529,28 546,28 546,52 529,52" stroke-linejoin="round" width="33" height="24" fill="rgb(129,182,79)" stroke="rgb(103,145,63)" stroke-width="1" opacity="0.75" />
			</g>
			<g>
				<title>DUF4135 (PF13575)
"Domain of unknown function (DUF4135)"</title>
				<rect class="PF13575" x="558" y="28" stroke-linejoin="round" width="35" height="24" fill="rgb(228,84,217)" stroke="rgb(182,67,173)" stroke-width="1" opacity="0.75" />
			</g>
		</g>
		<g>
			<title> (ctg22_57)</title>
			<polygon class=" (ctg22_57)" points="607,10 614,40 607,70" fill="rgb(255,255,255)" fill-opacity="1.0" stroke="rgb(0,0,0)" stroke-width="2"  />
			<g>
				<title>Lantibiotic_a (PF14867)
"Lantibiotic alpha"</title>
				<polygon class="PF14867" points="611,40 611,40 611,40" stroke-linejoin="round" width="3" height="24" fill="rgb(140,86,183)" stroke="rgb(111,68,146)" stroke-width="1" opacity="0.75" />
			</g>
		</g>
		<g>
			<title>allorf_48921_49136 (allorf_48921_49136)</title>
			<polygon class="allorf_48921_49136 (allorf_48921_49136)" points="614,10 621,40 614,70" fill="rgb(255,255,255)" fill-opacity="1.0" stroke="rgb(0,0,0)" stroke-width="2"  />
		</g>
		<g>
			<title> (ctg22_58)</title>
			<polygon class=" (ctg22_58)" points="627,10 636,40 627,70" fill="rgb(255,255,255)" fill-opacity="1.0" stroke="rgb(0,0,0)" stroke-width="2"  />
			<g>
				<title>Lantibiotic_a (PF14867)
"Lantibiotic alpha"</title>
				<polygon class="PF14867" points="633,39 633,40 633,41" stroke-linejoin="round" width="3" height="24" fill="rgb(140,86,183)" stroke="rgb(111,68,146)" stroke-width="1" opacity="0.75" />
			</g>
		</g>
		<g>
			<title> (ctg22_59)</title>
			<polygon class=" (ctg22_59)" points="637,10 642,40 637,70" fill="rgb(255,255,255)" fill-opacity="1.0" stroke="rgb(0,0,0)" stroke-width="2"  />
		</g>
		<g>
			<title> (ctg22_60)</title>
			<polygon class=" (ctg22_60)" points="653,25 653,25 653,10 683,40 653,70 653,55 653,55" fill="rgb(255,255,255)" fill-opacity="1.0" stroke="rgb(0,0,0)" stroke-width="2"  />
			<g>
				<title>ABC_tran (PF00005)
"ABC transporter"</title>
				<polygon class="PF00005" points="655,28 667,28 669,30 669,50 667,52 655,52" stroke-linejoin="round" width="14" height="24" fill="rgb(129,201,63)" stroke="rgb(103,160,50)" stroke-width="1" opacity="0.75" />
			</g>
		</g>
		<g>
			<title> (ctg22_61)</title>
			<polygon class=" (ctg22_61)" points="683,10 708,40 683,70" fill="rgb(255,255,255)" fill-opacity="1.0" stroke="rgb(0,0,0)" stroke-width="2"  />
		</g>
		<g>
			<title>allorf_52074_52241 (allorf_52074_52241)</title>
			<polygon class="allorf_52074_52241 (allorf_52074_52241)" points="719,10 724,40 719,70" fill="rgb(255,255,255)" fill-opacity="1.0" stroke="rgb(0,0,0)" stroke-width="2"  />
		</g>
		<g>
			<title> (ctg22_62)</title>
			<polygon class=" (ctg22_62)" points="729,10 758,40 729,70" fill="rgb(255,255,255)" fill-opacity="1.0" stroke="rgb(0,0,0)" stroke-width="2"  />
			<g>
				<title>DUF2599 (PF10783)
"Protein of unknown function (DUF2599)"</title>
				<polygon class="PF10783" points="748,34 754,40 748,46" stroke-linejoin="round" width="9" height="24" fill="rgb(89,119,204)" stroke="rgb(71,95,163)" stroke-width="1" opacity="0.75" />
			</g>
		</g>
		<g>
			<title> (ctg22_63)</title>
			<polygon class=" (ctg22_63)" points="804,10 819,40 804,70" fill="rgb(255,255,255)" fill-opacity="1.0" stroke="rgb(0,0,0)" stroke-width="2"  />
		</g>
		<g>
			<title> (ctg22_64)</title>
			<polygon class=" (ctg22_64)" points="830,40 839,10 839,70" fill="rgb(255,255,255)" fill-opacity="1.0" stroke="rgb(0,0,0)" stroke-width="2"  />
		</g>
		<g>
			<title> (ctg22_65)</title>
			<polygon class=" (ctg22_65)" points="843,40 847,10 847,70" fill="rgb(255,255,255)" fill-opacity="1.0" stroke="rgb(0,0,0)" stroke-width="2"  />
		</g>
		<g>
			<title> (ctg22_66)</title>
			<polygon class=" (ctg22_66)" points="851,10 861,40 851,70" fill="rgb(255,255,255)" fill-opacity="1.0" stroke="rgb(0,0,0)" stroke-width="2"  />
		</g>
		<g>
			<title> (ctg22_67)</title>
			<polygon class=" (ctg22_67)" points="872,10 889,40 872,70" fill="rgb(255,255,255)" fill-opacity="1.0" stroke="rgb(0,0,0)" stroke-width="2"  />
			<g>
				<title>DUF4352 (PF11611)
"Domain of unknown function (DUF4352)"</title>
				<polygon class="PF11611" points="876,28 878,28 885,40 878,52 876,52" stroke-linejoin="round" width="12" height="24" fill="rgb(71,97,207)" stroke="rgb(56,77,165)" stroke-width="1" opacity="0.75" />
			</g>
		</g>
		<g>
			<title> (ctg22_68)</title>
			<polygon class=" (ctg22_68)" points="906,40 915,10 915,70" fill="rgb(255,255,255)" fill-opacity="1.0" stroke="rgb(0,0,0)" stroke-width="2"  />
			<g>
				<title>HTH_5 (PF01022)
"Bacterial regulatory protein, arsR family"</title>
				<polygon class="PF01022" points="909,40 912,31 912,49" stroke-linejoin="round" width="4" height="24" fill="rgb(95,208,123)" stroke="rgb(76,166,98)" stroke-width="1" opacity="0.75" />
			</g>
		</g>
		<g>
			<title>allorf_58086_58217 (allorf_58086_58217)</title>
			<polygon class="allorf_58086_58217 (allorf_58086_58217)" points="920,10 924,40 920,70" fill="rgb(255,255,255)" fill-opacity="1.0" stroke="rgb(0,0,0)" stroke-width="2"  />
		</g>
		<g>
			<title> (ctg22_69)</title>
			<polygon class=" (ctg22_69)" points="928,40 933,10 933,70" fill="rgb(255,255,255)" fill-opacity="1.0" stroke="rgb(0,0,0)" stroke-width="2"  />
		</g>
	</g>
</svg>
