<svg version="1.1" baseProfile="full" xmlns="http://www.w3.org/2000/svg" width="1782.1" height="80">
	<g>
		<line x1="10" y1="40.0" x2="1772.1" y2="40.0" style="stroke:rgb(70,70,70); stroke-width:3 "/>
		<g>
			<title> (ctg5_197)</title>
			<polygon class=" (ctg5_197)" points="10,10 36,40 10,70" fill="rgb(255,255,255)" fill-opacity="1.0" stroke="rgb(0,0,0)" stroke-width="2"  />
			<g>
				<title>ABC_tran (PF00005)
"ABC transporter"</title>
				<polygon class="PF00005" points="13,28 21,28 28,35 28,45 21,52 13,52" stroke-linejoin="round" width="15" height="24" fill="rgb(129,201,63)" stroke="rgb(103,160,50)" stroke-width="1" opacity="0.75" />
			</g>
		</g>
		<g>
			<title> (ctg5_198)</title>
			<polygon class=" (ctg5_198)" points="37,25 49,25 49,10 79,40 49,70 49,55 37,55" fill="rgb(255,255,255)" fill-opacity="1.0" stroke="rgb(0,0,0)" stroke-width="2"  />
			<g>
				<title>Aminotran_5 (PF00266)
"Aminotransferase class-V"</title>
				<polygon class="PF00266" points="40,28 62,28 74,40 62,52 40,52" stroke-linejoin="round" width="37" height="24" fill="rgb(214,54,122)" stroke="rgb(171,43,97)" stroke-width="1" opacity="0.75" />
			</g>
		</g>
		<g>
			<title> (ctg5_199)</title>
			<polygon class=" (ctg5_199)" points="79,10 95,40 79,70" fill="rgb(255,255,255)" fill-opacity="1.0" stroke="rgb(0,0,0)" stroke-width="2"  />
			<g>
				<title>NifU_N (PF01592)
"NifU-like N terminal domain"</title>
				<polygon class="PF01592" points="79,28 85,28 91,38 91,42 85,52 79,52" stroke-linejoin="round" width="12" height="24" fill="rgb(109,58,209)" stroke="rgb(87,46,167)" stroke-width="1" opacity="0.75" />
			</g>
		</g>
		<g>
			<title> (ctg5_200)</title>
			<polygon class=" (ctg5_200)" points="96,10 110,40 96,70" fill="rgb(255,255,255)" fill-opacity="1.0" stroke="rgb(0,0,0)" stroke-width="2"  />
			<g>
				<title>FeS_assembly_P (PF01883)
"Iron-sulfur cluster assembly protein"</title>
				<polygon class="PF01883" points="100,28 100,28 106,40 100,52 100,52" stroke-linejoin="round" width="7" height="24" fill="rgb(171,209,57)" stroke="rgb(136,167,45)" stroke-width="1" opacity="0.75" />
			</g>
		</g>
		<g>
			<title> (ctg5_201)</title>
			<polygon class=" (ctg5_201)" points="119,25 121,25 121,10 151,40 121,70 121,55 119,55" fill="rgb(255,255,255)" fill-opacity="1.0" stroke="rgb(0,0,0)" stroke-width="2"  />
			<g>
				<title>UbiA (PF01040)
"UbiA prenyltransferase family"</title>
				<polygon class="PF01040" points="124,28 135,28 147,40 135,52 124,52" stroke-linejoin="round" width="25" height="24" fill="rgb(189,57,100)" stroke="rgb(151,45,80)" stroke-width="1" opacity="0.75" />
			</g>
		</g>
		<g>
			<title> (ctg5_202)</title>
			<polygon class=" (ctg5_202)" points="186,25 184,25 184,10 154,40 184,70 184,55 186,55" fill="rgb(255,255,255)" fill-opacity="1.0" stroke="rgb(0,0,0)" stroke-width="2"  />
			<g>
				<title>ADH_zinc_N (PF00107)
"Zinc-binding dehydrogenase"</title>
				<polygon class="PF00107" points="158,40 170,28 171,28 171,52 170,52 158,40" stroke-linejoin="round" width="13" height="24" fill="rgb(81,108,215)" stroke="rgb(64,86,172)" stroke-width="1" opacity="0.75" />
			</g>
			<g>
				<title>ADH_N (PF08240)
"Alcohol dehydrogenase GroES-like domain"</title>
				<rect class="PF08240" x="176" y="28" stroke-linejoin="round" width="6" height="24" fill="rgb(211,65,138)" stroke="rgb(168,51,110)" stroke-width="1" opacity="0.75" />
			</g>
		</g>
		<g>
			<title> (ctg5_203)</title>
			<polygon class=" (ctg5_203)" points="189,10 201,40 189,70" fill="rgb(255,255,255)" fill-opacity="1.0" stroke="rgb(0,0,0)" stroke-width="2"  />
		</g>
		<g>
			<title> (ctg5_204)</title>
			<polygon class=" (ctg5_204)" points="235,25 233,25 233,10 203,40 233,70 233,55 235,55" fill="rgb(255,255,255)" fill-opacity="1.0" stroke="rgb(0,0,0)" stroke-width="2"  />
			<g>
				<title>COX15-CtaA (PF02628)
"Cytochrome oxidase assembly protein"</title>
				<polygon class="PF02628" points="207,40 219,28 232,28 232,52 219,52" stroke-linejoin="round" width="27" height="24" fill="rgb(128,221,107)" stroke="rgb(102,176,85)" stroke-width="1" opacity="0.75" />
			</g>
		</g>
		<g>
			<title> (ctg5_205)</title>
			<polygon class=" (ctg5_205)" points="288,25 270,25 270,10 240,40 270,70 270,55 288,55" fill="rgb(255,255,255)" fill-opacity="1.0" stroke="rgb(0,0,0)" stroke-width="2"  />
		</g>
		<g>
			<title> (ctg5_206)</title>
			<polygon class=" (ctg5_206)" points="288,40 316,10 316,70" fill="rgb(255,255,255)" fill-opacity="1.0" stroke="rgb(0,0,0)" stroke-width="2"  />
			<g>
				<title>ABC2_membrane (PF01061)
"ABC-2 type transporter"</title>
				<polygon class="PF01061" points="292,40 303,28 310,28 310,52 303,52" stroke-linejoin="round" width="20" height="24" fill="rgb(139,217,106)" stroke="rgb(111,173,84)" stroke-width="1" opacity="0.75" />
			</g>
		</g>
		<g>
			<title> (ctg5_207)</title>
			<polygon class=" (ctg5_207)" points="348,25 347,25 347,10 317,40 347,70 347,55 348,55" fill="rgb(255,255,255)" fill-opacity="1.0" stroke="rgb(0,0,0)" stroke-width="2"  />
			<g>
				<title>ABC_tran (PF00005)
"ABC transporter"</title>
				<polygon class="PF00005" points="331,30 333,28 344,28 344,52 333,52 331,50" stroke-linejoin="round" width="13" height="24" fill="rgb(129,201,63)" stroke="rgb(103,160,50)" stroke-width="1" opacity="0.75" />
			</g>
		</g>
		<g>
			<title> (ctg5_208)</title>
			<polygon class=" (ctg5_208)" points="406,25 378,25 378,10 348,40 378,70 378,55 406,55" fill="rgb(255,255,255)" fill-opacity="1.0" stroke="rgb(0,0,0)" stroke-width="2"  />
		</g>
		<g>
			<title> (ctg5_209)</title>
			<polygon class=" (ctg5_209)" points="414,10 436,40 414,70" fill="rgb(255,255,255)" fill-opacity="1.0" stroke="rgb(0,0,0)" stroke-width="2"  />
			<g>
				<title>HTH_24 (PF13412)
"Winged helix-turn-helix DNA-binding"</title>
				<rect class="PF13412" x="414" y="28" stroke-linejoin="round" width="4" height="24" fill="rgb(222,79,68)" stroke="rgb(177,63,54)" stroke-width="1" opacity="0.75" />
			</g>
		</g>
		<g>
			<title> (ctg5_210)</title>
			<polygon class=" (ctg5_210)" points="441,25 459,25 459,10 489,40 459,70 459,55 441,55" fill="rgb(255,255,255)" fill-opacity="1.0" stroke="rgb(0,0,0)" stroke-width="2"  />
			<g>
				<title>SufBD_N (PF19295)
"SufBD protein N-terminal region"</title>
				<rect class="PF19295" x="453" y="28" stroke-linejoin="round" width="9" height="24" fill="rgb(88,86,218)" stroke="rgb(70,68,174)" stroke-width="1" opacity="0.75" />
			</g>
			<g>
				<title>SUFBD (PF01458)
"SUF system FeS cluster assembly, SufBD"</title>
				<polygon class="PF01458" points="464,28 473,28 485,40 473,52 464,52" stroke-linejoin="round" width="22" height="24" fill="rgb(57,65,214)" stroke="rgb(45,52,171)" stroke-width="1" opacity="0.75" />
			</g>
		</g>
		<g>
			<title> (ctg5_211)</title>
			<polygon class=" (ctg5_211)" points="490,25 500,25 500,10 530,40 500,70 500,55 490,55" fill="rgb(255,255,255)" fill-opacity="1.0" stroke="rgb(0,0,0)" stroke-width="2"  />
			<g>
				<title>SUFBD (PF01458)
"SUF system FeS cluster assembly, SufBD"</title>
				<polygon class="PF01458" points="504,28 514,28 526,40 526,40 514,52 504,52" stroke-linejoin="round" width="22" height="24" fill="rgb(57,65,214)" stroke="rgb(45,52,171)" stroke-width="1" opacity="0.75" />
			</g>
		</g>
		<g>
			<title> (ctg5_212)</title>
			<polygon class=" (ctg5_212)" points="532,10 558,40 532,70" fill="rgb(255,255,255)" fill-opacity="1.0" stroke="rgb(0,0,0)" stroke-width="2"  />
			<g>
				<title>ABC_tran (PF00005)
"ABC transporter"</title>
				<polygon class="PF00005" points="535,28 543,28 550,35 550,45 543,52 535,52" stroke-linejoin="round" width="15" height="24" fill="rgb(129,201,63)" stroke="rgb(103,160,50)" stroke-width="1" opacity="0.75" />
			</g>
		</g>
		<g>
			<title> (ctg5_213)</title>
			<polygon class=" (ctg5_213)" points="559,25 571,25 571,10 601,40 571,70 571,55 559,55" fill="rgb(255,255,255)" fill-opacity="1.0" stroke="rgb(0,0,0)" stroke-width="2"  />
			<g>
				<title>Aminotran_5 (PF00266)
"Aminotransferase class-V"</title>
				<polygon class="PF00266" points="562,28 584,28 596,40 584,52 562,52" stroke-linejoin="round" width="37" height="24" fill="rgb(214,54,122)" stroke="rgb(171,43,97)" stroke-width="1" opacity="0.75" />
			</g>
		</g>
		<g>
			<title> (ctg5_214)</title>
			<polygon class=" (ctg5_214)" points="602,10 618,40 602,70" fill="rgb(255,255,255)" fill-opacity="1.0" stroke="rgb(0,0,0)" stroke-width="2"  />
			<g>
				<title>NifU_N (PF01592)
"NifU-like N terminal domain"</title>
				<polygon class="PF01592" points="602,28 608,28 614,38 614,42 608,52 602,52" stroke-linejoin="round" width="12" height="24" fill="rgb(109,58,209)" stroke="rgb(87,46,167)" stroke-width="1" opacity="0.75" />
			</g>
		</g>
		<g>
			<title> (ctg5_215)</title>
			<polygon class=" (ctg5_215)" points="618,10 632,40 618,70" fill="rgb(255,255,255)" fill-opacity="1.0" stroke="rgb(0,0,0)" stroke-width="2"  />
			<g>
				<title>FeS_assembly_P (PF01883)
"Iron-sulfur cluster assembly protein"</title>
				<polygon class="PF01883" points="622,28 622,28 628,40 622,52 622,52" stroke-linejoin="round" width="7" height="24" fill="rgb(171,209,57)" stroke="rgb(136,167,45)" stroke-width="1" opacity="0.75" />
			</g>
		</g>
		<g>
			<title> (ctg5_216)</title>
			<polygon class=" (ctg5_216)" points="644,25 1090,25 1090,10 1120,40 1090,70 1090,55 644,55" fill="rgb(255,255,255)" fill-opacity="1.0" stroke="rgb(0,0,0)" stroke-width="2"  />
			<g>
				<title>Condensation (PF00668)
"Condensation domain"</title>
				<rect class="PF00668" x="645" y="28" stroke-linejoin="round" width="42" height="24" fill="rgb(224,184,98)" stroke="rgb(179,147,78)" stroke-width="1" opacity="0.75" />
			</g>
			<g>
				<title>Condensation (PF00668)
"Condensation domain"</title>
				<rect class="PF00668" x="689" y="28" stroke-linejoin="round" width="17" height="24" fill="rgb(224,184,98)" stroke="rgb(179,147,78)" stroke-width="1" opacity="0.75" />
			</g>
			<g>
				<title>AMP-binding (PF00501)
"AMP-binding enzyme"</title>
				<rect class="PF00501" x="717" y="28" stroke-linejoin="round" width="41" height="24" fill="rgb(60,217,223)" stroke="rgb(48,173,178)" stroke-width="1" opacity="0.75" />
			</g>
			<g>
				<title>AMP-binding_C (PF13193)
"AMP-binding enzyme C-terminal domain"</title>
				<rect class="PF13193" x="759" y="28" stroke-linejoin="round" width="7" height="24" fill="rgb(182,50,118)" stroke="rgb(145,39,94)" stroke-width="1" opacity="0.75" />
			</g>
			<g>
				<title>PP-binding (PF00550)
"Phosphopantetheine attachment site"</title>
				<rect class="PF00550" x="769" y="28" stroke-linejoin="round" width="6" height="24" fill="rgb(103,191,88)" stroke="rgb(82,152,70)" stroke-width="1" opacity="0.75" />
			</g>
			<g>
				<title>Condensation (PF00668)
"Condensation domain"</title>
				<rect class="PF00668" x="777" y="28" stroke-linejoin="round" width="45" height="24" fill="rgb(224,184,98)" stroke="rgb(179,147,78)" stroke-width="1" opacity="0.75" />
			</g>
			<g>
				<title>AMP-binding (PF00501)
"AMP-binding enzyme"</title>
				<rect class="PF00501" x="824" y="28" stroke-linejoin="round" width="39" height="24" fill="rgb(60,217,223)" stroke="rgb(48,173,178)" stroke-width="1" opacity="0.75" />
			</g>
			<g>
				<title>PP-binding (PF00550)
"Phosphopantetheine attachment site"</title>
				<rect class="PF00550" x="875" y="28" stroke-linejoin="round" width="6" height="24" fill="rgb(103,191,88)" stroke="rgb(82,152,70)" stroke-width="1" opacity="0.75" />
			</g>
			<g>
				<title>Condensation (PF00668)
"Condensation domain"</title>
				<rect class="PF00668" x="883" y="28" stroke-linejoin="round" width="45" height="24" fill="rgb(224,184,98)" stroke="rgb(179,147,78)" stroke-width="1" opacity="0.75" />
			</g>
			<g>
				<title>AMP-binding (PF00501)
"AMP-binding enzyme"</title>
				<rect class="PF00501" x="930" y="28" stroke-linejoin="round" width="38" height="24" fill="rgb(60,217,223)" stroke="rgb(48,173,178)" stroke-width="1" opacity="0.75" />
			</g>
			<g>
				<title>AMP-binding_C (PF13193)
"AMP-binding enzyme C-terminal domain"</title>
				<rect class="PF13193" x="969" y="28" stroke-linejoin="round" width="7" height="24" fill="rgb(182,50,118)" stroke="rgb(145,39,94)" stroke-width="1" opacity="0.75" />
			</g>
			<g>
				<title>PP-binding (PF00550)
"Phosphopantetheine attachment site"</title>
				<rect class="PF00550" x="980" y="28" stroke-linejoin="round" width="6" height="24" fill="rgb(103,191,88)" stroke="rgb(82,152,70)" stroke-width="1" opacity="0.75" />
			</g>
			<g>
				<title>Condensation (PF00668)
"Condensation domain"</title>
				<rect class="PF00668" x="988" y="28" stroke-linejoin="round" width="44" height="24" fill="rgb(224,184,98)" stroke="rgb(179,147,78)" stroke-width="1" opacity="0.75" />
			</g>
			<g>
				<title>AMP-binding (PF00501)
"AMP-binding enzyme"</title>
				<rect class="PF00501" x="1034" y="28" stroke-linejoin="round" width="39" height="24" fill="rgb(60,217,223)" stroke="rgb(48,173,178)" stroke-width="1" opacity="0.75" />
			</g>
			<g>
				<title>AMP-binding_C (PF13193)
"AMP-binding enzyme C-terminal domain"</title>
				<rect class="PF13193" x="1074" y="28" stroke-linejoin="round" width="7" height="24" fill="rgb(182,50,118)" stroke="rgb(145,39,94)" stroke-width="1" opacity="0.75" />
			</g>
			<g>
				<title>PP-binding (PF00550)
"Phosphopantetheine attachment site"</title>
				<rect class="PF00550" x="1084" y="28" stroke-linejoin="round" width="6" height="24" fill="rgb(103,191,88)" stroke="rgb(82,152,70)" stroke-width="1" opacity="0.75" />
			</g>
			<g>
				<title>Thioesterase (PF00975)
"Thioesterase domain"</title>
				<polygon class="PF00975" points="1093,28 1103,28 1115,40 1103,52 1093,52" stroke-linejoin="round" width="23" height="24" fill="rgb(207,80,138)" stroke="rgb(165,63,110)" stroke-width="1" opacity="0.75" />
			</g>
		</g>
		<g>
			<title> (ctg5_217)</title>
			<polygon class=" (ctg5_217)" points="1120,40 1148,10 1148,70" fill="rgb(255,255,255)" fill-opacity="1.0" stroke="rgb(0,0,0)" stroke-width="2"  />
			<g>
				<title>Ku (PF02735)
"Ku70/Ku80 beta-barrel domain"</title>
				<polygon class="PF02735" points="1128,36 1135,28 1146,28 1146,52 1135,52 1128,44" stroke-linejoin="round" width="18" height="24" fill="rgb(188,110,60)" stroke="rgb(150,88,48)" stroke-width="1" opacity="0.75" />
			</g>
		</g>
		<g>
			<title> (ctg5_218)</title>
			<polygon class=" (ctg5_218)" points="1153,25 1155,25 1155,10 1185,40 1155,70 1155,55 1153,55" fill="rgb(255,255,255)" fill-opacity="1.0" stroke="rgb(0,0,0)" stroke-width="2"  />
			<g>
				<title>Esterase (PF00756)
"Putative esterase"</title>
				<polygon class="PF00756" points="1157,28 1169,28 1181,40 1169,52 1157,52" stroke-linejoin="round" width="27" height="24" fill="rgb(217,132,77)" stroke="rgb(173,105,61)" stroke-width="1" opacity="0.75" />
			</g>
		</g>
		<g>
			<title> (ctg5_219)</title>
			<polygon class=" (ctg5_219)" points="1186,40 1211,10 1211,70" fill="rgb(255,255,255)" fill-opacity="1.0" stroke="rgb(0,0,0)" stroke-width="2"  />
			<g>
				<title>Lycopene_cycl (PF05834)
"Lycopene cyclase protein"</title>
				<polygon class="PF05834" points="1190,40 1200,28 1211,28 1211,52 1200,52" stroke-linejoin="round" width="24" height="24" fill="rgb(212,80,200)" stroke="rgb(169,64,160)" stroke-width="1" opacity="0.75" />
			</g>
		</g>
		<g>
			<title> (ctg5_220)</title>
			<polygon class=" (ctg5_220)" points="1224,40 1250,10 1250,70" fill="rgb(255,255,255)" fill-opacity="1.0" stroke="rgb(0,0,0)" stroke-width="2"  />
			<g>
				<title>adh_short_C2 (PF13561)
"Enoyl-(Acyl carrier protein) reductase"</title>
				<polygon class="PF13561" points="1228,40 1238,28 1247,28 1247,52 1238,52" stroke-linejoin="round" width="23" height="24" fill="rgb(73,205,127)" stroke="rgb(58,164,101)" stroke-width="1" opacity="0.75" />
			</g>
		</g>
		<g>
			<title> (ctg5_221)</title>
			<polygon class=" (ctg5_221)" points="1254,25 1278,25 1278,10 1308,40 1278,70 1278,55 1254,55" fill="rgb(255,255,255)" fill-opacity="1.0" stroke="rgb(0,0,0)" stroke-width="2"  />
			<g>
				<title>ABC_tran (PF00005)
"ABC transporter"</title>
				<rect class="PF00005" x="1256" y="28" stroke-linejoin="round" width="17" height="24" fill="rgb(129,201,63)" stroke="rgb(103,160,50)" stroke-width="1" opacity="0.75" />
			</g>
			<g>
				<title>ABC_tran_Xtn (PF12848)
"ABC transporter"</title>
				<rect class="PF12848" x="1277" y="28" stroke-linejoin="round" width="8" height="24" fill="rgb(54,177,199)" stroke="rgb(43,141,159)" stroke-width="1" opacity="0.75" />
			</g>
			<g>
				<title>ABC_tran (PF00005)
"ABC transporter"</title>
				<polygon class="PF00005" points="1289,28 1292,28 1302,38 1302,42 1292,52 1289,52" stroke-linejoin="round" width="13" height="24" fill="rgb(129,201,63)" stroke="rgb(103,160,50)" stroke-width="1" opacity="0.75" />
			</g>
		</g>
		<g>
			<title> (ctg5_222)</title>
			<polygon class=" (ctg5_222)" points="1311,40 1329,10 1329,70" fill="rgb(255,255,255)" fill-opacity="1.0" stroke="rgb(0,0,0)" stroke-width="2"  />
			<g>
				<title>TetR_N (PF00440)
"Bacterial regulatory proteins, tetR family"</title>
				<polygon class="PF00440" points="1323,27 1323,28 1327,28 1327,52 1323,52 1323,53" stroke-linejoin="round" width="4" height="24" fill="rgb(73,212,190)" stroke="rgb(58,169,152)" stroke-width="1" opacity="0.75" />
			</g>
		</g>
		<g>
			<title> (ctg5_223)</title>
			<polygon class=" (ctg5_223)" points="1429,25 1366,25 1366,10 1336,40 1366,70 1366,55 1429,55" fill="rgb(255,255,255)" fill-opacity="1.0" stroke="rgb(0,0,0)" stroke-width="2"  />
			<g>
				<title>Aconitase_C (PF00694)
"Aconitase C-terminal domain"</title>
				<polygon class="PF00694" points="1343,37 1352,28 1356,28 1356,52 1352,52 1343,43" stroke-linejoin="round" width="13" height="24" fill="rgb(63,185,92)" stroke="rgb(50,148,73)" stroke-width="1" opacity="0.75" />
			</g>
			<g>
				<title>Aconitase (PF00330)
"Aconitase family (aconitate hydratase)"</title>
				<rect class="PF00330" x="1369" y="28" stroke-linejoin="round" width="54" height="24" fill="rgb(180,189,85)" stroke="rgb(144,151,68)" stroke-width="1" opacity="0.75" />
			</g>
		</g>
		<g>
			<title> (ctg5_224)</title>
			<polygon class=" (ctg5_224)" points="1444,10 1463,40 1444,70" fill="rgb(255,255,255)" fill-opacity="1.0" stroke="rgb(0,0,0)" stroke-width="2"  />
			<g>
				<title>DUF6676 (PF20381)
"Family of unknown function (DUF6676)"</title>
				<polygon class="PF20381" points="1445,28 1452,28 1460,40 1452,52 1445,52" stroke-linejoin="round" width="16" height="24" fill="rgb(63,195,112)" stroke="rgb(50,156,89)" stroke-width="1" opacity="0.75" />
			</g>
		</g>
		<g>
			<title> (ctg5_225)</title>
			<polygon class=" (ctg5_225)" points="1479,25 1500,25 1500,10 1530,40 1500,70 1500,55 1479,55" fill="rgb(255,255,255)" fill-opacity="1.0" stroke="rgb(0,0,0)" stroke-width="2"  />
			<g>
				<title>NLPC_P60 (PF00877)
"NlpC/P60 family"</title>
				<polygon class="PF00877" points="1518,32 1526,40 1518,48" stroke-linejoin="round" width="12" height="24" fill="rgb(187,86,137)" stroke="rgb(149,68,109)" stroke-width="1" opacity="0.75" />
			</g>
		</g>
		<g>
			<title> (ctg5_226)</title>
			<polygon class=" (ctg5_226)" points="1536,25 1545,25 1545,10 1575,40 1545,70 1545,55 1536,55" fill="rgb(255,255,255)" fill-opacity="1.0" stroke="rgb(0,0,0)" stroke-width="2"  />
			<g>
				<title>AAA_3 (PF07726)
"ATPase family associated with various cellular activities (AAA)"</title>
				<rect class="PF07726" x="1542" y="28" stroke-linejoin="round" width="13" height="24" fill="rgb(225,222,92)" stroke="rgb(180,177,73)" stroke-width="1" opacity="0.75" />
			</g>
			<g>
				<title>AAA_lid_2 (PF17863)
"AAA lid domain"</title>
				<polygon class="PF17863" points="1562,31 1569,38 1569,42 1562,49" stroke-linejoin="round" width="7" height="24" fill="rgb(58,87,190)" stroke="rgb(46,69,152)" stroke-width="1" opacity="0.75" />
			</g>
		</g>
		<g>
			<title> (ctg5_227)</title>
			<polygon class=" (ctg5_227)" points="1575,25 1578,25 1578,10 1608,40 1578,70 1578,55 1575,55" fill="rgb(255,255,255)" fill-opacity="1.0" stroke="rgb(0,0,0)" stroke-width="2"  />
			<g>
				<title>DUF58 (PF01882)
"Protein of unknown function DUF58"</title>
				<rect class="PF01882" x="1581" y="28" stroke-linejoin="round" width="8" height="24" fill="rgb(190,218,84)" stroke="rgb(152,174,67)" stroke-width="1" opacity="0.75" />
			</g>
		</g>
		<g>
			<title> (ctg5_228)</title>
			<polygon class=" (ctg5_228)" points="1608,25 1610,25 1610,10 1640,40 1610,70 1610,55 1608,55" fill="rgb(255,255,255)" fill-opacity="1.0" stroke="rgb(0,0,0)" stroke-width="2"  />
			<g>
				<title>BatA (PF07584)
"Aerotolerance regulator N-terminal"</title>
				<rect class="PF07584" x="1608" y="28" stroke-linejoin="round" width="7" height="24" fill="rgb(211,95,141)" stroke="rgb(168,76,112)" stroke-width="1" opacity="0.75" />
			</g>
			<g>
				<title>VWA_2 (PF13519)
"von Willebrand factor type A domain"</title>
				<polygon class="PF13519" points="1617,28 1624,28 1628,32 1628,48 1624,52 1617,52" stroke-linejoin="round" width="11" height="24" fill="rgb(58,213,93)" stroke="rgb(46,170,74)" stroke-width="1" opacity="0.75" />
			</g>
		</g>
		<g>
			<title> (ctg5_229)</title>
			<polygon class=" (ctg5_229)" points="1643,10 1668,40 1643,70" fill="rgb(255,255,255)" fill-opacity="1.0" stroke="rgb(0,0,0)" stroke-width="2"  />
			<g>
				<title>adh_short_C2 (PF13561)
"Enoyl-(Acyl carrier protein) reductase"</title>
				<polygon class="PF13561" points="1645,28 1654,28 1664,40 1654,52 1645,52" stroke-linejoin="round" width="22" height="24" fill="rgb(73,205,127)" stroke="rgb(58,164,101)" stroke-width="1" opacity="0.75" />
			</g>
		</g>
		<g>
			<title> (ctg5_230)</title>
			<polygon class=" (ctg5_230)" points="1670,10 1696,40 1670,70" fill="rgb(255,255,255)" fill-opacity="1.0" stroke="rgb(0,0,0)" stroke-width="2"  />
			<g>
				<title>adh_short_C2 (PF13561)
"Enoyl-(Acyl carrier protein) reductase"</title>
				<polygon class="PF13561" points="1671,28 1681,28 1692,40 1681,52 1671,52" stroke-linejoin="round" width="24" height="24" fill="rgb(73,205,127)" stroke="rgb(58,164,101)" stroke-width="1" opacity="0.75" />
			</g>
		</g>
		<g>
			<title> (ctg5_231)</title>
			<polygon class=" (ctg5_231)" points="1699,25 1704,25 1704,10 1734,40 1704,70 1704,55 1699,55" fill="rgb(255,255,255)" fill-opacity="1.0" stroke="rgb(0,0,0)" stroke-width="2"  />
			<g>
				<title>Ferrochelatase (PF00762)
"Ferrochelatase"</title>
				<polygon class="PF00762" points="1699,28 1718,28 1730,40 1730,40 1718,52 1699,52" stroke-linejoin="round" width="31" height="24" fill="rgb(46,104,183)" stroke="rgb(36,83,146)" stroke-width="1" opacity="0.75" />
			</g>
		</g>
		<g>
			<title> (ctg5_232)</title>
			<polygon class=" (ctg5_232)" points="1735,40 1755,10 1755,70" fill="rgb(255,255,255)" fill-opacity="1.0" stroke="rgb(0,0,0)" stroke-width="2"  />
		</g>
		<g>
			<title> (ctg5_233)</title>
			<polygon class=" (ctg5_233)" points="1759,40 1771,10 1771,70" fill="rgb(255,255,255)" fill-opacity="1.0" stroke="rgb(0,0,0)" stroke-width="2"  />
			<g>
				<title>Zincin_1 (PF06262)
"Zincin-like metallopeptidase"</title>
				<polygon class="PF06262" points="1762,40 1767,28 1767,28 1767,52 1767,52" stroke-linejoin="round" width="8" height="24" fill="rgb(154,72,215)" stroke="rgb(123,57,172)" stroke-width="1" opacity="0.75" />
			</g>
		</g>
	</g>
</svg>
