<svg version="1.1" baseProfile="full" xmlns="http://www.w3.org/2000/svg" width="382.6333333333333" height="80">
	<g>
		<line x1="10" y1="40.0" x2="372.6333333333333" y2="40.0" style="stroke:rgb(70,70,70); stroke-width:3 "/>
		<g>
			<title> (ctg3_144)</title>
			<polygon class=" (ctg3_144)" points="54,40 76,10 76,70" fill="rgb(255,255,255)" fill-opacity="1.0" stroke="rgb(0,0,0)" stroke-width="2"  />
		</g>
		<g>
			<title> (ctg3_145)</title>
			<polygon class=" (ctg3_145)" points="79,40 99,10 99,70" fill="rgb(255,255,255)" fill-opacity="1.0" stroke="rgb(0,0,0)" stroke-width="2"  />
			<g>
				<title>adh_short_C2 (PF13561)
"Enoyl-(Acyl carrier protein) reductase"</title>
				<polygon class="PF13561" points="83,40 91,28 97,28 97,52 91,52" stroke-linejoin="round" width="17" height="24" fill="rgb(73,205,127)" stroke="rgb(58,164,101)" stroke-width="1" opacity="0.75" />
			</g>
		</g>
		<g>
			<title> (ctg3_146)</title>
			<polygon class=" (ctg3_146)" points="104,25 104,25 104,10 134,40 104,70 104,55 104,55" fill="rgb(255,255,255)" fill-opacity="1.0" stroke="rgb(0,0,0)" stroke-width="2"  />
			<g>
				<title>HTH_1 (PF00126)
"Bacterial regulatory helix-turn-helix protein, lysR family"</title>
				<rect class="PF00126" x="104" y="28" stroke-linejoin="round" width="5" height="24" fill="rgb(125,227,79)" stroke="rgb(99,181,63)" stroke-width="1" opacity="0.75" />
			</g>
			<g>
				<title>LysR_substrate (PF03466)
"LysR substrate binding domain"</title>
				<polygon class="PF03466" points="112,28 118,28 130,40 118,52 112,52" stroke-linejoin="round" width="20" height="24" fill="rgb(55,136,195)" stroke="rgb(44,108,156)" stroke-width="1" opacity="0.75" />
			</g>
		</g>
		<g>
			<title> (ctg3_147)</title>
			<polygon class=" (ctg3_147)" points="134,40 150,10 150,70" fill="rgb(255,255,255)" fill-opacity="1.0" stroke="rgb(0,0,0)" stroke-width="2"  />
			<g>
				<title>DoxX (PF07681)
"DoxX"</title>
				<polygon class="PF07681" points="137,40 143,28 147,28 147,52 143,52 137,40" stroke-linejoin="round" width="10" height="24" fill="rgb(93,188,216)" stroke="rgb(74,150,172)" stroke-width="1" opacity="0.75" />
			</g>
		</g>
		<g>
			<title> (ctg3_148)</title>
			<polygon class=" (ctg3_148)" points="150,40 175,10 175,70" fill="rgb(255,255,255)" fill-opacity="1.0" stroke="rgb(0,0,0)" stroke-width="2"  />
			<g>
				<title>DUF2063 (PF09836)
"Putative DNA-binding domain"</title>
				<rect class="PF09836" x="166" y="28" stroke-linejoin="round" width="9" height="24" fill="rgb(88,194,190)" stroke="rgb(70,155,152)" stroke-width="1" opacity="0.75" />
			</g>
		</g>
		<g>
			<title> (ctg3_149)</title>
			<polygon class=" (ctg3_149)" points="176,40 205,10 205,70" fill="rgb(255,255,255)" fill-opacity="1.0" stroke="rgb(0,0,0)" stroke-width="2"  />
			<g>
				<title>DUF692 (PF05114)
"Protein of unknown function (DUF692)"</title>
				<polygon class="PF05114" points="180,40 192,28 202,28 202,52 192,52" stroke-linejoin="round" width="26" height="24" fill="rgb(63,196,127)" stroke="rgb(50,156,101)" stroke-width="1" opacity="0.75" />
			</g>
		</g>
		<g>
			<title> (ctg3_150)</title>
			<polygon class=" (ctg3_150)" points="206,40 215,10 215,70" fill="rgb(255,255,255)" fill-opacity="1.0" stroke="rgb(0,0,0)" stroke-width="2"  />
			<g>
				<title>DUF2282 (PF10048)
"Predicted integral membrane protein (DUF2282)"</title>
				<polygon class="PF10048" points="209,40 212,31 212,49" stroke-linejoin="round" width="5" height="24" fill="rgb(58,205,168)" stroke="rgb(46,164,134)" stroke-width="1" opacity="0.75" />
			</g>
		</g>
		<g>
			<title> (ctg3_151)</title>
			<polygon class=" (ctg3_151)" points="225,40 248,10 248,70" fill="rgb(255,255,255)" fill-opacity="1.0" stroke="rgb(0,0,0)" stroke-width="2"  />
			<g>
				<title>ABC_tran (PF00005)
"ABC transporter"</title>
				<polygon class="PF00005" points="232,36 238,28 246,28 246,52 238,52 232,44" stroke-linejoin="round" width="14" height="24" fill="rgb(129,201,63)" stroke="rgb(103,160,50)" stroke-width="1" opacity="0.75" />
			</g>
		</g>
		<g>
			<title> (ctg3_152)</title>
			<polygon class=" (ctg3_152)" points="248,40 273,10 273,70" fill="rgb(255,255,255)" fill-opacity="1.0" stroke="rgb(0,0,0)" stroke-width="2"  />
			<g>
				<title>BCA_ABC_TP_C (PF12399)
"Branched-chain amino acid ATP-binding cassette transporter"</title>
				<polygon class="PF12399" points="252,40 250,42 250,38" stroke-linejoin="round" width="2" height="24" fill="rgb(205,68,53)" stroke="rgb(164,54,42)" stroke-width="1" opacity="0.75" />
			</g>
			<g>
				<title>ABC_tran (PF00005)
"ABC transporter"</title>
				<polygon class="PF00005" points="255,36 262,28 271,28 271,52 262,52 255,44" stroke-linejoin="round" width="16" height="24" fill="rgb(129,201,63)" stroke="rgb(103,160,50)" stroke-width="1" opacity="0.75" />
			</g>
		</g>
		<g>
			<title> (ctg3_153)</title>
			<polygon class=" (ctg3_153)" points="315,25 304,25 304,10 274,40 304,70 304,55 315,55" fill="rgb(255,255,255)" fill-opacity="1.0" stroke="rgb(0,0,0)" stroke-width="2"  />
			<g>
				<title>BPD_transp_2 (PF02653)
"Branched-chain amino acid transport system / permease component"</title>
				<polygon class="PF02653" points="278,40 290,28 304,28 304,52 290,52" stroke-linejoin="round" width="28" height="24" fill="rgb(69,130,196)" stroke="rgb(55,104,156)" stroke-width="1" opacity="0.75" />
			</g>
			<g>
				<title>DUF3382 (PF11862)
"Domain of unknown function (DUF3382)"</title>
				<rect class="PF11862" x="305" y="28" stroke-linejoin="round" width="10" height="24" fill="rgb(186,152,63)" stroke="rgb(148,121,50)" stroke-width="1" opacity="0.75" />
			</g>
		</g>
		<g>
			<title> (ctg3_154)</title>
			<polygon class=" (ctg3_154)" points="345,25 345,25 345,10 315,40 345,70 345,55 345,55" fill="rgb(255,255,255)" fill-opacity="1.0" stroke="rgb(0,0,0)" stroke-width="2"  />
			<g>
				<title>BPD_transp_2 (PF02653)
"Branched-chain amino acid transport system / permease component"</title>
				<polygon class="PF02653" points="319,40 331,28 344,28 344,52 331,52" stroke-linejoin="round" width="28" height="24" fill="rgb(69,130,196)" stroke="rgb(55,104,156)" stroke-width="1" opacity="0.75" />
			</g>
		</g>
	</g>
</svg>
