<svg version="1.1" baseProfile="full" xmlns="http://www.w3.org/2000/svg" width="364.3333333333333" height="80">
	<g>
		<line x1="10" y1="40.0" x2="354.3333333333333" y2="40.0" style="stroke:rgb(70,70,70); stroke-width:3 "/>
		<g>
			<title> (ctg15_60)</title>
			<polygon class=" (ctg15_60)" points="21,40 46,10 46,70" fill="rgb(255,255,255)" fill-opacity="1.0" stroke="rgb(0,0,0)" stroke-width="2"  />
			<g>
				<title>DUF3959 (PF13105)
"Protein of unknown function (DUF3959)"</title>
				<polygon class="PF13105" points="25,40 35,28 45,28 45,52 35,52" stroke-linejoin="round" width="24" height="24" fill="rgb(80,78,207)" stroke="rgb(64,62,165)" stroke-width="1" opacity="0.75" />
			</g>
		</g>
		<g>
			<title> (ctg15_61)</title>
			<polygon class=" (ctg15_61)" points="133,25 84,25 84,10 54,40 84,70 84,55 133,55" fill="rgb(255,255,255)" fill-opacity="1.0" stroke="rgb(0,0,0)" stroke-width="2"  />
			<g>
				<title>RNaseH_pPIWI_RE (PF13032)
"RNaseH domain of pPIWI_RE"</title>
				<polygon class="PF13032" points="62,36 70,28 79,28 79,52 70,52 62,44" stroke-linejoin="round" width="17" height="24" fill="rgb(95,210,207)" stroke="rgb(76,168,165)" stroke-width="1" opacity="0.75" />
			</g>
			<g>
				<title>MID_pPIWI_RE (PF18157)
"MID domain of pPIWI_RE"</title>
				<rect class="PF18157" x="81" y="28" stroke-linejoin="round" width="11" height="24" fill="rgb(216,220,98)" stroke="rgb(172,176,78)" stroke-width="1" opacity="0.75" />
			</g>
			<g>
				<title>pPIWI_RE_X (PF13111)
"pPIWI_RE module N-terminal domain"</title>
				<rect class="PF13111" x="96" y="28" stroke-linejoin="round" width="35" height="24" fill="rgb(146,74,184)" stroke="rgb(116,59,147)" stroke-width="1" opacity="0.75" />
			</g>
		</g>
		<g>
			<title> (ctg15_62)</title>
			<polygon class=" (ctg15_62)" points="144,40 160,10 160,70" fill="rgb(255,255,255)" fill-opacity="1.0" stroke="rgb(0,0,0)" stroke-width="2"  />
		</g>
		<g>
			<title> (ctg15_63)</title>
			<polygon class=" (ctg15_63)" points="176,40 187,10 187,70" fill="rgb(255,255,255)" fill-opacity="1.0" stroke="rgb(0,0,0)" stroke-width="2"  />
		</g>
		<g>
			<title> (ctg15_64)</title>
			<polygon class=" (ctg15_64)" points="202,40 210,10 210,70" fill="rgb(255,255,255)" fill-opacity="1.0" stroke="rgb(0,0,0)" stroke-width="2"  />
			<g>
				<title>DUF3937 (PF13073)
"Protein of unknown function (DUF3937)"</title>
				<polygon class="PF13073" points="205,40 209,28 209,28 209,52 209,52" stroke-linejoin="round" width="7" height="24" fill="rgb(221,84,154)" stroke="rgb(176,67,123)" stroke-width="1" opacity="0.75" />
			</g>
		</g>
		<g>
			<title> (ctg15_65)</title>
			<polygon class=" (ctg15_65)" points="224,40 247,10 247,70" fill="rgb(255,255,255)" fill-opacity="1.0" stroke="rgb(0,0,0)" stroke-width="2"  />
			<g>
				<title>TENA_THI-4 (PF03070)
"TENA/THI-4/PQQC family"</title>
				<polygon class="PF03070" points="228,40 237,28 245,28 245,52 237,52" stroke-linejoin="round" width="20" height="24" fill="rgb(95,149,219)" stroke="rgb(76,119,175)" stroke-width="1" opacity="0.75" />
			</g>
		</g>
		<g>
			<title> (ctg15_66)</title>
			<polygon class=" (ctg15_66)" points="288,25 288,25 288,10 258,40 288,70 288,55 288,55" fill="rgb(255,255,255)" fill-opacity="1.0" stroke="rgb(0,0,0)" stroke-width="2"  />
			<g>
				<title>Dala_Dala_lig_C (PF07478)
"D-ala D-ala ligase C-terminus"</title>
				<polygon class="PF07478" points="262,40 274,28 278,28 278,52 274,52" stroke-linejoin="round" width="19" height="24" fill="rgb(202,54,160)" stroke="rgb(161,43,127)" stroke-width="1" opacity="0.75" />
			</g>
			<g>
				<title>Dala_Dala_lig_N (PF01820)
"D-ala D-ala ligase N-terminus"</title>
				<rect class="PF01820" x="280" y="28" stroke-linejoin="round" width="8" height="24" fill="rgb(55,160,179)" stroke="rgb(44,127,143)" stroke-width="1" opacity="0.75" />
			</g>
		</g>
		<g>
			<title> (ctg15_67)</title>
			<polygon class=" (ctg15_67)" points="336,25 318,25 318,10 288,40 318,70 318,55 336,55" fill="rgb(255,255,255)" fill-opacity="1.0" stroke="rgb(0,0,0)" stroke-width="2"  />
			<g>
				<title>Aminotran_1_2 (PF00155)
"Aminotransferase class I and II"</title>
				<polygon class="PF00155" points="292,40 304,28 324,28 324,52 304,52" stroke-linejoin="round" width="35" height="24" fill="rgb(89,113,198)" stroke="rgb(71,90,158)" stroke-width="1" opacity="0.75" />
			</g>
			<g>
				<title>GntR (PF00392)
"Bacterial regulatory proteins, gntR family"</title>
				<rect class="PF00392" x="328" y="28" stroke-linejoin="round" width="6" height="24" fill="rgb(160,85,194)" stroke="rgb(127,68,155)" stroke-width="1" opacity="0.75" />
			</g>
		</g>
	</g>
</svg>
