<svg version="1.1" baseProfile="full" xmlns="http://www.w3.org/2000/svg" width="715.7666666666667" height="80">
	<g>
		<line x1="10" y1="40.0" x2="705.7666666666667" y2="40.0" style="stroke:rgb(70,70,70); stroke-width:3 "/>
		<g>
			<title> (ctg3_237)</title>
			<polygon class=" (ctg3_237)" points="56,40 76,10 76,70" fill="rgb(255,255,255)" fill-opacity="1.0" stroke="rgb(0,0,0)" stroke-width="2"  />
			<g>
				<title>SUKH-4 (PF14435)
"SUKH-4 immunity protein"</title>
				<polygon class="PF14435" points="60,40 68,28 75,28 75,52 68,52" stroke-linejoin="round" width="19" height="24" fill="rgb(62,89,208)" stroke="rgb(49,71,166)" stroke-width="1" opacity="0.75" />
			</g>
		</g>
		<g>
			<title> (ctg3_238)</title>
			<polygon class=" (ctg3_238)" points="120,25 114,25 114,10 84,40 114,70 114,55 120,55" fill="rgb(255,255,255)" fill-opacity="1.0" stroke="rgb(0,0,0)" stroke-width="2"  />
			<g>
				<title>YchF-GTPase_C (PF06071)
"Protein of unknown function (DUF933)"</title>
				<polygon class="PF06071" points="88,40 92,36 92,44" stroke-linejoin="round" width="8" height="24" fill="rgb(74,145,213)" stroke="rgb(59,115,170)" stroke-width="1" opacity="0.75" />
			</g>
			<g>
				<title>MMR_HSR1 (PF01926)
"50S ribosome-binding GTPase"</title>
				<rect class="PF01926" x="104" y="28" stroke-linejoin="round" width="16" height="24" fill="rgb(105,180,226)" stroke="rgb(83,143,180)" stroke-width="1" opacity="0.75" />
			</g>
		</g>
		<g>
			<title> (ctg3_239)</title>
			<polygon class=" (ctg3_239)" points="124,40 139,10 139,70" fill="rgb(255,255,255)" fill-opacity="1.0" stroke="rgb(0,0,0)" stroke-width="2"  />
			<g>
				<title>Acetyltransf_1 (PF00583)
"Acetyltransferase (GNAT) family"</title>
				<polygon class="PF00583" points="127,40 133,28 137,28 137,52 133,52" stroke-linejoin="round" width="12" height="24" fill="rgb(121,183,50)" stroke="rgb(96,146,39)" stroke-width="1" opacity="0.75" />
			</g>
		</g>
		<g>
			<title> (ctg3_240)</title>
			<polygon class=" (ctg3_240)" points="145,10 159,40 145,70" fill="rgb(255,255,255)" fill-opacity="1.0" stroke="rgb(0,0,0)" stroke-width="2"  />
		</g>
		<g>
			<title> (ctg3_241)</title>
			<polygon class=" (ctg3_241)" points="197,25 192,25 192,10 162,40 192,70 192,55 197,55" fill="rgb(255,255,255)" fill-opacity="1.0" stroke="rgb(0,0,0)" stroke-width="2"  />
			<g>
				<title>FMN_dh (PF01070)
"FMN-dependent dehydrogenase"</title>
				<polygon class="PF01070" points="166,40 178,28 182,28 182,52 178,52" stroke-linejoin="round" width="20" height="24" fill="rgb(59,82,204)" stroke="rgb(47,65,163)" stroke-width="1" opacity="0.75" />
			</g>
		</g>
		<g>
			<title> (ctg3_242)</title>
			<polygon class=" (ctg3_242)" points="254,25 235,25 235,10 205,40 235,70 235,55 254,55" fill="rgb(255,255,255)" fill-opacity="1.0" stroke="rgb(0,0,0)" stroke-width="2"  />
			<g>
				<title>Amino_oxidase (PF01593)
"Flavin containing amine oxidoreductase"</title>
				<polygon class="PF01593" points="209,40 221,28 252,28 252,52 221,52" stroke-linejoin="round" width="47" height="24" fill="rgb(184,74,52)" stroke="rgb(147,59,41)" stroke-width="1" opacity="0.75" />
			</g>
		</g>
		<g>
			<title> (ctg3_243)</title>
			<polygon class=" (ctg3_243)" points="293,25 285,25 285,10 255,40 285,70 285,55 293,55" fill="rgb(255,255,255)" fill-opacity="1.0" stroke="rgb(0,0,0)" stroke-width="2"  />
			<g>
				<title>Glycos_transf_2 (PF00535)
"Glycosyl transferase family 2"</title>
				<polygon class="PF00535" points="270,29 271,28 287,28 287,52 271,52 270,51" stroke-linejoin="round" width="17" height="24" fill="rgb(224,122,96)" stroke="rgb(179,97,76)" stroke-width="1" opacity="0.75" />
			</g>
		</g>
		<g>
			<title> (ctg3_244)</title>
			<polygon class=" (ctg3_244)" points="293,40 318,10 318,70" fill="rgb(255,255,255)" fill-opacity="1.0" stroke="rgb(0,0,0)" stroke-width="2"  />
			<g>
				<title>Acyltransferase (PF01553)
"Acyltransferase"</title>
				<polygon class="PF01553" points="301,35 307,28 314,28 314,52 307,52 301,45" stroke-linejoin="round" width="13" height="24" fill="rgb(87,176,216)" stroke="rgb(69,140,172)" stroke-width="1" opacity="0.75" />
			</g>
		</g>
		<g>
			<title> (ctg3_245)</title>
			<polygon class=" (ctg3_245)" points="317,40 342,10 342,70" fill="rgb(255,255,255)" fill-opacity="1.0" stroke="rgb(0,0,0)" stroke-width="2"  />
			<g>
				<title>Caroten_synth (PF04240)
"Carotenoid biosynthesis protein"</title>
				<polygon class="PF04240" points="321,40 331,28 339,28 339,52 331,52" stroke-linejoin="round" width="21" height="24" fill="rgb(65,214,190)" stroke="rgb(52,171,152)" stroke-width="1" opacity="0.75" />
			</g>
		</g>
		<g>
			<title> (ctg3_246)</title>
			<polygon class=" (ctg3_246)" points="343,40 372,10 372,70" fill="rgb(255,255,255)" fill-opacity="1.0" stroke="rgb(0,0,0)" stroke-width="2"  />
			<g>
				<title>SQS_PSY (PF00494)
"Squalene/phytoene synthase"</title>
				<polygon class="PF00494" points="347,40 359,28 370,28 370,52 359,52" stroke-linejoin="round" width="25" height="24" fill="rgb(178,91,49)" stroke="rgb(142,72,39)" stroke-width="1" opacity="0.75" />
			</g>
		</g>
		<g>
			<title> (ctg3_247)</title>
			<polygon class=" (ctg3_247)" points="420,25 402,25 402,10 372,40 402,70 402,55 420,55" fill="rgb(255,255,255)" fill-opacity="1.0" stroke="rgb(0,0,0)" stroke-width="2"  />
			<g>
				<title>Amino_oxidase (PF01593)
"Flavin containing amine oxidoreductase"</title>
				<polygon class="PF01593" points="376,40 388,28 419,28 419,52 388,52" stroke-linejoin="round" width="47" height="24" fill="rgb(184,74,52)" stroke="rgb(147,59,41)" stroke-width="1" opacity="0.75" />
			</g>
		</g>
		<g>
			<title> (ctg3_248)</title>
			<polygon class=" (ctg3_248)" points="471,25 450,25 450,10 420,40 450,70 450,55 471,55" fill="rgb(255,255,255)" fill-opacity="1.0" stroke="rgb(0,0,0)" stroke-width="2"  />
			<g>
				<title>Amino_oxidase (PF01593)
"Flavin containing amine oxidoreductase"</title>
				<polygon class="PF01593" points="424,40 436,28 469,28 469,52 436,52" stroke-linejoin="round" width="47" height="24" fill="rgb(184,74,52)" stroke="rgb(147,59,41)" stroke-width="1" opacity="0.75" />
			</g>
		</g>
		<g>
			<title> (ctg3_249)</title>
			<polygon class=" (ctg3_249)" points="514,25 513,25 513,10 483,40 513,70 513,55 514,55" fill="rgb(255,255,255)" fill-opacity="1.0" stroke="rgb(0,0,0)" stroke-width="2"  />
			<g>
				<title>B12-binding (PF02310)
"B12 binding domain"</title>
				<polygon class="PF02310" points="487,40 495,32 495,48" stroke-linejoin="round" width="10" height="24" fill="rgb(145,190,60)" stroke="rgb(115,152,48)" stroke-width="1" opacity="0.75" />
			</g>
			<g>
				<title>B12-binding_2 (PF02607)
"B12 binding domain"</title>
				<polygon class="PF02607" points="497,30 499,28 504,28 504,52 499,52 497,50" stroke-linejoin="round" width="7" height="24" fill="rgb(190,55,206)" stroke="rgb(152,44,164)" stroke-width="1" opacity="0.75" />
			</g>
			<g>
				<title>MerR_1 (PF13411)
"MerR HTH family regulatory protein"</title>
				<rect class="PF13411" x="506" y="28" stroke-linejoin="round" width="7" height="24" fill="rgb(100,202,107)" stroke="rgb(80,161,85)" stroke-width="1" opacity="0.75" />
			</g>
		</g>
		<g>
			<title> (ctg3_250)</title>
			<polygon class=" (ctg3_250)" points="522,25 541,25 541,10 571,40 541,70 541,55 522,55" fill="rgb(255,255,255)" fill-opacity="1.0" stroke="rgb(0,0,0)" stroke-width="2"  />
			<g>
				<title>PLDc_2 (PF13091)
"PLD-like domain"</title>
				<polygon class="PF13091" points="553,28 555,28 567,40 567,40 555,52 553,52" stroke-linejoin="round" width="14" height="24" fill="rgb(197,187,91)" stroke="rgb(157,149,72)" stroke-width="1" opacity="0.75" />
			</g>
		</g>
		<g>
			<title> (ctg3_251)</title>
			<polygon class=" (ctg3_251)" points="576,10 596,40 576,70" fill="rgb(255,255,255)" fill-opacity="1.0" stroke="rgb(0,0,0)" stroke-width="2"  />
			<g>
				<title>TetR_N (PF00440)
"Bacterial regulatory proteins, tetR family"</title>
				<rect class="PF00440" x="576" y="28" stroke-linejoin="round" width="4" height="24" fill="rgb(73,212,190)" stroke="rgb(58,169,152)" stroke-width="1" opacity="0.75" />
			</g>
		</g>
		<g>
			<title> (ctg3_252)</title>
			<polygon class=" (ctg3_252)" points="597,10 608,40 597,70" fill="rgb(255,255,255)" fill-opacity="1.0" stroke="rgb(0,0,0)" stroke-width="2"  />
			<g>
				<title>Multi_Drug_Res (PF00893)
"Small Multidrug Resistance protein"</title>
				<polygon class="PF00893" points="597,28 600,28 605,40 605,40 600,52 597,52" stroke-linejoin="round" width="8" height="24" fill="rgb(199,75,202)" stroke="rgb(159,60,161)" stroke-width="1" opacity="0.75" />
			</g>
		</g>
		<g>
			<title> (ctg3_253)</title>
			<polygon class=" (ctg3_253)" points="608,10 618,40 608,70" fill="rgb(255,255,255)" fill-opacity="1.0" stroke="rgb(0,0,0)" stroke-width="2"  />
			<g>
				<title>Multi_Drug_Res (PF00893)
"Small Multidrug Resistance protein"</title>
				<polygon class="PF00893" points="608,28 610,28 615,40 610,52 608,52" stroke-linejoin="round" width="9" height="24" fill="rgb(199,75,202)" stroke="rgb(159,60,161)" stroke-width="1" opacity="0.75" />
			</g>
		</g>
		<g>
			<title> (ctg3_254)</title>
			<polygon class=" (ctg3_254)" points="622,10 626,40 622,70" fill="rgb(255,255,255)" fill-opacity="1.0" stroke="rgb(0,0,0)" stroke-width="2"  />
		</g>
		<g>
			<title> (ctg3_255)</title>
			<polygon class=" (ctg3_255)" points="633,25 634,25 634,10 664,40 634,70 634,55 633,55" fill="rgb(255,255,255)" fill-opacity="1.0" stroke="rgb(0,0,0)" stroke-width="2"  />
			<g>
				<title>TetR_N (PF00440)
"Bacterial regulatory proteins, tetR family"</title>
				<rect class="PF00440" x="634" y="28" stroke-linejoin="round" width="4" height="24" fill="rgb(73,212,190)" stroke="rgb(58,169,152)" stroke-width="1" opacity="0.75" />
			</g>
		</g>
	</g>
</svg>
