<svg version="1.1" baseProfile="full" xmlns="http://www.w3.org/2000/svg" width="817.2" height="80">
	<g>
		<line x1="10" y1="40.0" x2="807.2" y2="40.0" style="stroke:rgb(70,70,70); stroke-width:3 "/>
		<g>
			<title> (ctg24_27)</title>
			<polygon class=" (ctg24_27)" points="44,25 49,25 49,10 79,40 49,70 49,55 44,55" fill="rgb(255,255,255)" fill-opacity="1.0" stroke="rgb(0,0,0)" stroke-width="2"  />
			<g>
				<title>Glycos_transf_2 (PF00535)
"Glycosyl transferase family 2"</title>
				<rect class="PF00535" x="44" y="28" stroke-linejoin="round" width="15" height="24" fill="rgb(224,122,96)" stroke="rgb(179,97,76)" stroke-width="1" opacity="0.75" />
			</g>
		</g>
		<g>
			<title> (ctg24_28)</title>
			<polygon class=" (ctg24_28)" points="84,25 134,25 134,10 164,40 134,70 134,55 84,55" fill="rgb(255,255,255)" fill-opacity="1.0" stroke="rgb(0,0,0)" stroke-width="2"  />
		</g>
		<g>
			<title> (ctg24_29)</title>
			<polygon class=" (ctg24_29)" points="179,25 203,25 203,10 233,40 203,70 203,55 179,55" fill="rgb(255,255,255)" fill-opacity="1.0" stroke="rgb(0,0,0)" stroke-width="2"  />
		</g>
		<g>
			<title> (ctg24_30)</title>
			<polygon class=" (ctg24_30)" points="237,10 257,40 237,70" fill="rgb(255,255,255)" fill-opacity="1.0" stroke="rgb(0,0,0)" stroke-width="2"  />
			<g>
				<title>Bac_transf (PF02397)
"Bacterial sugar transferase"</title>
				<polygon class="PF02397" points="237,28 245,28 253,40 245,52 237,52" stroke-linejoin="round" width="17" height="24" fill="rgb(57,165,209)" stroke="rgb(45,131,167)" stroke-width="1" opacity="0.75" />
			</g>
		</g>
		<g>
			<title> (ctg24_31)</title>
			<polygon class=" (ctg24_31)" points="257,10 278,40 257,70" fill="rgb(255,255,255)" fill-opacity="1.0" stroke="rgb(0,0,0)" stroke-width="2"  />
			<g>
				<title>PglD_N (PF17836)
"PglD N-terminal domain"</title>
				<rect class="PF17836" x="257" y="28" stroke-linejoin="round" width="7" height="24" fill="rgb(164,52,206)" stroke="rgb(131,41,164)" stroke-width="1" opacity="0.75" />
			</g>
		</g>
		<g>
			<title> (ctg24_32)</title>
			<polygon class=" (ctg24_32)" points="279,25 287,25 287,10 317,40 287,70 287,55 279,55" fill="rgb(255,255,255)" fill-opacity="1.0" stroke="rgb(0,0,0)" stroke-width="2"  />
			<g>
				<title>DegT_DnrJ_EryC1 (PF01041)
"DegT/DnrJ/EryC1/StrS aminotransferase family"</title>
				<polygon class="PF01041" points="280,28 301,28 313,40 301,52 280,52" stroke-linejoin="round" width="36" height="24" fill="rgb(59,139,191)" stroke="rgb(47,111,152)" stroke-width="1" opacity="0.75" />
			</g>
		</g>
		<g>
			<title> (ctg24_33)</title>
			<polygon class=" (ctg24_33)" points="343,25 377,25 377,10 407,40 377,70 377,55 343,55" fill="rgb(255,255,255)" fill-opacity="1.0" stroke="rgb(0,0,0)" stroke-width="2"  />
			<g>
				<title>GATase_7 (PF13537)
"Glutamine amidotransferase domain"</title>
				<rect class="PF13537" x="347" y="28" stroke-linejoin="round" width="11" height="24" fill="rgb(200,63,57)" stroke="rgb(160,50,45)" stroke-width="1" opacity="0.75" />
			</g>
			<g>
				<title>Asn_synthase (PF00733)
"Asparagine synthase"</title>
				<polygon class="PF00733" points="367,28 391,28 400,37 400,43 391,52 367,52" stroke-linejoin="round" width="33" height="24" fill="rgb(97,201,176)" stroke="rgb(77,160,140)" stroke-width="1" opacity="0.75" />
			</g>
		</g>
		<g>
			<title> (ctg24_34)</title>
			<polygon class=" (ctg24_34)" points="408,10 412,40 408,70" fill="rgb(255,255,255)" fill-opacity="1.0" stroke="rgb(0,0,0)" stroke-width="2"  />
		</g>
		<g>
			<title> (ctg24_35)</title>
			<polygon class=" (ctg24_35)" points="416,25 417,25 417,10 447,40 417,70 417,55 416,55" fill="rgb(255,255,255)" fill-opacity="1.0" stroke="rgb(0,0,0)" stroke-width="2"  />
		</g>
		<g>
			<title> (ctg24_36)</title>
			<polygon class=" (ctg24_36)" points="447,10 456,40 447,70" fill="rgb(255,255,255)" fill-opacity="1.0" stroke="rgb(0,0,0)" stroke-width="2"  />
			<g>
				<title>PqqD (PF05402)
"Coenzyme PQQ synthesis protein D (PqqD)"</title>
				<polygon class="PF05402" points="449,28 449,28 453,40 449,52 449,52" stroke-linejoin="round" width="6" height="24" fill="rgb(124,62,188)" stroke="rgb(99,49,150)" stroke-width="1" opacity="0.75" />
			</g>
		</g>
		<g>
			<title> (ctg24_37)</title>
			<polygon class=" (ctg24_37)" points="458,10 473,40 458,70" fill="rgb(255,255,255)" fill-opacity="1.0" stroke="rgb(0,0,0)" stroke-width="2"  />
			<g>
				<title>Transglut_core3 (PF13471)
"Transglutaminase-like superfamily"</title>
				<polygon class="PF13471" points="460,28 463,28 469,40 463,52 460,52" stroke-linejoin="round" width="11" height="24" fill="rgb(63,111,179)" stroke="rgb(50,88,143)" stroke-width="1" opacity="0.75" />
			</g>
		</g>
		<g>
			<title> (ctg24_38)</title>
			<polygon class=" (ctg24_38)" points="474,25 483,25 483,10 513,40 483,70 483,55 474,55" fill="rgb(255,255,255)" fill-opacity="1.0" stroke="rgb(0,0,0)" stroke-width="2"  />
			<g>
				<title>NTP_transf_5 (PF14907)
"Uncharacterised nucleotidyltransferase"</title>
				<polygon class="PF14907" points="478,28 497,28 502,33 502,47 497,52 478,52" stroke-linejoin="round" width="24" height="24" fill="rgb(191,137,74)" stroke="rgb(152,109,59)" stroke-width="1" opacity="0.75" />
			</g>
		</g>
		<g>
			<title> (ctg24_39)</title>
			<polygon class=" (ctg24_39)" points="514,25 544,25 544,10 574,40 544,70 544,55 514,55" fill="rgb(255,255,255)" fill-opacity="1.0" stroke="rgb(0,0,0)" stroke-width="2"  />
			<g>
				<title>ABC_membrane (PF00664)
"ABC transporter transmembrane region"</title>
				<rect class="PF00664" x="516" y="28" stroke-linejoin="round" width="27" height="24" fill="rgb(149,226,73)" stroke="rgb(119,180,58)" stroke-width="1" opacity="0.75" />
			</g>
			<g>
				<title>ABC_tran (PF00005)
"ABC transporter"</title>
				<polygon class="PF00005" points="551,28 557,28 565,36 565,44 557,52 551,52" stroke-linejoin="round" width="14" height="24" fill="rgb(129,201,63)" stroke="rgb(103,160,50)" stroke-width="1" opacity="0.75" />
			</g>
		</g>
		<g>
			<title> (ctg24_40)</title>
			<polygon class=" (ctg24_40)" points="582,10 592,40 582,70" fill="rgb(255,255,255)" fill-opacity="1.0" stroke="rgb(0,0,0)" stroke-width="2"  />
			<g>
				<title>PadR (PF03551)
"Transcriptional regulator PadR-like family"</title>
				<polygon class="PF03551" points="583,28 584,28 589,40 584,52 583,52" stroke-linejoin="round" width="7" height="24" fill="rgb(210,176,95)" stroke="rgb(168,140,76)" stroke-width="1" opacity="0.75" />
			</g>
		</g>
		<g>
			<title> (ctg24_41)</title>
			<polygon class=" (ctg24_41)" points="592,10 610,40 592,70" fill="rgb(255,255,255)" fill-opacity="1.0" stroke="rgb(0,0,0)" stroke-width="2"  />
			<g>
				<title>DUF1700 (PF08006)
"Protein of unknown function (DUF1700)"</title>
				<polygon class="PF08006" points="592,28 599,28 606,40 599,52 592,52" stroke-linejoin="round" width="17" height="24" fill="rgb(54,60,191)" stroke="rgb(43,48,152)" stroke-width="1" opacity="0.75" />
			</g>
		</g>
		<g>
			<title> (ctg24_42)</title>
			<polygon class=" (ctg24_42)" points="611,10 637,40 611,70" fill="rgb(255,255,255)" fill-opacity="1.0" stroke="rgb(0,0,0)" stroke-width="2"  />
			<g>
				<title>DUF4097 (PF13349)
"Putative adhesin"</title>
				<polygon class="PF13349" points="615,28 622,28 633,40 622,52 615,52" stroke-linejoin="round" width="22" height="24" fill="rgb(173,193,81)" stroke="rgb(138,154,64)" stroke-width="1" opacity="0.75" />
			</g>
		</g>
		<g>
			<title> (ctg24_43)</title>
			<polygon class=" (ctg24_43)" points="640,40 662,10 662,70" fill="rgb(255,255,255)" fill-opacity="1.0" stroke="rgb(0,0,0)" stroke-width="2"  />
			<g>
				<title>Peptidase_S24 (PF00717)
"Peptidase S24-like"</title>
				<polygon class="PF00717" points="644,40 651,31 651,49" stroke-linejoin="round" width="11" height="24" fill="rgb(180,76,105)" stroke="rgb(144,60,83)" stroke-width="1" opacity="0.75" />
			</g>
			<g>
				<title>LexA_DNA_bind (PF01726)
"LexA DNA binding domain"</title>
				<rect class="PF01726" x="654" y="28" stroke-linejoin="round" width="6" height="24" fill="rgb(210,53,189)" stroke="rgb(168,42,151)" stroke-width="1" opacity="0.75" />
			</g>
		</g>
		<g>
			<title> (ctg24_44)</title>
			<polygon class=" (ctg24_44)" points="666,10 687,40 666,70" fill="rgb(255,255,255)" fill-opacity="1.0" stroke="rgb(0,0,0)" stroke-width="2"  />
			<g>
				<title>Resolvase (PF00239)
"Resolvase, N terminal domain"</title>
				<polygon class="PF00239" points="666,28 675,28 680,35 680,45 675,52 666,52" stroke-linejoin="round" width="14" height="24" fill="rgb(99,177,201)" stroke="rgb(79,141,160)" stroke-width="1" opacity="0.75" />
			</g>
		</g>
		<g>
			<title> (ctg24_45)</title>
			<polygon class=" (ctg24_45)" points="689,10 697,40 689,70" fill="rgb(255,255,255)" fill-opacity="1.0" stroke="rgb(0,0,0)" stroke-width="2"  />
			<g>
				<title>DUF896 (PF05979)
"Bacterial protein of unknown function (DUF896)"</title>
				<polygon class="PF05979" points="689,28 690,28 693,40 690,52 689,52" stroke-linejoin="round" width="6" height="24" fill="rgb(192,75,155)" stroke="rgb(153,60,124)" stroke-width="1" opacity="0.75" />
			</g>
		</g>
		<g>
			<title> (ctg24_46)</title>
			<polygon class=" (ctg24_46)" points="750,25 728,25 728,10 698,40 728,70 728,55 750,55" fill="rgb(255,255,255)" fill-opacity="1.0" stroke="rgb(0,0,0)" stroke-width="2"  />
			<g>
				<title>5_nucleotid_C (PF02872)
"5'-nucleotidase, C-terminal domain"</title>
				<polygon class="PF02872" points="702,40 714,28 718,28 718,52 714,52" stroke-linejoin="round" width="17" height="24" fill="rgb(215,156,101)" stroke="rgb(172,124,80)" stroke-width="1" opacity="0.75" />
			</g>
			<g>
				<title>Metallophos (PF00149)
"Calcineurin-like phosphoesterase"</title>
				<rect class="PF00149" x="726" y="28" stroke-linejoin="round" width="23" height="24" fill="rgb(181,197,58)" stroke="rgb(144,157,46)" stroke-width="1" opacity="0.75" />
			</g>
		</g>
		<g>
			<title> (ctg24_47)</title>
			<polygon class=" (ctg24_47)" points="753,25 758,25 758,10 788,40 758,70 758,55 753,55" fill="rgb(255,255,255)" fill-opacity="1.0" stroke="rgb(0,0,0)" stroke-width="2"  />
			<g>
				<title>Phosphonate-bd (PF12974)
"ABC transporter, phosphonate, periplasmic substrate-binding protein"</title>
				<polygon class="PF12974" points="761,28 772,28 784,40 772,52 761,52" stroke-linejoin="round" width="25" height="24" fill="rgb(150,187,81)" stroke="rgb(120,149,64)" stroke-width="1" opacity="0.75" />
			</g>
		</g>
	</g>
</svg>
