<svg version="1.1" baseProfile="full" xmlns="http://www.w3.org/2000/svg" width="1380.9333333333334" height="80">
	<g>
		<line x1="10" y1="40.0" x2="1370.9333333333334" y2="40.0" style="stroke:rgb(70,70,70); stroke-width:3 "/>
		<g>
			<title> (ctg5_305)</title>
			<polygon class=" (ctg5_305)" points="70,25 52,25 52,10 22,40 52,70 52,55 70,55" fill="rgb(255,255,255)" fill-opacity="1.0" stroke="rgb(0,0,0)" stroke-width="2"  />
			<g>
				<title>Trp_halogenase (PF04820)
"Tryptophan halogenase"</title>
				<polygon class="PF04820" points="26,40 38,28 69,28 69,52 38,52" stroke-linejoin="round" width="44" height="24" fill="rgb(179,74,194)" stroke="rgb(143,59,155)" stroke-width="1" opacity="0.75" />
			</g>
		</g>
		<g>
			<title> (ctg5_306)</title>
			<polygon class=" (ctg5_306)" points="117,40 122,10 122,70" fill="rgb(255,255,255)" fill-opacity="1.0" stroke="rgb(0,0,0)" stroke-width="2"  />
		</g>
		<g>
			<title> (ctg5_307)</title>
			<polygon class=" (ctg5_307)" points="160,40 189,10 189,70" fill="rgb(255,255,255)" fill-opacity="1.0" stroke="rgb(0,0,0)" stroke-width="2"  />
			<g>
				<title>LysR_substrate (PF03466)
"LysR substrate binding domain"</title>
				<polygon class="PF03466" points="164,40 176,28 180,28 180,52 176,52" stroke-linejoin="round" width="20" height="24" fill="rgb(55,136,195)" stroke="rgb(44,108,156)" stroke-width="1" opacity="0.75" />
			</g>
			<g>
				<title>HTH_1 (PF00126)
"Bacterial regulatory helix-turn-helix protein, lysR family"</title>
				<rect class="PF00126" x="183" y="28" stroke-linejoin="round" width="5" height="24" fill="rgb(125,227,79)" stroke="rgb(99,181,63)" stroke-width="1" opacity="0.75" />
			</g>
		</g>
		<g>
			<title> (ctg5_308)</title>
			<polygon class=" (ctg5_308)" points="193,25 202,25 202,10 232,40 202,70 202,55 193,55" fill="rgb(255,255,255)" fill-opacity="1.0" stroke="rgb(0,0,0)" stroke-width="2"  />
			<g>
				<title>MFS_1 (PF07690)
"Major Facilitator Superfamily"</title>
				<polygon class="PF07690" points="195,28 216,28 227,39 227,41 216,52 195,52" stroke-linejoin="round" width="32" height="24" fill="rgb(193,224,74)" stroke="rgb(154,179,59)" stroke-width="1" opacity="0.75" />
			</g>
		</g>
		<g>
			<title> (ctg5_309)</title>
			<polygon class=" (ctg5_309)" points="233,25 239,25 239,10 269,40 239,70 239,55 233,55" fill="rgb(255,255,255)" fill-opacity="1.0" stroke="rgb(0,0,0)" stroke-width="2"  />
			<g>
				<title>Peptidase_S9 (PF00326)
"Prolyl oligopeptidase family"</title>
				<polygon class="PF00326" points="243,28 253,28 256,31 256,49 253,52 243,52" stroke-linejoin="round" width="13" height="24" fill="rgb(77,97,209)" stroke="rgb(61,77,167)" stroke-width="1" opacity="0.75" />
			</g>
		</g>
		<g>
			<title> (ctg5_310)</title>
			<polygon class=" (ctg5_310)" points="270,10 286,40 270,70" fill="rgb(255,255,255)" fill-opacity="1.0" stroke="rgb(0,0,0)" stroke-width="2"  />
			<g>
				<title>Cupin_2 (PF07883)
"Cupin domain"</title>
				<polygon class="PF07883" points="276,28 276,28 282,38 282,42 276,52 276,52" stroke-linejoin="round" width="6" height="24" fill="rgb(211,192,74)" stroke="rgb(168,153,59)" stroke-width="1" opacity="0.75" />
			</g>
		</g>
		<g>
			<title> (ctg5_311)</title>
			<polygon class=" (ctg5_311)" points="287,10 311,40 287,70" fill="rgb(255,255,255)" fill-opacity="1.0" stroke="rgb(0,0,0)" stroke-width="2"  />
			<g>
				<title>adh_short (PF00106)
"short chain dehydrogenase"</title>
				<polygon class="PF00106" points="287,28 298,28 306,38 306,42 298,52 287,52" stroke-linejoin="round" width="19" height="24" fill="rgb(182,219,73)" stroke="rgb(145,175,58)" stroke-width="1" opacity="0.75" />
			</g>
		</g>
		<g>
			<title> (ctg5_312)</title>
			<polygon class=" (ctg5_312)" points="313,40 328,10 328,70" fill="rgb(255,255,255)" fill-opacity="1.0" stroke="rgb(0,0,0)" stroke-width="2"  />
		</g>
		<g>
			<title> (ctg5_313)</title>
			<polygon class=" (ctg5_313)" points="343,25 355,25 355,10 385,40 355,70 355,55 343,55" fill="rgb(255,255,255)" fill-opacity="1.0" stroke="rgb(0,0,0)" stroke-width="2"  />
			<g>
				<title>UDPGT (PF00201)
"UDP-glucoronosyl and UDP-glucosyl transferase"</title>
				<polygon class="PF00201" points="368,28 369,28 381,40 369,52 368,52" stroke-linejoin="round" width="14" height="24" fill="rgb(225,150,107)" stroke="rgb(180,120,85)" stroke-width="1" opacity="0.75" />
			</g>
		</g>
		<g>
			<title> (ctg5_314)</title>
			<polygon class=" (ctg5_314)" points="388,10 400,40 388,70" fill="rgb(255,255,255)" fill-opacity="1.0" stroke="rgb(0,0,0)" stroke-width="2"  />
			<g>
				<title>ASRT (PF07100)
"Anabaena sensory rhodopsin transducer"</title>
				<polygon class="PF07100" points="388,28 391,28 397,40 391,52 388,52" stroke-linejoin="round" width="11" height="24" fill="rgb(202,98,195)" stroke="rgb(161,78,155)" stroke-width="1" opacity="0.75" />
			</g>
		</g>
		<g>
			<title> (ctg5_315)</title>
			<polygon class=" (ctg5_315)" points="406,25 445,25 445,10 475,40 445,70 445,55 406,55" fill="rgb(255,255,255)" fill-opacity="1.0" stroke="rgb(0,0,0)" stroke-width="2"  />
			<g>
				<title>Glyco_hydro_65m (PF03632)
"Glycosyl hydrolase family 65 central catalytic domain"</title>
				<rect class="PF03632" x="438" y="28" stroke-linejoin="round" width="20" height="24" fill="rgb(190,87,121)" stroke="rgb(152,69,96)" stroke-width="1" opacity="0.75" />
			</g>
		</g>
		<g>
			<title> (ctg5_316)</title>
			<polygon class=" (ctg5_316)" points="478,40 485,10 485,70" fill="rgb(255,255,255)" fill-opacity="1.0" stroke="rgb(0,0,0)" stroke-width="2"  />
		</g>
		<g>
			<title> (ctg5_317)</title>
			<polygon class=" (ctg5_317)" points="486,40 510,10 510,70" fill="rgb(255,255,255)" fill-opacity="1.0" stroke="rgb(0,0,0)" stroke-width="2"  />
			<g>
				<title>HTH_Crp_2 (PF13545)
"Crp-like helix-turn-helix domain"</title>
				<polygon class="PF13545" points="490,40 495,34 495,46" stroke-linejoin="round" width="7" height="24" fill="rgb(87,137,202)" stroke="rgb(69,109,161)" stroke-width="1" opacity="0.75" />
			</g>
			<g>
				<title>cNMP_binding (PF00027)
"Cyclic nucleotide-binding domain"</title>
				<polygon class="PF00027" points="498,30 500,28 506,28 506,52 500,52 498,50" stroke-linejoin="round" width="8" height="24" fill="rgb(138,95,204)" stroke="rgb(110,76,163)" stroke-width="1" opacity="0.75" />
			</g>
		</g>
		<g>
			<title> (ctg5_318)</title>
			<polygon class=" (ctg5_318)" points="525,10 530,40 525,70" fill="rgb(255,255,255)" fill-opacity="1.0" stroke="rgb(0,0,0)" stroke-width="2"  />
			<g>
				<title>DUF3606 (PF12244)
"Protein of unknown function (DUF3606)"</title>
				<polygon class="PF12244" points="525,28 525,28 527,40 525,52 525,52" stroke-linejoin="round" width="5" height="24" fill="rgb(81,224,130)" stroke="rgb(64,179,103)" stroke-width="1" opacity="0.75" />
			</g>
		</g>
		<g>
			<title> (ctg5_319)</title>
			<polygon class=" (ctg5_319)" points="539,10 552,40 539,70" fill="rgb(255,255,255)" fill-opacity="1.0" stroke="rgb(0,0,0)" stroke-width="2"  />
			<g>
				<title>DUF6766 (PF20554)
"Domain of unknown function (DUF6766)"</title>
				<polygon class="PF20554" points="539,28 543,28 549,40 543,52 539,52" stroke-linejoin="round" width="12" height="24" fill="rgb(183,91,124)" stroke="rgb(146,72,99)" stroke-width="1" opacity="0.75" />
			</g>
		</g>
		<g>
			<title> (ctg5_320)</title>
			<polygon class=" (ctg5_320)" points="558,10 565,40 558,70" fill="rgb(255,255,255)" fill-opacity="1.0" stroke="rgb(0,0,0)" stroke-width="2"  />
		</g>
		<g>
			<title> (ctg5_321)</title>
			<polygon class=" (ctg5_321)" points="566,10 580,40 566,70" fill="rgb(255,255,255)" fill-opacity="1.0" stroke="rgb(0,0,0)" stroke-width="2"  />
		</g>
		<g>
			<title> (ctg5_322)</title>
			<polygon class=" (ctg5_322)" points="581,10 604,40 581,70" fill="rgb(255,255,255)" fill-opacity="1.0" stroke="rgb(0,0,0)" stroke-width="2"  />
			<g>
				<title>SRAP (PF02586)
"SOS response associated peptidase (SRAP)"</title>
				<polygon class="PF02586" points="581,28 591,28 600,40 591,52 581,52" stroke-linejoin="round" width="23" height="24" fill="rgb(152,181,61)" stroke="rgb(121,144,48)" stroke-width="1" opacity="0.75" />
			</g>
		</g>
		<g>
			<title> (ctg5_323)</title>
			<polygon class=" (ctg5_323)" points="605,40 619,10 619,70" fill="rgb(255,255,255)" fill-opacity="1.0" stroke="rgb(0,0,0)" stroke-width="2"  />
			<g>
				<title>DUF1810 (PF08837)
"Protein of unknown function (DUF1810)"</title>
				<polygon class="PF08837" points="608,40 614,28 619,28 619,52 614,52" stroke-linejoin="round" width="13" height="24" fill="rgb(69,116,215)" stroke="rgb(55,92,172)" stroke-width="1" opacity="0.75" />
			</g>
		</g>
		<g>
			<title> (ctg5_324)</title>
			<polygon class=" (ctg5_324)" points="620,40 631,10 631,70" fill="rgb(255,255,255)" fill-opacity="1.0" stroke="rgb(0,0,0)" stroke-width="2"  />
		</g>
		<g>
			<title> (ctg5_325)</title>
			<polygon class=" (ctg5_325)" points="636,10 661,40 636,70" fill="rgb(255,255,255)" fill-opacity="1.0" stroke="rgb(0,0,0)" stroke-width="2"  />
		</g>
		<g>
			<title> (ctg5_326)</title>
			<polygon class=" (ctg5_326)" points="661,25 678,25 678,10 708,40 678,70 678,55 661,55" fill="rgb(255,255,255)" fill-opacity="1.0" stroke="rgb(0,0,0)" stroke-width="2"  />
		</g>
		<g>
			<title> (ctg5_327)</title>
			<polygon class=" (ctg5_327)" points="715,40 724,10 724,70" fill="rgb(255,255,255)" fill-opacity="1.0" stroke="rgb(0,0,0)" stroke-width="2"  />
			<g>
				<title>PQ-loop (PF04193)
"PQ loop repeat"</title>
				<polygon class="PF04193" points="718,40 722,28 723,28 723,52 722,52" stroke-linejoin="round" width="6" height="24" fill="rgb(174,105,218)" stroke="rgb(139,84,174)" stroke-width="1" opacity="0.75" />
			</g>
		</g>
		<g>
			<title> (ctg5_328)</title>
			<polygon class=" (ctg5_328)" points="732,25 740,25 740,10 770,40 740,70 740,55 732,55" fill="rgb(255,255,255)" fill-opacity="1.0" stroke="rgb(0,0,0)" stroke-width="2"  />
			<g>
				<title>DUF3182 (PF11379)
"Protein of unknown function (DUF3182)"</title>
				<polygon class="PF11379" points="734,28 753,28 765,40 753,52 734,52" stroke-linejoin="round" width="35" height="24" fill="rgb(82,65,209)" stroke="rgb(65,52,167)" stroke-width="1" opacity="0.75" />
			</g>
		</g>
		<g>
			<title> (ctg5_329)</title>
			<polygon class=" (ctg5_329)" points="770,10 795,40 770,70" fill="rgb(255,255,255)" fill-opacity="1.0" stroke="rgb(0,0,0)" stroke-width="2"  />
			<g>
				<title>Peptidase_S9 (PF00326)
"Prolyl oligopeptidase family"</title>
				<polygon class="PF00326" points="775,28 781,28 791,40 781,52 775,52" stroke-linejoin="round" width="19" height="24" fill="rgb(77,97,209)" stroke="rgb(61,77,167)" stroke-width="1" opacity="0.75" />
			</g>
		</g>
		<g>
			<title> (ctg5_330)</title>
			<polygon class=" (ctg5_330)" points="800,10 808,40 800,70" fill="rgb(255,255,255)" fill-opacity="1.0" stroke="rgb(0,0,0)" stroke-width="2"  />
			<g>
				<title>DUF2171 (PF09939)
"Uncharacterized protein conserved in bacteria (DUF2171)"</title>
				<polygon class="PF09939" points="800,28 801,28 805,40 801,52 800,52" stroke-linejoin="round" width="6" height="24" fill="rgb(226,112,162)" stroke="rgb(180,89,129)" stroke-width="1" opacity="0.75" />
			</g>
		</g>
		<g>
			<title> (ctg5_331)</title>
			<polygon class=" (ctg5_331)" points="808,10 815,40 808,70" fill="rgb(255,255,255)" fill-opacity="1.0" stroke="rgb(0,0,0)" stroke-width="2"  />
		</g>
		<g>
			<title> (ctg5_332)</title>
			<polygon class=" (ctg5_332)" points="815,10 821,40 815,70" fill="rgb(255,255,255)" fill-opacity="1.0" stroke="rgb(0,0,0)" stroke-width="2"  />
			<g>
				<title>HHH_3 (PF12836)
"Helix-hairpin-helix motif"</title>
				<polygon class="PF12836" points="815,28 815,28 818,40 815,52 815,52" stroke-linejoin="round" width="5" height="24" fill="rgb(58,214,96)" stroke="rgb(46,171,76)" stroke-width="1" opacity="0.75" />
			</g>
		</g>
		<g>
			<title> (ctg5_333)</title>
			<polygon class=" (ctg5_333)" points="827,40 855,10 855,70" fill="rgb(255,255,255)" fill-opacity="1.0" stroke="rgb(0,0,0)" stroke-width="2"  />
			<g>
				<title>Glyco_transf_7C (PF02709)
"N-terminal domain of galactosyltransferase"</title>
				<polygon class="PF02709" points="834,37 840,31 840,49 834,43" stroke-linejoin="round" width="6" height="24" fill="rgb(218,95,200)" stroke="rgb(174,76,160)" stroke-width="1" opacity="0.75" />
			</g>
		</g>
		<g>
			<title> (ctg5_334)</title>
			<polygon class=" (ctg5_334)" points="855,40 874,10 874,70" fill="rgb(255,255,255)" fill-opacity="1.0" stroke="rgb(0,0,0)" stroke-width="2"  />
			<g>
				<title>NodS (PF05401)
"Nodulation protein S (NodS)"</title>
				<polygon class="PF05401" points="859,40 867,28 872,28 872,52 867,52 859,40" stroke-linejoin="round" width="13" height="24" fill="rgb(179,99,49)" stroke="rgb(143,79,39)" stroke-width="1" opacity="0.75" />
			</g>
		</g>
		<g>
			<title> (ctg5_335)</title>
			<polygon class=" (ctg5_335)" points="874,40 897,10 897,70" fill="rgb(255,255,255)" fill-opacity="1.0" stroke="rgb(0,0,0)" stroke-width="2"  />
			<g>
				<title>PIG-L (PF02585)
"GlcNAc-PI de-N-acetylase"</title>
				<polygon class="PF02585" points="881,36 887,28 894,28 894,52 887,52 881,44" stroke-linejoin="round" width="13" height="24" fill="rgb(97,215,95)" stroke="rgb(77,172,76)" stroke-width="1" opacity="0.75" />
			</g>
		</g>
		<g>
			<title> (ctg5_336)</title>
			<polygon class=" (ctg5_336)" points="934,25 928,25 928,10 898,40 928,70 928,55 934,55" fill="rgb(255,255,255)" fill-opacity="1.0" stroke="rgb(0,0,0)" stroke-width="2"  />
		</g>
		<g>
			<title> (ctg5_337)</title>
			<polygon class=" (ctg5_337)" points="968,25 964,25 964,10 934,40 964,70 964,55 968,55" fill="rgb(255,255,255)" fill-opacity="1.0" stroke="rgb(0,0,0)" stroke-width="2"  />
			<g>
				<title>Glyco_tran_28_C (PF04101)
"Glycosyltransferase family 28 C-terminal domain"</title>
				<polygon class="PF04101" points="938,40 949,29 949,51" stroke-linejoin="round" width="12" height="24" fill="rgb(211,90,140)" stroke="rgb(168,72,112)" stroke-width="1" opacity="0.75" />
			</g>
		</g>
		<g>
			<title> (ctg5_338)</title>
			<polygon class=" (ctg5_338)" points="1000,25 999,25 999,10 969,40 999,70 999,55 1000,55" fill="rgb(255,255,255)" fill-opacity="1.0" stroke="rgb(0,0,0)" stroke-width="2"  />
			<g>
				<title>Glycos_transf_2 (PF00535)
"Glycosyl transferase family 2"</title>
				<polygon class="PF00535" points="985,28 985,28 999,28 999,52 985,52 985,52" stroke-linejoin="round" width="14" height="24" fill="rgb(224,122,96)" stroke="rgb(179,97,76)" stroke-width="1" opacity="0.75" />
			</g>
		</g>
		<g>
			<title> (ctg5_339)</title>
			<polygon class=" (ctg5_339)" points="1036,25 1030,25 1030,10 1000,40 1030,70 1030,55 1036,55" fill="rgb(255,255,255)" fill-opacity="1.0" stroke="rgb(0,0,0)" stroke-width="2"  />
			<g>
				<title>Glycos_transf_1 (PF00534)
"Glycosyl transferases group 1"</title>
				<polygon class="PF00534" points="1004,40 1016,28 1019,28 1019,52 1016,52" stroke-linejoin="round" width="16" height="24" fill="rgb(228,92,150)" stroke="rgb(182,73,119)" stroke-width="1" opacity="0.75" />
			</g>
			<g>
				<title>Glyco_transf_4 (PF13439)
"Glycosyltransferase Family 4"</title>
				<rect class="PF13439" x="1019" y="28" stroke-linejoin="round" width="15" height="24" fill="rgb(162,57,186)" stroke="rgb(129,45,148)" stroke-width="1" opacity="0.75" />
			</g>
		</g>
		<g>
			<title> (ctg5_340)</title>
			<polygon class=" (ctg5_340)" points="1046,10 1054,40 1046,70" fill="rgb(255,255,255)" fill-opacity="1.0" stroke="rgb(0,0,0)" stroke-width="2"  />
		</g>
		<g>
			<title> (ctg5_341)</title>
			<polygon class=" (ctg5_341)" points="1063,10 1084,40 1063,70" fill="rgb(255,255,255)" fill-opacity="1.0" stroke="rgb(0,0,0)" stroke-width="2"  />
			<g>
				<title>cNMP_binding (PF00027)
"Cyclic nucleotide-binding domain"</title>
				<rect class="PF00027" x="1063" y="28" stroke-linejoin="round" width="7" height="24" fill="rgb(138,95,204)" stroke="rgb(110,76,163)" stroke-width="1" opacity="0.75" />
			</g>
			<g>
				<title>HTH_Crp_2 (PF13545)
"Crp-like helix-turn-helix domain"</title>
				<polygon class="PF13545" points="1074,31 1080,40 1074,49" stroke-linejoin="round" width="7" height="24" fill="rgb(87,137,202)" stroke="rgb(69,109,161)" stroke-width="1" opacity="0.75" />
			</g>
		</g>
		<g>
			<title> (ctg5_342)</title>
			<polygon class=" (ctg5_342)" points="1086,40 1111,10 1111,70" fill="rgb(255,255,255)" fill-opacity="1.0" stroke="rgb(0,0,0)" stroke-width="2"  />
			<g>
				<title>HTH_Crp_2 (PF13545)
"Crp-like helix-turn-helix domain"</title>
				<polygon class="PF13545" points="1090,40 1094,35 1094,45" stroke-linejoin="round" width="7" height="24" fill="rgb(87,137,202)" stroke="rgb(69,109,161)" stroke-width="1" opacity="0.75" />
			</g>
			<g>
				<title>cNMP_binding (PF00027)
"Cyclic nucleotide-binding domain"</title>
				<polygon class="PF00027" points="1098,31 1100,28 1106,28 1106,52 1100,52 1098,49" stroke-linejoin="round" width="8" height="24" fill="rgb(138,95,204)" stroke="rgb(110,76,163)" stroke-width="1" opacity="0.75" />
			</g>
		</g>
		<g>
			<title> (ctg5_343)</title>
			<polygon class=" (ctg5_343)" points="1117,10 1123,40 1117,70" fill="rgb(255,255,255)" fill-opacity="1.0" stroke="rgb(0,0,0)" stroke-width="2"  />
		</g>
		<g>
			<title> (ctg5_344)</title>
			<polygon class=" (ctg5_344)" points="1123,10 1143,40 1123,70" fill="rgb(255,255,255)" fill-opacity="1.0" stroke="rgb(0,0,0)" stroke-width="2"  />
			<g>
				<title>Isochorismatase (PF00857)
"Isochorismatase family"</title>
				<polygon class="PF00857" points="1124,28 1131,28 1139,40 1131,52 1124,52" stroke-linejoin="round" width="17" height="24" fill="rgb(144,224,70)" stroke="rgb(115,179,56)" stroke-width="1" opacity="0.75" />
			</g>
		</g>
		<g>
			<title> (ctg5_345)</title>
			<polygon class=" (ctg5_345)" points="1143,10 1151,40 1143,70" fill="rgb(255,255,255)" fill-opacity="1.0" stroke="rgb(0,0,0)" stroke-width="2"  />
		</g>
		<g>
			<title> (ctg5_346)</title>
			<polygon class=" (ctg5_346)" points="1152,40 1175,10 1175,70" fill="rgb(255,255,255)" fill-opacity="1.0" stroke="rgb(0,0,0)" stroke-width="2"  />
			<g>
				<title>HTH_Crp_2 (PF13545)
"Crp-like helix-turn-helix domain"</title>
				<polygon class="PF13545" points="1156,40 1160,35 1160,45" stroke-linejoin="round" width="6" height="24" fill="rgb(87,137,202)" stroke="rgb(69,109,161)" stroke-width="1" opacity="0.75" />
			</g>
		</g>
		<g>
			<title> (ctg5_347)</title>
			<polygon class=" (ctg5_347)" points="1207,25 1207,25 1207,10 1177,40 1207,70 1207,55 1207,55" fill="rgb(255,255,255)" fill-opacity="1.0" stroke="rgb(0,0,0)" stroke-width="2"  />
			<g>
				<title>Mn_catalase (PF05067)
"Manganese containing catalase"</title>
				<polygon class="PF05067" points="1181,40 1193,28 1207,28 1207,52 1193,52" stroke-linejoin="round" width="29" height="24" fill="rgb(59,189,89)" stroke="rgb(47,151,71)" stroke-width="1" opacity="0.75" />
			</g>
		</g>
		<g>
			<title> (ctg5_348)</title>
			<polygon class=" (ctg5_348)" points="1214,10 1232,40 1214,70" fill="rgb(255,255,255)" fill-opacity="1.0" stroke="rgb(0,0,0)" stroke-width="2"  />
			<g>
				<title>Hemerythrin (PF01814)
"Hemerythrin HHE cation binding domain"</title>
				<polygon class="PF01814" points="1217,28 1221,28 1228,39 1228,41 1221,52 1217,52" stroke-linejoin="round" width="11" height="24" fill="rgb(120,91,227)" stroke="rgb(95,72,181)" stroke-width="1" opacity="0.75" />
			</g>
		</g>
		<g>
			<title> (ctg5_349)</title>
			<polygon class=" (ctg5_349)" points="1233,10 1251,40 1233,70" fill="rgb(255,255,255)" fill-opacity="1.0" stroke="rgb(0,0,0)" stroke-width="2"  />
			<g>
				<title>Polyketide_cyc (PF03364)
"Polyketide cyclase / dehydrase and lipid transport"</title>
				<polygon class="PF03364" points="1236,28 1240,28 1248,40 1248,40 1240,52 1236,52" stroke-linejoin="round" width="12" height="24" fill="rgb(221,94,106)" stroke="rgb(176,75,84)" stroke-width="1" opacity="0.75" />
			</g>
		</g>
		<g>
			<title> (ctg5_350)</title>
			<polygon class=" (ctg5_350)" points="1253,25 1262,25 1262,10 1292,40 1262,70 1262,55 1253,55" fill="rgb(255,255,255)" fill-opacity="1.0" stroke="rgb(0,0,0)" stroke-width="2"  />
			<g>
				<title>ADH_N_assoc (PF13823)
"Alcohol dehydrogenase GroES-associated"</title>
				<rect class="PF13823" x="1253" y="28" stroke-linejoin="round" width="2" height="24" fill="rgb(221,55,66)" stroke="rgb(176,44,52)" stroke-width="1" opacity="0.75" />
			</g>
			<g>
				<title>ADH_N (PF08240)
"Alcohol dehydrogenase GroES-like domain"</title>
				<rect class="PF08240" x="1255" y="28" stroke-linejoin="round" width="13" height="24" fill="rgb(211,65,138)" stroke="rgb(168,51,110)" stroke-width="1" opacity="0.75" />
			</g>
			<g>
				<title>ADH_zinc_N (PF00107)
"Zinc-binding dehydrogenase"</title>
				<polygon class="PF00107" points="1272,28 1276,28 1280,32 1280,48 1276,52 1272,52" stroke-linejoin="round" width="8" height="24" fill="rgb(81,108,215)" stroke="rgb(64,86,172)" stroke-width="1" opacity="0.75" />
			</g>
		</g>
		<g>
			<title> (ctg5_351)</title>
			<polygon class=" (ctg5_351)" points="1299,10 1318,40 1299,70" fill="rgb(255,255,255)" fill-opacity="1.0" stroke="rgb(0,0,0)" stroke-width="2"  />
			<g>
				<title>Lipase_GDSL_2 (PF13472)
"GDSL-like Lipase/Acylhydrolase family"</title>
				<polygon class="PF13472" points="1300,28 1306,28 1314,40 1306,52 1300,52" stroke-linejoin="round" width="15" height="24" fill="rgb(116,68,184)" stroke="rgb(92,54,147)" stroke-width="1" opacity="0.75" />
			</g>
		</g>
		<g>
			<title> (ctg5_352)</title>
			<polygon class=" (ctg5_352)" points="1318,10 1343,40 1318,70" fill="rgb(255,255,255)" fill-opacity="1.0" stroke="rgb(0,0,0)" stroke-width="2"  />
			<g>
				<title>Exo_endo_phos (PF03372)
"Endonuclease/Exonuclease/phosphatase family"</title>
				<polygon class="PF03372" points="1318,28 1329,28 1339,40 1329,52 1318,52" stroke-linejoin="round" width="24" height="24" fill="rgb(76,66,180)" stroke="rgb(60,52,144)" stroke-width="1" opacity="0.75" />
			</g>
		</g>
		<g>
			<title> (ctg5_353)</title>
			<polygon class=" (ctg5_353)" points="1346,40 1362,10 1362,70" fill="rgb(255,255,255)" fill-opacity="1.0" stroke="rgb(0,0,0)" stroke-width="2"  />
			<g>
				<title>2OG-FeII_Oxy_2 (PF13532)
"2OG-Fe(II) oxygenase superfamily"</title>
				<polygon class="PF13532" points="1349,40 1356,28 1359,28 1359,52 1356,52" stroke-linejoin="round" width="13" height="24" fill="rgb(182,67,194)" stroke="rgb(145,53,155)" stroke-width="1" opacity="0.75" />
			</g>
		</g>
	</g>
</svg>
