<svg version="1.1" baseProfile="full" xmlns="http://www.w3.org/2000/svg" width="1907.1666666666667" height="80">
	<g>
		<line x1="10" y1="40.0" x2="1897.1666666666667" y2="40.0" style="stroke:rgb(70,70,70); stroke-width:3 "/>
		<g>
			<title> (ctg4_236)</title>
			<polygon class=" (ctg4_236)" points="34,10 42,40 34,70" fill="rgb(255,255,255)" fill-opacity="1.0" stroke="rgb(0,0,0)" stroke-width="2"  />
			<g>
				<title>DinI (PF06183)
"DinI-like family"</title>
				<polygon class="PF06183" points="35,28 35,28 39,40 35,52 35,52" stroke-linejoin="round" width="6" height="24" fill="rgb(77,123,189)" stroke="rgb(61,98,151)" stroke-width="1" opacity="0.75" />
			</g>
		</g>
		<g>
			<title> (ctg4_237)</title>
			<polygon class=" (ctg4_237)" points="47,10 56,40 47,70" fill="rgb(255,255,255)" fill-opacity="1.0" stroke="rgb(0,0,0)" stroke-width="2"  />
		</g>
		<g>
			<title> (ctg4_238)</title>
			<polygon class=" (ctg4_238)" points="66,10 74,40 66,70" fill="rgb(255,255,255)" fill-opacity="1.0" stroke="rgb(0,0,0)" stroke-width="2"  />
			<g>
				<title>BssS (PF13991)
"BssS protein family"</title>
				<polygon class="PF13991" points="67,28 67,28 71,40 67,52 67,52" stroke-linejoin="round" width="7" height="24" fill="rgb(184,194,59)" stroke="rgb(147,155,47)" stroke-width="1" opacity="0.75" />
			</g>
		</g>
		<g>
			<title> (ctg4_239)</title>
			<polygon class=" (ctg4_239)" points="78,25 85,25 85,10 115,40 85,70 85,55 78,55" fill="rgb(255,255,255)" fill-opacity="1.0" stroke="rgb(0,0,0)" stroke-width="2"  />
			<g>
				<title>DAO (PF01266)
"FAD dependent oxidoreductase"</title>
				<polygon class="PF01266" points="78,28 98,28 110,40 98,52 78,52" stroke-linejoin="round" width="34" height="24" fill="rgb(123,179,59)" stroke="rgb(98,143,47)" stroke-width="1" opacity="0.75" />
			</g>
		</g>
		<g>
			<title> (ctg4_240)</title>
			<polygon class=" (ctg4_240)" points="125,10 144,40 125,70" fill="rgb(255,255,255)" fill-opacity="1.0" stroke="rgb(0,0,0)" stroke-width="2"  />
			<g>
				<title>Ni_hydr_CYTB (PF01292)
"Prokaryotic cytochrome b561"</title>
				<polygon class="PF01292" points="125,28 132,28 140,40 132,52 125,52" stroke-linejoin="round" width="17" height="24" fill="rgb(210,172,100)" stroke="rgb(168,137,80)" stroke-width="1" opacity="0.75" />
			</g>
		</g>
		<g>
			<title> (ctg4_241)</title>
			<polygon class=" (ctg4_241)" points="144,10 163,40 144,70" fill="rgb(255,255,255)" fill-opacity="1.0" stroke="rgb(0,0,0)" stroke-width="2"  />
			<g>
				<title>YceI (PF04264)
"YceI-like domain"</title>
				<polygon class="PF04264" points="146,28 152,28 159,40 152,52 146,52" stroke-linejoin="round" width="16" height="24" fill="rgb(170,111,224)" stroke="rgb(135,88,179)" stroke-width="1" opacity="0.75" />
			</g>
		</g>
		<g>
			<title> (ctg4_242)</title>
			<polygon class=" (ctg4_242)" points="200,25 195,25 195,10 165,40 195,70 195,55 200,55" fill="rgb(255,255,255)" fill-opacity="1.0" stroke="rgb(0,0,0)" stroke-width="2"  />
			<g>
				<title>Rhodanese_C (PF12368)
"Rhodanase C-terminal"</title>
				<polygon class="PF12368" points="169,40 175,34 175,46 169,40" stroke-linejoin="round" width="6" height="24" fill="rgb(224,104,148)" stroke="rgb(179,83,118)" stroke-width="1" opacity="0.75" />
			</g>
			<g>
				<title>Rhodanese (PF00581)
"Rhodanese-like domain"</title>
				<polygon class="PF00581" points="176,33 181,28 185,28 185,52 181,52 176,47" stroke-linejoin="round" width="9" height="24" fill="rgb(145,191,76)" stroke="rgb(116,152,60)" stroke-width="1" opacity="0.75" />
			</g>
			<g>
				<title>UPF0176_N (PF17773)
"UPF0176 acylphosphatase like domain"</title>
				<rect class="PF17773" x="188" y="28" stroke-linejoin="round" width="9" height="24" fill="rgb(73,125,224)" stroke="rgb(58,99,179)" stroke-width="1" opacity="0.75" />
			</g>
		</g>
		<g>
			<title> (ctg4_243)</title>
			<polygon class=" (ctg4_243)" points="209,25 209,25 209,10 239,40 209,70 209,55 209,55" fill="rgb(255,255,255)" fill-opacity="1.0" stroke="rgb(0,0,0)" stroke-width="2"  />
			<g>
				<title>Lip_A_acyltrans (PF03279)
"Bacterial lipid A biosynthesis acyltransferase"</title>
				<polygon class="PF03279" points="209,28 223,28 235,40 223,52 209,52" stroke-linejoin="round" width="29" height="24" fill="rgb(95,219,149)" stroke="rgb(76,175,119)" stroke-width="1" opacity="0.75" />
			</g>
		</g>
		<g>
			<title> (ctg4_244)</title>
			<polygon class=" (ctg4_244)" points="258,10 266,40 258,70" fill="rgb(255,255,255)" fill-opacity="1.0" stroke="rgb(0,0,0)" stroke-width="2"  />
		</g>
		<g>
			<title> (ctg4_245)</title>
			<polygon class=" (ctg4_245)" points="271,10 284,40 271,70" fill="rgb(255,255,255)" fill-opacity="1.0" stroke="rgb(0,0,0)" stroke-width="2"  />
			<g>
				<title>MsyB (PF13984)
"MsyB protein"</title>
				<polygon class="PF13984" points="271,28 275,28 281,40 275,52 271,52" stroke-linejoin="round" width="12" height="24" fill="rgb(145,96,211)" stroke="rgb(115,76,168)" stroke-width="1" opacity="0.75" />
			</g>
		</g>
		<g>
			<title> (ctg4_246)</title>
			<polygon class=" (ctg4_246)" points="284,40 292,10 292,70" fill="rgb(255,255,255)" fill-opacity="1.0" stroke="rgb(0,0,0)" stroke-width="2"  />
			<g>
				<title>DUF1375 (PF07119)
"Protein of unknown function (DUF1375)"</title>
				<polygon class="PF07119" points="287,40 286,44 286,36" stroke-linejoin="round" width="2" height="24" fill="rgb(196,78,49)" stroke="rgb(156,62,39)" stroke-width="1" opacity="0.75" />
			</g>
		</g>
		<g>
			<title> (ctg4_247)</title>
			<polygon class=" (ctg4_247)" points="382,25 327,25 327,10 297,40 327,70 327,55 382,55" fill="rgb(255,255,255)" fill-opacity="1.0" stroke="rgb(0,0,0)" stroke-width="2"  />
			<g>
				<title>Glycos_transf_2 (PF00535)
"Glycosyl transferase family 2"</title>
				<rect class="PF00535" x="338" y="28" stroke-linejoin="round" width="18" height="24" fill="rgb(224,122,96)" stroke="rgb(179,97,76)" stroke-width="1" opacity="0.75" />
			</g>
		</g>
		<g>
			<title> (ctg4_248)</title>
			<polygon class=" (ctg4_248)" points="434,25 412,25 412,10 382,40 412,70 412,55 434,55" fill="rgb(255,255,255)" fill-opacity="1.0" stroke="rgb(0,0,0)" stroke-width="2"  />
			<g>
				<title>MdoG (PF04349)
"Periplasmic glucan biosynthesis protein, MdoG"</title>
				<polygon class="PF04349" points="386,40 398,28 430,28 430,52 398,52" stroke-linejoin="round" width="48" height="24" fill="rgb(53,100,213)" stroke="rgb(42,80,170)" stroke-width="1" opacity="0.75" />
			</g>
		</g>
		<g>
			<title> (ctg4_249)</title>
			<polygon class=" (ctg4_249)" points="444,25 450,25 450,10 480,40 450,70 450,55 444,55" fill="rgb(255,255,255)" fill-opacity="1.0" stroke="rgb(0,0,0)" stroke-width="2"  />
			<g>
				<title>Acyl_transf_3 (PF01757)
"Acyltransferase family"</title>
				<polygon class="PF01757" points="444,28 464,28 476,40 464,52 444,52" stroke-linejoin="round" width="33" height="24" fill="rgb(50,152,200)" stroke="rgb(40,121,160)" stroke-width="1" opacity="0.75" />
			</g>
		</g>
		<g>
			<title> (ctg4_250)</title>
			<polygon class=" (ctg4_250)" points="531,25 513,25 513,10 483,40 513,70 513,55 531,55" fill="rgb(255,255,255)" fill-opacity="1.0" stroke="rgb(0,0,0)" stroke-width="2"  />
			<g>
				<title>PLDc_2 (PF13091)
"PLD-like domain"</title>
				<polygon class="PF13091" points="488,39 499,28 502,28 502,52 499,52 488,41" stroke-linejoin="round" width="14" height="24" fill="rgb(197,187,91)" stroke="rgb(157,149,72)" stroke-width="1" opacity="0.75" />
			</g>
			<g>
				<title>PLDc_2 (PF13091)
"PLD-like domain"</title>
				<rect class="PF13091" x="512" y="28" stroke-linejoin="round" width="14" height="24" fill="rgb(197,187,91)" stroke="rgb(157,149,72)" stroke-width="1" opacity="0.75" />
			</g>
		</g>
		<g>
			<title> (ctg4_251)</title>
			<polygon class=" (ctg4_251)" points="537,25 545,25 545,10 575,40 545,70 545,55 537,55" fill="rgb(255,255,255)" fill-opacity="1.0" stroke="rgb(0,0,0)" stroke-width="2"  />
		</g>
		<g>
			<title> (ctg4_252)</title>
			<polygon class=" (ctg4_252)" points="575,40 580,10 580,70" fill="rgb(255,255,255)" fill-opacity="1.0" stroke="rgb(0,0,0)" stroke-width="2"  />
		</g>
		<g>
			<title> (ctg4_253)</title>
			<polygon class=" (ctg4_253)" points="664,25 621,25 621,10 591,40 621,70 621,55 664,55" fill="rgb(255,255,255)" fill-opacity="1.0" stroke="rgb(0,0,0)" stroke-width="2"  />
			<g>
				<title>TonB_dep_Rec (PF00593)
"TonB dependent receptor"</title>
				<polygon class="PF00593" points="595,40 607,28 638,28 638,52 607,52" stroke-linejoin="round" width="47" height="24" fill="rgb(171,200,51)" stroke="rgb(136,160,40)" stroke-width="1" opacity="0.75" />
			</g>
			<g>
				<title>Plug (PF07715)
"TonB-dependent Receptor Plug Domain"</title>
				<rect class="PF07715" x="645" y="28" stroke-linejoin="round" width="9" height="24" fill="rgb(99,133,214)" stroke="rgb(79,106,171)" stroke-width="1" opacity="0.75" />
			</g>
		</g>
		<g>
			<title> (ctg4_254)</title>
			<polygon class=" (ctg4_254)" points="717,25 706,25 706,10 676,40 706,70 706,55 717,55" fill="rgb(255,255,255)" fill-opacity="1.0" stroke="rgb(0,0,0)" stroke-width="2"  />
			<g>
				<title>Ketoacyl-synt_C (PF02801)
"Beta-ketoacyl synthase, C-terminal domain"</title>
				<polygon class="PF02801" points="680,40 691,29 691,51 680,40" stroke-linejoin="round" width="11" height="24" fill="rgb(215,78,102)" stroke="rgb(172,62,81)" stroke-width="1" opacity="0.75" />
			</g>
			<g>
				<title>ketoacyl-synt (PF00109)
"Beta-ketoacyl synthase, N-terminal domain"</title>
				<polygon class="PF00109" points="692,28 692,28 716,28 716,52 692,52 692,52" stroke-linejoin="round" width="24" height="24" fill="rgb(112,116,228)" stroke="rgb(89,92,182)" stroke-width="1" opacity="0.75" />
			</g>
		</g>
		<g>
			<title> (ctg4_255)</title>
			<polygon class=" (ctg4_255)" points="717,40 741,10 741,70" fill="rgb(255,255,255)" fill-opacity="1.0" stroke="rgb(0,0,0)" stroke-width="2"  />
			<g>
				<title>adh_short_C2 (PF13561)
"Enoyl-(Acyl carrier protein) reductase"</title>
				<polygon class="PF13561" points="721,40 731,28 740,28 740,52 731,52" stroke-linejoin="round" width="23" height="24" fill="rgb(73,205,127)" stroke="rgb(58,164,101)" stroke-width="1" opacity="0.75" />
			</g>
		</g>
		<g>
			<title> (ctg4_256)</title>
			<polygon class=" (ctg4_256)" points="742,40 757,10 757,70" fill="rgb(255,255,255)" fill-opacity="1.0" stroke="rgb(0,0,0)" stroke-width="2"  />
		</g>
		<g>
			<title> (ctg4_257)</title>
			<polygon class=" (ctg4_257)" points="795,25 787,25 787,10 757,40 787,70 787,55 795,55" fill="rgb(255,255,255)" fill-opacity="1.0" stroke="rgb(0,0,0)" stroke-width="2"  />
			<g>
				<title>Ketoacyl-synt_C (PF02801)
"Beta-ketoacyl synthase, C-terminal domain"</title>
				<polygon class="PF02801" points="761,40 772,29 772,51 761,40" stroke-linejoin="round" width="11" height="24" fill="rgb(215,78,102)" stroke="rgb(172,62,81)" stroke-width="1" opacity="0.75" />
			</g>
			<g>
				<title>ketoacyl-synt (PF00109)
"Beta-ketoacyl synthase, N-terminal domain"</title>
				<polygon class="PF00109" points="772,29 773,28 789,28 789,52 773,52 772,51" stroke-linejoin="round" width="17" height="24" fill="rgb(112,116,228)" stroke="rgb(89,92,182)" stroke-width="1" opacity="0.75" />
			</g>
		</g>
		<g>
			<title> (ctg4_258)</title>
			<polygon class=" (ctg4_258)" points="796,40 815,10 815,70" fill="rgb(255,255,255)" fill-opacity="1.0" stroke="rgb(0,0,0)" stroke-width="2"  />
			<g>
				<title>DUF3261 (PF11659)
"Protein of unknown function (DUF3261)"</title>
				<polygon class="PF11659" points="800,40 808,28 809,28 809,52 808,52" stroke-linejoin="round" width="13" height="24" fill="rgb(224,86,172)" stroke="rgb(179,68,137)" stroke-width="1" opacity="0.75" />
			</g>
		</g>
		<g>
			<title> (ctg4_259)</title>
			<polygon class=" (ctg4_259)" points="892,25 845,25 845,10 815,40 845,70 845,55 892,55" fill="rgb(255,255,255)" fill-opacity="1.0" stroke="rgb(0,0,0)" stroke-width="2"  />
			<g>
				<title>MMPL (PF03176)
"MMPL family"</title>
				<rect class="PF03176" x="849" y="28" stroke-linejoin="round" width="22" height="24" fill="rgb(228,109,193)" stroke="rgb(182,87,154)" stroke-width="1" opacity="0.75" />
			</g>
		</g>
		<g>
			<title> (ctg4_260)</title>
			<polygon class=" (ctg4_260)" points="891,40 911,10 911,70" fill="rgb(255,255,255)" fill-opacity="1.0" stroke="rgb(0,0,0)" stroke-width="2"  />
			<g>
				<title>LolA_3 (PF19574)
"Outer membrane lipoprotein carrier protein LolA-like"</title>
				<polygon class="PF19574" points="895,40 903,28 909,28 909,52 903,52" stroke-linejoin="round" width="18" height="24" fill="rgb(55,185,49)" stroke="rgb(43,148,39)" stroke-width="1" opacity="0.75" />
			</g>
		</g>
		<g>
			<title> (ctg4_261)</title>
			<polygon class=" (ctg4_261)" points="911,40 924,10 924,70" fill="rgb(255,255,255)" fill-opacity="1.0" stroke="rgb(0,0,0)" stroke-width="2"  />
			<g>
				<title>4HBT_2 (PF13279)
"Thioesterase-like superfamily"</title>
				<polygon class="PF13279" points="914,40 920,28 922,28 922,52 920,52" stroke-linejoin="round" width="11" height="24" fill="rgb(213,114,82)" stroke="rgb(170,91,65)" stroke-width="1" opacity="0.75" />
			</g>
		</g>
		<g>
			<title> (ctg4_262)</title>
			<polygon class=" (ctg4_262)" points="981,25 955,25 955,10 925,40 955,70 955,55 981,55" fill="rgb(255,255,255)" fill-opacity="1.0" stroke="rgb(0,0,0)" stroke-width="2"  />
			<g>
				<title>Glycos_transf_2 (PF00535)
"Glycosyl transferase family 2"</title>
				<rect class="PF00535" x="964" y="28" stroke-linejoin="round" width="16" height="24" fill="rgb(224,122,96)" stroke="rgb(179,97,76)" stroke-width="1" opacity="0.75" />
			</g>
		</g>
		<g>
			<title> (ctg4_263)</title>
			<polygon class=" (ctg4_263)" points="981,40 992,10 992,70" fill="rgb(255,255,255)" fill-opacity="1.0" stroke="rgb(0,0,0)" stroke-width="2"  />
			<g>
				<title>FabA (PF07977)
"FabA-like domain"</title>
				<polygon class="PF07977" points="984,40 989,28 991,28 991,52 989,52" stroke-linejoin="round" width="10" height="24" fill="rgb(66,205,188)" stroke="rgb(52,164,150)" stroke-width="1" opacity="0.75" />
			</g>
		</g>
		<g>
			<title> (ctg4_264)</title>
			<polygon class=" (ctg4_264)" points="1036,25 1022,25 1022,10 992,40 1022,70 1022,55 1036,55" fill="rgb(255,255,255)" fill-opacity="1.0" stroke="rgb(0,0,0)" stroke-width="2"  />
			<g>
				<title>AMP-binding (PF00501)
"AMP-binding enzyme"</title>
				<polygon class="PF00501" points="1006,30 1008,28 1028,28 1028,52 1008,52 1006,50" stroke-linejoin="round" width="22" height="24" fill="rgb(60,217,223)" stroke="rgb(48,173,178)" stroke-width="1" opacity="0.75" />
			</g>
		</g>
		<g>
			<title> (ctg4_265)</title>
			<polygon class=" (ctg4_265)" points="1036,40 1054,10 1054,70" fill="rgb(255,255,255)" fill-opacity="1.0" stroke="rgb(0,0,0)" stroke-width="2"  />
		</g>
		<g>
			<title> (ctg4_266)</title>
			<polygon class=" (ctg4_266)" points="1055,40 1063,10 1063,70" fill="rgb(255,255,255)" fill-opacity="1.0" stroke="rgb(0,0,0)" stroke-width="2"  />
			<g>
				<title>PP-binding (PF00550)
"Phosphopantetheine attachment site"</title>
				<polygon class="PF00550" points="1058,40 1061,28 1061,28 1061,52 1061,52" stroke-linejoin="round" width="6" height="24" fill="rgb(103,191,88)" stroke="rgb(82,152,70)" stroke-width="1" opacity="0.75" />
			</g>
		</g>
		<g>
			<title> (ctg4_267)</title>
			<polygon class=" (ctg4_267)" points="1064,40 1072,10 1072,70" fill="rgb(255,255,255)" fill-opacity="1.0" stroke="rgb(0,0,0)" stroke-width="2"  />
			<g>
				<title>PP-binding (PF00550)
"Phosphopantetheine attachment site"</title>
				<polygon class="PF00550" points="1067,40 1070,28 1071,28 1071,52 1070,52" stroke-linejoin="round" width="7" height="24" fill="rgb(103,191,88)" stroke="rgb(82,152,70)" stroke-width="1" opacity="0.75" />
			</g>
		</g>
		<g>
			<title> (ctg4_268)</title>
			<polygon class=" (ctg4_268)" points="1073,40 1099,10 1099,70" fill="rgb(255,255,255)" fill-opacity="1.0" stroke="rgb(0,0,0)" stroke-width="2"  />
			<g>
				<title>Acyltransferase (PF01553)
"Acyltransferase"</title>
				<polygon class="PF01553" points="1079,38 1088,28 1091,28 1091,52 1088,52 1079,42" stroke-linejoin="round" width="12" height="24" fill="rgb(87,176,216)" stroke="rgb(69,140,172)" stroke-width="1" opacity="0.75" />
			</g>
		</g>
		<g>
			<title> (ctg4_269)</title>
			<polygon class=" (ctg4_269)" points="1099,40 1123,10 1123,70" fill="rgb(255,255,255)" fill-opacity="1.0" stroke="rgb(0,0,0)" stroke-width="2"  />
			<g>
				<title>Ketoacyl-synt_2 (PF13723)
"Beta-ketoacyl synthase, N-terminal domain"</title>
				<polygon class="PF13723" points="1103,40 1113,28 1120,28 1120,52 1113,52" stroke-linejoin="round" width="21" height="24" fill="rgb(57,130,212)" stroke="rgb(45,103,169)" stroke-width="1" opacity="0.75" />
			</g>
		</g>
		<g>
			<title> (ctg4_270)</title>
			<polygon class=" (ctg4_270)" points="1130,40 1143,10 1143,70" fill="rgb(255,255,255)" fill-opacity="1.0" stroke="rgb(0,0,0)" stroke-width="2"  />
		</g>
		<g>
			<title> (ctg4_271)</title>
			<polygon class=" (ctg4_271)" points="1196,25 1181,25 1181,10 1151,40 1181,70 1181,55 1196,55" fill="rgb(255,255,255)" fill-opacity="1.0" stroke="rgb(0,0,0)" stroke-width="2"  />
			<g>
				<title>OEP (PF02321)
"Outer membrane efflux protein"</title>
				<polygon class="PF02321" points="1155,40 1167,28 1169,28 1169,52 1167,52" stroke-linejoin="round" width="18" height="24" fill="rgb(205,57,201)" stroke="rgb(164,45,160)" stroke-width="1" opacity="0.75" />
			</g>
			<g>
				<title>OEP (PF02321)
"Outer membrane efflux protein"</title>
				<rect class="PF02321" x="1172" y="28" stroke-linejoin="round" width="18" height="24" fill="rgb(205,57,201)" stroke="rgb(164,45,160)" stroke-width="1" opacity="0.75" />
			</g>
		</g>
		<g>
			<title> (ctg4_272)</title>
			<polygon class=" (ctg4_272)" points="1232,25 1226,25 1226,10 1196,40 1226,70 1226,55 1232,55" fill="rgb(255,255,255)" fill-opacity="1.0" stroke="rgb(0,0,0)" stroke-width="2"  />
			<g>
				<title>HlyD_D23 (PF16576)
"Barrel-sandwich domain of CusB or HlyD membrane-fusion"</title>
				<polygon class="PF16576" points="1201,39 1212,28 1215,28 1215,52 1212,52 1201,41" stroke-linejoin="round" width="14" height="24" fill="rgb(70,190,92)" stroke="rgb(56,152,73)" stroke-width="1" opacity="0.75" />
			</g>
			<g>
				<title>Biotin_lipoyl_2 (PF13533)
"Biotin-lipoyl like"</title>
				<rect class="PF13533" x="1221" y="28" stroke-linejoin="round" width="4" height="24" fill="rgb(229,122,112)" stroke="rgb(183,97,89)" stroke-width="1" opacity="0.75" />
			</g>
		</g>
		<g>
			<title> (ctg4_273)</title>
			<polygon class=" (ctg4_273)" points="1289,25 1263,25 1263,10 1233,40 1263,70 1263,55 1289,55" fill="rgb(255,255,255)" fill-opacity="1.0" stroke="rgb(0,0,0)" stroke-width="2"  />
			<g>
				<title>MFS_1 (PF07690)
"Major Facilitator Superfamily"</title>
				<polygon class="PF07690" points="1245,32 1249,28 1284,28 1284,52 1249,52 1245,48" stroke-linejoin="round" width="39" height="24" fill="rgb(193,224,74)" stroke="rgb(154,179,59)" stroke-width="1" opacity="0.75" />
			</g>
		</g>
		<g>
			<title> (ctg4_274)</title>
			<polygon class=" (ctg4_274)" points="1289,40 1300,10 1300,70" fill="rgb(255,255,255)" fill-opacity="1.0" stroke="rgb(0,0,0)" stroke-width="2"  />
			<g>
				<title>MarR (PF01047)
"MarR family"</title>
				<polygon class="PF01047" points="1294,35 1296,28 1299,28 1299,52 1296,52 1294,45" stroke-linejoin="round" width="5" height="24" fill="rgb(60,185,86)" stroke="rgb(48,148,68)" stroke-width="1" opacity="0.75" />
			</g>
		</g>
		<g>
			<title> (ctg4_275)</title>
			<polygon class=" (ctg4_275)" points="1319,10 1327,40 1319,70" fill="rgb(255,255,255)" fill-opacity="1.0" stroke="rgb(0,0,0)" stroke-width="2"  />
			<g>
				<title>YmgB (PF10798)
"Biofilm development protein YmgB/AriR"</title>
				<polygon class="PF10798" points="1321,28 1324,40 1321,52" stroke-linejoin="round" width="5" height="24" fill="rgb(65,182,55)" stroke="rgb(52,145,44)" stroke-width="1" opacity="0.75" />
			</g>
		</g>
		<g>
			<title> (ctg4_276)</title>
			<polygon class=" (ctg4_276)" points="1333,25 1352,25 1352,10 1382,40 1352,70 1352,55 1333,55" fill="rgb(255,255,255)" fill-opacity="1.0" stroke="rgb(0,0,0)" stroke-width="2"  />
			<g>
				<title>Sulfate_transp (PF00916)
"Sulfate permease family"</title>
				<rect class="PF00916" x="1335" y="28" stroke-linejoin="round" width="13" height="24" fill="rgb(189,61,212)" stroke="rgb(151,48,169)" stroke-width="1" opacity="0.75" />
			</g>
			<g>
				<title>Sulfate_transp (PF00916)
"Sulfate permease family"</title>
				<polygon class="PF00916" points="1348,28 1366,28 1369,31 1369,49 1366,52 1348,52" stroke-linejoin="round" width="21" height="24" fill="rgb(189,61,212)" stroke="rgb(151,48,169)" stroke-width="1" opacity="0.75" />
			</g>
			<g>
				<title>STAS (PF01740)
"STAS domain"</title>
				<polygon class="PF01740" points="1373,35 1378,40 1373,45" stroke-linejoin="round" width="8" height="24" fill="rgb(219,58,116)" stroke="rgb(175,46,92)" stroke-width="1" opacity="0.75" />
			</g>
		</g>
		<g>
			<title> (ctg4_277)</title>
			<polygon class=" (ctg4_277)" points="1387,10 1393,40 1387,70" fill="rgb(255,255,255)" fill-opacity="1.0" stroke="rgb(0,0,0)" stroke-width="2"  />
		</g>
		<g>
			<title> (ctg4_278)</title>
			<polygon class=" (ctg4_278)" points="1417,40 1435,10 1435,70" fill="rgb(255,255,255)" fill-opacity="1.0" stroke="rgb(0,0,0)" stroke-width="2"  />
			<g>
				<title>CDP-OH_P_transf (PF01066)
"CDP-alcohol phosphatidyltransferase"</title>
				<polygon class="PF01066" points="1421,40 1428,28 1434,28 1434,52 1428,52" stroke-linejoin="round" width="16" height="24" fill="rgb(100,201,161)" stroke="rgb(80,160,128)" stroke-width="1" opacity="0.75" />
			</g>
		</g>
		<g>
			<title> (ctg4_279)</title>
			<polygon class=" (ctg4_279)" points="1498,25 1467,25 1467,10 1437,40 1467,70 1467,55 1498,55" fill="rgb(255,255,255)" fill-opacity="1.0" stroke="rgb(0,0,0)" stroke-width="2"  />
			<g>
				<title>HHH_5 (PF14520)
"Helix-hairpin-helix domain"</title>
				<polygon class="PF14520" points="1441,40 1442,39 1442,41" stroke-linejoin="round" width="5" height="24" fill="rgb(118,220,87)" stroke="rgb(94,176,69)" stroke-width="1" opacity="0.75" />
			</g>
			<g>
				<title>UvrC_RNaseH_dom (PF08459)
"UvrC RNAse H endonuclease domain"</title>
				<polygon class="PF08459" points="1443,38 1453,28 1458,28 1458,52 1453,52 1443,42" stroke-linejoin="round" width="15" height="24" fill="rgb(207,95,75)" stroke="rgb(165,75,60)" stroke-width="1" opacity="0.75" />
			</g>
			<g>
				<title>UVR (PF02151)
"UvrB/uvrC motif"</title>
				<rect class="PF02151" x="1474" y="28" stroke-linejoin="round" width="3" height="24" fill="rgb(179,74,81)" stroke="rgb(143,59,64)" stroke-width="1" opacity="0.75" />
			</g>
			<g>
				<title>GIY-YIG (PF01541)
"GIY-YIG catalytic domain"</title>
				<rect class="PF01541" x="1488" y="28" stroke-linejoin="round" width="7" height="24" fill="rgb(77,220,57)" stroke="rgb(61,176,45)" stroke-width="1" opacity="0.75" />
			</g>
		</g>
		<g>
			<title> (ctg4_280)</title>
			<polygon class=" (ctg4_280)" points="1498,40 1520,10 1520,70" fill="rgb(255,255,255)" fill-opacity="1.0" stroke="rgb(0,0,0)" stroke-width="2"  />
			<g>
				<title>GerE (PF00196)
"Bacterial regulatory proteins, luxR family"</title>
				<polygon class="PF00196" points="1502,40 1504,37 1504,43" stroke-linejoin="round" width="5" height="24" fill="rgb(219,94,82)" stroke="rgb(175,75,65)" stroke-width="1" opacity="0.75" />
			</g>
			<g>
				<title>Response_reg (PF00072)
"Response regulator receiver domain"</title>
				<polygon class="PF00072" points="1508,32 1511,28 1519,28 1519,52 1511,52 1508,48" stroke-linejoin="round" width="11" height="24" fill="rgb(100,107,203)" stroke="rgb(80,85,162)" stroke-width="1" opacity="0.75" />
			</g>
		</g>
		<g>
			<title> (ctg4_281)</title>
			<polygon class=" (ctg4_281)" points="1534,10 1541,40 1534,70" fill="rgb(255,255,255)" fill-opacity="1.0" stroke="rgb(0,0,0)" stroke-width="2"  />
			<g>
				<title>DUF2594 (PF10769)
"Protein of unknown function (DUF2594)"</title>
				<polygon class="PF10769" points="1534,28 1535,28 1538,40 1535,52 1534,52" stroke-linejoin="round" width="7" height="24" fill="rgb(61,191,181)" stroke="rgb(48,152,144)" stroke-width="1" opacity="0.75" />
			</g>
		</g>
		<g>
			<title> (ctg4_282)</title>
			<polygon class=" (ctg4_282)" points="1543,40 1563,10 1563,70" fill="rgb(255,255,255)" fill-opacity="1.0" stroke="rgb(0,0,0)" stroke-width="2"  />
			<g>
				<title>Autoind_synth (PF00765)
"Autoinducer synthase"</title>
				<polygon class="PF00765" points="1549,37 1555,28 1562,28 1562,52 1555,52 1549,43" stroke-linejoin="round" width="13" height="24" fill="rgb(197,72,80)" stroke="rgb(157,57,64)" stroke-width="1" opacity="0.75" />
			</g>
		</g>
		<g>
			<title> (ctg4_283)</title>
			<polygon class=" (ctg4_283)" points="1567,40 1591,10 1591,70" fill="rgb(255,255,255)" fill-opacity="1.0" stroke="rgb(0,0,0)" stroke-width="2"  />
			<g>
				<title>GerE (PF00196)
"Bacterial regulatory proteins, luxR family"</title>
				<polygon class="PF00196" points="1571,40 1572,39 1572,41" stroke-linejoin="round" width="5" height="24" fill="rgb(219,94,82)" stroke="rgb(175,75,65)" stroke-width="1" opacity="0.75" />
			</g>
			<g>
				<title>Autoind_bind (PF03472)
"Autoinducer binding domain"</title>
				<polygon class="PF03472" points="1574,36 1581,28 1588,28 1588,52 1581,52 1574,44" stroke-linejoin="round" width="14" height="24" fill="rgb(99,181,52)" stroke="rgb(79,144,41)" stroke-width="1" opacity="0.75" />
			</g>
		</g>
		<g>
			<title> (ctg4_284)</title>
			<polygon class=" (ctg4_284)" points="1610,10 1632,40 1610,70" fill="rgb(255,255,255)" fill-opacity="1.0" stroke="rgb(0,0,0)" stroke-width="2"  />
			<g>
				<title>DUF4396 (PF14342)
"Domain of unknown function (DUF4396)"</title>
				<polygon class="PF14342" points="1617,28 1620,28 1628,40 1620,52 1617,52" stroke-linejoin="round" width="14" height="24" fill="rgb(155,209,76)" stroke="rgb(124,167,60)" stroke-width="1" opacity="0.75" />
			</g>
		</g>
		<g>
			<title> (ctg4_285)</title>
			<polygon class=" (ctg4_285)" points="1632,40 1655,10 1655,70" fill="rgb(255,255,255)" fill-opacity="1.0" stroke="rgb(0,0,0)" stroke-width="2"  />
			<g>
				<title>Extensin-like_C (PF06904)
"Extensin-like protein C-terminus"</title>
				<polygon class="PF06904" points="1636,40 1645,28 1649,28 1649,52 1645,52" stroke-linejoin="round" width="17" height="24" fill="rgb(158,179,61)" stroke="rgb(126,143,48)" stroke-width="1" opacity="0.75" />
			</g>
		</g>
		<g>
			<title> (ctg4_286)</title>
			<polygon class=" (ctg4_286)" points="1665,25 1681,25 1681,10 1711,40 1681,70 1681,55 1665,55" fill="rgb(255,255,255)" fill-opacity="1.0" stroke="rgb(0,0,0)" stroke-width="2"  />
			<g>
				<title>AA_permease (PF00324)
"Amino acid permease"</title>
				<polygon class="PF00324" points="1667,28 1695,28 1707,40 1695,52 1667,52" stroke-linejoin="round" width="43" height="24" fill="rgb(82,225,201)" stroke="rgb(65,180,160)" stroke-width="1" opacity="0.75" />
			</g>
		</g>
		<g>
			<title> (ctg4_287)</title>
			<polygon class=" (ctg4_287)" points="1745,25 1743,25 1743,10 1713,40 1743,70 1743,55 1745,55" fill="rgb(255,255,255)" fill-opacity="1.0" stroke="rgb(0,0,0)" stroke-width="2"  />
			<g>
				<title>YdjM (PF04307)
"LexA-binding, inner membrane-associated putative hydrolase"</title>
				<polygon class="PF04307" points="1727,30 1729,28 1745,28 1745,52 1729,52 1727,50" stroke-linejoin="round" width="18" height="24" fill="rgb(140,223,68)" stroke="rgb(112,178,54)" stroke-width="1" opacity="0.75" />
			</g>
		</g>
		<g>
			<title> (ctg4_288)</title>
			<polygon class=" (ctg4_288)" points="1746,40 1767,10 1767,70" fill="rgb(255,255,255)" fill-opacity="1.0" stroke="rgb(0,0,0)" stroke-width="2"  />
			<g>
				<title>TetR_C_3 (PF08362)
"YcdC-like protein, C-terminal region"</title>
				<polygon class="PF08362" points="1750,40 1758,28 1760,28 1760,52 1758,52" stroke-linejoin="round" width="14" height="24" fill="rgb(208,186,82)" stroke="rgb(166,148,65)" stroke-width="1" opacity="0.75" />
			</g>
			<g>
				<title>TetR_N (PF00440)
"Bacterial regulatory proteins, tetR family"</title>
				<rect class="PF00440" x="1760" y="28" stroke-linejoin="round" width="4" height="24" fill="rgb(73,212,190)" stroke="rgb(58,169,152)" stroke-width="1" opacity="0.75" />
			</g>
		</g>
		<g>
			<title> (ctg4_289)</title>
			<polygon class=" (ctg4_289)" points="1778,25 1784,25 1784,10 1814,40 1784,70 1784,55 1778,55" fill="rgb(255,255,255)" fill-opacity="1.0" stroke="rgb(0,0,0)" stroke-width="2"  />
			<g>
				<title>Bac_luciferase (PF00296)
"Luciferase-like monooxygenase"</title>
				<polygon class="PF00296" points="1778,28 1798,28 1810,40 1810,40 1798,52 1778,52" stroke-linejoin="round" width="32" height="24" fill="rgb(180,112,78)" stroke="rgb(144,89,62)" stroke-width="1" opacity="0.75" />
			</g>
		</g>
		<g>
			<title> (ctg4_290)</title>
			<polygon class=" (ctg4_290)" points="1814,10 1837,40 1814,70" fill="rgb(255,255,255)" fill-opacity="1.0" stroke="rgb(0,0,0)" stroke-width="2"  />
			<g>
				<title>Isochorismatase (PF00857)
"Isochorismatase family"</title>
				<polygon class="PF00857" points="1817,28 1824,28 1833,40 1824,52 1817,52" stroke-linejoin="round" width="19" height="24" fill="rgb(144,224,70)" stroke="rgb(115,179,56)" stroke-width="1" opacity="0.75" />
			</g>
		</g>
		<g>
			<title> (ctg4_291)</title>
			<polygon class=" (ctg4_291)" points="1839,10 1852,40 1839,70" fill="rgb(255,255,255)" fill-opacity="1.0" stroke="rgb(0,0,0)" stroke-width="2"  />
			<g>
				<title>Ribonuc_L-PSP (PF01042)
"Endoribonuclease L-PSP"</title>
				<polygon class="PF01042" points="1840,28 1843,28 1848,40 1843,52 1840,52" stroke-linejoin="round" width="11" height="24" fill="rgb(93,120,208)" stroke="rgb(74,96,166)" stroke-width="1" opacity="0.75" />
			</g>
		</g>
		<g>
			<title> (ctg4_292)</title>
			<polygon class=" (ctg4_292)" points="1852,10 1878,40 1852,70" fill="rgb(255,255,255)" fill-opacity="1.0" stroke="rgb(0,0,0)" stroke-width="2"  />
			<g>
				<title>Abhydrolase_1 (PF00561)
"alpha/beta hydrolase fold"</title>
				<polygon class="PF00561" points="1853,28 1863,28 1864,28 1864,52 1863,52 1853,52" stroke-linejoin="round" width="11" height="24" fill="rgb(86,180,151)" stroke="rgb(68,144,120)" stroke-width="1" opacity="0.75" />
			</g>
		</g>
	</g>
</svg>
