<svg version="1.1" baseProfile="full" xmlns="http://www.w3.org/2000/svg" width="1392.0333333333333" height="80">
	<g>
		<line x1="10" y1="40.0" x2="1382.0333333333333" y2="40.0" style="stroke:rgb(70,70,70); stroke-width:3 "/>
		<g>
			<title> (ctg1_685)</title>
			<polygon class=" (ctg1_685)" points="38,25 46,25 46,10 76,40 46,70 46,55 38,55" fill="rgb(255,255,255)" fill-opacity="1.0" stroke="rgb(0,0,0)" stroke-width="2"  />
			<g>
				<title>MFS_1 (PF07690)
"Major Facilitator Superfamily"</title>
				<polygon class="PF07690" points="39,28 60,28 61,29 61,51 60,52 39,52" stroke-linejoin="round" width="22" height="24" fill="rgb(193,224,74)" stroke="rgb(154,179,59)" stroke-width="1" opacity="0.75" />
			</g>
		</g>
		<g>
			<title> (ctg1_686)</title>
			<polygon class=" (ctg1_686)" points="84,10 103,40 84,70" fill="rgb(255,255,255)" fill-opacity="1.0" stroke="rgb(0,0,0)" stroke-width="2"  />
			<g>
				<title>Pentapeptide_4 (PF13599)
"Pentapeptide repeats (9 copies)"</title>
				<polygon class="PF13599" points="89,28 92,28 95,33 95,47 92,52 89,52" stroke-linejoin="round" width="6" height="24" fill="rgb(228,182,106)" stroke="rgb(182,145,84)" stroke-width="1" opacity="0.75" />
			</g>
		</g>
		<g>
			<title> (ctg1_687)</title>
			<polygon class=" (ctg1_687)" points="112,10 123,40 112,70" fill="rgb(255,255,255)" fill-opacity="1.0" stroke="rgb(0,0,0)" stroke-width="2"  />
			<g>
				<title>Multi_Drug_Res (PF00893)
"Small Multidrug Resistance protein"</title>
				<polygon class="PF00893" points="112,28 115,28 120,40 120,40 115,52 112,52" stroke-linejoin="round" width="8" height="24" fill="rgb(199,75,202)" stroke="rgb(159,60,161)" stroke-width="1" opacity="0.75" />
			</g>
		</g>
		<g>
			<title> (ctg1_688)</title>
			<polygon class=" (ctg1_688)" points="123,10 133,40 123,70" fill="rgb(255,255,255)" fill-opacity="1.0" stroke="rgb(0,0,0)" stroke-width="2"  />
			<g>
				<title>Multi_Drug_Res (PF00893)
"Small Multidrug Resistance protein"</title>
				<polygon class="PF00893" points="123,28 125,28 130,40 125,52 123,52" stroke-linejoin="round" width="9" height="24" fill="rgb(199,75,202)" stroke="rgb(159,60,161)" stroke-width="1" opacity="0.75" />
			</g>
		</g>
		<g>
			<title> (ctg1_689)</title>
			<polygon class=" (ctg1_689)" points="137,25 151,25 151,10 181,40 151,70 151,55 137,55" fill="rgb(255,255,255)" fill-opacity="1.0" stroke="rgb(0,0,0)" stroke-width="2"  />
			<g>
				<title>DEAD (PF00270)
"DEAD/DEAH box helicase"</title>
				<rect class="PF00270" x="139" y="28" stroke-linejoin="round" width="17" height="24" fill="rgb(195,100,62)" stroke="rgb(156,80,49)" stroke-width="1" opacity="0.75" />
			</g>
			<g>
				<title>Helicase_C (PF00271)
"Helicase conserved C-terminal domain"</title>
				<polygon class="PF00271" points="160,28 165,28 171,34 171,46 165,52 160,52" stroke-linejoin="round" width="11" height="24" fill="rgb(104,224,158)" stroke="rgb(83,179,126)" stroke-width="1" opacity="0.75" />
			</g>
		</g>
		<g>
			<title> (ctg1_690)</title>
			<polygon class=" (ctg1_690)" points="191,25 192,25 192,10 222,40 192,70 192,55 191,55" fill="rgb(255,255,255)" fill-opacity="1.0" stroke="rgb(0,0,0)" stroke-width="2"  />
			<g>
				<title>HTH_5 (PF01022)
"Bacterial regulatory protein, arsR family"</title>
				<rect class="PF01022" x="193" y="28" stroke-linejoin="round" width="4" height="24" fill="rgb(95,208,123)" stroke="rgb(76,166,98)" stroke-width="1" opacity="0.75" />
			</g>
		</g>
		<g>
			<title> (ctg1_691)</title>
			<polygon class=" (ctg1_691)" points="229,25 242,25 242,10 272,40 242,70 242,55 229,55" fill="rgb(255,255,255)" fill-opacity="1.0" stroke="rgb(0,0,0)" stroke-width="2"  />
			<g>
				<title>SBP_bac_1 (PF01547)
"Bacterial extracellular solute-binding protein"</title>
				<polygon class="PF01547" points="233,28 255,28 262,35 262,45 255,52 233,52" stroke-linejoin="round" width="29" height="24" fill="rgb(195,119,75)" stroke="rgb(156,95,60)" stroke-width="1" opacity="0.75" />
			</g>
		</g>
		<g>
			<title> (ctg1_692)</title>
			<polygon class=" (ctg1_692)" points="276,10 304,40 276,70" fill="rgb(255,255,255)" fill-opacity="1.0" stroke="rgb(0,0,0)" stroke-width="2"  />
			<g>
				<title>BPD_transp_1 (PF00528)
"Binding-protein-dependent transport system inner membrane component"</title>
				<polygon class="PF00528" points="281,28 288,28 300,40 288,52 281,52" stroke-linejoin="round" width="23" height="24" fill="rgb(77,208,225)" stroke="rgb(61,166,180)" stroke-width="1" opacity="0.75" />
			</g>
		</g>
		<g>
			<title> (ctg1_693)</title>
			<polygon class=" (ctg1_693)" points="304,10 330,40 304,70" fill="rgb(255,255,255)" fill-opacity="1.0" stroke="rgb(0,0,0)" stroke-width="2"  />
			<g>
				<title>BPD_transp_1 (PF00528)
"Binding-protein-dependent transport system inner membrane component"</title>
				<polygon class="PF00528" points="311,28 315,28 326,40 315,52 311,52" stroke-linejoin="round" width="18" height="24" fill="rgb(77,208,225)" stroke="rgb(61,166,180)" stroke-width="1" opacity="0.75" />
			</g>
		</g>
		<g>
			<title> (ctg1_694)</title>
			<polygon class=" (ctg1_694)" points="334,25 362,25 362,10 392,40 362,70 362,55 334,55" fill="rgb(255,255,255)" fill-opacity="1.0" stroke="rgb(0,0,0)" stroke-width="2"  />
			<g>
				<title>Glyco_hydro_2_N (PF02837)
"Glycosyl hydrolases family 2, sugar binding domain"</title>
				<rect class="PF02837" x="336" y="28" stroke-linejoin="round" width="16" height="24" fill="rgb(159,68,216)" stroke="rgb(127,54,172)" stroke-width="1" opacity="0.75" />
			</g>
			<g>
				<title>Glyco_hydro_2 (PF00703)
"Glycosyl hydrolases family 2"</title>
				<rect class="PF00703" x="352" y="28" stroke-linejoin="round" width="10" height="24" fill="rgb(199,91,180)" stroke="rgb(159,72,144)" stroke-width="1" opacity="0.75" />
			</g>
			<g>
				<title>Glyco_hydro_2_C (PF02836)
"Glycosyl hydrolases family 2, TIM barrel domain"</title>
				<polygon class="PF02836" points="363,28 376,28 388,40 376,52 363,52" stroke-linejoin="round" width="29" height="24" fill="rgb(92,103,201)" stroke="rgb(73,82,160)" stroke-width="1" opacity="0.75" />
			</g>
		</g>
		<g>
			<title> (ctg1_695)</title>
			<polygon class=" (ctg1_695)" points="402,40 416,10 416,70" fill="rgb(255,255,255)" fill-opacity="1.0" stroke="rgb(0,0,0)" stroke-width="2"  />
			<g>
				<title>MaoC_dehydratas (PF01575)
"MaoC like domain"</title>
				<polygon class="PF01575" points="405,40 411,28 415,28 415,52 411,52" stroke-linejoin="round" width="12" height="24" fill="rgb(218,129,86)" stroke="rgb(174,103,68)" stroke-width="1" opacity="0.75" />
			</g>
		</g>
		<g>
			<title> (ctg1_696)</title>
			<polygon class=" (ctg1_696)" points="417,40 446,10 446,70" fill="rgb(255,255,255)" fill-opacity="1.0" stroke="rgb(0,0,0)" stroke-width="2"  />
			<g>
				<title>SIS (PF01380)
"SIS domain"</title>
				<polygon class="PF01380" points="421,40 432,29 432,51" stroke-linejoin="round" width="12" height="24" fill="rgb(212,106,227)" stroke="rgb(169,84,181)" stroke-width="1" opacity="0.75" />
			</g>
			<g>
				<title>HTH_6 (PF01418)
"Helix-turn-helix domain, rpiR family"</title>
				<rect class="PF01418" x="438" y="28" stroke-linejoin="round" width="7" height="24" fill="rgb(214,118,93)" stroke="rgb(171,94,74)" stroke-width="1" opacity="0.75" />
			</g>
		</g>
		<g>
			<title> (ctg1_697)</title>
			<polygon class=" (ctg1_697)" points="452,25 456,25 456,10 486,40 456,70 456,55 452,55" fill="rgb(255,255,255)" fill-opacity="1.0" stroke="rgb(0,0,0)" stroke-width="2"  />
			<g>
				<title>GFO_IDH_MocA (PF01408)
"Oxidoreductase family, NAD-binding Rossmann fold"</title>
				<rect class="PF01408" x="452" y="28" stroke-linejoin="round" width="11" height="24" fill="rgb(76,117,190)" stroke="rgb(60,93,152)" stroke-width="1" opacity="0.75" />
			</g>
			<g>
				<title>GFO_IDH_MocA_C (PF02894)
"Oxidoreductase family, C-terminal alpha/beta domain"</title>
				<polygon class="PF02894" points="465,28 469,28 481,40 469,52 465,52" stroke-linejoin="round" width="20" height="24" fill="rgb(195,223,82)" stroke="rgb(155,178,65)" stroke-width="1" opacity="0.75" />
			</g>
		</g>
		<g>
			<title> (ctg1_698)</title>
			<polygon class=" (ctg1_698)" points="493,10 522,40 493,70" fill="rgb(255,255,255)" fill-opacity="1.0" stroke="rgb(0,0,0)" stroke-width="2"  />
			<g>
				<title>AraC_binding (PF02311)
"AraC-like ligand binding domain"</title>
				<polygon class="PF02311" points="494,28 506,28 509,31 509,49 506,52 494,52" stroke-linejoin="round" width="15" height="24" fill="rgb(81,203,213)" stroke="rgb(64,162,170)" stroke-width="1" opacity="0.75" />
			</g>
			<g>
				<title>HTH_18 (PF12833)
"Helix-turn-helix domain"</title>
				<polygon class="PF12833" points="513,35 518,40 513,45" stroke-linejoin="round" width="7" height="24" fill="rgb(216,58,224)" stroke="rgb(172,46,179)" stroke-width="1" opacity="0.75" />
			</g>
		</g>
		<g>
			<title> (ctg1_699)</title>
			<polygon class=" (ctg1_699)" points="525,25 537,25 537,10 567,40 537,70 537,55 525,55" fill="rgb(255,255,255)" fill-opacity="1.0" stroke="rgb(0,0,0)" stroke-width="2"  />
			<g>
				<title>SBP_bac_8 (PF13416)
"Bacterial extracellular solute-binding protein"</title>
				<polygon class="PF13416" points="529,28 551,28 559,36 559,44 551,52 529,52" stroke-linejoin="round" width="30" height="24" fill="rgb(66,211,58)" stroke="rgb(52,168,46)" stroke-width="1" opacity="0.75" />
			</g>
		</g>
		<g>
			<title> (ctg1_700)</title>
			<polygon class=" (ctg1_700)" points="569,10 598,40 569,70" fill="rgb(255,255,255)" fill-opacity="1.0" stroke="rgb(0,0,0)" stroke-width="2"  />
			<g>
				<title>BPD_transp_1 (PF00528)
"Binding-protein-dependent transport system inner membrane component"</title>
				<polygon class="PF00528" points="577,28 582,28 594,40 582,52 577,52" stroke-linejoin="round" width="21" height="24" fill="rgb(77,208,225)" stroke="rgb(61,166,180)" stroke-width="1" opacity="0.75" />
			</g>
		</g>
		<g>
			<title> (ctg1_701)</title>
			<polygon class=" (ctg1_701)" points="600,10 629,40 600,70" fill="rgb(255,255,255)" fill-opacity="1.0" stroke="rgb(0,0,0)" stroke-width="2"  />
			<g>
				<title>BPD_transp_1 (PF00528)
"Binding-protein-dependent transport system inner membrane component"</title>
				<polygon class="PF00528" points="610,28 613,28 625,40 613,52 610,52" stroke-linejoin="round" width="18" height="24" fill="rgb(77,208,225)" stroke="rgb(61,166,180)" stroke-width="1" opacity="0.75" />
			</g>
		</g>
		<g>
			<title> (ctg1_702)</title>
			<polygon class=" (ctg1_702)" points="638,25 638,25 638,10 668,40 638,70 638,55 638,55" fill="rgb(255,255,255)" fill-opacity="1.0" stroke="rgb(0,0,0)" stroke-width="2"  />
			<g>
				<title>FAD_binding_4 (PF01565)
"FAD binding domain"</title>
				<polygon class="PF01565" points="641,28 652,28 654,30 654,50 652,52 641,52" stroke-linejoin="round" width="13" height="24" fill="rgb(226,88,136)" stroke="rgb(180,70,108)" stroke-width="1" opacity="0.75" />
			</g>
			<g>
				<title>MurB_C (PF02873)
"UDP-N-acetylenolpyruvoylglucosamine reductase, C-terminal domain"</title>
				<polygon class="PF02873" points="658,34 664,40 658,46" stroke-linejoin="round" width="9" height="24" fill="rgb(88,193,151)" stroke="rgb(70,154,120)" stroke-width="1" opacity="0.75" />
			</g>
		</g>
		<g>
			<title> (ctg1_703)</title>
			<polygon class=" (ctg1_703)" points="676,25 684,25 684,10 714,40 684,70 684,55 676,55" fill="rgb(255,255,255)" fill-opacity="1.0" stroke="rgb(0,0,0)" stroke-width="2"  />
			<g>
				<title>Chal_sti_synt_N (PF00195)
"Chalcone and stilbene synthases, N-terminal domain"</title>
				<rect class="PF00195" x="676" y="28" stroke-linejoin="round" width="21" height="24" fill="rgb(60,181,161)" stroke="rgb(47,144,128)" stroke-width="1" opacity="0.75" />
			</g>
			<g>
				<title>Chal_sti_synt_C (PF02797)
"Chalcone and stilbene synthases, C-terminal domain"</title>
				<polygon class="PF02797" points="699,29 710,40 699,51" stroke-linejoin="round" width="14" height="24" fill="rgb(139,212,63)" stroke="rgb(111,169,50)" stroke-width="1" opacity="0.75" />
			</g>
		</g>
		<g>
			<title> (ctg1_704)</title>
			<polygon class=" (ctg1_704)" points="714,10 738,40 714,70" fill="rgb(255,255,255)" fill-opacity="1.0" stroke="rgb(0,0,0)" stroke-width="2"  />
			<g>
				<title>Methyltransf_25 (PF13649)
"Methyltransferase domain"</title>
				<polygon class="PF13649" points="720,28 724,28 729,34 729,46 724,52 720,52" stroke-linejoin="round" width="9" height="24" fill="rgb(227,135,74)" stroke="rgb(181,108,59)" stroke-width="1" opacity="0.75" />
			</g>
		</g>
		<g>
			<title> (ctg1_705)</title>
			<polygon class=" (ctg1_705)" points="741,25 749,25 749,10 779,40 749,70 749,55 741,55" fill="rgb(255,255,255)" fill-opacity="1.0" stroke="rgb(0,0,0)" stroke-width="2"  />
			<g>
				<title>DAO (PF01266)
"FAD dependent oxidoreductase"</title>
				<rect class="PF01266" x="741" y="28" stroke-linejoin="round" width="4" height="24" fill="rgb(123,179,59)" stroke="rgb(98,143,47)" stroke-width="1" opacity="0.75" />
			</g>
		</g>
		<g>
			<title> (ctg1_706)</title>
			<polygon class=" (ctg1_706)" points="780,10 783,40 780,70" fill="rgb(255,255,255)" fill-opacity="1.0" stroke="rgb(0,0,0)" stroke-width="2"  />
		</g>
		<g>
			<title> (ctg1_707)</title>
			<polygon class=" (ctg1_707)" points="785,25 794,25 794,10 824,40 794,70 794,55 785,55" fill="rgb(255,255,255)" fill-opacity="1.0" stroke="rgb(0,0,0)" stroke-width="2"  />
			<g>
				<title>Aminotran_1_2 (PF00155)
"Aminotransferase class I and II"</title>
				<polygon class="PF00155" points="787,28 808,28 820,40 808,52 787,52" stroke-linejoin="round" width="36" height="24" fill="rgb(89,113,198)" stroke="rgb(71,90,158)" stroke-width="1" opacity="0.75" />
			</g>
		</g>
		<g>
			<title> (ctg1_708)</title>
			<polygon class=" (ctg1_708)" points="829,40 843,10 843,70" fill="rgb(255,255,255)" fill-opacity="1.0" stroke="rgb(0,0,0)" stroke-width="2"  />
		</g>
		<g>
			<title> (ctg1_709)</title>
			<polygon class=" (ctg1_709)" points="889,25 877,25 877,10 847,40 877,70 877,55 889,55" fill="rgb(255,255,255)" fill-opacity="1.0" stroke="rgb(0,0,0)" stroke-width="2"  />
			<g>
				<title>Glyco_hydro_18 (PF00704)
"Glycosyl hydrolases family 18"</title>
				<polygon class="PF00704" points="851,40 863,28 872,28 872,52 863,52" stroke-linejoin="round" width="25" height="24" fill="rgb(226,95,151)" stroke="rgb(180,76,120)" stroke-width="1" opacity="0.75" />
			</g>
			<g>
				<title>Cu_amine_oxidN1 (PF07833)
"Copper amine oxidase N-terminal domain"</title>
				<rect class="PF07833" x="874" y="28" stroke-linejoin="round" width="11" height="24" fill="rgb(219,151,89)" stroke="rgb(175,120,71)" stroke-width="1" opacity="0.75" />
			</g>
		</g>
		<g>
			<title> (ctg1_710)</title>
			<polygon class=" (ctg1_710)" points="897,10 908,40 897,70" fill="rgb(255,255,255)" fill-opacity="1.0" stroke="rgb(0,0,0)" stroke-width="2"  />
			<g>
				<title>ABM (PF03992)
"Antibiotic biosynthesis monooxygenase"</title>
				<polygon class="PF03992" points="897,28 900,28 904,38 904,42 900,52 897,52" stroke-linejoin="round" width="7" height="24" fill="rgb(193,84,127)" stroke="rgb(154,67,101)" stroke-width="1" opacity="0.75" />
			</g>
		</g>
		<g>
			<title> (ctg1_711)</title>
			<polygon class=" (ctg1_711)" points="915,10 925,40 915,70" fill="rgb(255,255,255)" fill-opacity="1.0" stroke="rgb(0,0,0)" stroke-width="2"  />
		</g>
		<g>
			<title> (ctg1_712)</title>
			<polygon class=" (ctg1_712)" points="933,25 968,25 968,10 998,40 968,70 968,55 933,55" fill="rgb(255,255,255)" fill-opacity="1.0" stroke="rgb(0,0,0)" stroke-width="2"  />
			<g>
				<title>LysM (PF01476)
"LysM domain"</title>
				<rect class="PF01476" x="936" y="28" stroke-linejoin="round" width="4" height="24" fill="rgb(200,86,203)" stroke="rgb(160,68,162)" stroke-width="1" opacity="0.75" />
			</g>
			<g>
				<title>Metallophos (PF00149)
"Calcineurin-like phosphoesterase"</title>
				<rect class="PF00149" x="942" y="28" stroke-linejoin="round" width="22" height="24" fill="rgb(181,197,58)" stroke="rgb(144,157,46)" stroke-width="1" opacity="0.75" />
			</g>
			<g>
				<title>5_nucleotid_C (PF02872)
"5'-nucleotidase, C-terminal domain"</title>
				<polygon class="PF02872" points="973,28 982,28 990,36 990,44 982,52 973,52" stroke-linejoin="round" width="17" height="24" fill="rgb(215,156,101)" stroke="rgb(172,124,80)" stroke-width="1" opacity="0.75" />
			</g>
		</g>
		<g>
			<title> (ctg1_713)</title>
			<polygon class=" (ctg1_713)" points="1006,25 1010,25 1010,10 1040,40 1010,70 1010,55 1006,55" fill="rgb(255,255,255)" fill-opacity="1.0" stroke="rgb(0,0,0)" stroke-width="2"  />
			<g>
				<title>Arabinose_bd (PF12625)
"Arabinose-binding domain of AraC transcription regulator, N-term"</title>
				<polygon class="PF12625" points="1008,28 1024,28 1026,30 1026,50 1024,52 1008,52" stroke-linejoin="round" width="18" height="24" fill="rgb(64,208,210)" stroke="rgb(51,166,168)" stroke-width="1" opacity="0.75" />
			</g>
			<g>
				<title>HTH_18 (PF12833)
"Helix-turn-helix domain"</title>
				<polygon class="PF12833" points="1031,35 1036,40 1031,45" stroke-linejoin="round" width="7" height="24" fill="rgb(216,58,224)" stroke="rgb(172,46,179)" stroke-width="1" opacity="0.75" />
			</g>
		</g>
		<g>
			<title> (ctg1_714)</title>
			<polygon class=" (ctg1_714)" points="1049,10 1062,40 1049,70" fill="rgb(255,255,255)" fill-opacity="1.0" stroke="rgb(0,0,0)" stroke-width="2"  />
			<g>
				<title>MerR_1 (PF13411)
"MerR HTH family regulatory protein"</title>
				<polygon class="PF13411" points="1049,28 1053,28 1055,31 1055,49 1053,52 1049,52" stroke-linejoin="round" width="6" height="24" fill="rgb(100,202,107)" stroke="rgb(80,161,85)" stroke-width="1" opacity="0.75" />
			</g>
		</g>
		<g>
			<title> (ctg1_715)</title>
			<polygon class=" (ctg1_715)" points="1063,25 1065,25 1065,10 1095,40 1065,70 1065,55 1063,55" fill="rgb(255,255,255)" fill-opacity="1.0" stroke="rgb(0,0,0)" stroke-width="2"  />
			<g>
				<title>Aldo_ket_red (PF00248)
"Aldo/keto reductase family"</title>
				<polygon class="PF00248" points="1064,28 1079,28 1091,40 1079,52 1064,52" stroke-linejoin="round" width="28" height="24" fill="rgb(225,205,58)" stroke="rgb(180,164,46)" stroke-width="1" opacity="0.75" />
			</g>
		</g>
		<g>
			<title> (ctg1_716)</title>
			<polygon class=" (ctg1_716)" points="1135,25 1130,25 1130,10 1100,40 1130,70 1130,55 1135,55" fill="rgb(255,255,255)" fill-opacity="1.0" stroke="rgb(0,0,0)" stroke-width="2"  />
			<g>
				<title>SLH (PF00395)
"S-layer homology domain"</title>
				<polygon class="PF00395" points="1114,30 1116,28 1118,28 1118,52 1116,52 1114,50" stroke-linejoin="round" width="4" height="24" fill="rgb(106,215,138)" stroke="rgb(84,172,110)" stroke-width="1" opacity="0.75" />
			</g>
			<g>
				<title>SLH (PF00395)
"S-layer homology domain"</title>
				<rect class="PF00395" x="1120" y="28" stroke-linejoin="round" width="4" height="24" fill="rgb(106,215,138)" stroke="rgb(84,172,110)" stroke-width="1" opacity="0.75" />
			</g>
			<g>
				<title>SLH (PF00395)
"S-layer homology domain"</title>
				<rect class="PF00395" x="1126" y="28" stroke-linejoin="round" width="4" height="24" fill="rgb(106,215,138)" stroke="rgb(84,172,110)" stroke-width="1" opacity="0.75" />
			</g>
		</g>
		<g>
			<title> (ctg1_717)</title>
			<polygon class=" (ctg1_717)" points="1141,10 1161,40 1141,70" fill="rgb(255,255,255)" fill-opacity="1.0" stroke="rgb(0,0,0)" stroke-width="2"  />
			<g>
				<title>Lipase_2 (PF01674)
"Lipase (class 2)"</title>
				<polygon class="PF01674" points="1144,28 1149,28 1154,35 1154,45 1149,52 1144,52" stroke-linejoin="round" width="10" height="24" fill="rgb(176,191,89)" stroke="rgb(140,152,71)" stroke-width="1" opacity="0.75" />
			</g>
		</g>
		<g>
			<title> (ctg1_718)</title>
			<polygon class=" (ctg1_718)" points="1167,10 1186,40 1167,70" fill="rgb(255,255,255)" fill-opacity="1.0" stroke="rgb(0,0,0)" stroke-width="2"  />
			<g>
				<title>Mac (PF12464)
"Maltose acetyltransferase"</title>
				<rect class="PF12464" x="1167" y="28" stroke-linejoin="round" width="5" height="24" fill="rgb(188,228,87)" stroke="rgb(150,182,69)" stroke-width="1" opacity="0.75" />
			</g>
			<g>
				<title>Hexapep (PF00132)
"Bacterial transferase hexapeptide (six repeats)"</title>
				<polygon class="PF00132" points="1180,36 1183,40 1183,40 1180,44" stroke-linejoin="round" width="3" height="24" fill="rgb(89,131,202)" stroke="rgb(71,104,161)" stroke-width="1" opacity="0.75" />
			</g>
		</g>
		<g>
			<title> (ctg1_719)</title>
			<polygon class=" (ctg1_719)" points="1194,25 1194,25 1194,10 1224,40 1194,70 1194,55 1194,55" fill="rgb(255,255,255)" fill-opacity="1.0" stroke="rgb(0,0,0)" stroke-width="2"  />
			<g>
				<title>HTH_18 (PF12833)
"Helix-turn-helix domain"</title>
				<polygon class="PF12833" points="1215,36 1219,40 1215,44" stroke-linejoin="round" width="7" height="24" fill="rgb(216,58,224)" stroke="rgb(172,46,179)" stroke-width="1" opacity="0.75" />
			</g>
		</g>
		<g>
			<title> (ctg1_720)</title>
			<polygon class=" (ctg1_720)" points="1224,25 1227,25 1227,10 1257,40 1227,70 1227,55 1224,55" fill="rgb(255,255,255)" fill-opacity="1.0" stroke="rgb(0,0,0)" stroke-width="2"  />
			<g>
				<title>Aldo_ket_red (PF00248)
"Aldo/keto reductase family"</title>
				<polygon class="PF00248" points="1225,28 1240,28 1252,40 1240,52 1225,52" stroke-linejoin="round" width="30" height="24" fill="rgb(225,205,58)" stroke="rgb(180,164,46)" stroke-width="1" opacity="0.75" />
			</g>
		</g>
		<g>
			<title> (ctg1_721)</title>
			<polygon class=" (ctg1_721)" points="1262,25 1279,25 1279,10 1309,40 1279,70 1279,55 1262,55" fill="rgb(255,255,255)" fill-opacity="1.0" stroke="rgb(0,0,0)" stroke-width="2"  />
			<g>
				<title>AA_permease (PF00324)
"Amino acid permease"</title>
				<polygon class="PF00324" points="1263,28 1293,28 1305,40 1305,40 1293,52 1263,52" stroke-linejoin="round" width="42" height="24" fill="rgb(82,225,201)" stroke="rgb(65,180,160)" stroke-width="1" opacity="0.75" />
			</g>
		</g>
		<g>
			<title> (ctg1_722)</title>
			<polygon class=" (ctg1_722)" points="1309,40 1329,10 1329,70" fill="rgb(255,255,255)" fill-opacity="1.0" stroke="rgb(0,0,0)" stroke-width="2"  />
			<g>
				<title>LysE (PF01810)
"LysE type translocator"</title>
				<polygon class="PF01810" points="1313,40 1321,28 1328,28 1328,52 1321,52" stroke-linejoin="round" width="19" height="24" fill="rgb(198,75,167)" stroke="rgb(158,60,133)" stroke-width="1" opacity="0.75" />
			</g>
		</g>
	</g>
</svg>
