<svg version="1.1" baseProfile="full" xmlns="http://www.w3.org/2000/svg" width="1023.2333333333333" height="80">
	<g>
		<line x1="10" y1="40.0" x2="1013.2333333333333" y2="40.0" style="stroke:rgb(70,70,70); stroke-width:3 "/>
		<g>
			<title> (ctg1_392)</title>
			<polygon class=" (ctg1_392)" points="74,25 48,25 48,10 18,40 48,70 48,55 74,55" fill="rgb(255,255,255)" fill-opacity="1.0" stroke="rgb(0,0,0)" stroke-width="2"  />
			<g>
				<title>AMP-binding_C (PF13193)
"AMP-binding enzyme C-terminal domain"</title>
				<polygon class="PF13193" points="22,40 26,36 26,44" stroke-linejoin="round" width="7" height="24" fill="rgb(182,50,118)" stroke="rgb(145,39,94)" stroke-width="1" opacity="0.75" />
			</g>
			<g>
				<title>AMP-binding (PF00501)
"AMP-binding enzyme"</title>
				<polygon class="PF00501" points="27,35 34,28 69,28 69,52 34,52 27,45" stroke-linejoin="round" width="42" height="24" fill="rgb(60,217,223)" stroke="rgb(48,173,178)" stroke-width="1" opacity="0.75" />
			</g>
		</g>
		<g>
			<title> (ctg1_393)</title>
			<polygon class=" (ctg1_393)" points="75,40 96,10 96,70" fill="rgb(255,255,255)" fill-opacity="1.0" stroke="rgb(0,0,0)" stroke-width="2"  />
			<g>
				<title>TetR_N (PF00440)
"Bacterial regulatory proteins, tetR family"</title>
				<rect class="PF00440" x="88" y="28" stroke-linejoin="round" width="4" height="24" fill="rgb(73,212,190)" stroke="rgb(58,169,152)" stroke-width="1" opacity="0.75" />
			</g>
		</g>
		<g>
			<title> (ctg1_394)</title>
			<polygon class=" (ctg1_394)" points="101,25 116,25 116,10 146,40 116,70 116,55 101,55" fill="rgb(255,255,255)" fill-opacity="1.0" stroke="rgb(0,0,0)" stroke-width="2"  />
			<g>
				<title>Peptidase_M20 (PF01546)
"Peptidase family M20/M25/M40"</title>
				<polygon class="PF01546" points="110,28 130,28 142,40 130,52 110,52" stroke-linejoin="round" width="35" height="24" fill="rgb(88,213,108)" stroke="rgb(70,170,86)" stroke-width="1" opacity="0.75" />
			</g>
		</g>
		<g>
			<title> (ctg1_395)</title>
			<polygon class=" (ctg1_395)" points="147,25 169,25 169,10 199,40 169,70 169,55 147,55" fill="rgb(255,255,255)" fill-opacity="1.0" stroke="rgb(0,0,0)" stroke-width="2"  />
			<g>
				<title>DcuC (PF03606)
"C4-dicarboxylate anaerobic carrier"</title>
				<polygon class="PF03606" points="149,28 182,28 194,40 182,52 149,52" stroke-linejoin="round" width="49" height="24" fill="rgb(204,117,55)" stroke="rgb(163,93,44)" stroke-width="1" opacity="0.75" />
			</g>
		</g>
		<g>
			<title> (ctg1_396)</title>
			<polygon class=" (ctg1_396)" points="199,40 218,10 218,70" fill="rgb(255,255,255)" fill-opacity="1.0" stroke="rgb(0,0,0)" stroke-width="2"  />
			<g>
				<title>DUF664 (PF04978)
"Protein of unknown function (DUF664)"</title>
				<polygon class="PF04978" points="203,40 211,28 217,28 217,52 211,52" stroke-linejoin="round" width="15" height="24" fill="rgb(102,82,189)" stroke="rgb(81,65,151)" stroke-width="1" opacity="0.75" />
			</g>
		</g>
		<g>
			<title> (ctg1_397)</title>
			<polygon class=" (ctg1_397)" points="219,25 230,25 230,10 260,40 230,70 230,55 219,55" fill="rgb(255,255,255)" fill-opacity="1.0" stroke="rgb(0,0,0)" stroke-width="2"  />
		</g>
		<g>
			<title> (ctg1_398)</title>
			<polygon class=" (ctg1_398)" points="263,25 287,25 287,10 317,40 287,70 287,55 263,55" fill="rgb(255,255,255)" fill-opacity="1.0" stroke="rgb(0,0,0)" stroke-width="2"  />
			<g>
				<title>MFS_1 (PF07690)
"Major Facilitator Superfamily"</title>
				<polygon class="PF07690" points="265,28 301,28 305,32 305,48 301,52 265,52" stroke-linejoin="round" width="40" height="24" fill="rgb(193,224,74)" stroke="rgb(154,179,59)" stroke-width="1" opacity="0.75" />
			</g>
		</g>
		<g>
			<title> (ctg1_399)</title>
			<polygon class=" (ctg1_399)" points="318,10 333,40 318,70" fill="rgb(255,255,255)" fill-opacity="1.0" stroke="rgb(0,0,0)" stroke-width="2"  />
			<g>
				<title>DUF6325 (PF19850)
"Family of unknown function (DUF6325)"</title>
				<polygon class="PF19850" points="318,28 323,28 329,40 323,52 318,52" stroke-linejoin="round" width="13" height="24" fill="rgb(169,190,89)" stroke="rgb(135,152,71)" stroke-width="1" opacity="0.75" />
			</g>
		</g>
		<g>
			<title> (ctg1_400)</title>
			<polygon class=" (ctg1_400)" points="333,10 342,40 333,70" fill="rgb(255,255,255)" fill-opacity="1.0" stroke="rgb(0,0,0)" stroke-width="2"  />
			<g>
				<title>SHOCT (PF09851)
"Short C-terminal domain"</title>
				<polygon class="PF09851" points="339,39 339,40 339,41" stroke-linejoin="round" width="2" height="24" fill="rgb(97,185,199)" stroke="rgb(77,147,159)" stroke-width="1" opacity="0.75" />
			</g>
		</g>
		<g>
			<title> (ctg1_401)</title>
			<polygon class=" (ctg1_401)" points="343,40 365,10 365,70" fill="rgb(255,255,255)" fill-opacity="1.0" stroke="rgb(0,0,0)" stroke-width="2"  />
			<g>
				<title>Nitroreductase (PF00881)
"Nitroreductase family"</title>
				<polygon class="PF00881" points="347,40 356,28 359,28 359,52 356,52" stroke-linejoin="round" width="16" height="24" fill="rgb(79,118,187)" stroke="rgb(63,94,149)" stroke-width="1" opacity="0.75" />
			</g>
		</g>
		<g>
			<title> (ctg1_402)</title>
			<polygon class=" (ctg1_402)" points="366,40 393,10 393,70" fill="rgb(255,255,255)" fill-opacity="1.0" stroke="rgb(0,0,0)" stroke-width="2"  />
			<g>
				<title>Peripla_BP_2 (PF01497)
"Periplasmic binding protein"</title>
				<polygon class="PF01497" points="370,40 381,28 392,28 392,52 381,52" stroke-linejoin="round" width="24" height="24" fill="rgb(183,226,104)" stroke="rgb(146,180,83)" stroke-width="1" opacity="0.75" />
			</g>
		</g>
		<g>
			<title> (ctg1_403)</title>
			<polygon class=" (ctg1_403)" points="398,40 424,10 424,70" fill="rgb(255,255,255)" fill-opacity="1.0" stroke="rgb(0,0,0)" stroke-width="2"  />
			<g>
				<title>ABC_tran (PF00005)
"ABC transporter"</title>
				<polygon class="PF00005" points="407,34 413,28 422,28 422,52 413,52 407,46" stroke-linejoin="round" width="15" height="24" fill="rgb(129,201,63)" stroke="rgb(103,160,50)" stroke-width="1" opacity="0.75" />
			</g>
		</g>
		<g>
			<title> (ctg1_404)</title>
			<polygon class=" (ctg1_404)" points="459,25 454,25 454,10 424,40 454,70 454,55 459,55" fill="rgb(255,255,255)" fill-opacity="1.0" stroke="rgb(0,0,0)" stroke-width="2"  />
			<g>
				<title>FecCD (PF01032)
"FecCD transport family"</title>
				<polygon class="PF01032" points="428,40 440,28 455,28 455,52 440,52" stroke-linejoin="round" width="31" height="24" fill="rgb(210,177,70)" stroke="rgb(168,141,56)" stroke-width="1" opacity="0.75" />
			</g>
		</g>
		<g>
			<title> (ctg1_405)</title>
			<polygon class=" (ctg1_405)" points="505,25 493,25 493,10 463,40 493,70 493,55 505,55" fill="rgb(255,255,255)" fill-opacity="1.0" stroke="rgb(0,0,0)" stroke-width="2"  />
			<g>
				<title>MFS_3 (PF05977)
"Transmembrane secretion effector"</title>
				<polygon class="PF05977" points="467,40 479,28 503,28 503,52 479,52" stroke-linejoin="round" width="40" height="24" fill="rgb(80,62,217)" stroke="rgb(64,49,173)" stroke-width="1" opacity="0.75" />
			</g>
		</g>
		<g>
			<title> (ctg1_406)</title>
			<polygon class=" (ctg1_406)" points="507,10 514,40 507,70" fill="rgb(255,255,255)" fill-opacity="1.0" stroke="rgb(0,0,0)" stroke-width="2"  />
		</g>
		<g>
			<title> (ctg1_407)</title>
			<polygon class=" (ctg1_407)" points="517,10 544,40 517,70" fill="rgb(255,255,255)" fill-opacity="1.0" stroke="rgb(0,0,0)" stroke-width="2"  />
		</g>
		<g>
			<title> (ctg1_408)</title>
			<polygon class=" (ctg1_408)" points="544,25 561,25 561,10 591,40 561,70 561,55 544,55" fill="rgb(255,255,255)" fill-opacity="1.0" stroke="rgb(0,0,0)" stroke-width="2"  />
			<g>
				<title>Peptidase_S15 (PF02129)
"X-Pro dipeptidyl-peptidase (S15 family)"</title>
				<rect class="PF02129" x="545" y="28" stroke-linejoin="round" width="26" height="24" fill="rgb(210,171,79)" stroke="rgb(168,136,63)" stroke-width="1" opacity="0.75" />
			</g>
			<g>
				<title>PepX_C (PF08530)
"X-Pro dipeptidyl-peptidase C-terminal non-catalytic domain"</title>
				<polygon class="PF08530" points="575,28 575,28 587,40 575,52 575,52" stroke-linejoin="round" width="14" height="24" fill="rgb(210,70,92)" stroke="rgb(168,56,73)" stroke-width="1" opacity="0.75" />
			</g>
		</g>
		<g>
			<title> (ctg1_409)</title>
			<polygon class=" (ctg1_409)" points="592,25 606,25 606,10 636,40 606,70 606,55 592,55" fill="rgb(255,255,255)" fill-opacity="1.0" stroke="rgb(0,0,0)" stroke-width="2"  />
			<g>
				<title>YcaO (PF02624)
"YcaO cyclodehydratase, ATP-ad Mg2+-binding"</title>
				<polygon class="PF02624" points="597,28 620,28 632,40 620,52 597,52" stroke-linejoin="round" width="36" height="24" fill="rgb(76,84,185)" stroke="rgb(60,67,148)" stroke-width="1" opacity="0.75" />
			</g>
		</g>
		<g>
			<title> (ctg1_410)</title>
			<polygon class=" (ctg1_410)" points="636,25 649,25 649,10 679,40 649,70 649,55 636,55" fill="rgb(255,255,255)" fill-opacity="1.0" stroke="rgb(0,0,0)" stroke-width="2"  />
			<g>
				<title>YcaO (PF02624)
"YcaO cyclodehydratase, ATP-ad Mg2+-binding"</title>
				<polygon class="PF02624" points="642,28 662,28 674,40 662,52 642,52" stroke-linejoin="round" width="33" height="24" fill="rgb(76,84,185)" stroke="rgb(60,67,148)" stroke-width="1" opacity="0.75" />
			</g>
		</g>
		<g>
			<title> (ctg1_411)</title>
			<polygon class=" (ctg1_411)" points="710,25 708,25 708,10 678,40 708,70 708,55 710,55" fill="rgb(255,255,255)" fill-opacity="1.0" stroke="rgb(0,0,0)" stroke-width="2"  />
		</g>
		<g>
			<title> (ctg1_412)</title>
			<polygon class=" (ctg1_412)" points="712,10 732,40 712,70" fill="rgb(255,255,255)" fill-opacity="1.0" stroke="rgb(0,0,0)" stroke-width="2"  />
			<g>
				<title>TetR_N (PF00440)
"Bacterial regulatory proteins, tetR family"</title>
				<rect class="PF00440" x="713" y="28" stroke-linejoin="round" width="4" height="24" fill="rgb(73,212,190)" stroke="rgb(58,169,152)" stroke-width="1" opacity="0.75" />
			</g>
		</g>
		<g>
			<title> (ctg1_413)</title>
			<polygon class=" (ctg1_413)" points="733,40 747,10 747,70" fill="rgb(255,255,255)" fill-opacity="1.0" stroke="rgb(0,0,0)" stroke-width="2"  />
			<g>
				<title>PAS_9 (PF13426)
"PAS domain"</title>
				<polygon class="PF13426" points="736,40 742,28 744,28 744,52 742,52" stroke-linejoin="round" width="10" height="24" fill="rgb(182,140,74)" stroke="rgb(145,112,59)" stroke-width="1" opacity="0.75" />
			</g>
		</g>
		<g>
			<title> (ctg1_414)</title>
			<polygon class=" (ctg1_414)" points="751,40 775,10 775,70" fill="rgb(255,255,255)" fill-opacity="1.0" stroke="rgb(0,0,0)" stroke-width="2"  />
			<g>
				<title>ABC_tran (PF00005)
"ABC transporter"</title>
				<polygon class="PF00005" points="756,39 765,28 771,28 771,52 765,52 756,41" stroke-linejoin="round" width="15" height="24" fill="rgb(129,201,63)" stroke="rgb(103,160,50)" stroke-width="1" opacity="0.75" />
			</g>
		</g>
		<g>
			<title> (ctg1_415)</title>
			<polygon class=" (ctg1_415)" points="812,25 806,25 806,10 776,40 806,70 806,55 812,55" fill="rgb(255,255,255)" fill-opacity="1.0" stroke="rgb(0,0,0)" stroke-width="2"  />
			<g>
				<title>FtsX (PF02687)
"FtsX-like permease family"</title>
				<polygon class="PF02687" points="780,40 787,33 787,47" stroke-linejoin="round" width="11" height="24" fill="rgb(126,55,214)" stroke="rgb(100,44,171)" stroke-width="1" opacity="0.75" />
			</g>
		</g>
		<g>
			<title> (ctg1_416)</title>
			<polygon class=" (ctg1_416)" points="814,25 824,25 824,10 854,40 824,70 824,55 814,55" fill="rgb(255,255,255)" fill-opacity="1.0" stroke="rgb(0,0,0)" stroke-width="2"  />
			<g>
				<title>HisKA_3 (PF07730)
"Histidine kinase"</title>
				<polygon class="PF07730" points="834,28 837,28 840,31 840,49 837,52 834,52" stroke-linejoin="round" width="6" height="24" fill="rgb(190,53,146)" stroke="rgb(152,42,116)" stroke-width="1" opacity="0.75" />
			</g>
			<g>
				<title>HATPase_c (PF02518)
"Histidine kinase-, DNA gyrase B-, and HSP90-like ATPase"</title>
				<polygon class="PF02518" points="844,35 849,40 844,45" stroke-linejoin="round" width="9" height="24" fill="rgb(80,94,225)" stroke="rgb(64,75,180)" stroke-width="1" opacity="0.75" />
			</g>
		</g>
		<g>
			<title> (ctg1_417)</title>
			<polygon class=" (ctg1_417)" points="854,10 874,40 854,70" fill="rgb(255,255,255)" fill-opacity="1.0" stroke="rgb(0,0,0)" stroke-width="2"  />
			<g>
				<title>Response_reg (PF00072)
"Response regulator receiver domain"</title>
				<polygon class="PF00072" points="854,28 862,28 865,32 865,48 862,52 854,52" stroke-linejoin="round" width="11" height="24" fill="rgb(100,107,203)" stroke="rgb(80,85,162)" stroke-width="1" opacity="0.75" />
			</g>
			<g>
				<title>GerE (PF00196)
"Bacterial regulatory proteins, luxR family"</title>
				<polygon class="PF00196" points="868,36 870,40 868,44" stroke-linejoin="round" width="5" height="24" fill="rgb(219,94,82)" stroke="rgb(175,75,65)" stroke-width="1" opacity="0.75" />
			</g>
		</g>
		<g>
			<title> (ctg1_418)</title>
			<polygon class=" (ctg1_418)" points="878,25 889,25 889,10 919,40 889,70 889,55 878,55" fill="rgb(255,255,255)" fill-opacity="1.0" stroke="rgb(0,0,0)" stroke-width="2"  />
			<g>
				<title>DUF222 (PF02720)
"Domain of unknown function (DUF222)"</title>
				<polygon class="PF02720" points="879,28 903,28 910,35 910,45 903,52 879,52" stroke-linejoin="round" width="31" height="24" fill="rgb(190,119,92)" stroke="rgb(152,95,73)" stroke-width="1" opacity="0.75" />
			</g>
			<g>
				<title>HNH (PF01844)
"HNH endonuclease"</title>
				<polygon class="PF01844" points="911,36 915,40 915,40 911,44" stroke-linejoin="round" width="4" height="24" fill="rgb(118,184,79)" stroke="rgb(94,147,63)" stroke-width="1" opacity="0.75" />
			</g>
		</g>
		<g>
			<title> (ctg1_419)</title>
			<polygon class=" (ctg1_419)" points="924,10 951,40 924,70" fill="rgb(255,255,255)" fill-opacity="1.0" stroke="rgb(0,0,0)" stroke-width="2"  />
			<g>
				<title>FAD_binding_9 (PF08021)
"Siderophore-interacting FAD-binding domain"</title>
				<rect class="PF08021" x="924" y="28" stroke-linejoin="round" width="11" height="24" fill="rgb(58,190,106)" stroke="rgb(46,152,84)" stroke-width="1" opacity="0.75" />
			</g>
			<g>
				<title>SIP (PF04954)
"Siderophore-interacting protein"</title>
				<polygon class="PF04954" points="937,29 947,40 937,51" stroke-linejoin="round" width="12" height="24" fill="rgb(75,222,95)" stroke="rgb(60,177,76)" stroke-width="1" opacity="0.75" />
			</g>
		</g>
		<g>
			<title> (ctg1_420)</title>
			<polygon class=" (ctg1_420)" points="952,40 958,10 958,70" fill="rgb(255,255,255)" fill-opacity="1.0" stroke="rgb(0,0,0)" stroke-width="2"  />
		</g>
		<g>
			<title> (ctg1_421)</title>
			<polygon class=" (ctg1_421)" points="957,40 964,10 964,70" fill="rgb(255,255,255)" fill-opacity="1.0" stroke="rgb(0,0,0)" stroke-width="2"  />
		</g>
		<g>
			<title> (ctg1_422)</title>
			<polygon class=" (ctg1_422)" points="969,25 970,25 970,10 1000,40 970,70 970,55 969,55" fill="rgb(255,255,255)" fill-opacity="1.0" stroke="rgb(0,0,0)" stroke-width="2"  />
			<g>
				<title>Pro_dh (PF01619)
"Proline dehydrogenase"</title>
				<polygon class="PF01619" points="974,28 984,28 996,40 984,52 974,52" stroke-linejoin="round" width="24" height="24" fill="rgb(103,199,72)" stroke="rgb(82,159,57)" stroke-width="1" opacity="0.75" />
			</g>
		</g>
	</g>
</svg>
