<svg version="1.1" baseProfile="full" xmlns="http://www.w3.org/2000/svg" width="705.9666666666667" height="80">
	<g>
		<line x1="10" y1="40.0" x2="695.9666666666667" y2="40.0" style="stroke:rgb(70,70,70); stroke-width:3 "/>
		<g>
			<title> (ctg1_337)</title>
			<polygon class=" (ctg1_337)" points="16,25 26,25 26,10 56,40 26,70 26,55 16,55" fill="rgb(255,255,255)" fill-opacity="1.0" stroke="rgb(0,0,0)" stroke-width="2"  />
			<g>
				<title>MFS_1 (PF07690)
"Major Facilitator Superfamily"</title>
				<polygon class="PF07690" points="16,28 39,28 50,39 50,41 39,52 16,52" stroke-linejoin="round" width="34" height="24" fill="rgb(193,224,74)" stroke="rgb(154,179,59)" stroke-width="1" opacity="0.75" />
			</g>
		</g>
		<g>
			<title> (ctg1_338)</title>
			<polygon class=" (ctg1_338)" points="55,40 75,10 75,70" fill="rgb(255,255,255)" fill-opacity="1.0" stroke="rgb(0,0,0)" stroke-width="2"  />
			<g>
				<title>MiaE (PF06175)
"tRNA-(MS[2]IO[6]A)-hydroxylase (MiaE)"</title>
				<polygon class="PF06175" points="59,40 67,28 69,28 69,52 67,52" stroke-linejoin="round" width="14" height="24" fill="rgb(112,226,180)" stroke="rgb(89,180,144)" stroke-width="1" opacity="0.75" />
			</g>
			<g>
				<title>MiaE (PF06175)
"tRNA-(MS[2]IO[6]A)-hydroxylase (MiaE)"</title>
				<rect class="PF06175" x="69" y="28" stroke-linejoin="round" width="5" height="24" fill="rgb(112,226,180)" stroke="rgb(89,180,144)" stroke-width="1" opacity="0.75" />
			</g>
		</g>
		<g>
			<title> (ctg1_339)</title>
			<polygon class=" (ctg1_339)" points="80,10 108,40 80,70" fill="rgb(255,255,255)" fill-opacity="1.0" stroke="rgb(0,0,0)" stroke-width="2"  />
			<g>
				<title>Usp (PF00582)
"Universal stress protein family"</title>
				<polygon class="PF00582" points="93,28 104,40 93,52" stroke-linejoin="round" width="13" height="24" fill="rgb(129,199,88)" stroke="rgb(103,159,70)" stroke-width="1" opacity="0.75" />
			</g>
		</g>
		<g>
			<title> (ctg1_340)</title>
			<polygon class=" (ctg1_340)" points="113,40 128,10 128,70" fill="rgb(255,255,255)" fill-opacity="1.0" stroke="rgb(0,0,0)" stroke-width="2"  />
			<g>
				<title>DUF1289 (PF06945)
"Protein of unknown function (DUF1289)"</title>
				<rect class="PF06945" x="123" y="28" stroke-linejoin="round" width="4" height="24" fill="rgb(84,199,130)" stroke="rgb(67,159,104)" stroke-width="1" opacity="0.75" />
			</g>
		</g>
		<g>
			<title> (ctg1_341)</title>
			<polygon class=" (ctg1_341)" points="141,25 198,25 198,10 228,40 198,70 198,55 141,55" fill="rgb(255,255,255)" fill-opacity="1.0" stroke="rgb(0,0,0)" stroke-width="2"  />
			<g>
				<title>Aconitase_B_N (PF11791)
"Aconitate B N-terminal domain"</title>
				<rect class="PF11791" x="141" y="28" stroke-linejoin="round" width="15" height="24" fill="rgb(92,160,188)" stroke="rgb(73,128,150)" stroke-width="1" opacity="0.75" />
			</g>
			<g>
				<title>Aconitase_2_N (PF06434)
"Aconitate hydratase 2 N-terminus"</title>
				<rect class="PF06434" x="158" y="28" stroke-linejoin="round" width="21" height="24" fill="rgb(99,199,218)" stroke="rgb(79,159,174)" stroke-width="1" opacity="0.75" />
			</g>
			<g>
				<title>Aconitase (PF00330)
"Aconitase family (aconitate hydratase)"</title>
				<polygon class="PF00330" points="182,28 212,28 222,38 222,42 212,52 182,52" stroke-linejoin="round" width="40" height="24" fill="rgb(180,189,85)" stroke="rgb(144,151,68)" stroke-width="1" opacity="0.75" />
			</g>
		</g>
		<g>
			<title> (ctg1_342)</title>
			<polygon class=" (ctg1_342)" points="241,10 270,40 241,70" fill="rgb(255,255,255)" fill-opacity="1.0" stroke="rgb(0,0,0)" stroke-width="2"  />
			<g>
				<title>Abhydrolase_1 (PF00561)
"alpha/beta hydrolase fold"</title>
				<polygon class="PF00561" points="243,28 254,28 265,39 265,41 254,52 243,52" stroke-linejoin="round" width="22" height="24" fill="rgb(86,180,151)" stroke="rgb(68,144,120)" stroke-width="1" opacity="0.75" />
			</g>
		</g>
		<g>
			<title> (ctg1_343)</title>
			<polygon class=" (ctg1_343)" points="271,25 283,25 283,10 313,40 283,70 283,55 271,55" fill="rgb(255,255,255)" fill-opacity="1.0" stroke="rgb(0,0,0)" stroke-width="2"  />
			<g>
				<title>Glyco_transf_28 (PF03033)
"Glycosyltransferase family 28 N-terminal domain"</title>
				<rect class="PF03033" x="271" y="28" stroke-linejoin="round" width="13" height="24" fill="rgb(157,218,79)" stroke="rgb(125,174,63)" stroke-width="1" opacity="0.75" />
			</g>
			<g>
				<title>UDPGT (PF00201)
"UDP-glucoronosyl and UDP-glucosyl transferase"</title>
				<polygon class="PF00201" points="296,28 297,28 309,40 297,52 296,52" stroke-linejoin="round" width="16" height="24" fill="rgb(225,150,107)" stroke="rgb(180,120,85)" stroke-width="1" opacity="0.75" />
			</g>
		</g>
		<g>
			<title> (ctg1_344)</title>
			<polygon class=" (ctg1_344)" points="318,10 342,40 318,70" fill="rgb(255,255,255)" fill-opacity="1.0" stroke="rgb(0,0,0)" stroke-width="2"  />
			<g>
				<title>Autoind_bind (PF03472)
"Autoinducer binding domain"</title>
				<polygon class="PF03472" points="320,28 329,28 334,35 334,45 329,52 320,52" stroke-linejoin="round" width="14" height="24" fill="rgb(99,181,52)" stroke="rgb(79,144,41)" stroke-width="1" opacity="0.75" />
			</g>
			<g>
				<title>GerE (PF00196)
"Bacterial regulatory proteins, luxR family"</title>
				<polygon class="PF00196" points="335,36 338,40 335,44" stroke-linejoin="round" width="5" height="24" fill="rgb(219,94,82)" stroke="rgb(175,75,65)" stroke-width="1" opacity="0.75" />
			</g>
		</g>
		<g>
			<title> (ctg1_345)</title>
			<polygon class=" (ctg1_345)" points="343,10 362,40 343,70" fill="rgb(255,255,255)" fill-opacity="1.0" stroke="rgb(0,0,0)" stroke-width="2"  />
			<g>
				<title>Autoind_synth (PF00765)
"Autoinducer synthase"</title>
				<polygon class="PF00765" points="343,28 351,28 358,40 351,52 343,52" stroke-linejoin="round" width="17" height="24" fill="rgb(197,72,80)" stroke="rgb(157,57,64)" stroke-width="1" opacity="0.75" />
			</g>
		</g>
		<g>
			<title> (ctg1_346)</title>
			<polygon class=" (ctg1_346)" points="406,25 394,25 394,10 364,40 394,70 394,55 406,55" fill="rgb(255,255,255)" fill-opacity="1.0" stroke="rgb(0,0,0)" stroke-width="2"  />
			<g>
				<title>Trp_Tyr_perm (PF03222)
"Tryptophan/tyrosine permease family"</title>
				<polygon class="PF03222" points="368,40 380,28 403,28 403,52 380,52" stroke-linejoin="round" width="36" height="24" fill="rgb(201,50,133)" stroke="rgb(160,40,106)" stroke-width="1" opacity="0.75" />
			</g>
		</g>
		<g>
			<title> (ctg1_347)</title>
			<polygon class=" (ctg1_347)" points="420,10 427,40 420,70" fill="rgb(255,255,255)" fill-opacity="1.0" stroke="rgb(0,0,0)" stroke-width="2"  />
		</g>
		<g>
			<title> (ctg1_348)</title>
			<polygon class=" (ctg1_348)" points="428,10 433,40 428,70" fill="rgb(255,255,255)" fill-opacity="1.0" stroke="rgb(0,0,0)" stroke-width="2"  />
		</g>
		<g>
			<title> (ctg1_349)</title>
			<polygon class=" (ctg1_349)" points="436,10 450,40 436,70" fill="rgb(255,255,255)" fill-opacity="1.0" stroke="rgb(0,0,0)" stroke-width="2"  />
		</g>
		<g>
			<title> (ctg1_350)</title>
			<polygon class=" (ctg1_350)" points="456,25 457,25 457,10 487,40 457,70 457,55 456,55" fill="rgb(255,255,255)" fill-opacity="1.0" stroke="rgb(0,0,0)" stroke-width="2"  />
			<g>
				<title>2-Hacid_dh_C (PF02826)
"D-isomer specific 2-hydroxyacid dehydrogenase, NAD binding domain"</title>
				<polygon class="PF02826" points="466,28 471,28 483,40 483,40 471,52 466,52" stroke-linejoin="round" width="17" height="24" fill="rgb(192,197,93)" stroke="rgb(153,157,74)" stroke-width="1" opacity="0.75" />
			</g>
		</g>
		<g>
			<title> (ctg1_351)</title>
			<polygon class=" (ctg1_351)" points="492,25 497,25 497,10 527,40 497,70 497,55 492,55" fill="rgb(255,255,255)" fill-opacity="1.0" stroke="rgb(0,0,0)" stroke-width="2"  />
			<g>
				<title>APH (PF01636)
"Phosphotransferase enzyme family"</title>
				<polygon class="PF01636" points="495,28 511,28 519,36 519,44 511,52 495,52" stroke-linejoin="round" width="24" height="24" fill="rgb(106,220,228)" stroke="rgb(84,176,182)" stroke-width="1" opacity="0.75" />
			</g>
		</g>
		<g>
			<title> (ctg1_352)</title>
			<polygon class=" (ctg1_352)" points="528,10 553,40 528,70" fill="rgb(255,255,255)" fill-opacity="1.0" stroke="rgb(0,0,0)" stroke-width="2"  />
			<g>
				<title>adh_short_C2 (PF13561)
"Enoyl-(Acyl carrier protein) reductase"</title>
				<polygon class="PF13561" points="529,28 539,28 549,40 539,52 529,52" stroke-linejoin="round" width="23" height="24" fill="rgb(73,205,127)" stroke="rgb(58,164,101)" stroke-width="1" opacity="0.75" />
			</g>
		</g>
		<g>
			<title> (ctg1_353)</title>
			<polygon class=" (ctg1_353)" points="613,25 586,25 586,10 556,40 586,70 586,55 613,55" fill="rgb(255,255,255)" fill-opacity="1.0" stroke="rgb(0,0,0)" stroke-width="2"  />
		</g>
	</g>
</svg>
