<svg version="1.1" baseProfile="full" xmlns="http://www.w3.org/2000/svg" width="540.2666666666667" height="80">
	<g>
		<line x1="10" y1="40.0" x2="530.2666666666667" y2="40.0" style="stroke:rgb(70,70,70); stroke-width:3 "/>
		<g>
			<title> (ctg33_1)</title>
			<polygon class=" (ctg33_1)" points="15,25 27,25 27,10 57,40 27,70 27,55 15,55" fill="rgb(255,255,255)" fill-opacity="1.0" stroke="rgb(0,0,0)" stroke-width="2"  />
			<g>
				<title>MCPsignal (PF00015)
"Methyl-accepting chemotaxis protein (MCP) signalling domain"</title>
				<polygon class="PF00015" points="35,28 41,28 50,37 50,43 41,52 35,52" stroke-linejoin="round" width="15" height="24" fill="rgb(104,174,223)" stroke="rgb(83,139,178)" stroke-width="1" opacity="0.75" />
			</g>
		</g>
		<g>
			<title> (ctg33_2)</title>
			<polygon class=" (ctg33_2)" points="87,25 87,25 87,10 57,40 87,70 87,55 87,55" fill="rgb(255,255,255)" fill-opacity="1.0" stroke="rgb(0,0,0)" stroke-width="2"  />
			<g>
				<title>LysR_substrate (PF03466)
"LysR substrate binding domain"</title>
				<polygon class="PF03466" points="61,40 73,28 78,28 78,52 73,52" stroke-linejoin="round" width="20" height="24" fill="rgb(55,136,195)" stroke="rgb(44,108,156)" stroke-width="1" opacity="0.75" />
			</g>
			<g>
				<title>HTH_1 (PF00126)
"Bacterial regulatory helix-turn-helix protein, lysR family"</title>
				<rect class="PF00126" x="81" y="28" stroke-linejoin="round" width="5" height="24" fill="rgb(125,227,79)" stroke="rgb(99,181,63)" stroke-width="1" opacity="0.75" />
			</g>
		</g>
		<g>
			<title> (ctg33_3)</title>
			<polygon class=" (ctg33_3)" points="92,25 95,25 95,10 125,40 95,70 95,55 92,55" fill="rgb(255,255,255)" fill-opacity="1.0" stroke="rgb(0,0,0)" stroke-width="2"  />
			<g>
				<title>ADH_N (PF08240)
"Alcohol dehydrogenase GroES-like domain"</title>
				<rect class="PF08240" x="95" y="28" stroke-linejoin="round" width="6" height="24" fill="rgb(211,65,138)" stroke="rgb(168,51,110)" stroke-width="1" opacity="0.75" />
			</g>
			<g>
				<title>ADH_zinc_N_2 (PF13602)
"Zinc-binding dehydrogenase"</title>
				<polygon class="PF13602" points="111,30 121,40 111,50" stroke-linejoin="round" width="14" height="24" fill="rgb(101,131,226)" stroke="rgb(80,104,180)" stroke-width="1" opacity="0.75" />
			</g>
		</g>
		<g>
			<title> (ctg33_4)</title>
			<polygon class=" (ctg33_4)" points="125,10 135,40 125,70" fill="rgb(255,255,255)" fill-opacity="1.0" stroke="rgb(0,0,0)" stroke-width="2"  />
			<g>
				<title>ABM (PF03992)
"Antibiotic biosynthesis monooxygenase"</title>
				<polygon class="PF03992" points="125,28 127,28 132,40 132,40 127,52 125,52" stroke-linejoin="round" width="7" height="24" fill="rgb(193,84,127)" stroke="rgb(154,67,101)" stroke-width="1" opacity="0.75" />
			</g>
		</g>
		<g>
			<title> (ctg33_5)</title>
			<polygon class=" (ctg33_5)" points="138,10 159,40 138,70" fill="rgb(255,255,255)" fill-opacity="1.0" stroke="rgb(0,0,0)" stroke-width="2"  />
			<g>
				<title>Nitroreductase (PF00881)
"Nitroreductase family"</title>
				<polygon class="PF00881" points="138,28 147,28 156,40 156,40 147,52 138,52" stroke-linejoin="round" width="18" height="24" fill="rgb(79,118,187)" stroke="rgb(63,94,149)" stroke-width="1" opacity="0.75" />
			</g>
		</g>
		<g>
			<title> (ctg33_6)</title>
			<polygon class=" (ctg33_6)" points="164,10 187,40 164,70" fill="rgb(255,255,255)" fill-opacity="1.0" stroke="rgb(0,0,0)" stroke-width="2"  />
			<g>
				<title>Autoind_bind (PF03472)
"Autoinducer binding domain"</title>
				<polygon class="PF03472" points="165,28 174,28 179,35 179,45 174,52 165,52" stroke-linejoin="round" width="14" height="24" fill="rgb(99,181,52)" stroke="rgb(79,144,41)" stroke-width="1" opacity="0.75" />
			</g>
			<g>
				<title>GerE (PF00196)
"Bacterial regulatory proteins, luxR family"</title>
				<polygon class="PF00196" points="180,36 183,40 180,44" stroke-linejoin="round" width="5" height="24" fill="rgb(219,94,82)" stroke="rgb(175,75,65)" stroke-width="1" opacity="0.75" />
			</g>
		</g>
		<g>
			<title> (ctg33_7)</title>
			<polygon class=" (ctg33_7)" points="188,40 196,10 196,70" fill="rgb(255,255,255)" fill-opacity="1.0" stroke="rgb(0,0,0)" stroke-width="2"  />
			<g>
				<title>Autoind_synth (PF00765)
"Autoinducer synthase"</title>
				<polygon class="PF00765" points="191,40 194,28 196,28 196,52 194,52" stroke-linejoin="round" width="6" height="24" fill="rgb(197,72,80)" stroke="rgb(157,57,64)" stroke-width="1" opacity="0.75" />
			</g>
		</g>
		<g>
			<title> (ctg33_8)</title>
			<polygon class=" (ctg33_8)" points="237,10 249,40 237,70" fill="rgb(255,255,255)" fill-opacity="1.0" stroke="rgb(0,0,0)" stroke-width="2"  />
		</g>
		<g>
			<title> (ctg33_9)</title>
			<polygon class=" (ctg33_9)" points="251,25 283,25 283,10 313,40 283,70 283,55 251,55" fill="rgb(255,255,255)" fill-opacity="1.0" stroke="rgb(0,0,0)" stroke-width="2"  />
			<g>
				<title>DsbC (PF11412)
"Disulphide bond corrector protein DsbC"</title>
				<rect class="PF11412" x="254" y="28" stroke-linejoin="round" width="11" height="24" fill="rgb(68,196,119)" stroke="rgb(54,156,95)" stroke-width="1" opacity="0.75" />
			</g>
			<g>
				<title>DsbD (PF02683)
"Cytochrome C biogenesis protein transmembrane region"</title>
				<polygon class="PF02683" points="279,28 297,28 299,30 299,50 297,52 279,52" stroke-linejoin="round" width="20" height="24" fill="rgb(89,192,111)" stroke="rgb(71,153,88)" stroke-width="1" opacity="0.75" />
			</g>
			<g>
				<title>Thioredoxin_7 (PF13899)
"Thioredoxin-like"</title>
				<polygon class="PF13899" points="302,33 309,40 302,47" stroke-linejoin="round" width="8" height="24" fill="rgb(143,52,187)" stroke="rgb(114,41,149)" stroke-width="1" opacity="0.75" />
			</g>
		</g>
		<g>
			<title> (ctg33_10)</title>
			<polygon class=" (ctg33_10)" points="314,10 335,40 314,70" fill="rgb(255,255,255)" fill-opacity="1.0" stroke="rgb(0,0,0)" stroke-width="2"  />
			<g>
				<title>DSBA (PF01323)
"DSBA-like thioredoxin domain"</title>
				<polygon class="PF01323" points="319,28 323,28 331,40 323,52 319,52" stroke-linejoin="round" width="14" height="24" fill="rgb(221,114,99)" stroke="rgb(176,91,79)" stroke-width="1" opacity="0.75" />
			</g>
		</g>
		<g>
			<title> (ctg33_11)</title>
			<polygon class=" (ctg33_11)" points="334,10 350,40 334,70" fill="rgb(255,255,255)" fill-opacity="1.0" stroke="rgb(0,0,0)" stroke-width="2"  />
			<g>
				<title>Redoxin (PF08534)
"Redoxin"</title>
				<polygon class="PF08534" points="337,28 340,28 347,40 340,52 337,52" stroke-linejoin="round" width="12" height="24" fill="rgb(145,195,92)" stroke="rgb(116,156,73)" stroke-width="1" opacity="0.75" />
			</g>
		</g>
		<g>
			<title> (ctg33_12)</title>
			<polygon class=" (ctg33_12)" points="359,25 359,25 359,10 389,40 359,70 359,55 359,55" fill="rgb(255,255,255)" fill-opacity="1.0" stroke="rgb(0,0,0)" stroke-width="2"  />
			<g>
				<title>HTH_1 (PF00126)
"Bacterial regulatory helix-turn-helix protein, lysR family"</title>
				<rect class="PF00126" x="359" y="28" stroke-linejoin="round" width="5" height="24" fill="rgb(125,227,79)" stroke="rgb(99,181,63)" stroke-width="1" opacity="0.75" />
			</g>
			<g>
				<title>LysR_substrate (PF03466)
"LysR substrate binding domain"</title>
				<polygon class="PF03466" points="367,28 373,28 385,40 373,52 367,52" stroke-linejoin="round" width="20" height="24" fill="rgb(55,136,195)" stroke="rgb(44,108,156)" stroke-width="1" opacity="0.75" />
			</g>
		</g>
		<g>
			<title> (ctg33_13)</title>
			<polygon class=" (ctg33_13)" points="391,25 394,25 394,10 424,40 394,70 394,55 391,55" fill="rgb(255,255,255)" fill-opacity="1.0" stroke="rgb(0,0,0)" stroke-width="2"  />
			<g>
				<title>HTH_1 (PF00126)
"Bacterial regulatory helix-turn-helix protein, lysR family"</title>
				<rect class="PF00126" x="393" y="28" stroke-linejoin="round" width="6" height="24" fill="rgb(125,227,79)" stroke="rgb(99,181,63)" stroke-width="1" opacity="0.75" />
			</g>
			<g>
				<title>LysR_substrate (PF03466)
"LysR substrate binding domain"</title>
				<polygon class="PF03466" points="401,28 408,28 420,40 408,52 401,52" stroke-linejoin="round" width="20" height="24" fill="rgb(55,136,195)" stroke="rgb(44,108,156)" stroke-width="1" opacity="0.75" />
			</g>
		</g>
		<g>
			<title> (ctg33_14)</title>
			<polygon class=" (ctg33_14)" points="438,25 459,25 459,10 489,40 459,70 459,55 438,55" fill="rgb(255,255,255)" fill-opacity="1.0" stroke="rgb(0,0,0)" stroke-width="2"  />
			<g>
				<title>4HB_MCP_1 (PF12729)
"Four helix bundle sensory module for signal transduction"</title>
				<rect class="PF12729" x="438" y="28" stroke-linejoin="round" width="18" height="24" fill="rgb(100,214,134)" stroke="rgb(79,171,107)" stroke-width="1" opacity="0.75" />
			</g>
			<g>
				<title>HAMP (PF00672)
"HAMP domain"</title>
				<rect class="PF00672" x="458" y="28" stroke-linejoin="round" width="5" height="24" fill="rgb(124,89,195)" stroke="rgb(99,71,156)" stroke-width="1" opacity="0.75" />
			</g>
			<g>
				<title>MCPsignal (PF00015)
"Methyl-accepting chemotaxis protein (MCP) signalling domain"</title>
				<polygon class="PF00015" points="470,28 473,28 485,40 473,52 470,52" stroke-linejoin="round" width="16" height="24" fill="rgb(104,174,223)" stroke="rgb(83,139,178)" stroke-width="1" opacity="0.75" />
			</g>
		</g>
	</g>
</svg>
