<svg version="1.1" baseProfile="full" xmlns="http://www.w3.org/2000/svg" width="1564.9333333333334" height="80">
	<g>
		<line x1="10" y1="40.0" x2="1554.9333333333334" y2="40.0" style="stroke:rgb(70,70,70); stroke-width:3 "/>
		<g>
			<title> (ctg6_114)</title>
			<polygon class=" (ctg6_114)" points="41,40 69,10 69,70" fill="rgb(255,255,255)" fill-opacity="1.0" stroke="rgb(0,0,0)" stroke-width="2"  />
			<g>
				<title>PhzC-PhzF (PF02567)
"Phenazine biosynthesis-like protein"</title>
				<polygon class="PF02567" points="45,40 56,28 67,28 67,52 56,52" stroke-linejoin="round" width="26" height="24" fill="rgb(223,91,96)" stroke="rgb(178,72,76)" stroke-width="1" opacity="0.75" />
			</g>
		</g>
		<g>
			<title> (ctg6_115)</title>
			<polygon class=" (ctg6_115)" points="74,25 89,25 89,10 119,40 89,70 89,55 74,55" fill="rgb(255,255,255)" fill-opacity="1.0" stroke="rgb(0,0,0)" stroke-width="2"  />
			<g>
				<title>OprB (PF04966)
"Carbohydrate-selective porin, OprB family"</title>
				<polygon class="PF04966" points="81,28 102,28 114,40 102,52 81,52" stroke-linejoin="round" width="37" height="24" fill="rgb(188,181,83)" stroke="rgb(150,144,66)" stroke-width="1" opacity="0.75" />
			</g>
		</g>
		<g>
			<title> (ctg6_116)</title>
			<polygon class=" (ctg6_116)" points="127,25 175,25 175,10 205,40 175,70 175,55 127,55" fill="rgb(255,255,255)" fill-opacity="1.0" stroke="rgb(0,0,0)" stroke-width="2"  />
			<g>
				<title>Plug (PF07715)
"TonB-dependent Receptor Plug Domain"</title>
				<rect class="PF07715" x="137" y="28" stroke-linejoin="round" width="10" height="24" fill="rgb(99,133,214)" stroke="rgb(79,106,171)" stroke-width="1" opacity="0.75" />
			</g>
			<g>
				<title>TonB_dep_Rec (PF00593)
"TonB dependent receptor"</title>
				<polygon class="PF00593" points="154,28 189,28 201,40 189,52 154,52" stroke-linejoin="round" width="50" height="24" fill="rgb(171,200,51)" stroke="rgb(136,160,40)" stroke-width="1" opacity="0.75" />
			</g>
		</g>
		<g>
			<title> (ctg6_117)</title>
			<polygon class=" (ctg6_117)" points="209,10 229,40 209,70" fill="rgb(255,255,255)" fill-opacity="1.0" stroke="rgb(0,0,0)" stroke-width="2"  />
			<g>
				<title>Sel1 (PF08238)
"Sel1 repeat"</title>
				<polygon class="PF08238" points="215,28 217,28 218,29 218,51 217,52 215,52" stroke-linejoin="round" width="3" height="24" fill="rgb(190,55,164)" stroke="rgb(152,44,131)" stroke-width="1" opacity="0.75" />
			</g>
			<g>
				<title>Sel1 (PF08238)
"Sel1 repeat"</title>
				<polygon class="PF08238" points="219,31 222,35 222,45 219,49" stroke-linejoin="round" width="3" height="24" fill="rgb(190,55,164)" stroke="rgb(152,44,131)" stroke-width="1" opacity="0.75" />
			</g>
			<g>
				<title>Sel1 (PF08238)
"Sel1 repeat"</title>
				<polygon class="PF08238" points="223,37 225,40 223,43" stroke-linejoin="round" width="3" height="24" fill="rgb(190,55,164)" stroke="rgb(152,44,131)" stroke-width="1" opacity="0.75" />
			</g>
		</g>
		<g>
			<title> (ctg6_118)</title>
			<polygon class=" (ctg6_118)" points="232,40 241,10 241,70" fill="rgb(255,255,255)" fill-opacity="1.0" stroke="rgb(0,0,0)" stroke-width="2"  />
		</g>
		<g>
			<title> (ctg6_119)</title>
			<polygon class=" (ctg6_119)" points="310,25 282,25 282,10 252,40 282,70 282,55 310,55" fill="rgb(255,255,255)" fill-opacity="1.0" stroke="rgb(0,0,0)" stroke-width="2"  />
			<g>
				<title>AMP-binding (PF00501)
"AMP-binding enzyme"</title>
				<polygon class="PF00501" points="264,32 268,28 307,28 307,52 268,52 264,48" stroke-linejoin="round" width="43" height="24" fill="rgb(60,217,223)" stroke="rgb(48,173,178)" stroke-width="1" opacity="0.75" />
			</g>
		</g>
		<g>
			<title> (ctg6_120)</title>
			<polygon class=" (ctg6_120)" points="357,25 341,25 341,10 311,40 341,70 341,55 357,55" fill="rgb(255,255,255)" fill-opacity="1.0" stroke="rgb(0,0,0)" stroke-width="2"  />
			<g>
				<title>Glyco_transf_9 (PF01075)
"Glycosyltransferase family 9 (heptosyltransferase)"</title>
				<polygon class="PF01075" points="315,40 327,28 331,28 331,52 327,52 315,40" stroke-linejoin="round" width="16" height="24" fill="rgb(200,89,91)" stroke="rgb(160,71,72)" stroke-width="1" opacity="0.75" />
			</g>
		</g>
		<g>
			<title> (ctg6_121)</title>
			<polygon class=" (ctg6_121)" points="399,25 387,25 387,10 357,40 387,70 387,55 399,55" fill="rgb(255,255,255)" fill-opacity="1.0" stroke="rgb(0,0,0)" stroke-width="2"  />
			<g>
				<title>Glyco_transf_9 (PF01075)
"Glycosyltransferase family 9 (heptosyltransferase)"</title>
				<polygon class="PF01075" points="364,37 373,28 381,28 381,52 373,52 364,43" stroke-linejoin="round" width="17" height="24" fill="rgb(200,89,91)" stroke="rgb(160,71,72)" stroke-width="1" opacity="0.75" />
			</g>
		</g>
		<g>
			<title> (ctg6_122)</title>
			<polygon class=" (ctg6_122)" points="432,25 430,25 430,10 400,40 430,70 430,55 432,55" fill="rgb(255,255,255)" fill-opacity="1.0" stroke="rgb(0,0,0)" stroke-width="2"  />
			<g>
				<title>Glycos_transf_1 (PF00534)
"Glycosyl transferases group 1"</title>
				<polygon class="PF00534" points="404,40 412,32 412,48" stroke-linejoin="round" width="9" height="24" fill="rgb(228,92,150)" stroke="rgb(182,73,119)" stroke-width="1" opacity="0.75" />
			</g>
		</g>
		<g>
			<title> (ctg6_123)</title>
			<polygon class=" (ctg6_123)" points="455,25 500,25 500,10 530,40 500,70 500,55 455,55" fill="rgb(255,255,255)" fill-opacity="1.0" stroke="rgb(0,0,0)" stroke-width="2"  />
			<g>
				<title>Hint_2 (PF13403)
"Hint domain"</title>
				<rect class="PF13403" x="495" y="28" stroke-linejoin="round" width="14" height="24" fill="rgb(204,71,78)" stroke="rgb(163,56,62)" stroke-width="1" opacity="0.75" />
			</g>
		</g>
		<g>
			<title> (ctg6_124)</title>
			<polygon class=" (ctg6_124)" points="547,25 590,25 590,10 620,40 590,70 590,55 547,55" fill="rgb(255,255,255)" fill-opacity="1.0" stroke="rgb(0,0,0)" stroke-width="2"  />
			<g>
				<title>Hint_2 (PF13403)
"Hint domain"</title>
				<rect class="PF13403" x="586" y="28" stroke-linejoin="round" width="14" height="24" fill="rgb(204,71,78)" stroke="rgb(163,56,62)" stroke-width="1" opacity="0.75" />
			</g>
		</g>
		<g>
			<title> (ctg6_125)</title>
			<polygon class=" (ctg6_125)" points="623,25 643,25 643,10 673,40 643,70 643,55 623,55" fill="rgb(255,255,255)" fill-opacity="1.0" stroke="rgb(0,0,0)" stroke-width="2"  />
			<g>
				<title>AMP-binding (PF00501)
"AMP-binding enzyme"</title>
				<polygon class="PF00501" points="624,28 656,28 662,34 662,46 656,52 624,52" stroke-linejoin="round" width="38" height="24" fill="rgb(60,217,223)" stroke="rgb(48,173,178)" stroke-width="1" opacity="0.75" />
			</g>
		</g>
		<g>
			<title> (ctg6_126)</title>
			<polygon class=" (ctg6_126)" points="676,25 857,25 857,10 887,40 857,70 857,55 676,55" fill="rgb(255,255,255)" fill-opacity="1.0" stroke="rgb(0,0,0)" stroke-width="2"  />
			<g>
				<title>ketoacyl-synt (PF00109)
"Beta-ketoacyl synthase, N-terminal domain"</title>
				<rect class="PF00109" x="676" y="28" stroke-linejoin="round" width="25" height="24" fill="rgb(112,116,228)" stroke="rgb(89,92,182)" stroke-width="1" opacity="0.75" />
			</g>
			<g>
				<title>Ketoacyl-synt_C (PF02801)
"Beta-ketoacyl synthase, C-terminal domain"</title>
				<rect class="PF02801" x="702" y="28" stroke-linejoin="round" width="11" height="24" fill="rgb(215,78,102)" stroke="rgb(172,62,81)" stroke-width="1" opacity="0.75" />
			</g>
			<g>
				<title>KAsynt_C_assoc (PF16197)
"Ketoacyl-synthetase C-terminal extension"</title>
				<rect class="PF16197" x="714" y="28" stroke-linejoin="round" width="11" height="24" fill="rgb(240,150,172)" stroke="rgb(192,120,137)" stroke-width="1" opacity="0.75" />
			</g>
			<g>
				<title>Acyl_transf_1 (PF00698)
"Acyl transferase domain"</title>
				<rect class="PF00698" x="730" y="28" stroke-linejoin="round" width="31" height="24" fill="rgb(59,176,209)" stroke="rgb(47,140,167)" stroke-width="1" opacity="0.75" />
			</g>
			<g>
				<title>PS-DH (PF14765)
"Polyketide synthase dehydratase"</title>
				<rect class="PF14765" x="766" y="28" stroke-linejoin="round" width="27" height="24" fill="rgb(173,56,182)" stroke="rgb(138,44,145)" stroke-width="1" opacity="0.75" />
			</g>
			<g>
				<title>ADH_zinc_N (PF00107)
"Zinc-binding dehydrogenase"</title>
				<rect class="PF00107" x="832" y="28" stroke-linejoin="round" width="12" height="24" fill="rgb(81,108,215)" stroke="rgb(64,86,172)" stroke-width="1" opacity="0.75" />
			</g>
			<g>
				<title>KR (PF08659)
"KR domain"</title>
				<rect class="PF08659" x="851" y="28" stroke-linejoin="round" width="17" height="24" fill="rgb(66,209,188)" stroke="rgb(52,167,150)" stroke-width="1" opacity="0.75" />
			</g>
			<g>
				<title>PP-binding (PF00550)
"Phosphopantetheine attachment site"</title>
				<polygon class="PF00550" points="879,36 883,40 879,44" stroke-linejoin="round" width="6" height="24" fill="rgb(103,191,88)" stroke="rgb(82,152,70)" stroke-width="1" opacity="0.75" />
			</g>
		</g>
		<g>
			<title> (ctg6_127)</title>
			<polygon class=" (ctg6_127)" points="933,25 921,25 921,10 891,40 921,70 921,55 933,55" fill="rgb(255,255,255)" fill-opacity="1.0" stroke="rgb(0,0,0)" stroke-width="2"  />
			<g>
				<title>MFS_1 (PF07690)
"Major Facilitator Superfamily"</title>
				<polygon class="PF07690" points="906,29 907,28 929,28 929,52 907,52 906,51" stroke-linejoin="round" width="23" height="24" fill="rgb(193,224,74)" stroke="rgb(154,179,59)" stroke-width="1" opacity="0.75" />
			</g>
		</g>
		<g>
			<title> (ctg6_128)</title>
			<polygon class=" (ctg6_128)" points="937,10 957,40 937,70" fill="rgb(255,255,255)" fill-opacity="1.0" stroke="rgb(0,0,0)" stroke-width="2"  />
		</g>
		<g>
			<title> (ctg6_129)</title>
			<polygon class=" (ctg6_129)" points="956,25 966,25 966,10 996,40 966,70 966,55 956,55" fill="rgb(255,255,255)" fill-opacity="1.0" stroke="rgb(0,0,0)" stroke-width="2"  />
			<g>
				<title>Aminotran_1_2 (PF00155)
"Aminotransferase class I and II"</title>
				<polygon class="PF00155" points="960,28 980,28 992,40 980,52 960,52" stroke-linejoin="round" width="34" height="24" fill="rgb(89,113,198)" stroke="rgb(71,90,158)" stroke-width="1" opacity="0.75" />
			</g>
		</g>
		<g>
			<title> (ctg6_130)</title>
			<polygon class=" (ctg6_130)" points="1009,25 1065,25 1065,10 1095,40 1065,70 1065,55 1009,55" fill="rgb(255,255,255)" fill-opacity="1.0" stroke="rgb(0,0,0)" stroke-width="2"  />
			<g>
				<title>MS_channel (PF00924)
"Mechanosensitive ion channel"</title>
				<polygon class="PF00924" points="1069,28 1078,28 1089,39 1089,41 1078,52 1069,52" stroke-linejoin="round" width="20" height="24" fill="rgb(177,58,210)" stroke="rgb(141,46,168)" stroke-width="1" opacity="0.75" />
			</g>
		</g>
		<g>
			<title> (ctg6_131)</title>
			<polygon class=" (ctg6_131)" points="1221,25 1132,25 1132,10 1102,40 1132,70 1132,55 1221,55" fill="rgb(255,255,255)" fill-opacity="1.0" stroke="rgb(0,0,0)" stroke-width="2"  />
			<g>
				<title>Response_reg (PF00072)
"Response regulator receiver domain"</title>
				<polygon class="PF00072" points="1106,40 1113,33 1113,47" stroke-linejoin="round" width="11" height="24" fill="rgb(100,107,203)" stroke="rgb(80,85,162)" stroke-width="1" opacity="0.75" />
			</g>
			<g>
				<title>HATPase_c (PF02518)
"Histidine kinase-, DNA gyrase B-, and HSP90-like ATPase"</title>
				<polygon class="PF02518" points="1116,30 1118,28 1128,28 1128,52 1118,52 1116,50" stroke-linejoin="round" width="12" height="24" fill="rgb(80,94,225)" stroke="rgb(64,75,180)" stroke-width="1" opacity="0.75" />
			</g>
			<g>
				<title>HisKA (PF00512)
"His Kinase A (phospho-acceptor) domain"</title>
				<rect class="PF00512" x="1132" y="28" stroke-linejoin="round" width="6" height="24" fill="rgb(193,125,62)" stroke="rgb(154,100,49)" stroke-width="1" opacity="0.75" />
			</g>
			<g>
				<title>PAS_4 (PF08448)
"PAS fold"</title>
				<rect class="PF08448" x="1140" y="28" stroke-linejoin="round" width="10" height="24" fill="rgb(50,90,192)" stroke="rgb(40,71,153)" stroke-width="1" opacity="0.75" />
			</g>
			<g>
				<title>PAS_3 (PF08447)
"PAS fold"</title>
				<rect class="PF08447" x="1171" y="28" stroke-linejoin="round" width="7" height="24" fill="rgb(222,97,193)" stroke="rgb(177,77,154)" stroke-width="1" opacity="0.75" />
			</g>
			<g>
				<title>PAS_4 (PF08448)
"PAS fold"</title>
				<rect class="PF08448" x="1182" y="28" stroke-linejoin="round" width="11" height="24" fill="rgb(50,90,192)" stroke="rgb(40,71,153)" stroke-width="1" opacity="0.75" />
			</g>
		</g>
		<g>
			<title> (ctg6_132)</title>
			<polygon class=" (ctg6_132)" points="1257,25 1256,25 1256,10 1226,40 1256,70 1256,55 1257,55" fill="rgb(255,255,255)" fill-opacity="1.0" stroke="rgb(0,0,0)" stroke-width="2"  />
			<g>
				<title>adh_short_C2 (PF13561)
"Enoyl-(Acyl carrier protein) reductase"</title>
				<polygon class="PF13561" points="1230,40 1242,28 1249,28 1249,52 1242,52" stroke-linejoin="round" width="23" height="24" fill="rgb(73,205,127)" stroke="rgb(58,164,101)" stroke-width="1" opacity="0.75" />
			</g>
		</g>
		<g>
			<title> (ctg6_133)</title>
			<polygon class=" (ctg6_133)" points="1261,25 1277,25 1277,10 1307,40 1277,70 1277,55 1261,55" fill="rgb(255,255,255)" fill-opacity="1.0" stroke="rgb(0,0,0)" stroke-width="2"  />
			<g>
				<title>NAD_binding_7 (PF13241)
"Putative NAD(P)-binding"</title>
				<rect class="PF13241" x="1262" y="28" stroke-linejoin="round" width="11" height="24" fill="rgb(229,162,111)" stroke="rgb(183,129,88)" stroke-width="1" opacity="0.75" />
			</g>
			<g>
				<title>Sirohm_synth_M (PF14824)
"Sirohaem biosynthesis protein central"</title>
				<rect class="PF14824" x="1273" y="28" stroke-linejoin="round" width="2" height="24" fill="rgb(204,86,153)" stroke="rgb(163,68,122)" stroke-width="1" opacity="0.75" />
			</g>
			<g>
				<title>CysG_dimeriser (PF10414)
"Sirohaem synthase dimerisation region"</title>
				<rect class="PF10414" x="1276" y="28" stroke-linejoin="round" width="5" height="24" fill="rgb(111,225,67)" stroke="rgb(88,180,53)" stroke-width="1" opacity="0.75" />
			</g>
			<g>
				<title>TP_methylase (PF00590)
"Tetrapyrrole (Corrin/Porphyrin) Methylases"</title>
				<polygon class="PF00590" points="1283,28 1291,28 1303,40 1291,52 1283,52" stroke-linejoin="round" width="21" height="24" fill="rgb(124,218,92)" stroke="rgb(99,174,73)" stroke-width="1" opacity="0.75" />
			</g>
		</g>
		<g>
			<title> (ctg6_134)</title>
			<polygon class=" (ctg6_134)" points="1311,10 1333,40 1311,70" fill="rgb(255,255,255)" fill-opacity="1.0" stroke="rgb(0,0,0)" stroke-width="2"  />
			<g>
				<title>PAPS_reduct (PF01507)
"Phosphoadenosine phosphosulfate reductase family"</title>
				<polygon class="PF01507" points="1314,28 1321,28 1330,40 1321,52 1314,52" stroke-linejoin="round" width="17" height="24" fill="rgb(87,190,105)" stroke="rgb(69,152,83)" stroke-width="1" opacity="0.75" />
			</g>
		</g>
		<g>
			<title> (ctg6_135)</title>
			<polygon class=" (ctg6_135)" points="1334,10 1362,40 1334,70" fill="rgb(255,255,255)" fill-opacity="1.0" stroke="rgb(0,0,0)" stroke-width="2"  />
			<g>
				<title>PAPS_reduct (PF01507)
"Phosphoadenosine phosphosulfate reductase family"</title>
				<polygon class="PF01507" points="1338,28 1346,28 1357,39 1357,41 1346,52 1338,52" stroke-linejoin="round" width="19" height="24" fill="rgb(87,190,105)" stroke="rgb(69,152,83)" stroke-width="1" opacity="0.75" />
			</g>
		</g>
		<g>
			<title> (ctg6_136)</title>
			<polygon class=" (ctg6_136)" points="1362,25 1394,25 1394,10 1424,40 1394,70 1394,55 1362,55" fill="rgb(255,255,255)" fill-opacity="1.0" stroke="rgb(0,0,0)" stroke-width="2"  />
			<g>
				<title>GTP_EFTU (PF00009)
"Elongation factor Tu GTP binding domain"</title>
				<rect class="PF00009" x="1363" y="28" stroke-linejoin="round" width="21" height="24" fill="rgb(196,118,83)" stroke="rgb(156,94,66)" stroke-width="1" opacity="0.75" />
			</g>
			<g>
				<title>APS_kinase (PF01583)
"Adenylylsulphate kinase"</title>
				<polygon class="PF01583" points="1407,28 1408,28 1420,40 1408,52 1407,52" stroke-linejoin="round" width="15" height="24" fill="rgb(48,131,188)" stroke="rgb(38,104,150)" stroke-width="1" opacity="0.75" />
			</g>
		</g>
		<g>
			<title> (ctg6_137)</title>
			<polygon class=" (ctg6_137)" points="1437,40 1463,10 1463,70" fill="rgb(255,255,255)" fill-opacity="1.0" stroke="rgb(0,0,0)" stroke-width="2"  />
			<g>
				<title>PAP2 (PF01569)
"PAP2 superfamily"</title>
				<polygon class="PF01569" points="1441,40 1452,28 1452,28 1452,52 1452,52 1441,40" stroke-linejoin="round" width="11" height="24" fill="rgb(133,203,94)" stroke="rgb(106,162,75)" stroke-width="1" opacity="0.75" />
			</g>
		</g>
		<g>
			<title> (ctg6_138)</title>
			<polygon class=" (ctg6_138)" points="1471,40 1483,10 1483,70" fill="rgb(255,255,255)" fill-opacity="1.0" stroke="rgb(0,0,0)" stroke-width="2"  />
			<g>
				<title>HTH_5 (PF01022)
"Bacterial regulatory protein, arsR family"</title>
				<polygon class="PF01022" points="1476,35 1479,28 1480,28 1480,52 1479,52 1476,45" stroke-linejoin="round" width="4" height="24" fill="rgb(95,208,123)" stroke="rgb(76,166,98)" stroke-width="1" opacity="0.75" />
			</g>
		</g>
		<g>
			<title> (ctg6_139)</title>
			<polygon class=" (ctg6_139)" points="1483,40 1504,10 1504,70" fill="rgb(255,255,255)" fill-opacity="1.0" stroke="rgb(0,0,0)" stroke-width="2"  />
			<g>
				<title>AhpC-TSA (PF00578)
"AhpC/TSA family"</title>
				<polygon class="PF00578" points="1490,36 1496,28 1503,28 1503,52 1496,52 1490,44" stroke-linejoin="round" width="13" height="24" fill="rgb(166,71,190)" stroke="rgb(132,56,152)" stroke-width="1" opacity="0.75" />
			</g>
		</g>
		<g>
			<title> (ctg6_140)</title>
			<polygon class=" (ctg6_140)" points="1508,25 1508,25 1508,10 1538,40 1508,70 1508,55 1508,55" fill="rgb(255,255,255)" fill-opacity="1.0" stroke="rgb(0,0,0)" stroke-width="2"  />
			<g>
				<title>Lactamase_B (PF00753)
"Metallo-beta-lactamase superfamily"</title>
				<polygon class="PF00753" points="1511,28 1522,28 1530,36 1530,44 1522,52 1511,52" stroke-linejoin="round" width="19" height="24" fill="rgb(206,198,96)" stroke="rgb(164,158,76)" stroke-width="1" opacity="0.75" />
			</g>
		</g>
	</g>
</svg>
