<svg version="1.1" baseProfile="full" xmlns="http://www.w3.org/2000/svg" width="1473.4333333333334" height="80">
	<g>
		<line x1="10" y1="40.0" x2="1463.4333333333334" y2="40.0" style="stroke:rgb(70,70,70); stroke-width:3 "/>
		<g>
			<title> (ctg4_303)</title>
			<polygon class=" (ctg4_303)" points="27,10 53,40 27,70" fill="rgb(255,255,255)" fill-opacity="1.0" stroke="rgb(0,0,0)" stroke-width="2"  />
			<g>
				<title>HTH_25 (PF13413)
"Helix-turn-helix domain"</title>
				<rect class="PF13413" x="29" y="28" stroke-linejoin="round" width="6" height="24" fill="rgb(76,211,114)" stroke="rgb(60,168,91)" stroke-width="1" opacity="0.75" />
			</g>
			<g>
				<title>DUF4115 (PF13464)
"Domain of unknown function (DUF4115)"</title>
				<polygon class="PF13464" points="46,37 49,40 46,43" stroke-linejoin="round" width="7" height="24" fill="rgb(191,73,203)" stroke="rgb(152,58,162)" stroke-width="1" opacity="0.75" />
			</g>
		</g>
		<g>
			<title> (ctg4_304)</title>
			<polygon class=" (ctg4_304)" points="55,25 62,25 62,10 92,40 62,70 62,55 55,55" fill="rgb(255,255,255)" fill-opacity="1.0" stroke="rgb(0,0,0)" stroke-width="2"  />
			<g>
				<title>GcpE (PF04551)
"GcpE protein"</title>
				<polygon class="PF04551" points="56,28 75,28 87,40 75,52 56,52" stroke-linejoin="round" width="34" height="24" fill="rgb(61,170,205)" stroke="rgb(48,136,164)" stroke-width="1" opacity="0.75" />
			</g>
		</g>
		<g>
			<title> (ctg4_305)</title>
			<polygon class=" (ctg4_305)" points="92,25 105,25 105,10 135,40 105,70 105,55 92,55" fill="rgb(255,255,255)" fill-opacity="1.0" stroke="rgb(0,0,0)" stroke-width="2"  />
			<g>
				<title>tRNA-synt_His (PF13393)
"Histidyl-tRNA synthetase"</title>
				<polygon class="PF13393" points="92,28 118,28 122,32 122,48 118,52 92,52" stroke-linejoin="round" width="30" height="24" fill="rgb(106,63,202)" stroke="rgb(84,50,161)" stroke-width="1" opacity="0.75" />
			</g>
			<g>
				<title>HGTP_anticodon (PF03129)
"Anticodon binding domain"</title>
				<polygon class="PF03129" points="125,35 130,40 125,45" stroke-linejoin="round" width="9" height="24" fill="rgb(115,202,95)" stroke="rgb(92,161,76)" stroke-width="1" opacity="0.75" />
			</g>
		</g>
		<g>
			<title> (ctg4_306)</title>
			<polygon class=" (ctg4_306)" points="136,10 159,40 136,70" fill="rgb(255,255,255)" fill-opacity="1.0" stroke="rgb(0,0,0)" stroke-width="2"  />
			<g>
				<title>TPR_21 (PF09976)
"Tetratricopeptide repeat-like domain"</title>
				<polygon class="PF09976" points="137,28 146,28 155,40 146,52 137,52" stroke-linejoin="round" width="20" height="24" fill="rgb(70,194,131)" stroke="rgb(56,155,104)" stroke-width="1" opacity="0.75" />
			</g>
		</g>
		<g>
			<title> (ctg4_307)</title>
			<polygon class=" (ctg4_307)" points="159,25 167,25 167,10 197,40 167,70 167,55 159,55" fill="rgb(255,255,255)" fill-opacity="1.0" stroke="rgb(0,0,0)" stroke-width="2"  />
			<g>
				<title>PQQ_2 (PF13360)
"PQQ-like domain"</title>
				<polygon class="PF13360" points="165,28 180,28 189,37 189,43 180,52 165,52" stroke-linejoin="round" width="24" height="24" fill="rgb(98,210,146)" stroke="rgb(78,168,116)" stroke-width="1" opacity="0.75" />
			</g>
		</g>
		<g>
			<title> (ctg4_308)</title>
			<polygon class=" (ctg4_308)" points="203,25 220,25 220,10 250,40 220,70 220,55 203,55" fill="rgb(255,255,255)" fill-opacity="1.0" stroke="rgb(0,0,0)" stroke-width="2"  />
			<g>
				<title>MMR_HSR1 (PF01926)
"50S ribosome-binding GTPase"</title>
				<rect class="PF01926" x="203" y="28" stroke-linejoin="round" width="11" height="24" fill="rgb(105,180,226)" stroke="rgb(83,143,180)" stroke-width="1" opacity="0.75" />
			</g>
			<g>
				<title>MMR_HSR1 (PF01926)
"50S ribosome-binding GTPase"</title>
				<rect class="PF01926" x="220" y="28" stroke-linejoin="round" width="11" height="24" fill="rgb(105,180,226)" stroke="rgb(83,143,180)" stroke-width="1" opacity="0.75" />
			</g>
			<g>
				<title>KH_dom-like (PF14714)
"KH-domain-like of EngA bacterial GTPase enzymes, C-terminal"</title>
				<polygon class="PF14714" points="238,33 245,40 238,47" stroke-linejoin="round" width="8" height="24" fill="rgb(178,119,50)" stroke="rgb(142,95,40)" stroke-width="1" opacity="0.75" />
			</g>
		</g>
		<g>
			<title> (ctg4_309)</title>
			<polygon class=" (ctg4_309)" points="257,10 277,40 257,70" fill="rgb(255,255,255)" fill-opacity="1.0" stroke="rgb(0,0,0)" stroke-width="2"  />
			<g>
				<title>Ketoacyl-synt_2 (PF13723)
"Beta-ketoacyl synthase, N-terminal domain"</title>
				<polygon class="PF13723" points="257,28 265,28 273,40 265,52 257,52" stroke-linejoin="round" width="19" height="24" fill="rgb(57,130,212)" stroke="rgb(45,103,169)" stroke-width="1" opacity="0.75" />
			</g>
		</g>
		<g>
			<title> (ctg4_310)</title>
			<polygon class=" (ctg4_310)" points="277,10 303,40 277,70" fill="rgb(255,255,255)" fill-opacity="1.0" stroke="rgb(0,0,0)" stroke-width="2"  />
			<g>
				<title>Acyltransferase (PF01553)
"Acyltransferase"</title>
				<polygon class="PF01553" points="284,28 288,28 296,37 296,43 288,52 284,52" stroke-linejoin="round" width="12" height="24" fill="rgb(87,176,216)" stroke="rgb(69,140,172)" stroke-width="1" opacity="0.75" />
			</g>
		</g>
		<g>
			<title> (ctg4_311)</title>
			<polygon class=" (ctg4_311)" points="304,10 312,40 304,70" fill="rgb(255,255,255)" fill-opacity="1.0" stroke="rgb(0,0,0)" stroke-width="2"  />
			<g>
				<title>PP-binding (PF00550)
"Phosphopantetheine attachment site"</title>
				<polygon class="PF00550" points="304,28 305,28 309,40 305,52 304,52" stroke-linejoin="round" width="7" height="24" fill="rgb(103,191,88)" stroke="rgb(82,152,70)" stroke-width="1" opacity="0.75" />
			</g>
		</g>
		<g>
			<title> (ctg4_312)</title>
			<polygon class=" (ctg4_312)" points="313,10 321,40 313,70" fill="rgb(255,255,255)" fill-opacity="1.0" stroke="rgb(0,0,0)" stroke-width="2"  />
			<g>
				<title>PP-binding (PF00550)
"Phosphopantetheine attachment site"</title>
				<polygon class="PF00550" points="313,28 314,28 318,40 314,52 313,52" stroke-linejoin="round" width="6" height="24" fill="rgb(103,191,88)" stroke="rgb(82,152,70)" stroke-width="1" opacity="0.75" />
			</g>
		</g>
		<g>
			<title> (ctg4_313)</title>
			<polygon class=" (ctg4_313)" points="321,10 339,40 321,70" fill="rgb(255,255,255)" fill-opacity="1.0" stroke="rgb(0,0,0)" stroke-width="2"  />
			<g>
				<title>IspA (PF04279)
"Intracellular septation protein A"</title>
				<polygon class="PF04279" points="321,28 328,28 335,40 328,52 321,52" stroke-linejoin="round" width="17" height="24" fill="rgb(98,80,184)" stroke="rgb(78,64,147)" stroke-width="1" opacity="0.75" />
			</g>
		</g>
		<g>
			<title> (ctg4_314)</title>
			<polygon class=" (ctg4_314)" points="340,25 365,25 365,10 395,40 365,70 365,55 340,55" fill="rgb(255,255,255)" fill-opacity="1.0" stroke="rgb(0,0,0)" stroke-width="2"  />
			<g>
				<title>AMP-binding (PF00501)
"AMP-binding enzyme"</title>
				<rect class="PF00501" x="347" y="28" stroke-linejoin="round" width="21" height="24" fill="rgb(60,217,223)" stroke="rgb(48,173,178)" stroke-width="1" opacity="0.75" />
			</g>
			<g>
				<title>AMP-binding_C (PF13193)
"AMP-binding enzyme C-terminal domain"</title>
				<polygon class="PF13193" points="374,28 379,28 382,31 382,49 379,52 374,52" stroke-linejoin="round" width="8" height="24" fill="rgb(182,50,118)" stroke="rgb(145,39,94)" stroke-width="1" opacity="0.75" />
			</g>
		</g>
		<g>
			<title> (ctg4_315)</title>
			<polygon class=" (ctg4_315)" points="395,10 419,40 395,70" fill="rgb(255,255,255)" fill-opacity="1.0" stroke="rgb(0,0,0)" stroke-width="2"  />
			<g>
				<title>Glycos_transf_2 (PF00535)
"Glycosyl transferase family 2"</title>
				<polygon class="PF00535" points="395,28 406,28 410,33 410,47 406,52 395,52" stroke-linejoin="round" width="15" height="24" fill="rgb(224,122,96)" stroke="rgb(179,97,76)" stroke-width="1" opacity="0.75" />
			</g>
		</g>
		<g>
			<title> (ctg4_316)</title>
			<polygon class=" (ctg4_316)" points="420,25 420,25 420,10 450,40 420,70 420,55 420,55" fill="rgb(255,255,255)" fill-opacity="1.0" stroke="rgb(0,0,0)" stroke-width="2"  />
			<g>
				<title>Lip_A_acyltrans (PF03279)
"Bacterial lipid A biosynthesis acyltransferase"</title>
				<polygon class="PF03279" points="428,28 434,28 446,40 434,52 428,52" stroke-linejoin="round" width="22" height="24" fill="rgb(95,219,149)" stroke="rgb(76,175,119)" stroke-width="1" opacity="0.75" />
			</g>
		</g>
		<g>
			<title> (ctg4_317)</title>
			<polygon class=" (ctg4_317)" points="451,25 472,25 472,10 502,40 472,70 472,55 451,55" fill="rgb(255,255,255)" fill-opacity="1.0" stroke="rgb(0,0,0)" stroke-width="2"  />
			<g>
				<title>Lyase_aromatic (PF00221)
"Aromatic amino acid lyase"</title>
				<polygon class="PF00221" points="452,28 485,28 497,40 485,52 452,52" stroke-linejoin="round" width="46" height="24" fill="rgb(182,133,62)" stroke="rgb(145,106,49)" stroke-width="1" opacity="0.75" />
			</g>
		</g>
		<g>
			<title> (ctg4_318)</title>
			<polygon class=" (ctg4_318)" points="502,10 516,40 502,70" fill="rgb(255,255,255)" fill-opacity="1.0" stroke="rgb(0,0,0)" stroke-width="2"  />
			<g>
				<title>4HBT_2 (PF13279)
"Thioesterase-like superfamily"</title>
				<polygon class="PF13279" points="502,28 507,28 512,40 507,52 502,52" stroke-linejoin="round" width="12" height="24" fill="rgb(213,114,82)" stroke="rgb(170,91,65)" stroke-width="1" opacity="0.75" />
			</g>
		</g>
		<g>
			<title> (ctg4_319)</title>
			<polygon class=" (ctg4_319)" points="517,10 538,40 517,70" fill="rgb(255,255,255)" fill-opacity="1.0" stroke="rgb(0,0,0)" stroke-width="2"  />
			<g>
				<title>LolA (PF03548)
"Outer membrane lipoprotein carrier protein LolA"</title>
				<polygon class="PF03548" points="520,28 526,28 534,40 526,52 520,52" stroke-linejoin="round" width="16" height="24" fill="rgb(84,160,208)" stroke="rgb(67,128,166)" stroke-width="1" opacity="0.75" />
			</g>
		</g>
		<g>
			<title> (ctg4_320)</title>
			<polygon class=" (ctg4_320)" points="537,25 584,25 584,10 614,40 584,70 584,55 537,55" fill="rgb(255,255,255)" fill-opacity="1.0" stroke="rgb(0,0,0)" stroke-width="2"  />
		</g>
		<g>
			<title> (ctg4_321)</title>
			<polygon class=" (ctg4_321)" points="615,25 628,25 628,10 658,40 628,70 628,55 615,55" fill="rgb(255,255,255)" fill-opacity="1.0" stroke="rgb(0,0,0)" stroke-width="2"  />
			<g>
				<title>FAD_binding_3 (PF01494)
"FAD binding domain"</title>
				<polygon class="PF01494" points="615,28 641,28 648,35 648,45 641,52 615,52" stroke-linejoin="round" width="33" height="24" fill="rgb(182,175,59)" stroke="rgb(145,140,47)" stroke-width="1" opacity="0.75" />
			</g>
		</g>
		<g>
			<title> (ctg4_322)</title>
			<polygon class=" (ctg4_322)" points="658,10 676,40 658,70" fill="rgb(255,255,255)" fill-opacity="1.0" stroke="rgb(0,0,0)" stroke-width="2"  />
			<g>
				<title>DUF3261 (PF11659)
"Protein of unknown function (DUF3261)"</title>
				<polygon class="PF11659" points="661,28 665,28 672,40 665,52 661,52" stroke-linejoin="round" width="13" height="24" fill="rgb(224,86,172)" stroke="rgb(179,68,137)" stroke-width="1" opacity="0.75" />
			</g>
		</g>
		<g>
			<title> (ctg4_323)</title>
			<polygon class=" (ctg4_323)" points="676,25 686,25 686,10 716,40 686,70 686,55 676,55" fill="rgb(255,255,255)" fill-opacity="1.0" stroke="rgb(0,0,0)" stroke-width="2"  />
			<g>
				<title>ketoacyl-synt (PF00109)
"Beta-ketoacyl synthase, N-terminal domain"</title>
				<rect class="PF00109" x="680" y="28" stroke-linejoin="round" width="19" height="24" fill="rgb(112,116,228)" stroke="rgb(89,92,182)" stroke-width="1" opacity="0.75" />
			</g>
			<g>
				<title>Ketoacyl-synt_C (PF02801)
"Beta-ketoacyl synthase, C-terminal domain"</title>
				<polygon class="PF02801" points="700,29 711,40 711,40 700,51" stroke-linejoin="round" width="11" height="24" fill="rgb(215,78,102)" stroke="rgb(172,62,81)" stroke-width="1" opacity="0.75" />
			</g>
		</g>
		<g>
			<title> (ctg4_324)</title>
			<polygon class=" (ctg4_324)" points="716,10 730,40 716,70" fill="rgb(255,255,255)" fill-opacity="1.0" stroke="rgb(0,0,0)" stroke-width="2"  />
		</g>
		<g>
			<title> (ctg4_325)</title>
			<polygon class=" (ctg4_325)" points="731,10 755,40 731,70" fill="rgb(255,255,255)" fill-opacity="1.0" stroke="rgb(0,0,0)" stroke-width="2"  />
			<g>
				<title>adh_short_C2 (PF13561)
"Enoyl-(Acyl carrier protein) reductase"</title>
				<polygon class="PF13561" points="731,28 742,28 751,40 742,52 731,52" stroke-linejoin="round" width="23" height="24" fill="rgb(73,205,127)" stroke="rgb(58,164,101)" stroke-width="1" opacity="0.75" />
			</g>
		</g>
		<g>
			<title> (ctg4_326)</title>
			<polygon class=" (ctg4_326)" points="755,25 765,25 765,10 795,40 765,70 765,55 755,55" fill="rgb(255,255,255)" fill-opacity="1.0" stroke="rgb(0,0,0)" stroke-width="2"  />
			<g>
				<title>ketoacyl-synt (PF00109)
"Beta-ketoacyl synthase, N-terminal domain"</title>
				<rect class="PF00109" x="755" y="28" stroke-linejoin="round" width="24" height="24" fill="rgb(112,116,228)" stroke="rgb(89,92,182)" stroke-width="1" opacity="0.75" />
			</g>
			<g>
				<title>Ketoacyl-synt_C (PF02801)
"Beta-ketoacyl synthase, C-terminal domain"</title>
				<polygon class="PF02801" points="780,29 790,39 790,41 780,51" stroke-linejoin="round" width="10" height="24" fill="rgb(215,78,102)" stroke="rgb(172,62,81)" stroke-width="1" opacity="0.75" />
			</g>
		</g>
		<g>
			<title> (ctg4_327)</title>
			<polygon class=" (ctg4_327)" points="797,10 811,40 797,70" fill="rgb(255,255,255)" fill-opacity="1.0" stroke="rgb(0,0,0)" stroke-width="2"  />
		</g>
		<g>
			<title> (ctg4_328)</title>
			<polygon class=" (ctg4_328)" points="812,10 833,40 812,70" fill="rgb(255,255,255)" fill-opacity="1.0" stroke="rgb(0,0,0)" stroke-width="2"  />
			<g>
				<title>ACPS (PF01648)
"4'-phosphopantetheinyl transferase superfamily"</title>
				<polygon class="PF01648" points="821,28 821,28 830,40 830,40 821,52 821,52" stroke-linejoin="round" width="9" height="24" fill="rgb(85,184,135)" stroke="rgb(68,147,108)" stroke-width="1" opacity="0.75" />
			</g>
		</g>
		<g>
			<title> (ctg4_329)</title>
			<polygon class=" (ctg4_329)" points="836,40 851,10 851,70" fill="rgb(255,255,255)" fill-opacity="1.0" stroke="rgb(0,0,0)" stroke-width="2"  />
			<g>
				<title>SecB (PF02556)
"Preprotein translocase subunit SecB"</title>
				<polygon class="PF02556" points="839,40 845,28 849,28 849,52 845,52" stroke-linejoin="round" width="13" height="24" fill="rgb(51,56,193)" stroke="rgb(40,44,154)" stroke-width="1" opacity="0.75" />
			</g>
		</g>
		<g>
			<title> (ctg4_330)</title>
			<polygon class=" (ctg4_330)" points="852,40 860,10 860,70" fill="rgb(255,255,255)" fill-opacity="1.0" stroke="rgb(0,0,0)" stroke-width="2"  />
			<g>
				<title>Glutaredoxin (PF00462)
"Glutaredoxin"</title>
				<polygon class="PF00462" points="855,40 858,28 860,28 860,52 858,52" stroke-linejoin="round" width="6" height="24" fill="rgb(77,192,167)" stroke="rgb(61,153,133)" stroke-width="1" opacity="0.75" />
			</g>
		</g>
		<g>
			<title> (ctg4_331)</title>
			<polygon class=" (ctg4_331)" points="861,40 874,10 874,70" fill="rgb(255,255,255)" fill-opacity="1.0" stroke="rgb(0,0,0)" stroke-width="2"  />
			<g>
				<title>Rhodanese (PF00581)
"Rhodanese-like domain"</title>
				<polygon class="PF00581" points="864,40 870,28 870,28 870,52 870,52" stroke-linejoin="round" width="8" height="24" fill="rgb(145,191,76)" stroke="rgb(116,152,60)" stroke-width="1" opacity="0.75" />
			</g>
		</g>
		<g>
			<title> (ctg4_332)</title>
			<polygon class=" (ctg4_332)" points="913,25 908,25 908,10 878,40 908,70 908,55 913,55" fill="rgb(255,255,255)" fill-opacity="1.0" stroke="rgb(0,0,0)" stroke-width="2"  />
			<g>
				<title>RsgA_GTPase (PF03193)
"RsgA GTPase"</title>
				<polygon class="PF03193" points="884,38 894,28 901,28 901,52 894,52 884,42" stroke-linejoin="round" width="17" height="24" fill="rgb(89,182,98)" stroke="rgb(71,145,78)" stroke-width="1" opacity="0.75" />
			</g>
		</g>
		<g>
			<title> (ctg4_333)</title>
			<polygon class=" (ctg4_333)" points="918,10 936,40 918,70" fill="rgb(255,255,255)" fill-opacity="1.0" stroke="rgb(0,0,0)" stroke-width="2"  />
			<g>
				<title>RNase_T (PF00929)
"Exonuclease"</title>
				<polygon class="PF00929" points="919,28 925,28 933,40 925,52 919,52" stroke-linejoin="round" width="16" height="24" fill="rgb(201,87,120)" stroke="rgb(160,69,96)" stroke-width="1" opacity="0.75" />
			</g>
		</g>
		<g>
			<title> (ctg4_334)</title>
			<polygon class=" (ctg4_334)" points="942,10 966,40 942,70" fill="rgb(255,255,255)" fill-opacity="1.0" stroke="rgb(0,0,0)" stroke-width="2"  />
			<g>
				<title>BaxI_1 (PF12811)
"Bax inhibitor 1 like"</title>
				<polygon class="PF12811" points="942,28 953,28 962,40 953,52 942,52" stroke-linejoin="round" width="23" height="24" fill="rgb(224,58,156)" stroke="rgb(179,46,124)" stroke-width="1" opacity="0.75" />
			</g>
		</g>
		<g>
			<title> (ctg4_335)</title>
			<polygon class=" (ctg4_335)" points="971,10 997,40 971,70" fill="rgb(255,255,255)" fill-opacity="1.0" stroke="rgb(0,0,0)" stroke-width="2"  />
			<g>
				<title>adh_short_C2 (PF13561)
"Enoyl-(Acyl carrier protein) reductase"</title>
				<polygon class="PF13561" points="972,28 982,28 993,40 982,52 972,52" stroke-linejoin="round" width="24" height="24" fill="rgb(73,205,127)" stroke="rgb(58,164,101)" stroke-width="1" opacity="0.75" />
			</g>
		</g>
		<g>
			<title> (ctg4_336)</title>
			<polygon class=" (ctg4_336)" points="1046,25 1030,25 1030,10 1000,40 1030,70 1030,55 1046,55" fill="rgb(255,255,255)" fill-opacity="1.0" stroke="rgb(0,0,0)" stroke-width="2"  />
			<g>
				<title>OEP (PF02321)
"Outer membrane efflux protein"</title>
				<polygon class="PF02321" points="1004,40 1016,28 1019,28 1019,52 1016,52" stroke-linejoin="round" width="18" height="24" fill="rgb(205,57,201)" stroke="rgb(164,45,160)" stroke-width="1" opacity="0.75" />
			</g>
			<g>
				<title>OEP (PF02321)
"Outer membrane efflux protein"</title>
				<rect class="PF02321" x="1021" y="28" stroke-linejoin="round" width="18" height="24" fill="rgb(205,57,201)" stroke="rgb(164,45,160)" stroke-width="1" opacity="0.75" />
			</g>
		</g>
		<g>
			<title> (ctg4_337)</title>
			<polygon class=" (ctg4_337)" points="1113,25 1077,25 1077,10 1047,40 1077,70 1077,55 1113,55" fill="rgb(255,255,255)" fill-opacity="1.0" stroke="rgb(0,0,0)" stroke-width="2"  />
			<g>
				<title>FtsX (PF02687)
"FtsX-like permease family"</title>
				<polygon class="PF02687" points="1051,40 1058,33 1058,47" stroke-linejoin="round" width="11" height="24" fill="rgb(126,55,214)" stroke="rgb(100,44,171)" stroke-width="1" opacity="0.75" />
			</g>
			<g>
				<title>MacB_PCD (PF12704)
"MacB-like periplasmic core domain"</title>
				<polygon class="PF12704" points="1062,29 1063,28 1084,28 1084,52 1063,52 1062,51" stroke-linejoin="round" width="22" height="24" fill="rgb(79,76,190)" stroke="rgb(63,60,152)" stroke-width="1" opacity="0.75" />
			</g>
			<g>
				<title>ABC_tran (PF00005)
"ABC transporter"</title>
				<rect class="PF00005" x="1096" y="28" stroke-linejoin="round" width="14" height="24" fill="rgb(129,201,63)" stroke="rgb(103,160,50)" stroke-width="1" opacity="0.75" />
			</g>
		</g>
		<g>
			<title> (ctg4_338)</title>
			<polygon class=" (ctg4_338)" points="1158,25 1144,25 1144,10 1114,40 1144,70 1144,55 1158,55" fill="rgb(255,255,255)" fill-opacity="1.0" stroke="rgb(0,0,0)" stroke-width="2"  />
			<g>
				<title>HlyD_D23 (PF16576)
"Barrel-sandwich domain of CusB or HlyD membrane-fusion"</title>
				<polygon class="PF16576" points="1128,30 1130,28 1154,28 1154,52 1130,52 1128,50" stroke-linejoin="round" width="26" height="24" fill="rgb(70,190,92)" stroke="rgb(56,152,73)" stroke-width="1" opacity="0.75" />
			</g>
		</g>
		<g>
			<title> (ctg4_339)</title>
			<polygon class=" (ctg4_339)" points="1195,25 1192,25 1192,10 1162,40 1192,70 1192,55 1195,55" fill="rgb(255,255,255)" fill-opacity="1.0" stroke="rgb(0,0,0)" stroke-width="2"  />
			<g>
				<title>DNA_pol3_delta (PF06144)
"DNA polymerase III, delta subunit"</title>
				<polygon class="PF06144" points="1176,30 1178,28 1192,28 1192,52 1178,52 1176,50" stroke-linejoin="round" width="16" height="24" fill="rgb(196,60,53)" stroke="rgb(156,47,42)" stroke-width="1" opacity="0.75" />
			</g>
		</g>
		<g>
			<title> (ctg4_340)</title>
			<polygon class=" (ctg4_340)" points="1196,40 1213,10 1213,70" fill="rgb(255,255,255)" fill-opacity="1.0" stroke="rgb(0,0,0)" stroke-width="2"  />
		</g>
		<g>
			<title> (ctg4_341)</title>
			<polygon class=" (ctg4_341)" points="1300,25 1243,25 1243,10 1213,40 1243,70 1243,55 1300,55" fill="rgb(255,255,255)" fill-opacity="1.0" stroke="rgb(0,0,0)" stroke-width="2"  />
			<g>
				<title>Anticodon_1 (PF08264)
"Anticodon-binding domain of tRNA ligase"</title>
				<polygon class="PF08264" points="1217,40 1228,29 1228,51" stroke-linejoin="round" width="12" height="24" fill="rgb(85,52,208)" stroke="rgb(68,41,166)" stroke-width="1" opacity="0.75" />
			</g>
			<g>
				<title>tRNA-synt_1 (PF00133)
"tRNA synthetases class I (I, L, M and V)"</title>
				<rect class="PF00133" x="1232" y="28" stroke-linejoin="round" width="4" height="24" fill="rgb(209,58,146)" stroke="rgb(167,46,116)" stroke-width="1" opacity="0.75" />
			</g>
			<g>
				<title>tRNA-synt_1 (PF00133)
"tRNA synthetases class I (I, L, M and V)"</title>
				<rect class="PF00133" x="1240" y="28" stroke-linejoin="round" width="17" height="24" fill="rgb(209,58,146)" stroke="rgb(167,46,116)" stroke-width="1" opacity="0.75" />
			</g>
			<g>
				<title>tRNA-synt_1_2 (PF13603)
"Leucyl-tRNA synthetase, Domain 2"</title>
				<rect class="PF13603" x="1258" y="28" stroke-linejoin="round" width="19" height="24" fill="rgb(195,72,175)" stroke="rgb(156,57,140)" stroke-width="1" opacity="0.75" />
			</g>
		</g>
		<g>
			<title> (ctg4_342)</title>
			<polygon class=" (ctg4_342)" points="1307,40 1318,10 1318,70" fill="rgb(255,255,255)" fill-opacity="1.0" stroke="rgb(0,0,0)" stroke-width="2"  />
			<g>
				<title>DUF4124 (PF13511)
"Domain of unknown function (DUF4124)"</title>
				<polygon class="PF13511" points="1310,40 1315,28 1316,28 1316,52 1315,52" stroke-linejoin="round" width="9" height="24" fill="rgb(146,63,218)" stroke="rgb(116,50,174)" stroke-width="1" opacity="0.75" />
			</g>
		</g>
		<g>
			<title> (ctg4_343)</title>
			<polygon class=" (ctg4_343)" points="1336,25 1363,25 1363,10 1393,40 1363,70 1363,55 1336,55" fill="rgb(255,255,255)" fill-opacity="1.0" stroke="rgb(0,0,0)" stroke-width="2"  />
			<g>
				<title>TPP_enzyme_N (PF02776)
"Thiamine pyrophosphate enzyme, N-terminal TPP binding domain"</title>
				<rect class="PF02776" x="1336" y="28" stroke-linejoin="round" width="16" height="24" fill="rgb(55,81,185)" stroke="rgb(44,64,148)" stroke-width="1" opacity="0.75" />
			</g>
			<g>
				<title>TPP_enzyme_M (PF00205)
"Thiamine pyrophosphate enzyme, central domain"</title>
				<rect class="PF00205" x="1355" y="28" stroke-linejoin="round" width="13" height="24" fill="rgb(149,194,69)" stroke="rgb(119,155,55)" stroke-width="1" opacity="0.75" />
			</g>
			<g>
				<title>TPP_enzyme_C (PF02775)
"Thiamine pyrophosphate enzyme, C-terminal TPP binding domain"</title>
				<polygon class="PF02775" points="1375,28 1377,28 1389,40 1389,40 1377,52 1375,52" stroke-linejoin="round" width="14" height="24" fill="rgb(156,179,45)" stroke="rgb(124,143,36)" stroke-width="1" opacity="0.75" />
			</g>
		</g>
		<g>
			<title> (ctg4_344)</title>
			<polygon class=" (ctg4_344)" points="1393,10 1409,40 1393,70" fill="rgb(255,255,255)" fill-opacity="1.0" stroke="rgb(0,0,0)" stroke-width="2"  />
			<g>
				<title>ACT_5 (PF13710)
"ACT domain"</title>
				<polygon class="PF13710" points="1394,28 1399,28 1400,30 1400,50 1399,52 1394,52" stroke-linejoin="round" width="6" height="24" fill="rgb(52,188,189)" stroke="rgb(41,150,151)" stroke-width="1" opacity="0.75" />
			</g>
			<g>
				<title>ALS_ss_C (PF10369)
"Small subunit of acetolactate synthase"</title>
				<polygon class="PF10369" points="1401,31 1405,40 1401,49" stroke-linejoin="round" width="7" height="24" fill="rgb(93,227,61)" stroke="rgb(74,181,48)" stroke-width="1" opacity="0.75" />
			</g>
		</g>
		<g>
			<title> (ctg4_345)</title>
			<polygon class=" (ctg4_345)" points="1411,25 1414,25 1414,10 1444,40 1414,70 1414,55 1411,55" fill="rgb(255,255,255)" fill-opacity="1.0" stroke="rgb(0,0,0)" stroke-width="2"  />
			<g>
				<title>IlvN (PF07991)
"Acetohydroxy acid isomeroreductase, NADPH-binding domain"</title>
				<rect class="PF07991" x="1412" y="28" stroke-linejoin="round" width="16" height="24" fill="rgb(108,60,227)" stroke="rgb(86,48,181)" stroke-width="1" opacity="0.75" />
			</g>
			<g>
				<title>IlvC (PF01450)
"Acetohydroxy acid isomeroreductase, catalytic domain"</title>
				<polygon class="PF01450" points="1429,29 1440,40 1429,51" stroke-linejoin="round" width="14" height="24" fill="rgb(54,198,169)" stroke="rgb(43,158,135)" stroke-width="1" opacity="0.75" />
			</g>
		</g>
	</g>
</svg>
